G04 #@! TF.FileFunction,Soldermask,Top*
%FSLAX46Y46*%
G04 Gerber Fmt 4.6, Leading zero omitted, Abs format (unit mm)*
G04 Created by KiCad (PCBNEW 4.0.4+e1-6308~48~ubuntu16.04.1-stable) date Tue Nov 29 16:28:57 2016*
%MOMM*%
%LPD*%
G01*
G04 APERTURE LIST*
%ADD10C,0.100000*%
%ADD11R,2.432000X2.127200*%
%ADD12O,2.432000X2.127200*%
%ADD13C,1.700000*%
%ADD14R,1.700000X1.700000*%
%ADD15C,1.600000*%
%ADD16C,2.398980*%
G04 APERTURE END LIST*
D10*
D11*
X10160000Y43180000D03*
D12*
X10160000Y40640000D03*
X10160000Y38100000D03*
X10160000Y35560000D03*
X10160000Y33020000D03*
X10160000Y30480000D03*
X10160000Y27940000D03*
X10160000Y25400000D03*
X10160000Y22860000D03*
X10160000Y20320000D03*
X10160000Y17780000D03*
X10160000Y15240000D03*
X10160000Y12700000D03*
X10160000Y10160000D03*
X10160000Y7620000D03*
D11*
X25400000Y43180000D03*
D12*
X25400000Y40640000D03*
X25400000Y38100000D03*
X25400000Y35560000D03*
X25400000Y33020000D03*
X25400000Y30480000D03*
X25400000Y27940000D03*
X25400000Y25400000D03*
X25400000Y22860000D03*
X25400000Y20320000D03*
X25400000Y17780000D03*
X25400000Y15240000D03*
X25400000Y12700000D03*
X25400000Y10160000D03*
X25400000Y7620000D03*
D11*
X31750000Y38100000D03*
D12*
X31750000Y35560000D03*
X31750000Y33020000D03*
X31750000Y30480000D03*
X31750000Y27940000D03*
X31750000Y25400000D03*
X31750000Y22860000D03*
X31750000Y20320000D03*
D11*
X44450000Y38100000D03*
D12*
X44450000Y35560000D03*
X44450000Y33020000D03*
X44450000Y30480000D03*
X44450000Y27940000D03*
X44450000Y25400000D03*
X44450000Y22860000D03*
X44450000Y20320000D03*
D11*
X53340000Y33020000D03*
D12*
X53340000Y30480000D03*
X53340000Y27940000D03*
X53340000Y25400000D03*
D13*
X37790000Y46990000D03*
D14*
X34290000Y46990000D03*
D15*
X48260000Y12700000D03*
X46990000Y11430000D03*
X48260000Y10160000D03*
D16*
X31750000Y10160000D03*
X41910000Y10160000D03*
X31750000Y13970000D03*
X41910000Y13970000D03*
D13*
X50800000Y41600000D03*
D14*
X50800000Y38100000D03*
D11*
X2540000Y48260000D03*
D12*
X2540000Y45720000D03*
X2540000Y43180000D03*
X2540000Y40640000D03*
X2540000Y38100000D03*
X2540000Y35560000D03*
X2540000Y33020000D03*
X2540000Y30480000D03*
X2540000Y27940000D03*
X2540000Y25400000D03*
X2540000Y22860000D03*
X2540000Y20320000D03*
X2540000Y17780000D03*
X2540000Y15240000D03*
X2540000Y12700000D03*
X2540000Y10160000D03*
X2540000Y7620000D03*
X2540000Y5080000D03*
X2540000Y2540000D03*
M02*
