G04 #@! TF.FileFunction,Legend,Bot*
%FSLAX46Y46*%
G04 Gerber Fmt 4.6, Leading zero omitted, Abs format (unit mm)*
G04 Created by KiCad (PCBNEW 4.0.4+e1-6308~48~ubuntu16.04.1-stable) date Tue Nov 29 16:28:57 2016*
%MOMM*%
%LPD*%
G01*
G04 APERTURE LIST*
%ADD10C,0.100000*%
%ADD11C,0.300000*%
G04 APERTURE END LIST*
D10*
D11*
X19387429Y12991144D02*
X20887429Y12991144D01*
X20887429Y13348287D01*
X20816000Y13562572D01*
X20673143Y13705430D01*
X20530286Y13776858D01*
X20244571Y13848287D01*
X20030286Y13848287D01*
X19744571Y13776858D01*
X19601714Y13705430D01*
X19458857Y13562572D01*
X19387429Y13348287D01*
X19387429Y12991144D01*
X20173143Y14991144D02*
X20101714Y15205430D01*
X20030286Y15276858D01*
X19887429Y15348287D01*
X19673143Y15348287D01*
X19530286Y15276858D01*
X19458857Y15205430D01*
X19387429Y15062572D01*
X19387429Y14491144D01*
X20887429Y14491144D01*
X20887429Y14991144D01*
X20816000Y15134001D01*
X20744571Y15205430D01*
X20601714Y15276858D01*
X20458857Y15276858D01*
X20316000Y15205430D01*
X20244571Y15134001D01*
X20173143Y14991144D01*
X20173143Y14491144D01*
X19244571Y15634001D02*
X19244571Y16776858D01*
X19387429Y17134001D02*
X20887429Y17134001D01*
X19816000Y17634001D01*
X20887429Y18134001D01*
X19387429Y18134001D01*
X19387429Y19062573D02*
X19458857Y18919715D01*
X19530286Y18848287D01*
X19673143Y18776858D01*
X20101714Y18776858D01*
X20244571Y18848287D01*
X20316000Y18919715D01*
X20387429Y19062573D01*
X20387429Y19276858D01*
X20316000Y19419715D01*
X20244571Y19491144D01*
X20101714Y19562573D01*
X19673143Y19562573D01*
X19530286Y19491144D01*
X19458857Y19419715D01*
X19387429Y19276858D01*
X19387429Y19062573D01*
X20387429Y19991144D02*
X20387429Y20562573D01*
X20887429Y20205430D02*
X19601714Y20205430D01*
X19458857Y20276858D01*
X19387429Y20419716D01*
X19387429Y20562573D01*
X19387429Y21276859D02*
X19458857Y21134001D01*
X19530286Y21062573D01*
X19673143Y20991144D01*
X20101714Y20991144D01*
X20244571Y21062573D01*
X20316000Y21134001D01*
X20387429Y21276859D01*
X20387429Y21491144D01*
X20316000Y21634001D01*
X20244571Y21705430D01*
X20101714Y21776859D01*
X19673143Y21776859D01*
X19530286Y21705430D01*
X19458857Y21634001D01*
X19387429Y21491144D01*
X19387429Y21276859D01*
X19387429Y22419716D02*
X20387429Y22419716D01*
X20101714Y22419716D02*
X20244571Y22491144D01*
X20316000Y22562573D01*
X20387429Y22705430D01*
X20387429Y22848287D01*
X19244571Y22991144D02*
X19244571Y24134001D01*
X19530286Y25348287D02*
X19458857Y25276858D01*
X19387429Y25062572D01*
X19387429Y24919715D01*
X19458857Y24705430D01*
X19601714Y24562572D01*
X19744571Y24491144D01*
X20030286Y24419715D01*
X20244571Y24419715D01*
X20530286Y24491144D01*
X20673143Y24562572D01*
X20816000Y24705430D01*
X20887429Y24919715D01*
X20887429Y25062572D01*
X20816000Y25276858D01*
X20744571Y25348287D01*
X19387429Y26205430D02*
X19458857Y26062572D01*
X19530286Y25991144D01*
X19673143Y25919715D01*
X20101714Y25919715D01*
X20244571Y25991144D01*
X20316000Y26062572D01*
X20387429Y26205430D01*
X20387429Y26419715D01*
X20316000Y26562572D01*
X20244571Y26634001D01*
X20101714Y26705430D01*
X19673143Y26705430D01*
X19530286Y26634001D01*
X19458857Y26562572D01*
X19387429Y26419715D01*
X19387429Y26205430D01*
X20387429Y27348287D02*
X19387429Y27348287D01*
X20244571Y27348287D02*
X20316000Y27419715D01*
X20387429Y27562573D01*
X20387429Y27776858D01*
X20316000Y27919715D01*
X20173143Y27991144D01*
X19387429Y27991144D01*
X20387429Y28491144D02*
X20387429Y29062573D01*
X20887429Y28705430D02*
X19601714Y28705430D01*
X19458857Y28776858D01*
X19387429Y28919716D01*
X19387429Y29062573D01*
X19387429Y29562573D02*
X20387429Y29562573D01*
X20101714Y29562573D02*
X20244571Y29634001D01*
X20316000Y29705430D01*
X20387429Y29848287D01*
X20387429Y29991144D01*
X19387429Y30705430D02*
X19458857Y30562572D01*
X19530286Y30491144D01*
X19673143Y30419715D01*
X20101714Y30419715D01*
X20244571Y30491144D01*
X20316000Y30562572D01*
X20387429Y30705430D01*
X20387429Y30919715D01*
X20316000Y31062572D01*
X20244571Y31134001D01*
X20101714Y31205430D01*
X19673143Y31205430D01*
X19530286Y31134001D01*
X19458857Y31062572D01*
X19387429Y30919715D01*
X19387429Y30705430D01*
X19387429Y32062573D02*
X19458857Y31919715D01*
X19601714Y31848287D01*
X20887429Y31848287D01*
X19244571Y32276858D02*
X19244571Y33419715D01*
X20887429Y33562572D02*
X19387429Y34062572D01*
X20887429Y34562572D01*
X20744571Y34991143D02*
X20816000Y35062572D01*
X20887429Y35205429D01*
X20887429Y35562572D01*
X20816000Y35705429D01*
X20744571Y35776858D01*
X20601714Y35848286D01*
X20458857Y35848286D01*
X20244571Y35776858D01*
X19387429Y34919715D01*
X19387429Y35848286D01*
M02*
