G04 #@! TF.FileFunction,Legend,Top*
%FSLAX46Y46*%
G04 Gerber Fmt 4.6, Leading zero omitted, Abs format (unit mm)*
G04 Created by KiCad (PCBNEW 4.0.4+e1-6308~48~ubuntu16.04.1-stable) date Tue Nov 29 16:28:57 2016*
%MOMM*%
%LPD*%
G01*
G04 APERTURE LIST*
%ADD10C,0.100000*%
%ADD11C,0.300000*%
%ADD12C,0.150000*%
G04 APERTURE END LIST*
D10*
D11*
X45760000Y26150000D02*
X45617143Y26221429D01*
X45402857Y26221429D01*
X45188572Y26150000D01*
X45045714Y26007143D01*
X44974286Y25864286D01*
X44902857Y25578571D01*
X44902857Y25364286D01*
X44974286Y25078571D01*
X45045714Y24935714D01*
X45188572Y24792857D01*
X45402857Y24721429D01*
X45545714Y24721429D01*
X45760000Y24792857D01*
X45831429Y24864286D01*
X45831429Y25364286D01*
X45545714Y25364286D01*
X47331429Y24721429D02*
X46831429Y25435714D01*
X46474286Y24721429D02*
X46474286Y26221429D01*
X47045714Y26221429D01*
X47188572Y26150000D01*
X47260000Y26078571D01*
X47331429Y25935714D01*
X47331429Y25721429D01*
X47260000Y25578571D01*
X47188572Y25507143D01*
X47045714Y25435714D01*
X46474286Y25435714D01*
X47974286Y25507143D02*
X48474286Y25507143D01*
X48688572Y24721429D02*
X47974286Y24721429D01*
X47974286Y26221429D01*
X48688572Y26221429D01*
X49331429Y25507143D02*
X49831429Y25507143D01*
X50045715Y24721429D02*
X49331429Y24721429D01*
X49331429Y26221429D01*
X50045715Y26221429D01*
X50688572Y24721429D02*
X50688572Y26221429D01*
X51545715Y24721429D01*
X51545715Y26221429D01*
X46680715Y28047143D02*
X46895001Y27975714D01*
X46966429Y27904286D01*
X47037858Y27761429D01*
X47037858Y27547143D01*
X46966429Y27404286D01*
X46895001Y27332857D01*
X46752143Y27261429D01*
X46180715Y27261429D01*
X46180715Y28761429D01*
X46680715Y28761429D01*
X46823572Y28690000D01*
X46895001Y28618571D01*
X46966429Y28475714D01*
X46966429Y28332857D01*
X46895001Y28190000D01*
X46823572Y28118571D01*
X46680715Y28047143D01*
X46180715Y28047143D01*
X47895001Y27261429D02*
X47752143Y27332857D01*
X47680715Y27475714D01*
X47680715Y28761429D01*
X49109286Y27261429D02*
X49109286Y28047143D01*
X49037857Y28190000D01*
X48895000Y28261429D01*
X48609286Y28261429D01*
X48466429Y28190000D01*
X49109286Y27332857D02*
X48966429Y27261429D01*
X48609286Y27261429D01*
X48466429Y27332857D01*
X48395000Y27475714D01*
X48395000Y27618571D01*
X48466429Y27761429D01*
X48609286Y27832857D01*
X48966429Y27832857D01*
X49109286Y27904286D01*
X50466429Y27332857D02*
X50323572Y27261429D01*
X50037858Y27261429D01*
X49895000Y27332857D01*
X49823572Y27404286D01*
X49752143Y27547143D01*
X49752143Y27975714D01*
X49823572Y28118571D01*
X49895000Y28190000D01*
X50037858Y28261429D01*
X50323572Y28261429D01*
X50466429Y28190000D01*
X51109286Y27261429D02*
X51109286Y28761429D01*
X51252143Y27832857D02*
X51680714Y27261429D01*
X51680714Y28261429D02*
X51109286Y27690000D01*
X48672858Y29801429D02*
X48172858Y30515714D01*
X47815715Y29801429D02*
X47815715Y31301429D01*
X48387143Y31301429D01*
X48530001Y31230000D01*
X48601429Y31158571D01*
X48672858Y31015714D01*
X48672858Y30801429D01*
X48601429Y30658571D01*
X48530001Y30587143D01*
X48387143Y30515714D01*
X47815715Y30515714D01*
X49887143Y29872857D02*
X49744286Y29801429D01*
X49458572Y29801429D01*
X49315715Y29872857D01*
X49244286Y30015714D01*
X49244286Y30587143D01*
X49315715Y30730000D01*
X49458572Y30801429D01*
X49744286Y30801429D01*
X49887143Y30730000D01*
X49958572Y30587143D01*
X49958572Y30444286D01*
X49244286Y30301429D01*
X51244286Y29801429D02*
X51244286Y31301429D01*
X51244286Y29872857D02*
X51101429Y29801429D01*
X50815715Y29801429D01*
X50672857Y29872857D01*
X50601429Y29944286D01*
X50530000Y30087143D01*
X50530000Y30515714D01*
X50601429Y30658571D01*
X50672857Y30730000D01*
X50815715Y30801429D01*
X51101429Y30801429D01*
X51244286Y30730000D01*
X47922858Y33127143D02*
X48137144Y33055714D01*
X48208572Y32984286D01*
X48280001Y32841429D01*
X48280001Y32627143D01*
X48208572Y32484286D01*
X48137144Y32412857D01*
X47994286Y32341429D01*
X47422858Y32341429D01*
X47422858Y33841429D01*
X47922858Y33841429D01*
X48065715Y33770000D01*
X48137144Y33698571D01*
X48208572Y33555714D01*
X48208572Y33412857D01*
X48137144Y33270000D01*
X48065715Y33198571D01*
X47922858Y33127143D01*
X47422858Y33127143D01*
X49137144Y32341429D02*
X48994286Y32412857D01*
X48922858Y32555714D01*
X48922858Y33841429D01*
X50351429Y33341429D02*
X50351429Y32341429D01*
X49708572Y33341429D02*
X49708572Y32555714D01*
X49780000Y32412857D01*
X49922858Y32341429D01*
X50137143Y32341429D01*
X50280000Y32412857D01*
X50351429Y32484286D01*
X51637143Y32412857D02*
X51494286Y32341429D01*
X51208572Y32341429D01*
X51065715Y32412857D01*
X50994286Y32555714D01*
X50994286Y33127143D01*
X51065715Y33270000D01*
X51208572Y33341429D01*
X51494286Y33341429D01*
X51637143Y33270000D01*
X51708572Y33127143D01*
X51708572Y32984286D01*
X50994286Y32841429D01*
X47117143Y21070000D02*
X46974286Y21141429D01*
X46760000Y21141429D01*
X46545715Y21070000D01*
X46402857Y20927143D01*
X46331429Y20784286D01*
X46260000Y20498571D01*
X46260000Y20284286D01*
X46331429Y19998571D01*
X46402857Y19855714D01*
X46545715Y19712857D01*
X46760000Y19641429D01*
X46902857Y19641429D01*
X47117143Y19712857D01*
X47188572Y19784286D01*
X47188572Y20284286D01*
X46902857Y20284286D01*
X47831429Y19641429D02*
X47831429Y21141429D01*
X48688572Y19641429D01*
X48688572Y21141429D01*
X49402858Y19641429D02*
X49402858Y21141429D01*
X49760001Y21141429D01*
X49974286Y21070000D01*
X50117144Y20927143D01*
X50188572Y20784286D01*
X50260001Y20498571D01*
X50260001Y20284286D01*
X50188572Y19998571D01*
X50117144Y19855714D01*
X49974286Y19712857D01*
X49760001Y19641429D01*
X49402858Y19641429D01*
X27075000Y19641429D02*
X27075000Y21141429D01*
X27432143Y21141429D01*
X27646428Y21070000D01*
X27789286Y20927143D01*
X27860714Y20784286D01*
X27932143Y20498571D01*
X27932143Y20284286D01*
X27860714Y19998571D01*
X27789286Y19855714D01*
X27646428Y19712857D01*
X27432143Y19641429D01*
X27075000Y19641429D01*
X28575000Y19641429D02*
X28575000Y21141429D01*
X30146429Y19641429D02*
X29646429Y20355714D01*
X29289286Y19641429D02*
X29289286Y21141429D01*
X29860714Y21141429D01*
X30003572Y21070000D01*
X30075000Y20998571D01*
X30146429Y20855714D01*
X30146429Y20641429D01*
X30075000Y20498571D01*
X30003572Y20427143D01*
X29860714Y20355714D01*
X29289286Y20355714D01*
X36655714Y38921429D02*
X37155714Y37421429D01*
X37655714Y38921429D01*
X38155714Y37421429D02*
X38155714Y38921429D01*
X38655714Y37850000D01*
X39155714Y38921429D01*
X39155714Y37421429D01*
X40155714Y38921429D02*
X40441428Y38921429D01*
X40584286Y38850000D01*
X40727143Y38707143D01*
X40798571Y38421429D01*
X40798571Y37921429D01*
X40727143Y37635714D01*
X40584286Y37492857D01*
X40441428Y37421429D01*
X40155714Y37421429D01*
X40012857Y37492857D01*
X39870000Y37635714D01*
X39798571Y37921429D01*
X39798571Y38421429D01*
X39870000Y38707143D01*
X40012857Y38850000D01*
X40155714Y38921429D01*
X41227143Y38921429D02*
X42084286Y38921429D01*
X41655715Y37421429D02*
X41655715Y38921429D01*
X27467857Y38207143D02*
X27967857Y38207143D01*
X28182143Y37421429D02*
X27467857Y37421429D01*
X27467857Y38921429D01*
X28182143Y38921429D01*
X28825000Y37421429D02*
X28825000Y38921429D01*
X29682143Y37421429D01*
X29682143Y38921429D01*
X27987858Y8441429D02*
X28845001Y8441429D01*
X28416430Y6941429D02*
X28416430Y8441429D01*
X29202144Y8441429D02*
X30202144Y6941429D01*
X30202144Y8441429D02*
X29202144Y6941429D01*
X31559286Y6941429D02*
X30702143Y6941429D01*
X31130715Y6941429D02*
X31130715Y8441429D01*
X30987858Y8227143D01*
X30845000Y8084286D01*
X30702143Y8012857D01*
X4707143Y7806429D02*
X5207143Y6306429D01*
X5707143Y7806429D01*
X6207143Y6306429D02*
X6207143Y7806429D01*
X6921429Y6306429D02*
X6921429Y7806429D01*
X7778572Y6306429D01*
X7778572Y7806429D01*
X28289286Y43136429D02*
X27432143Y43136429D01*
X27860715Y43136429D02*
X27860715Y44636429D01*
X27717858Y44422143D01*
X27575000Y44279286D01*
X27432143Y44207857D01*
X28860714Y44493571D02*
X28932143Y44565000D01*
X29075000Y44636429D01*
X29432143Y44636429D01*
X29575000Y44565000D01*
X29646429Y44493571D01*
X29717857Y44350714D01*
X29717857Y44207857D01*
X29646429Y43993571D01*
X28789286Y43136429D01*
X29717857Y43136429D01*
X6064286Y42501429D02*
X5207143Y42501429D01*
X5635715Y42501429D02*
X5635715Y44001429D01*
X5492858Y43787143D01*
X5350000Y43644286D01*
X5207143Y43572857D01*
X6564286Y44001429D02*
X7492857Y44001429D01*
X6992857Y43430000D01*
X7207143Y43430000D01*
X7350000Y43358571D01*
X7421429Y43287143D01*
X7492857Y43144286D01*
X7492857Y42787143D01*
X7421429Y42644286D01*
X7350000Y42572857D01*
X7207143Y42501429D01*
X6778571Y42501429D01*
X6635714Y42572857D01*
X6564286Y42644286D01*
X37715000Y25995715D02*
X37715000Y26710001D01*
X38143571Y25852858D02*
X36643571Y26352858D01*
X38143571Y26852858D01*
X37143571Y27995715D02*
X38143571Y27995715D01*
X36572143Y27638572D02*
X37643571Y27281429D01*
X37643571Y28210001D01*
X38143571Y28852857D02*
X38143571Y29138572D01*
X38072143Y29281429D01*
X38000714Y29352857D01*
X37786429Y29495715D01*
X37500714Y29567143D01*
X36929286Y29567143D01*
X36786429Y29495715D01*
X36715000Y29424286D01*
X36643571Y29281429D01*
X36643571Y28995715D01*
X36715000Y28852857D01*
X36786429Y28781429D01*
X36929286Y28710000D01*
X37286429Y28710000D01*
X37429286Y28781429D01*
X37500714Y28852857D01*
X37572143Y28995715D01*
X37572143Y29281429D01*
X37500714Y29424286D01*
X37429286Y29495715D01*
X37286429Y29567143D01*
X37286429Y30424286D02*
X37215000Y30281428D01*
X37143571Y30210000D01*
X37000714Y30138571D01*
X36929286Y30138571D01*
X36786429Y30210000D01*
X36715000Y30281428D01*
X36643571Y30424286D01*
X36643571Y30710000D01*
X36715000Y30852857D01*
X36786429Y30924286D01*
X36929286Y30995714D01*
X37000714Y30995714D01*
X37143571Y30924286D01*
X37215000Y30852857D01*
X37286429Y30710000D01*
X37286429Y30424286D01*
X37357857Y30281428D01*
X37429286Y30210000D01*
X37572143Y30138571D01*
X37857857Y30138571D01*
X38000714Y30210000D01*
X38072143Y30281428D01*
X38143571Y30424286D01*
X38143571Y30710000D01*
X38072143Y30852857D01*
X38000714Y30924286D01*
X37857857Y30995714D01*
X37572143Y30995714D01*
X37429286Y30924286D01*
X37357857Y30852857D01*
X37286429Y30710000D01*
X37286429Y31852857D02*
X37215000Y31709999D01*
X37143571Y31638571D01*
X37000714Y31567142D01*
X36929286Y31567142D01*
X36786429Y31638571D01*
X36715000Y31709999D01*
X36643571Y31852857D01*
X36643571Y32138571D01*
X36715000Y32281428D01*
X36786429Y32352857D01*
X36929286Y32424285D01*
X37000714Y32424285D01*
X37143571Y32352857D01*
X37215000Y32281428D01*
X37286429Y32138571D01*
X37286429Y31852857D01*
X37357857Y31709999D01*
X37429286Y31638571D01*
X37572143Y31567142D01*
X37857857Y31567142D01*
X38000714Y31638571D01*
X38072143Y31709999D01*
X38143571Y31852857D01*
X38143571Y32138571D01*
X38072143Y32281428D01*
X38000714Y32352857D01*
X37857857Y32424285D01*
X37572143Y32424285D01*
X37429286Y32352857D01*
X37357857Y32281428D01*
X37286429Y32138571D01*
X18030000Y18700714D02*
X18030000Y19415000D01*
X18458571Y18557857D02*
X16958571Y19057857D01*
X18458571Y19557857D01*
X18458571Y20915000D02*
X17744286Y20415000D01*
X18458571Y20057857D02*
X16958571Y20057857D01*
X16958571Y20629285D01*
X17030000Y20772143D01*
X17101429Y20843571D01*
X17244286Y20915000D01*
X17458571Y20915000D01*
X17601429Y20843571D01*
X17672857Y20772143D01*
X17744286Y20629285D01*
X17744286Y20057857D01*
X18458571Y21557857D02*
X16958571Y21557857D01*
X16958571Y21915000D01*
X17030000Y22129285D01*
X17172857Y22272143D01*
X17315714Y22343571D01*
X17601429Y22415000D01*
X17815714Y22415000D01*
X18101429Y22343571D01*
X18244286Y22272143D01*
X18387143Y22129285D01*
X18458571Y21915000D01*
X18458571Y21557857D01*
X16958571Y23057857D02*
X18172857Y23057857D01*
X18315714Y23129285D01*
X18387143Y23200714D01*
X18458571Y23343571D01*
X18458571Y23629285D01*
X18387143Y23772143D01*
X18315714Y23843571D01*
X18172857Y23915000D01*
X16958571Y23915000D01*
X18458571Y24629286D02*
X16958571Y24629286D01*
X18458571Y25343572D02*
X16958571Y25343572D01*
X18458571Y26200715D01*
X16958571Y26200715D01*
X16958571Y27200715D02*
X16958571Y27486429D01*
X17030000Y27629287D01*
X17172857Y27772144D01*
X17458571Y27843572D01*
X17958571Y27843572D01*
X18244286Y27772144D01*
X18387143Y27629287D01*
X18458571Y27486429D01*
X18458571Y27200715D01*
X18387143Y27057858D01*
X18244286Y26915001D01*
X17958571Y26843572D01*
X17458571Y26843572D01*
X17172857Y26915001D01*
X17030000Y27057858D01*
X16958571Y27200715D01*
X18458571Y29629287D02*
X16958571Y29629287D01*
X18458571Y30486430D01*
X16958571Y30486430D01*
X18030000Y31129287D02*
X18030000Y31843573D01*
X18458571Y30986430D02*
X16958571Y31486430D01*
X18458571Y31986430D01*
X18458571Y32486430D02*
X16958571Y32486430D01*
X18458571Y33343573D01*
X16958571Y33343573D01*
X16958571Y34343573D02*
X16958571Y34629287D01*
X17030000Y34772145D01*
X17172857Y34915002D01*
X17458571Y34986430D01*
X17958571Y34986430D01*
X18244286Y34915002D01*
X18387143Y34772145D01*
X18458571Y34629287D01*
X18458571Y34343573D01*
X18387143Y34200716D01*
X18244286Y34057859D01*
X17958571Y33986430D01*
X17458571Y33986430D01*
X17172857Y34057859D01*
X17030000Y34200716D01*
X16958571Y34343573D01*
D12*
X11430000Y41910000D02*
X11430000Y6350000D01*
X11430000Y6350000D02*
X8890000Y6350000D01*
X8890000Y6350000D02*
X8890000Y41910000D01*
X8610000Y44730000D02*
X8610000Y43180000D01*
X8890000Y41910000D02*
X11430000Y41910000D01*
X11710000Y43180000D02*
X11710000Y44730000D01*
X11710000Y44730000D02*
X8610000Y44730000D01*
X26670000Y41910000D02*
X26670000Y6350000D01*
X26670000Y6350000D02*
X24130000Y6350000D01*
X24130000Y6350000D02*
X24130000Y41910000D01*
X23850000Y44730000D02*
X23850000Y43180000D01*
X24130000Y41910000D02*
X26670000Y41910000D01*
X26950000Y43180000D02*
X26950000Y44730000D01*
X26950000Y44730000D02*
X23850000Y44730000D01*
X30480000Y36830000D02*
X30480000Y19050000D01*
X30480000Y19050000D02*
X33020000Y19050000D01*
X33020000Y19050000D02*
X33020000Y36830000D01*
X30200000Y39650000D02*
X30200000Y38100000D01*
X30480000Y36830000D02*
X33020000Y36830000D01*
X33300000Y38100000D02*
X33300000Y39650000D01*
X33300000Y39650000D02*
X30200000Y39650000D01*
X43180000Y36830000D02*
X43180000Y19050000D01*
X43180000Y19050000D02*
X45720000Y19050000D01*
X45720000Y19050000D02*
X45720000Y36830000D01*
X42900000Y39650000D02*
X42900000Y38100000D01*
X43180000Y36830000D02*
X45720000Y36830000D01*
X46000000Y38100000D02*
X46000000Y39650000D01*
X46000000Y39650000D02*
X42900000Y39650000D01*
X54610000Y31750000D02*
X54610000Y24130000D01*
X52070000Y31750000D02*
X52070000Y24130000D01*
X51790000Y34570000D02*
X51790000Y33020000D01*
X54610000Y24130000D02*
X52070000Y24130000D01*
X52070000Y31750000D02*
X54610000Y31750000D01*
X54890000Y33020000D02*
X54890000Y34570000D01*
X54890000Y34570000D02*
X51790000Y34570000D01*
X36115000Y50989000D02*
X36115000Y42991000D01*
X36255000Y50984000D02*
X36255000Y42996000D01*
X36395000Y50974000D02*
X36395000Y43006000D01*
X36535000Y50959000D02*
X36535000Y43021000D01*
X36675000Y50939000D02*
X36675000Y43041000D01*
X36815000Y50914000D02*
X36815000Y47212000D01*
X36815000Y46768000D02*
X36815000Y43066000D01*
X36955000Y50884000D02*
X36955000Y47540000D01*
X36955000Y46440000D02*
X36955000Y43096000D01*
X37095000Y50848000D02*
X37095000Y47709000D01*
X37095000Y46271000D02*
X37095000Y43132000D01*
X37235000Y50807000D02*
X37235000Y47822000D01*
X37235000Y46158000D02*
X37235000Y43173000D01*
X37375000Y50761000D02*
X37375000Y47900000D01*
X37375000Y46080000D02*
X37375000Y43219000D01*
X37515000Y50708000D02*
X37515000Y47951000D01*
X37515000Y46029000D02*
X37515000Y43272000D01*
X37655000Y50649000D02*
X37655000Y47981000D01*
X37655000Y45999000D02*
X37655000Y43331000D01*
X37795000Y50584000D02*
X37795000Y47990000D01*
X37795000Y45990000D02*
X37795000Y43396000D01*
X37935000Y50513000D02*
X37935000Y47979000D01*
X37935000Y46001000D02*
X37935000Y43467000D01*
X38075000Y50434000D02*
X38075000Y47949000D01*
X38075000Y46031000D02*
X38075000Y43546000D01*
X38215000Y50347000D02*
X38215000Y47895000D01*
X38215000Y46085000D02*
X38215000Y43633000D01*
X38355000Y50252000D02*
X38355000Y47815000D01*
X38355000Y46165000D02*
X38355000Y43728000D01*
X38495000Y50148000D02*
X38495000Y47699000D01*
X38495000Y46281000D02*
X38495000Y43832000D01*
X38635000Y50034000D02*
X38635000Y47525000D01*
X38635000Y46455000D02*
X38635000Y43946000D01*
X38775000Y49909000D02*
X38775000Y47163000D01*
X38775000Y46817000D02*
X38775000Y44071000D01*
X38915000Y49771000D02*
X38915000Y44209000D01*
X39055000Y49619000D02*
X39055000Y44361000D01*
X39195000Y49449000D02*
X39195000Y44531000D01*
X39335000Y49258000D02*
X39335000Y44722000D01*
X39475000Y49040000D02*
X39475000Y44940000D01*
X39615000Y48784000D02*
X39615000Y45196000D01*
X39755000Y48473000D02*
X39755000Y45507000D01*
X39895000Y48057000D02*
X39895000Y45923000D01*
X40035000Y47190000D02*
X40035000Y46790000D01*
X38790000Y46990000D02*
G75*
G03X38790000Y46990000I-1000000J0D01*
G01*
X40077500Y46990000D02*
G75*
G03X40077500Y46990000I-4037500J0D01*
G01*
X50546000Y14224000D02*
X50038000Y13716000D01*
X50546000Y13208000D02*
X51054000Y13716000D01*
X51054000Y13716000D02*
X50546000Y14224000D01*
X50546000Y11430000D02*
G75*
G03X50546000Y11430000I-2286000J0D01*
G01*
X51010000Y11430000D02*
G75*
G03X51010000Y11430000I-2750000J0D01*
G01*
X34290000Y11430000D02*
X39370000Y11430000D01*
X39370000Y11430000D02*
X39370000Y8890000D01*
X39370000Y8890000D02*
X34290000Y8890000D01*
X34290000Y8890000D02*
X34290000Y11430000D01*
X34290000Y10160000D02*
X33020000Y10160000D01*
X39370000Y10160000D02*
X40640000Y10160000D01*
X34290000Y15240000D02*
X39370000Y15240000D01*
X39370000Y15240000D02*
X39370000Y12700000D01*
X39370000Y12700000D02*
X34290000Y12700000D01*
X34290000Y12700000D02*
X34290000Y15240000D01*
X34290000Y13970000D02*
X33020000Y13970000D01*
X39370000Y13970000D02*
X40640000Y13970000D01*
X46801000Y39925000D02*
X54799000Y39925000D01*
X46806000Y40065000D02*
X54794000Y40065000D01*
X46816000Y40205000D02*
X54784000Y40205000D01*
X46831000Y40345000D02*
X54769000Y40345000D01*
X46851000Y40485000D02*
X54749000Y40485000D01*
X46876000Y40625000D02*
X50578000Y40625000D01*
X51022000Y40625000D02*
X54724000Y40625000D01*
X46906000Y40765000D02*
X50250000Y40765000D01*
X51350000Y40765000D02*
X54694000Y40765000D01*
X46942000Y40905000D02*
X50081000Y40905000D01*
X51519000Y40905000D02*
X54658000Y40905000D01*
X46983000Y41045000D02*
X49968000Y41045000D01*
X51632000Y41045000D02*
X54617000Y41045000D01*
X47029000Y41185000D02*
X49890000Y41185000D01*
X51710000Y41185000D02*
X54571000Y41185000D01*
X47082000Y41325000D02*
X49839000Y41325000D01*
X51761000Y41325000D02*
X54518000Y41325000D01*
X47141000Y41465000D02*
X49809000Y41465000D01*
X51791000Y41465000D02*
X54459000Y41465000D01*
X47206000Y41605000D02*
X49800000Y41605000D01*
X51800000Y41605000D02*
X54394000Y41605000D01*
X47277000Y41745000D02*
X49811000Y41745000D01*
X51789000Y41745000D02*
X54323000Y41745000D01*
X47356000Y41885000D02*
X49841000Y41885000D01*
X51759000Y41885000D02*
X54244000Y41885000D01*
X47443000Y42025000D02*
X49895000Y42025000D01*
X51705000Y42025000D02*
X54157000Y42025000D01*
X47538000Y42165000D02*
X49975000Y42165000D01*
X51625000Y42165000D02*
X54062000Y42165000D01*
X47642000Y42305000D02*
X50091000Y42305000D01*
X51509000Y42305000D02*
X53958000Y42305000D01*
X47756000Y42445000D02*
X50265000Y42445000D01*
X51335000Y42445000D02*
X53844000Y42445000D01*
X47881000Y42585000D02*
X50627000Y42585000D01*
X50973000Y42585000D02*
X53719000Y42585000D01*
X48019000Y42725000D02*
X53581000Y42725000D01*
X48171000Y42865000D02*
X53429000Y42865000D01*
X48341000Y43005000D02*
X53259000Y43005000D01*
X48532000Y43145000D02*
X53068000Y43145000D01*
X48750000Y43285000D02*
X52850000Y43285000D01*
X49006000Y43425000D02*
X52594000Y43425000D01*
X49317000Y43565000D02*
X52283000Y43565000D01*
X49733000Y43705000D02*
X51867000Y43705000D01*
X50600000Y43845000D02*
X51000000Y43845000D01*
X51800000Y41600000D02*
G75*
G03X51800000Y41600000I-1000000J0D01*
G01*
X54837500Y39850000D02*
G75*
G03X54837500Y39850000I-4037500J0D01*
G01*
X1270000Y46990000D02*
X1270000Y1270000D01*
X1270000Y1270000D02*
X3810000Y1270000D01*
X3810000Y1270000D02*
X3810000Y46990000D01*
X990000Y49810000D02*
X990000Y48260000D01*
X1270000Y46990000D02*
X3810000Y46990000D01*
X4090000Y48260000D02*
X4090000Y49810000D01*
X4090000Y49810000D02*
X990000Y49810000D01*
X10612381Y45616905D02*
X9612381Y45616905D01*
X9612381Y45997858D01*
X9660000Y46093096D01*
X9707619Y46140715D01*
X9802857Y46188334D01*
X9945714Y46188334D01*
X10040952Y46140715D01*
X10088571Y46093096D01*
X10136190Y45997858D01*
X10136190Y45616905D01*
X9707619Y46569286D02*
X9660000Y46616905D01*
X9612381Y46712143D01*
X9612381Y46950239D01*
X9660000Y47045477D01*
X9707619Y47093096D01*
X9802857Y47140715D01*
X9898095Y47140715D01*
X10040952Y47093096D01*
X10612381Y46521667D01*
X10612381Y47140715D01*
X25852381Y46251905D02*
X24852381Y46251905D01*
X24852381Y46632858D01*
X24900000Y46728096D01*
X24947619Y46775715D01*
X25042857Y46823334D01*
X25185714Y46823334D01*
X25280952Y46775715D01*
X25328571Y46728096D01*
X25376190Y46632858D01*
X25376190Y46251905D01*
X24852381Y47156667D02*
X24852381Y47775715D01*
X25233333Y47442381D01*
X25233333Y47585239D01*
X25280952Y47680477D01*
X25328571Y47728096D01*
X25423810Y47775715D01*
X25661905Y47775715D01*
X25757143Y47728096D01*
X25804762Y47680477D01*
X25852381Y47585239D01*
X25852381Y47299524D01*
X25804762Y47204286D01*
X25757143Y47156667D01*
X32202381Y40536905D02*
X31202381Y40536905D01*
X31202381Y40917858D01*
X31250000Y41013096D01*
X31297619Y41060715D01*
X31392857Y41108334D01*
X31535714Y41108334D01*
X31630952Y41060715D01*
X31678571Y41013096D01*
X31726190Y40917858D01*
X31726190Y40536905D01*
X31535714Y41965477D02*
X32202381Y41965477D01*
X31154762Y41727381D02*
X31869048Y41489286D01*
X31869048Y42108334D01*
X44902381Y41171905D02*
X43902381Y41171905D01*
X43902381Y41552858D01*
X43950000Y41648096D01*
X43997619Y41695715D01*
X44092857Y41743334D01*
X44235714Y41743334D01*
X44330952Y41695715D01*
X44378571Y41648096D01*
X44426190Y41552858D01*
X44426190Y41171905D01*
X43902381Y42648096D02*
X43902381Y42171905D01*
X44378571Y42124286D01*
X44330952Y42171905D01*
X44283333Y42267143D01*
X44283333Y42505239D01*
X44330952Y42600477D01*
X44378571Y42648096D01*
X44473810Y42695715D01*
X44711905Y42695715D01*
X44807143Y42648096D01*
X44854762Y42600477D01*
X44902381Y42505239D01*
X44902381Y42267143D01*
X44854762Y42171905D01*
X44807143Y42124286D01*
X53792381Y20851905D02*
X52792381Y20851905D01*
X52792381Y21232858D01*
X52840000Y21328096D01*
X52887619Y21375715D01*
X52982857Y21423334D01*
X53125714Y21423334D01*
X53220952Y21375715D01*
X53268571Y21328096D01*
X53316190Y21232858D01*
X53316190Y20851905D01*
X52792381Y22280477D02*
X52792381Y22090000D01*
X52840000Y21994762D01*
X52887619Y21947143D01*
X53030476Y21851905D01*
X53220952Y21804286D01*
X53601905Y21804286D01*
X53697143Y21851905D01*
X53744762Y21899524D01*
X53792381Y21994762D01*
X53792381Y22185239D01*
X53744762Y22280477D01*
X53697143Y22328096D01*
X53601905Y22375715D01*
X53363810Y22375715D01*
X53268571Y22328096D01*
X53220952Y22280477D01*
X53173333Y22185239D01*
X53173333Y21994762D01*
X53220952Y21899524D01*
X53268571Y21851905D01*
X53363810Y21804286D01*
X40473334Y50442857D02*
X40425715Y50395238D01*
X40282858Y50347619D01*
X40187620Y50347619D01*
X40044762Y50395238D01*
X39949524Y50490476D01*
X39901905Y50585714D01*
X39854286Y50776190D01*
X39854286Y50919048D01*
X39901905Y51109524D01*
X39949524Y51204762D01*
X40044762Y51300000D01*
X40187620Y51347619D01*
X40282858Y51347619D01*
X40425715Y51300000D01*
X40473334Y51252381D01*
X40854286Y51252381D02*
X40901905Y51300000D01*
X40997143Y51347619D01*
X41235239Y51347619D01*
X41330477Y51300000D01*
X41378096Y51252381D01*
X41425715Y51157143D01*
X41425715Y51061905D01*
X41378096Y50919048D01*
X40806667Y50347619D01*
X41425715Y50347619D01*
X46267619Y14509762D02*
X46220000Y14414524D01*
X46124762Y14319286D01*
X45981905Y14176429D01*
X45934286Y14081190D01*
X45934286Y13985952D01*
X46172381Y14033571D02*
X46124762Y13938333D01*
X46029524Y13843095D01*
X45839048Y13795476D01*
X45505714Y13795476D01*
X45315238Y13843095D01*
X45220000Y13938333D01*
X45172381Y14033571D01*
X45172381Y14224048D01*
X45220000Y14319286D01*
X45315238Y14414524D01*
X45505714Y14462143D01*
X45839048Y14462143D01*
X46029524Y14414524D01*
X46124762Y14319286D01*
X46172381Y14224048D01*
X46172381Y14033571D01*
X46172381Y15414524D02*
X46172381Y14843095D01*
X46172381Y15128809D02*
X45172381Y15128809D01*
X45315238Y15033571D01*
X45410476Y14938333D01*
X45458095Y14843095D01*
X36790334Y9707619D02*
X36457000Y10183810D01*
X36218905Y9707619D02*
X36218905Y10707619D01*
X36599858Y10707619D01*
X36695096Y10660000D01*
X36742715Y10612381D01*
X36790334Y10517143D01*
X36790334Y10374286D01*
X36742715Y10279048D01*
X36695096Y10231429D01*
X36599858Y10183810D01*
X36218905Y10183810D01*
X37742715Y9707619D02*
X37171286Y9707619D01*
X37457000Y9707619D02*
X37457000Y10707619D01*
X37361762Y10564762D01*
X37266524Y10469524D01*
X37171286Y10421905D01*
X36536334Y13517619D02*
X36203000Y13993810D01*
X35964905Y13517619D02*
X35964905Y14517619D01*
X36345858Y14517619D01*
X36441096Y14470000D01*
X36488715Y14422381D01*
X36536334Y14327143D01*
X36536334Y14184286D01*
X36488715Y14089048D01*
X36441096Y14041429D01*
X36345858Y13993810D01*
X35964905Y13993810D01*
X36917286Y14422381D02*
X36964905Y14470000D01*
X37060143Y14517619D01*
X37298239Y14517619D01*
X37393477Y14470000D01*
X37441096Y14422381D01*
X37488715Y14327143D01*
X37488715Y14231905D01*
X37441096Y14089048D01*
X36869667Y13517619D01*
X37488715Y13517619D01*
X47347143Y44283334D02*
X47394762Y44235715D01*
X47442381Y44092858D01*
X47442381Y43997620D01*
X47394762Y43854762D01*
X47299524Y43759524D01*
X47204286Y43711905D01*
X47013810Y43664286D01*
X46870952Y43664286D01*
X46680476Y43711905D01*
X46585238Y43759524D01*
X46490000Y43854762D01*
X46442381Y43997620D01*
X46442381Y44092858D01*
X46490000Y44235715D01*
X46537619Y44283334D01*
X47442381Y45235715D02*
X47442381Y44664286D01*
X47442381Y44950000D02*
X46442381Y44950000D01*
X46585238Y44854762D01*
X46680476Y44759524D01*
X46728095Y44664286D01*
X4341905Y47807619D02*
X4341905Y48807619D01*
X4722858Y48807619D01*
X4818096Y48760000D01*
X4865715Y48712381D01*
X4913334Y48617143D01*
X4913334Y48474286D01*
X4865715Y48379048D01*
X4818096Y48331429D01*
X4722858Y48283810D01*
X4341905Y48283810D01*
X5865715Y47807619D02*
X5294286Y47807619D01*
X5580000Y47807619D02*
X5580000Y48807619D01*
X5484762Y48664762D01*
X5389524Y48569524D01*
X5294286Y48521905D01*
X1778096Y51300000D02*
X1682858Y51347619D01*
X1540001Y51347619D01*
X1397143Y51300000D01*
X1301905Y51204762D01*
X1254286Y51109524D01*
X1206667Y50919048D01*
X1206667Y50776190D01*
X1254286Y50585714D01*
X1301905Y50490476D01*
X1397143Y50395238D01*
X1540001Y50347619D01*
X1635239Y50347619D01*
X1778096Y50395238D01*
X1825715Y50442857D01*
X1825715Y50776190D01*
X1635239Y50776190D01*
X2254286Y50347619D02*
X2254286Y51347619D01*
X2825715Y50347619D01*
X2825715Y51347619D01*
X3301905Y50347619D02*
X3301905Y51347619D01*
X3540000Y51347619D01*
X3682858Y51300000D01*
X3778096Y51204762D01*
X3825715Y51109524D01*
X3873334Y50919048D01*
X3873334Y50776190D01*
X3825715Y50585714D01*
X3778096Y50490476D01*
X3682858Y50395238D01*
X3540000Y50347619D01*
X3301905Y50347619D01*
M02*
