G04 #@! TF.FileFunction,Soldermask,Top*
%FSLAX46Y46*%
G04 Gerber Fmt 4.6, Leading zero omitted, Abs format (unit mm)*
G04 Created by KiCad (PCBNEW 4.0.4+e1-6308~48~ubuntu16.04.1-stable) date Fri Nov  4 19:32:53 2016*
%MOMM*%
%LPD*%
G01*
G04 APERTURE LIST*
%ADD10C,0.100000*%
%ADD11R,2.432000X2.432000*%
%ADD12O,2.432000X2.432000*%
%ADD13C,1.924000*%
%ADD14R,2.432000X2.127200*%
%ADD15O,2.432000X2.127200*%
%ADD16R,1.670000X5.480000*%
%ADD17R,1.416000X5.480000*%
%ADD18C,1.700000*%
%ADD19R,1.700000X1.700000*%
G04 APERTURE END LIST*
D10*
D11*
X69850000Y-100330000D03*
D12*
X72390000Y-100330000D03*
D13*
X86360000Y-73660000D03*
X88900000Y-71120000D03*
X88900000Y-76200000D03*
D14*
X59690000Y-54610000D03*
D15*
X59690000Y-57150000D03*
X59690000Y-59690000D03*
X59690000Y-62230000D03*
X59690000Y-64770000D03*
X59690000Y-67310000D03*
X59690000Y-69850000D03*
X59690000Y-72390000D03*
X59690000Y-74930000D03*
X59690000Y-77470000D03*
X59690000Y-80010000D03*
X59690000Y-82550000D03*
X59690000Y-85090000D03*
X59690000Y-87630000D03*
X59690000Y-90170000D03*
X59690000Y-92710000D03*
X59690000Y-95250000D03*
X59690000Y-97790000D03*
X59690000Y-100330000D03*
D16*
X78105000Y-100330000D03*
X86995000Y-100330000D03*
D17*
X82550000Y-100330000D03*
D13*
X64770000Y-58420000D03*
X64770000Y-60960000D03*
X64770000Y-73660000D03*
X64770000Y-76200000D03*
X64770000Y-78740000D03*
X64770000Y-83820000D03*
X80010000Y-83820000D03*
X80010000Y-78740000D03*
X80010000Y-76200000D03*
X80010000Y-73660000D03*
X80010000Y-60960000D03*
X80010000Y-58420000D03*
D18*
X86360000Y-92400000D03*
D19*
X86360000Y-88900000D03*
M02*
