M48
INCH,TZ
T1C0.028
T2C0.031
T3C0.039
T4C0.040
%
G90
G05
T1
X27001Y-31000
X27001Y-35000
T2
X15000Y-36500
X15000Y-37500
X15500Y-37000
X27500Y-42500
X27500Y-43500
X28000Y-43000
X30250Y-31000
X31628Y-31000
T3
X15000Y-31000
X15000Y-35000
X15500Y-39500
X15500Y-43500
X25500Y-31000
X25500Y-35000
X25500Y-44000
X25500Y-48000
X27000Y-36500
X27000Y-40500
X28500Y-31000
X28500Y-35000
X29500Y-42000
X29500Y-46000
T4
X12500Y-30000
X12500Y-31000
X12500Y-32000
X12500Y-33000
X12500Y-34000
X12500Y-35000
X12500Y-36000
X12500Y-37000
X12500Y-38000
X12500Y-39000
X12500Y-40000
X12500Y-41000
X12500Y-42000
X12500Y-43000
X12500Y-44000
X12500Y-45000
X12500Y-46000
X12500Y-47000
X12500Y-48000
X17500Y-31000
X17500Y-32000
X17500Y-33000
X17500Y-34000
X17500Y-35000
X17500Y-36000
X17500Y-37000
X17500Y-38000
X17500Y-39000
X17500Y-40000
X17500Y-41000
X17500Y-42000
X17500Y-43000
X17500Y-44000
X17500Y-45000
X23500Y-31000
X23500Y-32000
X23500Y-33000
X23500Y-34000
X23500Y-35000
X23500Y-36000
X23500Y-37000
X23500Y-38000
X23500Y-39000
X23500Y-40000
X23500Y-41000
X23500Y-42000
X23500Y-43000
X23500Y-44000
X23500Y-45000
X25500Y-41500
X25500Y-42500
X28000Y-48000
X29000Y-36500
X29000Y-37500
X29000Y-38500
X29000Y-39500
X29000Y-40500
X29000Y-48000
T0
M30
