G04 #@! TF.FileFunction,Legend,Bot*
%FSLAX46Y46*%
G04 Gerber Fmt 4.6, Leading zero omitted, Abs format (unit mm)*
G04 Created by KiCad (PCBNEW 4.0.4+e1-6308~48~ubuntu16.04.1-stable) date Tue Sep  6 14:03:07 2016*
%MOMM*%
%LPD*%
G01*
G04 APERTURE LIST*
%ADD10C,0.100000*%
%ADD11C,0.300000*%
G04 APERTURE END LIST*
D10*
D11*
X91045998Y-109755714D02*
X91117427Y-109827143D01*
X91331713Y-109898571D01*
X91474570Y-109898571D01*
X91688855Y-109827143D01*
X91831713Y-109684286D01*
X91903141Y-109541429D01*
X91974570Y-109255714D01*
X91974570Y-109041429D01*
X91903141Y-108755714D01*
X91831713Y-108612857D01*
X91688855Y-108470000D01*
X91474570Y-108398571D01*
X91331713Y-108398571D01*
X91117427Y-108470000D01*
X91045998Y-108541429D01*
X89903141Y-109112857D02*
X89688855Y-109184286D01*
X89617427Y-109255714D01*
X89545998Y-109398571D01*
X89545998Y-109612857D01*
X89617427Y-109755714D01*
X89688855Y-109827143D01*
X89831713Y-109898571D01*
X90403141Y-109898571D01*
X90403141Y-108398571D01*
X89903141Y-108398571D01*
X89760284Y-108470000D01*
X89688855Y-108541429D01*
X89617427Y-108684286D01*
X89617427Y-108827143D01*
X89688855Y-108970000D01*
X89760284Y-109041429D01*
X89903141Y-109112857D01*
X90403141Y-109112857D01*
X89260284Y-110041429D02*
X88117427Y-110041429D01*
X87974570Y-108398571D02*
X87117427Y-108398571D01*
X87545998Y-109898571D02*
X87545998Y-108398571D01*
X85760284Y-109898571D02*
X86260284Y-109184286D01*
X86617427Y-109898571D02*
X86617427Y-108398571D01*
X86045999Y-108398571D01*
X85903141Y-108470000D01*
X85831713Y-108541429D01*
X85760284Y-108684286D01*
X85760284Y-108898571D01*
X85831713Y-109041429D01*
X85903141Y-109112857D01*
X86045999Y-109184286D01*
X86617427Y-109184286D01*
X85188856Y-109827143D02*
X84974570Y-109898571D01*
X84617427Y-109898571D01*
X84474570Y-109827143D01*
X84403141Y-109755714D01*
X84331713Y-109612857D01*
X84331713Y-109470000D01*
X84403141Y-109327143D01*
X84474570Y-109255714D01*
X84617427Y-109184286D01*
X84903141Y-109112857D01*
X85045999Y-109041429D01*
X85117427Y-108970000D01*
X85188856Y-108827143D01*
X85188856Y-108684286D01*
X85117427Y-108541429D01*
X85045999Y-108470000D01*
X84903141Y-108398571D01*
X84545999Y-108398571D01*
X84331713Y-108470000D01*
X84045999Y-110041429D02*
X82903142Y-110041429D01*
X82760285Y-108398571D02*
X81903142Y-108398571D01*
X82331713Y-109898571D02*
X82331713Y-108398571D01*
X80617428Y-108470000D02*
X80760285Y-108398571D01*
X80974571Y-108398571D01*
X81188856Y-108470000D01*
X81331714Y-108612857D01*
X81403142Y-108755714D01*
X81474571Y-109041429D01*
X81474571Y-109255714D01*
X81403142Y-109541429D01*
X81331714Y-109684286D01*
X81188856Y-109827143D01*
X80974571Y-109898571D01*
X80831714Y-109898571D01*
X80617428Y-109827143D01*
X80545999Y-109755714D01*
X80545999Y-109255714D01*
X80831714Y-109255714D01*
X79045999Y-109755714D02*
X79117428Y-109827143D01*
X79331714Y-109898571D01*
X79474571Y-109898571D01*
X79688856Y-109827143D01*
X79831714Y-109684286D01*
X79903142Y-109541429D01*
X79974571Y-109255714D01*
X79974571Y-109041429D01*
X79903142Y-108755714D01*
X79831714Y-108612857D01*
X79688856Y-108470000D01*
X79474571Y-108398571D01*
X79331714Y-108398571D01*
X79117428Y-108470000D01*
X79045999Y-108541429D01*
X78760285Y-110041429D02*
X77617428Y-110041429D01*
X77474571Y-108398571D02*
X76974571Y-109898571D01*
X76474571Y-108398571D01*
X75188857Y-109898571D02*
X76046000Y-109898571D01*
X75617428Y-109898571D02*
X75617428Y-108398571D01*
X75760285Y-108612857D01*
X75903143Y-108755714D01*
X76046000Y-108827143D01*
X74903143Y-110041429D02*
X73760286Y-110041429D01*
X72617429Y-109898571D02*
X73474572Y-109898571D01*
X73046000Y-109898571D02*
X73046000Y-108398571D01*
X73188857Y-108612857D01*
X73331715Y-108755714D01*
X73474572Y-108827143D01*
M02*
