M48
INCH,TZ
T1C0.016
T2C0.028
T3C0.031
T4C0.032
T5C0.039
T6C0.040
%
G90
G05
T1
X21500Y-37250
X25250Y-37250
T2
X19501Y-32500
X19501Y-36500
X20001Y-44500
X20001Y-48500
X21501Y-36500
X21501Y-40500
X30001Y-37000
X30001Y-41000
T3
X18000Y-38000
X19000Y-40000
X21000Y-34500
X21500Y-34000
X21500Y-35000
X21500Y-43000
X23000Y-46000
X23500Y-35500
X23500Y-38000
X23500Y-39000
X24000Y-35000
X24000Y-38500
X24500Y-35500
X24500Y-42500
X24969Y-46000
X25000Y-42000
X25500Y-42500
X26000Y-39000
X26000Y-40000
X26500Y-39500
X26500Y-44500
X27000Y-44000
X27500Y-41500
X27500Y-44500
T4
X18016Y-40000
X18984Y-38000
X22484Y-43000
X27500Y-42484
T5
X18000Y-32500
X18000Y-36500
X18500Y-44500
X18500Y-48500
X20500Y-38250
X20500Y-42250
X27500Y-34500
X27500Y-38500
X29000Y-36500
X29000Y-40500
X29000Y-47500
X29000Y-48500
X29000Y-49500
X29500Y-43000
X29500Y-44000
X29500Y-45000
T6
X16500Y-32000
X16500Y-33000
X16500Y-34000
X16500Y-35000
X16500Y-36000
X16500Y-37000
X16500Y-38000
X16500Y-39000
X16500Y-40000
X16500Y-41000
X16500Y-42000
X16500Y-43000
X16500Y-44000
X16500Y-45000
X16500Y-46000
X16500Y-47000
X16500Y-48000
X16500Y-49000
X16500Y-50000
X21000Y-31500
X21000Y-50000
X22000Y-31500
X22000Y-50000
X24000Y-31500
X25000Y-31500
T0
M30
