M48
INCH,TZ
T1C0.028
T2C0.031
T3C0.032
T4C0.039
T5C0.040
%
G90
G05
T1
X53000Y-47001
X57000Y-47001
T2
X57000Y-42500
T3
X57000Y-41516
T4
X54000Y-41500
X54000Y-45500
T5
X51500Y-41500
X51500Y-42500
X51500Y-43500
X51500Y-44500
X51500Y-45500
X51500Y-46500
X51500Y-47500
X51500Y-48500
X51500Y-49500
X51500Y-50500
X51500Y-51500
X51500Y-52500
X51500Y-53500
X51500Y-54500
X51500Y-55500
X51500Y-56500
X51500Y-57500
X51500Y-58500
X51500Y-59500
T0
M30
