G04 #@! TF.FileFunction,Legend,Top*
%FSLAX46Y46*%
G04 Gerber Fmt 4.6, Leading zero omitted, Abs format (unit mm)*
G04 Created by KiCad (PCBNEW 4.0.4+e1-6308~48~ubuntu16.04.1-stable) date Mon Oct 24 12:06:04 2016*
%MOMM*%
%LPD*%
G01*
G04 APERTURE LIST*
%ADD10C,0.100000*%
%ADD11C,0.150000*%
G04 APERTURE END LIST*
D10*
D11*
X143530000Y-108200000D02*
X143530000Y-105200000D01*
X146030000Y-105200000D02*
X146030000Y-108200000D01*
X135890000Y-113030000D02*
X135890000Y-107950000D01*
X135890000Y-107950000D02*
X138430000Y-107950000D01*
X138430000Y-107950000D02*
X138430000Y-113030000D01*
X138430000Y-113030000D02*
X135890000Y-113030000D01*
X137160000Y-113030000D02*
X137160000Y-114300000D01*
X137160000Y-107950000D02*
X137160000Y-106680000D01*
X137413480Y-119382540D02*
X136016480Y-119382540D01*
X141858480Y-119382540D02*
X143382480Y-119382540D01*
X141477480Y-120144540D02*
X141477480Y-118620540D01*
X141731480Y-120144540D02*
X141731480Y-118620540D01*
X141985480Y-119382540D02*
X141985480Y-118620540D01*
X141985480Y-118620540D02*
X137413480Y-118620540D01*
X137413480Y-118620540D02*
X137413480Y-120144540D01*
X137413480Y-120144540D02*
X141985480Y-120144540D01*
X141985480Y-120144540D02*
X141985480Y-119382540D01*
X129540000Y-106680000D02*
X129540000Y-152400000D01*
X129540000Y-152400000D02*
X132080000Y-152400000D01*
X132080000Y-152400000D02*
X132080000Y-106680000D01*
X129260000Y-103860000D02*
X129260000Y-105410000D01*
X129540000Y-106680000D02*
X132080000Y-106680000D01*
X132360000Y-105410000D02*
X132360000Y-103860000D01*
X132360000Y-103860000D02*
X129260000Y-103860000D01*
X143232143Y-106846666D02*
X143279762Y-106894285D01*
X143327381Y-107037142D01*
X143327381Y-107132380D01*
X143279762Y-107275238D01*
X143184524Y-107370476D01*
X143089286Y-107418095D01*
X142898810Y-107465714D01*
X142755952Y-107465714D01*
X142565476Y-107418095D01*
X142470238Y-107370476D01*
X142375000Y-107275238D01*
X142327381Y-107132380D01*
X142327381Y-107037142D01*
X142375000Y-106894285D01*
X142422619Y-106846666D01*
X143327381Y-105894285D02*
X143327381Y-106465714D01*
X143327381Y-106180000D02*
X142327381Y-106180000D01*
X142470238Y-106275238D01*
X142565476Y-106370476D01*
X142613095Y-106465714D01*
X137612381Y-110656666D02*
X137136190Y-110990000D01*
X137612381Y-111228095D02*
X136612381Y-111228095D01*
X136612381Y-110847142D01*
X136660000Y-110751904D01*
X136707619Y-110704285D01*
X136802857Y-110656666D01*
X136945714Y-110656666D01*
X137040952Y-110704285D01*
X137088571Y-110751904D01*
X137136190Y-110847142D01*
X137136190Y-111228095D01*
X137612381Y-109704285D02*
X137612381Y-110275714D01*
X137612381Y-109990000D02*
X136612381Y-109990000D01*
X136755238Y-110085238D01*
X136850476Y-110180476D01*
X136898095Y-110275714D01*
X138961905Y-119832381D02*
X138961905Y-118832381D01*
X139200000Y-118832381D01*
X139342858Y-118880000D01*
X139438096Y-118975238D01*
X139485715Y-119070476D01*
X139533334Y-119260952D01*
X139533334Y-119403810D01*
X139485715Y-119594286D01*
X139438096Y-119689524D01*
X139342858Y-119784762D01*
X139200000Y-119832381D01*
X138961905Y-119832381D01*
X140485715Y-119832381D02*
X139914286Y-119832381D01*
X140200000Y-119832381D02*
X140200000Y-118832381D01*
X140104762Y-118975238D01*
X140009524Y-119070476D01*
X139914286Y-119118095D01*
X132611905Y-105862381D02*
X132611905Y-104862381D01*
X132992858Y-104862381D01*
X133088096Y-104910000D01*
X133135715Y-104957619D01*
X133183334Y-105052857D01*
X133183334Y-105195714D01*
X133135715Y-105290952D01*
X133088096Y-105338571D01*
X132992858Y-105386190D01*
X132611905Y-105386190D01*
X134135715Y-105862381D02*
X133564286Y-105862381D01*
X133850000Y-105862381D02*
X133850000Y-104862381D01*
X133754762Y-105005238D01*
X133659524Y-105100476D01*
X133564286Y-105148095D01*
X130048096Y-102370000D02*
X129952858Y-102322381D01*
X129810001Y-102322381D01*
X129667143Y-102370000D01*
X129571905Y-102465238D01*
X129524286Y-102560476D01*
X129476667Y-102750952D01*
X129476667Y-102893810D01*
X129524286Y-103084286D01*
X129571905Y-103179524D01*
X129667143Y-103274762D01*
X129810001Y-103322381D01*
X129905239Y-103322381D01*
X130048096Y-103274762D01*
X130095715Y-103227143D01*
X130095715Y-102893810D01*
X129905239Y-102893810D01*
X130524286Y-103322381D02*
X130524286Y-102322381D01*
X131095715Y-103322381D01*
X131095715Y-102322381D01*
X131571905Y-103322381D02*
X131571905Y-102322381D01*
X131810000Y-102322381D01*
X131952858Y-102370000D01*
X132048096Y-102465238D01*
X132095715Y-102560476D01*
X132143334Y-102750952D01*
X132143334Y-102893810D01*
X132095715Y-103084286D01*
X132048096Y-103179524D01*
X131952858Y-103274762D01*
X131810000Y-103322381D01*
X131571905Y-103322381D01*
M02*
