G04 #@! TF.FileFunction,Legend,Bot*
%FSLAX46Y46*%
G04 Gerber Fmt 4.6, Leading zero omitted, Abs format (unit mm)*
G04 Created by KiCad (PCBNEW 4.0.4+e1-6308~48~ubuntu16.04.1-stable) date Mon Oct 24 12:06:04 2016*
%MOMM*%
%LPD*%
G01*
G04 APERTURE LIST*
%ADD10C,0.100000*%
%ADD11C,0.250000*%
G04 APERTURE END LIST*
D10*
D11*
X139247619Y-139032097D02*
X140247619Y-139032097D01*
X140247619Y-138794002D01*
X140200000Y-138651144D01*
X140104762Y-138555906D01*
X140009524Y-138508287D01*
X139819048Y-138460668D01*
X139676190Y-138460668D01*
X139485714Y-138508287D01*
X139390476Y-138555906D01*
X139295238Y-138651144D01*
X139247619Y-138794002D01*
X139247619Y-139032097D01*
X139771429Y-137698763D02*
X139723810Y-137555906D01*
X139676190Y-137508287D01*
X139580952Y-137460668D01*
X139438095Y-137460668D01*
X139342857Y-137508287D01*
X139295238Y-137555906D01*
X139247619Y-137651144D01*
X139247619Y-138032097D01*
X140247619Y-138032097D01*
X140247619Y-137698763D01*
X140200000Y-137603525D01*
X140152381Y-137555906D01*
X140057143Y-137508287D01*
X139961905Y-137508287D01*
X139866667Y-137555906D01*
X139819048Y-137603525D01*
X139771429Y-137698763D01*
X139771429Y-138032097D01*
X139152381Y-137270192D02*
X139152381Y-136508287D01*
X139771429Y-136270192D02*
X139771429Y-135936858D01*
X139247619Y-135794001D02*
X139247619Y-136270192D01*
X140247619Y-136270192D01*
X140247619Y-135794001D01*
X139914286Y-135365430D02*
X139247619Y-135365430D01*
X139819048Y-135365430D02*
X139866667Y-135317811D01*
X139914286Y-135222573D01*
X139914286Y-135079715D01*
X139866667Y-134984477D01*
X139771429Y-134936858D01*
X139247619Y-134936858D01*
X139914286Y-134555906D02*
X139247619Y-134317811D01*
X139914286Y-134079715D01*
X139295238Y-133317810D02*
X139247619Y-133413048D01*
X139247619Y-133603525D01*
X139295238Y-133698763D01*
X139390476Y-133746382D01*
X139771429Y-133746382D01*
X139866667Y-133698763D01*
X139914286Y-133603525D01*
X139914286Y-133413048D01*
X139866667Y-133317810D01*
X139771429Y-133270191D01*
X139676190Y-133270191D01*
X139580952Y-133746382D01*
X139247619Y-132698763D02*
X139295238Y-132794001D01*
X139390476Y-132841620D01*
X140247619Y-132841620D01*
X139247619Y-132174953D02*
X139295238Y-132270191D01*
X139342857Y-132317810D01*
X139438095Y-132365429D01*
X139723810Y-132365429D01*
X139819048Y-132317810D01*
X139866667Y-132270191D01*
X139914286Y-132174953D01*
X139914286Y-132032095D01*
X139866667Y-131936857D01*
X139819048Y-131889238D01*
X139723810Y-131841619D01*
X139438095Y-131841619D01*
X139342857Y-131889238D01*
X139295238Y-131936857D01*
X139247619Y-132032095D01*
X139247619Y-132174953D01*
X139914286Y-131413048D02*
X138914286Y-131413048D01*
X139866667Y-131413048D02*
X139914286Y-131317810D01*
X139914286Y-131127333D01*
X139866667Y-131032095D01*
X139819048Y-130984476D01*
X139723810Y-130936857D01*
X139438095Y-130936857D01*
X139342857Y-130984476D01*
X139295238Y-131032095D01*
X139247619Y-131127333D01*
X139247619Y-131317810D01*
X139295238Y-131413048D01*
X139295238Y-130127333D02*
X139247619Y-130222571D01*
X139247619Y-130413048D01*
X139295238Y-130508286D01*
X139390476Y-130555905D01*
X139771429Y-130555905D01*
X139866667Y-130508286D01*
X139914286Y-130413048D01*
X139914286Y-130222571D01*
X139866667Y-130127333D01*
X139771429Y-130079714D01*
X139676190Y-130079714D01*
X139580952Y-130555905D01*
X139152381Y-129889238D02*
X139152381Y-129127333D01*
X139247619Y-128889238D02*
X140247619Y-128889238D01*
X140247619Y-128651143D01*
X140200000Y-128508285D01*
X140104762Y-128413047D01*
X140009524Y-128365428D01*
X139819048Y-128317809D01*
X139676190Y-128317809D01*
X139485714Y-128365428D01*
X139390476Y-128413047D01*
X139295238Y-128508285D01*
X139247619Y-128651143D01*
X139247619Y-128889238D01*
X139295238Y-127508285D02*
X139247619Y-127603523D01*
X139247619Y-127794000D01*
X139295238Y-127889238D01*
X139390476Y-127936857D01*
X139771429Y-127936857D01*
X139866667Y-127889238D01*
X139914286Y-127794000D01*
X139914286Y-127603523D01*
X139866667Y-127508285D01*
X139771429Y-127460666D01*
X139676190Y-127460666D01*
X139580952Y-127936857D01*
X139914286Y-127174952D02*
X139914286Y-126794000D01*
X140247619Y-127032095D02*
X139390476Y-127032095D01*
X139295238Y-126984476D01*
X139247619Y-126889238D01*
X139247619Y-126794000D01*
X139295238Y-126079713D02*
X139247619Y-126174951D01*
X139247619Y-126365428D01*
X139295238Y-126460666D01*
X139390476Y-126508285D01*
X139771429Y-126508285D01*
X139866667Y-126460666D01*
X139914286Y-126365428D01*
X139914286Y-126174951D01*
X139866667Y-126079713D01*
X139771429Y-126032094D01*
X139676190Y-126032094D01*
X139580952Y-126508285D01*
X139295238Y-125174951D02*
X139247619Y-125270189D01*
X139247619Y-125460666D01*
X139295238Y-125555904D01*
X139342857Y-125603523D01*
X139438095Y-125651142D01*
X139723810Y-125651142D01*
X139819048Y-125603523D01*
X139866667Y-125555904D01*
X139914286Y-125460666D01*
X139914286Y-125270189D01*
X139866667Y-125174951D01*
X139914286Y-124889237D02*
X139914286Y-124508285D01*
X140247619Y-124746380D02*
X139390476Y-124746380D01*
X139295238Y-124698761D01*
X139247619Y-124603523D01*
X139247619Y-124508285D01*
X139247619Y-124032094D02*
X139295238Y-124127332D01*
X139342857Y-124174951D01*
X139438095Y-124222570D01*
X139723810Y-124222570D01*
X139819048Y-124174951D01*
X139866667Y-124127332D01*
X139914286Y-124032094D01*
X139914286Y-123889236D01*
X139866667Y-123793998D01*
X139819048Y-123746379D01*
X139723810Y-123698760D01*
X139438095Y-123698760D01*
X139342857Y-123746379D01*
X139295238Y-123793998D01*
X139247619Y-123889236D01*
X139247619Y-124032094D01*
X139247619Y-123270189D02*
X139914286Y-123270189D01*
X139723810Y-123270189D02*
X139819048Y-123222570D01*
X139866667Y-123174951D01*
X139914286Y-123079713D01*
X139914286Y-122984474D01*
X139152381Y-122889236D02*
X139152381Y-122127331D01*
X140247619Y-122032093D02*
X139247619Y-121698760D01*
X140247619Y-121365426D01*
X139247619Y-120508283D02*
X139247619Y-121079712D01*
X139247619Y-120793998D02*
X140247619Y-120793998D01*
X140104762Y-120889236D01*
X140009524Y-120984474D01*
X139961905Y-121079712D01*
M02*
