M48
INCH,TZ
T1C0.031
T2C0.040
%
G90
G05
T1
X33500Y-49000
X34878Y-49000
T2
X24000Y-35000
X24000Y-36000
X24000Y-37000
X24000Y-38000
X24000Y-39000
X24000Y-40000
X24000Y-41000
X24000Y-42000
X24000Y-43000
X24000Y-44000
X24000Y-45000
X24000Y-46000
X24000Y-47000
X24000Y-48000
X24000Y-49000
X24000Y-50000
X24000Y-51000
X24000Y-52000
X24000Y-53000
X25500Y-53000
X26000Y-34500
X26500Y-53000
X27000Y-34500
X27500Y-53000
X28500Y-53000
X29500Y-53000
X30500Y-53000
X31500Y-53000
X32500Y-53000
X34500Y-34500
X34500Y-53000
X35500Y-34500
X35500Y-53000
T0
M30
