G04 #@! TF.FileFunction,Copper,L1,Top,Signal*
%FSLAX46Y46*%
G04 Gerber Fmt 4.6, Leading zero omitted, Abs format (unit mm)*
G04 Created by KiCad (PCBNEW 4.0.4+e1-6308~48~ubuntu16.04.1-stable) date Mon Oct 24 16:05:19 2016*
%MOMM*%
%LPD*%
G01*
G04 APERTURE LIST*
%ADD10C,0.100000*%
%ADD11R,1.560000X0.650000*%
%ADD12R,1.400000X1.400000*%
%ADD13C,1.400000*%
%ADD14R,2.032000X2.032000*%
%ADD15O,2.032000X2.032000*%
%ADD16R,1.000760X2.501900*%
%ADD17R,1.998980X4.000500*%
%ADD18C,2.000000*%
%ADD19R,1.270000X5.080000*%
%ADD20R,1.016000X5.080000*%
%ADD21R,2.032000X1.727200*%
%ADD22O,2.032000X1.727200*%
%ADD23C,1.998980*%
%ADD24C,1.699260*%
%ADD25R,1.699260X1.699260*%
%ADD26C,0.600000*%
%ADD27C,0.250000*%
%ADD28C,0.254000*%
G04 APERTURE END LIST*
D10*
D11*
X100250000Y-108270000D03*
X100250000Y-109220000D03*
X100250000Y-110170000D03*
X102950000Y-110170000D03*
X102950000Y-108270000D03*
X102950000Y-109220000D03*
D12*
X102870000Y-124460000D03*
D13*
X102870000Y-119460000D03*
D14*
X78740000Y-124460000D03*
D15*
X81280000Y-124460000D03*
D14*
X81280000Y-77470000D03*
D15*
X78740000Y-77470000D03*
D14*
X99060000Y-77470000D03*
D15*
X96520000Y-77470000D03*
D16*
X91208860Y-117922040D03*
X92710000Y-117922040D03*
X94211140Y-117922040D03*
D17*
X92710000Y-113969800D03*
D10*
G36*
X93710760Y-115944650D02*
X93210380Y-116693950D01*
X92209620Y-116693950D01*
X91709240Y-115944650D01*
X93710760Y-115944650D01*
X93710760Y-115944650D01*
G37*
D18*
X102870000Y-114300000D03*
X93980000Y-105410000D03*
D19*
X111125000Y-77470000D03*
X102235000Y-77470000D03*
D20*
X106680000Y-77470000D03*
D19*
X93345000Y-77470000D03*
X84455000Y-77470000D03*
D20*
X88900000Y-77470000D03*
D19*
X84455000Y-124460000D03*
X93345000Y-124460000D03*
D20*
X88900000Y-124460000D03*
D21*
X73660000Y-78740000D03*
D22*
X73660000Y-81280000D03*
X73660000Y-83820000D03*
X73660000Y-86360000D03*
X73660000Y-88900000D03*
X73660000Y-91440000D03*
X73660000Y-93980000D03*
X73660000Y-96520000D03*
X73660000Y-99060000D03*
X73660000Y-101600000D03*
X73660000Y-104140000D03*
X73660000Y-106680000D03*
X73660000Y-109220000D03*
X73660000Y-111760000D03*
X73660000Y-114300000D03*
X73660000Y-116840000D03*
X73660000Y-119380000D03*
X73660000Y-121920000D03*
X73660000Y-124460000D03*
D23*
X78740000Y-113030000D03*
X88900000Y-113030000D03*
D24*
X99057460Y-114299480D03*
D25*
X99057460Y-124459480D03*
D24*
X96522540Y-124460520D03*
D25*
X96522540Y-114300520D03*
D26*
X86360000Y-82550000D03*
X102235000Y-106680000D03*
D27*
X81280000Y-77470000D02*
X81280000Y-80010000D01*
X81280000Y-80010000D02*
X83820000Y-82550000D01*
X83820000Y-82550000D02*
X86360000Y-82550000D01*
X86360000Y-82550000D02*
X88900000Y-80010000D01*
X88900000Y-80010000D02*
X88900000Y-77470000D01*
X102950000Y-110170000D02*
X104460000Y-110170000D01*
X104775000Y-105410000D02*
X97155000Y-105410000D01*
X104775000Y-109855000D02*
X104775000Y-105410000D01*
X104460000Y-110170000D02*
X104775000Y-109855000D01*
X93980000Y-105410000D02*
X97155000Y-105410000D01*
X97155000Y-105410000D02*
X97390000Y-105410000D01*
X97390000Y-105410000D02*
X100250000Y-108270000D01*
X100250000Y-109220000D02*
X96520000Y-109220000D01*
X76200000Y-119380000D02*
X73660000Y-121920000D01*
X76200000Y-111760000D02*
X76200000Y-119380000D01*
X80010000Y-107950000D02*
X76200000Y-111760000D01*
X95250000Y-107950000D02*
X80010000Y-107950000D01*
X96520000Y-109220000D02*
X95250000Y-107950000D01*
X100250000Y-109220000D02*
X102950000Y-109220000D01*
X100250000Y-110170000D02*
X100250000Y-111045000D01*
X105410000Y-121920000D02*
X102870000Y-124460000D01*
X105410000Y-112395000D02*
X105410000Y-121920000D01*
X104775000Y-111760000D02*
X105410000Y-112395000D01*
X100965000Y-111760000D02*
X104775000Y-111760000D01*
X100250000Y-111045000D02*
X100965000Y-111760000D01*
X78740000Y-113030000D02*
X85090000Y-113030000D01*
X87950000Y-110170000D02*
X100250000Y-110170000D01*
X85090000Y-113030000D02*
X87950000Y-110170000D01*
X99930000Y-110490000D02*
X100250000Y-110170000D01*
X102950000Y-108270000D02*
X102950000Y-107395000D01*
X102950000Y-107395000D02*
X102235000Y-106680000D01*
X94211140Y-117922040D02*
X95437960Y-117922040D01*
X96522540Y-116837460D02*
X96522540Y-114300520D01*
X95437960Y-117922040D02*
X96522540Y-116837460D01*
X96522540Y-114300520D02*
X99056420Y-114300520D01*
X99056420Y-114300520D02*
X99056940Y-114300000D01*
X99056940Y-114300000D02*
X102870000Y-114300000D01*
X102870000Y-114300000D02*
X102870000Y-119460000D01*
X94211140Y-117922040D02*
X94211140Y-117881920D01*
X99060000Y-77470000D02*
X99060000Y-78740000D01*
X105410000Y-81280000D02*
X106680000Y-80010000D01*
X101600000Y-81280000D02*
X105410000Y-81280000D01*
X99060000Y-78740000D02*
X101600000Y-81280000D01*
X106680000Y-80010000D02*
X106680000Y-77470000D01*
X73660000Y-83820000D02*
X92710000Y-83820000D01*
X92710000Y-83820000D02*
X99060000Y-77470000D01*
X87630000Y-120650000D02*
X88480900Y-120650000D01*
X88480900Y-120650000D02*
X91208860Y-117922040D01*
X91208860Y-117922040D02*
X91208860Y-118341140D01*
X78740000Y-124460000D02*
X82550000Y-120650000D01*
X87630000Y-120650000D02*
X88900000Y-121920000D01*
X82550000Y-120650000D02*
X87630000Y-120650000D01*
X88900000Y-121920000D02*
X88900000Y-124460000D01*
X92710000Y-117922040D02*
X92710000Y-113969800D01*
D28*
G36*
X83185000Y-77184250D02*
X83343750Y-77343000D01*
X84328000Y-77343000D01*
X84328000Y-77323000D01*
X84582000Y-77323000D01*
X84582000Y-77343000D01*
X85566250Y-77343000D01*
X85725000Y-77184250D01*
X85725000Y-75640000D01*
X87744560Y-75640000D01*
X87744560Y-80010000D01*
X87757330Y-80077868D01*
X86220320Y-81614878D01*
X86174833Y-81614838D01*
X85831057Y-81756883D01*
X85797882Y-81790000D01*
X84134802Y-81790000D01*
X82040000Y-79695198D01*
X82040000Y-79133440D01*
X82296000Y-79133440D01*
X82531317Y-79089162D01*
X82747441Y-78950090D01*
X82892431Y-78737890D01*
X82943440Y-78486000D01*
X82943440Y-77755750D01*
X83185000Y-77755750D01*
X83185000Y-80136310D01*
X83281673Y-80369699D01*
X83460302Y-80548327D01*
X83693691Y-80645000D01*
X84169250Y-80645000D01*
X84328000Y-80486250D01*
X84328000Y-77597000D01*
X84582000Y-77597000D01*
X84582000Y-80486250D01*
X84740750Y-80645000D01*
X85216309Y-80645000D01*
X85449698Y-80548327D01*
X85628327Y-80369699D01*
X85725000Y-80136310D01*
X85725000Y-77755750D01*
X85566250Y-77597000D01*
X84582000Y-77597000D01*
X84328000Y-77597000D01*
X83343750Y-77597000D01*
X83185000Y-77755750D01*
X82943440Y-77755750D01*
X82943440Y-76454000D01*
X82899162Y-76218683D01*
X82760090Y-76002559D01*
X82547890Y-75857569D01*
X82296000Y-75806560D01*
X80264000Y-75806560D01*
X80028683Y-75850838D01*
X79812559Y-75989910D01*
X79712144Y-76136872D01*
X79708379Y-76132812D01*
X79122946Y-75864017D01*
X78867000Y-75982633D01*
X78867000Y-77343000D01*
X78887000Y-77343000D01*
X78887000Y-77597000D01*
X78867000Y-77597000D01*
X78867000Y-78957367D01*
X79122946Y-79075983D01*
X79708379Y-78807188D01*
X79712934Y-78802276D01*
X79799910Y-78937441D01*
X80012110Y-79082431D01*
X80264000Y-79133440D01*
X80520000Y-79133440D01*
X80520000Y-80010000D01*
X80577852Y-80300839D01*
X80742599Y-80547401D01*
X83255198Y-83060000D01*
X75104648Y-83060000D01*
X74904415Y-82760330D01*
X74589634Y-82550000D01*
X74904415Y-82339670D01*
X75229271Y-81853489D01*
X75343345Y-81280000D01*
X75229271Y-80706511D01*
X74904415Y-80220330D01*
X74882220Y-80205500D01*
X75035699Y-80141927D01*
X75214327Y-79963298D01*
X75311000Y-79729909D01*
X75311000Y-79025750D01*
X75152250Y-78867000D01*
X73787000Y-78867000D01*
X73787000Y-78887000D01*
X73533000Y-78887000D01*
X73533000Y-78867000D01*
X72167750Y-78867000D01*
X72009000Y-79025750D01*
X72009000Y-79729909D01*
X72105673Y-79963298D01*
X72284301Y-80141927D01*
X72437780Y-80205500D01*
X72415585Y-80220330D01*
X72090729Y-80706511D01*
X71976655Y-81280000D01*
X72090729Y-81853489D01*
X72415585Y-82339670D01*
X72730366Y-82550000D01*
X72415585Y-82760330D01*
X72090729Y-83246511D01*
X71976655Y-83820000D01*
X72090729Y-84393489D01*
X72415585Y-84879670D01*
X72730366Y-85090000D01*
X72415585Y-85300330D01*
X72090729Y-85786511D01*
X71976655Y-86360000D01*
X72090729Y-86933489D01*
X72415585Y-87419670D01*
X72730366Y-87630000D01*
X72415585Y-87840330D01*
X72090729Y-88326511D01*
X71976655Y-88900000D01*
X72090729Y-89473489D01*
X72415585Y-89959670D01*
X72730366Y-90170000D01*
X72415585Y-90380330D01*
X72090729Y-90866511D01*
X71976655Y-91440000D01*
X72090729Y-92013489D01*
X72415585Y-92499670D01*
X72730366Y-92710000D01*
X72415585Y-92920330D01*
X72090729Y-93406511D01*
X71976655Y-93980000D01*
X72090729Y-94553489D01*
X72415585Y-95039670D01*
X72730366Y-95250000D01*
X72415585Y-95460330D01*
X72090729Y-95946511D01*
X71976655Y-96520000D01*
X72090729Y-97093489D01*
X72415585Y-97579670D01*
X72730366Y-97790000D01*
X72415585Y-98000330D01*
X72090729Y-98486511D01*
X71976655Y-99060000D01*
X72090729Y-99633489D01*
X72415585Y-100119670D01*
X72730366Y-100330000D01*
X72415585Y-100540330D01*
X72090729Y-101026511D01*
X71976655Y-101600000D01*
X72090729Y-102173489D01*
X72415585Y-102659670D01*
X72730366Y-102870000D01*
X72415585Y-103080330D01*
X72090729Y-103566511D01*
X71976655Y-104140000D01*
X72090729Y-104713489D01*
X72415585Y-105199670D01*
X72730366Y-105410000D01*
X72415585Y-105620330D01*
X72090729Y-106106511D01*
X71976655Y-106680000D01*
X72090729Y-107253489D01*
X72415585Y-107739670D01*
X72730366Y-107950000D01*
X72415585Y-108160330D01*
X72090729Y-108646511D01*
X71976655Y-109220000D01*
X72090729Y-109793489D01*
X72415585Y-110279670D01*
X72730366Y-110490000D01*
X72415585Y-110700330D01*
X72090729Y-111186511D01*
X71976655Y-111760000D01*
X72090729Y-112333489D01*
X72415585Y-112819670D01*
X72730366Y-113030000D01*
X72415585Y-113240330D01*
X72090729Y-113726511D01*
X71976655Y-114300000D01*
X72090729Y-114873489D01*
X72415585Y-115359670D01*
X72730366Y-115570000D01*
X72415585Y-115780330D01*
X72090729Y-116266511D01*
X71976655Y-116840000D01*
X72090729Y-117413489D01*
X72415585Y-117899670D01*
X72730366Y-118110000D01*
X72415585Y-118320330D01*
X72090729Y-118806511D01*
X71976655Y-119380000D01*
X72090729Y-119953489D01*
X72415585Y-120439670D01*
X72730366Y-120650000D01*
X72415585Y-120860330D01*
X72090729Y-121346511D01*
X71976655Y-121920000D01*
X72090729Y-122493489D01*
X72415585Y-122979670D01*
X72730366Y-123190000D01*
X72415585Y-123400330D01*
X72090729Y-123886511D01*
X71976655Y-124460000D01*
X72090729Y-125033489D01*
X72415585Y-125519670D01*
X72901766Y-125844526D01*
X73475255Y-125958600D01*
X73844745Y-125958600D01*
X74418234Y-125844526D01*
X74904415Y-125519670D01*
X75229271Y-125033489D01*
X75343345Y-124460000D01*
X75229271Y-123886511D01*
X74904415Y-123400330D01*
X74589634Y-123190000D01*
X74904415Y-122979670D01*
X75229271Y-122493489D01*
X75343345Y-121920000D01*
X75242381Y-121412421D01*
X76737401Y-119917401D01*
X76902148Y-119670840D01*
X76911746Y-119622586D01*
X76960000Y-119380000D01*
X76960000Y-112074802D01*
X80324802Y-108710000D01*
X94935198Y-108710000D01*
X95635198Y-109410000D01*
X87950000Y-109410000D01*
X87659161Y-109467852D01*
X87412599Y-109632599D01*
X84775198Y-112270000D01*
X80194496Y-112270000D01*
X80126462Y-112105345D01*
X79667073Y-111645154D01*
X79066547Y-111395794D01*
X78416306Y-111395226D01*
X77815345Y-111643538D01*
X77355154Y-112102927D01*
X77105794Y-112703453D01*
X77105226Y-113353694D01*
X77353538Y-113954655D01*
X77812927Y-114414846D01*
X78413453Y-114664206D01*
X79063694Y-114664774D01*
X79664655Y-114416462D01*
X79899363Y-114182163D01*
X87927443Y-114182163D01*
X88026042Y-114448965D01*
X88635582Y-114675401D01*
X89285377Y-114651341D01*
X89773958Y-114448965D01*
X89872557Y-114182163D01*
X88900000Y-113209605D01*
X87927443Y-114182163D01*
X79899363Y-114182163D01*
X80124846Y-113957073D01*
X80194221Y-113790000D01*
X85090000Y-113790000D01*
X85380839Y-113732148D01*
X85627401Y-113567401D01*
X86429220Y-112765582D01*
X87254599Y-112765582D01*
X87278659Y-113415377D01*
X87481035Y-113903958D01*
X87747837Y-114002557D01*
X88720395Y-113030000D01*
X89079605Y-113030000D01*
X90052163Y-114002557D01*
X90318965Y-113903958D01*
X90545401Y-113294418D01*
X90521341Y-112644623D01*
X90318965Y-112156042D01*
X90052163Y-112057443D01*
X89079605Y-113030000D01*
X88720395Y-113030000D01*
X87747837Y-112057443D01*
X87481035Y-112156042D01*
X87254599Y-112765582D01*
X86429220Y-112765582D01*
X87316965Y-111877837D01*
X87927443Y-111877837D01*
X88900000Y-112850395D01*
X89872557Y-111877837D01*
X89773958Y-111611035D01*
X89164418Y-111384599D01*
X88514623Y-111408659D01*
X88026042Y-111611035D01*
X87927443Y-111877837D01*
X87316965Y-111877837D01*
X88264802Y-110930000D01*
X98995331Y-110930000D01*
X99005910Y-110946441D01*
X99218110Y-111091431D01*
X99470000Y-111142440D01*
X99509382Y-111142440D01*
X99547852Y-111335839D01*
X99712599Y-111582401D01*
X100427599Y-112297401D01*
X100674161Y-112462148D01*
X100965000Y-112520000D01*
X104460198Y-112520000D01*
X104650000Y-112709802D01*
X104650000Y-121605198D01*
X103142638Y-123112560D01*
X102170000Y-123112560D01*
X101934683Y-123156838D01*
X101718559Y-123295910D01*
X101573569Y-123508110D01*
X101522560Y-123760000D01*
X101522560Y-125160000D01*
X101566838Y-125395317D01*
X101705910Y-125611441D01*
X101918110Y-125756431D01*
X102170000Y-125807440D01*
X103570000Y-125807440D01*
X103805317Y-125763162D01*
X104021441Y-125624090D01*
X104166431Y-125411890D01*
X104217440Y-125160000D01*
X104217440Y-124187362D01*
X105947401Y-122457401D01*
X106112148Y-122210840D01*
X106121746Y-122162586D01*
X106170000Y-121920000D01*
X106170000Y-112395000D01*
X106112148Y-112104161D01*
X105947401Y-111857599D01*
X105312401Y-111222599D01*
X105065839Y-111057852D01*
X104775000Y-111000000D01*
X104117865Y-111000000D01*
X104181441Y-110959090D01*
X104201317Y-110930000D01*
X104460000Y-110930000D01*
X104750839Y-110872148D01*
X104997401Y-110707401D01*
X105312401Y-110392401D01*
X105477148Y-110145840D01*
X105535000Y-109855000D01*
X105535000Y-105410000D01*
X105477148Y-105119161D01*
X105312401Y-104872599D01*
X105065839Y-104707852D01*
X104775000Y-104650000D01*
X95435047Y-104650000D01*
X95366894Y-104485057D01*
X94907363Y-104024722D01*
X94306648Y-103775284D01*
X93656205Y-103774716D01*
X93055057Y-104023106D01*
X92594722Y-104482637D01*
X92345284Y-105083352D01*
X92344716Y-105733795D01*
X92593106Y-106334943D01*
X93052637Y-106795278D01*
X93653352Y-107044716D01*
X94303795Y-107045284D01*
X94904943Y-106796894D01*
X95365278Y-106337363D01*
X95434773Y-106170000D01*
X97075198Y-106170000D01*
X98827214Y-107922016D01*
X98822560Y-107945000D01*
X98822560Y-108460000D01*
X96834802Y-108460000D01*
X95787401Y-107412599D01*
X95540839Y-107247852D01*
X95250000Y-107190000D01*
X80010000Y-107190000D01*
X79719161Y-107247852D01*
X79472599Y-107412599D01*
X75662599Y-111222599D01*
X75497852Y-111469161D01*
X75440000Y-111760000D01*
X75440000Y-119065198D01*
X75307152Y-119198046D01*
X75229271Y-118806511D01*
X74904415Y-118320330D01*
X74589634Y-118110000D01*
X74904415Y-117899670D01*
X75229271Y-117413489D01*
X75343345Y-116840000D01*
X75229271Y-116266511D01*
X74904415Y-115780330D01*
X74589634Y-115570000D01*
X74904415Y-115359670D01*
X75229271Y-114873489D01*
X75343345Y-114300000D01*
X75229271Y-113726511D01*
X74904415Y-113240330D01*
X74589634Y-113030000D01*
X74904415Y-112819670D01*
X75229271Y-112333489D01*
X75343345Y-111760000D01*
X75229271Y-111186511D01*
X74904415Y-110700330D01*
X74589634Y-110490000D01*
X74904415Y-110279670D01*
X75229271Y-109793489D01*
X75343345Y-109220000D01*
X75229271Y-108646511D01*
X74904415Y-108160330D01*
X74589634Y-107950000D01*
X74904415Y-107739670D01*
X75229271Y-107253489D01*
X75343345Y-106680000D01*
X75229271Y-106106511D01*
X74904415Y-105620330D01*
X74589634Y-105410000D01*
X74904415Y-105199670D01*
X75229271Y-104713489D01*
X75343345Y-104140000D01*
X75229271Y-103566511D01*
X74904415Y-103080330D01*
X74589634Y-102870000D01*
X74904415Y-102659670D01*
X75229271Y-102173489D01*
X75343345Y-101600000D01*
X75229271Y-101026511D01*
X74904415Y-100540330D01*
X74589634Y-100330000D01*
X74904415Y-100119670D01*
X75229271Y-99633489D01*
X75343345Y-99060000D01*
X75229271Y-98486511D01*
X74904415Y-98000330D01*
X74589634Y-97790000D01*
X74904415Y-97579670D01*
X75229271Y-97093489D01*
X75343345Y-96520000D01*
X75229271Y-95946511D01*
X74904415Y-95460330D01*
X74589634Y-95250000D01*
X74904415Y-95039670D01*
X75229271Y-94553489D01*
X75343345Y-93980000D01*
X75229271Y-93406511D01*
X74904415Y-92920330D01*
X74589634Y-92710000D01*
X74904415Y-92499670D01*
X75229271Y-92013489D01*
X75343345Y-91440000D01*
X75229271Y-90866511D01*
X74904415Y-90380330D01*
X74589634Y-90170000D01*
X74904415Y-89959670D01*
X75229271Y-89473489D01*
X75343345Y-88900000D01*
X75229271Y-88326511D01*
X74904415Y-87840330D01*
X74589634Y-87630000D01*
X74904415Y-87419670D01*
X75229271Y-86933489D01*
X75343345Y-86360000D01*
X75229271Y-85786511D01*
X74904415Y-85300330D01*
X74589634Y-85090000D01*
X74904415Y-84879670D01*
X75104648Y-84580000D01*
X92710000Y-84580000D01*
X93000839Y-84522148D01*
X93247401Y-84357401D01*
X98444414Y-79160388D01*
X98522599Y-79277401D01*
X101062599Y-81817401D01*
X101309160Y-81982148D01*
X101357414Y-81991746D01*
X101600000Y-82040000D01*
X105410000Y-82040000D01*
X105700839Y-81982148D01*
X105947401Y-81817401D01*
X107107362Y-80657440D01*
X107188000Y-80657440D01*
X107423317Y-80613162D01*
X107639441Y-80474090D01*
X107784431Y-80261890D01*
X107835440Y-80010000D01*
X107835440Y-77755750D01*
X109855000Y-77755750D01*
X109855000Y-80136310D01*
X109951673Y-80369699D01*
X110130302Y-80548327D01*
X110363691Y-80645000D01*
X110839250Y-80645000D01*
X110998000Y-80486250D01*
X110998000Y-77597000D01*
X110013750Y-77597000D01*
X109855000Y-77755750D01*
X107835440Y-77755750D01*
X107835440Y-75640000D01*
X109855000Y-75640000D01*
X109855000Y-77184250D01*
X110013750Y-77343000D01*
X110998000Y-77343000D01*
X110998000Y-77323000D01*
X111252000Y-77323000D01*
X111252000Y-77343000D01*
X111272000Y-77343000D01*
X111272000Y-77597000D01*
X111252000Y-77597000D01*
X111252000Y-80486250D01*
X111410750Y-80645000D01*
X111886309Y-80645000D01*
X112119698Y-80548327D01*
X112298327Y-80369699D01*
X112320000Y-80317376D01*
X112320000Y-126290000D01*
X94615000Y-126290000D01*
X94615000Y-125504210D01*
X95658455Y-125504210D01*
X95738682Y-125755473D01*
X96293907Y-125956870D01*
X96883939Y-125930461D01*
X97306398Y-125755473D01*
X97386625Y-125504210D01*
X96522540Y-124640125D01*
X95658455Y-125504210D01*
X94615000Y-125504210D01*
X94615000Y-124745750D01*
X94456250Y-124587000D01*
X93472000Y-124587000D01*
X93472000Y-124607000D01*
X93218000Y-124607000D01*
X93218000Y-124587000D01*
X92233750Y-124587000D01*
X92075000Y-124745750D01*
X92075000Y-126290000D01*
X90055440Y-126290000D01*
X90055440Y-121920000D01*
X90031674Y-121793690D01*
X92075000Y-121793690D01*
X92075000Y-124174250D01*
X92233750Y-124333000D01*
X93218000Y-124333000D01*
X93218000Y-121443750D01*
X93472000Y-121443750D01*
X93472000Y-124333000D01*
X94456250Y-124333000D01*
X94557363Y-124231887D01*
X95026190Y-124231887D01*
X95052599Y-124821919D01*
X95227587Y-125244378D01*
X95478850Y-125324605D01*
X96342935Y-124460520D01*
X96702145Y-124460520D01*
X97566230Y-125324605D01*
X97572830Y-125322498D01*
X97572830Y-125435419D01*
X97669503Y-125668808D01*
X97848131Y-125847437D01*
X98081520Y-125944110D01*
X98771710Y-125944110D01*
X98930460Y-125785360D01*
X98930460Y-124586480D01*
X99184460Y-124586480D01*
X99184460Y-125785360D01*
X99343210Y-125944110D01*
X100033400Y-125944110D01*
X100266789Y-125847437D01*
X100445417Y-125668808D01*
X100542090Y-125435419D01*
X100542090Y-124745230D01*
X100383340Y-124586480D01*
X99184460Y-124586480D01*
X98930460Y-124586480D01*
X98910460Y-124586480D01*
X98910460Y-124332480D01*
X98930460Y-124332480D01*
X98930460Y-123133600D01*
X99184460Y-123133600D01*
X99184460Y-124332480D01*
X100383340Y-124332480D01*
X100542090Y-124173730D01*
X100542090Y-123483541D01*
X100445417Y-123250152D01*
X100266789Y-123071523D01*
X100033400Y-122974850D01*
X99343210Y-122974850D01*
X99184460Y-123133600D01*
X98930460Y-123133600D01*
X98771710Y-122974850D01*
X98081520Y-122974850D01*
X97848131Y-123071523D01*
X97669503Y-123250152D01*
X97572830Y-123483541D01*
X97572830Y-123598542D01*
X97566230Y-123596435D01*
X96702145Y-124460520D01*
X96342935Y-124460520D01*
X95478850Y-123596435D01*
X95227587Y-123676662D01*
X95026190Y-124231887D01*
X94557363Y-124231887D01*
X94615000Y-124174250D01*
X94615000Y-123416830D01*
X95658455Y-123416830D01*
X96522540Y-124280915D01*
X97386625Y-123416830D01*
X97306398Y-123165567D01*
X96751173Y-122964170D01*
X96161141Y-122990579D01*
X95738682Y-123165567D01*
X95658455Y-123416830D01*
X94615000Y-123416830D01*
X94615000Y-121793690D01*
X94518327Y-121560301D01*
X94339698Y-121381673D01*
X94106309Y-121285000D01*
X93630750Y-121285000D01*
X93472000Y-121443750D01*
X93218000Y-121443750D01*
X93059250Y-121285000D01*
X92583691Y-121285000D01*
X92350302Y-121381673D01*
X92171673Y-121560301D01*
X92075000Y-121793690D01*
X90031674Y-121793690D01*
X90011162Y-121684683D01*
X89872090Y-121468559D01*
X89659890Y-121323569D01*
X89408000Y-121272560D01*
X89327362Y-121272560D01*
X89130252Y-121075450D01*
X90444525Y-119761177D01*
X90456590Y-119769421D01*
X90708480Y-119820430D01*
X91709240Y-119820430D01*
X91944557Y-119776152D01*
X91956414Y-119768522D01*
X91957730Y-119769421D01*
X92209620Y-119820430D01*
X93210380Y-119820430D01*
X93445697Y-119776152D01*
X93457554Y-119768522D01*
X93458870Y-119769421D01*
X93710760Y-119820430D01*
X94711520Y-119820430D01*
X94946837Y-119776152D01*
X95162961Y-119637080D01*
X95307951Y-119424880D01*
X95358960Y-119172990D01*
X95358960Y-118682040D01*
X95437960Y-118682040D01*
X95728799Y-118624188D01*
X95975361Y-118459441D01*
X97059941Y-117374861D01*
X97224688Y-117128299D01*
X97282540Y-116837460D01*
X97282540Y-115797590D01*
X97372170Y-115797590D01*
X97607487Y-115753312D01*
X97823611Y-115614240D01*
X97968601Y-115402040D01*
X97984073Y-115325637D01*
X98215386Y-115557354D01*
X98760853Y-115783852D01*
X99351476Y-115784368D01*
X99897337Y-115558822D01*
X100315334Y-115141554D01*
X100349198Y-115060000D01*
X101414953Y-115060000D01*
X101483106Y-115224943D01*
X101942637Y-115685278D01*
X102110000Y-115754773D01*
X102110000Y-118332345D01*
X101738902Y-118702796D01*
X101535232Y-119193287D01*
X101534769Y-119724383D01*
X101737582Y-120215229D01*
X102112796Y-120591098D01*
X102603287Y-120794768D01*
X103134383Y-120795231D01*
X103625229Y-120592418D01*
X104001098Y-120217204D01*
X104204768Y-119726713D01*
X104205231Y-119195617D01*
X104002418Y-118704771D01*
X103630000Y-118331703D01*
X103630000Y-115755047D01*
X103794943Y-115686894D01*
X104255278Y-115227363D01*
X104504716Y-114626648D01*
X104505284Y-113976205D01*
X104256894Y-113375057D01*
X103797363Y-112914722D01*
X103196648Y-112665284D01*
X102546205Y-112664716D01*
X101945057Y-112913106D01*
X101484722Y-113372637D01*
X101415227Y-113540000D01*
X100350021Y-113540000D01*
X100316802Y-113459603D01*
X99899534Y-113041606D01*
X99354067Y-112815108D01*
X98763444Y-112814592D01*
X98217583Y-113040138D01*
X97985849Y-113271468D01*
X97975332Y-113215573D01*
X97836260Y-112999449D01*
X97624060Y-112854459D01*
X97372170Y-112803450D01*
X95672910Y-112803450D01*
X95437593Y-112847728D01*
X95221469Y-112986800D01*
X95076479Y-113199000D01*
X95025470Y-113450890D01*
X95025470Y-115150150D01*
X95069748Y-115385467D01*
X95208820Y-115601591D01*
X95421020Y-115746581D01*
X95672910Y-115797590D01*
X95762540Y-115797590D01*
X95762540Y-116522658D01*
X95358960Y-116926238D01*
X95358960Y-116671090D01*
X95314682Y-116435773D01*
X95175610Y-116219649D01*
X94963410Y-116074659D01*
X94711520Y-116023650D01*
X94346076Y-116023650D01*
X94356930Y-115970050D01*
X94356930Y-115965750D01*
X94357953Y-115962537D01*
X94356930Y-115956654D01*
X94356930Y-111969550D01*
X94312652Y-111734233D01*
X94173580Y-111518109D01*
X93961380Y-111373119D01*
X93709490Y-111322110D01*
X91710510Y-111322110D01*
X91475193Y-111366388D01*
X91259069Y-111505460D01*
X91114079Y-111717660D01*
X91063070Y-111969550D01*
X91063070Y-115970050D01*
X91073156Y-116023650D01*
X90708480Y-116023650D01*
X90473163Y-116067928D01*
X90257039Y-116207000D01*
X90112049Y-116419200D01*
X90061040Y-116671090D01*
X90061040Y-117995058D01*
X88166098Y-119890000D01*
X82550000Y-119890000D01*
X82259161Y-119947852D01*
X82012599Y-120112599D01*
X79328638Y-122796560D01*
X77724000Y-122796560D01*
X77488683Y-122840838D01*
X77272559Y-122979910D01*
X77127569Y-123192110D01*
X77076560Y-123444000D01*
X77076560Y-125476000D01*
X77120838Y-125711317D01*
X77259910Y-125927441D01*
X77472110Y-126072431D01*
X77724000Y-126123440D01*
X79756000Y-126123440D01*
X79991317Y-126079162D01*
X80207441Y-125940090D01*
X80307856Y-125793128D01*
X80311621Y-125797188D01*
X80897054Y-126065983D01*
X81153000Y-125947367D01*
X81153000Y-124587000D01*
X81407000Y-124587000D01*
X81407000Y-125947367D01*
X81662946Y-126065983D01*
X82248379Y-125797188D01*
X82686385Y-125324818D01*
X82885975Y-124842944D01*
X82766836Y-124587000D01*
X81407000Y-124587000D01*
X81153000Y-124587000D01*
X81133000Y-124587000D01*
X81133000Y-124333000D01*
X81153000Y-124333000D01*
X81153000Y-124313000D01*
X81407000Y-124313000D01*
X81407000Y-124333000D01*
X82766836Y-124333000D01*
X82885975Y-124077056D01*
X82686385Y-123595182D01*
X82248379Y-123122812D01*
X81662946Y-122854017D01*
X81407002Y-122972632D01*
X81407002Y-122867800D01*
X82864802Y-121410000D01*
X83431975Y-121410000D01*
X83281673Y-121560301D01*
X83185000Y-121793690D01*
X83185000Y-124174250D01*
X83343750Y-124333000D01*
X84328000Y-124333000D01*
X84328000Y-124313000D01*
X84582000Y-124313000D01*
X84582000Y-124333000D01*
X85566250Y-124333000D01*
X85725000Y-124174250D01*
X85725000Y-121793690D01*
X85628327Y-121560301D01*
X85478025Y-121410000D01*
X87315198Y-121410000D01*
X87758140Y-121852942D01*
X87744560Y-121920000D01*
X87744560Y-126290000D01*
X85725000Y-126290000D01*
X85725000Y-124745750D01*
X85566250Y-124587000D01*
X84582000Y-124587000D01*
X84582000Y-124607000D01*
X84328000Y-124607000D01*
X84328000Y-124587000D01*
X83343750Y-124587000D01*
X83185000Y-124745750D01*
X83185000Y-126290000D01*
X71830000Y-126290000D01*
X71830000Y-77750091D01*
X72009000Y-77750091D01*
X72009000Y-78454250D01*
X72167750Y-78613000D01*
X73533000Y-78613000D01*
X73533000Y-77400150D01*
X73787000Y-77400150D01*
X73787000Y-78613000D01*
X75152250Y-78613000D01*
X75311000Y-78454250D01*
X75311000Y-77852944D01*
X77134025Y-77852944D01*
X77333615Y-78334818D01*
X77771621Y-78807188D01*
X78357054Y-79075983D01*
X78613000Y-78957367D01*
X78613000Y-77597000D01*
X77253164Y-77597000D01*
X77134025Y-77852944D01*
X75311000Y-77852944D01*
X75311000Y-77750091D01*
X75214327Y-77516702D01*
X75035699Y-77338073D01*
X74802310Y-77241400D01*
X73945750Y-77241400D01*
X73787000Y-77400150D01*
X73533000Y-77400150D01*
X73374250Y-77241400D01*
X72517690Y-77241400D01*
X72284301Y-77338073D01*
X72105673Y-77516702D01*
X72009000Y-77750091D01*
X71830000Y-77750091D01*
X71830000Y-77087056D01*
X77134025Y-77087056D01*
X77253164Y-77343000D01*
X78613000Y-77343000D01*
X78613000Y-75982633D01*
X78357054Y-75864017D01*
X77771621Y-76132812D01*
X77333615Y-76605182D01*
X77134025Y-77087056D01*
X71830000Y-77087056D01*
X71830000Y-75640000D01*
X83185000Y-75640000D01*
X83185000Y-77184250D01*
X83185000Y-77184250D01*
G37*
X83185000Y-77184250D02*
X83343750Y-77343000D01*
X84328000Y-77343000D01*
X84328000Y-77323000D01*
X84582000Y-77323000D01*
X84582000Y-77343000D01*
X85566250Y-77343000D01*
X85725000Y-77184250D01*
X85725000Y-75640000D01*
X87744560Y-75640000D01*
X87744560Y-80010000D01*
X87757330Y-80077868D01*
X86220320Y-81614878D01*
X86174833Y-81614838D01*
X85831057Y-81756883D01*
X85797882Y-81790000D01*
X84134802Y-81790000D01*
X82040000Y-79695198D01*
X82040000Y-79133440D01*
X82296000Y-79133440D01*
X82531317Y-79089162D01*
X82747441Y-78950090D01*
X82892431Y-78737890D01*
X82943440Y-78486000D01*
X82943440Y-77755750D01*
X83185000Y-77755750D01*
X83185000Y-80136310D01*
X83281673Y-80369699D01*
X83460302Y-80548327D01*
X83693691Y-80645000D01*
X84169250Y-80645000D01*
X84328000Y-80486250D01*
X84328000Y-77597000D01*
X84582000Y-77597000D01*
X84582000Y-80486250D01*
X84740750Y-80645000D01*
X85216309Y-80645000D01*
X85449698Y-80548327D01*
X85628327Y-80369699D01*
X85725000Y-80136310D01*
X85725000Y-77755750D01*
X85566250Y-77597000D01*
X84582000Y-77597000D01*
X84328000Y-77597000D01*
X83343750Y-77597000D01*
X83185000Y-77755750D01*
X82943440Y-77755750D01*
X82943440Y-76454000D01*
X82899162Y-76218683D01*
X82760090Y-76002559D01*
X82547890Y-75857569D01*
X82296000Y-75806560D01*
X80264000Y-75806560D01*
X80028683Y-75850838D01*
X79812559Y-75989910D01*
X79712144Y-76136872D01*
X79708379Y-76132812D01*
X79122946Y-75864017D01*
X78867000Y-75982633D01*
X78867000Y-77343000D01*
X78887000Y-77343000D01*
X78887000Y-77597000D01*
X78867000Y-77597000D01*
X78867000Y-78957367D01*
X79122946Y-79075983D01*
X79708379Y-78807188D01*
X79712934Y-78802276D01*
X79799910Y-78937441D01*
X80012110Y-79082431D01*
X80264000Y-79133440D01*
X80520000Y-79133440D01*
X80520000Y-80010000D01*
X80577852Y-80300839D01*
X80742599Y-80547401D01*
X83255198Y-83060000D01*
X75104648Y-83060000D01*
X74904415Y-82760330D01*
X74589634Y-82550000D01*
X74904415Y-82339670D01*
X75229271Y-81853489D01*
X75343345Y-81280000D01*
X75229271Y-80706511D01*
X74904415Y-80220330D01*
X74882220Y-80205500D01*
X75035699Y-80141927D01*
X75214327Y-79963298D01*
X75311000Y-79729909D01*
X75311000Y-79025750D01*
X75152250Y-78867000D01*
X73787000Y-78867000D01*
X73787000Y-78887000D01*
X73533000Y-78887000D01*
X73533000Y-78867000D01*
X72167750Y-78867000D01*
X72009000Y-79025750D01*
X72009000Y-79729909D01*
X72105673Y-79963298D01*
X72284301Y-80141927D01*
X72437780Y-80205500D01*
X72415585Y-80220330D01*
X72090729Y-80706511D01*
X71976655Y-81280000D01*
X72090729Y-81853489D01*
X72415585Y-82339670D01*
X72730366Y-82550000D01*
X72415585Y-82760330D01*
X72090729Y-83246511D01*
X71976655Y-83820000D01*
X72090729Y-84393489D01*
X72415585Y-84879670D01*
X72730366Y-85090000D01*
X72415585Y-85300330D01*
X72090729Y-85786511D01*
X71976655Y-86360000D01*
X72090729Y-86933489D01*
X72415585Y-87419670D01*
X72730366Y-87630000D01*
X72415585Y-87840330D01*
X72090729Y-88326511D01*
X71976655Y-88900000D01*
X72090729Y-89473489D01*
X72415585Y-89959670D01*
X72730366Y-90170000D01*
X72415585Y-90380330D01*
X72090729Y-90866511D01*
X71976655Y-91440000D01*
X72090729Y-92013489D01*
X72415585Y-92499670D01*
X72730366Y-92710000D01*
X72415585Y-92920330D01*
X72090729Y-93406511D01*
X71976655Y-93980000D01*
X72090729Y-94553489D01*
X72415585Y-95039670D01*
X72730366Y-95250000D01*
X72415585Y-95460330D01*
X72090729Y-95946511D01*
X71976655Y-96520000D01*
X72090729Y-97093489D01*
X72415585Y-97579670D01*
X72730366Y-97790000D01*
X72415585Y-98000330D01*
X72090729Y-98486511D01*
X71976655Y-99060000D01*
X72090729Y-99633489D01*
X72415585Y-100119670D01*
X72730366Y-100330000D01*
X72415585Y-100540330D01*
X72090729Y-101026511D01*
X71976655Y-101600000D01*
X72090729Y-102173489D01*
X72415585Y-102659670D01*
X72730366Y-102870000D01*
X72415585Y-103080330D01*
X72090729Y-103566511D01*
X71976655Y-104140000D01*
X72090729Y-104713489D01*
X72415585Y-105199670D01*
X72730366Y-105410000D01*
X72415585Y-105620330D01*
X72090729Y-106106511D01*
X71976655Y-106680000D01*
X72090729Y-107253489D01*
X72415585Y-107739670D01*
X72730366Y-107950000D01*
X72415585Y-108160330D01*
X72090729Y-108646511D01*
X71976655Y-109220000D01*
X72090729Y-109793489D01*
X72415585Y-110279670D01*
X72730366Y-110490000D01*
X72415585Y-110700330D01*
X72090729Y-111186511D01*
X71976655Y-111760000D01*
X72090729Y-112333489D01*
X72415585Y-112819670D01*
X72730366Y-113030000D01*
X72415585Y-113240330D01*
X72090729Y-113726511D01*
X71976655Y-114300000D01*
X72090729Y-114873489D01*
X72415585Y-115359670D01*
X72730366Y-115570000D01*
X72415585Y-115780330D01*
X72090729Y-116266511D01*
X71976655Y-116840000D01*
X72090729Y-117413489D01*
X72415585Y-117899670D01*
X72730366Y-118110000D01*
X72415585Y-118320330D01*
X72090729Y-118806511D01*
X71976655Y-119380000D01*
X72090729Y-119953489D01*
X72415585Y-120439670D01*
X72730366Y-120650000D01*
X72415585Y-120860330D01*
X72090729Y-121346511D01*
X71976655Y-121920000D01*
X72090729Y-122493489D01*
X72415585Y-122979670D01*
X72730366Y-123190000D01*
X72415585Y-123400330D01*
X72090729Y-123886511D01*
X71976655Y-124460000D01*
X72090729Y-125033489D01*
X72415585Y-125519670D01*
X72901766Y-125844526D01*
X73475255Y-125958600D01*
X73844745Y-125958600D01*
X74418234Y-125844526D01*
X74904415Y-125519670D01*
X75229271Y-125033489D01*
X75343345Y-124460000D01*
X75229271Y-123886511D01*
X74904415Y-123400330D01*
X74589634Y-123190000D01*
X74904415Y-122979670D01*
X75229271Y-122493489D01*
X75343345Y-121920000D01*
X75242381Y-121412421D01*
X76737401Y-119917401D01*
X76902148Y-119670840D01*
X76911746Y-119622586D01*
X76960000Y-119380000D01*
X76960000Y-112074802D01*
X80324802Y-108710000D01*
X94935198Y-108710000D01*
X95635198Y-109410000D01*
X87950000Y-109410000D01*
X87659161Y-109467852D01*
X87412599Y-109632599D01*
X84775198Y-112270000D01*
X80194496Y-112270000D01*
X80126462Y-112105345D01*
X79667073Y-111645154D01*
X79066547Y-111395794D01*
X78416306Y-111395226D01*
X77815345Y-111643538D01*
X77355154Y-112102927D01*
X77105794Y-112703453D01*
X77105226Y-113353694D01*
X77353538Y-113954655D01*
X77812927Y-114414846D01*
X78413453Y-114664206D01*
X79063694Y-114664774D01*
X79664655Y-114416462D01*
X79899363Y-114182163D01*
X87927443Y-114182163D01*
X88026042Y-114448965D01*
X88635582Y-114675401D01*
X89285377Y-114651341D01*
X89773958Y-114448965D01*
X89872557Y-114182163D01*
X88900000Y-113209605D01*
X87927443Y-114182163D01*
X79899363Y-114182163D01*
X80124846Y-113957073D01*
X80194221Y-113790000D01*
X85090000Y-113790000D01*
X85380839Y-113732148D01*
X85627401Y-113567401D01*
X86429220Y-112765582D01*
X87254599Y-112765582D01*
X87278659Y-113415377D01*
X87481035Y-113903958D01*
X87747837Y-114002557D01*
X88720395Y-113030000D01*
X89079605Y-113030000D01*
X90052163Y-114002557D01*
X90318965Y-113903958D01*
X90545401Y-113294418D01*
X90521341Y-112644623D01*
X90318965Y-112156042D01*
X90052163Y-112057443D01*
X89079605Y-113030000D01*
X88720395Y-113030000D01*
X87747837Y-112057443D01*
X87481035Y-112156042D01*
X87254599Y-112765582D01*
X86429220Y-112765582D01*
X87316965Y-111877837D01*
X87927443Y-111877837D01*
X88900000Y-112850395D01*
X89872557Y-111877837D01*
X89773958Y-111611035D01*
X89164418Y-111384599D01*
X88514623Y-111408659D01*
X88026042Y-111611035D01*
X87927443Y-111877837D01*
X87316965Y-111877837D01*
X88264802Y-110930000D01*
X98995331Y-110930000D01*
X99005910Y-110946441D01*
X99218110Y-111091431D01*
X99470000Y-111142440D01*
X99509382Y-111142440D01*
X99547852Y-111335839D01*
X99712599Y-111582401D01*
X100427599Y-112297401D01*
X100674161Y-112462148D01*
X100965000Y-112520000D01*
X104460198Y-112520000D01*
X104650000Y-112709802D01*
X104650000Y-121605198D01*
X103142638Y-123112560D01*
X102170000Y-123112560D01*
X101934683Y-123156838D01*
X101718559Y-123295910D01*
X101573569Y-123508110D01*
X101522560Y-123760000D01*
X101522560Y-125160000D01*
X101566838Y-125395317D01*
X101705910Y-125611441D01*
X101918110Y-125756431D01*
X102170000Y-125807440D01*
X103570000Y-125807440D01*
X103805317Y-125763162D01*
X104021441Y-125624090D01*
X104166431Y-125411890D01*
X104217440Y-125160000D01*
X104217440Y-124187362D01*
X105947401Y-122457401D01*
X106112148Y-122210840D01*
X106121746Y-122162586D01*
X106170000Y-121920000D01*
X106170000Y-112395000D01*
X106112148Y-112104161D01*
X105947401Y-111857599D01*
X105312401Y-111222599D01*
X105065839Y-111057852D01*
X104775000Y-111000000D01*
X104117865Y-111000000D01*
X104181441Y-110959090D01*
X104201317Y-110930000D01*
X104460000Y-110930000D01*
X104750839Y-110872148D01*
X104997401Y-110707401D01*
X105312401Y-110392401D01*
X105477148Y-110145840D01*
X105535000Y-109855000D01*
X105535000Y-105410000D01*
X105477148Y-105119161D01*
X105312401Y-104872599D01*
X105065839Y-104707852D01*
X104775000Y-104650000D01*
X95435047Y-104650000D01*
X95366894Y-104485057D01*
X94907363Y-104024722D01*
X94306648Y-103775284D01*
X93656205Y-103774716D01*
X93055057Y-104023106D01*
X92594722Y-104482637D01*
X92345284Y-105083352D01*
X92344716Y-105733795D01*
X92593106Y-106334943D01*
X93052637Y-106795278D01*
X93653352Y-107044716D01*
X94303795Y-107045284D01*
X94904943Y-106796894D01*
X95365278Y-106337363D01*
X95434773Y-106170000D01*
X97075198Y-106170000D01*
X98827214Y-107922016D01*
X98822560Y-107945000D01*
X98822560Y-108460000D01*
X96834802Y-108460000D01*
X95787401Y-107412599D01*
X95540839Y-107247852D01*
X95250000Y-107190000D01*
X80010000Y-107190000D01*
X79719161Y-107247852D01*
X79472599Y-107412599D01*
X75662599Y-111222599D01*
X75497852Y-111469161D01*
X75440000Y-111760000D01*
X75440000Y-119065198D01*
X75307152Y-119198046D01*
X75229271Y-118806511D01*
X74904415Y-118320330D01*
X74589634Y-118110000D01*
X74904415Y-117899670D01*
X75229271Y-117413489D01*
X75343345Y-116840000D01*
X75229271Y-116266511D01*
X74904415Y-115780330D01*
X74589634Y-115570000D01*
X74904415Y-115359670D01*
X75229271Y-114873489D01*
X75343345Y-114300000D01*
X75229271Y-113726511D01*
X74904415Y-113240330D01*
X74589634Y-113030000D01*
X74904415Y-112819670D01*
X75229271Y-112333489D01*
X75343345Y-111760000D01*
X75229271Y-111186511D01*
X74904415Y-110700330D01*
X74589634Y-110490000D01*
X74904415Y-110279670D01*
X75229271Y-109793489D01*
X75343345Y-109220000D01*
X75229271Y-108646511D01*
X74904415Y-108160330D01*
X74589634Y-107950000D01*
X74904415Y-107739670D01*
X75229271Y-107253489D01*
X75343345Y-106680000D01*
X75229271Y-106106511D01*
X74904415Y-105620330D01*
X74589634Y-105410000D01*
X74904415Y-105199670D01*
X75229271Y-104713489D01*
X75343345Y-104140000D01*
X75229271Y-103566511D01*
X74904415Y-103080330D01*
X74589634Y-102870000D01*
X74904415Y-102659670D01*
X75229271Y-102173489D01*
X75343345Y-101600000D01*
X75229271Y-101026511D01*
X74904415Y-100540330D01*
X74589634Y-100330000D01*
X74904415Y-100119670D01*
X75229271Y-99633489D01*
X75343345Y-99060000D01*
X75229271Y-98486511D01*
X74904415Y-98000330D01*
X74589634Y-97790000D01*
X74904415Y-97579670D01*
X75229271Y-97093489D01*
X75343345Y-96520000D01*
X75229271Y-95946511D01*
X74904415Y-95460330D01*
X74589634Y-95250000D01*
X74904415Y-95039670D01*
X75229271Y-94553489D01*
X75343345Y-93980000D01*
X75229271Y-93406511D01*
X74904415Y-92920330D01*
X74589634Y-92710000D01*
X74904415Y-92499670D01*
X75229271Y-92013489D01*
X75343345Y-91440000D01*
X75229271Y-90866511D01*
X74904415Y-90380330D01*
X74589634Y-90170000D01*
X74904415Y-89959670D01*
X75229271Y-89473489D01*
X75343345Y-88900000D01*
X75229271Y-88326511D01*
X74904415Y-87840330D01*
X74589634Y-87630000D01*
X74904415Y-87419670D01*
X75229271Y-86933489D01*
X75343345Y-86360000D01*
X75229271Y-85786511D01*
X74904415Y-85300330D01*
X74589634Y-85090000D01*
X74904415Y-84879670D01*
X75104648Y-84580000D01*
X92710000Y-84580000D01*
X93000839Y-84522148D01*
X93247401Y-84357401D01*
X98444414Y-79160388D01*
X98522599Y-79277401D01*
X101062599Y-81817401D01*
X101309160Y-81982148D01*
X101357414Y-81991746D01*
X101600000Y-82040000D01*
X105410000Y-82040000D01*
X105700839Y-81982148D01*
X105947401Y-81817401D01*
X107107362Y-80657440D01*
X107188000Y-80657440D01*
X107423317Y-80613162D01*
X107639441Y-80474090D01*
X107784431Y-80261890D01*
X107835440Y-80010000D01*
X107835440Y-77755750D01*
X109855000Y-77755750D01*
X109855000Y-80136310D01*
X109951673Y-80369699D01*
X110130302Y-80548327D01*
X110363691Y-80645000D01*
X110839250Y-80645000D01*
X110998000Y-80486250D01*
X110998000Y-77597000D01*
X110013750Y-77597000D01*
X109855000Y-77755750D01*
X107835440Y-77755750D01*
X107835440Y-75640000D01*
X109855000Y-75640000D01*
X109855000Y-77184250D01*
X110013750Y-77343000D01*
X110998000Y-77343000D01*
X110998000Y-77323000D01*
X111252000Y-77323000D01*
X111252000Y-77343000D01*
X111272000Y-77343000D01*
X111272000Y-77597000D01*
X111252000Y-77597000D01*
X111252000Y-80486250D01*
X111410750Y-80645000D01*
X111886309Y-80645000D01*
X112119698Y-80548327D01*
X112298327Y-80369699D01*
X112320000Y-80317376D01*
X112320000Y-126290000D01*
X94615000Y-126290000D01*
X94615000Y-125504210D01*
X95658455Y-125504210D01*
X95738682Y-125755473D01*
X96293907Y-125956870D01*
X96883939Y-125930461D01*
X97306398Y-125755473D01*
X97386625Y-125504210D01*
X96522540Y-124640125D01*
X95658455Y-125504210D01*
X94615000Y-125504210D01*
X94615000Y-124745750D01*
X94456250Y-124587000D01*
X93472000Y-124587000D01*
X93472000Y-124607000D01*
X93218000Y-124607000D01*
X93218000Y-124587000D01*
X92233750Y-124587000D01*
X92075000Y-124745750D01*
X92075000Y-126290000D01*
X90055440Y-126290000D01*
X90055440Y-121920000D01*
X90031674Y-121793690D01*
X92075000Y-121793690D01*
X92075000Y-124174250D01*
X92233750Y-124333000D01*
X93218000Y-124333000D01*
X93218000Y-121443750D01*
X93472000Y-121443750D01*
X93472000Y-124333000D01*
X94456250Y-124333000D01*
X94557363Y-124231887D01*
X95026190Y-124231887D01*
X95052599Y-124821919D01*
X95227587Y-125244378D01*
X95478850Y-125324605D01*
X96342935Y-124460520D01*
X96702145Y-124460520D01*
X97566230Y-125324605D01*
X97572830Y-125322498D01*
X97572830Y-125435419D01*
X97669503Y-125668808D01*
X97848131Y-125847437D01*
X98081520Y-125944110D01*
X98771710Y-125944110D01*
X98930460Y-125785360D01*
X98930460Y-124586480D01*
X99184460Y-124586480D01*
X99184460Y-125785360D01*
X99343210Y-125944110D01*
X100033400Y-125944110D01*
X100266789Y-125847437D01*
X100445417Y-125668808D01*
X100542090Y-125435419D01*
X100542090Y-124745230D01*
X100383340Y-124586480D01*
X99184460Y-124586480D01*
X98930460Y-124586480D01*
X98910460Y-124586480D01*
X98910460Y-124332480D01*
X98930460Y-124332480D01*
X98930460Y-123133600D01*
X99184460Y-123133600D01*
X99184460Y-124332480D01*
X100383340Y-124332480D01*
X100542090Y-124173730D01*
X100542090Y-123483541D01*
X100445417Y-123250152D01*
X100266789Y-123071523D01*
X100033400Y-122974850D01*
X99343210Y-122974850D01*
X99184460Y-123133600D01*
X98930460Y-123133600D01*
X98771710Y-122974850D01*
X98081520Y-122974850D01*
X97848131Y-123071523D01*
X97669503Y-123250152D01*
X97572830Y-123483541D01*
X97572830Y-123598542D01*
X97566230Y-123596435D01*
X96702145Y-124460520D01*
X96342935Y-124460520D01*
X95478850Y-123596435D01*
X95227587Y-123676662D01*
X95026190Y-124231887D01*
X94557363Y-124231887D01*
X94615000Y-124174250D01*
X94615000Y-123416830D01*
X95658455Y-123416830D01*
X96522540Y-124280915D01*
X97386625Y-123416830D01*
X97306398Y-123165567D01*
X96751173Y-122964170D01*
X96161141Y-122990579D01*
X95738682Y-123165567D01*
X95658455Y-123416830D01*
X94615000Y-123416830D01*
X94615000Y-121793690D01*
X94518327Y-121560301D01*
X94339698Y-121381673D01*
X94106309Y-121285000D01*
X93630750Y-121285000D01*
X93472000Y-121443750D01*
X93218000Y-121443750D01*
X93059250Y-121285000D01*
X92583691Y-121285000D01*
X92350302Y-121381673D01*
X92171673Y-121560301D01*
X92075000Y-121793690D01*
X90031674Y-121793690D01*
X90011162Y-121684683D01*
X89872090Y-121468559D01*
X89659890Y-121323569D01*
X89408000Y-121272560D01*
X89327362Y-121272560D01*
X89130252Y-121075450D01*
X90444525Y-119761177D01*
X90456590Y-119769421D01*
X90708480Y-119820430D01*
X91709240Y-119820430D01*
X91944557Y-119776152D01*
X91956414Y-119768522D01*
X91957730Y-119769421D01*
X92209620Y-119820430D01*
X93210380Y-119820430D01*
X93445697Y-119776152D01*
X93457554Y-119768522D01*
X93458870Y-119769421D01*
X93710760Y-119820430D01*
X94711520Y-119820430D01*
X94946837Y-119776152D01*
X95162961Y-119637080D01*
X95307951Y-119424880D01*
X95358960Y-119172990D01*
X95358960Y-118682040D01*
X95437960Y-118682040D01*
X95728799Y-118624188D01*
X95975361Y-118459441D01*
X97059941Y-117374861D01*
X97224688Y-117128299D01*
X97282540Y-116837460D01*
X97282540Y-115797590D01*
X97372170Y-115797590D01*
X97607487Y-115753312D01*
X97823611Y-115614240D01*
X97968601Y-115402040D01*
X97984073Y-115325637D01*
X98215386Y-115557354D01*
X98760853Y-115783852D01*
X99351476Y-115784368D01*
X99897337Y-115558822D01*
X100315334Y-115141554D01*
X100349198Y-115060000D01*
X101414953Y-115060000D01*
X101483106Y-115224943D01*
X101942637Y-115685278D01*
X102110000Y-115754773D01*
X102110000Y-118332345D01*
X101738902Y-118702796D01*
X101535232Y-119193287D01*
X101534769Y-119724383D01*
X101737582Y-120215229D01*
X102112796Y-120591098D01*
X102603287Y-120794768D01*
X103134383Y-120795231D01*
X103625229Y-120592418D01*
X104001098Y-120217204D01*
X104204768Y-119726713D01*
X104205231Y-119195617D01*
X104002418Y-118704771D01*
X103630000Y-118331703D01*
X103630000Y-115755047D01*
X103794943Y-115686894D01*
X104255278Y-115227363D01*
X104504716Y-114626648D01*
X104505284Y-113976205D01*
X104256894Y-113375057D01*
X103797363Y-112914722D01*
X103196648Y-112665284D01*
X102546205Y-112664716D01*
X101945057Y-112913106D01*
X101484722Y-113372637D01*
X101415227Y-113540000D01*
X100350021Y-113540000D01*
X100316802Y-113459603D01*
X99899534Y-113041606D01*
X99354067Y-112815108D01*
X98763444Y-112814592D01*
X98217583Y-113040138D01*
X97985849Y-113271468D01*
X97975332Y-113215573D01*
X97836260Y-112999449D01*
X97624060Y-112854459D01*
X97372170Y-112803450D01*
X95672910Y-112803450D01*
X95437593Y-112847728D01*
X95221469Y-112986800D01*
X95076479Y-113199000D01*
X95025470Y-113450890D01*
X95025470Y-115150150D01*
X95069748Y-115385467D01*
X95208820Y-115601591D01*
X95421020Y-115746581D01*
X95672910Y-115797590D01*
X95762540Y-115797590D01*
X95762540Y-116522658D01*
X95358960Y-116926238D01*
X95358960Y-116671090D01*
X95314682Y-116435773D01*
X95175610Y-116219649D01*
X94963410Y-116074659D01*
X94711520Y-116023650D01*
X94346076Y-116023650D01*
X94356930Y-115970050D01*
X94356930Y-115965750D01*
X94357953Y-115962537D01*
X94356930Y-115956654D01*
X94356930Y-111969550D01*
X94312652Y-111734233D01*
X94173580Y-111518109D01*
X93961380Y-111373119D01*
X93709490Y-111322110D01*
X91710510Y-111322110D01*
X91475193Y-111366388D01*
X91259069Y-111505460D01*
X91114079Y-111717660D01*
X91063070Y-111969550D01*
X91063070Y-115970050D01*
X91073156Y-116023650D01*
X90708480Y-116023650D01*
X90473163Y-116067928D01*
X90257039Y-116207000D01*
X90112049Y-116419200D01*
X90061040Y-116671090D01*
X90061040Y-117995058D01*
X88166098Y-119890000D01*
X82550000Y-119890000D01*
X82259161Y-119947852D01*
X82012599Y-120112599D01*
X79328638Y-122796560D01*
X77724000Y-122796560D01*
X77488683Y-122840838D01*
X77272559Y-122979910D01*
X77127569Y-123192110D01*
X77076560Y-123444000D01*
X77076560Y-125476000D01*
X77120838Y-125711317D01*
X77259910Y-125927441D01*
X77472110Y-126072431D01*
X77724000Y-126123440D01*
X79756000Y-126123440D01*
X79991317Y-126079162D01*
X80207441Y-125940090D01*
X80307856Y-125793128D01*
X80311621Y-125797188D01*
X80897054Y-126065983D01*
X81153000Y-125947367D01*
X81153000Y-124587000D01*
X81407000Y-124587000D01*
X81407000Y-125947367D01*
X81662946Y-126065983D01*
X82248379Y-125797188D01*
X82686385Y-125324818D01*
X82885975Y-124842944D01*
X82766836Y-124587000D01*
X81407000Y-124587000D01*
X81153000Y-124587000D01*
X81133000Y-124587000D01*
X81133000Y-124333000D01*
X81153000Y-124333000D01*
X81153000Y-124313000D01*
X81407000Y-124313000D01*
X81407000Y-124333000D01*
X82766836Y-124333000D01*
X82885975Y-124077056D01*
X82686385Y-123595182D01*
X82248379Y-123122812D01*
X81662946Y-122854017D01*
X81407002Y-122972632D01*
X81407002Y-122867800D01*
X82864802Y-121410000D01*
X83431975Y-121410000D01*
X83281673Y-121560301D01*
X83185000Y-121793690D01*
X83185000Y-124174250D01*
X83343750Y-124333000D01*
X84328000Y-124333000D01*
X84328000Y-124313000D01*
X84582000Y-124313000D01*
X84582000Y-124333000D01*
X85566250Y-124333000D01*
X85725000Y-124174250D01*
X85725000Y-121793690D01*
X85628327Y-121560301D01*
X85478025Y-121410000D01*
X87315198Y-121410000D01*
X87758140Y-121852942D01*
X87744560Y-121920000D01*
X87744560Y-126290000D01*
X85725000Y-126290000D01*
X85725000Y-124745750D01*
X85566250Y-124587000D01*
X84582000Y-124587000D01*
X84582000Y-124607000D01*
X84328000Y-124607000D01*
X84328000Y-124587000D01*
X83343750Y-124587000D01*
X83185000Y-124745750D01*
X83185000Y-126290000D01*
X71830000Y-126290000D01*
X71830000Y-77750091D01*
X72009000Y-77750091D01*
X72009000Y-78454250D01*
X72167750Y-78613000D01*
X73533000Y-78613000D01*
X73533000Y-77400150D01*
X73787000Y-77400150D01*
X73787000Y-78613000D01*
X75152250Y-78613000D01*
X75311000Y-78454250D01*
X75311000Y-77852944D01*
X77134025Y-77852944D01*
X77333615Y-78334818D01*
X77771621Y-78807188D01*
X78357054Y-79075983D01*
X78613000Y-78957367D01*
X78613000Y-77597000D01*
X77253164Y-77597000D01*
X77134025Y-77852944D01*
X75311000Y-77852944D01*
X75311000Y-77750091D01*
X75214327Y-77516702D01*
X75035699Y-77338073D01*
X74802310Y-77241400D01*
X73945750Y-77241400D01*
X73787000Y-77400150D01*
X73533000Y-77400150D01*
X73374250Y-77241400D01*
X72517690Y-77241400D01*
X72284301Y-77338073D01*
X72105673Y-77516702D01*
X72009000Y-77750091D01*
X71830000Y-77750091D01*
X71830000Y-77087056D01*
X77134025Y-77087056D01*
X77253164Y-77343000D01*
X78613000Y-77343000D01*
X78613000Y-75982633D01*
X78357054Y-75864017D01*
X77771621Y-76132812D01*
X77333615Y-76605182D01*
X77134025Y-77087056D01*
X71830000Y-77087056D01*
X71830000Y-75640000D01*
X83185000Y-75640000D01*
X83185000Y-77184250D01*
G36*
X92075000Y-77184250D02*
X92233750Y-77343000D01*
X93218000Y-77343000D01*
X93218000Y-77323000D01*
X93472000Y-77323000D01*
X93472000Y-77343000D01*
X94456250Y-77343000D01*
X94615000Y-77184250D01*
X94615000Y-77087056D01*
X94914025Y-77087056D01*
X95033164Y-77343000D01*
X96393000Y-77343000D01*
X96393000Y-75982633D01*
X96137054Y-75864017D01*
X95551621Y-76132812D01*
X95113615Y-76605182D01*
X94914025Y-77087056D01*
X94615000Y-77087056D01*
X94615000Y-75640000D01*
X100965000Y-75640000D01*
X100965000Y-77184250D01*
X101123750Y-77343000D01*
X102108000Y-77343000D01*
X102108000Y-77323000D01*
X102362000Y-77323000D01*
X102362000Y-77343000D01*
X103346250Y-77343000D01*
X103505000Y-77184250D01*
X103505000Y-75640000D01*
X105524560Y-75640000D01*
X105524560Y-80010000D01*
X105537330Y-80077868D01*
X105095198Y-80520000D01*
X103258025Y-80520000D01*
X103408327Y-80369699D01*
X103505000Y-80136310D01*
X103505000Y-77755750D01*
X103346250Y-77597000D01*
X102362000Y-77597000D01*
X102362000Y-77617000D01*
X102108000Y-77617000D01*
X102108000Y-77597000D01*
X101123750Y-77597000D01*
X100965000Y-77755750D01*
X100965000Y-79570198D01*
X100416366Y-79021564D01*
X100527441Y-78950090D01*
X100672431Y-78737890D01*
X100723440Y-78486000D01*
X100723440Y-76454000D01*
X100679162Y-76218683D01*
X100540090Y-76002559D01*
X100327890Y-75857569D01*
X100076000Y-75806560D01*
X98044000Y-75806560D01*
X97808683Y-75850838D01*
X97592559Y-75989910D01*
X97492144Y-76136872D01*
X97488379Y-76132812D01*
X96902946Y-75864017D01*
X96647000Y-75982633D01*
X96647000Y-77343000D01*
X96667000Y-77343000D01*
X96667000Y-77597000D01*
X96647000Y-77597000D01*
X96647000Y-77617000D01*
X96393000Y-77617000D01*
X96393000Y-77597000D01*
X95033164Y-77597000D01*
X94914025Y-77852944D01*
X95113615Y-78334818D01*
X95551621Y-78807188D01*
X96137054Y-79075983D01*
X96392998Y-78957368D01*
X96392998Y-79062200D01*
X92395198Y-83060000D01*
X87160633Y-83060000D01*
X87294838Y-82736799D01*
X87294879Y-82689923D01*
X89327362Y-80657440D01*
X89408000Y-80657440D01*
X89643317Y-80613162D01*
X89859441Y-80474090D01*
X90004431Y-80261890D01*
X90055440Y-80010000D01*
X90055440Y-77755750D01*
X92075000Y-77755750D01*
X92075000Y-80136310D01*
X92171673Y-80369699D01*
X92350302Y-80548327D01*
X92583691Y-80645000D01*
X93059250Y-80645000D01*
X93218000Y-80486250D01*
X93218000Y-77597000D01*
X93472000Y-77597000D01*
X93472000Y-80486250D01*
X93630750Y-80645000D01*
X94106309Y-80645000D01*
X94339698Y-80548327D01*
X94518327Y-80369699D01*
X94615000Y-80136310D01*
X94615000Y-77755750D01*
X94456250Y-77597000D01*
X93472000Y-77597000D01*
X93218000Y-77597000D01*
X92233750Y-77597000D01*
X92075000Y-77755750D01*
X90055440Y-77755750D01*
X90055440Y-75640000D01*
X92075000Y-75640000D01*
X92075000Y-77184250D01*
X92075000Y-77184250D01*
G37*
X92075000Y-77184250D02*
X92233750Y-77343000D01*
X93218000Y-77343000D01*
X93218000Y-77323000D01*
X93472000Y-77323000D01*
X93472000Y-77343000D01*
X94456250Y-77343000D01*
X94615000Y-77184250D01*
X94615000Y-77087056D01*
X94914025Y-77087056D01*
X95033164Y-77343000D01*
X96393000Y-77343000D01*
X96393000Y-75982633D01*
X96137054Y-75864017D01*
X95551621Y-76132812D01*
X95113615Y-76605182D01*
X94914025Y-77087056D01*
X94615000Y-77087056D01*
X94615000Y-75640000D01*
X100965000Y-75640000D01*
X100965000Y-77184250D01*
X101123750Y-77343000D01*
X102108000Y-77343000D01*
X102108000Y-77323000D01*
X102362000Y-77323000D01*
X102362000Y-77343000D01*
X103346250Y-77343000D01*
X103505000Y-77184250D01*
X103505000Y-75640000D01*
X105524560Y-75640000D01*
X105524560Y-80010000D01*
X105537330Y-80077868D01*
X105095198Y-80520000D01*
X103258025Y-80520000D01*
X103408327Y-80369699D01*
X103505000Y-80136310D01*
X103505000Y-77755750D01*
X103346250Y-77597000D01*
X102362000Y-77597000D01*
X102362000Y-77617000D01*
X102108000Y-77617000D01*
X102108000Y-77597000D01*
X101123750Y-77597000D01*
X100965000Y-77755750D01*
X100965000Y-79570198D01*
X100416366Y-79021564D01*
X100527441Y-78950090D01*
X100672431Y-78737890D01*
X100723440Y-78486000D01*
X100723440Y-76454000D01*
X100679162Y-76218683D01*
X100540090Y-76002559D01*
X100327890Y-75857569D01*
X100076000Y-75806560D01*
X98044000Y-75806560D01*
X97808683Y-75850838D01*
X97592559Y-75989910D01*
X97492144Y-76136872D01*
X97488379Y-76132812D01*
X96902946Y-75864017D01*
X96647000Y-75982633D01*
X96647000Y-77343000D01*
X96667000Y-77343000D01*
X96667000Y-77597000D01*
X96647000Y-77597000D01*
X96647000Y-77617000D01*
X96393000Y-77617000D01*
X96393000Y-77597000D01*
X95033164Y-77597000D01*
X94914025Y-77852944D01*
X95113615Y-78334818D01*
X95551621Y-78807188D01*
X96137054Y-79075983D01*
X96392998Y-78957368D01*
X96392998Y-79062200D01*
X92395198Y-83060000D01*
X87160633Y-83060000D01*
X87294838Y-82736799D01*
X87294879Y-82689923D01*
X89327362Y-80657440D01*
X89408000Y-80657440D01*
X89643317Y-80613162D01*
X89859441Y-80474090D01*
X90004431Y-80261890D01*
X90055440Y-80010000D01*
X90055440Y-77755750D01*
X92075000Y-77755750D01*
X92075000Y-80136310D01*
X92171673Y-80369699D01*
X92350302Y-80548327D01*
X92583691Y-80645000D01*
X93059250Y-80645000D01*
X93218000Y-80486250D01*
X93218000Y-77597000D01*
X93472000Y-77597000D01*
X93472000Y-80486250D01*
X93630750Y-80645000D01*
X94106309Y-80645000D01*
X94339698Y-80548327D01*
X94518327Y-80369699D01*
X94615000Y-80136310D01*
X94615000Y-77755750D01*
X94456250Y-77597000D01*
X93472000Y-77597000D01*
X93218000Y-77597000D01*
X92233750Y-77597000D01*
X92075000Y-77755750D01*
X90055440Y-77755750D01*
X90055440Y-75640000D01*
X92075000Y-75640000D01*
X92075000Y-77184250D01*
M02*
