G04 #@! TF.FileFunction,Legend,Top*
%FSLAX46Y46*%
G04 Gerber Fmt 4.6, Leading zero omitted, Abs format (unit mm)*
G04 Created by KiCad (PCBNEW 4.0.4+e1-6308~48~ubuntu16.04.1-stable) date Mon Oct 24 16:05:19 2016*
%MOMM*%
%LPD*%
G01*
G04 APERTURE LIST*
%ADD10C,0.100000*%
%ADD11C,0.300000*%
%ADD12C,0.150000*%
G04 APERTURE END LIST*
D10*
D11*
X98227143Y-83633571D02*
X99084286Y-83633571D01*
X98655715Y-85133571D02*
X98655715Y-83633571D01*
X100370000Y-83705000D02*
X100227143Y-83633571D01*
X100012857Y-83633571D01*
X99798572Y-83705000D01*
X99655714Y-83847857D01*
X99584286Y-83990714D01*
X99512857Y-84276429D01*
X99512857Y-84490714D01*
X99584286Y-84776429D01*
X99655714Y-84919286D01*
X99798572Y-85062143D01*
X100012857Y-85133571D01*
X100155714Y-85133571D01*
X100370000Y-85062143D01*
X100441429Y-84990714D01*
X100441429Y-84490714D01*
X100155714Y-84490714D01*
X101941429Y-84990714D02*
X101870000Y-85062143D01*
X101655714Y-85133571D01*
X101512857Y-85133571D01*
X101298572Y-85062143D01*
X101155714Y-84919286D01*
X101084286Y-84776429D01*
X101012857Y-84490714D01*
X101012857Y-84276429D01*
X101084286Y-83990714D01*
X101155714Y-83847857D01*
X101298572Y-83705000D01*
X101512857Y-83633571D01*
X101655714Y-83633571D01*
X101870000Y-83705000D01*
X101941429Y-83776429D01*
X104012857Y-83633571D02*
X104298571Y-83633571D01*
X104441429Y-83705000D01*
X104584286Y-83847857D01*
X104655714Y-84133571D01*
X104655714Y-84633571D01*
X104584286Y-84919286D01*
X104441429Y-85062143D01*
X104298571Y-85133571D01*
X104012857Y-85133571D01*
X103870000Y-85062143D01*
X103727143Y-84919286D01*
X103655714Y-84633571D01*
X103655714Y-84133571D01*
X103727143Y-83847857D01*
X103870000Y-83705000D01*
X104012857Y-83633571D01*
X105298572Y-83633571D02*
X105298572Y-84847857D01*
X105370000Y-84990714D01*
X105441429Y-85062143D01*
X105584286Y-85133571D01*
X105870000Y-85133571D01*
X106012858Y-85062143D01*
X106084286Y-84990714D01*
X106155715Y-84847857D01*
X106155715Y-83633571D01*
X106655715Y-83633571D02*
X107512858Y-83633571D01*
X107084287Y-85133571D02*
X107084287Y-83633571D01*
X79542143Y-83633571D02*
X80399286Y-83633571D01*
X79970715Y-85133571D02*
X79970715Y-83633571D01*
X81685000Y-83705000D02*
X81542143Y-83633571D01*
X81327857Y-83633571D01*
X81113572Y-83705000D01*
X80970714Y-83847857D01*
X80899286Y-83990714D01*
X80827857Y-84276429D01*
X80827857Y-84490714D01*
X80899286Y-84776429D01*
X80970714Y-84919286D01*
X81113572Y-85062143D01*
X81327857Y-85133571D01*
X81470714Y-85133571D01*
X81685000Y-85062143D01*
X81756429Y-84990714D01*
X81756429Y-84490714D01*
X81470714Y-84490714D01*
X83256429Y-84990714D02*
X83185000Y-85062143D01*
X82970714Y-85133571D01*
X82827857Y-85133571D01*
X82613572Y-85062143D01*
X82470714Y-84919286D01*
X82399286Y-84776429D01*
X82327857Y-84490714D01*
X82327857Y-84276429D01*
X82399286Y-83990714D01*
X82470714Y-83847857D01*
X82613572Y-83705000D01*
X82827857Y-83633571D01*
X82970714Y-83633571D01*
X83185000Y-83705000D01*
X83256429Y-83776429D01*
X85042143Y-85133571D02*
X85042143Y-83633571D01*
X85756429Y-85133571D02*
X85756429Y-83633571D01*
X86613572Y-85133571D01*
X86613572Y-83633571D01*
D12*
X101300000Y-107270000D02*
G75*
G03X101300000Y-107270000I-100000J0D01*
G01*
X101850000Y-107770000D02*
X101350000Y-107770000D01*
X101850000Y-110670000D02*
X101850000Y-107770000D01*
X101350000Y-110670000D02*
X101850000Y-110670000D01*
X101350000Y-107770000D02*
X101350000Y-110670000D01*
X100620000Y-124960000D02*
X100620000Y-118960000D01*
X105120000Y-118960000D02*
X105120000Y-124960000D01*
X82550000Y-134560000D02*
X82550000Y-125730000D01*
X80010000Y-134560000D02*
X82550000Y-134560000D01*
X80010000Y-125730000D02*
X80010000Y-134560000D01*
X80010000Y-125730000D02*
X82550000Y-125730000D01*
X77470000Y-125730000D02*
X80010000Y-125730000D01*
X78740000Y-123060000D02*
X77190000Y-123060000D01*
X77190000Y-123060000D02*
X77190000Y-124460000D01*
X77470000Y-125730000D02*
X77470000Y-134560000D01*
X77470000Y-134560000D02*
X80010000Y-134560000D01*
X80010000Y-134560000D02*
X80010000Y-125730000D01*
X77470000Y-67370000D02*
X77470000Y-76200000D01*
X80010000Y-67370000D02*
X77470000Y-67370000D01*
X80010000Y-76200000D02*
X80010000Y-67370000D01*
X80010000Y-76200000D02*
X77470000Y-76200000D01*
X82550000Y-76200000D02*
X80010000Y-76200000D01*
X81280000Y-78870000D02*
X82830000Y-78870000D01*
X82830000Y-78870000D02*
X82830000Y-77470000D01*
X82550000Y-76200000D02*
X82550000Y-67370000D01*
X82550000Y-67370000D02*
X80010000Y-67370000D01*
X80010000Y-67370000D02*
X80010000Y-76200000D01*
X95250000Y-67370000D02*
X95250000Y-76200000D01*
X97790000Y-67370000D02*
X95250000Y-67370000D01*
X97790000Y-76200000D02*
X97790000Y-67370000D01*
X97790000Y-76200000D02*
X95250000Y-76200000D01*
X100330000Y-76200000D02*
X97790000Y-76200000D01*
X99060000Y-78870000D02*
X100610000Y-78870000D01*
X100610000Y-78870000D02*
X100610000Y-77470000D01*
X100330000Y-76200000D02*
X100330000Y-67370000D01*
X100330000Y-67370000D02*
X97790000Y-67370000D01*
X97790000Y-67370000D02*
X97790000Y-76200000D01*
X90810080Y-115770660D02*
X91059000Y-115470940D01*
X91059000Y-115470940D02*
X91160600Y-115321080D01*
X91160600Y-115321080D02*
X91160600Y-116169440D01*
X90459560Y-114269520D02*
X90459560Y-116070380D01*
X90459560Y-114269520D02*
X91109800Y-114269520D01*
X94960440Y-114269520D02*
X94960440Y-116070380D01*
X94960440Y-114269520D02*
X94310200Y-114269520D01*
X104270000Y-114300000D02*
G75*
G03X104270000Y-114300000I-1400000J0D01*
G01*
X95380000Y-105410000D02*
G75*
G03X95380000Y-105410000I-1400000J0D01*
G01*
X111760000Y-80010000D02*
X101600000Y-80010000D01*
X101600000Y-80010000D02*
X101600000Y-74930000D01*
X101600000Y-74930000D02*
X111760000Y-74930000D01*
X111760000Y-74930000D02*
X111760000Y-80010000D01*
X93980000Y-80010000D02*
X83820000Y-80010000D01*
X83820000Y-80010000D02*
X83820000Y-74930000D01*
X83820000Y-74930000D02*
X93980000Y-74930000D01*
X93980000Y-74930000D02*
X93980000Y-80010000D01*
X83820000Y-121920000D02*
X93980000Y-121920000D01*
X93980000Y-121920000D02*
X93980000Y-127000000D01*
X93980000Y-127000000D02*
X83820000Y-127000000D01*
X83820000Y-127000000D02*
X83820000Y-121920000D01*
X72390000Y-80010000D02*
X72390000Y-125730000D01*
X72390000Y-125730000D02*
X74930000Y-125730000D01*
X74930000Y-125730000D02*
X74930000Y-80010000D01*
X72110000Y-77190000D02*
X72110000Y-78740000D01*
X72390000Y-80010000D02*
X74930000Y-80010000D01*
X75210000Y-78740000D02*
X75210000Y-77190000D01*
X75210000Y-77190000D02*
X72110000Y-77190000D01*
X81280000Y-111760000D02*
X86360000Y-111760000D01*
X86360000Y-111760000D02*
X86360000Y-114300000D01*
X86360000Y-114300000D02*
X81280000Y-114300000D01*
X81280000Y-114300000D02*
X81280000Y-111760000D01*
X81280000Y-113030000D02*
X80010000Y-113030000D01*
X86360000Y-113030000D02*
X87630000Y-113030000D01*
X99057460Y-117093480D02*
X99057460Y-115696480D01*
X99057460Y-121538480D02*
X99057460Y-123062480D01*
X98295460Y-121157480D02*
X99819460Y-121157480D01*
X98295460Y-121411480D02*
X99819460Y-121411480D01*
X99057460Y-121665480D02*
X99819460Y-121665480D01*
X99819460Y-121665480D02*
X99819460Y-117093480D01*
X99819460Y-117093480D02*
X98295460Y-117093480D01*
X98295460Y-117093480D02*
X98295460Y-121665480D01*
X98295460Y-121665480D02*
X99057460Y-121665480D01*
X96522540Y-121666520D02*
X96522540Y-123063520D01*
X96522540Y-117221520D02*
X96522540Y-115697520D01*
X97284540Y-117602520D02*
X95760540Y-117602520D01*
X97284540Y-117348520D02*
X95760540Y-117348520D01*
X96522540Y-117094520D02*
X95760540Y-117094520D01*
X95760540Y-117094520D02*
X95760540Y-121666520D01*
X95760540Y-121666520D02*
X97284540Y-121666520D01*
X97284540Y-121666520D02*
X97284540Y-117094520D01*
X97284540Y-117094520D02*
X96522540Y-117094520D01*
X99861905Y-106486667D02*
X100338096Y-106486667D01*
X99766667Y-106772381D02*
X100100000Y-105772381D01*
X100433334Y-106772381D01*
X100957143Y-105772381D02*
X101147620Y-105772381D01*
X101242858Y-105820000D01*
X101338096Y-105915238D01*
X101385715Y-106105714D01*
X101385715Y-106439048D01*
X101338096Y-106629524D01*
X101242858Y-106724762D01*
X101147620Y-106772381D01*
X100957143Y-106772381D01*
X100861905Y-106724762D01*
X100766667Y-106629524D01*
X100719048Y-106439048D01*
X100719048Y-106105714D01*
X100766667Y-105915238D01*
X100861905Y-105820000D01*
X100957143Y-105772381D01*
X101814286Y-106772381D02*
X101814286Y-105772381D01*
X102195239Y-105772381D01*
X102290477Y-105820000D01*
X102338096Y-105867619D01*
X102385715Y-105962857D01*
X102385715Y-106105714D01*
X102338096Y-106200952D01*
X102290477Y-106248571D01*
X102195239Y-106296190D01*
X101814286Y-106296190D01*
X103338096Y-106772381D02*
X102766667Y-106772381D01*
X103052381Y-106772381D02*
X103052381Y-105772381D01*
X102957143Y-105915238D01*
X102861905Y-106010476D01*
X102766667Y-106058095D01*
X101957143Y-122086666D02*
X102004762Y-122134285D01*
X102052381Y-122277142D01*
X102052381Y-122372380D01*
X102004762Y-122515238D01*
X101909524Y-122610476D01*
X101814286Y-122658095D01*
X101623810Y-122705714D01*
X101480952Y-122705714D01*
X101290476Y-122658095D01*
X101195238Y-122610476D01*
X101100000Y-122515238D01*
X101052381Y-122372380D01*
X101052381Y-122277142D01*
X101100000Y-122134285D01*
X101147619Y-122086666D01*
X102052381Y-121134285D02*
X102052381Y-121705714D01*
X102052381Y-121420000D02*
X101052381Y-121420000D01*
X101195238Y-121515238D01*
X101290476Y-121610476D01*
X101338095Y-121705714D01*
X79271905Y-122372381D02*
X79271905Y-121372381D01*
X79652858Y-121372381D01*
X79748096Y-121420000D01*
X79795715Y-121467619D01*
X79843334Y-121562857D01*
X79843334Y-121705714D01*
X79795715Y-121800952D01*
X79748096Y-121848571D01*
X79652858Y-121896190D01*
X79271905Y-121896190D01*
X80224286Y-121467619D02*
X80271905Y-121420000D01*
X80367143Y-121372381D01*
X80605239Y-121372381D01*
X80700477Y-121420000D01*
X80748096Y-121467619D01*
X80795715Y-121562857D01*
X80795715Y-121658095D01*
X80748096Y-121800952D01*
X80176667Y-122372381D01*
X80795715Y-122372381D01*
X78636905Y-80462381D02*
X78636905Y-79462381D01*
X79017858Y-79462381D01*
X79113096Y-79510000D01*
X79160715Y-79557619D01*
X79208334Y-79652857D01*
X79208334Y-79795714D01*
X79160715Y-79890952D01*
X79113096Y-79938571D01*
X79017858Y-79986190D01*
X78636905Y-79986190D01*
X80065477Y-79462381D02*
X79875000Y-79462381D01*
X79779762Y-79510000D01*
X79732143Y-79557619D01*
X79636905Y-79700476D01*
X79589286Y-79890952D01*
X79589286Y-80271905D01*
X79636905Y-80367143D01*
X79684524Y-80414762D01*
X79779762Y-80462381D01*
X79970239Y-80462381D01*
X80065477Y-80414762D01*
X80113096Y-80367143D01*
X80160715Y-80271905D01*
X80160715Y-80033810D01*
X80113096Y-79938571D01*
X80065477Y-79890952D01*
X79970239Y-79843333D01*
X79779762Y-79843333D01*
X79684524Y-79890952D01*
X79636905Y-79938571D01*
X79589286Y-80033810D01*
X97051905Y-80462381D02*
X97051905Y-79462381D01*
X97432858Y-79462381D01*
X97528096Y-79510000D01*
X97575715Y-79557619D01*
X97623334Y-79652857D01*
X97623334Y-79795714D01*
X97575715Y-79890952D01*
X97528096Y-79938571D01*
X97432858Y-79986190D01*
X97051905Y-79986190D01*
X97956667Y-79462381D02*
X98623334Y-79462381D01*
X98194762Y-80462381D01*
X91897295Y-110021121D02*
X91897295Y-110830645D01*
X91944914Y-110925883D01*
X91992533Y-110973502D01*
X92087771Y-111021121D01*
X92278248Y-111021121D01*
X92373486Y-110973502D01*
X92421105Y-110925883D01*
X92468724Y-110830645D01*
X92468724Y-110021121D01*
X93468724Y-111021121D02*
X92897295Y-111021121D01*
X93183009Y-111021121D02*
X93183009Y-110021121D01*
X93087771Y-110163978D01*
X92992533Y-110259216D01*
X92897295Y-110306835D01*
X101965238Y-111252381D02*
X102203333Y-112252381D01*
X102393810Y-111538095D01*
X102584286Y-112252381D01*
X102822381Y-111252381D01*
X103727143Y-112252381D02*
X103155714Y-112252381D01*
X103441428Y-112252381D02*
X103441428Y-111252381D01*
X103346190Y-111395238D01*
X103250952Y-111490476D01*
X103155714Y-111538095D01*
X93075238Y-102362381D02*
X93313333Y-103362381D01*
X93503810Y-102648095D01*
X93694286Y-103362381D01*
X93932381Y-102362381D01*
X94265714Y-102457619D02*
X94313333Y-102410000D01*
X94408571Y-102362381D01*
X94646667Y-102362381D01*
X94741905Y-102410000D01*
X94789524Y-102457619D01*
X94837143Y-102552857D01*
X94837143Y-102648095D01*
X94789524Y-102790952D01*
X94218095Y-103362381D01*
X94837143Y-103362381D01*
X103401905Y-77922381D02*
X103401905Y-76922381D01*
X103782858Y-76922381D01*
X103878096Y-76970000D01*
X103925715Y-77017619D01*
X103973334Y-77112857D01*
X103973334Y-77255714D01*
X103925715Y-77350952D01*
X103878096Y-77398571D01*
X103782858Y-77446190D01*
X103401905Y-77446190D01*
X104449524Y-77922381D02*
X104640000Y-77922381D01*
X104735239Y-77874762D01*
X104782858Y-77827143D01*
X104878096Y-77684286D01*
X104925715Y-77493810D01*
X104925715Y-77112857D01*
X104878096Y-77017619D01*
X104830477Y-76970000D01*
X104735239Y-76922381D01*
X104544762Y-76922381D01*
X104449524Y-76970000D01*
X104401905Y-77017619D01*
X104354286Y-77112857D01*
X104354286Y-77350952D01*
X104401905Y-77446190D01*
X104449524Y-77493810D01*
X104544762Y-77541429D01*
X104735239Y-77541429D01*
X104830477Y-77493810D01*
X104878096Y-77446190D01*
X104925715Y-77350952D01*
X85621905Y-77922381D02*
X85621905Y-76922381D01*
X86002858Y-76922381D01*
X86098096Y-76970000D01*
X86145715Y-77017619D01*
X86193334Y-77112857D01*
X86193334Y-77255714D01*
X86145715Y-77350952D01*
X86098096Y-77398571D01*
X86002858Y-77446190D01*
X85621905Y-77446190D01*
X86764762Y-77350952D02*
X86669524Y-77303333D01*
X86621905Y-77255714D01*
X86574286Y-77160476D01*
X86574286Y-77112857D01*
X86621905Y-77017619D01*
X86669524Y-76970000D01*
X86764762Y-76922381D01*
X86955239Y-76922381D01*
X87050477Y-76970000D01*
X87098096Y-77017619D01*
X87145715Y-77112857D01*
X87145715Y-77160476D01*
X87098096Y-77255714D01*
X87050477Y-77303333D01*
X86955239Y-77350952D01*
X86764762Y-77350952D01*
X86669524Y-77398571D01*
X86621905Y-77446190D01*
X86574286Y-77541429D01*
X86574286Y-77731905D01*
X86621905Y-77827143D01*
X86669524Y-77874762D01*
X86764762Y-77922381D01*
X86955239Y-77922381D01*
X87050477Y-77874762D01*
X87098096Y-77827143D01*
X87145715Y-77731905D01*
X87145715Y-77541429D01*
X87098096Y-77446190D01*
X87050477Y-77398571D01*
X86955239Y-77350952D01*
X90701905Y-124912381D02*
X90701905Y-123912381D01*
X91082858Y-123912381D01*
X91178096Y-123960000D01*
X91225715Y-124007619D01*
X91273334Y-124102857D01*
X91273334Y-124245714D01*
X91225715Y-124340952D01*
X91178096Y-124388571D01*
X91082858Y-124436190D01*
X90701905Y-124436190D01*
X91606667Y-123912381D02*
X92225715Y-123912381D01*
X91892381Y-124293333D01*
X92035239Y-124293333D01*
X92130477Y-124340952D01*
X92178096Y-124388571D01*
X92225715Y-124483810D01*
X92225715Y-124721905D01*
X92178096Y-124817143D01*
X92130477Y-124864762D01*
X92035239Y-124912381D01*
X91749524Y-124912381D01*
X91654286Y-124864762D01*
X91606667Y-124817143D01*
X75461905Y-80462381D02*
X75461905Y-79462381D01*
X75842858Y-79462381D01*
X75938096Y-79510000D01*
X75985715Y-79557619D01*
X76033334Y-79652857D01*
X76033334Y-79795714D01*
X75985715Y-79890952D01*
X75938096Y-79938571D01*
X75842858Y-79986190D01*
X75461905Y-79986190D01*
X76985715Y-80462381D02*
X76414286Y-80462381D01*
X76700000Y-80462381D02*
X76700000Y-79462381D01*
X76604762Y-79605238D01*
X76509524Y-79700476D01*
X76414286Y-79748095D01*
X72898096Y-75700000D02*
X72802858Y-75652381D01*
X72660001Y-75652381D01*
X72517143Y-75700000D01*
X72421905Y-75795238D01*
X72374286Y-75890476D01*
X72326667Y-76080952D01*
X72326667Y-76223810D01*
X72374286Y-76414286D01*
X72421905Y-76509524D01*
X72517143Y-76604762D01*
X72660001Y-76652381D01*
X72755239Y-76652381D01*
X72898096Y-76604762D01*
X72945715Y-76557143D01*
X72945715Y-76223810D01*
X72755239Y-76223810D01*
X73374286Y-76652381D02*
X73374286Y-75652381D01*
X73945715Y-76652381D01*
X73945715Y-75652381D01*
X74421905Y-76652381D02*
X74421905Y-75652381D01*
X74660000Y-75652381D01*
X74802858Y-75700000D01*
X74898096Y-75795238D01*
X74945715Y-75890476D01*
X74993334Y-76080952D01*
X74993334Y-76223810D01*
X74945715Y-76414286D01*
X74898096Y-76509524D01*
X74802858Y-76604762D01*
X74660000Y-76652381D01*
X74421905Y-76652381D01*
X83653334Y-113482381D02*
X83320000Y-113006190D01*
X83081905Y-113482381D02*
X83081905Y-112482381D01*
X83462858Y-112482381D01*
X83558096Y-112530000D01*
X83605715Y-112577619D01*
X83653334Y-112672857D01*
X83653334Y-112815714D01*
X83605715Y-112910952D01*
X83558096Y-112958571D01*
X83462858Y-113006190D01*
X83081905Y-113006190D01*
X84605715Y-113482381D02*
X84034286Y-113482381D01*
X84320000Y-113482381D02*
X84320000Y-112482381D01*
X84224762Y-112625238D01*
X84129524Y-112720476D01*
X84034286Y-112768095D01*
X99512381Y-120118095D02*
X98512381Y-120118095D01*
X98512381Y-119880000D01*
X98560000Y-119737142D01*
X98655238Y-119641904D01*
X98750476Y-119594285D01*
X98940952Y-119546666D01*
X99083810Y-119546666D01*
X99274286Y-119594285D01*
X99369524Y-119641904D01*
X99464762Y-119737142D01*
X99512381Y-119880000D01*
X99512381Y-120118095D01*
X98607619Y-119165714D02*
X98560000Y-119118095D01*
X98512381Y-119022857D01*
X98512381Y-118784761D01*
X98560000Y-118689523D01*
X98607619Y-118641904D01*
X98702857Y-118594285D01*
X98798095Y-118594285D01*
X98940952Y-118641904D01*
X99512381Y-119213333D01*
X99512381Y-118594285D01*
X96972381Y-120118095D02*
X95972381Y-120118095D01*
X95972381Y-119880000D01*
X96020000Y-119737142D01*
X96115238Y-119641904D01*
X96210476Y-119594285D01*
X96400952Y-119546666D01*
X96543810Y-119546666D01*
X96734286Y-119594285D01*
X96829524Y-119641904D01*
X96924762Y-119737142D01*
X96972381Y-119880000D01*
X96972381Y-120118095D01*
X96972381Y-118594285D02*
X96972381Y-119165714D01*
X96972381Y-118880000D02*
X95972381Y-118880000D01*
X96115238Y-118975238D01*
X96210476Y-119070476D01*
X96258095Y-119165714D01*
M02*
