G04 #@! TF.FileFunction,Legend,Bot*
%FSLAX46Y46*%
G04 Gerber Fmt 4.6, Leading zero omitted, Abs format (unit mm)*
G04 Created by KiCad (PCBNEW 4.0.4+e1-6308~48~ubuntu16.04.1-stable) date Mon Oct 24 16:05:19 2016*
%MOMM*%
%LPD*%
G01*
G04 APERTURE LIST*
%ADD10C,0.100000*%
%ADD11C,0.300000*%
G04 APERTURE END LIST*
D10*
D11*
X81998429Y-108905427D02*
X83498429Y-108905427D01*
X83498429Y-108548284D01*
X83427000Y-108333999D01*
X83284143Y-108191141D01*
X83141286Y-108119713D01*
X82855571Y-108048284D01*
X82641286Y-108048284D01*
X82355571Y-108119713D01*
X82212714Y-108191141D01*
X82069857Y-108333999D01*
X81998429Y-108548284D01*
X81998429Y-108905427D01*
X82784143Y-106905427D02*
X82712714Y-106691141D01*
X82641286Y-106619713D01*
X82498429Y-106548284D01*
X82284143Y-106548284D01*
X82141286Y-106619713D01*
X82069857Y-106691141D01*
X81998429Y-106833999D01*
X81998429Y-107405427D01*
X83498429Y-107405427D01*
X83498429Y-106905427D01*
X83427000Y-106762570D01*
X83355571Y-106691141D01*
X83212714Y-106619713D01*
X83069857Y-106619713D01*
X82927000Y-106691141D01*
X82855571Y-106762570D01*
X82784143Y-106905427D01*
X82784143Y-107405427D01*
X81855571Y-106262570D02*
X81855571Y-105119713D01*
X83498429Y-104976856D02*
X83498429Y-104119713D01*
X81998429Y-104548284D02*
X83498429Y-104548284D01*
X81998429Y-102762570D02*
X82712714Y-103262570D01*
X81998429Y-103619713D02*
X83498429Y-103619713D01*
X83498429Y-103048285D01*
X83427000Y-102905427D01*
X83355571Y-102833999D01*
X83212714Y-102762570D01*
X82998429Y-102762570D01*
X82855571Y-102833999D01*
X82784143Y-102905427D01*
X82712714Y-103048285D01*
X82712714Y-103619713D01*
X82069857Y-102191142D02*
X81998429Y-101976856D01*
X81998429Y-101619713D01*
X82069857Y-101476856D01*
X82141286Y-101405427D01*
X82284143Y-101333999D01*
X82427000Y-101333999D01*
X82569857Y-101405427D01*
X82641286Y-101476856D01*
X82712714Y-101619713D01*
X82784143Y-101905427D01*
X82855571Y-102048285D01*
X82927000Y-102119713D01*
X83069857Y-102191142D01*
X83212714Y-102191142D01*
X83355571Y-102119713D01*
X83427000Y-102048285D01*
X83498429Y-101905427D01*
X83498429Y-101548285D01*
X83427000Y-101333999D01*
X81855571Y-101048285D02*
X81855571Y-99905428D01*
X83498429Y-99762571D02*
X83498429Y-98905428D01*
X81998429Y-99333999D02*
X83498429Y-99333999D01*
X83427000Y-97619714D02*
X83498429Y-97762571D01*
X83498429Y-97976857D01*
X83427000Y-98191142D01*
X83284143Y-98334000D01*
X83141286Y-98405428D01*
X82855571Y-98476857D01*
X82641286Y-98476857D01*
X82355571Y-98405428D01*
X82212714Y-98334000D01*
X82069857Y-98191142D01*
X81998429Y-97976857D01*
X81998429Y-97834000D01*
X82069857Y-97619714D01*
X82141286Y-97548285D01*
X82641286Y-97548285D01*
X82641286Y-97834000D01*
X82141286Y-96048285D02*
X82069857Y-96119714D01*
X81998429Y-96334000D01*
X81998429Y-96476857D01*
X82069857Y-96691142D01*
X82212714Y-96834000D01*
X82355571Y-96905428D01*
X82641286Y-96976857D01*
X82855571Y-96976857D01*
X83141286Y-96905428D01*
X83284143Y-96834000D01*
X83427000Y-96691142D01*
X83498429Y-96476857D01*
X83498429Y-96334000D01*
X83427000Y-96119714D01*
X83355571Y-96048285D01*
X81855571Y-95762571D02*
X81855571Y-94619714D01*
X83498429Y-94476857D02*
X81998429Y-93976857D01*
X83498429Y-93476857D01*
X81998429Y-92191143D02*
X81998429Y-93048286D01*
X81998429Y-92619714D02*
X83498429Y-92619714D01*
X83284143Y-92762571D01*
X83141286Y-92905429D01*
X83069857Y-93048286D01*
M02*
