M48
INCH,TZ
T1C0.016
T2C0.028
T3C0.035
T4C0.039
T5C0.039
T6C0.040
%
G90
G05
T1
X34000Y-32500
X40250Y-42000
T2
X38001Y-45000
X38001Y-49000
X38999Y-45000
X38999Y-49000
T3
X40500Y-47031
X40500Y-49000
T4
X37000Y-41500
X40500Y-45000
T5
X31000Y-44500
X35000Y-44500
T6
X29000Y-31000
X29000Y-32000
X29000Y-33000
X29000Y-34000
X29000Y-35000
X29000Y-36000
X29000Y-37000
X29000Y-38000
X29000Y-39000
X29000Y-40000
X29000Y-41000
X29000Y-42000
X29000Y-43000
X29000Y-44000
X29000Y-45000
X29000Y-46000
X29000Y-47000
X29000Y-48000
X29000Y-49000
X31000Y-30500
X31000Y-49000
X32000Y-30500
X32000Y-49000
X38000Y-30500
X39000Y-30500
T0
M30
