G04 #@! TF.FileFunction,Legend,Top*
%FSLAX46Y46*%
G04 Gerber Fmt 4.6, Leading zero omitted, Abs format (unit mm)*
G04 Created by KiCad (PCBNEW 4.0.3+e1-6302~38~ubuntu16.04.1-stable) date Thu Aug 25 17:21:45 2016*
%MOMM*%
%LPD*%
G01*
G04 APERTURE LIST*
%ADD10C,0.100000*%
%ADD11C,0.150000*%
G04 APERTURE END LIST*
D10*
D11*
X58710000Y-84955000D02*
X58710000Y-78955000D01*
X63210000Y-78955000D02*
X63210000Y-84955000D01*
X47125000Y-58075000D02*
X53125000Y-58075000D01*
X53125000Y-62575000D02*
X47125000Y-62575000D01*
X39925000Y-50611000D02*
X39925000Y-58609000D01*
X40065000Y-50616000D02*
X40065000Y-58604000D01*
X40205000Y-50626000D02*
X40205000Y-58594000D01*
X40345000Y-50641000D02*
X40345000Y-58579000D01*
X40485000Y-50661000D02*
X40485000Y-58559000D01*
X40625000Y-50686000D02*
X40625000Y-54388000D01*
X40625000Y-54832000D02*
X40625000Y-58534000D01*
X40765000Y-50716000D02*
X40765000Y-54060000D01*
X40765000Y-55160000D02*
X40765000Y-58504000D01*
X40905000Y-50752000D02*
X40905000Y-53891000D01*
X40905000Y-55329000D02*
X40905000Y-58468000D01*
X41045000Y-50793000D02*
X41045000Y-53778000D01*
X41045000Y-55442000D02*
X41045000Y-58427000D01*
X41185000Y-50839000D02*
X41185000Y-53700000D01*
X41185000Y-55520000D02*
X41185000Y-58381000D01*
X41325000Y-50892000D02*
X41325000Y-53649000D01*
X41325000Y-55571000D02*
X41325000Y-58328000D01*
X41465000Y-50951000D02*
X41465000Y-53619000D01*
X41465000Y-55601000D02*
X41465000Y-58269000D01*
X41605000Y-51016000D02*
X41605000Y-53610000D01*
X41605000Y-55610000D02*
X41605000Y-58204000D01*
X41745000Y-51087000D02*
X41745000Y-53621000D01*
X41745000Y-55599000D02*
X41745000Y-58133000D01*
X41885000Y-51166000D02*
X41885000Y-53651000D01*
X41885000Y-55569000D02*
X41885000Y-58054000D01*
X42025000Y-51253000D02*
X42025000Y-53705000D01*
X42025000Y-55515000D02*
X42025000Y-57967000D01*
X42165000Y-51348000D02*
X42165000Y-53785000D01*
X42165000Y-55435000D02*
X42165000Y-57872000D01*
X42305000Y-51452000D02*
X42305000Y-53901000D01*
X42305000Y-55319000D02*
X42305000Y-57768000D01*
X42445000Y-51566000D02*
X42445000Y-54075000D01*
X42445000Y-55145000D02*
X42445000Y-57654000D01*
X42585000Y-51691000D02*
X42585000Y-54437000D01*
X42585000Y-54783000D02*
X42585000Y-57529000D01*
X42725000Y-51829000D02*
X42725000Y-57391000D01*
X42865000Y-51981000D02*
X42865000Y-57239000D01*
X43005000Y-52151000D02*
X43005000Y-57069000D01*
X43145000Y-52342000D02*
X43145000Y-56878000D01*
X43285000Y-52560000D02*
X43285000Y-56660000D01*
X43425000Y-52816000D02*
X43425000Y-56404000D01*
X43565000Y-53127000D02*
X43565000Y-56093000D01*
X43705000Y-53543000D02*
X43705000Y-55677000D01*
X43845000Y-54410000D02*
X43845000Y-54810000D01*
X42600000Y-54610000D02*
G75*
G03X42600000Y-54610000I-1000000J0D01*
G01*
X43887500Y-54610000D02*
G75*
G03X43887500Y-54610000I-4037500J0D01*
G01*
X39925000Y-74106000D02*
X39925000Y-82104000D01*
X40065000Y-74111000D02*
X40065000Y-82099000D01*
X40205000Y-74121000D02*
X40205000Y-82089000D01*
X40345000Y-74136000D02*
X40345000Y-82074000D01*
X40485000Y-74156000D02*
X40485000Y-82054000D01*
X40625000Y-74181000D02*
X40625000Y-77883000D01*
X40625000Y-78327000D02*
X40625000Y-82029000D01*
X40765000Y-74211000D02*
X40765000Y-77555000D01*
X40765000Y-78655000D02*
X40765000Y-81999000D01*
X40905000Y-74247000D02*
X40905000Y-77386000D01*
X40905000Y-78824000D02*
X40905000Y-81963000D01*
X41045000Y-74288000D02*
X41045000Y-77273000D01*
X41045000Y-78937000D02*
X41045000Y-81922000D01*
X41185000Y-74334000D02*
X41185000Y-77195000D01*
X41185000Y-79015000D02*
X41185000Y-81876000D01*
X41325000Y-74387000D02*
X41325000Y-77144000D01*
X41325000Y-79066000D02*
X41325000Y-81823000D01*
X41465000Y-74446000D02*
X41465000Y-77114000D01*
X41465000Y-79096000D02*
X41465000Y-81764000D01*
X41605000Y-74511000D02*
X41605000Y-77105000D01*
X41605000Y-79105000D02*
X41605000Y-81699000D01*
X41745000Y-74582000D02*
X41745000Y-77116000D01*
X41745000Y-79094000D02*
X41745000Y-81628000D01*
X41885000Y-74661000D02*
X41885000Y-77146000D01*
X41885000Y-79064000D02*
X41885000Y-81549000D01*
X42025000Y-74748000D02*
X42025000Y-77200000D01*
X42025000Y-79010000D02*
X42025000Y-81462000D01*
X42165000Y-74843000D02*
X42165000Y-77280000D01*
X42165000Y-78930000D02*
X42165000Y-81367000D01*
X42305000Y-74947000D02*
X42305000Y-77396000D01*
X42305000Y-78814000D02*
X42305000Y-81263000D01*
X42445000Y-75061000D02*
X42445000Y-77570000D01*
X42445000Y-78640000D02*
X42445000Y-81149000D01*
X42585000Y-75186000D02*
X42585000Y-77932000D01*
X42585000Y-78278000D02*
X42585000Y-81024000D01*
X42725000Y-75324000D02*
X42725000Y-80886000D01*
X42865000Y-75476000D02*
X42865000Y-80734000D01*
X43005000Y-75646000D02*
X43005000Y-80564000D01*
X43145000Y-75837000D02*
X43145000Y-80373000D01*
X43285000Y-76055000D02*
X43285000Y-80155000D01*
X43425000Y-76311000D02*
X43425000Y-79899000D01*
X43565000Y-76622000D02*
X43565000Y-79588000D01*
X43705000Y-77038000D02*
X43705000Y-79172000D01*
X43845000Y-77905000D02*
X43845000Y-78305000D01*
X42600000Y-78105000D02*
G75*
G03X42600000Y-78105000I-1000000J0D01*
G01*
X43887500Y-78105000D02*
G75*
G03X43887500Y-78105000I-4037500J0D01*
G01*
X52625000Y-82361000D02*
X52625000Y-90359000D01*
X52765000Y-82366000D02*
X52765000Y-90354000D01*
X52905000Y-82376000D02*
X52905000Y-90344000D01*
X53045000Y-82391000D02*
X53045000Y-90329000D01*
X53185000Y-82411000D02*
X53185000Y-90309000D01*
X53325000Y-82436000D02*
X53325000Y-86138000D01*
X53325000Y-86582000D02*
X53325000Y-90284000D01*
X53465000Y-82466000D02*
X53465000Y-85810000D01*
X53465000Y-86910000D02*
X53465000Y-90254000D01*
X53605000Y-82502000D02*
X53605000Y-85641000D01*
X53605000Y-87079000D02*
X53605000Y-90218000D01*
X53745000Y-82543000D02*
X53745000Y-85528000D01*
X53745000Y-87192000D02*
X53745000Y-90177000D01*
X53885000Y-82589000D02*
X53885000Y-85450000D01*
X53885000Y-87270000D02*
X53885000Y-90131000D01*
X54025000Y-82642000D02*
X54025000Y-85399000D01*
X54025000Y-87321000D02*
X54025000Y-90078000D01*
X54165000Y-82701000D02*
X54165000Y-85369000D01*
X54165000Y-87351000D02*
X54165000Y-90019000D01*
X54305000Y-82766000D02*
X54305000Y-85360000D01*
X54305000Y-87360000D02*
X54305000Y-89954000D01*
X54445000Y-82837000D02*
X54445000Y-85371000D01*
X54445000Y-87349000D02*
X54445000Y-89883000D01*
X54585000Y-82916000D02*
X54585000Y-85401000D01*
X54585000Y-87319000D02*
X54585000Y-89804000D01*
X54725000Y-83003000D02*
X54725000Y-85455000D01*
X54725000Y-87265000D02*
X54725000Y-89717000D01*
X54865000Y-83098000D02*
X54865000Y-85535000D01*
X54865000Y-87185000D02*
X54865000Y-89622000D01*
X55005000Y-83202000D02*
X55005000Y-85651000D01*
X55005000Y-87069000D02*
X55005000Y-89518000D01*
X55145000Y-83316000D02*
X55145000Y-85825000D01*
X55145000Y-86895000D02*
X55145000Y-89404000D01*
X55285000Y-83441000D02*
X55285000Y-86187000D01*
X55285000Y-86533000D02*
X55285000Y-89279000D01*
X55425000Y-83579000D02*
X55425000Y-89141000D01*
X55565000Y-83731000D02*
X55565000Y-88989000D01*
X55705000Y-83901000D02*
X55705000Y-88819000D01*
X55845000Y-84092000D02*
X55845000Y-88628000D01*
X55985000Y-84310000D02*
X55985000Y-88410000D01*
X56125000Y-84566000D02*
X56125000Y-88154000D01*
X56265000Y-84877000D02*
X56265000Y-87843000D01*
X56405000Y-85293000D02*
X56405000Y-87427000D01*
X56545000Y-86160000D02*
X56545000Y-86560000D01*
X55300000Y-86360000D02*
G75*
G03X55300000Y-86360000I-1000000J0D01*
G01*
X56587500Y-86360000D02*
G75*
G03X56587500Y-86360000I-4037500J0D01*
G01*
X67865000Y-65216000D02*
X67865000Y-73214000D01*
X68005000Y-65221000D02*
X68005000Y-73209000D01*
X68145000Y-65231000D02*
X68145000Y-73199000D01*
X68285000Y-65246000D02*
X68285000Y-73184000D01*
X68425000Y-65266000D02*
X68425000Y-73164000D01*
X68565000Y-65291000D02*
X68565000Y-68993000D01*
X68565000Y-69437000D02*
X68565000Y-73139000D01*
X68705000Y-65321000D02*
X68705000Y-68665000D01*
X68705000Y-69765000D02*
X68705000Y-73109000D01*
X68845000Y-65357000D02*
X68845000Y-68496000D01*
X68845000Y-69934000D02*
X68845000Y-73073000D01*
X68985000Y-65398000D02*
X68985000Y-68383000D01*
X68985000Y-70047000D02*
X68985000Y-73032000D01*
X69125000Y-65444000D02*
X69125000Y-68305000D01*
X69125000Y-70125000D02*
X69125000Y-72986000D01*
X69265000Y-65497000D02*
X69265000Y-68254000D01*
X69265000Y-70176000D02*
X69265000Y-72933000D01*
X69405000Y-65556000D02*
X69405000Y-68224000D01*
X69405000Y-70206000D02*
X69405000Y-72874000D01*
X69545000Y-65621000D02*
X69545000Y-68215000D01*
X69545000Y-70215000D02*
X69545000Y-72809000D01*
X69685000Y-65692000D02*
X69685000Y-68226000D01*
X69685000Y-70204000D02*
X69685000Y-72738000D01*
X69825000Y-65771000D02*
X69825000Y-68256000D01*
X69825000Y-70174000D02*
X69825000Y-72659000D01*
X69965000Y-65858000D02*
X69965000Y-68310000D01*
X69965000Y-70120000D02*
X69965000Y-72572000D01*
X70105000Y-65953000D02*
X70105000Y-68390000D01*
X70105000Y-70040000D02*
X70105000Y-72477000D01*
X70245000Y-66057000D02*
X70245000Y-68506000D01*
X70245000Y-69924000D02*
X70245000Y-72373000D01*
X70385000Y-66171000D02*
X70385000Y-68680000D01*
X70385000Y-69750000D02*
X70385000Y-72259000D01*
X70525000Y-66296000D02*
X70525000Y-69042000D01*
X70525000Y-69388000D02*
X70525000Y-72134000D01*
X70665000Y-66434000D02*
X70665000Y-71996000D01*
X70805000Y-66586000D02*
X70805000Y-71844000D01*
X70945000Y-66756000D02*
X70945000Y-71674000D01*
X71085000Y-66947000D02*
X71085000Y-71483000D01*
X71225000Y-67165000D02*
X71225000Y-71265000D01*
X71365000Y-67421000D02*
X71365000Y-71009000D01*
X71505000Y-67732000D02*
X71505000Y-70698000D01*
X71645000Y-68148000D02*
X71645000Y-70282000D01*
X71785000Y-69015000D02*
X71785000Y-69415000D01*
X70540000Y-69215000D02*
G75*
G03X70540000Y-69215000I-1000000J0D01*
G01*
X71827500Y-69215000D02*
G75*
G03X71827500Y-69215000I-4037500J0D01*
G01*
X64690000Y-42991000D02*
X64690000Y-50989000D01*
X64830000Y-42996000D02*
X64830000Y-50984000D01*
X64970000Y-43006000D02*
X64970000Y-50974000D01*
X65110000Y-43021000D02*
X65110000Y-50959000D01*
X65250000Y-43041000D02*
X65250000Y-50939000D01*
X65390000Y-43066000D02*
X65390000Y-46768000D01*
X65390000Y-47212000D02*
X65390000Y-50914000D01*
X65530000Y-43096000D02*
X65530000Y-46440000D01*
X65530000Y-47540000D02*
X65530000Y-50884000D01*
X65670000Y-43132000D02*
X65670000Y-46271000D01*
X65670000Y-47709000D02*
X65670000Y-50848000D01*
X65810000Y-43173000D02*
X65810000Y-46158000D01*
X65810000Y-47822000D02*
X65810000Y-50807000D01*
X65950000Y-43219000D02*
X65950000Y-46080000D01*
X65950000Y-47900000D02*
X65950000Y-50761000D01*
X66090000Y-43272000D02*
X66090000Y-46029000D01*
X66090000Y-47951000D02*
X66090000Y-50708000D01*
X66230000Y-43331000D02*
X66230000Y-45999000D01*
X66230000Y-47981000D02*
X66230000Y-50649000D01*
X66370000Y-43396000D02*
X66370000Y-45990000D01*
X66370000Y-47990000D02*
X66370000Y-50584000D01*
X66510000Y-43467000D02*
X66510000Y-46001000D01*
X66510000Y-47979000D02*
X66510000Y-50513000D01*
X66650000Y-43546000D02*
X66650000Y-46031000D01*
X66650000Y-47949000D02*
X66650000Y-50434000D01*
X66790000Y-43633000D02*
X66790000Y-46085000D01*
X66790000Y-47895000D02*
X66790000Y-50347000D01*
X66930000Y-43728000D02*
X66930000Y-46165000D01*
X66930000Y-47815000D02*
X66930000Y-50252000D01*
X67070000Y-43832000D02*
X67070000Y-46281000D01*
X67070000Y-47699000D02*
X67070000Y-50148000D01*
X67210000Y-43946000D02*
X67210000Y-46455000D01*
X67210000Y-47525000D02*
X67210000Y-50034000D01*
X67350000Y-44071000D02*
X67350000Y-46817000D01*
X67350000Y-47163000D02*
X67350000Y-49909000D01*
X67490000Y-44209000D02*
X67490000Y-49771000D01*
X67630000Y-44361000D02*
X67630000Y-49619000D01*
X67770000Y-44531000D02*
X67770000Y-49449000D01*
X67910000Y-44722000D02*
X67910000Y-49258000D01*
X68050000Y-44940000D02*
X68050000Y-49040000D01*
X68190000Y-45196000D02*
X68190000Y-48784000D01*
X68330000Y-45507000D02*
X68330000Y-48473000D01*
X68470000Y-45923000D02*
X68470000Y-48057000D01*
X68610000Y-46790000D02*
X68610000Y-47190000D01*
X67365000Y-46990000D02*
G75*
G03X67365000Y-46990000I-1000000J0D01*
G01*
X68652500Y-46990000D02*
G75*
G03X68652500Y-46990000I-4037500J0D01*
G01*
X71040000Y-49976000D02*
X71040000Y-57974000D01*
X71180000Y-49981000D02*
X71180000Y-57969000D01*
X71320000Y-49991000D02*
X71320000Y-57959000D01*
X71460000Y-50006000D02*
X71460000Y-57944000D01*
X71600000Y-50026000D02*
X71600000Y-57924000D01*
X71740000Y-50051000D02*
X71740000Y-53753000D01*
X71740000Y-54197000D02*
X71740000Y-57899000D01*
X71880000Y-50081000D02*
X71880000Y-53425000D01*
X71880000Y-54525000D02*
X71880000Y-57869000D01*
X72020000Y-50117000D02*
X72020000Y-53256000D01*
X72020000Y-54694000D02*
X72020000Y-57833000D01*
X72160000Y-50158000D02*
X72160000Y-53143000D01*
X72160000Y-54807000D02*
X72160000Y-57792000D01*
X72300000Y-50204000D02*
X72300000Y-53065000D01*
X72300000Y-54885000D02*
X72300000Y-57746000D01*
X72440000Y-50257000D02*
X72440000Y-53014000D01*
X72440000Y-54936000D02*
X72440000Y-57693000D01*
X72580000Y-50316000D02*
X72580000Y-52984000D01*
X72580000Y-54966000D02*
X72580000Y-57634000D01*
X72720000Y-50381000D02*
X72720000Y-52975000D01*
X72720000Y-54975000D02*
X72720000Y-57569000D01*
X72860000Y-50452000D02*
X72860000Y-52986000D01*
X72860000Y-54964000D02*
X72860000Y-57498000D01*
X73000000Y-50531000D02*
X73000000Y-53016000D01*
X73000000Y-54934000D02*
X73000000Y-57419000D01*
X73140000Y-50618000D02*
X73140000Y-53070000D01*
X73140000Y-54880000D02*
X73140000Y-57332000D01*
X73280000Y-50713000D02*
X73280000Y-53150000D01*
X73280000Y-54800000D02*
X73280000Y-57237000D01*
X73420000Y-50817000D02*
X73420000Y-53266000D01*
X73420000Y-54684000D02*
X73420000Y-57133000D01*
X73560000Y-50931000D02*
X73560000Y-53440000D01*
X73560000Y-54510000D02*
X73560000Y-57019000D01*
X73700000Y-51056000D02*
X73700000Y-53802000D01*
X73700000Y-54148000D02*
X73700000Y-56894000D01*
X73840000Y-51194000D02*
X73840000Y-56756000D01*
X73980000Y-51346000D02*
X73980000Y-56604000D01*
X74120000Y-51516000D02*
X74120000Y-56434000D01*
X74260000Y-51707000D02*
X74260000Y-56243000D01*
X74400000Y-51925000D02*
X74400000Y-56025000D01*
X74540000Y-52181000D02*
X74540000Y-55769000D01*
X74680000Y-52492000D02*
X74680000Y-55458000D01*
X74820000Y-52908000D02*
X74820000Y-55042000D01*
X74960000Y-53775000D02*
X74960000Y-54175000D01*
X73715000Y-53975000D02*
G75*
G03X73715000Y-53975000I-1000000J0D01*
G01*
X75002500Y-53975000D02*
G75*
G03X75002500Y-53975000I-4037500J0D01*
G01*
X75485000Y-58866000D02*
X75485000Y-66864000D01*
X75625000Y-58871000D02*
X75625000Y-66859000D01*
X75765000Y-58881000D02*
X75765000Y-66849000D01*
X75905000Y-58896000D02*
X75905000Y-66834000D01*
X76045000Y-58916000D02*
X76045000Y-66814000D01*
X76185000Y-58941000D02*
X76185000Y-62643000D01*
X76185000Y-63087000D02*
X76185000Y-66789000D01*
X76325000Y-58971000D02*
X76325000Y-62315000D01*
X76325000Y-63415000D02*
X76325000Y-66759000D01*
X76465000Y-59007000D02*
X76465000Y-62146000D01*
X76465000Y-63584000D02*
X76465000Y-66723000D01*
X76605000Y-59048000D02*
X76605000Y-62033000D01*
X76605000Y-63697000D02*
X76605000Y-66682000D01*
X76745000Y-59094000D02*
X76745000Y-61955000D01*
X76745000Y-63775000D02*
X76745000Y-66636000D01*
X76885000Y-59147000D02*
X76885000Y-61904000D01*
X76885000Y-63826000D02*
X76885000Y-66583000D01*
X77025000Y-59206000D02*
X77025000Y-61874000D01*
X77025000Y-63856000D02*
X77025000Y-66524000D01*
X77165000Y-59271000D02*
X77165000Y-61865000D01*
X77165000Y-63865000D02*
X77165000Y-66459000D01*
X77305000Y-59342000D02*
X77305000Y-61876000D01*
X77305000Y-63854000D02*
X77305000Y-66388000D01*
X77445000Y-59421000D02*
X77445000Y-61906000D01*
X77445000Y-63824000D02*
X77445000Y-66309000D01*
X77585000Y-59508000D02*
X77585000Y-61960000D01*
X77585000Y-63770000D02*
X77585000Y-66222000D01*
X77725000Y-59603000D02*
X77725000Y-62040000D01*
X77725000Y-63690000D02*
X77725000Y-66127000D01*
X77865000Y-59707000D02*
X77865000Y-62156000D01*
X77865000Y-63574000D02*
X77865000Y-66023000D01*
X78005000Y-59821000D02*
X78005000Y-62330000D01*
X78005000Y-63400000D02*
X78005000Y-65909000D01*
X78145000Y-59946000D02*
X78145000Y-62692000D01*
X78145000Y-63038000D02*
X78145000Y-65784000D01*
X78285000Y-60084000D02*
X78285000Y-65646000D01*
X78425000Y-60236000D02*
X78425000Y-65494000D01*
X78565000Y-60406000D02*
X78565000Y-65324000D01*
X78705000Y-60597000D02*
X78705000Y-65133000D01*
X78845000Y-60815000D02*
X78845000Y-64915000D01*
X78985000Y-61071000D02*
X78985000Y-64659000D01*
X79125000Y-61382000D02*
X79125000Y-64348000D01*
X79265000Y-61798000D02*
X79265000Y-63932000D01*
X79405000Y-62665000D02*
X79405000Y-63065000D01*
X78160000Y-62865000D02*
G75*
G03X78160000Y-62865000I-1000000J0D01*
G01*
X79447500Y-62865000D02*
G75*
G03X79447500Y-62865000I-4037500J0D01*
G01*
X80565000Y-66486000D02*
X80565000Y-74484000D01*
X80705000Y-66491000D02*
X80705000Y-74479000D01*
X80845000Y-66501000D02*
X80845000Y-74469000D01*
X80985000Y-66516000D02*
X80985000Y-74454000D01*
X81125000Y-66536000D02*
X81125000Y-74434000D01*
X81265000Y-66561000D02*
X81265000Y-70263000D01*
X81265000Y-70707000D02*
X81265000Y-74409000D01*
X81405000Y-66591000D02*
X81405000Y-69935000D01*
X81405000Y-71035000D02*
X81405000Y-74379000D01*
X81545000Y-66627000D02*
X81545000Y-69766000D01*
X81545000Y-71204000D02*
X81545000Y-74343000D01*
X81685000Y-66668000D02*
X81685000Y-69653000D01*
X81685000Y-71317000D02*
X81685000Y-74302000D01*
X81825000Y-66714000D02*
X81825000Y-69575000D01*
X81825000Y-71395000D02*
X81825000Y-74256000D01*
X81965000Y-66767000D02*
X81965000Y-69524000D01*
X81965000Y-71446000D02*
X81965000Y-74203000D01*
X82105000Y-66826000D02*
X82105000Y-69494000D01*
X82105000Y-71476000D02*
X82105000Y-74144000D01*
X82245000Y-66891000D02*
X82245000Y-69485000D01*
X82245000Y-71485000D02*
X82245000Y-74079000D01*
X82385000Y-66962000D02*
X82385000Y-69496000D01*
X82385000Y-71474000D02*
X82385000Y-74008000D01*
X82525000Y-67041000D02*
X82525000Y-69526000D01*
X82525000Y-71444000D02*
X82525000Y-73929000D01*
X82665000Y-67128000D02*
X82665000Y-69580000D01*
X82665000Y-71390000D02*
X82665000Y-73842000D01*
X82805000Y-67223000D02*
X82805000Y-69660000D01*
X82805000Y-71310000D02*
X82805000Y-73747000D01*
X82945000Y-67327000D02*
X82945000Y-69776000D01*
X82945000Y-71194000D02*
X82945000Y-73643000D01*
X83085000Y-67441000D02*
X83085000Y-69950000D01*
X83085000Y-71020000D02*
X83085000Y-73529000D01*
X83225000Y-67566000D02*
X83225000Y-70312000D01*
X83225000Y-70658000D02*
X83225000Y-73404000D01*
X83365000Y-67704000D02*
X83365000Y-73266000D01*
X83505000Y-67856000D02*
X83505000Y-73114000D01*
X83645000Y-68026000D02*
X83645000Y-72944000D01*
X83785000Y-68217000D02*
X83785000Y-72753000D01*
X83925000Y-68435000D02*
X83925000Y-72535000D01*
X84065000Y-68691000D02*
X84065000Y-72279000D01*
X84205000Y-69002000D02*
X84205000Y-71968000D01*
X84345000Y-69418000D02*
X84345000Y-71552000D01*
X84485000Y-70285000D02*
X84485000Y-70685000D01*
X83240000Y-70485000D02*
G75*
G03X83240000Y-70485000I-1000000J0D01*
G01*
X84527500Y-70485000D02*
G75*
G03X84527500Y-70485000I-4037500J0D01*
G01*
X37467540Y-68961520D02*
X37467540Y-70358520D01*
X37467540Y-64516520D02*
X37467540Y-62992520D01*
X38229540Y-64897520D02*
X36705540Y-64897520D01*
X38229540Y-64643520D02*
X36705540Y-64643520D01*
X37467540Y-64389520D02*
X36705540Y-64389520D01*
X36705540Y-64389520D02*
X36705540Y-68961520D01*
X36705540Y-68961520D02*
X38229540Y-68961520D01*
X38229540Y-68961520D02*
X38229540Y-64389520D01*
X38229540Y-64389520D02*
X37467540Y-64389520D01*
X80391520Y-88897460D02*
X81788520Y-88897460D01*
X75946520Y-88897460D02*
X74422520Y-88897460D01*
X76327520Y-88135460D02*
X76327520Y-89659460D01*
X76073520Y-88135460D02*
X76073520Y-89659460D01*
X75819520Y-88897460D02*
X75819520Y-89659460D01*
X75819520Y-89659460D02*
X80391520Y-89659460D01*
X80391520Y-89659460D02*
X80391520Y-88135460D01*
X80391520Y-88135460D02*
X75819520Y-88135460D01*
X75819520Y-88135460D02*
X75819520Y-88897460D01*
X63881520Y-59052460D02*
X65278520Y-59052460D01*
X59436520Y-59052460D02*
X57912520Y-59052460D01*
X59817520Y-58290460D02*
X59817520Y-59814460D01*
X59563520Y-58290460D02*
X59563520Y-59814460D01*
X59309520Y-59052460D02*
X59309520Y-59814460D01*
X59309520Y-59814460D02*
X63881520Y-59814460D01*
X63881520Y-59814460D02*
X63881520Y-58290460D01*
X63881520Y-58290460D02*
X59309520Y-58290460D01*
X59309520Y-58290460D02*
X59309520Y-59052460D01*
X63881520Y-62227460D02*
X65278520Y-62227460D01*
X59436520Y-62227460D02*
X57912520Y-62227460D01*
X59817520Y-61465460D02*
X59817520Y-62989460D01*
X59563520Y-61465460D02*
X59563520Y-62989460D01*
X59309520Y-62227460D02*
X59309520Y-62989460D01*
X59309520Y-62989460D02*
X63881520Y-62989460D01*
X63881520Y-62989460D02*
X63881520Y-61465460D01*
X63881520Y-61465460D02*
X59309520Y-61465460D01*
X59309520Y-61465460D02*
X59309520Y-62227460D01*
X38989000Y-48514000D02*
X39497000Y-48006000D01*
X38989000Y-47498000D02*
X38481000Y-48006000D01*
X38481000Y-48006000D02*
X38989000Y-48514000D01*
X43561000Y-45720000D02*
G75*
G03X43561000Y-45720000I-2286000J0D01*
G01*
X44025000Y-45720000D02*
G75*
G03X44025000Y-45720000I-2750000J0D01*
G01*
X51689000Y-48006000D02*
X51181000Y-47498000D01*
X50673000Y-48006000D02*
X51181000Y-48514000D01*
X51181000Y-48514000D02*
X51689000Y-48006000D01*
X51181000Y-45720000D02*
G75*
G03X51181000Y-45720000I-2286000J0D01*
G01*
X51645000Y-45720000D02*
G75*
G03X51645000Y-45720000I-2750000J0D01*
G01*
X58674000Y-48006000D02*
X58166000Y-47498000D01*
X57658000Y-48006000D02*
X58166000Y-48514000D01*
X58166000Y-48514000D02*
X58674000Y-48006000D01*
X58166000Y-45720000D02*
G75*
G03X58166000Y-45720000I-2286000J0D01*
G01*
X58630000Y-45720000D02*
G75*
G03X58630000Y-45720000I-2750000J0D01*
G01*
X59690000Y-73025000D02*
X59690000Y-67945000D01*
X59690000Y-67945000D02*
X62230000Y-67945000D01*
X62230000Y-67945000D02*
X62230000Y-73025000D01*
X62230000Y-73025000D02*
X59690000Y-73025000D01*
X60960000Y-73025000D02*
X60960000Y-74295000D01*
X60960000Y-67945000D02*
X60960000Y-66675000D01*
X60960000Y-87630000D02*
X66040000Y-87630000D01*
X66040000Y-87630000D02*
X66040000Y-90170000D01*
X66040000Y-90170000D02*
X60960000Y-90170000D01*
X60960000Y-90170000D02*
X60960000Y-87630000D01*
X60960000Y-88900000D02*
X59690000Y-88900000D01*
X66040000Y-88900000D02*
X67310000Y-88900000D01*
X50165000Y-53975000D02*
X55245000Y-53975000D01*
X55245000Y-53975000D02*
X55245000Y-56515000D01*
X55245000Y-56515000D02*
X50165000Y-56515000D01*
X50165000Y-56515000D02*
X50165000Y-53975000D01*
X50165000Y-55245000D02*
X48895000Y-55245000D01*
X55245000Y-55245000D02*
X56515000Y-55245000D01*
X50165000Y-50165000D02*
X55245000Y-50165000D01*
X55245000Y-50165000D02*
X55245000Y-52705000D01*
X55245000Y-52705000D02*
X50165000Y-52705000D01*
X50165000Y-52705000D02*
X50165000Y-50165000D01*
X50165000Y-51435000D02*
X48895000Y-51435000D01*
X55245000Y-51435000D02*
X56515000Y-51435000D01*
X48895000Y-78740000D02*
X53975000Y-78740000D01*
X53975000Y-78740000D02*
X53975000Y-81280000D01*
X53975000Y-81280000D02*
X48895000Y-81280000D01*
X48895000Y-81280000D02*
X48895000Y-78740000D01*
X48895000Y-80010000D02*
X47625000Y-80010000D01*
X53975000Y-80010000D02*
X55245000Y-80010000D01*
X49030000Y-65015000D02*
X49030000Y-66285000D01*
X56380000Y-65015000D02*
X56380000Y-66285000D01*
X56380000Y-77225000D02*
X56380000Y-75955000D01*
X49030000Y-77225000D02*
X49030000Y-75955000D01*
X49030000Y-65015000D02*
X56380000Y-65015000D01*
X49030000Y-77225000D02*
X56380000Y-77225000D01*
X49030000Y-66285000D02*
X48095000Y-66285000D01*
X44323000Y-64516000D02*
X43180000Y-64516000D01*
X44323000Y-67564000D02*
X43180000Y-67564000D01*
X43180000Y-71374000D02*
X39497000Y-71374000D01*
X39497000Y-71374000D02*
X39497000Y-60706000D01*
X39497000Y-60706000D02*
X43180000Y-60706000D01*
X44323000Y-71374000D02*
X43180000Y-71374000D01*
X43180000Y-71374000D02*
X43180000Y-60706000D01*
X43180000Y-60706000D02*
X44323000Y-60706000D01*
X44323000Y-66040000D02*
X44323000Y-60706000D01*
X44323000Y-66040000D02*
X44323000Y-71374000D01*
X39751000Y-84582000D02*
X39751000Y-85725000D01*
X42799000Y-84582000D02*
X42799000Y-85725000D01*
X46609000Y-85725000D02*
X46609000Y-89408000D01*
X46609000Y-89408000D02*
X35941000Y-89408000D01*
X35941000Y-89408000D02*
X35941000Y-85725000D01*
X46609000Y-84582000D02*
X46609000Y-85725000D01*
X46609000Y-85725000D02*
X35941000Y-85725000D01*
X35941000Y-85725000D02*
X35941000Y-84582000D01*
X41275000Y-84582000D02*
X35941000Y-84582000D01*
X41275000Y-84582000D02*
X46609000Y-84582000D01*
X69723000Y-79121000D02*
X68580000Y-79121000D01*
X69723000Y-82169000D02*
X68580000Y-82169000D01*
X68580000Y-85979000D02*
X64897000Y-85979000D01*
X64897000Y-85979000D02*
X64897000Y-75311000D01*
X64897000Y-75311000D02*
X68580000Y-75311000D01*
X69723000Y-85979000D02*
X68580000Y-85979000D01*
X68580000Y-85979000D02*
X68580000Y-75311000D01*
X68580000Y-75311000D02*
X69723000Y-75311000D01*
X69723000Y-80645000D02*
X69723000Y-75311000D01*
X69723000Y-80645000D02*
X69723000Y-85979000D01*
X83693000Y-79121000D02*
X82550000Y-79121000D01*
X83693000Y-82169000D02*
X82550000Y-82169000D01*
X82550000Y-85979000D02*
X78867000Y-85979000D01*
X78867000Y-85979000D02*
X78867000Y-75311000D01*
X78867000Y-75311000D02*
X82550000Y-75311000D01*
X83693000Y-85979000D02*
X82550000Y-85979000D01*
X82550000Y-85979000D02*
X82550000Y-75311000D01*
X82550000Y-75311000D02*
X83693000Y-75311000D01*
X83693000Y-80645000D02*
X83693000Y-75311000D01*
X83693000Y-80645000D02*
X83693000Y-85979000D01*
X76708000Y-79121000D02*
X75565000Y-79121000D01*
X76708000Y-82169000D02*
X75565000Y-82169000D01*
X75565000Y-85979000D02*
X71882000Y-85979000D01*
X71882000Y-85979000D02*
X71882000Y-75311000D01*
X71882000Y-75311000D02*
X75565000Y-75311000D01*
X76708000Y-85979000D02*
X75565000Y-85979000D01*
X75565000Y-85979000D02*
X75565000Y-75311000D01*
X75565000Y-75311000D02*
X76708000Y-75311000D01*
X76708000Y-80645000D02*
X76708000Y-75311000D01*
X76708000Y-80645000D02*
X76708000Y-85979000D01*
X102870000Y-45720000D02*
X102870000Y-91440000D01*
X102870000Y-91440000D02*
X105410000Y-91440000D01*
X105410000Y-91440000D02*
X105410000Y-45720000D01*
X102590000Y-42900000D02*
X102590000Y-44450000D01*
X102870000Y-45720000D02*
X105410000Y-45720000D01*
X105690000Y-44450000D02*
X105690000Y-42900000D01*
X105690000Y-42900000D02*
X102590000Y-42900000D01*
X31750000Y-45720000D02*
X31750000Y-91440000D01*
X31750000Y-91440000D02*
X34290000Y-91440000D01*
X34290000Y-91440000D02*
X34290000Y-45720000D01*
X31470000Y-42900000D02*
X31470000Y-44450000D01*
X31750000Y-45720000D02*
X34290000Y-45720000D01*
X34570000Y-44450000D02*
X34570000Y-42900000D01*
X34570000Y-42900000D02*
X31470000Y-42900000D01*
X60047143Y-82081666D02*
X60094762Y-82129285D01*
X60142381Y-82272142D01*
X60142381Y-82367380D01*
X60094762Y-82510238D01*
X59999524Y-82605476D01*
X59904286Y-82653095D01*
X59713810Y-82700714D01*
X59570952Y-82700714D01*
X59380476Y-82653095D01*
X59285238Y-82605476D01*
X59190000Y-82510238D01*
X59142381Y-82367380D01*
X59142381Y-82272142D01*
X59190000Y-82129285D01*
X59237619Y-82081666D01*
X60142381Y-81129285D02*
X60142381Y-81700714D01*
X60142381Y-81415000D02*
X59142381Y-81415000D01*
X59285238Y-81510238D01*
X59380476Y-81605476D01*
X59428095Y-81700714D01*
X49998334Y-59412143D02*
X49950715Y-59459762D01*
X49807858Y-59507381D01*
X49712620Y-59507381D01*
X49569762Y-59459762D01*
X49474524Y-59364524D01*
X49426905Y-59269286D01*
X49379286Y-59078810D01*
X49379286Y-58935952D01*
X49426905Y-58745476D01*
X49474524Y-58650238D01*
X49569762Y-58555000D01*
X49712620Y-58507381D01*
X49807858Y-58507381D01*
X49950715Y-58555000D01*
X49998334Y-58602619D01*
X50379286Y-58602619D02*
X50426905Y-58555000D01*
X50522143Y-58507381D01*
X50760239Y-58507381D01*
X50855477Y-58555000D01*
X50903096Y-58602619D01*
X50950715Y-58697857D01*
X50950715Y-58793095D01*
X50903096Y-58935952D01*
X50331667Y-59507381D01*
X50950715Y-59507381D01*
X44283334Y-51157143D02*
X44235715Y-51204762D01*
X44092858Y-51252381D01*
X43997620Y-51252381D01*
X43854762Y-51204762D01*
X43759524Y-51109524D01*
X43711905Y-51014286D01*
X43664286Y-50823810D01*
X43664286Y-50680952D01*
X43711905Y-50490476D01*
X43759524Y-50395238D01*
X43854762Y-50300000D01*
X43997620Y-50252381D01*
X44092858Y-50252381D01*
X44235715Y-50300000D01*
X44283334Y-50347619D01*
X44616667Y-50252381D02*
X45235715Y-50252381D01*
X44902381Y-50633333D01*
X45045239Y-50633333D01*
X45140477Y-50680952D01*
X45188096Y-50728571D01*
X45235715Y-50823810D01*
X45235715Y-51061905D01*
X45188096Y-51157143D01*
X45140477Y-51204762D01*
X45045239Y-51252381D01*
X44759524Y-51252381D01*
X44664286Y-51204762D01*
X44616667Y-51157143D01*
X44283334Y-74652143D02*
X44235715Y-74699762D01*
X44092858Y-74747381D01*
X43997620Y-74747381D01*
X43854762Y-74699762D01*
X43759524Y-74604524D01*
X43711905Y-74509286D01*
X43664286Y-74318810D01*
X43664286Y-74175952D01*
X43711905Y-73985476D01*
X43759524Y-73890238D01*
X43854762Y-73795000D01*
X43997620Y-73747381D01*
X44092858Y-73747381D01*
X44235715Y-73795000D01*
X44283334Y-73842619D01*
X45140477Y-74080714D02*
X45140477Y-74747381D01*
X44902381Y-73699762D02*
X44664286Y-74414048D01*
X45283334Y-74414048D01*
X56983334Y-82907143D02*
X56935715Y-82954762D01*
X56792858Y-83002381D01*
X56697620Y-83002381D01*
X56554762Y-82954762D01*
X56459524Y-82859524D01*
X56411905Y-82764286D01*
X56364286Y-82573810D01*
X56364286Y-82430952D01*
X56411905Y-82240476D01*
X56459524Y-82145238D01*
X56554762Y-82050000D01*
X56697620Y-82002381D01*
X56792858Y-82002381D01*
X56935715Y-82050000D01*
X56983334Y-82097619D01*
X57888096Y-82002381D02*
X57411905Y-82002381D01*
X57364286Y-82478571D01*
X57411905Y-82430952D01*
X57507143Y-82383333D01*
X57745239Y-82383333D01*
X57840477Y-82430952D01*
X57888096Y-82478571D01*
X57935715Y-82573810D01*
X57935715Y-82811905D01*
X57888096Y-82907143D01*
X57840477Y-82954762D01*
X57745239Y-83002381D01*
X57507143Y-83002381D01*
X57411905Y-82954762D01*
X57364286Y-82907143D01*
X72223334Y-65762143D02*
X72175715Y-65809762D01*
X72032858Y-65857381D01*
X71937620Y-65857381D01*
X71794762Y-65809762D01*
X71699524Y-65714524D01*
X71651905Y-65619286D01*
X71604286Y-65428810D01*
X71604286Y-65285952D01*
X71651905Y-65095476D01*
X71699524Y-65000238D01*
X71794762Y-64905000D01*
X71937620Y-64857381D01*
X72032858Y-64857381D01*
X72175715Y-64905000D01*
X72223334Y-64952619D01*
X73080477Y-64857381D02*
X72890000Y-64857381D01*
X72794762Y-64905000D01*
X72747143Y-64952619D01*
X72651905Y-65095476D01*
X72604286Y-65285952D01*
X72604286Y-65666905D01*
X72651905Y-65762143D01*
X72699524Y-65809762D01*
X72794762Y-65857381D01*
X72985239Y-65857381D01*
X73080477Y-65809762D01*
X73128096Y-65762143D01*
X73175715Y-65666905D01*
X73175715Y-65428810D01*
X73128096Y-65333571D01*
X73080477Y-65285952D01*
X72985239Y-65238333D01*
X72794762Y-65238333D01*
X72699524Y-65285952D01*
X72651905Y-65333571D01*
X72604286Y-65428810D01*
X69048334Y-43537143D02*
X69000715Y-43584762D01*
X68857858Y-43632381D01*
X68762620Y-43632381D01*
X68619762Y-43584762D01*
X68524524Y-43489524D01*
X68476905Y-43394286D01*
X68429286Y-43203810D01*
X68429286Y-43060952D01*
X68476905Y-42870476D01*
X68524524Y-42775238D01*
X68619762Y-42680000D01*
X68762620Y-42632381D01*
X68857858Y-42632381D01*
X69000715Y-42680000D01*
X69048334Y-42727619D01*
X69381667Y-42632381D02*
X70048334Y-42632381D01*
X69619762Y-43632381D01*
X75398334Y-50522143D02*
X75350715Y-50569762D01*
X75207858Y-50617381D01*
X75112620Y-50617381D01*
X74969762Y-50569762D01*
X74874524Y-50474524D01*
X74826905Y-50379286D01*
X74779286Y-50188810D01*
X74779286Y-50045952D01*
X74826905Y-49855476D01*
X74874524Y-49760238D01*
X74969762Y-49665000D01*
X75112620Y-49617381D01*
X75207858Y-49617381D01*
X75350715Y-49665000D01*
X75398334Y-49712619D01*
X75969762Y-50045952D02*
X75874524Y-49998333D01*
X75826905Y-49950714D01*
X75779286Y-49855476D01*
X75779286Y-49807857D01*
X75826905Y-49712619D01*
X75874524Y-49665000D01*
X75969762Y-49617381D01*
X76160239Y-49617381D01*
X76255477Y-49665000D01*
X76303096Y-49712619D01*
X76350715Y-49807857D01*
X76350715Y-49855476D01*
X76303096Y-49950714D01*
X76255477Y-49998333D01*
X76160239Y-50045952D01*
X75969762Y-50045952D01*
X75874524Y-50093571D01*
X75826905Y-50141190D01*
X75779286Y-50236429D01*
X75779286Y-50426905D01*
X75826905Y-50522143D01*
X75874524Y-50569762D01*
X75969762Y-50617381D01*
X76160239Y-50617381D01*
X76255477Y-50569762D01*
X76303096Y-50522143D01*
X76350715Y-50426905D01*
X76350715Y-50236429D01*
X76303096Y-50141190D01*
X76255477Y-50093571D01*
X76160239Y-50045952D01*
X79843334Y-59412143D02*
X79795715Y-59459762D01*
X79652858Y-59507381D01*
X79557620Y-59507381D01*
X79414762Y-59459762D01*
X79319524Y-59364524D01*
X79271905Y-59269286D01*
X79224286Y-59078810D01*
X79224286Y-58935952D01*
X79271905Y-58745476D01*
X79319524Y-58650238D01*
X79414762Y-58555000D01*
X79557620Y-58507381D01*
X79652858Y-58507381D01*
X79795715Y-58555000D01*
X79843334Y-58602619D01*
X80319524Y-59507381D02*
X80510000Y-59507381D01*
X80605239Y-59459762D01*
X80652858Y-59412143D01*
X80748096Y-59269286D01*
X80795715Y-59078810D01*
X80795715Y-58697857D01*
X80748096Y-58602619D01*
X80700477Y-58555000D01*
X80605239Y-58507381D01*
X80414762Y-58507381D01*
X80319524Y-58555000D01*
X80271905Y-58602619D01*
X80224286Y-58697857D01*
X80224286Y-58935952D01*
X80271905Y-59031190D01*
X80319524Y-59078810D01*
X80414762Y-59126429D01*
X80605239Y-59126429D01*
X80700477Y-59078810D01*
X80748096Y-59031190D01*
X80795715Y-58935952D01*
X84447143Y-67032143D02*
X84399524Y-67079762D01*
X84256667Y-67127381D01*
X84161429Y-67127381D01*
X84018571Y-67079762D01*
X83923333Y-66984524D01*
X83875714Y-66889286D01*
X83828095Y-66698810D01*
X83828095Y-66555952D01*
X83875714Y-66365476D01*
X83923333Y-66270238D01*
X84018571Y-66175000D01*
X84161429Y-66127381D01*
X84256667Y-66127381D01*
X84399524Y-66175000D01*
X84447143Y-66222619D01*
X85399524Y-67127381D02*
X84828095Y-67127381D01*
X85113809Y-67127381D02*
X85113809Y-66127381D01*
X85018571Y-66270238D01*
X84923333Y-66365476D01*
X84828095Y-66413095D01*
X86018571Y-66127381D02*
X86113810Y-66127381D01*
X86209048Y-66175000D01*
X86256667Y-66222619D01*
X86304286Y-66317857D01*
X86351905Y-66508333D01*
X86351905Y-66746429D01*
X86304286Y-66936905D01*
X86256667Y-67032143D01*
X86209048Y-67079762D01*
X86113810Y-67127381D01*
X86018571Y-67127381D01*
X85923333Y-67079762D01*
X85875714Y-67032143D01*
X85828095Y-66936905D01*
X85780476Y-66746429D01*
X85780476Y-66508333D01*
X85828095Y-66317857D01*
X85875714Y-66222619D01*
X85923333Y-66175000D01*
X86018571Y-66127381D01*
X39187381Y-68048095D02*
X38187381Y-68048095D01*
X38187381Y-67810000D01*
X38235000Y-67667142D01*
X38330238Y-67571904D01*
X38425476Y-67524285D01*
X38615952Y-67476666D01*
X38758810Y-67476666D01*
X38949286Y-67524285D01*
X39044524Y-67571904D01*
X39139762Y-67667142D01*
X39187381Y-67810000D01*
X39187381Y-68048095D01*
X39187381Y-66524285D02*
X39187381Y-67095714D01*
X39187381Y-66810000D02*
X38187381Y-66810000D01*
X38330238Y-66905238D01*
X38425476Y-67000476D01*
X38473095Y-67095714D01*
X78001905Y-88082381D02*
X78001905Y-87082381D01*
X78240000Y-87082381D01*
X78382858Y-87130000D01*
X78478096Y-87225238D01*
X78525715Y-87320476D01*
X78573334Y-87510952D01*
X78573334Y-87653810D01*
X78525715Y-87844286D01*
X78478096Y-87939524D01*
X78382858Y-88034762D01*
X78240000Y-88082381D01*
X78001905Y-88082381D01*
X78954286Y-87177619D02*
X79001905Y-87130000D01*
X79097143Y-87082381D01*
X79335239Y-87082381D01*
X79430477Y-87130000D01*
X79478096Y-87177619D01*
X79525715Y-87272857D01*
X79525715Y-87368095D01*
X79478096Y-87510952D01*
X78906667Y-88082381D01*
X79525715Y-88082381D01*
X61491905Y-58237381D02*
X61491905Y-57237381D01*
X61730000Y-57237381D01*
X61872858Y-57285000D01*
X61968096Y-57380238D01*
X62015715Y-57475476D01*
X62063334Y-57665952D01*
X62063334Y-57808810D01*
X62015715Y-57999286D01*
X61968096Y-58094524D01*
X61872858Y-58189762D01*
X61730000Y-58237381D01*
X61491905Y-58237381D01*
X62396667Y-57237381D02*
X63015715Y-57237381D01*
X62682381Y-57618333D01*
X62825239Y-57618333D01*
X62920477Y-57665952D01*
X62968096Y-57713571D01*
X63015715Y-57808810D01*
X63015715Y-58046905D01*
X62968096Y-58142143D01*
X62920477Y-58189762D01*
X62825239Y-58237381D01*
X62539524Y-58237381D01*
X62444286Y-58189762D01*
X62396667Y-58142143D01*
X61491905Y-61412381D02*
X61491905Y-60412381D01*
X61730000Y-60412381D01*
X61872858Y-60460000D01*
X61968096Y-60555238D01*
X62015715Y-60650476D01*
X62063334Y-60840952D01*
X62063334Y-60983810D01*
X62015715Y-61174286D01*
X61968096Y-61269524D01*
X61872858Y-61364762D01*
X61730000Y-61412381D01*
X61491905Y-61412381D01*
X62920477Y-60745714D02*
X62920477Y-61412381D01*
X62682381Y-60364762D02*
X62444286Y-61079048D01*
X63063334Y-61079048D01*
X44362619Y-48990238D02*
X44315000Y-49085476D01*
X44219762Y-49180714D01*
X44076905Y-49323571D01*
X44029286Y-49418810D01*
X44029286Y-49514048D01*
X44267381Y-49466429D02*
X44219762Y-49561667D01*
X44124524Y-49656905D01*
X43934048Y-49704524D01*
X43600714Y-49704524D01*
X43410238Y-49656905D01*
X43315000Y-49561667D01*
X43267381Y-49466429D01*
X43267381Y-49275952D01*
X43315000Y-49180714D01*
X43410238Y-49085476D01*
X43600714Y-49037857D01*
X43934048Y-49037857D01*
X44124524Y-49085476D01*
X44219762Y-49180714D01*
X44267381Y-49275952D01*
X44267381Y-49466429D01*
X44267381Y-48085476D02*
X44267381Y-48656905D01*
X44267381Y-48371191D02*
X43267381Y-48371191D01*
X43410238Y-48466429D01*
X43505476Y-48561667D01*
X43553095Y-48656905D01*
X51974762Y-43727619D02*
X51879524Y-43680000D01*
X51784286Y-43584762D01*
X51641429Y-43441905D01*
X51546190Y-43394286D01*
X51450952Y-43394286D01*
X51498571Y-43632381D02*
X51403333Y-43584762D01*
X51308095Y-43489524D01*
X51260476Y-43299048D01*
X51260476Y-42965714D01*
X51308095Y-42775238D01*
X51403333Y-42680000D01*
X51498571Y-42632381D01*
X51689048Y-42632381D01*
X51784286Y-42680000D01*
X51879524Y-42775238D01*
X51927143Y-42965714D01*
X51927143Y-43299048D01*
X51879524Y-43489524D01*
X51784286Y-43584762D01*
X51689048Y-43632381D01*
X51498571Y-43632381D01*
X52308095Y-42727619D02*
X52355714Y-42680000D01*
X52450952Y-42632381D01*
X52689048Y-42632381D01*
X52784286Y-42680000D01*
X52831905Y-42727619D01*
X52879524Y-42822857D01*
X52879524Y-42918095D01*
X52831905Y-43060952D01*
X52260476Y-43632381D01*
X52879524Y-43632381D01*
X58959762Y-43727619D02*
X58864524Y-43680000D01*
X58769286Y-43584762D01*
X58626429Y-43441905D01*
X58531190Y-43394286D01*
X58435952Y-43394286D01*
X58483571Y-43632381D02*
X58388333Y-43584762D01*
X58293095Y-43489524D01*
X58245476Y-43299048D01*
X58245476Y-42965714D01*
X58293095Y-42775238D01*
X58388333Y-42680000D01*
X58483571Y-42632381D01*
X58674048Y-42632381D01*
X58769286Y-42680000D01*
X58864524Y-42775238D01*
X58912143Y-42965714D01*
X58912143Y-43299048D01*
X58864524Y-43489524D01*
X58769286Y-43584762D01*
X58674048Y-43632381D01*
X58483571Y-43632381D01*
X59245476Y-42632381D02*
X59864524Y-42632381D01*
X59531190Y-43013333D01*
X59674048Y-43013333D01*
X59769286Y-43060952D01*
X59816905Y-43108571D01*
X59864524Y-43203810D01*
X59864524Y-43441905D01*
X59816905Y-43537143D01*
X59769286Y-43584762D01*
X59674048Y-43632381D01*
X59388333Y-43632381D01*
X59293095Y-43584762D01*
X59245476Y-43537143D01*
X59507381Y-70651666D02*
X59031190Y-70985000D01*
X59507381Y-71223095D02*
X58507381Y-71223095D01*
X58507381Y-70842142D01*
X58555000Y-70746904D01*
X58602619Y-70699285D01*
X58697857Y-70651666D01*
X58840714Y-70651666D01*
X58935952Y-70699285D01*
X58983571Y-70746904D01*
X59031190Y-70842142D01*
X59031190Y-71223095D01*
X59507381Y-69699285D02*
X59507381Y-70270714D01*
X59507381Y-69985000D02*
X58507381Y-69985000D01*
X58650238Y-70080238D01*
X58745476Y-70175476D01*
X58793095Y-70270714D01*
X63333334Y-87447381D02*
X63000000Y-86971190D01*
X62761905Y-87447381D02*
X62761905Y-86447381D01*
X63142858Y-86447381D01*
X63238096Y-86495000D01*
X63285715Y-86542619D01*
X63333334Y-86637857D01*
X63333334Y-86780714D01*
X63285715Y-86875952D01*
X63238096Y-86923571D01*
X63142858Y-86971190D01*
X62761905Y-86971190D01*
X63714286Y-86542619D02*
X63761905Y-86495000D01*
X63857143Y-86447381D01*
X64095239Y-86447381D01*
X64190477Y-86495000D01*
X64238096Y-86542619D01*
X64285715Y-86637857D01*
X64285715Y-86733095D01*
X64238096Y-86875952D01*
X63666667Y-87447381D01*
X64285715Y-87447381D01*
X52538334Y-53792381D02*
X52205000Y-53316190D01*
X51966905Y-53792381D02*
X51966905Y-52792381D01*
X52347858Y-52792381D01*
X52443096Y-52840000D01*
X52490715Y-52887619D01*
X52538334Y-52982857D01*
X52538334Y-53125714D01*
X52490715Y-53220952D01*
X52443096Y-53268571D01*
X52347858Y-53316190D01*
X51966905Y-53316190D01*
X52871667Y-52792381D02*
X53490715Y-52792381D01*
X53157381Y-53173333D01*
X53300239Y-53173333D01*
X53395477Y-53220952D01*
X53443096Y-53268571D01*
X53490715Y-53363810D01*
X53490715Y-53601905D01*
X53443096Y-53697143D01*
X53395477Y-53744762D01*
X53300239Y-53792381D01*
X53014524Y-53792381D01*
X52919286Y-53744762D01*
X52871667Y-53697143D01*
X52538334Y-49982381D02*
X52205000Y-49506190D01*
X51966905Y-49982381D02*
X51966905Y-48982381D01*
X52347858Y-48982381D01*
X52443096Y-49030000D01*
X52490715Y-49077619D01*
X52538334Y-49172857D01*
X52538334Y-49315714D01*
X52490715Y-49410952D01*
X52443096Y-49458571D01*
X52347858Y-49506190D01*
X51966905Y-49506190D01*
X53395477Y-49315714D02*
X53395477Y-49982381D01*
X53157381Y-48934762D02*
X52919286Y-49649048D01*
X53538334Y-49649048D01*
X51268334Y-78557381D02*
X50935000Y-78081190D01*
X50696905Y-78557381D02*
X50696905Y-77557381D01*
X51077858Y-77557381D01*
X51173096Y-77605000D01*
X51220715Y-77652619D01*
X51268334Y-77747857D01*
X51268334Y-77890714D01*
X51220715Y-77985952D01*
X51173096Y-78033571D01*
X51077858Y-78081190D01*
X50696905Y-78081190D01*
X52173096Y-77557381D02*
X51696905Y-77557381D01*
X51649286Y-78033571D01*
X51696905Y-77985952D01*
X51792143Y-77938333D01*
X52030239Y-77938333D01*
X52125477Y-77985952D01*
X52173096Y-78033571D01*
X52220715Y-78128810D01*
X52220715Y-78366905D01*
X52173096Y-78462143D01*
X52125477Y-78509762D01*
X52030239Y-78557381D01*
X51792143Y-78557381D01*
X51696905Y-78509762D01*
X51649286Y-78462143D01*
X48133095Y-61542381D02*
X48133095Y-62351905D01*
X48180714Y-62447143D01*
X48228333Y-62494762D01*
X48323571Y-62542381D01*
X48514048Y-62542381D01*
X48609286Y-62494762D01*
X48656905Y-62447143D01*
X48704524Y-62351905D01*
X48704524Y-61542381D01*
X49704524Y-62542381D02*
X49133095Y-62542381D01*
X49418809Y-62542381D02*
X49418809Y-61542381D01*
X49323571Y-61685238D01*
X49228333Y-61780476D01*
X49133095Y-61828095D01*
X44537381Y-66801905D02*
X45346905Y-66801905D01*
X45442143Y-66754286D01*
X45489762Y-66706667D01*
X45537381Y-66611429D01*
X45537381Y-66420952D01*
X45489762Y-66325714D01*
X45442143Y-66278095D01*
X45346905Y-66230476D01*
X44537381Y-66230476D01*
X44632619Y-65801905D02*
X44585000Y-65754286D01*
X44537381Y-65659048D01*
X44537381Y-65420952D01*
X44585000Y-65325714D01*
X44632619Y-65278095D01*
X44727857Y-65230476D01*
X44823095Y-65230476D01*
X44965952Y-65278095D01*
X45537381Y-65849524D01*
X45537381Y-65230476D01*
X40513095Y-83272381D02*
X40513095Y-84081905D01*
X40560714Y-84177143D01*
X40608333Y-84224762D01*
X40703571Y-84272381D01*
X40894048Y-84272381D01*
X40989286Y-84224762D01*
X41036905Y-84177143D01*
X41084524Y-84081905D01*
X41084524Y-83272381D01*
X41465476Y-83272381D02*
X42084524Y-83272381D01*
X41751190Y-83653333D01*
X41894048Y-83653333D01*
X41989286Y-83700952D01*
X42036905Y-83748571D01*
X42084524Y-83843810D01*
X42084524Y-84081905D01*
X42036905Y-84177143D01*
X41989286Y-84224762D01*
X41894048Y-84272381D01*
X41608333Y-84272381D01*
X41513095Y-84224762D01*
X41465476Y-84177143D01*
X69937381Y-81406905D02*
X70746905Y-81406905D01*
X70842143Y-81359286D01*
X70889762Y-81311667D01*
X70937381Y-81216429D01*
X70937381Y-81025952D01*
X70889762Y-80930714D01*
X70842143Y-80883095D01*
X70746905Y-80835476D01*
X69937381Y-80835476D01*
X70270714Y-79930714D02*
X70937381Y-79930714D01*
X69889762Y-80168810D02*
X70604048Y-80406905D01*
X70604048Y-79787857D01*
X83907381Y-81406905D02*
X84716905Y-81406905D01*
X84812143Y-81359286D01*
X84859762Y-81311667D01*
X84907381Y-81216429D01*
X84907381Y-81025952D01*
X84859762Y-80930714D01*
X84812143Y-80883095D01*
X84716905Y-80835476D01*
X83907381Y-80835476D01*
X83907381Y-79883095D02*
X83907381Y-80359286D01*
X84383571Y-80406905D01*
X84335952Y-80359286D01*
X84288333Y-80264048D01*
X84288333Y-80025952D01*
X84335952Y-79930714D01*
X84383571Y-79883095D01*
X84478810Y-79835476D01*
X84716905Y-79835476D01*
X84812143Y-79883095D01*
X84859762Y-79930714D01*
X84907381Y-80025952D01*
X84907381Y-80264048D01*
X84859762Y-80359286D01*
X84812143Y-80406905D01*
X76922381Y-81406905D02*
X77731905Y-81406905D01*
X77827143Y-81359286D01*
X77874762Y-81311667D01*
X77922381Y-81216429D01*
X77922381Y-81025952D01*
X77874762Y-80930714D01*
X77827143Y-80883095D01*
X77731905Y-80835476D01*
X76922381Y-80835476D01*
X76922381Y-79930714D02*
X76922381Y-80121191D01*
X76970000Y-80216429D01*
X77017619Y-80264048D01*
X77160476Y-80359286D01*
X77350952Y-80406905D01*
X77731905Y-80406905D01*
X77827143Y-80359286D01*
X77874762Y-80311667D01*
X77922381Y-80216429D01*
X77922381Y-80025952D01*
X77874762Y-79930714D01*
X77827143Y-79883095D01*
X77731905Y-79835476D01*
X77493810Y-79835476D01*
X77398571Y-79883095D01*
X77350952Y-79930714D01*
X77303333Y-80025952D01*
X77303333Y-80216429D01*
X77350952Y-80311667D01*
X77398571Y-80359286D01*
X77493810Y-80406905D01*
X98956905Y-45537381D02*
X98956905Y-44537381D01*
X99337858Y-44537381D01*
X99433096Y-44585000D01*
X99480715Y-44632619D01*
X99528334Y-44727857D01*
X99528334Y-44870714D01*
X99480715Y-44965952D01*
X99433096Y-45013571D01*
X99337858Y-45061190D01*
X98956905Y-45061190D01*
X99909286Y-44632619D02*
X99956905Y-44585000D01*
X100052143Y-44537381D01*
X100290239Y-44537381D01*
X100385477Y-44585000D01*
X100433096Y-44632619D01*
X100480715Y-44727857D01*
X100480715Y-44823095D01*
X100433096Y-44965952D01*
X99861667Y-45537381D01*
X100480715Y-45537381D01*
X103378096Y-41410000D02*
X103282858Y-41362381D01*
X103140001Y-41362381D01*
X102997143Y-41410000D01*
X102901905Y-41505238D01*
X102854286Y-41600476D01*
X102806667Y-41790952D01*
X102806667Y-41933810D01*
X102854286Y-42124286D01*
X102901905Y-42219524D01*
X102997143Y-42314762D01*
X103140001Y-42362381D01*
X103235239Y-42362381D01*
X103378096Y-42314762D01*
X103425715Y-42267143D01*
X103425715Y-41933810D01*
X103235239Y-41933810D01*
X103854286Y-42362381D02*
X103854286Y-41362381D01*
X104425715Y-42362381D01*
X104425715Y-41362381D01*
X104901905Y-42362381D02*
X104901905Y-41362381D01*
X105140000Y-41362381D01*
X105282858Y-41410000D01*
X105378096Y-41505238D01*
X105425715Y-41600476D01*
X105473334Y-41790952D01*
X105473334Y-41933810D01*
X105425715Y-42124286D01*
X105378096Y-42219524D01*
X105282858Y-42314762D01*
X105140000Y-42362381D01*
X104901905Y-42362381D01*
X34821905Y-44902381D02*
X34821905Y-43902381D01*
X35202858Y-43902381D01*
X35298096Y-43950000D01*
X35345715Y-43997619D01*
X35393334Y-44092857D01*
X35393334Y-44235714D01*
X35345715Y-44330952D01*
X35298096Y-44378571D01*
X35202858Y-44426190D01*
X34821905Y-44426190D01*
X36345715Y-44902381D02*
X35774286Y-44902381D01*
X36060000Y-44902381D02*
X36060000Y-43902381D01*
X35964762Y-44045238D01*
X35869524Y-44140476D01*
X35774286Y-44188095D01*
X32258096Y-41410000D02*
X32162858Y-41362381D01*
X32020001Y-41362381D01*
X31877143Y-41410000D01*
X31781905Y-41505238D01*
X31734286Y-41600476D01*
X31686667Y-41790952D01*
X31686667Y-41933810D01*
X31734286Y-42124286D01*
X31781905Y-42219524D01*
X31877143Y-42314762D01*
X32020001Y-42362381D01*
X32115239Y-42362381D01*
X32258096Y-42314762D01*
X32305715Y-42267143D01*
X32305715Y-41933810D01*
X32115239Y-41933810D01*
X32734286Y-42362381D02*
X32734286Y-41362381D01*
X33305715Y-42362381D01*
X33305715Y-41362381D01*
X33781905Y-42362381D02*
X33781905Y-41362381D01*
X34020000Y-41362381D01*
X34162858Y-41410000D01*
X34258096Y-41505238D01*
X34305715Y-41600476D01*
X34353334Y-41790952D01*
X34353334Y-41933810D01*
X34305715Y-42124286D01*
X34258096Y-42219524D01*
X34162858Y-42314762D01*
X34020000Y-42362381D01*
X33781905Y-42362381D01*
M02*
