G04 #@! TF.FileFunction,Legend,Bot*
%FSLAX46Y46*%
G04 Gerber Fmt 4.6, Leading zero omitted, Abs format (unit mm)*
G04 Created by KiCad (PCBNEW 4.0.3+e1-6302~38~ubuntu16.04.1-stable) date Thu Aug 25 17:21:45 2016*
%MOMM*%
%LPD*%
G01*
G04 APERTURE LIST*
%ADD10C,0.100000*%
%ADD11C,0.300000*%
G04 APERTURE END LIST*
D10*
D11*
X92447142Y-46398571D02*
X92447142Y-44898571D01*
X92089999Y-44898571D01*
X91875714Y-44970000D01*
X91732856Y-45112857D01*
X91661428Y-45255714D01*
X91589999Y-45541429D01*
X91589999Y-45755714D01*
X91661428Y-46041429D01*
X91732856Y-46184286D01*
X91875714Y-46327143D01*
X92089999Y-46398571D01*
X92447142Y-46398571D01*
X90447142Y-45612857D02*
X90232856Y-45684286D01*
X90161428Y-45755714D01*
X90089999Y-45898571D01*
X90089999Y-46112857D01*
X90161428Y-46255714D01*
X90232856Y-46327143D01*
X90375714Y-46398571D01*
X90947142Y-46398571D01*
X90947142Y-44898571D01*
X90447142Y-44898571D01*
X90304285Y-44970000D01*
X90232856Y-45041429D01*
X90161428Y-45184286D01*
X90161428Y-45327143D01*
X90232856Y-45470000D01*
X90304285Y-45541429D01*
X90447142Y-45612857D01*
X90947142Y-45612857D01*
X89804285Y-46541429D02*
X88661428Y-46541429D01*
X88375714Y-46327143D02*
X88161428Y-46398571D01*
X87804285Y-46398571D01*
X87661428Y-46327143D01*
X87589999Y-46255714D01*
X87518571Y-46112857D01*
X87518571Y-45970000D01*
X87589999Y-45827143D01*
X87661428Y-45755714D01*
X87804285Y-45684286D01*
X88089999Y-45612857D01*
X88232857Y-45541429D01*
X88304285Y-45470000D01*
X88375714Y-45327143D01*
X88375714Y-45184286D01*
X88304285Y-45041429D01*
X88232857Y-44970000D01*
X88089999Y-44898571D01*
X87732857Y-44898571D01*
X87518571Y-44970000D01*
X86232857Y-45398571D02*
X86232857Y-46398571D01*
X86875714Y-45398571D02*
X86875714Y-46184286D01*
X86804286Y-46327143D01*
X86661428Y-46398571D01*
X86447143Y-46398571D01*
X86304286Y-46327143D01*
X86232857Y-46255714D01*
X85518571Y-45398571D02*
X85518571Y-46898571D01*
X85518571Y-45470000D02*
X85375714Y-45398571D01*
X85090000Y-45398571D01*
X84947143Y-45470000D01*
X84875714Y-45541429D01*
X84804285Y-45684286D01*
X84804285Y-46112857D01*
X84875714Y-46255714D01*
X84947143Y-46327143D01*
X85090000Y-46398571D01*
X85375714Y-46398571D01*
X85518571Y-46327143D01*
X84161428Y-45398571D02*
X84161428Y-46898571D01*
X84161428Y-45470000D02*
X84018571Y-45398571D01*
X83732857Y-45398571D01*
X83590000Y-45470000D01*
X83518571Y-45541429D01*
X83447142Y-45684286D01*
X83447142Y-46112857D01*
X83518571Y-46255714D01*
X83590000Y-46327143D01*
X83732857Y-46398571D01*
X84018571Y-46398571D01*
X84161428Y-46327143D01*
X82589999Y-46398571D02*
X82732857Y-46327143D01*
X82804285Y-46184286D01*
X82804285Y-44898571D01*
X82161428Y-45398571D02*
X81804285Y-46398571D01*
X81447143Y-45398571D02*
X81804285Y-46398571D01*
X81947143Y-46755714D01*
X82018571Y-46827143D01*
X82161428Y-46898571D01*
X81232857Y-46541429D02*
X80090000Y-46541429D01*
X79947143Y-44898571D02*
X79447143Y-46398571D01*
X78947143Y-44898571D01*
X77661429Y-46398571D02*
X78518572Y-46398571D01*
X78090000Y-46398571D02*
X78090000Y-44898571D01*
X78232857Y-45112857D01*
X78375715Y-45255714D01*
X78518572Y-45327143D01*
M02*
