G04 #@! TF.FileFunction,Legend,Bot*
%FSLAX46Y46*%
G04 Gerber Fmt 4.6, Leading zero omitted, Abs format (unit mm)*
G04 Created by KiCad (PCBNEW 4.0.4+e1-6308~48~ubuntu16.04.1-stable) date Thu Sep 22 16:48:10 2016*
%MOMM*%
%LPD*%
G01*
G04 APERTURE LIST*
%ADD10C,0.100000*%
%ADD11C,0.300000*%
G04 APERTURE END LIST*
D10*
D11*
X71082856Y-95928571D02*
X71082856Y-94428571D01*
X70725713Y-94428571D01*
X70511428Y-94500000D01*
X70368570Y-94642857D01*
X70297142Y-94785714D01*
X70225713Y-95071429D01*
X70225713Y-95285714D01*
X70297142Y-95571429D01*
X70368570Y-95714286D01*
X70511428Y-95857143D01*
X70725713Y-95928571D01*
X71082856Y-95928571D01*
X69082856Y-95142857D02*
X68868570Y-95214286D01*
X68797142Y-95285714D01*
X68725713Y-95428571D01*
X68725713Y-95642857D01*
X68797142Y-95785714D01*
X68868570Y-95857143D01*
X69011428Y-95928571D01*
X69582856Y-95928571D01*
X69582856Y-94428571D01*
X69082856Y-94428571D01*
X68939999Y-94500000D01*
X68868570Y-94571429D01*
X68797142Y-94714286D01*
X68797142Y-94857143D01*
X68868570Y-95000000D01*
X68939999Y-95071429D01*
X69082856Y-95142857D01*
X69582856Y-95142857D01*
X68439999Y-96071429D02*
X67297142Y-96071429D01*
X66939999Y-95928571D02*
X66939999Y-94428571D01*
X66439999Y-95500000D01*
X65939999Y-94428571D01*
X65939999Y-95928571D01*
X65011427Y-95928571D02*
X65154285Y-95857143D01*
X65225713Y-95785714D01*
X65297142Y-95642857D01*
X65297142Y-95214286D01*
X65225713Y-95071429D01*
X65154285Y-95000000D01*
X65011427Y-94928571D01*
X64797142Y-94928571D01*
X64654285Y-95000000D01*
X64582856Y-95071429D01*
X64511427Y-95214286D01*
X64511427Y-95642857D01*
X64582856Y-95785714D01*
X64654285Y-95857143D01*
X64797142Y-95928571D01*
X65011427Y-95928571D01*
X64082856Y-94928571D02*
X63511427Y-94928571D01*
X63868570Y-94428571D02*
X63868570Y-95714286D01*
X63797142Y-95857143D01*
X63654284Y-95928571D01*
X63511427Y-95928571D01*
X62797141Y-95928571D02*
X62939999Y-95857143D01*
X63011427Y-95785714D01*
X63082856Y-95642857D01*
X63082856Y-95214286D01*
X63011427Y-95071429D01*
X62939999Y-95000000D01*
X62797141Y-94928571D01*
X62582856Y-94928571D01*
X62439999Y-95000000D01*
X62368570Y-95071429D01*
X62297141Y-95214286D01*
X62297141Y-95642857D01*
X62368570Y-95785714D01*
X62439999Y-95857143D01*
X62582856Y-95928571D01*
X62797141Y-95928571D01*
X61654284Y-95928571D02*
X61654284Y-94928571D01*
X61654284Y-95214286D02*
X61582856Y-95071429D01*
X61511427Y-95000000D01*
X61368570Y-94928571D01*
X61225713Y-94928571D01*
X61082856Y-96071429D02*
X59939999Y-96071429D01*
X58725713Y-95785714D02*
X58797142Y-95857143D01*
X59011428Y-95928571D01*
X59154285Y-95928571D01*
X59368570Y-95857143D01*
X59511428Y-95714286D01*
X59582856Y-95571429D01*
X59654285Y-95285714D01*
X59654285Y-95071429D01*
X59582856Y-94785714D01*
X59511428Y-94642857D01*
X59368570Y-94500000D01*
X59154285Y-94428571D01*
X59011428Y-94428571D01*
X58797142Y-94500000D01*
X58725713Y-94571429D01*
X57868570Y-95928571D02*
X58011428Y-95857143D01*
X58082856Y-95785714D01*
X58154285Y-95642857D01*
X58154285Y-95214286D01*
X58082856Y-95071429D01*
X58011428Y-95000000D01*
X57868570Y-94928571D01*
X57654285Y-94928571D01*
X57511428Y-95000000D01*
X57439999Y-95071429D01*
X57368570Y-95214286D01*
X57368570Y-95642857D01*
X57439999Y-95785714D01*
X57511428Y-95857143D01*
X57654285Y-95928571D01*
X57868570Y-95928571D01*
X56725713Y-94928571D02*
X56725713Y-95928571D01*
X56725713Y-95071429D02*
X56654285Y-95000000D01*
X56511427Y-94928571D01*
X56297142Y-94928571D01*
X56154285Y-95000000D01*
X56082856Y-95142857D01*
X56082856Y-95928571D01*
X55582856Y-94928571D02*
X55011427Y-94928571D01*
X55368570Y-94428571D02*
X55368570Y-95714286D01*
X55297142Y-95857143D01*
X55154284Y-95928571D01*
X55011427Y-95928571D01*
X54511427Y-95928571D02*
X54511427Y-94928571D01*
X54511427Y-95214286D02*
X54439999Y-95071429D01*
X54368570Y-95000000D01*
X54225713Y-94928571D01*
X54082856Y-94928571D01*
X53368570Y-95928571D02*
X53511428Y-95857143D01*
X53582856Y-95785714D01*
X53654285Y-95642857D01*
X53654285Y-95214286D01*
X53582856Y-95071429D01*
X53511428Y-95000000D01*
X53368570Y-94928571D01*
X53154285Y-94928571D01*
X53011428Y-95000000D01*
X52939999Y-95071429D01*
X52868570Y-95214286D01*
X52868570Y-95642857D01*
X52939999Y-95785714D01*
X53011428Y-95857143D01*
X53154285Y-95928571D01*
X53368570Y-95928571D01*
X52011427Y-95928571D02*
X52154285Y-95857143D01*
X52225713Y-95714286D01*
X52225713Y-94428571D01*
X51797142Y-96071429D02*
X50654285Y-96071429D01*
X50511428Y-94428571D02*
X50011428Y-95928571D01*
X49511428Y-94428571D01*
X48225714Y-95928571D02*
X49082857Y-95928571D01*
X48654285Y-95928571D02*
X48654285Y-94428571D01*
X48797142Y-94642857D01*
X48940000Y-94785714D01*
X49082857Y-94857143D01*
M02*
