M48
INCH,TZ
T1C0.016
T2C0.028
T3C0.031
T4C0.032
T5C0.035
T6C0.039
T7C0.039
T8C0.040
%
G90
G05
T1
X20600Y-39700
X21500Y-41500
X21750Y-45500
X23250Y-45750
X28050Y-45500
X29100Y-37950
X29800Y-50550
X29950Y-47050
X30375Y-38875
X30700Y-38900
X32642Y-42142
X34000Y-47500
X38050Y-44550
T2
X20000Y-41001
X20000Y-41999
X24000Y-41001
X24000Y-41999
T3
X20500Y-38000
X21878Y-38000
T4
X31500Y-34000
X32500Y-34000
X33500Y-34000
T5
X21531Y-44000
X23500Y-44000
X24000Y-48000
X25969Y-48000
X27000Y-47500
X27000Y-49500
X27000Y-51500
X28969Y-47500
X28969Y-49500
X28969Y-51500
X31200Y-35231
X31200Y-37200
X31500Y-49531
X31500Y-51500
X32500Y-43531
X32500Y-45500
X32500Y-46531
X32500Y-48500
X33000Y-38000
X33000Y-40000
X34500Y-43531
X34500Y-45500
X34969Y-38000
X34969Y-40000
X38031Y-43500
X38500Y-34031
X38500Y-36000
X40000Y-43500
T6
X25500Y-41500
T7
X20000Y-43500
X20000Y-47500
X30500Y-44000
X30500Y-48000
X36500Y-34500
X36500Y-38500
X36500Y-40000
X36500Y-44000
X38000Y-37500
X38000Y-41500
X39500Y-37500
X39500Y-41500
T8
X18500Y-34500
X18500Y-35500
X18500Y-36500
X18500Y-37500
X18500Y-38500
X18500Y-39500
X18500Y-40500
X18500Y-41500
X18500Y-42500
X18500Y-43500
X18500Y-44500
X18500Y-45500
X18500Y-46500
X18500Y-47500
X18500Y-48500
X18500Y-49500
X18500Y-50500
X18500Y-51500
X18500Y-52500
X21000Y-34500
X22000Y-34500
T0
M30
