%FSLAX45Y45*%
G04 Gerber Fmt 4.5, Leading zero omitted, Abs format (unit mm)*
G04 Created by KiCad (PCBNEW 4.0.4+e1-6308~48~ubuntu16.04.1-stable) date Tue Sep  6 14:07:28 2016*
%MOMM*%
%LPD*%
G01*
G04 APERTURE LIST*
%ADD10C,0.127000*%
%ADD11C,0.150000*%
%ADD12C,0.200000*%
%ADD13C,0.300000*%
G04 APERTURE END LIST*
D10*
D11*
X10795000Y-8382000D02*
X4445000Y-8382000D01*
X10795000Y-13589000D02*
X10795000Y-8382000D01*
X4445000Y-13589000D02*
X10795000Y-13589000D01*
X4445000Y-8382000D02*
X4445000Y-13589000D01*
D12*
X5212400Y-10063800D02*
X5252400Y-10103800D01*
X5252400Y-10063800D02*
X5212400Y-10103800D01*
X5504500Y-11537000D02*
X5544500Y-11577000D01*
X5544500Y-11537000D02*
X5504500Y-11577000D01*
X5885500Y-11600500D02*
X5925500Y-11640500D01*
X5925500Y-11600500D02*
X5885500Y-11640500D01*
X6076000Y-10140000D02*
X6116000Y-10180000D01*
X6116000Y-10140000D02*
X6076000Y-10180000D01*
X7295200Y-10305100D02*
X7335200Y-10345100D01*
X7335200Y-10305100D02*
X7295200Y-10345100D01*
X7536500Y-9822500D02*
X7576500Y-9862500D01*
X7576500Y-9822500D02*
X7536500Y-9862500D01*
X7549200Y-12819700D02*
X7589200Y-12859700D01*
X7589200Y-12819700D02*
X7549200Y-12859700D01*
X7587300Y-11930700D02*
X7627300Y-11970700D01*
X7627300Y-11930700D02*
X7587300Y-11970700D01*
X7695250Y-9854250D02*
X7735250Y-9894250D01*
X7735250Y-9854250D02*
X7695250Y-9894250D01*
X7765100Y-10279700D02*
X7805100Y-10319700D01*
X7805100Y-10279700D02*
X7765100Y-10319700D01*
X7777800Y-9860600D02*
X7817800Y-9900600D01*
X7817800Y-9860600D02*
X7777800Y-9900600D01*
X7981000Y-10457500D02*
X8021000Y-10497500D01*
X8021000Y-10457500D02*
X7981000Y-10497500D01*
X9644700Y-11283000D02*
X9684700Y-11323000D01*
X9684700Y-11283000D02*
X9644700Y-11323000D01*
X5115000Y-10414254D02*
G75*
G03X5115000Y-10414254I-35052J0D01*
G01*
X5115104Y-10667746D02*
G75*
G03X5115104Y-10667746I-35052J0D01*
G01*
X6131000Y-10414254D02*
G75*
G03X6131000Y-10414254I-35052J0D01*
G01*
X6131104Y-10667746D02*
G75*
G03X6131104Y-10667746I-35052J0D01*
G01*
X5207000Y-9612000D02*
X5207000Y-9692000D01*
X5167000Y-9652000D02*
X5247000Y-9652000D01*
X5557000Y-9612000D02*
X5557000Y-9692000D01*
X5517000Y-9652000D02*
X5597000Y-9652000D01*
X5108737Y-12728737D02*
X5108737Y-12671263D01*
X5051263Y-12671263D01*
X5051263Y-12728737D01*
X5108737Y-12728737D01*
X5616737Y-12728737D02*
X5616737Y-12671263D01*
X5559263Y-12671263D01*
X5559263Y-12728737D01*
X5616737Y-12728737D01*
X5997737Y-12982737D02*
X5997737Y-12925263D01*
X5940263Y-12925263D01*
X5940263Y-12982737D01*
X5997737Y-12982737D01*
X6505737Y-12982737D02*
X6505737Y-12925263D01*
X6448263Y-12925263D01*
X6448263Y-12982737D01*
X6505737Y-12982737D01*
X6759737Y-9426737D02*
X6759737Y-9369263D01*
X6702263Y-9369263D01*
X6702263Y-9426737D01*
X6759737Y-9426737D01*
X7013737Y-11077737D02*
X7013737Y-11020263D01*
X6956263Y-11020263D01*
X6956263Y-11077737D01*
X7013737Y-11077737D01*
X7013737Y-11585737D02*
X7013737Y-11528263D01*
X6956263Y-11528263D01*
X6956263Y-11585737D01*
X7013737Y-11585737D01*
X7267737Y-9426737D02*
X7267737Y-9369263D01*
X7210263Y-9369263D01*
X7210263Y-9426737D01*
X7267737Y-9426737D01*
X7902737Y-9045737D02*
X7902737Y-8988263D01*
X7845263Y-8988263D01*
X7845263Y-9045737D01*
X7902737Y-9045737D01*
X7902737Y-9553737D02*
X7902737Y-9496263D01*
X7845263Y-9496263D01*
X7845263Y-9553737D01*
X7902737Y-9553737D01*
X8029737Y-8664737D02*
X8029737Y-8607263D01*
X7972263Y-8607263D01*
X7972263Y-8664737D01*
X8029737Y-8664737D01*
X8283737Y-8664737D02*
X8283737Y-8607263D01*
X8226263Y-8607263D01*
X8226263Y-8664737D01*
X8283737Y-8664737D01*
X8537737Y-8664737D02*
X8537737Y-8607263D01*
X8480263Y-8607263D01*
X8480263Y-8664737D01*
X8537737Y-8664737D01*
X5469000Y-11221000D02*
X5514000Y-11176000D01*
X5469000Y-11131000D01*
X5424000Y-11176000D01*
X5469000Y-11221000D01*
X5969000Y-11221000D02*
X6014000Y-11176000D01*
X5969000Y-11131000D01*
X5924000Y-11176000D01*
X5969000Y-11221000D01*
X6096000Y-12237000D02*
X6141000Y-12192000D01*
X6096000Y-12147000D01*
X6051000Y-12192000D01*
X6096000Y-12237000D01*
X6596000Y-12237000D02*
X6641000Y-12192000D01*
X6596000Y-12147000D01*
X6551000Y-12192000D01*
X6596000Y-12237000D01*
X6858000Y-12110000D02*
X6903000Y-12065000D01*
X6858000Y-12020000D01*
X6813000Y-12065000D01*
X6858000Y-12110000D01*
X6858000Y-12618000D02*
X6903000Y-12573000D01*
X6858000Y-12528000D01*
X6813000Y-12573000D01*
X6858000Y-12618000D01*
X6858000Y-13126000D02*
X6903000Y-13081000D01*
X6858000Y-13036000D01*
X6813000Y-13081000D01*
X6858000Y-13126000D01*
X7358000Y-12110000D02*
X7403000Y-12065000D01*
X7358000Y-12020000D01*
X7313000Y-12065000D01*
X7358000Y-12110000D01*
X7358000Y-12618000D02*
X7403000Y-12573000D01*
X7358000Y-12528000D01*
X7313000Y-12573000D01*
X7358000Y-12618000D01*
X7358000Y-13126000D02*
X7403000Y-13081000D01*
X7358000Y-13036000D01*
X7313000Y-13081000D01*
X7358000Y-13126000D01*
X8001000Y-12626000D02*
X8046000Y-12581000D01*
X8001000Y-12536000D01*
X7956000Y-12581000D01*
X8001000Y-12626000D01*
X8001000Y-13126000D02*
X8046000Y-13081000D01*
X8001000Y-13036000D01*
X7956000Y-13081000D01*
X8001000Y-13126000D01*
X8255000Y-11102000D02*
X8300000Y-11057000D01*
X8255000Y-11012000D01*
X8210000Y-11057000D01*
X8255000Y-11102000D01*
X8255000Y-11602000D02*
X8300000Y-11557000D01*
X8255000Y-11512000D01*
X8210000Y-11557000D01*
X8255000Y-11602000D01*
X8255000Y-11864000D02*
X8300000Y-11819000D01*
X8255000Y-11774000D01*
X8210000Y-11819000D01*
X8255000Y-11864000D01*
X8255000Y-12364000D02*
X8300000Y-12319000D01*
X8255000Y-12274000D01*
X8210000Y-12319000D01*
X8255000Y-12364000D01*
X8382000Y-9189000D02*
X8427000Y-9144000D01*
X8382000Y-9099000D01*
X8337000Y-9144000D01*
X8382000Y-9189000D01*
X8382000Y-9697000D02*
X8427000Y-9652000D01*
X8382000Y-9607000D01*
X8337000Y-9652000D01*
X8382000Y-9697000D01*
X8382000Y-10205000D02*
X8427000Y-10160000D01*
X8382000Y-10115000D01*
X8337000Y-10160000D01*
X8382000Y-10205000D01*
X8763000Y-11102000D02*
X8808000Y-11057000D01*
X8763000Y-11012000D01*
X8718000Y-11057000D01*
X8763000Y-11102000D01*
X8763000Y-11602000D02*
X8808000Y-11557000D01*
X8763000Y-11512000D01*
X8718000Y-11557000D01*
X8763000Y-11602000D01*
X8882000Y-9189000D02*
X8927000Y-9144000D01*
X8882000Y-9099000D01*
X8837000Y-9144000D01*
X8882000Y-9189000D01*
X8882000Y-9697000D02*
X8927000Y-9652000D01*
X8882000Y-9607000D01*
X8837000Y-9652000D01*
X8882000Y-9697000D01*
X8882000Y-10205000D02*
X8927000Y-10160000D01*
X8882000Y-10115000D01*
X8837000Y-10160000D01*
X8882000Y-10205000D01*
X9660000Y-11094000D02*
X9705000Y-11049000D01*
X9660000Y-11004000D01*
X9615000Y-11049000D01*
X9660000Y-11094000D01*
X9779000Y-8689000D02*
X9824000Y-8644000D01*
X9779000Y-8599000D01*
X9734000Y-8644000D01*
X9779000Y-8689000D01*
X9779000Y-9189000D02*
X9824000Y-9144000D01*
X9779000Y-9099000D01*
X9734000Y-9144000D01*
X9779000Y-9189000D01*
X10160000Y-11094000D02*
X10205000Y-11049000D01*
X10160000Y-11004000D01*
X10115000Y-11049000D01*
X10160000Y-11094000D01*
X6427000Y-10491000D02*
X6527000Y-10591000D01*
X6527000Y-10491000D02*
X6427000Y-10591000D01*
X6527000Y-10541000D02*
G75*
G03X6527000Y-10541000I-50000J0D01*
G01*
X5029962Y-10998962D02*
X5130038Y-11099038D01*
X5130038Y-10998962D02*
X5029962Y-11099038D01*
X5080000Y-10998962D02*
X5080000Y-11099038D01*
X5029962Y-11049000D02*
X5130038Y-11049000D01*
X5029962Y-12014962D02*
X5130038Y-12115038D01*
X5130038Y-12014962D02*
X5029962Y-12115038D01*
X5080000Y-12014962D02*
X5080000Y-12115038D01*
X5029962Y-12065000D02*
X5130038Y-12065000D01*
X7696962Y-11125962D02*
X7797038Y-11226038D01*
X7797038Y-11125962D02*
X7696962Y-11226038D01*
X7747000Y-11125962D02*
X7747000Y-11226038D01*
X7696962Y-11176000D02*
X7797038Y-11176000D01*
X7696962Y-12141962D02*
X7797038Y-12242038D01*
X7797038Y-12141962D02*
X7696962Y-12242038D01*
X7747000Y-12141962D02*
X7747000Y-12242038D01*
X7696962Y-12192000D02*
X7797038Y-12192000D01*
X9220962Y-8712962D02*
X9321038Y-8813038D01*
X9321038Y-8712962D02*
X9220962Y-8813038D01*
X9271000Y-8712962D02*
X9271000Y-8813038D01*
X9220962Y-8763000D02*
X9321038Y-8763000D01*
X9220962Y-9728962D02*
X9321038Y-9829038D01*
X9321038Y-9728962D02*
X9220962Y-9829038D01*
X9271000Y-9728962D02*
X9271000Y-9829038D01*
X9220962Y-9779000D02*
X9321038Y-9779000D01*
X9220962Y-10109962D02*
X9321038Y-10210038D01*
X9321038Y-10109962D02*
X9220962Y-10210038D01*
X9271000Y-10109962D02*
X9271000Y-10210038D01*
X9220962Y-10160000D02*
X9321038Y-10160000D01*
X9220962Y-11125962D02*
X9321038Y-11226038D01*
X9321038Y-11125962D02*
X9220962Y-11226038D01*
X9271000Y-11125962D02*
X9271000Y-11226038D01*
X9220962Y-11176000D02*
X9321038Y-11176000D01*
X9601962Y-9474962D02*
X9702038Y-9575038D01*
X9702038Y-9474962D02*
X9601962Y-9575038D01*
X9652000Y-9474962D02*
X9652000Y-9575038D01*
X9601962Y-9525000D02*
X9702038Y-9525000D01*
X9601962Y-10490962D02*
X9702038Y-10591038D01*
X9702038Y-10490962D02*
X9601962Y-10591038D01*
X9652000Y-10490962D02*
X9652000Y-10591038D01*
X9601962Y-10541000D02*
X9702038Y-10541000D01*
X9982962Y-9474962D02*
X10083038Y-9575038D01*
X10083038Y-9474962D02*
X9982962Y-9575038D01*
X10033000Y-9474962D02*
X10033000Y-9575038D01*
X9982962Y-9525000D02*
X10083038Y-9525000D01*
X9982962Y-10490962D02*
X10083038Y-10591038D01*
X10083038Y-10490962D02*
X9982962Y-10591038D01*
X10033000Y-10490962D02*
X10033000Y-10591038D01*
X9982962Y-10541000D02*
X10083038Y-10541000D01*
X4648200Y-8712200D02*
X4749800Y-8813800D01*
X4749800Y-8712200D02*
X4648200Y-8813800D01*
X4734921Y-8798921D02*
X4734921Y-8727079D01*
X4663079Y-8727079D01*
X4663079Y-8798921D01*
X4734921Y-8798921D01*
X4648200Y-8966200D02*
X4749800Y-9067800D01*
X4749800Y-8966200D02*
X4648200Y-9067800D01*
X4734921Y-9052921D02*
X4734921Y-8981079D01*
X4663079Y-8981079D01*
X4663079Y-9052921D01*
X4734921Y-9052921D01*
X4648200Y-9220200D02*
X4749800Y-9321800D01*
X4749800Y-9220200D02*
X4648200Y-9321800D01*
X4734921Y-9306921D02*
X4734921Y-9235079D01*
X4663079Y-9235079D01*
X4663079Y-9306921D01*
X4734921Y-9306921D01*
X4648200Y-9474200D02*
X4749800Y-9575800D01*
X4749800Y-9474200D02*
X4648200Y-9575800D01*
X4734921Y-9560921D02*
X4734921Y-9489079D01*
X4663079Y-9489079D01*
X4663079Y-9560921D01*
X4734921Y-9560921D01*
X4648200Y-9728200D02*
X4749800Y-9829800D01*
X4749800Y-9728200D02*
X4648200Y-9829800D01*
X4734921Y-9814921D02*
X4734921Y-9743079D01*
X4663079Y-9743079D01*
X4663079Y-9814921D01*
X4734921Y-9814921D01*
X4648200Y-9982200D02*
X4749800Y-10083800D01*
X4749800Y-9982200D02*
X4648200Y-10083800D01*
X4734921Y-10068921D02*
X4734921Y-9997079D01*
X4663079Y-9997079D01*
X4663079Y-10068921D01*
X4734921Y-10068921D01*
X4648200Y-10236200D02*
X4749800Y-10337800D01*
X4749800Y-10236200D02*
X4648200Y-10337800D01*
X4734921Y-10322921D02*
X4734921Y-10251079D01*
X4663079Y-10251079D01*
X4663079Y-10322921D01*
X4734921Y-10322921D01*
X4648200Y-10490200D02*
X4749800Y-10591800D01*
X4749800Y-10490200D02*
X4648200Y-10591800D01*
X4734921Y-10576921D02*
X4734921Y-10505079D01*
X4663079Y-10505079D01*
X4663079Y-10576921D01*
X4734921Y-10576921D01*
X4648200Y-10744200D02*
X4749800Y-10845800D01*
X4749800Y-10744200D02*
X4648200Y-10845800D01*
X4734921Y-10830921D02*
X4734921Y-10759079D01*
X4663079Y-10759079D01*
X4663079Y-10830921D01*
X4734921Y-10830921D01*
X4648200Y-10998200D02*
X4749800Y-11099800D01*
X4749800Y-10998200D02*
X4648200Y-11099800D01*
X4734921Y-11084921D02*
X4734921Y-11013079D01*
X4663079Y-11013079D01*
X4663079Y-11084921D01*
X4734921Y-11084921D01*
X4648200Y-11252200D02*
X4749800Y-11353800D01*
X4749800Y-11252200D02*
X4648200Y-11353800D01*
X4734921Y-11338921D02*
X4734921Y-11267079D01*
X4663079Y-11267079D01*
X4663079Y-11338921D01*
X4734921Y-11338921D01*
X4648200Y-11506200D02*
X4749800Y-11607800D01*
X4749800Y-11506200D02*
X4648200Y-11607800D01*
X4734921Y-11592921D02*
X4734921Y-11521079D01*
X4663079Y-11521079D01*
X4663079Y-11592921D01*
X4734921Y-11592921D01*
X4648200Y-11760200D02*
X4749800Y-11861800D01*
X4749800Y-11760200D02*
X4648200Y-11861800D01*
X4734921Y-11846921D02*
X4734921Y-11775079D01*
X4663079Y-11775079D01*
X4663079Y-11846921D01*
X4734921Y-11846921D01*
X4648200Y-12014200D02*
X4749800Y-12115800D01*
X4749800Y-12014200D02*
X4648200Y-12115800D01*
X4734921Y-12100921D02*
X4734921Y-12029079D01*
X4663079Y-12029079D01*
X4663079Y-12100921D01*
X4734921Y-12100921D01*
X4648200Y-12268200D02*
X4749800Y-12369800D01*
X4749800Y-12268200D02*
X4648200Y-12369800D01*
X4734921Y-12354921D02*
X4734921Y-12283079D01*
X4663079Y-12283079D01*
X4663079Y-12354921D01*
X4734921Y-12354921D01*
X4648200Y-12522200D02*
X4749800Y-12623800D01*
X4749800Y-12522200D02*
X4648200Y-12623800D01*
X4734921Y-12608921D02*
X4734921Y-12537079D01*
X4663079Y-12537079D01*
X4663079Y-12608921D01*
X4734921Y-12608921D01*
X4648200Y-12776200D02*
X4749800Y-12877800D01*
X4749800Y-12776200D02*
X4648200Y-12877800D01*
X4734921Y-12862921D02*
X4734921Y-12791079D01*
X4663079Y-12791079D01*
X4663079Y-12862921D01*
X4734921Y-12862921D01*
X4648200Y-13030200D02*
X4749800Y-13131800D01*
X4749800Y-13030200D02*
X4648200Y-13131800D01*
X4734921Y-13116921D02*
X4734921Y-13045079D01*
X4663079Y-13045079D01*
X4663079Y-13116921D01*
X4734921Y-13116921D01*
X4648200Y-13284200D02*
X4749800Y-13385800D01*
X4749800Y-13284200D02*
X4648200Y-13385800D01*
X4734921Y-13370921D02*
X4734921Y-13299079D01*
X4663079Y-13299079D01*
X4663079Y-13370921D01*
X4734921Y-13370921D01*
X5283200Y-8712200D02*
X5384800Y-8813800D01*
X5384800Y-8712200D02*
X5283200Y-8813800D01*
X5369921Y-8798921D02*
X5369921Y-8727079D01*
X5298079Y-8727079D01*
X5298079Y-8798921D01*
X5369921Y-8798921D01*
X5537200Y-8712200D02*
X5638800Y-8813800D01*
X5638800Y-8712200D02*
X5537200Y-8813800D01*
X5623921Y-8798921D02*
X5623921Y-8727079D01*
X5552079Y-8727079D01*
X5552079Y-8798921D01*
X5623921Y-8798921D01*
X10490200Y-8712200D02*
X10591800Y-8813800D01*
X10591800Y-8712200D02*
X10490200Y-8813800D01*
X10576921Y-8798921D02*
X10576921Y-8727079D01*
X10505079Y-8727079D01*
X10505079Y-8798921D01*
X10576921Y-8798921D01*
X10490200Y-8966200D02*
X10591800Y-9067800D01*
X10591800Y-8966200D02*
X10490200Y-9067800D01*
X10576921Y-9052921D02*
X10576921Y-8981079D01*
X10505079Y-8981079D01*
X10505079Y-9052921D01*
X10576921Y-9052921D01*
X10490200Y-9220200D02*
X10591800Y-9321800D01*
X10591800Y-9220200D02*
X10490200Y-9321800D01*
X10576921Y-9306921D02*
X10576921Y-9235079D01*
X10505079Y-9235079D01*
X10505079Y-9306921D01*
X10576921Y-9306921D01*
X10490200Y-9474200D02*
X10591800Y-9575800D01*
X10591800Y-9474200D02*
X10490200Y-9575800D01*
X10576921Y-9560921D02*
X10576921Y-9489079D01*
X10505079Y-9489079D01*
X10505079Y-9560921D01*
X10576921Y-9560921D01*
X10490200Y-9728200D02*
X10591800Y-9829800D01*
X10591800Y-9728200D02*
X10490200Y-9829800D01*
X10576921Y-9814921D02*
X10576921Y-9743079D01*
X10505079Y-9743079D01*
X10505079Y-9814921D01*
X10576921Y-9814921D01*
X10490200Y-9982200D02*
X10591800Y-10083800D01*
X10591800Y-9982200D02*
X10490200Y-10083800D01*
X10576921Y-10068921D02*
X10576921Y-9997079D01*
X10505079Y-9997079D01*
X10505079Y-10068921D01*
X10576921Y-10068921D01*
X10490200Y-10236200D02*
X10591800Y-10337800D01*
X10591800Y-10236200D02*
X10490200Y-10337800D01*
X10576921Y-10322921D02*
X10576921Y-10251079D01*
X10505079Y-10251079D01*
X10505079Y-10322921D01*
X10576921Y-10322921D01*
X10490200Y-10490200D02*
X10591800Y-10591800D01*
X10591800Y-10490200D02*
X10490200Y-10591800D01*
X10576921Y-10576921D02*
X10576921Y-10505079D01*
X10505079Y-10505079D01*
X10505079Y-10576921D01*
X10576921Y-10576921D01*
X10490200Y-10744200D02*
X10591800Y-10845800D01*
X10591800Y-10744200D02*
X10490200Y-10845800D01*
X10576921Y-10830921D02*
X10576921Y-10759079D01*
X10505079Y-10759079D01*
X10505079Y-10830921D01*
X10576921Y-10830921D01*
X10490200Y-10998200D02*
X10591800Y-11099800D01*
X10591800Y-10998200D02*
X10490200Y-11099800D01*
X10576921Y-11084921D02*
X10576921Y-11013079D01*
X10505079Y-11013079D01*
X10505079Y-11084921D01*
X10576921Y-11084921D01*
X10490200Y-11252200D02*
X10591800Y-11353800D01*
X10591800Y-11252200D02*
X10490200Y-11353800D01*
X10576921Y-11338921D02*
X10576921Y-11267079D01*
X10505079Y-11267079D01*
X10505079Y-11338921D01*
X10576921Y-11338921D01*
X10490200Y-11506200D02*
X10591800Y-11607800D01*
X10591800Y-11506200D02*
X10490200Y-11607800D01*
X10576921Y-11592921D02*
X10576921Y-11521079D01*
X10505079Y-11521079D01*
X10505079Y-11592921D01*
X10576921Y-11592921D01*
X10490200Y-11760200D02*
X10591800Y-11861800D01*
X10591800Y-11760200D02*
X10490200Y-11861800D01*
X10576921Y-11846921D02*
X10576921Y-11775079D01*
X10505079Y-11775079D01*
X10505079Y-11846921D01*
X10576921Y-11846921D01*
X10490200Y-12014200D02*
X10591800Y-12115800D01*
X10591800Y-12014200D02*
X10490200Y-12115800D01*
X10576921Y-12100921D02*
X10576921Y-12029079D01*
X10505079Y-12029079D01*
X10505079Y-12100921D01*
X10576921Y-12100921D01*
X10490200Y-12268200D02*
X10591800Y-12369800D01*
X10591800Y-12268200D02*
X10490200Y-12369800D01*
X10576921Y-12354921D02*
X10576921Y-12283079D01*
X10505079Y-12283079D01*
X10505079Y-12354921D01*
X10576921Y-12354921D01*
X10490200Y-12522200D02*
X10591800Y-12623800D01*
X10591800Y-12522200D02*
X10490200Y-12623800D01*
X10576921Y-12608921D02*
X10576921Y-12537079D01*
X10505079Y-12537079D01*
X10505079Y-12608921D01*
X10576921Y-12608921D01*
X10490200Y-12776200D02*
X10591800Y-12877800D01*
X10591800Y-12776200D02*
X10490200Y-12877800D01*
X10576921Y-12862921D02*
X10576921Y-12791079D01*
X10505079Y-12791079D01*
X10505079Y-12862921D01*
X10576921Y-12862921D01*
X10490200Y-13030200D02*
X10591800Y-13131800D01*
X10591800Y-13030200D02*
X10490200Y-13131800D01*
X10576921Y-13116921D02*
X10576921Y-13045079D01*
X10505079Y-13045079D01*
X10505079Y-13116921D01*
X10576921Y-13116921D01*
X10490200Y-13284200D02*
X10591800Y-13385800D01*
X10591800Y-13284200D02*
X10490200Y-13385800D01*
X10576921Y-13370921D02*
X10576921Y-13299079D01*
X10505079Y-13299079D01*
X10505079Y-13370921D01*
X10576921Y-13370921D01*
D13*
X4708929Y-14062214D02*
X4708929Y-13762214D01*
X4780357Y-13762214D01*
X4823214Y-13776500D01*
X4851786Y-13805071D01*
X4866071Y-13833643D01*
X4880357Y-13890786D01*
X4880357Y-13933643D01*
X4866071Y-13990786D01*
X4851786Y-14019357D01*
X4823214Y-14047929D01*
X4780357Y-14062214D01*
X4708929Y-14062214D01*
X5008929Y-14062214D02*
X5008929Y-13862214D01*
X5008929Y-13919357D02*
X5023214Y-13890786D01*
X5037500Y-13876500D01*
X5066071Y-13862214D01*
X5094643Y-13862214D01*
X5194643Y-14062214D02*
X5194643Y-13862214D01*
X5194643Y-13762214D02*
X5180357Y-13776500D01*
X5194643Y-13790786D01*
X5208929Y-13776500D01*
X5194643Y-13762214D01*
X5194643Y-13790786D01*
X5380357Y-14062214D02*
X5351786Y-14047929D01*
X5337500Y-14019357D01*
X5337500Y-13762214D01*
X5537500Y-14062214D02*
X5508929Y-14047929D01*
X5494643Y-14019357D01*
X5494643Y-13762214D01*
X5880357Y-14062214D02*
X5880357Y-13762214D01*
X5980357Y-13976500D01*
X6080357Y-13762214D01*
X6080357Y-14062214D01*
X6351786Y-14062214D02*
X6351786Y-13905071D01*
X6337500Y-13876500D01*
X6308928Y-13862214D01*
X6251786Y-13862214D01*
X6223214Y-13876500D01*
X6351786Y-14047929D02*
X6323214Y-14062214D01*
X6251786Y-14062214D01*
X6223214Y-14047929D01*
X6208928Y-14019357D01*
X6208928Y-13990786D01*
X6223214Y-13962214D01*
X6251786Y-13947929D01*
X6323214Y-13947929D01*
X6351786Y-13933643D01*
X6494643Y-13862214D02*
X6494643Y-14162214D01*
X6494643Y-13876500D02*
X6523214Y-13862214D01*
X6580357Y-13862214D01*
X6608928Y-13876500D01*
X6623214Y-13890786D01*
X6637500Y-13919357D01*
X6637500Y-14005071D01*
X6623214Y-14033643D01*
X6608928Y-14047929D01*
X6580357Y-14062214D01*
X6523214Y-14062214D01*
X6494643Y-14047929D01*
X6766071Y-14033643D02*
X6780357Y-14047929D01*
X6766071Y-14062214D01*
X6751786Y-14047929D01*
X6766071Y-14033643D01*
X6766071Y-14062214D01*
X6766071Y-13876500D02*
X6780357Y-13890786D01*
X6766071Y-13905071D01*
X6751786Y-13890786D01*
X6766071Y-13876500D01*
X6766071Y-13905071D01*
X4397500Y-14536500D02*
X4437500Y-14576500D01*
X4437500Y-14536500D02*
X4397500Y-14576500D01*
X4766071Y-14392214D02*
X4794643Y-14392214D01*
X4823214Y-14406500D01*
X4837500Y-14420786D01*
X4851786Y-14449357D01*
X4866071Y-14506500D01*
X4866071Y-14577929D01*
X4851786Y-14635071D01*
X4837500Y-14663643D01*
X4823214Y-14677929D01*
X4794643Y-14692214D01*
X4766071Y-14692214D01*
X4737500Y-14677929D01*
X4723214Y-14663643D01*
X4708929Y-14635071D01*
X4694643Y-14577929D01*
X4694643Y-14506500D01*
X4708929Y-14449357D01*
X4723214Y-14420786D01*
X4737500Y-14406500D01*
X4766071Y-14392214D01*
X4994643Y-14663643D02*
X5008929Y-14677929D01*
X4994643Y-14692214D01*
X4980357Y-14677929D01*
X4994643Y-14663643D01*
X4994643Y-14692214D01*
X5266071Y-14492214D02*
X5266071Y-14692214D01*
X5194643Y-14377929D02*
X5123214Y-14592214D01*
X5308928Y-14592214D01*
X5480357Y-14392214D02*
X5508929Y-14392214D01*
X5537500Y-14406500D01*
X5551786Y-14420786D01*
X5566071Y-14449357D01*
X5580357Y-14506500D01*
X5580357Y-14577929D01*
X5566071Y-14635071D01*
X5551786Y-14663643D01*
X5537500Y-14677929D01*
X5508929Y-14692214D01*
X5480357Y-14692214D01*
X5451786Y-14677929D01*
X5437500Y-14663643D01*
X5423214Y-14635071D01*
X5408929Y-14577929D01*
X5408929Y-14506500D01*
X5423214Y-14449357D01*
X5437500Y-14420786D01*
X5451786Y-14406500D01*
X5480357Y-14392214D01*
X5708928Y-14692214D02*
X5708928Y-14492214D01*
X5708928Y-14520786D02*
X5723214Y-14506500D01*
X5751786Y-14492214D01*
X5794643Y-14492214D01*
X5823214Y-14506500D01*
X5837500Y-14535071D01*
X5837500Y-14692214D01*
X5837500Y-14535071D02*
X5851786Y-14506500D01*
X5880357Y-14492214D01*
X5923214Y-14492214D01*
X5951786Y-14506500D01*
X5966071Y-14535071D01*
X5966071Y-14692214D01*
X6108928Y-14692214D02*
X6108928Y-14492214D01*
X6108928Y-14520786D02*
X6123214Y-14506500D01*
X6151786Y-14492214D01*
X6194643Y-14492214D01*
X6223214Y-14506500D01*
X6237500Y-14535071D01*
X6237500Y-14692214D01*
X6237500Y-14535071D02*
X6251786Y-14506500D01*
X6280357Y-14492214D01*
X6323214Y-14492214D01*
X6351786Y-14506500D01*
X6366071Y-14535071D01*
X6366071Y-14692214D01*
X6951786Y-14377929D02*
X6694643Y-14763643D01*
X7337500Y-14392214D02*
X7366071Y-14392214D01*
X7394643Y-14406500D01*
X7408928Y-14420786D01*
X7423214Y-14449357D01*
X7437500Y-14506500D01*
X7437500Y-14577929D01*
X7423214Y-14635071D01*
X7408928Y-14663643D01*
X7394643Y-14677929D01*
X7366071Y-14692214D01*
X7337500Y-14692214D01*
X7308928Y-14677929D01*
X7294643Y-14663643D01*
X7280357Y-14635071D01*
X7266071Y-14577929D01*
X7266071Y-14506500D01*
X7280357Y-14449357D01*
X7294643Y-14420786D01*
X7308928Y-14406500D01*
X7337500Y-14392214D01*
X7566071Y-14663643D02*
X7580357Y-14677929D01*
X7566071Y-14692214D01*
X7551786Y-14677929D01*
X7566071Y-14663643D01*
X7566071Y-14692214D01*
X7766071Y-14392214D02*
X7794643Y-14392214D01*
X7823214Y-14406500D01*
X7837500Y-14420786D01*
X7851785Y-14449357D01*
X7866071Y-14506500D01*
X7866071Y-14577929D01*
X7851785Y-14635071D01*
X7837500Y-14663643D01*
X7823214Y-14677929D01*
X7794643Y-14692214D01*
X7766071Y-14692214D01*
X7737500Y-14677929D01*
X7723214Y-14663643D01*
X7708928Y-14635071D01*
X7694643Y-14577929D01*
X7694643Y-14506500D01*
X7708928Y-14449357D01*
X7723214Y-14420786D01*
X7737500Y-14406500D01*
X7766071Y-14392214D01*
X8151785Y-14692214D02*
X7980357Y-14692214D01*
X8066071Y-14692214D02*
X8066071Y-14392214D01*
X8037500Y-14435071D01*
X8008928Y-14463643D01*
X7980357Y-14477929D01*
X8408928Y-14392214D02*
X8351785Y-14392214D01*
X8323214Y-14406500D01*
X8308928Y-14420786D01*
X8280357Y-14463643D01*
X8266071Y-14520786D01*
X8266071Y-14635071D01*
X8280357Y-14663643D01*
X8294643Y-14677929D01*
X8323214Y-14692214D01*
X8380357Y-14692214D01*
X8408928Y-14677929D01*
X8423214Y-14663643D01*
X8437500Y-14635071D01*
X8437500Y-14563643D01*
X8423214Y-14535071D01*
X8408928Y-14520786D01*
X8380357Y-14506500D01*
X8323214Y-14506500D01*
X8294643Y-14520786D01*
X8280357Y-14535071D01*
X8266071Y-14563643D01*
X8551786Y-14392214D02*
X8551786Y-14449357D01*
X8666071Y-14392214D02*
X8666071Y-14449357D01*
X9108928Y-14806500D02*
X9094643Y-14792214D01*
X9066071Y-14749357D01*
X9051786Y-14720786D01*
X9037500Y-14677929D01*
X9023214Y-14606500D01*
X9023214Y-14549357D01*
X9037500Y-14477929D01*
X9051786Y-14435071D01*
X9066071Y-14406500D01*
X9094643Y-14363643D01*
X9108928Y-14349357D01*
X9380357Y-14692214D02*
X9208928Y-14692214D01*
X9294643Y-14692214D02*
X9294643Y-14392214D01*
X9266071Y-14435071D01*
X9237500Y-14463643D01*
X9208928Y-14477929D01*
X9480357Y-14392214D02*
X9666071Y-14392214D01*
X9566071Y-14506500D01*
X9608928Y-14506500D01*
X9637500Y-14520786D01*
X9651786Y-14535071D01*
X9666071Y-14563643D01*
X9666071Y-14635071D01*
X9651786Y-14663643D01*
X9637500Y-14677929D01*
X9608928Y-14692214D01*
X9523214Y-14692214D01*
X9494643Y-14677929D01*
X9480357Y-14663643D01*
X10023214Y-14692214D02*
X10023214Y-14392214D01*
X10151786Y-14692214D02*
X10151786Y-14535071D01*
X10137500Y-14506500D01*
X10108928Y-14492214D01*
X10066071Y-14492214D01*
X10037500Y-14506500D01*
X10023214Y-14520786D01*
X10337500Y-14692214D02*
X10308928Y-14677929D01*
X10294643Y-14663643D01*
X10280357Y-14635071D01*
X10280357Y-14549357D01*
X10294643Y-14520786D01*
X10308928Y-14506500D01*
X10337500Y-14492214D01*
X10380357Y-14492214D01*
X10408928Y-14506500D01*
X10423214Y-14520786D01*
X10437500Y-14549357D01*
X10437500Y-14635071D01*
X10423214Y-14663643D01*
X10408928Y-14677929D01*
X10380357Y-14692214D01*
X10337500Y-14692214D01*
X10608928Y-14692214D02*
X10580357Y-14677929D01*
X10566071Y-14649357D01*
X10566071Y-14392214D01*
X10837500Y-14677929D02*
X10808929Y-14692214D01*
X10751786Y-14692214D01*
X10723214Y-14677929D01*
X10708929Y-14649357D01*
X10708929Y-14535071D01*
X10723214Y-14506500D01*
X10751786Y-14492214D01*
X10808929Y-14492214D01*
X10837500Y-14506500D01*
X10851786Y-14535071D01*
X10851786Y-14563643D01*
X10708929Y-14592214D01*
X10966071Y-14677929D02*
X10994643Y-14692214D01*
X11051786Y-14692214D01*
X11080357Y-14677929D01*
X11094643Y-14649357D01*
X11094643Y-14635071D01*
X11080357Y-14606500D01*
X11051786Y-14592214D01*
X11008929Y-14592214D01*
X10980357Y-14577929D01*
X10966071Y-14549357D01*
X10966071Y-14535071D01*
X10980357Y-14506500D01*
X11008929Y-14492214D01*
X11051786Y-14492214D01*
X11080357Y-14506500D01*
X11194643Y-14806500D02*
X11208928Y-14792214D01*
X11237500Y-14749357D01*
X11251786Y-14720786D01*
X11266071Y-14677929D01*
X11280357Y-14606500D01*
X11280357Y-14549357D01*
X11266071Y-14477929D01*
X11251786Y-14435071D01*
X11237500Y-14406500D01*
X11208928Y-14363643D01*
X11194643Y-14349357D01*
X4437500Y-14952500D02*
G75*
G03X4437500Y-14952500I-35052J0D01*
G01*
X4766071Y-14788214D02*
X4794643Y-14788214D01*
X4823214Y-14802500D01*
X4837500Y-14816786D01*
X4851786Y-14845357D01*
X4866071Y-14902500D01*
X4866071Y-14973929D01*
X4851786Y-15031071D01*
X4837500Y-15059643D01*
X4823214Y-15073929D01*
X4794643Y-15088214D01*
X4766071Y-15088214D01*
X4737500Y-15073929D01*
X4723214Y-15059643D01*
X4708929Y-15031071D01*
X4694643Y-14973929D01*
X4694643Y-14902500D01*
X4708929Y-14845357D01*
X4723214Y-14816786D01*
X4737500Y-14802500D01*
X4766071Y-14788214D01*
X4994643Y-15059643D02*
X5008929Y-15073929D01*
X4994643Y-15088214D01*
X4980357Y-15073929D01*
X4994643Y-15059643D01*
X4994643Y-15088214D01*
X5108928Y-14788214D02*
X5308928Y-14788214D01*
X5180357Y-15088214D01*
X5480357Y-14788214D02*
X5508929Y-14788214D01*
X5537500Y-14802500D01*
X5551786Y-14816786D01*
X5566071Y-14845357D01*
X5580357Y-14902500D01*
X5580357Y-14973929D01*
X5566071Y-15031071D01*
X5551786Y-15059643D01*
X5537500Y-15073929D01*
X5508929Y-15088214D01*
X5480357Y-15088214D01*
X5451786Y-15073929D01*
X5437500Y-15059643D01*
X5423214Y-15031071D01*
X5408929Y-14973929D01*
X5408929Y-14902500D01*
X5423214Y-14845357D01*
X5437500Y-14816786D01*
X5451786Y-14802500D01*
X5480357Y-14788214D01*
X5708928Y-15088214D02*
X5708928Y-14888214D01*
X5708928Y-14916786D02*
X5723214Y-14902500D01*
X5751786Y-14888214D01*
X5794643Y-14888214D01*
X5823214Y-14902500D01*
X5837500Y-14931071D01*
X5837500Y-15088214D01*
X5837500Y-14931071D02*
X5851786Y-14902500D01*
X5880357Y-14888214D01*
X5923214Y-14888214D01*
X5951786Y-14902500D01*
X5966071Y-14931071D01*
X5966071Y-15088214D01*
X6108928Y-15088214D02*
X6108928Y-14888214D01*
X6108928Y-14916786D02*
X6123214Y-14902500D01*
X6151786Y-14888214D01*
X6194643Y-14888214D01*
X6223214Y-14902500D01*
X6237500Y-14931071D01*
X6237500Y-15088214D01*
X6237500Y-14931071D02*
X6251786Y-14902500D01*
X6280357Y-14888214D01*
X6323214Y-14888214D01*
X6351786Y-14902500D01*
X6366071Y-14931071D01*
X6366071Y-15088214D01*
X6951786Y-14773929D02*
X6694643Y-15159643D01*
X7337500Y-14788214D02*
X7366071Y-14788214D01*
X7394643Y-14802500D01*
X7408928Y-14816786D01*
X7423214Y-14845357D01*
X7437500Y-14902500D01*
X7437500Y-14973929D01*
X7423214Y-15031071D01*
X7408928Y-15059643D01*
X7394643Y-15073929D01*
X7366071Y-15088214D01*
X7337500Y-15088214D01*
X7308928Y-15073929D01*
X7294643Y-15059643D01*
X7280357Y-15031071D01*
X7266071Y-14973929D01*
X7266071Y-14902500D01*
X7280357Y-14845357D01*
X7294643Y-14816786D01*
X7308928Y-14802500D01*
X7337500Y-14788214D01*
X7566071Y-15059643D02*
X7580357Y-15073929D01*
X7566071Y-15088214D01*
X7551786Y-15073929D01*
X7566071Y-15059643D01*
X7566071Y-15088214D01*
X7766071Y-14788214D02*
X7794643Y-14788214D01*
X7823214Y-14802500D01*
X7837500Y-14816786D01*
X7851785Y-14845357D01*
X7866071Y-14902500D01*
X7866071Y-14973929D01*
X7851785Y-15031071D01*
X7837500Y-15059643D01*
X7823214Y-15073929D01*
X7794643Y-15088214D01*
X7766071Y-15088214D01*
X7737500Y-15073929D01*
X7723214Y-15059643D01*
X7708928Y-15031071D01*
X7694643Y-14973929D01*
X7694643Y-14902500D01*
X7708928Y-14845357D01*
X7723214Y-14816786D01*
X7737500Y-14802500D01*
X7766071Y-14788214D01*
X7980357Y-14816786D02*
X7994643Y-14802500D01*
X8023214Y-14788214D01*
X8094643Y-14788214D01*
X8123214Y-14802500D01*
X8137500Y-14816786D01*
X8151785Y-14845357D01*
X8151785Y-14873929D01*
X8137500Y-14916786D01*
X7966071Y-15088214D01*
X8151785Y-15088214D01*
X8323214Y-14916786D02*
X8294643Y-14902500D01*
X8280357Y-14888214D01*
X8266071Y-14859643D01*
X8266071Y-14845357D01*
X8280357Y-14816786D01*
X8294643Y-14802500D01*
X8323214Y-14788214D01*
X8380357Y-14788214D01*
X8408928Y-14802500D01*
X8423214Y-14816786D01*
X8437500Y-14845357D01*
X8437500Y-14859643D01*
X8423214Y-14888214D01*
X8408928Y-14902500D01*
X8380357Y-14916786D01*
X8323214Y-14916786D01*
X8294643Y-14931071D01*
X8280357Y-14945357D01*
X8266071Y-14973929D01*
X8266071Y-15031071D01*
X8280357Y-15059643D01*
X8294643Y-15073929D01*
X8323214Y-15088214D01*
X8380357Y-15088214D01*
X8408928Y-15073929D01*
X8423214Y-15059643D01*
X8437500Y-15031071D01*
X8437500Y-14973929D01*
X8423214Y-14945357D01*
X8408928Y-14931071D01*
X8380357Y-14916786D01*
X8551786Y-14788214D02*
X8551786Y-14845357D01*
X8666071Y-14788214D02*
X8666071Y-14845357D01*
X9108928Y-15202500D02*
X9094643Y-15188214D01*
X9066071Y-15145357D01*
X9051786Y-15116786D01*
X9037500Y-15073929D01*
X9023214Y-15002500D01*
X9023214Y-14945357D01*
X9037500Y-14873929D01*
X9051786Y-14831071D01*
X9066071Y-14802500D01*
X9094643Y-14759643D01*
X9108928Y-14745357D01*
X9351786Y-14888214D02*
X9351786Y-15088214D01*
X9280357Y-14773929D02*
X9208928Y-14988214D01*
X9394643Y-14988214D01*
X9737500Y-15088214D02*
X9737500Y-14788214D01*
X9866071Y-15088214D02*
X9866071Y-14931071D01*
X9851786Y-14902500D01*
X9823214Y-14888214D01*
X9780357Y-14888214D01*
X9751786Y-14902500D01*
X9737500Y-14916786D01*
X10051786Y-15088214D02*
X10023214Y-15073929D01*
X10008928Y-15059643D01*
X9994643Y-15031071D01*
X9994643Y-14945357D01*
X10008928Y-14916786D01*
X10023214Y-14902500D01*
X10051786Y-14888214D01*
X10094643Y-14888214D01*
X10123214Y-14902500D01*
X10137500Y-14916786D01*
X10151786Y-14945357D01*
X10151786Y-15031071D01*
X10137500Y-15059643D01*
X10123214Y-15073929D01*
X10094643Y-15088214D01*
X10051786Y-15088214D01*
X10323214Y-15088214D02*
X10294643Y-15073929D01*
X10280357Y-15045357D01*
X10280357Y-14788214D01*
X10551786Y-15073929D02*
X10523214Y-15088214D01*
X10466071Y-15088214D01*
X10437500Y-15073929D01*
X10423214Y-15045357D01*
X10423214Y-14931071D01*
X10437500Y-14902500D01*
X10466071Y-14888214D01*
X10523214Y-14888214D01*
X10551786Y-14902500D01*
X10566071Y-14931071D01*
X10566071Y-14959643D01*
X10423214Y-14988214D01*
X10680357Y-15073929D02*
X10708929Y-15088214D01*
X10766071Y-15088214D01*
X10794643Y-15073929D01*
X10808929Y-15045357D01*
X10808929Y-15031071D01*
X10794643Y-15002500D01*
X10766071Y-14988214D01*
X10723214Y-14988214D01*
X10694643Y-14973929D01*
X10680357Y-14945357D01*
X10680357Y-14931071D01*
X10694643Y-14902500D01*
X10723214Y-14888214D01*
X10766071Y-14888214D01*
X10794643Y-14902500D01*
X10908928Y-15202500D02*
X10923214Y-15188214D01*
X10951786Y-15145357D01*
X10966071Y-15116786D01*
X10980357Y-15073929D01*
X10994643Y-15002500D01*
X10994643Y-14945357D01*
X10980357Y-14873929D01*
X10966071Y-14831071D01*
X10951786Y-14802500D01*
X10923214Y-14759643D01*
X10908928Y-14745357D01*
X4397500Y-15308500D02*
X4397500Y-15388500D01*
X4357500Y-15348500D02*
X4437500Y-15348500D01*
X4766071Y-15184214D02*
X4794643Y-15184214D01*
X4823214Y-15198500D01*
X4837500Y-15212786D01*
X4851786Y-15241357D01*
X4866071Y-15298500D01*
X4866071Y-15369929D01*
X4851786Y-15427071D01*
X4837500Y-15455643D01*
X4823214Y-15469929D01*
X4794643Y-15484214D01*
X4766071Y-15484214D01*
X4737500Y-15469929D01*
X4723214Y-15455643D01*
X4708929Y-15427071D01*
X4694643Y-15369929D01*
X4694643Y-15298500D01*
X4708929Y-15241357D01*
X4723214Y-15212786D01*
X4737500Y-15198500D01*
X4766071Y-15184214D01*
X4994643Y-15455643D02*
X5008929Y-15469929D01*
X4994643Y-15484214D01*
X4980357Y-15469929D01*
X4994643Y-15455643D01*
X4994643Y-15484214D01*
X5180357Y-15312786D02*
X5151786Y-15298500D01*
X5137500Y-15284214D01*
X5123214Y-15255643D01*
X5123214Y-15241357D01*
X5137500Y-15212786D01*
X5151786Y-15198500D01*
X5180357Y-15184214D01*
X5237500Y-15184214D01*
X5266071Y-15198500D01*
X5280357Y-15212786D01*
X5294643Y-15241357D01*
X5294643Y-15255643D01*
X5280357Y-15284214D01*
X5266071Y-15298500D01*
X5237500Y-15312786D01*
X5180357Y-15312786D01*
X5151786Y-15327071D01*
X5137500Y-15341357D01*
X5123214Y-15369929D01*
X5123214Y-15427071D01*
X5137500Y-15455643D01*
X5151786Y-15469929D01*
X5180357Y-15484214D01*
X5237500Y-15484214D01*
X5266071Y-15469929D01*
X5280357Y-15455643D01*
X5294643Y-15427071D01*
X5294643Y-15369929D01*
X5280357Y-15341357D01*
X5266071Y-15327071D01*
X5237500Y-15312786D01*
X5480357Y-15184214D02*
X5508929Y-15184214D01*
X5537500Y-15198500D01*
X5551786Y-15212786D01*
X5566071Y-15241357D01*
X5580357Y-15298500D01*
X5580357Y-15369929D01*
X5566071Y-15427071D01*
X5551786Y-15455643D01*
X5537500Y-15469929D01*
X5508929Y-15484214D01*
X5480357Y-15484214D01*
X5451786Y-15469929D01*
X5437500Y-15455643D01*
X5423214Y-15427071D01*
X5408929Y-15369929D01*
X5408929Y-15298500D01*
X5423214Y-15241357D01*
X5437500Y-15212786D01*
X5451786Y-15198500D01*
X5480357Y-15184214D01*
X5708928Y-15484214D02*
X5708928Y-15284214D01*
X5708928Y-15312786D02*
X5723214Y-15298500D01*
X5751786Y-15284214D01*
X5794643Y-15284214D01*
X5823214Y-15298500D01*
X5837500Y-15327071D01*
X5837500Y-15484214D01*
X5837500Y-15327071D02*
X5851786Y-15298500D01*
X5880357Y-15284214D01*
X5923214Y-15284214D01*
X5951786Y-15298500D01*
X5966071Y-15327071D01*
X5966071Y-15484214D01*
X6108928Y-15484214D02*
X6108928Y-15284214D01*
X6108928Y-15312786D02*
X6123214Y-15298500D01*
X6151786Y-15284214D01*
X6194643Y-15284214D01*
X6223214Y-15298500D01*
X6237500Y-15327071D01*
X6237500Y-15484214D01*
X6237500Y-15327071D02*
X6251786Y-15298500D01*
X6280357Y-15284214D01*
X6323214Y-15284214D01*
X6351786Y-15298500D01*
X6366071Y-15327071D01*
X6366071Y-15484214D01*
X6951786Y-15169929D02*
X6694643Y-15555643D01*
X7337500Y-15184214D02*
X7366071Y-15184214D01*
X7394643Y-15198500D01*
X7408928Y-15212786D01*
X7423214Y-15241357D01*
X7437500Y-15298500D01*
X7437500Y-15369929D01*
X7423214Y-15427071D01*
X7408928Y-15455643D01*
X7394643Y-15469929D01*
X7366071Y-15484214D01*
X7337500Y-15484214D01*
X7308928Y-15469929D01*
X7294643Y-15455643D01*
X7280357Y-15427071D01*
X7266071Y-15369929D01*
X7266071Y-15298500D01*
X7280357Y-15241357D01*
X7294643Y-15212786D01*
X7308928Y-15198500D01*
X7337500Y-15184214D01*
X7566071Y-15455643D02*
X7580357Y-15469929D01*
X7566071Y-15484214D01*
X7551786Y-15469929D01*
X7566071Y-15455643D01*
X7566071Y-15484214D01*
X7766071Y-15184214D02*
X7794643Y-15184214D01*
X7823214Y-15198500D01*
X7837500Y-15212786D01*
X7851785Y-15241357D01*
X7866071Y-15298500D01*
X7866071Y-15369929D01*
X7851785Y-15427071D01*
X7837500Y-15455643D01*
X7823214Y-15469929D01*
X7794643Y-15484214D01*
X7766071Y-15484214D01*
X7737500Y-15469929D01*
X7723214Y-15455643D01*
X7708928Y-15427071D01*
X7694643Y-15369929D01*
X7694643Y-15298500D01*
X7708928Y-15241357D01*
X7723214Y-15212786D01*
X7737500Y-15198500D01*
X7766071Y-15184214D01*
X7966071Y-15184214D02*
X8151785Y-15184214D01*
X8051785Y-15298500D01*
X8094643Y-15298500D01*
X8123214Y-15312786D01*
X8137500Y-15327071D01*
X8151785Y-15355643D01*
X8151785Y-15427071D01*
X8137500Y-15455643D01*
X8123214Y-15469929D01*
X8094643Y-15484214D01*
X8008928Y-15484214D01*
X7980357Y-15469929D01*
X7966071Y-15455643D01*
X8437500Y-15484214D02*
X8266071Y-15484214D01*
X8351785Y-15484214D02*
X8351785Y-15184214D01*
X8323214Y-15227071D01*
X8294643Y-15255643D01*
X8266071Y-15269929D01*
X8551786Y-15184214D02*
X8551786Y-15241357D01*
X8666071Y-15184214D02*
X8666071Y-15241357D01*
X9108928Y-15598500D02*
X9094643Y-15584214D01*
X9066071Y-15541357D01*
X9051786Y-15512786D01*
X9037500Y-15469929D01*
X9023214Y-15398500D01*
X9023214Y-15341357D01*
X9037500Y-15269929D01*
X9051786Y-15227071D01*
X9066071Y-15198500D01*
X9094643Y-15155643D01*
X9108928Y-15141357D01*
X9208928Y-15212786D02*
X9223214Y-15198500D01*
X9251786Y-15184214D01*
X9323214Y-15184214D01*
X9351786Y-15198500D01*
X9366071Y-15212786D01*
X9380357Y-15241357D01*
X9380357Y-15269929D01*
X9366071Y-15312786D01*
X9194643Y-15484214D01*
X9380357Y-15484214D01*
X9737500Y-15484214D02*
X9737500Y-15184214D01*
X9866071Y-15484214D02*
X9866071Y-15327071D01*
X9851786Y-15298500D01*
X9823214Y-15284214D01*
X9780357Y-15284214D01*
X9751786Y-15298500D01*
X9737500Y-15312786D01*
X10051786Y-15484214D02*
X10023214Y-15469929D01*
X10008928Y-15455643D01*
X9994643Y-15427071D01*
X9994643Y-15341357D01*
X10008928Y-15312786D01*
X10023214Y-15298500D01*
X10051786Y-15284214D01*
X10094643Y-15284214D01*
X10123214Y-15298500D01*
X10137500Y-15312786D01*
X10151786Y-15341357D01*
X10151786Y-15427071D01*
X10137500Y-15455643D01*
X10123214Y-15469929D01*
X10094643Y-15484214D01*
X10051786Y-15484214D01*
X10323214Y-15484214D02*
X10294643Y-15469929D01*
X10280357Y-15441357D01*
X10280357Y-15184214D01*
X10551786Y-15469929D02*
X10523214Y-15484214D01*
X10466071Y-15484214D01*
X10437500Y-15469929D01*
X10423214Y-15441357D01*
X10423214Y-15327071D01*
X10437500Y-15298500D01*
X10466071Y-15284214D01*
X10523214Y-15284214D01*
X10551786Y-15298500D01*
X10566071Y-15327071D01*
X10566071Y-15355643D01*
X10423214Y-15384214D01*
X10680357Y-15469929D02*
X10708929Y-15484214D01*
X10766071Y-15484214D01*
X10794643Y-15469929D01*
X10808929Y-15441357D01*
X10808929Y-15427071D01*
X10794643Y-15398500D01*
X10766071Y-15384214D01*
X10723214Y-15384214D01*
X10694643Y-15369929D01*
X10680357Y-15341357D01*
X10680357Y-15327071D01*
X10694643Y-15298500D01*
X10723214Y-15284214D01*
X10766071Y-15284214D01*
X10794643Y-15298500D01*
X10908928Y-15598500D02*
X10923214Y-15584214D01*
X10951786Y-15541357D01*
X10966071Y-15512786D01*
X10980357Y-15469929D01*
X10994643Y-15398500D01*
X10994643Y-15341357D01*
X10980357Y-15269929D01*
X10966071Y-15227071D01*
X10951786Y-15198500D01*
X10923214Y-15155643D01*
X10908928Y-15141357D01*
X4425597Y-15773237D02*
X4425597Y-15715763D01*
X4368123Y-15715763D01*
X4368123Y-15773237D01*
X4425597Y-15773237D01*
X4766071Y-15580214D02*
X4794643Y-15580214D01*
X4823214Y-15594500D01*
X4837500Y-15608786D01*
X4851786Y-15637357D01*
X4866071Y-15694500D01*
X4866071Y-15765929D01*
X4851786Y-15823071D01*
X4837500Y-15851643D01*
X4823214Y-15865929D01*
X4794643Y-15880214D01*
X4766071Y-15880214D01*
X4737500Y-15865929D01*
X4723214Y-15851643D01*
X4708929Y-15823071D01*
X4694643Y-15765929D01*
X4694643Y-15694500D01*
X4708929Y-15637357D01*
X4723214Y-15608786D01*
X4737500Y-15594500D01*
X4766071Y-15580214D01*
X4994643Y-15851643D02*
X5008929Y-15865929D01*
X4994643Y-15880214D01*
X4980357Y-15865929D01*
X4994643Y-15851643D01*
X4994643Y-15880214D01*
X5180357Y-15708786D02*
X5151786Y-15694500D01*
X5137500Y-15680214D01*
X5123214Y-15651643D01*
X5123214Y-15637357D01*
X5137500Y-15608786D01*
X5151786Y-15594500D01*
X5180357Y-15580214D01*
X5237500Y-15580214D01*
X5266071Y-15594500D01*
X5280357Y-15608786D01*
X5294643Y-15637357D01*
X5294643Y-15651643D01*
X5280357Y-15680214D01*
X5266071Y-15694500D01*
X5237500Y-15708786D01*
X5180357Y-15708786D01*
X5151786Y-15723071D01*
X5137500Y-15737357D01*
X5123214Y-15765929D01*
X5123214Y-15823071D01*
X5137500Y-15851643D01*
X5151786Y-15865929D01*
X5180357Y-15880214D01*
X5237500Y-15880214D01*
X5266071Y-15865929D01*
X5280357Y-15851643D01*
X5294643Y-15823071D01*
X5294643Y-15765929D01*
X5280357Y-15737357D01*
X5266071Y-15723071D01*
X5237500Y-15708786D01*
X5580357Y-15880214D02*
X5408929Y-15880214D01*
X5494643Y-15880214D02*
X5494643Y-15580214D01*
X5466071Y-15623071D01*
X5437500Y-15651643D01*
X5408929Y-15665929D01*
X5708928Y-15880214D02*
X5708928Y-15680214D01*
X5708928Y-15708786D02*
X5723214Y-15694500D01*
X5751786Y-15680214D01*
X5794643Y-15680214D01*
X5823214Y-15694500D01*
X5837500Y-15723071D01*
X5837500Y-15880214D01*
X5837500Y-15723071D02*
X5851786Y-15694500D01*
X5880357Y-15680214D01*
X5923214Y-15680214D01*
X5951786Y-15694500D01*
X5966071Y-15723071D01*
X5966071Y-15880214D01*
X6108928Y-15880214D02*
X6108928Y-15680214D01*
X6108928Y-15708786D02*
X6123214Y-15694500D01*
X6151786Y-15680214D01*
X6194643Y-15680214D01*
X6223214Y-15694500D01*
X6237500Y-15723071D01*
X6237500Y-15880214D01*
X6237500Y-15723071D02*
X6251786Y-15694500D01*
X6280357Y-15680214D01*
X6323214Y-15680214D01*
X6351786Y-15694500D01*
X6366071Y-15723071D01*
X6366071Y-15880214D01*
X6951786Y-15565929D02*
X6694643Y-15951643D01*
X7337500Y-15580214D02*
X7366071Y-15580214D01*
X7394643Y-15594500D01*
X7408928Y-15608786D01*
X7423214Y-15637357D01*
X7437500Y-15694500D01*
X7437500Y-15765929D01*
X7423214Y-15823071D01*
X7408928Y-15851643D01*
X7394643Y-15865929D01*
X7366071Y-15880214D01*
X7337500Y-15880214D01*
X7308928Y-15865929D01*
X7294643Y-15851643D01*
X7280357Y-15823071D01*
X7266071Y-15765929D01*
X7266071Y-15694500D01*
X7280357Y-15637357D01*
X7294643Y-15608786D01*
X7308928Y-15594500D01*
X7337500Y-15580214D01*
X7566071Y-15851643D02*
X7580357Y-15865929D01*
X7566071Y-15880214D01*
X7551786Y-15865929D01*
X7566071Y-15851643D01*
X7566071Y-15880214D01*
X7766071Y-15580214D02*
X7794643Y-15580214D01*
X7823214Y-15594500D01*
X7837500Y-15608786D01*
X7851785Y-15637357D01*
X7866071Y-15694500D01*
X7866071Y-15765929D01*
X7851785Y-15823071D01*
X7837500Y-15851643D01*
X7823214Y-15865929D01*
X7794643Y-15880214D01*
X7766071Y-15880214D01*
X7737500Y-15865929D01*
X7723214Y-15851643D01*
X7708928Y-15823071D01*
X7694643Y-15765929D01*
X7694643Y-15694500D01*
X7708928Y-15637357D01*
X7723214Y-15608786D01*
X7737500Y-15594500D01*
X7766071Y-15580214D01*
X7966071Y-15580214D02*
X8151785Y-15580214D01*
X8051785Y-15694500D01*
X8094643Y-15694500D01*
X8123214Y-15708786D01*
X8137500Y-15723071D01*
X8151785Y-15751643D01*
X8151785Y-15823071D01*
X8137500Y-15851643D01*
X8123214Y-15865929D01*
X8094643Y-15880214D01*
X8008928Y-15880214D01*
X7980357Y-15865929D01*
X7966071Y-15851643D01*
X8266071Y-15608786D02*
X8280357Y-15594500D01*
X8308928Y-15580214D01*
X8380357Y-15580214D01*
X8408928Y-15594500D01*
X8423214Y-15608786D01*
X8437500Y-15637357D01*
X8437500Y-15665929D01*
X8423214Y-15708786D01*
X8251785Y-15880214D01*
X8437500Y-15880214D01*
X8551786Y-15580214D02*
X8551786Y-15637357D01*
X8666071Y-15580214D02*
X8666071Y-15637357D01*
X9108928Y-15994500D02*
X9094643Y-15980214D01*
X9066071Y-15937357D01*
X9051786Y-15908786D01*
X9037500Y-15865929D01*
X9023214Y-15794500D01*
X9023214Y-15737357D01*
X9037500Y-15665929D01*
X9051786Y-15623071D01*
X9066071Y-15594500D01*
X9094643Y-15551643D01*
X9108928Y-15537357D01*
X9380357Y-15880214D02*
X9208928Y-15880214D01*
X9294643Y-15880214D02*
X9294643Y-15580214D01*
X9266071Y-15623071D01*
X9237500Y-15651643D01*
X9208928Y-15665929D01*
X9480357Y-15580214D02*
X9666071Y-15580214D01*
X9566071Y-15694500D01*
X9608928Y-15694500D01*
X9637500Y-15708786D01*
X9651786Y-15723071D01*
X9666071Y-15751643D01*
X9666071Y-15823071D01*
X9651786Y-15851643D01*
X9637500Y-15865929D01*
X9608928Y-15880214D01*
X9523214Y-15880214D01*
X9494643Y-15865929D01*
X9480357Y-15851643D01*
X10023214Y-15880214D02*
X10023214Y-15580214D01*
X10151786Y-15880214D02*
X10151786Y-15723071D01*
X10137500Y-15694500D01*
X10108928Y-15680214D01*
X10066071Y-15680214D01*
X10037500Y-15694500D01*
X10023214Y-15708786D01*
X10337500Y-15880214D02*
X10308928Y-15865929D01*
X10294643Y-15851643D01*
X10280357Y-15823071D01*
X10280357Y-15737357D01*
X10294643Y-15708786D01*
X10308928Y-15694500D01*
X10337500Y-15680214D01*
X10380357Y-15680214D01*
X10408928Y-15694500D01*
X10423214Y-15708786D01*
X10437500Y-15737357D01*
X10437500Y-15823071D01*
X10423214Y-15851643D01*
X10408928Y-15865929D01*
X10380357Y-15880214D01*
X10337500Y-15880214D01*
X10608928Y-15880214D02*
X10580357Y-15865929D01*
X10566071Y-15837357D01*
X10566071Y-15580214D01*
X10837500Y-15865929D02*
X10808929Y-15880214D01*
X10751786Y-15880214D01*
X10723214Y-15865929D01*
X10708929Y-15837357D01*
X10708929Y-15723071D01*
X10723214Y-15694500D01*
X10751786Y-15680214D01*
X10808929Y-15680214D01*
X10837500Y-15694500D01*
X10851786Y-15723071D01*
X10851786Y-15751643D01*
X10708929Y-15780214D01*
X10966071Y-15865929D02*
X10994643Y-15880214D01*
X11051786Y-15880214D01*
X11080357Y-15865929D01*
X11094643Y-15837357D01*
X11094643Y-15823071D01*
X11080357Y-15794500D01*
X11051786Y-15780214D01*
X11008929Y-15780214D01*
X10980357Y-15765929D01*
X10966071Y-15737357D01*
X10966071Y-15723071D01*
X10980357Y-15694500D01*
X11008929Y-15680214D01*
X11051786Y-15680214D01*
X11080357Y-15694500D01*
X11194643Y-15994500D02*
X11208928Y-15980214D01*
X11237500Y-15937357D01*
X11251786Y-15908786D01*
X11266071Y-15865929D01*
X11280357Y-15794500D01*
X11280357Y-15737357D01*
X11266071Y-15665929D01*
X11251786Y-15623071D01*
X11237500Y-15594500D01*
X11208928Y-15551643D01*
X11194643Y-15537357D01*
X4392500Y-16185500D02*
X4437500Y-16140500D01*
X4392500Y-16095500D01*
X4347500Y-16140500D01*
X4392500Y-16185500D01*
X4766071Y-15976214D02*
X4794643Y-15976214D01*
X4823214Y-15990500D01*
X4837500Y-16004786D01*
X4851786Y-16033357D01*
X4866071Y-16090500D01*
X4866071Y-16161929D01*
X4851786Y-16219071D01*
X4837500Y-16247643D01*
X4823214Y-16261929D01*
X4794643Y-16276214D01*
X4766071Y-16276214D01*
X4737500Y-16261929D01*
X4723214Y-16247643D01*
X4708929Y-16219071D01*
X4694643Y-16161929D01*
X4694643Y-16090500D01*
X4708929Y-16033357D01*
X4723214Y-16004786D01*
X4737500Y-15990500D01*
X4766071Y-15976214D01*
X4994643Y-16247643D02*
X5008929Y-16261929D01*
X4994643Y-16276214D01*
X4980357Y-16261929D01*
X4994643Y-16247643D01*
X4994643Y-16276214D01*
X5151786Y-16276214D02*
X5208928Y-16276214D01*
X5237500Y-16261929D01*
X5251786Y-16247643D01*
X5280357Y-16204786D01*
X5294643Y-16147643D01*
X5294643Y-16033357D01*
X5280357Y-16004786D01*
X5266071Y-15990500D01*
X5237500Y-15976214D01*
X5180357Y-15976214D01*
X5151786Y-15990500D01*
X5137500Y-16004786D01*
X5123214Y-16033357D01*
X5123214Y-16104786D01*
X5137500Y-16133357D01*
X5151786Y-16147643D01*
X5180357Y-16161929D01*
X5237500Y-16161929D01*
X5266071Y-16147643D01*
X5280357Y-16133357D01*
X5294643Y-16104786D01*
X5480357Y-15976214D02*
X5508929Y-15976214D01*
X5537500Y-15990500D01*
X5551786Y-16004786D01*
X5566071Y-16033357D01*
X5580357Y-16090500D01*
X5580357Y-16161929D01*
X5566071Y-16219071D01*
X5551786Y-16247643D01*
X5537500Y-16261929D01*
X5508929Y-16276214D01*
X5480357Y-16276214D01*
X5451786Y-16261929D01*
X5437500Y-16247643D01*
X5423214Y-16219071D01*
X5408929Y-16161929D01*
X5408929Y-16090500D01*
X5423214Y-16033357D01*
X5437500Y-16004786D01*
X5451786Y-15990500D01*
X5480357Y-15976214D01*
X5708928Y-16276214D02*
X5708928Y-16076214D01*
X5708928Y-16104786D02*
X5723214Y-16090500D01*
X5751786Y-16076214D01*
X5794643Y-16076214D01*
X5823214Y-16090500D01*
X5837500Y-16119071D01*
X5837500Y-16276214D01*
X5837500Y-16119071D02*
X5851786Y-16090500D01*
X5880357Y-16076214D01*
X5923214Y-16076214D01*
X5951786Y-16090500D01*
X5966071Y-16119071D01*
X5966071Y-16276214D01*
X6108928Y-16276214D02*
X6108928Y-16076214D01*
X6108928Y-16104786D02*
X6123214Y-16090500D01*
X6151786Y-16076214D01*
X6194643Y-16076214D01*
X6223214Y-16090500D01*
X6237500Y-16119071D01*
X6237500Y-16276214D01*
X6237500Y-16119071D02*
X6251786Y-16090500D01*
X6280357Y-16076214D01*
X6323214Y-16076214D01*
X6351786Y-16090500D01*
X6366071Y-16119071D01*
X6366071Y-16276214D01*
X6951786Y-15961929D02*
X6694643Y-16347643D01*
X7337500Y-15976214D02*
X7366071Y-15976214D01*
X7394643Y-15990500D01*
X7408928Y-16004786D01*
X7423214Y-16033357D01*
X7437500Y-16090500D01*
X7437500Y-16161929D01*
X7423214Y-16219071D01*
X7408928Y-16247643D01*
X7394643Y-16261929D01*
X7366071Y-16276214D01*
X7337500Y-16276214D01*
X7308928Y-16261929D01*
X7294643Y-16247643D01*
X7280357Y-16219071D01*
X7266071Y-16161929D01*
X7266071Y-16090500D01*
X7280357Y-16033357D01*
X7294643Y-16004786D01*
X7308928Y-15990500D01*
X7337500Y-15976214D01*
X7566071Y-16247643D02*
X7580357Y-16261929D01*
X7566071Y-16276214D01*
X7551786Y-16261929D01*
X7566071Y-16247643D01*
X7566071Y-16276214D01*
X7766071Y-15976214D02*
X7794643Y-15976214D01*
X7823214Y-15990500D01*
X7837500Y-16004786D01*
X7851785Y-16033357D01*
X7866071Y-16090500D01*
X7866071Y-16161929D01*
X7851785Y-16219071D01*
X7837500Y-16247643D01*
X7823214Y-16261929D01*
X7794643Y-16276214D01*
X7766071Y-16276214D01*
X7737500Y-16261929D01*
X7723214Y-16247643D01*
X7708928Y-16219071D01*
X7694643Y-16161929D01*
X7694643Y-16090500D01*
X7708928Y-16033357D01*
X7723214Y-16004786D01*
X7737500Y-15990500D01*
X7766071Y-15976214D01*
X7966071Y-15976214D02*
X8151785Y-15976214D01*
X8051785Y-16090500D01*
X8094643Y-16090500D01*
X8123214Y-16104786D01*
X8137500Y-16119071D01*
X8151785Y-16147643D01*
X8151785Y-16219071D01*
X8137500Y-16247643D01*
X8123214Y-16261929D01*
X8094643Y-16276214D01*
X8008928Y-16276214D01*
X7980357Y-16261929D01*
X7966071Y-16247643D01*
X8423214Y-15976214D02*
X8280357Y-15976214D01*
X8266071Y-16119071D01*
X8280357Y-16104786D01*
X8308928Y-16090500D01*
X8380357Y-16090500D01*
X8408928Y-16104786D01*
X8423214Y-16119071D01*
X8437500Y-16147643D01*
X8437500Y-16219071D01*
X8423214Y-16247643D01*
X8408928Y-16261929D01*
X8380357Y-16276214D01*
X8308928Y-16276214D01*
X8280357Y-16261929D01*
X8266071Y-16247643D01*
X8551786Y-15976214D02*
X8551786Y-16033357D01*
X8666071Y-15976214D02*
X8666071Y-16033357D01*
X9108928Y-16390500D02*
X9094643Y-16376214D01*
X9066071Y-16333357D01*
X9051786Y-16304786D01*
X9037500Y-16261929D01*
X9023214Y-16190500D01*
X9023214Y-16133357D01*
X9037500Y-16061929D01*
X9051786Y-16019071D01*
X9066071Y-15990500D01*
X9094643Y-15947643D01*
X9108928Y-15933357D01*
X9208928Y-16004786D02*
X9223214Y-15990500D01*
X9251786Y-15976214D01*
X9323214Y-15976214D01*
X9351786Y-15990500D01*
X9366071Y-16004786D01*
X9380357Y-16033357D01*
X9380357Y-16061929D01*
X9366071Y-16104786D01*
X9194643Y-16276214D01*
X9380357Y-16276214D01*
X9551786Y-16104786D02*
X9523214Y-16090500D01*
X9508928Y-16076214D01*
X9494643Y-16047643D01*
X9494643Y-16033357D01*
X9508928Y-16004786D01*
X9523214Y-15990500D01*
X9551786Y-15976214D01*
X9608928Y-15976214D01*
X9637500Y-15990500D01*
X9651786Y-16004786D01*
X9666071Y-16033357D01*
X9666071Y-16047643D01*
X9651786Y-16076214D01*
X9637500Y-16090500D01*
X9608928Y-16104786D01*
X9551786Y-16104786D01*
X9523214Y-16119071D01*
X9508928Y-16133357D01*
X9494643Y-16161929D01*
X9494643Y-16219071D01*
X9508928Y-16247643D01*
X9523214Y-16261929D01*
X9551786Y-16276214D01*
X9608928Y-16276214D01*
X9637500Y-16261929D01*
X9651786Y-16247643D01*
X9666071Y-16219071D01*
X9666071Y-16161929D01*
X9651786Y-16133357D01*
X9637500Y-16119071D01*
X9608928Y-16104786D01*
X10023214Y-16276214D02*
X10023214Y-15976214D01*
X10151786Y-16276214D02*
X10151786Y-16119071D01*
X10137500Y-16090500D01*
X10108928Y-16076214D01*
X10066071Y-16076214D01*
X10037500Y-16090500D01*
X10023214Y-16104786D01*
X10337500Y-16276214D02*
X10308928Y-16261929D01*
X10294643Y-16247643D01*
X10280357Y-16219071D01*
X10280357Y-16133357D01*
X10294643Y-16104786D01*
X10308928Y-16090500D01*
X10337500Y-16076214D01*
X10380357Y-16076214D01*
X10408928Y-16090500D01*
X10423214Y-16104786D01*
X10437500Y-16133357D01*
X10437500Y-16219071D01*
X10423214Y-16247643D01*
X10408928Y-16261929D01*
X10380357Y-16276214D01*
X10337500Y-16276214D01*
X10608928Y-16276214D02*
X10580357Y-16261929D01*
X10566071Y-16233357D01*
X10566071Y-15976214D01*
X10837500Y-16261929D02*
X10808929Y-16276214D01*
X10751786Y-16276214D01*
X10723214Y-16261929D01*
X10708929Y-16233357D01*
X10708929Y-16119071D01*
X10723214Y-16090500D01*
X10751786Y-16076214D01*
X10808929Y-16076214D01*
X10837500Y-16090500D01*
X10851786Y-16119071D01*
X10851786Y-16147643D01*
X10708929Y-16176214D01*
X10966071Y-16261929D02*
X10994643Y-16276214D01*
X11051786Y-16276214D01*
X11080357Y-16261929D01*
X11094643Y-16233357D01*
X11094643Y-16219071D01*
X11080357Y-16190500D01*
X11051786Y-16176214D01*
X11008929Y-16176214D01*
X10980357Y-16161929D01*
X10966071Y-16133357D01*
X10966071Y-16119071D01*
X10980357Y-16090500D01*
X11008929Y-16076214D01*
X11051786Y-16076214D01*
X11080357Y-16090500D01*
X11194643Y-16390500D02*
X11208928Y-16376214D01*
X11237500Y-16333357D01*
X11251786Y-16304786D01*
X11266071Y-16261929D01*
X11280357Y-16190500D01*
X11280357Y-16133357D01*
X11266071Y-16061929D01*
X11251786Y-16019071D01*
X11237500Y-15990500D01*
X11208928Y-15947643D01*
X11194643Y-15933357D01*
X4337500Y-16486500D02*
X4437500Y-16586500D01*
X4437500Y-16486500D02*
X4337500Y-16586500D01*
X4437500Y-16536500D02*
G75*
G03X4437500Y-16536500I-50000J0D01*
G01*
X4866071Y-16672214D02*
X4694643Y-16672214D01*
X4780357Y-16672214D02*
X4780357Y-16372214D01*
X4751786Y-16415071D01*
X4723214Y-16443643D01*
X4694643Y-16457929D01*
X4994643Y-16643643D02*
X5008929Y-16657929D01*
X4994643Y-16672214D01*
X4980357Y-16657929D01*
X4994643Y-16643643D01*
X4994643Y-16672214D01*
X5194643Y-16372214D02*
X5223214Y-16372214D01*
X5251786Y-16386500D01*
X5266071Y-16400786D01*
X5280357Y-16429357D01*
X5294643Y-16486500D01*
X5294643Y-16557929D01*
X5280357Y-16615071D01*
X5266071Y-16643643D01*
X5251786Y-16657929D01*
X5223214Y-16672214D01*
X5194643Y-16672214D01*
X5166071Y-16657929D01*
X5151786Y-16643643D01*
X5137500Y-16615071D01*
X5123214Y-16557929D01*
X5123214Y-16486500D01*
X5137500Y-16429357D01*
X5151786Y-16400786D01*
X5166071Y-16386500D01*
X5194643Y-16372214D01*
X5480357Y-16372214D02*
X5508929Y-16372214D01*
X5537500Y-16386500D01*
X5551786Y-16400786D01*
X5566071Y-16429357D01*
X5580357Y-16486500D01*
X5580357Y-16557929D01*
X5566071Y-16615071D01*
X5551786Y-16643643D01*
X5537500Y-16657929D01*
X5508929Y-16672214D01*
X5480357Y-16672214D01*
X5451786Y-16657929D01*
X5437500Y-16643643D01*
X5423214Y-16615071D01*
X5408929Y-16557929D01*
X5408929Y-16486500D01*
X5423214Y-16429357D01*
X5437500Y-16400786D01*
X5451786Y-16386500D01*
X5480357Y-16372214D01*
X5708928Y-16672214D02*
X5708928Y-16472214D01*
X5708928Y-16500786D02*
X5723214Y-16486500D01*
X5751786Y-16472214D01*
X5794643Y-16472214D01*
X5823214Y-16486500D01*
X5837500Y-16515071D01*
X5837500Y-16672214D01*
X5837500Y-16515071D02*
X5851786Y-16486500D01*
X5880357Y-16472214D01*
X5923214Y-16472214D01*
X5951786Y-16486500D01*
X5966071Y-16515071D01*
X5966071Y-16672214D01*
X6108928Y-16672214D02*
X6108928Y-16472214D01*
X6108928Y-16500786D02*
X6123214Y-16486500D01*
X6151786Y-16472214D01*
X6194643Y-16472214D01*
X6223214Y-16486500D01*
X6237500Y-16515071D01*
X6237500Y-16672214D01*
X6237500Y-16515071D02*
X6251786Y-16486500D01*
X6280357Y-16472214D01*
X6323214Y-16472214D01*
X6351786Y-16486500D01*
X6366071Y-16515071D01*
X6366071Y-16672214D01*
X6951786Y-16357929D02*
X6694643Y-16743643D01*
X7337500Y-16372214D02*
X7366071Y-16372214D01*
X7394643Y-16386500D01*
X7408928Y-16400786D01*
X7423214Y-16429357D01*
X7437500Y-16486500D01*
X7437500Y-16557929D01*
X7423214Y-16615071D01*
X7408928Y-16643643D01*
X7394643Y-16657929D01*
X7366071Y-16672214D01*
X7337500Y-16672214D01*
X7308928Y-16657929D01*
X7294643Y-16643643D01*
X7280357Y-16615071D01*
X7266071Y-16557929D01*
X7266071Y-16486500D01*
X7280357Y-16429357D01*
X7294643Y-16400786D01*
X7308928Y-16386500D01*
X7337500Y-16372214D01*
X7566071Y-16643643D02*
X7580357Y-16657929D01*
X7566071Y-16672214D01*
X7551786Y-16657929D01*
X7566071Y-16643643D01*
X7566071Y-16672214D01*
X7766071Y-16372214D02*
X7794643Y-16372214D01*
X7823214Y-16386500D01*
X7837500Y-16400786D01*
X7851785Y-16429357D01*
X7866071Y-16486500D01*
X7866071Y-16557929D01*
X7851785Y-16615071D01*
X7837500Y-16643643D01*
X7823214Y-16657929D01*
X7794643Y-16672214D01*
X7766071Y-16672214D01*
X7737500Y-16657929D01*
X7723214Y-16643643D01*
X7708928Y-16615071D01*
X7694643Y-16557929D01*
X7694643Y-16486500D01*
X7708928Y-16429357D01*
X7723214Y-16400786D01*
X7737500Y-16386500D01*
X7766071Y-16372214D01*
X7966071Y-16372214D02*
X8151785Y-16372214D01*
X8051785Y-16486500D01*
X8094643Y-16486500D01*
X8123214Y-16500786D01*
X8137500Y-16515071D01*
X8151785Y-16543643D01*
X8151785Y-16615071D01*
X8137500Y-16643643D01*
X8123214Y-16657929D01*
X8094643Y-16672214D01*
X8008928Y-16672214D01*
X7980357Y-16657929D01*
X7966071Y-16643643D01*
X8294643Y-16672214D02*
X8351785Y-16672214D01*
X8380357Y-16657929D01*
X8394643Y-16643643D01*
X8423214Y-16600786D01*
X8437500Y-16543643D01*
X8437500Y-16429357D01*
X8423214Y-16400786D01*
X8408928Y-16386500D01*
X8380357Y-16372214D01*
X8323214Y-16372214D01*
X8294643Y-16386500D01*
X8280357Y-16400786D01*
X8266071Y-16429357D01*
X8266071Y-16500786D01*
X8280357Y-16529357D01*
X8294643Y-16543643D01*
X8323214Y-16557929D01*
X8380357Y-16557929D01*
X8408928Y-16543643D01*
X8423214Y-16529357D01*
X8437500Y-16500786D01*
X8551786Y-16372214D02*
X8551786Y-16429357D01*
X8666071Y-16372214D02*
X8666071Y-16429357D01*
X9108928Y-16786500D02*
X9094643Y-16772214D01*
X9066071Y-16729357D01*
X9051786Y-16700786D01*
X9037500Y-16657929D01*
X9023214Y-16586500D01*
X9023214Y-16529357D01*
X9037500Y-16457929D01*
X9051786Y-16415071D01*
X9066071Y-16386500D01*
X9094643Y-16343643D01*
X9108928Y-16329357D01*
X9380357Y-16672214D02*
X9208928Y-16672214D01*
X9294643Y-16672214D02*
X9294643Y-16372214D01*
X9266071Y-16415071D01*
X9237500Y-16443643D01*
X9208928Y-16457929D01*
X9737500Y-16672214D02*
X9737500Y-16372214D01*
X9866071Y-16672214D02*
X9866071Y-16515071D01*
X9851786Y-16486500D01*
X9823214Y-16472214D01*
X9780357Y-16472214D01*
X9751786Y-16486500D01*
X9737500Y-16500786D01*
X10051786Y-16672214D02*
X10023214Y-16657929D01*
X10008928Y-16643643D01*
X9994643Y-16615071D01*
X9994643Y-16529357D01*
X10008928Y-16500786D01*
X10023214Y-16486500D01*
X10051786Y-16472214D01*
X10094643Y-16472214D01*
X10123214Y-16486500D01*
X10137500Y-16500786D01*
X10151786Y-16529357D01*
X10151786Y-16615071D01*
X10137500Y-16643643D01*
X10123214Y-16657929D01*
X10094643Y-16672214D01*
X10051786Y-16672214D01*
X10323214Y-16672214D02*
X10294643Y-16657929D01*
X10280357Y-16629357D01*
X10280357Y-16372214D01*
X10551786Y-16657929D02*
X10523214Y-16672214D01*
X10466071Y-16672214D01*
X10437500Y-16657929D01*
X10423214Y-16629357D01*
X10423214Y-16515071D01*
X10437500Y-16486500D01*
X10466071Y-16472214D01*
X10523214Y-16472214D01*
X10551786Y-16486500D01*
X10566071Y-16515071D01*
X10566071Y-16543643D01*
X10423214Y-16572214D01*
X10666071Y-16786500D02*
X10680357Y-16772214D01*
X10708929Y-16729357D01*
X10723214Y-16700786D01*
X10737500Y-16657929D01*
X10751786Y-16586500D01*
X10751786Y-16529357D01*
X10737500Y-16457929D01*
X10723214Y-16415071D01*
X10708929Y-16386500D01*
X10680357Y-16343643D01*
X10666071Y-16329357D01*
X4337424Y-16882462D02*
X4437500Y-16982538D01*
X4437500Y-16882462D02*
X4337424Y-16982538D01*
X4387462Y-16882462D02*
X4387462Y-16982538D01*
X4337424Y-16932500D02*
X4437500Y-16932500D01*
X4866071Y-17068214D02*
X4694643Y-17068214D01*
X4780357Y-17068214D02*
X4780357Y-16768214D01*
X4751786Y-16811072D01*
X4723214Y-16839643D01*
X4694643Y-16853929D01*
X4994643Y-17039643D02*
X5008929Y-17053929D01*
X4994643Y-17068214D01*
X4980357Y-17053929D01*
X4994643Y-17039643D01*
X4994643Y-17068214D01*
X5194643Y-16768214D02*
X5223214Y-16768214D01*
X5251786Y-16782500D01*
X5266071Y-16796786D01*
X5280357Y-16825357D01*
X5294643Y-16882500D01*
X5294643Y-16953929D01*
X5280357Y-17011072D01*
X5266071Y-17039643D01*
X5251786Y-17053929D01*
X5223214Y-17068214D01*
X5194643Y-17068214D01*
X5166071Y-17053929D01*
X5151786Y-17039643D01*
X5137500Y-17011072D01*
X5123214Y-16953929D01*
X5123214Y-16882500D01*
X5137500Y-16825357D01*
X5151786Y-16796786D01*
X5166071Y-16782500D01*
X5194643Y-16768214D01*
X5480357Y-16768214D02*
X5508929Y-16768214D01*
X5537500Y-16782500D01*
X5551786Y-16796786D01*
X5566071Y-16825357D01*
X5580357Y-16882500D01*
X5580357Y-16953929D01*
X5566071Y-17011072D01*
X5551786Y-17039643D01*
X5537500Y-17053929D01*
X5508929Y-17068214D01*
X5480357Y-17068214D01*
X5451786Y-17053929D01*
X5437500Y-17039643D01*
X5423214Y-17011072D01*
X5408929Y-16953929D01*
X5408929Y-16882500D01*
X5423214Y-16825357D01*
X5437500Y-16796786D01*
X5451786Y-16782500D01*
X5480357Y-16768214D01*
X5708928Y-17068214D02*
X5708928Y-16868214D01*
X5708928Y-16896786D02*
X5723214Y-16882500D01*
X5751786Y-16868214D01*
X5794643Y-16868214D01*
X5823214Y-16882500D01*
X5837500Y-16911072D01*
X5837500Y-17068214D01*
X5837500Y-16911072D02*
X5851786Y-16882500D01*
X5880357Y-16868214D01*
X5923214Y-16868214D01*
X5951786Y-16882500D01*
X5966071Y-16911072D01*
X5966071Y-17068214D01*
X6108928Y-17068214D02*
X6108928Y-16868214D01*
X6108928Y-16896786D02*
X6123214Y-16882500D01*
X6151786Y-16868214D01*
X6194643Y-16868214D01*
X6223214Y-16882500D01*
X6237500Y-16911072D01*
X6237500Y-17068214D01*
X6237500Y-16911072D02*
X6251786Y-16882500D01*
X6280357Y-16868214D01*
X6323214Y-16868214D01*
X6351786Y-16882500D01*
X6366071Y-16911072D01*
X6366071Y-17068214D01*
X6951786Y-16753929D02*
X6694643Y-17139643D01*
X7337500Y-16768214D02*
X7366071Y-16768214D01*
X7394643Y-16782500D01*
X7408928Y-16796786D01*
X7423214Y-16825357D01*
X7437500Y-16882500D01*
X7437500Y-16953929D01*
X7423214Y-17011072D01*
X7408928Y-17039643D01*
X7394643Y-17053929D01*
X7366071Y-17068214D01*
X7337500Y-17068214D01*
X7308928Y-17053929D01*
X7294643Y-17039643D01*
X7280357Y-17011072D01*
X7266071Y-16953929D01*
X7266071Y-16882500D01*
X7280357Y-16825357D01*
X7294643Y-16796786D01*
X7308928Y-16782500D01*
X7337500Y-16768214D01*
X7566071Y-17039643D02*
X7580357Y-17053929D01*
X7566071Y-17068214D01*
X7551786Y-17053929D01*
X7566071Y-17039643D01*
X7566071Y-17068214D01*
X7766071Y-16768214D02*
X7794643Y-16768214D01*
X7823214Y-16782500D01*
X7837500Y-16796786D01*
X7851785Y-16825357D01*
X7866071Y-16882500D01*
X7866071Y-16953929D01*
X7851785Y-17011072D01*
X7837500Y-17039643D01*
X7823214Y-17053929D01*
X7794643Y-17068214D01*
X7766071Y-17068214D01*
X7737500Y-17053929D01*
X7723214Y-17039643D01*
X7708928Y-17011072D01*
X7694643Y-16953929D01*
X7694643Y-16882500D01*
X7708928Y-16825357D01*
X7723214Y-16796786D01*
X7737500Y-16782500D01*
X7766071Y-16768214D01*
X7966071Y-16768214D02*
X8151785Y-16768214D01*
X8051785Y-16882500D01*
X8094643Y-16882500D01*
X8123214Y-16896786D01*
X8137500Y-16911072D01*
X8151785Y-16939643D01*
X8151785Y-17011072D01*
X8137500Y-17039643D01*
X8123214Y-17053929D01*
X8094643Y-17068214D01*
X8008928Y-17068214D01*
X7980357Y-17053929D01*
X7966071Y-17039643D01*
X8294643Y-17068214D02*
X8351785Y-17068214D01*
X8380357Y-17053929D01*
X8394643Y-17039643D01*
X8423214Y-16996786D01*
X8437500Y-16939643D01*
X8437500Y-16825357D01*
X8423214Y-16796786D01*
X8408928Y-16782500D01*
X8380357Y-16768214D01*
X8323214Y-16768214D01*
X8294643Y-16782500D01*
X8280357Y-16796786D01*
X8266071Y-16825357D01*
X8266071Y-16896786D01*
X8280357Y-16925357D01*
X8294643Y-16939643D01*
X8323214Y-16953929D01*
X8380357Y-16953929D01*
X8408928Y-16939643D01*
X8423214Y-16925357D01*
X8437500Y-16896786D01*
X8551786Y-16768214D02*
X8551786Y-16825357D01*
X8666071Y-16768214D02*
X8666071Y-16825357D01*
X9108928Y-17182500D02*
X9094643Y-17168214D01*
X9066071Y-17125357D01*
X9051786Y-17096786D01*
X9037500Y-17053929D01*
X9023214Y-16982500D01*
X9023214Y-16925357D01*
X9037500Y-16853929D01*
X9051786Y-16811072D01*
X9066071Y-16782500D01*
X9094643Y-16739643D01*
X9108928Y-16725357D01*
X9380357Y-17068214D02*
X9208928Y-17068214D01*
X9294643Y-17068214D02*
X9294643Y-16768214D01*
X9266071Y-16811072D01*
X9237500Y-16839643D01*
X9208928Y-16853929D01*
X9494643Y-16796786D02*
X9508928Y-16782500D01*
X9537500Y-16768214D01*
X9608928Y-16768214D01*
X9637500Y-16782500D01*
X9651786Y-16796786D01*
X9666071Y-16825357D01*
X9666071Y-16853929D01*
X9651786Y-16896786D01*
X9480357Y-17068214D01*
X9666071Y-17068214D01*
X10023214Y-17068214D02*
X10023214Y-16768214D01*
X10151786Y-17068214D02*
X10151786Y-16911072D01*
X10137500Y-16882500D01*
X10108928Y-16868214D01*
X10066071Y-16868214D01*
X10037500Y-16882500D01*
X10023214Y-16896786D01*
X10337500Y-17068214D02*
X10308928Y-17053929D01*
X10294643Y-17039643D01*
X10280357Y-17011072D01*
X10280357Y-16925357D01*
X10294643Y-16896786D01*
X10308928Y-16882500D01*
X10337500Y-16868214D01*
X10380357Y-16868214D01*
X10408928Y-16882500D01*
X10423214Y-16896786D01*
X10437500Y-16925357D01*
X10437500Y-17011072D01*
X10423214Y-17039643D01*
X10408928Y-17053929D01*
X10380357Y-17068214D01*
X10337500Y-17068214D01*
X10608928Y-17068214D02*
X10580357Y-17053929D01*
X10566071Y-17025357D01*
X10566071Y-16768214D01*
X10837500Y-17053929D02*
X10808929Y-17068214D01*
X10751786Y-17068214D01*
X10723214Y-17053929D01*
X10708929Y-17025357D01*
X10708929Y-16911072D01*
X10723214Y-16882500D01*
X10751786Y-16868214D01*
X10808929Y-16868214D01*
X10837500Y-16882500D01*
X10851786Y-16911072D01*
X10851786Y-16939643D01*
X10708929Y-16968214D01*
X10966071Y-17053929D02*
X10994643Y-17068214D01*
X11051786Y-17068214D01*
X11080357Y-17053929D01*
X11094643Y-17025357D01*
X11094643Y-17011072D01*
X11080357Y-16982500D01*
X11051786Y-16968214D01*
X11008929Y-16968214D01*
X10980357Y-16953929D01*
X10966071Y-16925357D01*
X10966071Y-16911072D01*
X10980357Y-16882500D01*
X11008929Y-16868214D01*
X11051786Y-16868214D01*
X11080357Y-16882500D01*
X11194643Y-17182500D02*
X11208928Y-17168214D01*
X11237500Y-17125357D01*
X11251786Y-17096786D01*
X11266071Y-17053929D01*
X11280357Y-16982500D01*
X11280357Y-16925357D01*
X11266071Y-16853929D01*
X11251786Y-16811072D01*
X11237500Y-16782500D01*
X11208928Y-16739643D01*
X11194643Y-16725357D01*
X4335900Y-17277700D02*
X4437500Y-17379300D01*
X4437500Y-17277700D02*
X4335900Y-17379300D01*
X4422621Y-17364422D02*
X4422621Y-17292579D01*
X4350779Y-17292579D01*
X4350779Y-17364422D01*
X4422621Y-17364422D01*
X4866071Y-17464214D02*
X4694643Y-17464214D01*
X4780357Y-17464214D02*
X4780357Y-17164214D01*
X4751786Y-17207072D01*
X4723214Y-17235643D01*
X4694643Y-17249929D01*
X4994643Y-17435643D02*
X5008929Y-17449929D01*
X4994643Y-17464214D01*
X4980357Y-17449929D01*
X4994643Y-17435643D01*
X4994643Y-17464214D01*
X5194643Y-17164214D02*
X5223214Y-17164214D01*
X5251786Y-17178500D01*
X5266071Y-17192786D01*
X5280357Y-17221357D01*
X5294643Y-17278500D01*
X5294643Y-17349929D01*
X5280357Y-17407072D01*
X5266071Y-17435643D01*
X5251786Y-17449929D01*
X5223214Y-17464214D01*
X5194643Y-17464214D01*
X5166071Y-17449929D01*
X5151786Y-17435643D01*
X5137500Y-17407072D01*
X5123214Y-17349929D01*
X5123214Y-17278500D01*
X5137500Y-17221357D01*
X5151786Y-17192786D01*
X5166071Y-17178500D01*
X5194643Y-17164214D01*
X5408929Y-17192786D02*
X5423214Y-17178500D01*
X5451786Y-17164214D01*
X5523214Y-17164214D01*
X5551786Y-17178500D01*
X5566071Y-17192786D01*
X5580357Y-17221357D01*
X5580357Y-17249929D01*
X5566071Y-17292786D01*
X5394643Y-17464214D01*
X5580357Y-17464214D01*
X5708928Y-17464214D02*
X5708928Y-17264214D01*
X5708928Y-17292786D02*
X5723214Y-17278500D01*
X5751786Y-17264214D01*
X5794643Y-17264214D01*
X5823214Y-17278500D01*
X5837500Y-17307072D01*
X5837500Y-17464214D01*
X5837500Y-17307072D02*
X5851786Y-17278500D01*
X5880357Y-17264214D01*
X5923214Y-17264214D01*
X5951786Y-17278500D01*
X5966071Y-17307072D01*
X5966071Y-17464214D01*
X6108928Y-17464214D02*
X6108928Y-17264214D01*
X6108928Y-17292786D02*
X6123214Y-17278500D01*
X6151786Y-17264214D01*
X6194643Y-17264214D01*
X6223214Y-17278500D01*
X6237500Y-17307072D01*
X6237500Y-17464214D01*
X6237500Y-17307072D02*
X6251786Y-17278500D01*
X6280357Y-17264214D01*
X6323214Y-17264214D01*
X6351786Y-17278500D01*
X6366071Y-17307072D01*
X6366071Y-17464214D01*
X6951786Y-17149929D02*
X6694643Y-17535643D01*
X7337500Y-17164214D02*
X7366071Y-17164214D01*
X7394643Y-17178500D01*
X7408928Y-17192786D01*
X7423214Y-17221357D01*
X7437500Y-17278500D01*
X7437500Y-17349929D01*
X7423214Y-17407072D01*
X7408928Y-17435643D01*
X7394643Y-17449929D01*
X7366071Y-17464214D01*
X7337500Y-17464214D01*
X7308928Y-17449929D01*
X7294643Y-17435643D01*
X7280357Y-17407072D01*
X7266071Y-17349929D01*
X7266071Y-17278500D01*
X7280357Y-17221357D01*
X7294643Y-17192786D01*
X7308928Y-17178500D01*
X7337500Y-17164214D01*
X7566071Y-17435643D02*
X7580357Y-17449929D01*
X7566071Y-17464214D01*
X7551786Y-17449929D01*
X7566071Y-17435643D01*
X7566071Y-17464214D01*
X7766071Y-17164214D02*
X7794643Y-17164214D01*
X7823214Y-17178500D01*
X7837500Y-17192786D01*
X7851785Y-17221357D01*
X7866071Y-17278500D01*
X7866071Y-17349929D01*
X7851785Y-17407072D01*
X7837500Y-17435643D01*
X7823214Y-17449929D01*
X7794643Y-17464214D01*
X7766071Y-17464214D01*
X7737500Y-17449929D01*
X7723214Y-17435643D01*
X7708928Y-17407072D01*
X7694643Y-17349929D01*
X7694643Y-17278500D01*
X7708928Y-17221357D01*
X7723214Y-17192786D01*
X7737500Y-17178500D01*
X7766071Y-17164214D01*
X8123214Y-17264214D02*
X8123214Y-17464214D01*
X8051785Y-17149929D02*
X7980357Y-17364214D01*
X8166071Y-17364214D01*
X8337500Y-17164214D02*
X8366071Y-17164214D01*
X8394643Y-17178500D01*
X8408928Y-17192786D01*
X8423214Y-17221357D01*
X8437500Y-17278500D01*
X8437500Y-17349929D01*
X8423214Y-17407072D01*
X8408928Y-17435643D01*
X8394643Y-17449929D01*
X8366071Y-17464214D01*
X8337500Y-17464214D01*
X8308928Y-17449929D01*
X8294643Y-17435643D01*
X8280357Y-17407072D01*
X8266071Y-17349929D01*
X8266071Y-17278500D01*
X8280357Y-17221357D01*
X8294643Y-17192786D01*
X8308928Y-17178500D01*
X8337500Y-17164214D01*
X8551786Y-17164214D02*
X8551786Y-17221357D01*
X8666071Y-17164214D02*
X8666071Y-17221357D01*
X9108928Y-17578500D02*
X9094643Y-17564214D01*
X9066071Y-17521357D01*
X9051786Y-17492786D01*
X9037500Y-17449929D01*
X9023214Y-17378500D01*
X9023214Y-17321357D01*
X9037500Y-17249929D01*
X9051786Y-17207072D01*
X9066071Y-17178500D01*
X9094643Y-17135643D01*
X9108928Y-17121357D01*
X9351786Y-17264214D02*
X9351786Y-17464214D01*
X9280357Y-17149929D02*
X9208928Y-17364214D01*
X9394643Y-17364214D01*
X9566071Y-17164214D02*
X9594643Y-17164214D01*
X9623214Y-17178500D01*
X9637500Y-17192786D01*
X9651786Y-17221357D01*
X9666071Y-17278500D01*
X9666071Y-17349929D01*
X9651786Y-17407072D01*
X9637500Y-17435643D01*
X9623214Y-17449929D01*
X9594643Y-17464214D01*
X9566071Y-17464214D01*
X9537500Y-17449929D01*
X9523214Y-17435643D01*
X9508928Y-17407072D01*
X9494643Y-17349929D01*
X9494643Y-17278500D01*
X9508928Y-17221357D01*
X9523214Y-17192786D01*
X9537500Y-17178500D01*
X9566071Y-17164214D01*
X10023214Y-17464214D02*
X10023214Y-17164214D01*
X10151786Y-17464214D02*
X10151786Y-17307072D01*
X10137500Y-17278500D01*
X10108928Y-17264214D01*
X10066071Y-17264214D01*
X10037500Y-17278500D01*
X10023214Y-17292786D01*
X10337500Y-17464214D02*
X10308928Y-17449929D01*
X10294643Y-17435643D01*
X10280357Y-17407072D01*
X10280357Y-17321357D01*
X10294643Y-17292786D01*
X10308928Y-17278500D01*
X10337500Y-17264214D01*
X10380357Y-17264214D01*
X10408928Y-17278500D01*
X10423214Y-17292786D01*
X10437500Y-17321357D01*
X10437500Y-17407072D01*
X10423214Y-17435643D01*
X10408928Y-17449929D01*
X10380357Y-17464214D01*
X10337500Y-17464214D01*
X10608928Y-17464214D02*
X10580357Y-17449929D01*
X10566071Y-17421357D01*
X10566071Y-17164214D01*
X10837500Y-17449929D02*
X10808929Y-17464214D01*
X10751786Y-17464214D01*
X10723214Y-17449929D01*
X10708929Y-17421357D01*
X10708929Y-17307072D01*
X10723214Y-17278500D01*
X10751786Y-17264214D01*
X10808929Y-17264214D01*
X10837500Y-17278500D01*
X10851786Y-17307072D01*
X10851786Y-17335643D01*
X10708929Y-17364214D01*
X10966071Y-17449929D02*
X10994643Y-17464214D01*
X11051786Y-17464214D01*
X11080357Y-17449929D01*
X11094643Y-17421357D01*
X11094643Y-17407072D01*
X11080357Y-17378500D01*
X11051786Y-17364214D01*
X11008929Y-17364214D01*
X10980357Y-17349929D01*
X10966071Y-17321357D01*
X10966071Y-17307072D01*
X10980357Y-17278500D01*
X11008929Y-17264214D01*
X11051786Y-17264214D01*
X11080357Y-17278500D01*
X11194643Y-17578500D02*
X11208928Y-17564214D01*
X11237500Y-17521357D01*
X11251786Y-17492786D01*
X11266071Y-17449929D01*
X11280357Y-17378500D01*
X11280357Y-17321357D01*
X11266071Y-17249929D01*
X11251786Y-17207072D01*
X11237500Y-17178500D01*
X11208928Y-17135643D01*
X11194643Y-17121357D01*
M02*
