G04 #@! TF.FileFunction,Copper,L2,Bot,Signal*
%FSLAX46Y46*%
G04 Gerber Fmt 4.6, Leading zero omitted, Abs format (unit mm)*
G04 Created by KiCad (PCBNEW 4.0.4+e1-6308~48~ubuntu16.04.1-stable) date Tue Sep  6 14:07:25 2016*
%MOMM*%
%LPD*%
G01*
G04 APERTURE LIST*
%ADD10C,0.100000*%
%ADD11C,1.300000*%
%ADD12R,1.300000X1.300000*%
%ADD13R,1.400000X1.400000*%
%ADD14C,1.400000*%
%ADD15C,1.699260*%
%ADD16R,1.699260X1.699260*%
%ADD17R,1.905000X1.905000*%
%ADD18C,1.905000*%
%ADD19R,2.032000X2.032000*%
%ADD20O,2.032000X2.032000*%
%ADD21C,1.998980*%
%ADD22R,1.397000X1.397000*%
%ADD23C,1.397000*%
%ADD24C,2.000000*%
%ADD25R,2.032000X1.727200*%
%ADD26O,2.032000X1.727200*%
%ADD27C,0.600000*%
%ADD28C,0.250000*%
%ADD29C,0.254000*%
G04 APERTURE END LIST*
D10*
D11*
X55570000Y-96520000D03*
D12*
X52070000Y-96520000D03*
D13*
X60960000Y-121920000D03*
D14*
X65960000Y-121920000D03*
D13*
X68580000Y-125730000D03*
D14*
X73580000Y-125730000D03*
D13*
X80010000Y-130810000D03*
D14*
X80010000Y-125810000D03*
D13*
X82550000Y-123190000D03*
D14*
X82550000Y-118190000D03*
D13*
X59690000Y-111760000D03*
D14*
X54690000Y-111760000D03*
D13*
X68580000Y-130810000D03*
D14*
X73580000Y-130810000D03*
D13*
X82550000Y-115570000D03*
D14*
X82550000Y-110570000D03*
D13*
X68580000Y-120650000D03*
D14*
X73580000Y-120650000D03*
D13*
X87630000Y-115570000D03*
D14*
X87630000Y-110570000D03*
D13*
X83820000Y-101600000D03*
D14*
X88820000Y-101600000D03*
D13*
X83820000Y-96520000D03*
D14*
X88820000Y-96520000D03*
D13*
X83820000Y-91440000D03*
D14*
X88820000Y-91440000D03*
D13*
X97790000Y-91440000D03*
D14*
X97790000Y-86440000D03*
D13*
X101600000Y-110490000D03*
D14*
X96600000Y-110490000D03*
D15*
X50799480Y-104142540D03*
D16*
X60959480Y-104142540D03*
D15*
X60960520Y-106677460D03*
D16*
X50800520Y-106677460D03*
D17*
X50800000Y-127000000D03*
D18*
X55880000Y-127000000D03*
D17*
X59690000Y-129540000D03*
D18*
X64770000Y-129540000D03*
D17*
X67310000Y-93980000D03*
D18*
X72390000Y-93980000D03*
D17*
X69850000Y-110490000D03*
D18*
X69850000Y-115570000D03*
D17*
X78740000Y-95250000D03*
D18*
X78740000Y-90170000D03*
D19*
X55880000Y-87630000D03*
D20*
X53340000Y-87630000D03*
D21*
X77470000Y-121920000D03*
X77470000Y-111760000D03*
X50800000Y-120650000D03*
X50800000Y-110490000D03*
X92710000Y-87630000D03*
X92710000Y-97790000D03*
X92710000Y-111760000D03*
X92710000Y-101600000D03*
X96520000Y-105410000D03*
X96520000Y-95250000D03*
X100330000Y-105410000D03*
X100330000Y-95250000D03*
D22*
X80010000Y-86360000D03*
D23*
X82550000Y-86360000D03*
X85090000Y-86360000D03*
D24*
X64770000Y-105410000D03*
D25*
X46990000Y-87630000D03*
D26*
X46990000Y-90170000D03*
X46990000Y-92710000D03*
X46990000Y-95250000D03*
X46990000Y-97790000D03*
X46990000Y-100330000D03*
X46990000Y-102870000D03*
X46990000Y-105410000D03*
X46990000Y-107950000D03*
X46990000Y-110490000D03*
X46990000Y-113030000D03*
X46990000Y-115570000D03*
X46990000Y-118110000D03*
X46990000Y-120650000D03*
X46990000Y-123190000D03*
X46990000Y-125730000D03*
X46990000Y-128270000D03*
X46990000Y-130810000D03*
X46990000Y-133350000D03*
D25*
X105410000Y-87630000D03*
D26*
X105410000Y-90170000D03*
X105410000Y-92710000D03*
X105410000Y-95250000D03*
X105410000Y-97790000D03*
X105410000Y-100330000D03*
X105410000Y-102870000D03*
X105410000Y-105410000D03*
X105410000Y-107950000D03*
X105410000Y-110490000D03*
X105410000Y-113030000D03*
X105410000Y-115570000D03*
X105410000Y-118110000D03*
X105410000Y-120650000D03*
X105410000Y-123190000D03*
X105410000Y-125730000D03*
X105410000Y-128270000D03*
X105410000Y-130810000D03*
X105410000Y-133350000D03*
D27*
X55245000Y-115570000D03*
X59055000Y-116205000D03*
X75565000Y-98425000D03*
X60960000Y-101600000D03*
X52324000Y-100838000D03*
X76073000Y-119507000D03*
X75692000Y-128397000D03*
X80010000Y-104775000D03*
X77152500Y-98742500D03*
X77978000Y-98806000D03*
X77851000Y-102997000D03*
X73152000Y-103251000D03*
X96647000Y-113030000D03*
D28*
X58420000Y-115570000D02*
X55245000Y-115570000D01*
X59055000Y-116205000D02*
X58420000Y-115570000D01*
X54690000Y-111760000D02*
X54102000Y-111760000D01*
X54102000Y-111760000D02*
X50800000Y-115062000D01*
X50800000Y-115062000D02*
X50800000Y-120650000D01*
X75565000Y-98425000D02*
X75565000Y-93345000D01*
X75565000Y-93345000D02*
X78740000Y-90170000D01*
X73660000Y-98425000D02*
X75565000Y-98425000D01*
X70485000Y-101600000D02*
X73660000Y-98425000D01*
X60960000Y-101600000D02*
X70485000Y-101600000D01*
X55570000Y-97592000D02*
X55570000Y-96520000D01*
X52324000Y-100838000D02*
X55570000Y-97592000D01*
X76073000Y-128016000D02*
X76073000Y-119507000D01*
X75692000Y-128397000D02*
X76073000Y-128016000D01*
X46990000Y-102870000D02*
X71120000Y-102870000D01*
X73025000Y-104775000D02*
X80010000Y-104775000D01*
X71120000Y-102870000D02*
X73025000Y-104775000D01*
X78740000Y-95250000D02*
X80010000Y-95250000D01*
X80010000Y-95250000D02*
X83820000Y-91440000D01*
X69850000Y-115570000D02*
X77597000Y-115570000D01*
X81407000Y-111760000D02*
X92710000Y-111760000D01*
X77597000Y-115570000D02*
X81407000Y-111760000D01*
X78105000Y-97790000D02*
X92710000Y-97790000D01*
X77152500Y-98742500D02*
X78105000Y-97790000D01*
X90678000Y-99568000D02*
X92710000Y-101600000D01*
X78740000Y-99568000D02*
X90678000Y-99568000D01*
X77978000Y-98806000D02*
X78740000Y-99568000D01*
X73406000Y-102997000D02*
X77851000Y-102997000D01*
X73152000Y-103251000D02*
X73406000Y-102997000D01*
X99441000Y-106299000D02*
X100330000Y-105410000D01*
X99441000Y-110236000D02*
X99441000Y-106299000D01*
X96647000Y-113030000D02*
X99441000Y-110236000D01*
D29*
G36*
X107240000Y-135180000D02*
X45160000Y-135180000D01*
X45160000Y-90170000D01*
X45306655Y-90170000D01*
X45420729Y-90743489D01*
X45745585Y-91229670D01*
X46060366Y-91440000D01*
X45745585Y-91650330D01*
X45420729Y-92136511D01*
X45306655Y-92710000D01*
X45420729Y-93283489D01*
X45745585Y-93769670D01*
X46060366Y-93980000D01*
X45745585Y-94190330D01*
X45420729Y-94676511D01*
X45306655Y-95250000D01*
X45420729Y-95823489D01*
X45745585Y-96309670D01*
X46060366Y-96520000D01*
X45745585Y-96730330D01*
X45420729Y-97216511D01*
X45306655Y-97790000D01*
X45420729Y-98363489D01*
X45745585Y-98849670D01*
X46060366Y-99060000D01*
X45745585Y-99270330D01*
X45420729Y-99756511D01*
X45306655Y-100330000D01*
X45420729Y-100903489D01*
X45745585Y-101389670D01*
X46060366Y-101600000D01*
X45745585Y-101810330D01*
X45420729Y-102296511D01*
X45306655Y-102870000D01*
X45420729Y-103443489D01*
X45745585Y-103929670D01*
X46060366Y-104140000D01*
X45745585Y-104350330D01*
X45420729Y-104836511D01*
X45306655Y-105410000D01*
X45420729Y-105983489D01*
X45745585Y-106469670D01*
X46060366Y-106680000D01*
X45745585Y-106890330D01*
X45420729Y-107376511D01*
X45306655Y-107950000D01*
X45420729Y-108523489D01*
X45745585Y-109009670D01*
X46060366Y-109220000D01*
X45745585Y-109430330D01*
X45420729Y-109916511D01*
X45306655Y-110490000D01*
X45420729Y-111063489D01*
X45745585Y-111549670D01*
X46060366Y-111760000D01*
X45745585Y-111970330D01*
X45420729Y-112456511D01*
X45306655Y-113030000D01*
X45420729Y-113603489D01*
X45745585Y-114089670D01*
X46060366Y-114300000D01*
X45745585Y-114510330D01*
X45420729Y-114996511D01*
X45306655Y-115570000D01*
X45420729Y-116143489D01*
X45745585Y-116629670D01*
X46060366Y-116840000D01*
X45745585Y-117050330D01*
X45420729Y-117536511D01*
X45306655Y-118110000D01*
X45420729Y-118683489D01*
X45745585Y-119169670D01*
X46060366Y-119380000D01*
X45745585Y-119590330D01*
X45420729Y-120076511D01*
X45306655Y-120650000D01*
X45420729Y-121223489D01*
X45745585Y-121709670D01*
X46060366Y-121920000D01*
X45745585Y-122130330D01*
X45420729Y-122616511D01*
X45306655Y-123190000D01*
X45420729Y-123763489D01*
X45745585Y-124249670D01*
X46060366Y-124460000D01*
X45745585Y-124670330D01*
X45420729Y-125156511D01*
X45306655Y-125730000D01*
X45420729Y-126303489D01*
X45745585Y-126789670D01*
X46060366Y-127000000D01*
X45745585Y-127210330D01*
X45420729Y-127696511D01*
X45306655Y-128270000D01*
X45420729Y-128843489D01*
X45745585Y-129329670D01*
X46060366Y-129540000D01*
X45745585Y-129750330D01*
X45420729Y-130236511D01*
X45306655Y-130810000D01*
X45420729Y-131383489D01*
X45745585Y-131869670D01*
X46060366Y-132080000D01*
X45745585Y-132290330D01*
X45420729Y-132776511D01*
X45306655Y-133350000D01*
X45420729Y-133923489D01*
X45745585Y-134409670D01*
X46231766Y-134734526D01*
X46805255Y-134848600D01*
X47174745Y-134848600D01*
X47748234Y-134734526D01*
X48234415Y-134409670D01*
X48559271Y-133923489D01*
X48673345Y-133350000D01*
X48559271Y-132776511D01*
X48234415Y-132290330D01*
X47919634Y-132080000D01*
X48234415Y-131869670D01*
X48559271Y-131383489D01*
X48673345Y-130810000D01*
X48559271Y-130236511D01*
X48234415Y-129750330D01*
X47919634Y-129540000D01*
X48234415Y-129329670D01*
X48559271Y-128843489D01*
X48673345Y-128270000D01*
X48559271Y-127696511D01*
X48234415Y-127210330D01*
X47919634Y-127000000D01*
X48234415Y-126789670D01*
X48559271Y-126303489D01*
X48610190Y-126047500D01*
X49200060Y-126047500D01*
X49200060Y-127952500D01*
X49244338Y-128187817D01*
X49383410Y-128403941D01*
X49595610Y-128548931D01*
X49847500Y-128599940D01*
X51752500Y-128599940D01*
X51987817Y-128555662D01*
X52203941Y-128416590D01*
X52348931Y-128204390D01*
X52399940Y-127952500D01*
X52399940Y-127314388D01*
X54292225Y-127314388D01*
X54533398Y-127898072D01*
X54979579Y-128345032D01*
X55562841Y-128587224D01*
X56194388Y-128587775D01*
X56195053Y-128587500D01*
X58090060Y-128587500D01*
X58090060Y-130492500D01*
X58134338Y-130727817D01*
X58273410Y-130943941D01*
X58485610Y-131088931D01*
X58737500Y-131139940D01*
X60642500Y-131139940D01*
X60877817Y-131095662D01*
X61093941Y-130956590D01*
X61238931Y-130744390D01*
X61289940Y-130492500D01*
X61289940Y-129854388D01*
X63182225Y-129854388D01*
X63423398Y-130438072D01*
X63869579Y-130885032D01*
X64452841Y-131127224D01*
X65084388Y-131127775D01*
X65161894Y-131095750D01*
X67245000Y-131095750D01*
X67245000Y-131636310D01*
X67341673Y-131869699D01*
X67520302Y-132048327D01*
X67753691Y-132145000D01*
X68294250Y-132145000D01*
X68453000Y-131986250D01*
X68453000Y-130937000D01*
X68707000Y-130937000D01*
X68707000Y-131986250D01*
X68865750Y-132145000D01*
X69406309Y-132145000D01*
X69639698Y-132048327D01*
X69818327Y-131869699D01*
X69915000Y-131636310D01*
X69915000Y-131095750D01*
X69893633Y-131074383D01*
X72244769Y-131074383D01*
X72447582Y-131565229D01*
X72822796Y-131941098D01*
X73313287Y-132144768D01*
X73844383Y-132145231D01*
X74335229Y-131942418D01*
X74711098Y-131567204D01*
X74914768Y-131076713D01*
X74915231Y-130545617D01*
X74735239Y-130110000D01*
X78662560Y-130110000D01*
X78662560Y-131510000D01*
X78706838Y-131745317D01*
X78845910Y-131961441D01*
X79058110Y-132106431D01*
X79310000Y-132157440D01*
X80710000Y-132157440D01*
X80945317Y-132113162D01*
X81161441Y-131974090D01*
X81306431Y-131761890D01*
X81357440Y-131510000D01*
X81357440Y-130110000D01*
X81313162Y-129874683D01*
X81174090Y-129658559D01*
X80961890Y-129513569D01*
X80710000Y-129462560D01*
X79310000Y-129462560D01*
X79074683Y-129506838D01*
X78858559Y-129645910D01*
X78713569Y-129858110D01*
X78662560Y-130110000D01*
X74735239Y-130110000D01*
X74712418Y-130054771D01*
X74337204Y-129678902D01*
X73846713Y-129475232D01*
X73315617Y-129474769D01*
X72824771Y-129677582D01*
X72448902Y-130052796D01*
X72245232Y-130543287D01*
X72244769Y-131074383D01*
X69893633Y-131074383D01*
X69756250Y-130937000D01*
X68707000Y-130937000D01*
X68453000Y-130937000D01*
X67403750Y-130937000D01*
X67245000Y-131095750D01*
X65161894Y-131095750D01*
X65668072Y-130886602D01*
X66115032Y-130440421D01*
X66304683Y-129983690D01*
X67245000Y-129983690D01*
X67245000Y-130524250D01*
X67403750Y-130683000D01*
X68453000Y-130683000D01*
X68453000Y-129633750D01*
X68707000Y-129633750D01*
X68707000Y-130683000D01*
X69756250Y-130683000D01*
X69915000Y-130524250D01*
X69915000Y-129983690D01*
X69818327Y-129750301D01*
X69639698Y-129571673D01*
X69406309Y-129475000D01*
X68865750Y-129475000D01*
X68707000Y-129633750D01*
X68453000Y-129633750D01*
X68294250Y-129475000D01*
X67753691Y-129475000D01*
X67520302Y-129571673D01*
X67341673Y-129750301D01*
X67245000Y-129983690D01*
X66304683Y-129983690D01*
X66357224Y-129857159D01*
X66357775Y-129225612D01*
X66116602Y-128641928D01*
X66056946Y-128582167D01*
X74756838Y-128582167D01*
X74898883Y-128925943D01*
X75161673Y-129189192D01*
X75505201Y-129331838D01*
X75877167Y-129332162D01*
X76220943Y-129190117D01*
X76484192Y-128927327D01*
X76626838Y-128583799D01*
X76626886Y-128528730D01*
X76775148Y-128306840D01*
X76833000Y-128016000D01*
X76833000Y-126074383D01*
X78674769Y-126074383D01*
X78877582Y-126565229D01*
X79252796Y-126941098D01*
X79743287Y-127144768D01*
X80274383Y-127145231D01*
X80765229Y-126942418D01*
X81141098Y-126567204D01*
X81344768Y-126076713D01*
X81345231Y-125545617D01*
X81142418Y-125054771D01*
X80767204Y-124678902D01*
X80276713Y-124475232D01*
X79745617Y-124474769D01*
X79254771Y-124677582D01*
X78878902Y-125052796D01*
X78675232Y-125543287D01*
X78674769Y-126074383D01*
X76833000Y-126074383D01*
X76833000Y-123425295D01*
X77143453Y-123554206D01*
X77793694Y-123554774D01*
X78394655Y-123306462D01*
X78854846Y-122847073D01*
X79003115Y-122490000D01*
X81202560Y-122490000D01*
X81202560Y-123890000D01*
X81246838Y-124125317D01*
X81385910Y-124341441D01*
X81598110Y-124486431D01*
X81850000Y-124537440D01*
X83250000Y-124537440D01*
X83485317Y-124493162D01*
X83701441Y-124354090D01*
X83846431Y-124141890D01*
X83897440Y-123890000D01*
X83897440Y-122490000D01*
X83853162Y-122254683D01*
X83714090Y-122038559D01*
X83501890Y-121893569D01*
X83250000Y-121842560D01*
X81850000Y-121842560D01*
X81614683Y-121886838D01*
X81398559Y-122025910D01*
X81253569Y-122238110D01*
X81202560Y-122490000D01*
X79003115Y-122490000D01*
X79104206Y-122246547D01*
X79104774Y-121596306D01*
X78856462Y-120995345D01*
X78397073Y-120535154D01*
X77796547Y-120285794D01*
X77146306Y-120285226D01*
X76833000Y-120414681D01*
X76833000Y-120069463D01*
X76865192Y-120037327D01*
X77007838Y-119693799D01*
X77008162Y-119321833D01*
X76866117Y-118978057D01*
X76603327Y-118714808D01*
X76259799Y-118572162D01*
X75887833Y-118571838D01*
X75544057Y-118713883D01*
X75280808Y-118976673D01*
X75138162Y-119320201D01*
X75137838Y-119692167D01*
X75279883Y-120035943D01*
X75313000Y-120069118D01*
X75313000Y-127541928D01*
X75163057Y-127603883D01*
X74899808Y-127866673D01*
X74757162Y-128210201D01*
X74756838Y-128582167D01*
X66056946Y-128582167D01*
X65670421Y-128194968D01*
X65087159Y-127952776D01*
X64455612Y-127952225D01*
X63871928Y-128193398D01*
X63424968Y-128639579D01*
X63182776Y-129222841D01*
X63182225Y-129854388D01*
X61289940Y-129854388D01*
X61289940Y-128587500D01*
X61245662Y-128352183D01*
X61106590Y-128136059D01*
X60894390Y-127991069D01*
X60642500Y-127940060D01*
X58737500Y-127940060D01*
X58502183Y-127984338D01*
X58286059Y-128123410D01*
X58141069Y-128335610D01*
X58090060Y-128587500D01*
X56195053Y-128587500D01*
X56778072Y-128346602D01*
X57225032Y-127900421D01*
X57467224Y-127317159D01*
X57467775Y-126685612D01*
X57226602Y-126101928D01*
X57140575Y-126015750D01*
X67245000Y-126015750D01*
X67245000Y-126556310D01*
X67341673Y-126789699D01*
X67520302Y-126968327D01*
X67753691Y-127065000D01*
X68294250Y-127065000D01*
X68453000Y-126906250D01*
X68453000Y-125857000D01*
X68707000Y-125857000D01*
X68707000Y-126906250D01*
X68865750Y-127065000D01*
X69406309Y-127065000D01*
X69639698Y-126968327D01*
X69818327Y-126789699D01*
X69915000Y-126556310D01*
X69915000Y-126015750D01*
X69893633Y-125994383D01*
X72244769Y-125994383D01*
X72447582Y-126485229D01*
X72822796Y-126861098D01*
X73313287Y-127064768D01*
X73844383Y-127065231D01*
X74335229Y-126862418D01*
X74711098Y-126487204D01*
X74914768Y-125996713D01*
X74915231Y-125465617D01*
X74712418Y-124974771D01*
X74337204Y-124598902D01*
X73846713Y-124395232D01*
X73315617Y-124394769D01*
X72824771Y-124597582D01*
X72448902Y-124972796D01*
X72245232Y-125463287D01*
X72244769Y-125994383D01*
X69893633Y-125994383D01*
X69756250Y-125857000D01*
X68707000Y-125857000D01*
X68453000Y-125857000D01*
X67403750Y-125857000D01*
X67245000Y-126015750D01*
X57140575Y-126015750D01*
X56780421Y-125654968D01*
X56197159Y-125412776D01*
X55565612Y-125412225D01*
X54981928Y-125653398D01*
X54534968Y-126099579D01*
X54292776Y-126682841D01*
X54292225Y-127314388D01*
X52399940Y-127314388D01*
X52399940Y-126047500D01*
X52355662Y-125812183D01*
X52216590Y-125596059D01*
X52004390Y-125451069D01*
X51752500Y-125400060D01*
X49847500Y-125400060D01*
X49612183Y-125444338D01*
X49396059Y-125583410D01*
X49251069Y-125795610D01*
X49200060Y-126047500D01*
X48610190Y-126047500D01*
X48673345Y-125730000D01*
X48559271Y-125156511D01*
X48390342Y-124903690D01*
X67245000Y-124903690D01*
X67245000Y-125444250D01*
X67403750Y-125603000D01*
X68453000Y-125603000D01*
X68453000Y-124553750D01*
X68707000Y-124553750D01*
X68707000Y-125603000D01*
X69756250Y-125603000D01*
X69915000Y-125444250D01*
X69915000Y-124903690D01*
X69818327Y-124670301D01*
X69639698Y-124491673D01*
X69406309Y-124395000D01*
X68865750Y-124395000D01*
X68707000Y-124553750D01*
X68453000Y-124553750D01*
X68294250Y-124395000D01*
X67753691Y-124395000D01*
X67520302Y-124491673D01*
X67341673Y-124670301D01*
X67245000Y-124903690D01*
X48390342Y-124903690D01*
X48234415Y-124670330D01*
X47919634Y-124460000D01*
X48234415Y-124249670D01*
X48559271Y-123763489D01*
X48673345Y-123190000D01*
X48559271Y-122616511D01*
X48234415Y-122130330D01*
X47919634Y-121920000D01*
X48234415Y-121709670D01*
X48559271Y-121223489D01*
X48608958Y-120973694D01*
X49165226Y-120973694D01*
X49413538Y-121574655D01*
X49872927Y-122034846D01*
X50473453Y-122284206D01*
X51123694Y-122284774D01*
X51724655Y-122036462D01*
X52184846Y-121577073D01*
X52333115Y-121220000D01*
X59612560Y-121220000D01*
X59612560Y-122620000D01*
X59656838Y-122855317D01*
X59795910Y-123071441D01*
X60008110Y-123216431D01*
X60260000Y-123267440D01*
X61660000Y-123267440D01*
X61895317Y-123223162D01*
X62111441Y-123084090D01*
X62256431Y-122871890D01*
X62307440Y-122620000D01*
X62307440Y-122184383D01*
X64624769Y-122184383D01*
X64827582Y-122675229D01*
X65202796Y-123051098D01*
X65693287Y-123254768D01*
X66224383Y-123255231D01*
X66715229Y-123052418D01*
X67091098Y-122677204D01*
X67294768Y-122186713D01*
X67295231Y-121655617D01*
X67092418Y-121164771D01*
X66863797Y-120935750D01*
X67245000Y-120935750D01*
X67245000Y-121476310D01*
X67341673Y-121709699D01*
X67520302Y-121888327D01*
X67753691Y-121985000D01*
X68294250Y-121985000D01*
X68453000Y-121826250D01*
X68453000Y-120777000D01*
X68707000Y-120777000D01*
X68707000Y-121826250D01*
X68865750Y-121985000D01*
X69406309Y-121985000D01*
X69639698Y-121888327D01*
X69818327Y-121709699D01*
X69915000Y-121476310D01*
X69915000Y-120935750D01*
X69893633Y-120914383D01*
X72244769Y-120914383D01*
X72447582Y-121405229D01*
X72822796Y-121781098D01*
X73313287Y-121984768D01*
X73844383Y-121985231D01*
X74335229Y-121782418D01*
X74711098Y-121407204D01*
X74914768Y-120916713D01*
X74915231Y-120385617D01*
X74712418Y-119894771D01*
X74337204Y-119518902D01*
X73846713Y-119315232D01*
X73315617Y-119314769D01*
X72824771Y-119517582D01*
X72448902Y-119892796D01*
X72245232Y-120383287D01*
X72244769Y-120914383D01*
X69893633Y-120914383D01*
X69756250Y-120777000D01*
X68707000Y-120777000D01*
X68453000Y-120777000D01*
X67403750Y-120777000D01*
X67245000Y-120935750D01*
X66863797Y-120935750D01*
X66717204Y-120788902D01*
X66226713Y-120585232D01*
X65695617Y-120584769D01*
X65204771Y-120787582D01*
X64828902Y-121162796D01*
X64625232Y-121653287D01*
X64624769Y-122184383D01*
X62307440Y-122184383D01*
X62307440Y-121220000D01*
X62263162Y-120984683D01*
X62124090Y-120768559D01*
X61911890Y-120623569D01*
X61660000Y-120572560D01*
X60260000Y-120572560D01*
X60024683Y-120616838D01*
X59808559Y-120755910D01*
X59663569Y-120968110D01*
X59612560Y-121220000D01*
X52333115Y-121220000D01*
X52434206Y-120976547D01*
X52434774Y-120326306D01*
X52227098Y-119823690D01*
X67245000Y-119823690D01*
X67245000Y-120364250D01*
X67403750Y-120523000D01*
X68453000Y-120523000D01*
X68453000Y-119473750D01*
X68707000Y-119473750D01*
X68707000Y-120523000D01*
X69756250Y-120523000D01*
X69915000Y-120364250D01*
X69915000Y-119823690D01*
X69818327Y-119590301D01*
X69639698Y-119411673D01*
X69406309Y-119315000D01*
X68865750Y-119315000D01*
X68707000Y-119473750D01*
X68453000Y-119473750D01*
X68294250Y-119315000D01*
X67753691Y-119315000D01*
X67520302Y-119411673D01*
X67341673Y-119590301D01*
X67245000Y-119823690D01*
X52227098Y-119823690D01*
X52186462Y-119725345D01*
X51727073Y-119265154D01*
X51560000Y-119195779D01*
X51560000Y-115755167D01*
X54309838Y-115755167D01*
X54451883Y-116098943D01*
X54714673Y-116362192D01*
X55058201Y-116504838D01*
X55430167Y-116505162D01*
X55773943Y-116363117D01*
X55807118Y-116330000D01*
X58105198Y-116330000D01*
X58119878Y-116344680D01*
X58119838Y-116390167D01*
X58261883Y-116733943D01*
X58524673Y-116997192D01*
X58868201Y-117139838D01*
X59240167Y-117140162D01*
X59583943Y-116998117D01*
X59847192Y-116735327D01*
X59989838Y-116391799D01*
X59990162Y-116019833D01*
X59934198Y-115884388D01*
X68262225Y-115884388D01*
X68503398Y-116468072D01*
X68949579Y-116915032D01*
X69532841Y-117157224D01*
X70164388Y-117157775D01*
X70748072Y-116916602D01*
X71195032Y-116470421D01*
X71253340Y-116330000D01*
X77597000Y-116330000D01*
X77887839Y-116272148D01*
X78134401Y-116107401D01*
X79371802Y-114870000D01*
X81202560Y-114870000D01*
X81202560Y-116270000D01*
X81246838Y-116505317D01*
X81385910Y-116721441D01*
X81598110Y-116866431D01*
X81850000Y-116917440D01*
X82133941Y-116917440D01*
X81794771Y-117057582D01*
X81418902Y-117432796D01*
X81215232Y-117923287D01*
X81214769Y-118454383D01*
X81417582Y-118945229D01*
X81792796Y-119321098D01*
X82283287Y-119524768D01*
X82814383Y-119525231D01*
X83305229Y-119322418D01*
X83681098Y-118947204D01*
X83884768Y-118456713D01*
X83885231Y-117925617D01*
X83682418Y-117434771D01*
X83307204Y-117058902D01*
X82966526Y-116917440D01*
X83250000Y-116917440D01*
X83485317Y-116873162D01*
X83701441Y-116734090D01*
X83846431Y-116521890D01*
X83897440Y-116270000D01*
X83897440Y-114870000D01*
X86282560Y-114870000D01*
X86282560Y-116270000D01*
X86326838Y-116505317D01*
X86465910Y-116721441D01*
X86678110Y-116866431D01*
X86930000Y-116917440D01*
X88330000Y-116917440D01*
X88565317Y-116873162D01*
X88781441Y-116734090D01*
X88926431Y-116521890D01*
X88977440Y-116270000D01*
X88977440Y-114870000D01*
X88933162Y-114634683D01*
X88794090Y-114418559D01*
X88581890Y-114273569D01*
X88330000Y-114222560D01*
X86930000Y-114222560D01*
X86694683Y-114266838D01*
X86478559Y-114405910D01*
X86333569Y-114618110D01*
X86282560Y-114870000D01*
X83897440Y-114870000D01*
X83853162Y-114634683D01*
X83714090Y-114418559D01*
X83501890Y-114273569D01*
X83250000Y-114222560D01*
X81850000Y-114222560D01*
X81614683Y-114266838D01*
X81398559Y-114405910D01*
X81253569Y-114618110D01*
X81202560Y-114870000D01*
X79371802Y-114870000D01*
X81721802Y-112520000D01*
X91255504Y-112520000D01*
X91323538Y-112684655D01*
X91782927Y-113144846D01*
X92383453Y-113394206D01*
X93033694Y-113394774D01*
X93634655Y-113146462D01*
X94094846Y-112687073D01*
X94344206Y-112086547D01*
X94344774Y-111436306D01*
X94096462Y-110835345D01*
X94015642Y-110754383D01*
X95264769Y-110754383D01*
X95467582Y-111245229D01*
X95842796Y-111621098D01*
X96333287Y-111824768D01*
X96777043Y-111825155D01*
X96507320Y-112094878D01*
X96461833Y-112094838D01*
X96118057Y-112236883D01*
X95854808Y-112499673D01*
X95712162Y-112843201D01*
X95711838Y-113215167D01*
X95853883Y-113558943D01*
X96116673Y-113822192D01*
X96460201Y-113964838D01*
X96832167Y-113965162D01*
X97175943Y-113823117D01*
X97439192Y-113560327D01*
X97581838Y-113216799D01*
X97581879Y-113169923D01*
X99978401Y-110773401D01*
X100143148Y-110526839D01*
X100201000Y-110236000D01*
X100201000Y-109790000D01*
X100252560Y-109790000D01*
X100252560Y-111190000D01*
X100296838Y-111425317D01*
X100435910Y-111641441D01*
X100648110Y-111786431D01*
X100900000Y-111837440D01*
X102300000Y-111837440D01*
X102535317Y-111793162D01*
X102751441Y-111654090D01*
X102896431Y-111441890D01*
X102947440Y-111190000D01*
X102947440Y-109790000D01*
X102903162Y-109554683D01*
X102764090Y-109338559D01*
X102551890Y-109193569D01*
X102300000Y-109142560D01*
X100900000Y-109142560D01*
X100664683Y-109186838D01*
X100448559Y-109325910D01*
X100303569Y-109538110D01*
X100252560Y-109790000D01*
X100201000Y-109790000D01*
X100201000Y-107044379D01*
X100653694Y-107044774D01*
X101254655Y-106796462D01*
X101714846Y-106337073D01*
X101964206Y-105736547D01*
X101964774Y-105086306D01*
X101716462Y-104485345D01*
X101257073Y-104025154D01*
X100656547Y-103775794D01*
X100006306Y-103775226D01*
X99405345Y-104023538D01*
X98945154Y-104482927D01*
X98695794Y-105083453D01*
X98695226Y-105733694D01*
X98781970Y-105943630D01*
X98738852Y-106008161D01*
X98681000Y-106299000D01*
X98681000Y-109921198D01*
X97934846Y-110667352D01*
X97935231Y-110225617D01*
X97732418Y-109734771D01*
X97357204Y-109358902D01*
X96866713Y-109155232D01*
X96335617Y-109154769D01*
X95844771Y-109357582D01*
X95468902Y-109732796D01*
X95265232Y-110223287D01*
X95264769Y-110754383D01*
X94015642Y-110754383D01*
X93637073Y-110375154D01*
X93036547Y-110125794D01*
X92386306Y-110125226D01*
X91785345Y-110373538D01*
X91325154Y-110832927D01*
X91255779Y-111000000D01*
X88893932Y-111000000D01*
X88977419Y-110762878D01*
X88948664Y-110232560D01*
X88801042Y-109876169D01*
X88565275Y-109814331D01*
X87809605Y-110570000D01*
X87823748Y-110584142D01*
X87644143Y-110763748D01*
X87630000Y-110749605D01*
X87615858Y-110763748D01*
X87436252Y-110584142D01*
X87450395Y-110570000D01*
X86694725Y-109814331D01*
X86458958Y-109876169D01*
X86282581Y-110377122D01*
X86311336Y-110907440D01*
X86349676Y-111000000D01*
X83816965Y-111000000D01*
X83884768Y-110836713D01*
X83885231Y-110305617D01*
X83682418Y-109814771D01*
X83502686Y-109634725D01*
X86874331Y-109634725D01*
X87630000Y-110390395D01*
X88385669Y-109634725D01*
X88323831Y-109398958D01*
X87822878Y-109222581D01*
X87292560Y-109251336D01*
X86936169Y-109398958D01*
X86874331Y-109634725D01*
X83502686Y-109634725D01*
X83307204Y-109438902D01*
X82816713Y-109235232D01*
X82285617Y-109234769D01*
X81794771Y-109437582D01*
X81418902Y-109812796D01*
X81215232Y-110303287D01*
X81214769Y-110834383D01*
X81292603Y-111022755D01*
X81116161Y-111057852D01*
X80869599Y-111222599D01*
X77282198Y-114810000D01*
X71253652Y-114810000D01*
X71196602Y-114671928D01*
X70750421Y-114224968D01*
X70167159Y-113982776D01*
X69535612Y-113982225D01*
X68951928Y-114223398D01*
X68504968Y-114669579D01*
X68262776Y-115252841D01*
X68262225Y-115884388D01*
X59934198Y-115884388D01*
X59848117Y-115676057D01*
X59585327Y-115412808D01*
X59241799Y-115270162D01*
X59194923Y-115270121D01*
X58957401Y-115032599D01*
X58710839Y-114867852D01*
X58420000Y-114810000D01*
X55807463Y-114810000D01*
X55775327Y-114777808D01*
X55431799Y-114635162D01*
X55059833Y-114634838D01*
X54716057Y-114776883D01*
X54452808Y-115039673D01*
X54310162Y-115383201D01*
X54309838Y-115755167D01*
X51560000Y-115755167D01*
X51560000Y-115376802D01*
X54012576Y-112924226D01*
X54423287Y-113094768D01*
X54954383Y-113095231D01*
X55445229Y-112892418D01*
X55821098Y-112517204D01*
X56024768Y-112026713D01*
X56025231Y-111495617D01*
X55845239Y-111060000D01*
X58342560Y-111060000D01*
X58342560Y-112460000D01*
X58386838Y-112695317D01*
X58525910Y-112911441D01*
X58738110Y-113056431D01*
X58990000Y-113107440D01*
X60390000Y-113107440D01*
X60625317Y-113063162D01*
X60841441Y-112924090D01*
X60986431Y-112711890D01*
X61037440Y-112460000D01*
X61037440Y-111060000D01*
X60993162Y-110824683D01*
X60854090Y-110608559D01*
X60641890Y-110463569D01*
X60390000Y-110412560D01*
X58990000Y-110412560D01*
X58754683Y-110456838D01*
X58538559Y-110595910D01*
X58393569Y-110808110D01*
X58342560Y-111060000D01*
X55845239Y-111060000D01*
X55822418Y-111004771D01*
X55447204Y-110628902D01*
X54956713Y-110425232D01*
X54425617Y-110424769D01*
X53934771Y-110627582D01*
X53558902Y-111002796D01*
X53398776Y-111388422D01*
X50262599Y-114524599D01*
X50097852Y-114771161D01*
X50040000Y-115062000D01*
X50040000Y-119195504D01*
X49875345Y-119263538D01*
X49415154Y-119722927D01*
X49165794Y-120323453D01*
X49165226Y-120973694D01*
X48608958Y-120973694D01*
X48673345Y-120650000D01*
X48559271Y-120076511D01*
X48234415Y-119590330D01*
X47919634Y-119380000D01*
X48234415Y-119169670D01*
X48559271Y-118683489D01*
X48673345Y-118110000D01*
X48559271Y-117536511D01*
X48234415Y-117050330D01*
X47919634Y-116840000D01*
X48234415Y-116629670D01*
X48559271Y-116143489D01*
X48673345Y-115570000D01*
X48559271Y-114996511D01*
X48234415Y-114510330D01*
X47919634Y-114300000D01*
X48234415Y-114089670D01*
X48559271Y-113603489D01*
X48673345Y-113030000D01*
X48559271Y-112456511D01*
X48234415Y-111970330D01*
X47919634Y-111760000D01*
X48095989Y-111642163D01*
X49827443Y-111642163D01*
X49926042Y-111908965D01*
X50535582Y-112135401D01*
X51185377Y-112111341D01*
X51673958Y-111908965D01*
X51772557Y-111642163D01*
X50800000Y-110669605D01*
X49827443Y-111642163D01*
X48095989Y-111642163D01*
X48234415Y-111549670D01*
X48559271Y-111063489D01*
X48673345Y-110490000D01*
X48620750Y-110225582D01*
X49154599Y-110225582D01*
X49178659Y-110875377D01*
X49381035Y-111363958D01*
X49647837Y-111462557D01*
X50620395Y-110490000D01*
X50979605Y-110490000D01*
X51952163Y-111462557D01*
X52218965Y-111363958D01*
X52445401Y-110754418D01*
X52421341Y-110104623D01*
X52218965Y-109616042D01*
X52006436Y-109537500D01*
X68250060Y-109537500D01*
X68250060Y-111442500D01*
X68294338Y-111677817D01*
X68433410Y-111893941D01*
X68645610Y-112038931D01*
X68897500Y-112089940D01*
X70802500Y-112089940D01*
X70835694Y-112083694D01*
X75835226Y-112083694D01*
X76083538Y-112684655D01*
X76542927Y-113144846D01*
X77143453Y-113394206D01*
X77793694Y-113394774D01*
X78394655Y-113146462D01*
X78854846Y-112687073D01*
X79104206Y-112086547D01*
X79104774Y-111436306D01*
X78856462Y-110835345D01*
X78397073Y-110375154D01*
X77796547Y-110125794D01*
X77146306Y-110125226D01*
X76545345Y-110373538D01*
X76085154Y-110832927D01*
X75835794Y-111433453D01*
X75835226Y-112083694D01*
X70835694Y-112083694D01*
X71037817Y-112045662D01*
X71253941Y-111906590D01*
X71398931Y-111694390D01*
X71449940Y-111442500D01*
X71449940Y-109537500D01*
X71405662Y-109302183D01*
X71266590Y-109086059D01*
X71054390Y-108941069D01*
X70802500Y-108890060D01*
X68897500Y-108890060D01*
X68662183Y-108934338D01*
X68446059Y-109073410D01*
X68301069Y-109285610D01*
X68250060Y-109537500D01*
X52006436Y-109537500D01*
X51952163Y-109517443D01*
X50979605Y-110490000D01*
X50620395Y-110490000D01*
X49647837Y-109517443D01*
X49381035Y-109616042D01*
X49154599Y-110225582D01*
X48620750Y-110225582D01*
X48559271Y-109916511D01*
X48234415Y-109430330D01*
X48095990Y-109337837D01*
X49827443Y-109337837D01*
X50800000Y-110310395D01*
X51772557Y-109337837D01*
X51673958Y-109071035D01*
X51064418Y-108844599D01*
X50414623Y-108868659D01*
X49926042Y-109071035D01*
X49827443Y-109337837D01*
X48095990Y-109337837D01*
X47919634Y-109220000D01*
X48234415Y-109009670D01*
X48559271Y-108523489D01*
X48673345Y-107950000D01*
X48559271Y-107376511D01*
X48283112Y-106963210D01*
X49315890Y-106963210D01*
X49315890Y-107653400D01*
X49412563Y-107886789D01*
X49591192Y-108065417D01*
X49824581Y-108162090D01*
X50514770Y-108162090D01*
X50673520Y-108003340D01*
X50673520Y-106804460D01*
X50927520Y-106804460D01*
X50927520Y-108003340D01*
X51086270Y-108162090D01*
X51776459Y-108162090D01*
X52009848Y-108065417D01*
X52188477Y-107886789D01*
X52285150Y-107653400D01*
X52285150Y-106963210D01*
X52126400Y-106804460D01*
X50927520Y-106804460D01*
X50673520Y-106804460D01*
X49474640Y-106804460D01*
X49315890Y-106963210D01*
X48283112Y-106963210D01*
X48234415Y-106890330D01*
X47919634Y-106680000D01*
X48234415Y-106469670D01*
X48559271Y-105983489D01*
X48615358Y-105701520D01*
X49315890Y-105701520D01*
X49315890Y-106391710D01*
X49474640Y-106550460D01*
X50673520Y-106550460D01*
X50673520Y-106530460D01*
X50927520Y-106530460D01*
X50927520Y-106550460D01*
X52126400Y-106550460D01*
X52285150Y-106391710D01*
X52285150Y-105701520D01*
X52188477Y-105468131D01*
X52009848Y-105289503D01*
X51776459Y-105192830D01*
X51661458Y-105192830D01*
X51663565Y-105186230D01*
X50799480Y-104322145D01*
X49935395Y-105186230D01*
X49937502Y-105192830D01*
X49824581Y-105192830D01*
X49591192Y-105289503D01*
X49412563Y-105468131D01*
X49315890Y-105701520D01*
X48615358Y-105701520D01*
X48673345Y-105410000D01*
X48559271Y-104836511D01*
X48234415Y-104350330D01*
X47919634Y-104140000D01*
X48234415Y-103929670D01*
X48434648Y-103630000D01*
X49406112Y-103630000D01*
X49303130Y-103913907D01*
X49329539Y-104503939D01*
X49504527Y-104926398D01*
X49755790Y-105006625D01*
X50619875Y-104142540D01*
X50605733Y-104128398D01*
X50785338Y-103948793D01*
X50799480Y-103962935D01*
X50813623Y-103948793D01*
X50993228Y-104128398D01*
X50979085Y-104142540D01*
X51843170Y-105006625D01*
X52094433Y-104926398D01*
X52295830Y-104371173D01*
X52269421Y-103781141D01*
X52206816Y-103630000D01*
X59462410Y-103630000D01*
X59462410Y-104992170D01*
X59506688Y-105227487D01*
X59645760Y-105443611D01*
X59857960Y-105588601D01*
X59934363Y-105604073D01*
X59702646Y-105835386D01*
X59476148Y-106380853D01*
X59475632Y-106971476D01*
X59701178Y-107517337D01*
X60118446Y-107935334D01*
X60663913Y-108161832D01*
X61254536Y-108162348D01*
X61800397Y-107936802D01*
X62218394Y-107519534D01*
X62444892Y-106974067D01*
X62445408Y-106383444D01*
X62219862Y-105837583D01*
X62116255Y-105733795D01*
X63134716Y-105733795D01*
X63383106Y-106334943D01*
X63842637Y-106795278D01*
X64443352Y-107044716D01*
X65093795Y-107045284D01*
X65694943Y-106796894D01*
X66155278Y-106337363D01*
X66404716Y-105736648D01*
X66404718Y-105733694D01*
X94885226Y-105733694D01*
X95133538Y-106334655D01*
X95592927Y-106794846D01*
X96193453Y-107044206D01*
X96843694Y-107044774D01*
X97444655Y-106796462D01*
X97904846Y-106337073D01*
X98154206Y-105736547D01*
X98154774Y-105086306D01*
X97906462Y-104485345D01*
X97447073Y-104025154D01*
X96846547Y-103775794D01*
X96196306Y-103775226D01*
X95595345Y-104023538D01*
X95135154Y-104482927D01*
X94885794Y-105083453D01*
X94885226Y-105733694D01*
X66404718Y-105733694D01*
X66405284Y-105086205D01*
X66156894Y-104485057D01*
X65697363Y-104024722D01*
X65096648Y-103775284D01*
X64446205Y-103774716D01*
X63845057Y-104023106D01*
X63384722Y-104482637D01*
X63135284Y-105083352D01*
X63134716Y-105733795D01*
X62116255Y-105733795D01*
X61988532Y-105605849D01*
X62044427Y-105595332D01*
X62260551Y-105456260D01*
X62405541Y-105244060D01*
X62456550Y-104992170D01*
X62456550Y-103630000D01*
X70805198Y-103630000D01*
X72487599Y-105312401D01*
X72734161Y-105477148D01*
X73025000Y-105535000D01*
X79447537Y-105535000D01*
X79479673Y-105567192D01*
X79823201Y-105709838D01*
X80195167Y-105710162D01*
X80538943Y-105568117D01*
X80802192Y-105305327D01*
X80944838Y-104961799D01*
X80945162Y-104589833D01*
X80803117Y-104246057D01*
X80540327Y-103982808D01*
X80196799Y-103840162D01*
X79824833Y-103839838D01*
X79481057Y-103981883D01*
X79447882Y-104015000D01*
X73710111Y-104015000D01*
X73944192Y-103781327D01*
X73954294Y-103757000D01*
X77288537Y-103757000D01*
X77320673Y-103789192D01*
X77664201Y-103931838D01*
X78036167Y-103932162D01*
X78379943Y-103790117D01*
X78643192Y-103527327D01*
X78785838Y-103183799D01*
X78786162Y-102811833D01*
X78644117Y-102468057D01*
X78381327Y-102204808D01*
X78037799Y-102062162D01*
X77665833Y-102061838D01*
X77322057Y-102203883D01*
X77288882Y-102237000D01*
X73406000Y-102237000D01*
X73115160Y-102294852D01*
X73083600Y-102315940D01*
X72966833Y-102315838D01*
X72623057Y-102457883D01*
X72359808Y-102720673D01*
X72267581Y-102942779D01*
X71657401Y-102332599D01*
X71410839Y-102167852D01*
X71120000Y-102110000D01*
X71049802Y-102110000D01*
X73974802Y-99185000D01*
X75002537Y-99185000D01*
X75034673Y-99217192D01*
X75378201Y-99359838D01*
X75750167Y-99360162D01*
X76093943Y-99218117D01*
X76266270Y-99046091D01*
X76359383Y-99271443D01*
X76622173Y-99534692D01*
X76965701Y-99677338D01*
X77337667Y-99677662D01*
X77488735Y-99615242D01*
X77791201Y-99740838D01*
X77838077Y-99740879D01*
X78202599Y-100105401D01*
X78449161Y-100270148D01*
X78740000Y-100328000D01*
X82836256Y-100328000D01*
X82668559Y-100435910D01*
X82523569Y-100648110D01*
X82472560Y-100900000D01*
X82472560Y-102300000D01*
X82516838Y-102535317D01*
X82655910Y-102751441D01*
X82868110Y-102896431D01*
X83120000Y-102947440D01*
X84520000Y-102947440D01*
X84755317Y-102903162D01*
X84971441Y-102764090D01*
X85116431Y-102551890D01*
X85119795Y-102535275D01*
X88064331Y-102535275D01*
X88126169Y-102771042D01*
X88627122Y-102947419D01*
X89157440Y-102918664D01*
X89513831Y-102771042D01*
X89575669Y-102535275D01*
X88820000Y-101779605D01*
X88064331Y-102535275D01*
X85119795Y-102535275D01*
X85167440Y-102300000D01*
X85167440Y-101407122D01*
X87472581Y-101407122D01*
X87501336Y-101937440D01*
X87648958Y-102293831D01*
X87884725Y-102355669D01*
X88640395Y-101600000D01*
X88999605Y-101600000D01*
X89755275Y-102355669D01*
X89991042Y-102293831D01*
X90167419Y-101792878D01*
X90138664Y-101262560D01*
X89991042Y-100906169D01*
X89755275Y-100844331D01*
X88999605Y-101600000D01*
X88640395Y-101600000D01*
X87884725Y-100844331D01*
X87648958Y-100906169D01*
X87472581Y-101407122D01*
X85167440Y-101407122D01*
X85167440Y-100900000D01*
X85123162Y-100664683D01*
X84984090Y-100448559D01*
X84807646Y-100328000D01*
X88369903Y-100328000D01*
X88126169Y-100428958D01*
X88064331Y-100664725D01*
X88820000Y-101420395D01*
X89575669Y-100664725D01*
X89513831Y-100428958D01*
X89227086Y-100328000D01*
X90363198Y-100328000D01*
X91144115Y-101108917D01*
X91075794Y-101273453D01*
X91075226Y-101923694D01*
X91323538Y-102524655D01*
X91782927Y-102984846D01*
X92383453Y-103234206D01*
X93033694Y-103234774D01*
X93634655Y-102986462D01*
X94094846Y-102527073D01*
X94344206Y-101926547D01*
X94344774Y-101276306D01*
X94096462Y-100675345D01*
X93637073Y-100215154D01*
X93036547Y-99965794D01*
X92386306Y-99965226D01*
X92219111Y-100034309D01*
X91215401Y-99030599D01*
X90968839Y-98865852D01*
X90678000Y-98808000D01*
X79054802Y-98808000D01*
X78913122Y-98666320D01*
X78913162Y-98620833D01*
X78883894Y-98550000D01*
X91255504Y-98550000D01*
X91323538Y-98714655D01*
X91782927Y-99174846D01*
X92383453Y-99424206D01*
X93033694Y-99424774D01*
X93634655Y-99176462D01*
X94094846Y-98717073D01*
X94344206Y-98116547D01*
X94344774Y-97466306D01*
X94096462Y-96865345D01*
X93637073Y-96405154D01*
X93036547Y-96155794D01*
X92386306Y-96155226D01*
X91785345Y-96403538D01*
X91325154Y-96862927D01*
X91255779Y-97030000D01*
X90055766Y-97030000D01*
X90167419Y-96712878D01*
X90138664Y-96182560D01*
X89991042Y-95826169D01*
X89755275Y-95764331D01*
X88999605Y-96520000D01*
X89013748Y-96534142D01*
X88834143Y-96713748D01*
X88820000Y-96699605D01*
X88805858Y-96713748D01*
X88626252Y-96534142D01*
X88640395Y-96520000D01*
X87884725Y-95764331D01*
X87648958Y-95826169D01*
X87472581Y-96327122D01*
X87501336Y-96857440D01*
X87572813Y-97030000D01*
X85167440Y-97030000D01*
X85167440Y-95820000D01*
X85123170Y-95584725D01*
X88064331Y-95584725D01*
X88820000Y-96340395D01*
X89575669Y-95584725D01*
X89572776Y-95573694D01*
X94885226Y-95573694D01*
X95133538Y-96174655D01*
X95592927Y-96634846D01*
X96193453Y-96884206D01*
X96843694Y-96884774D01*
X97444655Y-96636462D01*
X97904846Y-96177073D01*
X98154206Y-95576547D01*
X98154208Y-95573694D01*
X98695226Y-95573694D01*
X98943538Y-96174655D01*
X99402927Y-96634846D01*
X100003453Y-96884206D01*
X100653694Y-96884774D01*
X101254655Y-96636462D01*
X101714846Y-96177073D01*
X101964206Y-95576547D01*
X101964774Y-94926306D01*
X101716462Y-94325345D01*
X101257073Y-93865154D01*
X100656547Y-93615794D01*
X100006306Y-93615226D01*
X99405345Y-93863538D01*
X98945154Y-94322927D01*
X98695794Y-94923453D01*
X98695226Y-95573694D01*
X98154208Y-95573694D01*
X98154774Y-94926306D01*
X97906462Y-94325345D01*
X97447073Y-93865154D01*
X96846547Y-93615794D01*
X96196306Y-93615226D01*
X95595345Y-93863538D01*
X95135154Y-94322927D01*
X94885794Y-94923453D01*
X94885226Y-95573694D01*
X89572776Y-95573694D01*
X89513831Y-95348958D01*
X89012878Y-95172581D01*
X88482560Y-95201336D01*
X88126169Y-95348958D01*
X88064331Y-95584725D01*
X85123170Y-95584725D01*
X85123162Y-95584683D01*
X84984090Y-95368559D01*
X84771890Y-95223569D01*
X84520000Y-95172560D01*
X83120000Y-95172560D01*
X82884683Y-95216838D01*
X82668559Y-95355910D01*
X82523569Y-95568110D01*
X82472560Y-95820000D01*
X82472560Y-97030000D01*
X78105000Y-97030000D01*
X77862414Y-97078254D01*
X77814160Y-97087852D01*
X77567599Y-97252599D01*
X77012820Y-97807378D01*
X76967333Y-97807338D01*
X76623557Y-97949383D01*
X76451230Y-98121409D01*
X76358117Y-97896057D01*
X76325000Y-97862882D01*
X76325000Y-94297500D01*
X77140060Y-94297500D01*
X77140060Y-96202500D01*
X77184338Y-96437817D01*
X77323410Y-96653941D01*
X77535610Y-96798931D01*
X77787500Y-96849940D01*
X79692500Y-96849940D01*
X79927817Y-96805662D01*
X80143941Y-96666590D01*
X80288931Y-96454390D01*
X80339940Y-96202500D01*
X80339940Y-95926022D01*
X80547401Y-95787401D01*
X83547362Y-92787440D01*
X84520000Y-92787440D01*
X84755317Y-92743162D01*
X84971441Y-92604090D01*
X85116431Y-92391890D01*
X85119795Y-92375275D01*
X88064331Y-92375275D01*
X88126169Y-92611042D01*
X88627122Y-92787419D01*
X89157440Y-92758664D01*
X89513831Y-92611042D01*
X89575669Y-92375275D01*
X88820000Y-91619605D01*
X88064331Y-92375275D01*
X85119795Y-92375275D01*
X85167440Y-92140000D01*
X85167440Y-91247122D01*
X87472581Y-91247122D01*
X87501336Y-91777440D01*
X87648958Y-92133831D01*
X87884725Y-92195669D01*
X88640395Y-91440000D01*
X88999605Y-91440000D01*
X89755275Y-92195669D01*
X89991042Y-92133831D01*
X90167419Y-91632878D01*
X90138664Y-91102560D01*
X89991042Y-90746169D01*
X89967522Y-90740000D01*
X96442560Y-90740000D01*
X96442560Y-92140000D01*
X96486838Y-92375317D01*
X96625910Y-92591441D01*
X96838110Y-92736431D01*
X97090000Y-92787440D01*
X98490000Y-92787440D01*
X98725317Y-92743162D01*
X98941441Y-92604090D01*
X99086431Y-92391890D01*
X99137440Y-92140000D01*
X99137440Y-90740000D01*
X99093162Y-90504683D01*
X98954090Y-90288559D01*
X98780574Y-90170000D01*
X103726655Y-90170000D01*
X103840729Y-90743489D01*
X104165585Y-91229670D01*
X104480366Y-91440000D01*
X104165585Y-91650330D01*
X103840729Y-92136511D01*
X103726655Y-92710000D01*
X103840729Y-93283489D01*
X104165585Y-93769670D01*
X104480366Y-93980000D01*
X104165585Y-94190330D01*
X103840729Y-94676511D01*
X103726655Y-95250000D01*
X103840729Y-95823489D01*
X104165585Y-96309670D01*
X104480366Y-96520000D01*
X104165585Y-96730330D01*
X103840729Y-97216511D01*
X103726655Y-97790000D01*
X103840729Y-98363489D01*
X104165585Y-98849670D01*
X104480366Y-99060000D01*
X104165585Y-99270330D01*
X103840729Y-99756511D01*
X103726655Y-100330000D01*
X103840729Y-100903489D01*
X104165585Y-101389670D01*
X104480366Y-101600000D01*
X104165585Y-101810330D01*
X103840729Y-102296511D01*
X103726655Y-102870000D01*
X103840729Y-103443489D01*
X104165585Y-103929670D01*
X104480366Y-104140000D01*
X104165585Y-104350330D01*
X103840729Y-104836511D01*
X103726655Y-105410000D01*
X103840729Y-105983489D01*
X104165585Y-106469670D01*
X104480366Y-106680000D01*
X104165585Y-106890330D01*
X103840729Y-107376511D01*
X103726655Y-107950000D01*
X103840729Y-108523489D01*
X104165585Y-109009670D01*
X104480366Y-109220000D01*
X104165585Y-109430330D01*
X103840729Y-109916511D01*
X103726655Y-110490000D01*
X103840729Y-111063489D01*
X104165585Y-111549670D01*
X104480366Y-111760000D01*
X104165585Y-111970330D01*
X103840729Y-112456511D01*
X103726655Y-113030000D01*
X103840729Y-113603489D01*
X104165585Y-114089670D01*
X104480366Y-114300000D01*
X104165585Y-114510330D01*
X103840729Y-114996511D01*
X103726655Y-115570000D01*
X103840729Y-116143489D01*
X104165585Y-116629670D01*
X104480366Y-116840000D01*
X104165585Y-117050330D01*
X103840729Y-117536511D01*
X103726655Y-118110000D01*
X103840729Y-118683489D01*
X104165585Y-119169670D01*
X104480366Y-119380000D01*
X104165585Y-119590330D01*
X103840729Y-120076511D01*
X103726655Y-120650000D01*
X103840729Y-121223489D01*
X104165585Y-121709670D01*
X104480366Y-121920000D01*
X104165585Y-122130330D01*
X103840729Y-122616511D01*
X103726655Y-123190000D01*
X103840729Y-123763489D01*
X104165585Y-124249670D01*
X104480366Y-124460000D01*
X104165585Y-124670330D01*
X103840729Y-125156511D01*
X103726655Y-125730000D01*
X103840729Y-126303489D01*
X104165585Y-126789670D01*
X104480366Y-127000000D01*
X104165585Y-127210330D01*
X103840729Y-127696511D01*
X103726655Y-128270000D01*
X103840729Y-128843489D01*
X104165585Y-129329670D01*
X104480366Y-129540000D01*
X104165585Y-129750330D01*
X103840729Y-130236511D01*
X103726655Y-130810000D01*
X103840729Y-131383489D01*
X104165585Y-131869670D01*
X104480366Y-132080000D01*
X104165585Y-132290330D01*
X103840729Y-132776511D01*
X103726655Y-133350000D01*
X103840729Y-133923489D01*
X104165585Y-134409670D01*
X104651766Y-134734526D01*
X105225255Y-134848600D01*
X105594745Y-134848600D01*
X106168234Y-134734526D01*
X106654415Y-134409670D01*
X106979271Y-133923489D01*
X107093345Y-133350000D01*
X106979271Y-132776511D01*
X106654415Y-132290330D01*
X106339634Y-132080000D01*
X106654415Y-131869670D01*
X106979271Y-131383489D01*
X107093345Y-130810000D01*
X106979271Y-130236511D01*
X106654415Y-129750330D01*
X106339634Y-129540000D01*
X106654415Y-129329670D01*
X106979271Y-128843489D01*
X107093345Y-128270000D01*
X106979271Y-127696511D01*
X106654415Y-127210330D01*
X106339634Y-127000000D01*
X106654415Y-126789670D01*
X106979271Y-126303489D01*
X107093345Y-125730000D01*
X106979271Y-125156511D01*
X106654415Y-124670330D01*
X106339634Y-124460000D01*
X106654415Y-124249670D01*
X106979271Y-123763489D01*
X107093345Y-123190000D01*
X106979271Y-122616511D01*
X106654415Y-122130330D01*
X106339634Y-121920000D01*
X106654415Y-121709670D01*
X106979271Y-121223489D01*
X107093345Y-120650000D01*
X106979271Y-120076511D01*
X106654415Y-119590330D01*
X106339634Y-119380000D01*
X106654415Y-119169670D01*
X106979271Y-118683489D01*
X107093345Y-118110000D01*
X106979271Y-117536511D01*
X106654415Y-117050330D01*
X106339634Y-116840000D01*
X106654415Y-116629670D01*
X106979271Y-116143489D01*
X107093345Y-115570000D01*
X106979271Y-114996511D01*
X106654415Y-114510330D01*
X106339634Y-114300000D01*
X106654415Y-114089670D01*
X106979271Y-113603489D01*
X107093345Y-113030000D01*
X106979271Y-112456511D01*
X106654415Y-111970330D01*
X106339634Y-111760000D01*
X106654415Y-111549670D01*
X106979271Y-111063489D01*
X107093345Y-110490000D01*
X106979271Y-109916511D01*
X106654415Y-109430330D01*
X106339634Y-109220000D01*
X106654415Y-109009670D01*
X106979271Y-108523489D01*
X107093345Y-107950000D01*
X106979271Y-107376511D01*
X106654415Y-106890330D01*
X106339634Y-106680000D01*
X106654415Y-106469670D01*
X106979271Y-105983489D01*
X107093345Y-105410000D01*
X106979271Y-104836511D01*
X106654415Y-104350330D01*
X106339634Y-104140000D01*
X106654415Y-103929670D01*
X106979271Y-103443489D01*
X107093345Y-102870000D01*
X106979271Y-102296511D01*
X106654415Y-101810330D01*
X106339634Y-101600000D01*
X106654415Y-101389670D01*
X106979271Y-100903489D01*
X107093345Y-100330000D01*
X106979271Y-99756511D01*
X106654415Y-99270330D01*
X106339634Y-99060000D01*
X106654415Y-98849670D01*
X106979271Y-98363489D01*
X107093345Y-97790000D01*
X106979271Y-97216511D01*
X106654415Y-96730330D01*
X106339634Y-96520000D01*
X106654415Y-96309670D01*
X106979271Y-95823489D01*
X107093345Y-95250000D01*
X106979271Y-94676511D01*
X106654415Y-94190330D01*
X106339634Y-93980000D01*
X106654415Y-93769670D01*
X106979271Y-93283489D01*
X107093345Y-92710000D01*
X106979271Y-92136511D01*
X106654415Y-91650330D01*
X106339634Y-91440000D01*
X106654415Y-91229670D01*
X106979271Y-90743489D01*
X107093345Y-90170000D01*
X106979271Y-89596511D01*
X106654415Y-89110330D01*
X106632220Y-89095500D01*
X106785699Y-89031927D01*
X106964327Y-88853298D01*
X107061000Y-88619909D01*
X107061000Y-87915750D01*
X106902250Y-87757000D01*
X105537000Y-87757000D01*
X105537000Y-87777000D01*
X105283000Y-87777000D01*
X105283000Y-87757000D01*
X103917750Y-87757000D01*
X103759000Y-87915750D01*
X103759000Y-88619909D01*
X103855673Y-88853298D01*
X104034301Y-89031927D01*
X104187780Y-89095500D01*
X104165585Y-89110330D01*
X103840729Y-89596511D01*
X103726655Y-90170000D01*
X98780574Y-90170000D01*
X98741890Y-90143569D01*
X98490000Y-90092560D01*
X97090000Y-90092560D01*
X96854683Y-90136838D01*
X96638559Y-90275910D01*
X96493569Y-90488110D01*
X96442560Y-90740000D01*
X89967522Y-90740000D01*
X89755275Y-90684331D01*
X88999605Y-91440000D01*
X88640395Y-91440000D01*
X87884725Y-90684331D01*
X87648958Y-90746169D01*
X87472581Y-91247122D01*
X85167440Y-91247122D01*
X85167440Y-90740000D01*
X85123170Y-90504725D01*
X88064331Y-90504725D01*
X88820000Y-91260395D01*
X89575669Y-90504725D01*
X89513831Y-90268958D01*
X89012878Y-90092581D01*
X88482560Y-90121336D01*
X88126169Y-90268958D01*
X88064331Y-90504725D01*
X85123170Y-90504725D01*
X85123162Y-90504683D01*
X84984090Y-90288559D01*
X84771890Y-90143569D01*
X84520000Y-90092560D01*
X83120000Y-90092560D01*
X82884683Y-90136838D01*
X82668559Y-90275910D01*
X82523569Y-90488110D01*
X82472560Y-90740000D01*
X82472560Y-91712638D01*
X80228064Y-93957134D01*
X80156590Y-93846059D01*
X79944390Y-93701069D01*
X79692500Y-93650060D01*
X77787500Y-93650060D01*
X77552183Y-93694338D01*
X77336059Y-93833410D01*
X77191069Y-94045610D01*
X77140060Y-94297500D01*
X76325000Y-94297500D01*
X76325000Y-93659802D01*
X78284869Y-91699933D01*
X78422841Y-91757224D01*
X79054388Y-91757775D01*
X79638072Y-91516602D01*
X80085032Y-91070421D01*
X80327224Y-90487159D01*
X80327775Y-89855612D01*
X80086602Y-89271928D01*
X79640421Y-88824968D01*
X79057159Y-88582776D01*
X78425612Y-88582225D01*
X77841928Y-88823398D01*
X77394968Y-89269579D01*
X77152776Y-89852841D01*
X77152225Y-90484388D01*
X77210288Y-90624910D01*
X75027599Y-92807599D01*
X74862852Y-93054161D01*
X74805000Y-93345000D01*
X74805000Y-97665000D01*
X73660000Y-97665000D01*
X73369161Y-97722852D01*
X73122599Y-97887599D01*
X70170198Y-100840000D01*
X61522463Y-100840000D01*
X61490327Y-100807808D01*
X61146799Y-100665162D01*
X60774833Y-100664838D01*
X60431057Y-100806883D01*
X60167808Y-101069673D01*
X60025162Y-101413201D01*
X60024838Y-101785167D01*
X60159056Y-102110000D01*
X48434648Y-102110000D01*
X48234415Y-101810330D01*
X47919634Y-101600000D01*
X48234415Y-101389670D01*
X48559271Y-100903489D01*
X48673345Y-100330000D01*
X48559271Y-99756511D01*
X48234415Y-99270330D01*
X47919634Y-99060000D01*
X48234415Y-98849670D01*
X48559271Y-98363489D01*
X48673345Y-97790000D01*
X48559271Y-97216511D01*
X48234415Y-96730330D01*
X47919634Y-96520000D01*
X48234415Y-96309670D01*
X48528193Y-95870000D01*
X50772560Y-95870000D01*
X50772560Y-97170000D01*
X50816838Y-97405317D01*
X50955910Y-97621441D01*
X51168110Y-97766431D01*
X51420000Y-97817440D01*
X52720000Y-97817440D01*
X52955317Y-97773162D01*
X53171441Y-97634090D01*
X53316431Y-97421890D01*
X53317012Y-97419016D01*
X54850590Y-97419016D01*
X54906271Y-97649611D01*
X55389078Y-97817622D01*
X55899428Y-97788083D01*
X56233729Y-97649611D01*
X56289410Y-97419016D01*
X55570000Y-96699605D01*
X54850590Y-97419016D01*
X53317012Y-97419016D01*
X53367440Y-97170000D01*
X53367440Y-96339078D01*
X54272378Y-96339078D01*
X54301917Y-96849428D01*
X54440389Y-97183729D01*
X54670984Y-97239410D01*
X55390395Y-96520000D01*
X55749605Y-96520000D01*
X56469016Y-97239410D01*
X56699611Y-97183729D01*
X56867622Y-96700922D01*
X56838083Y-96190572D01*
X56699611Y-95856271D01*
X56469016Y-95800590D01*
X55749605Y-96520000D01*
X55390395Y-96520000D01*
X54670984Y-95800590D01*
X54440389Y-95856271D01*
X54272378Y-96339078D01*
X53367440Y-96339078D01*
X53367440Y-95870000D01*
X53323162Y-95634683D01*
X53314347Y-95620984D01*
X54850590Y-95620984D01*
X55570000Y-96340395D01*
X56289410Y-95620984D01*
X56233729Y-95390389D01*
X55750922Y-95222378D01*
X55240572Y-95251917D01*
X54906271Y-95390389D01*
X54850590Y-95620984D01*
X53314347Y-95620984D01*
X53184090Y-95418559D01*
X52971890Y-95273569D01*
X52720000Y-95222560D01*
X51420000Y-95222560D01*
X51184683Y-95266838D01*
X50968559Y-95405910D01*
X50823569Y-95618110D01*
X50772560Y-95870000D01*
X48528193Y-95870000D01*
X48559271Y-95823489D01*
X48673345Y-95250000D01*
X48559271Y-94676511D01*
X48234415Y-94190330D01*
X47919634Y-93980000D01*
X48234415Y-93769670D01*
X48559271Y-93283489D01*
X48610190Y-93027500D01*
X65710060Y-93027500D01*
X65710060Y-94932500D01*
X65754338Y-95167817D01*
X65893410Y-95383941D01*
X66105610Y-95528931D01*
X66357500Y-95579940D01*
X68262500Y-95579940D01*
X68497817Y-95535662D01*
X68713941Y-95396590D01*
X68858931Y-95184390D01*
X68909940Y-94932500D01*
X68909940Y-94294388D01*
X70802225Y-94294388D01*
X71043398Y-94878072D01*
X71489579Y-95325032D01*
X72072841Y-95567224D01*
X72704388Y-95567775D01*
X73288072Y-95326602D01*
X73735032Y-94880421D01*
X73977224Y-94297159D01*
X73977775Y-93665612D01*
X73736602Y-93081928D01*
X73290421Y-92634968D01*
X72707159Y-92392776D01*
X72075612Y-92392225D01*
X71491928Y-92633398D01*
X71044968Y-93079579D01*
X70802776Y-93662841D01*
X70802225Y-94294388D01*
X68909940Y-94294388D01*
X68909940Y-93027500D01*
X68865662Y-92792183D01*
X68726590Y-92576059D01*
X68514390Y-92431069D01*
X68262500Y-92380060D01*
X66357500Y-92380060D01*
X66122183Y-92424338D01*
X65906059Y-92563410D01*
X65761069Y-92775610D01*
X65710060Y-93027500D01*
X48610190Y-93027500D01*
X48673345Y-92710000D01*
X48559271Y-92136511D01*
X48234415Y-91650330D01*
X47919634Y-91440000D01*
X48234415Y-91229670D01*
X48559271Y-90743489D01*
X48673345Y-90170000D01*
X48559271Y-89596511D01*
X48234415Y-89110330D01*
X48212220Y-89095500D01*
X48365699Y-89031927D01*
X48544327Y-88853298D01*
X48641000Y-88619909D01*
X48641000Y-88012944D01*
X51734025Y-88012944D01*
X51933615Y-88494818D01*
X52371621Y-88967188D01*
X52957054Y-89235983D01*
X53213000Y-89117367D01*
X53213000Y-87757000D01*
X51853164Y-87757000D01*
X51734025Y-88012944D01*
X48641000Y-88012944D01*
X48641000Y-87915750D01*
X48482250Y-87757000D01*
X47117000Y-87757000D01*
X47117000Y-87777000D01*
X46863000Y-87777000D01*
X46863000Y-87757000D01*
X45497750Y-87757000D01*
X45339000Y-87915750D01*
X45339000Y-88619909D01*
X45435673Y-88853298D01*
X45614301Y-89031927D01*
X45767780Y-89095500D01*
X45745585Y-89110330D01*
X45420729Y-89596511D01*
X45306655Y-90170000D01*
X45160000Y-90170000D01*
X45160000Y-86640091D01*
X45339000Y-86640091D01*
X45339000Y-87344250D01*
X45497750Y-87503000D01*
X46863000Y-87503000D01*
X46863000Y-86290150D01*
X47117000Y-86290150D01*
X47117000Y-87503000D01*
X48482250Y-87503000D01*
X48641000Y-87344250D01*
X48641000Y-87247056D01*
X51734025Y-87247056D01*
X51853164Y-87503000D01*
X53213000Y-87503000D01*
X53213000Y-86142633D01*
X53467000Y-86142633D01*
X53467000Y-87503000D01*
X53487000Y-87503000D01*
X53487000Y-87757000D01*
X53467000Y-87757000D01*
X53467000Y-89117367D01*
X53722946Y-89235983D01*
X54308379Y-88967188D01*
X54312934Y-88962276D01*
X54399910Y-89097441D01*
X54612110Y-89242431D01*
X54864000Y-89293440D01*
X56896000Y-89293440D01*
X57131317Y-89249162D01*
X57347441Y-89110090D01*
X57492431Y-88897890D01*
X57543440Y-88646000D01*
X57543440Y-87953694D01*
X91075226Y-87953694D01*
X91323538Y-88554655D01*
X91782927Y-89014846D01*
X92383453Y-89264206D01*
X93033694Y-89264774D01*
X93634655Y-89016462D01*
X94094846Y-88557073D01*
X94344206Y-87956547D01*
X94344774Y-87306306D01*
X94096462Y-86705345D01*
X94095502Y-86704383D01*
X96454769Y-86704383D01*
X96657582Y-87195229D01*
X97032796Y-87571098D01*
X97523287Y-87774768D01*
X98054383Y-87775231D01*
X98545229Y-87572418D01*
X98921098Y-87197204D01*
X99124768Y-86706713D01*
X99124826Y-86640091D01*
X103759000Y-86640091D01*
X103759000Y-87344250D01*
X103917750Y-87503000D01*
X105283000Y-87503000D01*
X105283000Y-86290150D01*
X105537000Y-86290150D01*
X105537000Y-87503000D01*
X106902250Y-87503000D01*
X107061000Y-87344250D01*
X107061000Y-86640091D01*
X106964327Y-86406702D01*
X106785699Y-86228073D01*
X106552310Y-86131400D01*
X105695750Y-86131400D01*
X105537000Y-86290150D01*
X105283000Y-86290150D01*
X105124250Y-86131400D01*
X104267690Y-86131400D01*
X104034301Y-86228073D01*
X103855673Y-86406702D01*
X103759000Y-86640091D01*
X99124826Y-86640091D01*
X99125231Y-86175617D01*
X98922418Y-85684771D01*
X98547204Y-85308902D01*
X98056713Y-85105232D01*
X97525617Y-85104769D01*
X97034771Y-85307582D01*
X96658902Y-85682796D01*
X96455232Y-86173287D01*
X96454769Y-86704383D01*
X94095502Y-86704383D01*
X93637073Y-86245154D01*
X93036547Y-85995794D01*
X92386306Y-85995226D01*
X91785345Y-86243538D01*
X91325154Y-86702927D01*
X91075794Y-87303453D01*
X91075226Y-87953694D01*
X57543440Y-87953694D01*
X57543440Y-86614000D01*
X57499162Y-86378683D01*
X57360090Y-86162559D01*
X57147890Y-86017569D01*
X56896000Y-85966560D01*
X54864000Y-85966560D01*
X54628683Y-86010838D01*
X54412559Y-86149910D01*
X54312144Y-86296872D01*
X54308379Y-86292812D01*
X53722946Y-86024017D01*
X53467000Y-86142633D01*
X53213000Y-86142633D01*
X52957054Y-86024017D01*
X52371621Y-86292812D01*
X51933615Y-86765182D01*
X51734025Y-87247056D01*
X48641000Y-87247056D01*
X48641000Y-86640091D01*
X48544327Y-86406702D01*
X48365699Y-86228073D01*
X48132310Y-86131400D01*
X47275750Y-86131400D01*
X47117000Y-86290150D01*
X46863000Y-86290150D01*
X46704250Y-86131400D01*
X45847690Y-86131400D01*
X45614301Y-86228073D01*
X45435673Y-86406702D01*
X45339000Y-86640091D01*
X45160000Y-86640091D01*
X45160000Y-85661500D01*
X78664060Y-85661500D01*
X78664060Y-87058500D01*
X78708338Y-87293817D01*
X78847410Y-87509941D01*
X79059610Y-87654931D01*
X79311500Y-87705940D01*
X80708500Y-87705940D01*
X80943817Y-87661662D01*
X81159941Y-87522590D01*
X81304931Y-87310390D01*
X81355940Y-87058500D01*
X81355940Y-86962116D01*
X81418854Y-87114380D01*
X81793647Y-87489827D01*
X82283587Y-87693268D01*
X82814086Y-87693731D01*
X83304380Y-87491146D01*
X83501681Y-87294188D01*
X84335417Y-87294188D01*
X84397071Y-87529800D01*
X84897480Y-87705927D01*
X85427199Y-87677148D01*
X85782929Y-87529800D01*
X85844583Y-87294188D01*
X85090000Y-86539605D01*
X84335417Y-87294188D01*
X83501681Y-87294188D01*
X83679827Y-87116353D01*
X83813314Y-86794882D01*
X83920200Y-87052929D01*
X84155812Y-87114583D01*
X84910395Y-86360000D01*
X85269605Y-86360000D01*
X86024188Y-87114583D01*
X86259800Y-87052929D01*
X86435927Y-86552520D01*
X86407148Y-86022801D01*
X86259800Y-85667071D01*
X86024188Y-85605417D01*
X85269605Y-86360000D01*
X84910395Y-86360000D01*
X84155812Y-85605417D01*
X83920200Y-85667071D01*
X83821917Y-85946312D01*
X83681146Y-85605620D01*
X83501652Y-85425812D01*
X84335417Y-85425812D01*
X85090000Y-86180395D01*
X85844583Y-85425812D01*
X85782929Y-85190200D01*
X85282520Y-85014073D01*
X84752801Y-85042852D01*
X84397071Y-85190200D01*
X84335417Y-85425812D01*
X83501652Y-85425812D01*
X83306353Y-85230173D01*
X82816413Y-85026732D01*
X82285914Y-85026269D01*
X81795620Y-85228854D01*
X81420173Y-85603647D01*
X81355940Y-85758337D01*
X81355940Y-85661500D01*
X81311662Y-85426183D01*
X81172590Y-85210059D01*
X80960390Y-85065069D01*
X80708500Y-85014060D01*
X79311500Y-85014060D01*
X79076183Y-85058338D01*
X78860059Y-85197410D01*
X78715069Y-85409610D01*
X78664060Y-85661500D01*
X45160000Y-85661500D01*
X45160000Y-84530000D01*
X107240000Y-84530000D01*
X107240000Y-135180000D01*
X107240000Y-135180000D01*
G37*
X107240000Y-135180000D02*
X45160000Y-135180000D01*
X45160000Y-90170000D01*
X45306655Y-90170000D01*
X45420729Y-90743489D01*
X45745585Y-91229670D01*
X46060366Y-91440000D01*
X45745585Y-91650330D01*
X45420729Y-92136511D01*
X45306655Y-92710000D01*
X45420729Y-93283489D01*
X45745585Y-93769670D01*
X46060366Y-93980000D01*
X45745585Y-94190330D01*
X45420729Y-94676511D01*
X45306655Y-95250000D01*
X45420729Y-95823489D01*
X45745585Y-96309670D01*
X46060366Y-96520000D01*
X45745585Y-96730330D01*
X45420729Y-97216511D01*
X45306655Y-97790000D01*
X45420729Y-98363489D01*
X45745585Y-98849670D01*
X46060366Y-99060000D01*
X45745585Y-99270330D01*
X45420729Y-99756511D01*
X45306655Y-100330000D01*
X45420729Y-100903489D01*
X45745585Y-101389670D01*
X46060366Y-101600000D01*
X45745585Y-101810330D01*
X45420729Y-102296511D01*
X45306655Y-102870000D01*
X45420729Y-103443489D01*
X45745585Y-103929670D01*
X46060366Y-104140000D01*
X45745585Y-104350330D01*
X45420729Y-104836511D01*
X45306655Y-105410000D01*
X45420729Y-105983489D01*
X45745585Y-106469670D01*
X46060366Y-106680000D01*
X45745585Y-106890330D01*
X45420729Y-107376511D01*
X45306655Y-107950000D01*
X45420729Y-108523489D01*
X45745585Y-109009670D01*
X46060366Y-109220000D01*
X45745585Y-109430330D01*
X45420729Y-109916511D01*
X45306655Y-110490000D01*
X45420729Y-111063489D01*
X45745585Y-111549670D01*
X46060366Y-111760000D01*
X45745585Y-111970330D01*
X45420729Y-112456511D01*
X45306655Y-113030000D01*
X45420729Y-113603489D01*
X45745585Y-114089670D01*
X46060366Y-114300000D01*
X45745585Y-114510330D01*
X45420729Y-114996511D01*
X45306655Y-115570000D01*
X45420729Y-116143489D01*
X45745585Y-116629670D01*
X46060366Y-116840000D01*
X45745585Y-117050330D01*
X45420729Y-117536511D01*
X45306655Y-118110000D01*
X45420729Y-118683489D01*
X45745585Y-119169670D01*
X46060366Y-119380000D01*
X45745585Y-119590330D01*
X45420729Y-120076511D01*
X45306655Y-120650000D01*
X45420729Y-121223489D01*
X45745585Y-121709670D01*
X46060366Y-121920000D01*
X45745585Y-122130330D01*
X45420729Y-122616511D01*
X45306655Y-123190000D01*
X45420729Y-123763489D01*
X45745585Y-124249670D01*
X46060366Y-124460000D01*
X45745585Y-124670330D01*
X45420729Y-125156511D01*
X45306655Y-125730000D01*
X45420729Y-126303489D01*
X45745585Y-126789670D01*
X46060366Y-127000000D01*
X45745585Y-127210330D01*
X45420729Y-127696511D01*
X45306655Y-128270000D01*
X45420729Y-128843489D01*
X45745585Y-129329670D01*
X46060366Y-129540000D01*
X45745585Y-129750330D01*
X45420729Y-130236511D01*
X45306655Y-130810000D01*
X45420729Y-131383489D01*
X45745585Y-131869670D01*
X46060366Y-132080000D01*
X45745585Y-132290330D01*
X45420729Y-132776511D01*
X45306655Y-133350000D01*
X45420729Y-133923489D01*
X45745585Y-134409670D01*
X46231766Y-134734526D01*
X46805255Y-134848600D01*
X47174745Y-134848600D01*
X47748234Y-134734526D01*
X48234415Y-134409670D01*
X48559271Y-133923489D01*
X48673345Y-133350000D01*
X48559271Y-132776511D01*
X48234415Y-132290330D01*
X47919634Y-132080000D01*
X48234415Y-131869670D01*
X48559271Y-131383489D01*
X48673345Y-130810000D01*
X48559271Y-130236511D01*
X48234415Y-129750330D01*
X47919634Y-129540000D01*
X48234415Y-129329670D01*
X48559271Y-128843489D01*
X48673345Y-128270000D01*
X48559271Y-127696511D01*
X48234415Y-127210330D01*
X47919634Y-127000000D01*
X48234415Y-126789670D01*
X48559271Y-126303489D01*
X48610190Y-126047500D01*
X49200060Y-126047500D01*
X49200060Y-127952500D01*
X49244338Y-128187817D01*
X49383410Y-128403941D01*
X49595610Y-128548931D01*
X49847500Y-128599940D01*
X51752500Y-128599940D01*
X51987817Y-128555662D01*
X52203941Y-128416590D01*
X52348931Y-128204390D01*
X52399940Y-127952500D01*
X52399940Y-127314388D01*
X54292225Y-127314388D01*
X54533398Y-127898072D01*
X54979579Y-128345032D01*
X55562841Y-128587224D01*
X56194388Y-128587775D01*
X56195053Y-128587500D01*
X58090060Y-128587500D01*
X58090060Y-130492500D01*
X58134338Y-130727817D01*
X58273410Y-130943941D01*
X58485610Y-131088931D01*
X58737500Y-131139940D01*
X60642500Y-131139940D01*
X60877817Y-131095662D01*
X61093941Y-130956590D01*
X61238931Y-130744390D01*
X61289940Y-130492500D01*
X61289940Y-129854388D01*
X63182225Y-129854388D01*
X63423398Y-130438072D01*
X63869579Y-130885032D01*
X64452841Y-131127224D01*
X65084388Y-131127775D01*
X65161894Y-131095750D01*
X67245000Y-131095750D01*
X67245000Y-131636310D01*
X67341673Y-131869699D01*
X67520302Y-132048327D01*
X67753691Y-132145000D01*
X68294250Y-132145000D01*
X68453000Y-131986250D01*
X68453000Y-130937000D01*
X68707000Y-130937000D01*
X68707000Y-131986250D01*
X68865750Y-132145000D01*
X69406309Y-132145000D01*
X69639698Y-132048327D01*
X69818327Y-131869699D01*
X69915000Y-131636310D01*
X69915000Y-131095750D01*
X69893633Y-131074383D01*
X72244769Y-131074383D01*
X72447582Y-131565229D01*
X72822796Y-131941098D01*
X73313287Y-132144768D01*
X73844383Y-132145231D01*
X74335229Y-131942418D01*
X74711098Y-131567204D01*
X74914768Y-131076713D01*
X74915231Y-130545617D01*
X74735239Y-130110000D01*
X78662560Y-130110000D01*
X78662560Y-131510000D01*
X78706838Y-131745317D01*
X78845910Y-131961441D01*
X79058110Y-132106431D01*
X79310000Y-132157440D01*
X80710000Y-132157440D01*
X80945317Y-132113162D01*
X81161441Y-131974090D01*
X81306431Y-131761890D01*
X81357440Y-131510000D01*
X81357440Y-130110000D01*
X81313162Y-129874683D01*
X81174090Y-129658559D01*
X80961890Y-129513569D01*
X80710000Y-129462560D01*
X79310000Y-129462560D01*
X79074683Y-129506838D01*
X78858559Y-129645910D01*
X78713569Y-129858110D01*
X78662560Y-130110000D01*
X74735239Y-130110000D01*
X74712418Y-130054771D01*
X74337204Y-129678902D01*
X73846713Y-129475232D01*
X73315617Y-129474769D01*
X72824771Y-129677582D01*
X72448902Y-130052796D01*
X72245232Y-130543287D01*
X72244769Y-131074383D01*
X69893633Y-131074383D01*
X69756250Y-130937000D01*
X68707000Y-130937000D01*
X68453000Y-130937000D01*
X67403750Y-130937000D01*
X67245000Y-131095750D01*
X65161894Y-131095750D01*
X65668072Y-130886602D01*
X66115032Y-130440421D01*
X66304683Y-129983690D01*
X67245000Y-129983690D01*
X67245000Y-130524250D01*
X67403750Y-130683000D01*
X68453000Y-130683000D01*
X68453000Y-129633750D01*
X68707000Y-129633750D01*
X68707000Y-130683000D01*
X69756250Y-130683000D01*
X69915000Y-130524250D01*
X69915000Y-129983690D01*
X69818327Y-129750301D01*
X69639698Y-129571673D01*
X69406309Y-129475000D01*
X68865750Y-129475000D01*
X68707000Y-129633750D01*
X68453000Y-129633750D01*
X68294250Y-129475000D01*
X67753691Y-129475000D01*
X67520302Y-129571673D01*
X67341673Y-129750301D01*
X67245000Y-129983690D01*
X66304683Y-129983690D01*
X66357224Y-129857159D01*
X66357775Y-129225612D01*
X66116602Y-128641928D01*
X66056946Y-128582167D01*
X74756838Y-128582167D01*
X74898883Y-128925943D01*
X75161673Y-129189192D01*
X75505201Y-129331838D01*
X75877167Y-129332162D01*
X76220943Y-129190117D01*
X76484192Y-128927327D01*
X76626838Y-128583799D01*
X76626886Y-128528730D01*
X76775148Y-128306840D01*
X76833000Y-128016000D01*
X76833000Y-126074383D01*
X78674769Y-126074383D01*
X78877582Y-126565229D01*
X79252796Y-126941098D01*
X79743287Y-127144768D01*
X80274383Y-127145231D01*
X80765229Y-126942418D01*
X81141098Y-126567204D01*
X81344768Y-126076713D01*
X81345231Y-125545617D01*
X81142418Y-125054771D01*
X80767204Y-124678902D01*
X80276713Y-124475232D01*
X79745617Y-124474769D01*
X79254771Y-124677582D01*
X78878902Y-125052796D01*
X78675232Y-125543287D01*
X78674769Y-126074383D01*
X76833000Y-126074383D01*
X76833000Y-123425295D01*
X77143453Y-123554206D01*
X77793694Y-123554774D01*
X78394655Y-123306462D01*
X78854846Y-122847073D01*
X79003115Y-122490000D01*
X81202560Y-122490000D01*
X81202560Y-123890000D01*
X81246838Y-124125317D01*
X81385910Y-124341441D01*
X81598110Y-124486431D01*
X81850000Y-124537440D01*
X83250000Y-124537440D01*
X83485317Y-124493162D01*
X83701441Y-124354090D01*
X83846431Y-124141890D01*
X83897440Y-123890000D01*
X83897440Y-122490000D01*
X83853162Y-122254683D01*
X83714090Y-122038559D01*
X83501890Y-121893569D01*
X83250000Y-121842560D01*
X81850000Y-121842560D01*
X81614683Y-121886838D01*
X81398559Y-122025910D01*
X81253569Y-122238110D01*
X81202560Y-122490000D01*
X79003115Y-122490000D01*
X79104206Y-122246547D01*
X79104774Y-121596306D01*
X78856462Y-120995345D01*
X78397073Y-120535154D01*
X77796547Y-120285794D01*
X77146306Y-120285226D01*
X76833000Y-120414681D01*
X76833000Y-120069463D01*
X76865192Y-120037327D01*
X77007838Y-119693799D01*
X77008162Y-119321833D01*
X76866117Y-118978057D01*
X76603327Y-118714808D01*
X76259799Y-118572162D01*
X75887833Y-118571838D01*
X75544057Y-118713883D01*
X75280808Y-118976673D01*
X75138162Y-119320201D01*
X75137838Y-119692167D01*
X75279883Y-120035943D01*
X75313000Y-120069118D01*
X75313000Y-127541928D01*
X75163057Y-127603883D01*
X74899808Y-127866673D01*
X74757162Y-128210201D01*
X74756838Y-128582167D01*
X66056946Y-128582167D01*
X65670421Y-128194968D01*
X65087159Y-127952776D01*
X64455612Y-127952225D01*
X63871928Y-128193398D01*
X63424968Y-128639579D01*
X63182776Y-129222841D01*
X63182225Y-129854388D01*
X61289940Y-129854388D01*
X61289940Y-128587500D01*
X61245662Y-128352183D01*
X61106590Y-128136059D01*
X60894390Y-127991069D01*
X60642500Y-127940060D01*
X58737500Y-127940060D01*
X58502183Y-127984338D01*
X58286059Y-128123410D01*
X58141069Y-128335610D01*
X58090060Y-128587500D01*
X56195053Y-128587500D01*
X56778072Y-128346602D01*
X57225032Y-127900421D01*
X57467224Y-127317159D01*
X57467775Y-126685612D01*
X57226602Y-126101928D01*
X57140575Y-126015750D01*
X67245000Y-126015750D01*
X67245000Y-126556310D01*
X67341673Y-126789699D01*
X67520302Y-126968327D01*
X67753691Y-127065000D01*
X68294250Y-127065000D01*
X68453000Y-126906250D01*
X68453000Y-125857000D01*
X68707000Y-125857000D01*
X68707000Y-126906250D01*
X68865750Y-127065000D01*
X69406309Y-127065000D01*
X69639698Y-126968327D01*
X69818327Y-126789699D01*
X69915000Y-126556310D01*
X69915000Y-126015750D01*
X69893633Y-125994383D01*
X72244769Y-125994383D01*
X72447582Y-126485229D01*
X72822796Y-126861098D01*
X73313287Y-127064768D01*
X73844383Y-127065231D01*
X74335229Y-126862418D01*
X74711098Y-126487204D01*
X74914768Y-125996713D01*
X74915231Y-125465617D01*
X74712418Y-124974771D01*
X74337204Y-124598902D01*
X73846713Y-124395232D01*
X73315617Y-124394769D01*
X72824771Y-124597582D01*
X72448902Y-124972796D01*
X72245232Y-125463287D01*
X72244769Y-125994383D01*
X69893633Y-125994383D01*
X69756250Y-125857000D01*
X68707000Y-125857000D01*
X68453000Y-125857000D01*
X67403750Y-125857000D01*
X67245000Y-126015750D01*
X57140575Y-126015750D01*
X56780421Y-125654968D01*
X56197159Y-125412776D01*
X55565612Y-125412225D01*
X54981928Y-125653398D01*
X54534968Y-126099579D01*
X54292776Y-126682841D01*
X54292225Y-127314388D01*
X52399940Y-127314388D01*
X52399940Y-126047500D01*
X52355662Y-125812183D01*
X52216590Y-125596059D01*
X52004390Y-125451069D01*
X51752500Y-125400060D01*
X49847500Y-125400060D01*
X49612183Y-125444338D01*
X49396059Y-125583410D01*
X49251069Y-125795610D01*
X49200060Y-126047500D01*
X48610190Y-126047500D01*
X48673345Y-125730000D01*
X48559271Y-125156511D01*
X48390342Y-124903690D01*
X67245000Y-124903690D01*
X67245000Y-125444250D01*
X67403750Y-125603000D01*
X68453000Y-125603000D01*
X68453000Y-124553750D01*
X68707000Y-124553750D01*
X68707000Y-125603000D01*
X69756250Y-125603000D01*
X69915000Y-125444250D01*
X69915000Y-124903690D01*
X69818327Y-124670301D01*
X69639698Y-124491673D01*
X69406309Y-124395000D01*
X68865750Y-124395000D01*
X68707000Y-124553750D01*
X68453000Y-124553750D01*
X68294250Y-124395000D01*
X67753691Y-124395000D01*
X67520302Y-124491673D01*
X67341673Y-124670301D01*
X67245000Y-124903690D01*
X48390342Y-124903690D01*
X48234415Y-124670330D01*
X47919634Y-124460000D01*
X48234415Y-124249670D01*
X48559271Y-123763489D01*
X48673345Y-123190000D01*
X48559271Y-122616511D01*
X48234415Y-122130330D01*
X47919634Y-121920000D01*
X48234415Y-121709670D01*
X48559271Y-121223489D01*
X48608958Y-120973694D01*
X49165226Y-120973694D01*
X49413538Y-121574655D01*
X49872927Y-122034846D01*
X50473453Y-122284206D01*
X51123694Y-122284774D01*
X51724655Y-122036462D01*
X52184846Y-121577073D01*
X52333115Y-121220000D01*
X59612560Y-121220000D01*
X59612560Y-122620000D01*
X59656838Y-122855317D01*
X59795910Y-123071441D01*
X60008110Y-123216431D01*
X60260000Y-123267440D01*
X61660000Y-123267440D01*
X61895317Y-123223162D01*
X62111441Y-123084090D01*
X62256431Y-122871890D01*
X62307440Y-122620000D01*
X62307440Y-122184383D01*
X64624769Y-122184383D01*
X64827582Y-122675229D01*
X65202796Y-123051098D01*
X65693287Y-123254768D01*
X66224383Y-123255231D01*
X66715229Y-123052418D01*
X67091098Y-122677204D01*
X67294768Y-122186713D01*
X67295231Y-121655617D01*
X67092418Y-121164771D01*
X66863797Y-120935750D01*
X67245000Y-120935750D01*
X67245000Y-121476310D01*
X67341673Y-121709699D01*
X67520302Y-121888327D01*
X67753691Y-121985000D01*
X68294250Y-121985000D01*
X68453000Y-121826250D01*
X68453000Y-120777000D01*
X68707000Y-120777000D01*
X68707000Y-121826250D01*
X68865750Y-121985000D01*
X69406309Y-121985000D01*
X69639698Y-121888327D01*
X69818327Y-121709699D01*
X69915000Y-121476310D01*
X69915000Y-120935750D01*
X69893633Y-120914383D01*
X72244769Y-120914383D01*
X72447582Y-121405229D01*
X72822796Y-121781098D01*
X73313287Y-121984768D01*
X73844383Y-121985231D01*
X74335229Y-121782418D01*
X74711098Y-121407204D01*
X74914768Y-120916713D01*
X74915231Y-120385617D01*
X74712418Y-119894771D01*
X74337204Y-119518902D01*
X73846713Y-119315232D01*
X73315617Y-119314769D01*
X72824771Y-119517582D01*
X72448902Y-119892796D01*
X72245232Y-120383287D01*
X72244769Y-120914383D01*
X69893633Y-120914383D01*
X69756250Y-120777000D01*
X68707000Y-120777000D01*
X68453000Y-120777000D01*
X67403750Y-120777000D01*
X67245000Y-120935750D01*
X66863797Y-120935750D01*
X66717204Y-120788902D01*
X66226713Y-120585232D01*
X65695617Y-120584769D01*
X65204771Y-120787582D01*
X64828902Y-121162796D01*
X64625232Y-121653287D01*
X64624769Y-122184383D01*
X62307440Y-122184383D01*
X62307440Y-121220000D01*
X62263162Y-120984683D01*
X62124090Y-120768559D01*
X61911890Y-120623569D01*
X61660000Y-120572560D01*
X60260000Y-120572560D01*
X60024683Y-120616838D01*
X59808559Y-120755910D01*
X59663569Y-120968110D01*
X59612560Y-121220000D01*
X52333115Y-121220000D01*
X52434206Y-120976547D01*
X52434774Y-120326306D01*
X52227098Y-119823690D01*
X67245000Y-119823690D01*
X67245000Y-120364250D01*
X67403750Y-120523000D01*
X68453000Y-120523000D01*
X68453000Y-119473750D01*
X68707000Y-119473750D01*
X68707000Y-120523000D01*
X69756250Y-120523000D01*
X69915000Y-120364250D01*
X69915000Y-119823690D01*
X69818327Y-119590301D01*
X69639698Y-119411673D01*
X69406309Y-119315000D01*
X68865750Y-119315000D01*
X68707000Y-119473750D01*
X68453000Y-119473750D01*
X68294250Y-119315000D01*
X67753691Y-119315000D01*
X67520302Y-119411673D01*
X67341673Y-119590301D01*
X67245000Y-119823690D01*
X52227098Y-119823690D01*
X52186462Y-119725345D01*
X51727073Y-119265154D01*
X51560000Y-119195779D01*
X51560000Y-115755167D01*
X54309838Y-115755167D01*
X54451883Y-116098943D01*
X54714673Y-116362192D01*
X55058201Y-116504838D01*
X55430167Y-116505162D01*
X55773943Y-116363117D01*
X55807118Y-116330000D01*
X58105198Y-116330000D01*
X58119878Y-116344680D01*
X58119838Y-116390167D01*
X58261883Y-116733943D01*
X58524673Y-116997192D01*
X58868201Y-117139838D01*
X59240167Y-117140162D01*
X59583943Y-116998117D01*
X59847192Y-116735327D01*
X59989838Y-116391799D01*
X59990162Y-116019833D01*
X59934198Y-115884388D01*
X68262225Y-115884388D01*
X68503398Y-116468072D01*
X68949579Y-116915032D01*
X69532841Y-117157224D01*
X70164388Y-117157775D01*
X70748072Y-116916602D01*
X71195032Y-116470421D01*
X71253340Y-116330000D01*
X77597000Y-116330000D01*
X77887839Y-116272148D01*
X78134401Y-116107401D01*
X79371802Y-114870000D01*
X81202560Y-114870000D01*
X81202560Y-116270000D01*
X81246838Y-116505317D01*
X81385910Y-116721441D01*
X81598110Y-116866431D01*
X81850000Y-116917440D01*
X82133941Y-116917440D01*
X81794771Y-117057582D01*
X81418902Y-117432796D01*
X81215232Y-117923287D01*
X81214769Y-118454383D01*
X81417582Y-118945229D01*
X81792796Y-119321098D01*
X82283287Y-119524768D01*
X82814383Y-119525231D01*
X83305229Y-119322418D01*
X83681098Y-118947204D01*
X83884768Y-118456713D01*
X83885231Y-117925617D01*
X83682418Y-117434771D01*
X83307204Y-117058902D01*
X82966526Y-116917440D01*
X83250000Y-116917440D01*
X83485317Y-116873162D01*
X83701441Y-116734090D01*
X83846431Y-116521890D01*
X83897440Y-116270000D01*
X83897440Y-114870000D01*
X86282560Y-114870000D01*
X86282560Y-116270000D01*
X86326838Y-116505317D01*
X86465910Y-116721441D01*
X86678110Y-116866431D01*
X86930000Y-116917440D01*
X88330000Y-116917440D01*
X88565317Y-116873162D01*
X88781441Y-116734090D01*
X88926431Y-116521890D01*
X88977440Y-116270000D01*
X88977440Y-114870000D01*
X88933162Y-114634683D01*
X88794090Y-114418559D01*
X88581890Y-114273569D01*
X88330000Y-114222560D01*
X86930000Y-114222560D01*
X86694683Y-114266838D01*
X86478559Y-114405910D01*
X86333569Y-114618110D01*
X86282560Y-114870000D01*
X83897440Y-114870000D01*
X83853162Y-114634683D01*
X83714090Y-114418559D01*
X83501890Y-114273569D01*
X83250000Y-114222560D01*
X81850000Y-114222560D01*
X81614683Y-114266838D01*
X81398559Y-114405910D01*
X81253569Y-114618110D01*
X81202560Y-114870000D01*
X79371802Y-114870000D01*
X81721802Y-112520000D01*
X91255504Y-112520000D01*
X91323538Y-112684655D01*
X91782927Y-113144846D01*
X92383453Y-113394206D01*
X93033694Y-113394774D01*
X93634655Y-113146462D01*
X94094846Y-112687073D01*
X94344206Y-112086547D01*
X94344774Y-111436306D01*
X94096462Y-110835345D01*
X94015642Y-110754383D01*
X95264769Y-110754383D01*
X95467582Y-111245229D01*
X95842796Y-111621098D01*
X96333287Y-111824768D01*
X96777043Y-111825155D01*
X96507320Y-112094878D01*
X96461833Y-112094838D01*
X96118057Y-112236883D01*
X95854808Y-112499673D01*
X95712162Y-112843201D01*
X95711838Y-113215167D01*
X95853883Y-113558943D01*
X96116673Y-113822192D01*
X96460201Y-113964838D01*
X96832167Y-113965162D01*
X97175943Y-113823117D01*
X97439192Y-113560327D01*
X97581838Y-113216799D01*
X97581879Y-113169923D01*
X99978401Y-110773401D01*
X100143148Y-110526839D01*
X100201000Y-110236000D01*
X100201000Y-109790000D01*
X100252560Y-109790000D01*
X100252560Y-111190000D01*
X100296838Y-111425317D01*
X100435910Y-111641441D01*
X100648110Y-111786431D01*
X100900000Y-111837440D01*
X102300000Y-111837440D01*
X102535317Y-111793162D01*
X102751441Y-111654090D01*
X102896431Y-111441890D01*
X102947440Y-111190000D01*
X102947440Y-109790000D01*
X102903162Y-109554683D01*
X102764090Y-109338559D01*
X102551890Y-109193569D01*
X102300000Y-109142560D01*
X100900000Y-109142560D01*
X100664683Y-109186838D01*
X100448559Y-109325910D01*
X100303569Y-109538110D01*
X100252560Y-109790000D01*
X100201000Y-109790000D01*
X100201000Y-107044379D01*
X100653694Y-107044774D01*
X101254655Y-106796462D01*
X101714846Y-106337073D01*
X101964206Y-105736547D01*
X101964774Y-105086306D01*
X101716462Y-104485345D01*
X101257073Y-104025154D01*
X100656547Y-103775794D01*
X100006306Y-103775226D01*
X99405345Y-104023538D01*
X98945154Y-104482927D01*
X98695794Y-105083453D01*
X98695226Y-105733694D01*
X98781970Y-105943630D01*
X98738852Y-106008161D01*
X98681000Y-106299000D01*
X98681000Y-109921198D01*
X97934846Y-110667352D01*
X97935231Y-110225617D01*
X97732418Y-109734771D01*
X97357204Y-109358902D01*
X96866713Y-109155232D01*
X96335617Y-109154769D01*
X95844771Y-109357582D01*
X95468902Y-109732796D01*
X95265232Y-110223287D01*
X95264769Y-110754383D01*
X94015642Y-110754383D01*
X93637073Y-110375154D01*
X93036547Y-110125794D01*
X92386306Y-110125226D01*
X91785345Y-110373538D01*
X91325154Y-110832927D01*
X91255779Y-111000000D01*
X88893932Y-111000000D01*
X88977419Y-110762878D01*
X88948664Y-110232560D01*
X88801042Y-109876169D01*
X88565275Y-109814331D01*
X87809605Y-110570000D01*
X87823748Y-110584142D01*
X87644143Y-110763748D01*
X87630000Y-110749605D01*
X87615858Y-110763748D01*
X87436252Y-110584142D01*
X87450395Y-110570000D01*
X86694725Y-109814331D01*
X86458958Y-109876169D01*
X86282581Y-110377122D01*
X86311336Y-110907440D01*
X86349676Y-111000000D01*
X83816965Y-111000000D01*
X83884768Y-110836713D01*
X83885231Y-110305617D01*
X83682418Y-109814771D01*
X83502686Y-109634725D01*
X86874331Y-109634725D01*
X87630000Y-110390395D01*
X88385669Y-109634725D01*
X88323831Y-109398958D01*
X87822878Y-109222581D01*
X87292560Y-109251336D01*
X86936169Y-109398958D01*
X86874331Y-109634725D01*
X83502686Y-109634725D01*
X83307204Y-109438902D01*
X82816713Y-109235232D01*
X82285617Y-109234769D01*
X81794771Y-109437582D01*
X81418902Y-109812796D01*
X81215232Y-110303287D01*
X81214769Y-110834383D01*
X81292603Y-111022755D01*
X81116161Y-111057852D01*
X80869599Y-111222599D01*
X77282198Y-114810000D01*
X71253652Y-114810000D01*
X71196602Y-114671928D01*
X70750421Y-114224968D01*
X70167159Y-113982776D01*
X69535612Y-113982225D01*
X68951928Y-114223398D01*
X68504968Y-114669579D01*
X68262776Y-115252841D01*
X68262225Y-115884388D01*
X59934198Y-115884388D01*
X59848117Y-115676057D01*
X59585327Y-115412808D01*
X59241799Y-115270162D01*
X59194923Y-115270121D01*
X58957401Y-115032599D01*
X58710839Y-114867852D01*
X58420000Y-114810000D01*
X55807463Y-114810000D01*
X55775327Y-114777808D01*
X55431799Y-114635162D01*
X55059833Y-114634838D01*
X54716057Y-114776883D01*
X54452808Y-115039673D01*
X54310162Y-115383201D01*
X54309838Y-115755167D01*
X51560000Y-115755167D01*
X51560000Y-115376802D01*
X54012576Y-112924226D01*
X54423287Y-113094768D01*
X54954383Y-113095231D01*
X55445229Y-112892418D01*
X55821098Y-112517204D01*
X56024768Y-112026713D01*
X56025231Y-111495617D01*
X55845239Y-111060000D01*
X58342560Y-111060000D01*
X58342560Y-112460000D01*
X58386838Y-112695317D01*
X58525910Y-112911441D01*
X58738110Y-113056431D01*
X58990000Y-113107440D01*
X60390000Y-113107440D01*
X60625317Y-113063162D01*
X60841441Y-112924090D01*
X60986431Y-112711890D01*
X61037440Y-112460000D01*
X61037440Y-111060000D01*
X60993162Y-110824683D01*
X60854090Y-110608559D01*
X60641890Y-110463569D01*
X60390000Y-110412560D01*
X58990000Y-110412560D01*
X58754683Y-110456838D01*
X58538559Y-110595910D01*
X58393569Y-110808110D01*
X58342560Y-111060000D01*
X55845239Y-111060000D01*
X55822418Y-111004771D01*
X55447204Y-110628902D01*
X54956713Y-110425232D01*
X54425617Y-110424769D01*
X53934771Y-110627582D01*
X53558902Y-111002796D01*
X53398776Y-111388422D01*
X50262599Y-114524599D01*
X50097852Y-114771161D01*
X50040000Y-115062000D01*
X50040000Y-119195504D01*
X49875345Y-119263538D01*
X49415154Y-119722927D01*
X49165794Y-120323453D01*
X49165226Y-120973694D01*
X48608958Y-120973694D01*
X48673345Y-120650000D01*
X48559271Y-120076511D01*
X48234415Y-119590330D01*
X47919634Y-119380000D01*
X48234415Y-119169670D01*
X48559271Y-118683489D01*
X48673345Y-118110000D01*
X48559271Y-117536511D01*
X48234415Y-117050330D01*
X47919634Y-116840000D01*
X48234415Y-116629670D01*
X48559271Y-116143489D01*
X48673345Y-115570000D01*
X48559271Y-114996511D01*
X48234415Y-114510330D01*
X47919634Y-114300000D01*
X48234415Y-114089670D01*
X48559271Y-113603489D01*
X48673345Y-113030000D01*
X48559271Y-112456511D01*
X48234415Y-111970330D01*
X47919634Y-111760000D01*
X48095989Y-111642163D01*
X49827443Y-111642163D01*
X49926042Y-111908965D01*
X50535582Y-112135401D01*
X51185377Y-112111341D01*
X51673958Y-111908965D01*
X51772557Y-111642163D01*
X50800000Y-110669605D01*
X49827443Y-111642163D01*
X48095989Y-111642163D01*
X48234415Y-111549670D01*
X48559271Y-111063489D01*
X48673345Y-110490000D01*
X48620750Y-110225582D01*
X49154599Y-110225582D01*
X49178659Y-110875377D01*
X49381035Y-111363958D01*
X49647837Y-111462557D01*
X50620395Y-110490000D01*
X50979605Y-110490000D01*
X51952163Y-111462557D01*
X52218965Y-111363958D01*
X52445401Y-110754418D01*
X52421341Y-110104623D01*
X52218965Y-109616042D01*
X52006436Y-109537500D01*
X68250060Y-109537500D01*
X68250060Y-111442500D01*
X68294338Y-111677817D01*
X68433410Y-111893941D01*
X68645610Y-112038931D01*
X68897500Y-112089940D01*
X70802500Y-112089940D01*
X70835694Y-112083694D01*
X75835226Y-112083694D01*
X76083538Y-112684655D01*
X76542927Y-113144846D01*
X77143453Y-113394206D01*
X77793694Y-113394774D01*
X78394655Y-113146462D01*
X78854846Y-112687073D01*
X79104206Y-112086547D01*
X79104774Y-111436306D01*
X78856462Y-110835345D01*
X78397073Y-110375154D01*
X77796547Y-110125794D01*
X77146306Y-110125226D01*
X76545345Y-110373538D01*
X76085154Y-110832927D01*
X75835794Y-111433453D01*
X75835226Y-112083694D01*
X70835694Y-112083694D01*
X71037817Y-112045662D01*
X71253941Y-111906590D01*
X71398931Y-111694390D01*
X71449940Y-111442500D01*
X71449940Y-109537500D01*
X71405662Y-109302183D01*
X71266590Y-109086059D01*
X71054390Y-108941069D01*
X70802500Y-108890060D01*
X68897500Y-108890060D01*
X68662183Y-108934338D01*
X68446059Y-109073410D01*
X68301069Y-109285610D01*
X68250060Y-109537500D01*
X52006436Y-109537500D01*
X51952163Y-109517443D01*
X50979605Y-110490000D01*
X50620395Y-110490000D01*
X49647837Y-109517443D01*
X49381035Y-109616042D01*
X49154599Y-110225582D01*
X48620750Y-110225582D01*
X48559271Y-109916511D01*
X48234415Y-109430330D01*
X48095990Y-109337837D01*
X49827443Y-109337837D01*
X50800000Y-110310395D01*
X51772557Y-109337837D01*
X51673958Y-109071035D01*
X51064418Y-108844599D01*
X50414623Y-108868659D01*
X49926042Y-109071035D01*
X49827443Y-109337837D01*
X48095990Y-109337837D01*
X47919634Y-109220000D01*
X48234415Y-109009670D01*
X48559271Y-108523489D01*
X48673345Y-107950000D01*
X48559271Y-107376511D01*
X48283112Y-106963210D01*
X49315890Y-106963210D01*
X49315890Y-107653400D01*
X49412563Y-107886789D01*
X49591192Y-108065417D01*
X49824581Y-108162090D01*
X50514770Y-108162090D01*
X50673520Y-108003340D01*
X50673520Y-106804460D01*
X50927520Y-106804460D01*
X50927520Y-108003340D01*
X51086270Y-108162090D01*
X51776459Y-108162090D01*
X52009848Y-108065417D01*
X52188477Y-107886789D01*
X52285150Y-107653400D01*
X52285150Y-106963210D01*
X52126400Y-106804460D01*
X50927520Y-106804460D01*
X50673520Y-106804460D01*
X49474640Y-106804460D01*
X49315890Y-106963210D01*
X48283112Y-106963210D01*
X48234415Y-106890330D01*
X47919634Y-106680000D01*
X48234415Y-106469670D01*
X48559271Y-105983489D01*
X48615358Y-105701520D01*
X49315890Y-105701520D01*
X49315890Y-106391710D01*
X49474640Y-106550460D01*
X50673520Y-106550460D01*
X50673520Y-106530460D01*
X50927520Y-106530460D01*
X50927520Y-106550460D01*
X52126400Y-106550460D01*
X52285150Y-106391710D01*
X52285150Y-105701520D01*
X52188477Y-105468131D01*
X52009848Y-105289503D01*
X51776459Y-105192830D01*
X51661458Y-105192830D01*
X51663565Y-105186230D01*
X50799480Y-104322145D01*
X49935395Y-105186230D01*
X49937502Y-105192830D01*
X49824581Y-105192830D01*
X49591192Y-105289503D01*
X49412563Y-105468131D01*
X49315890Y-105701520D01*
X48615358Y-105701520D01*
X48673345Y-105410000D01*
X48559271Y-104836511D01*
X48234415Y-104350330D01*
X47919634Y-104140000D01*
X48234415Y-103929670D01*
X48434648Y-103630000D01*
X49406112Y-103630000D01*
X49303130Y-103913907D01*
X49329539Y-104503939D01*
X49504527Y-104926398D01*
X49755790Y-105006625D01*
X50619875Y-104142540D01*
X50605733Y-104128398D01*
X50785338Y-103948793D01*
X50799480Y-103962935D01*
X50813623Y-103948793D01*
X50993228Y-104128398D01*
X50979085Y-104142540D01*
X51843170Y-105006625D01*
X52094433Y-104926398D01*
X52295830Y-104371173D01*
X52269421Y-103781141D01*
X52206816Y-103630000D01*
X59462410Y-103630000D01*
X59462410Y-104992170D01*
X59506688Y-105227487D01*
X59645760Y-105443611D01*
X59857960Y-105588601D01*
X59934363Y-105604073D01*
X59702646Y-105835386D01*
X59476148Y-106380853D01*
X59475632Y-106971476D01*
X59701178Y-107517337D01*
X60118446Y-107935334D01*
X60663913Y-108161832D01*
X61254536Y-108162348D01*
X61800397Y-107936802D01*
X62218394Y-107519534D01*
X62444892Y-106974067D01*
X62445408Y-106383444D01*
X62219862Y-105837583D01*
X62116255Y-105733795D01*
X63134716Y-105733795D01*
X63383106Y-106334943D01*
X63842637Y-106795278D01*
X64443352Y-107044716D01*
X65093795Y-107045284D01*
X65694943Y-106796894D01*
X66155278Y-106337363D01*
X66404716Y-105736648D01*
X66404718Y-105733694D01*
X94885226Y-105733694D01*
X95133538Y-106334655D01*
X95592927Y-106794846D01*
X96193453Y-107044206D01*
X96843694Y-107044774D01*
X97444655Y-106796462D01*
X97904846Y-106337073D01*
X98154206Y-105736547D01*
X98154774Y-105086306D01*
X97906462Y-104485345D01*
X97447073Y-104025154D01*
X96846547Y-103775794D01*
X96196306Y-103775226D01*
X95595345Y-104023538D01*
X95135154Y-104482927D01*
X94885794Y-105083453D01*
X94885226Y-105733694D01*
X66404718Y-105733694D01*
X66405284Y-105086205D01*
X66156894Y-104485057D01*
X65697363Y-104024722D01*
X65096648Y-103775284D01*
X64446205Y-103774716D01*
X63845057Y-104023106D01*
X63384722Y-104482637D01*
X63135284Y-105083352D01*
X63134716Y-105733795D01*
X62116255Y-105733795D01*
X61988532Y-105605849D01*
X62044427Y-105595332D01*
X62260551Y-105456260D01*
X62405541Y-105244060D01*
X62456550Y-104992170D01*
X62456550Y-103630000D01*
X70805198Y-103630000D01*
X72487599Y-105312401D01*
X72734161Y-105477148D01*
X73025000Y-105535000D01*
X79447537Y-105535000D01*
X79479673Y-105567192D01*
X79823201Y-105709838D01*
X80195167Y-105710162D01*
X80538943Y-105568117D01*
X80802192Y-105305327D01*
X80944838Y-104961799D01*
X80945162Y-104589833D01*
X80803117Y-104246057D01*
X80540327Y-103982808D01*
X80196799Y-103840162D01*
X79824833Y-103839838D01*
X79481057Y-103981883D01*
X79447882Y-104015000D01*
X73710111Y-104015000D01*
X73944192Y-103781327D01*
X73954294Y-103757000D01*
X77288537Y-103757000D01*
X77320673Y-103789192D01*
X77664201Y-103931838D01*
X78036167Y-103932162D01*
X78379943Y-103790117D01*
X78643192Y-103527327D01*
X78785838Y-103183799D01*
X78786162Y-102811833D01*
X78644117Y-102468057D01*
X78381327Y-102204808D01*
X78037799Y-102062162D01*
X77665833Y-102061838D01*
X77322057Y-102203883D01*
X77288882Y-102237000D01*
X73406000Y-102237000D01*
X73115160Y-102294852D01*
X73083600Y-102315940D01*
X72966833Y-102315838D01*
X72623057Y-102457883D01*
X72359808Y-102720673D01*
X72267581Y-102942779D01*
X71657401Y-102332599D01*
X71410839Y-102167852D01*
X71120000Y-102110000D01*
X71049802Y-102110000D01*
X73974802Y-99185000D01*
X75002537Y-99185000D01*
X75034673Y-99217192D01*
X75378201Y-99359838D01*
X75750167Y-99360162D01*
X76093943Y-99218117D01*
X76266270Y-99046091D01*
X76359383Y-99271443D01*
X76622173Y-99534692D01*
X76965701Y-99677338D01*
X77337667Y-99677662D01*
X77488735Y-99615242D01*
X77791201Y-99740838D01*
X77838077Y-99740879D01*
X78202599Y-100105401D01*
X78449161Y-100270148D01*
X78740000Y-100328000D01*
X82836256Y-100328000D01*
X82668559Y-100435910D01*
X82523569Y-100648110D01*
X82472560Y-100900000D01*
X82472560Y-102300000D01*
X82516838Y-102535317D01*
X82655910Y-102751441D01*
X82868110Y-102896431D01*
X83120000Y-102947440D01*
X84520000Y-102947440D01*
X84755317Y-102903162D01*
X84971441Y-102764090D01*
X85116431Y-102551890D01*
X85119795Y-102535275D01*
X88064331Y-102535275D01*
X88126169Y-102771042D01*
X88627122Y-102947419D01*
X89157440Y-102918664D01*
X89513831Y-102771042D01*
X89575669Y-102535275D01*
X88820000Y-101779605D01*
X88064331Y-102535275D01*
X85119795Y-102535275D01*
X85167440Y-102300000D01*
X85167440Y-101407122D01*
X87472581Y-101407122D01*
X87501336Y-101937440D01*
X87648958Y-102293831D01*
X87884725Y-102355669D01*
X88640395Y-101600000D01*
X88999605Y-101600000D01*
X89755275Y-102355669D01*
X89991042Y-102293831D01*
X90167419Y-101792878D01*
X90138664Y-101262560D01*
X89991042Y-100906169D01*
X89755275Y-100844331D01*
X88999605Y-101600000D01*
X88640395Y-101600000D01*
X87884725Y-100844331D01*
X87648958Y-100906169D01*
X87472581Y-101407122D01*
X85167440Y-101407122D01*
X85167440Y-100900000D01*
X85123162Y-100664683D01*
X84984090Y-100448559D01*
X84807646Y-100328000D01*
X88369903Y-100328000D01*
X88126169Y-100428958D01*
X88064331Y-100664725D01*
X88820000Y-101420395D01*
X89575669Y-100664725D01*
X89513831Y-100428958D01*
X89227086Y-100328000D01*
X90363198Y-100328000D01*
X91144115Y-101108917D01*
X91075794Y-101273453D01*
X91075226Y-101923694D01*
X91323538Y-102524655D01*
X91782927Y-102984846D01*
X92383453Y-103234206D01*
X93033694Y-103234774D01*
X93634655Y-102986462D01*
X94094846Y-102527073D01*
X94344206Y-101926547D01*
X94344774Y-101276306D01*
X94096462Y-100675345D01*
X93637073Y-100215154D01*
X93036547Y-99965794D01*
X92386306Y-99965226D01*
X92219111Y-100034309D01*
X91215401Y-99030599D01*
X90968839Y-98865852D01*
X90678000Y-98808000D01*
X79054802Y-98808000D01*
X78913122Y-98666320D01*
X78913162Y-98620833D01*
X78883894Y-98550000D01*
X91255504Y-98550000D01*
X91323538Y-98714655D01*
X91782927Y-99174846D01*
X92383453Y-99424206D01*
X93033694Y-99424774D01*
X93634655Y-99176462D01*
X94094846Y-98717073D01*
X94344206Y-98116547D01*
X94344774Y-97466306D01*
X94096462Y-96865345D01*
X93637073Y-96405154D01*
X93036547Y-96155794D01*
X92386306Y-96155226D01*
X91785345Y-96403538D01*
X91325154Y-96862927D01*
X91255779Y-97030000D01*
X90055766Y-97030000D01*
X90167419Y-96712878D01*
X90138664Y-96182560D01*
X89991042Y-95826169D01*
X89755275Y-95764331D01*
X88999605Y-96520000D01*
X89013748Y-96534142D01*
X88834143Y-96713748D01*
X88820000Y-96699605D01*
X88805858Y-96713748D01*
X88626252Y-96534142D01*
X88640395Y-96520000D01*
X87884725Y-95764331D01*
X87648958Y-95826169D01*
X87472581Y-96327122D01*
X87501336Y-96857440D01*
X87572813Y-97030000D01*
X85167440Y-97030000D01*
X85167440Y-95820000D01*
X85123170Y-95584725D01*
X88064331Y-95584725D01*
X88820000Y-96340395D01*
X89575669Y-95584725D01*
X89572776Y-95573694D01*
X94885226Y-95573694D01*
X95133538Y-96174655D01*
X95592927Y-96634846D01*
X96193453Y-96884206D01*
X96843694Y-96884774D01*
X97444655Y-96636462D01*
X97904846Y-96177073D01*
X98154206Y-95576547D01*
X98154208Y-95573694D01*
X98695226Y-95573694D01*
X98943538Y-96174655D01*
X99402927Y-96634846D01*
X100003453Y-96884206D01*
X100653694Y-96884774D01*
X101254655Y-96636462D01*
X101714846Y-96177073D01*
X101964206Y-95576547D01*
X101964774Y-94926306D01*
X101716462Y-94325345D01*
X101257073Y-93865154D01*
X100656547Y-93615794D01*
X100006306Y-93615226D01*
X99405345Y-93863538D01*
X98945154Y-94322927D01*
X98695794Y-94923453D01*
X98695226Y-95573694D01*
X98154208Y-95573694D01*
X98154774Y-94926306D01*
X97906462Y-94325345D01*
X97447073Y-93865154D01*
X96846547Y-93615794D01*
X96196306Y-93615226D01*
X95595345Y-93863538D01*
X95135154Y-94322927D01*
X94885794Y-94923453D01*
X94885226Y-95573694D01*
X89572776Y-95573694D01*
X89513831Y-95348958D01*
X89012878Y-95172581D01*
X88482560Y-95201336D01*
X88126169Y-95348958D01*
X88064331Y-95584725D01*
X85123170Y-95584725D01*
X85123162Y-95584683D01*
X84984090Y-95368559D01*
X84771890Y-95223569D01*
X84520000Y-95172560D01*
X83120000Y-95172560D01*
X82884683Y-95216838D01*
X82668559Y-95355910D01*
X82523569Y-95568110D01*
X82472560Y-95820000D01*
X82472560Y-97030000D01*
X78105000Y-97030000D01*
X77862414Y-97078254D01*
X77814160Y-97087852D01*
X77567599Y-97252599D01*
X77012820Y-97807378D01*
X76967333Y-97807338D01*
X76623557Y-97949383D01*
X76451230Y-98121409D01*
X76358117Y-97896057D01*
X76325000Y-97862882D01*
X76325000Y-94297500D01*
X77140060Y-94297500D01*
X77140060Y-96202500D01*
X77184338Y-96437817D01*
X77323410Y-96653941D01*
X77535610Y-96798931D01*
X77787500Y-96849940D01*
X79692500Y-96849940D01*
X79927817Y-96805662D01*
X80143941Y-96666590D01*
X80288931Y-96454390D01*
X80339940Y-96202500D01*
X80339940Y-95926022D01*
X80547401Y-95787401D01*
X83547362Y-92787440D01*
X84520000Y-92787440D01*
X84755317Y-92743162D01*
X84971441Y-92604090D01*
X85116431Y-92391890D01*
X85119795Y-92375275D01*
X88064331Y-92375275D01*
X88126169Y-92611042D01*
X88627122Y-92787419D01*
X89157440Y-92758664D01*
X89513831Y-92611042D01*
X89575669Y-92375275D01*
X88820000Y-91619605D01*
X88064331Y-92375275D01*
X85119795Y-92375275D01*
X85167440Y-92140000D01*
X85167440Y-91247122D01*
X87472581Y-91247122D01*
X87501336Y-91777440D01*
X87648958Y-92133831D01*
X87884725Y-92195669D01*
X88640395Y-91440000D01*
X88999605Y-91440000D01*
X89755275Y-92195669D01*
X89991042Y-92133831D01*
X90167419Y-91632878D01*
X90138664Y-91102560D01*
X89991042Y-90746169D01*
X89967522Y-90740000D01*
X96442560Y-90740000D01*
X96442560Y-92140000D01*
X96486838Y-92375317D01*
X96625910Y-92591441D01*
X96838110Y-92736431D01*
X97090000Y-92787440D01*
X98490000Y-92787440D01*
X98725317Y-92743162D01*
X98941441Y-92604090D01*
X99086431Y-92391890D01*
X99137440Y-92140000D01*
X99137440Y-90740000D01*
X99093162Y-90504683D01*
X98954090Y-90288559D01*
X98780574Y-90170000D01*
X103726655Y-90170000D01*
X103840729Y-90743489D01*
X104165585Y-91229670D01*
X104480366Y-91440000D01*
X104165585Y-91650330D01*
X103840729Y-92136511D01*
X103726655Y-92710000D01*
X103840729Y-93283489D01*
X104165585Y-93769670D01*
X104480366Y-93980000D01*
X104165585Y-94190330D01*
X103840729Y-94676511D01*
X103726655Y-95250000D01*
X103840729Y-95823489D01*
X104165585Y-96309670D01*
X104480366Y-96520000D01*
X104165585Y-96730330D01*
X103840729Y-97216511D01*
X103726655Y-97790000D01*
X103840729Y-98363489D01*
X104165585Y-98849670D01*
X104480366Y-99060000D01*
X104165585Y-99270330D01*
X103840729Y-99756511D01*
X103726655Y-100330000D01*
X103840729Y-100903489D01*
X104165585Y-101389670D01*
X104480366Y-101600000D01*
X104165585Y-101810330D01*
X103840729Y-102296511D01*
X103726655Y-102870000D01*
X103840729Y-103443489D01*
X104165585Y-103929670D01*
X104480366Y-104140000D01*
X104165585Y-104350330D01*
X103840729Y-104836511D01*
X103726655Y-105410000D01*
X103840729Y-105983489D01*
X104165585Y-106469670D01*
X104480366Y-106680000D01*
X104165585Y-106890330D01*
X103840729Y-107376511D01*
X103726655Y-107950000D01*
X103840729Y-108523489D01*
X104165585Y-109009670D01*
X104480366Y-109220000D01*
X104165585Y-109430330D01*
X103840729Y-109916511D01*
X103726655Y-110490000D01*
X103840729Y-111063489D01*
X104165585Y-111549670D01*
X104480366Y-111760000D01*
X104165585Y-111970330D01*
X103840729Y-112456511D01*
X103726655Y-113030000D01*
X103840729Y-113603489D01*
X104165585Y-114089670D01*
X104480366Y-114300000D01*
X104165585Y-114510330D01*
X103840729Y-114996511D01*
X103726655Y-115570000D01*
X103840729Y-116143489D01*
X104165585Y-116629670D01*
X104480366Y-116840000D01*
X104165585Y-117050330D01*
X103840729Y-117536511D01*
X103726655Y-118110000D01*
X103840729Y-118683489D01*
X104165585Y-119169670D01*
X104480366Y-119380000D01*
X104165585Y-119590330D01*
X103840729Y-120076511D01*
X103726655Y-120650000D01*
X103840729Y-121223489D01*
X104165585Y-121709670D01*
X104480366Y-121920000D01*
X104165585Y-122130330D01*
X103840729Y-122616511D01*
X103726655Y-123190000D01*
X103840729Y-123763489D01*
X104165585Y-124249670D01*
X104480366Y-124460000D01*
X104165585Y-124670330D01*
X103840729Y-125156511D01*
X103726655Y-125730000D01*
X103840729Y-126303489D01*
X104165585Y-126789670D01*
X104480366Y-127000000D01*
X104165585Y-127210330D01*
X103840729Y-127696511D01*
X103726655Y-128270000D01*
X103840729Y-128843489D01*
X104165585Y-129329670D01*
X104480366Y-129540000D01*
X104165585Y-129750330D01*
X103840729Y-130236511D01*
X103726655Y-130810000D01*
X103840729Y-131383489D01*
X104165585Y-131869670D01*
X104480366Y-132080000D01*
X104165585Y-132290330D01*
X103840729Y-132776511D01*
X103726655Y-133350000D01*
X103840729Y-133923489D01*
X104165585Y-134409670D01*
X104651766Y-134734526D01*
X105225255Y-134848600D01*
X105594745Y-134848600D01*
X106168234Y-134734526D01*
X106654415Y-134409670D01*
X106979271Y-133923489D01*
X107093345Y-133350000D01*
X106979271Y-132776511D01*
X106654415Y-132290330D01*
X106339634Y-132080000D01*
X106654415Y-131869670D01*
X106979271Y-131383489D01*
X107093345Y-130810000D01*
X106979271Y-130236511D01*
X106654415Y-129750330D01*
X106339634Y-129540000D01*
X106654415Y-129329670D01*
X106979271Y-128843489D01*
X107093345Y-128270000D01*
X106979271Y-127696511D01*
X106654415Y-127210330D01*
X106339634Y-127000000D01*
X106654415Y-126789670D01*
X106979271Y-126303489D01*
X107093345Y-125730000D01*
X106979271Y-125156511D01*
X106654415Y-124670330D01*
X106339634Y-124460000D01*
X106654415Y-124249670D01*
X106979271Y-123763489D01*
X107093345Y-123190000D01*
X106979271Y-122616511D01*
X106654415Y-122130330D01*
X106339634Y-121920000D01*
X106654415Y-121709670D01*
X106979271Y-121223489D01*
X107093345Y-120650000D01*
X106979271Y-120076511D01*
X106654415Y-119590330D01*
X106339634Y-119380000D01*
X106654415Y-119169670D01*
X106979271Y-118683489D01*
X107093345Y-118110000D01*
X106979271Y-117536511D01*
X106654415Y-117050330D01*
X106339634Y-116840000D01*
X106654415Y-116629670D01*
X106979271Y-116143489D01*
X107093345Y-115570000D01*
X106979271Y-114996511D01*
X106654415Y-114510330D01*
X106339634Y-114300000D01*
X106654415Y-114089670D01*
X106979271Y-113603489D01*
X107093345Y-113030000D01*
X106979271Y-112456511D01*
X106654415Y-111970330D01*
X106339634Y-111760000D01*
X106654415Y-111549670D01*
X106979271Y-111063489D01*
X107093345Y-110490000D01*
X106979271Y-109916511D01*
X106654415Y-109430330D01*
X106339634Y-109220000D01*
X106654415Y-109009670D01*
X106979271Y-108523489D01*
X107093345Y-107950000D01*
X106979271Y-107376511D01*
X106654415Y-106890330D01*
X106339634Y-106680000D01*
X106654415Y-106469670D01*
X106979271Y-105983489D01*
X107093345Y-105410000D01*
X106979271Y-104836511D01*
X106654415Y-104350330D01*
X106339634Y-104140000D01*
X106654415Y-103929670D01*
X106979271Y-103443489D01*
X107093345Y-102870000D01*
X106979271Y-102296511D01*
X106654415Y-101810330D01*
X106339634Y-101600000D01*
X106654415Y-101389670D01*
X106979271Y-100903489D01*
X107093345Y-100330000D01*
X106979271Y-99756511D01*
X106654415Y-99270330D01*
X106339634Y-99060000D01*
X106654415Y-98849670D01*
X106979271Y-98363489D01*
X107093345Y-97790000D01*
X106979271Y-97216511D01*
X106654415Y-96730330D01*
X106339634Y-96520000D01*
X106654415Y-96309670D01*
X106979271Y-95823489D01*
X107093345Y-95250000D01*
X106979271Y-94676511D01*
X106654415Y-94190330D01*
X106339634Y-93980000D01*
X106654415Y-93769670D01*
X106979271Y-93283489D01*
X107093345Y-92710000D01*
X106979271Y-92136511D01*
X106654415Y-91650330D01*
X106339634Y-91440000D01*
X106654415Y-91229670D01*
X106979271Y-90743489D01*
X107093345Y-90170000D01*
X106979271Y-89596511D01*
X106654415Y-89110330D01*
X106632220Y-89095500D01*
X106785699Y-89031927D01*
X106964327Y-88853298D01*
X107061000Y-88619909D01*
X107061000Y-87915750D01*
X106902250Y-87757000D01*
X105537000Y-87757000D01*
X105537000Y-87777000D01*
X105283000Y-87777000D01*
X105283000Y-87757000D01*
X103917750Y-87757000D01*
X103759000Y-87915750D01*
X103759000Y-88619909D01*
X103855673Y-88853298D01*
X104034301Y-89031927D01*
X104187780Y-89095500D01*
X104165585Y-89110330D01*
X103840729Y-89596511D01*
X103726655Y-90170000D01*
X98780574Y-90170000D01*
X98741890Y-90143569D01*
X98490000Y-90092560D01*
X97090000Y-90092560D01*
X96854683Y-90136838D01*
X96638559Y-90275910D01*
X96493569Y-90488110D01*
X96442560Y-90740000D01*
X89967522Y-90740000D01*
X89755275Y-90684331D01*
X88999605Y-91440000D01*
X88640395Y-91440000D01*
X87884725Y-90684331D01*
X87648958Y-90746169D01*
X87472581Y-91247122D01*
X85167440Y-91247122D01*
X85167440Y-90740000D01*
X85123170Y-90504725D01*
X88064331Y-90504725D01*
X88820000Y-91260395D01*
X89575669Y-90504725D01*
X89513831Y-90268958D01*
X89012878Y-90092581D01*
X88482560Y-90121336D01*
X88126169Y-90268958D01*
X88064331Y-90504725D01*
X85123170Y-90504725D01*
X85123162Y-90504683D01*
X84984090Y-90288559D01*
X84771890Y-90143569D01*
X84520000Y-90092560D01*
X83120000Y-90092560D01*
X82884683Y-90136838D01*
X82668559Y-90275910D01*
X82523569Y-90488110D01*
X82472560Y-90740000D01*
X82472560Y-91712638D01*
X80228064Y-93957134D01*
X80156590Y-93846059D01*
X79944390Y-93701069D01*
X79692500Y-93650060D01*
X77787500Y-93650060D01*
X77552183Y-93694338D01*
X77336059Y-93833410D01*
X77191069Y-94045610D01*
X77140060Y-94297500D01*
X76325000Y-94297500D01*
X76325000Y-93659802D01*
X78284869Y-91699933D01*
X78422841Y-91757224D01*
X79054388Y-91757775D01*
X79638072Y-91516602D01*
X80085032Y-91070421D01*
X80327224Y-90487159D01*
X80327775Y-89855612D01*
X80086602Y-89271928D01*
X79640421Y-88824968D01*
X79057159Y-88582776D01*
X78425612Y-88582225D01*
X77841928Y-88823398D01*
X77394968Y-89269579D01*
X77152776Y-89852841D01*
X77152225Y-90484388D01*
X77210288Y-90624910D01*
X75027599Y-92807599D01*
X74862852Y-93054161D01*
X74805000Y-93345000D01*
X74805000Y-97665000D01*
X73660000Y-97665000D01*
X73369161Y-97722852D01*
X73122599Y-97887599D01*
X70170198Y-100840000D01*
X61522463Y-100840000D01*
X61490327Y-100807808D01*
X61146799Y-100665162D01*
X60774833Y-100664838D01*
X60431057Y-100806883D01*
X60167808Y-101069673D01*
X60025162Y-101413201D01*
X60024838Y-101785167D01*
X60159056Y-102110000D01*
X48434648Y-102110000D01*
X48234415Y-101810330D01*
X47919634Y-101600000D01*
X48234415Y-101389670D01*
X48559271Y-100903489D01*
X48673345Y-100330000D01*
X48559271Y-99756511D01*
X48234415Y-99270330D01*
X47919634Y-99060000D01*
X48234415Y-98849670D01*
X48559271Y-98363489D01*
X48673345Y-97790000D01*
X48559271Y-97216511D01*
X48234415Y-96730330D01*
X47919634Y-96520000D01*
X48234415Y-96309670D01*
X48528193Y-95870000D01*
X50772560Y-95870000D01*
X50772560Y-97170000D01*
X50816838Y-97405317D01*
X50955910Y-97621441D01*
X51168110Y-97766431D01*
X51420000Y-97817440D01*
X52720000Y-97817440D01*
X52955317Y-97773162D01*
X53171441Y-97634090D01*
X53316431Y-97421890D01*
X53317012Y-97419016D01*
X54850590Y-97419016D01*
X54906271Y-97649611D01*
X55389078Y-97817622D01*
X55899428Y-97788083D01*
X56233729Y-97649611D01*
X56289410Y-97419016D01*
X55570000Y-96699605D01*
X54850590Y-97419016D01*
X53317012Y-97419016D01*
X53367440Y-97170000D01*
X53367440Y-96339078D01*
X54272378Y-96339078D01*
X54301917Y-96849428D01*
X54440389Y-97183729D01*
X54670984Y-97239410D01*
X55390395Y-96520000D01*
X55749605Y-96520000D01*
X56469016Y-97239410D01*
X56699611Y-97183729D01*
X56867622Y-96700922D01*
X56838083Y-96190572D01*
X56699611Y-95856271D01*
X56469016Y-95800590D01*
X55749605Y-96520000D01*
X55390395Y-96520000D01*
X54670984Y-95800590D01*
X54440389Y-95856271D01*
X54272378Y-96339078D01*
X53367440Y-96339078D01*
X53367440Y-95870000D01*
X53323162Y-95634683D01*
X53314347Y-95620984D01*
X54850590Y-95620984D01*
X55570000Y-96340395D01*
X56289410Y-95620984D01*
X56233729Y-95390389D01*
X55750922Y-95222378D01*
X55240572Y-95251917D01*
X54906271Y-95390389D01*
X54850590Y-95620984D01*
X53314347Y-95620984D01*
X53184090Y-95418559D01*
X52971890Y-95273569D01*
X52720000Y-95222560D01*
X51420000Y-95222560D01*
X51184683Y-95266838D01*
X50968559Y-95405910D01*
X50823569Y-95618110D01*
X50772560Y-95870000D01*
X48528193Y-95870000D01*
X48559271Y-95823489D01*
X48673345Y-95250000D01*
X48559271Y-94676511D01*
X48234415Y-94190330D01*
X47919634Y-93980000D01*
X48234415Y-93769670D01*
X48559271Y-93283489D01*
X48610190Y-93027500D01*
X65710060Y-93027500D01*
X65710060Y-94932500D01*
X65754338Y-95167817D01*
X65893410Y-95383941D01*
X66105610Y-95528931D01*
X66357500Y-95579940D01*
X68262500Y-95579940D01*
X68497817Y-95535662D01*
X68713941Y-95396590D01*
X68858931Y-95184390D01*
X68909940Y-94932500D01*
X68909940Y-94294388D01*
X70802225Y-94294388D01*
X71043398Y-94878072D01*
X71489579Y-95325032D01*
X72072841Y-95567224D01*
X72704388Y-95567775D01*
X73288072Y-95326602D01*
X73735032Y-94880421D01*
X73977224Y-94297159D01*
X73977775Y-93665612D01*
X73736602Y-93081928D01*
X73290421Y-92634968D01*
X72707159Y-92392776D01*
X72075612Y-92392225D01*
X71491928Y-92633398D01*
X71044968Y-93079579D01*
X70802776Y-93662841D01*
X70802225Y-94294388D01*
X68909940Y-94294388D01*
X68909940Y-93027500D01*
X68865662Y-92792183D01*
X68726590Y-92576059D01*
X68514390Y-92431069D01*
X68262500Y-92380060D01*
X66357500Y-92380060D01*
X66122183Y-92424338D01*
X65906059Y-92563410D01*
X65761069Y-92775610D01*
X65710060Y-93027500D01*
X48610190Y-93027500D01*
X48673345Y-92710000D01*
X48559271Y-92136511D01*
X48234415Y-91650330D01*
X47919634Y-91440000D01*
X48234415Y-91229670D01*
X48559271Y-90743489D01*
X48673345Y-90170000D01*
X48559271Y-89596511D01*
X48234415Y-89110330D01*
X48212220Y-89095500D01*
X48365699Y-89031927D01*
X48544327Y-88853298D01*
X48641000Y-88619909D01*
X48641000Y-88012944D01*
X51734025Y-88012944D01*
X51933615Y-88494818D01*
X52371621Y-88967188D01*
X52957054Y-89235983D01*
X53213000Y-89117367D01*
X53213000Y-87757000D01*
X51853164Y-87757000D01*
X51734025Y-88012944D01*
X48641000Y-88012944D01*
X48641000Y-87915750D01*
X48482250Y-87757000D01*
X47117000Y-87757000D01*
X47117000Y-87777000D01*
X46863000Y-87777000D01*
X46863000Y-87757000D01*
X45497750Y-87757000D01*
X45339000Y-87915750D01*
X45339000Y-88619909D01*
X45435673Y-88853298D01*
X45614301Y-89031927D01*
X45767780Y-89095500D01*
X45745585Y-89110330D01*
X45420729Y-89596511D01*
X45306655Y-90170000D01*
X45160000Y-90170000D01*
X45160000Y-86640091D01*
X45339000Y-86640091D01*
X45339000Y-87344250D01*
X45497750Y-87503000D01*
X46863000Y-87503000D01*
X46863000Y-86290150D01*
X47117000Y-86290150D01*
X47117000Y-87503000D01*
X48482250Y-87503000D01*
X48641000Y-87344250D01*
X48641000Y-87247056D01*
X51734025Y-87247056D01*
X51853164Y-87503000D01*
X53213000Y-87503000D01*
X53213000Y-86142633D01*
X53467000Y-86142633D01*
X53467000Y-87503000D01*
X53487000Y-87503000D01*
X53487000Y-87757000D01*
X53467000Y-87757000D01*
X53467000Y-89117367D01*
X53722946Y-89235983D01*
X54308379Y-88967188D01*
X54312934Y-88962276D01*
X54399910Y-89097441D01*
X54612110Y-89242431D01*
X54864000Y-89293440D01*
X56896000Y-89293440D01*
X57131317Y-89249162D01*
X57347441Y-89110090D01*
X57492431Y-88897890D01*
X57543440Y-88646000D01*
X57543440Y-87953694D01*
X91075226Y-87953694D01*
X91323538Y-88554655D01*
X91782927Y-89014846D01*
X92383453Y-89264206D01*
X93033694Y-89264774D01*
X93634655Y-89016462D01*
X94094846Y-88557073D01*
X94344206Y-87956547D01*
X94344774Y-87306306D01*
X94096462Y-86705345D01*
X94095502Y-86704383D01*
X96454769Y-86704383D01*
X96657582Y-87195229D01*
X97032796Y-87571098D01*
X97523287Y-87774768D01*
X98054383Y-87775231D01*
X98545229Y-87572418D01*
X98921098Y-87197204D01*
X99124768Y-86706713D01*
X99124826Y-86640091D01*
X103759000Y-86640091D01*
X103759000Y-87344250D01*
X103917750Y-87503000D01*
X105283000Y-87503000D01*
X105283000Y-86290150D01*
X105537000Y-86290150D01*
X105537000Y-87503000D01*
X106902250Y-87503000D01*
X107061000Y-87344250D01*
X107061000Y-86640091D01*
X106964327Y-86406702D01*
X106785699Y-86228073D01*
X106552310Y-86131400D01*
X105695750Y-86131400D01*
X105537000Y-86290150D01*
X105283000Y-86290150D01*
X105124250Y-86131400D01*
X104267690Y-86131400D01*
X104034301Y-86228073D01*
X103855673Y-86406702D01*
X103759000Y-86640091D01*
X99124826Y-86640091D01*
X99125231Y-86175617D01*
X98922418Y-85684771D01*
X98547204Y-85308902D01*
X98056713Y-85105232D01*
X97525617Y-85104769D01*
X97034771Y-85307582D01*
X96658902Y-85682796D01*
X96455232Y-86173287D01*
X96454769Y-86704383D01*
X94095502Y-86704383D01*
X93637073Y-86245154D01*
X93036547Y-85995794D01*
X92386306Y-85995226D01*
X91785345Y-86243538D01*
X91325154Y-86702927D01*
X91075794Y-87303453D01*
X91075226Y-87953694D01*
X57543440Y-87953694D01*
X57543440Y-86614000D01*
X57499162Y-86378683D01*
X57360090Y-86162559D01*
X57147890Y-86017569D01*
X56896000Y-85966560D01*
X54864000Y-85966560D01*
X54628683Y-86010838D01*
X54412559Y-86149910D01*
X54312144Y-86296872D01*
X54308379Y-86292812D01*
X53722946Y-86024017D01*
X53467000Y-86142633D01*
X53213000Y-86142633D01*
X52957054Y-86024017D01*
X52371621Y-86292812D01*
X51933615Y-86765182D01*
X51734025Y-87247056D01*
X48641000Y-87247056D01*
X48641000Y-86640091D01*
X48544327Y-86406702D01*
X48365699Y-86228073D01*
X48132310Y-86131400D01*
X47275750Y-86131400D01*
X47117000Y-86290150D01*
X46863000Y-86290150D01*
X46704250Y-86131400D01*
X45847690Y-86131400D01*
X45614301Y-86228073D01*
X45435673Y-86406702D01*
X45339000Y-86640091D01*
X45160000Y-86640091D01*
X45160000Y-85661500D01*
X78664060Y-85661500D01*
X78664060Y-87058500D01*
X78708338Y-87293817D01*
X78847410Y-87509941D01*
X79059610Y-87654931D01*
X79311500Y-87705940D01*
X80708500Y-87705940D01*
X80943817Y-87661662D01*
X81159941Y-87522590D01*
X81304931Y-87310390D01*
X81355940Y-87058500D01*
X81355940Y-86962116D01*
X81418854Y-87114380D01*
X81793647Y-87489827D01*
X82283587Y-87693268D01*
X82814086Y-87693731D01*
X83304380Y-87491146D01*
X83501681Y-87294188D01*
X84335417Y-87294188D01*
X84397071Y-87529800D01*
X84897480Y-87705927D01*
X85427199Y-87677148D01*
X85782929Y-87529800D01*
X85844583Y-87294188D01*
X85090000Y-86539605D01*
X84335417Y-87294188D01*
X83501681Y-87294188D01*
X83679827Y-87116353D01*
X83813314Y-86794882D01*
X83920200Y-87052929D01*
X84155812Y-87114583D01*
X84910395Y-86360000D01*
X85269605Y-86360000D01*
X86024188Y-87114583D01*
X86259800Y-87052929D01*
X86435927Y-86552520D01*
X86407148Y-86022801D01*
X86259800Y-85667071D01*
X86024188Y-85605417D01*
X85269605Y-86360000D01*
X84910395Y-86360000D01*
X84155812Y-85605417D01*
X83920200Y-85667071D01*
X83821917Y-85946312D01*
X83681146Y-85605620D01*
X83501652Y-85425812D01*
X84335417Y-85425812D01*
X85090000Y-86180395D01*
X85844583Y-85425812D01*
X85782929Y-85190200D01*
X85282520Y-85014073D01*
X84752801Y-85042852D01*
X84397071Y-85190200D01*
X84335417Y-85425812D01*
X83501652Y-85425812D01*
X83306353Y-85230173D01*
X82816413Y-85026732D01*
X82285914Y-85026269D01*
X81795620Y-85228854D01*
X81420173Y-85603647D01*
X81355940Y-85758337D01*
X81355940Y-85661500D01*
X81311662Y-85426183D01*
X81172590Y-85210059D01*
X80960390Y-85065069D01*
X80708500Y-85014060D01*
X79311500Y-85014060D01*
X79076183Y-85058338D01*
X78860059Y-85197410D01*
X78715069Y-85409610D01*
X78664060Y-85661500D01*
X45160000Y-85661500D01*
X45160000Y-84530000D01*
X107240000Y-84530000D01*
X107240000Y-135180000D01*
M02*
