G04 #@! TF.FileFunction,Legend,Bot*
%FSLAX46Y46*%
G04 Gerber Fmt 4.6, Leading zero omitted, Abs format (unit mm)*
G04 Created by KiCad (PCBNEW 4.0.4+e1-6308~48~ubuntu16.04.1-stable) date Tue Oct 25 18:35:52 2016*
%MOMM*%
%LPD*%
G01*
G04 APERTURE LIST*
%ADD10C,0.100000*%
%ADD11C,0.300000*%
G04 APERTURE END LIST*
D10*
D11*
X67647429Y-91148856D02*
X69147429Y-91148856D01*
X69147429Y-90791713D01*
X69076000Y-90577428D01*
X68933143Y-90434570D01*
X68790286Y-90363142D01*
X68504571Y-90291713D01*
X68290286Y-90291713D01*
X68004571Y-90363142D01*
X67861714Y-90434570D01*
X67718857Y-90577428D01*
X67647429Y-90791713D01*
X67647429Y-91148856D01*
X68433143Y-89148856D02*
X68361714Y-88934570D01*
X68290286Y-88863142D01*
X68147429Y-88791713D01*
X67933143Y-88791713D01*
X67790286Y-88863142D01*
X67718857Y-88934570D01*
X67647429Y-89077428D01*
X67647429Y-89648856D01*
X69147429Y-89648856D01*
X69147429Y-89148856D01*
X69076000Y-89005999D01*
X69004571Y-88934570D01*
X68861714Y-88863142D01*
X68718857Y-88863142D01*
X68576000Y-88934570D01*
X68504571Y-89005999D01*
X68433143Y-89148856D01*
X68433143Y-89648856D01*
X67504571Y-88505999D02*
X67504571Y-87363142D01*
X67647429Y-87005999D02*
X69147429Y-87005999D01*
X68076000Y-86505999D01*
X69147429Y-86005999D01*
X67647429Y-86005999D01*
X67647429Y-85077427D02*
X67718857Y-85220285D01*
X67790286Y-85291713D01*
X67933143Y-85363142D01*
X68361714Y-85363142D01*
X68504571Y-85291713D01*
X68576000Y-85220285D01*
X68647429Y-85077427D01*
X68647429Y-84863142D01*
X68576000Y-84720285D01*
X68504571Y-84648856D01*
X68361714Y-84577427D01*
X67933143Y-84577427D01*
X67790286Y-84648856D01*
X67718857Y-84720285D01*
X67647429Y-84863142D01*
X67647429Y-85077427D01*
X68647429Y-84148856D02*
X68647429Y-83577427D01*
X69147429Y-83934570D02*
X67861714Y-83934570D01*
X67718857Y-83863142D01*
X67647429Y-83720284D01*
X67647429Y-83577427D01*
X67647429Y-82863141D02*
X67718857Y-83005999D01*
X67790286Y-83077427D01*
X67933143Y-83148856D01*
X68361714Y-83148856D01*
X68504571Y-83077427D01*
X68576000Y-83005999D01*
X68647429Y-82863141D01*
X68647429Y-82648856D01*
X68576000Y-82505999D01*
X68504571Y-82434570D01*
X68361714Y-82363141D01*
X67933143Y-82363141D01*
X67790286Y-82434570D01*
X67718857Y-82505999D01*
X67647429Y-82648856D01*
X67647429Y-82863141D01*
X67647429Y-81720284D02*
X68647429Y-81720284D01*
X68361714Y-81720284D02*
X68504571Y-81648856D01*
X68576000Y-81577427D01*
X68647429Y-81434570D01*
X68647429Y-81291713D01*
X67504571Y-81148856D02*
X67504571Y-80005999D01*
X67790286Y-78791713D02*
X67718857Y-78863142D01*
X67647429Y-79077428D01*
X67647429Y-79220285D01*
X67718857Y-79434570D01*
X67861714Y-79577428D01*
X68004571Y-79648856D01*
X68290286Y-79720285D01*
X68504571Y-79720285D01*
X68790286Y-79648856D01*
X68933143Y-79577428D01*
X69076000Y-79434570D01*
X69147429Y-79220285D01*
X69147429Y-79077428D01*
X69076000Y-78863142D01*
X69004571Y-78791713D01*
X67647429Y-77934570D02*
X67718857Y-78077428D01*
X67790286Y-78148856D01*
X67933143Y-78220285D01*
X68361714Y-78220285D01*
X68504571Y-78148856D01*
X68576000Y-78077428D01*
X68647429Y-77934570D01*
X68647429Y-77720285D01*
X68576000Y-77577428D01*
X68504571Y-77505999D01*
X68361714Y-77434570D01*
X67933143Y-77434570D01*
X67790286Y-77505999D01*
X67718857Y-77577428D01*
X67647429Y-77720285D01*
X67647429Y-77934570D01*
X68647429Y-76791713D02*
X67647429Y-76791713D01*
X68504571Y-76791713D02*
X68576000Y-76720285D01*
X68647429Y-76577427D01*
X68647429Y-76363142D01*
X68576000Y-76220285D01*
X68433143Y-76148856D01*
X67647429Y-76148856D01*
X68647429Y-75648856D02*
X68647429Y-75077427D01*
X69147429Y-75434570D02*
X67861714Y-75434570D01*
X67718857Y-75363142D01*
X67647429Y-75220284D01*
X67647429Y-75077427D01*
X67647429Y-74577427D02*
X68647429Y-74577427D01*
X68361714Y-74577427D02*
X68504571Y-74505999D01*
X68576000Y-74434570D01*
X68647429Y-74291713D01*
X68647429Y-74148856D01*
X67647429Y-73434570D02*
X67718857Y-73577428D01*
X67790286Y-73648856D01*
X67933143Y-73720285D01*
X68361714Y-73720285D01*
X68504571Y-73648856D01*
X68576000Y-73577428D01*
X68647429Y-73434570D01*
X68647429Y-73220285D01*
X68576000Y-73077428D01*
X68504571Y-73005999D01*
X68361714Y-72934570D01*
X67933143Y-72934570D01*
X67790286Y-73005999D01*
X67718857Y-73077428D01*
X67647429Y-73220285D01*
X67647429Y-73434570D01*
X67647429Y-72077427D02*
X67718857Y-72220285D01*
X67861714Y-72291713D01*
X69147429Y-72291713D01*
X67504571Y-71863142D02*
X67504571Y-70720285D01*
X69147429Y-70577428D02*
X67647429Y-70077428D01*
X69147429Y-69577428D01*
X69004571Y-69148857D02*
X69076000Y-69077428D01*
X69147429Y-68934571D01*
X69147429Y-68577428D01*
X69076000Y-68434571D01*
X69004571Y-68363142D01*
X68861714Y-68291714D01*
X68718857Y-68291714D01*
X68504571Y-68363142D01*
X67647429Y-69220285D01*
X67647429Y-68291714D01*
M02*
