%FSLAX45Y45*%
G04 Gerber Fmt 4.5, Leading zero omitted, Abs format (unit mm)*
G04 Created by KiCad (PCBNEW 4.0.3+e1-6302~38~ubuntu16.04.1-stable) date Thu Aug 25 11:38:43 2016*
%MOMM*%
%LPD*%
G01*
G04 APERTURE LIST*
%ADD10C,0.127000*%
%ADD11C,0.150000*%
%ADD12C,0.200000*%
%ADD13C,0.300000*%
G04 APERTURE END LIST*
D10*
D11*
X10160000Y-5969000D02*
X8382000Y-5969000D01*
X10160000Y-11176000D02*
X10160000Y-5969000D01*
X8382000Y-11176000D02*
X10160000Y-11176000D01*
X8382000Y-5969000D02*
X8382000Y-11176000D01*
D12*
X8976360Y-8595360D02*
X9057640Y-8676640D01*
X9057640Y-8595360D02*
X8976360Y-8676640D01*
X9484360Y-8595360D02*
X9565640Y-8676640D01*
X9565640Y-8595360D02*
X9484360Y-8676640D01*
X9062000Y-7874000D02*
G75*
G03X9062000Y-7874000I-45000J0D01*
G01*
X9562000Y-7874000D02*
G75*
G03X9562000Y-7874000I-45000J0D01*
G01*
X9271000Y-6299962D02*
X9271000Y-6400038D01*
X9220962Y-6350000D02*
X9321038Y-6350000D01*
X9271000Y-7315962D02*
X9271000Y-7416038D01*
X9220962Y-7366000D02*
X9321038Y-7366000D01*
X8671921Y-6385921D02*
X8671921Y-6314079D01*
X8600079Y-6314079D01*
X8600079Y-6385921D01*
X8671921Y-6385921D01*
X8671921Y-6639921D02*
X8671921Y-6568079D01*
X8600079Y-6568079D01*
X8600079Y-6639921D01*
X8671921Y-6639921D01*
X8671921Y-6893921D02*
X8671921Y-6822079D01*
X8600079Y-6822079D01*
X8600079Y-6893921D01*
X8671921Y-6893921D01*
X8671921Y-7147921D02*
X8671921Y-7076079D01*
X8600079Y-7076079D01*
X8600079Y-7147921D01*
X8671921Y-7147921D01*
X8671921Y-7401921D02*
X8671921Y-7330079D01*
X8600079Y-7330079D01*
X8600079Y-7401921D01*
X8671921Y-7401921D01*
X8671921Y-7655921D02*
X8671921Y-7584079D01*
X8600079Y-7584079D01*
X8600079Y-7655921D01*
X8671921Y-7655921D01*
X8671921Y-7909921D02*
X8671921Y-7838079D01*
X8600079Y-7838079D01*
X8600079Y-7909921D01*
X8671921Y-7909921D01*
X8671921Y-8163921D02*
X8671921Y-8092079D01*
X8600079Y-8092079D01*
X8600079Y-8163921D01*
X8671921Y-8163921D01*
X8671921Y-8417921D02*
X8671921Y-8346079D01*
X8600079Y-8346079D01*
X8600079Y-8417921D01*
X8671921Y-8417921D01*
X8671921Y-8671921D02*
X8671921Y-8600079D01*
X8600079Y-8600079D01*
X8600079Y-8671921D01*
X8671921Y-8671921D01*
X8671921Y-8925921D02*
X8671921Y-8854079D01*
X8600079Y-8854079D01*
X8600079Y-8925921D01*
X8671921Y-8925921D01*
X8671921Y-9179921D02*
X8671921Y-9108079D01*
X8600079Y-9108079D01*
X8600079Y-9179921D01*
X8671921Y-9179921D01*
X8671921Y-9433921D02*
X8671921Y-9362079D01*
X8600079Y-9362079D01*
X8600079Y-9433921D01*
X8671921Y-9433921D01*
X8671921Y-9687921D02*
X8671921Y-9616079D01*
X8600079Y-9616079D01*
X8600079Y-9687921D01*
X8671921Y-9687921D01*
X8671921Y-9941921D02*
X8671921Y-9870079D01*
X8600079Y-9870079D01*
X8600079Y-9941921D01*
X8671921Y-9941921D01*
X8671921Y-10195921D02*
X8671921Y-10124079D01*
X8600079Y-10124079D01*
X8600079Y-10195921D01*
X8671921Y-10195921D01*
X8671921Y-10449921D02*
X8671921Y-10378079D01*
X8600079Y-10378079D01*
X8600079Y-10449921D01*
X8671921Y-10449921D01*
X8671921Y-10703921D02*
X8671921Y-10632079D01*
X8600079Y-10632079D01*
X8600079Y-10703921D01*
X8671921Y-10703921D01*
X8671921Y-10957921D02*
X8671921Y-10886079D01*
X8600079Y-10886079D01*
X8600079Y-10957921D01*
X8671921Y-10957921D01*
X9941921Y-6385921D02*
X9941921Y-6314079D01*
X9870079Y-6314079D01*
X9870079Y-6385921D01*
X9941921Y-6385921D01*
X9941921Y-6639921D02*
X9941921Y-6568079D01*
X9870079Y-6568079D01*
X9870079Y-6639921D01*
X9941921Y-6639921D01*
X9941921Y-6893921D02*
X9941921Y-6822079D01*
X9870079Y-6822079D01*
X9870079Y-6893921D01*
X9941921Y-6893921D01*
X9941921Y-7147921D02*
X9941921Y-7076079D01*
X9870079Y-7076079D01*
X9870079Y-7147921D01*
X9941921Y-7147921D01*
X9941921Y-7401921D02*
X9941921Y-7330079D01*
X9870079Y-7330079D01*
X9870079Y-7401921D01*
X9941921Y-7401921D01*
X9941921Y-7655921D02*
X9941921Y-7584079D01*
X9870079Y-7584079D01*
X9870079Y-7655921D01*
X9941921Y-7655921D01*
X9941921Y-7909921D02*
X9941921Y-7838079D01*
X9870079Y-7838079D01*
X9870079Y-7909921D01*
X9941921Y-7909921D01*
X9941921Y-8163921D02*
X9941921Y-8092079D01*
X9870079Y-8092079D01*
X9870079Y-8163921D01*
X9941921Y-8163921D01*
X9941921Y-8417921D02*
X9941921Y-8346079D01*
X9870079Y-8346079D01*
X9870079Y-8417921D01*
X9941921Y-8417921D01*
X9941921Y-8671921D02*
X9941921Y-8600079D01*
X9870079Y-8600079D01*
X9870079Y-8671921D01*
X9941921Y-8671921D01*
X9941921Y-8925921D02*
X9941921Y-8854079D01*
X9870079Y-8854079D01*
X9870079Y-8925921D01*
X9941921Y-8925921D01*
X9941921Y-9179921D02*
X9941921Y-9108079D01*
X9870079Y-9108079D01*
X9870079Y-9179921D01*
X9941921Y-9179921D01*
X9941921Y-9433921D02*
X9941921Y-9362079D01*
X9870079Y-9362079D01*
X9870079Y-9433921D01*
X9941921Y-9433921D01*
X9941921Y-9687921D02*
X9941921Y-9616079D01*
X9870079Y-9616079D01*
X9870079Y-9687921D01*
X9941921Y-9687921D01*
X9941921Y-9941921D02*
X9941921Y-9870079D01*
X9870079Y-9870079D01*
X9870079Y-9941921D01*
X9941921Y-9941921D01*
X9941921Y-10195921D02*
X9941921Y-10124079D01*
X9870079Y-10124079D01*
X9870079Y-10195921D01*
X9941921Y-10195921D01*
X9941921Y-10449921D02*
X9941921Y-10378079D01*
X9870079Y-10378079D01*
X9870079Y-10449921D01*
X9941921Y-10449921D01*
X9941921Y-10703921D02*
X9941921Y-10632079D01*
X9870079Y-10632079D01*
X9870079Y-10703921D01*
X9941921Y-10703921D01*
X9941921Y-10957921D02*
X9941921Y-10886079D01*
X9870079Y-10886079D01*
X9870079Y-10957921D01*
X9941921Y-10957921D01*
D13*
X8645929Y-11649214D02*
X8645929Y-11349214D01*
X8717357Y-11349214D01*
X8760214Y-11363500D01*
X8788786Y-11392071D01*
X8803071Y-11420643D01*
X8817357Y-11477786D01*
X8817357Y-11520643D01*
X8803071Y-11577786D01*
X8788786Y-11606357D01*
X8760214Y-11634929D01*
X8717357Y-11649214D01*
X8645929Y-11649214D01*
X8945929Y-11649214D02*
X8945929Y-11449214D01*
X8945929Y-11506357D02*
X8960214Y-11477786D01*
X8974500Y-11463500D01*
X9003071Y-11449214D01*
X9031643Y-11449214D01*
X9131643Y-11649214D02*
X9131643Y-11449214D01*
X9131643Y-11349214D02*
X9117357Y-11363500D01*
X9131643Y-11377786D01*
X9145929Y-11363500D01*
X9131643Y-11349214D01*
X9131643Y-11377786D01*
X9317357Y-11649214D02*
X9288786Y-11634929D01*
X9274500Y-11606357D01*
X9274500Y-11349214D01*
X9474500Y-11649214D02*
X9445929Y-11634929D01*
X9431643Y-11606357D01*
X9431643Y-11349214D01*
X9817357Y-11649214D02*
X9817357Y-11349214D01*
X9917357Y-11563500D01*
X10017357Y-11349214D01*
X10017357Y-11649214D01*
X10288786Y-11649214D02*
X10288786Y-11492071D01*
X10274500Y-11463500D01*
X10245929Y-11449214D01*
X10188786Y-11449214D01*
X10160214Y-11463500D01*
X10288786Y-11634929D02*
X10260214Y-11649214D01*
X10188786Y-11649214D01*
X10160214Y-11634929D01*
X10145929Y-11606357D01*
X10145929Y-11577786D01*
X10160214Y-11549214D01*
X10188786Y-11534929D01*
X10260214Y-11534929D01*
X10288786Y-11520643D01*
X10431643Y-11449214D02*
X10431643Y-11749214D01*
X10431643Y-11463500D02*
X10460214Y-11449214D01*
X10517357Y-11449214D01*
X10545929Y-11463500D01*
X10560214Y-11477786D01*
X10574500Y-11506357D01*
X10574500Y-11592071D01*
X10560214Y-11620643D01*
X10545929Y-11634929D01*
X10517357Y-11649214D01*
X10460214Y-11649214D01*
X10431643Y-11634929D01*
X10703071Y-11620643D02*
X10717357Y-11634929D01*
X10703071Y-11649214D01*
X10688786Y-11634929D01*
X10703071Y-11620643D01*
X10703071Y-11649214D01*
X10703071Y-11463500D02*
X10717357Y-11477786D01*
X10703071Y-11492071D01*
X10688786Y-11477786D01*
X10703071Y-11463500D01*
X10703071Y-11492071D01*
X8293220Y-12102860D02*
X8374500Y-12184140D01*
X8374500Y-12102860D02*
X8293220Y-12184140D01*
X8703071Y-11979214D02*
X8731643Y-11979214D01*
X8760214Y-11993500D01*
X8774500Y-12007786D01*
X8788786Y-12036357D01*
X8803071Y-12093500D01*
X8803071Y-12164929D01*
X8788786Y-12222071D01*
X8774500Y-12250643D01*
X8760214Y-12264929D01*
X8731643Y-12279214D01*
X8703071Y-12279214D01*
X8674500Y-12264929D01*
X8660214Y-12250643D01*
X8645929Y-12222071D01*
X8631643Y-12164929D01*
X8631643Y-12093500D01*
X8645929Y-12036357D01*
X8660214Y-12007786D01*
X8674500Y-11993500D01*
X8703071Y-11979214D01*
X8931643Y-12250643D02*
X8945929Y-12264929D01*
X8931643Y-12279214D01*
X8917357Y-12264929D01*
X8931643Y-12250643D01*
X8931643Y-12279214D01*
X9117357Y-12107786D02*
X9088786Y-12093500D01*
X9074500Y-12079214D01*
X9060214Y-12050643D01*
X9060214Y-12036357D01*
X9074500Y-12007786D01*
X9088786Y-11993500D01*
X9117357Y-11979214D01*
X9174500Y-11979214D01*
X9203071Y-11993500D01*
X9217357Y-12007786D01*
X9231643Y-12036357D01*
X9231643Y-12050643D01*
X9217357Y-12079214D01*
X9203071Y-12093500D01*
X9174500Y-12107786D01*
X9117357Y-12107786D01*
X9088786Y-12122071D01*
X9074500Y-12136357D01*
X9060214Y-12164929D01*
X9060214Y-12222071D01*
X9074500Y-12250643D01*
X9088786Y-12264929D01*
X9117357Y-12279214D01*
X9174500Y-12279214D01*
X9203071Y-12264929D01*
X9217357Y-12250643D01*
X9231643Y-12222071D01*
X9231643Y-12164929D01*
X9217357Y-12136357D01*
X9203071Y-12122071D01*
X9174500Y-12107786D01*
X9517357Y-12279214D02*
X9345929Y-12279214D01*
X9431643Y-12279214D02*
X9431643Y-11979214D01*
X9403071Y-12022071D01*
X9374500Y-12050643D01*
X9345929Y-12064929D01*
X9645929Y-12279214D02*
X9645929Y-12079214D01*
X9645929Y-12107786D02*
X9660214Y-12093500D01*
X9688786Y-12079214D01*
X9731643Y-12079214D01*
X9760214Y-12093500D01*
X9774500Y-12122071D01*
X9774500Y-12279214D01*
X9774500Y-12122071D02*
X9788786Y-12093500D01*
X9817357Y-12079214D01*
X9860214Y-12079214D01*
X9888786Y-12093500D01*
X9903071Y-12122071D01*
X9903071Y-12279214D01*
X10045929Y-12279214D02*
X10045929Y-12079214D01*
X10045929Y-12107786D02*
X10060214Y-12093500D01*
X10088786Y-12079214D01*
X10131643Y-12079214D01*
X10160214Y-12093500D01*
X10174500Y-12122071D01*
X10174500Y-12279214D01*
X10174500Y-12122071D02*
X10188786Y-12093500D01*
X10217357Y-12079214D01*
X10260214Y-12079214D01*
X10288786Y-12093500D01*
X10303071Y-12122071D01*
X10303071Y-12279214D01*
X10888786Y-11964929D02*
X10631643Y-12350643D01*
X11274500Y-11979214D02*
X11303071Y-11979214D01*
X11331643Y-11993500D01*
X11345928Y-12007786D01*
X11360214Y-12036357D01*
X11374500Y-12093500D01*
X11374500Y-12164929D01*
X11360214Y-12222071D01*
X11345928Y-12250643D01*
X11331643Y-12264929D01*
X11303071Y-12279214D01*
X11274500Y-12279214D01*
X11245928Y-12264929D01*
X11231643Y-12250643D01*
X11217357Y-12222071D01*
X11203071Y-12164929D01*
X11203071Y-12093500D01*
X11217357Y-12036357D01*
X11231643Y-12007786D01*
X11245928Y-11993500D01*
X11274500Y-11979214D01*
X11503071Y-12250643D02*
X11517357Y-12264929D01*
X11503071Y-12279214D01*
X11488786Y-12264929D01*
X11503071Y-12250643D01*
X11503071Y-12279214D01*
X11703071Y-11979214D02*
X11731643Y-11979214D01*
X11760214Y-11993500D01*
X11774500Y-12007786D01*
X11788785Y-12036357D01*
X11803071Y-12093500D01*
X11803071Y-12164929D01*
X11788785Y-12222071D01*
X11774500Y-12250643D01*
X11760214Y-12264929D01*
X11731643Y-12279214D01*
X11703071Y-12279214D01*
X11674500Y-12264929D01*
X11660214Y-12250643D01*
X11645928Y-12222071D01*
X11631643Y-12164929D01*
X11631643Y-12093500D01*
X11645928Y-12036357D01*
X11660214Y-12007786D01*
X11674500Y-11993500D01*
X11703071Y-11979214D01*
X11903071Y-11979214D02*
X12088785Y-11979214D01*
X11988785Y-12093500D01*
X12031643Y-12093500D01*
X12060214Y-12107786D01*
X12074500Y-12122071D01*
X12088785Y-12150643D01*
X12088785Y-12222071D01*
X12074500Y-12250643D01*
X12060214Y-12264929D01*
X12031643Y-12279214D01*
X11945928Y-12279214D01*
X11917357Y-12264929D01*
X11903071Y-12250643D01*
X12203071Y-12007786D02*
X12217357Y-11993500D01*
X12245928Y-11979214D01*
X12317357Y-11979214D01*
X12345928Y-11993500D01*
X12360214Y-12007786D01*
X12374500Y-12036357D01*
X12374500Y-12064929D01*
X12360214Y-12107786D01*
X12188785Y-12279214D01*
X12374500Y-12279214D01*
X12488786Y-11979214D02*
X12488786Y-12036357D01*
X12603071Y-11979214D02*
X12603071Y-12036357D01*
X13045928Y-12393500D02*
X13031643Y-12379214D01*
X13003071Y-12336357D01*
X12988785Y-12307786D01*
X12974500Y-12264929D01*
X12960214Y-12193500D01*
X12960214Y-12136357D01*
X12974500Y-12064929D01*
X12988785Y-12022071D01*
X13003071Y-11993500D01*
X13031643Y-11950643D01*
X13045928Y-11936357D01*
X13145928Y-12007786D02*
X13160214Y-11993500D01*
X13188785Y-11979214D01*
X13260214Y-11979214D01*
X13288785Y-11993500D01*
X13303071Y-12007786D01*
X13317357Y-12036357D01*
X13317357Y-12064929D01*
X13303071Y-12107786D01*
X13131643Y-12279214D01*
X13317357Y-12279214D01*
X13674500Y-12279214D02*
X13674500Y-11979214D01*
X13803071Y-12279214D02*
X13803071Y-12122071D01*
X13788785Y-12093500D01*
X13760214Y-12079214D01*
X13717357Y-12079214D01*
X13688785Y-12093500D01*
X13674500Y-12107786D01*
X13988785Y-12279214D02*
X13960214Y-12264929D01*
X13945928Y-12250643D01*
X13931643Y-12222071D01*
X13931643Y-12136357D01*
X13945928Y-12107786D01*
X13960214Y-12093500D01*
X13988785Y-12079214D01*
X14031643Y-12079214D01*
X14060214Y-12093500D01*
X14074500Y-12107786D01*
X14088785Y-12136357D01*
X14088785Y-12222071D01*
X14074500Y-12250643D01*
X14060214Y-12264929D01*
X14031643Y-12279214D01*
X13988785Y-12279214D01*
X14260214Y-12279214D02*
X14231643Y-12264929D01*
X14217357Y-12236357D01*
X14217357Y-11979214D01*
X14488786Y-12264929D02*
X14460214Y-12279214D01*
X14403071Y-12279214D01*
X14374500Y-12264929D01*
X14360214Y-12236357D01*
X14360214Y-12122071D01*
X14374500Y-12093500D01*
X14403071Y-12079214D01*
X14460214Y-12079214D01*
X14488786Y-12093500D01*
X14503071Y-12122071D01*
X14503071Y-12150643D01*
X14360214Y-12179214D01*
X14617357Y-12264929D02*
X14645928Y-12279214D01*
X14703071Y-12279214D01*
X14731643Y-12264929D01*
X14745928Y-12236357D01*
X14745928Y-12222071D01*
X14731643Y-12193500D01*
X14703071Y-12179214D01*
X14660214Y-12179214D01*
X14631643Y-12164929D01*
X14617357Y-12136357D01*
X14617357Y-12122071D01*
X14631643Y-12093500D01*
X14660214Y-12079214D01*
X14703071Y-12079214D01*
X14731643Y-12093500D01*
X14845928Y-12393500D02*
X14860214Y-12379214D01*
X14888786Y-12336357D01*
X14903071Y-12307786D01*
X14917357Y-12264929D01*
X14931643Y-12193500D01*
X14931643Y-12136357D01*
X14917357Y-12064929D01*
X14903071Y-12022071D01*
X14888786Y-11993500D01*
X14860214Y-11950643D01*
X14845928Y-11936357D01*
X8374500Y-12539500D02*
G75*
G03X8374500Y-12539500I-45000J0D01*
G01*
X8703071Y-12375214D02*
X8731643Y-12375214D01*
X8760214Y-12389500D01*
X8774500Y-12403786D01*
X8788786Y-12432357D01*
X8803071Y-12489500D01*
X8803071Y-12560929D01*
X8788786Y-12618071D01*
X8774500Y-12646643D01*
X8760214Y-12660929D01*
X8731643Y-12675214D01*
X8703071Y-12675214D01*
X8674500Y-12660929D01*
X8660214Y-12646643D01*
X8645929Y-12618071D01*
X8631643Y-12560929D01*
X8631643Y-12489500D01*
X8645929Y-12432357D01*
X8660214Y-12403786D01*
X8674500Y-12389500D01*
X8703071Y-12375214D01*
X8931643Y-12646643D02*
X8945929Y-12660929D01*
X8931643Y-12675214D01*
X8917357Y-12660929D01*
X8931643Y-12646643D01*
X8931643Y-12675214D01*
X9088786Y-12675214D02*
X9145928Y-12675214D01*
X9174500Y-12660929D01*
X9188786Y-12646643D01*
X9217357Y-12603786D01*
X9231643Y-12546643D01*
X9231643Y-12432357D01*
X9217357Y-12403786D01*
X9203071Y-12389500D01*
X9174500Y-12375214D01*
X9117357Y-12375214D01*
X9088786Y-12389500D01*
X9074500Y-12403786D01*
X9060214Y-12432357D01*
X9060214Y-12503786D01*
X9074500Y-12532357D01*
X9088786Y-12546643D01*
X9117357Y-12560929D01*
X9174500Y-12560929D01*
X9203071Y-12546643D01*
X9217357Y-12532357D01*
X9231643Y-12503786D01*
X9417357Y-12375214D02*
X9445929Y-12375214D01*
X9474500Y-12389500D01*
X9488786Y-12403786D01*
X9503071Y-12432357D01*
X9517357Y-12489500D01*
X9517357Y-12560929D01*
X9503071Y-12618071D01*
X9488786Y-12646643D01*
X9474500Y-12660929D01*
X9445929Y-12675214D01*
X9417357Y-12675214D01*
X9388786Y-12660929D01*
X9374500Y-12646643D01*
X9360214Y-12618071D01*
X9345929Y-12560929D01*
X9345929Y-12489500D01*
X9360214Y-12432357D01*
X9374500Y-12403786D01*
X9388786Y-12389500D01*
X9417357Y-12375214D01*
X9645929Y-12675214D02*
X9645929Y-12475214D01*
X9645929Y-12503786D02*
X9660214Y-12489500D01*
X9688786Y-12475214D01*
X9731643Y-12475214D01*
X9760214Y-12489500D01*
X9774500Y-12518071D01*
X9774500Y-12675214D01*
X9774500Y-12518071D02*
X9788786Y-12489500D01*
X9817357Y-12475214D01*
X9860214Y-12475214D01*
X9888786Y-12489500D01*
X9903071Y-12518071D01*
X9903071Y-12675214D01*
X10045929Y-12675214D02*
X10045929Y-12475214D01*
X10045929Y-12503786D02*
X10060214Y-12489500D01*
X10088786Y-12475214D01*
X10131643Y-12475214D01*
X10160214Y-12489500D01*
X10174500Y-12518071D01*
X10174500Y-12675214D01*
X10174500Y-12518071D02*
X10188786Y-12489500D01*
X10217357Y-12475214D01*
X10260214Y-12475214D01*
X10288786Y-12489500D01*
X10303071Y-12518071D01*
X10303071Y-12675214D01*
X10888786Y-12360929D02*
X10631643Y-12746643D01*
X11274500Y-12375214D02*
X11303071Y-12375214D01*
X11331643Y-12389500D01*
X11345928Y-12403786D01*
X11360214Y-12432357D01*
X11374500Y-12489500D01*
X11374500Y-12560929D01*
X11360214Y-12618071D01*
X11345928Y-12646643D01*
X11331643Y-12660929D01*
X11303071Y-12675214D01*
X11274500Y-12675214D01*
X11245928Y-12660929D01*
X11231643Y-12646643D01*
X11217357Y-12618071D01*
X11203071Y-12560929D01*
X11203071Y-12489500D01*
X11217357Y-12432357D01*
X11231643Y-12403786D01*
X11245928Y-12389500D01*
X11274500Y-12375214D01*
X11503071Y-12646643D02*
X11517357Y-12660929D01*
X11503071Y-12675214D01*
X11488786Y-12660929D01*
X11503071Y-12646643D01*
X11503071Y-12675214D01*
X11703071Y-12375214D02*
X11731643Y-12375214D01*
X11760214Y-12389500D01*
X11774500Y-12403786D01*
X11788785Y-12432357D01*
X11803071Y-12489500D01*
X11803071Y-12560929D01*
X11788785Y-12618071D01*
X11774500Y-12646643D01*
X11760214Y-12660929D01*
X11731643Y-12675214D01*
X11703071Y-12675214D01*
X11674500Y-12660929D01*
X11660214Y-12646643D01*
X11645928Y-12618071D01*
X11631643Y-12560929D01*
X11631643Y-12489500D01*
X11645928Y-12432357D01*
X11660214Y-12403786D01*
X11674500Y-12389500D01*
X11703071Y-12375214D01*
X11903071Y-12375214D02*
X12088785Y-12375214D01*
X11988785Y-12489500D01*
X12031643Y-12489500D01*
X12060214Y-12503786D01*
X12074500Y-12518071D01*
X12088785Y-12546643D01*
X12088785Y-12618071D01*
X12074500Y-12646643D01*
X12060214Y-12660929D01*
X12031643Y-12675214D01*
X11945928Y-12675214D01*
X11917357Y-12660929D01*
X11903071Y-12646643D01*
X12360214Y-12375214D02*
X12217357Y-12375214D01*
X12203071Y-12518071D01*
X12217357Y-12503786D01*
X12245928Y-12489500D01*
X12317357Y-12489500D01*
X12345928Y-12503786D01*
X12360214Y-12518071D01*
X12374500Y-12546643D01*
X12374500Y-12618071D01*
X12360214Y-12646643D01*
X12345928Y-12660929D01*
X12317357Y-12675214D01*
X12245928Y-12675214D01*
X12217357Y-12660929D01*
X12203071Y-12646643D01*
X12488786Y-12375214D02*
X12488786Y-12432357D01*
X12603071Y-12375214D02*
X12603071Y-12432357D01*
X13045928Y-12789500D02*
X13031643Y-12775214D01*
X13003071Y-12732357D01*
X12988785Y-12703786D01*
X12974500Y-12660929D01*
X12960214Y-12589500D01*
X12960214Y-12532357D01*
X12974500Y-12460929D01*
X12988785Y-12418071D01*
X13003071Y-12389500D01*
X13031643Y-12346643D01*
X13045928Y-12332357D01*
X13145928Y-12403786D02*
X13160214Y-12389500D01*
X13188785Y-12375214D01*
X13260214Y-12375214D01*
X13288785Y-12389500D01*
X13303071Y-12403786D01*
X13317357Y-12432357D01*
X13317357Y-12460929D01*
X13303071Y-12503786D01*
X13131643Y-12675214D01*
X13317357Y-12675214D01*
X13674500Y-12675214D02*
X13674500Y-12375214D01*
X13803071Y-12675214D02*
X13803071Y-12518071D01*
X13788785Y-12489500D01*
X13760214Y-12475214D01*
X13717357Y-12475214D01*
X13688785Y-12489500D01*
X13674500Y-12503786D01*
X13988785Y-12675214D02*
X13960214Y-12660929D01*
X13945928Y-12646643D01*
X13931643Y-12618071D01*
X13931643Y-12532357D01*
X13945928Y-12503786D01*
X13960214Y-12489500D01*
X13988785Y-12475214D01*
X14031643Y-12475214D01*
X14060214Y-12489500D01*
X14074500Y-12503786D01*
X14088785Y-12532357D01*
X14088785Y-12618071D01*
X14074500Y-12646643D01*
X14060214Y-12660929D01*
X14031643Y-12675214D01*
X13988785Y-12675214D01*
X14260214Y-12675214D02*
X14231643Y-12660929D01*
X14217357Y-12632357D01*
X14217357Y-12375214D01*
X14488786Y-12660929D02*
X14460214Y-12675214D01*
X14403071Y-12675214D01*
X14374500Y-12660929D01*
X14360214Y-12632357D01*
X14360214Y-12518071D01*
X14374500Y-12489500D01*
X14403071Y-12475214D01*
X14460214Y-12475214D01*
X14488786Y-12489500D01*
X14503071Y-12518071D01*
X14503071Y-12546643D01*
X14360214Y-12575214D01*
X14617357Y-12660929D02*
X14645928Y-12675214D01*
X14703071Y-12675214D01*
X14731643Y-12660929D01*
X14745928Y-12632357D01*
X14745928Y-12618071D01*
X14731643Y-12589500D01*
X14703071Y-12575214D01*
X14660214Y-12575214D01*
X14631643Y-12560929D01*
X14617357Y-12532357D01*
X14617357Y-12518071D01*
X14631643Y-12489500D01*
X14660214Y-12475214D01*
X14703071Y-12475214D01*
X14731643Y-12489500D01*
X14845928Y-12789500D02*
X14860214Y-12775214D01*
X14888786Y-12732357D01*
X14903071Y-12703786D01*
X14917357Y-12660929D01*
X14931643Y-12589500D01*
X14931643Y-12532357D01*
X14917357Y-12460929D01*
X14903071Y-12418071D01*
X14888786Y-12389500D01*
X14860214Y-12346643D01*
X14845928Y-12332357D01*
X8324462Y-12885462D02*
X8324462Y-12985538D01*
X8274424Y-12935500D02*
X8374500Y-12935500D01*
X8803071Y-13071214D02*
X8631643Y-13071214D01*
X8717357Y-13071214D02*
X8717357Y-12771214D01*
X8688786Y-12814071D01*
X8660214Y-12842643D01*
X8631643Y-12856929D01*
X8931643Y-13042643D02*
X8945929Y-13056929D01*
X8931643Y-13071214D01*
X8917357Y-13056929D01*
X8931643Y-13042643D01*
X8931643Y-13071214D01*
X9131643Y-12771214D02*
X9160214Y-12771214D01*
X9188786Y-12785500D01*
X9203071Y-12799786D01*
X9217357Y-12828357D01*
X9231643Y-12885500D01*
X9231643Y-12956929D01*
X9217357Y-13014071D01*
X9203071Y-13042643D01*
X9188786Y-13056929D01*
X9160214Y-13071214D01*
X9131643Y-13071214D01*
X9103071Y-13056929D01*
X9088786Y-13042643D01*
X9074500Y-13014071D01*
X9060214Y-12956929D01*
X9060214Y-12885500D01*
X9074500Y-12828357D01*
X9088786Y-12799786D01*
X9103071Y-12785500D01*
X9131643Y-12771214D01*
X9417357Y-12771214D02*
X9445929Y-12771214D01*
X9474500Y-12785500D01*
X9488786Y-12799786D01*
X9503071Y-12828357D01*
X9517357Y-12885500D01*
X9517357Y-12956929D01*
X9503071Y-13014071D01*
X9488786Y-13042643D01*
X9474500Y-13056929D01*
X9445929Y-13071214D01*
X9417357Y-13071214D01*
X9388786Y-13056929D01*
X9374500Y-13042643D01*
X9360214Y-13014071D01*
X9345929Y-12956929D01*
X9345929Y-12885500D01*
X9360214Y-12828357D01*
X9374500Y-12799786D01*
X9388786Y-12785500D01*
X9417357Y-12771214D01*
X9645929Y-13071214D02*
X9645929Y-12871214D01*
X9645929Y-12899786D02*
X9660214Y-12885500D01*
X9688786Y-12871214D01*
X9731643Y-12871214D01*
X9760214Y-12885500D01*
X9774500Y-12914071D01*
X9774500Y-13071214D01*
X9774500Y-12914071D02*
X9788786Y-12885500D01*
X9817357Y-12871214D01*
X9860214Y-12871214D01*
X9888786Y-12885500D01*
X9903071Y-12914071D01*
X9903071Y-13071214D01*
X10045929Y-13071214D02*
X10045929Y-12871214D01*
X10045929Y-12899786D02*
X10060214Y-12885500D01*
X10088786Y-12871214D01*
X10131643Y-12871214D01*
X10160214Y-12885500D01*
X10174500Y-12914071D01*
X10174500Y-13071214D01*
X10174500Y-12914071D02*
X10188786Y-12885500D01*
X10217357Y-12871214D01*
X10260214Y-12871214D01*
X10288786Y-12885500D01*
X10303071Y-12914071D01*
X10303071Y-13071214D01*
X10888786Y-12756929D02*
X10631643Y-13142643D01*
X11274500Y-12771214D02*
X11303071Y-12771214D01*
X11331643Y-12785500D01*
X11345928Y-12799786D01*
X11360214Y-12828357D01*
X11374500Y-12885500D01*
X11374500Y-12956929D01*
X11360214Y-13014071D01*
X11345928Y-13042643D01*
X11331643Y-13056929D01*
X11303071Y-13071214D01*
X11274500Y-13071214D01*
X11245928Y-13056929D01*
X11231643Y-13042643D01*
X11217357Y-13014071D01*
X11203071Y-12956929D01*
X11203071Y-12885500D01*
X11217357Y-12828357D01*
X11231643Y-12799786D01*
X11245928Y-12785500D01*
X11274500Y-12771214D01*
X11503071Y-13042643D02*
X11517357Y-13056929D01*
X11503071Y-13071214D01*
X11488786Y-13056929D01*
X11503071Y-13042643D01*
X11503071Y-13071214D01*
X11703071Y-12771214D02*
X11731643Y-12771214D01*
X11760214Y-12785500D01*
X11774500Y-12799786D01*
X11788785Y-12828357D01*
X11803071Y-12885500D01*
X11803071Y-12956929D01*
X11788785Y-13014071D01*
X11774500Y-13042643D01*
X11760214Y-13056929D01*
X11731643Y-13071214D01*
X11703071Y-13071214D01*
X11674500Y-13056929D01*
X11660214Y-13042643D01*
X11645928Y-13014071D01*
X11631643Y-12956929D01*
X11631643Y-12885500D01*
X11645928Y-12828357D01*
X11660214Y-12799786D01*
X11674500Y-12785500D01*
X11703071Y-12771214D01*
X11903071Y-12771214D02*
X12088785Y-12771214D01*
X11988785Y-12885500D01*
X12031643Y-12885500D01*
X12060214Y-12899786D01*
X12074500Y-12914071D01*
X12088785Y-12942643D01*
X12088785Y-13014071D01*
X12074500Y-13042643D01*
X12060214Y-13056929D01*
X12031643Y-13071214D01*
X11945928Y-13071214D01*
X11917357Y-13056929D01*
X11903071Y-13042643D01*
X12231643Y-13071214D02*
X12288785Y-13071214D01*
X12317357Y-13056929D01*
X12331643Y-13042643D01*
X12360214Y-12999786D01*
X12374500Y-12942643D01*
X12374500Y-12828357D01*
X12360214Y-12799786D01*
X12345928Y-12785500D01*
X12317357Y-12771214D01*
X12260214Y-12771214D01*
X12231643Y-12785500D01*
X12217357Y-12799786D01*
X12203071Y-12828357D01*
X12203071Y-12899786D01*
X12217357Y-12928357D01*
X12231643Y-12942643D01*
X12260214Y-12956929D01*
X12317357Y-12956929D01*
X12345928Y-12942643D01*
X12360214Y-12928357D01*
X12374500Y-12899786D01*
X12488786Y-12771214D02*
X12488786Y-12828357D01*
X12603071Y-12771214D02*
X12603071Y-12828357D01*
X13045928Y-13185500D02*
X13031643Y-13171214D01*
X13003071Y-13128357D01*
X12988785Y-13099786D01*
X12974500Y-13056929D01*
X12960214Y-12985500D01*
X12960214Y-12928357D01*
X12974500Y-12856929D01*
X12988785Y-12814071D01*
X13003071Y-12785500D01*
X13031643Y-12742643D01*
X13045928Y-12728357D01*
X13145928Y-12799786D02*
X13160214Y-12785500D01*
X13188785Y-12771214D01*
X13260214Y-12771214D01*
X13288785Y-12785500D01*
X13303071Y-12799786D01*
X13317357Y-12828357D01*
X13317357Y-12856929D01*
X13303071Y-12899786D01*
X13131643Y-13071214D01*
X13317357Y-13071214D01*
X13674500Y-13071214D02*
X13674500Y-12771214D01*
X13803071Y-13071214D02*
X13803071Y-12914071D01*
X13788785Y-12885500D01*
X13760214Y-12871214D01*
X13717357Y-12871214D01*
X13688785Y-12885500D01*
X13674500Y-12899786D01*
X13988785Y-13071214D02*
X13960214Y-13056929D01*
X13945928Y-13042643D01*
X13931643Y-13014071D01*
X13931643Y-12928357D01*
X13945928Y-12899786D01*
X13960214Y-12885500D01*
X13988785Y-12871214D01*
X14031643Y-12871214D01*
X14060214Y-12885500D01*
X14074500Y-12899786D01*
X14088785Y-12928357D01*
X14088785Y-13014071D01*
X14074500Y-13042643D01*
X14060214Y-13056929D01*
X14031643Y-13071214D01*
X13988785Y-13071214D01*
X14260214Y-13071214D02*
X14231643Y-13056929D01*
X14217357Y-13028357D01*
X14217357Y-12771214D01*
X14488786Y-13056929D02*
X14460214Y-13071214D01*
X14403071Y-13071214D01*
X14374500Y-13056929D01*
X14360214Y-13028357D01*
X14360214Y-12914071D01*
X14374500Y-12885500D01*
X14403071Y-12871214D01*
X14460214Y-12871214D01*
X14488786Y-12885500D01*
X14503071Y-12914071D01*
X14503071Y-12942643D01*
X14360214Y-12971214D01*
X14617357Y-13056929D02*
X14645928Y-13071214D01*
X14703071Y-13071214D01*
X14731643Y-13056929D01*
X14745928Y-13028357D01*
X14745928Y-13014071D01*
X14731643Y-12985500D01*
X14703071Y-12971214D01*
X14660214Y-12971214D01*
X14631643Y-12956929D01*
X14617357Y-12928357D01*
X14617357Y-12914071D01*
X14631643Y-12885500D01*
X14660214Y-12871214D01*
X14703071Y-12871214D01*
X14731643Y-12885500D01*
X14845928Y-13185500D02*
X14860214Y-13171214D01*
X14888786Y-13128357D01*
X14903071Y-13099786D01*
X14917357Y-13056929D01*
X14931643Y-12985500D01*
X14931643Y-12928357D01*
X14917357Y-12856929D01*
X14903071Y-12814071D01*
X14888786Y-12785500D01*
X14860214Y-12742643D01*
X14845928Y-12728357D01*
X8359621Y-13367421D02*
X8359621Y-13295579D01*
X8287778Y-13295579D01*
X8287778Y-13367421D01*
X8359621Y-13367421D01*
X8803071Y-13467214D02*
X8631643Y-13467214D01*
X8717357Y-13467214D02*
X8717357Y-13167214D01*
X8688786Y-13210071D01*
X8660214Y-13238643D01*
X8631643Y-13252929D01*
X8931643Y-13438643D02*
X8945929Y-13452929D01*
X8931643Y-13467214D01*
X8917357Y-13452929D01*
X8931643Y-13438643D01*
X8931643Y-13467214D01*
X9131643Y-13167214D02*
X9160214Y-13167214D01*
X9188786Y-13181500D01*
X9203071Y-13195786D01*
X9217357Y-13224357D01*
X9231643Y-13281500D01*
X9231643Y-13352929D01*
X9217357Y-13410071D01*
X9203071Y-13438643D01*
X9188786Y-13452929D01*
X9160214Y-13467214D01*
X9131643Y-13467214D01*
X9103071Y-13452929D01*
X9088786Y-13438643D01*
X9074500Y-13410071D01*
X9060214Y-13352929D01*
X9060214Y-13281500D01*
X9074500Y-13224357D01*
X9088786Y-13195786D01*
X9103071Y-13181500D01*
X9131643Y-13167214D01*
X9345929Y-13195786D02*
X9360214Y-13181500D01*
X9388786Y-13167214D01*
X9460214Y-13167214D01*
X9488786Y-13181500D01*
X9503071Y-13195786D01*
X9517357Y-13224357D01*
X9517357Y-13252929D01*
X9503071Y-13295786D01*
X9331643Y-13467214D01*
X9517357Y-13467214D01*
X9645929Y-13467214D02*
X9645929Y-13267214D01*
X9645929Y-13295786D02*
X9660214Y-13281500D01*
X9688786Y-13267214D01*
X9731643Y-13267214D01*
X9760214Y-13281500D01*
X9774500Y-13310071D01*
X9774500Y-13467214D01*
X9774500Y-13310071D02*
X9788786Y-13281500D01*
X9817357Y-13267214D01*
X9860214Y-13267214D01*
X9888786Y-13281500D01*
X9903071Y-13310071D01*
X9903071Y-13467214D01*
X10045929Y-13467214D02*
X10045929Y-13267214D01*
X10045929Y-13295786D02*
X10060214Y-13281500D01*
X10088786Y-13267214D01*
X10131643Y-13267214D01*
X10160214Y-13281500D01*
X10174500Y-13310071D01*
X10174500Y-13467214D01*
X10174500Y-13310071D02*
X10188786Y-13281500D01*
X10217357Y-13267214D01*
X10260214Y-13267214D01*
X10288786Y-13281500D01*
X10303071Y-13310071D01*
X10303071Y-13467214D01*
X10888786Y-13152929D02*
X10631643Y-13538643D01*
X11274500Y-13167214D02*
X11303071Y-13167214D01*
X11331643Y-13181500D01*
X11345928Y-13195786D01*
X11360214Y-13224357D01*
X11374500Y-13281500D01*
X11374500Y-13352929D01*
X11360214Y-13410071D01*
X11345928Y-13438643D01*
X11331643Y-13452929D01*
X11303071Y-13467214D01*
X11274500Y-13467214D01*
X11245928Y-13452929D01*
X11231643Y-13438643D01*
X11217357Y-13410071D01*
X11203071Y-13352929D01*
X11203071Y-13281500D01*
X11217357Y-13224357D01*
X11231643Y-13195786D01*
X11245928Y-13181500D01*
X11274500Y-13167214D01*
X11503071Y-13438643D02*
X11517357Y-13452929D01*
X11503071Y-13467214D01*
X11488786Y-13452929D01*
X11503071Y-13438643D01*
X11503071Y-13467214D01*
X11703071Y-13167214D02*
X11731643Y-13167214D01*
X11760214Y-13181500D01*
X11774500Y-13195786D01*
X11788785Y-13224357D01*
X11803071Y-13281500D01*
X11803071Y-13352929D01*
X11788785Y-13410071D01*
X11774500Y-13438643D01*
X11760214Y-13452929D01*
X11731643Y-13467214D01*
X11703071Y-13467214D01*
X11674500Y-13452929D01*
X11660214Y-13438643D01*
X11645928Y-13410071D01*
X11631643Y-13352929D01*
X11631643Y-13281500D01*
X11645928Y-13224357D01*
X11660214Y-13195786D01*
X11674500Y-13181500D01*
X11703071Y-13167214D01*
X12060214Y-13267214D02*
X12060214Y-13467214D01*
X11988785Y-13152929D02*
X11917357Y-13367214D01*
X12103071Y-13367214D01*
X12274500Y-13167214D02*
X12303071Y-13167214D01*
X12331643Y-13181500D01*
X12345928Y-13195786D01*
X12360214Y-13224357D01*
X12374500Y-13281500D01*
X12374500Y-13352929D01*
X12360214Y-13410071D01*
X12345928Y-13438643D01*
X12331643Y-13452929D01*
X12303071Y-13467214D01*
X12274500Y-13467214D01*
X12245928Y-13452929D01*
X12231643Y-13438643D01*
X12217357Y-13410071D01*
X12203071Y-13352929D01*
X12203071Y-13281500D01*
X12217357Y-13224357D01*
X12231643Y-13195786D01*
X12245928Y-13181500D01*
X12274500Y-13167214D01*
X12488786Y-13167214D02*
X12488786Y-13224357D01*
X12603071Y-13167214D02*
X12603071Y-13224357D01*
X13045928Y-13581500D02*
X13031643Y-13567214D01*
X13003071Y-13524357D01*
X12988785Y-13495786D01*
X12974500Y-13452929D01*
X12960214Y-13381500D01*
X12960214Y-13324357D01*
X12974500Y-13252929D01*
X12988785Y-13210071D01*
X13003071Y-13181500D01*
X13031643Y-13138643D01*
X13045928Y-13124357D01*
X13131643Y-13167214D02*
X13317357Y-13167214D01*
X13217357Y-13281500D01*
X13260214Y-13281500D01*
X13288785Y-13295786D01*
X13303071Y-13310071D01*
X13317357Y-13338643D01*
X13317357Y-13410071D01*
X13303071Y-13438643D01*
X13288785Y-13452929D01*
X13260214Y-13467214D01*
X13174500Y-13467214D01*
X13145928Y-13452929D01*
X13131643Y-13438643D01*
X13488785Y-13295786D02*
X13460214Y-13281500D01*
X13445928Y-13267214D01*
X13431643Y-13238643D01*
X13431643Y-13224357D01*
X13445928Y-13195786D01*
X13460214Y-13181500D01*
X13488785Y-13167214D01*
X13545928Y-13167214D01*
X13574500Y-13181500D01*
X13588785Y-13195786D01*
X13603071Y-13224357D01*
X13603071Y-13238643D01*
X13588785Y-13267214D01*
X13574500Y-13281500D01*
X13545928Y-13295786D01*
X13488785Y-13295786D01*
X13460214Y-13310071D01*
X13445928Y-13324357D01*
X13431643Y-13352929D01*
X13431643Y-13410071D01*
X13445928Y-13438643D01*
X13460214Y-13452929D01*
X13488785Y-13467214D01*
X13545928Y-13467214D01*
X13574500Y-13452929D01*
X13588785Y-13438643D01*
X13603071Y-13410071D01*
X13603071Y-13352929D01*
X13588785Y-13324357D01*
X13574500Y-13310071D01*
X13545928Y-13295786D01*
X13960214Y-13467214D02*
X13960214Y-13167214D01*
X14088785Y-13467214D02*
X14088785Y-13310071D01*
X14074500Y-13281500D01*
X14045928Y-13267214D01*
X14003071Y-13267214D01*
X13974500Y-13281500D01*
X13960214Y-13295786D01*
X14274500Y-13467214D02*
X14245928Y-13452929D01*
X14231643Y-13438643D01*
X14217357Y-13410071D01*
X14217357Y-13324357D01*
X14231643Y-13295786D01*
X14245928Y-13281500D01*
X14274500Y-13267214D01*
X14317357Y-13267214D01*
X14345928Y-13281500D01*
X14360214Y-13295786D01*
X14374500Y-13324357D01*
X14374500Y-13410071D01*
X14360214Y-13438643D01*
X14345928Y-13452929D01*
X14317357Y-13467214D01*
X14274500Y-13467214D01*
X14545928Y-13467214D02*
X14517357Y-13452929D01*
X14503071Y-13424357D01*
X14503071Y-13167214D01*
X14774500Y-13452929D02*
X14745928Y-13467214D01*
X14688786Y-13467214D01*
X14660214Y-13452929D01*
X14645928Y-13424357D01*
X14645928Y-13310071D01*
X14660214Y-13281500D01*
X14688786Y-13267214D01*
X14745928Y-13267214D01*
X14774500Y-13281500D01*
X14788786Y-13310071D01*
X14788786Y-13338643D01*
X14645928Y-13367214D01*
X14903071Y-13452929D02*
X14931643Y-13467214D01*
X14988786Y-13467214D01*
X15017357Y-13452929D01*
X15031643Y-13424357D01*
X15031643Y-13410071D01*
X15017357Y-13381500D01*
X14988786Y-13367214D01*
X14945928Y-13367214D01*
X14917357Y-13352929D01*
X14903071Y-13324357D01*
X14903071Y-13310071D01*
X14917357Y-13281500D01*
X14945928Y-13267214D01*
X14988786Y-13267214D01*
X15017357Y-13281500D01*
X15131643Y-13581500D02*
X15145928Y-13567214D01*
X15174500Y-13524357D01*
X15188786Y-13495786D01*
X15203071Y-13452929D01*
X15217357Y-13381500D01*
X15217357Y-13324357D01*
X15203071Y-13252929D01*
X15188786Y-13210071D01*
X15174500Y-13181500D01*
X15145928Y-13138643D01*
X15131643Y-13124357D01*
M02*
