%FSLAX45Y45*%
G04 Gerber Fmt 4.5, Leading zero omitted, Abs format (unit mm)*
G04 Created by KiCad (PCBNEW 4.0.3+e1-6302~38~ubuntu16.04.1-stable) date Thu Aug 25 12:24:18 2016*
%MOMM*%
%LPD*%
G01*
G04 APERTURE LIST*
%ADD10C,0.127000*%
%ADD11C,0.150000*%
%ADD12C,0.200000*%
%ADD13C,0.300000*%
G04 APERTURE END LIST*
D10*
D11*
X12446000Y-10414000D02*
X11176000Y-10414000D01*
X12446000Y-5207000D02*
X12446000Y-10414000D01*
X4826000Y-5207000D02*
X12446000Y-5207000D01*
X4826000Y-10414000D02*
X11176000Y-10414000D01*
X4826000Y-5207000D02*
X4826000Y-10414000D01*
D12*
X8215000Y-5675000D02*
X8295000Y-5755000D01*
X8295000Y-5675000D02*
X8215000Y-5755000D01*
X8565000Y-5675000D02*
X8645000Y-5755000D01*
X8645000Y-5675000D02*
X8565000Y-5755000D01*
X9485000Y-9231000D02*
X9565000Y-9311000D01*
X9565000Y-9231000D02*
X9485000Y-9311000D01*
X9612000Y-9104000D02*
X9692000Y-9184000D01*
X9692000Y-9104000D02*
X9612000Y-9184000D01*
X9612000Y-9358000D02*
X9692000Y-9438000D01*
X9692000Y-9358000D02*
X9612000Y-9438000D01*
X9866000Y-6314000D02*
X9946000Y-6394000D01*
X9946000Y-6314000D02*
X9866000Y-6394000D01*
X9866000Y-6564000D02*
X9946000Y-6644000D01*
X9946000Y-6564000D02*
X9866000Y-6644000D01*
X8051038Y-9017000D02*
G75*
G03X8051038Y-9017000I-50038J0D01*
G01*
X8051038Y-9398000D02*
G75*
G03X8051038Y-9398000I-50038J0D01*
G01*
X9067038Y-9017000D02*
G75*
G03X9067038Y-9017000I-50038J0D01*
G01*
X9067038Y-9398000D02*
G75*
G03X9067038Y-9398000I-50038J0D01*
G01*
X5080000Y-5537200D02*
X5080000Y-5638800D01*
X5029200Y-5588000D02*
X5130800Y-5588000D01*
X5080000Y-5791200D02*
X5080000Y-5892800D01*
X5029200Y-5842000D02*
X5130800Y-5842000D01*
X5080000Y-6045200D02*
X5080000Y-6146800D01*
X5029200Y-6096000D02*
X5130800Y-6096000D01*
X5080000Y-6299200D02*
X5080000Y-6400800D01*
X5029200Y-6350000D02*
X5130800Y-6350000D01*
X5080000Y-6553200D02*
X5080000Y-6654800D01*
X5029200Y-6604000D02*
X5130800Y-6604000D01*
X5080000Y-6807200D02*
X5080000Y-6908800D01*
X5029200Y-6858000D02*
X5130800Y-6858000D01*
X5080000Y-7061200D02*
X5080000Y-7162800D01*
X5029200Y-7112000D02*
X5130800Y-7112000D01*
X5080000Y-7315200D02*
X5080000Y-7416800D01*
X5029200Y-7366000D02*
X5130800Y-7366000D01*
X5080000Y-7569200D02*
X5080000Y-7670800D01*
X5029200Y-7620000D02*
X5130800Y-7620000D01*
X5080000Y-7823200D02*
X5080000Y-7924800D01*
X5029200Y-7874000D02*
X5130800Y-7874000D01*
X5080000Y-8077200D02*
X5080000Y-8178800D01*
X5029200Y-8128000D02*
X5130800Y-8128000D01*
X5080000Y-8331200D02*
X5080000Y-8432800D01*
X5029200Y-8382000D02*
X5130800Y-8382000D01*
X5080000Y-8585200D02*
X5080000Y-8686800D01*
X5029200Y-8636000D02*
X5130800Y-8636000D01*
X5080000Y-8839200D02*
X5080000Y-8940800D01*
X5029200Y-8890000D02*
X5130800Y-8890000D01*
X5080000Y-9093200D02*
X5080000Y-9194800D01*
X5029200Y-9144000D02*
X5130800Y-9144000D01*
X5080000Y-9347200D02*
X5080000Y-9448800D01*
X5029200Y-9398000D02*
X5130800Y-9398000D01*
X5080000Y-9601200D02*
X5080000Y-9702800D01*
X5029200Y-9652000D02*
X5130800Y-9652000D01*
X5080000Y-9855200D02*
X5080000Y-9956800D01*
X5029200Y-9906000D02*
X5130800Y-9906000D01*
X5080000Y-10109200D02*
X5080000Y-10210800D01*
X5029200Y-10160000D02*
X5130800Y-10160000D01*
X5842000Y-6045200D02*
X5842000Y-6146800D01*
X5791200Y-6096000D02*
X5892800Y-6096000D01*
X5842000Y-6299200D02*
X5842000Y-6400800D01*
X5791200Y-6350000D02*
X5892800Y-6350000D01*
X5842000Y-6553200D02*
X5842000Y-6654800D01*
X5791200Y-6604000D02*
X5892800Y-6604000D01*
X5842000Y-6807200D02*
X5842000Y-6908800D01*
X5791200Y-6858000D02*
X5892800Y-6858000D01*
X5842000Y-7061200D02*
X5842000Y-7162800D01*
X5791200Y-7112000D02*
X5892800Y-7112000D01*
X5842000Y-7315200D02*
X5842000Y-7416800D01*
X5791200Y-7366000D02*
X5892800Y-7366000D01*
X5842000Y-7569200D02*
X5842000Y-7670800D01*
X5791200Y-7620000D02*
X5892800Y-7620000D01*
X5842000Y-7823200D02*
X5842000Y-7924800D01*
X5791200Y-7874000D02*
X5892800Y-7874000D01*
X5842000Y-8077200D02*
X5842000Y-8178800D01*
X5791200Y-8128000D02*
X5892800Y-8128000D01*
X5842000Y-8331200D02*
X5842000Y-8432800D01*
X5791200Y-8382000D02*
X5892800Y-8382000D01*
X5842000Y-8585200D02*
X5842000Y-8686800D01*
X5791200Y-8636000D02*
X5892800Y-8636000D01*
X5842000Y-8839200D02*
X5842000Y-8940800D01*
X5791200Y-8890000D02*
X5892800Y-8890000D01*
X5842000Y-9093200D02*
X5842000Y-9194800D01*
X5791200Y-9144000D02*
X5892800Y-9144000D01*
X5842000Y-9347200D02*
X5842000Y-9448800D01*
X5791200Y-9398000D02*
X5892800Y-9398000D01*
X5842000Y-9601200D02*
X5842000Y-9702800D01*
X5791200Y-9652000D02*
X5892800Y-9652000D01*
X7366000Y-6045200D02*
X7366000Y-6146800D01*
X7315200Y-6096000D02*
X7416800Y-6096000D01*
X7366000Y-6299200D02*
X7366000Y-6400800D01*
X7315200Y-6350000D02*
X7416800Y-6350000D01*
X7366000Y-6553200D02*
X7366000Y-6654800D01*
X7315200Y-6604000D02*
X7416800Y-6604000D01*
X7366000Y-6807200D02*
X7366000Y-6908800D01*
X7315200Y-6858000D02*
X7416800Y-6858000D01*
X7366000Y-7061200D02*
X7366000Y-7162800D01*
X7315200Y-7112000D02*
X7416800Y-7112000D01*
X7366000Y-7315200D02*
X7366000Y-7416800D01*
X7315200Y-7366000D02*
X7416800Y-7366000D01*
X7366000Y-7569200D02*
X7366000Y-7670800D01*
X7315200Y-7620000D02*
X7416800Y-7620000D01*
X7366000Y-7823200D02*
X7366000Y-7924800D01*
X7315200Y-7874000D02*
X7416800Y-7874000D01*
X7366000Y-8077200D02*
X7366000Y-8178800D01*
X7315200Y-8128000D02*
X7416800Y-8128000D01*
X7366000Y-8331200D02*
X7366000Y-8432800D01*
X7315200Y-8382000D02*
X7416800Y-8382000D01*
X7366000Y-8585200D02*
X7366000Y-8686800D01*
X7315200Y-8636000D02*
X7416800Y-8636000D01*
X7366000Y-8839200D02*
X7366000Y-8940800D01*
X7315200Y-8890000D02*
X7416800Y-8890000D01*
X7366000Y-9093200D02*
X7366000Y-9194800D01*
X7315200Y-9144000D02*
X7416800Y-9144000D01*
X7366000Y-9347200D02*
X7366000Y-9448800D01*
X7315200Y-9398000D02*
X7416800Y-9398000D01*
X7366000Y-9601200D02*
X7366000Y-9702800D01*
X7315200Y-9652000D02*
X7416800Y-9652000D01*
X8001000Y-6553200D02*
X8001000Y-6654800D01*
X7950200Y-6604000D02*
X8051800Y-6604000D01*
X8001000Y-6807200D02*
X8001000Y-6908800D01*
X7950200Y-6858000D02*
X8051800Y-6858000D01*
X8001000Y-7061200D02*
X8001000Y-7162800D01*
X7950200Y-7112000D02*
X8051800Y-7112000D01*
X8001000Y-7315200D02*
X8001000Y-7416800D01*
X7950200Y-7366000D02*
X8051800Y-7366000D01*
X8001000Y-7569200D02*
X8001000Y-7670800D01*
X7950200Y-7620000D02*
X8051800Y-7620000D01*
X8001000Y-7823200D02*
X8001000Y-7924800D01*
X7950200Y-7874000D02*
X8051800Y-7874000D01*
X8001000Y-8077200D02*
X8001000Y-8178800D01*
X7950200Y-8128000D02*
X8051800Y-8128000D01*
X8001000Y-8331200D02*
X8001000Y-8432800D01*
X7950200Y-8382000D02*
X8051800Y-8382000D01*
X9271000Y-6553200D02*
X9271000Y-6654800D01*
X9220200Y-6604000D02*
X9321800Y-6604000D01*
X9271000Y-6807200D02*
X9271000Y-6908800D01*
X9220200Y-6858000D02*
X9321800Y-6858000D01*
X9271000Y-7061200D02*
X9271000Y-7162800D01*
X9220200Y-7112000D02*
X9321800Y-7112000D01*
X9271000Y-7315200D02*
X9271000Y-7416800D01*
X9220200Y-7366000D02*
X9321800Y-7366000D01*
X9271000Y-7569200D02*
X9271000Y-7670800D01*
X9220200Y-7620000D02*
X9321800Y-7620000D01*
X9271000Y-7823200D02*
X9271000Y-7924800D01*
X9220200Y-7874000D02*
X9321800Y-7874000D01*
X9271000Y-8077200D02*
X9271000Y-8178800D01*
X9220200Y-8128000D02*
X9321800Y-8128000D01*
X9271000Y-8331200D02*
X9271000Y-8432800D01*
X9220200Y-8382000D02*
X9321800Y-8382000D01*
X10160000Y-7061200D02*
X10160000Y-7162800D01*
X10109200Y-7112000D02*
X10210800Y-7112000D01*
X10160000Y-7315200D02*
X10160000Y-7416800D01*
X10109200Y-7366000D02*
X10210800Y-7366000D01*
X10160000Y-7569200D02*
X10160000Y-7670800D01*
X10109200Y-7620000D02*
X10210800Y-7620000D01*
X10160000Y-7823200D02*
X10160000Y-7924800D01*
X10109200Y-7874000D02*
X10210800Y-7874000D01*
X12192000Y-5537200D02*
X12192000Y-5638800D01*
X12141200Y-5588000D02*
X12242800Y-5588000D01*
X12192000Y-5791200D02*
X12192000Y-5892800D01*
X12141200Y-5842000D02*
X12242800Y-5842000D01*
X12192000Y-6045200D02*
X12192000Y-6146800D01*
X12141200Y-6096000D02*
X12242800Y-6096000D01*
X12192000Y-6299200D02*
X12192000Y-6400800D01*
X12141200Y-6350000D02*
X12242800Y-6350000D01*
X12192000Y-6553200D02*
X12192000Y-6654800D01*
X12141200Y-6604000D02*
X12242800Y-6604000D01*
X12192000Y-6807200D02*
X12192000Y-6908800D01*
X12141200Y-6858000D02*
X12242800Y-6858000D01*
X12192000Y-7061200D02*
X12192000Y-7162800D01*
X12141200Y-7112000D02*
X12242800Y-7112000D01*
X12192000Y-7315200D02*
X12192000Y-7416800D01*
X12141200Y-7366000D02*
X12242800Y-7366000D01*
X12192000Y-7569200D02*
X12192000Y-7670800D01*
X12141200Y-7620000D02*
X12242800Y-7620000D01*
X12192000Y-7823200D02*
X12192000Y-7924800D01*
X12141200Y-7874000D02*
X12242800Y-7874000D01*
X12192000Y-8077200D02*
X12192000Y-8178800D01*
X12141200Y-8128000D02*
X12242800Y-8128000D01*
X12192000Y-8331200D02*
X12192000Y-8432800D01*
X12141200Y-8382000D02*
X12242800Y-8382000D01*
X12192000Y-8585200D02*
X12192000Y-8686800D01*
X12141200Y-8636000D02*
X12242800Y-8636000D01*
X12192000Y-8839200D02*
X12192000Y-8940800D01*
X12141200Y-8890000D02*
X12242800Y-8890000D01*
X12192000Y-9093200D02*
X12192000Y-9194800D01*
X12141200Y-9144000D02*
X12242800Y-9144000D01*
X12192000Y-9347200D02*
X12192000Y-9448800D01*
X12141200Y-9398000D02*
X12242800Y-9398000D01*
X12192000Y-9601200D02*
X12192000Y-9702800D01*
X12141200Y-9652000D02*
X12242800Y-9652000D01*
X12192000Y-9855200D02*
X12192000Y-9956800D01*
X12141200Y-9906000D02*
X12242800Y-9906000D01*
X12192000Y-10109200D02*
X12192000Y-10210800D01*
X12141200Y-10160000D02*
X12242800Y-10160000D01*
D13*
X5089929Y-10887214D02*
X5089929Y-10587214D01*
X5161357Y-10587214D01*
X5204214Y-10601500D01*
X5232786Y-10630072D01*
X5247071Y-10658643D01*
X5261357Y-10715786D01*
X5261357Y-10758643D01*
X5247071Y-10815786D01*
X5232786Y-10844357D01*
X5204214Y-10872929D01*
X5161357Y-10887214D01*
X5089929Y-10887214D01*
X5389929Y-10887214D02*
X5389929Y-10687214D01*
X5389929Y-10744357D02*
X5404214Y-10715786D01*
X5418500Y-10701500D01*
X5447071Y-10687214D01*
X5475643Y-10687214D01*
X5575643Y-10887214D02*
X5575643Y-10687214D01*
X5575643Y-10587214D02*
X5561357Y-10601500D01*
X5575643Y-10615786D01*
X5589929Y-10601500D01*
X5575643Y-10587214D01*
X5575643Y-10615786D01*
X5761357Y-10887214D02*
X5732786Y-10872929D01*
X5718500Y-10844357D01*
X5718500Y-10587214D01*
X5918500Y-10887214D02*
X5889928Y-10872929D01*
X5875643Y-10844357D01*
X5875643Y-10587214D01*
X6261357Y-10887214D02*
X6261357Y-10587214D01*
X6361357Y-10801500D01*
X6461357Y-10587214D01*
X6461357Y-10887214D01*
X6732786Y-10887214D02*
X6732786Y-10730072D01*
X6718500Y-10701500D01*
X6689928Y-10687214D01*
X6632786Y-10687214D01*
X6604214Y-10701500D01*
X6732786Y-10872929D02*
X6704214Y-10887214D01*
X6632786Y-10887214D01*
X6604214Y-10872929D01*
X6589928Y-10844357D01*
X6589928Y-10815786D01*
X6604214Y-10787214D01*
X6632786Y-10772929D01*
X6704214Y-10772929D01*
X6732786Y-10758643D01*
X6875643Y-10687214D02*
X6875643Y-10987214D01*
X6875643Y-10701500D02*
X6904214Y-10687214D01*
X6961357Y-10687214D01*
X6989928Y-10701500D01*
X7004214Y-10715786D01*
X7018500Y-10744357D01*
X7018500Y-10830072D01*
X7004214Y-10858643D01*
X6989928Y-10872929D01*
X6961357Y-10887214D01*
X6904214Y-10887214D01*
X6875643Y-10872929D01*
X7147071Y-10858643D02*
X7161357Y-10872929D01*
X7147071Y-10887214D01*
X7132786Y-10872929D01*
X7147071Y-10858643D01*
X7147071Y-10887214D01*
X7147071Y-10701500D02*
X7161357Y-10715786D01*
X7147071Y-10730072D01*
X7132786Y-10715786D01*
X7147071Y-10701500D01*
X7147071Y-10730072D01*
X4738500Y-11341500D02*
X4818500Y-11421500D01*
X4818500Y-11341500D02*
X4738500Y-11421500D01*
X5147071Y-11217214D02*
X5175643Y-11217214D01*
X5204214Y-11231500D01*
X5218500Y-11245786D01*
X5232786Y-11274357D01*
X5247071Y-11331500D01*
X5247071Y-11402929D01*
X5232786Y-11460071D01*
X5218500Y-11488643D01*
X5204214Y-11502929D01*
X5175643Y-11517214D01*
X5147071Y-11517214D01*
X5118500Y-11502929D01*
X5104214Y-11488643D01*
X5089929Y-11460071D01*
X5075643Y-11402929D01*
X5075643Y-11331500D01*
X5089929Y-11274357D01*
X5104214Y-11245786D01*
X5118500Y-11231500D01*
X5147071Y-11217214D01*
X5375643Y-11488643D02*
X5389929Y-11502929D01*
X5375643Y-11517214D01*
X5361357Y-11502929D01*
X5375643Y-11488643D01*
X5375643Y-11517214D01*
X5561357Y-11345786D02*
X5532786Y-11331500D01*
X5518500Y-11317214D01*
X5504214Y-11288643D01*
X5504214Y-11274357D01*
X5518500Y-11245786D01*
X5532786Y-11231500D01*
X5561357Y-11217214D01*
X5618500Y-11217214D01*
X5647071Y-11231500D01*
X5661357Y-11245786D01*
X5675643Y-11274357D01*
X5675643Y-11288643D01*
X5661357Y-11317214D01*
X5647071Y-11331500D01*
X5618500Y-11345786D01*
X5561357Y-11345786D01*
X5532786Y-11360071D01*
X5518500Y-11374357D01*
X5504214Y-11402929D01*
X5504214Y-11460071D01*
X5518500Y-11488643D01*
X5532786Y-11502929D01*
X5561357Y-11517214D01*
X5618500Y-11517214D01*
X5647071Y-11502929D01*
X5661357Y-11488643D01*
X5675643Y-11460071D01*
X5675643Y-11402929D01*
X5661357Y-11374357D01*
X5647071Y-11360071D01*
X5618500Y-11345786D01*
X5861357Y-11217214D02*
X5889928Y-11217214D01*
X5918500Y-11231500D01*
X5932786Y-11245786D01*
X5947071Y-11274357D01*
X5961357Y-11331500D01*
X5961357Y-11402929D01*
X5947071Y-11460071D01*
X5932786Y-11488643D01*
X5918500Y-11502929D01*
X5889928Y-11517214D01*
X5861357Y-11517214D01*
X5832786Y-11502929D01*
X5818500Y-11488643D01*
X5804214Y-11460071D01*
X5789928Y-11402929D01*
X5789928Y-11331500D01*
X5804214Y-11274357D01*
X5818500Y-11245786D01*
X5832786Y-11231500D01*
X5861357Y-11217214D01*
X6089928Y-11517214D02*
X6089928Y-11317214D01*
X6089928Y-11345786D02*
X6104214Y-11331500D01*
X6132786Y-11317214D01*
X6175643Y-11317214D01*
X6204214Y-11331500D01*
X6218500Y-11360071D01*
X6218500Y-11517214D01*
X6218500Y-11360071D02*
X6232786Y-11331500D01*
X6261357Y-11317214D01*
X6304214Y-11317214D01*
X6332786Y-11331500D01*
X6347071Y-11360071D01*
X6347071Y-11517214D01*
X6489928Y-11517214D02*
X6489928Y-11317214D01*
X6489928Y-11345786D02*
X6504214Y-11331500D01*
X6532786Y-11317214D01*
X6575643Y-11317214D01*
X6604214Y-11331500D01*
X6618500Y-11360071D01*
X6618500Y-11517214D01*
X6618500Y-11360071D02*
X6632786Y-11331500D01*
X6661357Y-11317214D01*
X6704214Y-11317214D01*
X6732786Y-11331500D01*
X6747071Y-11360071D01*
X6747071Y-11517214D01*
X7332786Y-11202929D02*
X7075643Y-11588643D01*
X7718500Y-11217214D02*
X7747071Y-11217214D01*
X7775643Y-11231500D01*
X7789928Y-11245786D01*
X7804214Y-11274357D01*
X7818500Y-11331500D01*
X7818500Y-11402929D01*
X7804214Y-11460071D01*
X7789928Y-11488643D01*
X7775643Y-11502929D01*
X7747071Y-11517214D01*
X7718500Y-11517214D01*
X7689928Y-11502929D01*
X7675643Y-11488643D01*
X7661357Y-11460071D01*
X7647071Y-11402929D01*
X7647071Y-11331500D01*
X7661357Y-11274357D01*
X7675643Y-11245786D01*
X7689928Y-11231500D01*
X7718500Y-11217214D01*
X7947071Y-11488643D02*
X7961357Y-11502929D01*
X7947071Y-11517214D01*
X7932786Y-11502929D01*
X7947071Y-11488643D01*
X7947071Y-11517214D01*
X8147071Y-11217214D02*
X8175643Y-11217214D01*
X8204214Y-11231500D01*
X8218500Y-11245786D01*
X8232785Y-11274357D01*
X8247071Y-11331500D01*
X8247071Y-11402929D01*
X8232785Y-11460071D01*
X8218500Y-11488643D01*
X8204214Y-11502929D01*
X8175643Y-11517214D01*
X8147071Y-11517214D01*
X8118500Y-11502929D01*
X8104214Y-11488643D01*
X8089928Y-11460071D01*
X8075643Y-11402929D01*
X8075643Y-11331500D01*
X8089928Y-11274357D01*
X8104214Y-11245786D01*
X8118500Y-11231500D01*
X8147071Y-11217214D01*
X8347071Y-11217214D02*
X8532786Y-11217214D01*
X8432786Y-11331500D01*
X8475643Y-11331500D01*
X8504214Y-11345786D01*
X8518500Y-11360071D01*
X8532786Y-11388643D01*
X8532786Y-11460071D01*
X8518500Y-11488643D01*
X8504214Y-11502929D01*
X8475643Y-11517214D01*
X8389928Y-11517214D01*
X8361357Y-11502929D01*
X8347071Y-11488643D01*
X8818500Y-11517214D02*
X8647071Y-11517214D01*
X8732786Y-11517214D02*
X8732786Y-11217214D01*
X8704214Y-11260071D01*
X8675643Y-11288643D01*
X8647071Y-11302929D01*
X8932786Y-11217214D02*
X8932786Y-11274357D01*
X9047071Y-11217214D02*
X9047071Y-11274357D01*
X9489928Y-11631500D02*
X9475643Y-11617214D01*
X9447071Y-11574357D01*
X9432786Y-11545786D01*
X9418500Y-11502929D01*
X9404214Y-11431500D01*
X9404214Y-11374357D01*
X9418500Y-11302929D01*
X9432786Y-11260071D01*
X9447071Y-11231500D01*
X9475643Y-11188643D01*
X9489928Y-11174357D01*
X9575643Y-11217214D02*
X9775643Y-11217214D01*
X9647071Y-11517214D01*
X10118500Y-11517214D02*
X10118500Y-11217214D01*
X10247071Y-11517214D02*
X10247071Y-11360071D01*
X10232786Y-11331500D01*
X10204214Y-11317214D01*
X10161357Y-11317214D01*
X10132786Y-11331500D01*
X10118500Y-11345786D01*
X10432786Y-11517214D02*
X10404214Y-11502929D01*
X10389928Y-11488643D01*
X10375643Y-11460071D01*
X10375643Y-11374357D01*
X10389928Y-11345786D01*
X10404214Y-11331500D01*
X10432786Y-11317214D01*
X10475643Y-11317214D01*
X10504214Y-11331500D01*
X10518500Y-11345786D01*
X10532786Y-11374357D01*
X10532786Y-11460071D01*
X10518500Y-11488643D01*
X10504214Y-11502929D01*
X10475643Y-11517214D01*
X10432786Y-11517214D01*
X10704214Y-11517214D02*
X10675643Y-11502929D01*
X10661357Y-11474357D01*
X10661357Y-11217214D01*
X10932786Y-11502929D02*
X10904214Y-11517214D01*
X10847071Y-11517214D01*
X10818500Y-11502929D01*
X10804214Y-11474357D01*
X10804214Y-11360071D01*
X10818500Y-11331500D01*
X10847071Y-11317214D01*
X10904214Y-11317214D01*
X10932786Y-11331500D01*
X10947071Y-11360071D01*
X10947071Y-11388643D01*
X10804214Y-11417214D01*
X11061357Y-11502929D02*
X11089929Y-11517214D01*
X11147071Y-11517214D01*
X11175643Y-11502929D01*
X11189929Y-11474357D01*
X11189929Y-11460071D01*
X11175643Y-11431500D01*
X11147071Y-11417214D01*
X11104214Y-11417214D01*
X11075643Y-11402929D01*
X11061357Y-11374357D01*
X11061357Y-11360071D01*
X11075643Y-11331500D01*
X11104214Y-11317214D01*
X11147071Y-11317214D01*
X11175643Y-11331500D01*
X11289928Y-11631500D02*
X11304214Y-11617214D01*
X11332786Y-11574357D01*
X11347071Y-11545786D01*
X11361357Y-11502929D01*
X11375643Y-11431500D01*
X11375643Y-11374357D01*
X11361357Y-11302929D01*
X11347071Y-11260071D01*
X11332786Y-11231500D01*
X11304214Y-11188643D01*
X11289928Y-11174357D01*
X4818500Y-11777500D02*
G75*
G03X4818500Y-11777500I-50038J0D01*
G01*
X5247071Y-11913214D02*
X5075643Y-11913214D01*
X5161357Y-11913214D02*
X5161357Y-11613214D01*
X5132786Y-11656071D01*
X5104214Y-11684643D01*
X5075643Y-11698929D01*
X5375643Y-11884643D02*
X5389929Y-11898929D01*
X5375643Y-11913214D01*
X5361357Y-11898929D01*
X5375643Y-11884643D01*
X5375643Y-11913214D01*
X5575643Y-11613214D02*
X5604214Y-11613214D01*
X5632786Y-11627500D01*
X5647071Y-11641786D01*
X5661357Y-11670357D01*
X5675643Y-11727500D01*
X5675643Y-11798929D01*
X5661357Y-11856071D01*
X5647071Y-11884643D01*
X5632786Y-11898929D01*
X5604214Y-11913214D01*
X5575643Y-11913214D01*
X5547071Y-11898929D01*
X5532786Y-11884643D01*
X5518500Y-11856071D01*
X5504214Y-11798929D01*
X5504214Y-11727500D01*
X5518500Y-11670357D01*
X5532786Y-11641786D01*
X5547071Y-11627500D01*
X5575643Y-11613214D01*
X5861357Y-11613214D02*
X5889928Y-11613214D01*
X5918500Y-11627500D01*
X5932786Y-11641786D01*
X5947071Y-11670357D01*
X5961357Y-11727500D01*
X5961357Y-11798929D01*
X5947071Y-11856071D01*
X5932786Y-11884643D01*
X5918500Y-11898929D01*
X5889928Y-11913214D01*
X5861357Y-11913214D01*
X5832786Y-11898929D01*
X5818500Y-11884643D01*
X5804214Y-11856071D01*
X5789928Y-11798929D01*
X5789928Y-11727500D01*
X5804214Y-11670357D01*
X5818500Y-11641786D01*
X5832786Y-11627500D01*
X5861357Y-11613214D01*
X6089928Y-11913214D02*
X6089928Y-11713214D01*
X6089928Y-11741786D02*
X6104214Y-11727500D01*
X6132786Y-11713214D01*
X6175643Y-11713214D01*
X6204214Y-11727500D01*
X6218500Y-11756071D01*
X6218500Y-11913214D01*
X6218500Y-11756071D02*
X6232786Y-11727500D01*
X6261357Y-11713214D01*
X6304214Y-11713214D01*
X6332786Y-11727500D01*
X6347071Y-11756071D01*
X6347071Y-11913214D01*
X6489928Y-11913214D02*
X6489928Y-11713214D01*
X6489928Y-11741786D02*
X6504214Y-11727500D01*
X6532786Y-11713214D01*
X6575643Y-11713214D01*
X6604214Y-11727500D01*
X6618500Y-11756071D01*
X6618500Y-11913214D01*
X6618500Y-11756071D02*
X6632786Y-11727500D01*
X6661357Y-11713214D01*
X6704214Y-11713214D01*
X6732786Y-11727500D01*
X6747071Y-11756071D01*
X6747071Y-11913214D01*
X7332786Y-11598929D02*
X7075643Y-11984643D01*
X7718500Y-11613214D02*
X7747071Y-11613214D01*
X7775643Y-11627500D01*
X7789928Y-11641786D01*
X7804214Y-11670357D01*
X7818500Y-11727500D01*
X7818500Y-11798929D01*
X7804214Y-11856071D01*
X7789928Y-11884643D01*
X7775643Y-11898929D01*
X7747071Y-11913214D01*
X7718500Y-11913214D01*
X7689928Y-11898929D01*
X7675643Y-11884643D01*
X7661357Y-11856071D01*
X7647071Y-11798929D01*
X7647071Y-11727500D01*
X7661357Y-11670357D01*
X7675643Y-11641786D01*
X7689928Y-11627500D01*
X7718500Y-11613214D01*
X7947071Y-11884643D02*
X7961357Y-11898929D01*
X7947071Y-11913214D01*
X7932786Y-11898929D01*
X7947071Y-11884643D01*
X7947071Y-11913214D01*
X8147071Y-11613214D02*
X8175643Y-11613214D01*
X8204214Y-11627500D01*
X8218500Y-11641786D01*
X8232785Y-11670357D01*
X8247071Y-11727500D01*
X8247071Y-11798929D01*
X8232785Y-11856071D01*
X8218500Y-11884643D01*
X8204214Y-11898929D01*
X8175643Y-11913214D01*
X8147071Y-11913214D01*
X8118500Y-11898929D01*
X8104214Y-11884643D01*
X8089928Y-11856071D01*
X8075643Y-11798929D01*
X8075643Y-11727500D01*
X8089928Y-11670357D01*
X8104214Y-11641786D01*
X8118500Y-11627500D01*
X8147071Y-11613214D01*
X8347071Y-11613214D02*
X8532786Y-11613214D01*
X8432786Y-11727500D01*
X8475643Y-11727500D01*
X8504214Y-11741786D01*
X8518500Y-11756071D01*
X8532786Y-11784643D01*
X8532786Y-11856071D01*
X8518500Y-11884643D01*
X8504214Y-11898929D01*
X8475643Y-11913214D01*
X8389928Y-11913214D01*
X8361357Y-11898929D01*
X8347071Y-11884643D01*
X8675643Y-11913214D02*
X8732786Y-11913214D01*
X8761357Y-11898929D01*
X8775643Y-11884643D01*
X8804214Y-11841786D01*
X8818500Y-11784643D01*
X8818500Y-11670357D01*
X8804214Y-11641786D01*
X8789928Y-11627500D01*
X8761357Y-11613214D01*
X8704214Y-11613214D01*
X8675643Y-11627500D01*
X8661357Y-11641786D01*
X8647071Y-11670357D01*
X8647071Y-11741786D01*
X8661357Y-11770357D01*
X8675643Y-11784643D01*
X8704214Y-11798929D01*
X8761357Y-11798929D01*
X8789928Y-11784643D01*
X8804214Y-11770357D01*
X8818500Y-11741786D01*
X8932786Y-11613214D02*
X8932786Y-11670357D01*
X9047071Y-11613214D02*
X9047071Y-11670357D01*
X9489928Y-12027500D02*
X9475643Y-12013214D01*
X9447071Y-11970357D01*
X9432786Y-11941786D01*
X9418500Y-11898929D01*
X9404214Y-11827500D01*
X9404214Y-11770357D01*
X9418500Y-11698929D01*
X9432786Y-11656071D01*
X9447071Y-11627500D01*
X9475643Y-11584643D01*
X9489928Y-11570357D01*
X9732786Y-11713214D02*
X9732786Y-11913214D01*
X9661357Y-11598929D02*
X9589928Y-11813214D01*
X9775643Y-11813214D01*
X10118500Y-11913214D02*
X10118500Y-11613214D01*
X10247071Y-11913214D02*
X10247071Y-11756071D01*
X10232786Y-11727500D01*
X10204214Y-11713214D01*
X10161357Y-11713214D01*
X10132786Y-11727500D01*
X10118500Y-11741786D01*
X10432786Y-11913214D02*
X10404214Y-11898929D01*
X10389928Y-11884643D01*
X10375643Y-11856071D01*
X10375643Y-11770357D01*
X10389928Y-11741786D01*
X10404214Y-11727500D01*
X10432786Y-11713214D01*
X10475643Y-11713214D01*
X10504214Y-11727500D01*
X10518500Y-11741786D01*
X10532786Y-11770357D01*
X10532786Y-11856071D01*
X10518500Y-11884643D01*
X10504214Y-11898929D01*
X10475643Y-11913214D01*
X10432786Y-11913214D01*
X10704214Y-11913214D02*
X10675643Y-11898929D01*
X10661357Y-11870357D01*
X10661357Y-11613214D01*
X10932786Y-11898929D02*
X10904214Y-11913214D01*
X10847071Y-11913214D01*
X10818500Y-11898929D01*
X10804214Y-11870357D01*
X10804214Y-11756071D01*
X10818500Y-11727500D01*
X10847071Y-11713214D01*
X10904214Y-11713214D01*
X10932786Y-11727500D01*
X10947071Y-11756071D01*
X10947071Y-11784643D01*
X10804214Y-11813214D01*
X11061357Y-11898929D02*
X11089929Y-11913214D01*
X11147071Y-11913214D01*
X11175643Y-11898929D01*
X11189929Y-11870357D01*
X11189929Y-11856071D01*
X11175643Y-11827500D01*
X11147071Y-11813214D01*
X11104214Y-11813214D01*
X11075643Y-11798929D01*
X11061357Y-11770357D01*
X11061357Y-11756071D01*
X11075643Y-11727500D01*
X11104214Y-11713214D01*
X11147071Y-11713214D01*
X11175643Y-11727500D01*
X11289928Y-12027500D02*
X11304214Y-12013214D01*
X11332786Y-11970357D01*
X11347071Y-11941786D01*
X11361357Y-11898929D01*
X11375643Y-11827500D01*
X11375643Y-11770357D01*
X11361357Y-11698929D01*
X11347071Y-11656071D01*
X11332786Y-11627500D01*
X11304214Y-11584643D01*
X11289928Y-11570357D01*
X4767700Y-12122700D02*
X4767700Y-12224300D01*
X4716900Y-12173500D02*
X4818500Y-12173500D01*
X5247071Y-12309214D02*
X5075643Y-12309214D01*
X5161357Y-12309214D02*
X5161357Y-12009214D01*
X5132786Y-12052071D01*
X5104214Y-12080643D01*
X5075643Y-12094929D01*
X5375643Y-12280643D02*
X5389929Y-12294929D01*
X5375643Y-12309214D01*
X5361357Y-12294929D01*
X5375643Y-12280643D01*
X5375643Y-12309214D01*
X5575643Y-12009214D02*
X5604214Y-12009214D01*
X5632786Y-12023500D01*
X5647071Y-12037786D01*
X5661357Y-12066357D01*
X5675643Y-12123500D01*
X5675643Y-12194929D01*
X5661357Y-12252071D01*
X5647071Y-12280643D01*
X5632786Y-12294929D01*
X5604214Y-12309214D01*
X5575643Y-12309214D01*
X5547071Y-12294929D01*
X5532786Y-12280643D01*
X5518500Y-12252071D01*
X5504214Y-12194929D01*
X5504214Y-12123500D01*
X5518500Y-12066357D01*
X5532786Y-12037786D01*
X5547071Y-12023500D01*
X5575643Y-12009214D01*
X5789928Y-12037786D02*
X5804214Y-12023500D01*
X5832786Y-12009214D01*
X5904214Y-12009214D01*
X5932786Y-12023500D01*
X5947071Y-12037786D01*
X5961357Y-12066357D01*
X5961357Y-12094929D01*
X5947071Y-12137786D01*
X5775643Y-12309214D01*
X5961357Y-12309214D01*
X6089928Y-12309214D02*
X6089928Y-12109214D01*
X6089928Y-12137786D02*
X6104214Y-12123500D01*
X6132786Y-12109214D01*
X6175643Y-12109214D01*
X6204214Y-12123500D01*
X6218500Y-12152071D01*
X6218500Y-12309214D01*
X6218500Y-12152071D02*
X6232786Y-12123500D01*
X6261357Y-12109214D01*
X6304214Y-12109214D01*
X6332786Y-12123500D01*
X6347071Y-12152071D01*
X6347071Y-12309214D01*
X6489928Y-12309214D02*
X6489928Y-12109214D01*
X6489928Y-12137786D02*
X6504214Y-12123500D01*
X6532786Y-12109214D01*
X6575643Y-12109214D01*
X6604214Y-12123500D01*
X6618500Y-12152071D01*
X6618500Y-12309214D01*
X6618500Y-12152071D02*
X6632786Y-12123500D01*
X6661357Y-12109214D01*
X6704214Y-12109214D01*
X6732786Y-12123500D01*
X6747071Y-12152071D01*
X6747071Y-12309214D01*
X7332786Y-11994929D02*
X7075643Y-12380643D01*
X7718500Y-12009214D02*
X7747071Y-12009214D01*
X7775643Y-12023500D01*
X7789928Y-12037786D01*
X7804214Y-12066357D01*
X7818500Y-12123500D01*
X7818500Y-12194929D01*
X7804214Y-12252071D01*
X7789928Y-12280643D01*
X7775643Y-12294929D01*
X7747071Y-12309214D01*
X7718500Y-12309214D01*
X7689928Y-12294929D01*
X7675643Y-12280643D01*
X7661357Y-12252071D01*
X7647071Y-12194929D01*
X7647071Y-12123500D01*
X7661357Y-12066357D01*
X7675643Y-12037786D01*
X7689928Y-12023500D01*
X7718500Y-12009214D01*
X7947071Y-12280643D02*
X7961357Y-12294929D01*
X7947071Y-12309214D01*
X7932786Y-12294929D01*
X7947071Y-12280643D01*
X7947071Y-12309214D01*
X8147071Y-12009214D02*
X8175643Y-12009214D01*
X8204214Y-12023500D01*
X8218500Y-12037786D01*
X8232785Y-12066357D01*
X8247071Y-12123500D01*
X8247071Y-12194929D01*
X8232785Y-12252071D01*
X8218500Y-12280643D01*
X8204214Y-12294929D01*
X8175643Y-12309214D01*
X8147071Y-12309214D01*
X8118500Y-12294929D01*
X8104214Y-12280643D01*
X8089928Y-12252071D01*
X8075643Y-12194929D01*
X8075643Y-12123500D01*
X8089928Y-12066357D01*
X8104214Y-12037786D01*
X8118500Y-12023500D01*
X8147071Y-12009214D01*
X8504214Y-12109214D02*
X8504214Y-12309214D01*
X8432786Y-11994929D02*
X8361357Y-12209214D01*
X8547071Y-12209214D01*
X8718500Y-12009214D02*
X8747071Y-12009214D01*
X8775643Y-12023500D01*
X8789928Y-12037786D01*
X8804214Y-12066357D01*
X8818500Y-12123500D01*
X8818500Y-12194929D01*
X8804214Y-12252071D01*
X8789928Y-12280643D01*
X8775643Y-12294929D01*
X8747071Y-12309214D01*
X8718500Y-12309214D01*
X8689928Y-12294929D01*
X8675643Y-12280643D01*
X8661357Y-12252071D01*
X8647071Y-12194929D01*
X8647071Y-12123500D01*
X8661357Y-12066357D01*
X8675643Y-12037786D01*
X8689928Y-12023500D01*
X8718500Y-12009214D01*
X8932786Y-12009214D02*
X8932786Y-12066357D01*
X9047071Y-12009214D02*
X9047071Y-12066357D01*
X9489928Y-12423500D02*
X9475643Y-12409214D01*
X9447071Y-12366357D01*
X9432786Y-12337786D01*
X9418500Y-12294929D01*
X9404214Y-12223500D01*
X9404214Y-12166357D01*
X9418500Y-12094929D01*
X9432786Y-12052071D01*
X9447071Y-12023500D01*
X9475643Y-11980643D01*
X9489928Y-11966357D01*
X9647071Y-12137786D02*
X9618500Y-12123500D01*
X9604214Y-12109214D01*
X9589928Y-12080643D01*
X9589928Y-12066357D01*
X9604214Y-12037786D01*
X9618500Y-12023500D01*
X9647071Y-12009214D01*
X9704214Y-12009214D01*
X9732786Y-12023500D01*
X9747071Y-12037786D01*
X9761357Y-12066357D01*
X9761357Y-12080643D01*
X9747071Y-12109214D01*
X9732786Y-12123500D01*
X9704214Y-12137786D01*
X9647071Y-12137786D01*
X9618500Y-12152071D01*
X9604214Y-12166357D01*
X9589928Y-12194929D01*
X9589928Y-12252071D01*
X9604214Y-12280643D01*
X9618500Y-12294929D01*
X9647071Y-12309214D01*
X9704214Y-12309214D01*
X9732786Y-12294929D01*
X9747071Y-12280643D01*
X9761357Y-12252071D01*
X9761357Y-12194929D01*
X9747071Y-12166357D01*
X9732786Y-12152071D01*
X9704214Y-12137786D01*
X9932786Y-12137786D02*
X9904214Y-12123500D01*
X9889928Y-12109214D01*
X9875643Y-12080643D01*
X9875643Y-12066357D01*
X9889928Y-12037786D01*
X9904214Y-12023500D01*
X9932786Y-12009214D01*
X9989928Y-12009214D01*
X10018500Y-12023500D01*
X10032786Y-12037786D01*
X10047071Y-12066357D01*
X10047071Y-12080643D01*
X10032786Y-12109214D01*
X10018500Y-12123500D01*
X9989928Y-12137786D01*
X9932786Y-12137786D01*
X9904214Y-12152071D01*
X9889928Y-12166357D01*
X9875643Y-12194929D01*
X9875643Y-12252071D01*
X9889928Y-12280643D01*
X9904214Y-12294929D01*
X9932786Y-12309214D01*
X9989928Y-12309214D01*
X10018500Y-12294929D01*
X10032786Y-12280643D01*
X10047071Y-12252071D01*
X10047071Y-12194929D01*
X10032786Y-12166357D01*
X10018500Y-12152071D01*
X9989928Y-12137786D01*
X10404214Y-12309214D02*
X10404214Y-12009214D01*
X10532786Y-12309214D02*
X10532786Y-12152071D01*
X10518500Y-12123500D01*
X10489928Y-12109214D01*
X10447071Y-12109214D01*
X10418500Y-12123500D01*
X10404214Y-12137786D01*
X10718500Y-12309214D02*
X10689928Y-12294929D01*
X10675643Y-12280643D01*
X10661357Y-12252071D01*
X10661357Y-12166357D01*
X10675643Y-12137786D01*
X10689928Y-12123500D01*
X10718500Y-12109214D01*
X10761357Y-12109214D01*
X10789928Y-12123500D01*
X10804214Y-12137786D01*
X10818500Y-12166357D01*
X10818500Y-12252071D01*
X10804214Y-12280643D01*
X10789928Y-12294929D01*
X10761357Y-12309214D01*
X10718500Y-12309214D01*
X10989928Y-12309214D02*
X10961357Y-12294929D01*
X10947071Y-12266357D01*
X10947071Y-12009214D01*
X11218500Y-12294929D02*
X11189929Y-12309214D01*
X11132786Y-12309214D01*
X11104214Y-12294929D01*
X11089929Y-12266357D01*
X11089929Y-12152071D01*
X11104214Y-12123500D01*
X11132786Y-12109214D01*
X11189929Y-12109214D01*
X11218500Y-12123500D01*
X11232786Y-12152071D01*
X11232786Y-12180643D01*
X11089929Y-12209214D01*
X11347071Y-12294929D02*
X11375643Y-12309214D01*
X11432786Y-12309214D01*
X11461357Y-12294929D01*
X11475643Y-12266357D01*
X11475643Y-12252071D01*
X11461357Y-12223500D01*
X11432786Y-12209214D01*
X11389928Y-12209214D01*
X11361357Y-12194929D01*
X11347071Y-12166357D01*
X11347071Y-12152071D01*
X11361357Y-12123500D01*
X11389928Y-12109214D01*
X11432786Y-12109214D01*
X11461357Y-12123500D01*
X11575643Y-12423500D02*
X11589928Y-12409214D01*
X11618500Y-12366357D01*
X11632786Y-12337786D01*
X11647071Y-12294929D01*
X11661357Y-12223500D01*
X11661357Y-12166357D01*
X11647071Y-12094929D01*
X11632786Y-12052071D01*
X11618500Y-12023500D01*
X11589928Y-11980643D01*
X11575643Y-11966357D01*
M02*
