G04 #@! TF.FileFunction,Legend,Bot*
%FSLAX46Y46*%
G04 Gerber Fmt 4.6, Leading zero omitted, Abs format (unit mm)*
G04 Created by KiCad (PCBNEW 4.0.3+e1-6302~38~ubuntu16.04.1-stable) date Thu Aug 25 17:18:17 2016*
%MOMM*%
%LPD*%
G01*
G04 APERTURE LIST*
%ADD10C,0.100000*%
%ADD11C,0.300000*%
G04 APERTURE END LIST*
D10*
D11*
X112992856Y-99738571D02*
X112992856Y-98238571D01*
X112635713Y-98238571D01*
X112421428Y-98310000D01*
X112278570Y-98452857D01*
X112207142Y-98595714D01*
X112135713Y-98881429D01*
X112135713Y-99095714D01*
X112207142Y-99381429D01*
X112278570Y-99524286D01*
X112421428Y-99667143D01*
X112635713Y-99738571D01*
X112992856Y-99738571D01*
X110992856Y-98952857D02*
X110778570Y-99024286D01*
X110707142Y-99095714D01*
X110635713Y-99238571D01*
X110635713Y-99452857D01*
X110707142Y-99595714D01*
X110778570Y-99667143D01*
X110921428Y-99738571D01*
X111492856Y-99738571D01*
X111492856Y-98238571D01*
X110992856Y-98238571D01*
X110849999Y-98310000D01*
X110778570Y-98381429D01*
X110707142Y-98524286D01*
X110707142Y-98667143D01*
X110778570Y-98810000D01*
X110849999Y-98881429D01*
X110992856Y-98952857D01*
X111492856Y-98952857D01*
X110349999Y-99881429D02*
X109207142Y-99881429D01*
X108849999Y-99738571D02*
X108849999Y-98238571D01*
X108349999Y-99310000D01*
X107849999Y-98238571D01*
X107849999Y-99738571D01*
X106921427Y-99738571D02*
X107064285Y-99667143D01*
X107135713Y-99595714D01*
X107207142Y-99452857D01*
X107207142Y-99024286D01*
X107135713Y-98881429D01*
X107064285Y-98810000D01*
X106921427Y-98738571D01*
X106707142Y-98738571D01*
X106564285Y-98810000D01*
X106492856Y-98881429D01*
X106421427Y-99024286D01*
X106421427Y-99452857D01*
X106492856Y-99595714D01*
X106564285Y-99667143D01*
X106707142Y-99738571D01*
X106921427Y-99738571D01*
X105992856Y-98738571D02*
X105421427Y-98738571D01*
X105778570Y-98238571D02*
X105778570Y-99524286D01*
X105707142Y-99667143D01*
X105564284Y-99738571D01*
X105421427Y-99738571D01*
X104707141Y-99738571D02*
X104849999Y-99667143D01*
X104921427Y-99595714D01*
X104992856Y-99452857D01*
X104992856Y-99024286D01*
X104921427Y-98881429D01*
X104849999Y-98810000D01*
X104707141Y-98738571D01*
X104492856Y-98738571D01*
X104349999Y-98810000D01*
X104278570Y-98881429D01*
X104207141Y-99024286D01*
X104207141Y-99452857D01*
X104278570Y-99595714D01*
X104349999Y-99667143D01*
X104492856Y-99738571D01*
X104707141Y-99738571D01*
X103564284Y-99738571D02*
X103564284Y-98738571D01*
X103564284Y-99024286D02*
X103492856Y-98881429D01*
X103421427Y-98810000D01*
X103278570Y-98738571D01*
X103135713Y-98738571D01*
X102992856Y-99881429D02*
X101849999Y-99881429D01*
X100635713Y-99595714D02*
X100707142Y-99667143D01*
X100921428Y-99738571D01*
X101064285Y-99738571D01*
X101278570Y-99667143D01*
X101421428Y-99524286D01*
X101492856Y-99381429D01*
X101564285Y-99095714D01*
X101564285Y-98881429D01*
X101492856Y-98595714D01*
X101421428Y-98452857D01*
X101278570Y-98310000D01*
X101064285Y-98238571D01*
X100921428Y-98238571D01*
X100707142Y-98310000D01*
X100635713Y-98381429D01*
X99778570Y-99738571D02*
X99921428Y-99667143D01*
X99992856Y-99595714D01*
X100064285Y-99452857D01*
X100064285Y-99024286D01*
X99992856Y-98881429D01*
X99921428Y-98810000D01*
X99778570Y-98738571D01*
X99564285Y-98738571D01*
X99421428Y-98810000D01*
X99349999Y-98881429D01*
X99278570Y-99024286D01*
X99278570Y-99452857D01*
X99349999Y-99595714D01*
X99421428Y-99667143D01*
X99564285Y-99738571D01*
X99778570Y-99738571D01*
X98635713Y-98738571D02*
X98635713Y-99738571D01*
X98635713Y-98881429D02*
X98564285Y-98810000D01*
X98421427Y-98738571D01*
X98207142Y-98738571D01*
X98064285Y-98810000D01*
X97992856Y-98952857D01*
X97992856Y-99738571D01*
X97492856Y-98738571D02*
X96921427Y-98738571D01*
X97278570Y-98238571D02*
X97278570Y-99524286D01*
X97207142Y-99667143D01*
X97064284Y-99738571D01*
X96921427Y-99738571D01*
X96421427Y-99738571D02*
X96421427Y-98738571D01*
X96421427Y-99024286D02*
X96349999Y-98881429D01*
X96278570Y-98810000D01*
X96135713Y-98738571D01*
X95992856Y-98738571D01*
X95278570Y-99738571D02*
X95421428Y-99667143D01*
X95492856Y-99595714D01*
X95564285Y-99452857D01*
X95564285Y-99024286D01*
X95492856Y-98881429D01*
X95421428Y-98810000D01*
X95278570Y-98738571D01*
X95064285Y-98738571D01*
X94921428Y-98810000D01*
X94849999Y-98881429D01*
X94778570Y-99024286D01*
X94778570Y-99452857D01*
X94849999Y-99595714D01*
X94921428Y-99667143D01*
X95064285Y-99738571D01*
X95278570Y-99738571D01*
X93921427Y-99738571D02*
X94064285Y-99667143D01*
X94135713Y-99524286D01*
X94135713Y-98238571D01*
X93707142Y-99881429D02*
X92564285Y-99881429D01*
X92421428Y-98238571D02*
X91921428Y-99738571D01*
X91421428Y-98238571D01*
X90992857Y-98381429D02*
X90921428Y-98310000D01*
X90778571Y-98238571D01*
X90421428Y-98238571D01*
X90278571Y-98310000D01*
X90207142Y-98381429D01*
X90135714Y-98524286D01*
X90135714Y-98667143D01*
X90207142Y-98881429D01*
X91064285Y-99738571D01*
X90135714Y-99738571D01*
M02*
