G04 #@! TF.FileFunction,Legend,Bot*
%FSLAX46Y46*%
G04 Gerber Fmt 4.6, Leading zero omitted, Abs format (unit mm)*
G04 Created by KiCad (PCBNEW 4.0.4+e1-6308~48~ubuntu16.04.1-stable) date Mon Oct 24 14:34:27 2016*
%MOMM*%
%LPD*%
G01*
G04 APERTURE LIST*
%ADD10C,0.100000*%
%ADD11C,0.300000*%
G04 APERTURE END LIST*
D10*
D11*
X102861428Y-50208571D02*
X102861428Y-48708571D01*
X102504285Y-48708571D01*
X102290000Y-48780000D01*
X102147142Y-48922857D01*
X102075714Y-49065714D01*
X102004285Y-49351429D01*
X102004285Y-49565714D01*
X102075714Y-49851429D01*
X102147142Y-49994286D01*
X102290000Y-50137143D01*
X102504285Y-50208571D01*
X102861428Y-50208571D01*
X100861428Y-49422857D02*
X100647142Y-49494286D01*
X100575714Y-49565714D01*
X100504285Y-49708571D01*
X100504285Y-49922857D01*
X100575714Y-50065714D01*
X100647142Y-50137143D01*
X100790000Y-50208571D01*
X101361428Y-50208571D01*
X101361428Y-48708571D01*
X100861428Y-48708571D01*
X100718571Y-48780000D01*
X100647142Y-48851429D01*
X100575714Y-48994286D01*
X100575714Y-49137143D01*
X100647142Y-49280000D01*
X100718571Y-49351429D01*
X100861428Y-49422857D01*
X101361428Y-49422857D01*
X100218571Y-50351429D02*
X99075714Y-50351429D01*
X98718571Y-50208571D02*
X98718571Y-48708571D01*
X98718571Y-49422857D02*
X97861428Y-49422857D01*
X97861428Y-50208571D02*
X97861428Y-48708571D01*
X97361428Y-48708571D02*
X96861428Y-50208571D01*
X96361428Y-48708571D01*
X96218571Y-50351429D02*
X95075714Y-50351429D01*
X94932857Y-48708571D02*
X94432857Y-50208571D01*
X93932857Y-48708571D01*
X92647143Y-50208571D02*
X93504286Y-50208571D01*
X93075714Y-50208571D02*
X93075714Y-48708571D01*
X93218571Y-48922857D01*
X93361429Y-49065714D01*
X93504286Y-49137143D01*
M02*
