G04 #@! TF.FileFunction,Copper,L1,Top,Signal*
%FSLAX46Y46*%
G04 Gerber Fmt 4.6, Leading zero omitted, Abs format (unit mm)*
G04 Created by KiCad (PCBNEW 4.0.4+e1-6308~48~ubuntu16.04.1-stable) date Mon Oct 24 14:34:27 2016*
%MOMM*%
%LPD*%
G01*
G04 APERTURE LIST*
%ADD10C,0.100000*%
%ADD11R,1.778000X5.080000*%
%ADD12R,1.270000X5.080000*%
%ADD13R,2.032000X2.032000*%
%ADD14O,2.032000X2.032000*%
%ADD15R,2.032000X1.727200*%
%ADD16O,2.032000X1.727200*%
%ADD17R,1.300000X1.300000*%
%ADD18C,1.300000*%
%ADD19O,1.600000X1.600000*%
%ADD20C,1.699260*%
%ADD21R,1.699260X1.699260*%
%ADD22C,1.998980*%
%ADD23C,1.200000*%
%ADD24C,0.600000*%
%ADD25C,0.250000*%
%ADD26C,0.254000*%
G04 APERTURE END LIST*
D10*
D11*
X107505500Y-81280000D03*
X116014500Y-81280000D03*
D12*
X111760000Y-81280000D03*
D13*
X119380000Y-80010000D03*
D14*
X121920000Y-80010000D03*
D15*
X73660000Y-35560000D03*
D16*
X73660000Y-38100000D03*
X73660000Y-40640000D03*
X73660000Y-43180000D03*
X73660000Y-45720000D03*
X73660000Y-48260000D03*
X73660000Y-50800000D03*
X73660000Y-53340000D03*
X73660000Y-55880000D03*
X73660000Y-58420000D03*
X73660000Y-60960000D03*
X73660000Y-63500000D03*
X73660000Y-66040000D03*
X73660000Y-68580000D03*
X73660000Y-71120000D03*
X73660000Y-73660000D03*
X73660000Y-76200000D03*
X73660000Y-78740000D03*
X73660000Y-81280000D03*
D17*
X106680000Y-53340000D03*
D18*
X109180000Y-53340000D03*
D17*
X115570000Y-53340000D03*
D18*
X118070000Y-53340000D03*
D17*
X119380000Y-71120000D03*
D18*
X116880000Y-71120000D03*
D17*
X104140000Y-77470000D03*
D18*
X101640000Y-77470000D03*
D17*
X99060000Y-66040000D03*
D18*
X96560000Y-66040000D03*
D17*
X96520000Y-59690000D03*
D18*
X99020000Y-59690000D03*
D17*
X99060000Y-39370000D03*
D18*
X96560000Y-39370000D03*
D17*
X92710000Y-39370000D03*
D18*
X90210000Y-39370000D03*
D17*
X90170000Y-59690000D03*
D18*
X92670000Y-59690000D03*
D17*
X90170000Y-66040000D03*
D18*
X92670000Y-66040000D03*
D17*
X85090000Y-78740000D03*
D18*
X85090000Y-81240000D03*
D17*
X86360000Y-73660000D03*
D18*
X83860000Y-73660000D03*
D17*
X86360000Y-53340000D03*
D18*
X83860000Y-53340000D03*
D17*
X86360000Y-46990000D03*
D18*
X83860000Y-46990000D03*
D19*
X113030000Y-39370000D03*
X113030000Y-41910000D03*
X113030000Y-44450000D03*
X113030000Y-46990000D03*
X120650000Y-46990000D03*
X120650000Y-44450000D03*
X120650000Y-41910000D03*
X120650000Y-39370000D03*
D20*
X111759480Y-74932540D03*
D21*
X121919480Y-74932540D03*
D20*
X99062540Y-81280520D03*
D21*
X99062540Y-71120520D03*
D20*
X96517460Y-71119480D03*
D21*
X96517460Y-81279480D03*
D20*
X99062540Y-54610520D03*
D21*
X99062540Y-44450520D03*
D20*
X96517460Y-44449480D03*
D21*
X96517460Y-54609480D03*
D20*
X90167460Y-44449480D03*
D21*
X90167460Y-54609480D03*
D20*
X92712540Y-54610520D03*
D21*
X92712540Y-44450520D03*
D20*
X92707460Y-71119480D03*
D21*
X92707460Y-81279480D03*
D20*
X90172540Y-81280520D03*
D21*
X90172540Y-71120520D03*
D20*
X86362540Y-68580520D03*
D21*
X86362540Y-58420520D03*
D20*
X83817460Y-58419480D03*
D21*
X83817460Y-68579480D03*
D20*
X87630520Y-41907460D03*
D21*
X77470520Y-41907460D03*
D22*
X105410000Y-35560000D03*
X105410000Y-45720000D03*
X109220000Y-35560000D03*
X109220000Y-45720000D03*
X111760000Y-58420000D03*
X121920000Y-58420000D03*
X113030000Y-71120000D03*
X102870000Y-71120000D03*
D23*
X106680000Y-59690000D03*
X105410000Y-60960000D03*
X106680000Y-62230000D03*
X120650000Y-63500000D03*
X119380000Y-64770000D03*
X120650000Y-66040000D03*
X113030000Y-63500000D03*
X111760000Y-64770000D03*
X113030000Y-66040000D03*
D24*
X111760000Y-77470000D03*
X105410000Y-72390000D03*
D25*
X118070000Y-53340000D02*
X118070000Y-49570000D01*
X118070000Y-49570000D02*
X120650000Y-46990000D01*
X109180000Y-53340000D02*
X109180000Y-45760000D01*
X109180000Y-45760000D02*
X109220000Y-45720000D01*
X109220000Y-45720000D02*
X113030000Y-41910000D01*
X99062540Y-71120520D02*
X99062540Y-66042540D01*
X99062540Y-66042540D02*
X99060000Y-66040000D01*
X111759480Y-74932540D02*
X110490000Y-74930000D01*
X101602020Y-73660000D02*
X99062540Y-71120520D01*
X107950000Y-73660000D02*
X101602020Y-73660000D01*
X110490000Y-74930000D02*
X107950000Y-73660000D01*
X111759480Y-74932540D02*
X111797460Y-74932540D01*
X111797460Y-74932540D02*
X116880000Y-71120000D01*
X120650000Y-63500000D02*
X123190000Y-66040000D01*
X123190000Y-67310000D02*
X119380000Y-71120000D01*
X123190000Y-66040000D02*
X123190000Y-67310000D01*
X113030000Y-63500000D02*
X120650000Y-63500000D01*
X96520000Y-59690000D02*
X96520000Y-62230000D01*
X95250000Y-80012020D02*
X96517460Y-81279480D01*
X95250000Y-63500000D02*
X95250000Y-80012020D01*
X96520000Y-62230000D02*
X95250000Y-63500000D01*
X96517460Y-81279480D02*
X99061500Y-81279480D01*
X99061500Y-81279480D02*
X99062540Y-81280520D01*
X99062540Y-81280520D02*
X100369480Y-81280520D01*
X100369480Y-81280520D02*
X101640000Y-77470000D01*
X99062540Y-44450520D02*
X99062540Y-39372540D01*
X99062540Y-39372540D02*
X99060000Y-39370000D01*
X96560000Y-66040000D02*
X96560000Y-66000000D01*
X96560000Y-66000000D02*
X101600000Y-60960000D01*
X101600000Y-46990000D02*
X99062540Y-44452540D01*
X101600000Y-60960000D02*
X101600000Y-46990000D01*
X99062540Y-44452540D02*
X99062540Y-44450520D01*
X96517460Y-71119480D02*
X96517460Y-66082540D01*
X96517460Y-66082540D02*
X96560000Y-66040000D01*
X96517460Y-54609480D02*
X96517460Y-49527460D01*
X95250000Y-41910000D02*
X92710000Y-39370000D01*
X95250000Y-48260000D02*
X95250000Y-41910000D01*
X96517460Y-49527460D02*
X95250000Y-48260000D01*
X99062540Y-54610520D02*
X96518500Y-54610520D01*
X96518500Y-54610520D02*
X96517460Y-54609480D01*
X99020000Y-59690000D02*
X99020000Y-54653060D01*
X99020000Y-54653060D02*
X99062540Y-54610520D01*
X90170000Y-59690000D02*
X90170000Y-54612020D01*
X90170000Y-54612020D02*
X90167460Y-54609480D01*
X96560000Y-39370000D02*
X96560000Y-44406940D01*
X96560000Y-44406940D02*
X96517460Y-44449480D01*
X90167460Y-44449480D02*
X90167460Y-45722540D01*
X88900000Y-64770000D02*
X90170000Y-66040000D01*
X88900000Y-46990000D02*
X88900000Y-64770000D01*
X90167460Y-45722540D02*
X88900000Y-46990000D01*
X90167460Y-44449480D02*
X92711500Y-44449480D01*
X92711500Y-44449480D02*
X92712540Y-44450520D01*
X90210000Y-39370000D02*
X90210000Y-44406940D01*
X90210000Y-44406940D02*
X90167460Y-44449480D01*
X85090000Y-78740000D02*
X91440000Y-78740000D01*
X92707460Y-80007460D02*
X92707460Y-81279480D01*
X91440000Y-78740000D02*
X92707460Y-80007460D01*
X92670000Y-59690000D02*
X92670000Y-54653060D01*
X92670000Y-54653060D02*
X92712540Y-54610520D01*
X90172540Y-71120520D02*
X88899480Y-71120520D01*
X88899480Y-71120520D02*
X86360000Y-73660000D01*
X90172540Y-71120520D02*
X92706420Y-71120520D01*
X92706420Y-71120520D02*
X92707460Y-71119480D01*
X90172540Y-71120520D02*
X90172540Y-68537460D01*
X90172540Y-68537460D02*
X92670000Y-66040000D01*
X86362540Y-58420520D02*
X86362540Y-53342540D01*
X86362540Y-53342540D02*
X86360000Y-53340000D01*
X85090000Y-81240000D02*
X90132020Y-81240000D01*
X90132020Y-81240000D02*
X90172540Y-81280520D01*
X83817460Y-68579480D02*
X86361500Y-68579480D01*
X86361500Y-68579480D02*
X86362540Y-68580520D01*
X83860000Y-73660000D02*
X83860000Y-68622020D01*
X83860000Y-68622020D02*
X83817460Y-68579480D01*
X77470520Y-41907460D02*
X77470520Y-46950520D01*
X77470520Y-46950520D02*
X83860000Y-53340000D01*
X83817460Y-58419480D02*
X83817460Y-53382540D01*
X83817460Y-53382540D02*
X83860000Y-53340000D01*
X111760000Y-77470000D02*
X111760000Y-81280000D01*
X87630520Y-41907460D02*
X87630520Y-43219480D01*
X87630520Y-43219480D02*
X83860000Y-46990000D01*
X73660000Y-38100000D02*
X85090000Y-38100000D01*
X105410000Y-41910000D02*
X105410000Y-45720000D01*
X100330000Y-36830000D02*
X105410000Y-41910000D01*
X86360000Y-36830000D02*
X100330000Y-36830000D01*
X85090000Y-38100000D02*
X86360000Y-36830000D01*
X113030000Y-46990000D02*
X120650000Y-39370000D01*
X113030000Y-71120000D02*
X106680000Y-71120000D01*
X106680000Y-71120000D02*
X105410000Y-72390000D01*
X113030000Y-71120000D02*
X113030000Y-66040000D01*
X105410000Y-60960000D02*
X109220000Y-60960000D01*
X109220000Y-60960000D02*
X111760000Y-58420000D01*
X105410000Y-35560000D02*
X109220000Y-35560000D01*
X111760000Y-64770000D02*
X119380000Y-64770000D01*
X106680000Y-62230000D02*
X109220000Y-62230000D01*
X109220000Y-62230000D02*
X111760000Y-64770000D01*
X102870000Y-71120000D02*
X102870000Y-66040000D01*
X102870000Y-66040000D02*
X106680000Y-62230000D01*
D26*
G36*
X123750000Y-65536421D02*
X123727401Y-65502599D01*
X121884861Y-63660059D01*
X121885214Y-63255421D01*
X121697592Y-62801343D01*
X121350485Y-62453629D01*
X120896734Y-62265215D01*
X120405421Y-62264786D01*
X119951343Y-62452408D01*
X119663248Y-62740000D01*
X114016356Y-62740000D01*
X113730485Y-62453629D01*
X113276734Y-62265215D01*
X112785421Y-62264786D01*
X112331343Y-62452408D01*
X111983629Y-62799515D01*
X111795215Y-63253266D01*
X111794969Y-63535030D01*
X111599662Y-63534860D01*
X109757401Y-61692599D01*
X109611333Y-61595000D01*
X109757401Y-61497401D01*
X111268917Y-59985885D01*
X111433453Y-60054206D01*
X112083694Y-60054774D01*
X112684655Y-59806462D01*
X113144846Y-59347073D01*
X113394206Y-58746547D01*
X113394208Y-58743694D01*
X120285226Y-58743694D01*
X120533538Y-59344655D01*
X120992927Y-59804846D01*
X121593453Y-60054206D01*
X122243694Y-60054774D01*
X122844655Y-59806462D01*
X123304846Y-59347073D01*
X123554206Y-58746547D01*
X123554774Y-58096306D01*
X123306462Y-57495345D01*
X122847073Y-57035154D01*
X122246547Y-56785794D01*
X121596306Y-56785226D01*
X120995345Y-57033538D01*
X120535154Y-57492927D01*
X120285794Y-58093453D01*
X120285226Y-58743694D01*
X113394208Y-58743694D01*
X113394774Y-58096306D01*
X113146462Y-57495345D01*
X112687073Y-57035154D01*
X112086547Y-56785794D01*
X111436306Y-56785226D01*
X110835345Y-57033538D01*
X110375154Y-57492927D01*
X110125794Y-58093453D01*
X110125226Y-58743694D01*
X110194309Y-58910889D01*
X108905198Y-60200000D01*
X107810636Y-60200000D01*
X107927807Y-59858964D01*
X107897482Y-59368587D01*
X107768164Y-59056383D01*
X107542735Y-59006870D01*
X106859605Y-59690000D01*
X106873748Y-59704143D01*
X106694143Y-59883748D01*
X106680000Y-59869605D01*
X106665858Y-59883748D01*
X106486253Y-59704143D01*
X106500395Y-59690000D01*
X105817265Y-59006870D01*
X105591836Y-59056383D01*
X105432193Y-59521036D01*
X105444808Y-59725030D01*
X105165421Y-59724786D01*
X104711343Y-59912408D01*
X104363629Y-60259515D01*
X104175215Y-60713266D01*
X104174786Y-61204579D01*
X104362408Y-61658657D01*
X104709515Y-62006371D01*
X105163266Y-62194785D01*
X105445030Y-62195031D01*
X105444860Y-62390338D01*
X102332599Y-65502599D01*
X102167852Y-65749161D01*
X102110000Y-66040000D01*
X102110000Y-69665504D01*
X101945345Y-69733538D01*
X101485154Y-70192927D01*
X101235794Y-70793453D01*
X101235226Y-71443694D01*
X101483538Y-72044655D01*
X101942927Y-72504846D01*
X102543453Y-72754206D01*
X103193694Y-72754774D01*
X103794655Y-72506462D01*
X104254846Y-72047073D01*
X104504206Y-71446547D01*
X104504774Y-70796306D01*
X104256462Y-70195345D01*
X103797073Y-69735154D01*
X103630000Y-69665779D01*
X103630000Y-66354802D01*
X106519941Y-63464861D01*
X106924579Y-63465214D01*
X107378657Y-63277592D01*
X107666752Y-62990000D01*
X108905198Y-62990000D01*
X110525139Y-64609941D01*
X110524786Y-65014579D01*
X110712408Y-65468657D01*
X111059515Y-65816371D01*
X111513266Y-66004785D01*
X111795030Y-66005031D01*
X111794786Y-66284579D01*
X111982408Y-66738657D01*
X112270000Y-67026752D01*
X112270000Y-69665504D01*
X112105345Y-69733538D01*
X111645154Y-70192927D01*
X111575779Y-70360000D01*
X106680000Y-70360000D01*
X106389160Y-70417852D01*
X106142599Y-70582599D01*
X105270320Y-71454878D01*
X105224833Y-71454838D01*
X104881057Y-71596883D01*
X104617808Y-71859673D01*
X104475162Y-72203201D01*
X104474838Y-72575167D01*
X104609056Y-72900000D01*
X101916822Y-72900000D01*
X100559610Y-71542788D01*
X100559610Y-70270890D01*
X100515332Y-70035573D01*
X100376260Y-69819449D01*
X100164060Y-69674459D01*
X99912170Y-69623450D01*
X99822540Y-69623450D01*
X99822540Y-67316264D01*
X99945317Y-67293162D01*
X100161441Y-67154090D01*
X100306431Y-66941890D01*
X100357440Y-66690000D01*
X100357440Y-65390000D01*
X100313162Y-65154683D01*
X100174090Y-64938559D01*
X99961890Y-64793569D01*
X99710000Y-64742560D01*
X98892242Y-64742560D01*
X102137401Y-61497401D01*
X102302148Y-61250840D01*
X102360000Y-60960000D01*
X102360000Y-58827265D01*
X105996870Y-58827265D01*
X106680000Y-59510395D01*
X107363130Y-58827265D01*
X107313617Y-58601836D01*
X106848964Y-58442193D01*
X106358587Y-58472518D01*
X106046383Y-58601836D01*
X105996870Y-58827265D01*
X102360000Y-58827265D01*
X102360000Y-53625750D01*
X105395000Y-53625750D01*
X105395000Y-54116310D01*
X105491673Y-54349699D01*
X105670302Y-54528327D01*
X105903691Y-54625000D01*
X106394250Y-54625000D01*
X106553000Y-54466250D01*
X106553000Y-53467000D01*
X105553750Y-53467000D01*
X105395000Y-53625750D01*
X102360000Y-53625750D01*
X102360000Y-52563690D01*
X105395000Y-52563690D01*
X105395000Y-53054250D01*
X105553750Y-53213000D01*
X106553000Y-53213000D01*
X106553000Y-52213750D01*
X106807000Y-52213750D01*
X106807000Y-53213000D01*
X106827000Y-53213000D01*
X106827000Y-53467000D01*
X106807000Y-53467000D01*
X106807000Y-54466250D01*
X106965750Y-54625000D01*
X107456309Y-54625000D01*
X107689698Y-54528327D01*
X107868327Y-54349699D01*
X107965000Y-54116310D01*
X107965000Y-53764433D01*
X108089995Y-54066943D01*
X108451155Y-54428735D01*
X108923276Y-54624777D01*
X109434481Y-54625223D01*
X109906943Y-54430005D01*
X110268735Y-54068845D01*
X110452724Y-53625750D01*
X114285000Y-53625750D01*
X114285000Y-54116310D01*
X114381673Y-54349699D01*
X114560302Y-54528327D01*
X114793691Y-54625000D01*
X115284250Y-54625000D01*
X115443000Y-54466250D01*
X115443000Y-53467000D01*
X114443750Y-53467000D01*
X114285000Y-53625750D01*
X110452724Y-53625750D01*
X110464777Y-53596724D01*
X110465223Y-53085519D01*
X110270005Y-52613057D01*
X110220725Y-52563690D01*
X114285000Y-52563690D01*
X114285000Y-53054250D01*
X114443750Y-53213000D01*
X115443000Y-53213000D01*
X115443000Y-52213750D01*
X115284250Y-52055000D01*
X114793691Y-52055000D01*
X114560302Y-52151673D01*
X114381673Y-52330301D01*
X114285000Y-52563690D01*
X110220725Y-52563690D01*
X109940000Y-52282475D01*
X109940000Y-47191024D01*
X110144655Y-47106462D01*
X110604846Y-46647073D01*
X110854206Y-46046547D01*
X110854774Y-45396306D01*
X110785691Y-45229111D01*
X111567405Y-44447397D01*
X111566887Y-44450000D01*
X111676120Y-44999151D01*
X111987189Y-45464698D01*
X112369275Y-45720000D01*
X111987189Y-45975302D01*
X111676120Y-46440849D01*
X111566887Y-46990000D01*
X111676120Y-47539151D01*
X111987189Y-48004698D01*
X112452736Y-48315767D01*
X113001887Y-48425000D01*
X113058113Y-48425000D01*
X113607264Y-48315767D01*
X114072811Y-48004698D01*
X114383880Y-47539151D01*
X114493113Y-46990000D01*
X114428688Y-46666114D01*
X119187405Y-41907397D01*
X119186887Y-41910000D01*
X119296120Y-42459151D01*
X119607189Y-42924698D01*
X119989275Y-43180000D01*
X119607189Y-43435302D01*
X119296120Y-43900849D01*
X119186887Y-44450000D01*
X119296120Y-44999151D01*
X119607189Y-45464698D01*
X119989275Y-45720000D01*
X119607189Y-45975302D01*
X119296120Y-46440849D01*
X119186887Y-46990000D01*
X119251312Y-47313886D01*
X117532599Y-49032599D01*
X117367852Y-49279161D01*
X117310000Y-49570000D01*
X117310000Y-52282994D01*
X116981265Y-52611155D01*
X116855000Y-52915235D01*
X116855000Y-52563690D01*
X116758327Y-52330301D01*
X116579698Y-52151673D01*
X116346309Y-52055000D01*
X115855750Y-52055000D01*
X115697000Y-52213750D01*
X115697000Y-53213000D01*
X115717000Y-53213000D01*
X115717000Y-53467000D01*
X115697000Y-53467000D01*
X115697000Y-54466250D01*
X115855750Y-54625000D01*
X116346309Y-54625000D01*
X116579698Y-54528327D01*
X116758327Y-54349699D01*
X116855000Y-54116310D01*
X116855000Y-53764433D01*
X116979995Y-54066943D01*
X117341155Y-54428735D01*
X117813276Y-54624777D01*
X118324481Y-54625223D01*
X118796943Y-54430005D01*
X119158735Y-54068845D01*
X119354777Y-53596724D01*
X119355223Y-53085519D01*
X119160005Y-52613057D01*
X118830000Y-52282475D01*
X118830000Y-49884802D01*
X120344898Y-48369904D01*
X120621887Y-48425000D01*
X120678113Y-48425000D01*
X121227264Y-48315767D01*
X121692811Y-48004698D01*
X122003880Y-47539151D01*
X122113113Y-46990000D01*
X122003880Y-46440849D01*
X121692811Y-45975302D01*
X121310725Y-45720000D01*
X121692811Y-45464698D01*
X122003880Y-44999151D01*
X122113113Y-44450000D01*
X122003880Y-43900849D01*
X121692811Y-43435302D01*
X121310725Y-43180000D01*
X121692811Y-42924698D01*
X122003880Y-42459151D01*
X122113113Y-41910000D01*
X122003880Y-41360849D01*
X121692811Y-40895302D01*
X121310725Y-40640000D01*
X121692811Y-40384698D01*
X122003880Y-39919151D01*
X122113113Y-39370000D01*
X122003880Y-38820849D01*
X121692811Y-38355302D01*
X121227264Y-38044233D01*
X120678113Y-37935000D01*
X120621887Y-37935000D01*
X120072736Y-38044233D01*
X119607189Y-38355302D01*
X119296120Y-38820849D01*
X119186887Y-39370000D01*
X119251312Y-39693886D01*
X114492595Y-44452603D01*
X114493113Y-44450000D01*
X114383880Y-43900849D01*
X114072811Y-43435302D01*
X113690725Y-43180000D01*
X114072811Y-42924698D01*
X114383880Y-42459151D01*
X114493113Y-41910000D01*
X114383880Y-41360849D01*
X114072811Y-40895302D01*
X113668297Y-40625014D01*
X113885134Y-40522389D01*
X114261041Y-40107423D01*
X114421904Y-39719039D01*
X114299915Y-39497000D01*
X113157000Y-39497000D01*
X113157000Y-39517000D01*
X112903000Y-39517000D01*
X112903000Y-39497000D01*
X111760085Y-39497000D01*
X111638096Y-39719039D01*
X111798959Y-40107423D01*
X112174866Y-40522389D01*
X112391703Y-40625014D01*
X111987189Y-40895302D01*
X111676120Y-41360849D01*
X111566887Y-41910000D01*
X111631312Y-42233886D01*
X109711083Y-44154115D01*
X109546547Y-44085794D01*
X108896306Y-44085226D01*
X108295345Y-44333538D01*
X107835154Y-44792927D01*
X107585794Y-45393453D01*
X107585226Y-46043694D01*
X107833538Y-46644655D01*
X108292927Y-47104846D01*
X108420000Y-47157611D01*
X108420000Y-52282994D01*
X108091265Y-52611155D01*
X107965000Y-52915235D01*
X107965000Y-52563690D01*
X107868327Y-52330301D01*
X107689698Y-52151673D01*
X107456309Y-52055000D01*
X106965750Y-52055000D01*
X106807000Y-52213750D01*
X106553000Y-52213750D01*
X106394250Y-52055000D01*
X105903691Y-52055000D01*
X105670302Y-52151673D01*
X105491673Y-52330301D01*
X105395000Y-52563690D01*
X102360000Y-52563690D01*
X102360000Y-46990000D01*
X102334738Y-46863000D01*
X102302148Y-46699160D01*
X102137401Y-46452599D01*
X100559610Y-44874808D01*
X100559610Y-43600890D01*
X100515332Y-43365573D01*
X100376260Y-43149449D01*
X100164060Y-43004459D01*
X99912170Y-42953450D01*
X99822540Y-42953450D01*
X99822540Y-40646264D01*
X99945317Y-40623162D01*
X100161441Y-40484090D01*
X100306431Y-40271890D01*
X100357440Y-40020000D01*
X100357440Y-38720000D01*
X100313162Y-38484683D01*
X100174090Y-38268559D01*
X99961890Y-38123569D01*
X99710000Y-38072560D01*
X98410000Y-38072560D01*
X98174683Y-38116838D01*
X97958559Y-38255910D01*
X97813569Y-38468110D01*
X97762560Y-38720000D01*
X97762560Y-38915460D01*
X97650005Y-38643057D01*
X97288845Y-38281265D01*
X96816724Y-38085223D01*
X96305519Y-38084777D01*
X95833057Y-38279995D01*
X95471265Y-38641155D01*
X95275223Y-39113276D01*
X95274777Y-39624481D01*
X95469995Y-40096943D01*
X95800000Y-40427525D01*
X95800000Y-41391455D01*
X95787401Y-41372599D01*
X94007440Y-39592638D01*
X94007440Y-38720000D01*
X93963162Y-38484683D01*
X93824090Y-38268559D01*
X93611890Y-38123569D01*
X93360000Y-38072560D01*
X92060000Y-38072560D01*
X91824683Y-38116838D01*
X91608559Y-38255910D01*
X91463569Y-38468110D01*
X91412560Y-38720000D01*
X91412560Y-38915460D01*
X91300005Y-38643057D01*
X90938845Y-38281265D01*
X90466724Y-38085223D01*
X89955519Y-38084777D01*
X89483057Y-38279995D01*
X89121265Y-38641155D01*
X88925223Y-39113276D01*
X88924777Y-39624481D01*
X89119995Y-40096943D01*
X89450000Y-40427525D01*
X89450000Y-43139556D01*
X89327583Y-43190138D01*
X88909586Y-43607406D01*
X88683088Y-44152873D01*
X88682572Y-44743496D01*
X88908118Y-45289357D01*
X89216710Y-45598488D01*
X88362599Y-46452599D01*
X88197852Y-46699161D01*
X88140000Y-46990000D01*
X88140000Y-64770000D01*
X88197852Y-65060839D01*
X88362599Y-65307401D01*
X88872560Y-65817362D01*
X88872560Y-66690000D01*
X88916838Y-66925317D01*
X89055910Y-67141441D01*
X89268110Y-67286431D01*
X89520000Y-67337440D01*
X90297758Y-67337440D01*
X89635139Y-68000059D01*
X89470392Y-68246621D01*
X89412540Y-68537460D01*
X89412540Y-69623450D01*
X89322910Y-69623450D01*
X89087593Y-69667728D01*
X88871469Y-69806800D01*
X88726479Y-70019000D01*
X88675470Y-70270890D01*
X88675470Y-70405079D01*
X88608641Y-70418372D01*
X88362079Y-70583119D01*
X86582638Y-72362560D01*
X85710000Y-72362560D01*
X85474683Y-72406838D01*
X85258559Y-72545910D01*
X85113569Y-72758110D01*
X85062560Y-73010000D01*
X85062560Y-73205460D01*
X84950005Y-72933057D01*
X84620000Y-72602475D01*
X84620000Y-70076550D01*
X84667090Y-70076550D01*
X84902407Y-70032272D01*
X85118531Y-69893200D01*
X85263521Y-69681000D01*
X85280356Y-69597865D01*
X85520466Y-69838394D01*
X86065933Y-70064892D01*
X86656556Y-70065408D01*
X87202417Y-69839862D01*
X87620414Y-69422594D01*
X87846912Y-68877127D01*
X87847428Y-68286504D01*
X87621882Y-67740643D01*
X87204614Y-67322646D01*
X86659147Y-67096148D01*
X86068524Y-67095632D01*
X85522663Y-67321178D01*
X85282705Y-67560717D01*
X85270252Y-67494533D01*
X85131180Y-67278409D01*
X84918980Y-67133419D01*
X84667090Y-67082410D01*
X82967830Y-67082410D01*
X82732513Y-67126688D01*
X82516389Y-67265760D01*
X82371399Y-67477960D01*
X82320390Y-67729850D01*
X82320390Y-69429110D01*
X82364668Y-69664427D01*
X82503740Y-69880551D01*
X82715940Y-70025541D01*
X82967830Y-70076550D01*
X83100000Y-70076550D01*
X83100000Y-72602994D01*
X82771265Y-72931155D01*
X82575223Y-73403276D01*
X82574777Y-73914481D01*
X82769995Y-74386943D01*
X83131155Y-74748735D01*
X83603276Y-74944777D01*
X84114481Y-74945223D01*
X84586943Y-74750005D01*
X84948735Y-74388845D01*
X85062560Y-74114724D01*
X85062560Y-74310000D01*
X85106838Y-74545317D01*
X85245910Y-74761441D01*
X85458110Y-74906431D01*
X85710000Y-74957440D01*
X87010000Y-74957440D01*
X87245317Y-74913162D01*
X87461441Y-74774090D01*
X87606431Y-74561890D01*
X87657440Y-74310000D01*
X87657440Y-73437362D01*
X88786147Y-72308655D01*
X88858820Y-72421591D01*
X89071020Y-72566581D01*
X89322910Y-72617590D01*
X91022170Y-72617590D01*
X91257487Y-72573312D01*
X91473611Y-72434240D01*
X91618601Y-72222040D01*
X91634073Y-72145637D01*
X91865386Y-72377354D01*
X92410853Y-72603852D01*
X93001476Y-72604368D01*
X93547337Y-72378822D01*
X93965334Y-71961554D01*
X94191832Y-71416087D01*
X94192348Y-70825464D01*
X93966802Y-70279603D01*
X93549534Y-69861606D01*
X93004067Y-69635108D01*
X92413444Y-69634592D01*
X91867583Y-69860138D01*
X91635849Y-70091468D01*
X91625332Y-70035573D01*
X91486260Y-69819449D01*
X91274060Y-69674459D01*
X91022170Y-69623450D01*
X90932540Y-69623450D01*
X90932540Y-68852262D01*
X92459984Y-67324818D01*
X92924481Y-67325223D01*
X93396943Y-67130005D01*
X93758735Y-66768845D01*
X93954777Y-66296724D01*
X93955223Y-65785519D01*
X93760005Y-65313057D01*
X93398845Y-64951265D01*
X92926724Y-64755223D01*
X92415519Y-64754777D01*
X91943057Y-64949995D01*
X91581265Y-65311155D01*
X91467440Y-65585276D01*
X91467440Y-65390000D01*
X91423162Y-65154683D01*
X91284090Y-64938559D01*
X91071890Y-64793569D01*
X90820000Y-64742560D01*
X89947362Y-64742560D01*
X89660000Y-64455198D01*
X89660000Y-60987440D01*
X90820000Y-60987440D01*
X91055317Y-60943162D01*
X91271441Y-60804090D01*
X91416431Y-60591890D01*
X91467440Y-60340000D01*
X91467440Y-60144540D01*
X91579995Y-60416943D01*
X91941155Y-60778735D01*
X92413276Y-60974777D01*
X92924481Y-60975223D01*
X93396943Y-60780005D01*
X93758735Y-60418845D01*
X93954777Y-59946724D01*
X93955223Y-59435519D01*
X93760005Y-58963057D01*
X93430000Y-58632475D01*
X93430000Y-55920444D01*
X93552417Y-55869862D01*
X93970414Y-55452594D01*
X94196912Y-54907127D01*
X94197428Y-54316504D01*
X93971882Y-53770643D01*
X93554614Y-53352646D01*
X93009147Y-53126148D01*
X92418524Y-53125632D01*
X91872663Y-53351178D01*
X91632705Y-53590717D01*
X91620252Y-53524533D01*
X91481180Y-53308409D01*
X91268980Y-53163419D01*
X91017090Y-53112410D01*
X89660000Y-53112410D01*
X89660000Y-47304802D01*
X90704861Y-46259941D01*
X90869608Y-46013379D01*
X90923280Y-45743554D01*
X91007337Y-45708822D01*
X91247295Y-45469283D01*
X91259748Y-45535467D01*
X91398820Y-45751591D01*
X91611020Y-45896581D01*
X91862910Y-45947590D01*
X93562170Y-45947590D01*
X93797487Y-45903312D01*
X94013611Y-45764240D01*
X94158601Y-45552040D01*
X94209610Y-45300150D01*
X94209610Y-43600890D01*
X94165332Y-43365573D01*
X94026260Y-43149449D01*
X93814060Y-43004459D01*
X93562170Y-42953450D01*
X91862910Y-42953450D01*
X91627593Y-42997728D01*
X91411469Y-43136800D01*
X91266479Y-43349000D01*
X91249644Y-43432135D01*
X91009534Y-43191606D01*
X90970000Y-43175190D01*
X90970000Y-40427006D01*
X91298735Y-40098845D01*
X91412560Y-39824724D01*
X91412560Y-40020000D01*
X91456838Y-40255317D01*
X91595910Y-40471441D01*
X91808110Y-40616431D01*
X92060000Y-40667440D01*
X92932638Y-40667440D01*
X94490000Y-42224802D01*
X94490000Y-48260000D01*
X94547852Y-48550839D01*
X94712599Y-48797401D01*
X95757460Y-49842262D01*
X95757460Y-53112410D01*
X95667830Y-53112410D01*
X95432513Y-53156688D01*
X95216389Y-53295760D01*
X95071399Y-53507960D01*
X95020390Y-53759850D01*
X95020390Y-55459110D01*
X95064668Y-55694427D01*
X95203740Y-55910551D01*
X95415940Y-56055541D01*
X95667830Y-56106550D01*
X97367090Y-56106550D01*
X97602407Y-56062272D01*
X97818531Y-55923200D01*
X97963521Y-55711000D01*
X97980356Y-55627865D01*
X98220466Y-55868394D01*
X98260000Y-55884810D01*
X98260000Y-58632994D01*
X97931265Y-58961155D01*
X97817440Y-59235276D01*
X97817440Y-59040000D01*
X97773162Y-58804683D01*
X97634090Y-58588559D01*
X97421890Y-58443569D01*
X97170000Y-58392560D01*
X95870000Y-58392560D01*
X95634683Y-58436838D01*
X95418559Y-58575910D01*
X95273569Y-58788110D01*
X95222560Y-59040000D01*
X95222560Y-60340000D01*
X95266838Y-60575317D01*
X95405910Y-60791441D01*
X95618110Y-60936431D01*
X95760000Y-60965164D01*
X95760000Y-61915198D01*
X94712599Y-62962599D01*
X94547852Y-63209161D01*
X94490000Y-63500000D01*
X94490000Y-80012020D01*
X94547852Y-80302859D01*
X94712599Y-80549421D01*
X95020390Y-80857212D01*
X95020390Y-82129110D01*
X95064668Y-82364427D01*
X95203740Y-82580551D01*
X95415940Y-82725541D01*
X95667830Y-82776550D01*
X97367090Y-82776550D01*
X97602407Y-82732272D01*
X97818531Y-82593200D01*
X97963521Y-82381000D01*
X97980356Y-82297865D01*
X98220466Y-82538394D01*
X98765933Y-82764892D01*
X99356556Y-82765408D01*
X99902417Y-82539862D01*
X100320414Y-82122594D01*
X100354494Y-82040520D01*
X100369480Y-82040520D01*
X100396233Y-82035199D01*
X100423293Y-82038612D01*
X100540812Y-82006440D01*
X100660319Y-81982668D01*
X100682998Y-81967514D01*
X100709307Y-81960312D01*
X100805571Y-81885614D01*
X100906881Y-81817921D01*
X100922035Y-81795241D01*
X100943584Y-81778520D01*
X101003937Y-81672666D01*
X101071628Y-81571359D01*
X101076949Y-81544609D01*
X101090460Y-81520912D01*
X102031483Y-78698615D01*
X102366943Y-78560005D01*
X102728735Y-78198845D01*
X102855000Y-77894765D01*
X102855000Y-78246310D01*
X102951673Y-78479699D01*
X103130302Y-78658327D01*
X103363691Y-78755000D01*
X103854250Y-78755000D01*
X104013000Y-78596250D01*
X104013000Y-77597000D01*
X104267000Y-77597000D01*
X104267000Y-78596250D01*
X104425750Y-78755000D01*
X104916309Y-78755000D01*
X105149698Y-78658327D01*
X105194335Y-78613690D01*
X105981500Y-78613690D01*
X105981500Y-80994250D01*
X106140250Y-81153000D01*
X107378500Y-81153000D01*
X107378500Y-78263750D01*
X107632500Y-78263750D01*
X107632500Y-81153000D01*
X108870750Y-81153000D01*
X109029500Y-80994250D01*
X109029500Y-78613690D01*
X108932827Y-78380301D01*
X108754198Y-78201673D01*
X108520809Y-78105000D01*
X107791250Y-78105000D01*
X107632500Y-78263750D01*
X107378500Y-78263750D01*
X107219750Y-78105000D01*
X106490191Y-78105000D01*
X106256802Y-78201673D01*
X106078173Y-78380301D01*
X105981500Y-78613690D01*
X105194335Y-78613690D01*
X105328327Y-78479699D01*
X105425000Y-78246310D01*
X105425000Y-77755750D01*
X105266250Y-77597000D01*
X104267000Y-77597000D01*
X104013000Y-77597000D01*
X103993000Y-77597000D01*
X103993000Y-77343000D01*
X104013000Y-77343000D01*
X104013000Y-76343750D01*
X104267000Y-76343750D01*
X104267000Y-77343000D01*
X105266250Y-77343000D01*
X105425000Y-77184250D01*
X105425000Y-76693690D01*
X105328327Y-76460301D01*
X105149698Y-76281673D01*
X104916309Y-76185000D01*
X104425750Y-76185000D01*
X104267000Y-76343750D01*
X104013000Y-76343750D01*
X103854250Y-76185000D01*
X103363691Y-76185000D01*
X103130302Y-76281673D01*
X102951673Y-76460301D01*
X102855000Y-76693690D01*
X102855000Y-77045567D01*
X102730005Y-76743057D01*
X102368845Y-76381265D01*
X101896724Y-76185223D01*
X101385519Y-76184777D01*
X100913057Y-76379995D01*
X100551265Y-76741155D01*
X100355223Y-77213276D01*
X100354777Y-77724481D01*
X100549995Y-78196943D01*
X100584846Y-78231855D01*
X99966937Y-80085078D01*
X99904614Y-80022646D01*
X99359147Y-79796148D01*
X98768524Y-79795632D01*
X98222663Y-80021178D01*
X97982705Y-80260717D01*
X97970252Y-80194533D01*
X97831180Y-79978409D01*
X97618980Y-79833419D01*
X97367090Y-79782410D01*
X96095192Y-79782410D01*
X96010000Y-79697218D01*
X96010000Y-72516298D01*
X96220853Y-72603852D01*
X96811476Y-72604368D01*
X97357337Y-72378822D01*
X97597295Y-72139283D01*
X97609748Y-72205467D01*
X97748820Y-72421591D01*
X97961020Y-72566581D01*
X98212910Y-72617590D01*
X99484808Y-72617590D01*
X101064619Y-74197401D01*
X101311181Y-74362148D01*
X101602020Y-74420000D01*
X107770588Y-74420000D01*
X110150117Y-75609765D01*
X110175719Y-75616776D01*
X110197757Y-75631565D01*
X110317915Y-75655716D01*
X110436124Y-75688087D01*
X110462456Y-75684768D01*
X110464055Y-75685089D01*
X110500138Y-75772417D01*
X110917406Y-76190414D01*
X111462873Y-76416912D01*
X112053496Y-76417428D01*
X112599357Y-76191882D01*
X113017354Y-75774614D01*
X113243852Y-75229147D01*
X113243861Y-75218290D01*
X120434850Y-75218290D01*
X120434850Y-75908480D01*
X120531523Y-76141869D01*
X120710152Y-76320497D01*
X120943541Y-76417170D01*
X121633730Y-76417170D01*
X121792480Y-76258420D01*
X121792480Y-75059540D01*
X122046480Y-75059540D01*
X122046480Y-76258420D01*
X122205230Y-76417170D01*
X122895419Y-76417170D01*
X123128808Y-76320497D01*
X123307437Y-76141869D01*
X123404110Y-75908480D01*
X123404110Y-75218290D01*
X123245360Y-75059540D01*
X122046480Y-75059540D01*
X121792480Y-75059540D01*
X120593600Y-75059540D01*
X120434850Y-75218290D01*
X113243861Y-75218290D01*
X113244229Y-74797340D01*
X114365029Y-73956600D01*
X120434850Y-73956600D01*
X120434850Y-74646790D01*
X120593600Y-74805540D01*
X121792480Y-74805540D01*
X121792480Y-73606660D01*
X122046480Y-73606660D01*
X122046480Y-74805540D01*
X123245360Y-74805540D01*
X123404110Y-74646790D01*
X123404110Y-73956600D01*
X123307437Y-73723211D01*
X123128808Y-73544583D01*
X122895419Y-73447910D01*
X122205230Y-73447910D01*
X122046480Y-73606660D01*
X121792480Y-73606660D01*
X121633730Y-73447910D01*
X120943541Y-73447910D01*
X120710152Y-73544583D01*
X120531523Y-73723211D01*
X120434850Y-73956600D01*
X114365029Y-73956600D01*
X116501302Y-72354129D01*
X116623276Y-72404777D01*
X117134481Y-72405223D01*
X117606943Y-72210005D01*
X117968735Y-71848845D01*
X118082560Y-71574724D01*
X118082560Y-71770000D01*
X118126838Y-72005317D01*
X118265910Y-72221441D01*
X118478110Y-72366431D01*
X118730000Y-72417440D01*
X120030000Y-72417440D01*
X120265317Y-72373162D01*
X120481441Y-72234090D01*
X120626431Y-72021890D01*
X120677440Y-71770000D01*
X120677440Y-70897362D01*
X123727401Y-67847401D01*
X123750000Y-67813579D01*
X123750000Y-83110000D01*
X117538500Y-83110000D01*
X117538500Y-81565750D01*
X117379750Y-81407000D01*
X116141500Y-81407000D01*
X116141500Y-81427000D01*
X115887500Y-81427000D01*
X115887500Y-81407000D01*
X114649250Y-81407000D01*
X114490500Y-81565750D01*
X114490500Y-83110000D01*
X113042440Y-83110000D01*
X113042440Y-78740000D01*
X113018674Y-78613690D01*
X114490500Y-78613690D01*
X114490500Y-80994250D01*
X114649250Y-81153000D01*
X115887500Y-81153000D01*
X115887500Y-78263750D01*
X116141500Y-78263750D01*
X116141500Y-81153000D01*
X117379750Y-81153000D01*
X117538500Y-80994250D01*
X117538500Y-78994000D01*
X117716560Y-78994000D01*
X117716560Y-81026000D01*
X117760838Y-81261317D01*
X117899910Y-81477441D01*
X118112110Y-81622431D01*
X118364000Y-81673440D01*
X120396000Y-81673440D01*
X120631317Y-81629162D01*
X120847441Y-81490090D01*
X120947856Y-81343128D01*
X120951621Y-81347188D01*
X121537054Y-81615983D01*
X121793000Y-81497367D01*
X121793000Y-80137000D01*
X122047000Y-80137000D01*
X122047000Y-81497367D01*
X122302946Y-81615983D01*
X122888379Y-81347188D01*
X123326385Y-80874818D01*
X123525975Y-80392944D01*
X123406836Y-80137000D01*
X122047000Y-80137000D01*
X121793000Y-80137000D01*
X121773000Y-80137000D01*
X121773000Y-79883000D01*
X121793000Y-79883000D01*
X121793000Y-78522633D01*
X122047000Y-78522633D01*
X122047000Y-79883000D01*
X123406836Y-79883000D01*
X123525975Y-79627056D01*
X123326385Y-79145182D01*
X122888379Y-78672812D01*
X122302946Y-78404017D01*
X122047000Y-78522633D01*
X121793000Y-78522633D01*
X121537054Y-78404017D01*
X120951621Y-78672812D01*
X120947066Y-78677724D01*
X120860090Y-78542559D01*
X120647890Y-78397569D01*
X120396000Y-78346560D01*
X118364000Y-78346560D01*
X118128683Y-78390838D01*
X117912559Y-78529910D01*
X117767569Y-78742110D01*
X117716560Y-78994000D01*
X117538500Y-78994000D01*
X117538500Y-78613690D01*
X117441827Y-78380301D01*
X117263198Y-78201673D01*
X117029809Y-78105000D01*
X116300250Y-78105000D01*
X116141500Y-78263750D01*
X115887500Y-78263750D01*
X115728750Y-78105000D01*
X114999191Y-78105000D01*
X114765802Y-78201673D01*
X114587173Y-78380301D01*
X114490500Y-78613690D01*
X113018674Y-78613690D01*
X112998162Y-78504683D01*
X112859090Y-78288559D01*
X112646890Y-78143569D01*
X112520000Y-78117873D01*
X112520000Y-78032463D01*
X112552192Y-78000327D01*
X112694838Y-77656799D01*
X112695162Y-77284833D01*
X112553117Y-76941057D01*
X112290327Y-76677808D01*
X111946799Y-76535162D01*
X111574833Y-76534838D01*
X111231057Y-76676883D01*
X110967808Y-76939673D01*
X110825162Y-77283201D01*
X110824838Y-77655167D01*
X110966883Y-77998943D01*
X111000000Y-78032118D01*
X111000000Y-78116080D01*
X110889683Y-78136838D01*
X110673559Y-78275910D01*
X110528569Y-78488110D01*
X110477560Y-78740000D01*
X110477560Y-83110000D01*
X109029500Y-83110000D01*
X109029500Y-81565750D01*
X108870750Y-81407000D01*
X107632500Y-81407000D01*
X107632500Y-81427000D01*
X107378500Y-81427000D01*
X107378500Y-81407000D01*
X106140250Y-81407000D01*
X105981500Y-81565750D01*
X105981500Y-83110000D01*
X71830000Y-83110000D01*
X71830000Y-38100000D01*
X71976655Y-38100000D01*
X72090729Y-38673489D01*
X72415585Y-39159670D01*
X72730366Y-39370000D01*
X72415585Y-39580330D01*
X72090729Y-40066511D01*
X71976655Y-40640000D01*
X72090729Y-41213489D01*
X72415585Y-41699670D01*
X72730366Y-41910000D01*
X72415585Y-42120330D01*
X72090729Y-42606511D01*
X71976655Y-43180000D01*
X72090729Y-43753489D01*
X72415585Y-44239670D01*
X72730366Y-44450000D01*
X72415585Y-44660330D01*
X72090729Y-45146511D01*
X71976655Y-45720000D01*
X72090729Y-46293489D01*
X72415585Y-46779670D01*
X72730366Y-46990000D01*
X72415585Y-47200330D01*
X72090729Y-47686511D01*
X71976655Y-48260000D01*
X72090729Y-48833489D01*
X72415585Y-49319670D01*
X72730366Y-49530000D01*
X72415585Y-49740330D01*
X72090729Y-50226511D01*
X71976655Y-50800000D01*
X72090729Y-51373489D01*
X72415585Y-51859670D01*
X72730366Y-52070000D01*
X72415585Y-52280330D01*
X72090729Y-52766511D01*
X71976655Y-53340000D01*
X72090729Y-53913489D01*
X72415585Y-54399670D01*
X72730366Y-54610000D01*
X72415585Y-54820330D01*
X72090729Y-55306511D01*
X71976655Y-55880000D01*
X72090729Y-56453489D01*
X72415585Y-56939670D01*
X72730366Y-57150000D01*
X72415585Y-57360330D01*
X72090729Y-57846511D01*
X71976655Y-58420000D01*
X72090729Y-58993489D01*
X72415585Y-59479670D01*
X72730366Y-59690000D01*
X72415585Y-59900330D01*
X72090729Y-60386511D01*
X71976655Y-60960000D01*
X72090729Y-61533489D01*
X72415585Y-62019670D01*
X72730366Y-62230000D01*
X72415585Y-62440330D01*
X72090729Y-62926511D01*
X71976655Y-63500000D01*
X72090729Y-64073489D01*
X72415585Y-64559670D01*
X72730366Y-64770000D01*
X72415585Y-64980330D01*
X72090729Y-65466511D01*
X71976655Y-66040000D01*
X72090729Y-66613489D01*
X72415585Y-67099670D01*
X72730366Y-67310000D01*
X72415585Y-67520330D01*
X72090729Y-68006511D01*
X71976655Y-68580000D01*
X72090729Y-69153489D01*
X72415585Y-69639670D01*
X72730366Y-69850000D01*
X72415585Y-70060330D01*
X72090729Y-70546511D01*
X71976655Y-71120000D01*
X72090729Y-71693489D01*
X72415585Y-72179670D01*
X72730366Y-72390000D01*
X72415585Y-72600330D01*
X72090729Y-73086511D01*
X71976655Y-73660000D01*
X72090729Y-74233489D01*
X72415585Y-74719670D01*
X72730366Y-74930000D01*
X72415585Y-75140330D01*
X72090729Y-75626511D01*
X71976655Y-76200000D01*
X72090729Y-76773489D01*
X72415585Y-77259670D01*
X72730366Y-77470000D01*
X72415585Y-77680330D01*
X72090729Y-78166511D01*
X71976655Y-78740000D01*
X72090729Y-79313489D01*
X72415585Y-79799670D01*
X72730366Y-80010000D01*
X72415585Y-80220330D01*
X72090729Y-80706511D01*
X71976655Y-81280000D01*
X72090729Y-81853489D01*
X72415585Y-82339670D01*
X72901766Y-82664526D01*
X73475255Y-82778600D01*
X73844745Y-82778600D01*
X74418234Y-82664526D01*
X74904415Y-82339670D01*
X75229271Y-81853489D01*
X75343345Y-81280000D01*
X75229271Y-80706511D01*
X74904415Y-80220330D01*
X74589634Y-80010000D01*
X74904415Y-79799670D01*
X75229271Y-79313489D01*
X75343345Y-78740000D01*
X75229271Y-78166511D01*
X75178148Y-78090000D01*
X83792560Y-78090000D01*
X83792560Y-79390000D01*
X83836838Y-79625317D01*
X83975910Y-79841441D01*
X84188110Y-79986431D01*
X84440000Y-80037440D01*
X84635460Y-80037440D01*
X84363057Y-80149995D01*
X84001265Y-80511155D01*
X83805223Y-80983276D01*
X83804777Y-81494481D01*
X83999995Y-81966943D01*
X84361155Y-82328735D01*
X84833276Y-82524777D01*
X85344481Y-82525223D01*
X85816943Y-82330005D01*
X86147525Y-82000000D01*
X88863451Y-82000000D01*
X88913198Y-82120397D01*
X89330466Y-82538394D01*
X89875933Y-82764892D01*
X90466556Y-82765408D01*
X91012417Y-82539862D01*
X91244151Y-82308532D01*
X91254668Y-82364427D01*
X91393740Y-82580551D01*
X91605940Y-82725541D01*
X91857830Y-82776550D01*
X93557090Y-82776550D01*
X93792407Y-82732272D01*
X94008531Y-82593200D01*
X94153521Y-82381000D01*
X94204530Y-82129110D01*
X94204530Y-80429850D01*
X94160252Y-80194533D01*
X94021180Y-79978409D01*
X93808980Y-79833419D01*
X93557090Y-79782410D01*
X93422694Y-79782410D01*
X93409608Y-79716621D01*
X93244861Y-79470059D01*
X91977401Y-78202599D01*
X91730839Y-78037852D01*
X91440000Y-77980000D01*
X86366742Y-77980000D01*
X86343162Y-77854683D01*
X86204090Y-77638559D01*
X85991890Y-77493569D01*
X85740000Y-77442560D01*
X84440000Y-77442560D01*
X84204683Y-77486838D01*
X83988559Y-77625910D01*
X83843569Y-77838110D01*
X83792560Y-78090000D01*
X75178148Y-78090000D01*
X74904415Y-77680330D01*
X74589634Y-77470000D01*
X74904415Y-77259670D01*
X75229271Y-76773489D01*
X75343345Y-76200000D01*
X75229271Y-75626511D01*
X74904415Y-75140330D01*
X74589634Y-74930000D01*
X74904415Y-74719670D01*
X75229271Y-74233489D01*
X75343345Y-73660000D01*
X75229271Y-73086511D01*
X74904415Y-72600330D01*
X74589634Y-72390000D01*
X74904415Y-72179670D01*
X75229271Y-71693489D01*
X75343345Y-71120000D01*
X75229271Y-70546511D01*
X74904415Y-70060330D01*
X74589634Y-69850000D01*
X74904415Y-69639670D01*
X75229271Y-69153489D01*
X75343345Y-68580000D01*
X75229271Y-68006511D01*
X74904415Y-67520330D01*
X74589634Y-67310000D01*
X74904415Y-67099670D01*
X75229271Y-66613489D01*
X75343345Y-66040000D01*
X75229271Y-65466511D01*
X74904415Y-64980330D01*
X74589634Y-64770000D01*
X74904415Y-64559670D01*
X75229271Y-64073489D01*
X75343345Y-63500000D01*
X75229271Y-62926511D01*
X74904415Y-62440330D01*
X74589634Y-62230000D01*
X74904415Y-62019670D01*
X75229271Y-61533489D01*
X75343345Y-60960000D01*
X75229271Y-60386511D01*
X74904415Y-59900330D01*
X74589634Y-59690000D01*
X74904415Y-59479670D01*
X75229271Y-58993489D01*
X75343345Y-58420000D01*
X75229271Y-57846511D01*
X74904415Y-57360330D01*
X74589634Y-57150000D01*
X74904415Y-56939670D01*
X75229271Y-56453489D01*
X75343345Y-55880000D01*
X75229271Y-55306511D01*
X74904415Y-54820330D01*
X74589634Y-54610000D01*
X74904415Y-54399670D01*
X75229271Y-53913489D01*
X75343345Y-53340000D01*
X75229271Y-52766511D01*
X74904415Y-52280330D01*
X74589634Y-52070000D01*
X74904415Y-51859670D01*
X75229271Y-51373489D01*
X75343345Y-50800000D01*
X75229271Y-50226511D01*
X74904415Y-49740330D01*
X74589634Y-49530000D01*
X74904415Y-49319670D01*
X75229271Y-48833489D01*
X75343345Y-48260000D01*
X75229271Y-47686511D01*
X74904415Y-47200330D01*
X74589634Y-46990000D01*
X74904415Y-46779670D01*
X75229271Y-46293489D01*
X75343345Y-45720000D01*
X75229271Y-45146511D01*
X74904415Y-44660330D01*
X74589634Y-44450000D01*
X74904415Y-44239670D01*
X75229271Y-43753489D01*
X75343345Y-43180000D01*
X75229271Y-42606511D01*
X74904415Y-42120330D01*
X74589634Y-41910000D01*
X74904415Y-41699670D01*
X75229271Y-41213489D01*
X75260233Y-41057830D01*
X75973450Y-41057830D01*
X75973450Y-42757090D01*
X76017728Y-42992407D01*
X76156800Y-43208531D01*
X76369000Y-43353521D01*
X76620890Y-43404530D01*
X76710520Y-43404530D01*
X76710520Y-46950520D01*
X76768372Y-47241359D01*
X76933119Y-47487921D01*
X82575182Y-53129984D01*
X82574777Y-53594481D01*
X82769995Y-54066943D01*
X83057460Y-54354911D01*
X83057460Y-57127133D01*
X82977583Y-57160138D01*
X82559586Y-57577406D01*
X82333088Y-58122873D01*
X82332572Y-58713496D01*
X82558118Y-59259357D01*
X82975386Y-59677354D01*
X83520853Y-59903852D01*
X84111476Y-59904368D01*
X84657337Y-59678822D01*
X84897295Y-59439283D01*
X84909748Y-59505467D01*
X85048820Y-59721591D01*
X85261020Y-59866581D01*
X85512910Y-59917590D01*
X87212170Y-59917590D01*
X87447487Y-59873312D01*
X87663611Y-59734240D01*
X87808601Y-59522040D01*
X87859610Y-59270150D01*
X87859610Y-57570890D01*
X87815332Y-57335573D01*
X87676260Y-57119449D01*
X87464060Y-56974459D01*
X87212170Y-56923450D01*
X87122540Y-56923450D01*
X87122540Y-54616264D01*
X87245317Y-54593162D01*
X87461441Y-54454090D01*
X87606431Y-54241890D01*
X87657440Y-53990000D01*
X87657440Y-52690000D01*
X87613162Y-52454683D01*
X87474090Y-52238559D01*
X87261890Y-52093569D01*
X87010000Y-52042560D01*
X85710000Y-52042560D01*
X85474683Y-52086838D01*
X85258559Y-52225910D01*
X85113569Y-52438110D01*
X85062560Y-52690000D01*
X85062560Y-52885460D01*
X84950005Y-52613057D01*
X84588845Y-52251265D01*
X84116724Y-52055223D01*
X83649617Y-52054815D01*
X78839283Y-47244481D01*
X82574777Y-47244481D01*
X82769995Y-47716943D01*
X83131155Y-48078735D01*
X83603276Y-48274777D01*
X84114481Y-48275223D01*
X84586943Y-48080005D01*
X84948735Y-47718845D01*
X85075000Y-47414765D01*
X85075000Y-47766310D01*
X85171673Y-47999699D01*
X85350302Y-48178327D01*
X85583691Y-48275000D01*
X86074250Y-48275000D01*
X86233000Y-48116250D01*
X86233000Y-47117000D01*
X86487000Y-47117000D01*
X86487000Y-48116250D01*
X86645750Y-48275000D01*
X87136309Y-48275000D01*
X87369698Y-48178327D01*
X87548327Y-47999699D01*
X87645000Y-47766310D01*
X87645000Y-47275750D01*
X87486250Y-47117000D01*
X86487000Y-47117000D01*
X86233000Y-47117000D01*
X86213000Y-47117000D01*
X86213000Y-46863000D01*
X86233000Y-46863000D01*
X86233000Y-45863750D01*
X86487000Y-45863750D01*
X86487000Y-46863000D01*
X87486250Y-46863000D01*
X87645000Y-46704250D01*
X87645000Y-46213690D01*
X87548327Y-45980301D01*
X87369698Y-45801673D01*
X87136309Y-45705000D01*
X86645750Y-45705000D01*
X86487000Y-45863750D01*
X86233000Y-45863750D01*
X86147026Y-45777776D01*
X88167921Y-43756881D01*
X88332668Y-43510319D01*
X88390520Y-43219480D01*
X88390520Y-43199807D01*
X88470397Y-43166802D01*
X88888394Y-42749534D01*
X89114892Y-42204067D01*
X89115408Y-41613444D01*
X88889862Y-41067583D01*
X88472594Y-40649586D01*
X87927127Y-40423088D01*
X87336504Y-40422572D01*
X86790643Y-40648118D01*
X86372646Y-41065386D01*
X86146148Y-41610853D01*
X86145632Y-42201476D01*
X86371178Y-42747337D01*
X86699233Y-43075965D01*
X84070016Y-45705182D01*
X83605519Y-45704777D01*
X83133057Y-45899995D01*
X82771265Y-46261155D01*
X82575223Y-46733276D01*
X82574777Y-47244481D01*
X78839283Y-47244481D01*
X78230520Y-46635718D01*
X78230520Y-43404530D01*
X78320150Y-43404530D01*
X78555467Y-43360252D01*
X78771591Y-43221180D01*
X78916581Y-43008980D01*
X78967590Y-42757090D01*
X78967590Y-41057830D01*
X78923312Y-40822513D01*
X78784240Y-40606389D01*
X78572040Y-40461399D01*
X78320150Y-40410390D01*
X76620890Y-40410390D01*
X76385573Y-40454668D01*
X76169449Y-40593740D01*
X76024459Y-40805940D01*
X75973450Y-41057830D01*
X75260233Y-41057830D01*
X75343345Y-40640000D01*
X75229271Y-40066511D01*
X74904415Y-39580330D01*
X74589634Y-39370000D01*
X74904415Y-39159670D01*
X75104648Y-38860000D01*
X85090000Y-38860000D01*
X85380839Y-38802148D01*
X85627401Y-38637401D01*
X86674802Y-37590000D01*
X100015198Y-37590000D01*
X104650000Y-42224802D01*
X104650000Y-44265504D01*
X104485345Y-44333538D01*
X104025154Y-44792927D01*
X103775794Y-45393453D01*
X103775226Y-46043694D01*
X104023538Y-46644655D01*
X104482927Y-47104846D01*
X105083453Y-47354206D01*
X105733694Y-47354774D01*
X106334655Y-47106462D01*
X106794846Y-46647073D01*
X107044206Y-46046547D01*
X107044774Y-45396306D01*
X106796462Y-44795345D01*
X106337073Y-44335154D01*
X106170000Y-44265779D01*
X106170000Y-41910000D01*
X106112148Y-41619161D01*
X105947401Y-41372599D01*
X103595763Y-39020961D01*
X111638096Y-39020961D01*
X111760085Y-39243000D01*
X112903000Y-39243000D01*
X112903000Y-38099371D01*
X113157000Y-38099371D01*
X113157000Y-39243000D01*
X114299915Y-39243000D01*
X114421904Y-39020961D01*
X114261041Y-38632577D01*
X113885134Y-38217611D01*
X113379041Y-37978086D01*
X113157000Y-38099371D01*
X112903000Y-38099371D01*
X112680959Y-37978086D01*
X112174866Y-38217611D01*
X111798959Y-38632577D01*
X111638096Y-39020961D01*
X103595763Y-39020961D01*
X100867401Y-36292599D01*
X100620839Y-36127852D01*
X100330000Y-36070000D01*
X86360000Y-36070000D01*
X86069160Y-36127852D01*
X85822599Y-36292599D01*
X84775198Y-37340000D01*
X75104648Y-37340000D01*
X74904415Y-37040330D01*
X74882220Y-37025500D01*
X75035699Y-36961927D01*
X75214327Y-36783298D01*
X75311000Y-36549909D01*
X75311000Y-35883694D01*
X103775226Y-35883694D01*
X104023538Y-36484655D01*
X104482927Y-36944846D01*
X105083453Y-37194206D01*
X105733694Y-37194774D01*
X106334655Y-36946462D01*
X106794846Y-36487073D01*
X106864221Y-36320000D01*
X107765504Y-36320000D01*
X107833538Y-36484655D01*
X108292927Y-36944846D01*
X108893453Y-37194206D01*
X109543694Y-37194774D01*
X110144655Y-36946462D01*
X110604846Y-36487073D01*
X110854206Y-35886547D01*
X110854774Y-35236306D01*
X110606462Y-34635345D01*
X110147073Y-34175154D01*
X109546547Y-33925794D01*
X108896306Y-33925226D01*
X108295345Y-34173538D01*
X107835154Y-34632927D01*
X107765779Y-34800000D01*
X106864496Y-34800000D01*
X106796462Y-34635345D01*
X106337073Y-34175154D01*
X105736547Y-33925794D01*
X105086306Y-33925226D01*
X104485345Y-34173538D01*
X104025154Y-34632927D01*
X103775794Y-35233453D01*
X103775226Y-35883694D01*
X75311000Y-35883694D01*
X75311000Y-35845750D01*
X75152250Y-35687000D01*
X73787000Y-35687000D01*
X73787000Y-35707000D01*
X73533000Y-35707000D01*
X73533000Y-35687000D01*
X72167750Y-35687000D01*
X72009000Y-35845750D01*
X72009000Y-36549909D01*
X72105673Y-36783298D01*
X72284301Y-36961927D01*
X72437780Y-37025500D01*
X72415585Y-37040330D01*
X72090729Y-37526511D01*
X71976655Y-38100000D01*
X71830000Y-38100000D01*
X71830000Y-34570091D01*
X72009000Y-34570091D01*
X72009000Y-35274250D01*
X72167750Y-35433000D01*
X73533000Y-35433000D01*
X73533000Y-34220150D01*
X73787000Y-34220150D01*
X73787000Y-35433000D01*
X75152250Y-35433000D01*
X75311000Y-35274250D01*
X75311000Y-34570091D01*
X75214327Y-34336702D01*
X75035699Y-34158073D01*
X74802310Y-34061400D01*
X73945750Y-34061400D01*
X73787000Y-34220150D01*
X73533000Y-34220150D01*
X73374250Y-34061400D01*
X72517690Y-34061400D01*
X72284301Y-34158073D01*
X72105673Y-34336702D01*
X72009000Y-34570091D01*
X71830000Y-34570091D01*
X71830000Y-32460000D01*
X123750000Y-32460000D01*
X123750000Y-65536421D01*
X123750000Y-65536421D01*
G37*
X123750000Y-65536421D02*
X123727401Y-65502599D01*
X121884861Y-63660059D01*
X121885214Y-63255421D01*
X121697592Y-62801343D01*
X121350485Y-62453629D01*
X120896734Y-62265215D01*
X120405421Y-62264786D01*
X119951343Y-62452408D01*
X119663248Y-62740000D01*
X114016356Y-62740000D01*
X113730485Y-62453629D01*
X113276734Y-62265215D01*
X112785421Y-62264786D01*
X112331343Y-62452408D01*
X111983629Y-62799515D01*
X111795215Y-63253266D01*
X111794969Y-63535030D01*
X111599662Y-63534860D01*
X109757401Y-61692599D01*
X109611333Y-61595000D01*
X109757401Y-61497401D01*
X111268917Y-59985885D01*
X111433453Y-60054206D01*
X112083694Y-60054774D01*
X112684655Y-59806462D01*
X113144846Y-59347073D01*
X113394206Y-58746547D01*
X113394208Y-58743694D01*
X120285226Y-58743694D01*
X120533538Y-59344655D01*
X120992927Y-59804846D01*
X121593453Y-60054206D01*
X122243694Y-60054774D01*
X122844655Y-59806462D01*
X123304846Y-59347073D01*
X123554206Y-58746547D01*
X123554774Y-58096306D01*
X123306462Y-57495345D01*
X122847073Y-57035154D01*
X122246547Y-56785794D01*
X121596306Y-56785226D01*
X120995345Y-57033538D01*
X120535154Y-57492927D01*
X120285794Y-58093453D01*
X120285226Y-58743694D01*
X113394208Y-58743694D01*
X113394774Y-58096306D01*
X113146462Y-57495345D01*
X112687073Y-57035154D01*
X112086547Y-56785794D01*
X111436306Y-56785226D01*
X110835345Y-57033538D01*
X110375154Y-57492927D01*
X110125794Y-58093453D01*
X110125226Y-58743694D01*
X110194309Y-58910889D01*
X108905198Y-60200000D01*
X107810636Y-60200000D01*
X107927807Y-59858964D01*
X107897482Y-59368587D01*
X107768164Y-59056383D01*
X107542735Y-59006870D01*
X106859605Y-59690000D01*
X106873748Y-59704143D01*
X106694143Y-59883748D01*
X106680000Y-59869605D01*
X106665858Y-59883748D01*
X106486253Y-59704143D01*
X106500395Y-59690000D01*
X105817265Y-59006870D01*
X105591836Y-59056383D01*
X105432193Y-59521036D01*
X105444808Y-59725030D01*
X105165421Y-59724786D01*
X104711343Y-59912408D01*
X104363629Y-60259515D01*
X104175215Y-60713266D01*
X104174786Y-61204579D01*
X104362408Y-61658657D01*
X104709515Y-62006371D01*
X105163266Y-62194785D01*
X105445030Y-62195031D01*
X105444860Y-62390338D01*
X102332599Y-65502599D01*
X102167852Y-65749161D01*
X102110000Y-66040000D01*
X102110000Y-69665504D01*
X101945345Y-69733538D01*
X101485154Y-70192927D01*
X101235794Y-70793453D01*
X101235226Y-71443694D01*
X101483538Y-72044655D01*
X101942927Y-72504846D01*
X102543453Y-72754206D01*
X103193694Y-72754774D01*
X103794655Y-72506462D01*
X104254846Y-72047073D01*
X104504206Y-71446547D01*
X104504774Y-70796306D01*
X104256462Y-70195345D01*
X103797073Y-69735154D01*
X103630000Y-69665779D01*
X103630000Y-66354802D01*
X106519941Y-63464861D01*
X106924579Y-63465214D01*
X107378657Y-63277592D01*
X107666752Y-62990000D01*
X108905198Y-62990000D01*
X110525139Y-64609941D01*
X110524786Y-65014579D01*
X110712408Y-65468657D01*
X111059515Y-65816371D01*
X111513266Y-66004785D01*
X111795030Y-66005031D01*
X111794786Y-66284579D01*
X111982408Y-66738657D01*
X112270000Y-67026752D01*
X112270000Y-69665504D01*
X112105345Y-69733538D01*
X111645154Y-70192927D01*
X111575779Y-70360000D01*
X106680000Y-70360000D01*
X106389160Y-70417852D01*
X106142599Y-70582599D01*
X105270320Y-71454878D01*
X105224833Y-71454838D01*
X104881057Y-71596883D01*
X104617808Y-71859673D01*
X104475162Y-72203201D01*
X104474838Y-72575167D01*
X104609056Y-72900000D01*
X101916822Y-72900000D01*
X100559610Y-71542788D01*
X100559610Y-70270890D01*
X100515332Y-70035573D01*
X100376260Y-69819449D01*
X100164060Y-69674459D01*
X99912170Y-69623450D01*
X99822540Y-69623450D01*
X99822540Y-67316264D01*
X99945317Y-67293162D01*
X100161441Y-67154090D01*
X100306431Y-66941890D01*
X100357440Y-66690000D01*
X100357440Y-65390000D01*
X100313162Y-65154683D01*
X100174090Y-64938559D01*
X99961890Y-64793569D01*
X99710000Y-64742560D01*
X98892242Y-64742560D01*
X102137401Y-61497401D01*
X102302148Y-61250840D01*
X102360000Y-60960000D01*
X102360000Y-58827265D01*
X105996870Y-58827265D01*
X106680000Y-59510395D01*
X107363130Y-58827265D01*
X107313617Y-58601836D01*
X106848964Y-58442193D01*
X106358587Y-58472518D01*
X106046383Y-58601836D01*
X105996870Y-58827265D01*
X102360000Y-58827265D01*
X102360000Y-53625750D01*
X105395000Y-53625750D01*
X105395000Y-54116310D01*
X105491673Y-54349699D01*
X105670302Y-54528327D01*
X105903691Y-54625000D01*
X106394250Y-54625000D01*
X106553000Y-54466250D01*
X106553000Y-53467000D01*
X105553750Y-53467000D01*
X105395000Y-53625750D01*
X102360000Y-53625750D01*
X102360000Y-52563690D01*
X105395000Y-52563690D01*
X105395000Y-53054250D01*
X105553750Y-53213000D01*
X106553000Y-53213000D01*
X106553000Y-52213750D01*
X106807000Y-52213750D01*
X106807000Y-53213000D01*
X106827000Y-53213000D01*
X106827000Y-53467000D01*
X106807000Y-53467000D01*
X106807000Y-54466250D01*
X106965750Y-54625000D01*
X107456309Y-54625000D01*
X107689698Y-54528327D01*
X107868327Y-54349699D01*
X107965000Y-54116310D01*
X107965000Y-53764433D01*
X108089995Y-54066943D01*
X108451155Y-54428735D01*
X108923276Y-54624777D01*
X109434481Y-54625223D01*
X109906943Y-54430005D01*
X110268735Y-54068845D01*
X110452724Y-53625750D01*
X114285000Y-53625750D01*
X114285000Y-54116310D01*
X114381673Y-54349699D01*
X114560302Y-54528327D01*
X114793691Y-54625000D01*
X115284250Y-54625000D01*
X115443000Y-54466250D01*
X115443000Y-53467000D01*
X114443750Y-53467000D01*
X114285000Y-53625750D01*
X110452724Y-53625750D01*
X110464777Y-53596724D01*
X110465223Y-53085519D01*
X110270005Y-52613057D01*
X110220725Y-52563690D01*
X114285000Y-52563690D01*
X114285000Y-53054250D01*
X114443750Y-53213000D01*
X115443000Y-53213000D01*
X115443000Y-52213750D01*
X115284250Y-52055000D01*
X114793691Y-52055000D01*
X114560302Y-52151673D01*
X114381673Y-52330301D01*
X114285000Y-52563690D01*
X110220725Y-52563690D01*
X109940000Y-52282475D01*
X109940000Y-47191024D01*
X110144655Y-47106462D01*
X110604846Y-46647073D01*
X110854206Y-46046547D01*
X110854774Y-45396306D01*
X110785691Y-45229111D01*
X111567405Y-44447397D01*
X111566887Y-44450000D01*
X111676120Y-44999151D01*
X111987189Y-45464698D01*
X112369275Y-45720000D01*
X111987189Y-45975302D01*
X111676120Y-46440849D01*
X111566887Y-46990000D01*
X111676120Y-47539151D01*
X111987189Y-48004698D01*
X112452736Y-48315767D01*
X113001887Y-48425000D01*
X113058113Y-48425000D01*
X113607264Y-48315767D01*
X114072811Y-48004698D01*
X114383880Y-47539151D01*
X114493113Y-46990000D01*
X114428688Y-46666114D01*
X119187405Y-41907397D01*
X119186887Y-41910000D01*
X119296120Y-42459151D01*
X119607189Y-42924698D01*
X119989275Y-43180000D01*
X119607189Y-43435302D01*
X119296120Y-43900849D01*
X119186887Y-44450000D01*
X119296120Y-44999151D01*
X119607189Y-45464698D01*
X119989275Y-45720000D01*
X119607189Y-45975302D01*
X119296120Y-46440849D01*
X119186887Y-46990000D01*
X119251312Y-47313886D01*
X117532599Y-49032599D01*
X117367852Y-49279161D01*
X117310000Y-49570000D01*
X117310000Y-52282994D01*
X116981265Y-52611155D01*
X116855000Y-52915235D01*
X116855000Y-52563690D01*
X116758327Y-52330301D01*
X116579698Y-52151673D01*
X116346309Y-52055000D01*
X115855750Y-52055000D01*
X115697000Y-52213750D01*
X115697000Y-53213000D01*
X115717000Y-53213000D01*
X115717000Y-53467000D01*
X115697000Y-53467000D01*
X115697000Y-54466250D01*
X115855750Y-54625000D01*
X116346309Y-54625000D01*
X116579698Y-54528327D01*
X116758327Y-54349699D01*
X116855000Y-54116310D01*
X116855000Y-53764433D01*
X116979995Y-54066943D01*
X117341155Y-54428735D01*
X117813276Y-54624777D01*
X118324481Y-54625223D01*
X118796943Y-54430005D01*
X119158735Y-54068845D01*
X119354777Y-53596724D01*
X119355223Y-53085519D01*
X119160005Y-52613057D01*
X118830000Y-52282475D01*
X118830000Y-49884802D01*
X120344898Y-48369904D01*
X120621887Y-48425000D01*
X120678113Y-48425000D01*
X121227264Y-48315767D01*
X121692811Y-48004698D01*
X122003880Y-47539151D01*
X122113113Y-46990000D01*
X122003880Y-46440849D01*
X121692811Y-45975302D01*
X121310725Y-45720000D01*
X121692811Y-45464698D01*
X122003880Y-44999151D01*
X122113113Y-44450000D01*
X122003880Y-43900849D01*
X121692811Y-43435302D01*
X121310725Y-43180000D01*
X121692811Y-42924698D01*
X122003880Y-42459151D01*
X122113113Y-41910000D01*
X122003880Y-41360849D01*
X121692811Y-40895302D01*
X121310725Y-40640000D01*
X121692811Y-40384698D01*
X122003880Y-39919151D01*
X122113113Y-39370000D01*
X122003880Y-38820849D01*
X121692811Y-38355302D01*
X121227264Y-38044233D01*
X120678113Y-37935000D01*
X120621887Y-37935000D01*
X120072736Y-38044233D01*
X119607189Y-38355302D01*
X119296120Y-38820849D01*
X119186887Y-39370000D01*
X119251312Y-39693886D01*
X114492595Y-44452603D01*
X114493113Y-44450000D01*
X114383880Y-43900849D01*
X114072811Y-43435302D01*
X113690725Y-43180000D01*
X114072811Y-42924698D01*
X114383880Y-42459151D01*
X114493113Y-41910000D01*
X114383880Y-41360849D01*
X114072811Y-40895302D01*
X113668297Y-40625014D01*
X113885134Y-40522389D01*
X114261041Y-40107423D01*
X114421904Y-39719039D01*
X114299915Y-39497000D01*
X113157000Y-39497000D01*
X113157000Y-39517000D01*
X112903000Y-39517000D01*
X112903000Y-39497000D01*
X111760085Y-39497000D01*
X111638096Y-39719039D01*
X111798959Y-40107423D01*
X112174866Y-40522389D01*
X112391703Y-40625014D01*
X111987189Y-40895302D01*
X111676120Y-41360849D01*
X111566887Y-41910000D01*
X111631312Y-42233886D01*
X109711083Y-44154115D01*
X109546547Y-44085794D01*
X108896306Y-44085226D01*
X108295345Y-44333538D01*
X107835154Y-44792927D01*
X107585794Y-45393453D01*
X107585226Y-46043694D01*
X107833538Y-46644655D01*
X108292927Y-47104846D01*
X108420000Y-47157611D01*
X108420000Y-52282994D01*
X108091265Y-52611155D01*
X107965000Y-52915235D01*
X107965000Y-52563690D01*
X107868327Y-52330301D01*
X107689698Y-52151673D01*
X107456309Y-52055000D01*
X106965750Y-52055000D01*
X106807000Y-52213750D01*
X106553000Y-52213750D01*
X106394250Y-52055000D01*
X105903691Y-52055000D01*
X105670302Y-52151673D01*
X105491673Y-52330301D01*
X105395000Y-52563690D01*
X102360000Y-52563690D01*
X102360000Y-46990000D01*
X102334738Y-46863000D01*
X102302148Y-46699160D01*
X102137401Y-46452599D01*
X100559610Y-44874808D01*
X100559610Y-43600890D01*
X100515332Y-43365573D01*
X100376260Y-43149449D01*
X100164060Y-43004459D01*
X99912170Y-42953450D01*
X99822540Y-42953450D01*
X99822540Y-40646264D01*
X99945317Y-40623162D01*
X100161441Y-40484090D01*
X100306431Y-40271890D01*
X100357440Y-40020000D01*
X100357440Y-38720000D01*
X100313162Y-38484683D01*
X100174090Y-38268559D01*
X99961890Y-38123569D01*
X99710000Y-38072560D01*
X98410000Y-38072560D01*
X98174683Y-38116838D01*
X97958559Y-38255910D01*
X97813569Y-38468110D01*
X97762560Y-38720000D01*
X97762560Y-38915460D01*
X97650005Y-38643057D01*
X97288845Y-38281265D01*
X96816724Y-38085223D01*
X96305519Y-38084777D01*
X95833057Y-38279995D01*
X95471265Y-38641155D01*
X95275223Y-39113276D01*
X95274777Y-39624481D01*
X95469995Y-40096943D01*
X95800000Y-40427525D01*
X95800000Y-41391455D01*
X95787401Y-41372599D01*
X94007440Y-39592638D01*
X94007440Y-38720000D01*
X93963162Y-38484683D01*
X93824090Y-38268559D01*
X93611890Y-38123569D01*
X93360000Y-38072560D01*
X92060000Y-38072560D01*
X91824683Y-38116838D01*
X91608559Y-38255910D01*
X91463569Y-38468110D01*
X91412560Y-38720000D01*
X91412560Y-38915460D01*
X91300005Y-38643057D01*
X90938845Y-38281265D01*
X90466724Y-38085223D01*
X89955519Y-38084777D01*
X89483057Y-38279995D01*
X89121265Y-38641155D01*
X88925223Y-39113276D01*
X88924777Y-39624481D01*
X89119995Y-40096943D01*
X89450000Y-40427525D01*
X89450000Y-43139556D01*
X89327583Y-43190138D01*
X88909586Y-43607406D01*
X88683088Y-44152873D01*
X88682572Y-44743496D01*
X88908118Y-45289357D01*
X89216710Y-45598488D01*
X88362599Y-46452599D01*
X88197852Y-46699161D01*
X88140000Y-46990000D01*
X88140000Y-64770000D01*
X88197852Y-65060839D01*
X88362599Y-65307401D01*
X88872560Y-65817362D01*
X88872560Y-66690000D01*
X88916838Y-66925317D01*
X89055910Y-67141441D01*
X89268110Y-67286431D01*
X89520000Y-67337440D01*
X90297758Y-67337440D01*
X89635139Y-68000059D01*
X89470392Y-68246621D01*
X89412540Y-68537460D01*
X89412540Y-69623450D01*
X89322910Y-69623450D01*
X89087593Y-69667728D01*
X88871469Y-69806800D01*
X88726479Y-70019000D01*
X88675470Y-70270890D01*
X88675470Y-70405079D01*
X88608641Y-70418372D01*
X88362079Y-70583119D01*
X86582638Y-72362560D01*
X85710000Y-72362560D01*
X85474683Y-72406838D01*
X85258559Y-72545910D01*
X85113569Y-72758110D01*
X85062560Y-73010000D01*
X85062560Y-73205460D01*
X84950005Y-72933057D01*
X84620000Y-72602475D01*
X84620000Y-70076550D01*
X84667090Y-70076550D01*
X84902407Y-70032272D01*
X85118531Y-69893200D01*
X85263521Y-69681000D01*
X85280356Y-69597865D01*
X85520466Y-69838394D01*
X86065933Y-70064892D01*
X86656556Y-70065408D01*
X87202417Y-69839862D01*
X87620414Y-69422594D01*
X87846912Y-68877127D01*
X87847428Y-68286504D01*
X87621882Y-67740643D01*
X87204614Y-67322646D01*
X86659147Y-67096148D01*
X86068524Y-67095632D01*
X85522663Y-67321178D01*
X85282705Y-67560717D01*
X85270252Y-67494533D01*
X85131180Y-67278409D01*
X84918980Y-67133419D01*
X84667090Y-67082410D01*
X82967830Y-67082410D01*
X82732513Y-67126688D01*
X82516389Y-67265760D01*
X82371399Y-67477960D01*
X82320390Y-67729850D01*
X82320390Y-69429110D01*
X82364668Y-69664427D01*
X82503740Y-69880551D01*
X82715940Y-70025541D01*
X82967830Y-70076550D01*
X83100000Y-70076550D01*
X83100000Y-72602994D01*
X82771265Y-72931155D01*
X82575223Y-73403276D01*
X82574777Y-73914481D01*
X82769995Y-74386943D01*
X83131155Y-74748735D01*
X83603276Y-74944777D01*
X84114481Y-74945223D01*
X84586943Y-74750005D01*
X84948735Y-74388845D01*
X85062560Y-74114724D01*
X85062560Y-74310000D01*
X85106838Y-74545317D01*
X85245910Y-74761441D01*
X85458110Y-74906431D01*
X85710000Y-74957440D01*
X87010000Y-74957440D01*
X87245317Y-74913162D01*
X87461441Y-74774090D01*
X87606431Y-74561890D01*
X87657440Y-74310000D01*
X87657440Y-73437362D01*
X88786147Y-72308655D01*
X88858820Y-72421591D01*
X89071020Y-72566581D01*
X89322910Y-72617590D01*
X91022170Y-72617590D01*
X91257487Y-72573312D01*
X91473611Y-72434240D01*
X91618601Y-72222040D01*
X91634073Y-72145637D01*
X91865386Y-72377354D01*
X92410853Y-72603852D01*
X93001476Y-72604368D01*
X93547337Y-72378822D01*
X93965334Y-71961554D01*
X94191832Y-71416087D01*
X94192348Y-70825464D01*
X93966802Y-70279603D01*
X93549534Y-69861606D01*
X93004067Y-69635108D01*
X92413444Y-69634592D01*
X91867583Y-69860138D01*
X91635849Y-70091468D01*
X91625332Y-70035573D01*
X91486260Y-69819449D01*
X91274060Y-69674459D01*
X91022170Y-69623450D01*
X90932540Y-69623450D01*
X90932540Y-68852262D01*
X92459984Y-67324818D01*
X92924481Y-67325223D01*
X93396943Y-67130005D01*
X93758735Y-66768845D01*
X93954777Y-66296724D01*
X93955223Y-65785519D01*
X93760005Y-65313057D01*
X93398845Y-64951265D01*
X92926724Y-64755223D01*
X92415519Y-64754777D01*
X91943057Y-64949995D01*
X91581265Y-65311155D01*
X91467440Y-65585276D01*
X91467440Y-65390000D01*
X91423162Y-65154683D01*
X91284090Y-64938559D01*
X91071890Y-64793569D01*
X90820000Y-64742560D01*
X89947362Y-64742560D01*
X89660000Y-64455198D01*
X89660000Y-60987440D01*
X90820000Y-60987440D01*
X91055317Y-60943162D01*
X91271441Y-60804090D01*
X91416431Y-60591890D01*
X91467440Y-60340000D01*
X91467440Y-60144540D01*
X91579995Y-60416943D01*
X91941155Y-60778735D01*
X92413276Y-60974777D01*
X92924481Y-60975223D01*
X93396943Y-60780005D01*
X93758735Y-60418845D01*
X93954777Y-59946724D01*
X93955223Y-59435519D01*
X93760005Y-58963057D01*
X93430000Y-58632475D01*
X93430000Y-55920444D01*
X93552417Y-55869862D01*
X93970414Y-55452594D01*
X94196912Y-54907127D01*
X94197428Y-54316504D01*
X93971882Y-53770643D01*
X93554614Y-53352646D01*
X93009147Y-53126148D01*
X92418524Y-53125632D01*
X91872663Y-53351178D01*
X91632705Y-53590717D01*
X91620252Y-53524533D01*
X91481180Y-53308409D01*
X91268980Y-53163419D01*
X91017090Y-53112410D01*
X89660000Y-53112410D01*
X89660000Y-47304802D01*
X90704861Y-46259941D01*
X90869608Y-46013379D01*
X90923280Y-45743554D01*
X91007337Y-45708822D01*
X91247295Y-45469283D01*
X91259748Y-45535467D01*
X91398820Y-45751591D01*
X91611020Y-45896581D01*
X91862910Y-45947590D01*
X93562170Y-45947590D01*
X93797487Y-45903312D01*
X94013611Y-45764240D01*
X94158601Y-45552040D01*
X94209610Y-45300150D01*
X94209610Y-43600890D01*
X94165332Y-43365573D01*
X94026260Y-43149449D01*
X93814060Y-43004459D01*
X93562170Y-42953450D01*
X91862910Y-42953450D01*
X91627593Y-42997728D01*
X91411469Y-43136800D01*
X91266479Y-43349000D01*
X91249644Y-43432135D01*
X91009534Y-43191606D01*
X90970000Y-43175190D01*
X90970000Y-40427006D01*
X91298735Y-40098845D01*
X91412560Y-39824724D01*
X91412560Y-40020000D01*
X91456838Y-40255317D01*
X91595910Y-40471441D01*
X91808110Y-40616431D01*
X92060000Y-40667440D01*
X92932638Y-40667440D01*
X94490000Y-42224802D01*
X94490000Y-48260000D01*
X94547852Y-48550839D01*
X94712599Y-48797401D01*
X95757460Y-49842262D01*
X95757460Y-53112410D01*
X95667830Y-53112410D01*
X95432513Y-53156688D01*
X95216389Y-53295760D01*
X95071399Y-53507960D01*
X95020390Y-53759850D01*
X95020390Y-55459110D01*
X95064668Y-55694427D01*
X95203740Y-55910551D01*
X95415940Y-56055541D01*
X95667830Y-56106550D01*
X97367090Y-56106550D01*
X97602407Y-56062272D01*
X97818531Y-55923200D01*
X97963521Y-55711000D01*
X97980356Y-55627865D01*
X98220466Y-55868394D01*
X98260000Y-55884810D01*
X98260000Y-58632994D01*
X97931265Y-58961155D01*
X97817440Y-59235276D01*
X97817440Y-59040000D01*
X97773162Y-58804683D01*
X97634090Y-58588559D01*
X97421890Y-58443569D01*
X97170000Y-58392560D01*
X95870000Y-58392560D01*
X95634683Y-58436838D01*
X95418559Y-58575910D01*
X95273569Y-58788110D01*
X95222560Y-59040000D01*
X95222560Y-60340000D01*
X95266838Y-60575317D01*
X95405910Y-60791441D01*
X95618110Y-60936431D01*
X95760000Y-60965164D01*
X95760000Y-61915198D01*
X94712599Y-62962599D01*
X94547852Y-63209161D01*
X94490000Y-63500000D01*
X94490000Y-80012020D01*
X94547852Y-80302859D01*
X94712599Y-80549421D01*
X95020390Y-80857212D01*
X95020390Y-82129110D01*
X95064668Y-82364427D01*
X95203740Y-82580551D01*
X95415940Y-82725541D01*
X95667830Y-82776550D01*
X97367090Y-82776550D01*
X97602407Y-82732272D01*
X97818531Y-82593200D01*
X97963521Y-82381000D01*
X97980356Y-82297865D01*
X98220466Y-82538394D01*
X98765933Y-82764892D01*
X99356556Y-82765408D01*
X99902417Y-82539862D01*
X100320414Y-82122594D01*
X100354494Y-82040520D01*
X100369480Y-82040520D01*
X100396233Y-82035199D01*
X100423293Y-82038612D01*
X100540812Y-82006440D01*
X100660319Y-81982668D01*
X100682998Y-81967514D01*
X100709307Y-81960312D01*
X100805571Y-81885614D01*
X100906881Y-81817921D01*
X100922035Y-81795241D01*
X100943584Y-81778520D01*
X101003937Y-81672666D01*
X101071628Y-81571359D01*
X101076949Y-81544609D01*
X101090460Y-81520912D01*
X102031483Y-78698615D01*
X102366943Y-78560005D01*
X102728735Y-78198845D01*
X102855000Y-77894765D01*
X102855000Y-78246310D01*
X102951673Y-78479699D01*
X103130302Y-78658327D01*
X103363691Y-78755000D01*
X103854250Y-78755000D01*
X104013000Y-78596250D01*
X104013000Y-77597000D01*
X104267000Y-77597000D01*
X104267000Y-78596250D01*
X104425750Y-78755000D01*
X104916309Y-78755000D01*
X105149698Y-78658327D01*
X105194335Y-78613690D01*
X105981500Y-78613690D01*
X105981500Y-80994250D01*
X106140250Y-81153000D01*
X107378500Y-81153000D01*
X107378500Y-78263750D01*
X107632500Y-78263750D01*
X107632500Y-81153000D01*
X108870750Y-81153000D01*
X109029500Y-80994250D01*
X109029500Y-78613690D01*
X108932827Y-78380301D01*
X108754198Y-78201673D01*
X108520809Y-78105000D01*
X107791250Y-78105000D01*
X107632500Y-78263750D01*
X107378500Y-78263750D01*
X107219750Y-78105000D01*
X106490191Y-78105000D01*
X106256802Y-78201673D01*
X106078173Y-78380301D01*
X105981500Y-78613690D01*
X105194335Y-78613690D01*
X105328327Y-78479699D01*
X105425000Y-78246310D01*
X105425000Y-77755750D01*
X105266250Y-77597000D01*
X104267000Y-77597000D01*
X104013000Y-77597000D01*
X103993000Y-77597000D01*
X103993000Y-77343000D01*
X104013000Y-77343000D01*
X104013000Y-76343750D01*
X104267000Y-76343750D01*
X104267000Y-77343000D01*
X105266250Y-77343000D01*
X105425000Y-77184250D01*
X105425000Y-76693690D01*
X105328327Y-76460301D01*
X105149698Y-76281673D01*
X104916309Y-76185000D01*
X104425750Y-76185000D01*
X104267000Y-76343750D01*
X104013000Y-76343750D01*
X103854250Y-76185000D01*
X103363691Y-76185000D01*
X103130302Y-76281673D01*
X102951673Y-76460301D01*
X102855000Y-76693690D01*
X102855000Y-77045567D01*
X102730005Y-76743057D01*
X102368845Y-76381265D01*
X101896724Y-76185223D01*
X101385519Y-76184777D01*
X100913057Y-76379995D01*
X100551265Y-76741155D01*
X100355223Y-77213276D01*
X100354777Y-77724481D01*
X100549995Y-78196943D01*
X100584846Y-78231855D01*
X99966937Y-80085078D01*
X99904614Y-80022646D01*
X99359147Y-79796148D01*
X98768524Y-79795632D01*
X98222663Y-80021178D01*
X97982705Y-80260717D01*
X97970252Y-80194533D01*
X97831180Y-79978409D01*
X97618980Y-79833419D01*
X97367090Y-79782410D01*
X96095192Y-79782410D01*
X96010000Y-79697218D01*
X96010000Y-72516298D01*
X96220853Y-72603852D01*
X96811476Y-72604368D01*
X97357337Y-72378822D01*
X97597295Y-72139283D01*
X97609748Y-72205467D01*
X97748820Y-72421591D01*
X97961020Y-72566581D01*
X98212910Y-72617590D01*
X99484808Y-72617590D01*
X101064619Y-74197401D01*
X101311181Y-74362148D01*
X101602020Y-74420000D01*
X107770588Y-74420000D01*
X110150117Y-75609765D01*
X110175719Y-75616776D01*
X110197757Y-75631565D01*
X110317915Y-75655716D01*
X110436124Y-75688087D01*
X110462456Y-75684768D01*
X110464055Y-75685089D01*
X110500138Y-75772417D01*
X110917406Y-76190414D01*
X111462873Y-76416912D01*
X112053496Y-76417428D01*
X112599357Y-76191882D01*
X113017354Y-75774614D01*
X113243852Y-75229147D01*
X113243861Y-75218290D01*
X120434850Y-75218290D01*
X120434850Y-75908480D01*
X120531523Y-76141869D01*
X120710152Y-76320497D01*
X120943541Y-76417170D01*
X121633730Y-76417170D01*
X121792480Y-76258420D01*
X121792480Y-75059540D01*
X122046480Y-75059540D01*
X122046480Y-76258420D01*
X122205230Y-76417170D01*
X122895419Y-76417170D01*
X123128808Y-76320497D01*
X123307437Y-76141869D01*
X123404110Y-75908480D01*
X123404110Y-75218290D01*
X123245360Y-75059540D01*
X122046480Y-75059540D01*
X121792480Y-75059540D01*
X120593600Y-75059540D01*
X120434850Y-75218290D01*
X113243861Y-75218290D01*
X113244229Y-74797340D01*
X114365029Y-73956600D01*
X120434850Y-73956600D01*
X120434850Y-74646790D01*
X120593600Y-74805540D01*
X121792480Y-74805540D01*
X121792480Y-73606660D01*
X122046480Y-73606660D01*
X122046480Y-74805540D01*
X123245360Y-74805540D01*
X123404110Y-74646790D01*
X123404110Y-73956600D01*
X123307437Y-73723211D01*
X123128808Y-73544583D01*
X122895419Y-73447910D01*
X122205230Y-73447910D01*
X122046480Y-73606660D01*
X121792480Y-73606660D01*
X121633730Y-73447910D01*
X120943541Y-73447910D01*
X120710152Y-73544583D01*
X120531523Y-73723211D01*
X120434850Y-73956600D01*
X114365029Y-73956600D01*
X116501302Y-72354129D01*
X116623276Y-72404777D01*
X117134481Y-72405223D01*
X117606943Y-72210005D01*
X117968735Y-71848845D01*
X118082560Y-71574724D01*
X118082560Y-71770000D01*
X118126838Y-72005317D01*
X118265910Y-72221441D01*
X118478110Y-72366431D01*
X118730000Y-72417440D01*
X120030000Y-72417440D01*
X120265317Y-72373162D01*
X120481441Y-72234090D01*
X120626431Y-72021890D01*
X120677440Y-71770000D01*
X120677440Y-70897362D01*
X123727401Y-67847401D01*
X123750000Y-67813579D01*
X123750000Y-83110000D01*
X117538500Y-83110000D01*
X117538500Y-81565750D01*
X117379750Y-81407000D01*
X116141500Y-81407000D01*
X116141500Y-81427000D01*
X115887500Y-81427000D01*
X115887500Y-81407000D01*
X114649250Y-81407000D01*
X114490500Y-81565750D01*
X114490500Y-83110000D01*
X113042440Y-83110000D01*
X113042440Y-78740000D01*
X113018674Y-78613690D01*
X114490500Y-78613690D01*
X114490500Y-80994250D01*
X114649250Y-81153000D01*
X115887500Y-81153000D01*
X115887500Y-78263750D01*
X116141500Y-78263750D01*
X116141500Y-81153000D01*
X117379750Y-81153000D01*
X117538500Y-80994250D01*
X117538500Y-78994000D01*
X117716560Y-78994000D01*
X117716560Y-81026000D01*
X117760838Y-81261317D01*
X117899910Y-81477441D01*
X118112110Y-81622431D01*
X118364000Y-81673440D01*
X120396000Y-81673440D01*
X120631317Y-81629162D01*
X120847441Y-81490090D01*
X120947856Y-81343128D01*
X120951621Y-81347188D01*
X121537054Y-81615983D01*
X121793000Y-81497367D01*
X121793000Y-80137000D01*
X122047000Y-80137000D01*
X122047000Y-81497367D01*
X122302946Y-81615983D01*
X122888379Y-81347188D01*
X123326385Y-80874818D01*
X123525975Y-80392944D01*
X123406836Y-80137000D01*
X122047000Y-80137000D01*
X121793000Y-80137000D01*
X121773000Y-80137000D01*
X121773000Y-79883000D01*
X121793000Y-79883000D01*
X121793000Y-78522633D01*
X122047000Y-78522633D01*
X122047000Y-79883000D01*
X123406836Y-79883000D01*
X123525975Y-79627056D01*
X123326385Y-79145182D01*
X122888379Y-78672812D01*
X122302946Y-78404017D01*
X122047000Y-78522633D01*
X121793000Y-78522633D01*
X121537054Y-78404017D01*
X120951621Y-78672812D01*
X120947066Y-78677724D01*
X120860090Y-78542559D01*
X120647890Y-78397569D01*
X120396000Y-78346560D01*
X118364000Y-78346560D01*
X118128683Y-78390838D01*
X117912559Y-78529910D01*
X117767569Y-78742110D01*
X117716560Y-78994000D01*
X117538500Y-78994000D01*
X117538500Y-78613690D01*
X117441827Y-78380301D01*
X117263198Y-78201673D01*
X117029809Y-78105000D01*
X116300250Y-78105000D01*
X116141500Y-78263750D01*
X115887500Y-78263750D01*
X115728750Y-78105000D01*
X114999191Y-78105000D01*
X114765802Y-78201673D01*
X114587173Y-78380301D01*
X114490500Y-78613690D01*
X113018674Y-78613690D01*
X112998162Y-78504683D01*
X112859090Y-78288559D01*
X112646890Y-78143569D01*
X112520000Y-78117873D01*
X112520000Y-78032463D01*
X112552192Y-78000327D01*
X112694838Y-77656799D01*
X112695162Y-77284833D01*
X112553117Y-76941057D01*
X112290327Y-76677808D01*
X111946799Y-76535162D01*
X111574833Y-76534838D01*
X111231057Y-76676883D01*
X110967808Y-76939673D01*
X110825162Y-77283201D01*
X110824838Y-77655167D01*
X110966883Y-77998943D01*
X111000000Y-78032118D01*
X111000000Y-78116080D01*
X110889683Y-78136838D01*
X110673559Y-78275910D01*
X110528569Y-78488110D01*
X110477560Y-78740000D01*
X110477560Y-83110000D01*
X109029500Y-83110000D01*
X109029500Y-81565750D01*
X108870750Y-81407000D01*
X107632500Y-81407000D01*
X107632500Y-81427000D01*
X107378500Y-81427000D01*
X107378500Y-81407000D01*
X106140250Y-81407000D01*
X105981500Y-81565750D01*
X105981500Y-83110000D01*
X71830000Y-83110000D01*
X71830000Y-38100000D01*
X71976655Y-38100000D01*
X72090729Y-38673489D01*
X72415585Y-39159670D01*
X72730366Y-39370000D01*
X72415585Y-39580330D01*
X72090729Y-40066511D01*
X71976655Y-40640000D01*
X72090729Y-41213489D01*
X72415585Y-41699670D01*
X72730366Y-41910000D01*
X72415585Y-42120330D01*
X72090729Y-42606511D01*
X71976655Y-43180000D01*
X72090729Y-43753489D01*
X72415585Y-44239670D01*
X72730366Y-44450000D01*
X72415585Y-44660330D01*
X72090729Y-45146511D01*
X71976655Y-45720000D01*
X72090729Y-46293489D01*
X72415585Y-46779670D01*
X72730366Y-46990000D01*
X72415585Y-47200330D01*
X72090729Y-47686511D01*
X71976655Y-48260000D01*
X72090729Y-48833489D01*
X72415585Y-49319670D01*
X72730366Y-49530000D01*
X72415585Y-49740330D01*
X72090729Y-50226511D01*
X71976655Y-50800000D01*
X72090729Y-51373489D01*
X72415585Y-51859670D01*
X72730366Y-52070000D01*
X72415585Y-52280330D01*
X72090729Y-52766511D01*
X71976655Y-53340000D01*
X72090729Y-53913489D01*
X72415585Y-54399670D01*
X72730366Y-54610000D01*
X72415585Y-54820330D01*
X72090729Y-55306511D01*
X71976655Y-55880000D01*
X72090729Y-56453489D01*
X72415585Y-56939670D01*
X72730366Y-57150000D01*
X72415585Y-57360330D01*
X72090729Y-57846511D01*
X71976655Y-58420000D01*
X72090729Y-58993489D01*
X72415585Y-59479670D01*
X72730366Y-59690000D01*
X72415585Y-59900330D01*
X72090729Y-60386511D01*
X71976655Y-60960000D01*
X72090729Y-61533489D01*
X72415585Y-62019670D01*
X72730366Y-62230000D01*
X72415585Y-62440330D01*
X72090729Y-62926511D01*
X71976655Y-63500000D01*
X72090729Y-64073489D01*
X72415585Y-64559670D01*
X72730366Y-64770000D01*
X72415585Y-64980330D01*
X72090729Y-65466511D01*
X71976655Y-66040000D01*
X72090729Y-66613489D01*
X72415585Y-67099670D01*
X72730366Y-67310000D01*
X72415585Y-67520330D01*
X72090729Y-68006511D01*
X71976655Y-68580000D01*
X72090729Y-69153489D01*
X72415585Y-69639670D01*
X72730366Y-69850000D01*
X72415585Y-70060330D01*
X72090729Y-70546511D01*
X71976655Y-71120000D01*
X72090729Y-71693489D01*
X72415585Y-72179670D01*
X72730366Y-72390000D01*
X72415585Y-72600330D01*
X72090729Y-73086511D01*
X71976655Y-73660000D01*
X72090729Y-74233489D01*
X72415585Y-74719670D01*
X72730366Y-74930000D01*
X72415585Y-75140330D01*
X72090729Y-75626511D01*
X71976655Y-76200000D01*
X72090729Y-76773489D01*
X72415585Y-77259670D01*
X72730366Y-77470000D01*
X72415585Y-77680330D01*
X72090729Y-78166511D01*
X71976655Y-78740000D01*
X72090729Y-79313489D01*
X72415585Y-79799670D01*
X72730366Y-80010000D01*
X72415585Y-80220330D01*
X72090729Y-80706511D01*
X71976655Y-81280000D01*
X72090729Y-81853489D01*
X72415585Y-82339670D01*
X72901766Y-82664526D01*
X73475255Y-82778600D01*
X73844745Y-82778600D01*
X74418234Y-82664526D01*
X74904415Y-82339670D01*
X75229271Y-81853489D01*
X75343345Y-81280000D01*
X75229271Y-80706511D01*
X74904415Y-80220330D01*
X74589634Y-80010000D01*
X74904415Y-79799670D01*
X75229271Y-79313489D01*
X75343345Y-78740000D01*
X75229271Y-78166511D01*
X75178148Y-78090000D01*
X83792560Y-78090000D01*
X83792560Y-79390000D01*
X83836838Y-79625317D01*
X83975910Y-79841441D01*
X84188110Y-79986431D01*
X84440000Y-80037440D01*
X84635460Y-80037440D01*
X84363057Y-80149995D01*
X84001265Y-80511155D01*
X83805223Y-80983276D01*
X83804777Y-81494481D01*
X83999995Y-81966943D01*
X84361155Y-82328735D01*
X84833276Y-82524777D01*
X85344481Y-82525223D01*
X85816943Y-82330005D01*
X86147525Y-82000000D01*
X88863451Y-82000000D01*
X88913198Y-82120397D01*
X89330466Y-82538394D01*
X89875933Y-82764892D01*
X90466556Y-82765408D01*
X91012417Y-82539862D01*
X91244151Y-82308532D01*
X91254668Y-82364427D01*
X91393740Y-82580551D01*
X91605940Y-82725541D01*
X91857830Y-82776550D01*
X93557090Y-82776550D01*
X93792407Y-82732272D01*
X94008531Y-82593200D01*
X94153521Y-82381000D01*
X94204530Y-82129110D01*
X94204530Y-80429850D01*
X94160252Y-80194533D01*
X94021180Y-79978409D01*
X93808980Y-79833419D01*
X93557090Y-79782410D01*
X93422694Y-79782410D01*
X93409608Y-79716621D01*
X93244861Y-79470059D01*
X91977401Y-78202599D01*
X91730839Y-78037852D01*
X91440000Y-77980000D01*
X86366742Y-77980000D01*
X86343162Y-77854683D01*
X86204090Y-77638559D01*
X85991890Y-77493569D01*
X85740000Y-77442560D01*
X84440000Y-77442560D01*
X84204683Y-77486838D01*
X83988559Y-77625910D01*
X83843569Y-77838110D01*
X83792560Y-78090000D01*
X75178148Y-78090000D01*
X74904415Y-77680330D01*
X74589634Y-77470000D01*
X74904415Y-77259670D01*
X75229271Y-76773489D01*
X75343345Y-76200000D01*
X75229271Y-75626511D01*
X74904415Y-75140330D01*
X74589634Y-74930000D01*
X74904415Y-74719670D01*
X75229271Y-74233489D01*
X75343345Y-73660000D01*
X75229271Y-73086511D01*
X74904415Y-72600330D01*
X74589634Y-72390000D01*
X74904415Y-72179670D01*
X75229271Y-71693489D01*
X75343345Y-71120000D01*
X75229271Y-70546511D01*
X74904415Y-70060330D01*
X74589634Y-69850000D01*
X74904415Y-69639670D01*
X75229271Y-69153489D01*
X75343345Y-68580000D01*
X75229271Y-68006511D01*
X74904415Y-67520330D01*
X74589634Y-67310000D01*
X74904415Y-67099670D01*
X75229271Y-66613489D01*
X75343345Y-66040000D01*
X75229271Y-65466511D01*
X74904415Y-64980330D01*
X74589634Y-64770000D01*
X74904415Y-64559670D01*
X75229271Y-64073489D01*
X75343345Y-63500000D01*
X75229271Y-62926511D01*
X74904415Y-62440330D01*
X74589634Y-62230000D01*
X74904415Y-62019670D01*
X75229271Y-61533489D01*
X75343345Y-60960000D01*
X75229271Y-60386511D01*
X74904415Y-59900330D01*
X74589634Y-59690000D01*
X74904415Y-59479670D01*
X75229271Y-58993489D01*
X75343345Y-58420000D01*
X75229271Y-57846511D01*
X74904415Y-57360330D01*
X74589634Y-57150000D01*
X74904415Y-56939670D01*
X75229271Y-56453489D01*
X75343345Y-55880000D01*
X75229271Y-55306511D01*
X74904415Y-54820330D01*
X74589634Y-54610000D01*
X74904415Y-54399670D01*
X75229271Y-53913489D01*
X75343345Y-53340000D01*
X75229271Y-52766511D01*
X74904415Y-52280330D01*
X74589634Y-52070000D01*
X74904415Y-51859670D01*
X75229271Y-51373489D01*
X75343345Y-50800000D01*
X75229271Y-50226511D01*
X74904415Y-49740330D01*
X74589634Y-49530000D01*
X74904415Y-49319670D01*
X75229271Y-48833489D01*
X75343345Y-48260000D01*
X75229271Y-47686511D01*
X74904415Y-47200330D01*
X74589634Y-46990000D01*
X74904415Y-46779670D01*
X75229271Y-46293489D01*
X75343345Y-45720000D01*
X75229271Y-45146511D01*
X74904415Y-44660330D01*
X74589634Y-44450000D01*
X74904415Y-44239670D01*
X75229271Y-43753489D01*
X75343345Y-43180000D01*
X75229271Y-42606511D01*
X74904415Y-42120330D01*
X74589634Y-41910000D01*
X74904415Y-41699670D01*
X75229271Y-41213489D01*
X75260233Y-41057830D01*
X75973450Y-41057830D01*
X75973450Y-42757090D01*
X76017728Y-42992407D01*
X76156800Y-43208531D01*
X76369000Y-43353521D01*
X76620890Y-43404530D01*
X76710520Y-43404530D01*
X76710520Y-46950520D01*
X76768372Y-47241359D01*
X76933119Y-47487921D01*
X82575182Y-53129984D01*
X82574777Y-53594481D01*
X82769995Y-54066943D01*
X83057460Y-54354911D01*
X83057460Y-57127133D01*
X82977583Y-57160138D01*
X82559586Y-57577406D01*
X82333088Y-58122873D01*
X82332572Y-58713496D01*
X82558118Y-59259357D01*
X82975386Y-59677354D01*
X83520853Y-59903852D01*
X84111476Y-59904368D01*
X84657337Y-59678822D01*
X84897295Y-59439283D01*
X84909748Y-59505467D01*
X85048820Y-59721591D01*
X85261020Y-59866581D01*
X85512910Y-59917590D01*
X87212170Y-59917590D01*
X87447487Y-59873312D01*
X87663611Y-59734240D01*
X87808601Y-59522040D01*
X87859610Y-59270150D01*
X87859610Y-57570890D01*
X87815332Y-57335573D01*
X87676260Y-57119449D01*
X87464060Y-56974459D01*
X87212170Y-56923450D01*
X87122540Y-56923450D01*
X87122540Y-54616264D01*
X87245317Y-54593162D01*
X87461441Y-54454090D01*
X87606431Y-54241890D01*
X87657440Y-53990000D01*
X87657440Y-52690000D01*
X87613162Y-52454683D01*
X87474090Y-52238559D01*
X87261890Y-52093569D01*
X87010000Y-52042560D01*
X85710000Y-52042560D01*
X85474683Y-52086838D01*
X85258559Y-52225910D01*
X85113569Y-52438110D01*
X85062560Y-52690000D01*
X85062560Y-52885460D01*
X84950005Y-52613057D01*
X84588845Y-52251265D01*
X84116724Y-52055223D01*
X83649617Y-52054815D01*
X78839283Y-47244481D01*
X82574777Y-47244481D01*
X82769995Y-47716943D01*
X83131155Y-48078735D01*
X83603276Y-48274777D01*
X84114481Y-48275223D01*
X84586943Y-48080005D01*
X84948735Y-47718845D01*
X85075000Y-47414765D01*
X85075000Y-47766310D01*
X85171673Y-47999699D01*
X85350302Y-48178327D01*
X85583691Y-48275000D01*
X86074250Y-48275000D01*
X86233000Y-48116250D01*
X86233000Y-47117000D01*
X86487000Y-47117000D01*
X86487000Y-48116250D01*
X86645750Y-48275000D01*
X87136309Y-48275000D01*
X87369698Y-48178327D01*
X87548327Y-47999699D01*
X87645000Y-47766310D01*
X87645000Y-47275750D01*
X87486250Y-47117000D01*
X86487000Y-47117000D01*
X86233000Y-47117000D01*
X86213000Y-47117000D01*
X86213000Y-46863000D01*
X86233000Y-46863000D01*
X86233000Y-45863750D01*
X86487000Y-45863750D01*
X86487000Y-46863000D01*
X87486250Y-46863000D01*
X87645000Y-46704250D01*
X87645000Y-46213690D01*
X87548327Y-45980301D01*
X87369698Y-45801673D01*
X87136309Y-45705000D01*
X86645750Y-45705000D01*
X86487000Y-45863750D01*
X86233000Y-45863750D01*
X86147026Y-45777776D01*
X88167921Y-43756881D01*
X88332668Y-43510319D01*
X88390520Y-43219480D01*
X88390520Y-43199807D01*
X88470397Y-43166802D01*
X88888394Y-42749534D01*
X89114892Y-42204067D01*
X89115408Y-41613444D01*
X88889862Y-41067583D01*
X88472594Y-40649586D01*
X87927127Y-40423088D01*
X87336504Y-40422572D01*
X86790643Y-40648118D01*
X86372646Y-41065386D01*
X86146148Y-41610853D01*
X86145632Y-42201476D01*
X86371178Y-42747337D01*
X86699233Y-43075965D01*
X84070016Y-45705182D01*
X83605519Y-45704777D01*
X83133057Y-45899995D01*
X82771265Y-46261155D01*
X82575223Y-46733276D01*
X82574777Y-47244481D01*
X78839283Y-47244481D01*
X78230520Y-46635718D01*
X78230520Y-43404530D01*
X78320150Y-43404530D01*
X78555467Y-43360252D01*
X78771591Y-43221180D01*
X78916581Y-43008980D01*
X78967590Y-42757090D01*
X78967590Y-41057830D01*
X78923312Y-40822513D01*
X78784240Y-40606389D01*
X78572040Y-40461399D01*
X78320150Y-40410390D01*
X76620890Y-40410390D01*
X76385573Y-40454668D01*
X76169449Y-40593740D01*
X76024459Y-40805940D01*
X75973450Y-41057830D01*
X75260233Y-41057830D01*
X75343345Y-40640000D01*
X75229271Y-40066511D01*
X74904415Y-39580330D01*
X74589634Y-39370000D01*
X74904415Y-39159670D01*
X75104648Y-38860000D01*
X85090000Y-38860000D01*
X85380839Y-38802148D01*
X85627401Y-38637401D01*
X86674802Y-37590000D01*
X100015198Y-37590000D01*
X104650000Y-42224802D01*
X104650000Y-44265504D01*
X104485345Y-44333538D01*
X104025154Y-44792927D01*
X103775794Y-45393453D01*
X103775226Y-46043694D01*
X104023538Y-46644655D01*
X104482927Y-47104846D01*
X105083453Y-47354206D01*
X105733694Y-47354774D01*
X106334655Y-47106462D01*
X106794846Y-46647073D01*
X107044206Y-46046547D01*
X107044774Y-45396306D01*
X106796462Y-44795345D01*
X106337073Y-44335154D01*
X106170000Y-44265779D01*
X106170000Y-41910000D01*
X106112148Y-41619161D01*
X105947401Y-41372599D01*
X103595763Y-39020961D01*
X111638096Y-39020961D01*
X111760085Y-39243000D01*
X112903000Y-39243000D01*
X112903000Y-38099371D01*
X113157000Y-38099371D01*
X113157000Y-39243000D01*
X114299915Y-39243000D01*
X114421904Y-39020961D01*
X114261041Y-38632577D01*
X113885134Y-38217611D01*
X113379041Y-37978086D01*
X113157000Y-38099371D01*
X112903000Y-38099371D01*
X112680959Y-37978086D01*
X112174866Y-38217611D01*
X111798959Y-38632577D01*
X111638096Y-39020961D01*
X103595763Y-39020961D01*
X100867401Y-36292599D01*
X100620839Y-36127852D01*
X100330000Y-36070000D01*
X86360000Y-36070000D01*
X86069160Y-36127852D01*
X85822599Y-36292599D01*
X84775198Y-37340000D01*
X75104648Y-37340000D01*
X74904415Y-37040330D01*
X74882220Y-37025500D01*
X75035699Y-36961927D01*
X75214327Y-36783298D01*
X75311000Y-36549909D01*
X75311000Y-35883694D01*
X103775226Y-35883694D01*
X104023538Y-36484655D01*
X104482927Y-36944846D01*
X105083453Y-37194206D01*
X105733694Y-37194774D01*
X106334655Y-36946462D01*
X106794846Y-36487073D01*
X106864221Y-36320000D01*
X107765504Y-36320000D01*
X107833538Y-36484655D01*
X108292927Y-36944846D01*
X108893453Y-37194206D01*
X109543694Y-37194774D01*
X110144655Y-36946462D01*
X110604846Y-36487073D01*
X110854206Y-35886547D01*
X110854774Y-35236306D01*
X110606462Y-34635345D01*
X110147073Y-34175154D01*
X109546547Y-33925794D01*
X108896306Y-33925226D01*
X108295345Y-34173538D01*
X107835154Y-34632927D01*
X107765779Y-34800000D01*
X106864496Y-34800000D01*
X106796462Y-34635345D01*
X106337073Y-34175154D01*
X105736547Y-33925794D01*
X105086306Y-33925226D01*
X104485345Y-34173538D01*
X104025154Y-34632927D01*
X103775794Y-35233453D01*
X103775226Y-35883694D01*
X75311000Y-35883694D01*
X75311000Y-35845750D01*
X75152250Y-35687000D01*
X73787000Y-35687000D01*
X73787000Y-35707000D01*
X73533000Y-35707000D01*
X73533000Y-35687000D01*
X72167750Y-35687000D01*
X72009000Y-35845750D01*
X72009000Y-36549909D01*
X72105673Y-36783298D01*
X72284301Y-36961927D01*
X72437780Y-37025500D01*
X72415585Y-37040330D01*
X72090729Y-37526511D01*
X71976655Y-38100000D01*
X71830000Y-38100000D01*
X71830000Y-34570091D01*
X72009000Y-34570091D01*
X72009000Y-35274250D01*
X72167750Y-35433000D01*
X73533000Y-35433000D01*
X73533000Y-34220150D01*
X73787000Y-34220150D01*
X73787000Y-35433000D01*
X75152250Y-35433000D01*
X75311000Y-35274250D01*
X75311000Y-34570091D01*
X75214327Y-34336702D01*
X75035699Y-34158073D01*
X74802310Y-34061400D01*
X73945750Y-34061400D01*
X73787000Y-34220150D01*
X73533000Y-34220150D01*
X73374250Y-34061400D01*
X72517690Y-34061400D01*
X72284301Y-34158073D01*
X72105673Y-34336702D01*
X72009000Y-34570091D01*
X71830000Y-34570091D01*
X71830000Y-32460000D01*
X123750000Y-32460000D01*
X123750000Y-65536421D01*
G36*
X118679515Y-65816371D02*
X119133266Y-66004785D01*
X119410479Y-66005027D01*
X119432518Y-66361413D01*
X119561836Y-66673617D01*
X119787265Y-66723130D01*
X120470395Y-66040000D01*
X120456253Y-66025858D01*
X120635858Y-65846253D01*
X120650000Y-65860395D01*
X120664143Y-65846253D01*
X120843748Y-66025858D01*
X120829605Y-66040000D01*
X121512735Y-66723130D01*
X121738164Y-66673617D01*
X121897807Y-66208964D01*
X121872340Y-65797142D01*
X122430000Y-66354802D01*
X122430000Y-66995198D01*
X119602638Y-69822560D01*
X118730000Y-69822560D01*
X118494683Y-69866838D01*
X118278559Y-70005910D01*
X118133569Y-70218110D01*
X118082560Y-70470000D01*
X118082560Y-70665460D01*
X117970005Y-70393057D01*
X117608845Y-70031265D01*
X117136724Y-69835223D01*
X116625519Y-69834777D01*
X116153057Y-70029995D01*
X115791265Y-70391155D01*
X115595223Y-70863276D01*
X115594987Y-71133863D01*
X114431707Y-72006468D01*
X114664206Y-71446547D01*
X114664774Y-70796306D01*
X114416462Y-70195345D01*
X113957073Y-69735154D01*
X113790000Y-69665779D01*
X113790000Y-67026356D01*
X113913837Y-66902735D01*
X119966870Y-66902735D01*
X120016383Y-67128164D01*
X120481036Y-67287807D01*
X120971413Y-67257482D01*
X121283617Y-67128164D01*
X121333130Y-66902735D01*
X120650000Y-66219605D01*
X119966870Y-66902735D01*
X113913837Y-66902735D01*
X114076371Y-66740485D01*
X114264785Y-66286734D01*
X114265214Y-65795421D01*
X114155544Y-65530000D01*
X118393644Y-65530000D01*
X118679515Y-65816371D01*
X118679515Y-65816371D01*
G37*
X118679515Y-65816371D02*
X119133266Y-66004785D01*
X119410479Y-66005027D01*
X119432518Y-66361413D01*
X119561836Y-66673617D01*
X119787265Y-66723130D01*
X120470395Y-66040000D01*
X120456253Y-66025858D01*
X120635858Y-65846253D01*
X120650000Y-65860395D01*
X120664143Y-65846253D01*
X120843748Y-66025858D01*
X120829605Y-66040000D01*
X121512735Y-66723130D01*
X121738164Y-66673617D01*
X121897807Y-66208964D01*
X121872340Y-65797142D01*
X122430000Y-66354802D01*
X122430000Y-66995198D01*
X119602638Y-69822560D01*
X118730000Y-69822560D01*
X118494683Y-69866838D01*
X118278559Y-70005910D01*
X118133569Y-70218110D01*
X118082560Y-70470000D01*
X118082560Y-70665460D01*
X117970005Y-70393057D01*
X117608845Y-70031265D01*
X117136724Y-69835223D01*
X116625519Y-69834777D01*
X116153057Y-70029995D01*
X115791265Y-70391155D01*
X115595223Y-70863276D01*
X115594987Y-71133863D01*
X114431707Y-72006468D01*
X114664206Y-71446547D01*
X114664774Y-70796306D01*
X114416462Y-70195345D01*
X113957073Y-69735154D01*
X113790000Y-69665779D01*
X113790000Y-67026356D01*
X113913837Y-66902735D01*
X119966870Y-66902735D01*
X120016383Y-67128164D01*
X120481036Y-67287807D01*
X120971413Y-67257482D01*
X121283617Y-67128164D01*
X121333130Y-66902735D01*
X120650000Y-66219605D01*
X119966870Y-66902735D01*
X113913837Y-66902735D01*
X114076371Y-66740485D01*
X114264785Y-66286734D01*
X114265214Y-65795421D01*
X114155544Y-65530000D01*
X118393644Y-65530000D01*
X118679515Y-65816371D01*
M02*
