M48
INCH,TZ
T1C0.030
T2C0.031
T3C0.032
T4C0.040
%
G90
G05
T1
X25500Y-23000
X25500Y-24000
X25500Y-29000
X25500Y-30000
X25500Y-31000
X25500Y-33000
X31500Y-23000
X31500Y-24000
X31500Y-29000
X31500Y-30000
X31500Y-31000
X31500Y-33000
T2
X34000Y-35000
X34000Y-36378
T3
X34000Y-29000
X35000Y-28000
X35000Y-30000
T4
X23500Y-21500
X23500Y-22500
X23500Y-23500
X23500Y-24500
X23500Y-25500
X23500Y-26500
X23500Y-27500
X23500Y-28500
X23500Y-29500
X23500Y-30500
X23500Y-31500
X23500Y-32500
X23500Y-33500
X23500Y-34500
X23500Y-35500
X23500Y-36500
X23500Y-37500
X23500Y-38500
X23500Y-39500
X27500Y-39500
X28500Y-39500
T0
M30
