G04 #@! TF.FileFunction,Soldermask,Top*
%FSLAX46Y46*%
G04 Gerber Fmt 4.6, Leading zero omitted, Abs format (unit mm)*
G04 Created by KiCad (PCBNEW 4.0.4+e1-6308~48~ubuntu16.04.1-stable) date Fri Nov  4 19:46:32 2016*
%MOMM*%
%LPD*%
G01*
G04 APERTURE LIST*
%ADD10C,0.100000*%
%ADD11R,1.800000X1.800000*%
%ADD12C,1.800000*%
%ADD13R,1.670000X5.480000*%
%ADD14R,1.416000X5.480000*%
%ADD15R,2.100000X1.050000*%
%ADD16R,1.050000X2.100000*%
%ADD17C,1.700000*%
%ADD18R,1.700000X1.700000*%
%ADD19R,2.432000X2.432000*%
%ADD20O,2.432000X2.432000*%
%ADD21R,2.432000X2.127200*%
%ADD22O,2.432000X2.127200*%
%ADD23C,2.099260*%
%ADD24R,2.099260X2.099260*%
G04 APERTURE END LIST*
D10*
D11*
X64770000Y-88265000D03*
D12*
X64770000Y-93265000D03*
D11*
X82550000Y-88900000D03*
D12*
X87550000Y-88900000D03*
D11*
X82550000Y-96520000D03*
D12*
X87550000Y-96520000D03*
D13*
X79375000Y-128270000D03*
X88265000Y-128270000D03*
D14*
X83820000Y-128270000D03*
D13*
X79375000Y-81280000D03*
X70485000Y-81280000D03*
D14*
X74930000Y-81280000D03*
D13*
X98425000Y-81280000D03*
X89535000Y-81280000D03*
D14*
X93980000Y-81280000D03*
D15*
X71280000Y-90805000D03*
X71280000Y-92075000D03*
X71280000Y-93345000D03*
X71280000Y-94615000D03*
X78580000Y-94615000D03*
X78580000Y-93345000D03*
X78580000Y-92075000D03*
X78580000Y-90805000D03*
D16*
X97155000Y-89060000D03*
X95885000Y-89060000D03*
X94615000Y-89060000D03*
X93345000Y-89060000D03*
X93345000Y-96360000D03*
X94615000Y-96360000D03*
X95885000Y-96360000D03*
X97155000Y-96360000D03*
D17*
X68270000Y-125730000D03*
D18*
X64770000Y-125730000D03*
D19*
X73660000Y-127000000D03*
D20*
X76200000Y-127000000D03*
D19*
X67310000Y-82550000D03*
D20*
X64770000Y-82550000D03*
D19*
X86360000Y-82550000D03*
D20*
X83820000Y-82550000D03*
D11*
X77978000Y-99949000D03*
D12*
X72978000Y-99949000D03*
D21*
X59690000Y-82550000D03*
D22*
X59690000Y-85090000D03*
X59690000Y-87630000D03*
X59690000Y-90170000D03*
X59690000Y-92710000D03*
X59690000Y-95250000D03*
X59690000Y-97790000D03*
X59690000Y-100330000D03*
X59690000Y-102870000D03*
X59690000Y-105410000D03*
X59690000Y-107950000D03*
X59690000Y-110490000D03*
X59690000Y-113030000D03*
X59690000Y-115570000D03*
X59690000Y-118110000D03*
X59690000Y-120650000D03*
X59690000Y-123190000D03*
X59690000Y-125730000D03*
X59690000Y-128270000D03*
D23*
X90167460Y-104139480D03*
D24*
X90167460Y-114299480D03*
D23*
X93982540Y-114300520D03*
D24*
X93982540Y-104140520D03*
M02*
