G04 #@! TF.FileFunction,Soldermask,Top*
%FSLAX46Y46*%
G04 Gerber Fmt 4.6, Leading zero omitted, Abs format (unit mm)*
G04 Created by KiCad (PCBNEW 4.0.4+e1-6308~48~ubuntu16.04.1-stable) date Mon Oct 24 15:09:13 2016*
%MOMM*%
%LPD*%
G01*
G04 APERTURE LIST*
%ADD10C,0.100000*%
%ADD11R,2.432000X2.432000*%
%ADD12O,2.432000X2.432000*%
%ADD13R,2.127200X2.432000*%
%ADD14O,2.127200X2.432000*%
%ADD15R,1.670000X5.480000*%
%ADD16R,1.416000X5.480000*%
%ADD17R,2.432000X2.127200*%
%ADD18O,2.432000X2.127200*%
%ADD19C,1.700000*%
%ADD20R,1.700000X1.700000*%
G04 APERTURE END LIST*
D10*
D11*
X87630000Y-134620000D03*
D12*
X90170000Y-134620000D03*
D13*
X64770000Y-134620000D03*
D14*
X67310000Y-134620000D03*
X69850000Y-134620000D03*
X72390000Y-134620000D03*
X74930000Y-134620000D03*
X77470000Y-134620000D03*
X80010000Y-134620000D03*
X82550000Y-134620000D03*
D15*
X93345000Y-134620000D03*
X102235000Y-134620000D03*
D16*
X97790000Y-134620000D03*
D11*
X68580000Y-87630000D03*
D12*
X66040000Y-87630000D03*
D11*
X90170000Y-87630000D03*
D12*
X87630000Y-87630000D03*
D15*
X102235000Y-87630000D03*
X93345000Y-87630000D03*
D16*
X97790000Y-87630000D03*
D15*
X80645000Y-87630000D03*
X71755000Y-87630000D03*
D16*
X76200000Y-87630000D03*
D17*
X60960000Y-88900000D03*
D18*
X60960000Y-91440000D03*
X60960000Y-93980000D03*
X60960000Y-96520000D03*
X60960000Y-99060000D03*
X60960000Y-101600000D03*
X60960000Y-104140000D03*
X60960000Y-106680000D03*
X60960000Y-109220000D03*
X60960000Y-111760000D03*
X60960000Y-114300000D03*
X60960000Y-116840000D03*
X60960000Y-119380000D03*
X60960000Y-121920000D03*
X60960000Y-124460000D03*
X60960000Y-127000000D03*
X60960000Y-129540000D03*
X60960000Y-132080000D03*
X60960000Y-134620000D03*
D19*
X88590000Y-124460000D03*
D20*
X85090000Y-124460000D03*
M02*
