G04 #@! TF.FileFunction,Legend,Bot*
%FSLAX46Y46*%
G04 Gerber Fmt 4.6, Leading zero omitted, Abs format (unit mm)*
G04 Created by KiCad (PCBNEW 4.0.4+e1-6308~48~ubuntu16.04.1-stable) date Mon Oct 24 15:09:13 2016*
%MOMM*%
%LPD*%
G01*
G04 APERTURE LIST*
%ADD10C,0.100000*%
%ADD11C,0.300000*%
G04 APERTURE END LIST*
D10*
D11*
X83141429Y-117668570D02*
X84641429Y-117668570D01*
X84641429Y-117311427D01*
X84570000Y-117097142D01*
X84427143Y-116954284D01*
X84284286Y-116882856D01*
X83998571Y-116811427D01*
X83784286Y-116811427D01*
X83498571Y-116882856D01*
X83355714Y-116954284D01*
X83212857Y-117097142D01*
X83141429Y-117311427D01*
X83141429Y-117668570D01*
X83927143Y-115668570D02*
X83855714Y-115454284D01*
X83784286Y-115382856D01*
X83641429Y-115311427D01*
X83427143Y-115311427D01*
X83284286Y-115382856D01*
X83212857Y-115454284D01*
X83141429Y-115597142D01*
X83141429Y-116168570D01*
X84641429Y-116168570D01*
X84641429Y-115668570D01*
X84570000Y-115525713D01*
X84498571Y-115454284D01*
X84355714Y-115382856D01*
X84212857Y-115382856D01*
X84070000Y-115454284D01*
X83998571Y-115525713D01*
X83927143Y-115668570D01*
X83927143Y-116168570D01*
X82998571Y-115025713D02*
X82998571Y-113882856D01*
X83141429Y-113525713D02*
X84641429Y-113525713D01*
X84641429Y-112954285D01*
X84570000Y-112811427D01*
X84498571Y-112739999D01*
X84355714Y-112668570D01*
X84141429Y-112668570D01*
X83998571Y-112739999D01*
X83927143Y-112811427D01*
X83855714Y-112954285D01*
X83855714Y-113525713D01*
X84141429Y-111382856D02*
X83141429Y-111382856D01*
X84141429Y-112025713D02*
X83355714Y-112025713D01*
X83212857Y-111954285D01*
X83141429Y-111811427D01*
X83141429Y-111597142D01*
X83212857Y-111454285D01*
X83284286Y-111382856D01*
X83141429Y-110454284D02*
X83212857Y-110597142D01*
X83355714Y-110668570D01*
X84641429Y-110668570D01*
X83212857Y-109954285D02*
X83141429Y-109811428D01*
X83141429Y-109525713D01*
X83212857Y-109382856D01*
X83355714Y-109311428D01*
X83427143Y-109311428D01*
X83570000Y-109382856D01*
X83641429Y-109525713D01*
X83641429Y-109739999D01*
X83712857Y-109882856D01*
X83855714Y-109954285D01*
X83927143Y-109954285D01*
X84070000Y-109882856D01*
X84141429Y-109739999D01*
X84141429Y-109525713D01*
X84070000Y-109382856D01*
X83212857Y-108097142D02*
X83141429Y-108239999D01*
X83141429Y-108525713D01*
X83212857Y-108668570D01*
X83355714Y-108739999D01*
X83927143Y-108739999D01*
X84070000Y-108668570D01*
X84141429Y-108525713D01*
X84141429Y-108239999D01*
X84070000Y-108097142D01*
X83927143Y-108025713D01*
X83784286Y-108025713D01*
X83641429Y-108739999D01*
X83141429Y-107382856D02*
X84141429Y-107382856D01*
X83855714Y-107382856D02*
X83998571Y-107311428D01*
X84070000Y-107239999D01*
X84141429Y-107097142D01*
X84141429Y-106954285D01*
X82998571Y-106811428D02*
X82998571Y-105668571D01*
X84641429Y-105525714D02*
X83141429Y-105025714D01*
X84641429Y-104525714D01*
X84498571Y-104097143D02*
X84570000Y-104025714D01*
X84641429Y-103882857D01*
X84641429Y-103525714D01*
X84570000Y-103382857D01*
X84498571Y-103311428D01*
X84355714Y-103240000D01*
X84212857Y-103240000D01*
X83998571Y-103311428D01*
X83141429Y-104168571D01*
X83141429Y-103240000D01*
M02*
