G04 #@! TF.FileFunction,Copper,L2,Bot,Signal*
%FSLAX46Y46*%
G04 Gerber Fmt 4.6, Leading zero omitted, Abs format (unit mm)*
G04 Created by KiCad (PCBNEW 4.0.6-e0-6349~53~ubuntu16.04.1) date Thu Oct  5 16:52:19 2017*
%MOMM*%
%LPD*%
G01*
G04 APERTURE LIST*
%ADD10C,0.100000*%
%ADD11R,2.032000X1.727200*%
%ADD12O,2.032000X1.727200*%
%ADD13R,2.032000X2.032000*%
%ADD14O,2.032000X2.032000*%
%ADD15R,1.397000X1.397000*%
%ADD16C,1.397000*%
%ADD17C,2.000000*%
%ADD18C,1.998980*%
%ADD19C,0.600000*%
%ADD20C,0.250000*%
%ADD21C,0.254000*%
G04 APERTURE END LIST*
D10*
D11*
X46990000Y-87630000D03*
D12*
X46990000Y-90170000D03*
X46990000Y-92710000D03*
X46990000Y-95250000D03*
X46990000Y-97790000D03*
X46990000Y-100330000D03*
X46990000Y-102870000D03*
X46990000Y-105410000D03*
X46990000Y-107950000D03*
X46990000Y-110490000D03*
X46990000Y-113030000D03*
X46990000Y-115570000D03*
X46990000Y-118110000D03*
X46990000Y-120650000D03*
X46990000Y-123190000D03*
X46990000Y-125730000D03*
X46990000Y-128270000D03*
X46990000Y-130810000D03*
X46990000Y-133350000D03*
D13*
X68580000Y-88900000D03*
D14*
X66040000Y-88900000D03*
D15*
X104775000Y-109601000D03*
D16*
X104775000Y-107061000D03*
X104775000Y-104521000D03*
D17*
X85217000Y-87503000D03*
D18*
X55118000Y-100076000D03*
X55118000Y-110236000D03*
D19*
X99441000Y-88011000D03*
X56007000Y-129159000D03*
X80518000Y-117221000D03*
X104394000Y-85979000D03*
X59690000Y-94869000D03*
X72898000Y-96266000D03*
X51689000Y-115570000D03*
X57277000Y-98552000D03*
X78359000Y-119634000D03*
D20*
X99441000Y-108204000D02*
X99441000Y-88011000D01*
X82296000Y-125349000D02*
X99441000Y-108204000D01*
X59817000Y-125349000D02*
X82296000Y-125349000D01*
X56007000Y-129159000D02*
X59817000Y-125349000D01*
X104394000Y-85979000D02*
X105410000Y-85979000D01*
X106680000Y-107696000D02*
X104775000Y-109601000D01*
X106680000Y-87249000D02*
X106680000Y-107696000D01*
X105410000Y-85979000D02*
X106680000Y-87249000D01*
X59690000Y-94869000D02*
X59690000Y-96393000D01*
X59690000Y-96393000D02*
X80518000Y-117221000D01*
X95631000Y-85979000D02*
X104394000Y-85979000D01*
X86741000Y-94869000D02*
X95631000Y-85979000D01*
X59690000Y-94869000D02*
X86741000Y-94869000D01*
X55118000Y-100076000D02*
X55118000Y-101346000D01*
X55118000Y-101346000D02*
X75819000Y-122047000D01*
X75819000Y-122047000D02*
X81026000Y-122047000D01*
X81026000Y-122047000D02*
X86741000Y-116332000D01*
X86741000Y-116332000D02*
X86741000Y-110109000D01*
X86741000Y-110109000D02*
X72898000Y-96266000D01*
X51181000Y-96901000D02*
X46990000Y-92710000D01*
X51181000Y-115062000D02*
X51181000Y-96901000D01*
X51689000Y-115570000D02*
X51181000Y-115062000D01*
X78359000Y-119634000D02*
X57277000Y-98552000D01*
D21*
G36*
X107240000Y-86745421D02*
X107217401Y-86711599D01*
X105947401Y-85441599D01*
X105700839Y-85276852D01*
X105410000Y-85219000D01*
X104956463Y-85219000D01*
X104924327Y-85186808D01*
X104580799Y-85044162D01*
X104208833Y-85043838D01*
X103865057Y-85185883D01*
X103831882Y-85219000D01*
X95631000Y-85219000D01*
X95340161Y-85276852D01*
X95093599Y-85441599D01*
X86426198Y-94109000D01*
X60252463Y-94109000D01*
X60220327Y-94076808D01*
X59876799Y-93934162D01*
X59504833Y-93933838D01*
X59161057Y-94075883D01*
X58897808Y-94338673D01*
X58755162Y-94682201D01*
X58754838Y-95054167D01*
X58896883Y-95397943D01*
X58930000Y-95431118D01*
X58930000Y-96393000D01*
X58987852Y-96683839D01*
X59152599Y-96930401D01*
X79582878Y-117360680D01*
X79582838Y-117406167D01*
X79724883Y-117749943D01*
X79987673Y-118013192D01*
X80331201Y-118155838D01*
X80703167Y-118156162D01*
X81046943Y-118014117D01*
X81310192Y-117751327D01*
X81452838Y-117407799D01*
X81453162Y-117035833D01*
X81311117Y-116692057D01*
X81048327Y-116428808D01*
X80704799Y-116286162D01*
X80657923Y-116286121D01*
X60450000Y-96078198D01*
X60450000Y-95629000D01*
X86741000Y-95629000D01*
X87031839Y-95571148D01*
X87278401Y-95406401D01*
X95945802Y-86739000D01*
X103831537Y-86739000D01*
X103863673Y-86771192D01*
X104207201Y-86913838D01*
X104579167Y-86914162D01*
X104922943Y-86772117D01*
X104956118Y-86739000D01*
X105095198Y-86739000D01*
X105920000Y-87563802D01*
X105920000Y-103821581D01*
X105709188Y-103766417D01*
X104954605Y-104521000D01*
X105709188Y-105275583D01*
X105920000Y-105220419D01*
X105920000Y-106340149D01*
X105906146Y-106306620D01*
X105531353Y-105931173D01*
X105209882Y-105797686D01*
X105467929Y-105690800D01*
X105529583Y-105455188D01*
X104775000Y-104700605D01*
X104020417Y-105455188D01*
X104082071Y-105690800D01*
X104361312Y-105789083D01*
X104020620Y-105929854D01*
X103645173Y-106304647D01*
X103441732Y-106794587D01*
X103441269Y-107325086D01*
X103643854Y-107815380D01*
X104018647Y-108190827D01*
X104173337Y-108255060D01*
X104076500Y-108255060D01*
X103841183Y-108299338D01*
X103625059Y-108438410D01*
X103480069Y-108650610D01*
X103429060Y-108902500D01*
X103429060Y-110299500D01*
X103473338Y-110534817D01*
X103612410Y-110750941D01*
X103824610Y-110895931D01*
X104076500Y-110946940D01*
X105473500Y-110946940D01*
X105708817Y-110902662D01*
X105924941Y-110763590D01*
X106069931Y-110551390D01*
X106120940Y-110299500D01*
X106120940Y-109329862D01*
X107217401Y-108233401D01*
X107240000Y-108199579D01*
X107240000Y-135180000D01*
X45160000Y-135180000D01*
X45160000Y-90170000D01*
X45306655Y-90170000D01*
X45420729Y-90743489D01*
X45745585Y-91229670D01*
X46060366Y-91440000D01*
X45745585Y-91650330D01*
X45420729Y-92136511D01*
X45306655Y-92710000D01*
X45420729Y-93283489D01*
X45745585Y-93769670D01*
X46060366Y-93980000D01*
X45745585Y-94190330D01*
X45420729Y-94676511D01*
X45306655Y-95250000D01*
X45420729Y-95823489D01*
X45745585Y-96309670D01*
X46060366Y-96520000D01*
X45745585Y-96730330D01*
X45420729Y-97216511D01*
X45306655Y-97790000D01*
X45420729Y-98363489D01*
X45745585Y-98849670D01*
X46060366Y-99060000D01*
X45745585Y-99270330D01*
X45420729Y-99756511D01*
X45306655Y-100330000D01*
X45420729Y-100903489D01*
X45745585Y-101389670D01*
X46060366Y-101600000D01*
X45745585Y-101810330D01*
X45420729Y-102296511D01*
X45306655Y-102870000D01*
X45420729Y-103443489D01*
X45745585Y-103929670D01*
X46060366Y-104140000D01*
X45745585Y-104350330D01*
X45420729Y-104836511D01*
X45306655Y-105410000D01*
X45420729Y-105983489D01*
X45745585Y-106469670D01*
X46060366Y-106680000D01*
X45745585Y-106890330D01*
X45420729Y-107376511D01*
X45306655Y-107950000D01*
X45420729Y-108523489D01*
X45745585Y-109009670D01*
X46060366Y-109220000D01*
X45745585Y-109430330D01*
X45420729Y-109916511D01*
X45306655Y-110490000D01*
X45420729Y-111063489D01*
X45745585Y-111549670D01*
X46060366Y-111760000D01*
X45745585Y-111970330D01*
X45420729Y-112456511D01*
X45306655Y-113030000D01*
X45420729Y-113603489D01*
X45745585Y-114089670D01*
X46060366Y-114300000D01*
X45745585Y-114510330D01*
X45420729Y-114996511D01*
X45306655Y-115570000D01*
X45420729Y-116143489D01*
X45745585Y-116629670D01*
X46060366Y-116840000D01*
X45745585Y-117050330D01*
X45420729Y-117536511D01*
X45306655Y-118110000D01*
X45420729Y-118683489D01*
X45745585Y-119169670D01*
X46060366Y-119380000D01*
X45745585Y-119590330D01*
X45420729Y-120076511D01*
X45306655Y-120650000D01*
X45420729Y-121223489D01*
X45745585Y-121709670D01*
X46060366Y-121920000D01*
X45745585Y-122130330D01*
X45420729Y-122616511D01*
X45306655Y-123190000D01*
X45420729Y-123763489D01*
X45745585Y-124249670D01*
X46060366Y-124460000D01*
X45745585Y-124670330D01*
X45420729Y-125156511D01*
X45306655Y-125730000D01*
X45420729Y-126303489D01*
X45745585Y-126789670D01*
X46060366Y-127000000D01*
X45745585Y-127210330D01*
X45420729Y-127696511D01*
X45306655Y-128270000D01*
X45420729Y-128843489D01*
X45745585Y-129329670D01*
X46060366Y-129540000D01*
X45745585Y-129750330D01*
X45420729Y-130236511D01*
X45306655Y-130810000D01*
X45420729Y-131383489D01*
X45745585Y-131869670D01*
X46060366Y-132080000D01*
X45745585Y-132290330D01*
X45420729Y-132776511D01*
X45306655Y-133350000D01*
X45420729Y-133923489D01*
X45745585Y-134409670D01*
X46231766Y-134734526D01*
X46805255Y-134848600D01*
X47174745Y-134848600D01*
X47748234Y-134734526D01*
X48234415Y-134409670D01*
X48559271Y-133923489D01*
X48673345Y-133350000D01*
X48559271Y-132776511D01*
X48234415Y-132290330D01*
X47919634Y-132080000D01*
X48234415Y-131869670D01*
X48559271Y-131383489D01*
X48673345Y-130810000D01*
X48559271Y-130236511D01*
X48234415Y-129750330D01*
X47919634Y-129540000D01*
X48212718Y-129344167D01*
X55071838Y-129344167D01*
X55213883Y-129687943D01*
X55476673Y-129951192D01*
X55820201Y-130093838D01*
X56192167Y-130094162D01*
X56535943Y-129952117D01*
X56799192Y-129689327D01*
X56941838Y-129345799D01*
X56941879Y-129298923D01*
X60131802Y-126109000D01*
X82296000Y-126109000D01*
X82586839Y-126051148D01*
X82833401Y-125886401D01*
X99978401Y-108741401D01*
X100143148Y-108494839D01*
X100201000Y-108204000D01*
X100201000Y-104328480D01*
X103429073Y-104328480D01*
X103457852Y-104858199D01*
X103605200Y-105213929D01*
X103840812Y-105275583D01*
X104595395Y-104521000D01*
X103840812Y-103766417D01*
X103605200Y-103828071D01*
X103429073Y-104328480D01*
X100201000Y-104328480D01*
X100201000Y-103586812D01*
X104020417Y-103586812D01*
X104775000Y-104341395D01*
X105529583Y-103586812D01*
X105467929Y-103351200D01*
X104967520Y-103175073D01*
X104437801Y-103203852D01*
X104082071Y-103351200D01*
X104020417Y-103586812D01*
X100201000Y-103586812D01*
X100201000Y-88573463D01*
X100233192Y-88541327D01*
X100375838Y-88197799D01*
X100376162Y-87825833D01*
X100234117Y-87482057D01*
X99971327Y-87218808D01*
X99627799Y-87076162D01*
X99255833Y-87075838D01*
X98912057Y-87217883D01*
X98648808Y-87480673D01*
X98506162Y-87824201D01*
X98505838Y-88196167D01*
X98647883Y-88539943D01*
X98681000Y-88573118D01*
X98681000Y-107889198D01*
X81981198Y-124589000D01*
X59817000Y-124589000D01*
X59526161Y-124646852D01*
X59279599Y-124811599D01*
X55867320Y-128223878D01*
X55821833Y-128223838D01*
X55478057Y-128365883D01*
X55214808Y-128628673D01*
X55072162Y-128972201D01*
X55071838Y-129344167D01*
X48212718Y-129344167D01*
X48234415Y-129329670D01*
X48559271Y-128843489D01*
X48673345Y-128270000D01*
X48559271Y-127696511D01*
X48234415Y-127210330D01*
X47919634Y-127000000D01*
X48234415Y-126789670D01*
X48559271Y-126303489D01*
X48673345Y-125730000D01*
X48559271Y-125156511D01*
X48234415Y-124670330D01*
X47919634Y-124460000D01*
X48234415Y-124249670D01*
X48559271Y-123763489D01*
X48673345Y-123190000D01*
X48559271Y-122616511D01*
X48234415Y-122130330D01*
X47919634Y-121920000D01*
X48234415Y-121709670D01*
X48559271Y-121223489D01*
X48673345Y-120650000D01*
X48559271Y-120076511D01*
X48234415Y-119590330D01*
X47919634Y-119380000D01*
X48234415Y-119169670D01*
X48559271Y-118683489D01*
X48673345Y-118110000D01*
X48559271Y-117536511D01*
X48234415Y-117050330D01*
X47919634Y-116840000D01*
X48234415Y-116629670D01*
X48559271Y-116143489D01*
X48673345Y-115570000D01*
X48559271Y-114996511D01*
X48234415Y-114510330D01*
X47919634Y-114300000D01*
X48234415Y-114089670D01*
X48559271Y-113603489D01*
X48673345Y-113030000D01*
X48559271Y-112456511D01*
X48234415Y-111970330D01*
X47919634Y-111760000D01*
X48234415Y-111549670D01*
X48559271Y-111063489D01*
X48673345Y-110490000D01*
X48559271Y-109916511D01*
X48234415Y-109430330D01*
X47919634Y-109220000D01*
X48234415Y-109009670D01*
X48559271Y-108523489D01*
X48673345Y-107950000D01*
X48559271Y-107376511D01*
X48234415Y-106890330D01*
X47919634Y-106680000D01*
X48234415Y-106469670D01*
X48559271Y-105983489D01*
X48673345Y-105410000D01*
X48559271Y-104836511D01*
X48234415Y-104350330D01*
X47919634Y-104140000D01*
X48234415Y-103929670D01*
X48559271Y-103443489D01*
X48673345Y-102870000D01*
X48559271Y-102296511D01*
X48234415Y-101810330D01*
X47919634Y-101600000D01*
X48234415Y-101389670D01*
X48559271Y-100903489D01*
X48673345Y-100330000D01*
X48559271Y-99756511D01*
X48234415Y-99270330D01*
X47919634Y-99060000D01*
X48234415Y-98849670D01*
X48559271Y-98363489D01*
X48673345Y-97790000D01*
X48559271Y-97216511D01*
X48234415Y-96730330D01*
X47919634Y-96520000D01*
X48234415Y-96309670D01*
X48559271Y-95823489D01*
X48637152Y-95431954D01*
X50421000Y-97215802D01*
X50421000Y-115062000D01*
X50478852Y-115352839D01*
X50643599Y-115599401D01*
X50753878Y-115709680D01*
X50753838Y-115755167D01*
X50895883Y-116098943D01*
X51158673Y-116362192D01*
X51502201Y-116504838D01*
X51874167Y-116505162D01*
X52217943Y-116363117D01*
X52481192Y-116100327D01*
X52623838Y-115756799D01*
X52624162Y-115384833D01*
X52482117Y-115041057D01*
X52219327Y-114777808D01*
X51941000Y-114662236D01*
X51941000Y-110559694D01*
X53483226Y-110559694D01*
X53731538Y-111160655D01*
X54190927Y-111620846D01*
X54791453Y-111870206D01*
X55441694Y-111870774D01*
X56042655Y-111622462D01*
X56502846Y-111163073D01*
X56752206Y-110562547D01*
X56752774Y-109912306D01*
X56504462Y-109311345D01*
X56045073Y-108851154D01*
X55444547Y-108601794D01*
X54794306Y-108601226D01*
X54193345Y-108849538D01*
X53733154Y-109308927D01*
X53483794Y-109909453D01*
X53483226Y-110559694D01*
X51941000Y-110559694D01*
X51941000Y-101228163D01*
X54145443Y-101228163D01*
X54244042Y-101494965D01*
X54853582Y-101721401D01*
X55503377Y-101697341D01*
X55991958Y-101494965D01*
X56090557Y-101228163D01*
X55118000Y-100255605D01*
X54145443Y-101228163D01*
X51941000Y-101228163D01*
X51941000Y-99811582D01*
X53472599Y-99811582D01*
X53496659Y-100461377D01*
X53699035Y-100949958D01*
X53965837Y-101048557D01*
X54938395Y-100076000D01*
X55297605Y-100076000D01*
X56270163Y-101048557D01*
X56536965Y-100949958D01*
X56763401Y-100340418D01*
X56739341Y-99690623D01*
X56536965Y-99202042D01*
X56270163Y-99103443D01*
X55297605Y-100076000D01*
X54938395Y-100076000D01*
X53965837Y-99103443D01*
X53699035Y-99202042D01*
X53472599Y-99811582D01*
X51941000Y-99811582D01*
X51941000Y-98923837D01*
X54145443Y-98923837D01*
X55118000Y-99896395D01*
X56090557Y-98923837D01*
X56021572Y-98737167D01*
X56341838Y-98737167D01*
X56483883Y-99080943D01*
X56746673Y-99344192D01*
X57090201Y-99486838D01*
X57137077Y-99486879D01*
X77423878Y-119773680D01*
X77423838Y-119819167D01*
X77565883Y-120162943D01*
X77828673Y-120426192D01*
X78172201Y-120568838D01*
X78544167Y-120569162D01*
X78887943Y-120427117D01*
X79151192Y-120164327D01*
X79293838Y-119820799D01*
X79294162Y-119448833D01*
X79152117Y-119105057D01*
X78889327Y-118841808D01*
X78545799Y-118699162D01*
X78498923Y-118699121D01*
X58212122Y-98412320D01*
X58212162Y-98366833D01*
X58070117Y-98023057D01*
X57807327Y-97759808D01*
X57463799Y-97617162D01*
X57091833Y-97616838D01*
X56748057Y-97758883D01*
X56484808Y-98021673D01*
X56342162Y-98365201D01*
X56341838Y-98737167D01*
X56021572Y-98737167D01*
X55991958Y-98657035D01*
X55382418Y-98430599D01*
X54732623Y-98454659D01*
X54244042Y-98657035D01*
X54145443Y-98923837D01*
X51941000Y-98923837D01*
X51941000Y-96901000D01*
X51883148Y-96610161D01*
X51718401Y-96363599D01*
X48572381Y-93217579D01*
X48673345Y-92710000D01*
X48559271Y-92136511D01*
X48234415Y-91650330D01*
X47919634Y-91440000D01*
X48234415Y-91229670D01*
X48559271Y-90743489D01*
X48673345Y-90170000D01*
X48559271Y-89596511D01*
X48349753Y-89282944D01*
X64434025Y-89282944D01*
X64633615Y-89764818D01*
X65071621Y-90237188D01*
X65657054Y-90505983D01*
X65913000Y-90387367D01*
X65913000Y-89027000D01*
X64553164Y-89027000D01*
X64434025Y-89282944D01*
X48349753Y-89282944D01*
X48234415Y-89110330D01*
X48212220Y-89095500D01*
X48365699Y-89031927D01*
X48544327Y-88853298D01*
X48641000Y-88619909D01*
X48641000Y-88517056D01*
X64434025Y-88517056D01*
X64553164Y-88773000D01*
X65913000Y-88773000D01*
X65913000Y-87412633D01*
X66167000Y-87412633D01*
X66167000Y-88773000D01*
X66187000Y-88773000D01*
X66187000Y-89027000D01*
X66167000Y-89027000D01*
X66167000Y-90387367D01*
X66422946Y-90505983D01*
X67008379Y-90237188D01*
X67012934Y-90232276D01*
X67099910Y-90367441D01*
X67312110Y-90512431D01*
X67564000Y-90563440D01*
X69596000Y-90563440D01*
X69831317Y-90519162D01*
X70047441Y-90380090D01*
X70192431Y-90167890D01*
X70243440Y-89916000D01*
X70243440Y-87884000D01*
X70232677Y-87826795D01*
X83581716Y-87826795D01*
X83830106Y-88427943D01*
X84289637Y-88888278D01*
X84890352Y-89137716D01*
X85540795Y-89138284D01*
X86141943Y-88889894D01*
X86602278Y-88430363D01*
X86851716Y-87829648D01*
X86852284Y-87179205D01*
X86603894Y-86578057D01*
X86144363Y-86117722D01*
X85543648Y-85868284D01*
X84893205Y-85867716D01*
X84292057Y-86116106D01*
X83831722Y-86575637D01*
X83582284Y-87176352D01*
X83581716Y-87826795D01*
X70232677Y-87826795D01*
X70199162Y-87648683D01*
X70060090Y-87432559D01*
X69847890Y-87287569D01*
X69596000Y-87236560D01*
X67564000Y-87236560D01*
X67328683Y-87280838D01*
X67112559Y-87419910D01*
X67012144Y-87566872D01*
X67008379Y-87562812D01*
X66422946Y-87294017D01*
X66167000Y-87412633D01*
X65913000Y-87412633D01*
X65657054Y-87294017D01*
X65071621Y-87562812D01*
X64633615Y-88035182D01*
X64434025Y-88517056D01*
X48641000Y-88517056D01*
X48641000Y-87915750D01*
X48482250Y-87757000D01*
X47117000Y-87757000D01*
X47117000Y-87777000D01*
X46863000Y-87777000D01*
X46863000Y-87757000D01*
X45497750Y-87757000D01*
X45339000Y-87915750D01*
X45339000Y-88619909D01*
X45435673Y-88853298D01*
X45614301Y-89031927D01*
X45767780Y-89095500D01*
X45745585Y-89110330D01*
X45420729Y-89596511D01*
X45306655Y-90170000D01*
X45160000Y-90170000D01*
X45160000Y-86640091D01*
X45339000Y-86640091D01*
X45339000Y-87344250D01*
X45497750Y-87503000D01*
X46863000Y-87503000D01*
X46863000Y-86290150D01*
X47117000Y-86290150D01*
X47117000Y-87503000D01*
X48482250Y-87503000D01*
X48641000Y-87344250D01*
X48641000Y-86640091D01*
X48544327Y-86406702D01*
X48365699Y-86228073D01*
X48132310Y-86131400D01*
X47275750Y-86131400D01*
X47117000Y-86290150D01*
X46863000Y-86290150D01*
X46704250Y-86131400D01*
X45847690Y-86131400D01*
X45614301Y-86228073D01*
X45435673Y-86406702D01*
X45339000Y-86640091D01*
X45160000Y-86640091D01*
X45160000Y-84530000D01*
X107240000Y-84530000D01*
X107240000Y-86745421D01*
X107240000Y-86745421D01*
G37*
X107240000Y-86745421D02*
X107217401Y-86711599D01*
X105947401Y-85441599D01*
X105700839Y-85276852D01*
X105410000Y-85219000D01*
X104956463Y-85219000D01*
X104924327Y-85186808D01*
X104580799Y-85044162D01*
X104208833Y-85043838D01*
X103865057Y-85185883D01*
X103831882Y-85219000D01*
X95631000Y-85219000D01*
X95340161Y-85276852D01*
X95093599Y-85441599D01*
X86426198Y-94109000D01*
X60252463Y-94109000D01*
X60220327Y-94076808D01*
X59876799Y-93934162D01*
X59504833Y-93933838D01*
X59161057Y-94075883D01*
X58897808Y-94338673D01*
X58755162Y-94682201D01*
X58754838Y-95054167D01*
X58896883Y-95397943D01*
X58930000Y-95431118D01*
X58930000Y-96393000D01*
X58987852Y-96683839D01*
X59152599Y-96930401D01*
X79582878Y-117360680D01*
X79582838Y-117406167D01*
X79724883Y-117749943D01*
X79987673Y-118013192D01*
X80331201Y-118155838D01*
X80703167Y-118156162D01*
X81046943Y-118014117D01*
X81310192Y-117751327D01*
X81452838Y-117407799D01*
X81453162Y-117035833D01*
X81311117Y-116692057D01*
X81048327Y-116428808D01*
X80704799Y-116286162D01*
X80657923Y-116286121D01*
X60450000Y-96078198D01*
X60450000Y-95629000D01*
X86741000Y-95629000D01*
X87031839Y-95571148D01*
X87278401Y-95406401D01*
X95945802Y-86739000D01*
X103831537Y-86739000D01*
X103863673Y-86771192D01*
X104207201Y-86913838D01*
X104579167Y-86914162D01*
X104922943Y-86772117D01*
X104956118Y-86739000D01*
X105095198Y-86739000D01*
X105920000Y-87563802D01*
X105920000Y-103821581D01*
X105709188Y-103766417D01*
X104954605Y-104521000D01*
X105709188Y-105275583D01*
X105920000Y-105220419D01*
X105920000Y-106340149D01*
X105906146Y-106306620D01*
X105531353Y-105931173D01*
X105209882Y-105797686D01*
X105467929Y-105690800D01*
X105529583Y-105455188D01*
X104775000Y-104700605D01*
X104020417Y-105455188D01*
X104082071Y-105690800D01*
X104361312Y-105789083D01*
X104020620Y-105929854D01*
X103645173Y-106304647D01*
X103441732Y-106794587D01*
X103441269Y-107325086D01*
X103643854Y-107815380D01*
X104018647Y-108190827D01*
X104173337Y-108255060D01*
X104076500Y-108255060D01*
X103841183Y-108299338D01*
X103625059Y-108438410D01*
X103480069Y-108650610D01*
X103429060Y-108902500D01*
X103429060Y-110299500D01*
X103473338Y-110534817D01*
X103612410Y-110750941D01*
X103824610Y-110895931D01*
X104076500Y-110946940D01*
X105473500Y-110946940D01*
X105708817Y-110902662D01*
X105924941Y-110763590D01*
X106069931Y-110551390D01*
X106120940Y-110299500D01*
X106120940Y-109329862D01*
X107217401Y-108233401D01*
X107240000Y-108199579D01*
X107240000Y-135180000D01*
X45160000Y-135180000D01*
X45160000Y-90170000D01*
X45306655Y-90170000D01*
X45420729Y-90743489D01*
X45745585Y-91229670D01*
X46060366Y-91440000D01*
X45745585Y-91650330D01*
X45420729Y-92136511D01*
X45306655Y-92710000D01*
X45420729Y-93283489D01*
X45745585Y-93769670D01*
X46060366Y-93980000D01*
X45745585Y-94190330D01*
X45420729Y-94676511D01*
X45306655Y-95250000D01*
X45420729Y-95823489D01*
X45745585Y-96309670D01*
X46060366Y-96520000D01*
X45745585Y-96730330D01*
X45420729Y-97216511D01*
X45306655Y-97790000D01*
X45420729Y-98363489D01*
X45745585Y-98849670D01*
X46060366Y-99060000D01*
X45745585Y-99270330D01*
X45420729Y-99756511D01*
X45306655Y-100330000D01*
X45420729Y-100903489D01*
X45745585Y-101389670D01*
X46060366Y-101600000D01*
X45745585Y-101810330D01*
X45420729Y-102296511D01*
X45306655Y-102870000D01*
X45420729Y-103443489D01*
X45745585Y-103929670D01*
X46060366Y-104140000D01*
X45745585Y-104350330D01*
X45420729Y-104836511D01*
X45306655Y-105410000D01*
X45420729Y-105983489D01*
X45745585Y-106469670D01*
X46060366Y-106680000D01*
X45745585Y-106890330D01*
X45420729Y-107376511D01*
X45306655Y-107950000D01*
X45420729Y-108523489D01*
X45745585Y-109009670D01*
X46060366Y-109220000D01*
X45745585Y-109430330D01*
X45420729Y-109916511D01*
X45306655Y-110490000D01*
X45420729Y-111063489D01*
X45745585Y-111549670D01*
X46060366Y-111760000D01*
X45745585Y-111970330D01*
X45420729Y-112456511D01*
X45306655Y-113030000D01*
X45420729Y-113603489D01*
X45745585Y-114089670D01*
X46060366Y-114300000D01*
X45745585Y-114510330D01*
X45420729Y-114996511D01*
X45306655Y-115570000D01*
X45420729Y-116143489D01*
X45745585Y-116629670D01*
X46060366Y-116840000D01*
X45745585Y-117050330D01*
X45420729Y-117536511D01*
X45306655Y-118110000D01*
X45420729Y-118683489D01*
X45745585Y-119169670D01*
X46060366Y-119380000D01*
X45745585Y-119590330D01*
X45420729Y-120076511D01*
X45306655Y-120650000D01*
X45420729Y-121223489D01*
X45745585Y-121709670D01*
X46060366Y-121920000D01*
X45745585Y-122130330D01*
X45420729Y-122616511D01*
X45306655Y-123190000D01*
X45420729Y-123763489D01*
X45745585Y-124249670D01*
X46060366Y-124460000D01*
X45745585Y-124670330D01*
X45420729Y-125156511D01*
X45306655Y-125730000D01*
X45420729Y-126303489D01*
X45745585Y-126789670D01*
X46060366Y-127000000D01*
X45745585Y-127210330D01*
X45420729Y-127696511D01*
X45306655Y-128270000D01*
X45420729Y-128843489D01*
X45745585Y-129329670D01*
X46060366Y-129540000D01*
X45745585Y-129750330D01*
X45420729Y-130236511D01*
X45306655Y-130810000D01*
X45420729Y-131383489D01*
X45745585Y-131869670D01*
X46060366Y-132080000D01*
X45745585Y-132290330D01*
X45420729Y-132776511D01*
X45306655Y-133350000D01*
X45420729Y-133923489D01*
X45745585Y-134409670D01*
X46231766Y-134734526D01*
X46805255Y-134848600D01*
X47174745Y-134848600D01*
X47748234Y-134734526D01*
X48234415Y-134409670D01*
X48559271Y-133923489D01*
X48673345Y-133350000D01*
X48559271Y-132776511D01*
X48234415Y-132290330D01*
X47919634Y-132080000D01*
X48234415Y-131869670D01*
X48559271Y-131383489D01*
X48673345Y-130810000D01*
X48559271Y-130236511D01*
X48234415Y-129750330D01*
X47919634Y-129540000D01*
X48212718Y-129344167D01*
X55071838Y-129344167D01*
X55213883Y-129687943D01*
X55476673Y-129951192D01*
X55820201Y-130093838D01*
X56192167Y-130094162D01*
X56535943Y-129952117D01*
X56799192Y-129689327D01*
X56941838Y-129345799D01*
X56941879Y-129298923D01*
X60131802Y-126109000D01*
X82296000Y-126109000D01*
X82586839Y-126051148D01*
X82833401Y-125886401D01*
X99978401Y-108741401D01*
X100143148Y-108494839D01*
X100201000Y-108204000D01*
X100201000Y-104328480D01*
X103429073Y-104328480D01*
X103457852Y-104858199D01*
X103605200Y-105213929D01*
X103840812Y-105275583D01*
X104595395Y-104521000D01*
X103840812Y-103766417D01*
X103605200Y-103828071D01*
X103429073Y-104328480D01*
X100201000Y-104328480D01*
X100201000Y-103586812D01*
X104020417Y-103586812D01*
X104775000Y-104341395D01*
X105529583Y-103586812D01*
X105467929Y-103351200D01*
X104967520Y-103175073D01*
X104437801Y-103203852D01*
X104082071Y-103351200D01*
X104020417Y-103586812D01*
X100201000Y-103586812D01*
X100201000Y-88573463D01*
X100233192Y-88541327D01*
X100375838Y-88197799D01*
X100376162Y-87825833D01*
X100234117Y-87482057D01*
X99971327Y-87218808D01*
X99627799Y-87076162D01*
X99255833Y-87075838D01*
X98912057Y-87217883D01*
X98648808Y-87480673D01*
X98506162Y-87824201D01*
X98505838Y-88196167D01*
X98647883Y-88539943D01*
X98681000Y-88573118D01*
X98681000Y-107889198D01*
X81981198Y-124589000D01*
X59817000Y-124589000D01*
X59526161Y-124646852D01*
X59279599Y-124811599D01*
X55867320Y-128223878D01*
X55821833Y-128223838D01*
X55478057Y-128365883D01*
X55214808Y-128628673D01*
X55072162Y-128972201D01*
X55071838Y-129344167D01*
X48212718Y-129344167D01*
X48234415Y-129329670D01*
X48559271Y-128843489D01*
X48673345Y-128270000D01*
X48559271Y-127696511D01*
X48234415Y-127210330D01*
X47919634Y-127000000D01*
X48234415Y-126789670D01*
X48559271Y-126303489D01*
X48673345Y-125730000D01*
X48559271Y-125156511D01*
X48234415Y-124670330D01*
X47919634Y-124460000D01*
X48234415Y-124249670D01*
X48559271Y-123763489D01*
X48673345Y-123190000D01*
X48559271Y-122616511D01*
X48234415Y-122130330D01*
X47919634Y-121920000D01*
X48234415Y-121709670D01*
X48559271Y-121223489D01*
X48673345Y-120650000D01*
X48559271Y-120076511D01*
X48234415Y-119590330D01*
X47919634Y-119380000D01*
X48234415Y-119169670D01*
X48559271Y-118683489D01*
X48673345Y-118110000D01*
X48559271Y-117536511D01*
X48234415Y-117050330D01*
X47919634Y-116840000D01*
X48234415Y-116629670D01*
X48559271Y-116143489D01*
X48673345Y-115570000D01*
X48559271Y-114996511D01*
X48234415Y-114510330D01*
X47919634Y-114300000D01*
X48234415Y-114089670D01*
X48559271Y-113603489D01*
X48673345Y-113030000D01*
X48559271Y-112456511D01*
X48234415Y-111970330D01*
X47919634Y-111760000D01*
X48234415Y-111549670D01*
X48559271Y-111063489D01*
X48673345Y-110490000D01*
X48559271Y-109916511D01*
X48234415Y-109430330D01*
X47919634Y-109220000D01*
X48234415Y-109009670D01*
X48559271Y-108523489D01*
X48673345Y-107950000D01*
X48559271Y-107376511D01*
X48234415Y-106890330D01*
X47919634Y-106680000D01*
X48234415Y-106469670D01*
X48559271Y-105983489D01*
X48673345Y-105410000D01*
X48559271Y-104836511D01*
X48234415Y-104350330D01*
X47919634Y-104140000D01*
X48234415Y-103929670D01*
X48559271Y-103443489D01*
X48673345Y-102870000D01*
X48559271Y-102296511D01*
X48234415Y-101810330D01*
X47919634Y-101600000D01*
X48234415Y-101389670D01*
X48559271Y-100903489D01*
X48673345Y-100330000D01*
X48559271Y-99756511D01*
X48234415Y-99270330D01*
X47919634Y-99060000D01*
X48234415Y-98849670D01*
X48559271Y-98363489D01*
X48673345Y-97790000D01*
X48559271Y-97216511D01*
X48234415Y-96730330D01*
X47919634Y-96520000D01*
X48234415Y-96309670D01*
X48559271Y-95823489D01*
X48637152Y-95431954D01*
X50421000Y-97215802D01*
X50421000Y-115062000D01*
X50478852Y-115352839D01*
X50643599Y-115599401D01*
X50753878Y-115709680D01*
X50753838Y-115755167D01*
X50895883Y-116098943D01*
X51158673Y-116362192D01*
X51502201Y-116504838D01*
X51874167Y-116505162D01*
X52217943Y-116363117D01*
X52481192Y-116100327D01*
X52623838Y-115756799D01*
X52624162Y-115384833D01*
X52482117Y-115041057D01*
X52219327Y-114777808D01*
X51941000Y-114662236D01*
X51941000Y-110559694D01*
X53483226Y-110559694D01*
X53731538Y-111160655D01*
X54190927Y-111620846D01*
X54791453Y-111870206D01*
X55441694Y-111870774D01*
X56042655Y-111622462D01*
X56502846Y-111163073D01*
X56752206Y-110562547D01*
X56752774Y-109912306D01*
X56504462Y-109311345D01*
X56045073Y-108851154D01*
X55444547Y-108601794D01*
X54794306Y-108601226D01*
X54193345Y-108849538D01*
X53733154Y-109308927D01*
X53483794Y-109909453D01*
X53483226Y-110559694D01*
X51941000Y-110559694D01*
X51941000Y-101228163D01*
X54145443Y-101228163D01*
X54244042Y-101494965D01*
X54853582Y-101721401D01*
X55503377Y-101697341D01*
X55991958Y-101494965D01*
X56090557Y-101228163D01*
X55118000Y-100255605D01*
X54145443Y-101228163D01*
X51941000Y-101228163D01*
X51941000Y-99811582D01*
X53472599Y-99811582D01*
X53496659Y-100461377D01*
X53699035Y-100949958D01*
X53965837Y-101048557D01*
X54938395Y-100076000D01*
X55297605Y-100076000D01*
X56270163Y-101048557D01*
X56536965Y-100949958D01*
X56763401Y-100340418D01*
X56739341Y-99690623D01*
X56536965Y-99202042D01*
X56270163Y-99103443D01*
X55297605Y-100076000D01*
X54938395Y-100076000D01*
X53965837Y-99103443D01*
X53699035Y-99202042D01*
X53472599Y-99811582D01*
X51941000Y-99811582D01*
X51941000Y-98923837D01*
X54145443Y-98923837D01*
X55118000Y-99896395D01*
X56090557Y-98923837D01*
X56021572Y-98737167D01*
X56341838Y-98737167D01*
X56483883Y-99080943D01*
X56746673Y-99344192D01*
X57090201Y-99486838D01*
X57137077Y-99486879D01*
X77423878Y-119773680D01*
X77423838Y-119819167D01*
X77565883Y-120162943D01*
X77828673Y-120426192D01*
X78172201Y-120568838D01*
X78544167Y-120569162D01*
X78887943Y-120427117D01*
X79151192Y-120164327D01*
X79293838Y-119820799D01*
X79294162Y-119448833D01*
X79152117Y-119105057D01*
X78889327Y-118841808D01*
X78545799Y-118699162D01*
X78498923Y-118699121D01*
X58212122Y-98412320D01*
X58212162Y-98366833D01*
X58070117Y-98023057D01*
X57807327Y-97759808D01*
X57463799Y-97617162D01*
X57091833Y-97616838D01*
X56748057Y-97758883D01*
X56484808Y-98021673D01*
X56342162Y-98365201D01*
X56341838Y-98737167D01*
X56021572Y-98737167D01*
X55991958Y-98657035D01*
X55382418Y-98430599D01*
X54732623Y-98454659D01*
X54244042Y-98657035D01*
X54145443Y-98923837D01*
X51941000Y-98923837D01*
X51941000Y-96901000D01*
X51883148Y-96610161D01*
X51718401Y-96363599D01*
X48572381Y-93217579D01*
X48673345Y-92710000D01*
X48559271Y-92136511D01*
X48234415Y-91650330D01*
X47919634Y-91440000D01*
X48234415Y-91229670D01*
X48559271Y-90743489D01*
X48673345Y-90170000D01*
X48559271Y-89596511D01*
X48349753Y-89282944D01*
X64434025Y-89282944D01*
X64633615Y-89764818D01*
X65071621Y-90237188D01*
X65657054Y-90505983D01*
X65913000Y-90387367D01*
X65913000Y-89027000D01*
X64553164Y-89027000D01*
X64434025Y-89282944D01*
X48349753Y-89282944D01*
X48234415Y-89110330D01*
X48212220Y-89095500D01*
X48365699Y-89031927D01*
X48544327Y-88853298D01*
X48641000Y-88619909D01*
X48641000Y-88517056D01*
X64434025Y-88517056D01*
X64553164Y-88773000D01*
X65913000Y-88773000D01*
X65913000Y-87412633D01*
X66167000Y-87412633D01*
X66167000Y-88773000D01*
X66187000Y-88773000D01*
X66187000Y-89027000D01*
X66167000Y-89027000D01*
X66167000Y-90387367D01*
X66422946Y-90505983D01*
X67008379Y-90237188D01*
X67012934Y-90232276D01*
X67099910Y-90367441D01*
X67312110Y-90512431D01*
X67564000Y-90563440D01*
X69596000Y-90563440D01*
X69831317Y-90519162D01*
X70047441Y-90380090D01*
X70192431Y-90167890D01*
X70243440Y-89916000D01*
X70243440Y-87884000D01*
X70232677Y-87826795D01*
X83581716Y-87826795D01*
X83830106Y-88427943D01*
X84289637Y-88888278D01*
X84890352Y-89137716D01*
X85540795Y-89138284D01*
X86141943Y-88889894D01*
X86602278Y-88430363D01*
X86851716Y-87829648D01*
X86852284Y-87179205D01*
X86603894Y-86578057D01*
X86144363Y-86117722D01*
X85543648Y-85868284D01*
X84893205Y-85867716D01*
X84292057Y-86116106D01*
X83831722Y-86575637D01*
X83582284Y-87176352D01*
X83581716Y-87826795D01*
X70232677Y-87826795D01*
X70199162Y-87648683D01*
X70060090Y-87432559D01*
X69847890Y-87287569D01*
X69596000Y-87236560D01*
X67564000Y-87236560D01*
X67328683Y-87280838D01*
X67112559Y-87419910D01*
X67012144Y-87566872D01*
X67008379Y-87562812D01*
X66422946Y-87294017D01*
X66167000Y-87412633D01*
X65913000Y-87412633D01*
X65657054Y-87294017D01*
X65071621Y-87562812D01*
X64633615Y-88035182D01*
X64434025Y-88517056D01*
X48641000Y-88517056D01*
X48641000Y-87915750D01*
X48482250Y-87757000D01*
X47117000Y-87757000D01*
X47117000Y-87777000D01*
X46863000Y-87777000D01*
X46863000Y-87757000D01*
X45497750Y-87757000D01*
X45339000Y-87915750D01*
X45339000Y-88619909D01*
X45435673Y-88853298D01*
X45614301Y-89031927D01*
X45767780Y-89095500D01*
X45745585Y-89110330D01*
X45420729Y-89596511D01*
X45306655Y-90170000D01*
X45160000Y-90170000D01*
X45160000Y-86640091D01*
X45339000Y-86640091D01*
X45339000Y-87344250D01*
X45497750Y-87503000D01*
X46863000Y-87503000D01*
X46863000Y-86290150D01*
X47117000Y-86290150D01*
X47117000Y-87503000D01*
X48482250Y-87503000D01*
X48641000Y-87344250D01*
X48641000Y-86640091D01*
X48544327Y-86406702D01*
X48365699Y-86228073D01*
X48132310Y-86131400D01*
X47275750Y-86131400D01*
X47117000Y-86290150D01*
X46863000Y-86290150D01*
X46704250Y-86131400D01*
X45847690Y-86131400D01*
X45614301Y-86228073D01*
X45435673Y-86406702D01*
X45339000Y-86640091D01*
X45160000Y-86640091D01*
X45160000Y-84530000D01*
X107240000Y-84530000D01*
X107240000Y-86745421D01*
M02*
