G04 #@! TF.FileFunction,Legend,Bot*
%FSLAX46Y46*%
G04 Gerber Fmt 4.6, Leading zero omitted, Abs format (unit mm)*
G04 Created by KiCad (PCBNEW 4.0.6-e0-6349~53~ubuntu16.04.1) date Thu Oct  5 16:52:19 2017*
%MOMM*%
%LPD*%
G01*
G04 APERTURE LIST*
%ADD10C,0.100000*%
%ADD11C,0.300000*%
G04 APERTURE END LIST*
D10*
D11*
X78823429Y-112842427D02*
X80323429Y-112842427D01*
X80323429Y-112485284D01*
X80252000Y-112270999D01*
X80109143Y-112128141D01*
X79966286Y-112056713D01*
X79680571Y-111985284D01*
X79466286Y-111985284D01*
X79180571Y-112056713D01*
X79037714Y-112128141D01*
X78894857Y-112270999D01*
X78823429Y-112485284D01*
X78823429Y-112842427D01*
X79609143Y-110842427D02*
X79537714Y-110628141D01*
X79466286Y-110556713D01*
X79323429Y-110485284D01*
X79109143Y-110485284D01*
X78966286Y-110556713D01*
X78894857Y-110628141D01*
X78823429Y-110770999D01*
X78823429Y-111342427D01*
X80323429Y-111342427D01*
X80323429Y-110842427D01*
X80252000Y-110699570D01*
X80180571Y-110628141D01*
X80037714Y-110556713D01*
X79894857Y-110556713D01*
X79752000Y-110628141D01*
X79680571Y-110699570D01*
X79609143Y-110842427D01*
X79609143Y-111342427D01*
X78680571Y-110199570D02*
X78680571Y-109056713D01*
X80323429Y-108913856D02*
X80323429Y-108056713D01*
X78823429Y-108485284D02*
X80323429Y-108485284D01*
X78823429Y-106699570D02*
X79537714Y-107199570D01*
X78823429Y-107556713D02*
X80323429Y-107556713D01*
X80323429Y-106985285D01*
X80252000Y-106842427D01*
X80180571Y-106770999D01*
X80037714Y-106699570D01*
X79823429Y-106699570D01*
X79680571Y-106770999D01*
X79609143Y-106842427D01*
X79537714Y-106985285D01*
X79537714Y-107556713D01*
X78894857Y-106128142D02*
X78823429Y-105913856D01*
X78823429Y-105556713D01*
X78894857Y-105413856D01*
X78966286Y-105342427D01*
X79109143Y-105270999D01*
X79252000Y-105270999D01*
X79394857Y-105342427D01*
X79466286Y-105413856D01*
X79537714Y-105556713D01*
X79609143Y-105842427D01*
X79680571Y-105985285D01*
X79752000Y-106056713D01*
X79894857Y-106128142D01*
X80037714Y-106128142D01*
X80180571Y-106056713D01*
X80252000Y-105985285D01*
X80323429Y-105842427D01*
X80323429Y-105485285D01*
X80252000Y-105270999D01*
X78680571Y-104985285D02*
X78680571Y-103842428D01*
X80323429Y-103699571D02*
X80323429Y-102842428D01*
X78823429Y-103270999D02*
X80323429Y-103270999D01*
X80252000Y-101556714D02*
X80323429Y-101699571D01*
X80323429Y-101913857D01*
X80252000Y-102128142D01*
X80109143Y-102271000D01*
X79966286Y-102342428D01*
X79680571Y-102413857D01*
X79466286Y-102413857D01*
X79180571Y-102342428D01*
X79037714Y-102271000D01*
X78894857Y-102128142D01*
X78823429Y-101913857D01*
X78823429Y-101771000D01*
X78894857Y-101556714D01*
X78966286Y-101485285D01*
X79466286Y-101485285D01*
X79466286Y-101771000D01*
X78966286Y-99985285D02*
X78894857Y-100056714D01*
X78823429Y-100271000D01*
X78823429Y-100413857D01*
X78894857Y-100628142D01*
X79037714Y-100771000D01*
X79180571Y-100842428D01*
X79466286Y-100913857D01*
X79680571Y-100913857D01*
X79966286Y-100842428D01*
X80109143Y-100771000D01*
X80252000Y-100628142D01*
X80323429Y-100413857D01*
X80323429Y-100271000D01*
X80252000Y-100056714D01*
X80180571Y-99985285D01*
X78680571Y-99699571D02*
X78680571Y-98556714D01*
X80323429Y-98413857D02*
X78823429Y-97913857D01*
X80323429Y-97413857D01*
X80180571Y-96985286D02*
X80252000Y-96913857D01*
X80323429Y-96771000D01*
X80323429Y-96413857D01*
X80252000Y-96271000D01*
X80180571Y-96199571D01*
X80037714Y-96128143D01*
X79894857Y-96128143D01*
X79680571Y-96199571D01*
X78823429Y-97056714D01*
X78823429Y-96128143D01*
M02*
