M48
;DRILL file {KiCad 4.0.6-e0-6349~53~ubuntu16.04.1} date Thu Oct  5 16:52:23 2017
;FORMAT={-:-/ absolute / metric / decimal}
FMAT,2
METRIC,TZ
T1C0.400
T2C0.813
T3C1.000
T4C1.001
T5C1.016
%
G90
G05
M71
T1
X51.689Y-115.57
X56.007Y-129.159
X57.277Y-98.552
X59.69Y-94.869
X72.898Y-96.266
X78.359Y-119.634
X80.518Y-117.221
X99.441Y-88.011
X104.394Y-85.979
T2
X104.775Y-104.521
X104.775Y-107.061
X104.775Y-109.601
T3
X85.217Y-87.503
T4
X55.118Y-100.076
X55.118Y-110.236
T5
X46.99Y-87.63
X46.99Y-90.17
X46.99Y-92.71
X46.99Y-95.25
X46.99Y-97.79
X46.99Y-100.33
X46.99Y-102.87
X46.99Y-105.41
X46.99Y-107.95
X46.99Y-110.49
X46.99Y-113.03
X46.99Y-115.57
X46.99Y-118.11
X46.99Y-120.65
X46.99Y-123.19
X46.99Y-125.73
X46.99Y-128.27
X46.99Y-130.81
X46.99Y-133.35
X66.04Y-88.9
X68.58Y-88.9
T0
M30
