G04 #@! TF.FileFunction,Legend,Top*
%FSLAX46Y46*%
G04 Gerber Fmt 4.6, Leading zero omitted, Abs format (unit mm)*
G04 Created by KiCad (PCBNEW 4.0.6-e0-6349~53~ubuntu16.04.1) date Thu Oct  5 16:52:19 2017*
%MOMM*%
%LPD*%
G01*
G04 APERTURE LIST*
%ADD10C,0.100000*%
%ADD11C,0.300000*%
%ADD12C,0.150000*%
G04 APERTURE END LIST*
D10*
D11*
X105326571Y-101635571D02*
X105326571Y-102349857D01*
X103826571Y-102349857D01*
X103826571Y-100849857D02*
X103826571Y-100564143D01*
X103898000Y-100421285D01*
X104040857Y-100278428D01*
X104326571Y-100207000D01*
X104826571Y-100207000D01*
X105112286Y-100278428D01*
X105255143Y-100421285D01*
X105326571Y-100564143D01*
X105326571Y-100849857D01*
X105255143Y-100992714D01*
X105112286Y-101135571D01*
X104826571Y-101207000D01*
X104326571Y-101207000D01*
X104040857Y-101135571D01*
X103898000Y-100992714D01*
X103826571Y-100849857D01*
X103826571Y-99706999D02*
X105326571Y-99349856D01*
X104255143Y-99064142D01*
X105326571Y-98778428D01*
X103826571Y-98421285D01*
X105453571Y-113434714D02*
X103953571Y-113434714D01*
X104667857Y-113434714D02*
X104667857Y-112577571D01*
X105453571Y-112577571D02*
X103953571Y-112577571D01*
X105453571Y-111863285D02*
X103953571Y-111863285D01*
D12*
X45720000Y-88900000D02*
X45720000Y-134620000D01*
X45720000Y-134620000D02*
X48260000Y-134620000D01*
X48260000Y-134620000D02*
X48260000Y-88900000D01*
X45440000Y-86080000D02*
X45440000Y-87630000D01*
X45720000Y-88900000D02*
X48260000Y-88900000D01*
X48540000Y-87630000D02*
X48540000Y-86080000D01*
X48540000Y-86080000D02*
X45440000Y-86080000D01*
X103078000Y-86569000D02*
G75*
G03X103078000Y-86569000I-100000J0D01*
G01*
X103628000Y-87069000D02*
X103128000Y-87069000D01*
X103628000Y-89969000D02*
X103628000Y-87069000D01*
X103128000Y-89969000D02*
X103628000Y-89969000D01*
X103128000Y-87069000D02*
X103128000Y-89969000D01*
X49775000Y-87265000D02*
X49775000Y-89265000D01*
X51825000Y-89265000D02*
X51825000Y-87265000D01*
X62449000Y-95916000D02*
X62449000Y-96616000D01*
X61249000Y-96616000D02*
X61249000Y-95916000D01*
X64608000Y-95916000D02*
X64608000Y-96616000D01*
X63408000Y-96616000D02*
X63408000Y-95916000D01*
X65563000Y-103286000D02*
X66263000Y-103286000D01*
X66263000Y-104486000D02*
X65563000Y-104486000D01*
X94326000Y-88296000D02*
X94326000Y-88996000D01*
X93126000Y-88996000D02*
X93126000Y-88296000D01*
X78705000Y-95662000D02*
X78705000Y-96362000D01*
X77505000Y-96362000D02*
X77505000Y-95662000D01*
X71339000Y-102774000D02*
X71339000Y-103474000D01*
X70139000Y-103474000D02*
X70139000Y-102774000D01*
X71786000Y-97825000D02*
X72486000Y-97825000D01*
X72486000Y-99025000D02*
X71786000Y-99025000D01*
X58258000Y-105314000D02*
X58258000Y-106014000D01*
X57058000Y-106014000D02*
X57058000Y-105314000D01*
X60229000Y-107350000D02*
X60929000Y-107350000D01*
X60929000Y-108550000D02*
X60229000Y-108550000D01*
X60610000Y-104302000D02*
X61310000Y-104302000D01*
X61310000Y-105502000D02*
X60610000Y-105502000D01*
X81372000Y-113061000D02*
X81372000Y-113761000D01*
X80172000Y-113761000D02*
X80172000Y-113061000D01*
X67402000Y-109124000D02*
X67402000Y-109824000D01*
X66202000Y-109824000D02*
X66202000Y-109124000D01*
X66202000Y-114396000D02*
X66202000Y-113696000D01*
X67402000Y-113696000D02*
X67402000Y-114396000D01*
X57816000Y-96047000D02*
X58516000Y-96047000D01*
X58516000Y-97247000D02*
X57816000Y-97247000D01*
X68992000Y-93253000D02*
X69692000Y-93253000D01*
X69692000Y-94453000D02*
X68992000Y-94453000D01*
X70454000Y-110963000D02*
X69754000Y-110963000D01*
X69754000Y-109763000D02*
X70454000Y-109763000D01*
X70581000Y-115662000D02*
X69881000Y-115662000D01*
X69881000Y-114462000D02*
X70581000Y-114462000D01*
X83597000Y-111541000D02*
X84297000Y-111541000D01*
X84297000Y-112741000D02*
X83597000Y-112741000D01*
X64770000Y-78800000D02*
X64770000Y-87630000D01*
X67310000Y-78800000D02*
X64770000Y-78800000D01*
X67310000Y-87630000D02*
X67310000Y-78800000D01*
X67310000Y-87630000D02*
X64770000Y-87630000D01*
X69850000Y-87630000D02*
X67310000Y-87630000D01*
X68580000Y-90300000D02*
X70130000Y-90300000D01*
X70130000Y-90300000D02*
X70130000Y-88900000D01*
X69850000Y-87630000D02*
X69850000Y-78800000D01*
X69850000Y-78800000D02*
X67310000Y-78800000D01*
X67310000Y-78800000D02*
X67310000Y-87630000D01*
X60610000Y-101762000D02*
X61310000Y-101762000D01*
X61310000Y-102962000D02*
X60610000Y-102962000D01*
X95793000Y-88996000D02*
X95793000Y-88296000D01*
X96993000Y-88296000D02*
X96993000Y-88996000D01*
X69754000Y-107731000D02*
X70454000Y-107731000D01*
X70454000Y-108931000D02*
X69754000Y-108931000D01*
X69881000Y-112430000D02*
X70581000Y-112430000D01*
X70581000Y-113630000D02*
X69881000Y-113630000D01*
X64043000Y-109824000D02*
X64043000Y-109124000D01*
X65243000Y-109124000D02*
X65243000Y-109824000D01*
X65243000Y-113696000D02*
X65243000Y-114396000D01*
X64043000Y-114396000D02*
X64043000Y-113696000D01*
X106045000Y-110871000D02*
X103505000Y-110871000D01*
X103505000Y-110871000D02*
X103505000Y-103251000D01*
X103505000Y-103251000D02*
X106045000Y-103251000D01*
X106045000Y-103251000D02*
X106045000Y-110871000D01*
X103505000Y-108331000D02*
X106045000Y-108331000D01*
X76126340Y-85984080D02*
X76426060Y-86233000D01*
X76426060Y-86233000D02*
X76575920Y-86334600D01*
X76575920Y-86334600D02*
X75727560Y-86334600D01*
X77627480Y-85633560D02*
X75826620Y-85633560D01*
X77627480Y-85633560D02*
X77627480Y-86283800D01*
X77627480Y-90134440D02*
X75826620Y-90134440D01*
X77627480Y-90134440D02*
X77627480Y-89484200D01*
X86617000Y-87503000D02*
G75*
G03X86617000Y-87503000I-1400000J0D01*
G01*
X63500000Y-88900000D02*
X53340000Y-88900000D01*
X53340000Y-88900000D02*
X53340000Y-83820000D01*
X53340000Y-83820000D02*
X63500000Y-83820000D01*
X63500000Y-83820000D02*
X63500000Y-88900000D01*
X79679800Y-93574820D02*
X78978760Y-93574820D01*
X78978760Y-93574820D02*
X78978760Y-93325900D01*
X78978760Y-90775840D02*
X78978760Y-90575180D01*
X78978760Y-90575180D02*
X79679800Y-90575180D01*
X50410000Y-130953000D02*
X50410000Y-132953000D01*
X52460000Y-132953000D02*
X52460000Y-130953000D01*
X60976000Y-100720000D02*
X62976000Y-100720000D01*
X62976000Y-98670000D02*
X60976000Y-98670000D01*
X67691000Y-129032000D02*
G75*
G03X67691000Y-129032000I-127000J0D01*
G01*
X74549000Y-129667000D02*
X66929000Y-129667000D01*
X66929000Y-129667000D02*
X66929000Y-120777000D01*
X74549000Y-120777000D02*
X74549000Y-129667000D01*
X74549000Y-121412000D02*
X74549000Y-121412000D01*
X66929000Y-120777000D02*
X74549000Y-120777000D01*
X86325000Y-95662000D02*
X86325000Y-96362000D01*
X85125000Y-96362000D02*
X85125000Y-95662000D01*
X89500000Y-102647000D02*
X89500000Y-103347000D01*
X88300000Y-103347000D02*
X88300000Y-102647000D01*
X81118000Y-95789000D02*
X81118000Y-96489000D01*
X79918000Y-96489000D02*
X79918000Y-95789000D01*
X95869000Y-98670000D02*
X93869000Y-98670000D01*
X93869000Y-100720000D02*
X95869000Y-100720000D01*
X92933000Y-104994000D02*
X92233000Y-104994000D01*
X92233000Y-103794000D02*
X92933000Y-103794000D01*
X90389000Y-95662000D02*
X90389000Y-96362000D01*
X89189000Y-96362000D02*
X89189000Y-95662000D01*
X98644000Y-103536000D02*
X98644000Y-104236000D01*
X97444000Y-104236000D02*
X97444000Y-103536000D01*
X96489000Y-97120000D02*
X95789000Y-97120000D01*
X95789000Y-95920000D02*
X96489000Y-95920000D01*
X94650000Y-110078000D02*
X94650000Y-109378000D01*
X95850000Y-109378000D02*
X95850000Y-110078000D01*
X95850000Y-113950000D02*
X95850000Y-114650000D01*
X94650000Y-114650000D02*
X94650000Y-113950000D01*
X91471000Y-107985000D02*
X92171000Y-107985000D01*
X92171000Y-109185000D02*
X91471000Y-109185000D01*
X91598000Y-112684000D02*
X92298000Y-112684000D01*
X92298000Y-113884000D02*
X91598000Y-113884000D01*
X105375000Y-95408000D02*
X105375000Y-96108000D01*
X104175000Y-96108000D02*
X104175000Y-95408000D01*
X56388000Y-102616000D02*
X56388000Y-107696000D01*
X56388000Y-107696000D02*
X53848000Y-107696000D01*
X53848000Y-107696000D02*
X53848000Y-102616000D01*
X53848000Y-102616000D02*
X56388000Y-102616000D01*
X55118000Y-102616000D02*
X55118000Y-101346000D01*
X55118000Y-107696000D02*
X55118000Y-108966000D01*
X94965000Y-102962000D02*
X94265000Y-102962000D01*
X94265000Y-101762000D02*
X94965000Y-101762000D01*
X92171000Y-111217000D02*
X91471000Y-111217000D01*
X91471000Y-110017000D02*
X92171000Y-110017000D01*
X92298000Y-115916000D02*
X91598000Y-115916000D01*
X91598000Y-114716000D02*
X92298000Y-114716000D01*
X98136000Y-109378000D02*
X98136000Y-110078000D01*
X96936000Y-110078000D02*
X96936000Y-109378000D01*
X96936000Y-114523000D02*
X96936000Y-113823000D01*
X98136000Y-113823000D02*
X98136000Y-114523000D01*
X85471000Y-128651000D02*
G75*
G03X85471000Y-128651000I-127000J0D01*
G01*
X92329000Y-129286000D02*
X84709000Y-129286000D01*
X84709000Y-129286000D02*
X84709000Y-120396000D01*
X92329000Y-120396000D02*
X92329000Y-129286000D01*
X92329000Y-121031000D02*
X92329000Y-121031000D01*
X84709000Y-120396000D02*
X92329000Y-120396000D01*
X77177000Y-99165000D02*
X77177000Y-99390000D01*
X81827000Y-99165000D02*
X81827000Y-99490000D01*
X81827000Y-109115000D02*
X81827000Y-108790000D01*
X77177000Y-109115000D02*
X77177000Y-108790000D01*
X77177000Y-99165000D02*
X81827000Y-99165000D01*
X77177000Y-109115000D02*
X81827000Y-109115000D01*
X77177000Y-99390000D02*
X76102000Y-99390000D01*
X48537905Y-95829381D02*
X48537905Y-94829381D01*
X48918858Y-94829381D01*
X49014096Y-94877000D01*
X49061715Y-94924619D01*
X49109334Y-95019857D01*
X49109334Y-95162714D01*
X49061715Y-95257952D01*
X49014096Y-95305571D01*
X48918858Y-95353190D01*
X48537905Y-95353190D01*
X49490286Y-94924619D02*
X49537905Y-94877000D01*
X49633143Y-94829381D01*
X49871239Y-94829381D01*
X49966477Y-94877000D01*
X50014096Y-94924619D01*
X50061715Y-95019857D01*
X50061715Y-95115095D01*
X50014096Y-95257952D01*
X49442667Y-95829381D01*
X50061715Y-95829381D01*
X46228096Y-84590000D02*
X46132858Y-84542381D01*
X45990001Y-84542381D01*
X45847143Y-84590000D01*
X45751905Y-84685238D01*
X45704286Y-84780476D01*
X45656667Y-84970952D01*
X45656667Y-85113810D01*
X45704286Y-85304286D01*
X45751905Y-85399524D01*
X45847143Y-85494762D01*
X45990001Y-85542381D01*
X46085239Y-85542381D01*
X46228096Y-85494762D01*
X46275715Y-85447143D01*
X46275715Y-85113810D01*
X46085239Y-85113810D01*
X46704286Y-85542381D02*
X46704286Y-84542381D01*
X47275715Y-85542381D01*
X47275715Y-84542381D01*
X47751905Y-85542381D02*
X47751905Y-84542381D01*
X47990000Y-84542381D01*
X48132858Y-84590000D01*
X48228096Y-84685238D01*
X48275715Y-84780476D01*
X48323334Y-84970952D01*
X48323334Y-85113810D01*
X48275715Y-85304286D01*
X48228096Y-85399524D01*
X48132858Y-85494762D01*
X47990000Y-85542381D01*
X47751905Y-85542381D01*
X101639905Y-91225667D02*
X102116096Y-91225667D01*
X101544667Y-91511381D02*
X101878000Y-90511381D01*
X102211334Y-91511381D01*
X102735143Y-90511381D02*
X102925620Y-90511381D01*
X103020858Y-90559000D01*
X103116096Y-90654238D01*
X103163715Y-90844714D01*
X103163715Y-91178048D01*
X103116096Y-91368524D01*
X103020858Y-91463762D01*
X102925620Y-91511381D01*
X102735143Y-91511381D01*
X102639905Y-91463762D01*
X102544667Y-91368524D01*
X102497048Y-91178048D01*
X102497048Y-90844714D01*
X102544667Y-90654238D01*
X102639905Y-90559000D01*
X102735143Y-90511381D01*
X103592286Y-91511381D02*
X103592286Y-90511381D01*
X103973239Y-90511381D01*
X104068477Y-90559000D01*
X104116096Y-90606619D01*
X104163715Y-90701857D01*
X104163715Y-90844714D01*
X104116096Y-90939952D01*
X104068477Y-90987571D01*
X103973239Y-91035190D01*
X103592286Y-91035190D01*
X105116096Y-91511381D02*
X104544667Y-91511381D01*
X104830381Y-91511381D02*
X104830381Y-90511381D01*
X104735143Y-90654238D01*
X104639905Y-90749476D01*
X104544667Y-90797095D01*
X50633334Y-92813143D02*
X50585715Y-92860762D01*
X50442858Y-92908381D01*
X50347620Y-92908381D01*
X50204762Y-92860762D01*
X50109524Y-92765524D01*
X50061905Y-92670286D01*
X50014286Y-92479810D01*
X50014286Y-92336952D01*
X50061905Y-92146476D01*
X50109524Y-92051238D01*
X50204762Y-91956000D01*
X50347620Y-91908381D01*
X50442858Y-91908381D01*
X50585715Y-91956000D01*
X50633334Y-92003619D01*
X51585715Y-92908381D02*
X51014286Y-92908381D01*
X51300000Y-92908381D02*
X51300000Y-91908381D01*
X51204762Y-92051238D01*
X51109524Y-92146476D01*
X51014286Y-92194095D01*
X61682334Y-94083143D02*
X61634715Y-94130762D01*
X61491858Y-94178381D01*
X61396620Y-94178381D01*
X61253762Y-94130762D01*
X61158524Y-94035524D01*
X61110905Y-93940286D01*
X61063286Y-93749810D01*
X61063286Y-93606952D01*
X61110905Y-93416476D01*
X61158524Y-93321238D01*
X61253762Y-93226000D01*
X61396620Y-93178381D01*
X61491858Y-93178381D01*
X61634715Y-93226000D01*
X61682334Y-93273619D01*
X62063286Y-93273619D02*
X62110905Y-93226000D01*
X62206143Y-93178381D01*
X62444239Y-93178381D01*
X62539477Y-93226000D01*
X62587096Y-93273619D01*
X62634715Y-93368857D01*
X62634715Y-93464095D01*
X62587096Y-93606952D01*
X62015667Y-94178381D01*
X62634715Y-94178381D01*
X63841334Y-94210143D02*
X63793715Y-94257762D01*
X63650858Y-94305381D01*
X63555620Y-94305381D01*
X63412762Y-94257762D01*
X63317524Y-94162524D01*
X63269905Y-94067286D01*
X63222286Y-93876810D01*
X63222286Y-93733952D01*
X63269905Y-93543476D01*
X63317524Y-93448238D01*
X63412762Y-93353000D01*
X63555620Y-93305381D01*
X63650858Y-93305381D01*
X63793715Y-93353000D01*
X63841334Y-93400619D01*
X64174667Y-93305381D02*
X64793715Y-93305381D01*
X64460381Y-93686333D01*
X64603239Y-93686333D01*
X64698477Y-93733952D01*
X64746096Y-93781571D01*
X64793715Y-93876810D01*
X64793715Y-94114905D01*
X64746096Y-94210143D01*
X64698477Y-94257762D01*
X64603239Y-94305381D01*
X64317524Y-94305381D01*
X64222286Y-94257762D01*
X64174667Y-94210143D01*
X65746334Y-102846143D02*
X65698715Y-102893762D01*
X65555858Y-102941381D01*
X65460620Y-102941381D01*
X65317762Y-102893762D01*
X65222524Y-102798524D01*
X65174905Y-102703286D01*
X65127286Y-102512810D01*
X65127286Y-102369952D01*
X65174905Y-102179476D01*
X65222524Y-102084238D01*
X65317762Y-101989000D01*
X65460620Y-101941381D01*
X65555858Y-101941381D01*
X65698715Y-101989000D01*
X65746334Y-102036619D01*
X66651096Y-101941381D02*
X66174905Y-101941381D01*
X66127286Y-102417571D01*
X66174905Y-102369952D01*
X66270143Y-102322333D01*
X66508239Y-102322333D01*
X66603477Y-102369952D01*
X66651096Y-102417571D01*
X66698715Y-102512810D01*
X66698715Y-102750905D01*
X66651096Y-102846143D01*
X66603477Y-102893762D01*
X66508239Y-102941381D01*
X66270143Y-102941381D01*
X66174905Y-102893762D01*
X66127286Y-102846143D01*
X93559334Y-91797143D02*
X93511715Y-91844762D01*
X93368858Y-91892381D01*
X93273620Y-91892381D01*
X93130762Y-91844762D01*
X93035524Y-91749524D01*
X92987905Y-91654286D01*
X92940286Y-91463810D01*
X92940286Y-91320952D01*
X92987905Y-91130476D01*
X93035524Y-91035238D01*
X93130762Y-90940000D01*
X93273620Y-90892381D01*
X93368858Y-90892381D01*
X93511715Y-90940000D01*
X93559334Y-90987619D01*
X94416477Y-90892381D02*
X94226000Y-90892381D01*
X94130762Y-90940000D01*
X94083143Y-90987619D01*
X93987905Y-91130476D01*
X93940286Y-91320952D01*
X93940286Y-91701905D01*
X93987905Y-91797143D01*
X94035524Y-91844762D01*
X94130762Y-91892381D01*
X94321239Y-91892381D01*
X94416477Y-91844762D01*
X94464096Y-91797143D01*
X94511715Y-91701905D01*
X94511715Y-91463810D01*
X94464096Y-91368571D01*
X94416477Y-91320952D01*
X94321239Y-91273333D01*
X94130762Y-91273333D01*
X94035524Y-91320952D01*
X93987905Y-91368571D01*
X93940286Y-91463810D01*
X76684143Y-96178666D02*
X76731762Y-96226285D01*
X76779381Y-96369142D01*
X76779381Y-96464380D01*
X76731762Y-96607238D01*
X76636524Y-96702476D01*
X76541286Y-96750095D01*
X76350810Y-96797714D01*
X76207952Y-96797714D01*
X76017476Y-96750095D01*
X75922238Y-96702476D01*
X75827000Y-96607238D01*
X75779381Y-96464380D01*
X75779381Y-96369142D01*
X75827000Y-96226285D01*
X75874619Y-96178666D01*
X75779381Y-95845333D02*
X75779381Y-95178666D01*
X76779381Y-95607238D01*
X70572334Y-106275143D02*
X70524715Y-106322762D01*
X70381858Y-106370381D01*
X70286620Y-106370381D01*
X70143762Y-106322762D01*
X70048524Y-106227524D01*
X70000905Y-106132286D01*
X69953286Y-105941810D01*
X69953286Y-105798952D01*
X70000905Y-105608476D01*
X70048524Y-105513238D01*
X70143762Y-105418000D01*
X70286620Y-105370381D01*
X70381858Y-105370381D01*
X70524715Y-105418000D01*
X70572334Y-105465619D01*
X71143762Y-105798952D02*
X71048524Y-105751333D01*
X71000905Y-105703714D01*
X70953286Y-105608476D01*
X70953286Y-105560857D01*
X71000905Y-105465619D01*
X71048524Y-105418000D01*
X71143762Y-105370381D01*
X71334239Y-105370381D01*
X71429477Y-105418000D01*
X71477096Y-105465619D01*
X71524715Y-105560857D01*
X71524715Y-105608476D01*
X71477096Y-105703714D01*
X71429477Y-105751333D01*
X71334239Y-105798952D01*
X71143762Y-105798952D01*
X71048524Y-105846571D01*
X71000905Y-105894190D01*
X70953286Y-105989429D01*
X70953286Y-106179905D01*
X71000905Y-106275143D01*
X71048524Y-106322762D01*
X71143762Y-106370381D01*
X71334239Y-106370381D01*
X71429477Y-106322762D01*
X71477096Y-106275143D01*
X71524715Y-106179905D01*
X71524715Y-105989429D01*
X71477096Y-105894190D01*
X71429477Y-105846571D01*
X71334239Y-105798952D01*
X69572143Y-98464666D02*
X69619762Y-98512285D01*
X69667381Y-98655142D01*
X69667381Y-98750380D01*
X69619762Y-98893238D01*
X69524524Y-98988476D01*
X69429286Y-99036095D01*
X69238810Y-99083714D01*
X69095952Y-99083714D01*
X68905476Y-99036095D01*
X68810238Y-98988476D01*
X68715000Y-98893238D01*
X68667381Y-98750380D01*
X68667381Y-98655142D01*
X68715000Y-98512285D01*
X68762619Y-98464666D01*
X69667381Y-97988476D02*
X69667381Y-97798000D01*
X69619762Y-97702761D01*
X69572143Y-97655142D01*
X69429286Y-97559904D01*
X69238810Y-97512285D01*
X68857857Y-97512285D01*
X68762619Y-97559904D01*
X68715000Y-97607523D01*
X68667381Y-97702761D01*
X68667381Y-97893238D01*
X68715000Y-97988476D01*
X68762619Y-98036095D01*
X68857857Y-98083714D01*
X69095952Y-98083714D01*
X69191190Y-98036095D01*
X69238810Y-97988476D01*
X69286429Y-97893238D01*
X69286429Y-97702761D01*
X69238810Y-97607523D01*
X69191190Y-97559904D01*
X69095952Y-97512285D01*
X58015143Y-109608857D02*
X58062762Y-109656476D01*
X58110381Y-109799333D01*
X58110381Y-109894571D01*
X58062762Y-110037429D01*
X57967524Y-110132667D01*
X57872286Y-110180286D01*
X57681810Y-110227905D01*
X57538952Y-110227905D01*
X57348476Y-110180286D01*
X57253238Y-110132667D01*
X57158000Y-110037429D01*
X57110381Y-109894571D01*
X57110381Y-109799333D01*
X57158000Y-109656476D01*
X57205619Y-109608857D01*
X58110381Y-108656476D02*
X58110381Y-109227905D01*
X58110381Y-108942191D02*
X57110381Y-108942191D01*
X57253238Y-109037429D01*
X57348476Y-109132667D01*
X57396095Y-109227905D01*
X57110381Y-108037429D02*
X57110381Y-107942190D01*
X57158000Y-107846952D01*
X57205619Y-107799333D01*
X57300857Y-107751714D01*
X57491333Y-107704095D01*
X57729429Y-107704095D01*
X57919905Y-107751714D01*
X58015143Y-107799333D01*
X58062762Y-107846952D01*
X58110381Y-107942190D01*
X58110381Y-108037429D01*
X58062762Y-108132667D01*
X58015143Y-108180286D01*
X57919905Y-108227905D01*
X57729429Y-108275524D01*
X57491333Y-108275524D01*
X57300857Y-108227905D01*
X57205619Y-108180286D01*
X57158000Y-108132667D01*
X57110381Y-108037429D01*
X60063143Y-109831143D02*
X60015524Y-109878762D01*
X59872667Y-109926381D01*
X59777429Y-109926381D01*
X59634571Y-109878762D01*
X59539333Y-109783524D01*
X59491714Y-109688286D01*
X59444095Y-109497810D01*
X59444095Y-109354952D01*
X59491714Y-109164476D01*
X59539333Y-109069238D01*
X59634571Y-108974000D01*
X59777429Y-108926381D01*
X59872667Y-108926381D01*
X60015524Y-108974000D01*
X60063143Y-109021619D01*
X61015524Y-109926381D02*
X60444095Y-109926381D01*
X60729809Y-109926381D02*
X60729809Y-108926381D01*
X60634571Y-109069238D01*
X60539333Y-109164476D01*
X60444095Y-109212095D01*
X61967905Y-109926381D02*
X61396476Y-109926381D01*
X61682190Y-109926381D02*
X61682190Y-108926381D01*
X61586952Y-109069238D01*
X61491714Y-109164476D01*
X61396476Y-109212095D01*
X60190143Y-106783143D02*
X60142524Y-106830762D01*
X59999667Y-106878381D01*
X59904429Y-106878381D01*
X59761571Y-106830762D01*
X59666333Y-106735524D01*
X59618714Y-106640286D01*
X59571095Y-106449810D01*
X59571095Y-106306952D01*
X59618714Y-106116476D01*
X59666333Y-106021238D01*
X59761571Y-105926000D01*
X59904429Y-105878381D01*
X59999667Y-105878381D01*
X60142524Y-105926000D01*
X60190143Y-105973619D01*
X61142524Y-106878381D02*
X60571095Y-106878381D01*
X60856809Y-106878381D02*
X60856809Y-105878381D01*
X60761571Y-106021238D01*
X60666333Y-106116476D01*
X60571095Y-106164095D01*
X61523476Y-105973619D02*
X61571095Y-105926000D01*
X61666333Y-105878381D01*
X61904429Y-105878381D01*
X61999667Y-105926000D01*
X62047286Y-105973619D01*
X62094905Y-106068857D01*
X62094905Y-106164095D01*
X62047286Y-106306952D01*
X61475857Y-106878381D01*
X62094905Y-106878381D01*
X80129143Y-116562143D02*
X80081524Y-116609762D01*
X79938667Y-116657381D01*
X79843429Y-116657381D01*
X79700571Y-116609762D01*
X79605333Y-116514524D01*
X79557714Y-116419286D01*
X79510095Y-116228810D01*
X79510095Y-116085952D01*
X79557714Y-115895476D01*
X79605333Y-115800238D01*
X79700571Y-115705000D01*
X79843429Y-115657381D01*
X79938667Y-115657381D01*
X80081524Y-115705000D01*
X80129143Y-115752619D01*
X81081524Y-116657381D02*
X80510095Y-116657381D01*
X80795809Y-116657381D02*
X80795809Y-115657381D01*
X80700571Y-115800238D01*
X80605333Y-115895476D01*
X80510095Y-115943095D01*
X81414857Y-115657381D02*
X82033905Y-115657381D01*
X81700571Y-116038333D01*
X81843429Y-116038333D01*
X81938667Y-116085952D01*
X81986286Y-116133571D01*
X82033905Y-116228810D01*
X82033905Y-116466905D01*
X81986286Y-116562143D01*
X81938667Y-116609762D01*
X81843429Y-116657381D01*
X81557714Y-116657381D01*
X81462476Y-116609762D01*
X81414857Y-116562143D01*
X66032143Y-107291143D02*
X65984524Y-107338762D01*
X65841667Y-107386381D01*
X65746429Y-107386381D01*
X65603571Y-107338762D01*
X65508333Y-107243524D01*
X65460714Y-107148286D01*
X65413095Y-106957810D01*
X65413095Y-106814952D01*
X65460714Y-106624476D01*
X65508333Y-106529238D01*
X65603571Y-106434000D01*
X65746429Y-106386381D01*
X65841667Y-106386381D01*
X65984524Y-106434000D01*
X66032143Y-106481619D01*
X66984524Y-107386381D02*
X66413095Y-107386381D01*
X66698809Y-107386381D02*
X66698809Y-106386381D01*
X66603571Y-106529238D01*
X66508333Y-106624476D01*
X66413095Y-106672095D01*
X67841667Y-106719714D02*
X67841667Y-107386381D01*
X67603571Y-106338762D02*
X67365476Y-107053048D01*
X67984524Y-107053048D01*
X67032143Y-118244857D02*
X67079762Y-118292476D01*
X67127381Y-118435333D01*
X67127381Y-118530571D01*
X67079762Y-118673429D01*
X66984524Y-118768667D01*
X66889286Y-118816286D01*
X66698810Y-118863905D01*
X66555952Y-118863905D01*
X66365476Y-118816286D01*
X66270238Y-118768667D01*
X66175000Y-118673429D01*
X66127381Y-118530571D01*
X66127381Y-118435333D01*
X66175000Y-118292476D01*
X66222619Y-118244857D01*
X67127381Y-117292476D02*
X67127381Y-117863905D01*
X67127381Y-117578191D02*
X66127381Y-117578191D01*
X66270238Y-117673429D01*
X66365476Y-117768667D01*
X66413095Y-117863905D01*
X66127381Y-116387714D02*
X66127381Y-116863905D01*
X66603571Y-116911524D01*
X66555952Y-116863905D01*
X66508333Y-116768667D01*
X66508333Y-116530571D01*
X66555952Y-116435333D01*
X66603571Y-116387714D01*
X66698810Y-116340095D01*
X66936905Y-116340095D01*
X67032143Y-116387714D01*
X67079762Y-116435333D01*
X67127381Y-116530571D01*
X67127381Y-116768667D01*
X67079762Y-116863905D01*
X67032143Y-116911524D01*
X89209667Y-88860381D02*
X89209667Y-89574667D01*
X89162047Y-89717524D01*
X89066809Y-89812762D01*
X88923952Y-89860381D01*
X88828714Y-89860381D01*
X89685857Y-89860381D02*
X89685857Y-88860381D01*
X90066810Y-88860381D01*
X90162048Y-88908000D01*
X90209667Y-88955619D01*
X90257286Y-89050857D01*
X90257286Y-89193714D01*
X90209667Y-89288952D01*
X90162048Y-89336571D01*
X90066810Y-89384190D01*
X89685857Y-89384190D01*
X91209667Y-89860381D02*
X90638238Y-89860381D01*
X90923952Y-89860381D02*
X90923952Y-88860381D01*
X90828714Y-89003238D01*
X90733476Y-89098476D01*
X90638238Y-89146095D01*
X57999334Y-95702381D02*
X57523143Y-95702381D01*
X57523143Y-94702381D01*
X58856477Y-95702381D02*
X58285048Y-95702381D01*
X58570762Y-95702381D02*
X58570762Y-94702381D01*
X58475524Y-94845238D01*
X58380286Y-94940476D01*
X58285048Y-94988095D01*
X72350334Y-94432381D02*
X71874143Y-94432381D01*
X71874143Y-93432381D01*
X72636048Y-93527619D02*
X72683667Y-93480000D01*
X72778905Y-93432381D01*
X73017001Y-93432381D01*
X73112239Y-93480000D01*
X73159858Y-93527619D01*
X73207477Y-93622857D01*
X73207477Y-93718095D01*
X73159858Y-93860952D01*
X72588429Y-94432381D01*
X73207477Y-94432381D01*
X72985334Y-110815381D02*
X72509143Y-110815381D01*
X72509143Y-109815381D01*
X73223429Y-109815381D02*
X73842477Y-109815381D01*
X73509143Y-110196333D01*
X73652001Y-110196333D01*
X73747239Y-110243952D01*
X73794858Y-110291571D01*
X73842477Y-110386810D01*
X73842477Y-110624905D01*
X73794858Y-110720143D01*
X73747239Y-110767762D01*
X73652001Y-110815381D01*
X73366286Y-110815381D01*
X73271048Y-110767762D01*
X73223429Y-110720143D01*
X73239334Y-115387381D02*
X72763143Y-115387381D01*
X72763143Y-114387381D01*
X74001239Y-114720714D02*
X74001239Y-115387381D01*
X73763143Y-114339762D02*
X73525048Y-115054048D01*
X74144096Y-115054048D01*
X83780334Y-111069381D02*
X83304143Y-111069381D01*
X83304143Y-110069381D01*
X84589858Y-110069381D02*
X84113667Y-110069381D01*
X84066048Y-110545571D01*
X84113667Y-110497952D01*
X84208905Y-110450333D01*
X84447001Y-110450333D01*
X84542239Y-110497952D01*
X84589858Y-110545571D01*
X84637477Y-110640810D01*
X84637477Y-110878905D01*
X84589858Y-110974143D01*
X84542239Y-111021762D01*
X84447001Y-111069381D01*
X84208905Y-111069381D01*
X84113667Y-111021762D01*
X84066048Y-110974143D01*
X66571905Y-91765381D02*
X66571905Y-90765381D01*
X66952858Y-90765381D01*
X67048096Y-90813000D01*
X67095715Y-90860619D01*
X67143334Y-90955857D01*
X67143334Y-91098714D01*
X67095715Y-91193952D01*
X67048096Y-91241571D01*
X66952858Y-91289190D01*
X66571905Y-91289190D01*
X67476667Y-90765381D02*
X68095715Y-90765381D01*
X67762381Y-91146333D01*
X67905239Y-91146333D01*
X68000477Y-91193952D01*
X68048096Y-91241571D01*
X68095715Y-91336810D01*
X68095715Y-91574905D01*
X68048096Y-91670143D01*
X68000477Y-91717762D01*
X67905239Y-91765381D01*
X67619524Y-91765381D01*
X67524286Y-91717762D01*
X67476667Y-91670143D01*
X57872334Y-102687381D02*
X57539000Y-102211190D01*
X57300905Y-102687381D02*
X57300905Y-101687381D01*
X57681858Y-101687381D01*
X57777096Y-101735000D01*
X57824715Y-101782619D01*
X57872334Y-101877857D01*
X57872334Y-102020714D01*
X57824715Y-102115952D01*
X57777096Y-102163571D01*
X57681858Y-102211190D01*
X57300905Y-102211190D01*
X58824715Y-102687381D02*
X58253286Y-102687381D01*
X58539000Y-102687381D02*
X58539000Y-101687381D01*
X58443762Y-101830238D01*
X58348524Y-101925476D01*
X58253286Y-101973095D01*
X96226334Y-91892381D02*
X95893000Y-91416190D01*
X95654905Y-91892381D02*
X95654905Y-90892381D01*
X96035858Y-90892381D01*
X96131096Y-90940000D01*
X96178715Y-90987619D01*
X96226334Y-91082857D01*
X96226334Y-91225714D01*
X96178715Y-91320952D01*
X96131096Y-91368571D01*
X96035858Y-91416190D01*
X95654905Y-91416190D01*
X96607286Y-90987619D02*
X96654905Y-90940000D01*
X96750143Y-90892381D01*
X96988239Y-90892381D01*
X97083477Y-90940000D01*
X97131096Y-90987619D01*
X97178715Y-91082857D01*
X97178715Y-91178095D01*
X97131096Y-91320952D01*
X96559667Y-91892381D01*
X97178715Y-91892381D01*
X73112334Y-108656381D02*
X72779000Y-108180190D01*
X72540905Y-108656381D02*
X72540905Y-107656381D01*
X72921858Y-107656381D01*
X73017096Y-107704000D01*
X73064715Y-107751619D01*
X73112334Y-107846857D01*
X73112334Y-107989714D01*
X73064715Y-108084952D01*
X73017096Y-108132571D01*
X72921858Y-108180190D01*
X72540905Y-108180190D01*
X73445667Y-107656381D02*
X74064715Y-107656381D01*
X73731381Y-108037333D01*
X73874239Y-108037333D01*
X73969477Y-108084952D01*
X74017096Y-108132571D01*
X74064715Y-108227810D01*
X74064715Y-108465905D01*
X74017096Y-108561143D01*
X73969477Y-108608762D01*
X73874239Y-108656381D01*
X73588524Y-108656381D01*
X73493286Y-108608762D01*
X73445667Y-108561143D01*
X73112334Y-113482381D02*
X72779000Y-113006190D01*
X72540905Y-113482381D02*
X72540905Y-112482381D01*
X72921858Y-112482381D01*
X73017096Y-112530000D01*
X73064715Y-112577619D01*
X73112334Y-112672857D01*
X73112334Y-112815714D01*
X73064715Y-112910952D01*
X73017096Y-112958571D01*
X72921858Y-113006190D01*
X72540905Y-113006190D01*
X73969477Y-112815714D02*
X73969477Y-113482381D01*
X73731381Y-112434762D02*
X73493286Y-113149048D01*
X74112334Y-113149048D01*
X63698381Y-109386666D02*
X63222190Y-109720000D01*
X63698381Y-109958095D02*
X62698381Y-109958095D01*
X62698381Y-109577142D01*
X62746000Y-109481904D01*
X62793619Y-109434285D01*
X62888857Y-109386666D01*
X63031714Y-109386666D01*
X63126952Y-109434285D01*
X63174571Y-109481904D01*
X63222190Y-109577142D01*
X63222190Y-109958095D01*
X62698381Y-108481904D02*
X62698381Y-108958095D01*
X63174571Y-109005714D01*
X63126952Y-108958095D01*
X63079333Y-108862857D01*
X63079333Y-108624761D01*
X63126952Y-108529523D01*
X63174571Y-108481904D01*
X63269810Y-108434285D01*
X63507905Y-108434285D01*
X63603143Y-108481904D01*
X63650762Y-108529523D01*
X63698381Y-108624761D01*
X63698381Y-108862857D01*
X63650762Y-108958095D01*
X63603143Y-109005714D01*
X65095381Y-117387666D02*
X64619190Y-117721000D01*
X65095381Y-117959095D02*
X64095381Y-117959095D01*
X64095381Y-117578142D01*
X64143000Y-117482904D01*
X64190619Y-117435285D01*
X64285857Y-117387666D01*
X64428714Y-117387666D01*
X64523952Y-117435285D01*
X64571571Y-117482904D01*
X64619190Y-117578142D01*
X64619190Y-117959095D01*
X64095381Y-116530523D02*
X64095381Y-116721000D01*
X64143000Y-116816238D01*
X64190619Y-116863857D01*
X64333476Y-116959095D01*
X64523952Y-117006714D01*
X64904905Y-117006714D01*
X65000143Y-116959095D01*
X65047762Y-116911476D01*
X65095381Y-116816238D01*
X65095381Y-116625761D01*
X65047762Y-116530523D01*
X65000143Y-116482904D01*
X64904905Y-116435285D01*
X64666810Y-116435285D01*
X64571571Y-116482904D01*
X64523952Y-116530523D01*
X64476333Y-116625761D01*
X64476333Y-116816238D01*
X64523952Y-116911476D01*
X64571571Y-116959095D01*
X64666810Y-117006714D01*
X102639762Y-108394333D02*
X102687381Y-108251476D01*
X102687381Y-108013380D01*
X102639762Y-107918142D01*
X102592143Y-107870523D01*
X102496905Y-107822904D01*
X102401667Y-107822904D01*
X102306429Y-107870523D01*
X102258810Y-107918142D01*
X102211190Y-108013380D01*
X102163571Y-108203857D01*
X102115952Y-108299095D01*
X102068333Y-108346714D01*
X101973095Y-108394333D01*
X101877857Y-108394333D01*
X101782619Y-108346714D01*
X101735000Y-108299095D01*
X101687381Y-108203857D01*
X101687381Y-107965761D01*
X101735000Y-107822904D01*
X101687381Y-107489571D02*
X102687381Y-107251476D01*
X101973095Y-107060999D01*
X102687381Y-106870523D01*
X101687381Y-106632428D01*
X102687381Y-105727666D02*
X102687381Y-106299095D01*
X102687381Y-106013381D02*
X101687381Y-106013381D01*
X101830238Y-106108619D01*
X101925476Y-106203857D01*
X101973095Y-106299095D01*
X80780641Y-88595105D02*
X81590165Y-88595105D01*
X81685403Y-88547486D01*
X81733022Y-88499867D01*
X81780641Y-88404629D01*
X81780641Y-88214152D01*
X81733022Y-88118914D01*
X81685403Y-88071295D01*
X81590165Y-88023676D01*
X80780641Y-88023676D01*
X81780641Y-87023676D02*
X81780641Y-87595105D01*
X81780641Y-87309391D02*
X80780641Y-87309391D01*
X80923498Y-87404629D01*
X81018736Y-87499867D01*
X81066355Y-87595105D01*
X84312238Y-89368381D02*
X84550333Y-90368381D01*
X84740810Y-89654095D01*
X84931286Y-90368381D01*
X85169381Y-89368381D01*
X86074143Y-90368381D02*
X85502714Y-90368381D01*
X85788428Y-90368381D02*
X85788428Y-89368381D01*
X85693190Y-89511238D01*
X85597952Y-89606476D01*
X85502714Y-89654095D01*
X57173905Y-90622381D02*
X57173905Y-89622381D01*
X57554858Y-89622381D01*
X57650096Y-89670000D01*
X57697715Y-89717619D01*
X57745334Y-89812857D01*
X57745334Y-89955714D01*
X57697715Y-90050952D01*
X57650096Y-90098571D01*
X57554858Y-90146190D01*
X57173905Y-90146190D01*
X58697715Y-90622381D02*
X58126286Y-90622381D01*
X58412000Y-90622381D02*
X58412000Y-89622381D01*
X58316762Y-89765238D01*
X58221524Y-89860476D01*
X58126286Y-89908095D01*
X83637381Y-92686095D02*
X82637381Y-92686095D01*
X82637381Y-92448000D01*
X82685000Y-92305142D01*
X82780238Y-92209904D01*
X82875476Y-92162285D01*
X83065952Y-92114666D01*
X83208810Y-92114666D01*
X83399286Y-92162285D01*
X83494524Y-92209904D01*
X83589762Y-92305142D01*
X83637381Y-92448000D01*
X83637381Y-92686095D01*
X83637381Y-91162285D02*
X83637381Y-91733714D01*
X83637381Y-91448000D02*
X82637381Y-91448000D01*
X82780238Y-91543238D01*
X82875476Y-91638476D01*
X82923095Y-91733714D01*
X49887143Y-132595857D02*
X49934762Y-132643476D01*
X49982381Y-132786333D01*
X49982381Y-132881571D01*
X49934762Y-133024429D01*
X49839524Y-133119667D01*
X49744286Y-133167286D01*
X49553810Y-133214905D01*
X49410952Y-133214905D01*
X49220476Y-133167286D01*
X49125238Y-133119667D01*
X49030000Y-133024429D01*
X48982381Y-132881571D01*
X48982381Y-132786333D01*
X49030000Y-132643476D01*
X49077619Y-132595857D01*
X49982381Y-131643476D02*
X49982381Y-132214905D01*
X49982381Y-131929191D02*
X48982381Y-131929191D01*
X49125238Y-132024429D01*
X49220476Y-132119667D01*
X49268095Y-132214905D01*
X48982381Y-130786333D02*
X48982381Y-130976810D01*
X49030000Y-131072048D01*
X49077619Y-131119667D01*
X49220476Y-131214905D01*
X49410952Y-131262524D01*
X49791905Y-131262524D01*
X49887143Y-131214905D01*
X49934762Y-131167286D01*
X49982381Y-131072048D01*
X49982381Y-130881571D01*
X49934762Y-130786333D01*
X49887143Y-130738714D01*
X49791905Y-130691095D01*
X49553810Y-130691095D01*
X49458571Y-130738714D01*
X49410952Y-130786333D01*
X49363333Y-130881571D01*
X49363333Y-131072048D01*
X49410952Y-131167286D01*
X49458571Y-131214905D01*
X49553810Y-131262524D01*
X66254334Y-100052143D02*
X66206715Y-100099762D01*
X66063858Y-100147381D01*
X65968620Y-100147381D01*
X65825762Y-100099762D01*
X65730524Y-100004524D01*
X65682905Y-99909286D01*
X65635286Y-99718810D01*
X65635286Y-99575952D01*
X65682905Y-99385476D01*
X65730524Y-99290238D01*
X65825762Y-99195000D01*
X65968620Y-99147381D01*
X66063858Y-99147381D01*
X66206715Y-99195000D01*
X66254334Y-99242619D01*
X67111477Y-99480714D02*
X67111477Y-100147381D01*
X66873381Y-99099762D02*
X66635286Y-99814048D01*
X67254334Y-99814048D01*
X74636381Y-125983905D02*
X74636381Y-125412476D01*
X75636381Y-125698191D02*
X74636381Y-125698191D01*
X75636381Y-124555333D02*
X75636381Y-125126762D01*
X75636381Y-124841048D02*
X74636381Y-124841048D01*
X74779238Y-124936286D01*
X74874476Y-125031524D01*
X74922095Y-125126762D01*
X87606143Y-96527857D02*
X87653762Y-96575476D01*
X87701381Y-96718333D01*
X87701381Y-96813571D01*
X87653762Y-96956429D01*
X87558524Y-97051667D01*
X87463286Y-97099286D01*
X87272810Y-97146905D01*
X87129952Y-97146905D01*
X86939476Y-97099286D01*
X86844238Y-97051667D01*
X86749000Y-96956429D01*
X86701381Y-96813571D01*
X86701381Y-96718333D01*
X86749000Y-96575476D01*
X86796619Y-96527857D01*
X87701381Y-95575476D02*
X87701381Y-96146905D01*
X87701381Y-95861191D02*
X86701381Y-95861191D01*
X86844238Y-95956429D01*
X86939476Y-96051667D01*
X86987095Y-96146905D01*
X86701381Y-95242143D02*
X86701381Y-94575476D01*
X87701381Y-95004048D01*
X87860143Y-103639857D02*
X87907762Y-103687476D01*
X87955381Y-103830333D01*
X87955381Y-103925571D01*
X87907762Y-104068429D01*
X87812524Y-104163667D01*
X87717286Y-104211286D01*
X87526810Y-104258905D01*
X87383952Y-104258905D01*
X87193476Y-104211286D01*
X87098238Y-104163667D01*
X87003000Y-104068429D01*
X86955381Y-103925571D01*
X86955381Y-103830333D01*
X87003000Y-103687476D01*
X87050619Y-103639857D01*
X87955381Y-102687476D02*
X87955381Y-103258905D01*
X87955381Y-102973191D02*
X86955381Y-102973191D01*
X87098238Y-103068429D01*
X87193476Y-103163667D01*
X87241095Y-103258905D01*
X87383952Y-102116048D02*
X87336333Y-102211286D01*
X87288714Y-102258905D01*
X87193476Y-102306524D01*
X87145857Y-102306524D01*
X87050619Y-102258905D01*
X87003000Y-102211286D01*
X86955381Y-102116048D01*
X86955381Y-101925571D01*
X87003000Y-101830333D01*
X87050619Y-101782714D01*
X87145857Y-101735095D01*
X87193476Y-101735095D01*
X87288714Y-101782714D01*
X87336333Y-101830333D01*
X87383952Y-101925571D01*
X87383952Y-102116048D01*
X87431571Y-102211286D01*
X87479190Y-102258905D01*
X87574429Y-102306524D01*
X87764905Y-102306524D01*
X87860143Y-102258905D01*
X87907762Y-102211286D01*
X87955381Y-102116048D01*
X87955381Y-101925571D01*
X87907762Y-101830333D01*
X87860143Y-101782714D01*
X87764905Y-101735095D01*
X87574429Y-101735095D01*
X87479190Y-101782714D01*
X87431571Y-101830333D01*
X87383952Y-101925571D01*
X82399143Y-96781857D02*
X82446762Y-96829476D01*
X82494381Y-96972333D01*
X82494381Y-97067571D01*
X82446762Y-97210429D01*
X82351524Y-97305667D01*
X82256286Y-97353286D01*
X82065810Y-97400905D01*
X81922952Y-97400905D01*
X81732476Y-97353286D01*
X81637238Y-97305667D01*
X81542000Y-97210429D01*
X81494381Y-97067571D01*
X81494381Y-96972333D01*
X81542000Y-96829476D01*
X81589619Y-96781857D01*
X82494381Y-95829476D02*
X82494381Y-96400905D01*
X82494381Y-96115191D02*
X81494381Y-96115191D01*
X81637238Y-96210429D01*
X81732476Y-96305667D01*
X81780095Y-96400905D01*
X82494381Y-95353286D02*
X82494381Y-95162810D01*
X82446762Y-95067571D01*
X82399143Y-95019952D01*
X82256286Y-94924714D01*
X82065810Y-94877095D01*
X81684857Y-94877095D01*
X81589619Y-94924714D01*
X81542000Y-94972333D01*
X81494381Y-95067571D01*
X81494381Y-95258048D01*
X81542000Y-95353286D01*
X81589619Y-95400905D01*
X81684857Y-95448524D01*
X81922952Y-95448524D01*
X82018190Y-95400905D01*
X82065810Y-95353286D01*
X82113429Y-95258048D01*
X82113429Y-95067571D01*
X82065810Y-94972333D01*
X82018190Y-94924714D01*
X81922952Y-94877095D01*
X94353143Y-98274143D02*
X94305524Y-98321762D01*
X94162667Y-98369381D01*
X94067429Y-98369381D01*
X93924571Y-98321762D01*
X93829333Y-98226524D01*
X93781714Y-98131286D01*
X93734095Y-97940810D01*
X93734095Y-97797952D01*
X93781714Y-97607476D01*
X93829333Y-97512238D01*
X93924571Y-97417000D01*
X94067429Y-97369381D01*
X94162667Y-97369381D01*
X94305524Y-97417000D01*
X94353143Y-97464619D01*
X94734095Y-97464619D02*
X94781714Y-97417000D01*
X94876952Y-97369381D01*
X95115048Y-97369381D01*
X95210286Y-97417000D01*
X95257905Y-97464619D01*
X95305524Y-97559857D01*
X95305524Y-97655095D01*
X95257905Y-97797952D01*
X94686476Y-98369381D01*
X95305524Y-98369381D01*
X95924571Y-97369381D02*
X96019810Y-97369381D01*
X96115048Y-97417000D01*
X96162667Y-97464619D01*
X96210286Y-97559857D01*
X96257905Y-97750333D01*
X96257905Y-97988429D01*
X96210286Y-98178905D01*
X96162667Y-98274143D01*
X96115048Y-98321762D01*
X96019810Y-98369381D01*
X95924571Y-98369381D01*
X95829333Y-98321762D01*
X95781714Y-98274143D01*
X95734095Y-98178905D01*
X95686476Y-97988429D01*
X95686476Y-97750333D01*
X95734095Y-97559857D01*
X95781714Y-97464619D01*
X95829333Y-97417000D01*
X95924571Y-97369381D01*
X91940143Y-106148143D02*
X91892524Y-106195762D01*
X91749667Y-106243381D01*
X91654429Y-106243381D01*
X91511571Y-106195762D01*
X91416333Y-106100524D01*
X91368714Y-106005286D01*
X91321095Y-105814810D01*
X91321095Y-105671952D01*
X91368714Y-105481476D01*
X91416333Y-105386238D01*
X91511571Y-105291000D01*
X91654429Y-105243381D01*
X91749667Y-105243381D01*
X91892524Y-105291000D01*
X91940143Y-105338619D01*
X92321095Y-105338619D02*
X92368714Y-105291000D01*
X92463952Y-105243381D01*
X92702048Y-105243381D01*
X92797286Y-105291000D01*
X92844905Y-105338619D01*
X92892524Y-105433857D01*
X92892524Y-105529095D01*
X92844905Y-105671952D01*
X92273476Y-106243381D01*
X92892524Y-106243381D01*
X93844905Y-106243381D02*
X93273476Y-106243381D01*
X93559190Y-106243381D02*
X93559190Y-105243381D01*
X93463952Y-105386238D01*
X93368714Y-105481476D01*
X93273476Y-105529095D01*
X91670143Y-96654857D02*
X91717762Y-96702476D01*
X91765381Y-96845333D01*
X91765381Y-96940571D01*
X91717762Y-97083429D01*
X91622524Y-97178667D01*
X91527286Y-97226286D01*
X91336810Y-97273905D01*
X91193952Y-97273905D01*
X91003476Y-97226286D01*
X90908238Y-97178667D01*
X90813000Y-97083429D01*
X90765381Y-96940571D01*
X90765381Y-96845333D01*
X90813000Y-96702476D01*
X90860619Y-96654857D01*
X90860619Y-96273905D02*
X90813000Y-96226286D01*
X90765381Y-96131048D01*
X90765381Y-95892952D01*
X90813000Y-95797714D01*
X90860619Y-95750095D01*
X90955857Y-95702476D01*
X91051095Y-95702476D01*
X91193952Y-95750095D01*
X91765381Y-96321524D01*
X91765381Y-95702476D01*
X90860619Y-95321524D02*
X90813000Y-95273905D01*
X90765381Y-95178667D01*
X90765381Y-94940571D01*
X90813000Y-94845333D01*
X90860619Y-94797714D01*
X90955857Y-94750095D01*
X91051095Y-94750095D01*
X91193952Y-94797714D01*
X91765381Y-95369143D01*
X91765381Y-94750095D01*
X100301143Y-104528857D02*
X100348762Y-104576476D01*
X100396381Y-104719333D01*
X100396381Y-104814571D01*
X100348762Y-104957429D01*
X100253524Y-105052667D01*
X100158286Y-105100286D01*
X99967810Y-105147905D01*
X99824952Y-105147905D01*
X99634476Y-105100286D01*
X99539238Y-105052667D01*
X99444000Y-104957429D01*
X99396381Y-104814571D01*
X99396381Y-104719333D01*
X99444000Y-104576476D01*
X99491619Y-104528857D01*
X99491619Y-104147905D02*
X99444000Y-104100286D01*
X99396381Y-104005048D01*
X99396381Y-103766952D01*
X99444000Y-103671714D01*
X99491619Y-103624095D01*
X99586857Y-103576476D01*
X99682095Y-103576476D01*
X99824952Y-103624095D01*
X100396381Y-104195524D01*
X100396381Y-103576476D01*
X99396381Y-103243143D02*
X99396381Y-102624095D01*
X99777333Y-102957429D01*
X99777333Y-102814571D01*
X99824952Y-102719333D01*
X99872571Y-102671714D01*
X99967810Y-102624095D01*
X100205905Y-102624095D01*
X100301143Y-102671714D01*
X100348762Y-102719333D01*
X100396381Y-102814571D01*
X100396381Y-103100286D01*
X100348762Y-103195524D01*
X100301143Y-103243143D01*
X95496143Y-95480143D02*
X95448524Y-95527762D01*
X95305667Y-95575381D01*
X95210429Y-95575381D01*
X95067571Y-95527762D01*
X94972333Y-95432524D01*
X94924714Y-95337286D01*
X94877095Y-95146810D01*
X94877095Y-95003952D01*
X94924714Y-94813476D01*
X94972333Y-94718238D01*
X95067571Y-94623000D01*
X95210429Y-94575381D01*
X95305667Y-94575381D01*
X95448524Y-94623000D01*
X95496143Y-94670619D01*
X95877095Y-94670619D02*
X95924714Y-94623000D01*
X96019952Y-94575381D01*
X96258048Y-94575381D01*
X96353286Y-94623000D01*
X96400905Y-94670619D01*
X96448524Y-94765857D01*
X96448524Y-94861095D01*
X96400905Y-95003952D01*
X95829476Y-95575381D01*
X96448524Y-95575381D01*
X97305667Y-94908714D02*
X97305667Y-95575381D01*
X97067571Y-94527762D02*
X96829476Y-95242048D01*
X97448524Y-95242048D01*
X94607143Y-107545143D02*
X94559524Y-107592762D01*
X94416667Y-107640381D01*
X94321429Y-107640381D01*
X94178571Y-107592762D01*
X94083333Y-107497524D01*
X94035714Y-107402286D01*
X93988095Y-107211810D01*
X93988095Y-107068952D01*
X94035714Y-106878476D01*
X94083333Y-106783238D01*
X94178571Y-106688000D01*
X94321429Y-106640381D01*
X94416667Y-106640381D01*
X94559524Y-106688000D01*
X94607143Y-106735619D01*
X94988095Y-106735619D02*
X95035714Y-106688000D01*
X95130952Y-106640381D01*
X95369048Y-106640381D01*
X95464286Y-106688000D01*
X95511905Y-106735619D01*
X95559524Y-106830857D01*
X95559524Y-106926095D01*
X95511905Y-107068952D01*
X94940476Y-107640381D01*
X95559524Y-107640381D01*
X96464286Y-106640381D02*
X95988095Y-106640381D01*
X95940476Y-107116571D01*
X95988095Y-107068952D01*
X96083333Y-107021333D01*
X96321429Y-107021333D01*
X96416667Y-107068952D01*
X96464286Y-107116571D01*
X96511905Y-107211810D01*
X96511905Y-107449905D01*
X96464286Y-107545143D01*
X96416667Y-107592762D01*
X96321429Y-107640381D01*
X96083333Y-107640381D01*
X95988095Y-107592762D01*
X95940476Y-107545143D01*
X94480143Y-117451143D02*
X94432524Y-117498762D01*
X94289667Y-117546381D01*
X94194429Y-117546381D01*
X94051571Y-117498762D01*
X93956333Y-117403524D01*
X93908714Y-117308286D01*
X93861095Y-117117810D01*
X93861095Y-116974952D01*
X93908714Y-116784476D01*
X93956333Y-116689238D01*
X94051571Y-116594000D01*
X94194429Y-116546381D01*
X94289667Y-116546381D01*
X94432524Y-116594000D01*
X94480143Y-116641619D01*
X94861095Y-116641619D02*
X94908714Y-116594000D01*
X95003952Y-116546381D01*
X95242048Y-116546381D01*
X95337286Y-116594000D01*
X95384905Y-116641619D01*
X95432524Y-116736857D01*
X95432524Y-116832095D01*
X95384905Y-116974952D01*
X94813476Y-117546381D01*
X95432524Y-117546381D01*
X96289667Y-116546381D02*
X96099190Y-116546381D01*
X96003952Y-116594000D01*
X95956333Y-116641619D01*
X95861095Y-116784476D01*
X95813476Y-116974952D01*
X95813476Y-117355905D01*
X95861095Y-117451143D01*
X95908714Y-117498762D01*
X96003952Y-117546381D01*
X96194429Y-117546381D01*
X96289667Y-117498762D01*
X96337286Y-117451143D01*
X96384905Y-117355905D01*
X96384905Y-117117810D01*
X96337286Y-117022571D01*
X96289667Y-116974952D01*
X96194429Y-116927333D01*
X96003952Y-116927333D01*
X95908714Y-116974952D01*
X95861095Y-117022571D01*
X95813476Y-117117810D01*
X88606334Y-109037381D02*
X88130143Y-109037381D01*
X88130143Y-108037381D01*
X89368239Y-108037381D02*
X89177762Y-108037381D01*
X89082524Y-108085000D01*
X89034905Y-108132619D01*
X88939667Y-108275476D01*
X88892048Y-108465952D01*
X88892048Y-108846905D01*
X88939667Y-108942143D01*
X88987286Y-108989762D01*
X89082524Y-109037381D01*
X89273001Y-109037381D01*
X89368239Y-108989762D01*
X89415858Y-108942143D01*
X89463477Y-108846905D01*
X89463477Y-108608810D01*
X89415858Y-108513571D01*
X89368239Y-108465952D01*
X89273001Y-108418333D01*
X89082524Y-108418333D01*
X88987286Y-108465952D01*
X88939667Y-108513571D01*
X88892048Y-108608810D01*
X88860334Y-113736381D02*
X88384143Y-113736381D01*
X88384143Y-112736381D01*
X89098429Y-112736381D02*
X89765096Y-112736381D01*
X89336524Y-113736381D01*
X107127381Y-95924666D02*
X107127381Y-96400857D01*
X106127381Y-96400857D01*
X106555952Y-95448476D02*
X106508333Y-95543714D01*
X106460714Y-95591333D01*
X106365476Y-95638952D01*
X106317857Y-95638952D01*
X106222619Y-95591333D01*
X106175000Y-95543714D01*
X106127381Y-95448476D01*
X106127381Y-95257999D01*
X106175000Y-95162761D01*
X106222619Y-95115142D01*
X106317857Y-95067523D01*
X106365476Y-95067523D01*
X106460714Y-95115142D01*
X106508333Y-95162761D01*
X106555952Y-95257999D01*
X106555952Y-95448476D01*
X106603571Y-95543714D01*
X106651190Y-95591333D01*
X106746429Y-95638952D01*
X106936905Y-95638952D01*
X107032143Y-95591333D01*
X107079762Y-95543714D01*
X107127381Y-95448476D01*
X107127381Y-95257999D01*
X107079762Y-95162761D01*
X107032143Y-95115142D01*
X106936905Y-95067523D01*
X106746429Y-95067523D01*
X106651190Y-95115142D01*
X106603571Y-95162761D01*
X106555952Y-95257999D01*
X55570381Y-105322666D02*
X55094190Y-105656000D01*
X55570381Y-105894095D02*
X54570381Y-105894095D01*
X54570381Y-105513142D01*
X54618000Y-105417904D01*
X54665619Y-105370285D01*
X54760857Y-105322666D01*
X54903714Y-105322666D01*
X54998952Y-105370285D01*
X55046571Y-105417904D01*
X55094190Y-105513142D01*
X55094190Y-105894095D01*
X54570381Y-104989333D02*
X54570381Y-104322666D01*
X55570381Y-104751238D01*
X91654334Y-102687381D02*
X91321000Y-102211190D01*
X91082905Y-102687381D02*
X91082905Y-101687381D01*
X91463858Y-101687381D01*
X91559096Y-101735000D01*
X91606715Y-101782619D01*
X91654334Y-101877857D01*
X91654334Y-102020714D01*
X91606715Y-102115952D01*
X91559096Y-102163571D01*
X91463858Y-102211190D01*
X91082905Y-102211190D01*
X92225762Y-102115952D02*
X92130524Y-102068333D01*
X92082905Y-102020714D01*
X92035286Y-101925476D01*
X92035286Y-101877857D01*
X92082905Y-101782619D01*
X92130524Y-101735000D01*
X92225762Y-101687381D01*
X92416239Y-101687381D01*
X92511477Y-101735000D01*
X92559096Y-101782619D01*
X92606715Y-101877857D01*
X92606715Y-101925476D01*
X92559096Y-102020714D01*
X92511477Y-102068333D01*
X92416239Y-102115952D01*
X92225762Y-102115952D01*
X92130524Y-102163571D01*
X92082905Y-102211190D01*
X92035286Y-102306429D01*
X92035286Y-102496905D01*
X92082905Y-102592143D01*
X92130524Y-102639762D01*
X92225762Y-102687381D01*
X92416239Y-102687381D01*
X92511477Y-102639762D01*
X92559096Y-102592143D01*
X92606715Y-102496905D01*
X92606715Y-102306429D01*
X92559096Y-102211190D01*
X92511477Y-102163571D01*
X92416239Y-102115952D01*
X88606334Y-111069381D02*
X88273000Y-110593190D01*
X88034905Y-111069381D02*
X88034905Y-110069381D01*
X88415858Y-110069381D01*
X88511096Y-110117000D01*
X88558715Y-110164619D01*
X88606334Y-110259857D01*
X88606334Y-110402714D01*
X88558715Y-110497952D01*
X88511096Y-110545571D01*
X88415858Y-110593190D01*
X88034905Y-110593190D01*
X89082524Y-111069381D02*
X89273000Y-111069381D01*
X89368239Y-111021762D01*
X89415858Y-110974143D01*
X89511096Y-110831286D01*
X89558715Y-110640810D01*
X89558715Y-110259857D01*
X89511096Y-110164619D01*
X89463477Y-110117000D01*
X89368239Y-110069381D01*
X89177762Y-110069381D01*
X89082524Y-110117000D01*
X89034905Y-110164619D01*
X88987286Y-110259857D01*
X88987286Y-110497952D01*
X89034905Y-110593190D01*
X89082524Y-110640810D01*
X89177762Y-110688429D01*
X89368239Y-110688429D01*
X89463477Y-110640810D01*
X89511096Y-110593190D01*
X89558715Y-110497952D01*
X88003143Y-115768381D02*
X87669809Y-115292190D01*
X87431714Y-115768381D02*
X87431714Y-114768381D01*
X87812667Y-114768381D01*
X87907905Y-114816000D01*
X87955524Y-114863619D01*
X88003143Y-114958857D01*
X88003143Y-115101714D01*
X87955524Y-115196952D01*
X87907905Y-115244571D01*
X87812667Y-115292190D01*
X87431714Y-115292190D01*
X88955524Y-115768381D02*
X88384095Y-115768381D01*
X88669809Y-115768381D02*
X88669809Y-114768381D01*
X88574571Y-114911238D01*
X88479333Y-115006476D01*
X88384095Y-115054095D01*
X89574571Y-114768381D02*
X89669810Y-114768381D01*
X89765048Y-114816000D01*
X89812667Y-114863619D01*
X89860286Y-114958857D01*
X89907905Y-115149333D01*
X89907905Y-115387429D01*
X89860286Y-115577905D01*
X89812667Y-115673143D01*
X89765048Y-115720762D01*
X89669810Y-115768381D01*
X89574571Y-115768381D01*
X89479333Y-115720762D01*
X89431714Y-115673143D01*
X89384095Y-115577905D01*
X89336476Y-115387429D01*
X89336476Y-115149333D01*
X89384095Y-114958857D01*
X89431714Y-114863619D01*
X89479333Y-114816000D01*
X89574571Y-114768381D01*
X99512381Y-110243857D02*
X99036190Y-110577191D01*
X99512381Y-110815286D02*
X98512381Y-110815286D01*
X98512381Y-110434333D01*
X98560000Y-110339095D01*
X98607619Y-110291476D01*
X98702857Y-110243857D01*
X98845714Y-110243857D01*
X98940952Y-110291476D01*
X98988571Y-110339095D01*
X99036190Y-110434333D01*
X99036190Y-110815286D01*
X99512381Y-109291476D02*
X99512381Y-109862905D01*
X99512381Y-109577191D02*
X98512381Y-109577191D01*
X98655238Y-109672429D01*
X98750476Y-109767667D01*
X98798095Y-109862905D01*
X99512381Y-108339095D02*
X99512381Y-108910524D01*
X99512381Y-108624810D02*
X98512381Y-108624810D01*
X98655238Y-108720048D01*
X98750476Y-108815286D01*
X98798095Y-108910524D01*
X99385381Y-114815857D02*
X98909190Y-115149191D01*
X99385381Y-115387286D02*
X98385381Y-115387286D01*
X98385381Y-115006333D01*
X98433000Y-114911095D01*
X98480619Y-114863476D01*
X98575857Y-114815857D01*
X98718714Y-114815857D01*
X98813952Y-114863476D01*
X98861571Y-114911095D01*
X98909190Y-115006333D01*
X98909190Y-115387286D01*
X99385381Y-113863476D02*
X99385381Y-114434905D01*
X99385381Y-114149191D02*
X98385381Y-114149191D01*
X98528238Y-114244429D01*
X98623476Y-114339667D01*
X98671095Y-114434905D01*
X98480619Y-113482524D02*
X98433000Y-113434905D01*
X98385381Y-113339667D01*
X98385381Y-113101571D01*
X98433000Y-113006333D01*
X98480619Y-112958714D01*
X98575857Y-112911095D01*
X98671095Y-112911095D01*
X98813952Y-112958714D01*
X99385381Y-113530143D01*
X99385381Y-112911095D01*
X92416381Y-125602905D02*
X92416381Y-125031476D01*
X93416381Y-125317191D02*
X92416381Y-125317191D01*
X92511619Y-124745762D02*
X92464000Y-124698143D01*
X92416381Y-124602905D01*
X92416381Y-124364809D01*
X92464000Y-124269571D01*
X92511619Y-124221952D01*
X92606857Y-124174333D01*
X92702095Y-124174333D01*
X92844952Y-124221952D01*
X93416381Y-124793381D01*
X93416381Y-124174333D01*
X78867095Y-103592381D02*
X78867095Y-104401905D01*
X78914714Y-104497143D01*
X78962333Y-104544762D01*
X79057571Y-104592381D01*
X79248048Y-104592381D01*
X79343286Y-104544762D01*
X79390905Y-104497143D01*
X79438524Y-104401905D01*
X79438524Y-103592381D01*
X79867095Y-103687619D02*
X79914714Y-103640000D01*
X80009952Y-103592381D01*
X80248048Y-103592381D01*
X80343286Y-103640000D01*
X80390905Y-103687619D01*
X80438524Y-103782857D01*
X80438524Y-103878095D01*
X80390905Y-104020952D01*
X79819476Y-104592381D01*
X80438524Y-104592381D01*
M02*
