M48
INCH,TZ
T1C0.016
T2C0.032
T3C0.039
T4C0.040
%
G90
G05
T1
X20450Y-40350
X20500Y-39850
X20500Y-41450
X23100Y-41850
X23100Y-44500
X23500Y-40900
X25450Y-45550
X27800Y-44100
X28600Y-37750
X32050Y-43750
X32250Y-50650
T2
X26500Y-52500
X27500Y-52500
X28500Y-52500
T3
X26000Y-39000
T4
X18500Y-34500
X18500Y-35500
X18500Y-36500
X18500Y-37500
X18500Y-38500
X18500Y-39500
X18500Y-40500
X18500Y-41500
X18500Y-42500
X18500Y-43500
X18500Y-44500
X18500Y-45500
X18500Y-46500
X18500Y-47500
X18500Y-48500
X18500Y-49500
X18500Y-50500
X18500Y-51500
X18500Y-52500
X26000Y-35000
X27000Y-35000
T0
M30
