%FSLAX45Y45*%
G04 Gerber Fmt 4.5, Leading zero omitted, Abs format (unit mm)*
G04 Created by KiCad (PCBNEW 4.0.4+e1-6308~48~ubuntu16.04.1-stable) date Thu Sep 22 16:47:09 2016*
%MOMM*%
%LPD*%
G01*
G04 APERTURE LIST*
%ADD10C,0.127000*%
%ADD11C,0.150000*%
%ADD12C,0.200000*%
%ADD13C,0.300000*%
G04 APERTURE END LIST*
D10*
D11*
X10541000Y-12446000D02*
X9271000Y-12446000D01*
X10541000Y-7239000D02*
X10541000Y-12446000D01*
X2921000Y-7239000D02*
X10541000Y-7239000D01*
X2921000Y-12446000D02*
X9271000Y-12446000D01*
X2921000Y-7239000D02*
X2921000Y-12446000D01*
D12*
X6823202Y-7839000D02*
X6893306Y-7909104D01*
X6893306Y-7839000D02*
X6823202Y-7909104D01*
X6823202Y-8855000D02*
X6893306Y-8925104D01*
X6893306Y-8855000D02*
X6823202Y-8925104D01*
X3850000Y-9271000D02*
G75*
G03X3850000Y-9271000I-40000J0D01*
G01*
X3850000Y-9525000D02*
G75*
G03X3850000Y-9525000I-40000J0D01*
G01*
X3977000Y-9398000D02*
G75*
G03X3977000Y-9398000I-40000J0D01*
G01*
X7025000Y-10795000D02*
G75*
G03X7025000Y-10795000I-40000J0D01*
G01*
X7025000Y-11049000D02*
G75*
G03X7025000Y-11049000I-40000J0D01*
G01*
X7152000Y-10922000D02*
G75*
G03X7152000Y-10922000I-40000J0D01*
G01*
X7723500Y-7874000D02*
G75*
G03X7723500Y-7874000I-40000J0D01*
G01*
X8073500Y-7874000D02*
G75*
G03X8073500Y-7874000I-40000J0D01*
G01*
X3810000Y-7823962D02*
X3810000Y-7924038D01*
X3759962Y-7874000D02*
X3860038Y-7874000D01*
X3810000Y-8839962D02*
X3810000Y-8940038D01*
X3759962Y-8890000D02*
X3860038Y-8890000D01*
X3937000Y-9982962D02*
X3937000Y-10083038D01*
X3886962Y-10033000D02*
X3987038Y-10033000D01*
X3937000Y-10998962D02*
X3937000Y-11099038D01*
X3886962Y-11049000D02*
X3987038Y-11049000D01*
X6477000Y-7823962D02*
X6477000Y-7924038D01*
X6426962Y-7874000D02*
X6527038Y-7874000D01*
X6477000Y-8839962D02*
X6477000Y-8940038D01*
X6426962Y-8890000D02*
X6527038Y-8890000D01*
X6477000Y-11125962D02*
X6477000Y-11226038D01*
X6426962Y-11176000D02*
X6527038Y-11176000D01*
X6477000Y-12141962D02*
X6477000Y-12242038D01*
X6426962Y-12192000D02*
X6527038Y-12192000D01*
X6858000Y-9220962D02*
X6858000Y-9321038D01*
X6807962Y-9271000D02*
X6908038Y-9271000D01*
X6858000Y-10236962D02*
X6858000Y-10337038D01*
X6807962Y-10287000D02*
X6908038Y-10287000D01*
X7239000Y-7823962D02*
X7239000Y-7924038D01*
X7188962Y-7874000D02*
X7289038Y-7874000D01*
X7239000Y-8839962D02*
X7239000Y-8940038D01*
X7188962Y-8890000D02*
X7289038Y-8890000D01*
X7493000Y-10617962D02*
X7493000Y-10718038D01*
X7442962Y-10668000D02*
X7543038Y-10668000D01*
X7493000Y-11633962D02*
X7493000Y-11734038D01*
X7442962Y-11684000D02*
X7543038Y-11684000D01*
X3210921Y-7655921D02*
X3210921Y-7584079D01*
X3139079Y-7584079D01*
X3139079Y-7655921D01*
X3210921Y-7655921D01*
X3210921Y-7909921D02*
X3210921Y-7838079D01*
X3139079Y-7838079D01*
X3139079Y-7909921D01*
X3210921Y-7909921D01*
X3210921Y-8163921D02*
X3210921Y-8092079D01*
X3139079Y-8092079D01*
X3139079Y-8163921D01*
X3210921Y-8163921D01*
X3210921Y-8417921D02*
X3210921Y-8346079D01*
X3139079Y-8346079D01*
X3139079Y-8417921D01*
X3210921Y-8417921D01*
X3210921Y-8671921D02*
X3210921Y-8600079D01*
X3139079Y-8600079D01*
X3139079Y-8671921D01*
X3210921Y-8671921D01*
X3210921Y-8925921D02*
X3210921Y-8854079D01*
X3139079Y-8854079D01*
X3139079Y-8925921D01*
X3210921Y-8925921D01*
X3210921Y-9179921D02*
X3210921Y-9108079D01*
X3139079Y-9108079D01*
X3139079Y-9179921D01*
X3210921Y-9179921D01*
X3210921Y-9433921D02*
X3210921Y-9362079D01*
X3139079Y-9362079D01*
X3139079Y-9433921D01*
X3210921Y-9433921D01*
X3210921Y-9687921D02*
X3210921Y-9616079D01*
X3139079Y-9616079D01*
X3139079Y-9687921D01*
X3210921Y-9687921D01*
X3210921Y-9941921D02*
X3210921Y-9870079D01*
X3139079Y-9870079D01*
X3139079Y-9941921D01*
X3210921Y-9941921D01*
X3210921Y-10195921D02*
X3210921Y-10124079D01*
X3139079Y-10124079D01*
X3139079Y-10195921D01*
X3210921Y-10195921D01*
X3210921Y-10449921D02*
X3210921Y-10378079D01*
X3139079Y-10378079D01*
X3139079Y-10449921D01*
X3210921Y-10449921D01*
X3210921Y-10703921D02*
X3210921Y-10632079D01*
X3139079Y-10632079D01*
X3139079Y-10703921D01*
X3210921Y-10703921D01*
X3210921Y-10957921D02*
X3210921Y-10886079D01*
X3139079Y-10886079D01*
X3139079Y-10957921D01*
X3210921Y-10957921D01*
X3210921Y-11211921D02*
X3210921Y-11140079D01*
X3139079Y-11140079D01*
X3139079Y-11211921D01*
X3210921Y-11211921D01*
X3210921Y-11465921D02*
X3210921Y-11394079D01*
X3139079Y-11394079D01*
X3139079Y-11465921D01*
X3210921Y-11465921D01*
X3210921Y-11719921D02*
X3210921Y-11648079D01*
X3139079Y-11648079D01*
X3139079Y-11719921D01*
X3210921Y-11719921D01*
X3210921Y-11973921D02*
X3210921Y-11902079D01*
X3139079Y-11902079D01*
X3139079Y-11973921D01*
X3210921Y-11973921D01*
X3210921Y-12227921D02*
X3210921Y-12156079D01*
X3139079Y-12156079D01*
X3139079Y-12227921D01*
X3210921Y-12227921D01*
X4480921Y-7909921D02*
X4480921Y-7838079D01*
X4409079Y-7838079D01*
X4409079Y-7909921D01*
X4480921Y-7909921D01*
X4480921Y-8163921D02*
X4480921Y-8092079D01*
X4409079Y-8092079D01*
X4409079Y-8163921D01*
X4480921Y-8163921D01*
X4480921Y-8417921D02*
X4480921Y-8346079D01*
X4409079Y-8346079D01*
X4409079Y-8417921D01*
X4480921Y-8417921D01*
X4480921Y-8671921D02*
X4480921Y-8600079D01*
X4409079Y-8600079D01*
X4409079Y-8671921D01*
X4480921Y-8671921D01*
X4480921Y-8925921D02*
X4480921Y-8854079D01*
X4409079Y-8854079D01*
X4409079Y-8925921D01*
X4480921Y-8925921D01*
X4480921Y-9179921D02*
X4480921Y-9108079D01*
X4409079Y-9108079D01*
X4409079Y-9179921D01*
X4480921Y-9179921D01*
X4480921Y-9433921D02*
X4480921Y-9362079D01*
X4409079Y-9362079D01*
X4409079Y-9433921D01*
X4480921Y-9433921D01*
X4480921Y-9687921D02*
X4480921Y-9616079D01*
X4409079Y-9616079D01*
X4409079Y-9687921D01*
X4480921Y-9687921D01*
X4480921Y-9941921D02*
X4480921Y-9870079D01*
X4409079Y-9870079D01*
X4409079Y-9941921D01*
X4480921Y-9941921D01*
X4480921Y-10195921D02*
X4480921Y-10124079D01*
X4409079Y-10124079D01*
X4409079Y-10195921D01*
X4480921Y-10195921D01*
X4480921Y-10449921D02*
X4480921Y-10378079D01*
X4409079Y-10378079D01*
X4409079Y-10449921D01*
X4480921Y-10449921D01*
X4480921Y-10703921D02*
X4480921Y-10632079D01*
X4409079Y-10632079D01*
X4409079Y-10703921D01*
X4480921Y-10703921D01*
X4480921Y-10957921D02*
X4480921Y-10886079D01*
X4409079Y-10886079D01*
X4409079Y-10957921D01*
X4480921Y-10957921D01*
X4480921Y-11211921D02*
X4480921Y-11140079D01*
X4409079Y-11140079D01*
X4409079Y-11211921D01*
X4480921Y-11211921D01*
X4480921Y-11465921D02*
X4480921Y-11394079D01*
X4409079Y-11394079D01*
X4409079Y-11465921D01*
X4480921Y-11465921D01*
X6004921Y-7909921D02*
X6004921Y-7838079D01*
X5933079Y-7838079D01*
X5933079Y-7909921D01*
X6004921Y-7909921D01*
X6004921Y-8163921D02*
X6004921Y-8092079D01*
X5933079Y-8092079D01*
X5933079Y-8163921D01*
X6004921Y-8163921D01*
X6004921Y-8417921D02*
X6004921Y-8346079D01*
X5933079Y-8346079D01*
X5933079Y-8417921D01*
X6004921Y-8417921D01*
X6004921Y-8671921D02*
X6004921Y-8600079D01*
X5933079Y-8600079D01*
X5933079Y-8671921D01*
X6004921Y-8671921D01*
X6004921Y-8925921D02*
X6004921Y-8854079D01*
X5933079Y-8854079D01*
X5933079Y-8925921D01*
X6004921Y-8925921D01*
X6004921Y-9179921D02*
X6004921Y-9108079D01*
X5933079Y-9108079D01*
X5933079Y-9179921D01*
X6004921Y-9179921D01*
X6004921Y-9433921D02*
X6004921Y-9362079D01*
X5933079Y-9362079D01*
X5933079Y-9433921D01*
X6004921Y-9433921D01*
X6004921Y-9687921D02*
X6004921Y-9616079D01*
X5933079Y-9616079D01*
X5933079Y-9687921D01*
X6004921Y-9687921D01*
X6004921Y-9941921D02*
X6004921Y-9870079D01*
X5933079Y-9870079D01*
X5933079Y-9941921D01*
X6004921Y-9941921D01*
X6004921Y-10195921D02*
X6004921Y-10124079D01*
X5933079Y-10124079D01*
X5933079Y-10195921D01*
X6004921Y-10195921D01*
X6004921Y-10449921D02*
X6004921Y-10378079D01*
X5933079Y-10378079D01*
X5933079Y-10449921D01*
X6004921Y-10449921D01*
X6004921Y-10703921D02*
X6004921Y-10632079D01*
X5933079Y-10632079D01*
X5933079Y-10703921D01*
X6004921Y-10703921D01*
X6004921Y-10957921D02*
X6004921Y-10886079D01*
X5933079Y-10886079D01*
X5933079Y-10957921D01*
X6004921Y-10957921D01*
X6004921Y-11211921D02*
X6004921Y-11140079D01*
X5933079Y-11140079D01*
X5933079Y-11211921D01*
X6004921Y-11211921D01*
X6004921Y-11465921D02*
X6004921Y-11394079D01*
X5933079Y-11394079D01*
X5933079Y-11465921D01*
X6004921Y-11465921D01*
X6512921Y-10576921D02*
X6512921Y-10505079D01*
X6441079Y-10505079D01*
X6441079Y-10576921D01*
X6512921Y-10576921D01*
X6512921Y-10830921D02*
X6512921Y-10759079D01*
X6441079Y-10759079D01*
X6441079Y-10830921D01*
X6512921Y-10830921D01*
X7147921Y-12227921D02*
X7147921Y-12156079D01*
X7076079Y-12156079D01*
X7076079Y-12227921D01*
X7147921Y-12227921D01*
X7401921Y-9306921D02*
X7401921Y-9235079D01*
X7330079Y-9235079D01*
X7330079Y-9306921D01*
X7401921Y-9306921D01*
X7401921Y-9560921D02*
X7401921Y-9489079D01*
X7330079Y-9489079D01*
X7330079Y-9560921D01*
X7401921Y-9560921D01*
X7401921Y-9814921D02*
X7401921Y-9743079D01*
X7330079Y-9743079D01*
X7330079Y-9814921D01*
X7401921Y-9814921D01*
X7401921Y-10068921D02*
X7401921Y-9997079D01*
X7330079Y-9997079D01*
X7330079Y-10068921D01*
X7401921Y-10068921D01*
X7401921Y-10322921D02*
X7401921Y-10251079D01*
X7330079Y-10251079D01*
X7330079Y-10322921D01*
X7401921Y-10322921D01*
X7401921Y-12227921D02*
X7401921Y-12156079D01*
X7330079Y-12156079D01*
X7330079Y-12227921D01*
X7401921Y-12227921D01*
X10322921Y-7655921D02*
X10322921Y-7584079D01*
X10251079Y-7584079D01*
X10251079Y-7655921D01*
X10322921Y-7655921D01*
X10322921Y-7909921D02*
X10322921Y-7838079D01*
X10251079Y-7838079D01*
X10251079Y-7909921D01*
X10322921Y-7909921D01*
X10322921Y-8163921D02*
X10322921Y-8092079D01*
X10251079Y-8092079D01*
X10251079Y-8163921D01*
X10322921Y-8163921D01*
X10322921Y-8417921D02*
X10322921Y-8346079D01*
X10251079Y-8346079D01*
X10251079Y-8417921D01*
X10322921Y-8417921D01*
X10322921Y-8671921D02*
X10322921Y-8600079D01*
X10251079Y-8600079D01*
X10251079Y-8671921D01*
X10322921Y-8671921D01*
X10322921Y-8925921D02*
X10322921Y-8854079D01*
X10251079Y-8854079D01*
X10251079Y-8925921D01*
X10322921Y-8925921D01*
X10322921Y-9179921D02*
X10322921Y-9108079D01*
X10251079Y-9108079D01*
X10251079Y-9179921D01*
X10322921Y-9179921D01*
X10322921Y-9433921D02*
X10322921Y-9362079D01*
X10251079Y-9362079D01*
X10251079Y-9433921D01*
X10322921Y-9433921D01*
X10322921Y-9687921D02*
X10322921Y-9616079D01*
X10251079Y-9616079D01*
X10251079Y-9687921D01*
X10322921Y-9687921D01*
X10322921Y-9941921D02*
X10322921Y-9870079D01*
X10251079Y-9870079D01*
X10251079Y-9941921D01*
X10322921Y-9941921D01*
X10322921Y-10195921D02*
X10322921Y-10124079D01*
X10251079Y-10124079D01*
X10251079Y-10195921D01*
X10322921Y-10195921D01*
X10322921Y-10449921D02*
X10322921Y-10378079D01*
X10251079Y-10378079D01*
X10251079Y-10449921D01*
X10322921Y-10449921D01*
X10322921Y-10703921D02*
X10322921Y-10632079D01*
X10251079Y-10632079D01*
X10251079Y-10703921D01*
X10322921Y-10703921D01*
X10322921Y-10957921D02*
X10322921Y-10886079D01*
X10251079Y-10886079D01*
X10251079Y-10957921D01*
X10322921Y-10957921D01*
X10322921Y-11211921D02*
X10322921Y-11140079D01*
X10251079Y-11140079D01*
X10251079Y-11211921D01*
X10322921Y-11211921D01*
X10322921Y-11465921D02*
X10322921Y-11394079D01*
X10251079Y-11394079D01*
X10251079Y-11465921D01*
X10322921Y-11465921D01*
X10322921Y-11719921D02*
X10322921Y-11648079D01*
X10251079Y-11648079D01*
X10251079Y-11719921D01*
X10322921Y-11719921D01*
X10322921Y-11973921D02*
X10322921Y-11902079D01*
X10251079Y-11902079D01*
X10251079Y-11973921D01*
X10322921Y-11973921D01*
X10322921Y-12227921D02*
X10322921Y-12156079D01*
X10251079Y-12156079D01*
X10251079Y-12227921D01*
X10322921Y-12227921D01*
D13*
X3184928Y-12919214D02*
X3184928Y-12619214D01*
X3256357Y-12619214D01*
X3299214Y-12633500D01*
X3327786Y-12662071D01*
X3342071Y-12690643D01*
X3356357Y-12747786D01*
X3356357Y-12790643D01*
X3342071Y-12847786D01*
X3327786Y-12876357D01*
X3299214Y-12904929D01*
X3256357Y-12919214D01*
X3184928Y-12919214D01*
X3484928Y-12919214D02*
X3484928Y-12719214D01*
X3484928Y-12776357D02*
X3499214Y-12747786D01*
X3513500Y-12733500D01*
X3542071Y-12719214D01*
X3570643Y-12719214D01*
X3670643Y-12919214D02*
X3670643Y-12719214D01*
X3670643Y-12619214D02*
X3656357Y-12633500D01*
X3670643Y-12647786D01*
X3684928Y-12633500D01*
X3670643Y-12619214D01*
X3670643Y-12647786D01*
X3856357Y-12919214D02*
X3827786Y-12904929D01*
X3813500Y-12876357D01*
X3813500Y-12619214D01*
X4013500Y-12919214D02*
X3984928Y-12904929D01*
X3970643Y-12876357D01*
X3970643Y-12619214D01*
X4356357Y-12919214D02*
X4356357Y-12619214D01*
X4456357Y-12833500D01*
X4556357Y-12619214D01*
X4556357Y-12919214D01*
X4827786Y-12919214D02*
X4827786Y-12762071D01*
X4813500Y-12733500D01*
X4784929Y-12719214D01*
X4727786Y-12719214D01*
X4699214Y-12733500D01*
X4827786Y-12904929D02*
X4799214Y-12919214D01*
X4727786Y-12919214D01*
X4699214Y-12904929D01*
X4684929Y-12876357D01*
X4684929Y-12847786D01*
X4699214Y-12819214D01*
X4727786Y-12804929D01*
X4799214Y-12804929D01*
X4827786Y-12790643D01*
X4970643Y-12719214D02*
X4970643Y-13019214D01*
X4970643Y-12733500D02*
X4999214Y-12719214D01*
X5056357Y-12719214D01*
X5084929Y-12733500D01*
X5099214Y-12747786D01*
X5113500Y-12776357D01*
X5113500Y-12862071D01*
X5099214Y-12890643D01*
X5084929Y-12904929D01*
X5056357Y-12919214D01*
X4999214Y-12919214D01*
X4970643Y-12904929D01*
X5242071Y-12890643D02*
X5256357Y-12904929D01*
X5242071Y-12919214D01*
X5227786Y-12904929D01*
X5242071Y-12890643D01*
X5242071Y-12919214D01*
X5242071Y-12733500D02*
X5256357Y-12747786D01*
X5242071Y-12762071D01*
X5227786Y-12747786D01*
X5242071Y-12733500D01*
X5242071Y-12762071D01*
X2843396Y-13378448D02*
X2913500Y-13448552D01*
X2913500Y-13378448D02*
X2843396Y-13448552D01*
X3242071Y-13249214D02*
X3270643Y-13249214D01*
X3299214Y-13263500D01*
X3313500Y-13277786D01*
X3327786Y-13306357D01*
X3342071Y-13363500D01*
X3342071Y-13434929D01*
X3327786Y-13492071D01*
X3313500Y-13520643D01*
X3299214Y-13534929D01*
X3270643Y-13549214D01*
X3242071Y-13549214D01*
X3213500Y-13534929D01*
X3199214Y-13520643D01*
X3184928Y-13492071D01*
X3170643Y-13434929D01*
X3170643Y-13363500D01*
X3184928Y-13306357D01*
X3199214Y-13277786D01*
X3213500Y-13263500D01*
X3242071Y-13249214D01*
X3470643Y-13520643D02*
X3484928Y-13534929D01*
X3470643Y-13549214D01*
X3456357Y-13534929D01*
X3470643Y-13520643D01*
X3470643Y-13549214D01*
X3584928Y-13249214D02*
X3784928Y-13249214D01*
X3656357Y-13549214D01*
X3956357Y-13249214D02*
X3984928Y-13249214D01*
X4013500Y-13263500D01*
X4027786Y-13277786D01*
X4042071Y-13306357D01*
X4056357Y-13363500D01*
X4056357Y-13434929D01*
X4042071Y-13492071D01*
X4027786Y-13520643D01*
X4013500Y-13534929D01*
X3984928Y-13549214D01*
X3956357Y-13549214D01*
X3927786Y-13534929D01*
X3913500Y-13520643D01*
X3899214Y-13492071D01*
X3884928Y-13434929D01*
X3884928Y-13363500D01*
X3899214Y-13306357D01*
X3913500Y-13277786D01*
X3927786Y-13263500D01*
X3956357Y-13249214D01*
X4184928Y-13549214D02*
X4184928Y-13349214D01*
X4184928Y-13377786D02*
X4199214Y-13363500D01*
X4227786Y-13349214D01*
X4270643Y-13349214D01*
X4299214Y-13363500D01*
X4313500Y-13392071D01*
X4313500Y-13549214D01*
X4313500Y-13392071D02*
X4327786Y-13363500D01*
X4356357Y-13349214D01*
X4399214Y-13349214D01*
X4427786Y-13363500D01*
X4442071Y-13392071D01*
X4442071Y-13549214D01*
X4584929Y-13549214D02*
X4584929Y-13349214D01*
X4584929Y-13377786D02*
X4599214Y-13363500D01*
X4627786Y-13349214D01*
X4670643Y-13349214D01*
X4699214Y-13363500D01*
X4713500Y-13392071D01*
X4713500Y-13549214D01*
X4713500Y-13392071D02*
X4727786Y-13363500D01*
X4756357Y-13349214D01*
X4799214Y-13349214D01*
X4827786Y-13363500D01*
X4842071Y-13392071D01*
X4842071Y-13549214D01*
X5427786Y-13234929D02*
X5170643Y-13620643D01*
X5813500Y-13249214D02*
X5842071Y-13249214D01*
X5870643Y-13263500D01*
X5884928Y-13277786D01*
X5899214Y-13306357D01*
X5913500Y-13363500D01*
X5913500Y-13434929D01*
X5899214Y-13492071D01*
X5884928Y-13520643D01*
X5870643Y-13534929D01*
X5842071Y-13549214D01*
X5813500Y-13549214D01*
X5784928Y-13534929D01*
X5770643Y-13520643D01*
X5756357Y-13492071D01*
X5742071Y-13434929D01*
X5742071Y-13363500D01*
X5756357Y-13306357D01*
X5770643Y-13277786D01*
X5784928Y-13263500D01*
X5813500Y-13249214D01*
X6042071Y-13520643D02*
X6056357Y-13534929D01*
X6042071Y-13549214D01*
X6027786Y-13534929D01*
X6042071Y-13520643D01*
X6042071Y-13549214D01*
X6242071Y-13249214D02*
X6270643Y-13249214D01*
X6299214Y-13263500D01*
X6313500Y-13277786D01*
X6327785Y-13306357D01*
X6342071Y-13363500D01*
X6342071Y-13434929D01*
X6327785Y-13492071D01*
X6313500Y-13520643D01*
X6299214Y-13534929D01*
X6270643Y-13549214D01*
X6242071Y-13549214D01*
X6213500Y-13534929D01*
X6199214Y-13520643D01*
X6184928Y-13492071D01*
X6170643Y-13434929D01*
X6170643Y-13363500D01*
X6184928Y-13306357D01*
X6199214Y-13277786D01*
X6213500Y-13263500D01*
X6242071Y-13249214D01*
X6456357Y-13277786D02*
X6470643Y-13263500D01*
X6499214Y-13249214D01*
X6570643Y-13249214D01*
X6599214Y-13263500D01*
X6613500Y-13277786D01*
X6627785Y-13306357D01*
X6627785Y-13334929D01*
X6613500Y-13377786D01*
X6442071Y-13549214D01*
X6627785Y-13549214D01*
X6799214Y-13377786D02*
X6770643Y-13363500D01*
X6756357Y-13349214D01*
X6742071Y-13320643D01*
X6742071Y-13306357D01*
X6756357Y-13277786D01*
X6770643Y-13263500D01*
X6799214Y-13249214D01*
X6856357Y-13249214D01*
X6884928Y-13263500D01*
X6899214Y-13277786D01*
X6913500Y-13306357D01*
X6913500Y-13320643D01*
X6899214Y-13349214D01*
X6884928Y-13363500D01*
X6856357Y-13377786D01*
X6799214Y-13377786D01*
X6770643Y-13392071D01*
X6756357Y-13406357D01*
X6742071Y-13434929D01*
X6742071Y-13492071D01*
X6756357Y-13520643D01*
X6770643Y-13534929D01*
X6799214Y-13549214D01*
X6856357Y-13549214D01*
X6884928Y-13534929D01*
X6899214Y-13520643D01*
X6913500Y-13492071D01*
X6913500Y-13434929D01*
X6899214Y-13406357D01*
X6884928Y-13392071D01*
X6856357Y-13377786D01*
X7027786Y-13249214D02*
X7027786Y-13306357D01*
X7142071Y-13249214D02*
X7142071Y-13306357D01*
X7584928Y-13663500D02*
X7570643Y-13649214D01*
X7542071Y-13606357D01*
X7527785Y-13577786D01*
X7513500Y-13534929D01*
X7499214Y-13463500D01*
X7499214Y-13406357D01*
X7513500Y-13334929D01*
X7527785Y-13292071D01*
X7542071Y-13263500D01*
X7570643Y-13220643D01*
X7584928Y-13206357D01*
X7684928Y-13277786D02*
X7699214Y-13263500D01*
X7727785Y-13249214D01*
X7799214Y-13249214D01*
X7827785Y-13263500D01*
X7842071Y-13277786D01*
X7856357Y-13306357D01*
X7856357Y-13334929D01*
X7842071Y-13377786D01*
X7670643Y-13549214D01*
X7856357Y-13549214D01*
X8213500Y-13549214D02*
X8213500Y-13249214D01*
X8342071Y-13549214D02*
X8342071Y-13392071D01*
X8327785Y-13363500D01*
X8299214Y-13349214D01*
X8256357Y-13349214D01*
X8227785Y-13363500D01*
X8213500Y-13377786D01*
X8527786Y-13549214D02*
X8499214Y-13534929D01*
X8484928Y-13520643D01*
X8470643Y-13492071D01*
X8470643Y-13406357D01*
X8484928Y-13377786D01*
X8499214Y-13363500D01*
X8527786Y-13349214D01*
X8570643Y-13349214D01*
X8599214Y-13363500D01*
X8613500Y-13377786D01*
X8627786Y-13406357D01*
X8627786Y-13492071D01*
X8613500Y-13520643D01*
X8599214Y-13534929D01*
X8570643Y-13549214D01*
X8527786Y-13549214D01*
X8799214Y-13549214D02*
X8770643Y-13534929D01*
X8756357Y-13506357D01*
X8756357Y-13249214D01*
X9027786Y-13534929D02*
X8999214Y-13549214D01*
X8942071Y-13549214D01*
X8913500Y-13534929D01*
X8899214Y-13506357D01*
X8899214Y-13392071D01*
X8913500Y-13363500D01*
X8942071Y-13349214D01*
X8999214Y-13349214D01*
X9027786Y-13363500D01*
X9042071Y-13392071D01*
X9042071Y-13420643D01*
X8899214Y-13449214D01*
X9156357Y-13534929D02*
X9184929Y-13549214D01*
X9242071Y-13549214D01*
X9270643Y-13534929D01*
X9284929Y-13506357D01*
X9284929Y-13492071D01*
X9270643Y-13463500D01*
X9242071Y-13449214D01*
X9199214Y-13449214D01*
X9170643Y-13434929D01*
X9156357Y-13406357D01*
X9156357Y-13392071D01*
X9170643Y-13363500D01*
X9199214Y-13349214D01*
X9242071Y-13349214D01*
X9270643Y-13363500D01*
X9384928Y-13663500D02*
X9399214Y-13649214D01*
X9427786Y-13606357D01*
X9442071Y-13577786D01*
X9456357Y-13534929D01*
X9470643Y-13463500D01*
X9470643Y-13406357D01*
X9456357Y-13334929D01*
X9442071Y-13292071D01*
X9427786Y-13263500D01*
X9399214Y-13220643D01*
X9384928Y-13206357D01*
X2913500Y-13809500D02*
G75*
G03X2913500Y-13809500I-40000J0D01*
G01*
X3242071Y-13645214D02*
X3270643Y-13645214D01*
X3299214Y-13659500D01*
X3313500Y-13673786D01*
X3327786Y-13702357D01*
X3342071Y-13759500D01*
X3342071Y-13830929D01*
X3327786Y-13888071D01*
X3313500Y-13916643D01*
X3299214Y-13930929D01*
X3270643Y-13945214D01*
X3242071Y-13945214D01*
X3213500Y-13930929D01*
X3199214Y-13916643D01*
X3184928Y-13888071D01*
X3170643Y-13830929D01*
X3170643Y-13759500D01*
X3184928Y-13702357D01*
X3199214Y-13673786D01*
X3213500Y-13659500D01*
X3242071Y-13645214D01*
X3470643Y-13916643D02*
X3484928Y-13930929D01*
X3470643Y-13945214D01*
X3456357Y-13930929D01*
X3470643Y-13916643D01*
X3470643Y-13945214D01*
X3656357Y-13773786D02*
X3627786Y-13759500D01*
X3613500Y-13745214D01*
X3599214Y-13716643D01*
X3599214Y-13702357D01*
X3613500Y-13673786D01*
X3627786Y-13659500D01*
X3656357Y-13645214D01*
X3713500Y-13645214D01*
X3742071Y-13659500D01*
X3756357Y-13673786D01*
X3770643Y-13702357D01*
X3770643Y-13716643D01*
X3756357Y-13745214D01*
X3742071Y-13759500D01*
X3713500Y-13773786D01*
X3656357Y-13773786D01*
X3627786Y-13788071D01*
X3613500Y-13802357D01*
X3599214Y-13830929D01*
X3599214Y-13888071D01*
X3613500Y-13916643D01*
X3627786Y-13930929D01*
X3656357Y-13945214D01*
X3713500Y-13945214D01*
X3742071Y-13930929D01*
X3756357Y-13916643D01*
X3770643Y-13888071D01*
X3770643Y-13830929D01*
X3756357Y-13802357D01*
X3742071Y-13788071D01*
X3713500Y-13773786D01*
X3956357Y-13645214D02*
X3984928Y-13645214D01*
X4013500Y-13659500D01*
X4027786Y-13673786D01*
X4042071Y-13702357D01*
X4056357Y-13759500D01*
X4056357Y-13830929D01*
X4042071Y-13888071D01*
X4027786Y-13916643D01*
X4013500Y-13930929D01*
X3984928Y-13945214D01*
X3956357Y-13945214D01*
X3927786Y-13930929D01*
X3913500Y-13916643D01*
X3899214Y-13888071D01*
X3884928Y-13830929D01*
X3884928Y-13759500D01*
X3899214Y-13702357D01*
X3913500Y-13673786D01*
X3927786Y-13659500D01*
X3956357Y-13645214D01*
X4184928Y-13945214D02*
X4184928Y-13745214D01*
X4184928Y-13773786D02*
X4199214Y-13759500D01*
X4227786Y-13745214D01*
X4270643Y-13745214D01*
X4299214Y-13759500D01*
X4313500Y-13788071D01*
X4313500Y-13945214D01*
X4313500Y-13788071D02*
X4327786Y-13759500D01*
X4356357Y-13745214D01*
X4399214Y-13745214D01*
X4427786Y-13759500D01*
X4442071Y-13788071D01*
X4442071Y-13945214D01*
X4584929Y-13945214D02*
X4584929Y-13745214D01*
X4584929Y-13773786D02*
X4599214Y-13759500D01*
X4627786Y-13745214D01*
X4670643Y-13745214D01*
X4699214Y-13759500D01*
X4713500Y-13788071D01*
X4713500Y-13945214D01*
X4713500Y-13788071D02*
X4727786Y-13759500D01*
X4756357Y-13745214D01*
X4799214Y-13745214D01*
X4827786Y-13759500D01*
X4842071Y-13788071D01*
X4842071Y-13945214D01*
X5427786Y-13630929D02*
X5170643Y-14016643D01*
X5813500Y-13645214D02*
X5842071Y-13645214D01*
X5870643Y-13659500D01*
X5884928Y-13673786D01*
X5899214Y-13702357D01*
X5913500Y-13759500D01*
X5913500Y-13830929D01*
X5899214Y-13888071D01*
X5884928Y-13916643D01*
X5870643Y-13930929D01*
X5842071Y-13945214D01*
X5813500Y-13945214D01*
X5784928Y-13930929D01*
X5770643Y-13916643D01*
X5756357Y-13888071D01*
X5742071Y-13830929D01*
X5742071Y-13759500D01*
X5756357Y-13702357D01*
X5770643Y-13673786D01*
X5784928Y-13659500D01*
X5813500Y-13645214D01*
X6042071Y-13916643D02*
X6056357Y-13930929D01*
X6042071Y-13945214D01*
X6027786Y-13930929D01*
X6042071Y-13916643D01*
X6042071Y-13945214D01*
X6242071Y-13645214D02*
X6270643Y-13645214D01*
X6299214Y-13659500D01*
X6313500Y-13673786D01*
X6327785Y-13702357D01*
X6342071Y-13759500D01*
X6342071Y-13830929D01*
X6327785Y-13888071D01*
X6313500Y-13916643D01*
X6299214Y-13930929D01*
X6270643Y-13945214D01*
X6242071Y-13945214D01*
X6213500Y-13930929D01*
X6199214Y-13916643D01*
X6184928Y-13888071D01*
X6170643Y-13830929D01*
X6170643Y-13759500D01*
X6184928Y-13702357D01*
X6199214Y-13673786D01*
X6213500Y-13659500D01*
X6242071Y-13645214D01*
X6442071Y-13645214D02*
X6627785Y-13645214D01*
X6527785Y-13759500D01*
X6570643Y-13759500D01*
X6599214Y-13773786D01*
X6613500Y-13788071D01*
X6627785Y-13816643D01*
X6627785Y-13888071D01*
X6613500Y-13916643D01*
X6599214Y-13930929D01*
X6570643Y-13945214D01*
X6484928Y-13945214D01*
X6456357Y-13930929D01*
X6442071Y-13916643D01*
X6913500Y-13945214D02*
X6742071Y-13945214D01*
X6827785Y-13945214D02*
X6827785Y-13645214D01*
X6799214Y-13688071D01*
X6770643Y-13716643D01*
X6742071Y-13730929D01*
X7027786Y-13645214D02*
X7027786Y-13702357D01*
X7142071Y-13645214D02*
X7142071Y-13702357D01*
X7584928Y-14059500D02*
X7570643Y-14045214D01*
X7542071Y-14002357D01*
X7527785Y-13973786D01*
X7513500Y-13930929D01*
X7499214Y-13859500D01*
X7499214Y-13802357D01*
X7513500Y-13730929D01*
X7527785Y-13688071D01*
X7542071Y-13659500D01*
X7570643Y-13616643D01*
X7584928Y-13602357D01*
X7742071Y-13773786D02*
X7713500Y-13759500D01*
X7699214Y-13745214D01*
X7684928Y-13716643D01*
X7684928Y-13702357D01*
X7699214Y-13673786D01*
X7713500Y-13659500D01*
X7742071Y-13645214D01*
X7799214Y-13645214D01*
X7827785Y-13659500D01*
X7842071Y-13673786D01*
X7856357Y-13702357D01*
X7856357Y-13716643D01*
X7842071Y-13745214D01*
X7827785Y-13759500D01*
X7799214Y-13773786D01*
X7742071Y-13773786D01*
X7713500Y-13788071D01*
X7699214Y-13802357D01*
X7684928Y-13830929D01*
X7684928Y-13888071D01*
X7699214Y-13916643D01*
X7713500Y-13930929D01*
X7742071Y-13945214D01*
X7799214Y-13945214D01*
X7827785Y-13930929D01*
X7842071Y-13916643D01*
X7856357Y-13888071D01*
X7856357Y-13830929D01*
X7842071Y-13802357D01*
X7827785Y-13788071D01*
X7799214Y-13773786D01*
X8213500Y-13945214D02*
X8213500Y-13645214D01*
X8342071Y-13945214D02*
X8342071Y-13788071D01*
X8327785Y-13759500D01*
X8299214Y-13745214D01*
X8256357Y-13745214D01*
X8227785Y-13759500D01*
X8213500Y-13773786D01*
X8527786Y-13945214D02*
X8499214Y-13930929D01*
X8484928Y-13916643D01*
X8470643Y-13888071D01*
X8470643Y-13802357D01*
X8484928Y-13773786D01*
X8499214Y-13759500D01*
X8527786Y-13745214D01*
X8570643Y-13745214D01*
X8599214Y-13759500D01*
X8613500Y-13773786D01*
X8627786Y-13802357D01*
X8627786Y-13888071D01*
X8613500Y-13916643D01*
X8599214Y-13930929D01*
X8570643Y-13945214D01*
X8527786Y-13945214D01*
X8799214Y-13945214D02*
X8770643Y-13930929D01*
X8756357Y-13902357D01*
X8756357Y-13645214D01*
X9027786Y-13930929D02*
X8999214Y-13945214D01*
X8942071Y-13945214D01*
X8913500Y-13930929D01*
X8899214Y-13902357D01*
X8899214Y-13788071D01*
X8913500Y-13759500D01*
X8942071Y-13745214D01*
X8999214Y-13745214D01*
X9027786Y-13759500D01*
X9042071Y-13788071D01*
X9042071Y-13816643D01*
X8899214Y-13845214D01*
X9156357Y-13930929D02*
X9184929Y-13945214D01*
X9242071Y-13945214D01*
X9270643Y-13930929D01*
X9284929Y-13902357D01*
X9284929Y-13888071D01*
X9270643Y-13859500D01*
X9242071Y-13845214D01*
X9199214Y-13845214D01*
X9170643Y-13830929D01*
X9156357Y-13802357D01*
X9156357Y-13788071D01*
X9170643Y-13759500D01*
X9199214Y-13745214D01*
X9242071Y-13745214D01*
X9270643Y-13759500D01*
X9384928Y-14059500D02*
X9399214Y-14045214D01*
X9427786Y-14002357D01*
X9442071Y-13973786D01*
X9456357Y-13930929D01*
X9470643Y-13859500D01*
X9470643Y-13802357D01*
X9456357Y-13730929D01*
X9442071Y-13688071D01*
X9427786Y-13659500D01*
X9399214Y-13616643D01*
X9384928Y-13602357D01*
X2863462Y-14155462D02*
X2863462Y-14255538D01*
X2813424Y-14205500D02*
X2913500Y-14205500D01*
X3342071Y-14341214D02*
X3170643Y-14341214D01*
X3256357Y-14341214D02*
X3256357Y-14041214D01*
X3227786Y-14084071D01*
X3199214Y-14112643D01*
X3170643Y-14126929D01*
X3470643Y-14312643D02*
X3484928Y-14326929D01*
X3470643Y-14341214D01*
X3456357Y-14326929D01*
X3470643Y-14312643D01*
X3470643Y-14341214D01*
X3670643Y-14041214D02*
X3699214Y-14041214D01*
X3727786Y-14055500D01*
X3742071Y-14069786D01*
X3756357Y-14098357D01*
X3770643Y-14155500D01*
X3770643Y-14226929D01*
X3756357Y-14284071D01*
X3742071Y-14312643D01*
X3727786Y-14326929D01*
X3699214Y-14341214D01*
X3670643Y-14341214D01*
X3642071Y-14326929D01*
X3627786Y-14312643D01*
X3613500Y-14284071D01*
X3599214Y-14226929D01*
X3599214Y-14155500D01*
X3613500Y-14098357D01*
X3627786Y-14069786D01*
X3642071Y-14055500D01*
X3670643Y-14041214D01*
X3956357Y-14041214D02*
X3984928Y-14041214D01*
X4013500Y-14055500D01*
X4027786Y-14069786D01*
X4042071Y-14098357D01*
X4056357Y-14155500D01*
X4056357Y-14226929D01*
X4042071Y-14284071D01*
X4027786Y-14312643D01*
X4013500Y-14326929D01*
X3984928Y-14341214D01*
X3956357Y-14341214D01*
X3927786Y-14326929D01*
X3913500Y-14312643D01*
X3899214Y-14284071D01*
X3884928Y-14226929D01*
X3884928Y-14155500D01*
X3899214Y-14098357D01*
X3913500Y-14069786D01*
X3927786Y-14055500D01*
X3956357Y-14041214D01*
X4184928Y-14341214D02*
X4184928Y-14141214D01*
X4184928Y-14169786D02*
X4199214Y-14155500D01*
X4227786Y-14141214D01*
X4270643Y-14141214D01*
X4299214Y-14155500D01*
X4313500Y-14184071D01*
X4313500Y-14341214D01*
X4313500Y-14184071D02*
X4327786Y-14155500D01*
X4356357Y-14141214D01*
X4399214Y-14141214D01*
X4427786Y-14155500D01*
X4442071Y-14184071D01*
X4442071Y-14341214D01*
X4584929Y-14341214D02*
X4584929Y-14141214D01*
X4584929Y-14169786D02*
X4599214Y-14155500D01*
X4627786Y-14141214D01*
X4670643Y-14141214D01*
X4699214Y-14155500D01*
X4713500Y-14184071D01*
X4713500Y-14341214D01*
X4713500Y-14184071D02*
X4727786Y-14155500D01*
X4756357Y-14141214D01*
X4799214Y-14141214D01*
X4827786Y-14155500D01*
X4842071Y-14184071D01*
X4842071Y-14341214D01*
X5427786Y-14026929D02*
X5170643Y-14412643D01*
X5813500Y-14041214D02*
X5842071Y-14041214D01*
X5870643Y-14055500D01*
X5884928Y-14069786D01*
X5899214Y-14098357D01*
X5913500Y-14155500D01*
X5913500Y-14226929D01*
X5899214Y-14284071D01*
X5884928Y-14312643D01*
X5870643Y-14326929D01*
X5842071Y-14341214D01*
X5813500Y-14341214D01*
X5784928Y-14326929D01*
X5770643Y-14312643D01*
X5756357Y-14284071D01*
X5742071Y-14226929D01*
X5742071Y-14155500D01*
X5756357Y-14098357D01*
X5770643Y-14069786D01*
X5784928Y-14055500D01*
X5813500Y-14041214D01*
X6042071Y-14312643D02*
X6056357Y-14326929D01*
X6042071Y-14341214D01*
X6027786Y-14326929D01*
X6042071Y-14312643D01*
X6042071Y-14341214D01*
X6242071Y-14041214D02*
X6270643Y-14041214D01*
X6299214Y-14055500D01*
X6313500Y-14069786D01*
X6327785Y-14098357D01*
X6342071Y-14155500D01*
X6342071Y-14226929D01*
X6327785Y-14284071D01*
X6313500Y-14312643D01*
X6299214Y-14326929D01*
X6270643Y-14341214D01*
X6242071Y-14341214D01*
X6213500Y-14326929D01*
X6199214Y-14312643D01*
X6184928Y-14284071D01*
X6170643Y-14226929D01*
X6170643Y-14155500D01*
X6184928Y-14098357D01*
X6199214Y-14069786D01*
X6213500Y-14055500D01*
X6242071Y-14041214D01*
X6442071Y-14041214D02*
X6627785Y-14041214D01*
X6527785Y-14155500D01*
X6570643Y-14155500D01*
X6599214Y-14169786D01*
X6613500Y-14184071D01*
X6627785Y-14212643D01*
X6627785Y-14284071D01*
X6613500Y-14312643D01*
X6599214Y-14326929D01*
X6570643Y-14341214D01*
X6484928Y-14341214D01*
X6456357Y-14326929D01*
X6442071Y-14312643D01*
X6770643Y-14341214D02*
X6827785Y-14341214D01*
X6856357Y-14326929D01*
X6870643Y-14312643D01*
X6899214Y-14269786D01*
X6913500Y-14212643D01*
X6913500Y-14098357D01*
X6899214Y-14069786D01*
X6884928Y-14055500D01*
X6856357Y-14041214D01*
X6799214Y-14041214D01*
X6770643Y-14055500D01*
X6756357Y-14069786D01*
X6742071Y-14098357D01*
X6742071Y-14169786D01*
X6756357Y-14198357D01*
X6770643Y-14212643D01*
X6799214Y-14226929D01*
X6856357Y-14226929D01*
X6884928Y-14212643D01*
X6899214Y-14198357D01*
X6913500Y-14169786D01*
X7027786Y-14041214D02*
X7027786Y-14098357D01*
X7142071Y-14041214D02*
X7142071Y-14098357D01*
X7584928Y-14455500D02*
X7570643Y-14441214D01*
X7542071Y-14398357D01*
X7527785Y-14369786D01*
X7513500Y-14326929D01*
X7499214Y-14255500D01*
X7499214Y-14198357D01*
X7513500Y-14126929D01*
X7527785Y-14084071D01*
X7542071Y-14055500D01*
X7570643Y-14012643D01*
X7584928Y-13998357D01*
X7856357Y-14341214D02*
X7684928Y-14341214D01*
X7770643Y-14341214D02*
X7770643Y-14041214D01*
X7742071Y-14084071D01*
X7713500Y-14112643D01*
X7684928Y-14126929D01*
X8113500Y-14141214D02*
X8113500Y-14341214D01*
X8042071Y-14026929D02*
X7970643Y-14241214D01*
X8156357Y-14241214D01*
X8499214Y-14341214D02*
X8499214Y-14041214D01*
X8627786Y-14341214D02*
X8627786Y-14184071D01*
X8613500Y-14155500D01*
X8584928Y-14141214D01*
X8542071Y-14141214D01*
X8513500Y-14155500D01*
X8499214Y-14169786D01*
X8813500Y-14341214D02*
X8784928Y-14326929D01*
X8770643Y-14312643D01*
X8756357Y-14284071D01*
X8756357Y-14198357D01*
X8770643Y-14169786D01*
X8784928Y-14155500D01*
X8813500Y-14141214D01*
X8856357Y-14141214D01*
X8884928Y-14155500D01*
X8899214Y-14169786D01*
X8913500Y-14198357D01*
X8913500Y-14284071D01*
X8899214Y-14312643D01*
X8884928Y-14326929D01*
X8856357Y-14341214D01*
X8813500Y-14341214D01*
X9084928Y-14341214D02*
X9056357Y-14326929D01*
X9042071Y-14298357D01*
X9042071Y-14041214D01*
X9313500Y-14326929D02*
X9284929Y-14341214D01*
X9227786Y-14341214D01*
X9199214Y-14326929D01*
X9184929Y-14298357D01*
X9184929Y-14184071D01*
X9199214Y-14155500D01*
X9227786Y-14141214D01*
X9284929Y-14141214D01*
X9313500Y-14155500D01*
X9327786Y-14184071D01*
X9327786Y-14212643D01*
X9184929Y-14241214D01*
X9442071Y-14326929D02*
X9470643Y-14341214D01*
X9527786Y-14341214D01*
X9556357Y-14326929D01*
X9570643Y-14298357D01*
X9570643Y-14284071D01*
X9556357Y-14255500D01*
X9527786Y-14241214D01*
X9484929Y-14241214D01*
X9456357Y-14226929D01*
X9442071Y-14198357D01*
X9442071Y-14184071D01*
X9456357Y-14155500D01*
X9484929Y-14141214D01*
X9527786Y-14141214D01*
X9556357Y-14155500D01*
X9670643Y-14455500D02*
X9684929Y-14441214D01*
X9713500Y-14398357D01*
X9727786Y-14369786D01*
X9742071Y-14326929D01*
X9756357Y-14255500D01*
X9756357Y-14198357D01*
X9742071Y-14126929D01*
X9727786Y-14084071D01*
X9713500Y-14055500D01*
X9684929Y-14012643D01*
X9670643Y-13998357D01*
X2898621Y-14637421D02*
X2898621Y-14565579D01*
X2826778Y-14565579D01*
X2826778Y-14637421D01*
X2898621Y-14637421D01*
X3342071Y-14737214D02*
X3170643Y-14737214D01*
X3256357Y-14737214D02*
X3256357Y-14437214D01*
X3227786Y-14480071D01*
X3199214Y-14508643D01*
X3170643Y-14522929D01*
X3470643Y-14708643D02*
X3484928Y-14722929D01*
X3470643Y-14737214D01*
X3456357Y-14722929D01*
X3470643Y-14708643D01*
X3470643Y-14737214D01*
X3670643Y-14437214D02*
X3699214Y-14437214D01*
X3727786Y-14451500D01*
X3742071Y-14465786D01*
X3756357Y-14494357D01*
X3770643Y-14551500D01*
X3770643Y-14622929D01*
X3756357Y-14680071D01*
X3742071Y-14708643D01*
X3727786Y-14722929D01*
X3699214Y-14737214D01*
X3670643Y-14737214D01*
X3642071Y-14722929D01*
X3627786Y-14708643D01*
X3613500Y-14680071D01*
X3599214Y-14622929D01*
X3599214Y-14551500D01*
X3613500Y-14494357D01*
X3627786Y-14465786D01*
X3642071Y-14451500D01*
X3670643Y-14437214D01*
X3884928Y-14465786D02*
X3899214Y-14451500D01*
X3927786Y-14437214D01*
X3999214Y-14437214D01*
X4027786Y-14451500D01*
X4042071Y-14465786D01*
X4056357Y-14494357D01*
X4056357Y-14522929D01*
X4042071Y-14565786D01*
X3870643Y-14737214D01*
X4056357Y-14737214D01*
X4184928Y-14737214D02*
X4184928Y-14537214D01*
X4184928Y-14565786D02*
X4199214Y-14551500D01*
X4227786Y-14537214D01*
X4270643Y-14537214D01*
X4299214Y-14551500D01*
X4313500Y-14580071D01*
X4313500Y-14737214D01*
X4313500Y-14580071D02*
X4327786Y-14551500D01*
X4356357Y-14537214D01*
X4399214Y-14537214D01*
X4427786Y-14551500D01*
X4442071Y-14580071D01*
X4442071Y-14737214D01*
X4584929Y-14737214D02*
X4584929Y-14537214D01*
X4584929Y-14565786D02*
X4599214Y-14551500D01*
X4627786Y-14537214D01*
X4670643Y-14537214D01*
X4699214Y-14551500D01*
X4713500Y-14580071D01*
X4713500Y-14737214D01*
X4713500Y-14580071D02*
X4727786Y-14551500D01*
X4756357Y-14537214D01*
X4799214Y-14537214D01*
X4827786Y-14551500D01*
X4842071Y-14580071D01*
X4842071Y-14737214D01*
X5427786Y-14422929D02*
X5170643Y-14808643D01*
X5813500Y-14437214D02*
X5842071Y-14437214D01*
X5870643Y-14451500D01*
X5884928Y-14465786D01*
X5899214Y-14494357D01*
X5913500Y-14551500D01*
X5913500Y-14622929D01*
X5899214Y-14680071D01*
X5884928Y-14708643D01*
X5870643Y-14722929D01*
X5842071Y-14737214D01*
X5813500Y-14737214D01*
X5784928Y-14722929D01*
X5770643Y-14708643D01*
X5756357Y-14680071D01*
X5742071Y-14622929D01*
X5742071Y-14551500D01*
X5756357Y-14494357D01*
X5770643Y-14465786D01*
X5784928Y-14451500D01*
X5813500Y-14437214D01*
X6042071Y-14708643D02*
X6056357Y-14722929D01*
X6042071Y-14737214D01*
X6027786Y-14722929D01*
X6042071Y-14708643D01*
X6042071Y-14737214D01*
X6242071Y-14437214D02*
X6270643Y-14437214D01*
X6299214Y-14451500D01*
X6313500Y-14465786D01*
X6327785Y-14494357D01*
X6342071Y-14551500D01*
X6342071Y-14622929D01*
X6327785Y-14680071D01*
X6313500Y-14708643D01*
X6299214Y-14722929D01*
X6270643Y-14737214D01*
X6242071Y-14737214D01*
X6213500Y-14722929D01*
X6199214Y-14708643D01*
X6184928Y-14680071D01*
X6170643Y-14622929D01*
X6170643Y-14551500D01*
X6184928Y-14494357D01*
X6199214Y-14465786D01*
X6213500Y-14451500D01*
X6242071Y-14437214D01*
X6599214Y-14537214D02*
X6599214Y-14737214D01*
X6527785Y-14422929D02*
X6456357Y-14637214D01*
X6642071Y-14637214D01*
X6813500Y-14437214D02*
X6842071Y-14437214D01*
X6870643Y-14451500D01*
X6884928Y-14465786D01*
X6899214Y-14494357D01*
X6913500Y-14551500D01*
X6913500Y-14622929D01*
X6899214Y-14680071D01*
X6884928Y-14708643D01*
X6870643Y-14722929D01*
X6842071Y-14737214D01*
X6813500Y-14737214D01*
X6784928Y-14722929D01*
X6770643Y-14708643D01*
X6756357Y-14680071D01*
X6742071Y-14622929D01*
X6742071Y-14551500D01*
X6756357Y-14494357D01*
X6770643Y-14465786D01*
X6784928Y-14451500D01*
X6813500Y-14437214D01*
X7027786Y-14437214D02*
X7027786Y-14494357D01*
X7142071Y-14437214D02*
X7142071Y-14494357D01*
X7584928Y-14851500D02*
X7570643Y-14837214D01*
X7542071Y-14794357D01*
X7527785Y-14765786D01*
X7513500Y-14722929D01*
X7499214Y-14651500D01*
X7499214Y-14594357D01*
X7513500Y-14522929D01*
X7527785Y-14480071D01*
X7542071Y-14451500D01*
X7570643Y-14408643D01*
X7584928Y-14394357D01*
X7670643Y-14437214D02*
X7870643Y-14437214D01*
X7742071Y-14737214D01*
X7956357Y-14437214D02*
X8156357Y-14437214D01*
X8027785Y-14737214D01*
X8499214Y-14737214D02*
X8499214Y-14437214D01*
X8627786Y-14737214D02*
X8627786Y-14580071D01*
X8613500Y-14551500D01*
X8584928Y-14537214D01*
X8542071Y-14537214D01*
X8513500Y-14551500D01*
X8499214Y-14565786D01*
X8813500Y-14737214D02*
X8784928Y-14722929D01*
X8770643Y-14708643D01*
X8756357Y-14680071D01*
X8756357Y-14594357D01*
X8770643Y-14565786D01*
X8784928Y-14551500D01*
X8813500Y-14537214D01*
X8856357Y-14537214D01*
X8884928Y-14551500D01*
X8899214Y-14565786D01*
X8913500Y-14594357D01*
X8913500Y-14680071D01*
X8899214Y-14708643D01*
X8884928Y-14722929D01*
X8856357Y-14737214D01*
X8813500Y-14737214D01*
X9084928Y-14737214D02*
X9056357Y-14722929D01*
X9042071Y-14694357D01*
X9042071Y-14437214D01*
X9313500Y-14722929D02*
X9284929Y-14737214D01*
X9227786Y-14737214D01*
X9199214Y-14722929D01*
X9184929Y-14694357D01*
X9184929Y-14580071D01*
X9199214Y-14551500D01*
X9227786Y-14537214D01*
X9284929Y-14537214D01*
X9313500Y-14551500D01*
X9327786Y-14580071D01*
X9327786Y-14608643D01*
X9184929Y-14637214D01*
X9442071Y-14722929D02*
X9470643Y-14737214D01*
X9527786Y-14737214D01*
X9556357Y-14722929D01*
X9570643Y-14694357D01*
X9570643Y-14680071D01*
X9556357Y-14651500D01*
X9527786Y-14637214D01*
X9484929Y-14637214D01*
X9456357Y-14622929D01*
X9442071Y-14594357D01*
X9442071Y-14580071D01*
X9456357Y-14551500D01*
X9484929Y-14537214D01*
X9527786Y-14537214D01*
X9556357Y-14551500D01*
X9670643Y-14851500D02*
X9684929Y-14837214D01*
X9713500Y-14794357D01*
X9727786Y-14765786D01*
X9742071Y-14722929D01*
X9756357Y-14651500D01*
X9756357Y-14594357D01*
X9742071Y-14522929D01*
X9727786Y-14480071D01*
X9713500Y-14451500D01*
X9684929Y-14408643D01*
X9670643Y-14394357D01*
M02*
