G04 #@! TF.FileFunction,Soldermask,Top*
%FSLAX46Y46*%
G04 Gerber Fmt 4.6, Leading zero omitted, Abs format (unit mm)*
G04 Created by KiCad (PCBNEW 4.0.4+e1-6308~48~ubuntu16.04.1-stable) date Thu Sep 22 16:47:12 2016*
%MOMM*%
%LPD*%
G01*
G04 APERTURE LIST*
%ADD10C,0.100000*%
%ADD11C,2.099260*%
%ADD12R,2.099260X2.099260*%
%ADD13R,2.432000X2.127200*%
%ADD14O,2.432000X2.127200*%
%ADD15R,2.432000X2.432000*%
%ADD16O,2.432000X2.432000*%
%ADD17C,1.600000*%
%ADD18C,2.398980*%
%ADD19C,1.700000*%
%ADD20R,1.700000X1.700000*%
G04 APERTURE END LIST*
D10*
D11*
X68582540Y-88900520D03*
D12*
X68582540Y-78740520D03*
D13*
X73660000Y-92710000D03*
D14*
X73660000Y-95250000D03*
X73660000Y-97790000D03*
X73660000Y-100330000D03*
X73660000Y-102870000D03*
D15*
X64770000Y-105410000D03*
D16*
X64770000Y-107950000D03*
D17*
X69850000Y-110490000D03*
X71120000Y-109220000D03*
X69850000Y-107950000D03*
D18*
X64770000Y-121920000D03*
X64770000Y-111760000D03*
X68580000Y-92710000D03*
X68580000Y-102870000D03*
X72390000Y-88900000D03*
X72390000Y-78740000D03*
X64770000Y-78740000D03*
X64770000Y-88900000D03*
X74930000Y-106680000D03*
X74930000Y-116840000D03*
D19*
X80335000Y-78740000D03*
D20*
X76835000Y-78740000D03*
D15*
X73660000Y-121920000D03*
D16*
X71120000Y-121920000D03*
D13*
X31750000Y-76200000D03*
D14*
X31750000Y-78740000D03*
X31750000Y-81280000D03*
X31750000Y-83820000D03*
X31750000Y-86360000D03*
X31750000Y-88900000D03*
X31750000Y-91440000D03*
X31750000Y-93980000D03*
X31750000Y-96520000D03*
X31750000Y-99060000D03*
X31750000Y-101600000D03*
X31750000Y-104140000D03*
X31750000Y-106680000D03*
X31750000Y-109220000D03*
X31750000Y-111760000D03*
X31750000Y-114300000D03*
X31750000Y-116840000D03*
X31750000Y-119380000D03*
X31750000Y-121920000D03*
D13*
X102870000Y-76200000D03*
D14*
X102870000Y-78740000D03*
X102870000Y-81280000D03*
X102870000Y-83820000D03*
X102870000Y-86360000D03*
X102870000Y-88900000D03*
X102870000Y-91440000D03*
X102870000Y-93980000D03*
X102870000Y-96520000D03*
X102870000Y-99060000D03*
X102870000Y-101600000D03*
X102870000Y-104140000D03*
X102870000Y-106680000D03*
X102870000Y-109220000D03*
X102870000Y-111760000D03*
X102870000Y-114300000D03*
X102870000Y-116840000D03*
X102870000Y-119380000D03*
X102870000Y-121920000D03*
D13*
X44450000Y-78740000D03*
D14*
X44450000Y-81280000D03*
X44450000Y-83820000D03*
X44450000Y-86360000D03*
X44450000Y-88900000D03*
X44450000Y-91440000D03*
X44450000Y-93980000D03*
X44450000Y-96520000D03*
X44450000Y-99060000D03*
X44450000Y-101600000D03*
X44450000Y-104140000D03*
X44450000Y-106680000D03*
X44450000Y-109220000D03*
X44450000Y-111760000D03*
X44450000Y-114300000D03*
D13*
X59690000Y-78740000D03*
D14*
X59690000Y-81280000D03*
X59690000Y-83820000D03*
X59690000Y-86360000D03*
X59690000Y-88900000D03*
X59690000Y-91440000D03*
X59690000Y-93980000D03*
X59690000Y-96520000D03*
X59690000Y-99060000D03*
X59690000Y-101600000D03*
X59690000Y-104140000D03*
X59690000Y-106680000D03*
X59690000Y-109220000D03*
X59690000Y-111760000D03*
X59690000Y-114300000D03*
D17*
X38100000Y-95250000D03*
X39370000Y-93980000D03*
X38100000Y-92710000D03*
D18*
X38100000Y-78740000D03*
X38100000Y-88900000D03*
X39370000Y-110490000D03*
X39370000Y-100330000D03*
M02*
