G04 #@! TF.FileFunction,Legend,Bot*
%FSLAX46Y46*%
G04 Gerber Fmt 4.6, Leading zero omitted, Abs format (unit mm)*
G04 Created by KiCad (PCBNEW 4.0.4+e1-6308~48~ubuntu16.04.1-stable) date Thu Sep 22 16:47:12 2016*
%MOMM*%
%LPD*%
G01*
G04 APERTURE LIST*
%ADD10C,0.100000*%
%ADD11C,0.300000*%
G04 APERTURE END LIST*
D10*
D11*
X96482856Y-112438571D02*
X96482856Y-110938571D01*
X96125713Y-110938571D01*
X95911428Y-111010000D01*
X95768570Y-111152857D01*
X95697142Y-111295714D01*
X95625713Y-111581429D01*
X95625713Y-111795714D01*
X95697142Y-112081429D01*
X95768570Y-112224286D01*
X95911428Y-112367143D01*
X96125713Y-112438571D01*
X96482856Y-112438571D01*
X94482856Y-111652857D02*
X94268570Y-111724286D01*
X94197142Y-111795714D01*
X94125713Y-111938571D01*
X94125713Y-112152857D01*
X94197142Y-112295714D01*
X94268570Y-112367143D01*
X94411428Y-112438571D01*
X94982856Y-112438571D01*
X94982856Y-110938571D01*
X94482856Y-110938571D01*
X94339999Y-111010000D01*
X94268570Y-111081429D01*
X94197142Y-111224286D01*
X94197142Y-111367143D01*
X94268570Y-111510000D01*
X94339999Y-111581429D01*
X94482856Y-111652857D01*
X94982856Y-111652857D01*
X93839999Y-112581429D02*
X92697142Y-112581429D01*
X92339999Y-112438571D02*
X92339999Y-110938571D01*
X91839999Y-112010000D01*
X91339999Y-110938571D01*
X91339999Y-112438571D01*
X90411427Y-112438571D02*
X90554285Y-112367143D01*
X90625713Y-112295714D01*
X90697142Y-112152857D01*
X90697142Y-111724286D01*
X90625713Y-111581429D01*
X90554285Y-111510000D01*
X90411427Y-111438571D01*
X90197142Y-111438571D01*
X90054285Y-111510000D01*
X89982856Y-111581429D01*
X89911427Y-111724286D01*
X89911427Y-112152857D01*
X89982856Y-112295714D01*
X90054285Y-112367143D01*
X90197142Y-112438571D01*
X90411427Y-112438571D01*
X89482856Y-111438571D02*
X88911427Y-111438571D01*
X89268570Y-110938571D02*
X89268570Y-112224286D01*
X89197142Y-112367143D01*
X89054284Y-112438571D01*
X88911427Y-112438571D01*
X88197141Y-112438571D02*
X88339999Y-112367143D01*
X88411427Y-112295714D01*
X88482856Y-112152857D01*
X88482856Y-111724286D01*
X88411427Y-111581429D01*
X88339999Y-111510000D01*
X88197141Y-111438571D01*
X87982856Y-111438571D01*
X87839999Y-111510000D01*
X87768570Y-111581429D01*
X87697141Y-111724286D01*
X87697141Y-112152857D01*
X87768570Y-112295714D01*
X87839999Y-112367143D01*
X87982856Y-112438571D01*
X88197141Y-112438571D01*
X87054284Y-112438571D02*
X87054284Y-111438571D01*
X87054284Y-111724286D02*
X86982856Y-111581429D01*
X86911427Y-111510000D01*
X86768570Y-111438571D01*
X86625713Y-111438571D01*
X86482856Y-112581429D02*
X85339999Y-112581429D01*
X84125713Y-112295714D02*
X84197142Y-112367143D01*
X84411428Y-112438571D01*
X84554285Y-112438571D01*
X84768570Y-112367143D01*
X84911428Y-112224286D01*
X84982856Y-112081429D01*
X85054285Y-111795714D01*
X85054285Y-111581429D01*
X84982856Y-111295714D01*
X84911428Y-111152857D01*
X84768570Y-111010000D01*
X84554285Y-110938571D01*
X84411428Y-110938571D01*
X84197142Y-111010000D01*
X84125713Y-111081429D01*
X83268570Y-112438571D02*
X83411428Y-112367143D01*
X83482856Y-112295714D01*
X83554285Y-112152857D01*
X83554285Y-111724286D01*
X83482856Y-111581429D01*
X83411428Y-111510000D01*
X83268570Y-111438571D01*
X83054285Y-111438571D01*
X82911428Y-111510000D01*
X82839999Y-111581429D01*
X82768570Y-111724286D01*
X82768570Y-112152857D01*
X82839999Y-112295714D01*
X82911428Y-112367143D01*
X83054285Y-112438571D01*
X83268570Y-112438571D01*
X82125713Y-111438571D02*
X82125713Y-112438571D01*
X82125713Y-111581429D02*
X82054285Y-111510000D01*
X81911427Y-111438571D01*
X81697142Y-111438571D01*
X81554285Y-111510000D01*
X81482856Y-111652857D01*
X81482856Y-112438571D01*
X80982856Y-111438571D02*
X80411427Y-111438571D01*
X80768570Y-110938571D02*
X80768570Y-112224286D01*
X80697142Y-112367143D01*
X80554284Y-112438571D01*
X80411427Y-112438571D01*
X79911427Y-112438571D02*
X79911427Y-111438571D01*
X79911427Y-111724286D02*
X79839999Y-111581429D01*
X79768570Y-111510000D01*
X79625713Y-111438571D01*
X79482856Y-111438571D01*
X78768570Y-112438571D02*
X78911428Y-112367143D01*
X78982856Y-112295714D01*
X79054285Y-112152857D01*
X79054285Y-111724286D01*
X78982856Y-111581429D01*
X78911428Y-111510000D01*
X78768570Y-111438571D01*
X78554285Y-111438571D01*
X78411428Y-111510000D01*
X78339999Y-111581429D01*
X78268570Y-111724286D01*
X78268570Y-112152857D01*
X78339999Y-112295714D01*
X78411428Y-112367143D01*
X78554285Y-112438571D01*
X78768570Y-112438571D01*
X77411427Y-112438571D02*
X77554285Y-112367143D01*
X77625713Y-112224286D01*
X77625713Y-110938571D01*
X77197142Y-112581429D02*
X76054285Y-112581429D01*
X75911428Y-110938571D02*
X75411428Y-112438571D01*
X74911428Y-110938571D01*
X73625714Y-112438571D02*
X74482857Y-112438571D01*
X74054285Y-112438571D02*
X74054285Y-110938571D01*
X74197142Y-111152857D01*
X74340000Y-111295714D01*
X74482857Y-111367143D01*
M02*
