M48
;DRILL file {KiCad 4.0.4+e1-6308~48~ubuntu16.04.1-stable} date Thu Sep 22 16:47:09 2016
;FORMAT={-:-/ absolute / inch / decimal}
FMAT,2
INCH,TZ
T1C0.028
T2C0.031
T3C0.039
T4C0.040
%
G90
G05
M72
T1
X2.7001Y-3.1
X2.7001Y-3.5
T2
X1.5Y-3.65
X1.5Y-3.75
X1.55Y-3.7
X2.75Y-4.25
X2.75Y-4.35
X2.8Y-4.3
X3.025Y-3.1
X3.1628Y-3.1
T3
X1.5Y-3.1
X1.5Y-3.5
X1.55Y-3.95
X1.55Y-4.35
X2.55Y-3.1
X2.55Y-3.5
X2.55Y-4.4
X2.55Y-4.8
X2.7Y-3.65
X2.7Y-4.05
X2.85Y-3.1
X2.85Y-3.5
X2.95Y-4.2
X2.95Y-4.6
T4
X1.25Y-3.
X1.25Y-3.1
X1.25Y-3.2
X1.25Y-3.3
X1.25Y-3.4
X1.25Y-3.5
X1.25Y-3.6
X1.25Y-3.7
X1.25Y-3.8
X1.25Y-3.9
X1.25Y-4.
X1.25Y-4.1
X1.25Y-4.2
X1.25Y-4.3
X1.25Y-4.4
X1.25Y-4.5
X1.25Y-4.6
X1.25Y-4.7
X1.25Y-4.8
X1.75Y-3.1
X1.75Y-3.2
X1.75Y-3.3
X1.75Y-3.4
X1.75Y-3.5
X1.75Y-3.6
X1.75Y-3.7
X1.75Y-3.8
X1.75Y-3.9
X1.75Y-4.
X1.75Y-4.1
X1.75Y-4.2
X1.75Y-4.3
X1.75Y-4.4
X1.75Y-4.5
X2.35Y-3.1
X2.35Y-3.2
X2.35Y-3.3
X2.35Y-3.4
X2.35Y-3.5
X2.35Y-3.6
X2.35Y-3.7
X2.35Y-3.8
X2.35Y-3.9
X2.35Y-4.
X2.35Y-4.1
X2.35Y-4.2
X2.35Y-4.3
X2.35Y-4.4
X2.35Y-4.5
X2.55Y-4.15
X2.55Y-4.25
X2.8Y-4.8
X2.9Y-3.65
X2.9Y-3.75
X2.9Y-3.85
X2.9Y-3.95
X2.9Y-4.05
X2.9Y-4.8
X4.05Y-3.
X4.05Y-3.1
X4.05Y-3.2
X4.05Y-3.3
X4.05Y-3.4
X4.05Y-3.5
X4.05Y-3.6
X4.05Y-3.7
X4.05Y-3.8
X4.05Y-3.9
X4.05Y-4.
X4.05Y-4.1
X4.05Y-4.2
X4.05Y-4.3
X4.05Y-4.4
X4.05Y-4.5
X4.05Y-4.6
X4.05Y-4.7
X4.05Y-4.8
T0
M30
