M48
;DRILL file {KiCad 4.0.3+e1-6302~38~ubuntu16.04.1-stable} date Thu Aug 25 11:55:55 2016
;FORMAT={-:-/ absolute / inch / decimal}
FMAT,2
INCH,TZ
T1C0.016
T2C0.028
T3C0.031
T4C0.035
T5C0.039
T6C0.040
%
G90
G05
M72
T1
X4.4Y-3.05
T2
X3.05Y-1.6499
X3.2999Y-2.3
X3.2999Y-2.7
X3.4001Y-2.3
X3.4001Y-2.7
X3.45Y-1.6499
X3.5499Y-1.75
X3.5499Y-2.15
X3.5501Y-2.8
X3.5501Y-3.2
X3.6499Y-2.8
X3.6499Y-3.2
X3.6501Y-1.75
X3.6501Y-2.15
X3.7999Y-1.75
X3.7999Y-2.15
X3.7999Y-2.8
X3.7999Y-3.2
X3.9001Y-1.75
X3.9001Y-2.15
X3.9001Y-2.8
X3.9001Y-3.2
X4.4Y-2.9501
X4.8Y-2.9501
T3
X3.3016Y-1.85
X3.3016Y-2.1
X3.3016Y-2.9
X3.35Y-3.1
X3.35Y-3.1984
X3.4Y-1.85
X3.4Y-2.1
X3.4Y-2.9
X3.55Y-2.35
X3.55Y-2.6
X3.5516Y-1.55
X3.6484Y-2.35
X3.6484Y-2.6
X3.65Y-1.55
X3.8Y-2.35
X3.8016Y-1.55
X3.8016Y-2.6
X3.8984Y-2.35
X3.9Y-1.55
X3.9Y-2.6
X4.0016Y-3.05
X4.1Y-3.05
X4.15Y-2.4
X4.2Y-2.35
X4.2Y-2.45
X4.4Y-2.55
X4.45Y-1.55
X4.45Y-1.65
X4.45Y-1.75
X4.45Y-1.85
X4.45Y-2.5
X4.45Y-2.6
X4.6016Y-2.8
X4.7Y-2.55
X4.7Y-2.8
X4.75Y-1.55
X4.75Y-1.65
X4.75Y-1.75
X4.75Y-1.85
X4.75Y-2.5
X4.75Y-2.6
T4
X4.2Y-2.1
X4.3969Y-2.1
X4.55Y-2.1
X4.7469Y-2.1
T5
X4.05Y-2.8
X4.15Y-1.4
X4.15Y-1.8
X4.3Y-1.4
X4.3Y-1.8
X4.4Y-2.3
X4.45Y-2.8
X4.8Y-2.3
T6
X2.9Y-1.4
X2.9Y-1.5
X2.9Y-1.6
X2.9Y-1.7
X2.9Y-1.8
X2.9Y-1.9
X2.9Y-2.
X2.9Y-2.1
X2.9Y-2.2
X2.9Y-2.3
X2.9Y-2.4
X2.9Y-2.5
X2.9Y-2.6
X2.9Y-2.7
X2.9Y-2.8
X2.9Y-2.9
X2.9Y-3.
X2.9Y-3.1
X2.9Y-3.2
X4.7Y-3.15
X4.8Y-3.15
X5.7Y-1.4
X5.7Y-1.5
X5.7Y-1.6
X5.7Y-1.7
X5.7Y-1.8
X5.7Y-1.9
X5.7Y-2.
X5.7Y-2.1
X5.7Y-2.2
X5.7Y-2.3
X5.7Y-2.4
X5.7Y-2.5
X5.7Y-2.6
X5.7Y-2.7
X5.7Y-2.8
X5.7Y-2.9
X5.7Y-3.
X5.7Y-3.1
X5.7Y-3.2
T0
M30
