M48
INCH,TZ
T1C0.031
T2C0.039
T3C0.040
%
G90
G05
T1
X32500Y-22500
X33878Y-22500
X37500Y-36500
X38000Y-36000
X38000Y-37000
X39000Y-24622
X39000Y-26000
T2
X31500Y-35500
X31500Y-37000
X35500Y-35500
X35500Y-37000
T3
X20000Y-22000
X20000Y-23000
X20000Y-24000
X20000Y-25000
X20000Y-26000
X20000Y-27000
X20000Y-28000
X20000Y-29000
X20000Y-30000
X20000Y-31000
X20000Y-32000
X20000Y-33000
X20000Y-34000
X20000Y-35000
X20000Y-36000
X20000Y-37000
X20000Y-38000
X20000Y-39000
X20000Y-40000
X23000Y-24000
X23000Y-25000
X23000Y-26000
X23000Y-27000
X23000Y-28000
X23000Y-29000
X23000Y-30000
X23000Y-31000
X23000Y-32000
X23000Y-33000
X23000Y-34000
X23000Y-35000
X23000Y-36000
X23000Y-37000
X23000Y-38000
X29000Y-24000
X29000Y-25000
X29000Y-26000
X29000Y-27000
X29000Y-28000
X29000Y-29000
X29000Y-30000
X29000Y-31000
X29000Y-32000
X29000Y-33000
X29000Y-34000
X29000Y-35000
X29000Y-36000
X29000Y-37000
X29000Y-38000
X31500Y-26000
X31500Y-27000
X31500Y-28000
X31500Y-29000
X31500Y-30000
X31500Y-31000
X31500Y-32000
X31500Y-33000
X36500Y-26000
X36500Y-27000
X36500Y-28000
X36500Y-29000
X36500Y-30000
X36500Y-31000
X36500Y-32000
X36500Y-33000
X40000Y-28000
X40000Y-29000
X40000Y-30000
X40000Y-31000
T0
M30
