G04 #@! TF.FileFunction,Legend,Top*
%FSLAX46Y46*%
G04 Gerber Fmt 4.6, Leading zero omitted, Abs format (unit mm)*
G04 Created by KiCad (PCBNEW 4.0.4+e1-6308~48~ubuntu16.04.1-stable) date Wed Oct 12 15:54:31 2016*
%MOMM*%
%LPD*%
G01*
G04 APERTURE LIST*
%ADD10C,0.100000*%
%ADD11C,0.300000*%
%ADD12C,0.150000*%
G04 APERTURE END LIST*
D10*
D11*
X88650715Y-84903571D02*
X89507858Y-84903571D01*
X89079287Y-86403571D02*
X89079287Y-84903571D01*
X90007858Y-86403571D02*
X90007858Y-85403571D01*
X90007858Y-85689286D02*
X90079286Y-85546429D01*
X90150715Y-85475000D01*
X90293572Y-85403571D01*
X90436429Y-85403571D01*
X91579286Y-86403571D02*
X91579286Y-85617857D01*
X91507857Y-85475000D01*
X91365000Y-85403571D01*
X91079286Y-85403571D01*
X90936429Y-85475000D01*
X91579286Y-86332143D02*
X91436429Y-86403571D01*
X91079286Y-86403571D01*
X90936429Y-86332143D01*
X90865000Y-86189286D01*
X90865000Y-86046429D01*
X90936429Y-85903571D01*
X91079286Y-85832143D01*
X91436429Y-85832143D01*
X91579286Y-85760714D01*
X92293572Y-85403571D02*
X92293572Y-86403571D01*
X92293572Y-85546429D02*
X92365000Y-85475000D01*
X92507858Y-85403571D01*
X92722143Y-85403571D01*
X92865000Y-85475000D01*
X92936429Y-85617857D01*
X92936429Y-86403571D01*
X93579286Y-86332143D02*
X93722143Y-86403571D01*
X94007858Y-86403571D01*
X94150715Y-86332143D01*
X94222143Y-86189286D01*
X94222143Y-86117857D01*
X94150715Y-85975000D01*
X94007858Y-85903571D01*
X93793572Y-85903571D01*
X93650715Y-85832143D01*
X93579286Y-85689286D01*
X93579286Y-85617857D01*
X93650715Y-85475000D01*
X93793572Y-85403571D01*
X94007858Y-85403571D01*
X94150715Y-85475000D01*
X95507858Y-86403571D02*
X95507858Y-84903571D01*
X95507858Y-86332143D02*
X95365001Y-86403571D01*
X95079287Y-86403571D01*
X94936429Y-86332143D01*
X94865001Y-86260714D01*
X94793572Y-86117857D01*
X94793572Y-85689286D01*
X94865001Y-85546429D01*
X94936429Y-85475000D01*
X95079287Y-85403571D01*
X95365001Y-85403571D01*
X95507858Y-85475000D01*
X96865001Y-85403571D02*
X96865001Y-86403571D01*
X96222144Y-85403571D02*
X96222144Y-86189286D01*
X96293572Y-86332143D01*
X96436430Y-86403571D01*
X96650715Y-86403571D01*
X96793572Y-86332143D01*
X96865001Y-86260714D01*
X98222144Y-86332143D02*
X98079287Y-86403571D01*
X97793573Y-86403571D01*
X97650715Y-86332143D01*
X97579287Y-86260714D01*
X97507858Y-86117857D01*
X97507858Y-85689286D01*
X97579287Y-85546429D01*
X97650715Y-85475000D01*
X97793573Y-85403571D01*
X98079287Y-85403571D01*
X98222144Y-85475000D01*
X99436429Y-86332143D02*
X99293572Y-86403571D01*
X99007858Y-86403571D01*
X98865001Y-86332143D01*
X98793572Y-86189286D01*
X98793572Y-85617857D01*
X98865001Y-85475000D01*
X99007858Y-85403571D01*
X99293572Y-85403571D01*
X99436429Y-85475000D01*
X99507858Y-85617857D01*
X99507858Y-85760714D01*
X98793572Y-85903571D01*
X100150715Y-86403571D02*
X100150715Y-85403571D01*
X100150715Y-85689286D02*
X100222143Y-85546429D01*
X100293572Y-85475000D01*
X100436429Y-85403571D01*
X100579286Y-85403571D01*
X82748572Y-124503571D02*
X82748572Y-123003571D01*
X82748572Y-123717857D02*
X83605715Y-123717857D01*
X83605715Y-124503571D02*
X83605715Y-123003571D01*
X84105715Y-123003571D02*
X84605715Y-124503571D01*
X85105715Y-123003571D01*
D12*
X67020000Y-87765000D02*
X67020000Y-93765000D01*
X62520000Y-93765000D02*
X62520000Y-87765000D01*
X82050000Y-86650000D02*
X88050000Y-86650000D01*
X88050000Y-91150000D02*
X82050000Y-91150000D01*
X82050000Y-94270000D02*
X88050000Y-94270000D01*
X88050000Y-98770000D02*
X82050000Y-98770000D01*
X93982540Y-111506520D02*
X93982540Y-112903520D01*
X93982540Y-107061520D02*
X93982540Y-105537520D01*
X94744540Y-107442520D02*
X93220540Y-107442520D01*
X94744540Y-107188520D02*
X93220540Y-107188520D01*
X93982540Y-106934520D02*
X93220540Y-106934520D01*
X93220540Y-106934520D02*
X93220540Y-111506520D01*
X93220540Y-111506520D02*
X94744540Y-111506520D01*
X94744540Y-111506520D02*
X94744540Y-106934520D01*
X94744540Y-106934520D02*
X93982540Y-106934520D01*
X90167460Y-106933480D02*
X90167460Y-105536480D01*
X90167460Y-111378480D02*
X90167460Y-112902480D01*
X89405460Y-110997480D02*
X90929460Y-110997480D01*
X89405460Y-111251480D02*
X90929460Y-111251480D01*
X90167460Y-111505480D02*
X90929460Y-111505480D01*
X90929460Y-111505480D02*
X90929460Y-106933480D01*
X90929460Y-106933480D02*
X89405460Y-106933480D01*
X89405460Y-106933480D02*
X89405460Y-111505480D01*
X89405460Y-111505480D02*
X90167460Y-111505480D01*
X58420000Y-83820000D02*
X58420000Y-129540000D01*
X58420000Y-129540000D02*
X60960000Y-129540000D01*
X60960000Y-129540000D02*
X60960000Y-83820000D01*
X58140000Y-81000000D02*
X58140000Y-82550000D01*
X58420000Y-83820000D02*
X60960000Y-83820000D01*
X61240000Y-82550000D02*
X61240000Y-81000000D01*
X61240000Y-81000000D02*
X58140000Y-81000000D01*
X78740000Y-125730000D02*
X88900000Y-125730000D01*
X88900000Y-125730000D02*
X88900000Y-130810000D01*
X88900000Y-130810000D02*
X78740000Y-130810000D01*
X78740000Y-130810000D02*
X78740000Y-125730000D01*
X80010000Y-83820000D02*
X69850000Y-83820000D01*
X69850000Y-83820000D02*
X69850000Y-78740000D01*
X69850000Y-78740000D02*
X80010000Y-78740000D01*
X80010000Y-78740000D02*
X80010000Y-83820000D01*
X99060000Y-83820000D02*
X88900000Y-83820000D01*
X88900000Y-83820000D02*
X88900000Y-78740000D01*
X88900000Y-78740000D02*
X99060000Y-78740000D01*
X99060000Y-78740000D02*
X99060000Y-83820000D01*
X104140000Y-83820000D02*
X104140000Y-129540000D01*
X104140000Y-129540000D02*
X106680000Y-129540000D01*
X106680000Y-129540000D02*
X106680000Y-83820000D01*
X103860000Y-81000000D02*
X103860000Y-82550000D01*
X104140000Y-83820000D02*
X106680000Y-83820000D01*
X106960000Y-82550000D02*
X106960000Y-81000000D01*
X106960000Y-81000000D02*
X103860000Y-81000000D01*
X72180000Y-89955000D02*
X72180000Y-90160000D01*
X77680000Y-89955000D02*
X77680000Y-90255000D01*
X77680000Y-95465000D02*
X77680000Y-95165000D01*
X72180000Y-95465000D02*
X72180000Y-95165000D01*
X72180000Y-89955000D02*
X77680000Y-89955000D01*
X72180000Y-95465000D02*
X77680000Y-95465000D01*
X72180000Y-90160000D02*
X70430000Y-90160000D01*
X98005000Y-89960000D02*
X97800000Y-89960000D01*
X98005000Y-95460000D02*
X97705000Y-95460000D01*
X92495000Y-95460000D02*
X92795000Y-95460000D01*
X92495000Y-89960000D02*
X92795000Y-89960000D01*
X98005000Y-89960000D02*
X98005000Y-95460000D01*
X92495000Y-89960000D02*
X92495000Y-95460000D01*
X97800000Y-89960000D02*
X97800000Y-88210000D01*
X66595000Y-121731000D02*
X66595000Y-129729000D01*
X66735000Y-121736000D02*
X66735000Y-129724000D01*
X66875000Y-121746000D02*
X66875000Y-129714000D01*
X67015000Y-121761000D02*
X67015000Y-129699000D01*
X67155000Y-121781000D02*
X67155000Y-129679000D01*
X67295000Y-121806000D02*
X67295000Y-125508000D01*
X67295000Y-125952000D02*
X67295000Y-129654000D01*
X67435000Y-121836000D02*
X67435000Y-125180000D01*
X67435000Y-126280000D02*
X67435000Y-129624000D01*
X67575000Y-121872000D02*
X67575000Y-125011000D01*
X67575000Y-126449000D02*
X67575000Y-129588000D01*
X67715000Y-121913000D02*
X67715000Y-124898000D01*
X67715000Y-126562000D02*
X67715000Y-129547000D01*
X67855000Y-121959000D02*
X67855000Y-124820000D01*
X67855000Y-126640000D02*
X67855000Y-129501000D01*
X67995000Y-122012000D02*
X67995000Y-124769000D01*
X67995000Y-126691000D02*
X67995000Y-129448000D01*
X68135000Y-122071000D02*
X68135000Y-124739000D01*
X68135000Y-126721000D02*
X68135000Y-129389000D01*
X68275000Y-122136000D02*
X68275000Y-124730000D01*
X68275000Y-126730000D02*
X68275000Y-129324000D01*
X68415000Y-122207000D02*
X68415000Y-124741000D01*
X68415000Y-126719000D02*
X68415000Y-129253000D01*
X68555000Y-122286000D02*
X68555000Y-124771000D01*
X68555000Y-126689000D02*
X68555000Y-129174000D01*
X68695000Y-122373000D02*
X68695000Y-124825000D01*
X68695000Y-126635000D02*
X68695000Y-129087000D01*
X68835000Y-122468000D02*
X68835000Y-124905000D01*
X68835000Y-126555000D02*
X68835000Y-128992000D01*
X68975000Y-122572000D02*
X68975000Y-125021000D01*
X68975000Y-126439000D02*
X68975000Y-128888000D01*
X69115000Y-122686000D02*
X69115000Y-125195000D01*
X69115000Y-126265000D02*
X69115000Y-128774000D01*
X69255000Y-122811000D02*
X69255000Y-125557000D01*
X69255000Y-125903000D02*
X69255000Y-128649000D01*
X69395000Y-122949000D02*
X69395000Y-128511000D01*
X69535000Y-123101000D02*
X69535000Y-128359000D01*
X69675000Y-123271000D02*
X69675000Y-128189000D01*
X69815000Y-123462000D02*
X69815000Y-127998000D01*
X69955000Y-123680000D02*
X69955000Y-127780000D01*
X70095000Y-123936000D02*
X70095000Y-127524000D01*
X70235000Y-124247000D02*
X70235000Y-127213000D01*
X70375000Y-124663000D02*
X70375000Y-126797000D01*
X70515000Y-125530000D02*
X70515000Y-125930000D01*
X69270000Y-125730000D02*
G75*
G03X69270000Y-125730000I-1000000J0D01*
G01*
X70557500Y-125730000D02*
G75*
G03X70557500Y-125730000I-4037500J0D01*
G01*
X77470000Y-137100000D02*
X77470000Y-128270000D01*
X74930000Y-137100000D02*
X77470000Y-137100000D01*
X74930000Y-128270000D02*
X74930000Y-137100000D01*
X74930000Y-128270000D02*
X77470000Y-128270000D01*
X72390000Y-128270000D02*
X74930000Y-128270000D01*
X73660000Y-125600000D02*
X72110000Y-125600000D01*
X72110000Y-125600000D02*
X72110000Y-127000000D01*
X72390000Y-128270000D02*
X72390000Y-137100000D01*
X72390000Y-137100000D02*
X74930000Y-137100000D01*
X74930000Y-137100000D02*
X74930000Y-128270000D01*
X63500000Y-72450000D02*
X63500000Y-81280000D01*
X66040000Y-72450000D02*
X63500000Y-72450000D01*
X66040000Y-81280000D02*
X66040000Y-72450000D01*
X66040000Y-81280000D02*
X63500000Y-81280000D01*
X68580000Y-81280000D02*
X66040000Y-81280000D01*
X67310000Y-83950000D02*
X68860000Y-83950000D01*
X68860000Y-83950000D02*
X68860000Y-82550000D01*
X68580000Y-81280000D02*
X68580000Y-72450000D01*
X68580000Y-72450000D02*
X66040000Y-72450000D01*
X66040000Y-72450000D02*
X66040000Y-81280000D01*
X82550000Y-72450000D02*
X82550000Y-81280000D01*
X85090000Y-72450000D02*
X82550000Y-72450000D01*
X85090000Y-81280000D02*
X85090000Y-72450000D01*
X85090000Y-81280000D02*
X82550000Y-81280000D01*
X87630000Y-81280000D02*
X85090000Y-81280000D01*
X86360000Y-83950000D02*
X87910000Y-83950000D01*
X87910000Y-83950000D02*
X87910000Y-82550000D01*
X87630000Y-81280000D02*
X87630000Y-72450000D01*
X87630000Y-72450000D02*
X85090000Y-72450000D01*
X85090000Y-72450000D02*
X85090000Y-81280000D01*
X66397143Y-90971666D02*
X66444762Y-91019285D01*
X66492381Y-91162142D01*
X66492381Y-91257380D01*
X66444762Y-91400238D01*
X66349524Y-91495476D01*
X66254286Y-91543095D01*
X66063810Y-91590714D01*
X65920952Y-91590714D01*
X65730476Y-91543095D01*
X65635238Y-91495476D01*
X65540000Y-91400238D01*
X65492381Y-91257380D01*
X65492381Y-91162142D01*
X65540000Y-91019285D01*
X65587619Y-90971666D01*
X66492381Y-90019285D02*
X66492381Y-90590714D01*
X66492381Y-90305000D02*
X65492381Y-90305000D01*
X65635238Y-90400238D01*
X65730476Y-90495476D01*
X65778095Y-90590714D01*
X84923334Y-87987143D02*
X84875715Y-88034762D01*
X84732858Y-88082381D01*
X84637620Y-88082381D01*
X84494762Y-88034762D01*
X84399524Y-87939524D01*
X84351905Y-87844286D01*
X84304286Y-87653810D01*
X84304286Y-87510952D01*
X84351905Y-87320476D01*
X84399524Y-87225238D01*
X84494762Y-87130000D01*
X84637620Y-87082381D01*
X84732858Y-87082381D01*
X84875715Y-87130000D01*
X84923334Y-87177619D01*
X85304286Y-87177619D02*
X85351905Y-87130000D01*
X85447143Y-87082381D01*
X85685239Y-87082381D01*
X85780477Y-87130000D01*
X85828096Y-87177619D01*
X85875715Y-87272857D01*
X85875715Y-87368095D01*
X85828096Y-87510952D01*
X85256667Y-88082381D01*
X85875715Y-88082381D01*
X84923334Y-95607143D02*
X84875715Y-95654762D01*
X84732858Y-95702381D01*
X84637620Y-95702381D01*
X84494762Y-95654762D01*
X84399524Y-95559524D01*
X84351905Y-95464286D01*
X84304286Y-95273810D01*
X84304286Y-95130952D01*
X84351905Y-94940476D01*
X84399524Y-94845238D01*
X84494762Y-94750000D01*
X84637620Y-94702381D01*
X84732858Y-94702381D01*
X84875715Y-94750000D01*
X84923334Y-94797619D01*
X85256667Y-94702381D02*
X85875715Y-94702381D01*
X85542381Y-95083333D01*
X85685239Y-95083333D01*
X85780477Y-95130952D01*
X85828096Y-95178571D01*
X85875715Y-95273810D01*
X85875715Y-95511905D01*
X85828096Y-95607143D01*
X85780477Y-95654762D01*
X85685239Y-95702381D01*
X85399524Y-95702381D01*
X85304286Y-95654762D01*
X85256667Y-95607143D01*
X95702381Y-110593095D02*
X94702381Y-110593095D01*
X94702381Y-110355000D01*
X94750000Y-110212142D01*
X94845238Y-110116904D01*
X94940476Y-110069285D01*
X95130952Y-110021666D01*
X95273810Y-110021666D01*
X95464286Y-110069285D01*
X95559524Y-110116904D01*
X95654762Y-110212142D01*
X95702381Y-110355000D01*
X95702381Y-110593095D01*
X95702381Y-109069285D02*
X95702381Y-109640714D01*
X95702381Y-109355000D02*
X94702381Y-109355000D01*
X94845238Y-109450238D01*
X94940476Y-109545476D01*
X94988095Y-109640714D01*
X89352381Y-109323095D02*
X88352381Y-109323095D01*
X88352381Y-109085000D01*
X88400000Y-108942142D01*
X88495238Y-108846904D01*
X88590476Y-108799285D01*
X88780952Y-108751666D01*
X88923810Y-108751666D01*
X89114286Y-108799285D01*
X89209524Y-108846904D01*
X89304762Y-108942142D01*
X89352381Y-109085000D01*
X89352381Y-109323095D01*
X88447619Y-108370714D02*
X88400000Y-108323095D01*
X88352381Y-108227857D01*
X88352381Y-107989761D01*
X88400000Y-107894523D01*
X88447619Y-107846904D01*
X88542857Y-107799285D01*
X88638095Y-107799285D01*
X88780952Y-107846904D01*
X89352381Y-108418333D01*
X89352381Y-107799285D01*
X61491905Y-86812381D02*
X61491905Y-85812381D01*
X61872858Y-85812381D01*
X61968096Y-85860000D01*
X62015715Y-85907619D01*
X62063334Y-86002857D01*
X62063334Y-86145714D01*
X62015715Y-86240952D01*
X61968096Y-86288571D01*
X61872858Y-86336190D01*
X61491905Y-86336190D01*
X63015715Y-86812381D02*
X62444286Y-86812381D01*
X62730000Y-86812381D02*
X62730000Y-85812381D01*
X62634762Y-85955238D01*
X62539524Y-86050476D01*
X62444286Y-86098095D01*
X58928096Y-79510000D02*
X58832858Y-79462381D01*
X58690001Y-79462381D01*
X58547143Y-79510000D01*
X58451905Y-79605238D01*
X58404286Y-79700476D01*
X58356667Y-79890952D01*
X58356667Y-80033810D01*
X58404286Y-80224286D01*
X58451905Y-80319524D01*
X58547143Y-80414762D01*
X58690001Y-80462381D01*
X58785239Y-80462381D01*
X58928096Y-80414762D01*
X58975715Y-80367143D01*
X58975715Y-80033810D01*
X58785239Y-80033810D01*
X59404286Y-80462381D02*
X59404286Y-79462381D01*
X59975715Y-80462381D01*
X59975715Y-79462381D01*
X60451905Y-80462381D02*
X60451905Y-79462381D01*
X60690000Y-79462381D01*
X60832858Y-79510000D01*
X60928096Y-79605238D01*
X60975715Y-79700476D01*
X61023334Y-79890952D01*
X61023334Y-80033810D01*
X60975715Y-80224286D01*
X60928096Y-80319524D01*
X60832858Y-80414762D01*
X60690000Y-80462381D01*
X60451905Y-80462381D01*
X85621905Y-128722381D02*
X85621905Y-127722381D01*
X86002858Y-127722381D01*
X86098096Y-127770000D01*
X86145715Y-127817619D01*
X86193334Y-127912857D01*
X86193334Y-128055714D01*
X86145715Y-128150952D01*
X86098096Y-128198571D01*
X86002858Y-128246190D01*
X85621905Y-128246190D01*
X86526667Y-127722381D02*
X87145715Y-127722381D01*
X86812381Y-128103333D01*
X86955239Y-128103333D01*
X87050477Y-128150952D01*
X87098096Y-128198571D01*
X87145715Y-128293810D01*
X87145715Y-128531905D01*
X87098096Y-128627143D01*
X87050477Y-128674762D01*
X86955239Y-128722381D01*
X86669524Y-128722381D01*
X86574286Y-128674762D01*
X86526667Y-128627143D01*
X71651905Y-81732381D02*
X71651905Y-80732381D01*
X72032858Y-80732381D01*
X72128096Y-80780000D01*
X72175715Y-80827619D01*
X72223334Y-80922857D01*
X72223334Y-81065714D01*
X72175715Y-81160952D01*
X72128096Y-81208571D01*
X72032858Y-81256190D01*
X71651905Y-81256190D01*
X73128096Y-80732381D02*
X72651905Y-80732381D01*
X72604286Y-81208571D01*
X72651905Y-81160952D01*
X72747143Y-81113333D01*
X72985239Y-81113333D01*
X73080477Y-81160952D01*
X73128096Y-81208571D01*
X73175715Y-81303810D01*
X73175715Y-81541905D01*
X73128096Y-81637143D01*
X73080477Y-81684762D01*
X72985239Y-81732381D01*
X72747143Y-81732381D01*
X72651905Y-81684762D01*
X72604286Y-81637143D01*
X90701905Y-81732381D02*
X90701905Y-80732381D01*
X91082858Y-80732381D01*
X91178096Y-80780000D01*
X91225715Y-80827619D01*
X91273334Y-80922857D01*
X91273334Y-81065714D01*
X91225715Y-81160952D01*
X91178096Y-81208571D01*
X91082858Y-81256190D01*
X90701905Y-81256190D01*
X91606667Y-80732381D02*
X92273334Y-80732381D01*
X91844762Y-81732381D01*
X102131905Y-86812381D02*
X102131905Y-85812381D01*
X102512858Y-85812381D01*
X102608096Y-85860000D01*
X102655715Y-85907619D01*
X102703334Y-86002857D01*
X102703334Y-86145714D01*
X102655715Y-86240952D01*
X102608096Y-86288571D01*
X102512858Y-86336190D01*
X102131905Y-86336190D01*
X103274762Y-86240952D02*
X103179524Y-86193333D01*
X103131905Y-86145714D01*
X103084286Y-86050476D01*
X103084286Y-86002857D01*
X103131905Y-85907619D01*
X103179524Y-85860000D01*
X103274762Y-85812381D01*
X103465239Y-85812381D01*
X103560477Y-85860000D01*
X103608096Y-85907619D01*
X103655715Y-86002857D01*
X103655715Y-86050476D01*
X103608096Y-86145714D01*
X103560477Y-86193333D01*
X103465239Y-86240952D01*
X103274762Y-86240952D01*
X103179524Y-86288571D01*
X103131905Y-86336190D01*
X103084286Y-86431429D01*
X103084286Y-86621905D01*
X103131905Y-86717143D01*
X103179524Y-86764762D01*
X103274762Y-86812381D01*
X103465239Y-86812381D01*
X103560477Y-86764762D01*
X103608096Y-86717143D01*
X103655715Y-86621905D01*
X103655715Y-86431429D01*
X103608096Y-86336190D01*
X103560477Y-86288571D01*
X103465239Y-86240952D01*
X104648096Y-79510000D02*
X104552858Y-79462381D01*
X104410001Y-79462381D01*
X104267143Y-79510000D01*
X104171905Y-79605238D01*
X104124286Y-79700476D01*
X104076667Y-79890952D01*
X104076667Y-80033810D01*
X104124286Y-80224286D01*
X104171905Y-80319524D01*
X104267143Y-80414762D01*
X104410001Y-80462381D01*
X104505239Y-80462381D01*
X104648096Y-80414762D01*
X104695715Y-80367143D01*
X104695715Y-80033810D01*
X104505239Y-80033810D01*
X105124286Y-80462381D02*
X105124286Y-79462381D01*
X105695715Y-80462381D01*
X105695715Y-79462381D01*
X106171905Y-80462381D02*
X106171905Y-79462381D01*
X106410000Y-79462381D01*
X106552858Y-79510000D01*
X106648096Y-79605238D01*
X106695715Y-79700476D01*
X106743334Y-79890952D01*
X106743334Y-80033810D01*
X106695715Y-80224286D01*
X106648096Y-80319524D01*
X106552858Y-80414762D01*
X106410000Y-80462381D01*
X106171905Y-80462381D01*
X74168095Y-88482381D02*
X74168095Y-89291905D01*
X74215714Y-89387143D01*
X74263333Y-89434762D01*
X74358571Y-89482381D01*
X74549048Y-89482381D01*
X74644286Y-89434762D01*
X74691905Y-89387143D01*
X74739524Y-89291905D01*
X74739524Y-88482381D01*
X75739524Y-89482381D02*
X75168095Y-89482381D01*
X75453809Y-89482381D02*
X75453809Y-88482381D01*
X75358571Y-88625238D01*
X75263333Y-88720476D01*
X75168095Y-88768095D01*
X98382381Y-93471905D02*
X99191905Y-93471905D01*
X99287143Y-93424286D01*
X99334762Y-93376667D01*
X99382381Y-93281429D01*
X99382381Y-93090952D01*
X99334762Y-92995714D01*
X99287143Y-92948095D01*
X99191905Y-92900476D01*
X98382381Y-92900476D01*
X98477619Y-92471905D02*
X98430000Y-92424286D01*
X98382381Y-92329048D01*
X98382381Y-92090952D01*
X98430000Y-91995714D01*
X98477619Y-91948095D01*
X98572857Y-91900476D01*
X98668095Y-91900476D01*
X98810952Y-91948095D01*
X99382381Y-92519524D01*
X99382381Y-91900476D01*
X70953334Y-122277143D02*
X70905715Y-122324762D01*
X70762858Y-122372381D01*
X70667620Y-122372381D01*
X70524762Y-122324762D01*
X70429524Y-122229524D01*
X70381905Y-122134286D01*
X70334286Y-121943810D01*
X70334286Y-121800952D01*
X70381905Y-121610476D01*
X70429524Y-121515238D01*
X70524762Y-121420000D01*
X70667620Y-121372381D01*
X70762858Y-121372381D01*
X70905715Y-121420000D01*
X70953334Y-121467619D01*
X71810477Y-121705714D02*
X71810477Y-122372381D01*
X71572381Y-121324762D02*
X71334286Y-122039048D01*
X71953334Y-122039048D01*
X74191905Y-129992381D02*
X74191905Y-128992381D01*
X74572858Y-128992381D01*
X74668096Y-129040000D01*
X74715715Y-129087619D01*
X74763334Y-129182857D01*
X74763334Y-129325714D01*
X74715715Y-129420952D01*
X74668096Y-129468571D01*
X74572858Y-129516190D01*
X74191905Y-129516190D01*
X75144286Y-129087619D02*
X75191905Y-129040000D01*
X75287143Y-128992381D01*
X75525239Y-128992381D01*
X75620477Y-129040000D01*
X75668096Y-129087619D01*
X75715715Y-129182857D01*
X75715715Y-129278095D01*
X75668096Y-129420952D01*
X75096667Y-129992381D01*
X75715715Y-129992381D01*
X65301905Y-80462381D02*
X65301905Y-79462381D01*
X65682858Y-79462381D01*
X65778096Y-79510000D01*
X65825715Y-79557619D01*
X65873334Y-79652857D01*
X65873334Y-79795714D01*
X65825715Y-79890952D01*
X65778096Y-79938571D01*
X65682858Y-79986190D01*
X65301905Y-79986190D01*
X66730477Y-79795714D02*
X66730477Y-80462381D01*
X66492381Y-79414762D02*
X66254286Y-80129048D01*
X66873334Y-80129048D01*
X84351905Y-80462381D02*
X84351905Y-79462381D01*
X84732858Y-79462381D01*
X84828096Y-79510000D01*
X84875715Y-79557619D01*
X84923334Y-79652857D01*
X84923334Y-79795714D01*
X84875715Y-79890952D01*
X84828096Y-79938571D01*
X84732858Y-79986190D01*
X84351905Y-79986190D01*
X85780477Y-79462381D02*
X85590000Y-79462381D01*
X85494762Y-79510000D01*
X85447143Y-79557619D01*
X85351905Y-79700476D01*
X85304286Y-79890952D01*
X85304286Y-80271905D01*
X85351905Y-80367143D01*
X85399524Y-80414762D01*
X85494762Y-80462381D01*
X85685239Y-80462381D01*
X85780477Y-80414762D01*
X85828096Y-80367143D01*
X85875715Y-80271905D01*
X85875715Y-80033810D01*
X85828096Y-79938571D01*
X85780477Y-79890952D01*
X85685239Y-79843333D01*
X85494762Y-79843333D01*
X85399524Y-79890952D01*
X85351905Y-79938571D01*
X85304286Y-80033810D01*
M02*
