G04 #@! TF.FileFunction,Legend,Top*
%FSLAX46Y46*%
G04 Gerber Fmt 4.6, Leading zero omitted, Abs format (unit mm)*
G04 Created by KiCad (PCBNEW 4.0.4+e1-6308~48~ubuntu16.04.1-stable) date Fri Nov  4 19:16:35 2016*
%MOMM*%
%LPD*%
G01*
G04 APERTURE LIST*
%ADD10C,0.100000*%
%ADD11C,0.150000*%
G04 APERTURE END LIST*
D10*
D11*
X63790000Y-113530000D02*
X63790000Y-107530000D01*
X68290000Y-107530000D02*
X68290000Y-113530000D01*
X73660000Y-104140000D02*
X73660000Y-109220000D01*
X73660000Y-109220000D02*
X71120000Y-109220000D01*
X71120000Y-109220000D02*
X71120000Y-104140000D01*
X71120000Y-104140000D02*
X73660000Y-104140000D01*
X72390000Y-104140000D02*
X72390000Y-102870000D01*
X72390000Y-109220000D02*
X72390000Y-110490000D01*
X81026000Y-96266000D02*
X80518000Y-96774000D01*
X81026000Y-97282000D02*
X81534000Y-96774000D01*
X81534000Y-96774000D02*
X81026000Y-96266000D01*
X81026000Y-99060000D02*
G75*
G03X81026000Y-99060000I-2286000J0D01*
G01*
X81490000Y-99060000D02*
G75*
G03X81490000Y-99060000I-2750000J0D01*
G01*
X68326000Y-87884000D02*
X68834000Y-88392000D01*
X69342000Y-87884000D02*
X68834000Y-87376000D01*
X68834000Y-87376000D02*
X68326000Y-87884000D01*
X73406000Y-90170000D02*
G75*
G03X73406000Y-90170000I-2286000J0D01*
G01*
X73870000Y-90170000D02*
G75*
G03X73870000Y-90170000I-2750000J0D01*
G01*
X81780000Y-93690000D02*
X75780000Y-93690000D01*
X75780000Y-89190000D02*
X81780000Y-89190000D01*
X80264000Y-83566000D02*
X79756000Y-83058000D01*
X79248000Y-83566000D02*
X79756000Y-84074000D01*
X79756000Y-84074000D02*
X80264000Y-83566000D01*
X79756000Y-81280000D02*
G75*
G03X79756000Y-81280000I-2286000J0D01*
G01*
X80220000Y-81280000D02*
G75*
G03X80220000Y-81280000I-2750000J0D01*
G01*
X67310000Y-88900000D02*
X67310000Y-93980000D01*
X67310000Y-93980000D02*
X64770000Y-93980000D01*
X64770000Y-93980000D02*
X64770000Y-88900000D01*
X64770000Y-88900000D02*
X67310000Y-88900000D01*
X66040000Y-88900000D02*
X66040000Y-87630000D01*
X66040000Y-93980000D02*
X66040000Y-95250000D01*
X75700000Y-71410000D02*
X81700000Y-71410000D01*
X81700000Y-75910000D02*
X75700000Y-75910000D01*
X67310000Y-74930000D02*
X67310000Y-80010000D01*
X67310000Y-80010000D02*
X64770000Y-80010000D01*
X64770000Y-80010000D02*
X64770000Y-74930000D01*
X64770000Y-74930000D02*
X67310000Y-74930000D01*
X66040000Y-74930000D02*
X66040000Y-73660000D01*
X66040000Y-80010000D02*
X66040000Y-81280000D01*
X72390000Y-74930000D02*
X72390000Y-80010000D01*
X72390000Y-80010000D02*
X69850000Y-80010000D01*
X69850000Y-80010000D02*
X69850000Y-74930000D01*
X69850000Y-74930000D02*
X72390000Y-74930000D01*
X71120000Y-74930000D02*
X71120000Y-73660000D01*
X71120000Y-80010000D02*
X71120000Y-81280000D01*
X59690000Y-71120000D02*
X59690000Y-116840000D01*
X59690000Y-116840000D02*
X62230000Y-116840000D01*
X62230000Y-116840000D02*
X62230000Y-71120000D01*
X59410000Y-68300000D02*
X59410000Y-69850000D01*
X59690000Y-71120000D02*
X62230000Y-71120000D01*
X62510000Y-69850000D02*
X62510000Y-68300000D01*
X62510000Y-68300000D02*
X59410000Y-68300000D01*
X65127143Y-110656666D02*
X65174762Y-110704285D01*
X65222381Y-110847142D01*
X65222381Y-110942380D01*
X65174762Y-111085238D01*
X65079524Y-111180476D01*
X64984286Y-111228095D01*
X64793810Y-111275714D01*
X64650952Y-111275714D01*
X64460476Y-111228095D01*
X64365238Y-111180476D01*
X64270000Y-111085238D01*
X64222381Y-110942380D01*
X64222381Y-110847142D01*
X64270000Y-110704285D01*
X64317619Y-110656666D01*
X64222381Y-110323333D02*
X64222381Y-109704285D01*
X64603333Y-110037619D01*
X64603333Y-109894761D01*
X64650952Y-109799523D01*
X64698571Y-109751904D01*
X64793810Y-109704285D01*
X65031905Y-109704285D01*
X65127143Y-109751904D01*
X65174762Y-109799523D01*
X65222381Y-109894761D01*
X65222381Y-110180476D01*
X65174762Y-110275714D01*
X65127143Y-110323333D01*
X72842381Y-106846666D02*
X72366190Y-107180000D01*
X72842381Y-107418095D02*
X71842381Y-107418095D01*
X71842381Y-107037142D01*
X71890000Y-106941904D01*
X71937619Y-106894285D01*
X72032857Y-106846666D01*
X72175714Y-106846666D01*
X72270952Y-106894285D01*
X72318571Y-106941904D01*
X72366190Y-107037142D01*
X72366190Y-107418095D01*
X72175714Y-105989523D02*
X72842381Y-105989523D01*
X71794762Y-106227619D02*
X72509048Y-106465714D01*
X72509048Y-105846666D01*
X80557619Y-99155238D02*
X80510000Y-99250476D01*
X80414762Y-99345714D01*
X80271905Y-99488571D01*
X80224286Y-99583810D01*
X80224286Y-99679048D01*
X80462381Y-99631429D02*
X80414762Y-99726667D01*
X80319524Y-99821905D01*
X80129048Y-99869524D01*
X79795714Y-99869524D01*
X79605238Y-99821905D01*
X79510000Y-99726667D01*
X79462381Y-99631429D01*
X79462381Y-99440952D01*
X79510000Y-99345714D01*
X79605238Y-99250476D01*
X79795714Y-99202857D01*
X80129048Y-99202857D01*
X80319524Y-99250476D01*
X80414762Y-99345714D01*
X80462381Y-99440952D01*
X80462381Y-99631429D01*
X79557619Y-98821905D02*
X79510000Y-98774286D01*
X79462381Y-98679048D01*
X79462381Y-98440952D01*
X79510000Y-98345714D01*
X79557619Y-98298095D01*
X79652857Y-98250476D01*
X79748095Y-98250476D01*
X79890952Y-98298095D01*
X80462381Y-98869524D01*
X80462381Y-98250476D01*
X71024762Y-89447619D02*
X70929524Y-89400000D01*
X70834286Y-89304762D01*
X70691429Y-89161905D01*
X70596190Y-89114286D01*
X70500952Y-89114286D01*
X70548571Y-89352381D02*
X70453333Y-89304762D01*
X70358095Y-89209524D01*
X70310476Y-89019048D01*
X70310476Y-88685714D01*
X70358095Y-88495238D01*
X70453333Y-88400000D01*
X70548571Y-88352381D01*
X70739048Y-88352381D01*
X70834286Y-88400000D01*
X70929524Y-88495238D01*
X70977143Y-88685714D01*
X70977143Y-89019048D01*
X70929524Y-89209524D01*
X70834286Y-89304762D01*
X70739048Y-89352381D01*
X70548571Y-89352381D01*
X71310476Y-88352381D02*
X71929524Y-88352381D01*
X71596190Y-88733333D01*
X71739048Y-88733333D01*
X71834286Y-88780952D01*
X71881905Y-88828571D01*
X71929524Y-88923810D01*
X71929524Y-89161905D01*
X71881905Y-89257143D01*
X71834286Y-89304762D01*
X71739048Y-89352381D01*
X71453333Y-89352381D01*
X71358095Y-89304762D01*
X71310476Y-89257143D01*
X78573334Y-93067143D02*
X78525715Y-93114762D01*
X78382858Y-93162381D01*
X78287620Y-93162381D01*
X78144762Y-93114762D01*
X78049524Y-93019524D01*
X78001905Y-92924286D01*
X77954286Y-92733810D01*
X77954286Y-92590952D01*
X78001905Y-92400476D01*
X78049524Y-92305238D01*
X78144762Y-92210000D01*
X78287620Y-92162381D01*
X78382858Y-92162381D01*
X78525715Y-92210000D01*
X78573334Y-92257619D01*
X78954286Y-92257619D02*
X79001905Y-92210000D01*
X79097143Y-92162381D01*
X79335239Y-92162381D01*
X79430477Y-92210000D01*
X79478096Y-92257619D01*
X79525715Y-92352857D01*
X79525715Y-92448095D01*
X79478096Y-92590952D01*
X78906667Y-93162381D01*
X79525715Y-93162381D01*
X77374762Y-83097619D02*
X77279524Y-83050000D01*
X77184286Y-82954762D01*
X77041429Y-82811905D01*
X76946190Y-82764286D01*
X76850952Y-82764286D01*
X76898571Y-83002381D02*
X76803333Y-82954762D01*
X76708095Y-82859524D01*
X76660476Y-82669048D01*
X76660476Y-82335714D01*
X76708095Y-82145238D01*
X76803333Y-82050000D01*
X76898571Y-82002381D01*
X77089048Y-82002381D01*
X77184286Y-82050000D01*
X77279524Y-82145238D01*
X77327143Y-82335714D01*
X77327143Y-82669048D01*
X77279524Y-82859524D01*
X77184286Y-82954762D01*
X77089048Y-83002381D01*
X76898571Y-83002381D01*
X78279524Y-83002381D02*
X77708095Y-83002381D01*
X77993809Y-83002381D02*
X77993809Y-82002381D01*
X77898571Y-82145238D01*
X77803333Y-82240476D01*
X77708095Y-82288095D01*
X66492381Y-91606666D02*
X66016190Y-91940000D01*
X66492381Y-92178095D02*
X65492381Y-92178095D01*
X65492381Y-91797142D01*
X65540000Y-91701904D01*
X65587619Y-91654285D01*
X65682857Y-91606666D01*
X65825714Y-91606666D01*
X65920952Y-91654285D01*
X65968571Y-91701904D01*
X66016190Y-91797142D01*
X66016190Y-92178095D01*
X65587619Y-91225714D02*
X65540000Y-91178095D01*
X65492381Y-91082857D01*
X65492381Y-90844761D01*
X65540000Y-90749523D01*
X65587619Y-90701904D01*
X65682857Y-90654285D01*
X65778095Y-90654285D01*
X65920952Y-90701904D01*
X66492381Y-91273333D01*
X66492381Y-90654285D01*
X78573334Y-72747143D02*
X78525715Y-72794762D01*
X78382858Y-72842381D01*
X78287620Y-72842381D01*
X78144762Y-72794762D01*
X78049524Y-72699524D01*
X78001905Y-72604286D01*
X77954286Y-72413810D01*
X77954286Y-72270952D01*
X78001905Y-72080476D01*
X78049524Y-71985238D01*
X78144762Y-71890000D01*
X78287620Y-71842381D01*
X78382858Y-71842381D01*
X78525715Y-71890000D01*
X78573334Y-71937619D01*
X79525715Y-72842381D02*
X78954286Y-72842381D01*
X79240000Y-72842381D02*
X79240000Y-71842381D01*
X79144762Y-71985238D01*
X79049524Y-72080476D01*
X78954286Y-72128095D01*
X66492381Y-77636666D02*
X66016190Y-77970000D01*
X66492381Y-78208095D02*
X65492381Y-78208095D01*
X65492381Y-77827142D01*
X65540000Y-77731904D01*
X65587619Y-77684285D01*
X65682857Y-77636666D01*
X65825714Y-77636666D01*
X65920952Y-77684285D01*
X65968571Y-77731904D01*
X66016190Y-77827142D01*
X66016190Y-78208095D01*
X66492381Y-76684285D02*
X66492381Y-77255714D01*
X66492381Y-76970000D02*
X65492381Y-76970000D01*
X65635238Y-77065238D01*
X65730476Y-77160476D01*
X65778095Y-77255714D01*
X71572381Y-77636666D02*
X71096190Y-77970000D01*
X71572381Y-78208095D02*
X70572381Y-78208095D01*
X70572381Y-77827142D01*
X70620000Y-77731904D01*
X70667619Y-77684285D01*
X70762857Y-77636666D01*
X70905714Y-77636666D01*
X71000952Y-77684285D01*
X71048571Y-77731904D01*
X71096190Y-77827142D01*
X71096190Y-78208095D01*
X70572381Y-77303333D02*
X70572381Y-76684285D01*
X70953333Y-77017619D01*
X70953333Y-76874761D01*
X71000952Y-76779523D01*
X71048571Y-76731904D01*
X71143810Y-76684285D01*
X71381905Y-76684285D01*
X71477143Y-76731904D01*
X71524762Y-76779523D01*
X71572381Y-76874761D01*
X71572381Y-77160476D01*
X71524762Y-77255714D01*
X71477143Y-77303333D01*
X62761905Y-69032381D02*
X62761905Y-68032381D01*
X63142858Y-68032381D01*
X63238096Y-68080000D01*
X63285715Y-68127619D01*
X63333334Y-68222857D01*
X63333334Y-68365714D01*
X63285715Y-68460952D01*
X63238096Y-68508571D01*
X63142858Y-68556190D01*
X62761905Y-68556190D01*
X64285715Y-69032381D02*
X63714286Y-69032381D01*
X64000000Y-69032381D02*
X64000000Y-68032381D01*
X63904762Y-68175238D01*
X63809524Y-68270476D01*
X63714286Y-68318095D01*
X60198096Y-66810000D02*
X60102858Y-66762381D01*
X59960001Y-66762381D01*
X59817143Y-66810000D01*
X59721905Y-66905238D01*
X59674286Y-67000476D01*
X59626667Y-67190952D01*
X59626667Y-67333810D01*
X59674286Y-67524286D01*
X59721905Y-67619524D01*
X59817143Y-67714762D01*
X59960001Y-67762381D01*
X60055239Y-67762381D01*
X60198096Y-67714762D01*
X60245715Y-67667143D01*
X60245715Y-67333810D01*
X60055239Y-67333810D01*
X60674286Y-67762381D02*
X60674286Y-66762381D01*
X61245715Y-67762381D01*
X61245715Y-66762381D01*
X61721905Y-67762381D02*
X61721905Y-66762381D01*
X61960000Y-66762381D01*
X62102858Y-66810000D01*
X62198096Y-66905238D01*
X62245715Y-67000476D01*
X62293334Y-67190952D01*
X62293334Y-67333810D01*
X62245715Y-67524286D01*
X62198096Y-67619524D01*
X62102858Y-67714762D01*
X61960000Y-67762381D01*
X61721905Y-67762381D01*
M02*
