G04 #@! TF.FileFunction,Copper,L2,Bot,Signal*
%FSLAX46Y46*%
G04 Gerber Fmt 4.6, Leading zero omitted, Abs format (unit mm)*
G04 Created by KiCad (PCBNEW 4.0.4+e1-6308~48~ubuntu16.04.1-stable) date Mon Oct 24 14:40:12 2016*
%MOMM*%
%LPD*%
G01*
G04 APERTURE LIST*
%ADD10C,0.100000*%
%ADD11R,2.032000X1.727200*%
%ADD12O,2.032000X1.727200*%
%ADD13C,1.998980*%
%ADD14C,1.200000*%
%ADD15R,2.032000X2.032000*%
%ADD16O,2.032000X2.032000*%
%ADD17C,1.699260*%
%ADD18R,1.699260X1.699260*%
%ADD19C,1.300000*%
%ADD20R,1.300000X1.300000*%
%ADD21C,0.250000*%
%ADD22C,0.254000*%
G04 APERTURE END LIST*
D10*
D11*
X31750000Y-76200000D03*
D12*
X31750000Y-78740000D03*
X31750000Y-81280000D03*
X31750000Y-83820000D03*
X31750000Y-86360000D03*
X31750000Y-88900000D03*
X31750000Y-91440000D03*
X31750000Y-93980000D03*
X31750000Y-96520000D03*
X31750000Y-99060000D03*
X31750000Y-101600000D03*
X31750000Y-104140000D03*
X31750000Y-106680000D03*
X31750000Y-109220000D03*
X31750000Y-111760000D03*
X31750000Y-114300000D03*
X31750000Y-116840000D03*
X31750000Y-119380000D03*
X31750000Y-121920000D03*
D13*
X72390000Y-88900000D03*
X72390000Y-78740000D03*
X68580000Y-92710000D03*
X68580000Y-102870000D03*
X64770000Y-121920000D03*
X64770000Y-111760000D03*
X39370000Y-110490000D03*
X39370000Y-100330000D03*
X38100000Y-78740000D03*
X38100000Y-88900000D03*
D14*
X38100000Y-95250000D03*
X39370000Y-93980000D03*
X38100000Y-92710000D03*
D15*
X73660000Y-121920000D03*
D16*
X71120000Y-121920000D03*
D15*
X64770000Y-105410000D03*
D16*
X64770000Y-107950000D03*
D11*
X73660000Y-92710000D03*
D12*
X73660000Y-95250000D03*
X73660000Y-97790000D03*
X73660000Y-100330000D03*
X73660000Y-102870000D03*
D11*
X59690000Y-78740000D03*
D12*
X59690000Y-81280000D03*
X59690000Y-83820000D03*
X59690000Y-86360000D03*
X59690000Y-88900000D03*
X59690000Y-91440000D03*
X59690000Y-93980000D03*
X59690000Y-96520000D03*
X59690000Y-99060000D03*
X59690000Y-101600000D03*
X59690000Y-104140000D03*
X59690000Y-106680000D03*
X59690000Y-109220000D03*
X59690000Y-111760000D03*
X59690000Y-114300000D03*
D11*
X44450000Y-78740000D03*
D12*
X44450000Y-81280000D03*
X44450000Y-83820000D03*
X44450000Y-86360000D03*
X44450000Y-88900000D03*
X44450000Y-91440000D03*
X44450000Y-93980000D03*
X44450000Y-96520000D03*
X44450000Y-99060000D03*
X44450000Y-101600000D03*
X44450000Y-104140000D03*
X44450000Y-106680000D03*
X44450000Y-109220000D03*
X44450000Y-111760000D03*
X44450000Y-114300000D03*
D17*
X68582540Y-88900520D03*
D18*
X68582540Y-78740520D03*
D13*
X74930000Y-106680000D03*
X74930000Y-116840000D03*
X64770000Y-78740000D03*
X64770000Y-88900000D03*
D14*
X69850000Y-110490000D03*
X71120000Y-109220000D03*
X69850000Y-107950000D03*
D19*
X80335000Y-78740000D03*
D20*
X76835000Y-78740000D03*
D21*
X69850000Y-110490000D02*
X67310000Y-107950000D01*
X71755000Y-100330000D02*
X73660000Y-100330000D01*
X70485000Y-101600000D02*
X71755000Y-100330000D01*
X70485000Y-104140000D02*
X70485000Y-101600000D01*
X67310000Y-107315000D02*
X70485000Y-104140000D01*
X67310000Y-107950000D02*
X67310000Y-107315000D01*
X35560000Y-95250000D02*
X38100000Y-92710000D01*
X35560000Y-99060000D02*
X35560000Y-95250000D01*
X33020000Y-101600000D02*
X35560000Y-99060000D01*
X31750000Y-101600000D02*
X33020000Y-101600000D01*
X34925000Y-118745000D02*
X31750000Y-121920000D01*
X34925000Y-109220000D02*
X34925000Y-118745000D01*
X41910000Y-102235000D02*
X34925000Y-109220000D01*
X41910000Y-87630000D02*
X41910000Y-102235000D01*
X38100000Y-83820000D02*
X41910000Y-87630000D01*
X38100000Y-78740000D02*
X38100000Y-83820000D01*
X72390000Y-88900000D02*
X71120000Y-88900000D01*
X71120000Y-88900000D02*
X66040000Y-83820000D01*
X66040000Y-83820000D02*
X63500000Y-83820000D01*
X63500000Y-83820000D02*
X62230000Y-82550000D01*
X62230000Y-82550000D02*
X62230000Y-77470000D01*
X62230000Y-77470000D02*
X60960000Y-76200000D01*
X60960000Y-76200000D02*
X57150000Y-76200000D01*
X57150000Y-76200000D02*
X44450000Y-88900000D01*
X64770000Y-111760000D02*
X64770000Y-115570000D01*
X64770000Y-115570000D02*
X60960000Y-119380000D01*
X60960000Y-119380000D02*
X54610000Y-119380000D01*
X54610000Y-119380000D02*
X48260000Y-113030000D01*
X48260000Y-113030000D02*
X48260000Y-100330000D01*
X48260000Y-100330000D02*
X44450000Y-96520000D01*
D22*
G36*
X83110000Y-123750000D02*
X29920000Y-123750000D01*
X29920000Y-78740000D01*
X30066655Y-78740000D01*
X30180729Y-79313489D01*
X30505585Y-79799670D01*
X30820366Y-80010000D01*
X30505585Y-80220330D01*
X30180729Y-80706511D01*
X30066655Y-81280000D01*
X30180729Y-81853489D01*
X30505585Y-82339670D01*
X30820366Y-82550000D01*
X30505585Y-82760330D01*
X30180729Y-83246511D01*
X30066655Y-83820000D01*
X30180729Y-84393489D01*
X30505585Y-84879670D01*
X30820366Y-85090000D01*
X30505585Y-85300330D01*
X30180729Y-85786511D01*
X30066655Y-86360000D01*
X30180729Y-86933489D01*
X30505585Y-87419670D01*
X30820366Y-87630000D01*
X30505585Y-87840330D01*
X30180729Y-88326511D01*
X30066655Y-88900000D01*
X30180729Y-89473489D01*
X30505585Y-89959670D01*
X30820366Y-90170000D01*
X30505585Y-90380330D01*
X30180729Y-90866511D01*
X30066655Y-91440000D01*
X30180729Y-92013489D01*
X30505585Y-92499670D01*
X30820366Y-92710000D01*
X30505585Y-92920330D01*
X30180729Y-93406511D01*
X30066655Y-93980000D01*
X30180729Y-94553489D01*
X30505585Y-95039670D01*
X30820366Y-95250000D01*
X30505585Y-95460330D01*
X30180729Y-95946511D01*
X30066655Y-96520000D01*
X30180729Y-97093489D01*
X30505585Y-97579670D01*
X30820366Y-97790000D01*
X30505585Y-98000330D01*
X30180729Y-98486511D01*
X30066655Y-99060000D01*
X30180729Y-99633489D01*
X30505585Y-100119670D01*
X30820366Y-100330000D01*
X30505585Y-100540330D01*
X30180729Y-101026511D01*
X30066655Y-101600000D01*
X30180729Y-102173489D01*
X30505585Y-102659670D01*
X30820366Y-102870000D01*
X30505585Y-103080330D01*
X30180729Y-103566511D01*
X30066655Y-104140000D01*
X30180729Y-104713489D01*
X30505585Y-105199670D01*
X30820366Y-105410000D01*
X30505585Y-105620330D01*
X30180729Y-106106511D01*
X30066655Y-106680000D01*
X30180729Y-107253489D01*
X30505585Y-107739670D01*
X30820366Y-107950000D01*
X30505585Y-108160330D01*
X30180729Y-108646511D01*
X30066655Y-109220000D01*
X30180729Y-109793489D01*
X30505585Y-110279670D01*
X30820366Y-110490000D01*
X30505585Y-110700330D01*
X30180729Y-111186511D01*
X30066655Y-111760000D01*
X30180729Y-112333489D01*
X30505585Y-112819670D01*
X30820366Y-113030000D01*
X30505585Y-113240330D01*
X30180729Y-113726511D01*
X30066655Y-114300000D01*
X30180729Y-114873489D01*
X30505585Y-115359670D01*
X30820366Y-115570000D01*
X30505585Y-115780330D01*
X30180729Y-116266511D01*
X30066655Y-116840000D01*
X30180729Y-117413489D01*
X30505585Y-117899670D01*
X30820366Y-118110000D01*
X30505585Y-118320330D01*
X30180729Y-118806511D01*
X30066655Y-119380000D01*
X30180729Y-119953489D01*
X30505585Y-120439670D01*
X30820366Y-120650000D01*
X30505585Y-120860330D01*
X30180729Y-121346511D01*
X30066655Y-121920000D01*
X30180729Y-122493489D01*
X30505585Y-122979670D01*
X30991766Y-123304526D01*
X31565255Y-123418600D01*
X31934745Y-123418600D01*
X32508234Y-123304526D01*
X32994415Y-122979670D01*
X33319271Y-122493489D01*
X33368958Y-122243694D01*
X63135226Y-122243694D01*
X63383538Y-122844655D01*
X63842927Y-123304846D01*
X64443453Y-123554206D01*
X65093694Y-123554774D01*
X65694655Y-123306462D01*
X66154846Y-122847073D01*
X66380787Y-122302944D01*
X69514025Y-122302944D01*
X69713615Y-122784818D01*
X70151621Y-123257188D01*
X70737054Y-123525983D01*
X70993000Y-123407367D01*
X70993000Y-122047000D01*
X69633164Y-122047000D01*
X69514025Y-122302944D01*
X66380787Y-122302944D01*
X66404206Y-122246547D01*
X66404774Y-121596306D01*
X66380293Y-121537056D01*
X69514025Y-121537056D01*
X69633164Y-121793000D01*
X70993000Y-121793000D01*
X70993000Y-120432633D01*
X71247000Y-120432633D01*
X71247000Y-121793000D01*
X71267000Y-121793000D01*
X71267000Y-122047000D01*
X71247000Y-122047000D01*
X71247000Y-123407367D01*
X71502946Y-123525983D01*
X72088379Y-123257188D01*
X72092934Y-123252276D01*
X72179910Y-123387441D01*
X72392110Y-123532431D01*
X72644000Y-123583440D01*
X74676000Y-123583440D01*
X74911317Y-123539162D01*
X75127441Y-123400090D01*
X75272431Y-123187890D01*
X75323440Y-122936000D01*
X75323440Y-120904000D01*
X75279162Y-120668683D01*
X75140090Y-120452559D01*
X74927890Y-120307569D01*
X74676000Y-120256560D01*
X72644000Y-120256560D01*
X72408683Y-120300838D01*
X72192559Y-120439910D01*
X72092144Y-120586872D01*
X72088379Y-120582812D01*
X71502946Y-120314017D01*
X71247000Y-120432633D01*
X70993000Y-120432633D01*
X70737054Y-120314017D01*
X70151621Y-120582812D01*
X69713615Y-121055182D01*
X69514025Y-121537056D01*
X66380293Y-121537056D01*
X66156462Y-120995345D01*
X65697073Y-120535154D01*
X65096547Y-120285794D01*
X64446306Y-120285226D01*
X63845345Y-120533538D01*
X63385154Y-120992927D01*
X63135794Y-121593453D01*
X63135226Y-122243694D01*
X33368958Y-122243694D01*
X33433345Y-121920000D01*
X33332381Y-121412421D01*
X35462401Y-119282401D01*
X35627148Y-119035839D01*
X35685000Y-118745000D01*
X35685000Y-110813694D01*
X37735226Y-110813694D01*
X37983538Y-111414655D01*
X38442927Y-111874846D01*
X39043453Y-112124206D01*
X39693694Y-112124774D01*
X40294655Y-111876462D01*
X40754846Y-111417073D01*
X41004206Y-110816547D01*
X41004774Y-110166306D01*
X40756462Y-109565345D01*
X40297073Y-109105154D01*
X39696547Y-108855794D01*
X39046306Y-108855226D01*
X38445345Y-109103538D01*
X37985154Y-109562927D01*
X37735794Y-110163453D01*
X37735226Y-110813694D01*
X35685000Y-110813694D01*
X35685000Y-109534802D01*
X42447401Y-102772401D01*
X42612148Y-102525839D01*
X42670000Y-102235000D01*
X42670000Y-87630000D01*
X42612148Y-87339161D01*
X42447401Y-87092599D01*
X38860000Y-83505198D01*
X38860000Y-81280000D01*
X42766655Y-81280000D01*
X42880729Y-81853489D01*
X43205585Y-82339670D01*
X43520366Y-82550000D01*
X43205585Y-82760330D01*
X42880729Y-83246511D01*
X42766655Y-83820000D01*
X42880729Y-84393489D01*
X43205585Y-84879670D01*
X43520366Y-85090000D01*
X43205585Y-85300330D01*
X42880729Y-85786511D01*
X42766655Y-86360000D01*
X42880729Y-86933489D01*
X43205585Y-87419670D01*
X43520366Y-87630000D01*
X43205585Y-87840330D01*
X42880729Y-88326511D01*
X42766655Y-88900000D01*
X42880729Y-89473489D01*
X43205585Y-89959670D01*
X43520366Y-90170000D01*
X43205585Y-90380330D01*
X42880729Y-90866511D01*
X42766655Y-91440000D01*
X42880729Y-92013489D01*
X43205585Y-92499670D01*
X43520366Y-92710000D01*
X43205585Y-92920330D01*
X42880729Y-93406511D01*
X42766655Y-93980000D01*
X42880729Y-94553489D01*
X43205585Y-95039670D01*
X43520366Y-95250000D01*
X43205585Y-95460330D01*
X42880729Y-95946511D01*
X42766655Y-96520000D01*
X42880729Y-97093489D01*
X43205585Y-97579670D01*
X43520366Y-97790000D01*
X43205585Y-98000330D01*
X42880729Y-98486511D01*
X42766655Y-99060000D01*
X42880729Y-99633489D01*
X43205585Y-100119670D01*
X43520366Y-100330000D01*
X43205585Y-100540330D01*
X42880729Y-101026511D01*
X42766655Y-101600000D01*
X42880729Y-102173489D01*
X43205585Y-102659670D01*
X43520366Y-102870000D01*
X43205585Y-103080330D01*
X42880729Y-103566511D01*
X42766655Y-104140000D01*
X42880729Y-104713489D01*
X43205585Y-105199670D01*
X43520366Y-105410000D01*
X43205585Y-105620330D01*
X42880729Y-106106511D01*
X42766655Y-106680000D01*
X42880729Y-107253489D01*
X43205585Y-107739670D01*
X43520366Y-107950000D01*
X43205585Y-108160330D01*
X42880729Y-108646511D01*
X42766655Y-109220000D01*
X42880729Y-109793489D01*
X43205585Y-110279670D01*
X43520366Y-110490000D01*
X43205585Y-110700330D01*
X42880729Y-111186511D01*
X42766655Y-111760000D01*
X42880729Y-112333489D01*
X43205585Y-112819670D01*
X43520366Y-113030000D01*
X43205585Y-113240330D01*
X42880729Y-113726511D01*
X42766655Y-114300000D01*
X42880729Y-114873489D01*
X43205585Y-115359670D01*
X43691766Y-115684526D01*
X44265255Y-115798600D01*
X44634745Y-115798600D01*
X45208234Y-115684526D01*
X45694415Y-115359670D01*
X46019271Y-114873489D01*
X46133345Y-114300000D01*
X46019271Y-113726511D01*
X45694415Y-113240330D01*
X45379634Y-113030000D01*
X45694415Y-112819670D01*
X46019271Y-112333489D01*
X46133345Y-111760000D01*
X46019271Y-111186511D01*
X45694415Y-110700330D01*
X45379634Y-110490000D01*
X45694415Y-110279670D01*
X46019271Y-109793489D01*
X46133345Y-109220000D01*
X46019271Y-108646511D01*
X45694415Y-108160330D01*
X45379634Y-107950000D01*
X45694415Y-107739670D01*
X46019271Y-107253489D01*
X46133345Y-106680000D01*
X46019271Y-106106511D01*
X45694415Y-105620330D01*
X45379634Y-105410000D01*
X45694415Y-105199670D01*
X46019271Y-104713489D01*
X46133345Y-104140000D01*
X46019271Y-103566511D01*
X45694415Y-103080330D01*
X45379634Y-102870000D01*
X45694415Y-102659670D01*
X46019271Y-102173489D01*
X46133345Y-101600000D01*
X46019271Y-101026511D01*
X45694415Y-100540330D01*
X45379634Y-100330000D01*
X45694415Y-100119670D01*
X46019271Y-99633489D01*
X46097152Y-99241954D01*
X47500000Y-100644802D01*
X47500000Y-113030000D01*
X47557852Y-113320839D01*
X47722599Y-113567401D01*
X54072599Y-119917401D01*
X54319161Y-120082148D01*
X54610000Y-120140000D01*
X60960000Y-120140000D01*
X61250839Y-120082148D01*
X61497401Y-119917401D01*
X64251108Y-117163694D01*
X73295226Y-117163694D01*
X73543538Y-117764655D01*
X74002927Y-118224846D01*
X74603453Y-118474206D01*
X75253694Y-118474774D01*
X75854655Y-118226462D01*
X76314846Y-117767073D01*
X76564206Y-117166547D01*
X76564774Y-116516306D01*
X76316462Y-115915345D01*
X75857073Y-115455154D01*
X75256547Y-115205794D01*
X74606306Y-115205226D01*
X74005345Y-115453538D01*
X73545154Y-115912927D01*
X73295794Y-116513453D01*
X73295226Y-117163694D01*
X64251108Y-117163694D01*
X65307401Y-116107401D01*
X65472148Y-115860839D01*
X65530000Y-115570000D01*
X65530000Y-113214496D01*
X65694655Y-113146462D01*
X66154846Y-112687073D01*
X66404206Y-112086547D01*
X66404774Y-111436306D01*
X66370244Y-111352735D01*
X69166870Y-111352735D01*
X69216383Y-111578164D01*
X69681036Y-111737807D01*
X70171413Y-111707482D01*
X70483617Y-111578164D01*
X70533130Y-111352735D01*
X69850000Y-110669605D01*
X69166870Y-111352735D01*
X66370244Y-111352735D01*
X66156462Y-110835345D01*
X65697073Y-110375154D01*
X65566743Y-110321036D01*
X68602193Y-110321036D01*
X68632518Y-110811413D01*
X68761836Y-111123617D01*
X68987265Y-111173130D01*
X69670395Y-110490000D01*
X68987265Y-109806870D01*
X68761836Y-109856383D01*
X68602193Y-110321036D01*
X65566743Y-110321036D01*
X65096547Y-110125794D01*
X64446306Y-110125226D01*
X63845345Y-110373538D01*
X63385154Y-110832927D01*
X63135794Y-111433453D01*
X63135226Y-112083694D01*
X63383538Y-112684655D01*
X63842927Y-113144846D01*
X64010000Y-113214221D01*
X64010000Y-115255198D01*
X60645198Y-118620000D01*
X54924802Y-118620000D01*
X49020000Y-112715198D01*
X49020000Y-100330000D01*
X48962148Y-100039161D01*
X48797401Y-99792599D01*
X46032381Y-97027579D01*
X46133345Y-96520000D01*
X46019271Y-95946511D01*
X45694415Y-95460330D01*
X45379634Y-95250000D01*
X45694415Y-95039670D01*
X46019271Y-94553489D01*
X46133345Y-93980000D01*
X46019271Y-93406511D01*
X45694415Y-92920330D01*
X45379634Y-92710000D01*
X45694415Y-92499670D01*
X46019271Y-92013489D01*
X46133345Y-91440000D01*
X46019271Y-90866511D01*
X45694415Y-90380330D01*
X45379634Y-90170000D01*
X45694415Y-89959670D01*
X46019271Y-89473489D01*
X46133345Y-88900000D01*
X46032381Y-88392421D01*
X50604802Y-83820000D01*
X58006655Y-83820000D01*
X58120729Y-84393489D01*
X58445585Y-84879670D01*
X58760366Y-85090000D01*
X58445585Y-85300330D01*
X58120729Y-85786511D01*
X58006655Y-86360000D01*
X58120729Y-86933489D01*
X58445585Y-87419670D01*
X58760366Y-87630000D01*
X58445585Y-87840330D01*
X58120729Y-88326511D01*
X58006655Y-88900000D01*
X58120729Y-89473489D01*
X58445585Y-89959670D01*
X58760366Y-90170000D01*
X58445585Y-90380330D01*
X58120729Y-90866511D01*
X58006655Y-91440000D01*
X58120729Y-92013489D01*
X58445585Y-92499670D01*
X58760366Y-92710000D01*
X58445585Y-92920330D01*
X58120729Y-93406511D01*
X58006655Y-93980000D01*
X58120729Y-94553489D01*
X58445585Y-95039670D01*
X58760366Y-95250000D01*
X58445585Y-95460330D01*
X58120729Y-95946511D01*
X58006655Y-96520000D01*
X58120729Y-97093489D01*
X58445585Y-97579670D01*
X58760366Y-97790000D01*
X58445585Y-98000330D01*
X58120729Y-98486511D01*
X58006655Y-99060000D01*
X58120729Y-99633489D01*
X58445585Y-100119670D01*
X58760366Y-100330000D01*
X58445585Y-100540330D01*
X58120729Y-101026511D01*
X58006655Y-101600000D01*
X58120729Y-102173489D01*
X58445585Y-102659670D01*
X58760366Y-102870000D01*
X58445585Y-103080330D01*
X58120729Y-103566511D01*
X58006655Y-104140000D01*
X58120729Y-104713489D01*
X58445585Y-105199670D01*
X58760366Y-105410000D01*
X58445585Y-105620330D01*
X58120729Y-106106511D01*
X58006655Y-106680000D01*
X58120729Y-107253489D01*
X58445585Y-107739670D01*
X58760366Y-107950000D01*
X58445585Y-108160330D01*
X58120729Y-108646511D01*
X58006655Y-109220000D01*
X58120729Y-109793489D01*
X58445585Y-110279670D01*
X58760366Y-110490000D01*
X58445585Y-110700330D01*
X58120729Y-111186511D01*
X58006655Y-111760000D01*
X58120729Y-112333489D01*
X58445585Y-112819670D01*
X58760366Y-113030000D01*
X58445585Y-113240330D01*
X58120729Y-113726511D01*
X58006655Y-114300000D01*
X58120729Y-114873489D01*
X58445585Y-115359670D01*
X58931766Y-115684526D01*
X59505255Y-115798600D01*
X59874745Y-115798600D01*
X60448234Y-115684526D01*
X60934415Y-115359670D01*
X61259271Y-114873489D01*
X61373345Y-114300000D01*
X61259271Y-113726511D01*
X60934415Y-113240330D01*
X60619634Y-113030000D01*
X60934415Y-112819670D01*
X61259271Y-112333489D01*
X61373345Y-111760000D01*
X61259271Y-111186511D01*
X60934415Y-110700330D01*
X60619634Y-110490000D01*
X60934415Y-110279670D01*
X61259271Y-109793489D01*
X61373345Y-109220000D01*
X61259271Y-108646511D01*
X61049754Y-108332946D01*
X63164017Y-108332946D01*
X63432812Y-108918379D01*
X63905182Y-109356385D01*
X64387056Y-109555975D01*
X64643000Y-109436836D01*
X64643000Y-108077000D01*
X64897000Y-108077000D01*
X64897000Y-109436836D01*
X65152944Y-109555975D01*
X65634818Y-109356385D01*
X66107188Y-108918379D01*
X66375983Y-108332946D01*
X66311858Y-108194579D01*
X68614786Y-108194579D01*
X68802408Y-108648657D01*
X69149515Y-108996371D01*
X69603266Y-109184785D01*
X69885030Y-109185031D01*
X69884973Y-109250479D01*
X69528587Y-109272518D01*
X69216383Y-109401836D01*
X69166870Y-109627265D01*
X69850000Y-110310395D01*
X69864143Y-110296253D01*
X70043748Y-110475858D01*
X70029605Y-110490000D01*
X70712735Y-111173130D01*
X70938164Y-111123617D01*
X71097807Y-110658964D01*
X71085192Y-110454970D01*
X71364579Y-110455214D01*
X71818657Y-110267592D01*
X72166371Y-109920485D01*
X72354785Y-109466734D01*
X72355214Y-108975421D01*
X72167592Y-108521343D01*
X71820485Y-108173629D01*
X71366734Y-107985215D01*
X71084970Y-107984969D01*
X71085214Y-107705421D01*
X70897592Y-107251343D01*
X70650376Y-107003694D01*
X73295226Y-107003694D01*
X73543538Y-107604655D01*
X74002927Y-108064846D01*
X74603453Y-108314206D01*
X75253694Y-108314774D01*
X75854655Y-108066462D01*
X76314846Y-107607073D01*
X76564206Y-107006547D01*
X76564774Y-106356306D01*
X76316462Y-105755345D01*
X75857073Y-105295154D01*
X75256547Y-105045794D01*
X74606306Y-105045226D01*
X74005345Y-105293538D01*
X73545154Y-105752927D01*
X73295794Y-106353453D01*
X73295226Y-107003694D01*
X70650376Y-107003694D01*
X70550485Y-106903629D01*
X70096734Y-106715215D01*
X69605421Y-106714786D01*
X69151343Y-106902408D01*
X68803629Y-107249515D01*
X68615215Y-107703266D01*
X68614786Y-108194579D01*
X66311858Y-108194579D01*
X66257367Y-108077000D01*
X64897000Y-108077000D01*
X64643000Y-108077000D01*
X63282633Y-108077000D01*
X63164017Y-108332946D01*
X61049754Y-108332946D01*
X60934415Y-108160330D01*
X60619634Y-107950000D01*
X60934415Y-107739670D01*
X61259271Y-107253489D01*
X61373345Y-106680000D01*
X61259271Y-106106511D01*
X60934415Y-105620330D01*
X60619634Y-105410000D01*
X60934415Y-105199670D01*
X61259271Y-104713489D01*
X61322821Y-104394000D01*
X63106560Y-104394000D01*
X63106560Y-106426000D01*
X63150838Y-106661317D01*
X63289910Y-106877441D01*
X63436872Y-106977856D01*
X63432812Y-106981621D01*
X63164017Y-107567054D01*
X63282633Y-107823000D01*
X64643000Y-107823000D01*
X64643000Y-107803000D01*
X64897000Y-107803000D01*
X64897000Y-107823000D01*
X66257367Y-107823000D01*
X66375983Y-107567054D01*
X66107188Y-106981621D01*
X66102276Y-106977066D01*
X66237441Y-106890090D01*
X66382431Y-106677890D01*
X66433440Y-106426000D01*
X66433440Y-104394000D01*
X66389162Y-104158683D01*
X66250090Y-103942559D01*
X66037890Y-103797569D01*
X65786000Y-103746560D01*
X63754000Y-103746560D01*
X63518683Y-103790838D01*
X63302559Y-103929910D01*
X63157569Y-104142110D01*
X63106560Y-104394000D01*
X61322821Y-104394000D01*
X61373345Y-104140000D01*
X61259271Y-103566511D01*
X61010163Y-103193694D01*
X66945226Y-103193694D01*
X67193538Y-103794655D01*
X67652927Y-104254846D01*
X68253453Y-104504206D01*
X68903694Y-104504774D01*
X69504655Y-104256462D01*
X69964846Y-103797073D01*
X70214206Y-103196547D01*
X70214491Y-102870000D01*
X71976655Y-102870000D01*
X72090729Y-103443489D01*
X72415585Y-103929670D01*
X72901766Y-104254526D01*
X73475255Y-104368600D01*
X73844745Y-104368600D01*
X74418234Y-104254526D01*
X74904415Y-103929670D01*
X75229271Y-103443489D01*
X75343345Y-102870000D01*
X75229271Y-102296511D01*
X74904415Y-101810330D01*
X74594931Y-101603539D01*
X75010732Y-101232036D01*
X75264709Y-100704791D01*
X75267358Y-100689026D01*
X75146217Y-100457000D01*
X73787000Y-100457000D01*
X73787000Y-100477000D01*
X73533000Y-100477000D01*
X73533000Y-100457000D01*
X72173783Y-100457000D01*
X72052642Y-100689026D01*
X72055291Y-100704791D01*
X72309268Y-101232036D01*
X72725069Y-101603539D01*
X72415585Y-101810330D01*
X72090729Y-102296511D01*
X71976655Y-102870000D01*
X70214491Y-102870000D01*
X70214774Y-102546306D01*
X69966462Y-101945345D01*
X69507073Y-101485154D01*
X68906547Y-101235794D01*
X68256306Y-101235226D01*
X67655345Y-101483538D01*
X67195154Y-101942927D01*
X66945794Y-102543453D01*
X66945226Y-103193694D01*
X61010163Y-103193694D01*
X60934415Y-103080330D01*
X60619634Y-102870000D01*
X60934415Y-102659670D01*
X61259271Y-102173489D01*
X61373345Y-101600000D01*
X61259271Y-101026511D01*
X60934415Y-100540330D01*
X60619634Y-100330000D01*
X60934415Y-100119670D01*
X61259271Y-99633489D01*
X61373345Y-99060000D01*
X61259271Y-98486511D01*
X60934415Y-98000330D01*
X60619634Y-97790000D01*
X60934415Y-97579670D01*
X61259271Y-97093489D01*
X61373345Y-96520000D01*
X61259271Y-95946511D01*
X60934415Y-95460330D01*
X60619634Y-95250000D01*
X71976655Y-95250000D01*
X72090729Y-95823489D01*
X72415585Y-96309670D01*
X72730366Y-96520000D01*
X72415585Y-96730330D01*
X72090729Y-97216511D01*
X71976655Y-97790000D01*
X72090729Y-98363489D01*
X72415585Y-98849670D01*
X72725069Y-99056461D01*
X72309268Y-99427964D01*
X72055291Y-99955209D01*
X72052642Y-99970974D01*
X72173783Y-100203000D01*
X73533000Y-100203000D01*
X73533000Y-100183000D01*
X73787000Y-100183000D01*
X73787000Y-100203000D01*
X75146217Y-100203000D01*
X75267358Y-99970974D01*
X75264709Y-99955209D01*
X75010732Y-99427964D01*
X74594931Y-99056461D01*
X74904415Y-98849670D01*
X75229271Y-98363489D01*
X75343345Y-97790000D01*
X75229271Y-97216511D01*
X74904415Y-96730330D01*
X74589634Y-96520000D01*
X74904415Y-96309670D01*
X75229271Y-95823489D01*
X75343345Y-95250000D01*
X75229271Y-94676511D01*
X74904415Y-94190330D01*
X74890087Y-94180757D01*
X74911317Y-94176762D01*
X75127441Y-94037690D01*
X75272431Y-93825490D01*
X75323440Y-93573600D01*
X75323440Y-91846400D01*
X75279162Y-91611083D01*
X75140090Y-91394959D01*
X74927890Y-91249969D01*
X74676000Y-91198960D01*
X72644000Y-91198960D01*
X72408683Y-91243238D01*
X72192559Y-91382310D01*
X72047569Y-91594510D01*
X71996560Y-91846400D01*
X71996560Y-93573600D01*
X72040838Y-93808917D01*
X72179910Y-94025041D01*
X72392110Y-94170031D01*
X72433439Y-94178400D01*
X72415585Y-94190330D01*
X72090729Y-94676511D01*
X71976655Y-95250000D01*
X60619634Y-95250000D01*
X60934415Y-95039670D01*
X61259271Y-94553489D01*
X61373345Y-93980000D01*
X61259271Y-93406511D01*
X61010163Y-93033694D01*
X66945226Y-93033694D01*
X67193538Y-93634655D01*
X67652927Y-94094846D01*
X68253453Y-94344206D01*
X68903694Y-94344774D01*
X69504655Y-94096462D01*
X69964846Y-93637073D01*
X70214206Y-93036547D01*
X70214774Y-92386306D01*
X69966462Y-91785345D01*
X69507073Y-91325154D01*
X68906547Y-91075794D01*
X68256306Y-91075226D01*
X67655345Y-91323538D01*
X67195154Y-91782927D01*
X66945794Y-92383453D01*
X66945226Y-93033694D01*
X61010163Y-93033694D01*
X60934415Y-92920330D01*
X60619634Y-92710000D01*
X60934415Y-92499670D01*
X61259271Y-92013489D01*
X61373345Y-91440000D01*
X61259271Y-90866511D01*
X60934415Y-90380330D01*
X60619634Y-90170000D01*
X60934415Y-89959670D01*
X61259271Y-89473489D01*
X61308958Y-89223694D01*
X63135226Y-89223694D01*
X63383538Y-89824655D01*
X63842927Y-90284846D01*
X64443453Y-90534206D01*
X65093694Y-90534774D01*
X65694655Y-90286462D01*
X66154846Y-89827073D01*
X66404206Y-89226547D01*
X66404774Y-88576306D01*
X66156462Y-87975345D01*
X65697073Y-87515154D01*
X65096547Y-87265794D01*
X64446306Y-87265226D01*
X63845345Y-87513538D01*
X63385154Y-87972927D01*
X63135794Y-88573453D01*
X63135226Y-89223694D01*
X61308958Y-89223694D01*
X61373345Y-88900000D01*
X61259271Y-88326511D01*
X60934415Y-87840330D01*
X60619634Y-87630000D01*
X60934415Y-87419670D01*
X61259271Y-86933489D01*
X61373345Y-86360000D01*
X61259271Y-85786511D01*
X60934415Y-85300330D01*
X60619634Y-85090000D01*
X60934415Y-84879670D01*
X61259271Y-84393489D01*
X61373345Y-83820000D01*
X61259271Y-83246511D01*
X60934415Y-82760330D01*
X60624931Y-82553539D01*
X61040732Y-82182036D01*
X61294709Y-81654791D01*
X61297358Y-81639026D01*
X61176217Y-81407000D01*
X59817000Y-81407000D01*
X59817000Y-81427000D01*
X59563000Y-81427000D01*
X59563000Y-81407000D01*
X58203783Y-81407000D01*
X58082642Y-81639026D01*
X58085291Y-81654791D01*
X58339268Y-82182036D01*
X58755069Y-82553539D01*
X58445585Y-82760330D01*
X58120729Y-83246511D01*
X58006655Y-83820000D01*
X50604802Y-83820000D01*
X57464802Y-76960000D01*
X60645198Y-76960000D01*
X60980865Y-77295667D01*
X60957890Y-77279969D01*
X60706000Y-77228960D01*
X58674000Y-77228960D01*
X58438683Y-77273238D01*
X58222559Y-77412310D01*
X58077569Y-77624510D01*
X58026560Y-77876400D01*
X58026560Y-79603600D01*
X58070838Y-79838917D01*
X58209910Y-80055041D01*
X58422110Y-80200031D01*
X58516927Y-80219232D01*
X58339268Y-80377964D01*
X58085291Y-80905209D01*
X58082642Y-80920974D01*
X58203783Y-81153000D01*
X59563000Y-81153000D01*
X59563000Y-81133000D01*
X59817000Y-81133000D01*
X59817000Y-81153000D01*
X61176217Y-81153000D01*
X61297358Y-80920974D01*
X61294709Y-80905209D01*
X61040732Y-80377964D01*
X60865155Y-80221093D01*
X60941317Y-80206762D01*
X61157441Y-80067690D01*
X61302431Y-79855490D01*
X61353440Y-79603600D01*
X61353440Y-77876400D01*
X61309162Y-77641083D01*
X61278264Y-77593066D01*
X61470000Y-77784802D01*
X61470000Y-82550000D01*
X61527852Y-82840839D01*
X61692599Y-83087401D01*
X62962599Y-84357401D01*
X63209160Y-84522148D01*
X63500000Y-84580000D01*
X65725198Y-84580000D01*
X68561068Y-87415870D01*
X68288524Y-87415632D01*
X67742663Y-87641178D01*
X67324666Y-88058446D01*
X67098168Y-88603913D01*
X67097652Y-89194536D01*
X67323198Y-89740397D01*
X67740466Y-90158394D01*
X68285933Y-90384892D01*
X68876556Y-90385408D01*
X69422417Y-90159862D01*
X69840414Y-89742594D01*
X70066912Y-89197127D01*
X70067152Y-88921954D01*
X70582599Y-89437401D01*
X70829161Y-89602148D01*
X70918982Y-89620015D01*
X71003538Y-89824655D01*
X71462927Y-90284846D01*
X72063453Y-90534206D01*
X72713694Y-90534774D01*
X73314655Y-90286462D01*
X73774846Y-89827073D01*
X74024206Y-89226547D01*
X74024774Y-88576306D01*
X73776462Y-87975345D01*
X73317073Y-87515154D01*
X72716547Y-87265794D01*
X72066306Y-87265226D01*
X71465345Y-87513538D01*
X71136556Y-87841754D01*
X66577401Y-83282599D01*
X66330839Y-83117852D01*
X66040000Y-83060000D01*
X63814802Y-83060000D01*
X62990000Y-82235198D01*
X62990000Y-79063694D01*
X63135226Y-79063694D01*
X63383538Y-79664655D01*
X63842927Y-80124846D01*
X64443453Y-80374206D01*
X65093694Y-80374774D01*
X65694655Y-80126462D01*
X66154846Y-79667073D01*
X66404206Y-79066547D01*
X66404774Y-78416306D01*
X66187677Y-77890890D01*
X67085470Y-77890890D01*
X67085470Y-79590150D01*
X67129748Y-79825467D01*
X67268820Y-80041591D01*
X67481020Y-80186581D01*
X67732910Y-80237590D01*
X69432170Y-80237590D01*
X69667487Y-80193312D01*
X69883611Y-80054240D01*
X70028601Y-79842040D01*
X70079610Y-79590150D01*
X70079610Y-79063694D01*
X70755226Y-79063694D01*
X71003538Y-79664655D01*
X71462927Y-80124846D01*
X72063453Y-80374206D01*
X72713694Y-80374774D01*
X73314655Y-80126462D01*
X73774846Y-79667073D01*
X74024206Y-79066547D01*
X74024774Y-78416306D01*
X73889948Y-78090000D01*
X75537560Y-78090000D01*
X75537560Y-79390000D01*
X75581838Y-79625317D01*
X75720910Y-79841441D01*
X75933110Y-79986431D01*
X76185000Y-80037440D01*
X77485000Y-80037440D01*
X77720317Y-79993162D01*
X77936441Y-79854090D01*
X78081431Y-79641890D01*
X78082012Y-79639016D01*
X79615590Y-79639016D01*
X79671271Y-79869611D01*
X80154078Y-80037622D01*
X80664428Y-80008083D01*
X80998729Y-79869611D01*
X81054410Y-79639016D01*
X80335000Y-78919605D01*
X79615590Y-79639016D01*
X78082012Y-79639016D01*
X78132440Y-79390000D01*
X78132440Y-78559078D01*
X79037378Y-78559078D01*
X79066917Y-79069428D01*
X79205389Y-79403729D01*
X79435984Y-79459410D01*
X80155395Y-78740000D01*
X80514605Y-78740000D01*
X81234016Y-79459410D01*
X81464611Y-79403729D01*
X81632622Y-78920922D01*
X81603083Y-78410572D01*
X81464611Y-78076271D01*
X81234016Y-78020590D01*
X80514605Y-78740000D01*
X80155395Y-78740000D01*
X79435984Y-78020590D01*
X79205389Y-78076271D01*
X79037378Y-78559078D01*
X78132440Y-78559078D01*
X78132440Y-78090000D01*
X78088162Y-77854683D01*
X78079347Y-77840984D01*
X79615590Y-77840984D01*
X80335000Y-78560395D01*
X81054410Y-77840984D01*
X80998729Y-77610389D01*
X80515922Y-77442378D01*
X80005572Y-77471917D01*
X79671271Y-77610389D01*
X79615590Y-77840984D01*
X78079347Y-77840984D01*
X77949090Y-77638559D01*
X77736890Y-77493569D01*
X77485000Y-77442560D01*
X76185000Y-77442560D01*
X75949683Y-77486838D01*
X75733559Y-77625910D01*
X75588569Y-77838110D01*
X75537560Y-78090000D01*
X73889948Y-78090000D01*
X73776462Y-77815345D01*
X73317073Y-77355154D01*
X72716547Y-77105794D01*
X72066306Y-77105226D01*
X71465345Y-77353538D01*
X71005154Y-77812927D01*
X70755794Y-78413453D01*
X70755226Y-79063694D01*
X70079610Y-79063694D01*
X70079610Y-77890890D01*
X70035332Y-77655573D01*
X69896260Y-77439449D01*
X69684060Y-77294459D01*
X69432170Y-77243450D01*
X67732910Y-77243450D01*
X67497593Y-77287728D01*
X67281469Y-77426800D01*
X67136479Y-77639000D01*
X67085470Y-77890890D01*
X66187677Y-77890890D01*
X66156462Y-77815345D01*
X65697073Y-77355154D01*
X65096547Y-77105794D01*
X64446306Y-77105226D01*
X63845345Y-77353538D01*
X63385154Y-77812927D01*
X63135794Y-78413453D01*
X63135226Y-79063694D01*
X62990000Y-79063694D01*
X62990000Y-77470000D01*
X62966834Y-77353538D01*
X62932148Y-77179160D01*
X62767401Y-76932599D01*
X61497401Y-75662599D01*
X61250839Y-75497852D01*
X60960000Y-75440000D01*
X57150000Y-75440000D01*
X56859160Y-75497852D01*
X56612599Y-75662599D01*
X46097152Y-86178046D01*
X46019271Y-85786511D01*
X45694415Y-85300330D01*
X45379634Y-85090000D01*
X45694415Y-84879670D01*
X46019271Y-84393489D01*
X46133345Y-83820000D01*
X46019271Y-83246511D01*
X45694415Y-82760330D01*
X45379634Y-82550000D01*
X45694415Y-82339670D01*
X46019271Y-81853489D01*
X46133345Y-81280000D01*
X46019271Y-80706511D01*
X45694415Y-80220330D01*
X45680087Y-80210757D01*
X45701317Y-80206762D01*
X45917441Y-80067690D01*
X46062431Y-79855490D01*
X46113440Y-79603600D01*
X46113440Y-77876400D01*
X46069162Y-77641083D01*
X45930090Y-77424959D01*
X45717890Y-77279969D01*
X45466000Y-77228960D01*
X43434000Y-77228960D01*
X43198683Y-77273238D01*
X42982559Y-77412310D01*
X42837569Y-77624510D01*
X42786560Y-77876400D01*
X42786560Y-79603600D01*
X42830838Y-79838917D01*
X42969910Y-80055041D01*
X43182110Y-80200031D01*
X43223439Y-80208400D01*
X43205585Y-80220330D01*
X42880729Y-80706511D01*
X42766655Y-81280000D01*
X38860000Y-81280000D01*
X38860000Y-80194496D01*
X39024655Y-80126462D01*
X39484846Y-79667073D01*
X39734206Y-79066547D01*
X39734774Y-78416306D01*
X39486462Y-77815345D01*
X39027073Y-77355154D01*
X38426547Y-77105794D01*
X37776306Y-77105226D01*
X37175345Y-77353538D01*
X36715154Y-77812927D01*
X36465794Y-78413453D01*
X36465226Y-79063694D01*
X36713538Y-79664655D01*
X37172927Y-80124846D01*
X37340000Y-80194221D01*
X37340000Y-83820000D01*
X37397852Y-84110839D01*
X37562599Y-84357401D01*
X41150000Y-87944802D01*
X41150000Y-101920198D01*
X34387599Y-108682599D01*
X34222852Y-108929161D01*
X34165000Y-109220000D01*
X34165000Y-118430198D01*
X33397152Y-119198046D01*
X33319271Y-118806511D01*
X32994415Y-118320330D01*
X32679634Y-118110000D01*
X32994415Y-117899670D01*
X33319271Y-117413489D01*
X33433345Y-116840000D01*
X33319271Y-116266511D01*
X32994415Y-115780330D01*
X32679634Y-115570000D01*
X32994415Y-115359670D01*
X33319271Y-114873489D01*
X33433345Y-114300000D01*
X33319271Y-113726511D01*
X32994415Y-113240330D01*
X32679634Y-113030000D01*
X32994415Y-112819670D01*
X33319271Y-112333489D01*
X33433345Y-111760000D01*
X33319271Y-111186511D01*
X32994415Y-110700330D01*
X32679634Y-110490000D01*
X32994415Y-110279670D01*
X33319271Y-109793489D01*
X33433345Y-109220000D01*
X33319271Y-108646511D01*
X32994415Y-108160330D01*
X32679634Y-107950000D01*
X32994415Y-107739670D01*
X33319271Y-107253489D01*
X33433345Y-106680000D01*
X33319271Y-106106511D01*
X32994415Y-105620330D01*
X32679634Y-105410000D01*
X32994415Y-105199670D01*
X33319271Y-104713489D01*
X33433345Y-104140000D01*
X33319271Y-103566511D01*
X32994415Y-103080330D01*
X32679634Y-102870000D01*
X32994415Y-102659670D01*
X33221419Y-102319935D01*
X33310839Y-102302148D01*
X33557401Y-102137401D01*
X35041108Y-100653694D01*
X37735226Y-100653694D01*
X37983538Y-101254655D01*
X38442927Y-101714846D01*
X39043453Y-101964206D01*
X39693694Y-101964774D01*
X40294655Y-101716462D01*
X40754846Y-101257073D01*
X41004206Y-100656547D01*
X41004774Y-100006306D01*
X40756462Y-99405345D01*
X40297073Y-98945154D01*
X39696547Y-98695794D01*
X39046306Y-98695226D01*
X38445345Y-98943538D01*
X37985154Y-99402927D01*
X37735794Y-100003453D01*
X37735226Y-100653694D01*
X35041108Y-100653694D01*
X36097401Y-99597401D01*
X36262148Y-99350840D01*
X36297219Y-99174526D01*
X36320000Y-99060000D01*
X36320000Y-96112735D01*
X37416870Y-96112735D01*
X37466383Y-96338164D01*
X37931036Y-96497807D01*
X38421413Y-96467482D01*
X38733617Y-96338164D01*
X38783130Y-96112735D01*
X38100000Y-95429605D01*
X37416870Y-96112735D01*
X36320000Y-96112735D01*
X36320000Y-95564802D01*
X36877540Y-95007262D01*
X36852193Y-95081036D01*
X36882518Y-95571413D01*
X37011836Y-95883617D01*
X37237265Y-95933130D01*
X37920395Y-95250000D01*
X37906253Y-95235858D01*
X38085858Y-95056253D01*
X38100000Y-95070395D01*
X38114143Y-95056253D01*
X38293748Y-95235858D01*
X38279605Y-95250000D01*
X38962735Y-95933130D01*
X39188164Y-95883617D01*
X39347807Y-95418964D01*
X39335192Y-95214970D01*
X39614579Y-95215214D01*
X40068657Y-95027592D01*
X40416371Y-94680485D01*
X40604785Y-94226734D01*
X40605214Y-93735421D01*
X40417592Y-93281343D01*
X40070485Y-92933629D01*
X39616734Y-92745215D01*
X39334970Y-92744969D01*
X39335214Y-92465421D01*
X39147592Y-92011343D01*
X38800485Y-91663629D01*
X38346734Y-91475215D01*
X37855421Y-91474786D01*
X37401343Y-91662408D01*
X37053629Y-92009515D01*
X36865215Y-92463266D01*
X36864860Y-92870338D01*
X35022599Y-94712599D01*
X34857852Y-94959161D01*
X34800000Y-95250000D01*
X34800000Y-98745198D01*
X32998602Y-100546596D01*
X32994415Y-100540330D01*
X32679634Y-100330000D01*
X32994415Y-100119670D01*
X33319271Y-99633489D01*
X33433345Y-99060000D01*
X33319271Y-98486511D01*
X32994415Y-98000330D01*
X32679634Y-97790000D01*
X32994415Y-97579670D01*
X33319271Y-97093489D01*
X33433345Y-96520000D01*
X33319271Y-95946511D01*
X32994415Y-95460330D01*
X32679634Y-95250000D01*
X32994415Y-95039670D01*
X33319271Y-94553489D01*
X33433345Y-93980000D01*
X33319271Y-93406511D01*
X32994415Y-92920330D01*
X32679634Y-92710000D01*
X32994415Y-92499670D01*
X33319271Y-92013489D01*
X33433345Y-91440000D01*
X33319271Y-90866511D01*
X32994415Y-90380330D01*
X32679634Y-90170000D01*
X32994415Y-89959670D01*
X33319271Y-89473489D01*
X33368958Y-89223694D01*
X36465226Y-89223694D01*
X36713538Y-89824655D01*
X37172927Y-90284846D01*
X37773453Y-90534206D01*
X38423694Y-90534774D01*
X39024655Y-90286462D01*
X39484846Y-89827073D01*
X39734206Y-89226547D01*
X39734774Y-88576306D01*
X39486462Y-87975345D01*
X39027073Y-87515154D01*
X38426547Y-87265794D01*
X37776306Y-87265226D01*
X37175345Y-87513538D01*
X36715154Y-87972927D01*
X36465794Y-88573453D01*
X36465226Y-89223694D01*
X33368958Y-89223694D01*
X33433345Y-88900000D01*
X33319271Y-88326511D01*
X32994415Y-87840330D01*
X32679634Y-87630000D01*
X32994415Y-87419670D01*
X33319271Y-86933489D01*
X33433345Y-86360000D01*
X33319271Y-85786511D01*
X32994415Y-85300330D01*
X32679634Y-85090000D01*
X32994415Y-84879670D01*
X33319271Y-84393489D01*
X33433345Y-83820000D01*
X33319271Y-83246511D01*
X32994415Y-82760330D01*
X32679634Y-82550000D01*
X32994415Y-82339670D01*
X33319271Y-81853489D01*
X33433345Y-81280000D01*
X33319271Y-80706511D01*
X32994415Y-80220330D01*
X32679634Y-80010000D01*
X32994415Y-79799670D01*
X33319271Y-79313489D01*
X33433345Y-78740000D01*
X33319271Y-78166511D01*
X32994415Y-77680330D01*
X32972220Y-77665500D01*
X33125699Y-77601927D01*
X33304327Y-77423298D01*
X33401000Y-77189909D01*
X33401000Y-76485750D01*
X33242250Y-76327000D01*
X31877000Y-76327000D01*
X31877000Y-76347000D01*
X31623000Y-76347000D01*
X31623000Y-76327000D01*
X30257750Y-76327000D01*
X30099000Y-76485750D01*
X30099000Y-77189909D01*
X30195673Y-77423298D01*
X30374301Y-77601927D01*
X30527780Y-77665500D01*
X30505585Y-77680330D01*
X30180729Y-78166511D01*
X30066655Y-78740000D01*
X29920000Y-78740000D01*
X29920000Y-75210091D01*
X30099000Y-75210091D01*
X30099000Y-75914250D01*
X30257750Y-76073000D01*
X31623000Y-76073000D01*
X31623000Y-74860150D01*
X31877000Y-74860150D01*
X31877000Y-76073000D01*
X33242250Y-76073000D01*
X33401000Y-75914250D01*
X33401000Y-75210091D01*
X33304327Y-74976702D01*
X33125699Y-74798073D01*
X32892310Y-74701400D01*
X32035750Y-74701400D01*
X31877000Y-74860150D01*
X31623000Y-74860150D01*
X31464250Y-74701400D01*
X30607690Y-74701400D01*
X30374301Y-74798073D01*
X30195673Y-74976702D01*
X30099000Y-75210091D01*
X29920000Y-75210091D01*
X29920000Y-73100000D01*
X83110000Y-73100000D01*
X83110000Y-123750000D01*
X83110000Y-123750000D01*
G37*
X83110000Y-123750000D02*
X29920000Y-123750000D01*
X29920000Y-78740000D01*
X30066655Y-78740000D01*
X30180729Y-79313489D01*
X30505585Y-79799670D01*
X30820366Y-80010000D01*
X30505585Y-80220330D01*
X30180729Y-80706511D01*
X30066655Y-81280000D01*
X30180729Y-81853489D01*
X30505585Y-82339670D01*
X30820366Y-82550000D01*
X30505585Y-82760330D01*
X30180729Y-83246511D01*
X30066655Y-83820000D01*
X30180729Y-84393489D01*
X30505585Y-84879670D01*
X30820366Y-85090000D01*
X30505585Y-85300330D01*
X30180729Y-85786511D01*
X30066655Y-86360000D01*
X30180729Y-86933489D01*
X30505585Y-87419670D01*
X30820366Y-87630000D01*
X30505585Y-87840330D01*
X30180729Y-88326511D01*
X30066655Y-88900000D01*
X30180729Y-89473489D01*
X30505585Y-89959670D01*
X30820366Y-90170000D01*
X30505585Y-90380330D01*
X30180729Y-90866511D01*
X30066655Y-91440000D01*
X30180729Y-92013489D01*
X30505585Y-92499670D01*
X30820366Y-92710000D01*
X30505585Y-92920330D01*
X30180729Y-93406511D01*
X30066655Y-93980000D01*
X30180729Y-94553489D01*
X30505585Y-95039670D01*
X30820366Y-95250000D01*
X30505585Y-95460330D01*
X30180729Y-95946511D01*
X30066655Y-96520000D01*
X30180729Y-97093489D01*
X30505585Y-97579670D01*
X30820366Y-97790000D01*
X30505585Y-98000330D01*
X30180729Y-98486511D01*
X30066655Y-99060000D01*
X30180729Y-99633489D01*
X30505585Y-100119670D01*
X30820366Y-100330000D01*
X30505585Y-100540330D01*
X30180729Y-101026511D01*
X30066655Y-101600000D01*
X30180729Y-102173489D01*
X30505585Y-102659670D01*
X30820366Y-102870000D01*
X30505585Y-103080330D01*
X30180729Y-103566511D01*
X30066655Y-104140000D01*
X30180729Y-104713489D01*
X30505585Y-105199670D01*
X30820366Y-105410000D01*
X30505585Y-105620330D01*
X30180729Y-106106511D01*
X30066655Y-106680000D01*
X30180729Y-107253489D01*
X30505585Y-107739670D01*
X30820366Y-107950000D01*
X30505585Y-108160330D01*
X30180729Y-108646511D01*
X30066655Y-109220000D01*
X30180729Y-109793489D01*
X30505585Y-110279670D01*
X30820366Y-110490000D01*
X30505585Y-110700330D01*
X30180729Y-111186511D01*
X30066655Y-111760000D01*
X30180729Y-112333489D01*
X30505585Y-112819670D01*
X30820366Y-113030000D01*
X30505585Y-113240330D01*
X30180729Y-113726511D01*
X30066655Y-114300000D01*
X30180729Y-114873489D01*
X30505585Y-115359670D01*
X30820366Y-115570000D01*
X30505585Y-115780330D01*
X30180729Y-116266511D01*
X30066655Y-116840000D01*
X30180729Y-117413489D01*
X30505585Y-117899670D01*
X30820366Y-118110000D01*
X30505585Y-118320330D01*
X30180729Y-118806511D01*
X30066655Y-119380000D01*
X30180729Y-119953489D01*
X30505585Y-120439670D01*
X30820366Y-120650000D01*
X30505585Y-120860330D01*
X30180729Y-121346511D01*
X30066655Y-121920000D01*
X30180729Y-122493489D01*
X30505585Y-122979670D01*
X30991766Y-123304526D01*
X31565255Y-123418600D01*
X31934745Y-123418600D01*
X32508234Y-123304526D01*
X32994415Y-122979670D01*
X33319271Y-122493489D01*
X33368958Y-122243694D01*
X63135226Y-122243694D01*
X63383538Y-122844655D01*
X63842927Y-123304846D01*
X64443453Y-123554206D01*
X65093694Y-123554774D01*
X65694655Y-123306462D01*
X66154846Y-122847073D01*
X66380787Y-122302944D01*
X69514025Y-122302944D01*
X69713615Y-122784818D01*
X70151621Y-123257188D01*
X70737054Y-123525983D01*
X70993000Y-123407367D01*
X70993000Y-122047000D01*
X69633164Y-122047000D01*
X69514025Y-122302944D01*
X66380787Y-122302944D01*
X66404206Y-122246547D01*
X66404774Y-121596306D01*
X66380293Y-121537056D01*
X69514025Y-121537056D01*
X69633164Y-121793000D01*
X70993000Y-121793000D01*
X70993000Y-120432633D01*
X71247000Y-120432633D01*
X71247000Y-121793000D01*
X71267000Y-121793000D01*
X71267000Y-122047000D01*
X71247000Y-122047000D01*
X71247000Y-123407367D01*
X71502946Y-123525983D01*
X72088379Y-123257188D01*
X72092934Y-123252276D01*
X72179910Y-123387441D01*
X72392110Y-123532431D01*
X72644000Y-123583440D01*
X74676000Y-123583440D01*
X74911317Y-123539162D01*
X75127441Y-123400090D01*
X75272431Y-123187890D01*
X75323440Y-122936000D01*
X75323440Y-120904000D01*
X75279162Y-120668683D01*
X75140090Y-120452559D01*
X74927890Y-120307569D01*
X74676000Y-120256560D01*
X72644000Y-120256560D01*
X72408683Y-120300838D01*
X72192559Y-120439910D01*
X72092144Y-120586872D01*
X72088379Y-120582812D01*
X71502946Y-120314017D01*
X71247000Y-120432633D01*
X70993000Y-120432633D01*
X70737054Y-120314017D01*
X70151621Y-120582812D01*
X69713615Y-121055182D01*
X69514025Y-121537056D01*
X66380293Y-121537056D01*
X66156462Y-120995345D01*
X65697073Y-120535154D01*
X65096547Y-120285794D01*
X64446306Y-120285226D01*
X63845345Y-120533538D01*
X63385154Y-120992927D01*
X63135794Y-121593453D01*
X63135226Y-122243694D01*
X33368958Y-122243694D01*
X33433345Y-121920000D01*
X33332381Y-121412421D01*
X35462401Y-119282401D01*
X35627148Y-119035839D01*
X35685000Y-118745000D01*
X35685000Y-110813694D01*
X37735226Y-110813694D01*
X37983538Y-111414655D01*
X38442927Y-111874846D01*
X39043453Y-112124206D01*
X39693694Y-112124774D01*
X40294655Y-111876462D01*
X40754846Y-111417073D01*
X41004206Y-110816547D01*
X41004774Y-110166306D01*
X40756462Y-109565345D01*
X40297073Y-109105154D01*
X39696547Y-108855794D01*
X39046306Y-108855226D01*
X38445345Y-109103538D01*
X37985154Y-109562927D01*
X37735794Y-110163453D01*
X37735226Y-110813694D01*
X35685000Y-110813694D01*
X35685000Y-109534802D01*
X42447401Y-102772401D01*
X42612148Y-102525839D01*
X42670000Y-102235000D01*
X42670000Y-87630000D01*
X42612148Y-87339161D01*
X42447401Y-87092599D01*
X38860000Y-83505198D01*
X38860000Y-81280000D01*
X42766655Y-81280000D01*
X42880729Y-81853489D01*
X43205585Y-82339670D01*
X43520366Y-82550000D01*
X43205585Y-82760330D01*
X42880729Y-83246511D01*
X42766655Y-83820000D01*
X42880729Y-84393489D01*
X43205585Y-84879670D01*
X43520366Y-85090000D01*
X43205585Y-85300330D01*
X42880729Y-85786511D01*
X42766655Y-86360000D01*
X42880729Y-86933489D01*
X43205585Y-87419670D01*
X43520366Y-87630000D01*
X43205585Y-87840330D01*
X42880729Y-88326511D01*
X42766655Y-88900000D01*
X42880729Y-89473489D01*
X43205585Y-89959670D01*
X43520366Y-90170000D01*
X43205585Y-90380330D01*
X42880729Y-90866511D01*
X42766655Y-91440000D01*
X42880729Y-92013489D01*
X43205585Y-92499670D01*
X43520366Y-92710000D01*
X43205585Y-92920330D01*
X42880729Y-93406511D01*
X42766655Y-93980000D01*
X42880729Y-94553489D01*
X43205585Y-95039670D01*
X43520366Y-95250000D01*
X43205585Y-95460330D01*
X42880729Y-95946511D01*
X42766655Y-96520000D01*
X42880729Y-97093489D01*
X43205585Y-97579670D01*
X43520366Y-97790000D01*
X43205585Y-98000330D01*
X42880729Y-98486511D01*
X42766655Y-99060000D01*
X42880729Y-99633489D01*
X43205585Y-100119670D01*
X43520366Y-100330000D01*
X43205585Y-100540330D01*
X42880729Y-101026511D01*
X42766655Y-101600000D01*
X42880729Y-102173489D01*
X43205585Y-102659670D01*
X43520366Y-102870000D01*
X43205585Y-103080330D01*
X42880729Y-103566511D01*
X42766655Y-104140000D01*
X42880729Y-104713489D01*
X43205585Y-105199670D01*
X43520366Y-105410000D01*
X43205585Y-105620330D01*
X42880729Y-106106511D01*
X42766655Y-106680000D01*
X42880729Y-107253489D01*
X43205585Y-107739670D01*
X43520366Y-107950000D01*
X43205585Y-108160330D01*
X42880729Y-108646511D01*
X42766655Y-109220000D01*
X42880729Y-109793489D01*
X43205585Y-110279670D01*
X43520366Y-110490000D01*
X43205585Y-110700330D01*
X42880729Y-111186511D01*
X42766655Y-111760000D01*
X42880729Y-112333489D01*
X43205585Y-112819670D01*
X43520366Y-113030000D01*
X43205585Y-113240330D01*
X42880729Y-113726511D01*
X42766655Y-114300000D01*
X42880729Y-114873489D01*
X43205585Y-115359670D01*
X43691766Y-115684526D01*
X44265255Y-115798600D01*
X44634745Y-115798600D01*
X45208234Y-115684526D01*
X45694415Y-115359670D01*
X46019271Y-114873489D01*
X46133345Y-114300000D01*
X46019271Y-113726511D01*
X45694415Y-113240330D01*
X45379634Y-113030000D01*
X45694415Y-112819670D01*
X46019271Y-112333489D01*
X46133345Y-111760000D01*
X46019271Y-111186511D01*
X45694415Y-110700330D01*
X45379634Y-110490000D01*
X45694415Y-110279670D01*
X46019271Y-109793489D01*
X46133345Y-109220000D01*
X46019271Y-108646511D01*
X45694415Y-108160330D01*
X45379634Y-107950000D01*
X45694415Y-107739670D01*
X46019271Y-107253489D01*
X46133345Y-106680000D01*
X46019271Y-106106511D01*
X45694415Y-105620330D01*
X45379634Y-105410000D01*
X45694415Y-105199670D01*
X46019271Y-104713489D01*
X46133345Y-104140000D01*
X46019271Y-103566511D01*
X45694415Y-103080330D01*
X45379634Y-102870000D01*
X45694415Y-102659670D01*
X46019271Y-102173489D01*
X46133345Y-101600000D01*
X46019271Y-101026511D01*
X45694415Y-100540330D01*
X45379634Y-100330000D01*
X45694415Y-100119670D01*
X46019271Y-99633489D01*
X46097152Y-99241954D01*
X47500000Y-100644802D01*
X47500000Y-113030000D01*
X47557852Y-113320839D01*
X47722599Y-113567401D01*
X54072599Y-119917401D01*
X54319161Y-120082148D01*
X54610000Y-120140000D01*
X60960000Y-120140000D01*
X61250839Y-120082148D01*
X61497401Y-119917401D01*
X64251108Y-117163694D01*
X73295226Y-117163694D01*
X73543538Y-117764655D01*
X74002927Y-118224846D01*
X74603453Y-118474206D01*
X75253694Y-118474774D01*
X75854655Y-118226462D01*
X76314846Y-117767073D01*
X76564206Y-117166547D01*
X76564774Y-116516306D01*
X76316462Y-115915345D01*
X75857073Y-115455154D01*
X75256547Y-115205794D01*
X74606306Y-115205226D01*
X74005345Y-115453538D01*
X73545154Y-115912927D01*
X73295794Y-116513453D01*
X73295226Y-117163694D01*
X64251108Y-117163694D01*
X65307401Y-116107401D01*
X65472148Y-115860839D01*
X65530000Y-115570000D01*
X65530000Y-113214496D01*
X65694655Y-113146462D01*
X66154846Y-112687073D01*
X66404206Y-112086547D01*
X66404774Y-111436306D01*
X66370244Y-111352735D01*
X69166870Y-111352735D01*
X69216383Y-111578164D01*
X69681036Y-111737807D01*
X70171413Y-111707482D01*
X70483617Y-111578164D01*
X70533130Y-111352735D01*
X69850000Y-110669605D01*
X69166870Y-111352735D01*
X66370244Y-111352735D01*
X66156462Y-110835345D01*
X65697073Y-110375154D01*
X65566743Y-110321036D01*
X68602193Y-110321036D01*
X68632518Y-110811413D01*
X68761836Y-111123617D01*
X68987265Y-111173130D01*
X69670395Y-110490000D01*
X68987265Y-109806870D01*
X68761836Y-109856383D01*
X68602193Y-110321036D01*
X65566743Y-110321036D01*
X65096547Y-110125794D01*
X64446306Y-110125226D01*
X63845345Y-110373538D01*
X63385154Y-110832927D01*
X63135794Y-111433453D01*
X63135226Y-112083694D01*
X63383538Y-112684655D01*
X63842927Y-113144846D01*
X64010000Y-113214221D01*
X64010000Y-115255198D01*
X60645198Y-118620000D01*
X54924802Y-118620000D01*
X49020000Y-112715198D01*
X49020000Y-100330000D01*
X48962148Y-100039161D01*
X48797401Y-99792599D01*
X46032381Y-97027579D01*
X46133345Y-96520000D01*
X46019271Y-95946511D01*
X45694415Y-95460330D01*
X45379634Y-95250000D01*
X45694415Y-95039670D01*
X46019271Y-94553489D01*
X46133345Y-93980000D01*
X46019271Y-93406511D01*
X45694415Y-92920330D01*
X45379634Y-92710000D01*
X45694415Y-92499670D01*
X46019271Y-92013489D01*
X46133345Y-91440000D01*
X46019271Y-90866511D01*
X45694415Y-90380330D01*
X45379634Y-90170000D01*
X45694415Y-89959670D01*
X46019271Y-89473489D01*
X46133345Y-88900000D01*
X46032381Y-88392421D01*
X50604802Y-83820000D01*
X58006655Y-83820000D01*
X58120729Y-84393489D01*
X58445585Y-84879670D01*
X58760366Y-85090000D01*
X58445585Y-85300330D01*
X58120729Y-85786511D01*
X58006655Y-86360000D01*
X58120729Y-86933489D01*
X58445585Y-87419670D01*
X58760366Y-87630000D01*
X58445585Y-87840330D01*
X58120729Y-88326511D01*
X58006655Y-88900000D01*
X58120729Y-89473489D01*
X58445585Y-89959670D01*
X58760366Y-90170000D01*
X58445585Y-90380330D01*
X58120729Y-90866511D01*
X58006655Y-91440000D01*
X58120729Y-92013489D01*
X58445585Y-92499670D01*
X58760366Y-92710000D01*
X58445585Y-92920330D01*
X58120729Y-93406511D01*
X58006655Y-93980000D01*
X58120729Y-94553489D01*
X58445585Y-95039670D01*
X58760366Y-95250000D01*
X58445585Y-95460330D01*
X58120729Y-95946511D01*
X58006655Y-96520000D01*
X58120729Y-97093489D01*
X58445585Y-97579670D01*
X58760366Y-97790000D01*
X58445585Y-98000330D01*
X58120729Y-98486511D01*
X58006655Y-99060000D01*
X58120729Y-99633489D01*
X58445585Y-100119670D01*
X58760366Y-100330000D01*
X58445585Y-100540330D01*
X58120729Y-101026511D01*
X58006655Y-101600000D01*
X58120729Y-102173489D01*
X58445585Y-102659670D01*
X58760366Y-102870000D01*
X58445585Y-103080330D01*
X58120729Y-103566511D01*
X58006655Y-104140000D01*
X58120729Y-104713489D01*
X58445585Y-105199670D01*
X58760366Y-105410000D01*
X58445585Y-105620330D01*
X58120729Y-106106511D01*
X58006655Y-106680000D01*
X58120729Y-107253489D01*
X58445585Y-107739670D01*
X58760366Y-107950000D01*
X58445585Y-108160330D01*
X58120729Y-108646511D01*
X58006655Y-109220000D01*
X58120729Y-109793489D01*
X58445585Y-110279670D01*
X58760366Y-110490000D01*
X58445585Y-110700330D01*
X58120729Y-111186511D01*
X58006655Y-111760000D01*
X58120729Y-112333489D01*
X58445585Y-112819670D01*
X58760366Y-113030000D01*
X58445585Y-113240330D01*
X58120729Y-113726511D01*
X58006655Y-114300000D01*
X58120729Y-114873489D01*
X58445585Y-115359670D01*
X58931766Y-115684526D01*
X59505255Y-115798600D01*
X59874745Y-115798600D01*
X60448234Y-115684526D01*
X60934415Y-115359670D01*
X61259271Y-114873489D01*
X61373345Y-114300000D01*
X61259271Y-113726511D01*
X60934415Y-113240330D01*
X60619634Y-113030000D01*
X60934415Y-112819670D01*
X61259271Y-112333489D01*
X61373345Y-111760000D01*
X61259271Y-111186511D01*
X60934415Y-110700330D01*
X60619634Y-110490000D01*
X60934415Y-110279670D01*
X61259271Y-109793489D01*
X61373345Y-109220000D01*
X61259271Y-108646511D01*
X61049754Y-108332946D01*
X63164017Y-108332946D01*
X63432812Y-108918379D01*
X63905182Y-109356385D01*
X64387056Y-109555975D01*
X64643000Y-109436836D01*
X64643000Y-108077000D01*
X64897000Y-108077000D01*
X64897000Y-109436836D01*
X65152944Y-109555975D01*
X65634818Y-109356385D01*
X66107188Y-108918379D01*
X66375983Y-108332946D01*
X66311858Y-108194579D01*
X68614786Y-108194579D01*
X68802408Y-108648657D01*
X69149515Y-108996371D01*
X69603266Y-109184785D01*
X69885030Y-109185031D01*
X69884973Y-109250479D01*
X69528587Y-109272518D01*
X69216383Y-109401836D01*
X69166870Y-109627265D01*
X69850000Y-110310395D01*
X69864143Y-110296253D01*
X70043748Y-110475858D01*
X70029605Y-110490000D01*
X70712735Y-111173130D01*
X70938164Y-111123617D01*
X71097807Y-110658964D01*
X71085192Y-110454970D01*
X71364579Y-110455214D01*
X71818657Y-110267592D01*
X72166371Y-109920485D01*
X72354785Y-109466734D01*
X72355214Y-108975421D01*
X72167592Y-108521343D01*
X71820485Y-108173629D01*
X71366734Y-107985215D01*
X71084970Y-107984969D01*
X71085214Y-107705421D01*
X70897592Y-107251343D01*
X70650376Y-107003694D01*
X73295226Y-107003694D01*
X73543538Y-107604655D01*
X74002927Y-108064846D01*
X74603453Y-108314206D01*
X75253694Y-108314774D01*
X75854655Y-108066462D01*
X76314846Y-107607073D01*
X76564206Y-107006547D01*
X76564774Y-106356306D01*
X76316462Y-105755345D01*
X75857073Y-105295154D01*
X75256547Y-105045794D01*
X74606306Y-105045226D01*
X74005345Y-105293538D01*
X73545154Y-105752927D01*
X73295794Y-106353453D01*
X73295226Y-107003694D01*
X70650376Y-107003694D01*
X70550485Y-106903629D01*
X70096734Y-106715215D01*
X69605421Y-106714786D01*
X69151343Y-106902408D01*
X68803629Y-107249515D01*
X68615215Y-107703266D01*
X68614786Y-108194579D01*
X66311858Y-108194579D01*
X66257367Y-108077000D01*
X64897000Y-108077000D01*
X64643000Y-108077000D01*
X63282633Y-108077000D01*
X63164017Y-108332946D01*
X61049754Y-108332946D01*
X60934415Y-108160330D01*
X60619634Y-107950000D01*
X60934415Y-107739670D01*
X61259271Y-107253489D01*
X61373345Y-106680000D01*
X61259271Y-106106511D01*
X60934415Y-105620330D01*
X60619634Y-105410000D01*
X60934415Y-105199670D01*
X61259271Y-104713489D01*
X61322821Y-104394000D01*
X63106560Y-104394000D01*
X63106560Y-106426000D01*
X63150838Y-106661317D01*
X63289910Y-106877441D01*
X63436872Y-106977856D01*
X63432812Y-106981621D01*
X63164017Y-107567054D01*
X63282633Y-107823000D01*
X64643000Y-107823000D01*
X64643000Y-107803000D01*
X64897000Y-107803000D01*
X64897000Y-107823000D01*
X66257367Y-107823000D01*
X66375983Y-107567054D01*
X66107188Y-106981621D01*
X66102276Y-106977066D01*
X66237441Y-106890090D01*
X66382431Y-106677890D01*
X66433440Y-106426000D01*
X66433440Y-104394000D01*
X66389162Y-104158683D01*
X66250090Y-103942559D01*
X66037890Y-103797569D01*
X65786000Y-103746560D01*
X63754000Y-103746560D01*
X63518683Y-103790838D01*
X63302559Y-103929910D01*
X63157569Y-104142110D01*
X63106560Y-104394000D01*
X61322821Y-104394000D01*
X61373345Y-104140000D01*
X61259271Y-103566511D01*
X61010163Y-103193694D01*
X66945226Y-103193694D01*
X67193538Y-103794655D01*
X67652927Y-104254846D01*
X68253453Y-104504206D01*
X68903694Y-104504774D01*
X69504655Y-104256462D01*
X69964846Y-103797073D01*
X70214206Y-103196547D01*
X70214491Y-102870000D01*
X71976655Y-102870000D01*
X72090729Y-103443489D01*
X72415585Y-103929670D01*
X72901766Y-104254526D01*
X73475255Y-104368600D01*
X73844745Y-104368600D01*
X74418234Y-104254526D01*
X74904415Y-103929670D01*
X75229271Y-103443489D01*
X75343345Y-102870000D01*
X75229271Y-102296511D01*
X74904415Y-101810330D01*
X74594931Y-101603539D01*
X75010732Y-101232036D01*
X75264709Y-100704791D01*
X75267358Y-100689026D01*
X75146217Y-100457000D01*
X73787000Y-100457000D01*
X73787000Y-100477000D01*
X73533000Y-100477000D01*
X73533000Y-100457000D01*
X72173783Y-100457000D01*
X72052642Y-100689026D01*
X72055291Y-100704791D01*
X72309268Y-101232036D01*
X72725069Y-101603539D01*
X72415585Y-101810330D01*
X72090729Y-102296511D01*
X71976655Y-102870000D01*
X70214491Y-102870000D01*
X70214774Y-102546306D01*
X69966462Y-101945345D01*
X69507073Y-101485154D01*
X68906547Y-101235794D01*
X68256306Y-101235226D01*
X67655345Y-101483538D01*
X67195154Y-101942927D01*
X66945794Y-102543453D01*
X66945226Y-103193694D01*
X61010163Y-103193694D01*
X60934415Y-103080330D01*
X60619634Y-102870000D01*
X60934415Y-102659670D01*
X61259271Y-102173489D01*
X61373345Y-101600000D01*
X61259271Y-101026511D01*
X60934415Y-100540330D01*
X60619634Y-100330000D01*
X60934415Y-100119670D01*
X61259271Y-99633489D01*
X61373345Y-99060000D01*
X61259271Y-98486511D01*
X60934415Y-98000330D01*
X60619634Y-97790000D01*
X60934415Y-97579670D01*
X61259271Y-97093489D01*
X61373345Y-96520000D01*
X61259271Y-95946511D01*
X60934415Y-95460330D01*
X60619634Y-95250000D01*
X71976655Y-95250000D01*
X72090729Y-95823489D01*
X72415585Y-96309670D01*
X72730366Y-96520000D01*
X72415585Y-96730330D01*
X72090729Y-97216511D01*
X71976655Y-97790000D01*
X72090729Y-98363489D01*
X72415585Y-98849670D01*
X72725069Y-99056461D01*
X72309268Y-99427964D01*
X72055291Y-99955209D01*
X72052642Y-99970974D01*
X72173783Y-100203000D01*
X73533000Y-100203000D01*
X73533000Y-100183000D01*
X73787000Y-100183000D01*
X73787000Y-100203000D01*
X75146217Y-100203000D01*
X75267358Y-99970974D01*
X75264709Y-99955209D01*
X75010732Y-99427964D01*
X74594931Y-99056461D01*
X74904415Y-98849670D01*
X75229271Y-98363489D01*
X75343345Y-97790000D01*
X75229271Y-97216511D01*
X74904415Y-96730330D01*
X74589634Y-96520000D01*
X74904415Y-96309670D01*
X75229271Y-95823489D01*
X75343345Y-95250000D01*
X75229271Y-94676511D01*
X74904415Y-94190330D01*
X74890087Y-94180757D01*
X74911317Y-94176762D01*
X75127441Y-94037690D01*
X75272431Y-93825490D01*
X75323440Y-93573600D01*
X75323440Y-91846400D01*
X75279162Y-91611083D01*
X75140090Y-91394959D01*
X74927890Y-91249969D01*
X74676000Y-91198960D01*
X72644000Y-91198960D01*
X72408683Y-91243238D01*
X72192559Y-91382310D01*
X72047569Y-91594510D01*
X71996560Y-91846400D01*
X71996560Y-93573600D01*
X72040838Y-93808917D01*
X72179910Y-94025041D01*
X72392110Y-94170031D01*
X72433439Y-94178400D01*
X72415585Y-94190330D01*
X72090729Y-94676511D01*
X71976655Y-95250000D01*
X60619634Y-95250000D01*
X60934415Y-95039670D01*
X61259271Y-94553489D01*
X61373345Y-93980000D01*
X61259271Y-93406511D01*
X61010163Y-93033694D01*
X66945226Y-93033694D01*
X67193538Y-93634655D01*
X67652927Y-94094846D01*
X68253453Y-94344206D01*
X68903694Y-94344774D01*
X69504655Y-94096462D01*
X69964846Y-93637073D01*
X70214206Y-93036547D01*
X70214774Y-92386306D01*
X69966462Y-91785345D01*
X69507073Y-91325154D01*
X68906547Y-91075794D01*
X68256306Y-91075226D01*
X67655345Y-91323538D01*
X67195154Y-91782927D01*
X66945794Y-92383453D01*
X66945226Y-93033694D01*
X61010163Y-93033694D01*
X60934415Y-92920330D01*
X60619634Y-92710000D01*
X60934415Y-92499670D01*
X61259271Y-92013489D01*
X61373345Y-91440000D01*
X61259271Y-90866511D01*
X60934415Y-90380330D01*
X60619634Y-90170000D01*
X60934415Y-89959670D01*
X61259271Y-89473489D01*
X61308958Y-89223694D01*
X63135226Y-89223694D01*
X63383538Y-89824655D01*
X63842927Y-90284846D01*
X64443453Y-90534206D01*
X65093694Y-90534774D01*
X65694655Y-90286462D01*
X66154846Y-89827073D01*
X66404206Y-89226547D01*
X66404774Y-88576306D01*
X66156462Y-87975345D01*
X65697073Y-87515154D01*
X65096547Y-87265794D01*
X64446306Y-87265226D01*
X63845345Y-87513538D01*
X63385154Y-87972927D01*
X63135794Y-88573453D01*
X63135226Y-89223694D01*
X61308958Y-89223694D01*
X61373345Y-88900000D01*
X61259271Y-88326511D01*
X60934415Y-87840330D01*
X60619634Y-87630000D01*
X60934415Y-87419670D01*
X61259271Y-86933489D01*
X61373345Y-86360000D01*
X61259271Y-85786511D01*
X60934415Y-85300330D01*
X60619634Y-85090000D01*
X60934415Y-84879670D01*
X61259271Y-84393489D01*
X61373345Y-83820000D01*
X61259271Y-83246511D01*
X60934415Y-82760330D01*
X60624931Y-82553539D01*
X61040732Y-82182036D01*
X61294709Y-81654791D01*
X61297358Y-81639026D01*
X61176217Y-81407000D01*
X59817000Y-81407000D01*
X59817000Y-81427000D01*
X59563000Y-81427000D01*
X59563000Y-81407000D01*
X58203783Y-81407000D01*
X58082642Y-81639026D01*
X58085291Y-81654791D01*
X58339268Y-82182036D01*
X58755069Y-82553539D01*
X58445585Y-82760330D01*
X58120729Y-83246511D01*
X58006655Y-83820000D01*
X50604802Y-83820000D01*
X57464802Y-76960000D01*
X60645198Y-76960000D01*
X60980865Y-77295667D01*
X60957890Y-77279969D01*
X60706000Y-77228960D01*
X58674000Y-77228960D01*
X58438683Y-77273238D01*
X58222559Y-77412310D01*
X58077569Y-77624510D01*
X58026560Y-77876400D01*
X58026560Y-79603600D01*
X58070838Y-79838917D01*
X58209910Y-80055041D01*
X58422110Y-80200031D01*
X58516927Y-80219232D01*
X58339268Y-80377964D01*
X58085291Y-80905209D01*
X58082642Y-80920974D01*
X58203783Y-81153000D01*
X59563000Y-81153000D01*
X59563000Y-81133000D01*
X59817000Y-81133000D01*
X59817000Y-81153000D01*
X61176217Y-81153000D01*
X61297358Y-80920974D01*
X61294709Y-80905209D01*
X61040732Y-80377964D01*
X60865155Y-80221093D01*
X60941317Y-80206762D01*
X61157441Y-80067690D01*
X61302431Y-79855490D01*
X61353440Y-79603600D01*
X61353440Y-77876400D01*
X61309162Y-77641083D01*
X61278264Y-77593066D01*
X61470000Y-77784802D01*
X61470000Y-82550000D01*
X61527852Y-82840839D01*
X61692599Y-83087401D01*
X62962599Y-84357401D01*
X63209160Y-84522148D01*
X63500000Y-84580000D01*
X65725198Y-84580000D01*
X68561068Y-87415870D01*
X68288524Y-87415632D01*
X67742663Y-87641178D01*
X67324666Y-88058446D01*
X67098168Y-88603913D01*
X67097652Y-89194536D01*
X67323198Y-89740397D01*
X67740466Y-90158394D01*
X68285933Y-90384892D01*
X68876556Y-90385408D01*
X69422417Y-90159862D01*
X69840414Y-89742594D01*
X70066912Y-89197127D01*
X70067152Y-88921954D01*
X70582599Y-89437401D01*
X70829161Y-89602148D01*
X70918982Y-89620015D01*
X71003538Y-89824655D01*
X71462927Y-90284846D01*
X72063453Y-90534206D01*
X72713694Y-90534774D01*
X73314655Y-90286462D01*
X73774846Y-89827073D01*
X74024206Y-89226547D01*
X74024774Y-88576306D01*
X73776462Y-87975345D01*
X73317073Y-87515154D01*
X72716547Y-87265794D01*
X72066306Y-87265226D01*
X71465345Y-87513538D01*
X71136556Y-87841754D01*
X66577401Y-83282599D01*
X66330839Y-83117852D01*
X66040000Y-83060000D01*
X63814802Y-83060000D01*
X62990000Y-82235198D01*
X62990000Y-79063694D01*
X63135226Y-79063694D01*
X63383538Y-79664655D01*
X63842927Y-80124846D01*
X64443453Y-80374206D01*
X65093694Y-80374774D01*
X65694655Y-80126462D01*
X66154846Y-79667073D01*
X66404206Y-79066547D01*
X66404774Y-78416306D01*
X66187677Y-77890890D01*
X67085470Y-77890890D01*
X67085470Y-79590150D01*
X67129748Y-79825467D01*
X67268820Y-80041591D01*
X67481020Y-80186581D01*
X67732910Y-80237590D01*
X69432170Y-80237590D01*
X69667487Y-80193312D01*
X69883611Y-80054240D01*
X70028601Y-79842040D01*
X70079610Y-79590150D01*
X70079610Y-79063694D01*
X70755226Y-79063694D01*
X71003538Y-79664655D01*
X71462927Y-80124846D01*
X72063453Y-80374206D01*
X72713694Y-80374774D01*
X73314655Y-80126462D01*
X73774846Y-79667073D01*
X74024206Y-79066547D01*
X74024774Y-78416306D01*
X73889948Y-78090000D01*
X75537560Y-78090000D01*
X75537560Y-79390000D01*
X75581838Y-79625317D01*
X75720910Y-79841441D01*
X75933110Y-79986431D01*
X76185000Y-80037440D01*
X77485000Y-80037440D01*
X77720317Y-79993162D01*
X77936441Y-79854090D01*
X78081431Y-79641890D01*
X78082012Y-79639016D01*
X79615590Y-79639016D01*
X79671271Y-79869611D01*
X80154078Y-80037622D01*
X80664428Y-80008083D01*
X80998729Y-79869611D01*
X81054410Y-79639016D01*
X80335000Y-78919605D01*
X79615590Y-79639016D01*
X78082012Y-79639016D01*
X78132440Y-79390000D01*
X78132440Y-78559078D01*
X79037378Y-78559078D01*
X79066917Y-79069428D01*
X79205389Y-79403729D01*
X79435984Y-79459410D01*
X80155395Y-78740000D01*
X80514605Y-78740000D01*
X81234016Y-79459410D01*
X81464611Y-79403729D01*
X81632622Y-78920922D01*
X81603083Y-78410572D01*
X81464611Y-78076271D01*
X81234016Y-78020590D01*
X80514605Y-78740000D01*
X80155395Y-78740000D01*
X79435984Y-78020590D01*
X79205389Y-78076271D01*
X79037378Y-78559078D01*
X78132440Y-78559078D01*
X78132440Y-78090000D01*
X78088162Y-77854683D01*
X78079347Y-77840984D01*
X79615590Y-77840984D01*
X80335000Y-78560395D01*
X81054410Y-77840984D01*
X80998729Y-77610389D01*
X80515922Y-77442378D01*
X80005572Y-77471917D01*
X79671271Y-77610389D01*
X79615590Y-77840984D01*
X78079347Y-77840984D01*
X77949090Y-77638559D01*
X77736890Y-77493569D01*
X77485000Y-77442560D01*
X76185000Y-77442560D01*
X75949683Y-77486838D01*
X75733559Y-77625910D01*
X75588569Y-77838110D01*
X75537560Y-78090000D01*
X73889948Y-78090000D01*
X73776462Y-77815345D01*
X73317073Y-77355154D01*
X72716547Y-77105794D01*
X72066306Y-77105226D01*
X71465345Y-77353538D01*
X71005154Y-77812927D01*
X70755794Y-78413453D01*
X70755226Y-79063694D01*
X70079610Y-79063694D01*
X70079610Y-77890890D01*
X70035332Y-77655573D01*
X69896260Y-77439449D01*
X69684060Y-77294459D01*
X69432170Y-77243450D01*
X67732910Y-77243450D01*
X67497593Y-77287728D01*
X67281469Y-77426800D01*
X67136479Y-77639000D01*
X67085470Y-77890890D01*
X66187677Y-77890890D01*
X66156462Y-77815345D01*
X65697073Y-77355154D01*
X65096547Y-77105794D01*
X64446306Y-77105226D01*
X63845345Y-77353538D01*
X63385154Y-77812927D01*
X63135794Y-78413453D01*
X63135226Y-79063694D01*
X62990000Y-79063694D01*
X62990000Y-77470000D01*
X62966834Y-77353538D01*
X62932148Y-77179160D01*
X62767401Y-76932599D01*
X61497401Y-75662599D01*
X61250839Y-75497852D01*
X60960000Y-75440000D01*
X57150000Y-75440000D01*
X56859160Y-75497852D01*
X56612599Y-75662599D01*
X46097152Y-86178046D01*
X46019271Y-85786511D01*
X45694415Y-85300330D01*
X45379634Y-85090000D01*
X45694415Y-84879670D01*
X46019271Y-84393489D01*
X46133345Y-83820000D01*
X46019271Y-83246511D01*
X45694415Y-82760330D01*
X45379634Y-82550000D01*
X45694415Y-82339670D01*
X46019271Y-81853489D01*
X46133345Y-81280000D01*
X46019271Y-80706511D01*
X45694415Y-80220330D01*
X45680087Y-80210757D01*
X45701317Y-80206762D01*
X45917441Y-80067690D01*
X46062431Y-79855490D01*
X46113440Y-79603600D01*
X46113440Y-77876400D01*
X46069162Y-77641083D01*
X45930090Y-77424959D01*
X45717890Y-77279969D01*
X45466000Y-77228960D01*
X43434000Y-77228960D01*
X43198683Y-77273238D01*
X42982559Y-77412310D01*
X42837569Y-77624510D01*
X42786560Y-77876400D01*
X42786560Y-79603600D01*
X42830838Y-79838917D01*
X42969910Y-80055041D01*
X43182110Y-80200031D01*
X43223439Y-80208400D01*
X43205585Y-80220330D01*
X42880729Y-80706511D01*
X42766655Y-81280000D01*
X38860000Y-81280000D01*
X38860000Y-80194496D01*
X39024655Y-80126462D01*
X39484846Y-79667073D01*
X39734206Y-79066547D01*
X39734774Y-78416306D01*
X39486462Y-77815345D01*
X39027073Y-77355154D01*
X38426547Y-77105794D01*
X37776306Y-77105226D01*
X37175345Y-77353538D01*
X36715154Y-77812927D01*
X36465794Y-78413453D01*
X36465226Y-79063694D01*
X36713538Y-79664655D01*
X37172927Y-80124846D01*
X37340000Y-80194221D01*
X37340000Y-83820000D01*
X37397852Y-84110839D01*
X37562599Y-84357401D01*
X41150000Y-87944802D01*
X41150000Y-101920198D01*
X34387599Y-108682599D01*
X34222852Y-108929161D01*
X34165000Y-109220000D01*
X34165000Y-118430198D01*
X33397152Y-119198046D01*
X33319271Y-118806511D01*
X32994415Y-118320330D01*
X32679634Y-118110000D01*
X32994415Y-117899670D01*
X33319271Y-117413489D01*
X33433345Y-116840000D01*
X33319271Y-116266511D01*
X32994415Y-115780330D01*
X32679634Y-115570000D01*
X32994415Y-115359670D01*
X33319271Y-114873489D01*
X33433345Y-114300000D01*
X33319271Y-113726511D01*
X32994415Y-113240330D01*
X32679634Y-113030000D01*
X32994415Y-112819670D01*
X33319271Y-112333489D01*
X33433345Y-111760000D01*
X33319271Y-111186511D01*
X32994415Y-110700330D01*
X32679634Y-110490000D01*
X32994415Y-110279670D01*
X33319271Y-109793489D01*
X33433345Y-109220000D01*
X33319271Y-108646511D01*
X32994415Y-108160330D01*
X32679634Y-107950000D01*
X32994415Y-107739670D01*
X33319271Y-107253489D01*
X33433345Y-106680000D01*
X33319271Y-106106511D01*
X32994415Y-105620330D01*
X32679634Y-105410000D01*
X32994415Y-105199670D01*
X33319271Y-104713489D01*
X33433345Y-104140000D01*
X33319271Y-103566511D01*
X32994415Y-103080330D01*
X32679634Y-102870000D01*
X32994415Y-102659670D01*
X33221419Y-102319935D01*
X33310839Y-102302148D01*
X33557401Y-102137401D01*
X35041108Y-100653694D01*
X37735226Y-100653694D01*
X37983538Y-101254655D01*
X38442927Y-101714846D01*
X39043453Y-101964206D01*
X39693694Y-101964774D01*
X40294655Y-101716462D01*
X40754846Y-101257073D01*
X41004206Y-100656547D01*
X41004774Y-100006306D01*
X40756462Y-99405345D01*
X40297073Y-98945154D01*
X39696547Y-98695794D01*
X39046306Y-98695226D01*
X38445345Y-98943538D01*
X37985154Y-99402927D01*
X37735794Y-100003453D01*
X37735226Y-100653694D01*
X35041108Y-100653694D01*
X36097401Y-99597401D01*
X36262148Y-99350840D01*
X36297219Y-99174526D01*
X36320000Y-99060000D01*
X36320000Y-96112735D01*
X37416870Y-96112735D01*
X37466383Y-96338164D01*
X37931036Y-96497807D01*
X38421413Y-96467482D01*
X38733617Y-96338164D01*
X38783130Y-96112735D01*
X38100000Y-95429605D01*
X37416870Y-96112735D01*
X36320000Y-96112735D01*
X36320000Y-95564802D01*
X36877540Y-95007262D01*
X36852193Y-95081036D01*
X36882518Y-95571413D01*
X37011836Y-95883617D01*
X37237265Y-95933130D01*
X37920395Y-95250000D01*
X37906253Y-95235858D01*
X38085858Y-95056253D01*
X38100000Y-95070395D01*
X38114143Y-95056253D01*
X38293748Y-95235858D01*
X38279605Y-95250000D01*
X38962735Y-95933130D01*
X39188164Y-95883617D01*
X39347807Y-95418964D01*
X39335192Y-95214970D01*
X39614579Y-95215214D01*
X40068657Y-95027592D01*
X40416371Y-94680485D01*
X40604785Y-94226734D01*
X40605214Y-93735421D01*
X40417592Y-93281343D01*
X40070485Y-92933629D01*
X39616734Y-92745215D01*
X39334970Y-92744969D01*
X39335214Y-92465421D01*
X39147592Y-92011343D01*
X38800485Y-91663629D01*
X38346734Y-91475215D01*
X37855421Y-91474786D01*
X37401343Y-91662408D01*
X37053629Y-92009515D01*
X36865215Y-92463266D01*
X36864860Y-92870338D01*
X35022599Y-94712599D01*
X34857852Y-94959161D01*
X34800000Y-95250000D01*
X34800000Y-98745198D01*
X32998602Y-100546596D01*
X32994415Y-100540330D01*
X32679634Y-100330000D01*
X32994415Y-100119670D01*
X33319271Y-99633489D01*
X33433345Y-99060000D01*
X33319271Y-98486511D01*
X32994415Y-98000330D01*
X32679634Y-97790000D01*
X32994415Y-97579670D01*
X33319271Y-97093489D01*
X33433345Y-96520000D01*
X33319271Y-95946511D01*
X32994415Y-95460330D01*
X32679634Y-95250000D01*
X32994415Y-95039670D01*
X33319271Y-94553489D01*
X33433345Y-93980000D01*
X33319271Y-93406511D01*
X32994415Y-92920330D01*
X32679634Y-92710000D01*
X32994415Y-92499670D01*
X33319271Y-92013489D01*
X33433345Y-91440000D01*
X33319271Y-90866511D01*
X32994415Y-90380330D01*
X32679634Y-90170000D01*
X32994415Y-89959670D01*
X33319271Y-89473489D01*
X33368958Y-89223694D01*
X36465226Y-89223694D01*
X36713538Y-89824655D01*
X37172927Y-90284846D01*
X37773453Y-90534206D01*
X38423694Y-90534774D01*
X39024655Y-90286462D01*
X39484846Y-89827073D01*
X39734206Y-89226547D01*
X39734774Y-88576306D01*
X39486462Y-87975345D01*
X39027073Y-87515154D01*
X38426547Y-87265794D01*
X37776306Y-87265226D01*
X37175345Y-87513538D01*
X36715154Y-87972927D01*
X36465794Y-88573453D01*
X36465226Y-89223694D01*
X33368958Y-89223694D01*
X33433345Y-88900000D01*
X33319271Y-88326511D01*
X32994415Y-87840330D01*
X32679634Y-87630000D01*
X32994415Y-87419670D01*
X33319271Y-86933489D01*
X33433345Y-86360000D01*
X33319271Y-85786511D01*
X32994415Y-85300330D01*
X32679634Y-85090000D01*
X32994415Y-84879670D01*
X33319271Y-84393489D01*
X33433345Y-83820000D01*
X33319271Y-83246511D01*
X32994415Y-82760330D01*
X32679634Y-82550000D01*
X32994415Y-82339670D01*
X33319271Y-81853489D01*
X33433345Y-81280000D01*
X33319271Y-80706511D01*
X32994415Y-80220330D01*
X32679634Y-80010000D01*
X32994415Y-79799670D01*
X33319271Y-79313489D01*
X33433345Y-78740000D01*
X33319271Y-78166511D01*
X32994415Y-77680330D01*
X32972220Y-77665500D01*
X33125699Y-77601927D01*
X33304327Y-77423298D01*
X33401000Y-77189909D01*
X33401000Y-76485750D01*
X33242250Y-76327000D01*
X31877000Y-76327000D01*
X31877000Y-76347000D01*
X31623000Y-76347000D01*
X31623000Y-76327000D01*
X30257750Y-76327000D01*
X30099000Y-76485750D01*
X30099000Y-77189909D01*
X30195673Y-77423298D01*
X30374301Y-77601927D01*
X30527780Y-77665500D01*
X30505585Y-77680330D01*
X30180729Y-78166511D01*
X30066655Y-78740000D01*
X29920000Y-78740000D01*
X29920000Y-75210091D01*
X30099000Y-75210091D01*
X30099000Y-75914250D01*
X30257750Y-76073000D01*
X31623000Y-76073000D01*
X31623000Y-74860150D01*
X31877000Y-74860150D01*
X31877000Y-76073000D01*
X33242250Y-76073000D01*
X33401000Y-75914250D01*
X33401000Y-75210091D01*
X33304327Y-74976702D01*
X33125699Y-74798073D01*
X32892310Y-74701400D01*
X32035750Y-74701400D01*
X31877000Y-74860150D01*
X31623000Y-74860150D01*
X31464250Y-74701400D01*
X30607690Y-74701400D01*
X30374301Y-74798073D01*
X30195673Y-74976702D01*
X30099000Y-75210091D01*
X29920000Y-75210091D01*
X29920000Y-73100000D01*
X83110000Y-73100000D01*
X83110000Y-123750000D01*
M02*
