G04 #@! TF.FileFunction,Legend,Top*
%FSLAX46Y46*%
G04 Gerber Fmt 4.6, Leading zero omitted, Abs format (unit mm)*
G04 Created by KiCad (PCBNEW 4.0.4+e1-6308~48~ubuntu16.04.1-stable) date Mon Oct 24 14:40:12 2016*
%MOMM*%
%LPD*%
G01*
G04 APERTURE LIST*
%ADD10C,0.100000*%
%ADD11C,0.300000*%
%ADD12C,0.150000*%
G04 APERTURE END LIST*
D10*
D11*
X57868572Y-117518571D02*
X57868572Y-116018571D01*
X58225715Y-116018571D01*
X58440000Y-116090000D01*
X58582858Y-116232857D01*
X58654286Y-116375714D01*
X58725715Y-116661429D01*
X58725715Y-116875714D01*
X58654286Y-117161429D01*
X58582858Y-117304286D01*
X58440000Y-117447143D01*
X58225715Y-117518571D01*
X57868572Y-117518571D01*
X60154286Y-117518571D02*
X59297143Y-117518571D01*
X59725715Y-117518571D02*
X59725715Y-116018571D01*
X59582858Y-116232857D01*
X59440000Y-116375714D01*
X59297143Y-116447143D01*
X60654286Y-116018571D02*
X61582857Y-116018571D01*
X61082857Y-116590000D01*
X61297143Y-116590000D01*
X61440000Y-116661429D01*
X61511429Y-116732857D01*
X61582857Y-116875714D01*
X61582857Y-117232857D01*
X61511429Y-117375714D01*
X61440000Y-117447143D01*
X61297143Y-117518571D01*
X60868571Y-117518571D01*
X60725714Y-117447143D01*
X60654286Y-117375714D01*
X42628572Y-117518571D02*
X42628572Y-116018571D01*
X42985715Y-116018571D01*
X43200000Y-116090000D01*
X43342858Y-116232857D01*
X43414286Y-116375714D01*
X43485715Y-116661429D01*
X43485715Y-116875714D01*
X43414286Y-117161429D01*
X43342858Y-117304286D01*
X43200000Y-117447143D01*
X42985715Y-117518571D01*
X42628572Y-117518571D01*
X44914286Y-117518571D02*
X44057143Y-117518571D01*
X44485715Y-117518571D02*
X44485715Y-116018571D01*
X44342858Y-116232857D01*
X44200000Y-116375714D01*
X44057143Y-116447143D01*
X45485714Y-116161429D02*
X45557143Y-116090000D01*
X45700000Y-116018571D01*
X46057143Y-116018571D01*
X46200000Y-116090000D01*
X46271429Y-116161429D01*
X46342857Y-116304286D01*
X46342857Y-116447143D01*
X46271429Y-116661429D01*
X45414286Y-117518571D01*
X46342857Y-117518571D01*
X58154286Y-75378571D02*
X58654286Y-76878571D01*
X59154286Y-75378571D01*
X59654286Y-76878571D02*
X59654286Y-75878571D01*
X59654286Y-75378571D02*
X59582857Y-75450000D01*
X59654286Y-75521429D01*
X59725714Y-75450000D01*
X59654286Y-75378571D01*
X59654286Y-75521429D01*
X60368572Y-75878571D02*
X60368572Y-76878571D01*
X60368572Y-76021429D02*
X60440000Y-75950000D01*
X60582858Y-75878571D01*
X60797143Y-75878571D01*
X60940000Y-75950000D01*
X61011429Y-76092857D01*
X61011429Y-76878571D01*
X41322858Y-75378571D02*
X42180001Y-75378571D01*
X41751430Y-76878571D02*
X41751430Y-75378571D01*
X42537144Y-75378571D02*
X43537144Y-76878571D01*
X43537144Y-75378571D02*
X42537144Y-76878571D01*
X44894286Y-76878571D02*
X44037143Y-76878571D01*
X44465715Y-76878571D02*
X44465715Y-75378571D01*
X44322858Y-75592857D01*
X44180000Y-75735714D01*
X44037143Y-75807143D01*
X52320000Y-104662858D02*
X52320000Y-103948572D01*
X52748571Y-104805715D02*
X51248571Y-104305715D01*
X52748571Y-103805715D01*
X52748571Y-102448572D02*
X52034286Y-102948572D01*
X52748571Y-103305715D02*
X51248571Y-103305715D01*
X51248571Y-102734287D01*
X51320000Y-102591429D01*
X51391429Y-102520001D01*
X51534286Y-102448572D01*
X51748571Y-102448572D01*
X51891429Y-102520001D01*
X51962857Y-102591429D01*
X52034286Y-102734287D01*
X52034286Y-103305715D01*
X52748571Y-101805715D02*
X51248571Y-101805715D01*
X51248571Y-101448572D01*
X51320000Y-101234287D01*
X51462857Y-101091429D01*
X51605714Y-101020001D01*
X51891429Y-100948572D01*
X52105714Y-100948572D01*
X52391429Y-101020001D01*
X52534286Y-101091429D01*
X52677143Y-101234287D01*
X52748571Y-101448572D01*
X52748571Y-101805715D01*
X51248571Y-100305715D02*
X52462857Y-100305715D01*
X52605714Y-100234287D01*
X52677143Y-100162858D01*
X52748571Y-100020001D01*
X52748571Y-99734287D01*
X52677143Y-99591429D01*
X52605714Y-99520001D01*
X52462857Y-99448572D01*
X51248571Y-99448572D01*
X52748571Y-98734286D02*
X51248571Y-98734286D01*
X52748571Y-98020000D02*
X51248571Y-98020000D01*
X52748571Y-97162857D01*
X51248571Y-97162857D01*
X51248571Y-96162857D02*
X51248571Y-95877143D01*
X51320000Y-95734285D01*
X51462857Y-95591428D01*
X51748571Y-95520000D01*
X52248571Y-95520000D01*
X52534286Y-95591428D01*
X52677143Y-95734285D01*
X52748571Y-95877143D01*
X52748571Y-96162857D01*
X52677143Y-96305714D01*
X52534286Y-96448571D01*
X52248571Y-96520000D01*
X51748571Y-96520000D01*
X51462857Y-96448571D01*
X51320000Y-96305714D01*
X51248571Y-96162857D01*
X52748571Y-93734285D02*
X51248571Y-93734285D01*
X52748571Y-92877142D01*
X51248571Y-92877142D01*
X52320000Y-92234285D02*
X52320000Y-91519999D01*
X52748571Y-92377142D02*
X51248571Y-91877142D01*
X52748571Y-91377142D01*
X52748571Y-90877142D02*
X51248571Y-90877142D01*
X52748571Y-90019999D01*
X51248571Y-90019999D01*
X51248571Y-89019999D02*
X51248571Y-88734285D01*
X51320000Y-88591427D01*
X51462857Y-88448570D01*
X51748571Y-88377142D01*
X52248571Y-88377142D01*
X52534286Y-88448570D01*
X52677143Y-88591427D01*
X52748571Y-88734285D01*
X52748571Y-89019999D01*
X52677143Y-89162856D01*
X52534286Y-89305713D01*
X52248571Y-89377142D01*
X51748571Y-89377142D01*
X51462857Y-89305713D01*
X51320000Y-89162856D01*
X51248571Y-89019999D01*
X76057143Y-102048571D02*
X76342857Y-102048571D01*
X76485715Y-102120000D01*
X76628572Y-102262857D01*
X76700000Y-102548571D01*
X76700000Y-103048571D01*
X76628572Y-103334286D01*
X76485715Y-103477143D01*
X76342857Y-103548571D01*
X76057143Y-103548571D01*
X75914286Y-103477143D01*
X75771429Y-103334286D01*
X75700000Y-103048571D01*
X75700000Y-102548571D01*
X75771429Y-102262857D01*
X75914286Y-102120000D01*
X76057143Y-102048571D01*
X75771429Y-101008571D02*
X75771429Y-99508571D01*
X76628572Y-101008571D01*
X76628572Y-99508571D01*
X75700000Y-98468571D02*
X75700000Y-96968571D01*
X76200000Y-98040000D01*
X76700000Y-96968571D01*
X76700000Y-98468571D01*
X76307143Y-95142857D02*
X76521429Y-95214286D01*
X76592857Y-95285714D01*
X76664286Y-95428571D01*
X76664286Y-95642857D01*
X76592857Y-95785714D01*
X76521429Y-95857143D01*
X76378571Y-95928571D01*
X75807143Y-95928571D01*
X75807143Y-94428571D01*
X76307143Y-94428571D01*
X76450000Y-94500000D01*
X76521429Y-94571429D01*
X76592857Y-94714286D01*
X76592857Y-94857143D01*
X76521429Y-95000000D01*
X76450000Y-95071429D01*
X76307143Y-95142857D01*
X75807143Y-95142857D01*
X75700000Y-91888571D02*
X76200000Y-93388571D01*
X76700000Y-91888571D01*
X65448571Y-102290714D02*
X64734286Y-102790714D01*
X65448571Y-103147857D02*
X63948571Y-103147857D01*
X63948571Y-102576429D01*
X64020000Y-102433571D01*
X64091429Y-102362143D01*
X64234286Y-102290714D01*
X64448571Y-102290714D01*
X64591429Y-102362143D01*
X64662857Y-102433571D01*
X64734286Y-102576429D01*
X64734286Y-103147857D01*
X64662857Y-101647857D02*
X64662857Y-101147857D01*
X65448571Y-100933571D02*
X65448571Y-101647857D01*
X63948571Y-101647857D01*
X63948571Y-100933571D01*
X65305714Y-99433571D02*
X65377143Y-99505000D01*
X65448571Y-99719286D01*
X65448571Y-99862143D01*
X65377143Y-100076428D01*
X65234286Y-100219286D01*
X65091429Y-100290714D01*
X64805714Y-100362143D01*
X64591429Y-100362143D01*
X64305714Y-100290714D01*
X64162857Y-100219286D01*
X64020000Y-100076428D01*
X63948571Y-99862143D01*
X63948571Y-99719286D01*
X64020000Y-99505000D01*
X64091429Y-99433571D01*
X75922143Y-121812857D02*
X76422143Y-121812857D01*
X76636429Y-122598571D02*
X75922143Y-122598571D01*
X75922143Y-121098571D01*
X76636429Y-121098571D01*
X77279286Y-122598571D02*
X77279286Y-121098571D01*
X77779286Y-122170000D01*
X78279286Y-121098571D01*
X78279286Y-122598571D01*
D12*
X30480000Y-77470000D02*
X30480000Y-123190000D01*
X30480000Y-123190000D02*
X33020000Y-123190000D01*
X33020000Y-123190000D02*
X33020000Y-77470000D01*
X30200000Y-74650000D02*
X30200000Y-76200000D01*
X30480000Y-77470000D02*
X33020000Y-77470000D01*
X33300000Y-76200000D02*
X33300000Y-74650000D01*
X33300000Y-74650000D02*
X30200000Y-74650000D01*
X71120000Y-86360000D02*
X71120000Y-81280000D01*
X71120000Y-81280000D02*
X73660000Y-81280000D01*
X73660000Y-81280000D02*
X73660000Y-86360000D01*
X73660000Y-86360000D02*
X71120000Y-86360000D01*
X72390000Y-86360000D02*
X72390000Y-87630000D01*
X72390000Y-81280000D02*
X72390000Y-80010000D01*
X69850000Y-95250000D02*
X69850000Y-100330000D01*
X69850000Y-100330000D02*
X67310000Y-100330000D01*
X67310000Y-100330000D02*
X67310000Y-95250000D01*
X67310000Y-95250000D02*
X69850000Y-95250000D01*
X68580000Y-95250000D02*
X68580000Y-93980000D01*
X68580000Y-100330000D02*
X68580000Y-101600000D01*
X63500000Y-119380000D02*
X63500000Y-114300000D01*
X63500000Y-114300000D02*
X66040000Y-114300000D01*
X66040000Y-114300000D02*
X66040000Y-119380000D01*
X66040000Y-119380000D02*
X63500000Y-119380000D01*
X64770000Y-119380000D02*
X64770000Y-120650000D01*
X64770000Y-114300000D02*
X64770000Y-113030000D01*
X38100000Y-107950000D02*
X38100000Y-102870000D01*
X38100000Y-102870000D02*
X40640000Y-102870000D01*
X40640000Y-102870000D02*
X40640000Y-107950000D01*
X40640000Y-107950000D02*
X38100000Y-107950000D01*
X39370000Y-107950000D02*
X39370000Y-109220000D01*
X39370000Y-102870000D02*
X39370000Y-101600000D01*
X39370000Y-81280000D02*
X39370000Y-86360000D01*
X39370000Y-86360000D02*
X36830000Y-86360000D01*
X36830000Y-86360000D02*
X36830000Y-81280000D01*
X36830000Y-81280000D02*
X39370000Y-81280000D01*
X38100000Y-81280000D02*
X38100000Y-80010000D01*
X38100000Y-86360000D02*
X38100000Y-87630000D01*
X35814000Y-96774000D02*
X36322000Y-96266000D01*
X35814000Y-95758000D02*
X35306000Y-96266000D01*
X35306000Y-96266000D02*
X35814000Y-96774000D01*
X40386000Y-93980000D02*
G75*
G03X40386000Y-93980000I-2286000J0D01*
G01*
X40850000Y-93980000D02*
G75*
G03X40850000Y-93980000I-2750000J0D01*
G01*
X75210000Y-120370000D02*
X73660000Y-120370000D01*
X69850000Y-120650000D02*
X72390000Y-120650000D01*
X72390000Y-120650000D02*
X72390000Y-123190000D01*
X73660000Y-123470000D02*
X75210000Y-123470000D01*
X75210000Y-123470000D02*
X75210000Y-120370000D01*
X72390000Y-123190000D02*
X69850000Y-123190000D01*
X69850000Y-123190000D02*
X69850000Y-120650000D01*
X63220000Y-103860000D02*
X63220000Y-105410000D01*
X63500000Y-109220000D02*
X63500000Y-106680000D01*
X63500000Y-106680000D02*
X66040000Y-106680000D01*
X66320000Y-105410000D02*
X66320000Y-103860000D01*
X66320000Y-103860000D02*
X63220000Y-103860000D01*
X66040000Y-106680000D02*
X66040000Y-109220000D01*
X66040000Y-109220000D02*
X63500000Y-109220000D01*
X72390000Y-93980000D02*
X72390000Y-104140000D01*
X72390000Y-104140000D02*
X74930000Y-104140000D01*
X74930000Y-104140000D02*
X74930000Y-93980000D01*
X72110000Y-91160000D02*
X72110000Y-92710000D01*
X72390000Y-93980000D02*
X74930000Y-93980000D01*
X75210000Y-92710000D02*
X75210000Y-91160000D01*
X75210000Y-91160000D02*
X72110000Y-91160000D01*
X60960000Y-80010000D02*
X60960000Y-115570000D01*
X60960000Y-115570000D02*
X58420000Y-115570000D01*
X58420000Y-115570000D02*
X58420000Y-80010000D01*
X58140000Y-77190000D02*
X58140000Y-78740000D01*
X58420000Y-80010000D02*
X60960000Y-80010000D01*
X61240000Y-78740000D02*
X61240000Y-77190000D01*
X61240000Y-77190000D02*
X58140000Y-77190000D01*
X45720000Y-80010000D02*
X45720000Y-115570000D01*
X45720000Y-115570000D02*
X43180000Y-115570000D01*
X43180000Y-115570000D02*
X43180000Y-80010000D01*
X42900000Y-77190000D02*
X42900000Y-78740000D01*
X43180000Y-80010000D02*
X45720000Y-80010000D01*
X46000000Y-78740000D02*
X46000000Y-77190000D01*
X46000000Y-77190000D02*
X42900000Y-77190000D01*
X68582540Y-86106520D02*
X68582540Y-87503520D01*
X68582540Y-81661520D02*
X68582540Y-80137520D01*
X69344540Y-82042520D02*
X67820540Y-82042520D01*
X69344540Y-81788520D02*
X67820540Y-81788520D01*
X68582540Y-81534520D02*
X67820540Y-81534520D01*
X67820540Y-81534520D02*
X67820540Y-86106520D01*
X67820540Y-86106520D02*
X69344540Y-86106520D01*
X69344540Y-86106520D02*
X69344540Y-81534520D01*
X69344540Y-81534520D02*
X68582540Y-81534520D01*
X76200000Y-109220000D02*
X76200000Y-114300000D01*
X76200000Y-114300000D02*
X73660000Y-114300000D01*
X73660000Y-114300000D02*
X73660000Y-109220000D01*
X73660000Y-109220000D02*
X76200000Y-109220000D01*
X74930000Y-109220000D02*
X74930000Y-107950000D01*
X74930000Y-114300000D02*
X74930000Y-115570000D01*
X66040000Y-81280000D02*
X66040000Y-86360000D01*
X66040000Y-86360000D02*
X63500000Y-86360000D01*
X63500000Y-86360000D02*
X63500000Y-81280000D01*
X63500000Y-81280000D02*
X66040000Y-81280000D01*
X64770000Y-81280000D02*
X64770000Y-80010000D01*
X64770000Y-86360000D02*
X64770000Y-87630000D01*
X67564000Y-112014000D02*
X68072000Y-111506000D01*
X67564000Y-110998000D02*
X67056000Y-111506000D01*
X67056000Y-111506000D02*
X67564000Y-112014000D01*
X72136000Y-109220000D02*
G75*
G03X72136000Y-109220000I-2286000J0D01*
G01*
X72600000Y-109220000D02*
G75*
G03X72600000Y-109220000I-2750000J0D01*
G01*
X78660000Y-74741000D02*
X78660000Y-82739000D01*
X78800000Y-74746000D02*
X78800000Y-82734000D01*
X78940000Y-74756000D02*
X78940000Y-82724000D01*
X79080000Y-74771000D02*
X79080000Y-82709000D01*
X79220000Y-74791000D02*
X79220000Y-82689000D01*
X79360000Y-74816000D02*
X79360000Y-78518000D01*
X79360000Y-78962000D02*
X79360000Y-82664000D01*
X79500000Y-74846000D02*
X79500000Y-78190000D01*
X79500000Y-79290000D02*
X79500000Y-82634000D01*
X79640000Y-74882000D02*
X79640000Y-78021000D01*
X79640000Y-79459000D02*
X79640000Y-82598000D01*
X79780000Y-74923000D02*
X79780000Y-77908000D01*
X79780000Y-79572000D02*
X79780000Y-82557000D01*
X79920000Y-74969000D02*
X79920000Y-77830000D01*
X79920000Y-79650000D02*
X79920000Y-82511000D01*
X80060000Y-75022000D02*
X80060000Y-77779000D01*
X80060000Y-79701000D02*
X80060000Y-82458000D01*
X80200000Y-75081000D02*
X80200000Y-77749000D01*
X80200000Y-79731000D02*
X80200000Y-82399000D01*
X80340000Y-75146000D02*
X80340000Y-77740000D01*
X80340000Y-79740000D02*
X80340000Y-82334000D01*
X80480000Y-75217000D02*
X80480000Y-77751000D01*
X80480000Y-79729000D02*
X80480000Y-82263000D01*
X80620000Y-75296000D02*
X80620000Y-77781000D01*
X80620000Y-79699000D02*
X80620000Y-82184000D01*
X80760000Y-75383000D02*
X80760000Y-77835000D01*
X80760000Y-79645000D02*
X80760000Y-82097000D01*
X80900000Y-75478000D02*
X80900000Y-77915000D01*
X80900000Y-79565000D02*
X80900000Y-82002000D01*
X81040000Y-75582000D02*
X81040000Y-78031000D01*
X81040000Y-79449000D02*
X81040000Y-81898000D01*
X81180000Y-75696000D02*
X81180000Y-78205000D01*
X81180000Y-79275000D02*
X81180000Y-81784000D01*
X81320000Y-75821000D02*
X81320000Y-78567000D01*
X81320000Y-78913000D02*
X81320000Y-81659000D01*
X81460000Y-75959000D02*
X81460000Y-81521000D01*
X81600000Y-76111000D02*
X81600000Y-81369000D01*
X81740000Y-76281000D02*
X81740000Y-81199000D01*
X81880000Y-76472000D02*
X81880000Y-81008000D01*
X82020000Y-76690000D02*
X82020000Y-80790000D01*
X82160000Y-76946000D02*
X82160000Y-80534000D01*
X82300000Y-77257000D02*
X82300000Y-80223000D01*
X82440000Y-77673000D02*
X82440000Y-79807000D01*
X82580000Y-78540000D02*
X82580000Y-78940000D01*
X81335000Y-78740000D02*
G75*
G03X81335000Y-78740000I-1000000J0D01*
G01*
X82622500Y-78740000D02*
G75*
G03X82622500Y-78740000I-4037500J0D01*
G01*
X33551905Y-76652381D02*
X33551905Y-75652381D01*
X33932858Y-75652381D01*
X34028096Y-75700000D01*
X34075715Y-75747619D01*
X34123334Y-75842857D01*
X34123334Y-75985714D01*
X34075715Y-76080952D01*
X34028096Y-76128571D01*
X33932858Y-76176190D01*
X33551905Y-76176190D01*
X35075715Y-76652381D02*
X34504286Y-76652381D01*
X34790000Y-76652381D02*
X34790000Y-75652381D01*
X34694762Y-75795238D01*
X34599524Y-75890476D01*
X34504286Y-75938095D01*
X30988096Y-73160000D02*
X30892858Y-73112381D01*
X30750001Y-73112381D01*
X30607143Y-73160000D01*
X30511905Y-73255238D01*
X30464286Y-73350476D01*
X30416667Y-73540952D01*
X30416667Y-73683810D01*
X30464286Y-73874286D01*
X30511905Y-73969524D01*
X30607143Y-74064762D01*
X30750001Y-74112381D01*
X30845239Y-74112381D01*
X30988096Y-74064762D01*
X31035715Y-74017143D01*
X31035715Y-73683810D01*
X30845239Y-73683810D01*
X31464286Y-74112381D02*
X31464286Y-73112381D01*
X32035715Y-74112381D01*
X32035715Y-73112381D01*
X32511905Y-74112381D02*
X32511905Y-73112381D01*
X32750000Y-73112381D01*
X32892858Y-73160000D01*
X32988096Y-73255238D01*
X33035715Y-73350476D01*
X33083334Y-73540952D01*
X33083334Y-73683810D01*
X33035715Y-73874286D01*
X32988096Y-73969524D01*
X32892858Y-74064762D01*
X32750000Y-74112381D01*
X32511905Y-74112381D01*
X72842381Y-83986666D02*
X72366190Y-84320000D01*
X72842381Y-84558095D02*
X71842381Y-84558095D01*
X71842381Y-84177142D01*
X71890000Y-84081904D01*
X71937619Y-84034285D01*
X72032857Y-83986666D01*
X72175714Y-83986666D01*
X72270952Y-84034285D01*
X72318571Y-84081904D01*
X72366190Y-84177142D01*
X72366190Y-84558095D01*
X71842381Y-83081904D02*
X71842381Y-83558095D01*
X72318571Y-83605714D01*
X72270952Y-83558095D01*
X72223333Y-83462857D01*
X72223333Y-83224761D01*
X72270952Y-83129523D01*
X72318571Y-83081904D01*
X72413810Y-83034285D01*
X72651905Y-83034285D01*
X72747143Y-83081904D01*
X72794762Y-83129523D01*
X72842381Y-83224761D01*
X72842381Y-83462857D01*
X72794762Y-83558095D01*
X72747143Y-83605714D01*
X69032381Y-97956666D02*
X68556190Y-98290000D01*
X69032381Y-98528095D02*
X68032381Y-98528095D01*
X68032381Y-98147142D01*
X68080000Y-98051904D01*
X68127619Y-98004285D01*
X68222857Y-97956666D01*
X68365714Y-97956666D01*
X68460952Y-98004285D01*
X68508571Y-98051904D01*
X68556190Y-98147142D01*
X68556190Y-98528095D01*
X68365714Y-97099523D02*
X69032381Y-97099523D01*
X67984762Y-97337619D02*
X68699048Y-97575714D01*
X68699048Y-96956666D01*
X65222381Y-117006666D02*
X64746190Y-117340000D01*
X65222381Y-117578095D02*
X64222381Y-117578095D01*
X64222381Y-117197142D01*
X64270000Y-117101904D01*
X64317619Y-117054285D01*
X64412857Y-117006666D01*
X64555714Y-117006666D01*
X64650952Y-117054285D01*
X64698571Y-117101904D01*
X64746190Y-117197142D01*
X64746190Y-117578095D01*
X64222381Y-116673333D02*
X64222381Y-116054285D01*
X64603333Y-116387619D01*
X64603333Y-116244761D01*
X64650952Y-116149523D01*
X64698571Y-116101904D01*
X64793810Y-116054285D01*
X65031905Y-116054285D01*
X65127143Y-116101904D01*
X65174762Y-116149523D01*
X65222381Y-116244761D01*
X65222381Y-116530476D01*
X65174762Y-116625714D01*
X65127143Y-116673333D01*
X39822381Y-105576666D02*
X39346190Y-105910000D01*
X39822381Y-106148095D02*
X38822381Y-106148095D01*
X38822381Y-105767142D01*
X38870000Y-105671904D01*
X38917619Y-105624285D01*
X39012857Y-105576666D01*
X39155714Y-105576666D01*
X39250952Y-105624285D01*
X39298571Y-105671904D01*
X39346190Y-105767142D01*
X39346190Y-106148095D01*
X38917619Y-105195714D02*
X38870000Y-105148095D01*
X38822381Y-105052857D01*
X38822381Y-104814761D01*
X38870000Y-104719523D01*
X38917619Y-104671904D01*
X39012857Y-104624285D01*
X39108095Y-104624285D01*
X39250952Y-104671904D01*
X39822381Y-105243333D01*
X39822381Y-104624285D01*
X38552381Y-83986666D02*
X38076190Y-84320000D01*
X38552381Y-84558095D02*
X37552381Y-84558095D01*
X37552381Y-84177142D01*
X37600000Y-84081904D01*
X37647619Y-84034285D01*
X37742857Y-83986666D01*
X37885714Y-83986666D01*
X37980952Y-84034285D01*
X38028571Y-84081904D01*
X38076190Y-84177142D01*
X38076190Y-84558095D01*
X38552381Y-83034285D02*
X38552381Y-83605714D01*
X38552381Y-83320000D02*
X37552381Y-83320000D01*
X37695238Y-83415238D01*
X37790476Y-83510476D01*
X37838095Y-83605714D01*
X37377619Y-94075238D02*
X37330000Y-94170476D01*
X37234762Y-94265714D01*
X37091905Y-94408571D01*
X37044286Y-94503810D01*
X37044286Y-94599048D01*
X37282381Y-94551429D02*
X37234762Y-94646667D01*
X37139524Y-94741905D01*
X36949048Y-94789524D01*
X36615714Y-94789524D01*
X36425238Y-94741905D01*
X36330000Y-94646667D01*
X36282381Y-94551429D01*
X36282381Y-94360952D01*
X36330000Y-94265714D01*
X36425238Y-94170476D01*
X36615714Y-94122857D01*
X36949048Y-94122857D01*
X37139524Y-94170476D01*
X37234762Y-94265714D01*
X37282381Y-94360952D01*
X37282381Y-94551429D01*
X37282381Y-93170476D02*
X37282381Y-93741905D01*
X37282381Y-93456191D02*
X36282381Y-93456191D01*
X36425238Y-93551429D01*
X36520476Y-93646667D01*
X36568095Y-93741905D01*
X70381905Y-119832381D02*
X70381905Y-118832381D01*
X70762858Y-118832381D01*
X70858096Y-118880000D01*
X70905715Y-118927619D01*
X70953334Y-119022857D01*
X70953334Y-119165714D01*
X70905715Y-119260952D01*
X70858096Y-119308571D01*
X70762858Y-119356190D01*
X70381905Y-119356190D01*
X71810477Y-118832381D02*
X71620000Y-118832381D01*
X71524762Y-118880000D01*
X71477143Y-118927619D01*
X71381905Y-119070476D01*
X71334286Y-119260952D01*
X71334286Y-119641905D01*
X71381905Y-119737143D01*
X71429524Y-119784762D01*
X71524762Y-119832381D01*
X71715239Y-119832381D01*
X71810477Y-119784762D01*
X71858096Y-119737143D01*
X71905715Y-119641905D01*
X71905715Y-119403810D01*
X71858096Y-119308571D01*
X71810477Y-119260952D01*
X71715239Y-119213333D01*
X71524762Y-119213333D01*
X71429524Y-119260952D01*
X71381905Y-119308571D01*
X71334286Y-119403810D01*
X62682381Y-106148095D02*
X61682381Y-106148095D01*
X61682381Y-105767142D01*
X61730000Y-105671904D01*
X61777619Y-105624285D01*
X61872857Y-105576666D01*
X62015714Y-105576666D01*
X62110952Y-105624285D01*
X62158571Y-105671904D01*
X62206190Y-105767142D01*
X62206190Y-106148095D01*
X61682381Y-104671904D02*
X61682381Y-105148095D01*
X62158571Y-105195714D01*
X62110952Y-105148095D01*
X62063333Y-105052857D01*
X62063333Y-104814761D01*
X62110952Y-104719523D01*
X62158571Y-104671904D01*
X62253810Y-104624285D01*
X62491905Y-104624285D01*
X62587143Y-104671904D01*
X62634762Y-104719523D01*
X62682381Y-104814761D01*
X62682381Y-105052857D01*
X62634762Y-105148095D01*
X62587143Y-105195714D01*
X71572381Y-93448095D02*
X70572381Y-93448095D01*
X70572381Y-93067142D01*
X70620000Y-92971904D01*
X70667619Y-92924285D01*
X70762857Y-92876666D01*
X70905714Y-92876666D01*
X71000952Y-92924285D01*
X71048571Y-92971904D01*
X71096190Y-93067142D01*
X71096190Y-93448095D01*
X70905714Y-92019523D02*
X71572381Y-92019523D01*
X70524762Y-92257619D02*
X71239048Y-92495714D01*
X71239048Y-91876666D01*
X62682381Y-79478095D02*
X61682381Y-79478095D01*
X61682381Y-79097142D01*
X61730000Y-79001904D01*
X61777619Y-78954285D01*
X61872857Y-78906666D01*
X62015714Y-78906666D01*
X62110952Y-78954285D01*
X62158571Y-79001904D01*
X62206190Y-79097142D01*
X62206190Y-79478095D01*
X61682381Y-78573333D02*
X61682381Y-77954285D01*
X62063333Y-78287619D01*
X62063333Y-78144761D01*
X62110952Y-78049523D01*
X62158571Y-78001904D01*
X62253810Y-77954285D01*
X62491905Y-77954285D01*
X62587143Y-78001904D01*
X62634762Y-78049523D01*
X62682381Y-78144761D01*
X62682381Y-78430476D01*
X62634762Y-78525714D01*
X62587143Y-78573333D01*
X47442381Y-79478095D02*
X46442381Y-79478095D01*
X46442381Y-79097142D01*
X46490000Y-79001904D01*
X46537619Y-78954285D01*
X46632857Y-78906666D01*
X46775714Y-78906666D01*
X46870952Y-78954285D01*
X46918571Y-79001904D01*
X46966190Y-79097142D01*
X46966190Y-79478095D01*
X46537619Y-78525714D02*
X46490000Y-78478095D01*
X46442381Y-78382857D01*
X46442381Y-78144761D01*
X46490000Y-78049523D01*
X46537619Y-78001904D01*
X46632857Y-77954285D01*
X46728095Y-77954285D01*
X46870952Y-78001904D01*
X47442381Y-78573333D01*
X47442381Y-77954285D01*
X69032381Y-84558095D02*
X68032381Y-84558095D01*
X68032381Y-84320000D01*
X68080000Y-84177142D01*
X68175238Y-84081904D01*
X68270476Y-84034285D01*
X68460952Y-83986666D01*
X68603810Y-83986666D01*
X68794286Y-84034285D01*
X68889524Y-84081904D01*
X68984762Y-84177142D01*
X69032381Y-84320000D01*
X69032381Y-84558095D01*
X69032381Y-83034285D02*
X69032381Y-83605714D01*
X69032381Y-83320000D02*
X68032381Y-83320000D01*
X68175238Y-83415238D01*
X68270476Y-83510476D01*
X68318095Y-83605714D01*
X75382381Y-111926666D02*
X74906190Y-112260000D01*
X75382381Y-112498095D02*
X74382381Y-112498095D01*
X74382381Y-112117142D01*
X74430000Y-112021904D01*
X74477619Y-111974285D01*
X74572857Y-111926666D01*
X74715714Y-111926666D01*
X74810952Y-111974285D01*
X74858571Y-112021904D01*
X74906190Y-112117142D01*
X74906190Y-112498095D01*
X74382381Y-111593333D02*
X74382381Y-110926666D01*
X75382381Y-111355238D01*
X65222381Y-83986666D02*
X64746190Y-84320000D01*
X65222381Y-84558095D02*
X64222381Y-84558095D01*
X64222381Y-84177142D01*
X64270000Y-84081904D01*
X64317619Y-84034285D01*
X64412857Y-83986666D01*
X64555714Y-83986666D01*
X64650952Y-84034285D01*
X64698571Y-84081904D01*
X64746190Y-84177142D01*
X64746190Y-84558095D01*
X64222381Y-83129523D02*
X64222381Y-83320000D01*
X64270000Y-83415238D01*
X64317619Y-83462857D01*
X64460476Y-83558095D01*
X64650952Y-83605714D01*
X65031905Y-83605714D01*
X65127143Y-83558095D01*
X65174762Y-83510476D01*
X65222381Y-83415238D01*
X65222381Y-83224761D01*
X65174762Y-83129523D01*
X65127143Y-83081904D01*
X65031905Y-83034285D01*
X64793810Y-83034285D01*
X64698571Y-83081904D01*
X64650952Y-83129523D01*
X64603333Y-83224761D01*
X64603333Y-83415238D01*
X64650952Y-83510476D01*
X64698571Y-83558095D01*
X64793810Y-83605714D01*
X69127619Y-109315238D02*
X69080000Y-109410476D01*
X68984762Y-109505714D01*
X68841905Y-109648571D01*
X68794286Y-109743810D01*
X68794286Y-109839048D01*
X69032381Y-109791429D02*
X68984762Y-109886667D01*
X68889524Y-109981905D01*
X68699048Y-110029524D01*
X68365714Y-110029524D01*
X68175238Y-109981905D01*
X68080000Y-109886667D01*
X68032381Y-109791429D01*
X68032381Y-109600952D01*
X68080000Y-109505714D01*
X68175238Y-109410476D01*
X68365714Y-109362857D01*
X68699048Y-109362857D01*
X68889524Y-109410476D01*
X68984762Y-109505714D01*
X69032381Y-109600952D01*
X69032381Y-109791429D01*
X68127619Y-108981905D02*
X68080000Y-108934286D01*
X68032381Y-108839048D01*
X68032381Y-108600952D01*
X68080000Y-108505714D01*
X68127619Y-108458095D01*
X68222857Y-108410476D01*
X68318095Y-108410476D01*
X68460952Y-108458095D01*
X69032381Y-109029524D01*
X69032381Y-108410476D01*
X76668334Y-77192143D02*
X76620715Y-77239762D01*
X76477858Y-77287381D01*
X76382620Y-77287381D01*
X76239762Y-77239762D01*
X76144524Y-77144524D01*
X76096905Y-77049286D01*
X76049286Y-76858810D01*
X76049286Y-76715952D01*
X76096905Y-76525476D01*
X76144524Y-76430238D01*
X76239762Y-76335000D01*
X76382620Y-76287381D01*
X76477858Y-76287381D01*
X76620715Y-76335000D01*
X76668334Y-76382619D01*
X77620715Y-77287381D02*
X77049286Y-77287381D01*
X77335000Y-77287381D02*
X77335000Y-76287381D01*
X77239762Y-76430238D01*
X77144524Y-76525476D01*
X77049286Y-76573095D01*
M02*
