M48
INCH,TZ
T1C0.032
T2C0.035
T3C0.039
T4C0.040
%
G90
G05
T1
X35500Y-34000
X37500Y-34000
T2
X35500Y-31000
X37469Y-31000
T3
X36500Y-25000
X36500Y-29000
T4
X34000Y-25000
X34000Y-26000
X34000Y-27000
X34000Y-28000
X34000Y-29000
X34000Y-30000
X34000Y-31000
X34000Y-32000
X34000Y-33000
X34000Y-34000
X34000Y-35000
X34000Y-36000
X34000Y-37000
X34000Y-38000
X34000Y-39000
X34000Y-40000
X34000Y-41000
X34000Y-42000
X34000Y-43000
T0
M30
