G04 #@! TF.FileFunction,Soldermask,Bot*
%FSLAX46Y46*%
G04 Gerber Fmt 4.6, Leading zero omitted, Abs format (unit mm)*
G04 Created by KiCad (PCBNEW 4.0.4+e1-6308~48~ubuntu16.04.1-stable) date Mon Oct 24 15:14:34 2016*
%MOMM*%
%LPD*%
G01*
G04 APERTURE LIST*
%ADD10C,0.100000*%
%ADD11R,1.800000X1.800000*%
%ADD12C,1.800000*%
%ADD13R,1.670000X5.480000*%
%ADD14C,1.700000*%
%ADD15R,1.700000X1.700000*%
%ADD16R,2.432000X2.432000*%
%ADD17O,2.432000X2.432000*%
%ADD18R,2.432000X2.127200*%
%ADD19O,2.432000X2.127200*%
%ADD20C,2.099260*%
%ADD21R,2.099260X2.099260*%
G04 APERTURE END LIST*
D10*
D11*
X64770000Y-88265000D03*
D12*
X64770000Y-93265000D03*
D11*
X82550000Y-88900000D03*
D12*
X87550000Y-88900000D03*
D11*
X82550000Y-96520000D03*
D12*
X87550000Y-96520000D03*
D13*
X79375000Y-128270000D03*
X88265000Y-128270000D03*
X79375000Y-81280000D03*
X70485000Y-81280000D03*
X98425000Y-81280000D03*
X89535000Y-81280000D03*
D14*
X68270000Y-125730000D03*
D15*
X64770000Y-125730000D03*
D16*
X73660000Y-127000000D03*
D17*
X76200000Y-127000000D03*
D16*
X67310000Y-82550000D03*
D17*
X64770000Y-82550000D03*
D16*
X86360000Y-82550000D03*
D17*
X83820000Y-82550000D03*
D11*
X77978000Y-99949000D03*
D12*
X72978000Y-99949000D03*
D18*
X59690000Y-82550000D03*
D19*
X59690000Y-85090000D03*
X59690000Y-87630000D03*
X59690000Y-90170000D03*
X59690000Y-92710000D03*
X59690000Y-95250000D03*
X59690000Y-97790000D03*
X59690000Y-100330000D03*
X59690000Y-102870000D03*
X59690000Y-105410000D03*
X59690000Y-107950000D03*
X59690000Y-110490000D03*
X59690000Y-113030000D03*
X59690000Y-115570000D03*
X59690000Y-118110000D03*
X59690000Y-120650000D03*
X59690000Y-123190000D03*
X59690000Y-125730000D03*
X59690000Y-128270000D03*
D20*
X90167460Y-104139480D03*
D21*
X90167460Y-114299480D03*
D20*
X93982540Y-114300520D03*
D21*
X93982540Y-104140520D03*
M02*
