G04 #@! TF.FileFunction,Legend,Bot*
%FSLAX46Y46*%
G04 Gerber Fmt 4.6, Leading zero omitted, Abs format (unit mm)*
G04 Created by KiCad (PCBNEW 4.0.3+e1-6302~38~ubuntu16.04.1-stable) date Fri Aug 26 17:08:26 2016*
%MOMM*%
%LPD*%
G01*
G04 APERTURE LIST*
%ADD10C,0.100000*%
%ADD11C,0.300000*%
G04 APERTURE END LIST*
D10*
D11*
X107941428Y-74338571D02*
X107941428Y-72838571D01*
X107584285Y-72838571D01*
X107370000Y-72910000D01*
X107227142Y-73052857D01*
X107155714Y-73195714D01*
X107084285Y-73481429D01*
X107084285Y-73695714D01*
X107155714Y-73981429D01*
X107227142Y-74124286D01*
X107370000Y-74267143D01*
X107584285Y-74338571D01*
X107941428Y-74338571D01*
X105941428Y-73552857D02*
X105727142Y-73624286D01*
X105655714Y-73695714D01*
X105584285Y-73838571D01*
X105584285Y-74052857D01*
X105655714Y-74195714D01*
X105727142Y-74267143D01*
X105870000Y-74338571D01*
X106441428Y-74338571D01*
X106441428Y-72838571D01*
X105941428Y-72838571D01*
X105798571Y-72910000D01*
X105727142Y-72981429D01*
X105655714Y-73124286D01*
X105655714Y-73267143D01*
X105727142Y-73410000D01*
X105798571Y-73481429D01*
X105941428Y-73552857D01*
X106441428Y-73552857D01*
X105298571Y-74481429D02*
X104155714Y-74481429D01*
X103798571Y-74338571D02*
X103798571Y-72838571D01*
X103798571Y-73552857D02*
X102941428Y-73552857D01*
X102941428Y-74338571D02*
X102941428Y-72838571D01*
X102441428Y-72838571D02*
X101941428Y-74338571D01*
X101441428Y-72838571D01*
X101298571Y-74481429D02*
X100155714Y-74481429D01*
X100012857Y-72838571D02*
X99512857Y-74338571D01*
X99012857Y-72838571D01*
X98584286Y-72981429D02*
X98512857Y-72910000D01*
X98370000Y-72838571D01*
X98012857Y-72838571D01*
X97870000Y-72910000D01*
X97798571Y-72981429D01*
X97727143Y-73124286D01*
X97727143Y-73267143D01*
X97798571Y-73481429D01*
X98655714Y-74338571D01*
X97727143Y-74338571D01*
M02*
