M48
;DRILL file {KiCad 4.0.3+e1-6302~38~ubuntu16.04.1-stable} date Fri Aug 26 17:08:28 2016
;FORMAT={-:-/ absolute / inch / decimal}
FMAT,2
INCH,TZ
T1C0.030
T2C0.031
T3C0.032
T4C0.040
%
G90
G05
M72
T1
X2.55Y-2.3
X2.55Y-2.4
X2.55Y-2.9
X2.55Y-3.
X2.55Y-3.1
X2.55Y-3.3
X3.15Y-2.3
X3.15Y-2.4
X3.15Y-2.9
X3.15Y-3.
X3.15Y-3.1
X3.15Y-3.3
T2
X3.35Y-3.55
X3.35Y-3.6878
T3
X3.4Y-2.9
X3.5Y-2.8
X3.5Y-3.
T4
X2.35Y-2.15
X2.35Y-2.25
X2.35Y-2.35
X2.35Y-2.45
X2.35Y-2.55
X2.35Y-2.65
X2.35Y-2.75
X2.35Y-2.85
X2.35Y-2.95
X2.35Y-3.05
X2.35Y-3.15
X2.35Y-3.25
X2.35Y-3.35
X2.35Y-3.45
X2.35Y-3.55
X2.35Y-3.65
X2.35Y-3.75
X2.35Y-3.85
X2.35Y-3.95
X2.75Y-3.95
X2.85Y-3.95
X5.15Y-2.15
X5.15Y-2.25
X5.15Y-2.35
X5.15Y-2.45
X5.15Y-2.55
X5.15Y-2.65
X5.15Y-2.75
X5.15Y-2.85
X5.15Y-2.95
X5.15Y-3.05
X5.15Y-3.15
X5.15Y-3.25
X5.15Y-3.35
X5.15Y-3.45
X5.15Y-3.55
X5.15Y-3.65
X5.15Y-3.75
X5.15Y-3.85
X5.15Y-3.95
T0
M30
