G04 #@! TF.FileFunction,Legend,Top*
%FSLAX46Y46*%
G04 Gerber Fmt 4.6, Leading zero omitted, Abs format (unit mm)*
G04 Created by KiCad (PCBNEW 4.0.3+e1-6302~38~ubuntu16.04.1-stable) date Thu Aug 25 17:10:37 2016*
%MOMM*%
%LPD*%
G01*
G04 APERTURE LIST*
%ADD10C,0.100000*%
%ADD11C,0.150000*%
G04 APERTURE END LIST*
D10*
D11*
X143530000Y-108200000D02*
X143530000Y-105200000D01*
X146030000Y-105200000D02*
X146030000Y-108200000D01*
X135890000Y-113030000D02*
X135890000Y-107950000D01*
X135890000Y-107950000D02*
X138430000Y-107950000D01*
X138430000Y-107950000D02*
X138430000Y-113030000D01*
X138430000Y-113030000D02*
X135890000Y-113030000D01*
X137160000Y-113030000D02*
X137160000Y-114300000D01*
X137160000Y-107950000D02*
X137160000Y-106680000D01*
X137413480Y-119382540D02*
X136016480Y-119382540D01*
X141858480Y-119382540D02*
X143382480Y-119382540D01*
X141477480Y-120144540D02*
X141477480Y-118620540D01*
X141731480Y-120144540D02*
X141731480Y-118620540D01*
X141985480Y-119382540D02*
X141985480Y-118620540D01*
X141985480Y-118620540D02*
X137413480Y-118620540D01*
X137413480Y-118620540D02*
X137413480Y-120144540D01*
X137413480Y-120144540D02*
X141985480Y-120144540D01*
X141985480Y-120144540D02*
X141985480Y-119382540D01*
X147320000Y-106680000D02*
X147320000Y-152400000D01*
X147320000Y-152400000D02*
X149860000Y-152400000D01*
X149860000Y-152400000D02*
X149860000Y-106680000D01*
X147040000Y-103860000D02*
X147040000Y-105410000D01*
X147320000Y-106680000D02*
X149860000Y-106680000D01*
X150140000Y-105410000D02*
X150140000Y-103860000D01*
X150140000Y-103860000D02*
X147040000Y-103860000D01*
X129540000Y-106680000D02*
X129540000Y-152400000D01*
X129540000Y-152400000D02*
X132080000Y-152400000D01*
X132080000Y-152400000D02*
X132080000Y-106680000D01*
X129260000Y-103860000D02*
X129260000Y-105410000D01*
X129540000Y-106680000D02*
X132080000Y-106680000D01*
X132360000Y-105410000D02*
X132360000Y-103860000D01*
X132360000Y-103860000D02*
X129260000Y-103860000D01*
X143232143Y-106846666D02*
X143279762Y-106894285D01*
X143327381Y-107037142D01*
X143327381Y-107132380D01*
X143279762Y-107275238D01*
X143184524Y-107370476D01*
X143089286Y-107418095D01*
X142898810Y-107465714D01*
X142755952Y-107465714D01*
X142565476Y-107418095D01*
X142470238Y-107370476D01*
X142375000Y-107275238D01*
X142327381Y-107132380D01*
X142327381Y-107037142D01*
X142375000Y-106894285D01*
X142422619Y-106846666D01*
X143327381Y-105894285D02*
X143327381Y-106465714D01*
X143327381Y-106180000D02*
X142327381Y-106180000D01*
X142470238Y-106275238D01*
X142565476Y-106370476D01*
X142613095Y-106465714D01*
X135707381Y-110656666D02*
X135231190Y-110990000D01*
X135707381Y-111228095D02*
X134707381Y-111228095D01*
X134707381Y-110847142D01*
X134755000Y-110751904D01*
X134802619Y-110704285D01*
X134897857Y-110656666D01*
X135040714Y-110656666D01*
X135135952Y-110704285D01*
X135183571Y-110751904D01*
X135231190Y-110847142D01*
X135231190Y-111228095D01*
X135707381Y-109704285D02*
X135707381Y-110275714D01*
X135707381Y-109990000D02*
X134707381Y-109990000D01*
X134850238Y-110085238D01*
X134945476Y-110180476D01*
X134993095Y-110275714D01*
X138961905Y-118562381D02*
X138961905Y-117562381D01*
X139200000Y-117562381D01*
X139342858Y-117610000D01*
X139438096Y-117705238D01*
X139485715Y-117800476D01*
X139533334Y-117990952D01*
X139533334Y-118133810D01*
X139485715Y-118324286D01*
X139438096Y-118419524D01*
X139342858Y-118514762D01*
X139200000Y-118562381D01*
X138961905Y-118562381D01*
X140485715Y-118562381D02*
X139914286Y-118562381D01*
X140200000Y-118562381D02*
X140200000Y-117562381D01*
X140104762Y-117705238D01*
X140009524Y-117800476D01*
X139914286Y-117848095D01*
X145311905Y-103957381D02*
X145311905Y-102957381D01*
X145692858Y-102957381D01*
X145788096Y-103005000D01*
X145835715Y-103052619D01*
X145883334Y-103147857D01*
X145883334Y-103290714D01*
X145835715Y-103385952D01*
X145788096Y-103433571D01*
X145692858Y-103481190D01*
X145311905Y-103481190D01*
X146264286Y-103052619D02*
X146311905Y-103005000D01*
X146407143Y-102957381D01*
X146645239Y-102957381D01*
X146740477Y-103005000D01*
X146788096Y-103052619D01*
X146835715Y-103147857D01*
X146835715Y-103243095D01*
X146788096Y-103385952D01*
X146216667Y-103957381D01*
X146835715Y-103957381D01*
X147828096Y-102370000D02*
X147732858Y-102322381D01*
X147590001Y-102322381D01*
X147447143Y-102370000D01*
X147351905Y-102465238D01*
X147304286Y-102560476D01*
X147256667Y-102750952D01*
X147256667Y-102893810D01*
X147304286Y-103084286D01*
X147351905Y-103179524D01*
X147447143Y-103274762D01*
X147590001Y-103322381D01*
X147685239Y-103322381D01*
X147828096Y-103274762D01*
X147875715Y-103227143D01*
X147875715Y-102893810D01*
X147685239Y-102893810D01*
X148304286Y-103322381D02*
X148304286Y-102322381D01*
X148875715Y-103322381D01*
X148875715Y-102322381D01*
X149351905Y-103322381D02*
X149351905Y-102322381D01*
X149590000Y-102322381D01*
X149732858Y-102370000D01*
X149828096Y-102465238D01*
X149875715Y-102560476D01*
X149923334Y-102750952D01*
X149923334Y-102893810D01*
X149875715Y-103084286D01*
X149828096Y-103179524D01*
X149732858Y-103274762D01*
X149590000Y-103322381D01*
X149351905Y-103322381D01*
X132611905Y-105862381D02*
X132611905Y-104862381D01*
X132992858Y-104862381D01*
X133088096Y-104910000D01*
X133135715Y-104957619D01*
X133183334Y-105052857D01*
X133183334Y-105195714D01*
X133135715Y-105290952D01*
X133088096Y-105338571D01*
X132992858Y-105386190D01*
X132611905Y-105386190D01*
X134135715Y-105862381D02*
X133564286Y-105862381D01*
X133850000Y-105862381D02*
X133850000Y-104862381D01*
X133754762Y-105005238D01*
X133659524Y-105100476D01*
X133564286Y-105148095D01*
X130048096Y-102370000D02*
X129952858Y-102322381D01*
X129810001Y-102322381D01*
X129667143Y-102370000D01*
X129571905Y-102465238D01*
X129524286Y-102560476D01*
X129476667Y-102750952D01*
X129476667Y-102893810D01*
X129524286Y-103084286D01*
X129571905Y-103179524D01*
X129667143Y-103274762D01*
X129810001Y-103322381D01*
X129905239Y-103322381D01*
X130048096Y-103274762D01*
X130095715Y-103227143D01*
X130095715Y-102893810D01*
X129905239Y-102893810D01*
X130524286Y-103322381D02*
X130524286Y-102322381D01*
X131095715Y-103322381D01*
X131095715Y-102322381D01*
X131571905Y-103322381D02*
X131571905Y-102322381D01*
X131810000Y-102322381D01*
X131952858Y-102370000D01*
X132048096Y-102465238D01*
X132095715Y-102560476D01*
X132143334Y-102750952D01*
X132143334Y-102893810D01*
X132095715Y-103084286D01*
X132048096Y-103179524D01*
X131952858Y-103274762D01*
X131810000Y-103322381D01*
X131571905Y-103322381D01*
M02*
