G04 #@! TF.FileFunction,Legend,Bot*
%FSLAX46Y46*%
G04 Gerber Fmt 4.6, Leading zero omitted, Abs format (unit mm)*
G04 Created by KiCad (PCBNEW 4.0.3+e1-6302~38~ubuntu16.04.1-stable) date Thu Aug 25 17:10:37 2016*
%MOMM*%
%LPD*%
G01*
G04 APERTURE LIST*
%ADD10C,0.100000*%
%ADD11C,0.250000*%
G04 APERTURE END LIST*
D10*
D11*
X139644381Y-119539903D02*
X138644381Y-119539903D01*
X138644381Y-119777998D01*
X138692000Y-119920856D01*
X138787238Y-120016094D01*
X138882476Y-120063713D01*
X139072952Y-120111332D01*
X139215810Y-120111332D01*
X139406286Y-120063713D01*
X139501524Y-120016094D01*
X139596762Y-119920856D01*
X139644381Y-119777998D01*
X139644381Y-119539903D01*
X139120571Y-120873237D02*
X139168190Y-121016094D01*
X139215810Y-121063713D01*
X139311048Y-121111332D01*
X139453905Y-121111332D01*
X139549143Y-121063713D01*
X139596762Y-121016094D01*
X139644381Y-120920856D01*
X139644381Y-120539903D01*
X138644381Y-120539903D01*
X138644381Y-120873237D01*
X138692000Y-120968475D01*
X138739619Y-121016094D01*
X138834857Y-121063713D01*
X138930095Y-121063713D01*
X139025333Y-121016094D01*
X139072952Y-120968475D01*
X139120571Y-120873237D01*
X139120571Y-120539903D01*
X139739619Y-121301808D02*
X139739619Y-122063713D01*
X139120571Y-122301808D02*
X139120571Y-122635142D01*
X139644381Y-122777999D02*
X139644381Y-122301808D01*
X138644381Y-122301808D01*
X138644381Y-122777999D01*
X138977714Y-123206570D02*
X139644381Y-123206570D01*
X139072952Y-123206570D02*
X139025333Y-123254189D01*
X138977714Y-123349427D01*
X138977714Y-123492285D01*
X139025333Y-123587523D01*
X139120571Y-123635142D01*
X139644381Y-123635142D01*
X138977714Y-124016094D02*
X139644381Y-124254189D01*
X138977714Y-124492285D01*
X139596762Y-125254190D02*
X139644381Y-125158952D01*
X139644381Y-124968475D01*
X139596762Y-124873237D01*
X139501524Y-124825618D01*
X139120571Y-124825618D01*
X139025333Y-124873237D01*
X138977714Y-124968475D01*
X138977714Y-125158952D01*
X139025333Y-125254190D01*
X139120571Y-125301809D01*
X139215810Y-125301809D01*
X139311048Y-124825618D01*
X139644381Y-125873237D02*
X139596762Y-125777999D01*
X139501524Y-125730380D01*
X138644381Y-125730380D01*
X139644381Y-126397047D02*
X139596762Y-126301809D01*
X139549143Y-126254190D01*
X139453905Y-126206571D01*
X139168190Y-126206571D01*
X139072952Y-126254190D01*
X139025333Y-126301809D01*
X138977714Y-126397047D01*
X138977714Y-126539905D01*
X139025333Y-126635143D01*
X139072952Y-126682762D01*
X139168190Y-126730381D01*
X139453905Y-126730381D01*
X139549143Y-126682762D01*
X139596762Y-126635143D01*
X139644381Y-126539905D01*
X139644381Y-126397047D01*
X138977714Y-127158952D02*
X139977714Y-127158952D01*
X139025333Y-127158952D02*
X138977714Y-127254190D01*
X138977714Y-127444667D01*
X139025333Y-127539905D01*
X139072952Y-127587524D01*
X139168190Y-127635143D01*
X139453905Y-127635143D01*
X139549143Y-127587524D01*
X139596762Y-127539905D01*
X139644381Y-127444667D01*
X139644381Y-127254190D01*
X139596762Y-127158952D01*
X139596762Y-128444667D02*
X139644381Y-128349429D01*
X139644381Y-128158952D01*
X139596762Y-128063714D01*
X139501524Y-128016095D01*
X139120571Y-128016095D01*
X139025333Y-128063714D01*
X138977714Y-128158952D01*
X138977714Y-128349429D01*
X139025333Y-128444667D01*
X139120571Y-128492286D01*
X139215810Y-128492286D01*
X139311048Y-128016095D01*
X139739619Y-128682762D02*
X139739619Y-129444667D01*
X139644381Y-129682762D02*
X138644381Y-129682762D01*
X138644381Y-129920857D01*
X138692000Y-130063715D01*
X138787238Y-130158953D01*
X138882476Y-130206572D01*
X139072952Y-130254191D01*
X139215810Y-130254191D01*
X139406286Y-130206572D01*
X139501524Y-130158953D01*
X139596762Y-130063715D01*
X139644381Y-129920857D01*
X139644381Y-129682762D01*
X139596762Y-131063715D02*
X139644381Y-130968477D01*
X139644381Y-130778000D01*
X139596762Y-130682762D01*
X139501524Y-130635143D01*
X139120571Y-130635143D01*
X139025333Y-130682762D01*
X138977714Y-130778000D01*
X138977714Y-130968477D01*
X139025333Y-131063715D01*
X139120571Y-131111334D01*
X139215810Y-131111334D01*
X139311048Y-130635143D01*
X138977714Y-131397048D02*
X138977714Y-131778000D01*
X138644381Y-131539905D02*
X139501524Y-131539905D01*
X139596762Y-131587524D01*
X139644381Y-131682762D01*
X139644381Y-131778000D01*
X139596762Y-132492287D02*
X139644381Y-132397049D01*
X139644381Y-132206572D01*
X139596762Y-132111334D01*
X139501524Y-132063715D01*
X139120571Y-132063715D01*
X139025333Y-132111334D01*
X138977714Y-132206572D01*
X138977714Y-132397049D01*
X139025333Y-132492287D01*
X139120571Y-132539906D01*
X139215810Y-132539906D01*
X139311048Y-132063715D01*
X139596762Y-133397049D02*
X139644381Y-133301811D01*
X139644381Y-133111334D01*
X139596762Y-133016096D01*
X139549143Y-132968477D01*
X139453905Y-132920858D01*
X139168190Y-132920858D01*
X139072952Y-132968477D01*
X139025333Y-133016096D01*
X138977714Y-133111334D01*
X138977714Y-133301811D01*
X139025333Y-133397049D01*
X138977714Y-133682763D02*
X138977714Y-134063715D01*
X138644381Y-133825620D02*
X139501524Y-133825620D01*
X139596762Y-133873239D01*
X139644381Y-133968477D01*
X139644381Y-134063715D01*
X139644381Y-134539906D02*
X139596762Y-134444668D01*
X139549143Y-134397049D01*
X139453905Y-134349430D01*
X139168190Y-134349430D01*
X139072952Y-134397049D01*
X139025333Y-134444668D01*
X138977714Y-134539906D01*
X138977714Y-134682764D01*
X139025333Y-134778002D01*
X139072952Y-134825621D01*
X139168190Y-134873240D01*
X139453905Y-134873240D01*
X139549143Y-134825621D01*
X139596762Y-134778002D01*
X139644381Y-134682764D01*
X139644381Y-134539906D01*
X139644381Y-135301811D02*
X138977714Y-135301811D01*
X139168190Y-135301811D02*
X139072952Y-135349430D01*
X139025333Y-135397049D01*
X138977714Y-135492287D01*
X138977714Y-135587526D01*
X139739619Y-135682764D02*
X139739619Y-136444669D01*
X138644381Y-136539907D02*
X139644381Y-136873240D01*
X138644381Y-137206574D01*
X139644381Y-138063717D02*
X139644381Y-137492288D01*
X139644381Y-137778002D02*
X138644381Y-137778002D01*
X138787238Y-137682764D01*
X138882476Y-137587526D01*
X138930095Y-137492288D01*
M02*
