%FSLAX45Y45*%
G04 Gerber Fmt 4.5, Leading zero omitted, Abs format (unit mm)*
G04 Created by KiCad (PCBNEW 4.0.3+e1-6302~38~ubuntu16.04.1-stable) date Thu Aug 25 11:32:29 2016*
%MOMM*%
%LPD*%
G01*
G04 APERTURE LIST*
%ADD10C,0.127000*%
%ADD11C,0.150000*%
%ADD12C,0.200000*%
%ADD13C,0.300000*%
G04 APERTURE END LIST*
D10*
D11*
X15113000Y-10160000D02*
X12827000Y-10160000D01*
X15113000Y-15367000D02*
X15113000Y-10160000D01*
X12827000Y-15367000D02*
X15113000Y-15367000D01*
X12827000Y-10160000D02*
X12827000Y-15367000D01*
D12*
X13426896Y-11903202D02*
X13497000Y-11973306D01*
X13497000Y-11903202D02*
X13426896Y-11973306D01*
X14442896Y-11903202D02*
X14513000Y-11973306D01*
X14513000Y-11903202D02*
X14442896Y-11973306D01*
X14518000Y-10795000D02*
G75*
G03X14518000Y-10795000I-40000J0D01*
G01*
X14478000Y-10504995D02*
X14478000Y-10585005D01*
X14437995Y-10545000D02*
X14518005Y-10545000D01*
X13751382Y-10576383D02*
X13751382Y-10505618D01*
X13680617Y-10505618D01*
X13680617Y-10576383D01*
X13751382Y-10576383D01*
X13751382Y-11592382D02*
X13751382Y-11521617D01*
X13680617Y-11521617D01*
X13680617Y-11592382D01*
X13751382Y-11592382D01*
X13081000Y-10591800D02*
X13131800Y-10541000D01*
X13081000Y-10490200D01*
X13030200Y-10541000D01*
X13081000Y-10591800D01*
X13081000Y-10845800D02*
X13131800Y-10795000D01*
X13081000Y-10744200D01*
X13030200Y-10795000D01*
X13081000Y-10845800D01*
X13081000Y-11099800D02*
X13131800Y-11049000D01*
X13081000Y-10998200D01*
X13030200Y-11049000D01*
X13081000Y-11099800D01*
X13081000Y-11353800D02*
X13131800Y-11303000D01*
X13081000Y-11252200D01*
X13030200Y-11303000D01*
X13081000Y-11353800D01*
X13081000Y-11607800D02*
X13131800Y-11557000D01*
X13081000Y-11506200D01*
X13030200Y-11557000D01*
X13081000Y-11607800D01*
X13081000Y-11861800D02*
X13131800Y-11811000D01*
X13081000Y-11760200D01*
X13030200Y-11811000D01*
X13081000Y-11861800D01*
X13081000Y-12115800D02*
X13131800Y-12065000D01*
X13081000Y-12014200D01*
X13030200Y-12065000D01*
X13081000Y-12115800D01*
X13081000Y-12369800D02*
X13131800Y-12319000D01*
X13081000Y-12268200D01*
X13030200Y-12319000D01*
X13081000Y-12369800D01*
X13081000Y-12623800D02*
X13131800Y-12573000D01*
X13081000Y-12522200D01*
X13030200Y-12573000D01*
X13081000Y-12623800D01*
X13081000Y-12877800D02*
X13131800Y-12827000D01*
X13081000Y-12776200D01*
X13030200Y-12827000D01*
X13081000Y-12877800D01*
X13081000Y-13131800D02*
X13131800Y-13081000D01*
X13081000Y-13030200D01*
X13030200Y-13081000D01*
X13081000Y-13131800D01*
X13081000Y-13385800D02*
X13131800Y-13335000D01*
X13081000Y-13284200D01*
X13030200Y-13335000D01*
X13081000Y-13385800D01*
X13081000Y-13639800D02*
X13131800Y-13589000D01*
X13081000Y-13538200D01*
X13030200Y-13589000D01*
X13081000Y-13639800D01*
X13081000Y-13893800D02*
X13131800Y-13843000D01*
X13081000Y-13792200D01*
X13030200Y-13843000D01*
X13081000Y-13893800D01*
X13081000Y-14147800D02*
X13131800Y-14097000D01*
X13081000Y-14046200D01*
X13030200Y-14097000D01*
X13081000Y-14147800D01*
X13081000Y-14401800D02*
X13131800Y-14351000D01*
X13081000Y-14300200D01*
X13030200Y-14351000D01*
X13081000Y-14401800D01*
X13081000Y-14655800D02*
X13131800Y-14605000D01*
X13081000Y-14554200D01*
X13030200Y-14605000D01*
X13081000Y-14655800D01*
X13081000Y-14909800D02*
X13131800Y-14859000D01*
X13081000Y-14808200D01*
X13030200Y-14859000D01*
X13081000Y-14909800D01*
X13081000Y-15163800D02*
X13131800Y-15113000D01*
X13081000Y-15062200D01*
X13030200Y-15113000D01*
X13081000Y-15163800D01*
X14859000Y-10591800D02*
X14909800Y-10541000D01*
X14859000Y-10490200D01*
X14808200Y-10541000D01*
X14859000Y-10591800D01*
X14859000Y-10845800D02*
X14909800Y-10795000D01*
X14859000Y-10744200D01*
X14808200Y-10795000D01*
X14859000Y-10845800D01*
X14859000Y-11099800D02*
X14909800Y-11049000D01*
X14859000Y-10998200D01*
X14808200Y-11049000D01*
X14859000Y-11099800D01*
X14859000Y-11353800D02*
X14909800Y-11303000D01*
X14859000Y-11252200D01*
X14808200Y-11303000D01*
X14859000Y-11353800D01*
X14859000Y-11607800D02*
X14909800Y-11557000D01*
X14859000Y-11506200D01*
X14808200Y-11557000D01*
X14859000Y-11607800D01*
X14859000Y-11861800D02*
X14909800Y-11811000D01*
X14859000Y-11760200D01*
X14808200Y-11811000D01*
X14859000Y-11861800D01*
X14859000Y-12115800D02*
X14909800Y-12065000D01*
X14859000Y-12014200D01*
X14808200Y-12065000D01*
X14859000Y-12115800D01*
X14859000Y-12369800D02*
X14909800Y-12319000D01*
X14859000Y-12268200D01*
X14808200Y-12319000D01*
X14859000Y-12369800D01*
X14859000Y-12623800D02*
X14909800Y-12573000D01*
X14859000Y-12522200D01*
X14808200Y-12573000D01*
X14859000Y-12623800D01*
X14859000Y-12877800D02*
X14909800Y-12827000D01*
X14859000Y-12776200D01*
X14808200Y-12827000D01*
X14859000Y-12877800D01*
X14859000Y-13131800D02*
X14909800Y-13081000D01*
X14859000Y-13030200D01*
X14808200Y-13081000D01*
X14859000Y-13131800D01*
X14859000Y-13385800D02*
X14909800Y-13335000D01*
X14859000Y-13284200D01*
X14808200Y-13335000D01*
X14859000Y-13385800D01*
X14859000Y-13639800D02*
X14909800Y-13589000D01*
X14859000Y-13538200D01*
X14808200Y-13589000D01*
X14859000Y-13639800D01*
X14859000Y-13893800D02*
X14909800Y-13843000D01*
X14859000Y-13792200D01*
X14808200Y-13843000D01*
X14859000Y-13893800D01*
X14859000Y-14147800D02*
X14909800Y-14097000D01*
X14859000Y-14046200D01*
X14808200Y-14097000D01*
X14859000Y-14147800D01*
X14859000Y-14401800D02*
X14909800Y-14351000D01*
X14859000Y-14300200D01*
X14808200Y-14351000D01*
X14859000Y-14401800D01*
X14859000Y-14655800D02*
X14909800Y-14605000D01*
X14859000Y-14554200D01*
X14808200Y-14605000D01*
X14859000Y-14655800D01*
X14859000Y-14909800D02*
X14909800Y-14859000D01*
X14859000Y-14808200D01*
X14808200Y-14859000D01*
X14859000Y-14909800D01*
X14859000Y-15163800D02*
X14909800Y-15113000D01*
X14859000Y-15062200D01*
X14808200Y-15113000D01*
X14859000Y-15163800D01*
D13*
X13090928Y-15840214D02*
X13090928Y-15540214D01*
X13162357Y-15540214D01*
X13205214Y-15554500D01*
X13233786Y-15583071D01*
X13248071Y-15611643D01*
X13262357Y-15668786D01*
X13262357Y-15711643D01*
X13248071Y-15768786D01*
X13233786Y-15797357D01*
X13205214Y-15825929D01*
X13162357Y-15840214D01*
X13090928Y-15840214D01*
X13390928Y-15840214D02*
X13390928Y-15640214D01*
X13390928Y-15697357D02*
X13405214Y-15668786D01*
X13419500Y-15654500D01*
X13448071Y-15640214D01*
X13476643Y-15640214D01*
X13576643Y-15840214D02*
X13576643Y-15640214D01*
X13576643Y-15540214D02*
X13562357Y-15554500D01*
X13576643Y-15568786D01*
X13590928Y-15554500D01*
X13576643Y-15540214D01*
X13576643Y-15568786D01*
X13762357Y-15840214D02*
X13733786Y-15825929D01*
X13719500Y-15797357D01*
X13719500Y-15540214D01*
X13919500Y-15840214D02*
X13890928Y-15825929D01*
X13876643Y-15797357D01*
X13876643Y-15540214D01*
X14262357Y-15840214D02*
X14262357Y-15540214D01*
X14362357Y-15754500D01*
X14462357Y-15540214D01*
X14462357Y-15840214D01*
X14733786Y-15840214D02*
X14733786Y-15683071D01*
X14719500Y-15654500D01*
X14690928Y-15640214D01*
X14633786Y-15640214D01*
X14605214Y-15654500D01*
X14733786Y-15825929D02*
X14705214Y-15840214D01*
X14633786Y-15840214D01*
X14605214Y-15825929D01*
X14590928Y-15797357D01*
X14590928Y-15768786D01*
X14605214Y-15740214D01*
X14633786Y-15725929D01*
X14705214Y-15725929D01*
X14733786Y-15711643D01*
X14876643Y-15640214D02*
X14876643Y-15940214D01*
X14876643Y-15654500D02*
X14905214Y-15640214D01*
X14962357Y-15640214D01*
X14990928Y-15654500D01*
X15005214Y-15668786D01*
X15019500Y-15697357D01*
X15019500Y-15783071D01*
X15005214Y-15811643D01*
X14990928Y-15825929D01*
X14962357Y-15840214D01*
X14905214Y-15840214D01*
X14876643Y-15825929D01*
X15148071Y-15811643D02*
X15162357Y-15825929D01*
X15148071Y-15840214D01*
X15133786Y-15825929D01*
X15148071Y-15811643D01*
X15148071Y-15840214D01*
X15148071Y-15654500D02*
X15162357Y-15668786D01*
X15148071Y-15683071D01*
X15133786Y-15668786D01*
X15148071Y-15654500D01*
X15148071Y-15683071D01*
X12749396Y-16299448D02*
X12819500Y-16369552D01*
X12819500Y-16299448D02*
X12749396Y-16369552D01*
X13148071Y-16170214D02*
X13176643Y-16170214D01*
X13205214Y-16184500D01*
X13219500Y-16198786D01*
X13233786Y-16227357D01*
X13248071Y-16284500D01*
X13248071Y-16355929D01*
X13233786Y-16413071D01*
X13219500Y-16441643D01*
X13205214Y-16455929D01*
X13176643Y-16470214D01*
X13148071Y-16470214D01*
X13119500Y-16455929D01*
X13105214Y-16441643D01*
X13090928Y-16413071D01*
X13076643Y-16355929D01*
X13076643Y-16284500D01*
X13090928Y-16227357D01*
X13105214Y-16198786D01*
X13119500Y-16184500D01*
X13148071Y-16170214D01*
X13376643Y-16441643D02*
X13390928Y-16455929D01*
X13376643Y-16470214D01*
X13362357Y-16455929D01*
X13376643Y-16441643D01*
X13376643Y-16470214D01*
X13490928Y-16170214D02*
X13690928Y-16170214D01*
X13562357Y-16470214D01*
X13862357Y-16170214D02*
X13890928Y-16170214D01*
X13919500Y-16184500D01*
X13933786Y-16198786D01*
X13948071Y-16227357D01*
X13962357Y-16284500D01*
X13962357Y-16355929D01*
X13948071Y-16413071D01*
X13933786Y-16441643D01*
X13919500Y-16455929D01*
X13890928Y-16470214D01*
X13862357Y-16470214D01*
X13833786Y-16455929D01*
X13819500Y-16441643D01*
X13805214Y-16413071D01*
X13790928Y-16355929D01*
X13790928Y-16284500D01*
X13805214Y-16227357D01*
X13819500Y-16198786D01*
X13833786Y-16184500D01*
X13862357Y-16170214D01*
X14090928Y-16470214D02*
X14090928Y-16270214D01*
X14090928Y-16298786D02*
X14105214Y-16284500D01*
X14133786Y-16270214D01*
X14176643Y-16270214D01*
X14205214Y-16284500D01*
X14219500Y-16313071D01*
X14219500Y-16470214D01*
X14219500Y-16313071D02*
X14233786Y-16284500D01*
X14262357Y-16270214D01*
X14305214Y-16270214D01*
X14333786Y-16284500D01*
X14348071Y-16313071D01*
X14348071Y-16470214D01*
X14490928Y-16470214D02*
X14490928Y-16270214D01*
X14490928Y-16298786D02*
X14505214Y-16284500D01*
X14533786Y-16270214D01*
X14576643Y-16270214D01*
X14605214Y-16284500D01*
X14619500Y-16313071D01*
X14619500Y-16470214D01*
X14619500Y-16313071D02*
X14633786Y-16284500D01*
X14662357Y-16270214D01*
X14705214Y-16270214D01*
X14733786Y-16284500D01*
X14748071Y-16313071D01*
X14748071Y-16470214D01*
X15333786Y-16155929D02*
X15076643Y-16541643D01*
X15719500Y-16170214D02*
X15748071Y-16170214D01*
X15776643Y-16184500D01*
X15790928Y-16198786D01*
X15805214Y-16227357D01*
X15819500Y-16284500D01*
X15819500Y-16355929D01*
X15805214Y-16413071D01*
X15790928Y-16441643D01*
X15776643Y-16455929D01*
X15748071Y-16470214D01*
X15719500Y-16470214D01*
X15690928Y-16455929D01*
X15676643Y-16441643D01*
X15662357Y-16413071D01*
X15648071Y-16355929D01*
X15648071Y-16284500D01*
X15662357Y-16227357D01*
X15676643Y-16198786D01*
X15690928Y-16184500D01*
X15719500Y-16170214D01*
X15948071Y-16441643D02*
X15962357Y-16455929D01*
X15948071Y-16470214D01*
X15933786Y-16455929D01*
X15948071Y-16441643D01*
X15948071Y-16470214D01*
X16148071Y-16170214D02*
X16176643Y-16170214D01*
X16205214Y-16184500D01*
X16219500Y-16198786D01*
X16233785Y-16227357D01*
X16248071Y-16284500D01*
X16248071Y-16355929D01*
X16233785Y-16413071D01*
X16219500Y-16441643D01*
X16205214Y-16455929D01*
X16176643Y-16470214D01*
X16148071Y-16470214D01*
X16119500Y-16455929D01*
X16105214Y-16441643D01*
X16090928Y-16413071D01*
X16076643Y-16355929D01*
X16076643Y-16284500D01*
X16090928Y-16227357D01*
X16105214Y-16198786D01*
X16119500Y-16184500D01*
X16148071Y-16170214D01*
X16362357Y-16198786D02*
X16376643Y-16184500D01*
X16405214Y-16170214D01*
X16476643Y-16170214D01*
X16505214Y-16184500D01*
X16519500Y-16198786D01*
X16533785Y-16227357D01*
X16533785Y-16255929D01*
X16519500Y-16298786D01*
X16348071Y-16470214D01*
X16533785Y-16470214D01*
X16705214Y-16298786D02*
X16676643Y-16284500D01*
X16662357Y-16270214D01*
X16648071Y-16241643D01*
X16648071Y-16227357D01*
X16662357Y-16198786D01*
X16676643Y-16184500D01*
X16705214Y-16170214D01*
X16762357Y-16170214D01*
X16790928Y-16184500D01*
X16805214Y-16198786D01*
X16819500Y-16227357D01*
X16819500Y-16241643D01*
X16805214Y-16270214D01*
X16790928Y-16284500D01*
X16762357Y-16298786D01*
X16705214Y-16298786D01*
X16676643Y-16313071D01*
X16662357Y-16327357D01*
X16648071Y-16355929D01*
X16648071Y-16413071D01*
X16662357Y-16441643D01*
X16676643Y-16455929D01*
X16705214Y-16470214D01*
X16762357Y-16470214D01*
X16790928Y-16455929D01*
X16805214Y-16441643D01*
X16819500Y-16413071D01*
X16819500Y-16355929D01*
X16805214Y-16327357D01*
X16790928Y-16313071D01*
X16762357Y-16298786D01*
X16933786Y-16170214D02*
X16933786Y-16227357D01*
X17048071Y-16170214D02*
X17048071Y-16227357D01*
X17490928Y-16584500D02*
X17476643Y-16570214D01*
X17448071Y-16527357D01*
X17433786Y-16498786D01*
X17419500Y-16455929D01*
X17405214Y-16384500D01*
X17405214Y-16327357D01*
X17419500Y-16255929D01*
X17433786Y-16213071D01*
X17448071Y-16184500D01*
X17476643Y-16141643D01*
X17490928Y-16127357D01*
X17590928Y-16198786D02*
X17605214Y-16184500D01*
X17633786Y-16170214D01*
X17705214Y-16170214D01*
X17733786Y-16184500D01*
X17748071Y-16198786D01*
X17762357Y-16227357D01*
X17762357Y-16255929D01*
X17748071Y-16298786D01*
X17576643Y-16470214D01*
X17762357Y-16470214D01*
X18119500Y-16470214D02*
X18119500Y-16170214D01*
X18248071Y-16470214D02*
X18248071Y-16313071D01*
X18233786Y-16284500D01*
X18205214Y-16270214D01*
X18162357Y-16270214D01*
X18133786Y-16284500D01*
X18119500Y-16298786D01*
X18433786Y-16470214D02*
X18405214Y-16455929D01*
X18390928Y-16441643D01*
X18376643Y-16413071D01*
X18376643Y-16327357D01*
X18390928Y-16298786D01*
X18405214Y-16284500D01*
X18433786Y-16270214D01*
X18476643Y-16270214D01*
X18505214Y-16284500D01*
X18519500Y-16298786D01*
X18533786Y-16327357D01*
X18533786Y-16413071D01*
X18519500Y-16441643D01*
X18505214Y-16455929D01*
X18476643Y-16470214D01*
X18433786Y-16470214D01*
X18705214Y-16470214D02*
X18676643Y-16455929D01*
X18662357Y-16427357D01*
X18662357Y-16170214D01*
X18933786Y-16455929D02*
X18905214Y-16470214D01*
X18848071Y-16470214D01*
X18819500Y-16455929D01*
X18805214Y-16427357D01*
X18805214Y-16313071D01*
X18819500Y-16284500D01*
X18848071Y-16270214D01*
X18905214Y-16270214D01*
X18933786Y-16284500D01*
X18948071Y-16313071D01*
X18948071Y-16341643D01*
X18805214Y-16370214D01*
X19062357Y-16455929D02*
X19090929Y-16470214D01*
X19148071Y-16470214D01*
X19176643Y-16455929D01*
X19190929Y-16427357D01*
X19190929Y-16413071D01*
X19176643Y-16384500D01*
X19148071Y-16370214D01*
X19105214Y-16370214D01*
X19076643Y-16355929D01*
X19062357Y-16327357D01*
X19062357Y-16313071D01*
X19076643Y-16284500D01*
X19105214Y-16270214D01*
X19148071Y-16270214D01*
X19176643Y-16284500D01*
X19290928Y-16584500D02*
X19305214Y-16570214D01*
X19333786Y-16527357D01*
X19348071Y-16498786D01*
X19362357Y-16455929D01*
X19376643Y-16384500D01*
X19376643Y-16327357D01*
X19362357Y-16255929D01*
X19348071Y-16213071D01*
X19333786Y-16184500D01*
X19305214Y-16141643D01*
X19290928Y-16127357D01*
X12819500Y-16730500D02*
G75*
G03X12819500Y-16730500I-40000J0D01*
G01*
X13148071Y-16566214D02*
X13176643Y-16566214D01*
X13205214Y-16580500D01*
X13219500Y-16594786D01*
X13233786Y-16623357D01*
X13248071Y-16680500D01*
X13248071Y-16751929D01*
X13233786Y-16809072D01*
X13219500Y-16837643D01*
X13205214Y-16851929D01*
X13176643Y-16866214D01*
X13148071Y-16866214D01*
X13119500Y-16851929D01*
X13105214Y-16837643D01*
X13090928Y-16809072D01*
X13076643Y-16751929D01*
X13076643Y-16680500D01*
X13090928Y-16623357D01*
X13105214Y-16594786D01*
X13119500Y-16580500D01*
X13148071Y-16566214D01*
X13376643Y-16837643D02*
X13390928Y-16851929D01*
X13376643Y-16866214D01*
X13362357Y-16851929D01*
X13376643Y-16837643D01*
X13376643Y-16866214D01*
X13562357Y-16694786D02*
X13533786Y-16680500D01*
X13519500Y-16666214D01*
X13505214Y-16637643D01*
X13505214Y-16623357D01*
X13519500Y-16594786D01*
X13533786Y-16580500D01*
X13562357Y-16566214D01*
X13619500Y-16566214D01*
X13648071Y-16580500D01*
X13662357Y-16594786D01*
X13676643Y-16623357D01*
X13676643Y-16637643D01*
X13662357Y-16666214D01*
X13648071Y-16680500D01*
X13619500Y-16694786D01*
X13562357Y-16694786D01*
X13533786Y-16709071D01*
X13519500Y-16723357D01*
X13505214Y-16751929D01*
X13505214Y-16809072D01*
X13519500Y-16837643D01*
X13533786Y-16851929D01*
X13562357Y-16866214D01*
X13619500Y-16866214D01*
X13648071Y-16851929D01*
X13662357Y-16837643D01*
X13676643Y-16809072D01*
X13676643Y-16751929D01*
X13662357Y-16723357D01*
X13648071Y-16709071D01*
X13619500Y-16694786D01*
X13862357Y-16566214D02*
X13890928Y-16566214D01*
X13919500Y-16580500D01*
X13933786Y-16594786D01*
X13948071Y-16623357D01*
X13962357Y-16680500D01*
X13962357Y-16751929D01*
X13948071Y-16809072D01*
X13933786Y-16837643D01*
X13919500Y-16851929D01*
X13890928Y-16866214D01*
X13862357Y-16866214D01*
X13833786Y-16851929D01*
X13819500Y-16837643D01*
X13805214Y-16809072D01*
X13790928Y-16751929D01*
X13790928Y-16680500D01*
X13805214Y-16623357D01*
X13819500Y-16594786D01*
X13833786Y-16580500D01*
X13862357Y-16566214D01*
X14090928Y-16866214D02*
X14090928Y-16666214D01*
X14090928Y-16694786D02*
X14105214Y-16680500D01*
X14133786Y-16666214D01*
X14176643Y-16666214D01*
X14205214Y-16680500D01*
X14219500Y-16709071D01*
X14219500Y-16866214D01*
X14219500Y-16709071D02*
X14233786Y-16680500D01*
X14262357Y-16666214D01*
X14305214Y-16666214D01*
X14333786Y-16680500D01*
X14348071Y-16709071D01*
X14348071Y-16866214D01*
X14490928Y-16866214D02*
X14490928Y-16666214D01*
X14490928Y-16694786D02*
X14505214Y-16680500D01*
X14533786Y-16666214D01*
X14576643Y-16666214D01*
X14605214Y-16680500D01*
X14619500Y-16709071D01*
X14619500Y-16866214D01*
X14619500Y-16709071D02*
X14633786Y-16680500D01*
X14662357Y-16666214D01*
X14705214Y-16666214D01*
X14733786Y-16680500D01*
X14748071Y-16709071D01*
X14748071Y-16866214D01*
X15333786Y-16551929D02*
X15076643Y-16937643D01*
X15719500Y-16566214D02*
X15748071Y-16566214D01*
X15776643Y-16580500D01*
X15790928Y-16594786D01*
X15805214Y-16623357D01*
X15819500Y-16680500D01*
X15819500Y-16751929D01*
X15805214Y-16809072D01*
X15790928Y-16837643D01*
X15776643Y-16851929D01*
X15748071Y-16866214D01*
X15719500Y-16866214D01*
X15690928Y-16851929D01*
X15676643Y-16837643D01*
X15662357Y-16809072D01*
X15648071Y-16751929D01*
X15648071Y-16680500D01*
X15662357Y-16623357D01*
X15676643Y-16594786D01*
X15690928Y-16580500D01*
X15719500Y-16566214D01*
X15948071Y-16837643D02*
X15962357Y-16851929D01*
X15948071Y-16866214D01*
X15933786Y-16851929D01*
X15948071Y-16837643D01*
X15948071Y-16866214D01*
X16148071Y-16566214D02*
X16176643Y-16566214D01*
X16205214Y-16580500D01*
X16219500Y-16594786D01*
X16233785Y-16623357D01*
X16248071Y-16680500D01*
X16248071Y-16751929D01*
X16233785Y-16809072D01*
X16219500Y-16837643D01*
X16205214Y-16851929D01*
X16176643Y-16866214D01*
X16148071Y-16866214D01*
X16119500Y-16851929D01*
X16105214Y-16837643D01*
X16090928Y-16809072D01*
X16076643Y-16751929D01*
X16076643Y-16680500D01*
X16090928Y-16623357D01*
X16105214Y-16594786D01*
X16119500Y-16580500D01*
X16148071Y-16566214D01*
X16348071Y-16566214D02*
X16533785Y-16566214D01*
X16433785Y-16680500D01*
X16476643Y-16680500D01*
X16505214Y-16694786D01*
X16519500Y-16709071D01*
X16533785Y-16737643D01*
X16533785Y-16809072D01*
X16519500Y-16837643D01*
X16505214Y-16851929D01*
X16476643Y-16866214D01*
X16390928Y-16866214D01*
X16362357Y-16851929D01*
X16348071Y-16837643D01*
X16819500Y-16866214D02*
X16648071Y-16866214D01*
X16733785Y-16866214D02*
X16733785Y-16566214D01*
X16705214Y-16609071D01*
X16676643Y-16637643D01*
X16648071Y-16651929D01*
X16933786Y-16566214D02*
X16933786Y-16623357D01*
X17048071Y-16566214D02*
X17048071Y-16623357D01*
X17490928Y-16980500D02*
X17476643Y-16966214D01*
X17448071Y-16923357D01*
X17433786Y-16894786D01*
X17419500Y-16851929D01*
X17405214Y-16780500D01*
X17405214Y-16723357D01*
X17419500Y-16651929D01*
X17433786Y-16609071D01*
X17448071Y-16580500D01*
X17476643Y-16537643D01*
X17490928Y-16523357D01*
X17762357Y-16866214D02*
X17590928Y-16866214D01*
X17676643Y-16866214D02*
X17676643Y-16566214D01*
X17648071Y-16609071D01*
X17619500Y-16637643D01*
X17590928Y-16651929D01*
X18119500Y-16866214D02*
X18119500Y-16566214D01*
X18248071Y-16866214D02*
X18248071Y-16709071D01*
X18233786Y-16680500D01*
X18205214Y-16666214D01*
X18162357Y-16666214D01*
X18133786Y-16680500D01*
X18119500Y-16694786D01*
X18433786Y-16866214D02*
X18405214Y-16851929D01*
X18390928Y-16837643D01*
X18376643Y-16809072D01*
X18376643Y-16723357D01*
X18390928Y-16694786D01*
X18405214Y-16680500D01*
X18433786Y-16666214D01*
X18476643Y-16666214D01*
X18505214Y-16680500D01*
X18519500Y-16694786D01*
X18533786Y-16723357D01*
X18533786Y-16809072D01*
X18519500Y-16837643D01*
X18505214Y-16851929D01*
X18476643Y-16866214D01*
X18433786Y-16866214D01*
X18705214Y-16866214D02*
X18676643Y-16851929D01*
X18662357Y-16823357D01*
X18662357Y-16566214D01*
X18933786Y-16851929D02*
X18905214Y-16866214D01*
X18848071Y-16866214D01*
X18819500Y-16851929D01*
X18805214Y-16823357D01*
X18805214Y-16709071D01*
X18819500Y-16680500D01*
X18848071Y-16666214D01*
X18905214Y-16666214D01*
X18933786Y-16680500D01*
X18948071Y-16709071D01*
X18948071Y-16737643D01*
X18805214Y-16766214D01*
X19048071Y-16980500D02*
X19062357Y-16966214D01*
X19090929Y-16923357D01*
X19105214Y-16894786D01*
X19119500Y-16851929D01*
X19133786Y-16780500D01*
X19133786Y-16723357D01*
X19119500Y-16651929D01*
X19105214Y-16609071D01*
X19090929Y-16580500D01*
X19062357Y-16537643D01*
X19048071Y-16523357D01*
X12779495Y-17086495D02*
X12779495Y-17166505D01*
X12739490Y-17126500D02*
X12819500Y-17126500D01*
X13148071Y-16962214D02*
X13176643Y-16962214D01*
X13205214Y-16976500D01*
X13219500Y-16990786D01*
X13233786Y-17019357D01*
X13248071Y-17076500D01*
X13248071Y-17147929D01*
X13233786Y-17205072D01*
X13219500Y-17233643D01*
X13205214Y-17247929D01*
X13176643Y-17262214D01*
X13148071Y-17262214D01*
X13119500Y-17247929D01*
X13105214Y-17233643D01*
X13090928Y-17205072D01*
X13076643Y-17147929D01*
X13076643Y-17076500D01*
X13090928Y-17019357D01*
X13105214Y-16990786D01*
X13119500Y-16976500D01*
X13148071Y-16962214D01*
X13376643Y-17233643D02*
X13390928Y-17247929D01*
X13376643Y-17262214D01*
X13362357Y-17247929D01*
X13376643Y-17233643D01*
X13376643Y-17262214D01*
X13562357Y-17090786D02*
X13533786Y-17076500D01*
X13519500Y-17062214D01*
X13505214Y-17033643D01*
X13505214Y-17019357D01*
X13519500Y-16990786D01*
X13533786Y-16976500D01*
X13562357Y-16962214D01*
X13619500Y-16962214D01*
X13648071Y-16976500D01*
X13662357Y-16990786D01*
X13676643Y-17019357D01*
X13676643Y-17033643D01*
X13662357Y-17062214D01*
X13648071Y-17076500D01*
X13619500Y-17090786D01*
X13562357Y-17090786D01*
X13533786Y-17105072D01*
X13519500Y-17119357D01*
X13505214Y-17147929D01*
X13505214Y-17205072D01*
X13519500Y-17233643D01*
X13533786Y-17247929D01*
X13562357Y-17262214D01*
X13619500Y-17262214D01*
X13648071Y-17247929D01*
X13662357Y-17233643D01*
X13676643Y-17205072D01*
X13676643Y-17147929D01*
X13662357Y-17119357D01*
X13648071Y-17105072D01*
X13619500Y-17090786D01*
X13862357Y-16962214D02*
X13890928Y-16962214D01*
X13919500Y-16976500D01*
X13933786Y-16990786D01*
X13948071Y-17019357D01*
X13962357Y-17076500D01*
X13962357Y-17147929D01*
X13948071Y-17205072D01*
X13933786Y-17233643D01*
X13919500Y-17247929D01*
X13890928Y-17262214D01*
X13862357Y-17262214D01*
X13833786Y-17247929D01*
X13819500Y-17233643D01*
X13805214Y-17205072D01*
X13790928Y-17147929D01*
X13790928Y-17076500D01*
X13805214Y-17019357D01*
X13819500Y-16990786D01*
X13833786Y-16976500D01*
X13862357Y-16962214D01*
X14090928Y-17262214D02*
X14090928Y-17062214D01*
X14090928Y-17090786D02*
X14105214Y-17076500D01*
X14133786Y-17062214D01*
X14176643Y-17062214D01*
X14205214Y-17076500D01*
X14219500Y-17105072D01*
X14219500Y-17262214D01*
X14219500Y-17105072D02*
X14233786Y-17076500D01*
X14262357Y-17062214D01*
X14305214Y-17062214D01*
X14333786Y-17076500D01*
X14348071Y-17105072D01*
X14348071Y-17262214D01*
X14490928Y-17262214D02*
X14490928Y-17062214D01*
X14490928Y-17090786D02*
X14505214Y-17076500D01*
X14533786Y-17062214D01*
X14576643Y-17062214D01*
X14605214Y-17076500D01*
X14619500Y-17105072D01*
X14619500Y-17262214D01*
X14619500Y-17105072D02*
X14633786Y-17076500D01*
X14662357Y-17062214D01*
X14705214Y-17062214D01*
X14733786Y-17076500D01*
X14748071Y-17105072D01*
X14748071Y-17262214D01*
X15333786Y-16947929D02*
X15076643Y-17333643D01*
X15719500Y-16962214D02*
X15748071Y-16962214D01*
X15776643Y-16976500D01*
X15790928Y-16990786D01*
X15805214Y-17019357D01*
X15819500Y-17076500D01*
X15819500Y-17147929D01*
X15805214Y-17205072D01*
X15790928Y-17233643D01*
X15776643Y-17247929D01*
X15748071Y-17262214D01*
X15719500Y-17262214D01*
X15690928Y-17247929D01*
X15676643Y-17233643D01*
X15662357Y-17205072D01*
X15648071Y-17147929D01*
X15648071Y-17076500D01*
X15662357Y-17019357D01*
X15676643Y-16990786D01*
X15690928Y-16976500D01*
X15719500Y-16962214D01*
X15948071Y-17233643D02*
X15962357Y-17247929D01*
X15948071Y-17262214D01*
X15933786Y-17247929D01*
X15948071Y-17233643D01*
X15948071Y-17262214D01*
X16148071Y-16962214D02*
X16176643Y-16962214D01*
X16205214Y-16976500D01*
X16219500Y-16990786D01*
X16233785Y-17019357D01*
X16248071Y-17076500D01*
X16248071Y-17147929D01*
X16233785Y-17205072D01*
X16219500Y-17233643D01*
X16205214Y-17247929D01*
X16176643Y-17262214D01*
X16148071Y-17262214D01*
X16119500Y-17247929D01*
X16105214Y-17233643D01*
X16090928Y-17205072D01*
X16076643Y-17147929D01*
X16076643Y-17076500D01*
X16090928Y-17019357D01*
X16105214Y-16990786D01*
X16119500Y-16976500D01*
X16148071Y-16962214D01*
X16348071Y-16962214D02*
X16533785Y-16962214D01*
X16433785Y-17076500D01*
X16476643Y-17076500D01*
X16505214Y-17090786D01*
X16519500Y-17105072D01*
X16533785Y-17133643D01*
X16533785Y-17205072D01*
X16519500Y-17233643D01*
X16505214Y-17247929D01*
X16476643Y-17262214D01*
X16390928Y-17262214D01*
X16362357Y-17247929D01*
X16348071Y-17233643D01*
X16648071Y-16990786D02*
X16662357Y-16976500D01*
X16690928Y-16962214D01*
X16762357Y-16962214D01*
X16790928Y-16976500D01*
X16805214Y-16990786D01*
X16819500Y-17019357D01*
X16819500Y-17047929D01*
X16805214Y-17090786D01*
X16633785Y-17262214D01*
X16819500Y-17262214D01*
X16933786Y-16962214D02*
X16933786Y-17019357D01*
X17048071Y-16962214D02*
X17048071Y-17019357D01*
X17490928Y-17376500D02*
X17476643Y-17362214D01*
X17448071Y-17319357D01*
X17433786Y-17290786D01*
X17419500Y-17247929D01*
X17405214Y-17176500D01*
X17405214Y-17119357D01*
X17419500Y-17047929D01*
X17433786Y-17005072D01*
X17448071Y-16976500D01*
X17476643Y-16933643D01*
X17490928Y-16919357D01*
X17762357Y-17262214D02*
X17590928Y-17262214D01*
X17676643Y-17262214D02*
X17676643Y-16962214D01*
X17648071Y-17005072D01*
X17619500Y-17033643D01*
X17590928Y-17047929D01*
X18119500Y-17262214D02*
X18119500Y-16962214D01*
X18248071Y-17262214D02*
X18248071Y-17105072D01*
X18233786Y-17076500D01*
X18205214Y-17062214D01*
X18162357Y-17062214D01*
X18133786Y-17076500D01*
X18119500Y-17090786D01*
X18433786Y-17262214D02*
X18405214Y-17247929D01*
X18390928Y-17233643D01*
X18376643Y-17205072D01*
X18376643Y-17119357D01*
X18390928Y-17090786D01*
X18405214Y-17076500D01*
X18433786Y-17062214D01*
X18476643Y-17062214D01*
X18505214Y-17076500D01*
X18519500Y-17090786D01*
X18533786Y-17119357D01*
X18533786Y-17205072D01*
X18519500Y-17233643D01*
X18505214Y-17247929D01*
X18476643Y-17262214D01*
X18433786Y-17262214D01*
X18705214Y-17262214D02*
X18676643Y-17247929D01*
X18662357Y-17219357D01*
X18662357Y-16962214D01*
X18933786Y-17247929D02*
X18905214Y-17262214D01*
X18848071Y-17262214D01*
X18819500Y-17247929D01*
X18805214Y-17219357D01*
X18805214Y-17105072D01*
X18819500Y-17076500D01*
X18848071Y-17062214D01*
X18905214Y-17062214D01*
X18933786Y-17076500D01*
X18948071Y-17105072D01*
X18948071Y-17133643D01*
X18805214Y-17162214D01*
X19048071Y-17376500D02*
X19062357Y-17362214D01*
X19090929Y-17319357D01*
X19105214Y-17290786D01*
X19119500Y-17247929D01*
X19133786Y-17176500D01*
X19133786Y-17119357D01*
X19119500Y-17047929D01*
X19105214Y-17005072D01*
X19090929Y-16976500D01*
X19062357Y-16933643D01*
X19048071Y-16919357D01*
X12804844Y-17557883D02*
X12804844Y-17487118D01*
X12734079Y-17487118D01*
X12734079Y-17557883D01*
X12804844Y-17557883D01*
X13248071Y-17658214D02*
X13076643Y-17658214D01*
X13162357Y-17658214D02*
X13162357Y-17358214D01*
X13133786Y-17401072D01*
X13105214Y-17429643D01*
X13076643Y-17443929D01*
X13376643Y-17629643D02*
X13390928Y-17643929D01*
X13376643Y-17658214D01*
X13362357Y-17643929D01*
X13376643Y-17629643D01*
X13376643Y-17658214D01*
X13576643Y-17358214D02*
X13605214Y-17358214D01*
X13633786Y-17372500D01*
X13648071Y-17386786D01*
X13662357Y-17415357D01*
X13676643Y-17472500D01*
X13676643Y-17543929D01*
X13662357Y-17601072D01*
X13648071Y-17629643D01*
X13633786Y-17643929D01*
X13605214Y-17658214D01*
X13576643Y-17658214D01*
X13548071Y-17643929D01*
X13533786Y-17629643D01*
X13519500Y-17601072D01*
X13505214Y-17543929D01*
X13505214Y-17472500D01*
X13519500Y-17415357D01*
X13533786Y-17386786D01*
X13548071Y-17372500D01*
X13576643Y-17358214D01*
X13862357Y-17358214D02*
X13890928Y-17358214D01*
X13919500Y-17372500D01*
X13933786Y-17386786D01*
X13948071Y-17415357D01*
X13962357Y-17472500D01*
X13962357Y-17543929D01*
X13948071Y-17601072D01*
X13933786Y-17629643D01*
X13919500Y-17643929D01*
X13890928Y-17658214D01*
X13862357Y-17658214D01*
X13833786Y-17643929D01*
X13819500Y-17629643D01*
X13805214Y-17601072D01*
X13790928Y-17543929D01*
X13790928Y-17472500D01*
X13805214Y-17415357D01*
X13819500Y-17386786D01*
X13833786Y-17372500D01*
X13862357Y-17358214D01*
X14090928Y-17658214D02*
X14090928Y-17458214D01*
X14090928Y-17486786D02*
X14105214Y-17472500D01*
X14133786Y-17458214D01*
X14176643Y-17458214D01*
X14205214Y-17472500D01*
X14219500Y-17501072D01*
X14219500Y-17658214D01*
X14219500Y-17501072D02*
X14233786Y-17472500D01*
X14262357Y-17458214D01*
X14305214Y-17458214D01*
X14333786Y-17472500D01*
X14348071Y-17501072D01*
X14348071Y-17658214D01*
X14490928Y-17658214D02*
X14490928Y-17458214D01*
X14490928Y-17486786D02*
X14505214Y-17472500D01*
X14533786Y-17458214D01*
X14576643Y-17458214D01*
X14605214Y-17472500D01*
X14619500Y-17501072D01*
X14619500Y-17658214D01*
X14619500Y-17501072D02*
X14633786Y-17472500D01*
X14662357Y-17458214D01*
X14705214Y-17458214D01*
X14733786Y-17472500D01*
X14748071Y-17501072D01*
X14748071Y-17658214D01*
X15333786Y-17343929D02*
X15076643Y-17729643D01*
X15719500Y-17358214D02*
X15748071Y-17358214D01*
X15776643Y-17372500D01*
X15790928Y-17386786D01*
X15805214Y-17415357D01*
X15819500Y-17472500D01*
X15819500Y-17543929D01*
X15805214Y-17601072D01*
X15790928Y-17629643D01*
X15776643Y-17643929D01*
X15748071Y-17658214D01*
X15719500Y-17658214D01*
X15690928Y-17643929D01*
X15676643Y-17629643D01*
X15662357Y-17601072D01*
X15648071Y-17543929D01*
X15648071Y-17472500D01*
X15662357Y-17415357D01*
X15676643Y-17386786D01*
X15690928Y-17372500D01*
X15719500Y-17358214D01*
X15948071Y-17629643D02*
X15962357Y-17643929D01*
X15948071Y-17658214D01*
X15933786Y-17643929D01*
X15948071Y-17629643D01*
X15948071Y-17658214D01*
X16148071Y-17358214D02*
X16176643Y-17358214D01*
X16205214Y-17372500D01*
X16219500Y-17386786D01*
X16233785Y-17415357D01*
X16248071Y-17472500D01*
X16248071Y-17543929D01*
X16233785Y-17601072D01*
X16219500Y-17629643D01*
X16205214Y-17643929D01*
X16176643Y-17658214D01*
X16148071Y-17658214D01*
X16119500Y-17643929D01*
X16105214Y-17629643D01*
X16090928Y-17601072D01*
X16076643Y-17543929D01*
X16076643Y-17472500D01*
X16090928Y-17415357D01*
X16105214Y-17386786D01*
X16119500Y-17372500D01*
X16148071Y-17358214D01*
X16348071Y-17358214D02*
X16533785Y-17358214D01*
X16433785Y-17472500D01*
X16476643Y-17472500D01*
X16505214Y-17486786D01*
X16519500Y-17501072D01*
X16533785Y-17529643D01*
X16533785Y-17601072D01*
X16519500Y-17629643D01*
X16505214Y-17643929D01*
X16476643Y-17658214D01*
X16390928Y-17658214D01*
X16362357Y-17643929D01*
X16348071Y-17629643D01*
X16676643Y-17658214D02*
X16733785Y-17658214D01*
X16762357Y-17643929D01*
X16776643Y-17629643D01*
X16805214Y-17586786D01*
X16819500Y-17529643D01*
X16819500Y-17415357D01*
X16805214Y-17386786D01*
X16790928Y-17372500D01*
X16762357Y-17358214D01*
X16705214Y-17358214D01*
X16676643Y-17372500D01*
X16662357Y-17386786D01*
X16648071Y-17415357D01*
X16648071Y-17486786D01*
X16662357Y-17515357D01*
X16676643Y-17529643D01*
X16705214Y-17543929D01*
X16762357Y-17543929D01*
X16790928Y-17529643D01*
X16805214Y-17515357D01*
X16819500Y-17486786D01*
X16933786Y-17358214D02*
X16933786Y-17415357D01*
X17048071Y-17358214D02*
X17048071Y-17415357D01*
X17490928Y-17772500D02*
X17476643Y-17758214D01*
X17448071Y-17715357D01*
X17433786Y-17686786D01*
X17419500Y-17643929D01*
X17405214Y-17572500D01*
X17405214Y-17515357D01*
X17419500Y-17443929D01*
X17433786Y-17401072D01*
X17448071Y-17372500D01*
X17476643Y-17329643D01*
X17490928Y-17315357D01*
X17590928Y-17386786D02*
X17605214Y-17372500D01*
X17633786Y-17358214D01*
X17705214Y-17358214D01*
X17733786Y-17372500D01*
X17748071Y-17386786D01*
X17762357Y-17415357D01*
X17762357Y-17443929D01*
X17748071Y-17486786D01*
X17576643Y-17658214D01*
X17762357Y-17658214D01*
X18119500Y-17658214D02*
X18119500Y-17358214D01*
X18248071Y-17658214D02*
X18248071Y-17501072D01*
X18233786Y-17472500D01*
X18205214Y-17458214D01*
X18162357Y-17458214D01*
X18133786Y-17472500D01*
X18119500Y-17486786D01*
X18433786Y-17658214D02*
X18405214Y-17643929D01*
X18390928Y-17629643D01*
X18376643Y-17601072D01*
X18376643Y-17515357D01*
X18390928Y-17486786D01*
X18405214Y-17472500D01*
X18433786Y-17458214D01*
X18476643Y-17458214D01*
X18505214Y-17472500D01*
X18519500Y-17486786D01*
X18533786Y-17515357D01*
X18533786Y-17601072D01*
X18519500Y-17629643D01*
X18505214Y-17643929D01*
X18476643Y-17658214D01*
X18433786Y-17658214D01*
X18705214Y-17658214D02*
X18676643Y-17643929D01*
X18662357Y-17615357D01*
X18662357Y-17358214D01*
X18933786Y-17643929D02*
X18905214Y-17658214D01*
X18848071Y-17658214D01*
X18819500Y-17643929D01*
X18805214Y-17615357D01*
X18805214Y-17501072D01*
X18819500Y-17472500D01*
X18848071Y-17458214D01*
X18905214Y-17458214D01*
X18933786Y-17472500D01*
X18948071Y-17501072D01*
X18948071Y-17529643D01*
X18805214Y-17558214D01*
X19062357Y-17643929D02*
X19090929Y-17658214D01*
X19148071Y-17658214D01*
X19176643Y-17643929D01*
X19190929Y-17615357D01*
X19190929Y-17601072D01*
X19176643Y-17572500D01*
X19148071Y-17558214D01*
X19105214Y-17558214D01*
X19076643Y-17543929D01*
X19062357Y-17515357D01*
X19062357Y-17501072D01*
X19076643Y-17472500D01*
X19105214Y-17458214D01*
X19148071Y-17458214D01*
X19176643Y-17472500D01*
X19290928Y-17772500D02*
X19305214Y-17758214D01*
X19333786Y-17715357D01*
X19348071Y-17686786D01*
X19362357Y-17643929D01*
X19376643Y-17572500D01*
X19376643Y-17515357D01*
X19362357Y-17443929D01*
X19348071Y-17401072D01*
X19333786Y-17372500D01*
X19305214Y-17329643D01*
X19290928Y-17315357D01*
X12768700Y-17969300D02*
X12819500Y-17918500D01*
X12768700Y-17867700D01*
X12717900Y-17918500D01*
X12768700Y-17969300D01*
X13248071Y-18054214D02*
X13076643Y-18054214D01*
X13162357Y-18054214D02*
X13162357Y-17754214D01*
X13133786Y-17797072D01*
X13105214Y-17825643D01*
X13076643Y-17839929D01*
X13376643Y-18025643D02*
X13390928Y-18039929D01*
X13376643Y-18054214D01*
X13362357Y-18039929D01*
X13376643Y-18025643D01*
X13376643Y-18054214D01*
X13576643Y-17754214D02*
X13605214Y-17754214D01*
X13633786Y-17768500D01*
X13648071Y-17782786D01*
X13662357Y-17811357D01*
X13676643Y-17868500D01*
X13676643Y-17939929D01*
X13662357Y-17997072D01*
X13648071Y-18025643D01*
X13633786Y-18039929D01*
X13605214Y-18054214D01*
X13576643Y-18054214D01*
X13548071Y-18039929D01*
X13533786Y-18025643D01*
X13519500Y-17997072D01*
X13505214Y-17939929D01*
X13505214Y-17868500D01*
X13519500Y-17811357D01*
X13533786Y-17782786D01*
X13548071Y-17768500D01*
X13576643Y-17754214D01*
X13790928Y-17782786D02*
X13805214Y-17768500D01*
X13833786Y-17754214D01*
X13905214Y-17754214D01*
X13933786Y-17768500D01*
X13948071Y-17782786D01*
X13962357Y-17811357D01*
X13962357Y-17839929D01*
X13948071Y-17882786D01*
X13776643Y-18054214D01*
X13962357Y-18054214D01*
X14090928Y-18054214D02*
X14090928Y-17854214D01*
X14090928Y-17882786D02*
X14105214Y-17868500D01*
X14133786Y-17854214D01*
X14176643Y-17854214D01*
X14205214Y-17868500D01*
X14219500Y-17897072D01*
X14219500Y-18054214D01*
X14219500Y-17897072D02*
X14233786Y-17868500D01*
X14262357Y-17854214D01*
X14305214Y-17854214D01*
X14333786Y-17868500D01*
X14348071Y-17897072D01*
X14348071Y-18054214D01*
X14490928Y-18054214D02*
X14490928Y-17854214D01*
X14490928Y-17882786D02*
X14505214Y-17868500D01*
X14533786Y-17854214D01*
X14576643Y-17854214D01*
X14605214Y-17868500D01*
X14619500Y-17897072D01*
X14619500Y-18054214D01*
X14619500Y-17897072D02*
X14633786Y-17868500D01*
X14662357Y-17854214D01*
X14705214Y-17854214D01*
X14733786Y-17868500D01*
X14748071Y-17897072D01*
X14748071Y-18054214D01*
X15333786Y-17739929D02*
X15076643Y-18125643D01*
X15719500Y-17754214D02*
X15748071Y-17754214D01*
X15776643Y-17768500D01*
X15790928Y-17782786D01*
X15805214Y-17811357D01*
X15819500Y-17868500D01*
X15819500Y-17939929D01*
X15805214Y-17997072D01*
X15790928Y-18025643D01*
X15776643Y-18039929D01*
X15748071Y-18054214D01*
X15719500Y-18054214D01*
X15690928Y-18039929D01*
X15676643Y-18025643D01*
X15662357Y-17997072D01*
X15648071Y-17939929D01*
X15648071Y-17868500D01*
X15662357Y-17811357D01*
X15676643Y-17782786D01*
X15690928Y-17768500D01*
X15719500Y-17754214D01*
X15948071Y-18025643D02*
X15962357Y-18039929D01*
X15948071Y-18054214D01*
X15933786Y-18039929D01*
X15948071Y-18025643D01*
X15948071Y-18054214D01*
X16148071Y-17754214D02*
X16176643Y-17754214D01*
X16205214Y-17768500D01*
X16219500Y-17782786D01*
X16233785Y-17811357D01*
X16248071Y-17868500D01*
X16248071Y-17939929D01*
X16233785Y-17997072D01*
X16219500Y-18025643D01*
X16205214Y-18039929D01*
X16176643Y-18054214D01*
X16148071Y-18054214D01*
X16119500Y-18039929D01*
X16105214Y-18025643D01*
X16090928Y-17997072D01*
X16076643Y-17939929D01*
X16076643Y-17868500D01*
X16090928Y-17811357D01*
X16105214Y-17782786D01*
X16119500Y-17768500D01*
X16148071Y-17754214D01*
X16505214Y-17854214D02*
X16505214Y-18054214D01*
X16433785Y-17739929D02*
X16362357Y-17954214D01*
X16548071Y-17954214D01*
X16719500Y-17754214D02*
X16748071Y-17754214D01*
X16776643Y-17768500D01*
X16790928Y-17782786D01*
X16805214Y-17811357D01*
X16819500Y-17868500D01*
X16819500Y-17939929D01*
X16805214Y-17997072D01*
X16790928Y-18025643D01*
X16776643Y-18039929D01*
X16748071Y-18054214D01*
X16719500Y-18054214D01*
X16690928Y-18039929D01*
X16676643Y-18025643D01*
X16662357Y-17997072D01*
X16648071Y-17939929D01*
X16648071Y-17868500D01*
X16662357Y-17811357D01*
X16676643Y-17782786D01*
X16690928Y-17768500D01*
X16719500Y-17754214D01*
X16933786Y-17754214D02*
X16933786Y-17811357D01*
X17048071Y-17754214D02*
X17048071Y-17811357D01*
X17490928Y-18168500D02*
X17476643Y-18154214D01*
X17448071Y-18111357D01*
X17433786Y-18082786D01*
X17419500Y-18039929D01*
X17405214Y-17968500D01*
X17405214Y-17911357D01*
X17419500Y-17839929D01*
X17433786Y-17797072D01*
X17448071Y-17768500D01*
X17476643Y-17725643D01*
X17490928Y-17711357D01*
X17576643Y-17754214D02*
X17762357Y-17754214D01*
X17662357Y-17868500D01*
X17705214Y-17868500D01*
X17733786Y-17882786D01*
X17748071Y-17897072D01*
X17762357Y-17925643D01*
X17762357Y-17997072D01*
X17748071Y-18025643D01*
X17733786Y-18039929D01*
X17705214Y-18054214D01*
X17619500Y-18054214D01*
X17590928Y-18039929D01*
X17576643Y-18025643D01*
X17933786Y-17882786D02*
X17905214Y-17868500D01*
X17890928Y-17854214D01*
X17876643Y-17825643D01*
X17876643Y-17811357D01*
X17890928Y-17782786D01*
X17905214Y-17768500D01*
X17933786Y-17754214D01*
X17990928Y-17754214D01*
X18019500Y-17768500D01*
X18033786Y-17782786D01*
X18048071Y-17811357D01*
X18048071Y-17825643D01*
X18033786Y-17854214D01*
X18019500Y-17868500D01*
X17990928Y-17882786D01*
X17933786Y-17882786D01*
X17905214Y-17897072D01*
X17890928Y-17911357D01*
X17876643Y-17939929D01*
X17876643Y-17997072D01*
X17890928Y-18025643D01*
X17905214Y-18039929D01*
X17933786Y-18054214D01*
X17990928Y-18054214D01*
X18019500Y-18039929D01*
X18033786Y-18025643D01*
X18048071Y-17997072D01*
X18048071Y-17939929D01*
X18033786Y-17911357D01*
X18019500Y-17897072D01*
X17990928Y-17882786D01*
X18405214Y-18054214D02*
X18405214Y-17754214D01*
X18533786Y-18054214D02*
X18533786Y-17897072D01*
X18519500Y-17868500D01*
X18490928Y-17854214D01*
X18448071Y-17854214D01*
X18419500Y-17868500D01*
X18405214Y-17882786D01*
X18719500Y-18054214D02*
X18690928Y-18039929D01*
X18676643Y-18025643D01*
X18662357Y-17997072D01*
X18662357Y-17911357D01*
X18676643Y-17882786D01*
X18690928Y-17868500D01*
X18719500Y-17854214D01*
X18762357Y-17854214D01*
X18790928Y-17868500D01*
X18805214Y-17882786D01*
X18819500Y-17911357D01*
X18819500Y-17997072D01*
X18805214Y-18025643D01*
X18790928Y-18039929D01*
X18762357Y-18054214D01*
X18719500Y-18054214D01*
X18990928Y-18054214D02*
X18962357Y-18039929D01*
X18948071Y-18011357D01*
X18948071Y-17754214D01*
X19219500Y-18039929D02*
X19190929Y-18054214D01*
X19133786Y-18054214D01*
X19105214Y-18039929D01*
X19090929Y-18011357D01*
X19090929Y-17897072D01*
X19105214Y-17868500D01*
X19133786Y-17854214D01*
X19190929Y-17854214D01*
X19219500Y-17868500D01*
X19233786Y-17897072D01*
X19233786Y-17925643D01*
X19090929Y-17954214D01*
X19348071Y-18039929D02*
X19376643Y-18054214D01*
X19433786Y-18054214D01*
X19462357Y-18039929D01*
X19476643Y-18011357D01*
X19476643Y-17997072D01*
X19462357Y-17968500D01*
X19433786Y-17954214D01*
X19390929Y-17954214D01*
X19362357Y-17939929D01*
X19348071Y-17911357D01*
X19348071Y-17897072D01*
X19362357Y-17868500D01*
X19390929Y-17854214D01*
X19433786Y-17854214D01*
X19462357Y-17868500D01*
X19576643Y-18168500D02*
X19590929Y-18154214D01*
X19619500Y-18111357D01*
X19633786Y-18082786D01*
X19648071Y-18039929D01*
X19662357Y-17968500D01*
X19662357Y-17911357D01*
X19648071Y-17839929D01*
X19633786Y-17797072D01*
X19619500Y-17768500D01*
X19590929Y-17725643D01*
X19576643Y-17711357D01*
M02*
