G04 #@! TF.FileFunction,Legend,Bot*
%FSLAX46Y46*%
G04 Gerber Fmt 4.6, Leading zero omitted, Abs format (unit mm)*
G04 Created by KiCad (PCBNEW 4.0.3+e1-6302~38~ubuntu16.04.1-stable) date Thu Aug 25 17:16:29 2016*
%MOMM*%
%LPD*%
G01*
G04 APERTURE LIST*
%ADD10C,0.100000*%
%ADD11C,0.300000*%
G04 APERTURE END LIST*
D10*
D11*
X148985714Y-126408571D02*
X148985714Y-124908571D01*
X148628571Y-124908571D01*
X148414286Y-124980000D01*
X148271428Y-125122857D01*
X148200000Y-125265714D01*
X148128571Y-125551429D01*
X148128571Y-125765714D01*
X148200000Y-126051429D01*
X148271428Y-126194286D01*
X148414286Y-126337143D01*
X148628571Y-126408571D01*
X148985714Y-126408571D01*
X146985714Y-125622857D02*
X146771428Y-125694286D01*
X146700000Y-125765714D01*
X146628571Y-125908571D01*
X146628571Y-126122857D01*
X146700000Y-126265714D01*
X146771428Y-126337143D01*
X146914286Y-126408571D01*
X147485714Y-126408571D01*
X147485714Y-124908571D01*
X146985714Y-124908571D01*
X146842857Y-124980000D01*
X146771428Y-125051429D01*
X146700000Y-125194286D01*
X146700000Y-125337143D01*
X146771428Y-125480000D01*
X146842857Y-125551429D01*
X146985714Y-125622857D01*
X147485714Y-125622857D01*
X146342857Y-126551429D02*
X145200000Y-126551429D01*
X144842857Y-126408571D02*
X144842857Y-124908571D01*
X144342857Y-125980000D01*
X143842857Y-124908571D01*
X143842857Y-126408571D01*
X142914285Y-126408571D02*
X143057143Y-126337143D01*
X143128571Y-126265714D01*
X143200000Y-126122857D01*
X143200000Y-125694286D01*
X143128571Y-125551429D01*
X143057143Y-125480000D01*
X142914285Y-125408571D01*
X142700000Y-125408571D01*
X142557143Y-125480000D01*
X142485714Y-125551429D01*
X142414285Y-125694286D01*
X142414285Y-126122857D01*
X142485714Y-126265714D01*
X142557143Y-126337143D01*
X142700000Y-126408571D01*
X142914285Y-126408571D01*
X141985714Y-125408571D02*
X141414285Y-125408571D01*
X141771428Y-124908571D02*
X141771428Y-126194286D01*
X141700000Y-126337143D01*
X141557142Y-126408571D01*
X141414285Y-126408571D01*
X140914285Y-126408571D02*
X140914285Y-124908571D01*
X140271428Y-126408571D02*
X140271428Y-125622857D01*
X140342857Y-125480000D01*
X140485714Y-125408571D01*
X140699999Y-125408571D01*
X140842857Y-125480000D01*
X140914285Y-125551429D01*
X138985714Y-126337143D02*
X139128571Y-126408571D01*
X139414285Y-126408571D01*
X139557142Y-126337143D01*
X139628571Y-126194286D01*
X139628571Y-125622857D01*
X139557142Y-125480000D01*
X139414285Y-125408571D01*
X139128571Y-125408571D01*
X138985714Y-125480000D01*
X138914285Y-125622857D01*
X138914285Y-125765714D01*
X139628571Y-125908571D01*
X138271428Y-126408571D02*
X138271428Y-125408571D01*
X138271428Y-125694286D02*
X138200000Y-125551429D01*
X138128571Y-125480000D01*
X137985714Y-125408571D01*
X137842857Y-125408571D01*
X137700000Y-126551429D02*
X136557143Y-126551429D01*
X135700000Y-125622857D02*
X135485714Y-125694286D01*
X135414286Y-125765714D01*
X135342857Y-125908571D01*
X135342857Y-126122857D01*
X135414286Y-126265714D01*
X135485714Y-126337143D01*
X135628572Y-126408571D01*
X136200000Y-126408571D01*
X136200000Y-124908571D01*
X135700000Y-124908571D01*
X135557143Y-124980000D01*
X135485714Y-125051429D01*
X135414286Y-125194286D01*
X135414286Y-125337143D01*
X135485714Y-125480000D01*
X135557143Y-125551429D01*
X135700000Y-125622857D01*
X136200000Y-125622857D01*
X134485714Y-126408571D02*
X134628572Y-126337143D01*
X134700000Y-126265714D01*
X134771429Y-126122857D01*
X134771429Y-125694286D01*
X134700000Y-125551429D01*
X134628572Y-125480000D01*
X134485714Y-125408571D01*
X134271429Y-125408571D01*
X134128572Y-125480000D01*
X134057143Y-125551429D01*
X133985714Y-125694286D01*
X133985714Y-126122857D01*
X134057143Y-126265714D01*
X134128572Y-126337143D01*
X134271429Y-126408571D01*
X134485714Y-126408571D01*
X132700000Y-126408571D02*
X132700000Y-125622857D01*
X132771429Y-125480000D01*
X132914286Y-125408571D01*
X133200000Y-125408571D01*
X133342857Y-125480000D01*
X132700000Y-126337143D02*
X132842857Y-126408571D01*
X133200000Y-126408571D01*
X133342857Y-126337143D01*
X133414286Y-126194286D01*
X133414286Y-126051429D01*
X133342857Y-125908571D01*
X133200000Y-125837143D01*
X132842857Y-125837143D01*
X132700000Y-125765714D01*
X131985714Y-126408571D02*
X131985714Y-125408571D01*
X131985714Y-125694286D02*
X131914286Y-125551429D01*
X131842857Y-125480000D01*
X131700000Y-125408571D01*
X131557143Y-125408571D01*
X130414286Y-126408571D02*
X130414286Y-124908571D01*
X130414286Y-126337143D02*
X130557143Y-126408571D01*
X130842857Y-126408571D01*
X130985715Y-126337143D01*
X131057143Y-126265714D01*
X131128572Y-126122857D01*
X131128572Y-125694286D01*
X131057143Y-125551429D01*
X130985715Y-125480000D01*
X130842857Y-125408571D01*
X130557143Y-125408571D01*
X130414286Y-125480000D01*
X176172857Y-151237143D02*
X175030000Y-151237143D01*
X175601429Y-151808571D02*
X175601429Y-150665714D01*
X174458571Y-150308571D02*
X173530000Y-150308571D01*
X174030000Y-150880000D01*
X173815714Y-150880000D01*
X173672857Y-150951429D01*
X173601428Y-151022857D01*
X173530000Y-151165714D01*
X173530000Y-151522857D01*
X173601428Y-151665714D01*
X173672857Y-151737143D01*
X173815714Y-151808571D01*
X174244286Y-151808571D01*
X174387143Y-151737143D01*
X174458571Y-151665714D01*
X172887143Y-151665714D02*
X172815715Y-151737143D01*
X172887143Y-151808571D01*
X172958572Y-151737143D01*
X172887143Y-151665714D01*
X172887143Y-151808571D01*
X172315714Y-150308571D02*
X171387143Y-150308571D01*
X171887143Y-150880000D01*
X171672857Y-150880000D01*
X171530000Y-150951429D01*
X171458571Y-151022857D01*
X171387143Y-151165714D01*
X171387143Y-151522857D01*
X171458571Y-151665714D01*
X171530000Y-151737143D01*
X171672857Y-151808571D01*
X172101429Y-151808571D01*
X172244286Y-151737143D01*
X172315714Y-151665714D01*
X170958572Y-150308571D02*
X170458572Y-151808571D01*
X169958572Y-150308571D01*
X176172857Y-148697143D02*
X175030000Y-148697143D01*
X173601428Y-147768571D02*
X174315714Y-147768571D01*
X174387143Y-148482857D01*
X174315714Y-148411429D01*
X174172857Y-148340000D01*
X173815714Y-148340000D01*
X173672857Y-148411429D01*
X173601428Y-148482857D01*
X173530000Y-148625714D01*
X173530000Y-148982857D01*
X173601428Y-149125714D01*
X173672857Y-149197143D01*
X173815714Y-149268571D01*
X174172857Y-149268571D01*
X174315714Y-149197143D01*
X174387143Y-149125714D01*
X173101429Y-147768571D02*
X172601429Y-149268571D01*
X172101429Y-147768571D01*
X175867142Y-145942857D02*
X175652856Y-146014286D01*
X175581428Y-146085714D01*
X175509999Y-146228571D01*
X175509999Y-146442857D01*
X175581428Y-146585714D01*
X175652856Y-146657143D01*
X175795714Y-146728571D01*
X176367142Y-146728571D01*
X176367142Y-145228571D01*
X175867142Y-145228571D01*
X175724285Y-145300000D01*
X175652856Y-145371429D01*
X175581428Y-145514286D01*
X175581428Y-145657143D01*
X175652856Y-145800000D01*
X175724285Y-145871429D01*
X175867142Y-145942857D01*
X176367142Y-145942857D01*
X174938571Y-145371429D02*
X174867142Y-145300000D01*
X174724285Y-145228571D01*
X174367142Y-145228571D01*
X174224285Y-145300000D01*
X174152856Y-145371429D01*
X174081428Y-145514286D01*
X174081428Y-145657143D01*
X174152856Y-145871429D01*
X175009999Y-146728571D01*
X174081428Y-146728571D01*
X175672857Y-143402857D02*
X175458571Y-143474286D01*
X175387143Y-143545714D01*
X175315714Y-143688571D01*
X175315714Y-143902857D01*
X175387143Y-144045714D01*
X175458571Y-144117143D01*
X175601429Y-144188571D01*
X176172857Y-144188571D01*
X176172857Y-142688571D01*
X175672857Y-142688571D01*
X175530000Y-142760000D01*
X175458571Y-142831429D01*
X175387143Y-142974286D01*
X175387143Y-143117143D01*
X175458571Y-143260000D01*
X175530000Y-143331429D01*
X175672857Y-143402857D01*
X176172857Y-143402857D01*
X173887143Y-144188571D02*
X174744286Y-144188571D01*
X174315714Y-144188571D02*
X174315714Y-142688571D01*
X174458571Y-142902857D01*
X174601429Y-143045714D01*
X174744286Y-143117143D01*
X176172857Y-140862857D02*
X175672857Y-140862857D01*
X175458571Y-141648571D02*
X176172857Y-141648571D01*
X176172857Y-140148571D01*
X175458571Y-140148571D01*
X174815714Y-140648571D02*
X174815714Y-141648571D01*
X174815714Y-140791429D02*
X174744286Y-140720000D01*
X174601428Y-140648571D01*
X174387143Y-140648571D01*
X174244286Y-140720000D01*
X174172857Y-140862857D01*
X174172857Y-141648571D01*
X172815714Y-141577143D02*
X172958571Y-141648571D01*
X173244285Y-141648571D01*
X173387143Y-141577143D01*
X173458571Y-141505714D01*
X173530000Y-141362857D01*
X173530000Y-140934286D01*
X173458571Y-140791429D01*
X173387143Y-140720000D01*
X173244285Y-140648571D01*
X172958571Y-140648571D01*
X172815714Y-140720000D01*
X171958571Y-141648571D02*
X172101429Y-141577143D01*
X172172857Y-141505714D01*
X172244286Y-141362857D01*
X172244286Y-140934286D01*
X172172857Y-140791429D01*
X172101429Y-140720000D01*
X171958571Y-140648571D01*
X171744286Y-140648571D01*
X171601429Y-140720000D01*
X171530000Y-140791429D01*
X171458571Y-140934286D01*
X171458571Y-141362857D01*
X171530000Y-141505714D01*
X171601429Y-141577143D01*
X171744286Y-141648571D01*
X171958571Y-141648571D01*
X170172857Y-141648571D02*
X170172857Y-140148571D01*
X170172857Y-141577143D02*
X170315714Y-141648571D01*
X170601428Y-141648571D01*
X170744286Y-141577143D01*
X170815714Y-141505714D01*
X170887143Y-141362857D01*
X170887143Y-140934286D01*
X170815714Y-140791429D01*
X170744286Y-140720000D01*
X170601428Y-140648571D01*
X170315714Y-140648571D01*
X170172857Y-140720000D01*
X168887143Y-141577143D02*
X169030000Y-141648571D01*
X169315714Y-141648571D01*
X169458571Y-141577143D01*
X169530000Y-141434286D01*
X169530000Y-140862857D01*
X169458571Y-140720000D01*
X169315714Y-140648571D01*
X169030000Y-140648571D01*
X168887143Y-140720000D01*
X168815714Y-140862857D01*
X168815714Y-141005714D01*
X169530000Y-141148571D01*
X168172857Y-141648571D02*
X168172857Y-140648571D01*
X168172857Y-140934286D02*
X168101429Y-140791429D01*
X168030000Y-140720000D01*
X167887143Y-140648571D01*
X167744286Y-140648571D01*
X176172857Y-139108571D02*
X176172857Y-137608571D01*
X175672857Y-138680000D01*
X175172857Y-137608571D01*
X175172857Y-139108571D01*
X174244285Y-139108571D02*
X174387143Y-139037143D01*
X174458571Y-138965714D01*
X174530000Y-138822857D01*
X174530000Y-138394286D01*
X174458571Y-138251429D01*
X174387143Y-138180000D01*
X174244285Y-138108571D01*
X174030000Y-138108571D01*
X173887143Y-138180000D01*
X173815714Y-138251429D01*
X173744285Y-138394286D01*
X173744285Y-138822857D01*
X173815714Y-138965714D01*
X173887143Y-139037143D01*
X174030000Y-139108571D01*
X174244285Y-139108571D01*
X173315714Y-138108571D02*
X172744285Y-138108571D01*
X173101428Y-137608571D02*
X173101428Y-138894286D01*
X173030000Y-139037143D01*
X172887142Y-139108571D01*
X172744285Y-139108571D01*
X172029999Y-139108571D02*
X172172857Y-139037143D01*
X172244285Y-138965714D01*
X172315714Y-138822857D01*
X172315714Y-138394286D01*
X172244285Y-138251429D01*
X172172857Y-138180000D01*
X172029999Y-138108571D01*
X171815714Y-138108571D01*
X171672857Y-138180000D01*
X171601428Y-138251429D01*
X171529999Y-138394286D01*
X171529999Y-138822857D01*
X171601428Y-138965714D01*
X171672857Y-139037143D01*
X171815714Y-139108571D01*
X172029999Y-139108571D01*
X170887142Y-139108571D02*
X170887142Y-138108571D01*
X170887142Y-138394286D02*
X170815714Y-138251429D01*
X170744285Y-138180000D01*
X170601428Y-138108571D01*
X170458571Y-138108571D01*
X168815714Y-139108571D02*
X168815714Y-137608571D01*
X168244286Y-137608571D01*
X168101428Y-137680000D01*
X168030000Y-137751429D01*
X167958571Y-137894286D01*
X167958571Y-138108571D01*
X168030000Y-138251429D01*
X168101428Y-138322857D01*
X168244286Y-138394286D01*
X168815714Y-138394286D01*
X167458571Y-137608571D02*
X167101428Y-139108571D01*
X166815714Y-138037143D01*
X166530000Y-139108571D01*
X166172857Y-137608571D01*
X165601428Y-139108571D02*
X165601428Y-137608571D01*
X165101428Y-138680000D01*
X164601428Y-137608571D01*
X164601428Y-139108571D01*
X176387143Y-135068571D02*
X175530000Y-135068571D01*
X175958571Y-136568571D02*
X175958571Y-135068571D01*
X174815714Y-136568571D02*
X174958572Y-136497143D01*
X175030000Y-136425714D01*
X175101429Y-136282857D01*
X175101429Y-135854286D01*
X175030000Y-135711429D01*
X174958572Y-135640000D01*
X174815714Y-135568571D01*
X174601429Y-135568571D01*
X174458572Y-135640000D01*
X174387143Y-135711429D01*
X174315714Y-135854286D01*
X174315714Y-136282857D01*
X174387143Y-136425714D01*
X174458572Y-136497143D01*
X174601429Y-136568571D01*
X174815714Y-136568571D01*
X173672857Y-135568571D02*
X173672857Y-137068571D01*
X173672857Y-135640000D02*
X173530000Y-135568571D01*
X173244286Y-135568571D01*
X173101429Y-135640000D01*
X173030000Y-135711429D01*
X172958571Y-135854286D01*
X172958571Y-136282857D01*
X173030000Y-136425714D01*
X173101429Y-136497143D01*
X173244286Y-136568571D01*
X173530000Y-136568571D01*
X173672857Y-136497143D01*
X171387143Y-135068571D02*
X170530000Y-135068571D01*
X170958571Y-136568571D02*
X170958571Y-135068571D01*
X169815714Y-136568571D02*
X169958572Y-136497143D01*
X170030000Y-136425714D01*
X170101429Y-136282857D01*
X170101429Y-135854286D01*
X170030000Y-135711429D01*
X169958572Y-135640000D01*
X169815714Y-135568571D01*
X169601429Y-135568571D01*
X169458572Y-135640000D01*
X169387143Y-135711429D01*
X169315714Y-135854286D01*
X169315714Y-136282857D01*
X169387143Y-136425714D01*
X169458572Y-136497143D01*
X169601429Y-136568571D01*
X169815714Y-136568571D01*
X168030000Y-135568571D02*
X168030000Y-136568571D01*
X168672857Y-135568571D02*
X168672857Y-136354286D01*
X168601429Y-136497143D01*
X168458571Y-136568571D01*
X168244286Y-136568571D01*
X168101429Y-136497143D01*
X168030000Y-136425714D01*
X167315714Y-136568571D02*
X167315714Y-135568571D01*
X167315714Y-135854286D02*
X167244286Y-135711429D01*
X167172857Y-135640000D01*
X167030000Y-135568571D01*
X166887143Y-135568571D01*
X176172857Y-133457143D02*
X175030000Y-133457143D01*
X175601429Y-134028571D02*
X175601429Y-132885714D01*
X173530000Y-134028571D02*
X174387143Y-134028571D01*
X173958571Y-134028571D02*
X173958571Y-132528571D01*
X174101428Y-132742857D01*
X174244286Y-132885714D01*
X174387143Y-132957143D01*
X172672857Y-133171429D02*
X172815715Y-133100000D01*
X172887143Y-133028571D01*
X172958572Y-132885714D01*
X172958572Y-132814286D01*
X172887143Y-132671429D01*
X172815715Y-132600000D01*
X172672857Y-132528571D01*
X172387143Y-132528571D01*
X172244286Y-132600000D01*
X172172857Y-132671429D01*
X172101429Y-132814286D01*
X172101429Y-132885714D01*
X172172857Y-133028571D01*
X172244286Y-133100000D01*
X172387143Y-133171429D01*
X172672857Y-133171429D01*
X172815715Y-133242857D01*
X172887143Y-133314286D01*
X172958572Y-133457143D01*
X172958572Y-133742857D01*
X172887143Y-133885714D01*
X172815715Y-133957143D01*
X172672857Y-134028571D01*
X172387143Y-134028571D01*
X172244286Y-133957143D01*
X172172857Y-133885714D01*
X172101429Y-133742857D01*
X172101429Y-133457143D01*
X172172857Y-133314286D01*
X172244286Y-133242857D01*
X172387143Y-133171429D01*
X171672858Y-132528571D02*
X171172858Y-134028571D01*
X170672858Y-132528571D01*
X176387143Y-129988571D02*
X175530000Y-129988571D01*
X175958571Y-131488571D02*
X175958571Y-129988571D01*
X175030000Y-131488571D02*
X175030000Y-130488571D01*
X175030000Y-130774286D02*
X174958572Y-130631429D01*
X174887143Y-130560000D01*
X174744286Y-130488571D01*
X174601429Y-130488571D01*
X174101429Y-131488571D02*
X174101429Y-130488571D01*
X174101429Y-129988571D02*
X174172858Y-130060000D01*
X174101429Y-130131429D01*
X174030001Y-130060000D01*
X174101429Y-129988571D01*
X174101429Y-130131429D01*
X172744286Y-130488571D02*
X172744286Y-131702857D01*
X172815715Y-131845714D01*
X172887143Y-131917143D01*
X173030000Y-131988571D01*
X173244286Y-131988571D01*
X173387143Y-131917143D01*
X172744286Y-131417143D02*
X172887143Y-131488571D01*
X173172857Y-131488571D01*
X173315715Y-131417143D01*
X173387143Y-131345714D01*
X173458572Y-131202857D01*
X173458572Y-130774286D01*
X173387143Y-130631429D01*
X173315715Y-130560000D01*
X173172857Y-130488571D01*
X172887143Y-130488571D01*
X172744286Y-130560000D01*
X171387143Y-130488571D02*
X171387143Y-131702857D01*
X171458572Y-131845714D01*
X171530000Y-131917143D01*
X171672857Y-131988571D01*
X171887143Y-131988571D01*
X172030000Y-131917143D01*
X171387143Y-131417143D02*
X171530000Y-131488571D01*
X171815714Y-131488571D01*
X171958572Y-131417143D01*
X172030000Y-131345714D01*
X172101429Y-131202857D01*
X172101429Y-130774286D01*
X172030000Y-130631429D01*
X171958572Y-130560000D01*
X171815714Y-130488571D01*
X171530000Y-130488571D01*
X171387143Y-130560000D01*
X170101429Y-131417143D02*
X170244286Y-131488571D01*
X170530000Y-131488571D01*
X170672857Y-131417143D01*
X170744286Y-131274286D01*
X170744286Y-130702857D01*
X170672857Y-130560000D01*
X170530000Y-130488571D01*
X170244286Y-130488571D01*
X170101429Y-130560000D01*
X170030000Y-130702857D01*
X170030000Y-130845714D01*
X170744286Y-130988571D01*
X169387143Y-131488571D02*
X169387143Y-130488571D01*
X169387143Y-130774286D02*
X169315715Y-130631429D01*
X169244286Y-130560000D01*
X169101429Y-130488571D01*
X168958572Y-130488571D01*
X166458572Y-131488571D02*
X166958572Y-130774286D01*
X167315715Y-131488571D02*
X167315715Y-129988571D01*
X166744287Y-129988571D01*
X166601429Y-130060000D01*
X166530001Y-130131429D01*
X166458572Y-130274286D01*
X166458572Y-130488571D01*
X166530001Y-130631429D01*
X166601429Y-130702857D01*
X166744287Y-130774286D01*
X167315715Y-130774286D01*
X165815715Y-131488571D02*
X165815715Y-129988571D01*
X165244287Y-129988571D01*
X165101429Y-130060000D01*
X165030001Y-130131429D01*
X164958572Y-130274286D01*
X164958572Y-130488571D01*
X165030001Y-130631429D01*
X165101429Y-130702857D01*
X165244287Y-130774286D01*
X165815715Y-130774286D01*
X176387143Y-127448571D02*
X175530000Y-127448571D01*
X175958571Y-128948571D02*
X175958571Y-127448571D01*
X175030000Y-128948571D02*
X175030000Y-127948571D01*
X175030000Y-127448571D02*
X175101429Y-127520000D01*
X175030000Y-127591429D01*
X174958572Y-127520000D01*
X175030000Y-127448571D01*
X175030000Y-127591429D01*
X174315714Y-128948571D02*
X174315714Y-127948571D01*
X174315714Y-128234286D02*
X174244286Y-128091429D01*
X174172857Y-128020000D01*
X174030000Y-127948571D01*
X173887143Y-127948571D01*
X171958572Y-127448571D02*
X171672858Y-127448571D01*
X171530000Y-127520000D01*
X171387143Y-127662857D01*
X171315715Y-127948571D01*
X171315715Y-128448571D01*
X171387143Y-128734286D01*
X171530000Y-128877143D01*
X171672858Y-128948571D01*
X171958572Y-128948571D01*
X172101429Y-128877143D01*
X172244286Y-128734286D01*
X172315715Y-128448571D01*
X172315715Y-127948571D01*
X172244286Y-127662857D01*
X172101429Y-127520000D01*
X171958572Y-127448571D01*
X170172857Y-128162857D02*
X170672857Y-128162857D01*
X170672857Y-128948571D02*
X170672857Y-127448571D01*
X169958571Y-127448571D01*
X168887143Y-128162857D02*
X169387143Y-128162857D01*
X169387143Y-128948571D02*
X169387143Y-127448571D01*
X168672857Y-127448571D01*
X176387143Y-124908571D02*
X175530000Y-124908571D01*
X175958571Y-126408571D02*
X175958571Y-124908571D01*
X175030000Y-126408571D02*
X175030000Y-125408571D01*
X175030000Y-124908571D02*
X175101429Y-124980000D01*
X175030000Y-125051429D01*
X174958572Y-124980000D01*
X175030000Y-124908571D01*
X175030000Y-125051429D01*
X174315714Y-126408571D02*
X174315714Y-125408571D01*
X174315714Y-125694286D02*
X174244286Y-125551429D01*
X174172857Y-125480000D01*
X174030000Y-125408571D01*
X173887143Y-125408571D01*
X171958572Y-124908571D02*
X171672858Y-124908571D01*
X171530000Y-124980000D01*
X171387143Y-125122857D01*
X171315715Y-125408571D01*
X171315715Y-125908571D01*
X171387143Y-126194286D01*
X171530000Y-126337143D01*
X171672858Y-126408571D01*
X171958572Y-126408571D01*
X172101429Y-126337143D01*
X172244286Y-126194286D01*
X172315715Y-125908571D01*
X172315715Y-125408571D01*
X172244286Y-125122857D01*
X172101429Y-124980000D01*
X171958572Y-124908571D01*
X170672857Y-126408571D02*
X170672857Y-124908571D01*
X169815714Y-126408571D01*
X169815714Y-124908571D01*
X176172857Y-123297143D02*
X175030000Y-123297143D01*
X173530000Y-123868571D02*
X174387143Y-123868571D01*
X173958571Y-123868571D02*
X173958571Y-122368571D01*
X174101428Y-122582857D01*
X174244286Y-122725714D01*
X174387143Y-122797143D01*
X172958572Y-122511429D02*
X172887143Y-122440000D01*
X172744286Y-122368571D01*
X172387143Y-122368571D01*
X172244286Y-122440000D01*
X172172857Y-122511429D01*
X172101429Y-122654286D01*
X172101429Y-122797143D01*
X172172857Y-123011429D01*
X173030000Y-123868571D01*
X172101429Y-123868571D01*
X171672858Y-122368571D02*
X171172858Y-123868571D01*
X170672858Y-122368571D01*
X175315714Y-121328571D02*
X175815714Y-120614286D01*
X176172857Y-121328571D02*
X176172857Y-119828571D01*
X175601429Y-119828571D01*
X175458571Y-119900000D01*
X175387143Y-119971429D01*
X175315714Y-120114286D01*
X175315714Y-120328571D01*
X175387143Y-120471429D01*
X175458571Y-120542857D01*
X175601429Y-120614286D01*
X176172857Y-120614286D01*
X174030000Y-121328571D02*
X174030000Y-120542857D01*
X174101429Y-120400000D01*
X174244286Y-120328571D01*
X174530000Y-120328571D01*
X174672857Y-120400000D01*
X174030000Y-121257143D02*
X174172857Y-121328571D01*
X174530000Y-121328571D01*
X174672857Y-121257143D01*
X174744286Y-121114286D01*
X174744286Y-120971429D01*
X174672857Y-120828571D01*
X174530000Y-120757143D01*
X174172857Y-120757143D01*
X174030000Y-120685714D01*
X173315714Y-121328571D02*
X173315714Y-120328571D01*
X173315714Y-120471429D02*
X173244286Y-120400000D01*
X173101428Y-120328571D01*
X172887143Y-120328571D01*
X172744286Y-120400000D01*
X172672857Y-120542857D01*
X172672857Y-121328571D01*
X172672857Y-120542857D02*
X172601428Y-120400000D01*
X172458571Y-120328571D01*
X172244286Y-120328571D01*
X172101428Y-120400000D01*
X172030000Y-120542857D01*
X172030000Y-121328571D01*
X171315714Y-120328571D02*
X171315714Y-121828571D01*
X171315714Y-120400000D02*
X171172857Y-120328571D01*
X170887143Y-120328571D01*
X170744286Y-120400000D01*
X170672857Y-120471429D01*
X170601428Y-120614286D01*
X170601428Y-121042857D01*
X170672857Y-121185714D01*
X170744286Y-121257143D01*
X170887143Y-121328571D01*
X171172857Y-121328571D01*
X171315714Y-121257143D01*
X176172857Y-118217143D02*
X175030000Y-118217143D01*
X175601429Y-118788571D02*
X175601429Y-117645714D01*
X173530000Y-118788571D02*
X174387143Y-118788571D01*
X173958571Y-118788571D02*
X173958571Y-117288571D01*
X174101428Y-117502857D01*
X174244286Y-117645714D01*
X174387143Y-117717143D01*
X172958572Y-117431429D02*
X172887143Y-117360000D01*
X172744286Y-117288571D01*
X172387143Y-117288571D01*
X172244286Y-117360000D01*
X172172857Y-117431429D01*
X172101429Y-117574286D01*
X172101429Y-117717143D01*
X172172857Y-117931429D01*
X173030000Y-118788571D01*
X172101429Y-118788571D01*
X171672858Y-117288571D02*
X171172858Y-118788571D01*
X170672858Y-117288571D01*
X176172857Y-115462857D02*
X175672857Y-115462857D01*
X175458571Y-116248571D02*
X176172857Y-116248571D01*
X176172857Y-114748571D01*
X175458571Y-114748571D01*
X174815714Y-115248571D02*
X174815714Y-116248571D01*
X174815714Y-115391429D02*
X174744286Y-115320000D01*
X174601428Y-115248571D01*
X174387143Y-115248571D01*
X174244286Y-115320000D01*
X174172857Y-115462857D01*
X174172857Y-116248571D01*
X173601428Y-115248571D02*
X173244285Y-116248571D01*
X172887143Y-115248571D01*
X171744286Y-116177143D02*
X171887143Y-116248571D01*
X172172857Y-116248571D01*
X172315714Y-116177143D01*
X172387143Y-116034286D01*
X172387143Y-115462857D01*
X172315714Y-115320000D01*
X172172857Y-115248571D01*
X171887143Y-115248571D01*
X171744286Y-115320000D01*
X171672857Y-115462857D01*
X171672857Y-115605714D01*
X172387143Y-115748571D01*
X170815714Y-116248571D02*
X170958572Y-116177143D01*
X171030000Y-116034286D01*
X171030000Y-114748571D01*
X170030000Y-116248571D02*
X170172858Y-116177143D01*
X170244286Y-116105714D01*
X170315715Y-115962857D01*
X170315715Y-115534286D01*
X170244286Y-115391429D01*
X170172858Y-115320000D01*
X170030000Y-115248571D01*
X169815715Y-115248571D01*
X169672858Y-115320000D01*
X169601429Y-115391429D01*
X169530000Y-115534286D01*
X169530000Y-115962857D01*
X169601429Y-116105714D01*
X169672858Y-116177143D01*
X169815715Y-116248571D01*
X170030000Y-116248571D01*
X168887143Y-115248571D02*
X168887143Y-116748571D01*
X168887143Y-115320000D02*
X168744286Y-115248571D01*
X168458572Y-115248571D01*
X168315715Y-115320000D01*
X168244286Y-115391429D01*
X168172857Y-115534286D01*
X168172857Y-115962857D01*
X168244286Y-116105714D01*
X168315715Y-116177143D01*
X168458572Y-116248571D01*
X168744286Y-116248571D01*
X168887143Y-116177143D01*
X166958572Y-116177143D02*
X167101429Y-116248571D01*
X167387143Y-116248571D01*
X167530000Y-116177143D01*
X167601429Y-116034286D01*
X167601429Y-115462857D01*
X167530000Y-115320000D01*
X167387143Y-115248571D01*
X167101429Y-115248571D01*
X166958572Y-115320000D01*
X166887143Y-115462857D01*
X166887143Y-115605714D01*
X167601429Y-115748571D01*
X175672857Y-112922857D02*
X176172857Y-112922857D01*
X176172857Y-113708571D02*
X176172857Y-112208571D01*
X175458571Y-112208571D01*
X174887143Y-113708571D02*
X174887143Y-112708571D01*
X174887143Y-112208571D02*
X174958572Y-112280000D01*
X174887143Y-112351429D01*
X174815715Y-112280000D01*
X174887143Y-112208571D01*
X174887143Y-112351429D01*
X173958571Y-113708571D02*
X174101429Y-113637143D01*
X174172857Y-113494286D01*
X174172857Y-112208571D01*
X173601429Y-112708571D02*
X173030000Y-112708571D01*
X173387143Y-112208571D02*
X173387143Y-113494286D01*
X173315715Y-113637143D01*
X173172857Y-113708571D01*
X173030000Y-113708571D01*
X171958572Y-113637143D02*
X172101429Y-113708571D01*
X172387143Y-113708571D01*
X172530000Y-113637143D01*
X172601429Y-113494286D01*
X172601429Y-112922857D01*
X172530000Y-112780000D01*
X172387143Y-112708571D01*
X172101429Y-112708571D01*
X171958572Y-112780000D01*
X171887143Y-112922857D01*
X171887143Y-113065714D01*
X172601429Y-113208571D01*
X171244286Y-113708571D02*
X171244286Y-112708571D01*
X171244286Y-112994286D02*
X171172858Y-112851429D01*
X171101429Y-112780000D01*
X170958572Y-112708571D01*
X170815715Y-112708571D01*
X169744287Y-113637143D02*
X169887144Y-113708571D01*
X170172858Y-113708571D01*
X170315715Y-113637143D01*
X170387144Y-113494286D01*
X170387144Y-112922857D01*
X170315715Y-112780000D01*
X170172858Y-112708571D01*
X169887144Y-112708571D01*
X169744287Y-112780000D01*
X169672858Y-112922857D01*
X169672858Y-113065714D01*
X170387144Y-113208571D01*
X168387144Y-113708571D02*
X168387144Y-112208571D01*
X168387144Y-113637143D02*
X168530001Y-113708571D01*
X168815715Y-113708571D01*
X168958573Y-113637143D01*
X169030001Y-113565714D01*
X169101430Y-113422857D01*
X169101430Y-112994286D01*
X169030001Y-112851429D01*
X168958573Y-112780000D01*
X168815715Y-112708571D01*
X168530001Y-112708571D01*
X168387144Y-112780000D01*
X166744287Y-112208571D02*
X165887144Y-112208571D01*
X166315715Y-113708571D02*
X166315715Y-112208571D01*
X164601430Y-112280000D02*
X164744287Y-112208571D01*
X164958573Y-112208571D01*
X165172858Y-112280000D01*
X165315716Y-112422857D01*
X165387144Y-112565714D01*
X165458573Y-112851429D01*
X165458573Y-113065714D01*
X165387144Y-113351429D01*
X165315716Y-113494286D01*
X165172858Y-113637143D01*
X164958573Y-113708571D01*
X164815716Y-113708571D01*
X164601430Y-113637143D01*
X164530001Y-113565714D01*
X164530001Y-113065714D01*
X164815716Y-113065714D01*
X163030001Y-113565714D02*
X163101430Y-113637143D01*
X163315716Y-113708571D01*
X163458573Y-113708571D01*
X163672858Y-113637143D01*
X163815716Y-113494286D01*
X163887144Y-113351429D01*
X163958573Y-113065714D01*
X163958573Y-112851429D01*
X163887144Y-112565714D01*
X163815716Y-112422857D01*
X163672858Y-112280000D01*
X163458573Y-112208571D01*
X163315716Y-112208571D01*
X163101430Y-112280000D01*
X163030001Y-112351429D01*
X176387143Y-109668571D02*
X175530000Y-109668571D01*
X175958571Y-111168571D02*
X175958571Y-109668571D01*
X174244286Y-109740000D02*
X174387143Y-109668571D01*
X174601429Y-109668571D01*
X174815714Y-109740000D01*
X174958572Y-109882857D01*
X175030000Y-110025714D01*
X175101429Y-110311429D01*
X175101429Y-110525714D01*
X175030000Y-110811429D01*
X174958572Y-110954286D01*
X174815714Y-111097143D01*
X174601429Y-111168571D01*
X174458572Y-111168571D01*
X174244286Y-111097143D01*
X174172857Y-111025714D01*
X174172857Y-110525714D01*
X174458572Y-110525714D01*
X172672857Y-111025714D02*
X172744286Y-111097143D01*
X172958572Y-111168571D01*
X173101429Y-111168571D01*
X173315714Y-111097143D01*
X173458572Y-110954286D01*
X173530000Y-110811429D01*
X173601429Y-110525714D01*
X173601429Y-110311429D01*
X173530000Y-110025714D01*
X173458572Y-109882857D01*
X173315714Y-109740000D01*
X173101429Y-109668571D01*
X172958572Y-109668571D01*
X172744286Y-109740000D01*
X172672857Y-109811429D01*
X170601429Y-109668571D02*
X170315715Y-109668571D01*
X170172857Y-109740000D01*
X170030000Y-109882857D01*
X169958572Y-110168571D01*
X169958572Y-110668571D01*
X170030000Y-110954286D01*
X170172857Y-111097143D01*
X170315715Y-111168571D01*
X170601429Y-111168571D01*
X170744286Y-111097143D01*
X170887143Y-110954286D01*
X170958572Y-110668571D01*
X170958572Y-110168571D01*
X170887143Y-109882857D01*
X170744286Y-109740000D01*
X170601429Y-109668571D01*
X169315714Y-109668571D02*
X169315714Y-110882857D01*
X169244286Y-111025714D01*
X169172857Y-111097143D01*
X169030000Y-111168571D01*
X168744286Y-111168571D01*
X168601428Y-111097143D01*
X168530000Y-111025714D01*
X168458571Y-110882857D01*
X168458571Y-109668571D01*
X167958571Y-109668571D02*
X167101428Y-109668571D01*
X167529999Y-111168571D02*
X167529999Y-109668571D01*
X176172857Y-108057143D02*
X175030000Y-108057143D01*
X175601429Y-108628571D02*
X175601429Y-107485714D01*
X173601428Y-107128571D02*
X174315714Y-107128571D01*
X174387143Y-107842857D01*
X174315714Y-107771429D01*
X174172857Y-107700000D01*
X173815714Y-107700000D01*
X173672857Y-107771429D01*
X173601428Y-107842857D01*
X173530000Y-107985714D01*
X173530000Y-108342857D01*
X173601428Y-108485714D01*
X173672857Y-108557143D01*
X173815714Y-108628571D01*
X174172857Y-108628571D01*
X174315714Y-108557143D01*
X174387143Y-108485714D01*
X173101429Y-107128571D02*
X172601429Y-108628571D01*
X172101429Y-107128571D01*
X175387143Y-104660000D02*
X175530000Y-104588571D01*
X175744286Y-104588571D01*
X175958571Y-104660000D01*
X176101429Y-104802857D01*
X176172857Y-104945714D01*
X176244286Y-105231429D01*
X176244286Y-105445714D01*
X176172857Y-105731429D01*
X176101429Y-105874286D01*
X175958571Y-106017143D01*
X175744286Y-106088571D01*
X175601429Y-106088571D01*
X175387143Y-106017143D01*
X175315714Y-105945714D01*
X175315714Y-105445714D01*
X175601429Y-105445714D01*
X174672857Y-106088571D02*
X174672857Y-104588571D01*
X173815714Y-106088571D01*
X173815714Y-104588571D01*
X173101428Y-106088571D02*
X173101428Y-104588571D01*
X172744285Y-104588571D01*
X172530000Y-104660000D01*
X172387142Y-104802857D01*
X172315714Y-104945714D01*
X172244285Y-105231429D01*
X172244285Y-105445714D01*
X172315714Y-105731429D01*
X172387142Y-105874286D01*
X172530000Y-106017143D01*
X172744285Y-106088571D01*
X173101428Y-106088571D01*
M02*
