%FSLAX45Y45*%
G04 Gerber Fmt 4.5, Leading zero omitted, Abs format (unit mm)*
G04 Created by KiCad (PCBNEW 4.0.3+e1-6302~38~ubuntu16.04.1-stable) date Thu Aug 25 12:15:36 2016*
%MOMM*%
%LPD*%
G01*
G04 APERTURE LIST*
%ADD10C,0.127000*%
%ADD11C,0.150000*%
%ADD12C,0.200000*%
%ADD13C,0.300000*%
G04 APERTURE END LIST*
D10*
D11*
X18161000Y-15367000D02*
X16891000Y-15367000D01*
X18161000Y-10287000D02*
X18161000Y-15367000D01*
X10541000Y-10287000D02*
X18161000Y-10287000D01*
X10541000Y-15367000D02*
X16891000Y-15367000D01*
X10541000Y-10287000D02*
X10541000Y-15367000D01*
D12*
X10744200Y-10490200D02*
X10845800Y-10591800D01*
X10845800Y-10490200D02*
X10744200Y-10591800D01*
X10744200Y-10744200D02*
X10845800Y-10845800D01*
X10845800Y-10744200D02*
X10744200Y-10845800D01*
X10744200Y-10998200D02*
X10845800Y-11099800D01*
X10845800Y-10998200D02*
X10744200Y-11099800D01*
X10744200Y-11252200D02*
X10845800Y-11353800D01*
X10845800Y-11252200D02*
X10744200Y-11353800D01*
X10744200Y-11506200D02*
X10845800Y-11607800D01*
X10845800Y-11506200D02*
X10744200Y-11607800D01*
X10744200Y-11760200D02*
X10845800Y-11861800D01*
X10845800Y-11760200D02*
X10744200Y-11861800D01*
X10744200Y-12014200D02*
X10845800Y-12115800D01*
X10845800Y-12014200D02*
X10744200Y-12115800D01*
X10744200Y-12268200D02*
X10845800Y-12369800D01*
X10845800Y-12268200D02*
X10744200Y-12369800D01*
X10744200Y-12522200D02*
X10845800Y-12623800D01*
X10845800Y-12522200D02*
X10744200Y-12623800D01*
X10744200Y-12776200D02*
X10845800Y-12877800D01*
X10845800Y-12776200D02*
X10744200Y-12877800D01*
X10744200Y-13030200D02*
X10845800Y-13131800D01*
X10845800Y-13030200D02*
X10744200Y-13131800D01*
X10744200Y-13284200D02*
X10845800Y-13385800D01*
X10845800Y-13284200D02*
X10744200Y-13385800D01*
X10744200Y-13538200D02*
X10845800Y-13639800D01*
X10845800Y-13538200D02*
X10744200Y-13639800D01*
X10744200Y-13792200D02*
X10845800Y-13893800D01*
X10845800Y-13792200D02*
X10744200Y-13893800D01*
X10744200Y-14046200D02*
X10845800Y-14147800D01*
X10845800Y-14046200D02*
X10744200Y-14147800D01*
X10744200Y-14300200D02*
X10845800Y-14401800D01*
X10845800Y-14300200D02*
X10744200Y-14401800D01*
X10744200Y-14554200D02*
X10845800Y-14655800D01*
X10845800Y-14554200D02*
X10744200Y-14655800D01*
X10744200Y-14808200D02*
X10845800Y-14909800D01*
X10845800Y-14808200D02*
X10744200Y-14909800D01*
X10744200Y-15062200D02*
X10845800Y-15163800D01*
X10845800Y-15062200D02*
X10744200Y-15163800D01*
X17856200Y-10490200D02*
X17957800Y-10591800D01*
X17957800Y-10490200D02*
X17856200Y-10591800D01*
X17856200Y-10744200D02*
X17957800Y-10845800D01*
X17957800Y-10744200D02*
X17856200Y-10845800D01*
X17856200Y-10998200D02*
X17957800Y-11099800D01*
X17957800Y-10998200D02*
X17856200Y-11099800D01*
X17856200Y-11252200D02*
X17957800Y-11353800D01*
X17957800Y-11252200D02*
X17856200Y-11353800D01*
X17856200Y-11506200D02*
X17957800Y-11607800D01*
X17957800Y-11506200D02*
X17856200Y-11607800D01*
X17856200Y-11760200D02*
X17957800Y-11861800D01*
X17957800Y-11760200D02*
X17856200Y-11861800D01*
X17856200Y-12014200D02*
X17957800Y-12115800D01*
X17957800Y-12014200D02*
X17856200Y-12115800D01*
X17856200Y-12268200D02*
X17957800Y-12369800D01*
X17957800Y-12268200D02*
X17856200Y-12369800D01*
X17856200Y-12522200D02*
X17957800Y-12623800D01*
X17957800Y-12522200D02*
X17856200Y-12623800D01*
X17856200Y-12776200D02*
X17957800Y-12877800D01*
X17957800Y-12776200D02*
X17856200Y-12877800D01*
X17856200Y-13030200D02*
X17957800Y-13131800D01*
X17957800Y-13030200D02*
X17856200Y-13131800D01*
X17856200Y-13284200D02*
X17957800Y-13385800D01*
X17957800Y-13284200D02*
X17856200Y-13385800D01*
X17856200Y-13538200D02*
X17957800Y-13639800D01*
X17957800Y-13538200D02*
X17856200Y-13639800D01*
X17856200Y-13792200D02*
X17957800Y-13893800D01*
X17957800Y-13792200D02*
X17856200Y-13893800D01*
X17856200Y-14046200D02*
X17957800Y-14147800D01*
X17957800Y-14046200D02*
X17856200Y-14147800D01*
X17856200Y-14300200D02*
X17957800Y-14401800D01*
X17957800Y-14300200D02*
X17856200Y-14401800D01*
X17856200Y-14554200D02*
X17957800Y-14655800D01*
X17957800Y-14554200D02*
X17856200Y-14655800D01*
X17856200Y-14808200D02*
X17957800Y-14909800D01*
X17957800Y-14808200D02*
X17856200Y-14909800D01*
X17856200Y-15062200D02*
X17957800Y-15163800D01*
X17957800Y-15062200D02*
X17856200Y-15163800D01*
D13*
X10804929Y-15840214D02*
X10804929Y-15540214D01*
X10876357Y-15540214D01*
X10919214Y-15554500D01*
X10947786Y-15583071D01*
X10962071Y-15611643D01*
X10976357Y-15668786D01*
X10976357Y-15711643D01*
X10962071Y-15768786D01*
X10947786Y-15797357D01*
X10919214Y-15825929D01*
X10876357Y-15840214D01*
X10804929Y-15840214D01*
X11104929Y-15840214D02*
X11104929Y-15640214D01*
X11104929Y-15697357D02*
X11119214Y-15668786D01*
X11133500Y-15654500D01*
X11162071Y-15640214D01*
X11190643Y-15640214D01*
X11290643Y-15840214D02*
X11290643Y-15640214D01*
X11290643Y-15540214D02*
X11276357Y-15554500D01*
X11290643Y-15568786D01*
X11304928Y-15554500D01*
X11290643Y-15540214D01*
X11290643Y-15568786D01*
X11476357Y-15840214D02*
X11447786Y-15825929D01*
X11433500Y-15797357D01*
X11433500Y-15540214D01*
X11633500Y-15840214D02*
X11604928Y-15825929D01*
X11590643Y-15797357D01*
X11590643Y-15540214D01*
X11976357Y-15840214D02*
X11976357Y-15540214D01*
X12076357Y-15754500D01*
X12176357Y-15540214D01*
X12176357Y-15840214D01*
X12447786Y-15840214D02*
X12447786Y-15683071D01*
X12433500Y-15654500D01*
X12404928Y-15640214D01*
X12347786Y-15640214D01*
X12319214Y-15654500D01*
X12447786Y-15825929D02*
X12419214Y-15840214D01*
X12347786Y-15840214D01*
X12319214Y-15825929D01*
X12304928Y-15797357D01*
X12304928Y-15768786D01*
X12319214Y-15740214D01*
X12347786Y-15725929D01*
X12419214Y-15725929D01*
X12447786Y-15711643D01*
X12590643Y-15640214D02*
X12590643Y-15940214D01*
X12590643Y-15654500D02*
X12619214Y-15640214D01*
X12676357Y-15640214D01*
X12704928Y-15654500D01*
X12719214Y-15668786D01*
X12733500Y-15697357D01*
X12733500Y-15783071D01*
X12719214Y-15811643D01*
X12704928Y-15825929D01*
X12676357Y-15840214D01*
X12619214Y-15840214D01*
X12590643Y-15825929D01*
X12862071Y-15811643D02*
X12876357Y-15825929D01*
X12862071Y-15840214D01*
X12847786Y-15825929D01*
X12862071Y-15811643D01*
X12862071Y-15840214D01*
X12862071Y-15654500D02*
X12876357Y-15668786D01*
X12862071Y-15683071D01*
X12847786Y-15668786D01*
X12862071Y-15654500D01*
X12862071Y-15683071D01*
X10431900Y-16283700D02*
X10533500Y-16385300D01*
X10533500Y-16283700D02*
X10431900Y-16385300D01*
X10962071Y-16470214D02*
X10790643Y-16470214D01*
X10876357Y-16470214D02*
X10876357Y-16170214D01*
X10847786Y-16213071D01*
X10819214Y-16241643D01*
X10790643Y-16255929D01*
X11090643Y-16441643D02*
X11104929Y-16455929D01*
X11090643Y-16470214D01*
X11076357Y-16455929D01*
X11090643Y-16441643D01*
X11090643Y-16470214D01*
X11290643Y-16170214D02*
X11319214Y-16170214D01*
X11347786Y-16184500D01*
X11362071Y-16198786D01*
X11376357Y-16227357D01*
X11390643Y-16284500D01*
X11390643Y-16355929D01*
X11376357Y-16413071D01*
X11362071Y-16441643D01*
X11347786Y-16455929D01*
X11319214Y-16470214D01*
X11290643Y-16470214D01*
X11262071Y-16455929D01*
X11247786Y-16441643D01*
X11233500Y-16413071D01*
X11219214Y-16355929D01*
X11219214Y-16284500D01*
X11233500Y-16227357D01*
X11247786Y-16198786D01*
X11262071Y-16184500D01*
X11290643Y-16170214D01*
X11504928Y-16198786D02*
X11519214Y-16184500D01*
X11547786Y-16170214D01*
X11619214Y-16170214D01*
X11647786Y-16184500D01*
X11662071Y-16198786D01*
X11676357Y-16227357D01*
X11676357Y-16255929D01*
X11662071Y-16298786D01*
X11490643Y-16470214D01*
X11676357Y-16470214D01*
X11804928Y-16470214D02*
X11804928Y-16270214D01*
X11804928Y-16298786D02*
X11819214Y-16284500D01*
X11847786Y-16270214D01*
X11890643Y-16270214D01*
X11919214Y-16284500D01*
X11933500Y-16313071D01*
X11933500Y-16470214D01*
X11933500Y-16313071D02*
X11947786Y-16284500D01*
X11976357Y-16270214D01*
X12019214Y-16270214D01*
X12047786Y-16284500D01*
X12062071Y-16313071D01*
X12062071Y-16470214D01*
X12204928Y-16470214D02*
X12204928Y-16270214D01*
X12204928Y-16298786D02*
X12219214Y-16284500D01*
X12247786Y-16270214D01*
X12290643Y-16270214D01*
X12319214Y-16284500D01*
X12333500Y-16313071D01*
X12333500Y-16470214D01*
X12333500Y-16313071D02*
X12347786Y-16284500D01*
X12376357Y-16270214D01*
X12419214Y-16270214D01*
X12447786Y-16284500D01*
X12462071Y-16313071D01*
X12462071Y-16470214D01*
X13047786Y-16155929D02*
X12790643Y-16541643D01*
X13433500Y-16170214D02*
X13462071Y-16170214D01*
X13490643Y-16184500D01*
X13504928Y-16198786D01*
X13519214Y-16227357D01*
X13533500Y-16284500D01*
X13533500Y-16355929D01*
X13519214Y-16413071D01*
X13504928Y-16441643D01*
X13490643Y-16455929D01*
X13462071Y-16470214D01*
X13433500Y-16470214D01*
X13404928Y-16455929D01*
X13390643Y-16441643D01*
X13376357Y-16413071D01*
X13362071Y-16355929D01*
X13362071Y-16284500D01*
X13376357Y-16227357D01*
X13390643Y-16198786D01*
X13404928Y-16184500D01*
X13433500Y-16170214D01*
X13662071Y-16441643D02*
X13676357Y-16455929D01*
X13662071Y-16470214D01*
X13647786Y-16455929D01*
X13662071Y-16441643D01*
X13662071Y-16470214D01*
X13862071Y-16170214D02*
X13890643Y-16170214D01*
X13919214Y-16184500D01*
X13933500Y-16198786D01*
X13947785Y-16227357D01*
X13962071Y-16284500D01*
X13962071Y-16355929D01*
X13947785Y-16413071D01*
X13933500Y-16441643D01*
X13919214Y-16455929D01*
X13890643Y-16470214D01*
X13862071Y-16470214D01*
X13833500Y-16455929D01*
X13819214Y-16441643D01*
X13804928Y-16413071D01*
X13790643Y-16355929D01*
X13790643Y-16284500D01*
X13804928Y-16227357D01*
X13819214Y-16198786D01*
X13833500Y-16184500D01*
X13862071Y-16170214D01*
X14219214Y-16270214D02*
X14219214Y-16470214D01*
X14147785Y-16155929D02*
X14076357Y-16370214D01*
X14262071Y-16370214D01*
X14433500Y-16170214D02*
X14462071Y-16170214D01*
X14490643Y-16184500D01*
X14504928Y-16198786D01*
X14519214Y-16227357D01*
X14533500Y-16284500D01*
X14533500Y-16355929D01*
X14519214Y-16413071D01*
X14504928Y-16441643D01*
X14490643Y-16455929D01*
X14462071Y-16470214D01*
X14433500Y-16470214D01*
X14404928Y-16455929D01*
X14390643Y-16441643D01*
X14376357Y-16413071D01*
X14362071Y-16355929D01*
X14362071Y-16284500D01*
X14376357Y-16227357D01*
X14390643Y-16198786D01*
X14404928Y-16184500D01*
X14433500Y-16170214D01*
X14647786Y-16170214D02*
X14647786Y-16227357D01*
X14762071Y-16170214D02*
X14762071Y-16227357D01*
X15204928Y-16584500D02*
X15190643Y-16570214D01*
X15162071Y-16527357D01*
X15147785Y-16498786D01*
X15133500Y-16455929D01*
X15119214Y-16384500D01*
X15119214Y-16327357D01*
X15133500Y-16255929D01*
X15147785Y-16213071D01*
X15162071Y-16184500D01*
X15190643Y-16141643D01*
X15204928Y-16127357D01*
X15290643Y-16170214D02*
X15476357Y-16170214D01*
X15376357Y-16284500D01*
X15419214Y-16284500D01*
X15447785Y-16298786D01*
X15462071Y-16313071D01*
X15476357Y-16341643D01*
X15476357Y-16413071D01*
X15462071Y-16441643D01*
X15447785Y-16455929D01*
X15419214Y-16470214D01*
X15333500Y-16470214D01*
X15304928Y-16455929D01*
X15290643Y-16441643D01*
X15647785Y-16298786D02*
X15619214Y-16284500D01*
X15604928Y-16270214D01*
X15590643Y-16241643D01*
X15590643Y-16227357D01*
X15604928Y-16198786D01*
X15619214Y-16184500D01*
X15647785Y-16170214D01*
X15704928Y-16170214D01*
X15733500Y-16184500D01*
X15747785Y-16198786D01*
X15762071Y-16227357D01*
X15762071Y-16241643D01*
X15747785Y-16270214D01*
X15733500Y-16284500D01*
X15704928Y-16298786D01*
X15647785Y-16298786D01*
X15619214Y-16313071D01*
X15604928Y-16327357D01*
X15590643Y-16355929D01*
X15590643Y-16413071D01*
X15604928Y-16441643D01*
X15619214Y-16455929D01*
X15647785Y-16470214D01*
X15704928Y-16470214D01*
X15733500Y-16455929D01*
X15747785Y-16441643D01*
X15762071Y-16413071D01*
X15762071Y-16355929D01*
X15747785Y-16327357D01*
X15733500Y-16313071D01*
X15704928Y-16298786D01*
X16119214Y-16470214D02*
X16119214Y-16170214D01*
X16247785Y-16470214D02*
X16247785Y-16313071D01*
X16233500Y-16284500D01*
X16204928Y-16270214D01*
X16162071Y-16270214D01*
X16133500Y-16284500D01*
X16119214Y-16298786D01*
X16433500Y-16470214D02*
X16404928Y-16455929D01*
X16390643Y-16441643D01*
X16376357Y-16413071D01*
X16376357Y-16327357D01*
X16390643Y-16298786D01*
X16404928Y-16284500D01*
X16433500Y-16270214D01*
X16476357Y-16270214D01*
X16504928Y-16284500D01*
X16519214Y-16298786D01*
X16533500Y-16327357D01*
X16533500Y-16413071D01*
X16519214Y-16441643D01*
X16504928Y-16455929D01*
X16476357Y-16470214D01*
X16433500Y-16470214D01*
X16704928Y-16470214D02*
X16676357Y-16455929D01*
X16662071Y-16427357D01*
X16662071Y-16170214D01*
X16933500Y-16455929D02*
X16904929Y-16470214D01*
X16847786Y-16470214D01*
X16819214Y-16455929D01*
X16804929Y-16427357D01*
X16804929Y-16313071D01*
X16819214Y-16284500D01*
X16847786Y-16270214D01*
X16904929Y-16270214D01*
X16933500Y-16284500D01*
X16947786Y-16313071D01*
X16947786Y-16341643D01*
X16804929Y-16370214D01*
X17062071Y-16455929D02*
X17090643Y-16470214D01*
X17147786Y-16470214D01*
X17176357Y-16455929D01*
X17190643Y-16427357D01*
X17190643Y-16413071D01*
X17176357Y-16384500D01*
X17147786Y-16370214D01*
X17104929Y-16370214D01*
X17076357Y-16355929D01*
X17062071Y-16327357D01*
X17062071Y-16313071D01*
X17076357Y-16284500D01*
X17104929Y-16270214D01*
X17147786Y-16270214D01*
X17176357Y-16284500D01*
X17290643Y-16584500D02*
X17304929Y-16570214D01*
X17333500Y-16527357D01*
X17347786Y-16498786D01*
X17362071Y-16455929D01*
X17376357Y-16384500D01*
X17376357Y-16327357D01*
X17362071Y-16255929D01*
X17347786Y-16213071D01*
X17333500Y-16184500D01*
X17304929Y-16141643D01*
X17290643Y-16127357D01*
M02*
