M48
;DRILL file {KiCad 4.0.3+e1-6302~38~ubuntu16.04.1-stable} date Thu Aug 25 12:15:36 2016
;FORMAT={-:-/ absolute / inch / decimal}
FMAT,2
INCH,TZ
T1C0.040
%
G90
G05
M72
T1
X4.25Y-4.15
X4.25Y-4.25
X4.25Y-4.35
X4.25Y-4.45
X4.25Y-4.55
X4.25Y-4.65
X4.25Y-4.75
X4.25Y-4.85
X4.25Y-4.95
X4.25Y-5.05
X4.25Y-5.15
X4.25Y-5.25
X4.25Y-5.35
X4.25Y-5.45
X4.25Y-5.55
X4.25Y-5.65
X4.25Y-5.75
X4.25Y-5.85
X4.25Y-5.95
X7.05Y-4.15
X7.05Y-4.25
X7.05Y-4.35
X7.05Y-4.45
X7.05Y-4.55
X7.05Y-4.65
X7.05Y-4.75
X7.05Y-4.85
X7.05Y-4.95
X7.05Y-5.05
X7.05Y-5.15
X7.05Y-5.25
X7.05Y-5.35
X7.05Y-5.45
X7.05Y-5.55
X7.05Y-5.65
X7.05Y-5.75
X7.05Y-5.85
X7.05Y-5.95
T0
M30
