G04 #@! TF.FileFunction,Legend,Top*
%FSLAX46Y46*%
G04 Gerber Fmt 4.6, Leading zero omitted, Abs format (unit mm)*
G04 Created by KiCad (PCBNEW 4.0.3+e1-6302~38~ubuntu16.04.1-stable) date Thu Aug 25 17:16:29 2016*
%MOMM*%
%LPD*%
G01*
G04 APERTURE LIST*
%ADD10C,0.100000*%
%ADD11C,0.150000*%
G04 APERTURE END LIST*
D10*
D11*
X106680000Y-106680000D02*
X106680000Y-152400000D01*
X106680000Y-152400000D02*
X109220000Y-152400000D01*
X109220000Y-152400000D02*
X109220000Y-106680000D01*
X106400000Y-103860000D02*
X106400000Y-105410000D01*
X106680000Y-106680000D02*
X109220000Y-106680000D01*
X109500000Y-105410000D02*
X109500000Y-103860000D01*
X109500000Y-103860000D02*
X106400000Y-103860000D01*
X177800000Y-106680000D02*
X177800000Y-152400000D01*
X177800000Y-152400000D02*
X180340000Y-152400000D01*
X180340000Y-152400000D02*
X180340000Y-106680000D01*
X177520000Y-103860000D02*
X177520000Y-105410000D01*
X177800000Y-106680000D02*
X180340000Y-106680000D01*
X180620000Y-105410000D02*
X180620000Y-103860000D01*
X180620000Y-103860000D02*
X177520000Y-103860000D01*
X111577381Y-106148095D02*
X110577381Y-106148095D01*
X110577381Y-105767142D01*
X110625000Y-105671904D01*
X110672619Y-105624285D01*
X110767857Y-105576666D01*
X110910714Y-105576666D01*
X111005952Y-105624285D01*
X111053571Y-105671904D01*
X111101190Y-105767142D01*
X111101190Y-106148095D01*
X111577381Y-104624285D02*
X111577381Y-105195714D01*
X111577381Y-104910000D02*
X110577381Y-104910000D01*
X110720238Y-105005238D01*
X110815476Y-105100476D01*
X110863095Y-105195714D01*
X176982381Y-106148095D02*
X175982381Y-106148095D01*
X175982381Y-105767142D01*
X176030000Y-105671904D01*
X176077619Y-105624285D01*
X176172857Y-105576666D01*
X176315714Y-105576666D01*
X176410952Y-105624285D01*
X176458571Y-105671904D01*
X176506190Y-105767142D01*
X176506190Y-106148095D01*
X176077619Y-105195714D02*
X176030000Y-105148095D01*
X175982381Y-105052857D01*
X175982381Y-104814761D01*
X176030000Y-104719523D01*
X176077619Y-104671904D01*
X176172857Y-104624285D01*
X176268095Y-104624285D01*
X176410952Y-104671904D01*
X176982381Y-105243333D01*
X176982381Y-104624285D01*
M02*
