G04 #@! TF.FileFunction,Legend,Bot*
%FSLAX46Y46*%
G04 Gerber Fmt 4.6, Leading zero omitted, Abs format (unit mm)*
G04 Created by KiCad (PCBNEW 4.0.4+e1-6308~48~ubuntu16.04.1-stable) date Fri Nov  4 19:20:07 2016*
%MOMM*%
%LPD*%
G01*
G04 APERTURE LIST*
%ADD10C,0.100000*%
%ADD11C,0.300000*%
G04 APERTURE END LIST*
D10*
D11*
X90761429Y-104361427D02*
X92261429Y-104361427D01*
X92261429Y-104004284D01*
X92190000Y-103789999D01*
X92047143Y-103647141D01*
X91904286Y-103575713D01*
X91618571Y-103504284D01*
X91404286Y-103504284D01*
X91118571Y-103575713D01*
X90975714Y-103647141D01*
X90832857Y-103789999D01*
X90761429Y-104004284D01*
X90761429Y-104361427D01*
X91547143Y-102361427D02*
X91475714Y-102147141D01*
X91404286Y-102075713D01*
X91261429Y-102004284D01*
X91047143Y-102004284D01*
X90904286Y-102075713D01*
X90832857Y-102147141D01*
X90761429Y-102289999D01*
X90761429Y-102861427D01*
X92261429Y-102861427D01*
X92261429Y-102361427D01*
X92190000Y-102218570D01*
X92118571Y-102147141D01*
X91975714Y-102075713D01*
X91832857Y-102075713D01*
X91690000Y-102147141D01*
X91618571Y-102218570D01*
X91547143Y-102361427D01*
X91547143Y-102861427D01*
X90618571Y-101718570D02*
X90618571Y-100575713D01*
X91547143Y-99718570D02*
X91547143Y-100218570D01*
X90761429Y-100218570D02*
X92261429Y-100218570D01*
X92261429Y-99504284D01*
X90761429Y-98932856D02*
X91761429Y-98932856D01*
X92261429Y-98932856D02*
X92190000Y-99004285D01*
X92118571Y-98932856D01*
X92190000Y-98861428D01*
X92261429Y-98932856D01*
X92118571Y-98932856D01*
X90761429Y-98004284D02*
X90832857Y-98147142D01*
X90975714Y-98218570D01*
X92261429Y-98218570D01*
X91761429Y-97647142D02*
X91761429Y-97075713D01*
X92261429Y-97432856D02*
X90975714Y-97432856D01*
X90832857Y-97361428D01*
X90761429Y-97218570D01*
X90761429Y-97075713D01*
X90832857Y-96004285D02*
X90761429Y-96147142D01*
X90761429Y-96432856D01*
X90832857Y-96575713D01*
X90975714Y-96647142D01*
X91547143Y-96647142D01*
X91690000Y-96575713D01*
X91761429Y-96432856D01*
X91761429Y-96147142D01*
X91690000Y-96004285D01*
X91547143Y-95932856D01*
X91404286Y-95932856D01*
X91261429Y-96647142D01*
X90761429Y-95289999D02*
X91761429Y-95289999D01*
X91475714Y-95289999D02*
X91618571Y-95218571D01*
X91690000Y-95147142D01*
X91761429Y-95004285D01*
X91761429Y-94861428D01*
X90618571Y-94718571D02*
X90618571Y-93575714D01*
X92261429Y-93432857D02*
X90761429Y-92932857D01*
X92261429Y-92432857D01*
X90761429Y-91147143D02*
X90761429Y-92004286D01*
X90761429Y-91575714D02*
X92261429Y-91575714D01*
X92047143Y-91718571D01*
X91904286Y-91861429D01*
X91832857Y-92004286D01*
M02*
