M48
;DRILL file {KiCad 4.0.6-e0-6349~53~ubuntu16.04.1} date Thu Oct  5 16:50:16 2017
;FORMAT={-:-/ absolute / metric / decimal}
FMAT,2
METRIC,TZ
T1C0.400
T2C0.701
T3C0.800
T4C0.800
T5C1.001
T6C1.016
%
G90
G05
M71
T1
X103.505Y-144.272
X109.982Y-138.557
T2
X110.489Y-133.353
X110.491Y-129.537
X120.649Y-133.353
X120.651Y-129.537
T3
X93.98Y-132.08
X100.33Y-129.54
X100.33Y-132.04
X100.33Y-162.56
X102.83Y-162.56
X107.95Y-140.97
X107.95Y-146.05
T4
X93.98Y-129.58
X105.45Y-140.97
X105.45Y-146.05
T5
X127.127Y-128.905
X127.127Y-139.065
T6
X87.63Y-123.19
X87.63Y-125.73
X87.63Y-128.27
X87.63Y-130.81
X87.63Y-133.35
X87.63Y-135.89
X87.63Y-138.43
X87.63Y-140.97
X87.63Y-143.51
X87.63Y-146.05
X87.63Y-148.59
X87.63Y-151.13
X87.63Y-153.67
X87.63Y-156.21
X87.63Y-158.75
X87.63Y-161.29
X87.63Y-163.83
X87.63Y-166.37
X87.63Y-168.91
X93.98Y-124.46
X93.98Y-166.37
X96.52Y-124.46
X96.52Y-166.37
X114.3Y-124.46
X116.84Y-124.46
T0
M30
