G04 #@! TF.FileFunction,Copper,L1,Top,Signal*
%FSLAX46Y46*%
G04 Gerber Fmt 4.6, Leading zero omitted, Abs format (unit mm)*
G04 Created by KiCad (PCBNEW 4.0.6-e0-6349~53~ubuntu16.04.1) date Thu Oct  5 16:52:54 2017*
%MOMM*%
%LPD*%
G01*
G04 APERTURE LIST*
%ADD10C,0.100000*%
%ADD11R,1.300000X1.300000*%
%ADD12C,1.300000*%
%ADD13C,1.699260*%
%ADD14R,1.699260X1.699260*%
%ADD15R,2.032000X1.727200*%
%ADD16O,2.032000X1.727200*%
%ADD17R,1.778000X5.080000*%
%ADD18R,1.270000X5.080000*%
%ADD19R,2.032000X2.032000*%
%ADD20O,2.032000X2.032000*%
%ADD21R,1.450000X0.450000*%
%ADD22R,1.800000X0.600000*%
%ADD23C,1.998980*%
%ADD24C,0.600000*%
%ADD25C,0.250000*%
%ADD26C,0.254000*%
G04 APERTURE END LIST*
D10*
D11*
X93980000Y-132080000D03*
D12*
X93980000Y-129580000D03*
D11*
X100330000Y-129540000D03*
D12*
X100330000Y-132040000D03*
D11*
X100330000Y-162560000D03*
D12*
X102830000Y-162560000D03*
D11*
X107950000Y-140970000D03*
D12*
X105450000Y-140970000D03*
D11*
X107950000Y-146050000D03*
D12*
X105450000Y-146050000D03*
D13*
X120650520Y-129537460D03*
D14*
X110490520Y-129537460D03*
D13*
X110489480Y-133352540D03*
D14*
X120649480Y-133352540D03*
D15*
X87630000Y-123190000D03*
D16*
X87630000Y-125730000D03*
X87630000Y-128270000D03*
X87630000Y-130810000D03*
X87630000Y-133350000D03*
X87630000Y-135890000D03*
X87630000Y-138430000D03*
X87630000Y-140970000D03*
X87630000Y-143510000D03*
X87630000Y-146050000D03*
X87630000Y-148590000D03*
X87630000Y-151130000D03*
X87630000Y-153670000D03*
X87630000Y-156210000D03*
X87630000Y-158750000D03*
X87630000Y-161290000D03*
X87630000Y-163830000D03*
X87630000Y-166370000D03*
X87630000Y-168910000D03*
D17*
X101155500Y-168910000D03*
X109664500Y-168910000D03*
D18*
X105410000Y-168910000D03*
D19*
X96520000Y-166370000D03*
D20*
X93980000Y-166370000D03*
D17*
X121475500Y-121920000D03*
X129984500Y-121920000D03*
D18*
X125730000Y-121920000D03*
D17*
X101155500Y-121920000D03*
X109664500Y-121920000D03*
D18*
X105410000Y-121920000D03*
D19*
X114300000Y-124460000D03*
D20*
X116840000Y-124460000D03*
D19*
X93980000Y-124460000D03*
D20*
X96520000Y-124460000D03*
D21*
X95590000Y-146345000D03*
X95590000Y-146995000D03*
X95590000Y-147645000D03*
X95590000Y-148295000D03*
X99990000Y-148295000D03*
X99990000Y-147645000D03*
X99990000Y-146995000D03*
X99990000Y-146345000D03*
D22*
X112720000Y-137795000D03*
X112720000Y-139065000D03*
X112720000Y-140335000D03*
X112720000Y-141605000D03*
X118420000Y-141605000D03*
X118420000Y-140335000D03*
X118420000Y-139065000D03*
X118420000Y-137795000D03*
D23*
X127127000Y-128905000D03*
X127127000Y-139065000D03*
D24*
X103505000Y-144272000D03*
X109982000Y-138557000D03*
D25*
X102235000Y-147574000D02*
X100061000Y-147574000D01*
X103505000Y-146304000D02*
X102235000Y-147574000D01*
X103505000Y-144272000D02*
X103505000Y-146304000D01*
X100061000Y-147574000D02*
X99990000Y-147645000D01*
X87630000Y-135890000D02*
X87670000Y-135890000D01*
X87670000Y-135890000D02*
X94020000Y-129540000D01*
X94020000Y-129540000D02*
X100330000Y-129540000D01*
X110744000Y-137795000D02*
X112720000Y-137795000D01*
X109982000Y-138557000D02*
X110744000Y-137795000D01*
X102870000Y-162560000D02*
X105410000Y-165100000D01*
X105410000Y-165100000D02*
X105410000Y-168910000D01*
X96520000Y-166370000D02*
X99020000Y-166370000D01*
X99020000Y-166370000D02*
X102830000Y-162560000D01*
X107950000Y-140970000D02*
X109347000Y-140970000D01*
X111252000Y-139065000D02*
X112720000Y-139065000D01*
X109347000Y-140970000D02*
X111252000Y-139065000D01*
X105450000Y-140970000D02*
X103759000Y-140970000D01*
X101417000Y-146995000D02*
X99990000Y-146995000D01*
X102108000Y-146304000D02*
X101417000Y-146995000D01*
X102108000Y-142621000D02*
X102108000Y-146304000D01*
X103759000Y-140970000D02*
X102108000Y-142621000D01*
X107950000Y-146050000D02*
X108275000Y-146050000D01*
X108275000Y-146050000D02*
X112720000Y-141605000D01*
X99990000Y-148295000D02*
X103205000Y-148295000D01*
X103205000Y-148295000D02*
X105450000Y-146050000D01*
X118420000Y-141605000D02*
X118420000Y-140335000D01*
X118420000Y-140335000D02*
X120904000Y-140335000D01*
X120904000Y-140335000D02*
X123317000Y-137922000D01*
X123317000Y-137922000D02*
X123317000Y-132203940D01*
X123317000Y-132203940D02*
X120650520Y-129537460D01*
X127127000Y-128905000D02*
X127000000Y-128905000D01*
X127000000Y-128905000D02*
X124460000Y-126365000D01*
X105410000Y-121920000D02*
X105410000Y-125349000D01*
X105410000Y-125349000D02*
X109598460Y-129537460D01*
X109598460Y-129537460D02*
X110490520Y-129537460D01*
X113284000Y-126746000D02*
X114300000Y-125730000D01*
X106807000Y-126746000D02*
X113284000Y-126746000D01*
X105410000Y-125349000D02*
X106807000Y-126746000D01*
X114300000Y-125730000D02*
X114300000Y-124460000D01*
X93980000Y-124460000D02*
X93980000Y-125349000D01*
X93980000Y-125349000D02*
X96012000Y-127381000D01*
X96012000Y-127381000D02*
X103505000Y-127381000D01*
X103505000Y-127381000D02*
X105410000Y-125476000D01*
X105410000Y-125476000D02*
X105410000Y-121920000D01*
X110489480Y-133352540D02*
X110489480Y-129538500D01*
X110489480Y-129538500D02*
X110490520Y-129537460D01*
X114300000Y-124460000D02*
X114300000Y-125730000D01*
X125730000Y-125095000D02*
X125730000Y-121920000D01*
X114300000Y-125730000D02*
X115062000Y-126492000D01*
X115062000Y-126492000D02*
X124333000Y-126492000D01*
X124333000Y-126492000D02*
X124460000Y-126365000D01*
X124460000Y-126365000D02*
X125730000Y-125095000D01*
X118420000Y-139065000D02*
X118420000Y-137795000D01*
X118420000Y-137795000D02*
X120649480Y-135565520D01*
X120649480Y-135565520D02*
X120649480Y-133352540D01*
X93274000Y-146995000D02*
X94615000Y-148336000D01*
X94615000Y-148336000D02*
X95549000Y-148336000D01*
X95549000Y-148336000D02*
X95590000Y-148295000D01*
X87630000Y-143510000D02*
X89789000Y-143510000D01*
X93274000Y-146995000D02*
X93472000Y-146995000D01*
X93472000Y-146995000D02*
X95590000Y-146995000D01*
X89789000Y-143510000D02*
X93274000Y-146995000D01*
X95590000Y-147645000D02*
X97353000Y-147645000D01*
X93980000Y-136017000D02*
X93980000Y-132080000D01*
X97663000Y-139700000D02*
X93980000Y-136017000D01*
X97663000Y-147335000D02*
X97663000Y-139700000D01*
X97353000Y-147645000D02*
X97663000Y-147335000D01*
D26*
G36*
X99631500Y-121634250D02*
X99790250Y-121793000D01*
X101028500Y-121793000D01*
X101028500Y-121773000D01*
X101282500Y-121773000D01*
X101282500Y-121793000D01*
X102520750Y-121793000D01*
X102679500Y-121634250D01*
X102679500Y-120090000D01*
X104127560Y-120090000D01*
X104127560Y-124460000D01*
X104171838Y-124695317D01*
X104310910Y-124911441D01*
X104523110Y-125056431D01*
X104650000Y-125082127D01*
X104650000Y-125161198D01*
X103190198Y-126621000D01*
X96326802Y-126621000D01*
X95527996Y-125822194D01*
X95547856Y-125793128D01*
X95551621Y-125797188D01*
X96137054Y-126065983D01*
X96393000Y-125947367D01*
X96393000Y-124587000D01*
X96647000Y-124587000D01*
X96647000Y-125947367D01*
X96902946Y-126065983D01*
X97488379Y-125797188D01*
X97926385Y-125324818D01*
X98125975Y-124842944D01*
X98006836Y-124587000D01*
X96647000Y-124587000D01*
X96393000Y-124587000D01*
X96373000Y-124587000D01*
X96373000Y-124333000D01*
X96393000Y-124333000D01*
X96393000Y-122972633D01*
X96647000Y-122972633D01*
X96647000Y-124333000D01*
X98006836Y-124333000D01*
X98125975Y-124077056D01*
X97926385Y-123595182D01*
X97488379Y-123122812D01*
X96902946Y-122854017D01*
X96647000Y-122972633D01*
X96393000Y-122972633D01*
X96137054Y-122854017D01*
X95551621Y-123122812D01*
X95547066Y-123127724D01*
X95460090Y-122992559D01*
X95247890Y-122847569D01*
X94996000Y-122796560D01*
X92964000Y-122796560D01*
X92728683Y-122840838D01*
X92512559Y-122979910D01*
X92367569Y-123192110D01*
X92316560Y-123444000D01*
X92316560Y-125476000D01*
X92360838Y-125711317D01*
X92499910Y-125927441D01*
X92712110Y-126072431D01*
X92964000Y-126123440D01*
X93679638Y-126123440D01*
X95474599Y-127918401D01*
X95721161Y-128083148D01*
X96012000Y-128141000D01*
X103505000Y-128141000D01*
X103795839Y-128083148D01*
X104042401Y-127918401D01*
X105473500Y-126487302D01*
X108993450Y-130007252D01*
X108993450Y-130387090D01*
X109037728Y-130622407D01*
X109176800Y-130838531D01*
X109389000Y-130983521D01*
X109640890Y-131034530D01*
X109729480Y-131034530D01*
X109729480Y-132060193D01*
X109649603Y-132093198D01*
X109231606Y-132510466D01*
X109005108Y-133055933D01*
X109004592Y-133646556D01*
X109230138Y-134192417D01*
X109647406Y-134610414D01*
X110192873Y-134836912D01*
X110783496Y-134837428D01*
X111329357Y-134611882D01*
X111747354Y-134194614D01*
X111973852Y-133649147D01*
X111974368Y-133058524D01*
X111748822Y-132512663D01*
X111331554Y-132094666D01*
X111249480Y-132060586D01*
X111249480Y-131034530D01*
X111340150Y-131034530D01*
X111575467Y-130990252D01*
X111791591Y-130851180D01*
X111936581Y-130638980D01*
X111987590Y-130387090D01*
X111987590Y-128687830D01*
X111943312Y-128452513D01*
X111804240Y-128236389D01*
X111592040Y-128091399D01*
X111340150Y-128040390D01*
X109640890Y-128040390D01*
X109405573Y-128084668D01*
X109292944Y-128157142D01*
X108641802Y-127506000D01*
X113284000Y-127506000D01*
X113574839Y-127448148D01*
X113821401Y-127283401D01*
X114300000Y-126804802D01*
X114524599Y-127029401D01*
X114771161Y-127194148D01*
X115062000Y-127252000D01*
X124272198Y-127252000D01*
X125523853Y-128503655D01*
X125492794Y-128578453D01*
X125492226Y-129228694D01*
X125740538Y-129829655D01*
X126199927Y-130289846D01*
X126800453Y-130539206D01*
X127450694Y-130539774D01*
X128051655Y-130291462D01*
X128511846Y-129832073D01*
X128761206Y-129231547D01*
X128761774Y-128581306D01*
X128513462Y-127980345D01*
X128054073Y-127520154D01*
X127453547Y-127270794D01*
X126803306Y-127270226D01*
X126546244Y-127376442D01*
X125534802Y-126365000D01*
X126267401Y-125632401D01*
X126432148Y-125385840D01*
X126490000Y-125095000D01*
X126490000Y-125083920D01*
X126600317Y-125063162D01*
X126816441Y-124924090D01*
X126961431Y-124711890D01*
X127012440Y-124460000D01*
X127012440Y-122205750D01*
X128460500Y-122205750D01*
X128460500Y-124586310D01*
X128557173Y-124819699D01*
X128735802Y-124998327D01*
X128969191Y-125095000D01*
X129698750Y-125095000D01*
X129857500Y-124936250D01*
X129857500Y-122047000D01*
X128619250Y-122047000D01*
X128460500Y-122205750D01*
X127012440Y-122205750D01*
X127012440Y-120090000D01*
X128460500Y-120090000D01*
X128460500Y-121634250D01*
X128619250Y-121793000D01*
X129857500Y-121793000D01*
X129857500Y-121773000D01*
X130111500Y-121773000D01*
X130111500Y-121793000D01*
X130131500Y-121793000D01*
X130131500Y-122047000D01*
X130111500Y-122047000D01*
X130111500Y-124936250D01*
X130270250Y-125095000D01*
X130999809Y-125095000D01*
X131233198Y-124998327D01*
X131370000Y-124861526D01*
X131370000Y-170740000D01*
X111188500Y-170740000D01*
X111188500Y-169195750D01*
X111029750Y-169037000D01*
X109791500Y-169037000D01*
X109791500Y-169057000D01*
X109537500Y-169057000D01*
X109537500Y-169037000D01*
X108299250Y-169037000D01*
X108140500Y-169195750D01*
X108140500Y-170740000D01*
X106692440Y-170740000D01*
X106692440Y-166370000D01*
X106668674Y-166243690D01*
X108140500Y-166243690D01*
X108140500Y-168624250D01*
X108299250Y-168783000D01*
X109537500Y-168783000D01*
X109537500Y-165893750D01*
X109791500Y-165893750D01*
X109791500Y-168783000D01*
X111029750Y-168783000D01*
X111188500Y-168624250D01*
X111188500Y-166243690D01*
X111091827Y-166010301D01*
X110913198Y-165831673D01*
X110679809Y-165735000D01*
X109950250Y-165735000D01*
X109791500Y-165893750D01*
X109537500Y-165893750D01*
X109378750Y-165735000D01*
X108649191Y-165735000D01*
X108415802Y-165831673D01*
X108237173Y-166010301D01*
X108140500Y-166243690D01*
X106668674Y-166243690D01*
X106648162Y-166134683D01*
X106509090Y-165918559D01*
X106296890Y-165773569D01*
X106170000Y-165747873D01*
X106170000Y-165100000D01*
X106112148Y-164809161D01*
X106112148Y-164809160D01*
X105947401Y-164562599D01*
X104114853Y-162730051D01*
X104115223Y-162305519D01*
X103920005Y-161833057D01*
X103558845Y-161471265D01*
X103086724Y-161275223D01*
X102575519Y-161274777D01*
X102103057Y-161469995D01*
X101741265Y-161831155D01*
X101615000Y-162135235D01*
X101615000Y-161783690D01*
X101518327Y-161550301D01*
X101339698Y-161371673D01*
X101106309Y-161275000D01*
X100615750Y-161275000D01*
X100457000Y-161433750D01*
X100457000Y-162433000D01*
X100477000Y-162433000D01*
X100477000Y-162687000D01*
X100457000Y-162687000D01*
X100457000Y-163686250D01*
X100542974Y-163772224D01*
X98705198Y-165610000D01*
X98183440Y-165610000D01*
X98183440Y-165354000D01*
X98139162Y-165118683D01*
X98000090Y-164902559D01*
X97787890Y-164757569D01*
X97536000Y-164706560D01*
X95504000Y-164706560D01*
X95268683Y-164750838D01*
X95052559Y-164889910D01*
X94952144Y-165036872D01*
X94948379Y-165032812D01*
X94362946Y-164764017D01*
X94107000Y-164882633D01*
X94107000Y-166243000D01*
X94127000Y-166243000D01*
X94127000Y-166497000D01*
X94107000Y-166497000D01*
X94107000Y-167857367D01*
X94362946Y-167975983D01*
X94948379Y-167707188D01*
X94952934Y-167702276D01*
X95039910Y-167837441D01*
X95252110Y-167982431D01*
X95504000Y-168033440D01*
X97536000Y-168033440D01*
X97771317Y-167989162D01*
X97987441Y-167850090D01*
X98132431Y-167637890D01*
X98183440Y-167386000D01*
X98183440Y-167130000D01*
X99020000Y-167130000D01*
X99310839Y-167072148D01*
X99557401Y-166907401D01*
X99631500Y-166833302D01*
X99631500Y-168624250D01*
X99790250Y-168783000D01*
X101028500Y-168783000D01*
X101028500Y-165893750D01*
X101282500Y-165893750D01*
X101282500Y-168783000D01*
X102520750Y-168783000D01*
X102679500Y-168624250D01*
X102679500Y-166243690D01*
X102582827Y-166010301D01*
X102404198Y-165831673D01*
X102170809Y-165735000D01*
X101441250Y-165735000D01*
X101282500Y-165893750D01*
X101028500Y-165893750D01*
X100869750Y-165735000D01*
X100729802Y-165735000D01*
X102619984Y-163844818D01*
X103080417Y-163845219D01*
X104650000Y-165414802D01*
X104650000Y-165746080D01*
X104539683Y-165766838D01*
X104323559Y-165905910D01*
X104178569Y-166118110D01*
X104127560Y-166370000D01*
X104127560Y-170740000D01*
X102679500Y-170740000D01*
X102679500Y-169195750D01*
X102520750Y-169037000D01*
X101282500Y-169037000D01*
X101282500Y-169057000D01*
X101028500Y-169057000D01*
X101028500Y-169037000D01*
X99790250Y-169037000D01*
X99631500Y-169195750D01*
X99631500Y-170740000D01*
X85800000Y-170740000D01*
X85800000Y-125730000D01*
X85946655Y-125730000D01*
X86060729Y-126303489D01*
X86385585Y-126789670D01*
X86700366Y-127000000D01*
X86385585Y-127210330D01*
X86060729Y-127696511D01*
X85946655Y-128270000D01*
X86060729Y-128843489D01*
X86385585Y-129329670D01*
X86700366Y-129540000D01*
X86385585Y-129750330D01*
X86060729Y-130236511D01*
X85946655Y-130810000D01*
X86060729Y-131383489D01*
X86385585Y-131869670D01*
X86700366Y-132080000D01*
X86385585Y-132290330D01*
X86060729Y-132776511D01*
X85946655Y-133350000D01*
X86060729Y-133923489D01*
X86385585Y-134409670D01*
X86700366Y-134620000D01*
X86385585Y-134830330D01*
X86060729Y-135316511D01*
X85946655Y-135890000D01*
X86060729Y-136463489D01*
X86385585Y-136949670D01*
X86700366Y-137160000D01*
X86385585Y-137370330D01*
X86060729Y-137856511D01*
X85946655Y-138430000D01*
X86060729Y-139003489D01*
X86385585Y-139489670D01*
X86700366Y-139700000D01*
X86385585Y-139910330D01*
X86060729Y-140396511D01*
X85946655Y-140970000D01*
X86060729Y-141543489D01*
X86385585Y-142029670D01*
X86700366Y-142240000D01*
X86385585Y-142450330D01*
X86060729Y-142936511D01*
X85946655Y-143510000D01*
X86060729Y-144083489D01*
X86385585Y-144569670D01*
X86700366Y-144780000D01*
X86385585Y-144990330D01*
X86060729Y-145476511D01*
X85946655Y-146050000D01*
X86060729Y-146623489D01*
X86385585Y-147109670D01*
X86700366Y-147320000D01*
X86385585Y-147530330D01*
X86060729Y-148016511D01*
X85946655Y-148590000D01*
X86060729Y-149163489D01*
X86385585Y-149649670D01*
X86700366Y-149860000D01*
X86385585Y-150070330D01*
X86060729Y-150556511D01*
X85946655Y-151130000D01*
X86060729Y-151703489D01*
X86385585Y-152189670D01*
X86700366Y-152400000D01*
X86385585Y-152610330D01*
X86060729Y-153096511D01*
X85946655Y-153670000D01*
X86060729Y-154243489D01*
X86385585Y-154729670D01*
X86700366Y-154940000D01*
X86385585Y-155150330D01*
X86060729Y-155636511D01*
X85946655Y-156210000D01*
X86060729Y-156783489D01*
X86385585Y-157269670D01*
X86700366Y-157480000D01*
X86385585Y-157690330D01*
X86060729Y-158176511D01*
X85946655Y-158750000D01*
X86060729Y-159323489D01*
X86385585Y-159809670D01*
X86700366Y-160020000D01*
X86385585Y-160230330D01*
X86060729Y-160716511D01*
X85946655Y-161290000D01*
X86060729Y-161863489D01*
X86385585Y-162349670D01*
X86700366Y-162560000D01*
X86385585Y-162770330D01*
X86060729Y-163256511D01*
X85946655Y-163830000D01*
X86060729Y-164403489D01*
X86385585Y-164889670D01*
X86700366Y-165100000D01*
X86385585Y-165310330D01*
X86060729Y-165796511D01*
X85946655Y-166370000D01*
X86060729Y-166943489D01*
X86385585Y-167429670D01*
X86700366Y-167640000D01*
X86385585Y-167850330D01*
X86060729Y-168336511D01*
X85946655Y-168910000D01*
X86060729Y-169483489D01*
X86385585Y-169969670D01*
X86871766Y-170294526D01*
X87445255Y-170408600D01*
X87814745Y-170408600D01*
X88388234Y-170294526D01*
X88874415Y-169969670D01*
X89199271Y-169483489D01*
X89313345Y-168910000D01*
X89199271Y-168336511D01*
X88874415Y-167850330D01*
X88559634Y-167640000D01*
X88874415Y-167429670D01*
X89199271Y-166943489D01*
X89237172Y-166752944D01*
X92374025Y-166752944D01*
X92573615Y-167234818D01*
X93011621Y-167707188D01*
X93597054Y-167975983D01*
X93853000Y-167857367D01*
X93853000Y-166497000D01*
X92493164Y-166497000D01*
X92374025Y-166752944D01*
X89237172Y-166752944D01*
X89313345Y-166370000D01*
X89237173Y-165987056D01*
X92374025Y-165987056D01*
X92493164Y-166243000D01*
X93853000Y-166243000D01*
X93853000Y-164882633D01*
X93597054Y-164764017D01*
X93011621Y-165032812D01*
X92573615Y-165505182D01*
X92374025Y-165987056D01*
X89237173Y-165987056D01*
X89199271Y-165796511D01*
X88874415Y-165310330D01*
X88559634Y-165100000D01*
X88874415Y-164889670D01*
X89199271Y-164403489D01*
X89313345Y-163830000D01*
X89199271Y-163256511D01*
X88924810Y-162845750D01*
X99045000Y-162845750D01*
X99045000Y-163336310D01*
X99141673Y-163569699D01*
X99320302Y-163748327D01*
X99553691Y-163845000D01*
X100044250Y-163845000D01*
X100203000Y-163686250D01*
X100203000Y-162687000D01*
X99203750Y-162687000D01*
X99045000Y-162845750D01*
X88924810Y-162845750D01*
X88874415Y-162770330D01*
X88559634Y-162560000D01*
X88874415Y-162349670D01*
X89199271Y-161863489D01*
X89215144Y-161783690D01*
X99045000Y-161783690D01*
X99045000Y-162274250D01*
X99203750Y-162433000D01*
X100203000Y-162433000D01*
X100203000Y-161433750D01*
X100044250Y-161275000D01*
X99553691Y-161275000D01*
X99320302Y-161371673D01*
X99141673Y-161550301D01*
X99045000Y-161783690D01*
X89215144Y-161783690D01*
X89313345Y-161290000D01*
X89199271Y-160716511D01*
X88874415Y-160230330D01*
X88559634Y-160020000D01*
X88874415Y-159809670D01*
X89199271Y-159323489D01*
X89313345Y-158750000D01*
X89199271Y-158176511D01*
X88874415Y-157690330D01*
X88559634Y-157480000D01*
X88874415Y-157269670D01*
X89199271Y-156783489D01*
X89313345Y-156210000D01*
X89199271Y-155636511D01*
X88874415Y-155150330D01*
X88559634Y-154940000D01*
X88874415Y-154729670D01*
X89199271Y-154243489D01*
X89313345Y-153670000D01*
X89199271Y-153096511D01*
X88874415Y-152610330D01*
X88559634Y-152400000D01*
X88874415Y-152189670D01*
X89199271Y-151703489D01*
X89313345Y-151130000D01*
X89199271Y-150556511D01*
X88874415Y-150070330D01*
X88559634Y-149860000D01*
X88874415Y-149649670D01*
X89199271Y-149163489D01*
X89313345Y-148590000D01*
X89199271Y-148016511D01*
X88874415Y-147530330D01*
X88559634Y-147320000D01*
X88874415Y-147109670D01*
X89199271Y-146623489D01*
X89313345Y-146050000D01*
X89199271Y-145476511D01*
X88874415Y-144990330D01*
X88559634Y-144780000D01*
X88874415Y-144569670D01*
X89074648Y-144270000D01*
X89474198Y-144270000D01*
X94077599Y-148873401D01*
X94324160Y-149038148D01*
X94570152Y-149087079D01*
X94613110Y-149116431D01*
X94865000Y-149167440D01*
X96315000Y-149167440D01*
X96550317Y-149123162D01*
X96766441Y-148984090D01*
X96911431Y-148771890D01*
X96962440Y-148520000D01*
X96962440Y-148070000D01*
X96949020Y-147998677D01*
X96950000Y-147996310D01*
X96950000Y-147916250D01*
X96929688Y-147895938D01*
X96918162Y-147834683D01*
X96794671Y-147642773D01*
X96911431Y-147471890D01*
X96926558Y-147397192D01*
X96950000Y-147373750D01*
X96950000Y-147293690D01*
X96948333Y-147289665D01*
X96962440Y-147220000D01*
X96962440Y-146770000D01*
X96942933Y-146666329D01*
X96962440Y-146570000D01*
X96962440Y-146120000D01*
X98617560Y-146120000D01*
X98617560Y-146570000D01*
X98637067Y-146673671D01*
X98617560Y-146770000D01*
X98617560Y-147220000D01*
X98637067Y-147323671D01*
X98617560Y-147420000D01*
X98617560Y-147870000D01*
X98637067Y-147973671D01*
X98617560Y-148070000D01*
X98617560Y-148520000D01*
X98661838Y-148755317D01*
X98800910Y-148971441D01*
X99013110Y-149116431D01*
X99265000Y-149167440D01*
X100715000Y-149167440D01*
X100950317Y-149123162D01*
X101056244Y-149055000D01*
X103205000Y-149055000D01*
X103495839Y-148997148D01*
X103742401Y-148832401D01*
X105239984Y-147334818D01*
X105704481Y-147335223D01*
X106176943Y-147140005D01*
X106538735Y-146778845D01*
X106652560Y-146504724D01*
X106652560Y-146700000D01*
X106696838Y-146935317D01*
X106835910Y-147151441D01*
X107048110Y-147296431D01*
X107300000Y-147347440D01*
X108600000Y-147347440D01*
X108835317Y-147303162D01*
X109051441Y-147164090D01*
X109196431Y-146951890D01*
X109247440Y-146700000D01*
X109247440Y-146152362D01*
X112847362Y-142552440D01*
X113620000Y-142552440D01*
X113855317Y-142508162D01*
X114071441Y-142369090D01*
X114216431Y-142156890D01*
X114267440Y-141905000D01*
X114267440Y-141305000D01*
X114223162Y-141069683D01*
X114164822Y-140979020D01*
X114255000Y-140761310D01*
X114255000Y-140620750D01*
X114096250Y-140462000D01*
X112847000Y-140462000D01*
X112847000Y-140482000D01*
X112593000Y-140482000D01*
X112593000Y-140462000D01*
X111343750Y-140462000D01*
X111185000Y-140620750D01*
X111185000Y-140761310D01*
X111274806Y-140978122D01*
X111223569Y-141053110D01*
X111172560Y-141305000D01*
X111172560Y-141905000D01*
X111199900Y-142050298D01*
X108497638Y-144752560D01*
X107300000Y-144752560D01*
X107064683Y-144796838D01*
X106848559Y-144935910D01*
X106703569Y-145148110D01*
X106652560Y-145400000D01*
X106652560Y-145595460D01*
X106540005Y-145323057D01*
X106178845Y-144961265D01*
X105706724Y-144765223D01*
X105195519Y-144764777D01*
X104723057Y-144959995D01*
X104361265Y-145321155D01*
X104265000Y-145552987D01*
X104265000Y-144834463D01*
X104297192Y-144802327D01*
X104439838Y-144458799D01*
X104440162Y-144086833D01*
X104298117Y-143743057D01*
X104035327Y-143479808D01*
X103691799Y-143337162D01*
X103319833Y-143336838D01*
X102976057Y-143478883D01*
X102868000Y-143586752D01*
X102868000Y-142935802D01*
X104073802Y-141730000D01*
X104392994Y-141730000D01*
X104721155Y-142058735D01*
X105193276Y-142254777D01*
X105704481Y-142255223D01*
X106176943Y-142060005D01*
X106538735Y-141698845D01*
X106652560Y-141424724D01*
X106652560Y-141620000D01*
X106696838Y-141855317D01*
X106835910Y-142071441D01*
X107048110Y-142216431D01*
X107300000Y-142267440D01*
X108600000Y-142267440D01*
X108835317Y-142223162D01*
X109051441Y-142084090D01*
X109196431Y-141871890D01*
X109225164Y-141730000D01*
X109347000Y-141730000D01*
X109637839Y-141672148D01*
X109884401Y-141507401D01*
X111263776Y-140128026D01*
X111343750Y-140208000D01*
X112593000Y-140208000D01*
X112593000Y-140188000D01*
X112847000Y-140188000D01*
X112847000Y-140208000D01*
X114096250Y-140208000D01*
X114255000Y-140049250D01*
X114255000Y-139908690D01*
X114165194Y-139691878D01*
X114216431Y-139616890D01*
X114267440Y-139365000D01*
X114267440Y-138765000D01*
X114223162Y-138529683D01*
X114159322Y-138430472D01*
X114216431Y-138346890D01*
X114267440Y-138095000D01*
X114267440Y-137495000D01*
X116872560Y-137495000D01*
X116872560Y-138095000D01*
X116916838Y-138330317D01*
X116980678Y-138429528D01*
X116923569Y-138513110D01*
X116872560Y-138765000D01*
X116872560Y-139365000D01*
X116916838Y-139600317D01*
X116980678Y-139699528D01*
X116923569Y-139783110D01*
X116872560Y-140035000D01*
X116872560Y-140635000D01*
X116916838Y-140870317D01*
X116980678Y-140969528D01*
X116923569Y-141053110D01*
X116872560Y-141305000D01*
X116872560Y-141905000D01*
X116916838Y-142140317D01*
X117055910Y-142356441D01*
X117268110Y-142501431D01*
X117520000Y-142552440D01*
X119320000Y-142552440D01*
X119555317Y-142508162D01*
X119771441Y-142369090D01*
X119916431Y-142156890D01*
X119967440Y-141905000D01*
X119967440Y-141305000D01*
X119927926Y-141095000D01*
X120904000Y-141095000D01*
X121194839Y-141037148D01*
X121441401Y-140872401D01*
X122096639Y-140217163D01*
X126154443Y-140217163D01*
X126253042Y-140483965D01*
X126862582Y-140710401D01*
X127512377Y-140686341D01*
X128000958Y-140483965D01*
X128099557Y-140217163D01*
X127127000Y-139244605D01*
X126154443Y-140217163D01*
X122096639Y-140217163D01*
X123513220Y-138800582D01*
X125481599Y-138800582D01*
X125505659Y-139450377D01*
X125708035Y-139938958D01*
X125974837Y-140037557D01*
X126947395Y-139065000D01*
X127306605Y-139065000D01*
X128279163Y-140037557D01*
X128545965Y-139938958D01*
X128772401Y-139329418D01*
X128748341Y-138679623D01*
X128545965Y-138191042D01*
X128279163Y-138092443D01*
X127306605Y-139065000D01*
X126947395Y-139065000D01*
X125974837Y-138092443D01*
X125708035Y-138191042D01*
X125481599Y-138800582D01*
X123513220Y-138800582D01*
X123854401Y-138459401D01*
X124019148Y-138212840D01*
X124077000Y-137922000D01*
X124077000Y-137912837D01*
X126154443Y-137912837D01*
X127127000Y-138885395D01*
X128099557Y-137912837D01*
X128000958Y-137646035D01*
X127391418Y-137419599D01*
X126741623Y-137443659D01*
X126253042Y-137646035D01*
X126154443Y-137912837D01*
X124077000Y-137912837D01*
X124077000Y-132203940D01*
X124029566Y-131965474D01*
X124019148Y-131913100D01*
X123854401Y-131666539D01*
X122101748Y-129913886D01*
X122134892Y-129834067D01*
X122135408Y-129243444D01*
X121909862Y-128697583D01*
X121492594Y-128279586D01*
X120947127Y-128053088D01*
X120356504Y-128052572D01*
X119810643Y-128278118D01*
X119392646Y-128695386D01*
X119166148Y-129240853D01*
X119165632Y-129831476D01*
X119391178Y-130377337D01*
X119808446Y-130795334D01*
X120353913Y-131021832D01*
X120944536Y-131022348D01*
X121026669Y-130988411D01*
X122557000Y-132518742D01*
X122557000Y-137607198D01*
X120589198Y-139575000D01*
X119924914Y-139575000D01*
X119967440Y-139365000D01*
X119967440Y-138765000D01*
X119923162Y-138529683D01*
X119859322Y-138430472D01*
X119916431Y-138346890D01*
X119967440Y-138095000D01*
X119967440Y-137495000D01*
X119940100Y-137349702D01*
X121186881Y-136102921D01*
X121351628Y-135856359D01*
X121409480Y-135565520D01*
X121409480Y-134849610D01*
X121499110Y-134849610D01*
X121734427Y-134805332D01*
X121950551Y-134666260D01*
X122095541Y-134454060D01*
X122146550Y-134202170D01*
X122146550Y-132502910D01*
X122102272Y-132267593D01*
X121963200Y-132051469D01*
X121751000Y-131906479D01*
X121499110Y-131855470D01*
X119799850Y-131855470D01*
X119564533Y-131899748D01*
X119348409Y-132038820D01*
X119203419Y-132251020D01*
X119152410Y-132502910D01*
X119152410Y-134202170D01*
X119196688Y-134437487D01*
X119335760Y-134653611D01*
X119547960Y-134798601D01*
X119799850Y-134849610D01*
X119889480Y-134849610D01*
X119889480Y-135250718D01*
X118292638Y-136847560D01*
X117520000Y-136847560D01*
X117284683Y-136891838D01*
X117068559Y-137030910D01*
X116923569Y-137243110D01*
X116872560Y-137495000D01*
X114267440Y-137495000D01*
X114223162Y-137259683D01*
X114084090Y-137043559D01*
X113871890Y-136898569D01*
X113620000Y-136847560D01*
X111820000Y-136847560D01*
X111584683Y-136891838D01*
X111368559Y-137030910D01*
X111365764Y-137035000D01*
X110744000Y-137035000D01*
X110453161Y-137092852D01*
X110206599Y-137257599D01*
X109842320Y-137621878D01*
X109796833Y-137621838D01*
X109453057Y-137763883D01*
X109189808Y-138026673D01*
X109047162Y-138370201D01*
X109046838Y-138742167D01*
X109188883Y-139085943D01*
X109451673Y-139349192D01*
X109763517Y-139478681D01*
X109185290Y-140056908D01*
X109064090Y-139868559D01*
X108851890Y-139723569D01*
X108600000Y-139672560D01*
X107300000Y-139672560D01*
X107064683Y-139716838D01*
X106848559Y-139855910D01*
X106703569Y-140068110D01*
X106652560Y-140320000D01*
X106652560Y-140515460D01*
X106540005Y-140243057D01*
X106178845Y-139881265D01*
X105706724Y-139685223D01*
X105195519Y-139684777D01*
X104723057Y-139879995D01*
X104392475Y-140210000D01*
X103759000Y-140210000D01*
X103468161Y-140267852D01*
X103221599Y-140432599D01*
X101570599Y-142083599D01*
X101405852Y-142330161D01*
X101348000Y-142621000D01*
X101348000Y-145989198D01*
X101339439Y-145997759D01*
X101318162Y-145884683D01*
X101179090Y-145668559D01*
X100966890Y-145523569D01*
X100715000Y-145472560D01*
X99265000Y-145472560D01*
X99029683Y-145516838D01*
X98813559Y-145655910D01*
X98668569Y-145868110D01*
X98617560Y-146120000D01*
X96962440Y-146120000D01*
X96918162Y-145884683D01*
X96779090Y-145668559D01*
X96566890Y-145523569D01*
X96315000Y-145472560D01*
X94865000Y-145472560D01*
X94629683Y-145516838D01*
X94413559Y-145655910D01*
X94268569Y-145868110D01*
X94217560Y-146120000D01*
X94217560Y-146235000D01*
X93588802Y-146235000D01*
X90326401Y-142972599D01*
X90079839Y-142807852D01*
X89789000Y-142750000D01*
X89074648Y-142750000D01*
X88874415Y-142450330D01*
X88559634Y-142240000D01*
X88874415Y-142029670D01*
X89199271Y-141543489D01*
X89313345Y-140970000D01*
X89199271Y-140396511D01*
X88874415Y-139910330D01*
X88559634Y-139700000D01*
X88874415Y-139489670D01*
X89199271Y-139003489D01*
X89313345Y-138430000D01*
X89199271Y-137856511D01*
X88874415Y-137370330D01*
X88559634Y-137160000D01*
X88874415Y-136949670D01*
X89199271Y-136463489D01*
X89313345Y-135890000D01*
X89219018Y-135415784D01*
X92269052Y-132365750D01*
X92695000Y-132365750D01*
X92695000Y-132856309D01*
X92791673Y-133089698D01*
X92970301Y-133268327D01*
X93203690Y-133365000D01*
X93694250Y-133365000D01*
X93853000Y-133206250D01*
X93853000Y-132207000D01*
X94107000Y-132207000D01*
X94107000Y-133206250D01*
X94265750Y-133365000D01*
X94756310Y-133365000D01*
X94989699Y-133268327D01*
X95168327Y-133089698D01*
X95230741Y-132939016D01*
X99610590Y-132939016D01*
X99666271Y-133169611D01*
X100149078Y-133337622D01*
X100659428Y-133308083D01*
X100993729Y-133169611D01*
X101049410Y-132939016D01*
X100330000Y-132219605D01*
X99610590Y-132939016D01*
X95230741Y-132939016D01*
X95265000Y-132856309D01*
X95265000Y-132365750D01*
X95106250Y-132207000D01*
X94107000Y-132207000D01*
X93853000Y-132207000D01*
X92853750Y-132207000D01*
X92695000Y-132365750D01*
X92269052Y-132365750D01*
X92767776Y-131867026D01*
X92853750Y-131953000D01*
X93853000Y-131953000D01*
X93853000Y-131933000D01*
X94107000Y-131933000D01*
X94107000Y-131953000D01*
X95106250Y-131953000D01*
X95200172Y-131859078D01*
X99032378Y-131859078D01*
X99061917Y-132369428D01*
X99200389Y-132703729D01*
X99430984Y-132759410D01*
X100150395Y-132040000D01*
X100509605Y-132040000D01*
X101229016Y-132759410D01*
X101459611Y-132703729D01*
X101627622Y-132220922D01*
X101598083Y-131710572D01*
X101459611Y-131376271D01*
X101229016Y-131320590D01*
X100509605Y-132040000D01*
X100150395Y-132040000D01*
X99430984Y-131320590D01*
X99200389Y-131376271D01*
X99032378Y-131859078D01*
X95200172Y-131859078D01*
X95265000Y-131794250D01*
X95265000Y-131303691D01*
X95168327Y-131070302D01*
X94989699Y-130891673D01*
X94756310Y-130795000D01*
X94404433Y-130795000D01*
X94706943Y-130670005D01*
X95068735Y-130308845D01*
X95072408Y-130300000D01*
X99053258Y-130300000D01*
X99076838Y-130425317D01*
X99215910Y-130641441D01*
X99428110Y-130786431D01*
X99680000Y-130837440D01*
X99842385Y-130837440D01*
X99666271Y-130910389D01*
X99610590Y-131140984D01*
X100330000Y-131860395D01*
X101049410Y-131140984D01*
X100993729Y-130910389D01*
X100784098Y-130837440D01*
X100980000Y-130837440D01*
X101215317Y-130793162D01*
X101431441Y-130654090D01*
X101576431Y-130441890D01*
X101627440Y-130190000D01*
X101627440Y-128890000D01*
X101583162Y-128654683D01*
X101444090Y-128438559D01*
X101231890Y-128293569D01*
X100980000Y-128242560D01*
X99680000Y-128242560D01*
X99444683Y-128286838D01*
X99228559Y-128425910D01*
X99083569Y-128638110D01*
X99054836Y-128780000D01*
X94997076Y-128780000D01*
X94708845Y-128491265D01*
X94236724Y-128295223D01*
X93725519Y-128294777D01*
X93253057Y-128489995D01*
X92891265Y-128851155D01*
X92695223Y-129323276D01*
X92694815Y-129790383D01*
X89283789Y-133201409D01*
X89199271Y-132776511D01*
X88874415Y-132290330D01*
X88559634Y-132080000D01*
X88874415Y-131869670D01*
X89199271Y-131383489D01*
X89313345Y-130810000D01*
X89199271Y-130236511D01*
X88874415Y-129750330D01*
X88559634Y-129540000D01*
X88874415Y-129329670D01*
X89199271Y-128843489D01*
X89313345Y-128270000D01*
X89199271Y-127696511D01*
X88874415Y-127210330D01*
X88559634Y-127000000D01*
X88874415Y-126789670D01*
X89199271Y-126303489D01*
X89313345Y-125730000D01*
X89199271Y-125156511D01*
X88874415Y-124670330D01*
X88852220Y-124655500D01*
X89005699Y-124591927D01*
X89184327Y-124413298D01*
X89281000Y-124179909D01*
X89281000Y-123475750D01*
X89122250Y-123317000D01*
X87757000Y-123317000D01*
X87757000Y-123337000D01*
X87503000Y-123337000D01*
X87503000Y-123317000D01*
X86137750Y-123317000D01*
X85979000Y-123475750D01*
X85979000Y-124179909D01*
X86075673Y-124413298D01*
X86254301Y-124591927D01*
X86407780Y-124655500D01*
X86385585Y-124670330D01*
X86060729Y-125156511D01*
X85946655Y-125730000D01*
X85800000Y-125730000D01*
X85800000Y-122200091D01*
X85979000Y-122200091D01*
X85979000Y-122904250D01*
X86137750Y-123063000D01*
X87503000Y-123063000D01*
X87503000Y-121850150D01*
X87757000Y-121850150D01*
X87757000Y-123063000D01*
X89122250Y-123063000D01*
X89281000Y-122904250D01*
X89281000Y-122205750D01*
X99631500Y-122205750D01*
X99631500Y-124586310D01*
X99728173Y-124819699D01*
X99906802Y-124998327D01*
X100140191Y-125095000D01*
X100869750Y-125095000D01*
X101028500Y-124936250D01*
X101028500Y-122047000D01*
X101282500Y-122047000D01*
X101282500Y-124936250D01*
X101441250Y-125095000D01*
X102170809Y-125095000D01*
X102404198Y-124998327D01*
X102582827Y-124819699D01*
X102679500Y-124586310D01*
X102679500Y-122205750D01*
X102520750Y-122047000D01*
X101282500Y-122047000D01*
X101028500Y-122047000D01*
X99790250Y-122047000D01*
X99631500Y-122205750D01*
X89281000Y-122205750D01*
X89281000Y-122200091D01*
X89184327Y-121966702D01*
X89005699Y-121788073D01*
X88772310Y-121691400D01*
X87915750Y-121691400D01*
X87757000Y-121850150D01*
X87503000Y-121850150D01*
X87344250Y-121691400D01*
X86487690Y-121691400D01*
X86254301Y-121788073D01*
X86075673Y-121966702D01*
X85979000Y-122200091D01*
X85800000Y-122200091D01*
X85800000Y-120090000D01*
X99631500Y-120090000D01*
X99631500Y-121634250D01*
X99631500Y-121634250D01*
G37*
X99631500Y-121634250D02*
X99790250Y-121793000D01*
X101028500Y-121793000D01*
X101028500Y-121773000D01*
X101282500Y-121773000D01*
X101282500Y-121793000D01*
X102520750Y-121793000D01*
X102679500Y-121634250D01*
X102679500Y-120090000D01*
X104127560Y-120090000D01*
X104127560Y-124460000D01*
X104171838Y-124695317D01*
X104310910Y-124911441D01*
X104523110Y-125056431D01*
X104650000Y-125082127D01*
X104650000Y-125161198D01*
X103190198Y-126621000D01*
X96326802Y-126621000D01*
X95527996Y-125822194D01*
X95547856Y-125793128D01*
X95551621Y-125797188D01*
X96137054Y-126065983D01*
X96393000Y-125947367D01*
X96393000Y-124587000D01*
X96647000Y-124587000D01*
X96647000Y-125947367D01*
X96902946Y-126065983D01*
X97488379Y-125797188D01*
X97926385Y-125324818D01*
X98125975Y-124842944D01*
X98006836Y-124587000D01*
X96647000Y-124587000D01*
X96393000Y-124587000D01*
X96373000Y-124587000D01*
X96373000Y-124333000D01*
X96393000Y-124333000D01*
X96393000Y-122972633D01*
X96647000Y-122972633D01*
X96647000Y-124333000D01*
X98006836Y-124333000D01*
X98125975Y-124077056D01*
X97926385Y-123595182D01*
X97488379Y-123122812D01*
X96902946Y-122854017D01*
X96647000Y-122972633D01*
X96393000Y-122972633D01*
X96137054Y-122854017D01*
X95551621Y-123122812D01*
X95547066Y-123127724D01*
X95460090Y-122992559D01*
X95247890Y-122847569D01*
X94996000Y-122796560D01*
X92964000Y-122796560D01*
X92728683Y-122840838D01*
X92512559Y-122979910D01*
X92367569Y-123192110D01*
X92316560Y-123444000D01*
X92316560Y-125476000D01*
X92360838Y-125711317D01*
X92499910Y-125927441D01*
X92712110Y-126072431D01*
X92964000Y-126123440D01*
X93679638Y-126123440D01*
X95474599Y-127918401D01*
X95721161Y-128083148D01*
X96012000Y-128141000D01*
X103505000Y-128141000D01*
X103795839Y-128083148D01*
X104042401Y-127918401D01*
X105473500Y-126487302D01*
X108993450Y-130007252D01*
X108993450Y-130387090D01*
X109037728Y-130622407D01*
X109176800Y-130838531D01*
X109389000Y-130983521D01*
X109640890Y-131034530D01*
X109729480Y-131034530D01*
X109729480Y-132060193D01*
X109649603Y-132093198D01*
X109231606Y-132510466D01*
X109005108Y-133055933D01*
X109004592Y-133646556D01*
X109230138Y-134192417D01*
X109647406Y-134610414D01*
X110192873Y-134836912D01*
X110783496Y-134837428D01*
X111329357Y-134611882D01*
X111747354Y-134194614D01*
X111973852Y-133649147D01*
X111974368Y-133058524D01*
X111748822Y-132512663D01*
X111331554Y-132094666D01*
X111249480Y-132060586D01*
X111249480Y-131034530D01*
X111340150Y-131034530D01*
X111575467Y-130990252D01*
X111791591Y-130851180D01*
X111936581Y-130638980D01*
X111987590Y-130387090D01*
X111987590Y-128687830D01*
X111943312Y-128452513D01*
X111804240Y-128236389D01*
X111592040Y-128091399D01*
X111340150Y-128040390D01*
X109640890Y-128040390D01*
X109405573Y-128084668D01*
X109292944Y-128157142D01*
X108641802Y-127506000D01*
X113284000Y-127506000D01*
X113574839Y-127448148D01*
X113821401Y-127283401D01*
X114300000Y-126804802D01*
X114524599Y-127029401D01*
X114771161Y-127194148D01*
X115062000Y-127252000D01*
X124272198Y-127252000D01*
X125523853Y-128503655D01*
X125492794Y-128578453D01*
X125492226Y-129228694D01*
X125740538Y-129829655D01*
X126199927Y-130289846D01*
X126800453Y-130539206D01*
X127450694Y-130539774D01*
X128051655Y-130291462D01*
X128511846Y-129832073D01*
X128761206Y-129231547D01*
X128761774Y-128581306D01*
X128513462Y-127980345D01*
X128054073Y-127520154D01*
X127453547Y-127270794D01*
X126803306Y-127270226D01*
X126546244Y-127376442D01*
X125534802Y-126365000D01*
X126267401Y-125632401D01*
X126432148Y-125385840D01*
X126490000Y-125095000D01*
X126490000Y-125083920D01*
X126600317Y-125063162D01*
X126816441Y-124924090D01*
X126961431Y-124711890D01*
X127012440Y-124460000D01*
X127012440Y-122205750D01*
X128460500Y-122205750D01*
X128460500Y-124586310D01*
X128557173Y-124819699D01*
X128735802Y-124998327D01*
X128969191Y-125095000D01*
X129698750Y-125095000D01*
X129857500Y-124936250D01*
X129857500Y-122047000D01*
X128619250Y-122047000D01*
X128460500Y-122205750D01*
X127012440Y-122205750D01*
X127012440Y-120090000D01*
X128460500Y-120090000D01*
X128460500Y-121634250D01*
X128619250Y-121793000D01*
X129857500Y-121793000D01*
X129857500Y-121773000D01*
X130111500Y-121773000D01*
X130111500Y-121793000D01*
X130131500Y-121793000D01*
X130131500Y-122047000D01*
X130111500Y-122047000D01*
X130111500Y-124936250D01*
X130270250Y-125095000D01*
X130999809Y-125095000D01*
X131233198Y-124998327D01*
X131370000Y-124861526D01*
X131370000Y-170740000D01*
X111188500Y-170740000D01*
X111188500Y-169195750D01*
X111029750Y-169037000D01*
X109791500Y-169037000D01*
X109791500Y-169057000D01*
X109537500Y-169057000D01*
X109537500Y-169037000D01*
X108299250Y-169037000D01*
X108140500Y-169195750D01*
X108140500Y-170740000D01*
X106692440Y-170740000D01*
X106692440Y-166370000D01*
X106668674Y-166243690D01*
X108140500Y-166243690D01*
X108140500Y-168624250D01*
X108299250Y-168783000D01*
X109537500Y-168783000D01*
X109537500Y-165893750D01*
X109791500Y-165893750D01*
X109791500Y-168783000D01*
X111029750Y-168783000D01*
X111188500Y-168624250D01*
X111188500Y-166243690D01*
X111091827Y-166010301D01*
X110913198Y-165831673D01*
X110679809Y-165735000D01*
X109950250Y-165735000D01*
X109791500Y-165893750D01*
X109537500Y-165893750D01*
X109378750Y-165735000D01*
X108649191Y-165735000D01*
X108415802Y-165831673D01*
X108237173Y-166010301D01*
X108140500Y-166243690D01*
X106668674Y-166243690D01*
X106648162Y-166134683D01*
X106509090Y-165918559D01*
X106296890Y-165773569D01*
X106170000Y-165747873D01*
X106170000Y-165100000D01*
X106112148Y-164809161D01*
X106112148Y-164809160D01*
X105947401Y-164562599D01*
X104114853Y-162730051D01*
X104115223Y-162305519D01*
X103920005Y-161833057D01*
X103558845Y-161471265D01*
X103086724Y-161275223D01*
X102575519Y-161274777D01*
X102103057Y-161469995D01*
X101741265Y-161831155D01*
X101615000Y-162135235D01*
X101615000Y-161783690D01*
X101518327Y-161550301D01*
X101339698Y-161371673D01*
X101106309Y-161275000D01*
X100615750Y-161275000D01*
X100457000Y-161433750D01*
X100457000Y-162433000D01*
X100477000Y-162433000D01*
X100477000Y-162687000D01*
X100457000Y-162687000D01*
X100457000Y-163686250D01*
X100542974Y-163772224D01*
X98705198Y-165610000D01*
X98183440Y-165610000D01*
X98183440Y-165354000D01*
X98139162Y-165118683D01*
X98000090Y-164902559D01*
X97787890Y-164757569D01*
X97536000Y-164706560D01*
X95504000Y-164706560D01*
X95268683Y-164750838D01*
X95052559Y-164889910D01*
X94952144Y-165036872D01*
X94948379Y-165032812D01*
X94362946Y-164764017D01*
X94107000Y-164882633D01*
X94107000Y-166243000D01*
X94127000Y-166243000D01*
X94127000Y-166497000D01*
X94107000Y-166497000D01*
X94107000Y-167857367D01*
X94362946Y-167975983D01*
X94948379Y-167707188D01*
X94952934Y-167702276D01*
X95039910Y-167837441D01*
X95252110Y-167982431D01*
X95504000Y-168033440D01*
X97536000Y-168033440D01*
X97771317Y-167989162D01*
X97987441Y-167850090D01*
X98132431Y-167637890D01*
X98183440Y-167386000D01*
X98183440Y-167130000D01*
X99020000Y-167130000D01*
X99310839Y-167072148D01*
X99557401Y-166907401D01*
X99631500Y-166833302D01*
X99631500Y-168624250D01*
X99790250Y-168783000D01*
X101028500Y-168783000D01*
X101028500Y-165893750D01*
X101282500Y-165893750D01*
X101282500Y-168783000D01*
X102520750Y-168783000D01*
X102679500Y-168624250D01*
X102679500Y-166243690D01*
X102582827Y-166010301D01*
X102404198Y-165831673D01*
X102170809Y-165735000D01*
X101441250Y-165735000D01*
X101282500Y-165893750D01*
X101028500Y-165893750D01*
X100869750Y-165735000D01*
X100729802Y-165735000D01*
X102619984Y-163844818D01*
X103080417Y-163845219D01*
X104650000Y-165414802D01*
X104650000Y-165746080D01*
X104539683Y-165766838D01*
X104323559Y-165905910D01*
X104178569Y-166118110D01*
X104127560Y-166370000D01*
X104127560Y-170740000D01*
X102679500Y-170740000D01*
X102679500Y-169195750D01*
X102520750Y-169037000D01*
X101282500Y-169037000D01*
X101282500Y-169057000D01*
X101028500Y-169057000D01*
X101028500Y-169037000D01*
X99790250Y-169037000D01*
X99631500Y-169195750D01*
X99631500Y-170740000D01*
X85800000Y-170740000D01*
X85800000Y-125730000D01*
X85946655Y-125730000D01*
X86060729Y-126303489D01*
X86385585Y-126789670D01*
X86700366Y-127000000D01*
X86385585Y-127210330D01*
X86060729Y-127696511D01*
X85946655Y-128270000D01*
X86060729Y-128843489D01*
X86385585Y-129329670D01*
X86700366Y-129540000D01*
X86385585Y-129750330D01*
X86060729Y-130236511D01*
X85946655Y-130810000D01*
X86060729Y-131383489D01*
X86385585Y-131869670D01*
X86700366Y-132080000D01*
X86385585Y-132290330D01*
X86060729Y-132776511D01*
X85946655Y-133350000D01*
X86060729Y-133923489D01*
X86385585Y-134409670D01*
X86700366Y-134620000D01*
X86385585Y-134830330D01*
X86060729Y-135316511D01*
X85946655Y-135890000D01*
X86060729Y-136463489D01*
X86385585Y-136949670D01*
X86700366Y-137160000D01*
X86385585Y-137370330D01*
X86060729Y-137856511D01*
X85946655Y-138430000D01*
X86060729Y-139003489D01*
X86385585Y-139489670D01*
X86700366Y-139700000D01*
X86385585Y-139910330D01*
X86060729Y-140396511D01*
X85946655Y-140970000D01*
X86060729Y-141543489D01*
X86385585Y-142029670D01*
X86700366Y-142240000D01*
X86385585Y-142450330D01*
X86060729Y-142936511D01*
X85946655Y-143510000D01*
X86060729Y-144083489D01*
X86385585Y-144569670D01*
X86700366Y-144780000D01*
X86385585Y-144990330D01*
X86060729Y-145476511D01*
X85946655Y-146050000D01*
X86060729Y-146623489D01*
X86385585Y-147109670D01*
X86700366Y-147320000D01*
X86385585Y-147530330D01*
X86060729Y-148016511D01*
X85946655Y-148590000D01*
X86060729Y-149163489D01*
X86385585Y-149649670D01*
X86700366Y-149860000D01*
X86385585Y-150070330D01*
X86060729Y-150556511D01*
X85946655Y-151130000D01*
X86060729Y-151703489D01*
X86385585Y-152189670D01*
X86700366Y-152400000D01*
X86385585Y-152610330D01*
X86060729Y-153096511D01*
X85946655Y-153670000D01*
X86060729Y-154243489D01*
X86385585Y-154729670D01*
X86700366Y-154940000D01*
X86385585Y-155150330D01*
X86060729Y-155636511D01*
X85946655Y-156210000D01*
X86060729Y-156783489D01*
X86385585Y-157269670D01*
X86700366Y-157480000D01*
X86385585Y-157690330D01*
X86060729Y-158176511D01*
X85946655Y-158750000D01*
X86060729Y-159323489D01*
X86385585Y-159809670D01*
X86700366Y-160020000D01*
X86385585Y-160230330D01*
X86060729Y-160716511D01*
X85946655Y-161290000D01*
X86060729Y-161863489D01*
X86385585Y-162349670D01*
X86700366Y-162560000D01*
X86385585Y-162770330D01*
X86060729Y-163256511D01*
X85946655Y-163830000D01*
X86060729Y-164403489D01*
X86385585Y-164889670D01*
X86700366Y-165100000D01*
X86385585Y-165310330D01*
X86060729Y-165796511D01*
X85946655Y-166370000D01*
X86060729Y-166943489D01*
X86385585Y-167429670D01*
X86700366Y-167640000D01*
X86385585Y-167850330D01*
X86060729Y-168336511D01*
X85946655Y-168910000D01*
X86060729Y-169483489D01*
X86385585Y-169969670D01*
X86871766Y-170294526D01*
X87445255Y-170408600D01*
X87814745Y-170408600D01*
X88388234Y-170294526D01*
X88874415Y-169969670D01*
X89199271Y-169483489D01*
X89313345Y-168910000D01*
X89199271Y-168336511D01*
X88874415Y-167850330D01*
X88559634Y-167640000D01*
X88874415Y-167429670D01*
X89199271Y-166943489D01*
X89237172Y-166752944D01*
X92374025Y-166752944D01*
X92573615Y-167234818D01*
X93011621Y-167707188D01*
X93597054Y-167975983D01*
X93853000Y-167857367D01*
X93853000Y-166497000D01*
X92493164Y-166497000D01*
X92374025Y-166752944D01*
X89237172Y-166752944D01*
X89313345Y-166370000D01*
X89237173Y-165987056D01*
X92374025Y-165987056D01*
X92493164Y-166243000D01*
X93853000Y-166243000D01*
X93853000Y-164882633D01*
X93597054Y-164764017D01*
X93011621Y-165032812D01*
X92573615Y-165505182D01*
X92374025Y-165987056D01*
X89237173Y-165987056D01*
X89199271Y-165796511D01*
X88874415Y-165310330D01*
X88559634Y-165100000D01*
X88874415Y-164889670D01*
X89199271Y-164403489D01*
X89313345Y-163830000D01*
X89199271Y-163256511D01*
X88924810Y-162845750D01*
X99045000Y-162845750D01*
X99045000Y-163336310D01*
X99141673Y-163569699D01*
X99320302Y-163748327D01*
X99553691Y-163845000D01*
X100044250Y-163845000D01*
X100203000Y-163686250D01*
X100203000Y-162687000D01*
X99203750Y-162687000D01*
X99045000Y-162845750D01*
X88924810Y-162845750D01*
X88874415Y-162770330D01*
X88559634Y-162560000D01*
X88874415Y-162349670D01*
X89199271Y-161863489D01*
X89215144Y-161783690D01*
X99045000Y-161783690D01*
X99045000Y-162274250D01*
X99203750Y-162433000D01*
X100203000Y-162433000D01*
X100203000Y-161433750D01*
X100044250Y-161275000D01*
X99553691Y-161275000D01*
X99320302Y-161371673D01*
X99141673Y-161550301D01*
X99045000Y-161783690D01*
X89215144Y-161783690D01*
X89313345Y-161290000D01*
X89199271Y-160716511D01*
X88874415Y-160230330D01*
X88559634Y-160020000D01*
X88874415Y-159809670D01*
X89199271Y-159323489D01*
X89313345Y-158750000D01*
X89199271Y-158176511D01*
X88874415Y-157690330D01*
X88559634Y-157480000D01*
X88874415Y-157269670D01*
X89199271Y-156783489D01*
X89313345Y-156210000D01*
X89199271Y-155636511D01*
X88874415Y-155150330D01*
X88559634Y-154940000D01*
X88874415Y-154729670D01*
X89199271Y-154243489D01*
X89313345Y-153670000D01*
X89199271Y-153096511D01*
X88874415Y-152610330D01*
X88559634Y-152400000D01*
X88874415Y-152189670D01*
X89199271Y-151703489D01*
X89313345Y-151130000D01*
X89199271Y-150556511D01*
X88874415Y-150070330D01*
X88559634Y-149860000D01*
X88874415Y-149649670D01*
X89199271Y-149163489D01*
X89313345Y-148590000D01*
X89199271Y-148016511D01*
X88874415Y-147530330D01*
X88559634Y-147320000D01*
X88874415Y-147109670D01*
X89199271Y-146623489D01*
X89313345Y-146050000D01*
X89199271Y-145476511D01*
X88874415Y-144990330D01*
X88559634Y-144780000D01*
X88874415Y-144569670D01*
X89074648Y-144270000D01*
X89474198Y-144270000D01*
X94077599Y-148873401D01*
X94324160Y-149038148D01*
X94570152Y-149087079D01*
X94613110Y-149116431D01*
X94865000Y-149167440D01*
X96315000Y-149167440D01*
X96550317Y-149123162D01*
X96766441Y-148984090D01*
X96911431Y-148771890D01*
X96962440Y-148520000D01*
X96962440Y-148070000D01*
X96949020Y-147998677D01*
X96950000Y-147996310D01*
X96950000Y-147916250D01*
X96929688Y-147895938D01*
X96918162Y-147834683D01*
X96794671Y-147642773D01*
X96911431Y-147471890D01*
X96926558Y-147397192D01*
X96950000Y-147373750D01*
X96950000Y-147293690D01*
X96948333Y-147289665D01*
X96962440Y-147220000D01*
X96962440Y-146770000D01*
X96942933Y-146666329D01*
X96962440Y-146570000D01*
X96962440Y-146120000D01*
X98617560Y-146120000D01*
X98617560Y-146570000D01*
X98637067Y-146673671D01*
X98617560Y-146770000D01*
X98617560Y-147220000D01*
X98637067Y-147323671D01*
X98617560Y-147420000D01*
X98617560Y-147870000D01*
X98637067Y-147973671D01*
X98617560Y-148070000D01*
X98617560Y-148520000D01*
X98661838Y-148755317D01*
X98800910Y-148971441D01*
X99013110Y-149116431D01*
X99265000Y-149167440D01*
X100715000Y-149167440D01*
X100950317Y-149123162D01*
X101056244Y-149055000D01*
X103205000Y-149055000D01*
X103495839Y-148997148D01*
X103742401Y-148832401D01*
X105239984Y-147334818D01*
X105704481Y-147335223D01*
X106176943Y-147140005D01*
X106538735Y-146778845D01*
X106652560Y-146504724D01*
X106652560Y-146700000D01*
X106696838Y-146935317D01*
X106835910Y-147151441D01*
X107048110Y-147296431D01*
X107300000Y-147347440D01*
X108600000Y-147347440D01*
X108835317Y-147303162D01*
X109051441Y-147164090D01*
X109196431Y-146951890D01*
X109247440Y-146700000D01*
X109247440Y-146152362D01*
X112847362Y-142552440D01*
X113620000Y-142552440D01*
X113855317Y-142508162D01*
X114071441Y-142369090D01*
X114216431Y-142156890D01*
X114267440Y-141905000D01*
X114267440Y-141305000D01*
X114223162Y-141069683D01*
X114164822Y-140979020D01*
X114255000Y-140761310D01*
X114255000Y-140620750D01*
X114096250Y-140462000D01*
X112847000Y-140462000D01*
X112847000Y-140482000D01*
X112593000Y-140482000D01*
X112593000Y-140462000D01*
X111343750Y-140462000D01*
X111185000Y-140620750D01*
X111185000Y-140761310D01*
X111274806Y-140978122D01*
X111223569Y-141053110D01*
X111172560Y-141305000D01*
X111172560Y-141905000D01*
X111199900Y-142050298D01*
X108497638Y-144752560D01*
X107300000Y-144752560D01*
X107064683Y-144796838D01*
X106848559Y-144935910D01*
X106703569Y-145148110D01*
X106652560Y-145400000D01*
X106652560Y-145595460D01*
X106540005Y-145323057D01*
X106178845Y-144961265D01*
X105706724Y-144765223D01*
X105195519Y-144764777D01*
X104723057Y-144959995D01*
X104361265Y-145321155D01*
X104265000Y-145552987D01*
X104265000Y-144834463D01*
X104297192Y-144802327D01*
X104439838Y-144458799D01*
X104440162Y-144086833D01*
X104298117Y-143743057D01*
X104035327Y-143479808D01*
X103691799Y-143337162D01*
X103319833Y-143336838D01*
X102976057Y-143478883D01*
X102868000Y-143586752D01*
X102868000Y-142935802D01*
X104073802Y-141730000D01*
X104392994Y-141730000D01*
X104721155Y-142058735D01*
X105193276Y-142254777D01*
X105704481Y-142255223D01*
X106176943Y-142060005D01*
X106538735Y-141698845D01*
X106652560Y-141424724D01*
X106652560Y-141620000D01*
X106696838Y-141855317D01*
X106835910Y-142071441D01*
X107048110Y-142216431D01*
X107300000Y-142267440D01*
X108600000Y-142267440D01*
X108835317Y-142223162D01*
X109051441Y-142084090D01*
X109196431Y-141871890D01*
X109225164Y-141730000D01*
X109347000Y-141730000D01*
X109637839Y-141672148D01*
X109884401Y-141507401D01*
X111263776Y-140128026D01*
X111343750Y-140208000D01*
X112593000Y-140208000D01*
X112593000Y-140188000D01*
X112847000Y-140188000D01*
X112847000Y-140208000D01*
X114096250Y-140208000D01*
X114255000Y-140049250D01*
X114255000Y-139908690D01*
X114165194Y-139691878D01*
X114216431Y-139616890D01*
X114267440Y-139365000D01*
X114267440Y-138765000D01*
X114223162Y-138529683D01*
X114159322Y-138430472D01*
X114216431Y-138346890D01*
X114267440Y-138095000D01*
X114267440Y-137495000D01*
X116872560Y-137495000D01*
X116872560Y-138095000D01*
X116916838Y-138330317D01*
X116980678Y-138429528D01*
X116923569Y-138513110D01*
X116872560Y-138765000D01*
X116872560Y-139365000D01*
X116916838Y-139600317D01*
X116980678Y-139699528D01*
X116923569Y-139783110D01*
X116872560Y-140035000D01*
X116872560Y-140635000D01*
X116916838Y-140870317D01*
X116980678Y-140969528D01*
X116923569Y-141053110D01*
X116872560Y-141305000D01*
X116872560Y-141905000D01*
X116916838Y-142140317D01*
X117055910Y-142356441D01*
X117268110Y-142501431D01*
X117520000Y-142552440D01*
X119320000Y-142552440D01*
X119555317Y-142508162D01*
X119771441Y-142369090D01*
X119916431Y-142156890D01*
X119967440Y-141905000D01*
X119967440Y-141305000D01*
X119927926Y-141095000D01*
X120904000Y-141095000D01*
X121194839Y-141037148D01*
X121441401Y-140872401D01*
X122096639Y-140217163D01*
X126154443Y-140217163D01*
X126253042Y-140483965D01*
X126862582Y-140710401D01*
X127512377Y-140686341D01*
X128000958Y-140483965D01*
X128099557Y-140217163D01*
X127127000Y-139244605D01*
X126154443Y-140217163D01*
X122096639Y-140217163D01*
X123513220Y-138800582D01*
X125481599Y-138800582D01*
X125505659Y-139450377D01*
X125708035Y-139938958D01*
X125974837Y-140037557D01*
X126947395Y-139065000D01*
X127306605Y-139065000D01*
X128279163Y-140037557D01*
X128545965Y-139938958D01*
X128772401Y-139329418D01*
X128748341Y-138679623D01*
X128545965Y-138191042D01*
X128279163Y-138092443D01*
X127306605Y-139065000D01*
X126947395Y-139065000D01*
X125974837Y-138092443D01*
X125708035Y-138191042D01*
X125481599Y-138800582D01*
X123513220Y-138800582D01*
X123854401Y-138459401D01*
X124019148Y-138212840D01*
X124077000Y-137922000D01*
X124077000Y-137912837D01*
X126154443Y-137912837D01*
X127127000Y-138885395D01*
X128099557Y-137912837D01*
X128000958Y-137646035D01*
X127391418Y-137419599D01*
X126741623Y-137443659D01*
X126253042Y-137646035D01*
X126154443Y-137912837D01*
X124077000Y-137912837D01*
X124077000Y-132203940D01*
X124029566Y-131965474D01*
X124019148Y-131913100D01*
X123854401Y-131666539D01*
X122101748Y-129913886D01*
X122134892Y-129834067D01*
X122135408Y-129243444D01*
X121909862Y-128697583D01*
X121492594Y-128279586D01*
X120947127Y-128053088D01*
X120356504Y-128052572D01*
X119810643Y-128278118D01*
X119392646Y-128695386D01*
X119166148Y-129240853D01*
X119165632Y-129831476D01*
X119391178Y-130377337D01*
X119808446Y-130795334D01*
X120353913Y-131021832D01*
X120944536Y-131022348D01*
X121026669Y-130988411D01*
X122557000Y-132518742D01*
X122557000Y-137607198D01*
X120589198Y-139575000D01*
X119924914Y-139575000D01*
X119967440Y-139365000D01*
X119967440Y-138765000D01*
X119923162Y-138529683D01*
X119859322Y-138430472D01*
X119916431Y-138346890D01*
X119967440Y-138095000D01*
X119967440Y-137495000D01*
X119940100Y-137349702D01*
X121186881Y-136102921D01*
X121351628Y-135856359D01*
X121409480Y-135565520D01*
X121409480Y-134849610D01*
X121499110Y-134849610D01*
X121734427Y-134805332D01*
X121950551Y-134666260D01*
X122095541Y-134454060D01*
X122146550Y-134202170D01*
X122146550Y-132502910D01*
X122102272Y-132267593D01*
X121963200Y-132051469D01*
X121751000Y-131906479D01*
X121499110Y-131855470D01*
X119799850Y-131855470D01*
X119564533Y-131899748D01*
X119348409Y-132038820D01*
X119203419Y-132251020D01*
X119152410Y-132502910D01*
X119152410Y-134202170D01*
X119196688Y-134437487D01*
X119335760Y-134653611D01*
X119547960Y-134798601D01*
X119799850Y-134849610D01*
X119889480Y-134849610D01*
X119889480Y-135250718D01*
X118292638Y-136847560D01*
X117520000Y-136847560D01*
X117284683Y-136891838D01*
X117068559Y-137030910D01*
X116923569Y-137243110D01*
X116872560Y-137495000D01*
X114267440Y-137495000D01*
X114223162Y-137259683D01*
X114084090Y-137043559D01*
X113871890Y-136898569D01*
X113620000Y-136847560D01*
X111820000Y-136847560D01*
X111584683Y-136891838D01*
X111368559Y-137030910D01*
X111365764Y-137035000D01*
X110744000Y-137035000D01*
X110453161Y-137092852D01*
X110206599Y-137257599D01*
X109842320Y-137621878D01*
X109796833Y-137621838D01*
X109453057Y-137763883D01*
X109189808Y-138026673D01*
X109047162Y-138370201D01*
X109046838Y-138742167D01*
X109188883Y-139085943D01*
X109451673Y-139349192D01*
X109763517Y-139478681D01*
X109185290Y-140056908D01*
X109064090Y-139868559D01*
X108851890Y-139723569D01*
X108600000Y-139672560D01*
X107300000Y-139672560D01*
X107064683Y-139716838D01*
X106848559Y-139855910D01*
X106703569Y-140068110D01*
X106652560Y-140320000D01*
X106652560Y-140515460D01*
X106540005Y-140243057D01*
X106178845Y-139881265D01*
X105706724Y-139685223D01*
X105195519Y-139684777D01*
X104723057Y-139879995D01*
X104392475Y-140210000D01*
X103759000Y-140210000D01*
X103468161Y-140267852D01*
X103221599Y-140432599D01*
X101570599Y-142083599D01*
X101405852Y-142330161D01*
X101348000Y-142621000D01*
X101348000Y-145989198D01*
X101339439Y-145997759D01*
X101318162Y-145884683D01*
X101179090Y-145668559D01*
X100966890Y-145523569D01*
X100715000Y-145472560D01*
X99265000Y-145472560D01*
X99029683Y-145516838D01*
X98813559Y-145655910D01*
X98668569Y-145868110D01*
X98617560Y-146120000D01*
X96962440Y-146120000D01*
X96918162Y-145884683D01*
X96779090Y-145668559D01*
X96566890Y-145523569D01*
X96315000Y-145472560D01*
X94865000Y-145472560D01*
X94629683Y-145516838D01*
X94413559Y-145655910D01*
X94268569Y-145868110D01*
X94217560Y-146120000D01*
X94217560Y-146235000D01*
X93588802Y-146235000D01*
X90326401Y-142972599D01*
X90079839Y-142807852D01*
X89789000Y-142750000D01*
X89074648Y-142750000D01*
X88874415Y-142450330D01*
X88559634Y-142240000D01*
X88874415Y-142029670D01*
X89199271Y-141543489D01*
X89313345Y-140970000D01*
X89199271Y-140396511D01*
X88874415Y-139910330D01*
X88559634Y-139700000D01*
X88874415Y-139489670D01*
X89199271Y-139003489D01*
X89313345Y-138430000D01*
X89199271Y-137856511D01*
X88874415Y-137370330D01*
X88559634Y-137160000D01*
X88874415Y-136949670D01*
X89199271Y-136463489D01*
X89313345Y-135890000D01*
X89219018Y-135415784D01*
X92269052Y-132365750D01*
X92695000Y-132365750D01*
X92695000Y-132856309D01*
X92791673Y-133089698D01*
X92970301Y-133268327D01*
X93203690Y-133365000D01*
X93694250Y-133365000D01*
X93853000Y-133206250D01*
X93853000Y-132207000D01*
X94107000Y-132207000D01*
X94107000Y-133206250D01*
X94265750Y-133365000D01*
X94756310Y-133365000D01*
X94989699Y-133268327D01*
X95168327Y-133089698D01*
X95230741Y-132939016D01*
X99610590Y-132939016D01*
X99666271Y-133169611D01*
X100149078Y-133337622D01*
X100659428Y-133308083D01*
X100993729Y-133169611D01*
X101049410Y-132939016D01*
X100330000Y-132219605D01*
X99610590Y-132939016D01*
X95230741Y-132939016D01*
X95265000Y-132856309D01*
X95265000Y-132365750D01*
X95106250Y-132207000D01*
X94107000Y-132207000D01*
X93853000Y-132207000D01*
X92853750Y-132207000D01*
X92695000Y-132365750D01*
X92269052Y-132365750D01*
X92767776Y-131867026D01*
X92853750Y-131953000D01*
X93853000Y-131953000D01*
X93853000Y-131933000D01*
X94107000Y-131933000D01*
X94107000Y-131953000D01*
X95106250Y-131953000D01*
X95200172Y-131859078D01*
X99032378Y-131859078D01*
X99061917Y-132369428D01*
X99200389Y-132703729D01*
X99430984Y-132759410D01*
X100150395Y-132040000D01*
X100509605Y-132040000D01*
X101229016Y-132759410D01*
X101459611Y-132703729D01*
X101627622Y-132220922D01*
X101598083Y-131710572D01*
X101459611Y-131376271D01*
X101229016Y-131320590D01*
X100509605Y-132040000D01*
X100150395Y-132040000D01*
X99430984Y-131320590D01*
X99200389Y-131376271D01*
X99032378Y-131859078D01*
X95200172Y-131859078D01*
X95265000Y-131794250D01*
X95265000Y-131303691D01*
X95168327Y-131070302D01*
X94989699Y-130891673D01*
X94756310Y-130795000D01*
X94404433Y-130795000D01*
X94706943Y-130670005D01*
X95068735Y-130308845D01*
X95072408Y-130300000D01*
X99053258Y-130300000D01*
X99076838Y-130425317D01*
X99215910Y-130641441D01*
X99428110Y-130786431D01*
X99680000Y-130837440D01*
X99842385Y-130837440D01*
X99666271Y-130910389D01*
X99610590Y-131140984D01*
X100330000Y-131860395D01*
X101049410Y-131140984D01*
X100993729Y-130910389D01*
X100784098Y-130837440D01*
X100980000Y-130837440D01*
X101215317Y-130793162D01*
X101431441Y-130654090D01*
X101576431Y-130441890D01*
X101627440Y-130190000D01*
X101627440Y-128890000D01*
X101583162Y-128654683D01*
X101444090Y-128438559D01*
X101231890Y-128293569D01*
X100980000Y-128242560D01*
X99680000Y-128242560D01*
X99444683Y-128286838D01*
X99228559Y-128425910D01*
X99083569Y-128638110D01*
X99054836Y-128780000D01*
X94997076Y-128780000D01*
X94708845Y-128491265D01*
X94236724Y-128295223D01*
X93725519Y-128294777D01*
X93253057Y-128489995D01*
X92891265Y-128851155D01*
X92695223Y-129323276D01*
X92694815Y-129790383D01*
X89283789Y-133201409D01*
X89199271Y-132776511D01*
X88874415Y-132290330D01*
X88559634Y-132080000D01*
X88874415Y-131869670D01*
X89199271Y-131383489D01*
X89313345Y-130810000D01*
X89199271Y-130236511D01*
X88874415Y-129750330D01*
X88559634Y-129540000D01*
X88874415Y-129329670D01*
X89199271Y-128843489D01*
X89313345Y-128270000D01*
X89199271Y-127696511D01*
X88874415Y-127210330D01*
X88559634Y-127000000D01*
X88874415Y-126789670D01*
X89199271Y-126303489D01*
X89313345Y-125730000D01*
X89199271Y-125156511D01*
X88874415Y-124670330D01*
X88852220Y-124655500D01*
X89005699Y-124591927D01*
X89184327Y-124413298D01*
X89281000Y-124179909D01*
X89281000Y-123475750D01*
X89122250Y-123317000D01*
X87757000Y-123317000D01*
X87757000Y-123337000D01*
X87503000Y-123337000D01*
X87503000Y-123317000D01*
X86137750Y-123317000D01*
X85979000Y-123475750D01*
X85979000Y-124179909D01*
X86075673Y-124413298D01*
X86254301Y-124591927D01*
X86407780Y-124655500D01*
X86385585Y-124670330D01*
X86060729Y-125156511D01*
X85946655Y-125730000D01*
X85800000Y-125730000D01*
X85800000Y-122200091D01*
X85979000Y-122200091D01*
X85979000Y-122904250D01*
X86137750Y-123063000D01*
X87503000Y-123063000D01*
X87503000Y-121850150D01*
X87757000Y-121850150D01*
X87757000Y-123063000D01*
X89122250Y-123063000D01*
X89281000Y-122904250D01*
X89281000Y-122205750D01*
X99631500Y-122205750D01*
X99631500Y-124586310D01*
X99728173Y-124819699D01*
X99906802Y-124998327D01*
X100140191Y-125095000D01*
X100869750Y-125095000D01*
X101028500Y-124936250D01*
X101028500Y-122047000D01*
X101282500Y-122047000D01*
X101282500Y-124936250D01*
X101441250Y-125095000D01*
X102170809Y-125095000D01*
X102404198Y-124998327D01*
X102582827Y-124819699D01*
X102679500Y-124586310D01*
X102679500Y-122205750D01*
X102520750Y-122047000D01*
X101282500Y-122047000D01*
X101028500Y-122047000D01*
X99790250Y-122047000D01*
X99631500Y-122205750D01*
X89281000Y-122205750D01*
X89281000Y-122200091D01*
X89184327Y-121966702D01*
X89005699Y-121788073D01*
X88772310Y-121691400D01*
X87915750Y-121691400D01*
X87757000Y-121850150D01*
X87503000Y-121850150D01*
X87344250Y-121691400D01*
X86487690Y-121691400D01*
X86254301Y-121788073D01*
X86075673Y-121966702D01*
X85979000Y-122200091D01*
X85800000Y-122200091D01*
X85800000Y-120090000D01*
X99631500Y-120090000D01*
X99631500Y-121634250D01*
G36*
X108140500Y-121634250D02*
X108299250Y-121793000D01*
X109537500Y-121793000D01*
X109537500Y-121773000D01*
X109791500Y-121773000D01*
X109791500Y-121793000D01*
X111029750Y-121793000D01*
X111188500Y-121634250D01*
X111188500Y-120090000D01*
X119951500Y-120090000D01*
X119951500Y-121634250D01*
X120110250Y-121793000D01*
X121348500Y-121793000D01*
X121348500Y-121773000D01*
X121602500Y-121773000D01*
X121602500Y-121793000D01*
X122840750Y-121793000D01*
X122999500Y-121634250D01*
X122999500Y-120090000D01*
X124447560Y-120090000D01*
X124447560Y-124460000D01*
X124491838Y-124695317D01*
X124630910Y-124911441D01*
X124754388Y-124995810D01*
X124018198Y-125732000D01*
X117868825Y-125732000D01*
X118246385Y-125324818D01*
X118445975Y-124842944D01*
X118326836Y-124587000D01*
X116967000Y-124587000D01*
X116967000Y-124607000D01*
X116713000Y-124607000D01*
X116713000Y-124587000D01*
X116693000Y-124587000D01*
X116693000Y-124333000D01*
X116713000Y-124333000D01*
X116713000Y-122972633D01*
X116967000Y-122972633D01*
X116967000Y-124333000D01*
X118326836Y-124333000D01*
X118445975Y-124077056D01*
X118246385Y-123595182D01*
X117808379Y-123122812D01*
X117222946Y-122854017D01*
X116967000Y-122972633D01*
X116713000Y-122972633D01*
X116457054Y-122854017D01*
X115871621Y-123122812D01*
X115867066Y-123127724D01*
X115780090Y-122992559D01*
X115567890Y-122847569D01*
X115316000Y-122796560D01*
X113284000Y-122796560D01*
X113048683Y-122840838D01*
X112832559Y-122979910D01*
X112687569Y-123192110D01*
X112636560Y-123444000D01*
X112636560Y-125476000D01*
X112680838Y-125711317D01*
X112819910Y-125927441D01*
X112905614Y-125986000D01*
X107121802Y-125986000D01*
X106211847Y-125076045D01*
X106280317Y-125063162D01*
X106496441Y-124924090D01*
X106641431Y-124711890D01*
X106692440Y-124460000D01*
X106692440Y-122205750D01*
X108140500Y-122205750D01*
X108140500Y-124586310D01*
X108237173Y-124819699D01*
X108415802Y-124998327D01*
X108649191Y-125095000D01*
X109378750Y-125095000D01*
X109537500Y-124936250D01*
X109537500Y-122047000D01*
X109791500Y-122047000D01*
X109791500Y-124936250D01*
X109950250Y-125095000D01*
X110679809Y-125095000D01*
X110913198Y-124998327D01*
X111091827Y-124819699D01*
X111188500Y-124586310D01*
X111188500Y-122205750D01*
X119951500Y-122205750D01*
X119951500Y-124586310D01*
X120048173Y-124819699D01*
X120226802Y-124998327D01*
X120460191Y-125095000D01*
X121189750Y-125095000D01*
X121348500Y-124936250D01*
X121348500Y-122047000D01*
X121602500Y-122047000D01*
X121602500Y-124936250D01*
X121761250Y-125095000D01*
X122490809Y-125095000D01*
X122724198Y-124998327D01*
X122902827Y-124819699D01*
X122999500Y-124586310D01*
X122999500Y-122205750D01*
X122840750Y-122047000D01*
X121602500Y-122047000D01*
X121348500Y-122047000D01*
X120110250Y-122047000D01*
X119951500Y-122205750D01*
X111188500Y-122205750D01*
X111029750Y-122047000D01*
X109791500Y-122047000D01*
X109537500Y-122047000D01*
X108299250Y-122047000D01*
X108140500Y-122205750D01*
X106692440Y-122205750D01*
X106692440Y-120090000D01*
X108140500Y-120090000D01*
X108140500Y-121634250D01*
X108140500Y-121634250D01*
G37*
X108140500Y-121634250D02*
X108299250Y-121793000D01*
X109537500Y-121793000D01*
X109537500Y-121773000D01*
X109791500Y-121773000D01*
X109791500Y-121793000D01*
X111029750Y-121793000D01*
X111188500Y-121634250D01*
X111188500Y-120090000D01*
X119951500Y-120090000D01*
X119951500Y-121634250D01*
X120110250Y-121793000D01*
X121348500Y-121793000D01*
X121348500Y-121773000D01*
X121602500Y-121773000D01*
X121602500Y-121793000D01*
X122840750Y-121793000D01*
X122999500Y-121634250D01*
X122999500Y-120090000D01*
X124447560Y-120090000D01*
X124447560Y-124460000D01*
X124491838Y-124695317D01*
X124630910Y-124911441D01*
X124754388Y-124995810D01*
X124018198Y-125732000D01*
X117868825Y-125732000D01*
X118246385Y-125324818D01*
X118445975Y-124842944D01*
X118326836Y-124587000D01*
X116967000Y-124587000D01*
X116967000Y-124607000D01*
X116713000Y-124607000D01*
X116713000Y-124587000D01*
X116693000Y-124587000D01*
X116693000Y-124333000D01*
X116713000Y-124333000D01*
X116713000Y-122972633D01*
X116967000Y-122972633D01*
X116967000Y-124333000D01*
X118326836Y-124333000D01*
X118445975Y-124077056D01*
X118246385Y-123595182D01*
X117808379Y-123122812D01*
X117222946Y-122854017D01*
X116967000Y-122972633D01*
X116713000Y-122972633D01*
X116457054Y-122854017D01*
X115871621Y-123122812D01*
X115867066Y-123127724D01*
X115780090Y-122992559D01*
X115567890Y-122847569D01*
X115316000Y-122796560D01*
X113284000Y-122796560D01*
X113048683Y-122840838D01*
X112832559Y-122979910D01*
X112687569Y-123192110D01*
X112636560Y-123444000D01*
X112636560Y-125476000D01*
X112680838Y-125711317D01*
X112819910Y-125927441D01*
X112905614Y-125986000D01*
X107121802Y-125986000D01*
X106211847Y-125076045D01*
X106280317Y-125063162D01*
X106496441Y-124924090D01*
X106641431Y-124711890D01*
X106692440Y-124460000D01*
X106692440Y-122205750D01*
X108140500Y-122205750D01*
X108140500Y-124586310D01*
X108237173Y-124819699D01*
X108415802Y-124998327D01*
X108649191Y-125095000D01*
X109378750Y-125095000D01*
X109537500Y-124936250D01*
X109537500Y-122047000D01*
X109791500Y-122047000D01*
X109791500Y-124936250D01*
X109950250Y-125095000D01*
X110679809Y-125095000D01*
X110913198Y-124998327D01*
X111091827Y-124819699D01*
X111188500Y-124586310D01*
X111188500Y-122205750D01*
X119951500Y-122205750D01*
X119951500Y-124586310D01*
X120048173Y-124819699D01*
X120226802Y-124998327D01*
X120460191Y-125095000D01*
X121189750Y-125095000D01*
X121348500Y-124936250D01*
X121348500Y-122047000D01*
X121602500Y-122047000D01*
X121602500Y-124936250D01*
X121761250Y-125095000D01*
X122490809Y-125095000D01*
X122724198Y-124998327D01*
X122902827Y-124819699D01*
X122999500Y-124586310D01*
X122999500Y-122205750D01*
X122840750Y-122047000D01*
X121602500Y-122047000D01*
X121348500Y-122047000D01*
X120110250Y-122047000D01*
X119951500Y-122205750D01*
X111188500Y-122205750D01*
X111029750Y-122047000D01*
X109791500Y-122047000D01*
X109537500Y-122047000D01*
X108299250Y-122047000D01*
X108140500Y-122205750D01*
X106692440Y-122205750D01*
X106692440Y-120090000D01*
X108140500Y-120090000D01*
X108140500Y-121634250D01*
M02*
