G04 #@! TF.FileFunction,Legend,Bot*
%FSLAX46Y46*%
G04 Gerber Fmt 4.6, Leading zero omitted, Abs format (unit mm)*
G04 Created by KiCad (PCBNEW 4.0.4+e1-6308~48~ubuntu16.04.1-stable) date Thu Dec  1 19:25:44 2016*
%MOMM*%
%LPD*%
G01*
G04 APERTURE LIST*
%ADD10C,0.100000*%
%ADD11C,0.300000*%
G04 APERTURE END LIST*
D10*
D11*
X82379429Y-109246856D02*
X83879429Y-109246856D01*
X83879429Y-108889713D01*
X83808000Y-108675428D01*
X83665143Y-108532570D01*
X83522286Y-108461142D01*
X83236571Y-108389713D01*
X83022286Y-108389713D01*
X82736571Y-108461142D01*
X82593714Y-108532570D01*
X82450857Y-108675428D01*
X82379429Y-108889713D01*
X82379429Y-109246856D01*
X83165143Y-107246856D02*
X83093714Y-107032570D01*
X83022286Y-106961142D01*
X82879429Y-106889713D01*
X82665143Y-106889713D01*
X82522286Y-106961142D01*
X82450857Y-107032570D01*
X82379429Y-107175428D01*
X82379429Y-107746856D01*
X83879429Y-107746856D01*
X83879429Y-107246856D01*
X83808000Y-107103999D01*
X83736571Y-107032570D01*
X83593714Y-106961142D01*
X83450857Y-106961142D01*
X83308000Y-107032570D01*
X83236571Y-107103999D01*
X83165143Y-107246856D01*
X83165143Y-107746856D01*
X82950857Y-106246856D02*
X82950857Y-105103999D01*
X83379429Y-104389713D02*
X81879429Y-104389713D01*
X83308000Y-104389713D02*
X83379429Y-104246856D01*
X83379429Y-103961142D01*
X83308000Y-103818285D01*
X83236571Y-103746856D01*
X83093714Y-103675427D01*
X82665143Y-103675427D01*
X82522286Y-103746856D01*
X82450857Y-103818285D01*
X82379429Y-103961142D01*
X82379429Y-104246856D01*
X82450857Y-104389713D01*
X83379429Y-102389713D02*
X82379429Y-102389713D01*
X83379429Y-103032570D02*
X82593714Y-103032570D01*
X82450857Y-102961142D01*
X82379429Y-102818284D01*
X82379429Y-102603999D01*
X82450857Y-102461142D01*
X82522286Y-102389713D01*
X82379429Y-101461141D02*
X82450857Y-101603999D01*
X82593714Y-101675427D01*
X83879429Y-101675427D01*
X82450857Y-100961142D02*
X82379429Y-100818285D01*
X82379429Y-100532570D01*
X82450857Y-100389713D01*
X82593714Y-100318285D01*
X82665143Y-100318285D01*
X82808000Y-100389713D01*
X82879429Y-100532570D01*
X82879429Y-100746856D01*
X82950857Y-100889713D01*
X83093714Y-100961142D01*
X83165143Y-100961142D01*
X83308000Y-100889713D01*
X83379429Y-100746856D01*
X83379429Y-100532570D01*
X83308000Y-100389713D01*
X82450857Y-99103999D02*
X82379429Y-99246856D01*
X82379429Y-99532570D01*
X82450857Y-99675427D01*
X82593714Y-99746856D01*
X83165143Y-99746856D01*
X83308000Y-99675427D01*
X83379429Y-99532570D01*
X83379429Y-99246856D01*
X83308000Y-99103999D01*
X83165143Y-99032570D01*
X83022286Y-99032570D01*
X82879429Y-99746856D01*
X82379429Y-98389713D02*
X83379429Y-98389713D01*
X83093714Y-98389713D02*
X83236571Y-98318285D01*
X83308000Y-98246856D01*
X83379429Y-98103999D01*
X83379429Y-97961142D01*
X82236571Y-97818285D02*
X82236571Y-96675428D01*
X83379429Y-96461142D02*
X82379429Y-96103999D01*
X83379429Y-95746857D01*
X82379429Y-94389714D02*
X82379429Y-95246857D01*
X82379429Y-94818285D02*
X83879429Y-94818285D01*
X83665143Y-94961142D01*
X83522286Y-95104000D01*
X83450857Y-95246857D01*
M02*
