G04 #@! TF.FileFunction,Copper,L2,Bot,Signal*
%FSLAX46Y46*%
G04 Gerber Fmt 4.6, Leading zero omitted, Abs format (unit mm)*
G04 Created by KiCad (PCBNEW 4.0.4+e1-6308~48~ubuntu16.04.1-stable) date Mon Oct 24 15:05:17 2016*
%MOMM*%
%LPD*%
G01*
G04 APERTURE LIST*
%ADD10C,0.100000*%
%ADD11R,1.300000X1.300000*%
%ADD12C,1.300000*%
%ADD13R,2.032000X2.032000*%
%ADD14O,2.032000X2.032000*%
%ADD15O,2.499360X1.501140*%
%ADD16R,2.032000X1.727200*%
%ADD17O,2.032000X1.727200*%
%ADD18C,1.998980*%
%ADD19C,1.699260*%
%ADD20R,1.699260X1.699260*%
%ADD21C,1.200000*%
%ADD22C,0.600000*%
%ADD23C,0.250000*%
%ADD24C,0.254000*%
G04 APERTURE END LIST*
D10*
D11*
X48260000Y-101600000D03*
D12*
X45760000Y-101600000D03*
D11*
X54610000Y-109220000D03*
D12*
X57110000Y-109220000D03*
D11*
X58420000Y-116840000D03*
D12*
X63420000Y-116840000D03*
D11*
X69850000Y-105410000D03*
D12*
X69850000Y-107910000D03*
D11*
X45720000Y-96520000D03*
D12*
X48220000Y-96520000D03*
D13*
X53340000Y-127000000D03*
D14*
X55880000Y-127000000D03*
D13*
X55880000Y-80010000D03*
D14*
X53340000Y-80010000D03*
D15*
X74930000Y-111760000D03*
X74930000Y-114300000D03*
X74930000Y-109220000D03*
X73660000Y-123190000D03*
X73660000Y-120650000D03*
X73660000Y-125730000D03*
D13*
X63500000Y-80010000D03*
D14*
X60960000Y-80010000D03*
D16*
X41910000Y-81280000D03*
D17*
X41910000Y-83820000D03*
X41910000Y-86360000D03*
X41910000Y-88900000D03*
X41910000Y-91440000D03*
X41910000Y-93980000D03*
X41910000Y-96520000D03*
X41910000Y-99060000D03*
X41910000Y-101600000D03*
X41910000Y-104140000D03*
X41910000Y-106680000D03*
X41910000Y-109220000D03*
X41910000Y-111760000D03*
X41910000Y-114300000D03*
X41910000Y-116840000D03*
X41910000Y-119380000D03*
X41910000Y-121920000D03*
X41910000Y-124460000D03*
X41910000Y-127000000D03*
D18*
X69850000Y-87630000D03*
X69850000Y-97790000D03*
X73660000Y-92710000D03*
X73660000Y-102870000D03*
X46990000Y-113030000D03*
X46990000Y-123190000D03*
X52070000Y-107315000D03*
X52070000Y-97155000D03*
X45720000Y-82550000D03*
X45720000Y-92710000D03*
D19*
X50802540Y-123190520D03*
D20*
X50802540Y-113030520D03*
D19*
X76202540Y-104140520D03*
D20*
X76202540Y-93980520D03*
D19*
X49532540Y-92710520D03*
D20*
X49532540Y-82550520D03*
D19*
X54612540Y-102870520D03*
D20*
X54612540Y-92710520D03*
D21*
X64770000Y-107950000D03*
X63500000Y-106680000D03*
X62230000Y-107950000D03*
X66040000Y-101600000D03*
X67310000Y-100330000D03*
X66040000Y-99060000D03*
X69850000Y-113030000D03*
X68580000Y-111760000D03*
X67310000Y-113030000D03*
X62230000Y-90170000D03*
X60960000Y-88900000D03*
X59690000Y-90170000D03*
X54610000Y-86360000D03*
X53340000Y-87630000D03*
X54610000Y-88900000D03*
X59690000Y-99060000D03*
X60960000Y-97790000D03*
X59690000Y-96520000D03*
D22*
X64135000Y-94615000D03*
X54610000Y-94615000D03*
D23*
X53340000Y-87630000D02*
X52705000Y-87630000D01*
X54612540Y-96522540D02*
X54612540Y-102870520D01*
X51435000Y-93345000D02*
X54612540Y-96522540D01*
X51435000Y-88900000D02*
X51435000Y-93345000D01*
X52705000Y-87630000D02*
X51435000Y-88900000D01*
X64770000Y-107950000D02*
X64770000Y-102870000D01*
X64770000Y-102870000D02*
X66040000Y-101600000D01*
X64770000Y-107950000D02*
X69810000Y-107950000D01*
X69810000Y-107950000D02*
X69850000Y-107910000D01*
X62230000Y-107950000D02*
X64770000Y-110490000D01*
X69850000Y-115570000D02*
X67310000Y-113030000D01*
X71120000Y-114300000D02*
X69850000Y-115570000D01*
X71120000Y-111760000D02*
X71120000Y-114300000D01*
X69850000Y-110490000D02*
X71120000Y-111760000D01*
X64770000Y-110490000D02*
X69850000Y-110490000D01*
X74930000Y-109220000D02*
X74930000Y-107950000D01*
X77470000Y-95247980D02*
X76202540Y-93980520D01*
X77470000Y-105410000D02*
X77470000Y-95247980D01*
X74930000Y-107950000D02*
X77470000Y-105410000D01*
X64135000Y-94615000D02*
X60960000Y-97790000D01*
X60960000Y-97790000D02*
X62230000Y-96520000D01*
X62230000Y-94615000D02*
X54610000Y-94615000D01*
X62230000Y-96520000D02*
X62230000Y-94615000D01*
X68580000Y-111760000D02*
X63500000Y-111760000D01*
X58420000Y-97790000D02*
X59690000Y-96520000D01*
X58420000Y-100330000D02*
X58420000Y-97790000D01*
X59690000Y-101600000D02*
X58420000Y-100330000D01*
X59690000Y-107950000D02*
X59690000Y-101600000D01*
X63500000Y-111760000D02*
X59690000Y-107950000D01*
X49532540Y-82550520D02*
X49532540Y-85092540D01*
X59690000Y-88900000D02*
X59690000Y-90170000D01*
X55880000Y-85090000D02*
X59690000Y-88900000D01*
X49535080Y-85090000D02*
X55880000Y-85090000D01*
X49532540Y-85092540D02*
X49535080Y-85090000D01*
X59690000Y-99060000D02*
X66040000Y-99060000D01*
X66040000Y-99060000D02*
X68580000Y-99060000D01*
X68580000Y-99060000D02*
X69850000Y-97790000D01*
X66040000Y-99060000D02*
X66040000Y-92710000D01*
X59690000Y-90170000D02*
X59690000Y-91440000D01*
X60960000Y-92710000D02*
X66040000Y-92710000D01*
X59690000Y-91440000D02*
X60960000Y-92710000D01*
D24*
G36*
X89460000Y-128830000D02*
X40080000Y-128830000D01*
X40080000Y-83820000D01*
X40226655Y-83820000D01*
X40340729Y-84393489D01*
X40665585Y-84879670D01*
X40980366Y-85090000D01*
X40665585Y-85300330D01*
X40340729Y-85786511D01*
X40226655Y-86360000D01*
X40340729Y-86933489D01*
X40665585Y-87419670D01*
X40980366Y-87630000D01*
X40665585Y-87840330D01*
X40340729Y-88326511D01*
X40226655Y-88900000D01*
X40340729Y-89473489D01*
X40665585Y-89959670D01*
X40980366Y-90170000D01*
X40665585Y-90380330D01*
X40340729Y-90866511D01*
X40226655Y-91440000D01*
X40340729Y-92013489D01*
X40665585Y-92499670D01*
X40980366Y-92710000D01*
X40665585Y-92920330D01*
X40340729Y-93406511D01*
X40226655Y-93980000D01*
X40340729Y-94553489D01*
X40665585Y-95039670D01*
X40980366Y-95250000D01*
X40665585Y-95460330D01*
X40340729Y-95946511D01*
X40226655Y-96520000D01*
X40340729Y-97093489D01*
X40665585Y-97579670D01*
X40980366Y-97790000D01*
X40665585Y-98000330D01*
X40340729Y-98486511D01*
X40226655Y-99060000D01*
X40340729Y-99633489D01*
X40665585Y-100119670D01*
X40980366Y-100330000D01*
X40665585Y-100540330D01*
X40340729Y-101026511D01*
X40226655Y-101600000D01*
X40340729Y-102173489D01*
X40665585Y-102659670D01*
X40980366Y-102870000D01*
X40665585Y-103080330D01*
X40340729Y-103566511D01*
X40226655Y-104140000D01*
X40340729Y-104713489D01*
X40665585Y-105199670D01*
X40980366Y-105410000D01*
X40665585Y-105620330D01*
X40340729Y-106106511D01*
X40226655Y-106680000D01*
X40340729Y-107253489D01*
X40665585Y-107739670D01*
X40980366Y-107950000D01*
X40665585Y-108160330D01*
X40340729Y-108646511D01*
X40226655Y-109220000D01*
X40340729Y-109793489D01*
X40665585Y-110279670D01*
X40980366Y-110490000D01*
X40665585Y-110700330D01*
X40340729Y-111186511D01*
X40226655Y-111760000D01*
X40340729Y-112333489D01*
X40665585Y-112819670D01*
X40980366Y-113030000D01*
X40665585Y-113240330D01*
X40340729Y-113726511D01*
X40226655Y-114300000D01*
X40340729Y-114873489D01*
X40665585Y-115359670D01*
X40980366Y-115570000D01*
X40665585Y-115780330D01*
X40340729Y-116266511D01*
X40226655Y-116840000D01*
X40340729Y-117413489D01*
X40665585Y-117899670D01*
X40980366Y-118110000D01*
X40665585Y-118320330D01*
X40340729Y-118806511D01*
X40226655Y-119380000D01*
X40340729Y-119953489D01*
X40665585Y-120439670D01*
X40980366Y-120650000D01*
X40665585Y-120860330D01*
X40340729Y-121346511D01*
X40226655Y-121920000D01*
X40340729Y-122493489D01*
X40665585Y-122979670D01*
X40980366Y-123190000D01*
X40665585Y-123400330D01*
X40340729Y-123886511D01*
X40226655Y-124460000D01*
X40340729Y-125033489D01*
X40665585Y-125519670D01*
X40980366Y-125730000D01*
X40665585Y-125940330D01*
X40340729Y-126426511D01*
X40226655Y-127000000D01*
X40340729Y-127573489D01*
X40665585Y-128059670D01*
X41151766Y-128384526D01*
X41725255Y-128498600D01*
X42094745Y-128498600D01*
X42668234Y-128384526D01*
X43154415Y-128059670D01*
X43479271Y-127573489D01*
X43593345Y-127000000D01*
X43479271Y-126426511D01*
X43183595Y-125984000D01*
X51676560Y-125984000D01*
X51676560Y-128016000D01*
X51720838Y-128251317D01*
X51859910Y-128467441D01*
X52072110Y-128612431D01*
X52324000Y-128663440D01*
X54356000Y-128663440D01*
X54591317Y-128619162D01*
X54807441Y-128480090D01*
X54907856Y-128333128D01*
X54911621Y-128337188D01*
X55497054Y-128605983D01*
X55753000Y-128487367D01*
X55753000Y-127127000D01*
X56007000Y-127127000D01*
X56007000Y-128487367D01*
X56262946Y-128605983D01*
X56848379Y-128337188D01*
X57286385Y-127864818D01*
X57485975Y-127382944D01*
X57366836Y-127127000D01*
X56007000Y-127127000D01*
X55753000Y-127127000D01*
X55733000Y-127127000D01*
X55733000Y-126873000D01*
X55753000Y-126873000D01*
X55753000Y-125512633D01*
X56007000Y-125512633D01*
X56007000Y-126873000D01*
X57366836Y-126873000D01*
X57485975Y-126617056D01*
X57286385Y-126135182D01*
X56848379Y-125662812D01*
X56262946Y-125394017D01*
X56007000Y-125512633D01*
X55753000Y-125512633D01*
X55497054Y-125394017D01*
X54911621Y-125662812D01*
X54907066Y-125667724D01*
X54820090Y-125532559D01*
X54607890Y-125387569D01*
X54356000Y-125336560D01*
X52324000Y-125336560D01*
X52088683Y-125380838D01*
X51872559Y-125519910D01*
X51727569Y-125732110D01*
X51676560Y-125984000D01*
X43183595Y-125984000D01*
X43154415Y-125940330D01*
X42839634Y-125730000D01*
X43154415Y-125519670D01*
X43479271Y-125033489D01*
X43593345Y-124460000D01*
X43479271Y-123886511D01*
X43230163Y-123513694D01*
X45355226Y-123513694D01*
X45603538Y-124114655D01*
X46062927Y-124574846D01*
X46663453Y-124824206D01*
X47313694Y-124824774D01*
X47914655Y-124576462D01*
X48374846Y-124117073D01*
X48624206Y-123516547D01*
X48624233Y-123484536D01*
X49317652Y-123484536D01*
X49543198Y-124030397D01*
X49960466Y-124448394D01*
X50505933Y-124674892D01*
X51096556Y-124675408D01*
X51642417Y-124449862D01*
X52060414Y-124032594D01*
X52286912Y-123487127D01*
X52287428Y-122896504D01*
X52061882Y-122350643D01*
X51644614Y-121932646D01*
X51099147Y-121706148D01*
X50508524Y-121705632D01*
X49962663Y-121931178D01*
X49544666Y-122348446D01*
X49318168Y-122893913D01*
X49317652Y-123484536D01*
X48624233Y-123484536D01*
X48624774Y-122866306D01*
X48376462Y-122265345D01*
X47917073Y-121805154D01*
X47316547Y-121555794D01*
X46666306Y-121555226D01*
X46065345Y-121803538D01*
X45605154Y-122262927D01*
X45355794Y-122863453D01*
X45355226Y-123513694D01*
X43230163Y-123513694D01*
X43154415Y-123400330D01*
X42839634Y-123190000D01*
X43154415Y-122979670D01*
X43479271Y-122493489D01*
X43593345Y-121920000D01*
X43479271Y-121346511D01*
X43154415Y-120860330D01*
X42839634Y-120650000D01*
X71738397Y-120650000D01*
X71843867Y-121180235D01*
X72144221Y-121629746D01*
X72578616Y-121920000D01*
X72144221Y-122210254D01*
X71843867Y-122659765D01*
X71738397Y-123190000D01*
X71843867Y-123720235D01*
X72144221Y-124169746D01*
X72578616Y-124460000D01*
X72144221Y-124750254D01*
X71843867Y-125199765D01*
X71738397Y-125730000D01*
X71843867Y-126260235D01*
X72144221Y-126709746D01*
X72593732Y-127010100D01*
X73123967Y-127115570D01*
X74196033Y-127115570D01*
X74726268Y-127010100D01*
X75175779Y-126709746D01*
X75476133Y-126260235D01*
X75581603Y-125730000D01*
X75476133Y-125199765D01*
X75175779Y-124750254D01*
X74741384Y-124460000D01*
X75175779Y-124169746D01*
X75476133Y-123720235D01*
X75581603Y-123190000D01*
X75476133Y-122659765D01*
X75175779Y-122210254D01*
X74741384Y-121920000D01*
X75175779Y-121629746D01*
X75476133Y-121180235D01*
X75581603Y-120650000D01*
X75476133Y-120119765D01*
X75175779Y-119670254D01*
X74726268Y-119369900D01*
X74196033Y-119264430D01*
X73123967Y-119264430D01*
X72593732Y-119369900D01*
X72144221Y-119670254D01*
X71843867Y-120119765D01*
X71738397Y-120650000D01*
X42839634Y-120650000D01*
X43154415Y-120439670D01*
X43479271Y-119953489D01*
X43593345Y-119380000D01*
X43479271Y-118806511D01*
X43154415Y-118320330D01*
X42839634Y-118110000D01*
X43154415Y-117899670D01*
X43479271Y-117413489D01*
X43536505Y-117125750D01*
X57135000Y-117125750D01*
X57135000Y-117616310D01*
X57231673Y-117849699D01*
X57410302Y-118028327D01*
X57643691Y-118125000D01*
X58134250Y-118125000D01*
X58293000Y-117966250D01*
X58293000Y-116967000D01*
X58547000Y-116967000D01*
X58547000Y-117966250D01*
X58705750Y-118125000D01*
X59196309Y-118125000D01*
X59429698Y-118028327D01*
X59608327Y-117849699D01*
X59705000Y-117616310D01*
X59705000Y-117125750D01*
X59673731Y-117094481D01*
X62134777Y-117094481D01*
X62329995Y-117566943D01*
X62691155Y-117928735D01*
X63163276Y-118124777D01*
X63674481Y-118125223D01*
X64146943Y-117930005D01*
X64508735Y-117568845D01*
X64704777Y-117096724D01*
X64705223Y-116585519D01*
X64510005Y-116113057D01*
X64148845Y-115751265D01*
X63676724Y-115555223D01*
X63165519Y-115554777D01*
X62693057Y-115749995D01*
X62331265Y-116111155D01*
X62135223Y-116583276D01*
X62134777Y-117094481D01*
X59673731Y-117094481D01*
X59546250Y-116967000D01*
X58547000Y-116967000D01*
X58293000Y-116967000D01*
X57293750Y-116967000D01*
X57135000Y-117125750D01*
X43536505Y-117125750D01*
X43593345Y-116840000D01*
X43479271Y-116266511D01*
X43343751Y-116063690D01*
X57135000Y-116063690D01*
X57135000Y-116554250D01*
X57293750Y-116713000D01*
X58293000Y-116713000D01*
X58293000Y-115713750D01*
X58547000Y-115713750D01*
X58547000Y-116713000D01*
X59546250Y-116713000D01*
X59705000Y-116554250D01*
X59705000Y-116063690D01*
X59608327Y-115830301D01*
X59429698Y-115651673D01*
X59196309Y-115555000D01*
X58705750Y-115555000D01*
X58547000Y-115713750D01*
X58293000Y-115713750D01*
X58134250Y-115555000D01*
X57643691Y-115555000D01*
X57410302Y-115651673D01*
X57231673Y-115830301D01*
X57135000Y-116063690D01*
X43343751Y-116063690D01*
X43154415Y-115780330D01*
X42839634Y-115570000D01*
X43154415Y-115359670D01*
X43479271Y-114873489D01*
X43593345Y-114300000D01*
X43479271Y-113726511D01*
X43230163Y-113353694D01*
X45355226Y-113353694D01*
X45603538Y-113954655D01*
X46062927Y-114414846D01*
X46663453Y-114664206D01*
X47313694Y-114664774D01*
X47914655Y-114416462D01*
X48374846Y-113957073D01*
X48624206Y-113356547D01*
X48624774Y-112706306D01*
X48407677Y-112180890D01*
X49305470Y-112180890D01*
X49305470Y-113880150D01*
X49349748Y-114115467D01*
X49488820Y-114331591D01*
X49701020Y-114476581D01*
X49952910Y-114527590D01*
X51652170Y-114527590D01*
X51887487Y-114483312D01*
X52103611Y-114344240D01*
X52248601Y-114132040D01*
X52297061Y-113892735D01*
X66626870Y-113892735D01*
X66676383Y-114118164D01*
X67141036Y-114277807D01*
X67631413Y-114247482D01*
X67943617Y-114118164D01*
X67993130Y-113892735D01*
X67310000Y-113209605D01*
X66626870Y-113892735D01*
X52297061Y-113892735D01*
X52299610Y-113880150D01*
X52299610Y-112180890D01*
X52255332Y-111945573D01*
X52116260Y-111729449D01*
X51904060Y-111584459D01*
X51652170Y-111533450D01*
X49952910Y-111533450D01*
X49717593Y-111577728D01*
X49501469Y-111716800D01*
X49356479Y-111929000D01*
X49305470Y-112180890D01*
X48407677Y-112180890D01*
X48376462Y-112105345D01*
X47917073Y-111645154D01*
X47316547Y-111395794D01*
X46666306Y-111395226D01*
X46065345Y-111643538D01*
X45605154Y-112102927D01*
X45355794Y-112703453D01*
X45355226Y-113353694D01*
X43230163Y-113353694D01*
X43154415Y-113240330D01*
X42839634Y-113030000D01*
X43154415Y-112819670D01*
X43479271Y-112333489D01*
X43593345Y-111760000D01*
X43479271Y-111186511D01*
X43154415Y-110700330D01*
X42839634Y-110490000D01*
X43154415Y-110279670D01*
X43479271Y-109793489D01*
X43593345Y-109220000D01*
X43479271Y-108646511D01*
X43154415Y-108160330D01*
X42839634Y-107950000D01*
X43154415Y-107739670D01*
X43221885Y-107638694D01*
X50435226Y-107638694D01*
X50683538Y-108239655D01*
X51142927Y-108699846D01*
X51743453Y-108949206D01*
X52393694Y-108949774D01*
X52994655Y-108701462D01*
X53359741Y-108337012D01*
X53312560Y-108570000D01*
X53312560Y-109870000D01*
X53356838Y-110105317D01*
X53495910Y-110321441D01*
X53708110Y-110466431D01*
X53960000Y-110517440D01*
X55260000Y-110517440D01*
X55495317Y-110473162D01*
X55711441Y-110334090D01*
X55856431Y-110121890D01*
X55907440Y-109870000D01*
X55907440Y-109674540D01*
X56019995Y-109946943D01*
X56381155Y-110308735D01*
X56853276Y-110504777D01*
X57364481Y-110505223D01*
X57836943Y-110310005D01*
X58198735Y-109948845D01*
X58394777Y-109476724D01*
X58395223Y-108965519D01*
X58200005Y-108493057D01*
X57838845Y-108131265D01*
X57366724Y-107935223D01*
X56855519Y-107934777D01*
X56383057Y-108129995D01*
X56021265Y-108491155D01*
X55907440Y-108765276D01*
X55907440Y-108570000D01*
X55863162Y-108334683D01*
X55724090Y-108118559D01*
X55511890Y-107973569D01*
X55260000Y-107922560D01*
X53960000Y-107922560D01*
X53724683Y-107966838D01*
X53512416Y-108103428D01*
X53704206Y-107641547D01*
X53704774Y-106991306D01*
X53456462Y-106390345D01*
X52997073Y-105930154D01*
X52396547Y-105680794D01*
X51746306Y-105680226D01*
X51145345Y-105928538D01*
X50685154Y-106387927D01*
X50435794Y-106988453D01*
X50435226Y-107638694D01*
X43221885Y-107638694D01*
X43479271Y-107253489D01*
X43593345Y-106680000D01*
X43479271Y-106106511D01*
X43154415Y-105620330D01*
X42839634Y-105410000D01*
X43154415Y-105199670D01*
X43479271Y-104713489D01*
X43593345Y-104140000D01*
X43479271Y-103566511D01*
X43154415Y-103080330D01*
X42839634Y-102870000D01*
X43154415Y-102659670D01*
X43479271Y-102173489D01*
X43542725Y-101854481D01*
X44474777Y-101854481D01*
X44669995Y-102326943D01*
X45031155Y-102688735D01*
X45503276Y-102884777D01*
X46014481Y-102885223D01*
X46486943Y-102690005D01*
X46848735Y-102328845D01*
X46962560Y-102054724D01*
X46962560Y-102250000D01*
X47006838Y-102485317D01*
X47145910Y-102701441D01*
X47358110Y-102846431D01*
X47610000Y-102897440D01*
X48910000Y-102897440D01*
X49145317Y-102853162D01*
X49361441Y-102714090D01*
X49506431Y-102501890D01*
X49557440Y-102250000D01*
X49557440Y-100950000D01*
X49513162Y-100714683D01*
X49374090Y-100498559D01*
X49161890Y-100353569D01*
X48910000Y-100302560D01*
X47610000Y-100302560D01*
X47374683Y-100346838D01*
X47158559Y-100485910D01*
X47013569Y-100698110D01*
X46962560Y-100950000D01*
X46962560Y-101145460D01*
X46850005Y-100873057D01*
X46488845Y-100511265D01*
X46016724Y-100315223D01*
X45505519Y-100314777D01*
X45033057Y-100509995D01*
X44671265Y-100871155D01*
X44475223Y-101343276D01*
X44474777Y-101854481D01*
X43542725Y-101854481D01*
X43593345Y-101600000D01*
X43479271Y-101026511D01*
X43154415Y-100540330D01*
X42839634Y-100330000D01*
X43154415Y-100119670D01*
X43479271Y-99633489D01*
X43593345Y-99060000D01*
X43479271Y-98486511D01*
X43154415Y-98000330D01*
X42839634Y-97790000D01*
X43154415Y-97579670D01*
X43479271Y-97093489D01*
X43593345Y-96520000D01*
X43479271Y-95946511D01*
X43428148Y-95870000D01*
X44422560Y-95870000D01*
X44422560Y-97170000D01*
X44466838Y-97405317D01*
X44605910Y-97621441D01*
X44818110Y-97766431D01*
X45070000Y-97817440D01*
X46370000Y-97817440D01*
X46605317Y-97773162D01*
X46821441Y-97634090D01*
X46966431Y-97421890D01*
X47017440Y-97170000D01*
X47017440Y-96974540D01*
X47129995Y-97246943D01*
X47491155Y-97608735D01*
X47963276Y-97804777D01*
X48474481Y-97805223D01*
X48946943Y-97610005D01*
X49308735Y-97248845D01*
X49504777Y-96776724D01*
X49505223Y-96265519D01*
X49310005Y-95793057D01*
X48948845Y-95431265D01*
X48476724Y-95235223D01*
X47965519Y-95234777D01*
X47493057Y-95429995D01*
X47131265Y-95791155D01*
X47017440Y-96065276D01*
X47017440Y-95870000D01*
X46973162Y-95634683D01*
X46834090Y-95418559D01*
X46621890Y-95273569D01*
X46370000Y-95222560D01*
X45070000Y-95222560D01*
X44834683Y-95266838D01*
X44618559Y-95405910D01*
X44473569Y-95618110D01*
X44422560Y-95870000D01*
X43428148Y-95870000D01*
X43154415Y-95460330D01*
X42839634Y-95250000D01*
X43154415Y-95039670D01*
X43479271Y-94553489D01*
X43593345Y-93980000D01*
X43479271Y-93406511D01*
X43230163Y-93033694D01*
X44085226Y-93033694D01*
X44333538Y-93634655D01*
X44792927Y-94094846D01*
X45393453Y-94344206D01*
X46043694Y-94344774D01*
X46644655Y-94096462D01*
X47104846Y-93637073D01*
X47354206Y-93036547D01*
X47354774Y-92386306D01*
X47106462Y-91785345D01*
X46647073Y-91325154D01*
X46046547Y-91075794D01*
X45396306Y-91075226D01*
X44795345Y-91323538D01*
X44335154Y-91782927D01*
X44085794Y-92383453D01*
X44085226Y-93033694D01*
X43230163Y-93033694D01*
X43154415Y-92920330D01*
X42839634Y-92710000D01*
X43154415Y-92499670D01*
X43479271Y-92013489D01*
X43593345Y-91440000D01*
X43479271Y-90866511D01*
X43154415Y-90380330D01*
X42839634Y-90170000D01*
X43154415Y-89959670D01*
X43479271Y-89473489D01*
X43593345Y-88900000D01*
X43479271Y-88326511D01*
X43154415Y-87840330D01*
X42839634Y-87630000D01*
X43154415Y-87419670D01*
X43479271Y-86933489D01*
X43593345Y-86360000D01*
X43479271Y-85786511D01*
X43154415Y-85300330D01*
X42839634Y-85090000D01*
X43154415Y-84879670D01*
X43479271Y-84393489D01*
X43593345Y-83820000D01*
X43479271Y-83246511D01*
X43230163Y-82873694D01*
X44085226Y-82873694D01*
X44333538Y-83474655D01*
X44792927Y-83934846D01*
X45393453Y-84184206D01*
X46043694Y-84184774D01*
X46644655Y-83936462D01*
X47104846Y-83477073D01*
X47354206Y-82876547D01*
X47354774Y-82226306D01*
X47137677Y-81700890D01*
X48035470Y-81700890D01*
X48035470Y-83400150D01*
X48079748Y-83635467D01*
X48218820Y-83851591D01*
X48431020Y-83996581D01*
X48682910Y-84047590D01*
X48772540Y-84047590D01*
X48772540Y-85092540D01*
X48830392Y-85383379D01*
X48995139Y-85629941D01*
X49241701Y-85794688D01*
X49532540Y-85852540D01*
X49545309Y-85850000D01*
X53479364Y-85850000D01*
X53362193Y-86191036D01*
X53374808Y-86395030D01*
X53095421Y-86394786D01*
X52641343Y-86582408D01*
X52293629Y-86929515D01*
X52248302Y-87038675D01*
X52167599Y-87092599D01*
X50897599Y-88362599D01*
X50732852Y-88609161D01*
X50675000Y-88900000D01*
X50675000Y-91753557D01*
X50374614Y-91452646D01*
X49829147Y-91226148D01*
X49238524Y-91225632D01*
X48692663Y-91451178D01*
X48274666Y-91868446D01*
X48048168Y-92413913D01*
X48047652Y-93004536D01*
X48273198Y-93550397D01*
X48690466Y-93968394D01*
X49235933Y-94194892D01*
X49826556Y-94195408D01*
X50372417Y-93969862D01*
X50728573Y-93614327D01*
X50732852Y-93635839D01*
X50897599Y-93882401D01*
X52635011Y-95619813D01*
X52396547Y-95520794D01*
X51746306Y-95520226D01*
X51145345Y-95768538D01*
X50685154Y-96227927D01*
X50435794Y-96828453D01*
X50435226Y-97478694D01*
X50683538Y-98079655D01*
X51142927Y-98539846D01*
X51743453Y-98789206D01*
X52393694Y-98789774D01*
X52994655Y-98541462D01*
X53454846Y-98082073D01*
X53704206Y-97481547D01*
X53704774Y-96831306D01*
X53604977Y-96589779D01*
X53852540Y-96837342D01*
X53852540Y-101578173D01*
X53772663Y-101611178D01*
X53354666Y-102028446D01*
X53128168Y-102573913D01*
X53127652Y-103164536D01*
X53353198Y-103710397D01*
X53770466Y-104128394D01*
X54315933Y-104354892D01*
X54906556Y-104355408D01*
X55452417Y-104129862D01*
X55870414Y-103712594D01*
X56096912Y-103167127D01*
X56097428Y-102576504D01*
X55871882Y-102030643D01*
X55454614Y-101612646D01*
X55372540Y-101578566D01*
X55372540Y-96522540D01*
X55314688Y-96231701D01*
X55149941Y-95985139D01*
X54714894Y-95550092D01*
X54795167Y-95550162D01*
X55138943Y-95408117D01*
X55172118Y-95375000D01*
X59227087Y-95375000D01*
X58991343Y-95472408D01*
X58643629Y-95819515D01*
X58455215Y-96273266D01*
X58454860Y-96680338D01*
X57882599Y-97252599D01*
X57717852Y-97499161D01*
X57660000Y-97790000D01*
X57660000Y-100330000D01*
X57717852Y-100620839D01*
X57882599Y-100867401D01*
X58930000Y-101914802D01*
X58930000Y-107950000D01*
X58987852Y-108240839D01*
X59152599Y-108487401D01*
X62962599Y-112297401D01*
X63209161Y-112462148D01*
X63500000Y-112520000D01*
X66179364Y-112520000D01*
X66062193Y-112861036D01*
X66092518Y-113351413D01*
X66221836Y-113663617D01*
X66447265Y-113713130D01*
X67130395Y-113030000D01*
X67116253Y-113015858D01*
X67295858Y-112836253D01*
X67310000Y-112850395D01*
X67324143Y-112836253D01*
X67503748Y-113015858D01*
X67489605Y-113030000D01*
X68172735Y-113713130D01*
X68398164Y-113663617D01*
X68557807Y-113198964D01*
X68545192Y-112994970D01*
X68615030Y-112995031D01*
X68614786Y-113274579D01*
X68802408Y-113728657D01*
X69149515Y-114076371D01*
X69603266Y-114264785D01*
X70094579Y-114265214D01*
X70548657Y-114077592D01*
X70896371Y-113730485D01*
X71084785Y-113276734D01*
X71085214Y-112785421D01*
X70897592Y-112331343D01*
X70550485Y-111983629D01*
X70096734Y-111795215D01*
X69814970Y-111794969D01*
X69815000Y-111760000D01*
X73008397Y-111760000D01*
X73113867Y-112290235D01*
X73414221Y-112739746D01*
X73848616Y-113030000D01*
X73414221Y-113320254D01*
X73113867Y-113769765D01*
X73008397Y-114300000D01*
X73113867Y-114830235D01*
X73414221Y-115279746D01*
X73863732Y-115580100D01*
X74393967Y-115685570D01*
X75466033Y-115685570D01*
X75996268Y-115580100D01*
X76445779Y-115279746D01*
X76746133Y-114830235D01*
X76851603Y-114300000D01*
X76746133Y-113769765D01*
X76445779Y-113320254D01*
X76011384Y-113030000D01*
X76445779Y-112739746D01*
X76746133Y-112290235D01*
X76851603Y-111760000D01*
X76746133Y-111229765D01*
X76445779Y-110780254D01*
X75996268Y-110479900D01*
X75986968Y-110478050D01*
X76076677Y-110451499D01*
X76498658Y-110109944D01*
X76757810Y-109632903D01*
X76771993Y-109561275D01*
X76649339Y-109347000D01*
X75057000Y-109347000D01*
X75057000Y-109367000D01*
X74803000Y-109367000D01*
X74803000Y-109347000D01*
X73210661Y-109347000D01*
X73088007Y-109561275D01*
X73102190Y-109632903D01*
X73361342Y-110109944D01*
X73783323Y-110451499D01*
X73873032Y-110478050D01*
X73863732Y-110479900D01*
X73414221Y-110780254D01*
X73113867Y-111229765D01*
X73008397Y-111760000D01*
X69815000Y-111760000D01*
X69815214Y-111515421D01*
X69627592Y-111061343D01*
X69280485Y-110713629D01*
X68826734Y-110525215D01*
X68335421Y-110524786D01*
X67881343Y-110712408D01*
X67593248Y-111000000D01*
X63814802Y-111000000D01*
X61987262Y-109172460D01*
X62061036Y-109197807D01*
X62551413Y-109167482D01*
X62863617Y-109038164D01*
X62913130Y-108812735D01*
X62230000Y-108129605D01*
X62215858Y-108143748D01*
X62036253Y-107964143D01*
X62050395Y-107950000D01*
X61367265Y-107266870D01*
X61141836Y-107316383D01*
X60982193Y-107781036D01*
X61007660Y-108192858D01*
X60450000Y-107635198D01*
X60450000Y-101600000D01*
X60392148Y-101309161D01*
X60392148Y-101309160D01*
X60227401Y-101062599D01*
X59459601Y-100294799D01*
X59934579Y-100295214D01*
X60388657Y-100107592D01*
X60676752Y-99820000D01*
X65053644Y-99820000D01*
X65339515Y-100106371D01*
X65793266Y-100294785D01*
X66075030Y-100295031D01*
X66074969Y-100365030D01*
X65795421Y-100364786D01*
X65341343Y-100552408D01*
X64993629Y-100899515D01*
X64805215Y-101353266D01*
X64804860Y-101760338D01*
X64232599Y-102332599D01*
X64067852Y-102579161D01*
X64010000Y-102870000D01*
X64010000Y-105554533D01*
X63746734Y-105445215D01*
X63255421Y-105444786D01*
X62801343Y-105632408D01*
X62453629Y-105979515D01*
X62265215Y-106433266D01*
X62264973Y-106710479D01*
X61908587Y-106732518D01*
X61596383Y-106861836D01*
X61546870Y-107087265D01*
X62230000Y-107770395D01*
X62244143Y-107756253D01*
X62423748Y-107935858D01*
X62409605Y-107950000D01*
X63092735Y-108633130D01*
X63318164Y-108583617D01*
X63477807Y-108118964D01*
X63465192Y-107914970D01*
X63535030Y-107915031D01*
X63534786Y-108194579D01*
X63722408Y-108648657D01*
X64069515Y-108996371D01*
X64523266Y-109184785D01*
X65014579Y-109185214D01*
X65468657Y-108997592D01*
X65756752Y-108710000D01*
X68832924Y-108710000D01*
X69121155Y-108998735D01*
X69593276Y-109194777D01*
X70104481Y-109195223D01*
X70576943Y-109000005D01*
X70698435Y-108878725D01*
X73088007Y-108878725D01*
X73210661Y-109093000D01*
X74803000Y-109093000D01*
X74803000Y-107834430D01*
X75057000Y-107834430D01*
X75057000Y-109093000D01*
X76649339Y-109093000D01*
X76771993Y-108878725D01*
X76757810Y-108807097D01*
X76498658Y-108330056D01*
X76076677Y-107988501D01*
X75556110Y-107834430D01*
X75057000Y-107834430D01*
X74803000Y-107834430D01*
X74303890Y-107834430D01*
X73783323Y-107988501D01*
X73361342Y-108330056D01*
X73102190Y-108807097D01*
X73088007Y-108878725D01*
X70698435Y-108878725D01*
X70938735Y-108638845D01*
X71134777Y-108166724D01*
X71135223Y-107655519D01*
X70940005Y-107183057D01*
X70578845Y-106821265D01*
X70304724Y-106707440D01*
X70500000Y-106707440D01*
X70735317Y-106663162D01*
X70951441Y-106524090D01*
X71096431Y-106311890D01*
X71147440Y-106060000D01*
X71147440Y-104760000D01*
X71103162Y-104524683D01*
X70964090Y-104308559D01*
X70751890Y-104163569D01*
X70500000Y-104112560D01*
X69200000Y-104112560D01*
X68964683Y-104156838D01*
X68748559Y-104295910D01*
X68603569Y-104508110D01*
X68552560Y-104760000D01*
X68552560Y-106060000D01*
X68596838Y-106295317D01*
X68735910Y-106511441D01*
X68948110Y-106656431D01*
X69200000Y-106707440D01*
X69395460Y-106707440D01*
X69123057Y-106819995D01*
X68761265Y-107181155D01*
X68757592Y-107190000D01*
X65756356Y-107190000D01*
X65530000Y-106963248D01*
X65530000Y-103193694D01*
X72025226Y-103193694D01*
X72273538Y-103794655D01*
X72732927Y-104254846D01*
X73333453Y-104504206D01*
X73983694Y-104504774D01*
X74584655Y-104256462D01*
X74717924Y-104123425D01*
X74717652Y-104434536D01*
X74943198Y-104980397D01*
X75360466Y-105398394D01*
X75905933Y-105624892D01*
X76496556Y-105625408D01*
X77042417Y-105399862D01*
X77460414Y-104982594D01*
X77686912Y-104437127D01*
X77687428Y-103846504D01*
X77461882Y-103300643D01*
X77044614Y-102882646D01*
X76499147Y-102656148D01*
X75908524Y-102655632D01*
X75362663Y-102881178D01*
X75294422Y-102949300D01*
X75294774Y-102546306D01*
X75046462Y-101945345D01*
X74587073Y-101485154D01*
X73986547Y-101235794D01*
X73336306Y-101235226D01*
X72735345Y-101483538D01*
X72275154Y-101942927D01*
X72025794Y-102543453D01*
X72025226Y-103193694D01*
X65530000Y-103193694D01*
X65530000Y-103184802D01*
X65879941Y-102834861D01*
X66284579Y-102835214D01*
X66738657Y-102647592D01*
X67086371Y-102300485D01*
X67274785Y-101846734D01*
X67275031Y-101564970D01*
X67554579Y-101565214D01*
X68008657Y-101377592D01*
X68356371Y-101030485D01*
X68544785Y-100576734D01*
X68545214Y-100085421D01*
X68435544Y-99820000D01*
X68580000Y-99820000D01*
X68870839Y-99762148D01*
X69117401Y-99597401D01*
X69358917Y-99355885D01*
X69523453Y-99424206D01*
X70173694Y-99424774D01*
X70774655Y-99176462D01*
X71234846Y-98717073D01*
X71484206Y-98116547D01*
X71484774Y-97466306D01*
X71236462Y-96865345D01*
X70777073Y-96405154D01*
X70176547Y-96155794D01*
X69526306Y-96155226D01*
X68925345Y-96403538D01*
X68465154Y-96862927D01*
X68215794Y-97463453D01*
X68215226Y-98113694D01*
X68284309Y-98280889D01*
X68265198Y-98300000D01*
X67026356Y-98300000D01*
X66800000Y-98073248D01*
X66800000Y-93862163D01*
X72687443Y-93862163D01*
X72786042Y-94128965D01*
X73395582Y-94355401D01*
X74045377Y-94331341D01*
X74202472Y-94266270D01*
X74717910Y-94266270D01*
X74717910Y-94956459D01*
X74814583Y-95189848D01*
X74993211Y-95368477D01*
X75226600Y-95465150D01*
X75916790Y-95465150D01*
X76075540Y-95306400D01*
X76075540Y-94107520D01*
X76329540Y-94107520D01*
X76329540Y-95306400D01*
X76488290Y-95465150D01*
X77178480Y-95465150D01*
X77411869Y-95368477D01*
X77590497Y-95189848D01*
X77687170Y-94956459D01*
X77687170Y-94266270D01*
X77528420Y-94107520D01*
X76329540Y-94107520D01*
X76075540Y-94107520D01*
X74876660Y-94107520D01*
X74717910Y-94266270D01*
X74202472Y-94266270D01*
X74533958Y-94128965D01*
X74632557Y-93862163D01*
X73660000Y-92889605D01*
X72687443Y-93862163D01*
X66800000Y-93862163D01*
X66800000Y-92710000D01*
X66747404Y-92445582D01*
X72014599Y-92445582D01*
X72038659Y-93095377D01*
X72241035Y-93583958D01*
X72507837Y-93682557D01*
X73480395Y-92710000D01*
X73839605Y-92710000D01*
X74717910Y-93588304D01*
X74717910Y-93694770D01*
X74876660Y-93853520D01*
X76075540Y-93853520D01*
X76075540Y-92654640D01*
X76329540Y-92654640D01*
X76329540Y-93853520D01*
X77528420Y-93853520D01*
X77687170Y-93694770D01*
X77687170Y-93004581D01*
X77590497Y-92771192D01*
X77411869Y-92592563D01*
X77178480Y-92495890D01*
X76488290Y-92495890D01*
X76329540Y-92654640D01*
X76075540Y-92654640D01*
X75916790Y-92495890D01*
X75287683Y-92495890D01*
X75281341Y-92324623D01*
X75078965Y-91836042D01*
X74812163Y-91737443D01*
X73839605Y-92710000D01*
X73480395Y-92710000D01*
X72507837Y-91737443D01*
X72241035Y-91836042D01*
X72014599Y-92445582D01*
X66747404Y-92445582D01*
X66742148Y-92419161D01*
X66577401Y-92172599D01*
X66330839Y-92007852D01*
X66040000Y-91950000D01*
X61274802Y-91950000D01*
X60882639Y-91557837D01*
X72687443Y-91557837D01*
X73660000Y-92530395D01*
X74632557Y-91557837D01*
X74533958Y-91291035D01*
X73924418Y-91064599D01*
X73274623Y-91088659D01*
X72786042Y-91291035D01*
X72687443Y-91557837D01*
X60882639Y-91557837D01*
X60465593Y-91140791D01*
X60736371Y-90870485D01*
X60924785Y-90416734D01*
X60925031Y-90134970D01*
X60995030Y-90135031D01*
X60994786Y-90414579D01*
X61182408Y-90868657D01*
X61529515Y-91216371D01*
X61983266Y-91404785D01*
X62474579Y-91405214D01*
X62928657Y-91217592D01*
X63276371Y-90870485D01*
X63464785Y-90416734D01*
X63465214Y-89925421D01*
X63277592Y-89471343D01*
X62930485Y-89123629D01*
X62476734Y-88935215D01*
X62194970Y-88934969D01*
X62195214Y-88655421D01*
X62007592Y-88201343D01*
X61760376Y-87953694D01*
X68215226Y-87953694D01*
X68463538Y-88554655D01*
X68922927Y-89014846D01*
X69523453Y-89264206D01*
X70173694Y-89264774D01*
X70774655Y-89016462D01*
X71234846Y-88557073D01*
X71484206Y-87956547D01*
X71484774Y-87306306D01*
X71236462Y-86705345D01*
X70777073Y-86245154D01*
X70176547Y-85995794D01*
X69526306Y-85995226D01*
X68925345Y-86243538D01*
X68465154Y-86702927D01*
X68215794Y-87303453D01*
X68215226Y-87953694D01*
X61760376Y-87953694D01*
X61660485Y-87853629D01*
X61206734Y-87665215D01*
X60715421Y-87664786D01*
X60261343Y-87852408D01*
X59989039Y-88124237D01*
X56417401Y-84552599D01*
X56170839Y-84387852D01*
X55880000Y-84330000D01*
X50292540Y-84330000D01*
X50292540Y-84047590D01*
X50382170Y-84047590D01*
X50617487Y-84003312D01*
X50833611Y-83864240D01*
X50978601Y-83652040D01*
X51029610Y-83400150D01*
X51029610Y-81700890D01*
X50985332Y-81465573D01*
X50846260Y-81249449D01*
X50634060Y-81104459D01*
X50382170Y-81053450D01*
X48682910Y-81053450D01*
X48447593Y-81097728D01*
X48231469Y-81236800D01*
X48086479Y-81449000D01*
X48035470Y-81700890D01*
X47137677Y-81700890D01*
X47106462Y-81625345D01*
X46647073Y-81165154D01*
X46046547Y-80915794D01*
X45396306Y-80915226D01*
X44795345Y-81163538D01*
X44335154Y-81622927D01*
X44085794Y-82223453D01*
X44085226Y-82873694D01*
X43230163Y-82873694D01*
X43154415Y-82760330D01*
X43132220Y-82745500D01*
X43285699Y-82681927D01*
X43464327Y-82503298D01*
X43561000Y-82269909D01*
X43561000Y-81565750D01*
X43402250Y-81407000D01*
X42037000Y-81407000D01*
X42037000Y-81427000D01*
X41783000Y-81427000D01*
X41783000Y-81407000D01*
X40417750Y-81407000D01*
X40259000Y-81565750D01*
X40259000Y-82269909D01*
X40355673Y-82503298D01*
X40534301Y-82681927D01*
X40687780Y-82745500D01*
X40665585Y-82760330D01*
X40340729Y-83246511D01*
X40226655Y-83820000D01*
X40080000Y-83820000D01*
X40080000Y-80290091D01*
X40259000Y-80290091D01*
X40259000Y-80994250D01*
X40417750Y-81153000D01*
X41783000Y-81153000D01*
X41783000Y-79940150D01*
X42037000Y-79940150D01*
X42037000Y-81153000D01*
X43402250Y-81153000D01*
X43561000Y-80994250D01*
X43561000Y-80392944D01*
X51734025Y-80392944D01*
X51933615Y-80874818D01*
X52371621Y-81347188D01*
X52957054Y-81615983D01*
X53213000Y-81497367D01*
X53213000Y-80137000D01*
X51853164Y-80137000D01*
X51734025Y-80392944D01*
X43561000Y-80392944D01*
X43561000Y-80290091D01*
X43464327Y-80056702D01*
X43285699Y-79878073D01*
X43052310Y-79781400D01*
X42195750Y-79781400D01*
X42037000Y-79940150D01*
X41783000Y-79940150D01*
X41624250Y-79781400D01*
X40767690Y-79781400D01*
X40534301Y-79878073D01*
X40355673Y-80056702D01*
X40259000Y-80290091D01*
X40080000Y-80290091D01*
X40080000Y-79627056D01*
X51734025Y-79627056D01*
X51853164Y-79883000D01*
X53213000Y-79883000D01*
X53213000Y-78522633D01*
X53467000Y-78522633D01*
X53467000Y-79883000D01*
X53487000Y-79883000D01*
X53487000Y-80137000D01*
X53467000Y-80137000D01*
X53467000Y-81497367D01*
X53722946Y-81615983D01*
X54308379Y-81347188D01*
X54312934Y-81342276D01*
X54399910Y-81477441D01*
X54612110Y-81622431D01*
X54864000Y-81673440D01*
X56896000Y-81673440D01*
X57131317Y-81629162D01*
X57347441Y-81490090D01*
X57492431Y-81277890D01*
X57543440Y-81026000D01*
X57543440Y-80392944D01*
X59354025Y-80392944D01*
X59553615Y-80874818D01*
X59991621Y-81347188D01*
X60577054Y-81615983D01*
X60833000Y-81497367D01*
X60833000Y-80137000D01*
X59473164Y-80137000D01*
X59354025Y-80392944D01*
X57543440Y-80392944D01*
X57543440Y-79627056D01*
X59354025Y-79627056D01*
X59473164Y-79883000D01*
X60833000Y-79883000D01*
X60833000Y-78522633D01*
X61087000Y-78522633D01*
X61087000Y-79883000D01*
X61107000Y-79883000D01*
X61107000Y-80137000D01*
X61087000Y-80137000D01*
X61087000Y-81497367D01*
X61342946Y-81615983D01*
X61928379Y-81347188D01*
X61932934Y-81342276D01*
X62019910Y-81477441D01*
X62232110Y-81622431D01*
X62484000Y-81673440D01*
X64516000Y-81673440D01*
X64751317Y-81629162D01*
X64967441Y-81490090D01*
X65112431Y-81277890D01*
X65163440Y-81026000D01*
X65163440Y-78994000D01*
X65119162Y-78758683D01*
X64980090Y-78542559D01*
X64767890Y-78397569D01*
X64516000Y-78346560D01*
X62484000Y-78346560D01*
X62248683Y-78390838D01*
X62032559Y-78529910D01*
X61932144Y-78676872D01*
X61928379Y-78672812D01*
X61342946Y-78404017D01*
X61087000Y-78522633D01*
X60833000Y-78522633D01*
X60577054Y-78404017D01*
X59991621Y-78672812D01*
X59553615Y-79145182D01*
X59354025Y-79627056D01*
X57543440Y-79627056D01*
X57543440Y-78994000D01*
X57499162Y-78758683D01*
X57360090Y-78542559D01*
X57147890Y-78397569D01*
X56896000Y-78346560D01*
X54864000Y-78346560D01*
X54628683Y-78390838D01*
X54412559Y-78529910D01*
X54312144Y-78676872D01*
X54308379Y-78672812D01*
X53722946Y-78404017D01*
X53467000Y-78522633D01*
X53213000Y-78522633D01*
X52957054Y-78404017D01*
X52371621Y-78672812D01*
X51933615Y-79145182D01*
X51734025Y-79627056D01*
X40080000Y-79627056D01*
X40080000Y-78180000D01*
X89460000Y-78180000D01*
X89460000Y-128830000D01*
X89460000Y-128830000D01*
G37*
X89460000Y-128830000D02*
X40080000Y-128830000D01*
X40080000Y-83820000D01*
X40226655Y-83820000D01*
X40340729Y-84393489D01*
X40665585Y-84879670D01*
X40980366Y-85090000D01*
X40665585Y-85300330D01*
X40340729Y-85786511D01*
X40226655Y-86360000D01*
X40340729Y-86933489D01*
X40665585Y-87419670D01*
X40980366Y-87630000D01*
X40665585Y-87840330D01*
X40340729Y-88326511D01*
X40226655Y-88900000D01*
X40340729Y-89473489D01*
X40665585Y-89959670D01*
X40980366Y-90170000D01*
X40665585Y-90380330D01*
X40340729Y-90866511D01*
X40226655Y-91440000D01*
X40340729Y-92013489D01*
X40665585Y-92499670D01*
X40980366Y-92710000D01*
X40665585Y-92920330D01*
X40340729Y-93406511D01*
X40226655Y-93980000D01*
X40340729Y-94553489D01*
X40665585Y-95039670D01*
X40980366Y-95250000D01*
X40665585Y-95460330D01*
X40340729Y-95946511D01*
X40226655Y-96520000D01*
X40340729Y-97093489D01*
X40665585Y-97579670D01*
X40980366Y-97790000D01*
X40665585Y-98000330D01*
X40340729Y-98486511D01*
X40226655Y-99060000D01*
X40340729Y-99633489D01*
X40665585Y-100119670D01*
X40980366Y-100330000D01*
X40665585Y-100540330D01*
X40340729Y-101026511D01*
X40226655Y-101600000D01*
X40340729Y-102173489D01*
X40665585Y-102659670D01*
X40980366Y-102870000D01*
X40665585Y-103080330D01*
X40340729Y-103566511D01*
X40226655Y-104140000D01*
X40340729Y-104713489D01*
X40665585Y-105199670D01*
X40980366Y-105410000D01*
X40665585Y-105620330D01*
X40340729Y-106106511D01*
X40226655Y-106680000D01*
X40340729Y-107253489D01*
X40665585Y-107739670D01*
X40980366Y-107950000D01*
X40665585Y-108160330D01*
X40340729Y-108646511D01*
X40226655Y-109220000D01*
X40340729Y-109793489D01*
X40665585Y-110279670D01*
X40980366Y-110490000D01*
X40665585Y-110700330D01*
X40340729Y-111186511D01*
X40226655Y-111760000D01*
X40340729Y-112333489D01*
X40665585Y-112819670D01*
X40980366Y-113030000D01*
X40665585Y-113240330D01*
X40340729Y-113726511D01*
X40226655Y-114300000D01*
X40340729Y-114873489D01*
X40665585Y-115359670D01*
X40980366Y-115570000D01*
X40665585Y-115780330D01*
X40340729Y-116266511D01*
X40226655Y-116840000D01*
X40340729Y-117413489D01*
X40665585Y-117899670D01*
X40980366Y-118110000D01*
X40665585Y-118320330D01*
X40340729Y-118806511D01*
X40226655Y-119380000D01*
X40340729Y-119953489D01*
X40665585Y-120439670D01*
X40980366Y-120650000D01*
X40665585Y-120860330D01*
X40340729Y-121346511D01*
X40226655Y-121920000D01*
X40340729Y-122493489D01*
X40665585Y-122979670D01*
X40980366Y-123190000D01*
X40665585Y-123400330D01*
X40340729Y-123886511D01*
X40226655Y-124460000D01*
X40340729Y-125033489D01*
X40665585Y-125519670D01*
X40980366Y-125730000D01*
X40665585Y-125940330D01*
X40340729Y-126426511D01*
X40226655Y-127000000D01*
X40340729Y-127573489D01*
X40665585Y-128059670D01*
X41151766Y-128384526D01*
X41725255Y-128498600D01*
X42094745Y-128498600D01*
X42668234Y-128384526D01*
X43154415Y-128059670D01*
X43479271Y-127573489D01*
X43593345Y-127000000D01*
X43479271Y-126426511D01*
X43183595Y-125984000D01*
X51676560Y-125984000D01*
X51676560Y-128016000D01*
X51720838Y-128251317D01*
X51859910Y-128467441D01*
X52072110Y-128612431D01*
X52324000Y-128663440D01*
X54356000Y-128663440D01*
X54591317Y-128619162D01*
X54807441Y-128480090D01*
X54907856Y-128333128D01*
X54911621Y-128337188D01*
X55497054Y-128605983D01*
X55753000Y-128487367D01*
X55753000Y-127127000D01*
X56007000Y-127127000D01*
X56007000Y-128487367D01*
X56262946Y-128605983D01*
X56848379Y-128337188D01*
X57286385Y-127864818D01*
X57485975Y-127382944D01*
X57366836Y-127127000D01*
X56007000Y-127127000D01*
X55753000Y-127127000D01*
X55733000Y-127127000D01*
X55733000Y-126873000D01*
X55753000Y-126873000D01*
X55753000Y-125512633D01*
X56007000Y-125512633D01*
X56007000Y-126873000D01*
X57366836Y-126873000D01*
X57485975Y-126617056D01*
X57286385Y-126135182D01*
X56848379Y-125662812D01*
X56262946Y-125394017D01*
X56007000Y-125512633D01*
X55753000Y-125512633D01*
X55497054Y-125394017D01*
X54911621Y-125662812D01*
X54907066Y-125667724D01*
X54820090Y-125532559D01*
X54607890Y-125387569D01*
X54356000Y-125336560D01*
X52324000Y-125336560D01*
X52088683Y-125380838D01*
X51872559Y-125519910D01*
X51727569Y-125732110D01*
X51676560Y-125984000D01*
X43183595Y-125984000D01*
X43154415Y-125940330D01*
X42839634Y-125730000D01*
X43154415Y-125519670D01*
X43479271Y-125033489D01*
X43593345Y-124460000D01*
X43479271Y-123886511D01*
X43230163Y-123513694D01*
X45355226Y-123513694D01*
X45603538Y-124114655D01*
X46062927Y-124574846D01*
X46663453Y-124824206D01*
X47313694Y-124824774D01*
X47914655Y-124576462D01*
X48374846Y-124117073D01*
X48624206Y-123516547D01*
X48624233Y-123484536D01*
X49317652Y-123484536D01*
X49543198Y-124030397D01*
X49960466Y-124448394D01*
X50505933Y-124674892D01*
X51096556Y-124675408D01*
X51642417Y-124449862D01*
X52060414Y-124032594D01*
X52286912Y-123487127D01*
X52287428Y-122896504D01*
X52061882Y-122350643D01*
X51644614Y-121932646D01*
X51099147Y-121706148D01*
X50508524Y-121705632D01*
X49962663Y-121931178D01*
X49544666Y-122348446D01*
X49318168Y-122893913D01*
X49317652Y-123484536D01*
X48624233Y-123484536D01*
X48624774Y-122866306D01*
X48376462Y-122265345D01*
X47917073Y-121805154D01*
X47316547Y-121555794D01*
X46666306Y-121555226D01*
X46065345Y-121803538D01*
X45605154Y-122262927D01*
X45355794Y-122863453D01*
X45355226Y-123513694D01*
X43230163Y-123513694D01*
X43154415Y-123400330D01*
X42839634Y-123190000D01*
X43154415Y-122979670D01*
X43479271Y-122493489D01*
X43593345Y-121920000D01*
X43479271Y-121346511D01*
X43154415Y-120860330D01*
X42839634Y-120650000D01*
X71738397Y-120650000D01*
X71843867Y-121180235D01*
X72144221Y-121629746D01*
X72578616Y-121920000D01*
X72144221Y-122210254D01*
X71843867Y-122659765D01*
X71738397Y-123190000D01*
X71843867Y-123720235D01*
X72144221Y-124169746D01*
X72578616Y-124460000D01*
X72144221Y-124750254D01*
X71843867Y-125199765D01*
X71738397Y-125730000D01*
X71843867Y-126260235D01*
X72144221Y-126709746D01*
X72593732Y-127010100D01*
X73123967Y-127115570D01*
X74196033Y-127115570D01*
X74726268Y-127010100D01*
X75175779Y-126709746D01*
X75476133Y-126260235D01*
X75581603Y-125730000D01*
X75476133Y-125199765D01*
X75175779Y-124750254D01*
X74741384Y-124460000D01*
X75175779Y-124169746D01*
X75476133Y-123720235D01*
X75581603Y-123190000D01*
X75476133Y-122659765D01*
X75175779Y-122210254D01*
X74741384Y-121920000D01*
X75175779Y-121629746D01*
X75476133Y-121180235D01*
X75581603Y-120650000D01*
X75476133Y-120119765D01*
X75175779Y-119670254D01*
X74726268Y-119369900D01*
X74196033Y-119264430D01*
X73123967Y-119264430D01*
X72593732Y-119369900D01*
X72144221Y-119670254D01*
X71843867Y-120119765D01*
X71738397Y-120650000D01*
X42839634Y-120650000D01*
X43154415Y-120439670D01*
X43479271Y-119953489D01*
X43593345Y-119380000D01*
X43479271Y-118806511D01*
X43154415Y-118320330D01*
X42839634Y-118110000D01*
X43154415Y-117899670D01*
X43479271Y-117413489D01*
X43536505Y-117125750D01*
X57135000Y-117125750D01*
X57135000Y-117616310D01*
X57231673Y-117849699D01*
X57410302Y-118028327D01*
X57643691Y-118125000D01*
X58134250Y-118125000D01*
X58293000Y-117966250D01*
X58293000Y-116967000D01*
X58547000Y-116967000D01*
X58547000Y-117966250D01*
X58705750Y-118125000D01*
X59196309Y-118125000D01*
X59429698Y-118028327D01*
X59608327Y-117849699D01*
X59705000Y-117616310D01*
X59705000Y-117125750D01*
X59673731Y-117094481D01*
X62134777Y-117094481D01*
X62329995Y-117566943D01*
X62691155Y-117928735D01*
X63163276Y-118124777D01*
X63674481Y-118125223D01*
X64146943Y-117930005D01*
X64508735Y-117568845D01*
X64704777Y-117096724D01*
X64705223Y-116585519D01*
X64510005Y-116113057D01*
X64148845Y-115751265D01*
X63676724Y-115555223D01*
X63165519Y-115554777D01*
X62693057Y-115749995D01*
X62331265Y-116111155D01*
X62135223Y-116583276D01*
X62134777Y-117094481D01*
X59673731Y-117094481D01*
X59546250Y-116967000D01*
X58547000Y-116967000D01*
X58293000Y-116967000D01*
X57293750Y-116967000D01*
X57135000Y-117125750D01*
X43536505Y-117125750D01*
X43593345Y-116840000D01*
X43479271Y-116266511D01*
X43343751Y-116063690D01*
X57135000Y-116063690D01*
X57135000Y-116554250D01*
X57293750Y-116713000D01*
X58293000Y-116713000D01*
X58293000Y-115713750D01*
X58547000Y-115713750D01*
X58547000Y-116713000D01*
X59546250Y-116713000D01*
X59705000Y-116554250D01*
X59705000Y-116063690D01*
X59608327Y-115830301D01*
X59429698Y-115651673D01*
X59196309Y-115555000D01*
X58705750Y-115555000D01*
X58547000Y-115713750D01*
X58293000Y-115713750D01*
X58134250Y-115555000D01*
X57643691Y-115555000D01*
X57410302Y-115651673D01*
X57231673Y-115830301D01*
X57135000Y-116063690D01*
X43343751Y-116063690D01*
X43154415Y-115780330D01*
X42839634Y-115570000D01*
X43154415Y-115359670D01*
X43479271Y-114873489D01*
X43593345Y-114300000D01*
X43479271Y-113726511D01*
X43230163Y-113353694D01*
X45355226Y-113353694D01*
X45603538Y-113954655D01*
X46062927Y-114414846D01*
X46663453Y-114664206D01*
X47313694Y-114664774D01*
X47914655Y-114416462D01*
X48374846Y-113957073D01*
X48624206Y-113356547D01*
X48624774Y-112706306D01*
X48407677Y-112180890D01*
X49305470Y-112180890D01*
X49305470Y-113880150D01*
X49349748Y-114115467D01*
X49488820Y-114331591D01*
X49701020Y-114476581D01*
X49952910Y-114527590D01*
X51652170Y-114527590D01*
X51887487Y-114483312D01*
X52103611Y-114344240D01*
X52248601Y-114132040D01*
X52297061Y-113892735D01*
X66626870Y-113892735D01*
X66676383Y-114118164D01*
X67141036Y-114277807D01*
X67631413Y-114247482D01*
X67943617Y-114118164D01*
X67993130Y-113892735D01*
X67310000Y-113209605D01*
X66626870Y-113892735D01*
X52297061Y-113892735D01*
X52299610Y-113880150D01*
X52299610Y-112180890D01*
X52255332Y-111945573D01*
X52116260Y-111729449D01*
X51904060Y-111584459D01*
X51652170Y-111533450D01*
X49952910Y-111533450D01*
X49717593Y-111577728D01*
X49501469Y-111716800D01*
X49356479Y-111929000D01*
X49305470Y-112180890D01*
X48407677Y-112180890D01*
X48376462Y-112105345D01*
X47917073Y-111645154D01*
X47316547Y-111395794D01*
X46666306Y-111395226D01*
X46065345Y-111643538D01*
X45605154Y-112102927D01*
X45355794Y-112703453D01*
X45355226Y-113353694D01*
X43230163Y-113353694D01*
X43154415Y-113240330D01*
X42839634Y-113030000D01*
X43154415Y-112819670D01*
X43479271Y-112333489D01*
X43593345Y-111760000D01*
X43479271Y-111186511D01*
X43154415Y-110700330D01*
X42839634Y-110490000D01*
X43154415Y-110279670D01*
X43479271Y-109793489D01*
X43593345Y-109220000D01*
X43479271Y-108646511D01*
X43154415Y-108160330D01*
X42839634Y-107950000D01*
X43154415Y-107739670D01*
X43221885Y-107638694D01*
X50435226Y-107638694D01*
X50683538Y-108239655D01*
X51142927Y-108699846D01*
X51743453Y-108949206D01*
X52393694Y-108949774D01*
X52994655Y-108701462D01*
X53359741Y-108337012D01*
X53312560Y-108570000D01*
X53312560Y-109870000D01*
X53356838Y-110105317D01*
X53495910Y-110321441D01*
X53708110Y-110466431D01*
X53960000Y-110517440D01*
X55260000Y-110517440D01*
X55495317Y-110473162D01*
X55711441Y-110334090D01*
X55856431Y-110121890D01*
X55907440Y-109870000D01*
X55907440Y-109674540D01*
X56019995Y-109946943D01*
X56381155Y-110308735D01*
X56853276Y-110504777D01*
X57364481Y-110505223D01*
X57836943Y-110310005D01*
X58198735Y-109948845D01*
X58394777Y-109476724D01*
X58395223Y-108965519D01*
X58200005Y-108493057D01*
X57838845Y-108131265D01*
X57366724Y-107935223D01*
X56855519Y-107934777D01*
X56383057Y-108129995D01*
X56021265Y-108491155D01*
X55907440Y-108765276D01*
X55907440Y-108570000D01*
X55863162Y-108334683D01*
X55724090Y-108118559D01*
X55511890Y-107973569D01*
X55260000Y-107922560D01*
X53960000Y-107922560D01*
X53724683Y-107966838D01*
X53512416Y-108103428D01*
X53704206Y-107641547D01*
X53704774Y-106991306D01*
X53456462Y-106390345D01*
X52997073Y-105930154D01*
X52396547Y-105680794D01*
X51746306Y-105680226D01*
X51145345Y-105928538D01*
X50685154Y-106387927D01*
X50435794Y-106988453D01*
X50435226Y-107638694D01*
X43221885Y-107638694D01*
X43479271Y-107253489D01*
X43593345Y-106680000D01*
X43479271Y-106106511D01*
X43154415Y-105620330D01*
X42839634Y-105410000D01*
X43154415Y-105199670D01*
X43479271Y-104713489D01*
X43593345Y-104140000D01*
X43479271Y-103566511D01*
X43154415Y-103080330D01*
X42839634Y-102870000D01*
X43154415Y-102659670D01*
X43479271Y-102173489D01*
X43542725Y-101854481D01*
X44474777Y-101854481D01*
X44669995Y-102326943D01*
X45031155Y-102688735D01*
X45503276Y-102884777D01*
X46014481Y-102885223D01*
X46486943Y-102690005D01*
X46848735Y-102328845D01*
X46962560Y-102054724D01*
X46962560Y-102250000D01*
X47006838Y-102485317D01*
X47145910Y-102701441D01*
X47358110Y-102846431D01*
X47610000Y-102897440D01*
X48910000Y-102897440D01*
X49145317Y-102853162D01*
X49361441Y-102714090D01*
X49506431Y-102501890D01*
X49557440Y-102250000D01*
X49557440Y-100950000D01*
X49513162Y-100714683D01*
X49374090Y-100498559D01*
X49161890Y-100353569D01*
X48910000Y-100302560D01*
X47610000Y-100302560D01*
X47374683Y-100346838D01*
X47158559Y-100485910D01*
X47013569Y-100698110D01*
X46962560Y-100950000D01*
X46962560Y-101145460D01*
X46850005Y-100873057D01*
X46488845Y-100511265D01*
X46016724Y-100315223D01*
X45505519Y-100314777D01*
X45033057Y-100509995D01*
X44671265Y-100871155D01*
X44475223Y-101343276D01*
X44474777Y-101854481D01*
X43542725Y-101854481D01*
X43593345Y-101600000D01*
X43479271Y-101026511D01*
X43154415Y-100540330D01*
X42839634Y-100330000D01*
X43154415Y-100119670D01*
X43479271Y-99633489D01*
X43593345Y-99060000D01*
X43479271Y-98486511D01*
X43154415Y-98000330D01*
X42839634Y-97790000D01*
X43154415Y-97579670D01*
X43479271Y-97093489D01*
X43593345Y-96520000D01*
X43479271Y-95946511D01*
X43428148Y-95870000D01*
X44422560Y-95870000D01*
X44422560Y-97170000D01*
X44466838Y-97405317D01*
X44605910Y-97621441D01*
X44818110Y-97766431D01*
X45070000Y-97817440D01*
X46370000Y-97817440D01*
X46605317Y-97773162D01*
X46821441Y-97634090D01*
X46966431Y-97421890D01*
X47017440Y-97170000D01*
X47017440Y-96974540D01*
X47129995Y-97246943D01*
X47491155Y-97608735D01*
X47963276Y-97804777D01*
X48474481Y-97805223D01*
X48946943Y-97610005D01*
X49308735Y-97248845D01*
X49504777Y-96776724D01*
X49505223Y-96265519D01*
X49310005Y-95793057D01*
X48948845Y-95431265D01*
X48476724Y-95235223D01*
X47965519Y-95234777D01*
X47493057Y-95429995D01*
X47131265Y-95791155D01*
X47017440Y-96065276D01*
X47017440Y-95870000D01*
X46973162Y-95634683D01*
X46834090Y-95418559D01*
X46621890Y-95273569D01*
X46370000Y-95222560D01*
X45070000Y-95222560D01*
X44834683Y-95266838D01*
X44618559Y-95405910D01*
X44473569Y-95618110D01*
X44422560Y-95870000D01*
X43428148Y-95870000D01*
X43154415Y-95460330D01*
X42839634Y-95250000D01*
X43154415Y-95039670D01*
X43479271Y-94553489D01*
X43593345Y-93980000D01*
X43479271Y-93406511D01*
X43230163Y-93033694D01*
X44085226Y-93033694D01*
X44333538Y-93634655D01*
X44792927Y-94094846D01*
X45393453Y-94344206D01*
X46043694Y-94344774D01*
X46644655Y-94096462D01*
X47104846Y-93637073D01*
X47354206Y-93036547D01*
X47354774Y-92386306D01*
X47106462Y-91785345D01*
X46647073Y-91325154D01*
X46046547Y-91075794D01*
X45396306Y-91075226D01*
X44795345Y-91323538D01*
X44335154Y-91782927D01*
X44085794Y-92383453D01*
X44085226Y-93033694D01*
X43230163Y-93033694D01*
X43154415Y-92920330D01*
X42839634Y-92710000D01*
X43154415Y-92499670D01*
X43479271Y-92013489D01*
X43593345Y-91440000D01*
X43479271Y-90866511D01*
X43154415Y-90380330D01*
X42839634Y-90170000D01*
X43154415Y-89959670D01*
X43479271Y-89473489D01*
X43593345Y-88900000D01*
X43479271Y-88326511D01*
X43154415Y-87840330D01*
X42839634Y-87630000D01*
X43154415Y-87419670D01*
X43479271Y-86933489D01*
X43593345Y-86360000D01*
X43479271Y-85786511D01*
X43154415Y-85300330D01*
X42839634Y-85090000D01*
X43154415Y-84879670D01*
X43479271Y-84393489D01*
X43593345Y-83820000D01*
X43479271Y-83246511D01*
X43230163Y-82873694D01*
X44085226Y-82873694D01*
X44333538Y-83474655D01*
X44792927Y-83934846D01*
X45393453Y-84184206D01*
X46043694Y-84184774D01*
X46644655Y-83936462D01*
X47104846Y-83477073D01*
X47354206Y-82876547D01*
X47354774Y-82226306D01*
X47137677Y-81700890D01*
X48035470Y-81700890D01*
X48035470Y-83400150D01*
X48079748Y-83635467D01*
X48218820Y-83851591D01*
X48431020Y-83996581D01*
X48682910Y-84047590D01*
X48772540Y-84047590D01*
X48772540Y-85092540D01*
X48830392Y-85383379D01*
X48995139Y-85629941D01*
X49241701Y-85794688D01*
X49532540Y-85852540D01*
X49545309Y-85850000D01*
X53479364Y-85850000D01*
X53362193Y-86191036D01*
X53374808Y-86395030D01*
X53095421Y-86394786D01*
X52641343Y-86582408D01*
X52293629Y-86929515D01*
X52248302Y-87038675D01*
X52167599Y-87092599D01*
X50897599Y-88362599D01*
X50732852Y-88609161D01*
X50675000Y-88900000D01*
X50675000Y-91753557D01*
X50374614Y-91452646D01*
X49829147Y-91226148D01*
X49238524Y-91225632D01*
X48692663Y-91451178D01*
X48274666Y-91868446D01*
X48048168Y-92413913D01*
X48047652Y-93004536D01*
X48273198Y-93550397D01*
X48690466Y-93968394D01*
X49235933Y-94194892D01*
X49826556Y-94195408D01*
X50372417Y-93969862D01*
X50728573Y-93614327D01*
X50732852Y-93635839D01*
X50897599Y-93882401D01*
X52635011Y-95619813D01*
X52396547Y-95520794D01*
X51746306Y-95520226D01*
X51145345Y-95768538D01*
X50685154Y-96227927D01*
X50435794Y-96828453D01*
X50435226Y-97478694D01*
X50683538Y-98079655D01*
X51142927Y-98539846D01*
X51743453Y-98789206D01*
X52393694Y-98789774D01*
X52994655Y-98541462D01*
X53454846Y-98082073D01*
X53704206Y-97481547D01*
X53704774Y-96831306D01*
X53604977Y-96589779D01*
X53852540Y-96837342D01*
X53852540Y-101578173D01*
X53772663Y-101611178D01*
X53354666Y-102028446D01*
X53128168Y-102573913D01*
X53127652Y-103164536D01*
X53353198Y-103710397D01*
X53770466Y-104128394D01*
X54315933Y-104354892D01*
X54906556Y-104355408D01*
X55452417Y-104129862D01*
X55870414Y-103712594D01*
X56096912Y-103167127D01*
X56097428Y-102576504D01*
X55871882Y-102030643D01*
X55454614Y-101612646D01*
X55372540Y-101578566D01*
X55372540Y-96522540D01*
X55314688Y-96231701D01*
X55149941Y-95985139D01*
X54714894Y-95550092D01*
X54795167Y-95550162D01*
X55138943Y-95408117D01*
X55172118Y-95375000D01*
X59227087Y-95375000D01*
X58991343Y-95472408D01*
X58643629Y-95819515D01*
X58455215Y-96273266D01*
X58454860Y-96680338D01*
X57882599Y-97252599D01*
X57717852Y-97499161D01*
X57660000Y-97790000D01*
X57660000Y-100330000D01*
X57717852Y-100620839D01*
X57882599Y-100867401D01*
X58930000Y-101914802D01*
X58930000Y-107950000D01*
X58987852Y-108240839D01*
X59152599Y-108487401D01*
X62962599Y-112297401D01*
X63209161Y-112462148D01*
X63500000Y-112520000D01*
X66179364Y-112520000D01*
X66062193Y-112861036D01*
X66092518Y-113351413D01*
X66221836Y-113663617D01*
X66447265Y-113713130D01*
X67130395Y-113030000D01*
X67116253Y-113015858D01*
X67295858Y-112836253D01*
X67310000Y-112850395D01*
X67324143Y-112836253D01*
X67503748Y-113015858D01*
X67489605Y-113030000D01*
X68172735Y-113713130D01*
X68398164Y-113663617D01*
X68557807Y-113198964D01*
X68545192Y-112994970D01*
X68615030Y-112995031D01*
X68614786Y-113274579D01*
X68802408Y-113728657D01*
X69149515Y-114076371D01*
X69603266Y-114264785D01*
X70094579Y-114265214D01*
X70548657Y-114077592D01*
X70896371Y-113730485D01*
X71084785Y-113276734D01*
X71085214Y-112785421D01*
X70897592Y-112331343D01*
X70550485Y-111983629D01*
X70096734Y-111795215D01*
X69814970Y-111794969D01*
X69815000Y-111760000D01*
X73008397Y-111760000D01*
X73113867Y-112290235D01*
X73414221Y-112739746D01*
X73848616Y-113030000D01*
X73414221Y-113320254D01*
X73113867Y-113769765D01*
X73008397Y-114300000D01*
X73113867Y-114830235D01*
X73414221Y-115279746D01*
X73863732Y-115580100D01*
X74393967Y-115685570D01*
X75466033Y-115685570D01*
X75996268Y-115580100D01*
X76445779Y-115279746D01*
X76746133Y-114830235D01*
X76851603Y-114300000D01*
X76746133Y-113769765D01*
X76445779Y-113320254D01*
X76011384Y-113030000D01*
X76445779Y-112739746D01*
X76746133Y-112290235D01*
X76851603Y-111760000D01*
X76746133Y-111229765D01*
X76445779Y-110780254D01*
X75996268Y-110479900D01*
X75986968Y-110478050D01*
X76076677Y-110451499D01*
X76498658Y-110109944D01*
X76757810Y-109632903D01*
X76771993Y-109561275D01*
X76649339Y-109347000D01*
X75057000Y-109347000D01*
X75057000Y-109367000D01*
X74803000Y-109367000D01*
X74803000Y-109347000D01*
X73210661Y-109347000D01*
X73088007Y-109561275D01*
X73102190Y-109632903D01*
X73361342Y-110109944D01*
X73783323Y-110451499D01*
X73873032Y-110478050D01*
X73863732Y-110479900D01*
X73414221Y-110780254D01*
X73113867Y-111229765D01*
X73008397Y-111760000D01*
X69815000Y-111760000D01*
X69815214Y-111515421D01*
X69627592Y-111061343D01*
X69280485Y-110713629D01*
X68826734Y-110525215D01*
X68335421Y-110524786D01*
X67881343Y-110712408D01*
X67593248Y-111000000D01*
X63814802Y-111000000D01*
X61987262Y-109172460D01*
X62061036Y-109197807D01*
X62551413Y-109167482D01*
X62863617Y-109038164D01*
X62913130Y-108812735D01*
X62230000Y-108129605D01*
X62215858Y-108143748D01*
X62036253Y-107964143D01*
X62050395Y-107950000D01*
X61367265Y-107266870D01*
X61141836Y-107316383D01*
X60982193Y-107781036D01*
X61007660Y-108192858D01*
X60450000Y-107635198D01*
X60450000Y-101600000D01*
X60392148Y-101309161D01*
X60392148Y-101309160D01*
X60227401Y-101062599D01*
X59459601Y-100294799D01*
X59934579Y-100295214D01*
X60388657Y-100107592D01*
X60676752Y-99820000D01*
X65053644Y-99820000D01*
X65339515Y-100106371D01*
X65793266Y-100294785D01*
X66075030Y-100295031D01*
X66074969Y-100365030D01*
X65795421Y-100364786D01*
X65341343Y-100552408D01*
X64993629Y-100899515D01*
X64805215Y-101353266D01*
X64804860Y-101760338D01*
X64232599Y-102332599D01*
X64067852Y-102579161D01*
X64010000Y-102870000D01*
X64010000Y-105554533D01*
X63746734Y-105445215D01*
X63255421Y-105444786D01*
X62801343Y-105632408D01*
X62453629Y-105979515D01*
X62265215Y-106433266D01*
X62264973Y-106710479D01*
X61908587Y-106732518D01*
X61596383Y-106861836D01*
X61546870Y-107087265D01*
X62230000Y-107770395D01*
X62244143Y-107756253D01*
X62423748Y-107935858D01*
X62409605Y-107950000D01*
X63092735Y-108633130D01*
X63318164Y-108583617D01*
X63477807Y-108118964D01*
X63465192Y-107914970D01*
X63535030Y-107915031D01*
X63534786Y-108194579D01*
X63722408Y-108648657D01*
X64069515Y-108996371D01*
X64523266Y-109184785D01*
X65014579Y-109185214D01*
X65468657Y-108997592D01*
X65756752Y-108710000D01*
X68832924Y-108710000D01*
X69121155Y-108998735D01*
X69593276Y-109194777D01*
X70104481Y-109195223D01*
X70576943Y-109000005D01*
X70698435Y-108878725D01*
X73088007Y-108878725D01*
X73210661Y-109093000D01*
X74803000Y-109093000D01*
X74803000Y-107834430D01*
X75057000Y-107834430D01*
X75057000Y-109093000D01*
X76649339Y-109093000D01*
X76771993Y-108878725D01*
X76757810Y-108807097D01*
X76498658Y-108330056D01*
X76076677Y-107988501D01*
X75556110Y-107834430D01*
X75057000Y-107834430D01*
X74803000Y-107834430D01*
X74303890Y-107834430D01*
X73783323Y-107988501D01*
X73361342Y-108330056D01*
X73102190Y-108807097D01*
X73088007Y-108878725D01*
X70698435Y-108878725D01*
X70938735Y-108638845D01*
X71134777Y-108166724D01*
X71135223Y-107655519D01*
X70940005Y-107183057D01*
X70578845Y-106821265D01*
X70304724Y-106707440D01*
X70500000Y-106707440D01*
X70735317Y-106663162D01*
X70951441Y-106524090D01*
X71096431Y-106311890D01*
X71147440Y-106060000D01*
X71147440Y-104760000D01*
X71103162Y-104524683D01*
X70964090Y-104308559D01*
X70751890Y-104163569D01*
X70500000Y-104112560D01*
X69200000Y-104112560D01*
X68964683Y-104156838D01*
X68748559Y-104295910D01*
X68603569Y-104508110D01*
X68552560Y-104760000D01*
X68552560Y-106060000D01*
X68596838Y-106295317D01*
X68735910Y-106511441D01*
X68948110Y-106656431D01*
X69200000Y-106707440D01*
X69395460Y-106707440D01*
X69123057Y-106819995D01*
X68761265Y-107181155D01*
X68757592Y-107190000D01*
X65756356Y-107190000D01*
X65530000Y-106963248D01*
X65530000Y-103193694D01*
X72025226Y-103193694D01*
X72273538Y-103794655D01*
X72732927Y-104254846D01*
X73333453Y-104504206D01*
X73983694Y-104504774D01*
X74584655Y-104256462D01*
X74717924Y-104123425D01*
X74717652Y-104434536D01*
X74943198Y-104980397D01*
X75360466Y-105398394D01*
X75905933Y-105624892D01*
X76496556Y-105625408D01*
X77042417Y-105399862D01*
X77460414Y-104982594D01*
X77686912Y-104437127D01*
X77687428Y-103846504D01*
X77461882Y-103300643D01*
X77044614Y-102882646D01*
X76499147Y-102656148D01*
X75908524Y-102655632D01*
X75362663Y-102881178D01*
X75294422Y-102949300D01*
X75294774Y-102546306D01*
X75046462Y-101945345D01*
X74587073Y-101485154D01*
X73986547Y-101235794D01*
X73336306Y-101235226D01*
X72735345Y-101483538D01*
X72275154Y-101942927D01*
X72025794Y-102543453D01*
X72025226Y-103193694D01*
X65530000Y-103193694D01*
X65530000Y-103184802D01*
X65879941Y-102834861D01*
X66284579Y-102835214D01*
X66738657Y-102647592D01*
X67086371Y-102300485D01*
X67274785Y-101846734D01*
X67275031Y-101564970D01*
X67554579Y-101565214D01*
X68008657Y-101377592D01*
X68356371Y-101030485D01*
X68544785Y-100576734D01*
X68545214Y-100085421D01*
X68435544Y-99820000D01*
X68580000Y-99820000D01*
X68870839Y-99762148D01*
X69117401Y-99597401D01*
X69358917Y-99355885D01*
X69523453Y-99424206D01*
X70173694Y-99424774D01*
X70774655Y-99176462D01*
X71234846Y-98717073D01*
X71484206Y-98116547D01*
X71484774Y-97466306D01*
X71236462Y-96865345D01*
X70777073Y-96405154D01*
X70176547Y-96155794D01*
X69526306Y-96155226D01*
X68925345Y-96403538D01*
X68465154Y-96862927D01*
X68215794Y-97463453D01*
X68215226Y-98113694D01*
X68284309Y-98280889D01*
X68265198Y-98300000D01*
X67026356Y-98300000D01*
X66800000Y-98073248D01*
X66800000Y-93862163D01*
X72687443Y-93862163D01*
X72786042Y-94128965D01*
X73395582Y-94355401D01*
X74045377Y-94331341D01*
X74202472Y-94266270D01*
X74717910Y-94266270D01*
X74717910Y-94956459D01*
X74814583Y-95189848D01*
X74993211Y-95368477D01*
X75226600Y-95465150D01*
X75916790Y-95465150D01*
X76075540Y-95306400D01*
X76075540Y-94107520D01*
X76329540Y-94107520D01*
X76329540Y-95306400D01*
X76488290Y-95465150D01*
X77178480Y-95465150D01*
X77411869Y-95368477D01*
X77590497Y-95189848D01*
X77687170Y-94956459D01*
X77687170Y-94266270D01*
X77528420Y-94107520D01*
X76329540Y-94107520D01*
X76075540Y-94107520D01*
X74876660Y-94107520D01*
X74717910Y-94266270D01*
X74202472Y-94266270D01*
X74533958Y-94128965D01*
X74632557Y-93862163D01*
X73660000Y-92889605D01*
X72687443Y-93862163D01*
X66800000Y-93862163D01*
X66800000Y-92710000D01*
X66747404Y-92445582D01*
X72014599Y-92445582D01*
X72038659Y-93095377D01*
X72241035Y-93583958D01*
X72507837Y-93682557D01*
X73480395Y-92710000D01*
X73839605Y-92710000D01*
X74717910Y-93588304D01*
X74717910Y-93694770D01*
X74876660Y-93853520D01*
X76075540Y-93853520D01*
X76075540Y-92654640D01*
X76329540Y-92654640D01*
X76329540Y-93853520D01*
X77528420Y-93853520D01*
X77687170Y-93694770D01*
X77687170Y-93004581D01*
X77590497Y-92771192D01*
X77411869Y-92592563D01*
X77178480Y-92495890D01*
X76488290Y-92495890D01*
X76329540Y-92654640D01*
X76075540Y-92654640D01*
X75916790Y-92495890D01*
X75287683Y-92495890D01*
X75281341Y-92324623D01*
X75078965Y-91836042D01*
X74812163Y-91737443D01*
X73839605Y-92710000D01*
X73480395Y-92710000D01*
X72507837Y-91737443D01*
X72241035Y-91836042D01*
X72014599Y-92445582D01*
X66747404Y-92445582D01*
X66742148Y-92419161D01*
X66577401Y-92172599D01*
X66330839Y-92007852D01*
X66040000Y-91950000D01*
X61274802Y-91950000D01*
X60882639Y-91557837D01*
X72687443Y-91557837D01*
X73660000Y-92530395D01*
X74632557Y-91557837D01*
X74533958Y-91291035D01*
X73924418Y-91064599D01*
X73274623Y-91088659D01*
X72786042Y-91291035D01*
X72687443Y-91557837D01*
X60882639Y-91557837D01*
X60465593Y-91140791D01*
X60736371Y-90870485D01*
X60924785Y-90416734D01*
X60925031Y-90134970D01*
X60995030Y-90135031D01*
X60994786Y-90414579D01*
X61182408Y-90868657D01*
X61529515Y-91216371D01*
X61983266Y-91404785D01*
X62474579Y-91405214D01*
X62928657Y-91217592D01*
X63276371Y-90870485D01*
X63464785Y-90416734D01*
X63465214Y-89925421D01*
X63277592Y-89471343D01*
X62930485Y-89123629D01*
X62476734Y-88935215D01*
X62194970Y-88934969D01*
X62195214Y-88655421D01*
X62007592Y-88201343D01*
X61760376Y-87953694D01*
X68215226Y-87953694D01*
X68463538Y-88554655D01*
X68922927Y-89014846D01*
X69523453Y-89264206D01*
X70173694Y-89264774D01*
X70774655Y-89016462D01*
X71234846Y-88557073D01*
X71484206Y-87956547D01*
X71484774Y-87306306D01*
X71236462Y-86705345D01*
X70777073Y-86245154D01*
X70176547Y-85995794D01*
X69526306Y-85995226D01*
X68925345Y-86243538D01*
X68465154Y-86702927D01*
X68215794Y-87303453D01*
X68215226Y-87953694D01*
X61760376Y-87953694D01*
X61660485Y-87853629D01*
X61206734Y-87665215D01*
X60715421Y-87664786D01*
X60261343Y-87852408D01*
X59989039Y-88124237D01*
X56417401Y-84552599D01*
X56170839Y-84387852D01*
X55880000Y-84330000D01*
X50292540Y-84330000D01*
X50292540Y-84047590D01*
X50382170Y-84047590D01*
X50617487Y-84003312D01*
X50833611Y-83864240D01*
X50978601Y-83652040D01*
X51029610Y-83400150D01*
X51029610Y-81700890D01*
X50985332Y-81465573D01*
X50846260Y-81249449D01*
X50634060Y-81104459D01*
X50382170Y-81053450D01*
X48682910Y-81053450D01*
X48447593Y-81097728D01*
X48231469Y-81236800D01*
X48086479Y-81449000D01*
X48035470Y-81700890D01*
X47137677Y-81700890D01*
X47106462Y-81625345D01*
X46647073Y-81165154D01*
X46046547Y-80915794D01*
X45396306Y-80915226D01*
X44795345Y-81163538D01*
X44335154Y-81622927D01*
X44085794Y-82223453D01*
X44085226Y-82873694D01*
X43230163Y-82873694D01*
X43154415Y-82760330D01*
X43132220Y-82745500D01*
X43285699Y-82681927D01*
X43464327Y-82503298D01*
X43561000Y-82269909D01*
X43561000Y-81565750D01*
X43402250Y-81407000D01*
X42037000Y-81407000D01*
X42037000Y-81427000D01*
X41783000Y-81427000D01*
X41783000Y-81407000D01*
X40417750Y-81407000D01*
X40259000Y-81565750D01*
X40259000Y-82269909D01*
X40355673Y-82503298D01*
X40534301Y-82681927D01*
X40687780Y-82745500D01*
X40665585Y-82760330D01*
X40340729Y-83246511D01*
X40226655Y-83820000D01*
X40080000Y-83820000D01*
X40080000Y-80290091D01*
X40259000Y-80290091D01*
X40259000Y-80994250D01*
X40417750Y-81153000D01*
X41783000Y-81153000D01*
X41783000Y-79940150D01*
X42037000Y-79940150D01*
X42037000Y-81153000D01*
X43402250Y-81153000D01*
X43561000Y-80994250D01*
X43561000Y-80392944D01*
X51734025Y-80392944D01*
X51933615Y-80874818D01*
X52371621Y-81347188D01*
X52957054Y-81615983D01*
X53213000Y-81497367D01*
X53213000Y-80137000D01*
X51853164Y-80137000D01*
X51734025Y-80392944D01*
X43561000Y-80392944D01*
X43561000Y-80290091D01*
X43464327Y-80056702D01*
X43285699Y-79878073D01*
X43052310Y-79781400D01*
X42195750Y-79781400D01*
X42037000Y-79940150D01*
X41783000Y-79940150D01*
X41624250Y-79781400D01*
X40767690Y-79781400D01*
X40534301Y-79878073D01*
X40355673Y-80056702D01*
X40259000Y-80290091D01*
X40080000Y-80290091D01*
X40080000Y-79627056D01*
X51734025Y-79627056D01*
X51853164Y-79883000D01*
X53213000Y-79883000D01*
X53213000Y-78522633D01*
X53467000Y-78522633D01*
X53467000Y-79883000D01*
X53487000Y-79883000D01*
X53487000Y-80137000D01*
X53467000Y-80137000D01*
X53467000Y-81497367D01*
X53722946Y-81615983D01*
X54308379Y-81347188D01*
X54312934Y-81342276D01*
X54399910Y-81477441D01*
X54612110Y-81622431D01*
X54864000Y-81673440D01*
X56896000Y-81673440D01*
X57131317Y-81629162D01*
X57347441Y-81490090D01*
X57492431Y-81277890D01*
X57543440Y-81026000D01*
X57543440Y-80392944D01*
X59354025Y-80392944D01*
X59553615Y-80874818D01*
X59991621Y-81347188D01*
X60577054Y-81615983D01*
X60833000Y-81497367D01*
X60833000Y-80137000D01*
X59473164Y-80137000D01*
X59354025Y-80392944D01*
X57543440Y-80392944D01*
X57543440Y-79627056D01*
X59354025Y-79627056D01*
X59473164Y-79883000D01*
X60833000Y-79883000D01*
X60833000Y-78522633D01*
X61087000Y-78522633D01*
X61087000Y-79883000D01*
X61107000Y-79883000D01*
X61107000Y-80137000D01*
X61087000Y-80137000D01*
X61087000Y-81497367D01*
X61342946Y-81615983D01*
X61928379Y-81347188D01*
X61932934Y-81342276D01*
X62019910Y-81477441D01*
X62232110Y-81622431D01*
X62484000Y-81673440D01*
X64516000Y-81673440D01*
X64751317Y-81629162D01*
X64967441Y-81490090D01*
X65112431Y-81277890D01*
X65163440Y-81026000D01*
X65163440Y-78994000D01*
X65119162Y-78758683D01*
X64980090Y-78542559D01*
X64767890Y-78397569D01*
X64516000Y-78346560D01*
X62484000Y-78346560D01*
X62248683Y-78390838D01*
X62032559Y-78529910D01*
X61932144Y-78676872D01*
X61928379Y-78672812D01*
X61342946Y-78404017D01*
X61087000Y-78522633D01*
X60833000Y-78522633D01*
X60577054Y-78404017D01*
X59991621Y-78672812D01*
X59553615Y-79145182D01*
X59354025Y-79627056D01*
X57543440Y-79627056D01*
X57543440Y-78994000D01*
X57499162Y-78758683D01*
X57360090Y-78542559D01*
X57147890Y-78397569D01*
X56896000Y-78346560D01*
X54864000Y-78346560D01*
X54628683Y-78390838D01*
X54412559Y-78529910D01*
X54312144Y-78676872D01*
X54308379Y-78672812D01*
X53722946Y-78404017D01*
X53467000Y-78522633D01*
X53213000Y-78522633D01*
X52957054Y-78404017D01*
X52371621Y-78672812D01*
X51933615Y-79145182D01*
X51734025Y-79627056D01*
X40080000Y-79627056D01*
X40080000Y-78180000D01*
X89460000Y-78180000D01*
X89460000Y-128830000D01*
G36*
X58914407Y-89199209D02*
X58643629Y-89469515D01*
X58455215Y-89923266D01*
X58454786Y-90414579D01*
X58642408Y-90868657D01*
X58930000Y-91156752D01*
X58930000Y-91440000D01*
X58987852Y-91730839D01*
X59152599Y-91977401D01*
X60422599Y-93247401D01*
X60669160Y-93412148D01*
X60960000Y-93470000D01*
X65280000Y-93470000D01*
X65280000Y-98073644D01*
X65053248Y-98300000D01*
X62085467Y-98300000D01*
X62194785Y-98036734D01*
X62195140Y-97629662D01*
X64274680Y-95550122D01*
X64320167Y-95550162D01*
X64663943Y-95408117D01*
X64927192Y-95145327D01*
X65069838Y-94801799D01*
X65070162Y-94429833D01*
X64928117Y-94086057D01*
X64665327Y-93822808D01*
X64321799Y-93680162D01*
X63949833Y-93679838D01*
X63606057Y-93821883D01*
X63342808Y-94084673D01*
X63200162Y-94428201D01*
X63200121Y-94475077D01*
X62990000Y-94685198D01*
X62990000Y-94615000D01*
X62932148Y-94324161D01*
X62767401Y-94077599D01*
X62520839Y-93912852D01*
X62230000Y-93855000D01*
X56029248Y-93855000D01*
X56058601Y-93812040D01*
X56109610Y-93560150D01*
X56109610Y-91860890D01*
X56065332Y-91625573D01*
X55926260Y-91409449D01*
X55714060Y-91264459D01*
X55462170Y-91213450D01*
X53762910Y-91213450D01*
X53527593Y-91257728D01*
X53311469Y-91396800D01*
X53166479Y-91609000D01*
X53115470Y-91860890D01*
X53115470Y-93560150D01*
X53159748Y-93795467D01*
X53298820Y-94011591D01*
X53511020Y-94156581D01*
X53762910Y-94207590D01*
X53766768Y-94207590D01*
X53675162Y-94428201D01*
X53675090Y-94510288D01*
X52195000Y-93030198D01*
X52195000Y-89214802D01*
X52705876Y-88703926D01*
X53093266Y-88864785D01*
X53375030Y-88865031D01*
X53374786Y-89144579D01*
X53562408Y-89598657D01*
X53909515Y-89946371D01*
X54363266Y-90134785D01*
X54854579Y-90135214D01*
X55308657Y-89947592D01*
X55656371Y-89600485D01*
X55844785Y-89146734D01*
X55845214Y-88655421D01*
X55657592Y-88201343D01*
X55310485Y-87853629D01*
X54856734Y-87665215D01*
X54574970Y-87664969D01*
X54575027Y-87599521D01*
X54931413Y-87577482D01*
X55243617Y-87448164D01*
X55293130Y-87222735D01*
X54610000Y-86539605D01*
X54595858Y-86553748D01*
X54416253Y-86374143D01*
X54430395Y-86360000D01*
X54416253Y-86345858D01*
X54595858Y-86166253D01*
X54610000Y-86180395D01*
X54624143Y-86166253D01*
X54803748Y-86345858D01*
X54789605Y-86360000D01*
X55472735Y-87043130D01*
X55698164Y-86993617D01*
X55857807Y-86528964D01*
X55832340Y-86117142D01*
X58914407Y-89199209D01*
X58914407Y-89199209D01*
G37*
X58914407Y-89199209D02*
X58643629Y-89469515D01*
X58455215Y-89923266D01*
X58454786Y-90414579D01*
X58642408Y-90868657D01*
X58930000Y-91156752D01*
X58930000Y-91440000D01*
X58987852Y-91730839D01*
X59152599Y-91977401D01*
X60422599Y-93247401D01*
X60669160Y-93412148D01*
X60960000Y-93470000D01*
X65280000Y-93470000D01*
X65280000Y-98073644D01*
X65053248Y-98300000D01*
X62085467Y-98300000D01*
X62194785Y-98036734D01*
X62195140Y-97629662D01*
X64274680Y-95550122D01*
X64320167Y-95550162D01*
X64663943Y-95408117D01*
X64927192Y-95145327D01*
X65069838Y-94801799D01*
X65070162Y-94429833D01*
X64928117Y-94086057D01*
X64665327Y-93822808D01*
X64321799Y-93680162D01*
X63949833Y-93679838D01*
X63606057Y-93821883D01*
X63342808Y-94084673D01*
X63200162Y-94428201D01*
X63200121Y-94475077D01*
X62990000Y-94685198D01*
X62990000Y-94615000D01*
X62932148Y-94324161D01*
X62767401Y-94077599D01*
X62520839Y-93912852D01*
X62230000Y-93855000D01*
X56029248Y-93855000D01*
X56058601Y-93812040D01*
X56109610Y-93560150D01*
X56109610Y-91860890D01*
X56065332Y-91625573D01*
X55926260Y-91409449D01*
X55714060Y-91264459D01*
X55462170Y-91213450D01*
X53762910Y-91213450D01*
X53527593Y-91257728D01*
X53311469Y-91396800D01*
X53166479Y-91609000D01*
X53115470Y-91860890D01*
X53115470Y-93560150D01*
X53159748Y-93795467D01*
X53298820Y-94011591D01*
X53511020Y-94156581D01*
X53762910Y-94207590D01*
X53766768Y-94207590D01*
X53675162Y-94428201D01*
X53675090Y-94510288D01*
X52195000Y-93030198D01*
X52195000Y-89214802D01*
X52705876Y-88703926D01*
X53093266Y-88864785D01*
X53375030Y-88865031D01*
X53374786Y-89144579D01*
X53562408Y-89598657D01*
X53909515Y-89946371D01*
X54363266Y-90134785D01*
X54854579Y-90135214D01*
X55308657Y-89947592D01*
X55656371Y-89600485D01*
X55844785Y-89146734D01*
X55845214Y-88655421D01*
X55657592Y-88201343D01*
X55310485Y-87853629D01*
X54856734Y-87665215D01*
X54574970Y-87664969D01*
X54575027Y-87599521D01*
X54931413Y-87577482D01*
X55243617Y-87448164D01*
X55293130Y-87222735D01*
X54610000Y-86539605D01*
X54595858Y-86553748D01*
X54416253Y-86374143D01*
X54430395Y-86360000D01*
X54416253Y-86345858D01*
X54595858Y-86166253D01*
X54610000Y-86180395D01*
X54624143Y-86166253D01*
X54803748Y-86345858D01*
X54789605Y-86360000D01*
X55472735Y-87043130D01*
X55698164Y-86993617D01*
X55857807Y-86528964D01*
X55832340Y-86117142D01*
X58914407Y-89199209D01*
M02*
