G04 #@! TF.FileFunction,Legend,Bot*
%FSLAX46Y46*%
G04 Gerber Fmt 4.6, Leading zero omitted, Abs format (unit mm)*
G04 Created by KiCad (PCBNEW 4.0.4+e1-6308~48~ubuntu16.04.1-stable) date Mon Oct 24 15:05:17 2016*
%MOMM*%
%LPD*%
G01*
G04 APERTURE LIST*
%ADD10C,0.100000*%
%ADD11C,0.300000*%
G04 APERTURE END LIST*
D10*
D11*
X82379429Y-109032570D02*
X83879429Y-109032570D01*
X83879429Y-108675427D01*
X83808000Y-108461142D01*
X83665143Y-108318284D01*
X83522286Y-108246856D01*
X83236571Y-108175427D01*
X83022286Y-108175427D01*
X82736571Y-108246856D01*
X82593714Y-108318284D01*
X82450857Y-108461142D01*
X82379429Y-108675427D01*
X82379429Y-109032570D01*
X83165143Y-107032570D02*
X83093714Y-106818284D01*
X83022286Y-106746856D01*
X82879429Y-106675427D01*
X82665143Y-106675427D01*
X82522286Y-106746856D01*
X82450857Y-106818284D01*
X82379429Y-106961142D01*
X82379429Y-107532570D01*
X83879429Y-107532570D01*
X83879429Y-107032570D01*
X83808000Y-106889713D01*
X83736571Y-106818284D01*
X83593714Y-106746856D01*
X83450857Y-106746856D01*
X83308000Y-106818284D01*
X83236571Y-106889713D01*
X83165143Y-107032570D01*
X83165143Y-107532570D01*
X82236571Y-106389713D02*
X82236571Y-105246856D01*
X82379429Y-104889713D02*
X83879429Y-104889713D01*
X83879429Y-104318285D01*
X83808000Y-104175427D01*
X83736571Y-104103999D01*
X83593714Y-104032570D01*
X83379429Y-104032570D01*
X83236571Y-104103999D01*
X83165143Y-104175427D01*
X83093714Y-104318285D01*
X83093714Y-104889713D01*
X83379429Y-102746856D02*
X82379429Y-102746856D01*
X83379429Y-103389713D02*
X82593714Y-103389713D01*
X82450857Y-103318285D01*
X82379429Y-103175427D01*
X82379429Y-102961142D01*
X82450857Y-102818285D01*
X82522286Y-102746856D01*
X82379429Y-101818284D02*
X82450857Y-101961142D01*
X82593714Y-102032570D01*
X83879429Y-102032570D01*
X82450857Y-101318285D02*
X82379429Y-101175428D01*
X82379429Y-100889713D01*
X82450857Y-100746856D01*
X82593714Y-100675428D01*
X82665143Y-100675428D01*
X82808000Y-100746856D01*
X82879429Y-100889713D01*
X82879429Y-101103999D01*
X82950857Y-101246856D01*
X83093714Y-101318285D01*
X83165143Y-101318285D01*
X83308000Y-101246856D01*
X83379429Y-101103999D01*
X83379429Y-100889713D01*
X83308000Y-100746856D01*
X82450857Y-99461142D02*
X82379429Y-99603999D01*
X82379429Y-99889713D01*
X82450857Y-100032570D01*
X82593714Y-100103999D01*
X83165143Y-100103999D01*
X83308000Y-100032570D01*
X83379429Y-99889713D01*
X83379429Y-99603999D01*
X83308000Y-99461142D01*
X83165143Y-99389713D01*
X83022286Y-99389713D01*
X82879429Y-100103999D01*
X82379429Y-98746856D02*
X83379429Y-98746856D01*
X83093714Y-98746856D02*
X83236571Y-98675428D01*
X83308000Y-98603999D01*
X83379429Y-98461142D01*
X83379429Y-98318285D01*
X82236571Y-98175428D02*
X82236571Y-97032571D01*
X83879429Y-96889714D02*
X82379429Y-96389714D01*
X83879429Y-95889714D01*
X82379429Y-94604000D02*
X82379429Y-95461143D01*
X82379429Y-95032571D02*
X83879429Y-95032571D01*
X83665143Y-95175428D01*
X83522286Y-95318286D01*
X83450857Y-95461143D01*
M02*
