G04 #@! TF.FileFunction,Legend,Bot*
%FSLAX46Y46*%
G04 Gerber Fmt 4.6, Leading zero omitted, Abs format (unit mm)*
G04 Created by KiCad (PCBNEW 4.0.3+e1-6302~38~ubuntu16.04.1-stable) date Thu Aug 25 17:11:50 2016*
%MOMM*%
%LPD*%
G01*
G04 APERTURE LIST*
%ADD10C,0.100000*%
%ADD11C,0.300000*%
G04 APERTURE END LIST*
D10*
D11*
X74338571Y-77582859D02*
X72838571Y-77582859D01*
X72838571Y-77940002D01*
X72910000Y-78154287D01*
X73052857Y-78297145D01*
X73195714Y-78368573D01*
X73481429Y-78440002D01*
X73695714Y-78440002D01*
X73981429Y-78368573D01*
X74124286Y-78297145D01*
X74267143Y-78154287D01*
X74338571Y-77940002D01*
X74338571Y-77582859D01*
X73552857Y-79582859D02*
X73624286Y-79797145D01*
X73695714Y-79868573D01*
X73838571Y-79940002D01*
X74052857Y-79940002D01*
X74195714Y-79868573D01*
X74267143Y-79797145D01*
X74338571Y-79654287D01*
X74338571Y-79082859D01*
X72838571Y-79082859D01*
X72838571Y-79582859D01*
X72910000Y-79725716D01*
X72981429Y-79797145D01*
X73124286Y-79868573D01*
X73267143Y-79868573D01*
X73410000Y-79797145D01*
X73481429Y-79725716D01*
X73552857Y-79582859D01*
X73552857Y-79082859D01*
X74481429Y-80225716D02*
X74481429Y-81368573D01*
X73552857Y-81725716D02*
X73552857Y-82225716D01*
X74338571Y-82440002D02*
X74338571Y-81725716D01*
X72838571Y-81725716D01*
X72838571Y-82440002D01*
X73338571Y-83082859D02*
X74338571Y-83082859D01*
X73481429Y-83082859D02*
X73410000Y-83154287D01*
X73338571Y-83297145D01*
X73338571Y-83511430D01*
X73410000Y-83654287D01*
X73552857Y-83725716D01*
X74338571Y-83725716D01*
X73338571Y-84297145D02*
X74338571Y-84654288D01*
X73338571Y-85011430D01*
X74267143Y-86154287D02*
X74338571Y-86011430D01*
X74338571Y-85725716D01*
X74267143Y-85582859D01*
X74124286Y-85511430D01*
X73552857Y-85511430D01*
X73410000Y-85582859D01*
X73338571Y-85725716D01*
X73338571Y-86011430D01*
X73410000Y-86154287D01*
X73552857Y-86225716D01*
X73695714Y-86225716D01*
X73838571Y-85511430D01*
X74338571Y-87082859D02*
X74267143Y-86940001D01*
X74124286Y-86868573D01*
X72838571Y-86868573D01*
X74338571Y-87868573D02*
X74267143Y-87725715D01*
X74195714Y-87654287D01*
X74052857Y-87582858D01*
X73624286Y-87582858D01*
X73481429Y-87654287D01*
X73410000Y-87725715D01*
X73338571Y-87868573D01*
X73338571Y-88082858D01*
X73410000Y-88225715D01*
X73481429Y-88297144D01*
X73624286Y-88368573D01*
X74052857Y-88368573D01*
X74195714Y-88297144D01*
X74267143Y-88225715D01*
X74338571Y-88082858D01*
X74338571Y-87868573D01*
X73338571Y-89011430D02*
X74838571Y-89011430D01*
X73410000Y-89011430D02*
X73338571Y-89154287D01*
X73338571Y-89440001D01*
X73410000Y-89582858D01*
X73481429Y-89654287D01*
X73624286Y-89725716D01*
X74052857Y-89725716D01*
X74195714Y-89654287D01*
X74267143Y-89582858D01*
X74338571Y-89440001D01*
X74338571Y-89154287D01*
X74267143Y-89011430D01*
X74267143Y-90940001D02*
X74338571Y-90797144D01*
X74338571Y-90511430D01*
X74267143Y-90368573D01*
X74124286Y-90297144D01*
X73552857Y-90297144D01*
X73410000Y-90368573D01*
X73338571Y-90511430D01*
X73338571Y-90797144D01*
X73410000Y-90940001D01*
X73552857Y-91011430D01*
X73695714Y-91011430D01*
X73838571Y-90297144D01*
X74481429Y-91297144D02*
X74481429Y-92440001D01*
X74338571Y-92797144D02*
X72838571Y-92797144D01*
X72838571Y-93154287D01*
X72910000Y-93368572D01*
X73052857Y-93511430D01*
X73195714Y-93582858D01*
X73481429Y-93654287D01*
X73695714Y-93654287D01*
X73981429Y-93582858D01*
X74124286Y-93511430D01*
X74267143Y-93368572D01*
X74338571Y-93154287D01*
X74338571Y-92797144D01*
X74267143Y-94868572D02*
X74338571Y-94725715D01*
X74338571Y-94440001D01*
X74267143Y-94297144D01*
X74124286Y-94225715D01*
X73552857Y-94225715D01*
X73410000Y-94297144D01*
X73338571Y-94440001D01*
X73338571Y-94725715D01*
X73410000Y-94868572D01*
X73552857Y-94940001D01*
X73695714Y-94940001D01*
X73838571Y-94225715D01*
X73338571Y-95368572D02*
X73338571Y-95940001D01*
X72838571Y-95582858D02*
X74124286Y-95582858D01*
X74267143Y-95654286D01*
X74338571Y-95797144D01*
X74338571Y-95940001D01*
X74267143Y-97011429D02*
X74338571Y-96868572D01*
X74338571Y-96582858D01*
X74267143Y-96440001D01*
X74124286Y-96368572D01*
X73552857Y-96368572D01*
X73410000Y-96440001D01*
X73338571Y-96582858D01*
X73338571Y-96868572D01*
X73410000Y-97011429D01*
X73552857Y-97082858D01*
X73695714Y-97082858D01*
X73838571Y-96368572D01*
X74267143Y-98368572D02*
X74338571Y-98225715D01*
X74338571Y-97940001D01*
X74267143Y-97797143D01*
X74195714Y-97725715D01*
X74052857Y-97654286D01*
X73624286Y-97654286D01*
X73481429Y-97725715D01*
X73410000Y-97797143D01*
X73338571Y-97940001D01*
X73338571Y-98225715D01*
X73410000Y-98368572D01*
X73338571Y-98797143D02*
X73338571Y-99368572D01*
X72838571Y-99011429D02*
X74124286Y-99011429D01*
X74267143Y-99082857D01*
X74338571Y-99225715D01*
X74338571Y-99368572D01*
X74338571Y-100082858D02*
X74267143Y-99940000D01*
X74195714Y-99868572D01*
X74052857Y-99797143D01*
X73624286Y-99797143D01*
X73481429Y-99868572D01*
X73410000Y-99940000D01*
X73338571Y-100082858D01*
X73338571Y-100297143D01*
X73410000Y-100440000D01*
X73481429Y-100511429D01*
X73624286Y-100582858D01*
X74052857Y-100582858D01*
X74195714Y-100511429D01*
X74267143Y-100440000D01*
X74338571Y-100297143D01*
X74338571Y-100082858D01*
X74338571Y-101225715D02*
X73338571Y-101225715D01*
X73624286Y-101225715D02*
X73481429Y-101297143D01*
X73410000Y-101368572D01*
X73338571Y-101511429D01*
X73338571Y-101654286D01*
X74481429Y-101797143D02*
X74481429Y-102940000D01*
X72838571Y-103082857D02*
X74338571Y-103582857D01*
X72838571Y-104082857D01*
X72981429Y-104511428D02*
X72910000Y-104582857D01*
X72838571Y-104725714D01*
X72838571Y-105082857D01*
X72910000Y-105225714D01*
X72981429Y-105297143D01*
X73124286Y-105368571D01*
X73267143Y-105368571D01*
X73481429Y-105297143D01*
X74338571Y-104440000D01*
X74338571Y-105368571D01*
M02*
