%FSLAX45Y45*%
G04 Gerber Fmt 4.5, Leading zero omitted, Abs format (unit mm)*
G04 Created by KiCad (PCBNEW 4.0.3+e1-6302~38~ubuntu16.04.1-stable) date Thu Aug 25 11:34:35 2016*
%MOMM*%
%LPD*%
G01*
G04 APERTURE LIST*
%ADD10C,0.127000*%
%ADD11C,0.150000*%
%ADD12C,0.200000*%
%ADD13C,0.300000*%
G04 APERTURE END LIST*
D10*
D11*
X8890000Y-6604000D02*
X5842000Y-6604000D01*
X8890000Y-11811000D02*
X8890000Y-6604000D01*
X5842000Y-11811000D02*
X8890000Y-11811000D01*
X5842000Y-6604000D02*
X5842000Y-11811000D01*
D12*
X6945000Y-8977000D02*
X7025000Y-9057000D01*
X7025000Y-8977000D02*
X6945000Y-9057000D01*
X7072000Y-9104000D02*
X7152000Y-9184000D01*
X7152000Y-9104000D02*
X7072000Y-9184000D01*
X7199000Y-8977000D02*
X7279000Y-9057000D01*
X7279000Y-8977000D02*
X7199000Y-9057000D01*
X7580000Y-8088000D02*
X7660000Y-8168000D01*
X7660000Y-8088000D02*
X7580000Y-8168000D01*
X7707000Y-7961000D02*
X7787000Y-8041000D01*
X7787000Y-7961000D02*
X7707000Y-8041000D01*
X7707000Y-9866000D02*
X7787000Y-9946000D01*
X7787000Y-9866000D02*
X7707000Y-9946000D01*
X7834000Y-8088000D02*
X7914000Y-8168000D01*
X7914000Y-8088000D02*
X7834000Y-8168000D01*
X7834000Y-9739000D02*
X7914000Y-9819000D01*
X7914000Y-9739000D02*
X7834000Y-9819000D01*
X7834000Y-9993000D02*
X7914000Y-10073000D01*
X7914000Y-9993000D02*
X7834000Y-10073000D01*
X6649000Y-10803000D02*
G75*
G03X6649000Y-10803000I-45000J0D01*
G01*
X6649000Y-11303000D02*
G75*
G03X6649000Y-11303000I-45000J0D01*
G01*
X7665000Y-7366000D02*
G75*
G03X7665000Y-7366000I-45000J0D01*
G01*
X7673000Y-9144000D02*
G75*
G03X7673000Y-9144000I-45000J0D01*
G01*
X8165000Y-7366000D02*
G75*
G03X8165000Y-7366000I-45000J0D01*
G01*
X8173000Y-9144000D02*
G75*
G03X8173000Y-9144000I-45000J0D01*
G01*
X6604000Y-7188962D02*
X6604000Y-7289038D01*
X6553962Y-7239000D02*
X6654038Y-7239000D01*
X6604000Y-8204962D02*
X6604000Y-8305038D01*
X6553962Y-8255000D02*
X6654038Y-8255000D01*
X6604000Y-8585962D02*
X6604000Y-8686038D01*
X6553962Y-8636000D02*
X6654038Y-8636000D01*
X6604000Y-9601962D02*
X6604000Y-9702038D01*
X6553962Y-9652000D02*
X6654038Y-9652000D01*
X7112000Y-7188962D02*
X7112000Y-7289038D01*
X7061962Y-7239000D02*
X7162038Y-7239000D01*
X7112000Y-8204962D02*
X7112000Y-8305038D01*
X7061962Y-8255000D02*
X7162038Y-8255000D01*
X7239000Y-10109962D02*
X7239000Y-10210038D01*
X7188962Y-10160000D02*
X7289038Y-10160000D01*
X7239000Y-11125962D02*
X7239000Y-11226038D01*
X7188962Y-11176000D02*
X7289038Y-11176000D01*
X6131921Y-7020921D02*
X6131921Y-6949079D01*
X6060079Y-6949079D01*
X6060079Y-7020921D01*
X6131921Y-7020921D01*
X6131921Y-7274921D02*
X6131921Y-7203079D01*
X6060079Y-7203079D01*
X6060079Y-7274921D01*
X6131921Y-7274921D01*
X6131921Y-7528921D02*
X6131921Y-7457079D01*
X6060079Y-7457079D01*
X6060079Y-7528921D01*
X6131921Y-7528921D01*
X6131921Y-7782921D02*
X6131921Y-7711079D01*
X6060079Y-7711079D01*
X6060079Y-7782921D01*
X6131921Y-7782921D01*
X6131921Y-8036921D02*
X6131921Y-7965079D01*
X6060079Y-7965079D01*
X6060079Y-8036921D01*
X6131921Y-8036921D01*
X6131921Y-8290921D02*
X6131921Y-8219079D01*
X6060079Y-8219079D01*
X6060079Y-8290921D01*
X6131921Y-8290921D01*
X6131921Y-8544921D02*
X6131921Y-8473079D01*
X6060079Y-8473079D01*
X6060079Y-8544921D01*
X6131921Y-8544921D01*
X6131921Y-8798921D02*
X6131921Y-8727079D01*
X6060079Y-8727079D01*
X6060079Y-8798921D01*
X6131921Y-8798921D01*
X6131921Y-9052921D02*
X6131921Y-8981079D01*
X6060079Y-8981079D01*
X6060079Y-9052921D01*
X6131921Y-9052921D01*
X6131921Y-9306921D02*
X6131921Y-9235079D01*
X6060079Y-9235079D01*
X6060079Y-9306921D01*
X6131921Y-9306921D01*
X6131921Y-9560921D02*
X6131921Y-9489079D01*
X6060079Y-9489079D01*
X6060079Y-9560921D01*
X6131921Y-9560921D01*
X6131921Y-9814921D02*
X6131921Y-9743079D01*
X6060079Y-9743079D01*
X6060079Y-9814921D01*
X6131921Y-9814921D01*
X6131921Y-10068921D02*
X6131921Y-9997079D01*
X6060079Y-9997079D01*
X6060079Y-10068921D01*
X6131921Y-10068921D01*
X6131921Y-10322921D02*
X6131921Y-10251079D01*
X6060079Y-10251079D01*
X6060079Y-10322921D01*
X6131921Y-10322921D01*
X6131921Y-10576921D02*
X6131921Y-10505079D01*
X6060079Y-10505079D01*
X6060079Y-10576921D01*
X6131921Y-10576921D01*
X6131921Y-10830921D02*
X6131921Y-10759079D01*
X6060079Y-10759079D01*
X6060079Y-10830921D01*
X6131921Y-10830921D01*
X6131921Y-11084921D02*
X6131921Y-11013079D01*
X6060079Y-11013079D01*
X6060079Y-11084921D01*
X6131921Y-11084921D01*
X6131921Y-11338921D02*
X6131921Y-11267079D01*
X6060079Y-11267079D01*
X6060079Y-11338921D01*
X6131921Y-11338921D01*
X6131921Y-11592921D02*
X6131921Y-11521079D01*
X6060079Y-11521079D01*
X6060079Y-11592921D01*
X6131921Y-11592921D01*
X8671921Y-7020921D02*
X8671921Y-6949079D01*
X8600079Y-6949079D01*
X8600079Y-7020921D01*
X8671921Y-7020921D01*
X8671921Y-7274921D02*
X8671921Y-7203079D01*
X8600079Y-7203079D01*
X8600079Y-7274921D01*
X8671921Y-7274921D01*
X8671921Y-7528921D02*
X8671921Y-7457079D01*
X8600079Y-7457079D01*
X8600079Y-7528921D01*
X8671921Y-7528921D01*
X8671921Y-7782921D02*
X8671921Y-7711079D01*
X8600079Y-7711079D01*
X8600079Y-7782921D01*
X8671921Y-7782921D01*
X8671921Y-8036921D02*
X8671921Y-7965079D01*
X8600079Y-7965079D01*
X8600079Y-8036921D01*
X8671921Y-8036921D01*
X8671921Y-8290921D02*
X8671921Y-8219079D01*
X8600079Y-8219079D01*
X8600079Y-8290921D01*
X8671921Y-8290921D01*
X8671921Y-8544921D02*
X8671921Y-8473079D01*
X8600079Y-8473079D01*
X8600079Y-8544921D01*
X8671921Y-8544921D01*
X8671921Y-8798921D02*
X8671921Y-8727079D01*
X8600079Y-8727079D01*
X8600079Y-8798921D01*
X8671921Y-8798921D01*
X8671921Y-9052921D02*
X8671921Y-8981079D01*
X8600079Y-8981079D01*
X8600079Y-9052921D01*
X8671921Y-9052921D01*
X8671921Y-9306921D02*
X8671921Y-9235079D01*
X8600079Y-9235079D01*
X8600079Y-9306921D01*
X8671921Y-9306921D01*
X8671921Y-9560921D02*
X8671921Y-9489079D01*
X8600079Y-9489079D01*
X8600079Y-9560921D01*
X8671921Y-9560921D01*
X8671921Y-9814921D02*
X8671921Y-9743079D01*
X8600079Y-9743079D01*
X8600079Y-9814921D01*
X8671921Y-9814921D01*
X8671921Y-10068921D02*
X8671921Y-9997079D01*
X8600079Y-9997079D01*
X8600079Y-10068921D01*
X8671921Y-10068921D01*
X8671921Y-10322921D02*
X8671921Y-10251079D01*
X8600079Y-10251079D01*
X8600079Y-10322921D01*
X8671921Y-10322921D01*
X8671921Y-10576921D02*
X8671921Y-10505079D01*
X8600079Y-10505079D01*
X8600079Y-10576921D01*
X8671921Y-10576921D01*
X8671921Y-10830921D02*
X8671921Y-10759079D01*
X8600079Y-10759079D01*
X8600079Y-10830921D01*
X8671921Y-10830921D01*
X8671921Y-11084921D02*
X8671921Y-11013079D01*
X8600079Y-11013079D01*
X8600079Y-11084921D01*
X8671921Y-11084921D01*
X8671921Y-11338921D02*
X8671921Y-11267079D01*
X8600079Y-11267079D01*
X8600079Y-11338921D01*
X8671921Y-11338921D01*
X8671921Y-11592921D02*
X8671921Y-11521079D01*
X8600079Y-11521079D01*
X8600079Y-11592921D01*
X8671921Y-11592921D01*
D13*
X6105928Y-12284214D02*
X6105928Y-11984214D01*
X6177357Y-11984214D01*
X6220214Y-11998500D01*
X6248786Y-12027071D01*
X6263071Y-12055643D01*
X6277357Y-12112786D01*
X6277357Y-12155643D01*
X6263071Y-12212786D01*
X6248786Y-12241357D01*
X6220214Y-12269929D01*
X6177357Y-12284214D01*
X6105928Y-12284214D01*
X6405928Y-12284214D02*
X6405928Y-12084214D01*
X6405928Y-12141357D02*
X6420214Y-12112786D01*
X6434500Y-12098500D01*
X6463071Y-12084214D01*
X6491643Y-12084214D01*
X6591643Y-12284214D02*
X6591643Y-12084214D01*
X6591643Y-11984214D02*
X6577357Y-11998500D01*
X6591643Y-12012786D01*
X6605928Y-11998500D01*
X6591643Y-11984214D01*
X6591643Y-12012786D01*
X6777357Y-12284214D02*
X6748786Y-12269929D01*
X6734500Y-12241357D01*
X6734500Y-11984214D01*
X6934500Y-12284214D02*
X6905928Y-12269929D01*
X6891643Y-12241357D01*
X6891643Y-11984214D01*
X7277357Y-12284214D02*
X7277357Y-11984214D01*
X7377357Y-12198500D01*
X7477357Y-11984214D01*
X7477357Y-12284214D01*
X7748786Y-12284214D02*
X7748786Y-12127071D01*
X7734500Y-12098500D01*
X7705928Y-12084214D01*
X7648786Y-12084214D01*
X7620214Y-12098500D01*
X7748786Y-12269929D02*
X7720214Y-12284214D01*
X7648786Y-12284214D01*
X7620214Y-12269929D01*
X7605928Y-12241357D01*
X7605928Y-12212786D01*
X7620214Y-12184214D01*
X7648786Y-12169929D01*
X7720214Y-12169929D01*
X7748786Y-12155643D01*
X7891643Y-12084214D02*
X7891643Y-12384214D01*
X7891643Y-12098500D02*
X7920214Y-12084214D01*
X7977357Y-12084214D01*
X8005928Y-12098500D01*
X8020214Y-12112786D01*
X8034500Y-12141357D01*
X8034500Y-12227071D01*
X8020214Y-12255643D01*
X8005928Y-12269929D01*
X7977357Y-12284214D01*
X7920214Y-12284214D01*
X7891643Y-12269929D01*
X8163071Y-12255643D02*
X8177357Y-12269929D01*
X8163071Y-12284214D01*
X8148786Y-12269929D01*
X8163071Y-12255643D01*
X8163071Y-12284214D01*
X8163071Y-12098500D02*
X8177357Y-12112786D01*
X8163071Y-12127071D01*
X8148786Y-12112786D01*
X8163071Y-12098500D01*
X8163071Y-12127071D01*
X5754500Y-12738500D02*
X5834500Y-12818500D01*
X5834500Y-12738500D02*
X5754500Y-12818500D01*
X6163071Y-12614214D02*
X6191643Y-12614214D01*
X6220214Y-12628500D01*
X6234500Y-12642786D01*
X6248786Y-12671357D01*
X6263071Y-12728500D01*
X6263071Y-12799929D01*
X6248786Y-12857071D01*
X6234500Y-12885643D01*
X6220214Y-12899929D01*
X6191643Y-12914214D01*
X6163071Y-12914214D01*
X6134500Y-12899929D01*
X6120214Y-12885643D01*
X6105928Y-12857071D01*
X6091643Y-12799929D01*
X6091643Y-12728500D01*
X6105928Y-12671357D01*
X6120214Y-12642786D01*
X6134500Y-12628500D01*
X6163071Y-12614214D01*
X6391643Y-12885643D02*
X6405928Y-12899929D01*
X6391643Y-12914214D01*
X6377357Y-12899929D01*
X6391643Y-12885643D01*
X6391643Y-12914214D01*
X6577357Y-12742786D02*
X6548786Y-12728500D01*
X6534500Y-12714214D01*
X6520214Y-12685643D01*
X6520214Y-12671357D01*
X6534500Y-12642786D01*
X6548786Y-12628500D01*
X6577357Y-12614214D01*
X6634500Y-12614214D01*
X6663071Y-12628500D01*
X6677357Y-12642786D01*
X6691643Y-12671357D01*
X6691643Y-12685643D01*
X6677357Y-12714214D01*
X6663071Y-12728500D01*
X6634500Y-12742786D01*
X6577357Y-12742786D01*
X6548786Y-12757071D01*
X6534500Y-12771357D01*
X6520214Y-12799929D01*
X6520214Y-12857071D01*
X6534500Y-12885643D01*
X6548786Y-12899929D01*
X6577357Y-12914214D01*
X6634500Y-12914214D01*
X6663071Y-12899929D01*
X6677357Y-12885643D01*
X6691643Y-12857071D01*
X6691643Y-12799929D01*
X6677357Y-12771357D01*
X6663071Y-12757071D01*
X6634500Y-12742786D01*
X6877357Y-12614214D02*
X6905928Y-12614214D01*
X6934500Y-12628500D01*
X6948786Y-12642786D01*
X6963071Y-12671357D01*
X6977357Y-12728500D01*
X6977357Y-12799929D01*
X6963071Y-12857071D01*
X6948786Y-12885643D01*
X6934500Y-12899929D01*
X6905928Y-12914214D01*
X6877357Y-12914214D01*
X6848786Y-12899929D01*
X6834500Y-12885643D01*
X6820214Y-12857071D01*
X6805928Y-12799929D01*
X6805928Y-12728500D01*
X6820214Y-12671357D01*
X6834500Y-12642786D01*
X6848786Y-12628500D01*
X6877357Y-12614214D01*
X7105928Y-12914214D02*
X7105928Y-12714214D01*
X7105928Y-12742786D02*
X7120214Y-12728500D01*
X7148786Y-12714214D01*
X7191643Y-12714214D01*
X7220214Y-12728500D01*
X7234500Y-12757071D01*
X7234500Y-12914214D01*
X7234500Y-12757071D02*
X7248786Y-12728500D01*
X7277357Y-12714214D01*
X7320214Y-12714214D01*
X7348786Y-12728500D01*
X7363071Y-12757071D01*
X7363071Y-12914214D01*
X7505928Y-12914214D02*
X7505928Y-12714214D01*
X7505928Y-12742786D02*
X7520214Y-12728500D01*
X7548786Y-12714214D01*
X7591643Y-12714214D01*
X7620214Y-12728500D01*
X7634500Y-12757071D01*
X7634500Y-12914214D01*
X7634500Y-12757071D02*
X7648786Y-12728500D01*
X7677357Y-12714214D01*
X7720214Y-12714214D01*
X7748786Y-12728500D01*
X7763071Y-12757071D01*
X7763071Y-12914214D01*
X8348786Y-12599929D02*
X8091643Y-12985643D01*
X8734500Y-12614214D02*
X8763071Y-12614214D01*
X8791643Y-12628500D01*
X8805928Y-12642786D01*
X8820214Y-12671357D01*
X8834500Y-12728500D01*
X8834500Y-12799929D01*
X8820214Y-12857071D01*
X8805928Y-12885643D01*
X8791643Y-12899929D01*
X8763071Y-12914214D01*
X8734500Y-12914214D01*
X8705928Y-12899929D01*
X8691643Y-12885643D01*
X8677357Y-12857071D01*
X8663071Y-12799929D01*
X8663071Y-12728500D01*
X8677357Y-12671357D01*
X8691643Y-12642786D01*
X8705928Y-12628500D01*
X8734500Y-12614214D01*
X8963071Y-12885643D02*
X8977357Y-12899929D01*
X8963071Y-12914214D01*
X8948786Y-12899929D01*
X8963071Y-12885643D01*
X8963071Y-12914214D01*
X9163071Y-12614214D02*
X9191643Y-12614214D01*
X9220214Y-12628500D01*
X9234500Y-12642786D01*
X9248786Y-12671357D01*
X9263071Y-12728500D01*
X9263071Y-12799929D01*
X9248786Y-12857071D01*
X9234500Y-12885643D01*
X9220214Y-12899929D01*
X9191643Y-12914214D01*
X9163071Y-12914214D01*
X9134500Y-12899929D01*
X9120214Y-12885643D01*
X9105928Y-12857071D01*
X9091643Y-12799929D01*
X9091643Y-12728500D01*
X9105928Y-12671357D01*
X9120214Y-12642786D01*
X9134500Y-12628500D01*
X9163071Y-12614214D01*
X9363071Y-12614214D02*
X9548786Y-12614214D01*
X9448786Y-12728500D01*
X9491643Y-12728500D01*
X9520214Y-12742786D01*
X9534500Y-12757071D01*
X9548786Y-12785643D01*
X9548786Y-12857071D01*
X9534500Y-12885643D01*
X9520214Y-12899929D01*
X9491643Y-12914214D01*
X9405928Y-12914214D01*
X9377357Y-12899929D01*
X9363071Y-12885643D01*
X9834500Y-12914214D02*
X9663071Y-12914214D01*
X9748786Y-12914214D02*
X9748786Y-12614214D01*
X9720214Y-12657071D01*
X9691643Y-12685643D01*
X9663071Y-12699929D01*
X9948786Y-12614214D02*
X9948786Y-12671357D01*
X10063071Y-12614214D02*
X10063071Y-12671357D01*
X10505928Y-13028500D02*
X10491643Y-13014214D01*
X10463071Y-12971357D01*
X10448786Y-12942786D01*
X10434500Y-12899929D01*
X10420214Y-12828500D01*
X10420214Y-12771357D01*
X10434500Y-12699929D01*
X10448786Y-12657071D01*
X10463071Y-12628500D01*
X10491643Y-12585643D01*
X10505928Y-12571357D01*
X10634500Y-12914214D02*
X10691643Y-12914214D01*
X10720214Y-12899929D01*
X10734500Y-12885643D01*
X10763071Y-12842786D01*
X10777357Y-12785643D01*
X10777357Y-12671357D01*
X10763071Y-12642786D01*
X10748786Y-12628500D01*
X10720214Y-12614214D01*
X10663071Y-12614214D01*
X10634500Y-12628500D01*
X10620214Y-12642786D01*
X10605928Y-12671357D01*
X10605928Y-12742786D01*
X10620214Y-12771357D01*
X10634500Y-12785643D01*
X10663071Y-12799929D01*
X10720214Y-12799929D01*
X10748786Y-12785643D01*
X10763071Y-12771357D01*
X10777357Y-12742786D01*
X11134500Y-12914214D02*
X11134500Y-12614214D01*
X11263071Y-12914214D02*
X11263071Y-12757071D01*
X11248785Y-12728500D01*
X11220214Y-12714214D01*
X11177357Y-12714214D01*
X11148786Y-12728500D01*
X11134500Y-12742786D01*
X11448785Y-12914214D02*
X11420214Y-12899929D01*
X11405928Y-12885643D01*
X11391643Y-12857071D01*
X11391643Y-12771357D01*
X11405928Y-12742786D01*
X11420214Y-12728500D01*
X11448785Y-12714214D01*
X11491643Y-12714214D01*
X11520214Y-12728500D01*
X11534500Y-12742786D01*
X11548785Y-12771357D01*
X11548785Y-12857071D01*
X11534500Y-12885643D01*
X11520214Y-12899929D01*
X11491643Y-12914214D01*
X11448785Y-12914214D01*
X11720214Y-12914214D02*
X11691643Y-12899929D01*
X11677357Y-12871357D01*
X11677357Y-12614214D01*
X11948786Y-12899929D02*
X11920214Y-12914214D01*
X11863071Y-12914214D01*
X11834500Y-12899929D01*
X11820214Y-12871357D01*
X11820214Y-12757071D01*
X11834500Y-12728500D01*
X11863071Y-12714214D01*
X11920214Y-12714214D01*
X11948786Y-12728500D01*
X11963071Y-12757071D01*
X11963071Y-12785643D01*
X11820214Y-12814214D01*
X12077357Y-12899929D02*
X12105928Y-12914214D01*
X12163071Y-12914214D01*
X12191643Y-12899929D01*
X12205928Y-12871357D01*
X12205928Y-12857071D01*
X12191643Y-12828500D01*
X12163071Y-12814214D01*
X12120214Y-12814214D01*
X12091643Y-12799929D01*
X12077357Y-12771357D01*
X12077357Y-12757071D01*
X12091643Y-12728500D01*
X12120214Y-12714214D01*
X12163071Y-12714214D01*
X12191643Y-12728500D01*
X12305928Y-13028500D02*
X12320214Y-13014214D01*
X12348786Y-12971357D01*
X12363071Y-12942786D01*
X12377357Y-12899929D01*
X12391643Y-12828500D01*
X12391643Y-12771357D01*
X12377357Y-12699929D01*
X12363071Y-12657071D01*
X12348786Y-12628500D01*
X12320214Y-12585643D01*
X12305928Y-12571357D01*
X5834500Y-13174500D02*
G75*
G03X5834500Y-13174500I-45000J0D01*
G01*
X6163071Y-13010214D02*
X6191643Y-13010214D01*
X6220214Y-13024500D01*
X6234500Y-13038786D01*
X6248786Y-13067357D01*
X6263071Y-13124500D01*
X6263071Y-13195929D01*
X6248786Y-13253071D01*
X6234500Y-13281643D01*
X6220214Y-13295929D01*
X6191643Y-13310214D01*
X6163071Y-13310214D01*
X6134500Y-13295929D01*
X6120214Y-13281643D01*
X6105928Y-13253071D01*
X6091643Y-13195929D01*
X6091643Y-13124500D01*
X6105928Y-13067357D01*
X6120214Y-13038786D01*
X6134500Y-13024500D01*
X6163071Y-13010214D01*
X6391643Y-13281643D02*
X6405928Y-13295929D01*
X6391643Y-13310214D01*
X6377357Y-13295929D01*
X6391643Y-13281643D01*
X6391643Y-13310214D01*
X6548786Y-13310214D02*
X6605928Y-13310214D01*
X6634500Y-13295929D01*
X6648786Y-13281643D01*
X6677357Y-13238786D01*
X6691643Y-13181643D01*
X6691643Y-13067357D01*
X6677357Y-13038786D01*
X6663071Y-13024500D01*
X6634500Y-13010214D01*
X6577357Y-13010214D01*
X6548786Y-13024500D01*
X6534500Y-13038786D01*
X6520214Y-13067357D01*
X6520214Y-13138786D01*
X6534500Y-13167357D01*
X6548786Y-13181643D01*
X6577357Y-13195929D01*
X6634500Y-13195929D01*
X6663071Y-13181643D01*
X6677357Y-13167357D01*
X6691643Y-13138786D01*
X6877357Y-13010214D02*
X6905928Y-13010214D01*
X6934500Y-13024500D01*
X6948786Y-13038786D01*
X6963071Y-13067357D01*
X6977357Y-13124500D01*
X6977357Y-13195929D01*
X6963071Y-13253071D01*
X6948786Y-13281643D01*
X6934500Y-13295929D01*
X6905928Y-13310214D01*
X6877357Y-13310214D01*
X6848786Y-13295929D01*
X6834500Y-13281643D01*
X6820214Y-13253071D01*
X6805928Y-13195929D01*
X6805928Y-13124500D01*
X6820214Y-13067357D01*
X6834500Y-13038786D01*
X6848786Y-13024500D01*
X6877357Y-13010214D01*
X7105928Y-13310214D02*
X7105928Y-13110214D01*
X7105928Y-13138786D02*
X7120214Y-13124500D01*
X7148786Y-13110214D01*
X7191643Y-13110214D01*
X7220214Y-13124500D01*
X7234500Y-13153071D01*
X7234500Y-13310214D01*
X7234500Y-13153071D02*
X7248786Y-13124500D01*
X7277357Y-13110214D01*
X7320214Y-13110214D01*
X7348786Y-13124500D01*
X7363071Y-13153071D01*
X7363071Y-13310214D01*
X7505928Y-13310214D02*
X7505928Y-13110214D01*
X7505928Y-13138786D02*
X7520214Y-13124500D01*
X7548786Y-13110214D01*
X7591643Y-13110214D01*
X7620214Y-13124500D01*
X7634500Y-13153071D01*
X7634500Y-13310214D01*
X7634500Y-13153071D02*
X7648786Y-13124500D01*
X7677357Y-13110214D01*
X7720214Y-13110214D01*
X7748786Y-13124500D01*
X7763071Y-13153071D01*
X7763071Y-13310214D01*
X8348786Y-12995929D02*
X8091643Y-13381643D01*
X8734500Y-13010214D02*
X8763071Y-13010214D01*
X8791643Y-13024500D01*
X8805928Y-13038786D01*
X8820214Y-13067357D01*
X8834500Y-13124500D01*
X8834500Y-13195929D01*
X8820214Y-13253071D01*
X8805928Y-13281643D01*
X8791643Y-13295929D01*
X8763071Y-13310214D01*
X8734500Y-13310214D01*
X8705928Y-13295929D01*
X8691643Y-13281643D01*
X8677357Y-13253071D01*
X8663071Y-13195929D01*
X8663071Y-13124500D01*
X8677357Y-13067357D01*
X8691643Y-13038786D01*
X8705928Y-13024500D01*
X8734500Y-13010214D01*
X8963071Y-13281643D02*
X8977357Y-13295929D01*
X8963071Y-13310214D01*
X8948786Y-13295929D01*
X8963071Y-13281643D01*
X8963071Y-13310214D01*
X9163071Y-13010214D02*
X9191643Y-13010214D01*
X9220214Y-13024500D01*
X9234500Y-13038786D01*
X9248786Y-13067357D01*
X9263071Y-13124500D01*
X9263071Y-13195929D01*
X9248786Y-13253071D01*
X9234500Y-13281643D01*
X9220214Y-13295929D01*
X9191643Y-13310214D01*
X9163071Y-13310214D01*
X9134500Y-13295929D01*
X9120214Y-13281643D01*
X9105928Y-13253071D01*
X9091643Y-13195929D01*
X9091643Y-13124500D01*
X9105928Y-13067357D01*
X9120214Y-13038786D01*
X9134500Y-13024500D01*
X9163071Y-13010214D01*
X9363071Y-13010214D02*
X9548786Y-13010214D01*
X9448786Y-13124500D01*
X9491643Y-13124500D01*
X9520214Y-13138786D01*
X9534500Y-13153071D01*
X9548786Y-13181643D01*
X9548786Y-13253071D01*
X9534500Y-13281643D01*
X9520214Y-13295929D01*
X9491643Y-13310214D01*
X9405928Y-13310214D01*
X9377357Y-13295929D01*
X9363071Y-13281643D01*
X9820214Y-13010214D02*
X9677357Y-13010214D01*
X9663071Y-13153071D01*
X9677357Y-13138786D01*
X9705928Y-13124500D01*
X9777357Y-13124500D01*
X9805928Y-13138786D01*
X9820214Y-13153071D01*
X9834500Y-13181643D01*
X9834500Y-13253071D01*
X9820214Y-13281643D01*
X9805928Y-13295929D01*
X9777357Y-13310214D01*
X9705928Y-13310214D01*
X9677357Y-13295929D01*
X9663071Y-13281643D01*
X9948786Y-13010214D02*
X9948786Y-13067357D01*
X10063071Y-13010214D02*
X10063071Y-13067357D01*
X10505928Y-13424500D02*
X10491643Y-13410214D01*
X10463071Y-13367357D01*
X10448786Y-13338786D01*
X10434500Y-13295929D01*
X10420214Y-13224500D01*
X10420214Y-13167357D01*
X10434500Y-13095929D01*
X10448786Y-13053071D01*
X10463071Y-13024500D01*
X10491643Y-12981643D01*
X10505928Y-12967357D01*
X10748786Y-13010214D02*
X10691643Y-13010214D01*
X10663071Y-13024500D01*
X10648786Y-13038786D01*
X10620214Y-13081643D01*
X10605928Y-13138786D01*
X10605928Y-13253071D01*
X10620214Y-13281643D01*
X10634500Y-13295929D01*
X10663071Y-13310214D01*
X10720214Y-13310214D01*
X10748786Y-13295929D01*
X10763071Y-13281643D01*
X10777357Y-13253071D01*
X10777357Y-13181643D01*
X10763071Y-13153071D01*
X10748786Y-13138786D01*
X10720214Y-13124500D01*
X10663071Y-13124500D01*
X10634500Y-13138786D01*
X10620214Y-13153071D01*
X10605928Y-13181643D01*
X11134500Y-13310214D02*
X11134500Y-13010214D01*
X11263071Y-13310214D02*
X11263071Y-13153071D01*
X11248785Y-13124500D01*
X11220214Y-13110214D01*
X11177357Y-13110214D01*
X11148786Y-13124500D01*
X11134500Y-13138786D01*
X11448785Y-13310214D02*
X11420214Y-13295929D01*
X11405928Y-13281643D01*
X11391643Y-13253071D01*
X11391643Y-13167357D01*
X11405928Y-13138786D01*
X11420214Y-13124500D01*
X11448785Y-13110214D01*
X11491643Y-13110214D01*
X11520214Y-13124500D01*
X11534500Y-13138786D01*
X11548785Y-13167357D01*
X11548785Y-13253071D01*
X11534500Y-13281643D01*
X11520214Y-13295929D01*
X11491643Y-13310214D01*
X11448785Y-13310214D01*
X11720214Y-13310214D02*
X11691643Y-13295929D01*
X11677357Y-13267357D01*
X11677357Y-13010214D01*
X11948786Y-13295929D02*
X11920214Y-13310214D01*
X11863071Y-13310214D01*
X11834500Y-13295929D01*
X11820214Y-13267357D01*
X11820214Y-13153071D01*
X11834500Y-13124500D01*
X11863071Y-13110214D01*
X11920214Y-13110214D01*
X11948786Y-13124500D01*
X11963071Y-13153071D01*
X11963071Y-13181643D01*
X11820214Y-13210214D01*
X12077357Y-13295929D02*
X12105928Y-13310214D01*
X12163071Y-13310214D01*
X12191643Y-13295929D01*
X12205928Y-13267357D01*
X12205928Y-13253071D01*
X12191643Y-13224500D01*
X12163071Y-13210214D01*
X12120214Y-13210214D01*
X12091643Y-13195929D01*
X12077357Y-13167357D01*
X12077357Y-13153071D01*
X12091643Y-13124500D01*
X12120214Y-13110214D01*
X12163071Y-13110214D01*
X12191643Y-13124500D01*
X12305928Y-13424500D02*
X12320214Y-13410214D01*
X12348786Y-13367357D01*
X12363071Y-13338786D01*
X12377357Y-13295929D01*
X12391643Y-13224500D01*
X12391643Y-13167357D01*
X12377357Y-13095929D01*
X12363071Y-13053071D01*
X12348786Y-13024500D01*
X12320214Y-12981643D01*
X12305928Y-12967357D01*
X5784462Y-13520462D02*
X5784462Y-13620538D01*
X5734424Y-13570500D02*
X5834500Y-13570500D01*
X6263071Y-13706214D02*
X6091643Y-13706214D01*
X6177357Y-13706214D02*
X6177357Y-13406214D01*
X6148786Y-13449071D01*
X6120214Y-13477643D01*
X6091643Y-13491929D01*
X6391643Y-13677643D02*
X6405928Y-13691929D01*
X6391643Y-13706214D01*
X6377357Y-13691929D01*
X6391643Y-13677643D01*
X6391643Y-13706214D01*
X6591643Y-13406214D02*
X6620214Y-13406214D01*
X6648786Y-13420500D01*
X6663071Y-13434786D01*
X6677357Y-13463357D01*
X6691643Y-13520500D01*
X6691643Y-13591929D01*
X6677357Y-13649071D01*
X6663071Y-13677643D01*
X6648786Y-13691929D01*
X6620214Y-13706214D01*
X6591643Y-13706214D01*
X6563071Y-13691929D01*
X6548786Y-13677643D01*
X6534500Y-13649071D01*
X6520214Y-13591929D01*
X6520214Y-13520500D01*
X6534500Y-13463357D01*
X6548786Y-13434786D01*
X6563071Y-13420500D01*
X6591643Y-13406214D01*
X6877357Y-13406214D02*
X6905928Y-13406214D01*
X6934500Y-13420500D01*
X6948786Y-13434786D01*
X6963071Y-13463357D01*
X6977357Y-13520500D01*
X6977357Y-13591929D01*
X6963071Y-13649071D01*
X6948786Y-13677643D01*
X6934500Y-13691929D01*
X6905928Y-13706214D01*
X6877357Y-13706214D01*
X6848786Y-13691929D01*
X6834500Y-13677643D01*
X6820214Y-13649071D01*
X6805928Y-13591929D01*
X6805928Y-13520500D01*
X6820214Y-13463357D01*
X6834500Y-13434786D01*
X6848786Y-13420500D01*
X6877357Y-13406214D01*
X7105928Y-13706214D02*
X7105928Y-13506214D01*
X7105928Y-13534786D02*
X7120214Y-13520500D01*
X7148786Y-13506214D01*
X7191643Y-13506214D01*
X7220214Y-13520500D01*
X7234500Y-13549071D01*
X7234500Y-13706214D01*
X7234500Y-13549071D02*
X7248786Y-13520500D01*
X7277357Y-13506214D01*
X7320214Y-13506214D01*
X7348786Y-13520500D01*
X7363071Y-13549071D01*
X7363071Y-13706214D01*
X7505928Y-13706214D02*
X7505928Y-13506214D01*
X7505928Y-13534786D02*
X7520214Y-13520500D01*
X7548786Y-13506214D01*
X7591643Y-13506214D01*
X7620214Y-13520500D01*
X7634500Y-13549071D01*
X7634500Y-13706214D01*
X7634500Y-13549071D02*
X7648786Y-13520500D01*
X7677357Y-13506214D01*
X7720214Y-13506214D01*
X7748786Y-13520500D01*
X7763071Y-13549071D01*
X7763071Y-13706214D01*
X8348786Y-13391929D02*
X8091643Y-13777643D01*
X8734500Y-13406214D02*
X8763071Y-13406214D01*
X8791643Y-13420500D01*
X8805928Y-13434786D01*
X8820214Y-13463357D01*
X8834500Y-13520500D01*
X8834500Y-13591929D01*
X8820214Y-13649071D01*
X8805928Y-13677643D01*
X8791643Y-13691929D01*
X8763071Y-13706214D01*
X8734500Y-13706214D01*
X8705928Y-13691929D01*
X8691643Y-13677643D01*
X8677357Y-13649071D01*
X8663071Y-13591929D01*
X8663071Y-13520500D01*
X8677357Y-13463357D01*
X8691643Y-13434786D01*
X8705928Y-13420500D01*
X8734500Y-13406214D01*
X8963071Y-13677643D02*
X8977357Y-13691929D01*
X8963071Y-13706214D01*
X8948786Y-13691929D01*
X8963071Y-13677643D01*
X8963071Y-13706214D01*
X9163071Y-13406214D02*
X9191643Y-13406214D01*
X9220214Y-13420500D01*
X9234500Y-13434786D01*
X9248786Y-13463357D01*
X9263071Y-13520500D01*
X9263071Y-13591929D01*
X9248786Y-13649071D01*
X9234500Y-13677643D01*
X9220214Y-13691929D01*
X9191643Y-13706214D01*
X9163071Y-13706214D01*
X9134500Y-13691929D01*
X9120214Y-13677643D01*
X9105928Y-13649071D01*
X9091643Y-13591929D01*
X9091643Y-13520500D01*
X9105928Y-13463357D01*
X9120214Y-13434786D01*
X9134500Y-13420500D01*
X9163071Y-13406214D01*
X9363071Y-13406214D02*
X9548786Y-13406214D01*
X9448786Y-13520500D01*
X9491643Y-13520500D01*
X9520214Y-13534786D01*
X9534500Y-13549071D01*
X9548786Y-13577643D01*
X9548786Y-13649071D01*
X9534500Y-13677643D01*
X9520214Y-13691929D01*
X9491643Y-13706214D01*
X9405928Y-13706214D01*
X9377357Y-13691929D01*
X9363071Y-13677643D01*
X9691643Y-13706214D02*
X9748786Y-13706214D01*
X9777357Y-13691929D01*
X9791643Y-13677643D01*
X9820214Y-13634786D01*
X9834500Y-13577643D01*
X9834500Y-13463357D01*
X9820214Y-13434786D01*
X9805928Y-13420500D01*
X9777357Y-13406214D01*
X9720214Y-13406214D01*
X9691643Y-13420500D01*
X9677357Y-13434786D01*
X9663071Y-13463357D01*
X9663071Y-13534786D01*
X9677357Y-13563357D01*
X9691643Y-13577643D01*
X9720214Y-13591929D01*
X9777357Y-13591929D01*
X9805928Y-13577643D01*
X9820214Y-13563357D01*
X9834500Y-13534786D01*
X9948786Y-13406214D02*
X9948786Y-13463357D01*
X10063071Y-13406214D02*
X10063071Y-13463357D01*
X10505928Y-13820500D02*
X10491643Y-13806214D01*
X10463071Y-13763357D01*
X10448786Y-13734786D01*
X10434500Y-13691929D01*
X10420214Y-13620500D01*
X10420214Y-13563357D01*
X10434500Y-13491929D01*
X10448786Y-13449071D01*
X10463071Y-13420500D01*
X10491643Y-13377643D01*
X10505928Y-13363357D01*
X10663071Y-13534786D02*
X10634500Y-13520500D01*
X10620214Y-13506214D01*
X10605928Y-13477643D01*
X10605928Y-13463357D01*
X10620214Y-13434786D01*
X10634500Y-13420500D01*
X10663071Y-13406214D01*
X10720214Y-13406214D01*
X10748786Y-13420500D01*
X10763071Y-13434786D01*
X10777357Y-13463357D01*
X10777357Y-13477643D01*
X10763071Y-13506214D01*
X10748786Y-13520500D01*
X10720214Y-13534786D01*
X10663071Y-13534786D01*
X10634500Y-13549071D01*
X10620214Y-13563357D01*
X10605928Y-13591929D01*
X10605928Y-13649071D01*
X10620214Y-13677643D01*
X10634500Y-13691929D01*
X10663071Y-13706214D01*
X10720214Y-13706214D01*
X10748786Y-13691929D01*
X10763071Y-13677643D01*
X10777357Y-13649071D01*
X10777357Y-13591929D01*
X10763071Y-13563357D01*
X10748786Y-13549071D01*
X10720214Y-13534786D01*
X11134500Y-13706214D02*
X11134500Y-13406214D01*
X11263071Y-13706214D02*
X11263071Y-13549071D01*
X11248785Y-13520500D01*
X11220214Y-13506214D01*
X11177357Y-13506214D01*
X11148786Y-13520500D01*
X11134500Y-13534786D01*
X11448785Y-13706214D02*
X11420214Y-13691929D01*
X11405928Y-13677643D01*
X11391643Y-13649071D01*
X11391643Y-13563357D01*
X11405928Y-13534786D01*
X11420214Y-13520500D01*
X11448785Y-13506214D01*
X11491643Y-13506214D01*
X11520214Y-13520500D01*
X11534500Y-13534786D01*
X11548785Y-13563357D01*
X11548785Y-13649071D01*
X11534500Y-13677643D01*
X11520214Y-13691929D01*
X11491643Y-13706214D01*
X11448785Y-13706214D01*
X11720214Y-13706214D02*
X11691643Y-13691929D01*
X11677357Y-13663357D01*
X11677357Y-13406214D01*
X11948786Y-13691929D02*
X11920214Y-13706214D01*
X11863071Y-13706214D01*
X11834500Y-13691929D01*
X11820214Y-13663357D01*
X11820214Y-13549071D01*
X11834500Y-13520500D01*
X11863071Y-13506214D01*
X11920214Y-13506214D01*
X11948786Y-13520500D01*
X11963071Y-13549071D01*
X11963071Y-13577643D01*
X11820214Y-13606214D01*
X12077357Y-13691929D02*
X12105928Y-13706214D01*
X12163071Y-13706214D01*
X12191643Y-13691929D01*
X12205928Y-13663357D01*
X12205928Y-13649071D01*
X12191643Y-13620500D01*
X12163071Y-13606214D01*
X12120214Y-13606214D01*
X12091643Y-13591929D01*
X12077357Y-13563357D01*
X12077357Y-13549071D01*
X12091643Y-13520500D01*
X12120214Y-13506214D01*
X12163071Y-13506214D01*
X12191643Y-13520500D01*
X12305928Y-13820500D02*
X12320214Y-13806214D01*
X12348786Y-13763357D01*
X12363071Y-13734786D01*
X12377357Y-13691929D01*
X12391643Y-13620500D01*
X12391643Y-13563357D01*
X12377357Y-13491929D01*
X12363071Y-13449071D01*
X12348786Y-13420500D01*
X12320214Y-13377643D01*
X12305928Y-13363357D01*
X5819621Y-14002421D02*
X5819621Y-13930579D01*
X5747778Y-13930579D01*
X5747778Y-14002421D01*
X5819621Y-14002421D01*
X6263071Y-14102214D02*
X6091643Y-14102214D01*
X6177357Y-14102214D02*
X6177357Y-13802214D01*
X6148786Y-13845071D01*
X6120214Y-13873643D01*
X6091643Y-13887929D01*
X6391643Y-14073643D02*
X6405928Y-14087929D01*
X6391643Y-14102214D01*
X6377357Y-14087929D01*
X6391643Y-14073643D01*
X6391643Y-14102214D01*
X6591643Y-13802214D02*
X6620214Y-13802214D01*
X6648786Y-13816500D01*
X6663071Y-13830786D01*
X6677357Y-13859357D01*
X6691643Y-13916500D01*
X6691643Y-13987929D01*
X6677357Y-14045071D01*
X6663071Y-14073643D01*
X6648786Y-14087929D01*
X6620214Y-14102214D01*
X6591643Y-14102214D01*
X6563071Y-14087929D01*
X6548786Y-14073643D01*
X6534500Y-14045071D01*
X6520214Y-13987929D01*
X6520214Y-13916500D01*
X6534500Y-13859357D01*
X6548786Y-13830786D01*
X6563071Y-13816500D01*
X6591643Y-13802214D01*
X6805928Y-13830786D02*
X6820214Y-13816500D01*
X6848786Y-13802214D01*
X6920214Y-13802214D01*
X6948786Y-13816500D01*
X6963071Y-13830786D01*
X6977357Y-13859357D01*
X6977357Y-13887929D01*
X6963071Y-13930786D01*
X6791643Y-14102214D01*
X6977357Y-14102214D01*
X7105928Y-14102214D02*
X7105928Y-13902214D01*
X7105928Y-13930786D02*
X7120214Y-13916500D01*
X7148786Y-13902214D01*
X7191643Y-13902214D01*
X7220214Y-13916500D01*
X7234500Y-13945071D01*
X7234500Y-14102214D01*
X7234500Y-13945071D02*
X7248786Y-13916500D01*
X7277357Y-13902214D01*
X7320214Y-13902214D01*
X7348786Y-13916500D01*
X7363071Y-13945071D01*
X7363071Y-14102214D01*
X7505928Y-14102214D02*
X7505928Y-13902214D01*
X7505928Y-13930786D02*
X7520214Y-13916500D01*
X7548786Y-13902214D01*
X7591643Y-13902214D01*
X7620214Y-13916500D01*
X7634500Y-13945071D01*
X7634500Y-14102214D01*
X7634500Y-13945071D02*
X7648786Y-13916500D01*
X7677357Y-13902214D01*
X7720214Y-13902214D01*
X7748786Y-13916500D01*
X7763071Y-13945071D01*
X7763071Y-14102214D01*
X8348786Y-13787929D02*
X8091643Y-14173643D01*
X8734500Y-13802214D02*
X8763071Y-13802214D01*
X8791643Y-13816500D01*
X8805928Y-13830786D01*
X8820214Y-13859357D01*
X8834500Y-13916500D01*
X8834500Y-13987929D01*
X8820214Y-14045071D01*
X8805928Y-14073643D01*
X8791643Y-14087929D01*
X8763071Y-14102214D01*
X8734500Y-14102214D01*
X8705928Y-14087929D01*
X8691643Y-14073643D01*
X8677357Y-14045071D01*
X8663071Y-13987929D01*
X8663071Y-13916500D01*
X8677357Y-13859357D01*
X8691643Y-13830786D01*
X8705928Y-13816500D01*
X8734500Y-13802214D01*
X8963071Y-14073643D02*
X8977357Y-14087929D01*
X8963071Y-14102214D01*
X8948786Y-14087929D01*
X8963071Y-14073643D01*
X8963071Y-14102214D01*
X9163071Y-13802214D02*
X9191643Y-13802214D01*
X9220214Y-13816500D01*
X9234500Y-13830786D01*
X9248786Y-13859357D01*
X9263071Y-13916500D01*
X9263071Y-13987929D01*
X9248786Y-14045071D01*
X9234500Y-14073643D01*
X9220214Y-14087929D01*
X9191643Y-14102214D01*
X9163071Y-14102214D01*
X9134500Y-14087929D01*
X9120214Y-14073643D01*
X9105928Y-14045071D01*
X9091643Y-13987929D01*
X9091643Y-13916500D01*
X9105928Y-13859357D01*
X9120214Y-13830786D01*
X9134500Y-13816500D01*
X9163071Y-13802214D01*
X9520214Y-13902214D02*
X9520214Y-14102214D01*
X9448786Y-13787929D02*
X9377357Y-14002214D01*
X9563071Y-14002214D01*
X9734500Y-13802214D02*
X9763071Y-13802214D01*
X9791643Y-13816500D01*
X9805928Y-13830786D01*
X9820214Y-13859357D01*
X9834500Y-13916500D01*
X9834500Y-13987929D01*
X9820214Y-14045071D01*
X9805928Y-14073643D01*
X9791643Y-14087929D01*
X9763071Y-14102214D01*
X9734500Y-14102214D01*
X9705928Y-14087929D01*
X9691643Y-14073643D01*
X9677357Y-14045071D01*
X9663071Y-13987929D01*
X9663071Y-13916500D01*
X9677357Y-13859357D01*
X9691643Y-13830786D01*
X9705928Y-13816500D01*
X9734500Y-13802214D01*
X9948786Y-13802214D02*
X9948786Y-13859357D01*
X10063071Y-13802214D02*
X10063071Y-13859357D01*
X10505928Y-14216500D02*
X10491643Y-14202214D01*
X10463071Y-14159357D01*
X10448786Y-14130786D01*
X10434500Y-14087929D01*
X10420214Y-14016500D01*
X10420214Y-13959357D01*
X10434500Y-13887929D01*
X10448786Y-13845071D01*
X10463071Y-13816500D01*
X10491643Y-13773643D01*
X10505928Y-13759357D01*
X10591643Y-13802214D02*
X10777357Y-13802214D01*
X10677357Y-13916500D01*
X10720214Y-13916500D01*
X10748786Y-13930786D01*
X10763071Y-13945071D01*
X10777357Y-13973643D01*
X10777357Y-14045071D01*
X10763071Y-14073643D01*
X10748786Y-14087929D01*
X10720214Y-14102214D01*
X10634500Y-14102214D01*
X10605928Y-14087929D01*
X10591643Y-14073643D01*
X10948786Y-13930786D02*
X10920214Y-13916500D01*
X10905928Y-13902214D01*
X10891643Y-13873643D01*
X10891643Y-13859357D01*
X10905928Y-13830786D01*
X10920214Y-13816500D01*
X10948786Y-13802214D01*
X11005928Y-13802214D01*
X11034500Y-13816500D01*
X11048786Y-13830786D01*
X11063071Y-13859357D01*
X11063071Y-13873643D01*
X11048786Y-13902214D01*
X11034500Y-13916500D01*
X11005928Y-13930786D01*
X10948786Y-13930786D01*
X10920214Y-13945071D01*
X10905928Y-13959357D01*
X10891643Y-13987929D01*
X10891643Y-14045071D01*
X10905928Y-14073643D01*
X10920214Y-14087929D01*
X10948786Y-14102214D01*
X11005928Y-14102214D01*
X11034500Y-14087929D01*
X11048786Y-14073643D01*
X11063071Y-14045071D01*
X11063071Y-13987929D01*
X11048786Y-13959357D01*
X11034500Y-13945071D01*
X11005928Y-13930786D01*
X11420214Y-14102214D02*
X11420214Y-13802214D01*
X11548785Y-14102214D02*
X11548785Y-13945071D01*
X11534500Y-13916500D01*
X11505928Y-13902214D01*
X11463071Y-13902214D01*
X11434500Y-13916500D01*
X11420214Y-13930786D01*
X11734500Y-14102214D02*
X11705928Y-14087929D01*
X11691643Y-14073643D01*
X11677357Y-14045071D01*
X11677357Y-13959357D01*
X11691643Y-13930786D01*
X11705928Y-13916500D01*
X11734500Y-13902214D01*
X11777357Y-13902214D01*
X11805928Y-13916500D01*
X11820214Y-13930786D01*
X11834500Y-13959357D01*
X11834500Y-14045071D01*
X11820214Y-14073643D01*
X11805928Y-14087929D01*
X11777357Y-14102214D01*
X11734500Y-14102214D01*
X12005928Y-14102214D02*
X11977357Y-14087929D01*
X11963071Y-14059357D01*
X11963071Y-13802214D01*
X12234500Y-14087929D02*
X12205928Y-14102214D01*
X12148786Y-14102214D01*
X12120214Y-14087929D01*
X12105928Y-14059357D01*
X12105928Y-13945071D01*
X12120214Y-13916500D01*
X12148786Y-13902214D01*
X12205928Y-13902214D01*
X12234500Y-13916500D01*
X12248786Y-13945071D01*
X12248786Y-13973643D01*
X12105928Y-14002214D01*
X12363071Y-14087929D02*
X12391643Y-14102214D01*
X12448786Y-14102214D01*
X12477357Y-14087929D01*
X12491643Y-14059357D01*
X12491643Y-14045071D01*
X12477357Y-14016500D01*
X12448786Y-14002214D01*
X12405928Y-14002214D01*
X12377357Y-13987929D01*
X12363071Y-13959357D01*
X12363071Y-13945071D01*
X12377357Y-13916500D01*
X12405928Y-13902214D01*
X12448786Y-13902214D01*
X12477357Y-13916500D01*
X12591643Y-14216500D02*
X12605928Y-14202214D01*
X12634500Y-14159357D01*
X12648786Y-14130786D01*
X12663071Y-14087929D01*
X12677357Y-14016500D01*
X12677357Y-13959357D01*
X12663071Y-13887929D01*
X12648786Y-13845071D01*
X12634500Y-13816500D01*
X12605928Y-13773643D01*
X12591643Y-13759357D01*
M02*
