G04 #@! TF.FileFunction,Legend,Top*
%FSLAX46Y46*%
G04 Gerber Fmt 4.6, Leading zero omitted, Abs format (unit mm)*
G04 Created by KiCad (PCBNEW 4.0.3+e1-6302~38~ubuntu16.04.1-stable) date Thu Aug 25 17:13:24 2016*
%MOMM*%
%LPD*%
G01*
G04 APERTURE LIST*
%ADD10C,0.100000*%
%ADD11C,0.150000*%
G04 APERTURE END LIST*
D10*
D11*
X91440000Y-71120000D02*
X91440000Y-66040000D01*
X91440000Y-66040000D02*
X93980000Y-66040000D01*
X93980000Y-66040000D02*
X93980000Y-71120000D01*
X93980000Y-71120000D02*
X91440000Y-71120000D01*
X92710000Y-71120000D02*
X92710000Y-72390000D01*
X92710000Y-66040000D02*
X92710000Y-64770000D01*
X89670000Y-76490000D02*
X95670000Y-76490000D01*
X95670000Y-80990000D02*
X89670000Y-80990000D01*
X96520000Y-86360000D02*
G75*
G03X96520000Y-86360000I-3810000J0D01*
G01*
X85090000Y-64770000D02*
X85090000Y-110490000D01*
X85090000Y-110490000D02*
X87630000Y-110490000D01*
X87630000Y-110490000D02*
X87630000Y-64770000D01*
X84810000Y-61950000D02*
X84810000Y-63500000D01*
X85090000Y-64770000D02*
X87630000Y-64770000D01*
X87910000Y-63500000D02*
X87910000Y-61950000D01*
X87910000Y-61950000D02*
X84810000Y-61950000D01*
X156210000Y-64770000D02*
X156210000Y-110490000D01*
X156210000Y-110490000D02*
X158750000Y-110490000D01*
X158750000Y-110490000D02*
X158750000Y-64770000D01*
X155930000Y-61950000D02*
X155930000Y-63500000D01*
X156210000Y-64770000D02*
X158750000Y-64770000D01*
X159030000Y-63500000D02*
X159030000Y-61950000D01*
X159030000Y-61950000D02*
X155930000Y-61950000D01*
X91257381Y-68746666D02*
X90781190Y-69080000D01*
X91257381Y-69318095D02*
X90257381Y-69318095D01*
X90257381Y-68937142D01*
X90305000Y-68841904D01*
X90352619Y-68794285D01*
X90447857Y-68746666D01*
X90590714Y-68746666D01*
X90685952Y-68794285D01*
X90733571Y-68841904D01*
X90781190Y-68937142D01*
X90781190Y-69318095D01*
X91257381Y-67794285D02*
X91257381Y-68365714D01*
X91257381Y-68080000D02*
X90257381Y-68080000D01*
X90400238Y-68175238D01*
X90495476Y-68270476D01*
X90543095Y-68365714D01*
X92543334Y-77827143D02*
X92495715Y-77874762D01*
X92352858Y-77922381D01*
X92257620Y-77922381D01*
X92114762Y-77874762D01*
X92019524Y-77779524D01*
X91971905Y-77684286D01*
X91924286Y-77493810D01*
X91924286Y-77350952D01*
X91971905Y-77160476D01*
X92019524Y-77065238D01*
X92114762Y-76970000D01*
X92257620Y-76922381D01*
X92352858Y-76922381D01*
X92495715Y-76970000D01*
X92543334Y-77017619D01*
X93495715Y-77922381D02*
X92924286Y-77922381D01*
X93210000Y-77922381D02*
X93210000Y-76922381D01*
X93114762Y-77065238D01*
X93019524Y-77160476D01*
X92924286Y-77208095D01*
X90638334Y-82367381D02*
X90162143Y-82367381D01*
X90162143Y-81367381D01*
X91495477Y-82367381D02*
X90924048Y-82367381D01*
X91209762Y-82367381D02*
X91209762Y-81367381D01*
X91114524Y-81510238D01*
X91019286Y-81605476D01*
X90924048Y-81653095D01*
X88161905Y-62682381D02*
X88161905Y-61682381D01*
X88542858Y-61682381D01*
X88638096Y-61730000D01*
X88685715Y-61777619D01*
X88733334Y-61872857D01*
X88733334Y-62015714D01*
X88685715Y-62110952D01*
X88638096Y-62158571D01*
X88542858Y-62206190D01*
X88161905Y-62206190D01*
X89114286Y-61777619D02*
X89161905Y-61730000D01*
X89257143Y-61682381D01*
X89495239Y-61682381D01*
X89590477Y-61730000D01*
X89638096Y-61777619D01*
X89685715Y-61872857D01*
X89685715Y-61968095D01*
X89638096Y-62110952D01*
X89066667Y-62682381D01*
X89685715Y-62682381D01*
X85598096Y-60460000D02*
X85502858Y-60412381D01*
X85360001Y-60412381D01*
X85217143Y-60460000D01*
X85121905Y-60555238D01*
X85074286Y-60650476D01*
X85026667Y-60840952D01*
X85026667Y-60983810D01*
X85074286Y-61174286D01*
X85121905Y-61269524D01*
X85217143Y-61364762D01*
X85360001Y-61412381D01*
X85455239Y-61412381D01*
X85598096Y-61364762D01*
X85645715Y-61317143D01*
X85645715Y-60983810D01*
X85455239Y-60983810D01*
X86074286Y-61412381D02*
X86074286Y-60412381D01*
X86645715Y-61412381D01*
X86645715Y-60412381D01*
X87121905Y-61412381D02*
X87121905Y-60412381D01*
X87360000Y-60412381D01*
X87502858Y-60460000D01*
X87598096Y-60555238D01*
X87645715Y-60650476D01*
X87693334Y-60840952D01*
X87693334Y-60983810D01*
X87645715Y-61174286D01*
X87598096Y-61269524D01*
X87502858Y-61364762D01*
X87360000Y-61412381D01*
X87121905Y-61412381D01*
X154201905Y-62682381D02*
X154201905Y-61682381D01*
X154582858Y-61682381D01*
X154678096Y-61730000D01*
X154725715Y-61777619D01*
X154773334Y-61872857D01*
X154773334Y-62015714D01*
X154725715Y-62110952D01*
X154678096Y-62158571D01*
X154582858Y-62206190D01*
X154201905Y-62206190D01*
X155725715Y-62682381D02*
X155154286Y-62682381D01*
X155440000Y-62682381D02*
X155440000Y-61682381D01*
X155344762Y-61825238D01*
X155249524Y-61920476D01*
X155154286Y-61968095D01*
X156718096Y-60460000D02*
X156622858Y-60412381D01*
X156480001Y-60412381D01*
X156337143Y-60460000D01*
X156241905Y-60555238D01*
X156194286Y-60650476D01*
X156146667Y-60840952D01*
X156146667Y-60983810D01*
X156194286Y-61174286D01*
X156241905Y-61269524D01*
X156337143Y-61364762D01*
X156480001Y-61412381D01*
X156575239Y-61412381D01*
X156718096Y-61364762D01*
X156765715Y-61317143D01*
X156765715Y-60983810D01*
X156575239Y-60983810D01*
X157194286Y-61412381D02*
X157194286Y-60412381D01*
X157765715Y-61412381D01*
X157765715Y-60412381D01*
X158241905Y-61412381D02*
X158241905Y-60412381D01*
X158480000Y-60412381D01*
X158622858Y-60460000D01*
X158718096Y-60555238D01*
X158765715Y-60650476D01*
X158813334Y-60840952D01*
X158813334Y-60983810D01*
X158765715Y-61174286D01*
X158718096Y-61269524D01*
X158622858Y-61364762D01*
X158480000Y-61412381D01*
X158241905Y-61412381D01*
M02*
