G04 #@! TF.FileFunction,Legend,Bot*
%FSLAX46Y46*%
G04 Gerber Fmt 4.6, Leading zero omitted, Abs format (unit mm)*
G04 Created by KiCad (PCBNEW 4.0.3+e1-6302~38~ubuntu16.04.1-stable) date Thu Aug 25 17:13:24 2016*
%MOMM*%
%LPD*%
G01*
G04 APERTURE LIST*
%ADD10C,0.100000*%
%ADD11C,0.300000*%
G04 APERTURE END LIST*
D10*
D11*
X120871427Y-94658571D02*
X120871427Y-93158571D01*
X120514284Y-93158571D01*
X120299999Y-93230000D01*
X120157141Y-93372857D01*
X120085713Y-93515714D01*
X120014284Y-93801429D01*
X120014284Y-94015714D01*
X120085713Y-94301429D01*
X120157141Y-94444286D01*
X120299999Y-94587143D01*
X120514284Y-94658571D01*
X120871427Y-94658571D01*
X118871427Y-93872857D02*
X118657141Y-93944286D01*
X118585713Y-94015714D01*
X118514284Y-94158571D01*
X118514284Y-94372857D01*
X118585713Y-94515714D01*
X118657141Y-94587143D01*
X118799999Y-94658571D01*
X119371427Y-94658571D01*
X119371427Y-93158571D01*
X118871427Y-93158571D01*
X118728570Y-93230000D01*
X118657141Y-93301429D01*
X118585713Y-93444286D01*
X118585713Y-93587143D01*
X118657141Y-93730000D01*
X118728570Y-93801429D01*
X118871427Y-93872857D01*
X119371427Y-93872857D01*
X118228570Y-94801429D02*
X117085713Y-94801429D01*
X116228570Y-93872857D02*
X116728570Y-93872857D01*
X116728570Y-94658571D02*
X116728570Y-93158571D01*
X116014284Y-93158571D01*
X115442856Y-94658571D02*
X115442856Y-93658571D01*
X115442856Y-93158571D02*
X115514285Y-93230000D01*
X115442856Y-93301429D01*
X115371428Y-93230000D01*
X115442856Y-93158571D01*
X115442856Y-93301429D01*
X114514284Y-94658571D02*
X114657142Y-94587143D01*
X114728570Y-94444286D01*
X114728570Y-93158571D01*
X114157142Y-93658571D02*
X113585713Y-93658571D01*
X113942856Y-93158571D02*
X113942856Y-94444286D01*
X113871428Y-94587143D01*
X113728570Y-94658571D01*
X113585713Y-94658571D01*
X112514285Y-94587143D02*
X112657142Y-94658571D01*
X112942856Y-94658571D01*
X113085713Y-94587143D01*
X113157142Y-94444286D01*
X113157142Y-93872857D01*
X113085713Y-93730000D01*
X112942856Y-93658571D01*
X112657142Y-93658571D01*
X112514285Y-93730000D01*
X112442856Y-93872857D01*
X112442856Y-94015714D01*
X113157142Y-94158571D01*
X111799999Y-94658571D02*
X111799999Y-93658571D01*
X111799999Y-93944286D02*
X111728571Y-93801429D01*
X111657142Y-93730000D01*
X111514285Y-93658571D01*
X111371428Y-93658571D01*
X111228571Y-94801429D02*
X110085714Y-94801429D01*
X109942857Y-93158571D02*
X109442857Y-94658571D01*
X108942857Y-93158571D01*
X107657143Y-94658571D02*
X108514286Y-94658571D01*
X108085714Y-94658571D02*
X108085714Y-93158571D01*
X108228571Y-93372857D01*
X108371429Y-93515714D01*
X108514286Y-93587143D01*
M02*
