M48
;DRILL file {KiCad 4.0.3+e1-6302~38~ubuntu16.04.1-stable} date Thu Aug 25 12:36:26 2016
;FORMAT={-:-/ absolute / inch / decimal}
FMAT,2
INCH,TZ
T1C0.028
T2C0.031
T3C0.035
T4C0.039
T5C0.040
%
G90
G05
M72
T1
X1.4751Y-2.425
X1.4751Y-2.825
X2.225Y-2.3249
X2.225Y-2.4499
X2.625Y-2.3249
X2.625Y-2.4499
X2.875Y-3.4999
X3.275Y-3.4999
T2
X1.5Y-2.15
X1.5Y-3.075
X1.625Y-1.75
X1.625Y-1.85
X1.6378Y-2.15
X1.6378Y-3.075
X1.675Y-1.8
X1.875Y-1.8
X1.925Y-1.75
X1.925Y-2.65
X1.925Y-2.75
X1.925Y-2.85
X1.925Y-2.95
X1.975Y-1.8
X2.Y-3.4
X2.1378Y-3.4
X2.15Y-1.8
X2.2Y-1.75
X2.225Y-2.65
X2.225Y-2.75
X2.225Y-2.85
X2.225Y-2.95
X2.25Y-1.8
X2.475Y-1.85
X2.6Y-2.725
X2.6128Y-1.85
X2.725Y-2.125
X2.7378Y-2.725
X2.8628Y-2.125
X2.9Y-2.475
X3.0378Y-2.475
X3.1Y-2.775
X3.2378Y-2.775
T3
X1.875Y-2.375
X2.0719Y-2.375
X2.4Y-3.1281
X2.4Y-3.325
T4
X1.525Y-3.45
X1.625Y-2.5
X1.625Y-2.6
X1.625Y-2.7
X1.625Y-3.45
X1.725Y-3.45
X1.825Y-3.15
X1.875Y-2.025
X1.875Y-2.175
X2.225Y-3.15
X2.275Y-2.025
X2.275Y-2.175
X2.3Y-3.5
X2.4Y-2.575
X2.4Y-2.975
X2.625Y-3.075
X2.625Y-3.175
X2.625Y-3.275
X2.7Y-3.5
X2.9Y-3.075
X2.9Y-3.175
X2.9Y-3.275
X3.175Y-3.075
X3.175Y-3.175
X3.175Y-3.275
T5
X1.3Y-1.75
X1.3Y-1.85
X1.3Y-1.95
X1.3Y-2.05
X1.3Y-2.15
X1.3Y-2.25
X1.3Y-2.35
X1.3Y-2.45
X1.3Y-2.55
X1.3Y-2.65
X1.3Y-2.75
X1.3Y-2.85
X1.3Y-2.95
X1.3Y-3.05
X1.3Y-3.15
X1.3Y-3.25
X1.3Y-3.35
X1.3Y-3.45
X1.3Y-3.55
X3.45Y-1.75
X3.45Y-1.85
X3.45Y-1.95
X3.45Y-2.05
X3.45Y-2.15
X3.45Y-2.25
X3.45Y-2.35
X3.45Y-2.45
X3.45Y-2.55
X3.45Y-2.65
X3.45Y-2.75
X3.45Y-2.85
X3.45Y-2.95
X3.45Y-3.05
X3.45Y-3.15
X3.45Y-3.25
X3.45Y-3.35
X3.45Y-3.45
X3.45Y-3.55
T0
M30
