G04 #@! TF.FileFunction,Copper,L1,Top,Signal*
%FSLAX46Y46*%
G04 Gerber Fmt 4.6, Leading zero omitted, Abs format (unit mm)*
G04 Created by KiCad (PCBNEW 4.0.3+e1-6302~38~ubuntu16.04.1-stable) date Thu Aug 25 17:21:12 2016*
%MOMM*%
%LPD*%
G01*
G04 APERTURE LIST*
%ADD10C,0.100000*%
%ADD11R,1.400000X1.400000*%
%ADD12C,1.400000*%
%ADD13C,1.300000*%
%ADD14R,1.300000X1.300000*%
%ADD15C,1.699260*%
%ADD16R,1.699260X1.699260*%
%ADD17C,1.200000*%
%ADD18C,1.998980*%
%ADD19O,1.600000X1.600000*%
%ADD20O,2.499360X1.501140*%
%ADD21O,1.501140X2.499360*%
%ADD22R,2.032000X1.727200*%
%ADD23O,2.032000X1.727200*%
%ADD24C,0.250000*%
%ADD25C,0.254000*%
G04 APERTURE END LIST*
D10*
D11*
X60960000Y-84455000D03*
D12*
X60960000Y-79455000D03*
D11*
X47625000Y-60325000D03*
D12*
X52625000Y-60325000D03*
D13*
X41600000Y-54610000D03*
D14*
X38100000Y-54610000D03*
D13*
X41600000Y-78105000D03*
D14*
X38100000Y-78105000D03*
D13*
X54300000Y-86360000D03*
D14*
X50800000Y-86360000D03*
D13*
X69540000Y-69215000D03*
D14*
X66040000Y-69215000D03*
D13*
X66365000Y-46990000D03*
D14*
X62865000Y-46990000D03*
D13*
X72715000Y-53975000D03*
D14*
X69215000Y-53975000D03*
D13*
X77160000Y-62865000D03*
D14*
X73660000Y-62865000D03*
D13*
X82240000Y-70485000D03*
D14*
X78740000Y-70485000D03*
D15*
X37467540Y-71755520D03*
D16*
X37467540Y-61595520D03*
D15*
X83185520Y-88897460D03*
D16*
X73025520Y-88897460D03*
D15*
X66675520Y-59052460D03*
D16*
X56515520Y-59052460D03*
D15*
X66675520Y-62227460D03*
D16*
X56515520Y-62227460D03*
D17*
X41275000Y-46990000D03*
X42545000Y-45720000D03*
X41275000Y-44450000D03*
X50165000Y-45720000D03*
X48895000Y-44450000D03*
X47625000Y-45720000D03*
X57150000Y-45720000D03*
X55880000Y-44450000D03*
X54610000Y-45720000D03*
D18*
X60960000Y-75565000D03*
X60960000Y-65405000D03*
X58420000Y-88900000D03*
X68580000Y-88900000D03*
X47625000Y-55245000D03*
X57785000Y-55245000D03*
X47625000Y-51435000D03*
X57785000Y-51435000D03*
X46355000Y-80010000D03*
X56515000Y-80010000D03*
D19*
X48895000Y-67310000D03*
X48895000Y-69850000D03*
X48895000Y-72390000D03*
X48895000Y-74930000D03*
X56515000Y-74930000D03*
X56515000Y-72390000D03*
X56515000Y-69850000D03*
X56515000Y-67310000D03*
D20*
X41275000Y-66040000D03*
X41275000Y-63500000D03*
X41275000Y-68580000D03*
D21*
X41275000Y-87630000D03*
X38735000Y-87630000D03*
X43815000Y-87630000D03*
D20*
X66675000Y-80645000D03*
X66675000Y-78105000D03*
X66675000Y-83185000D03*
X80645000Y-80645000D03*
X80645000Y-78105000D03*
X80645000Y-83185000D03*
X73660000Y-80645000D03*
X73660000Y-78105000D03*
X73660000Y-83185000D03*
D22*
X33020000Y-44450000D03*
D23*
X33020000Y-46990000D03*
X33020000Y-49530000D03*
X33020000Y-52070000D03*
X33020000Y-54610000D03*
X33020000Y-57150000D03*
X33020000Y-59690000D03*
X33020000Y-62230000D03*
X33020000Y-64770000D03*
X33020000Y-67310000D03*
X33020000Y-69850000D03*
X33020000Y-72390000D03*
X33020000Y-74930000D03*
X33020000Y-77470000D03*
X33020000Y-80010000D03*
X33020000Y-82550000D03*
X33020000Y-85090000D03*
X33020000Y-87630000D03*
X33020000Y-90170000D03*
D22*
X87630000Y-44450000D03*
D23*
X87630000Y-46990000D03*
X87630000Y-49530000D03*
X87630000Y-52070000D03*
X87630000Y-54610000D03*
X87630000Y-57150000D03*
X87630000Y-59690000D03*
X87630000Y-62230000D03*
X87630000Y-64770000D03*
X87630000Y-67310000D03*
X87630000Y-69850000D03*
X87630000Y-72390000D03*
X87630000Y-74930000D03*
X87630000Y-77470000D03*
X87630000Y-80010000D03*
X87630000Y-82550000D03*
X87630000Y-85090000D03*
X87630000Y-87630000D03*
X87630000Y-90170000D03*
D24*
X60960000Y-79455000D02*
X60960000Y-79375000D01*
X60960000Y-79375000D02*
X56515000Y-74930000D01*
X52625000Y-60325000D02*
X52625000Y-69850000D01*
X52625000Y-69850000D02*
X52705000Y-69850000D01*
X48895000Y-69850000D02*
X52705000Y-69850000D01*
X52705000Y-69850000D02*
X53975000Y-69850000D01*
X53975000Y-69850000D02*
X56515000Y-72390000D01*
X47625000Y-51435000D02*
X47625000Y-45720000D01*
X38100000Y-54610000D02*
X38100000Y-53975000D01*
X38100000Y-53975000D02*
X40640000Y-51435000D01*
X40640000Y-51435000D02*
X47625000Y-51435000D01*
X37467540Y-61595520D02*
X37467540Y-55242460D01*
X37467540Y-55242460D02*
X38100000Y-54610000D01*
X37467540Y-61595520D02*
X39370520Y-61595520D01*
X39370520Y-61595520D02*
X41275000Y-63500000D01*
X33020000Y-57150000D02*
X34290000Y-57150000D01*
X35560000Y-62865000D02*
X41275000Y-68580000D01*
X35560000Y-58420000D02*
X35560000Y-62865000D01*
X34290000Y-57150000D02*
X35560000Y-58420000D01*
X38100000Y-78105000D02*
X38100000Y-86995000D01*
X38100000Y-86995000D02*
X38735000Y-87630000D01*
X41275000Y-68580000D02*
X41275000Y-74930000D01*
X41275000Y-74930000D02*
X38100000Y-78105000D01*
X50800000Y-86360000D02*
X50800000Y-85725000D01*
X50800000Y-85725000D02*
X56515000Y-80010000D01*
X56515000Y-67310000D02*
X59055000Y-67310000D01*
X59055000Y-67310000D02*
X60960000Y-65405000D01*
X56515000Y-80010000D02*
X53975000Y-80010000D01*
X53975000Y-80010000D02*
X48895000Y-74930000D01*
X43815000Y-87630000D02*
X49530000Y-87630000D01*
X49530000Y-87630000D02*
X50800000Y-86360000D01*
X66675000Y-80645000D02*
X67945000Y-80645000D01*
X77470000Y-90170000D02*
X87630000Y-90170000D01*
X67945000Y-80645000D02*
X77470000Y-90170000D01*
X66675000Y-80645000D02*
X69215000Y-78105000D01*
X66040000Y-71120000D02*
X66040000Y-69215000D01*
X69215000Y-74295000D02*
X66040000Y-71120000D01*
X69215000Y-78105000D02*
X69215000Y-74295000D01*
X56515520Y-62227460D02*
X60327540Y-62227460D01*
X63502540Y-59052460D02*
X66675520Y-59052460D01*
X60327540Y-62227460D02*
X63502540Y-59052460D01*
X66365000Y-46990000D02*
X66365000Y-58741940D01*
X66365000Y-58741940D02*
X66675520Y-59052460D01*
X50165000Y-45720000D02*
X50800000Y-45720000D01*
X55880000Y-46990000D02*
X57150000Y-45720000D01*
X52070000Y-46990000D02*
X55880000Y-46990000D01*
X50800000Y-45720000D02*
X52070000Y-46990000D01*
X62865000Y-46990000D02*
X58420000Y-46990000D01*
X58420000Y-46990000D02*
X57150000Y-45720000D01*
X80645000Y-80645000D02*
X78740000Y-80645000D01*
X76200000Y-71751940D02*
X66675520Y-62227460D01*
X76200000Y-78105000D02*
X76200000Y-71751940D01*
X78740000Y-80645000D02*
X76200000Y-78105000D01*
X66675520Y-62227460D02*
X67312540Y-62227460D01*
X67312540Y-62227460D02*
X72715000Y-56825000D01*
X72715000Y-56825000D02*
X72715000Y-53975000D01*
X77160000Y-62865000D02*
X86995000Y-62865000D01*
X86995000Y-62865000D02*
X87630000Y-62230000D01*
X80645000Y-83185000D02*
X78740000Y-83185000D01*
X76200000Y-80645000D02*
X73660000Y-80645000D01*
X78740000Y-83185000D02*
X76200000Y-80645000D01*
X73660000Y-83185000D02*
X76835000Y-83185000D01*
X80645000Y-86995000D02*
X86995000Y-86995000D01*
X76835000Y-83185000D02*
X80645000Y-86995000D01*
X82240000Y-70485000D02*
X82240000Y-73350000D01*
X84455000Y-84455000D02*
X86995000Y-86995000D01*
X84455000Y-75565000D02*
X84455000Y-84455000D01*
X82240000Y-73350000D02*
X84455000Y-75565000D01*
X33020000Y-72390000D02*
X36833060Y-72390000D01*
X36833060Y-72390000D02*
X37467540Y-71755520D01*
X37467020Y-71755000D02*
X37467540Y-71755520D01*
X48895000Y-44450000D02*
X55880000Y-44450000D01*
X41275000Y-44450000D02*
X48895000Y-44450000D01*
X60960000Y-75565000D02*
X60960000Y-76200000D01*
X60960000Y-76200000D02*
X62865000Y-78105000D01*
X60325000Y-88900000D02*
X58420000Y-88900000D01*
X62865000Y-86360000D02*
X60325000Y-88900000D01*
X62865000Y-78105000D02*
X62865000Y-86360000D01*
X60960000Y-75565000D02*
X60960000Y-71755000D01*
X59055000Y-69850000D02*
X56515000Y-69850000D01*
X60960000Y-71755000D02*
X59055000Y-69850000D01*
X48895000Y-72390000D02*
X48260000Y-72390000D01*
X48260000Y-72390000D02*
X46990000Y-71120000D01*
X46990000Y-71120000D02*
X46990000Y-64770000D01*
X46990000Y-64770000D02*
X50800000Y-60960000D01*
X50800000Y-60960000D02*
X50800000Y-58420000D01*
X50800000Y-58420000D02*
X53975000Y-55245000D01*
X53975000Y-55245000D02*
X57785000Y-55245000D01*
D25*
G36*
X89460000Y-92000000D02*
X31190000Y-92000000D01*
X31190000Y-46990000D01*
X31336655Y-46990000D01*
X31450729Y-47563489D01*
X31775585Y-48049670D01*
X32090366Y-48260000D01*
X31775585Y-48470330D01*
X31450729Y-48956511D01*
X31336655Y-49530000D01*
X31450729Y-50103489D01*
X31775585Y-50589670D01*
X32090366Y-50800000D01*
X31775585Y-51010330D01*
X31450729Y-51496511D01*
X31336655Y-52070000D01*
X31450729Y-52643489D01*
X31775585Y-53129670D01*
X32090366Y-53340000D01*
X31775585Y-53550330D01*
X31450729Y-54036511D01*
X31336655Y-54610000D01*
X31450729Y-55183489D01*
X31775585Y-55669670D01*
X32090366Y-55880000D01*
X31775585Y-56090330D01*
X31450729Y-56576511D01*
X31336655Y-57150000D01*
X31450729Y-57723489D01*
X31775585Y-58209670D01*
X32090366Y-58420000D01*
X31775585Y-58630330D01*
X31450729Y-59116511D01*
X31336655Y-59690000D01*
X31450729Y-60263489D01*
X31775585Y-60749670D01*
X32090366Y-60960000D01*
X31775585Y-61170330D01*
X31450729Y-61656511D01*
X31336655Y-62230000D01*
X31450729Y-62803489D01*
X31775585Y-63289670D01*
X32090366Y-63500000D01*
X31775585Y-63710330D01*
X31450729Y-64196511D01*
X31336655Y-64770000D01*
X31450729Y-65343489D01*
X31775585Y-65829670D01*
X32090366Y-66040000D01*
X31775585Y-66250330D01*
X31450729Y-66736511D01*
X31336655Y-67310000D01*
X31450729Y-67883489D01*
X31775585Y-68369670D01*
X32090366Y-68580000D01*
X31775585Y-68790330D01*
X31450729Y-69276511D01*
X31336655Y-69850000D01*
X31450729Y-70423489D01*
X31775585Y-70909670D01*
X32090366Y-71120000D01*
X31775585Y-71330330D01*
X31450729Y-71816511D01*
X31336655Y-72390000D01*
X31450729Y-72963489D01*
X31775585Y-73449670D01*
X32090366Y-73660000D01*
X31775585Y-73870330D01*
X31450729Y-74356511D01*
X31336655Y-74930000D01*
X31450729Y-75503489D01*
X31775585Y-75989670D01*
X32090366Y-76200000D01*
X31775585Y-76410330D01*
X31450729Y-76896511D01*
X31336655Y-77470000D01*
X31450729Y-78043489D01*
X31775585Y-78529670D01*
X32090366Y-78740000D01*
X31775585Y-78950330D01*
X31450729Y-79436511D01*
X31336655Y-80010000D01*
X31450729Y-80583489D01*
X31775585Y-81069670D01*
X32090366Y-81280000D01*
X31775585Y-81490330D01*
X31450729Y-81976511D01*
X31336655Y-82550000D01*
X31450729Y-83123489D01*
X31775585Y-83609670D01*
X32090366Y-83820000D01*
X31775585Y-84030330D01*
X31450729Y-84516511D01*
X31336655Y-85090000D01*
X31450729Y-85663489D01*
X31775585Y-86149670D01*
X32090366Y-86360000D01*
X31775585Y-86570330D01*
X31450729Y-87056511D01*
X31336655Y-87630000D01*
X31450729Y-88203489D01*
X31775585Y-88689670D01*
X32090366Y-88900000D01*
X31775585Y-89110330D01*
X31450729Y-89596511D01*
X31336655Y-90170000D01*
X31450729Y-90743489D01*
X31775585Y-91229670D01*
X32261766Y-91554526D01*
X32835255Y-91668600D01*
X33204745Y-91668600D01*
X33778234Y-91554526D01*
X34264415Y-91229670D01*
X34589271Y-90743489D01*
X34703345Y-90170000D01*
X34589271Y-89596511D01*
X34264415Y-89110330D01*
X33949634Y-88900000D01*
X34264415Y-88689670D01*
X34589271Y-88203489D01*
X34703345Y-87630000D01*
X34589271Y-87056511D01*
X34264415Y-86570330D01*
X33949634Y-86360000D01*
X34264415Y-86149670D01*
X34589271Y-85663489D01*
X34703345Y-85090000D01*
X34589271Y-84516511D01*
X34264415Y-84030330D01*
X33949634Y-83820000D01*
X34264415Y-83609670D01*
X34589271Y-83123489D01*
X34703345Y-82550000D01*
X34589271Y-81976511D01*
X34264415Y-81490330D01*
X33949634Y-81280000D01*
X34264415Y-81069670D01*
X34589271Y-80583489D01*
X34703345Y-80010000D01*
X34589271Y-79436511D01*
X34264415Y-78950330D01*
X33949634Y-78740000D01*
X34264415Y-78529670D01*
X34589271Y-78043489D01*
X34703345Y-77470000D01*
X34589271Y-76896511D01*
X34264415Y-76410330D01*
X33949634Y-76200000D01*
X34264415Y-75989670D01*
X34589271Y-75503489D01*
X34703345Y-74930000D01*
X34589271Y-74356511D01*
X34264415Y-73870330D01*
X33949634Y-73660000D01*
X34264415Y-73449670D01*
X34464648Y-73150000D01*
X36833060Y-73150000D01*
X36915133Y-73133674D01*
X37170933Y-73239892D01*
X37761556Y-73240408D01*
X38307417Y-73014862D01*
X38725414Y-72597594D01*
X38951912Y-72052127D01*
X38952428Y-71461504D01*
X38726882Y-70915643D01*
X38309614Y-70497646D01*
X37764147Y-70271148D01*
X37173524Y-70270632D01*
X36627663Y-70496178D01*
X36209666Y-70913446D01*
X35983168Y-71458913D01*
X35983019Y-71630000D01*
X34464648Y-71630000D01*
X34264415Y-71330330D01*
X33949634Y-71120000D01*
X34264415Y-70909670D01*
X34589271Y-70423489D01*
X34703345Y-69850000D01*
X34589271Y-69276511D01*
X34264415Y-68790330D01*
X33949634Y-68580000D01*
X34264415Y-68369670D01*
X34589271Y-67883489D01*
X34703345Y-67310000D01*
X34589271Y-66736511D01*
X34264415Y-66250330D01*
X33949634Y-66040000D01*
X34264415Y-65829670D01*
X34589271Y-65343489D01*
X34703345Y-64770000D01*
X34589271Y-64196511D01*
X34264415Y-63710330D01*
X33949634Y-63500000D01*
X34264415Y-63289670D01*
X34589271Y-62803489D01*
X34703345Y-62230000D01*
X34589271Y-61656511D01*
X34264415Y-61170330D01*
X33949634Y-60960000D01*
X34264415Y-60749670D01*
X34589271Y-60263489D01*
X34703345Y-59690000D01*
X34589271Y-59116511D01*
X34264415Y-58630330D01*
X33949634Y-58420000D01*
X34264415Y-58209670D01*
X34268602Y-58203404D01*
X34800000Y-58734802D01*
X34800000Y-62865000D01*
X34857852Y-63155839D01*
X35022599Y-63402401D01*
X39543420Y-67923223D01*
X39458867Y-68049765D01*
X39353397Y-68580000D01*
X39458867Y-69110235D01*
X39759221Y-69559746D01*
X40208732Y-69860100D01*
X40515000Y-69921020D01*
X40515000Y-74615198D01*
X38322638Y-76807560D01*
X37450000Y-76807560D01*
X37214683Y-76851838D01*
X36998559Y-76990910D01*
X36853569Y-77203110D01*
X36802560Y-77455000D01*
X36802560Y-78755000D01*
X36846838Y-78990317D01*
X36985910Y-79206441D01*
X37198110Y-79351431D01*
X37340000Y-79380164D01*
X37340000Y-86995000D01*
X37354558Y-87068187D01*
X37349430Y-87093967D01*
X37349430Y-88166033D01*
X37454900Y-88696268D01*
X37755254Y-89145779D01*
X38204765Y-89446133D01*
X38735000Y-89551603D01*
X39265235Y-89446133D01*
X39714746Y-89145779D01*
X40015100Y-88696268D01*
X40016950Y-88686968D01*
X40043501Y-88776677D01*
X40385056Y-89198658D01*
X40862097Y-89457810D01*
X40933725Y-89471993D01*
X41148000Y-89349339D01*
X41148000Y-87757000D01*
X41128000Y-87757000D01*
X41128000Y-87503000D01*
X41148000Y-87503000D01*
X41148000Y-85910661D01*
X41402000Y-85910661D01*
X41402000Y-87503000D01*
X41422000Y-87503000D01*
X41422000Y-87757000D01*
X41402000Y-87757000D01*
X41402000Y-89349339D01*
X41616275Y-89471993D01*
X41687903Y-89457810D01*
X42164944Y-89198658D01*
X42506499Y-88776677D01*
X42533050Y-88686968D01*
X42534900Y-88696268D01*
X42835254Y-89145779D01*
X43284765Y-89446133D01*
X43815000Y-89551603D01*
X44345235Y-89446133D01*
X44794746Y-89145779D01*
X45095100Y-88696268D01*
X45156020Y-88390000D01*
X49530000Y-88390000D01*
X49820839Y-88332148D01*
X50067401Y-88167401D01*
X50577362Y-87657440D01*
X51450000Y-87657440D01*
X51685317Y-87613162D01*
X51901441Y-87474090D01*
X52046431Y-87261890D01*
X52047012Y-87259016D01*
X53580590Y-87259016D01*
X53636271Y-87489611D01*
X54119078Y-87657622D01*
X54629428Y-87628083D01*
X54963729Y-87489611D01*
X55019410Y-87259016D01*
X54300000Y-86539605D01*
X53580590Y-87259016D01*
X52047012Y-87259016D01*
X52097440Y-87010000D01*
X52097440Y-86179078D01*
X53002378Y-86179078D01*
X53031917Y-86689428D01*
X53170389Y-87023729D01*
X53400984Y-87079410D01*
X54120395Y-86360000D01*
X54479605Y-86360000D01*
X55199016Y-87079410D01*
X55429611Y-87023729D01*
X55597622Y-86540922D01*
X55568083Y-86030572D01*
X55429611Y-85696271D01*
X55199016Y-85640590D01*
X54479605Y-86360000D01*
X54120395Y-86360000D01*
X53400984Y-85640590D01*
X53170389Y-85696271D01*
X53002378Y-86179078D01*
X52097440Y-86179078D01*
X52097440Y-85710000D01*
X52064557Y-85535245D01*
X52138818Y-85460984D01*
X53580590Y-85460984D01*
X54300000Y-86180395D01*
X55019410Y-85460984D01*
X54963729Y-85230389D01*
X54480922Y-85062378D01*
X53970572Y-85091917D01*
X53636271Y-85230389D01*
X53580590Y-85460984D01*
X52138818Y-85460984D01*
X52859052Y-84740750D01*
X59625000Y-84740750D01*
X59625000Y-85281309D01*
X59721673Y-85514698D01*
X59900301Y-85693327D01*
X60133690Y-85790000D01*
X60674250Y-85790000D01*
X60833000Y-85631250D01*
X60833000Y-84582000D01*
X59783750Y-84582000D01*
X59625000Y-84740750D01*
X52859052Y-84740750D01*
X53971111Y-83628691D01*
X59625000Y-83628691D01*
X59625000Y-84169250D01*
X59783750Y-84328000D01*
X60833000Y-84328000D01*
X60833000Y-83278750D01*
X60674250Y-83120000D01*
X60133690Y-83120000D01*
X59900301Y-83216673D01*
X59721673Y-83395302D01*
X59625000Y-83628691D01*
X53971111Y-83628691D01*
X56023918Y-81575885D01*
X56188453Y-81644206D01*
X56838694Y-81644774D01*
X57439655Y-81396462D01*
X57899846Y-80937073D01*
X58149206Y-80336547D01*
X58149774Y-79686306D01*
X57901462Y-79085345D01*
X57442073Y-78625154D01*
X56841547Y-78375794D01*
X56191306Y-78375226D01*
X55590345Y-78623538D01*
X55130154Y-79082927D01*
X55060779Y-79250000D01*
X54289802Y-79250000D01*
X50293688Y-75253886D01*
X50358113Y-74930000D01*
X50248880Y-74380849D01*
X49937811Y-73915302D01*
X49555725Y-73660000D01*
X49937811Y-73404698D01*
X50248880Y-72939151D01*
X50358113Y-72390000D01*
X50248880Y-71840849D01*
X49937811Y-71375302D01*
X49555725Y-71120000D01*
X49937811Y-70864698D01*
X50107995Y-70610000D01*
X53660198Y-70610000D01*
X55116312Y-72066114D01*
X55051887Y-72390000D01*
X55161120Y-72939151D01*
X55472189Y-73404698D01*
X55854275Y-73660000D01*
X55472189Y-73915302D01*
X55161120Y-74380849D01*
X55051887Y-74930000D01*
X55161120Y-75479151D01*
X55472189Y-75944698D01*
X55937736Y-76255767D01*
X56486887Y-76365000D01*
X56543113Y-76365000D01*
X56820102Y-76309904D01*
X59646725Y-79136527D01*
X59625232Y-79188287D01*
X59624769Y-79719383D01*
X59827582Y-80210229D01*
X60202796Y-80586098D01*
X60693287Y-80789768D01*
X61224383Y-80790231D01*
X61715229Y-80587418D01*
X62091098Y-80212204D01*
X62105000Y-80178724D01*
X62105000Y-83301974D01*
X62019699Y-83216673D01*
X61786310Y-83120000D01*
X61245750Y-83120000D01*
X61087000Y-83278750D01*
X61087000Y-84328000D01*
X61107000Y-84328000D01*
X61107000Y-84582000D01*
X61087000Y-84582000D01*
X61087000Y-85631250D01*
X61245750Y-85790000D01*
X61786310Y-85790000D01*
X62019699Y-85693327D01*
X62105000Y-85608026D01*
X62105000Y-86045198D01*
X60010198Y-88140000D01*
X59874496Y-88140000D01*
X59806462Y-87975345D01*
X59347073Y-87515154D01*
X58746547Y-87265794D01*
X58096306Y-87265226D01*
X57495345Y-87513538D01*
X57035154Y-87972927D01*
X56785794Y-88573453D01*
X56785226Y-89223694D01*
X57033538Y-89824655D01*
X57492927Y-90284846D01*
X58093453Y-90534206D01*
X58743694Y-90534774D01*
X59344655Y-90286462D01*
X59804846Y-89827073D01*
X59874221Y-89660000D01*
X60325000Y-89660000D01*
X60615839Y-89602148D01*
X60862401Y-89437401D01*
X61076108Y-89223694D01*
X66945226Y-89223694D01*
X67193538Y-89824655D01*
X67652927Y-90284846D01*
X68253453Y-90534206D01*
X68903694Y-90534774D01*
X69504655Y-90286462D01*
X69964846Y-89827073D01*
X70214206Y-89226547D01*
X70214243Y-89183210D01*
X71540890Y-89183210D01*
X71540890Y-89873400D01*
X71637563Y-90106789D01*
X71816192Y-90285417D01*
X72049581Y-90382090D01*
X72739770Y-90382090D01*
X72898520Y-90223340D01*
X72898520Y-89024460D01*
X73152520Y-89024460D01*
X73152520Y-90223340D01*
X73311270Y-90382090D01*
X74001459Y-90382090D01*
X74234848Y-90285417D01*
X74413477Y-90106789D01*
X74510150Y-89873400D01*
X74510150Y-89183210D01*
X74351400Y-89024460D01*
X73152520Y-89024460D01*
X72898520Y-89024460D01*
X71699640Y-89024460D01*
X71540890Y-89183210D01*
X70214243Y-89183210D01*
X70214774Y-88576306D01*
X69966462Y-87975345D01*
X69912731Y-87921520D01*
X71540890Y-87921520D01*
X71540890Y-88611710D01*
X71699640Y-88770460D01*
X72898520Y-88770460D01*
X72898520Y-87571580D01*
X72739770Y-87412830D01*
X72049581Y-87412830D01*
X71816192Y-87509503D01*
X71637563Y-87688131D01*
X71540890Y-87921520D01*
X69912731Y-87921520D01*
X69507073Y-87515154D01*
X68906547Y-87265794D01*
X68256306Y-87265226D01*
X67655345Y-87513538D01*
X67195154Y-87972927D01*
X66945794Y-88573453D01*
X66945226Y-89223694D01*
X61076108Y-89223694D01*
X63402401Y-86897401D01*
X63567148Y-86650840D01*
X63589274Y-86539605D01*
X63625000Y-86360000D01*
X63625000Y-78105000D01*
X63567148Y-77814161D01*
X63533448Y-77763725D01*
X64833007Y-77763725D01*
X64955661Y-77978000D01*
X66548000Y-77978000D01*
X66548000Y-76719430D01*
X66048890Y-76719430D01*
X65528323Y-76873501D01*
X65106342Y-77215056D01*
X64847190Y-77692097D01*
X64833007Y-77763725D01*
X63533448Y-77763725D01*
X63402401Y-77567599D01*
X62335853Y-76501051D01*
X62344846Y-76492073D01*
X62594206Y-75891547D01*
X62594774Y-75241306D01*
X62346462Y-74640345D01*
X61887073Y-74180154D01*
X61720000Y-74110779D01*
X61720000Y-71755000D01*
X61662148Y-71464161D01*
X61497401Y-71217599D01*
X59592401Y-69312599D01*
X59345839Y-69147852D01*
X59055000Y-69090000D01*
X57727995Y-69090000D01*
X57557811Y-68835302D01*
X57175725Y-68580000D01*
X57198174Y-68565000D01*
X64742560Y-68565000D01*
X64742560Y-69865000D01*
X64786838Y-70100317D01*
X64925910Y-70316441D01*
X65138110Y-70461431D01*
X65280000Y-70490164D01*
X65280000Y-71120000D01*
X65337852Y-71410839D01*
X65502599Y-71657401D01*
X68455000Y-74609802D01*
X68455000Y-77604089D01*
X68243658Y-77215056D01*
X67821677Y-76873501D01*
X67301110Y-76719430D01*
X66802000Y-76719430D01*
X66802000Y-77978000D01*
X66822000Y-77978000D01*
X66822000Y-78232000D01*
X66802000Y-78232000D01*
X66802000Y-78252000D01*
X66548000Y-78252000D01*
X66548000Y-78232000D01*
X64955661Y-78232000D01*
X64833007Y-78446275D01*
X64847190Y-78517903D01*
X65106342Y-78994944D01*
X65528323Y-79336499D01*
X65618032Y-79363050D01*
X65608732Y-79364900D01*
X65159221Y-79665254D01*
X64858867Y-80114765D01*
X64753397Y-80645000D01*
X64858867Y-81175235D01*
X65159221Y-81624746D01*
X65593616Y-81915000D01*
X65159221Y-82205254D01*
X64858867Y-82654765D01*
X64753397Y-83185000D01*
X64858867Y-83715235D01*
X65159221Y-84164746D01*
X65608732Y-84465100D01*
X66138967Y-84570570D01*
X67211033Y-84570570D01*
X67741268Y-84465100D01*
X68190779Y-84164746D01*
X68491133Y-83715235D01*
X68596603Y-83185000D01*
X68491133Y-82654765D01*
X68190779Y-82205254D01*
X67756384Y-81915000D01*
X67986463Y-81761265D01*
X73638028Y-87412830D01*
X73311270Y-87412830D01*
X73152520Y-87571580D01*
X73152520Y-88770460D01*
X74351400Y-88770460D01*
X74510150Y-88611710D01*
X74510150Y-88284952D01*
X76932599Y-90707401D01*
X77179160Y-90872148D01*
X77470000Y-90930000D01*
X86185352Y-90930000D01*
X86385585Y-91229670D01*
X86871766Y-91554526D01*
X87445255Y-91668600D01*
X87814745Y-91668600D01*
X88388234Y-91554526D01*
X88874415Y-91229670D01*
X89199271Y-90743489D01*
X89313345Y-90170000D01*
X89199271Y-89596511D01*
X88874415Y-89110330D01*
X88559634Y-88900000D01*
X88874415Y-88689670D01*
X89199271Y-88203489D01*
X89313345Y-87630000D01*
X89199271Y-87056511D01*
X88874415Y-86570330D01*
X88559634Y-86360000D01*
X88874415Y-86149670D01*
X89199271Y-85663489D01*
X89313345Y-85090000D01*
X89199271Y-84516511D01*
X88874415Y-84030330D01*
X88559634Y-83820000D01*
X88874415Y-83609670D01*
X89199271Y-83123489D01*
X89313345Y-82550000D01*
X89199271Y-81976511D01*
X88874415Y-81490330D01*
X88559634Y-81280000D01*
X88874415Y-81069670D01*
X89199271Y-80583489D01*
X89313345Y-80010000D01*
X89199271Y-79436511D01*
X88874415Y-78950330D01*
X88559634Y-78740000D01*
X88874415Y-78529670D01*
X89199271Y-78043489D01*
X89313345Y-77470000D01*
X89199271Y-76896511D01*
X88874415Y-76410330D01*
X88559634Y-76200000D01*
X88874415Y-75989670D01*
X89199271Y-75503489D01*
X89313345Y-74930000D01*
X89199271Y-74356511D01*
X88874415Y-73870330D01*
X88559634Y-73660000D01*
X88874415Y-73449670D01*
X89199271Y-72963489D01*
X89313345Y-72390000D01*
X89199271Y-71816511D01*
X88874415Y-71330330D01*
X88559634Y-71120000D01*
X88874415Y-70909670D01*
X89199271Y-70423489D01*
X89313345Y-69850000D01*
X89199271Y-69276511D01*
X88874415Y-68790330D01*
X88559634Y-68580000D01*
X88874415Y-68369670D01*
X89199271Y-67883489D01*
X89313345Y-67310000D01*
X89199271Y-66736511D01*
X88874415Y-66250330D01*
X88559634Y-66040000D01*
X88874415Y-65829670D01*
X89199271Y-65343489D01*
X89313345Y-64770000D01*
X89199271Y-64196511D01*
X88874415Y-63710330D01*
X88559634Y-63500000D01*
X88874415Y-63289670D01*
X89199271Y-62803489D01*
X89313345Y-62230000D01*
X89199271Y-61656511D01*
X88874415Y-61170330D01*
X88559634Y-60960000D01*
X88874415Y-60749670D01*
X89199271Y-60263489D01*
X89313345Y-59690000D01*
X89199271Y-59116511D01*
X88874415Y-58630330D01*
X88559634Y-58420000D01*
X88874415Y-58209670D01*
X89199271Y-57723489D01*
X89313345Y-57150000D01*
X89199271Y-56576511D01*
X88874415Y-56090330D01*
X88559634Y-55880000D01*
X88874415Y-55669670D01*
X89199271Y-55183489D01*
X89313345Y-54610000D01*
X89199271Y-54036511D01*
X88874415Y-53550330D01*
X88559634Y-53340000D01*
X88874415Y-53129670D01*
X89199271Y-52643489D01*
X89313345Y-52070000D01*
X89199271Y-51496511D01*
X88874415Y-51010330D01*
X88559634Y-50800000D01*
X88874415Y-50589670D01*
X89199271Y-50103489D01*
X89313345Y-49530000D01*
X89199271Y-48956511D01*
X88874415Y-48470330D01*
X88559634Y-48260000D01*
X88874415Y-48049670D01*
X89199271Y-47563489D01*
X89313345Y-46990000D01*
X89199271Y-46416511D01*
X88874415Y-45930330D01*
X88852220Y-45915500D01*
X89005699Y-45851927D01*
X89184327Y-45673298D01*
X89281000Y-45439909D01*
X89281000Y-44735750D01*
X89122250Y-44577000D01*
X87757000Y-44577000D01*
X87757000Y-44597000D01*
X87503000Y-44597000D01*
X87503000Y-44577000D01*
X86137750Y-44577000D01*
X85979000Y-44735750D01*
X85979000Y-45439909D01*
X86075673Y-45673298D01*
X86254301Y-45851927D01*
X86407780Y-45915500D01*
X86385585Y-45930330D01*
X86060729Y-46416511D01*
X85946655Y-46990000D01*
X86060729Y-47563489D01*
X86385585Y-48049670D01*
X86700366Y-48260000D01*
X86385585Y-48470330D01*
X86060729Y-48956511D01*
X85946655Y-49530000D01*
X86060729Y-50103489D01*
X86385585Y-50589670D01*
X86700366Y-50800000D01*
X86385585Y-51010330D01*
X86060729Y-51496511D01*
X85946655Y-52070000D01*
X86060729Y-52643489D01*
X86385585Y-53129670D01*
X86700366Y-53340000D01*
X86385585Y-53550330D01*
X86060729Y-54036511D01*
X85946655Y-54610000D01*
X86060729Y-55183489D01*
X86385585Y-55669670D01*
X86700366Y-55880000D01*
X86385585Y-56090330D01*
X86060729Y-56576511D01*
X85946655Y-57150000D01*
X86060729Y-57723489D01*
X86385585Y-58209670D01*
X86700366Y-58420000D01*
X86385585Y-58630330D01*
X86060729Y-59116511D01*
X85946655Y-59690000D01*
X86060729Y-60263489D01*
X86385585Y-60749670D01*
X86700366Y-60960000D01*
X86385585Y-61170330D01*
X86060729Y-61656511D01*
X85971519Y-62105000D01*
X78217006Y-62105000D01*
X77888845Y-61776265D01*
X77416724Y-61580223D01*
X76905519Y-61579777D01*
X76433057Y-61774995D01*
X76071265Y-62136155D01*
X75875223Y-62608276D01*
X75874777Y-63119481D01*
X76069995Y-63591943D01*
X76431155Y-63953735D01*
X76903276Y-64149777D01*
X77414481Y-64150223D01*
X77886943Y-63955005D01*
X78217525Y-63625000D01*
X86513290Y-63625000D01*
X86385585Y-63710330D01*
X86060729Y-64196511D01*
X85946655Y-64770000D01*
X86060729Y-65343489D01*
X86385585Y-65829670D01*
X86700366Y-66040000D01*
X86385585Y-66250330D01*
X86060729Y-66736511D01*
X85946655Y-67310000D01*
X86060729Y-67883489D01*
X86385585Y-68369670D01*
X86700366Y-68580000D01*
X86385585Y-68790330D01*
X86060729Y-69276511D01*
X85946655Y-69850000D01*
X86060729Y-70423489D01*
X86385585Y-70909670D01*
X86700366Y-71120000D01*
X86385585Y-71330330D01*
X86060729Y-71816511D01*
X85946655Y-72390000D01*
X86060729Y-72963489D01*
X86385585Y-73449670D01*
X86700366Y-73660000D01*
X86385585Y-73870330D01*
X86060729Y-74356511D01*
X85946655Y-74930000D01*
X86060729Y-75503489D01*
X86385585Y-75989670D01*
X86700366Y-76200000D01*
X86385585Y-76410330D01*
X86060729Y-76896511D01*
X85946655Y-77470000D01*
X86060729Y-78043489D01*
X86385585Y-78529670D01*
X86700366Y-78740000D01*
X86385585Y-78950330D01*
X86060729Y-79436511D01*
X85946655Y-80010000D01*
X86060729Y-80583489D01*
X86385585Y-81069670D01*
X86700366Y-81280000D01*
X86385585Y-81490330D01*
X86060729Y-81976511D01*
X85946655Y-82550000D01*
X86060729Y-83123489D01*
X86385585Y-83609670D01*
X86700366Y-83820000D01*
X86385585Y-84030330D01*
X86060729Y-84516511D01*
X85982848Y-84908046D01*
X85215000Y-84140198D01*
X85215000Y-75565000D01*
X85157148Y-75274161D01*
X84992401Y-75027599D01*
X83000000Y-73035198D01*
X83000000Y-71542006D01*
X83328735Y-71213845D01*
X83524777Y-70741724D01*
X83525223Y-70230519D01*
X83330005Y-69758057D01*
X82968845Y-69396265D01*
X82496724Y-69200223D01*
X81985519Y-69199777D01*
X81513057Y-69394995D01*
X81151265Y-69756155D01*
X80955223Y-70228276D01*
X80954777Y-70739481D01*
X81149995Y-71211943D01*
X81480000Y-71542525D01*
X81480000Y-73350000D01*
X81537852Y-73640839D01*
X81702599Y-73887401D01*
X83695000Y-75879802D01*
X83695000Y-84455000D01*
X83752852Y-84745839D01*
X83917599Y-84992401D01*
X85160198Y-86235000D01*
X80959802Y-86235000D01*
X78652371Y-83927569D01*
X78740000Y-83945000D01*
X78982391Y-83945000D01*
X79129221Y-84164746D01*
X79578732Y-84465100D01*
X80108967Y-84570570D01*
X81181033Y-84570570D01*
X81711268Y-84465100D01*
X82160779Y-84164746D01*
X82461133Y-83715235D01*
X82566603Y-83185000D01*
X82461133Y-82654765D01*
X82160779Y-82205254D01*
X81726384Y-81915000D01*
X82160779Y-81624746D01*
X82461133Y-81175235D01*
X82566603Y-80645000D01*
X82461133Y-80114765D01*
X82160779Y-79665254D01*
X81711268Y-79364900D01*
X81701968Y-79363050D01*
X81791677Y-79336499D01*
X82213658Y-78994944D01*
X82472810Y-78517903D01*
X82486993Y-78446275D01*
X82364339Y-78232000D01*
X80772000Y-78232000D01*
X80772000Y-78252000D01*
X80518000Y-78252000D01*
X80518000Y-78232000D01*
X78925661Y-78232000D01*
X78803007Y-78446275D01*
X78817190Y-78517903D01*
X79076342Y-78994944D01*
X79498323Y-79336499D01*
X79588032Y-79363050D01*
X79578732Y-79364900D01*
X79129221Y-79665254D01*
X79011395Y-79841593D01*
X76960000Y-77790198D01*
X76960000Y-77763725D01*
X78803007Y-77763725D01*
X78925661Y-77978000D01*
X80518000Y-77978000D01*
X80518000Y-76719430D01*
X80772000Y-76719430D01*
X80772000Y-77978000D01*
X82364339Y-77978000D01*
X82486993Y-77763725D01*
X82472810Y-77692097D01*
X82213658Y-77215056D01*
X81791677Y-76873501D01*
X81271110Y-76719430D01*
X80772000Y-76719430D01*
X80518000Y-76719430D01*
X80018890Y-76719430D01*
X79498323Y-76873501D01*
X79076342Y-77215056D01*
X78817190Y-77692097D01*
X78803007Y-77763725D01*
X76960000Y-77763725D01*
X76960000Y-71751940D01*
X76902148Y-71461101D01*
X76737401Y-71214539D01*
X76293612Y-70770750D01*
X77455000Y-70770750D01*
X77455000Y-71261310D01*
X77551673Y-71494699D01*
X77730302Y-71673327D01*
X77963691Y-71770000D01*
X78454250Y-71770000D01*
X78613000Y-71611250D01*
X78613000Y-70612000D01*
X78867000Y-70612000D01*
X78867000Y-71611250D01*
X79025750Y-71770000D01*
X79516309Y-71770000D01*
X79749698Y-71673327D01*
X79928327Y-71494699D01*
X80025000Y-71261310D01*
X80025000Y-70770750D01*
X79866250Y-70612000D01*
X78867000Y-70612000D01*
X78613000Y-70612000D01*
X77613750Y-70612000D01*
X77455000Y-70770750D01*
X76293612Y-70770750D01*
X75231552Y-69708690D01*
X77455000Y-69708690D01*
X77455000Y-70199250D01*
X77613750Y-70358000D01*
X78613000Y-70358000D01*
X78613000Y-69358750D01*
X78867000Y-69358750D01*
X78867000Y-70358000D01*
X79866250Y-70358000D01*
X80025000Y-70199250D01*
X80025000Y-69708690D01*
X79928327Y-69475301D01*
X79749698Y-69296673D01*
X79516309Y-69200000D01*
X79025750Y-69200000D01*
X78867000Y-69358750D01*
X78613000Y-69358750D01*
X78454250Y-69200000D01*
X77963691Y-69200000D01*
X77730302Y-69296673D01*
X77551673Y-69475301D01*
X77455000Y-69708690D01*
X75231552Y-69708690D01*
X68673612Y-63150750D01*
X72375000Y-63150750D01*
X72375000Y-63641310D01*
X72471673Y-63874699D01*
X72650302Y-64053327D01*
X72883691Y-64150000D01*
X73374250Y-64150000D01*
X73533000Y-63991250D01*
X73533000Y-62992000D01*
X73787000Y-62992000D01*
X73787000Y-63991250D01*
X73945750Y-64150000D01*
X74436309Y-64150000D01*
X74669698Y-64053327D01*
X74848327Y-63874699D01*
X74945000Y-63641310D01*
X74945000Y-63150750D01*
X74786250Y-62992000D01*
X73787000Y-62992000D01*
X73533000Y-62992000D01*
X72533750Y-62992000D01*
X72375000Y-63150750D01*
X68673612Y-63150750D01*
X68126748Y-62603886D01*
X68159892Y-62524067D01*
X68159952Y-62454850D01*
X68526112Y-62088690D01*
X72375000Y-62088690D01*
X72375000Y-62579250D01*
X72533750Y-62738000D01*
X73533000Y-62738000D01*
X73533000Y-61738750D01*
X73787000Y-61738750D01*
X73787000Y-62738000D01*
X74786250Y-62738000D01*
X74945000Y-62579250D01*
X74945000Y-62088690D01*
X74848327Y-61855301D01*
X74669698Y-61676673D01*
X74436309Y-61580000D01*
X73945750Y-61580000D01*
X73787000Y-61738750D01*
X73533000Y-61738750D01*
X73374250Y-61580000D01*
X72883691Y-61580000D01*
X72650302Y-61676673D01*
X72471673Y-61855301D01*
X72375000Y-62088690D01*
X68526112Y-62088690D01*
X73252401Y-57362401D01*
X73417148Y-57115840D01*
X73475000Y-56825000D01*
X73475000Y-55032006D01*
X73803735Y-54703845D01*
X73999777Y-54231724D01*
X74000223Y-53720519D01*
X73805005Y-53248057D01*
X73443845Y-52886265D01*
X72971724Y-52690223D01*
X72460519Y-52689777D01*
X71988057Y-52884995D01*
X71626265Y-53246155D01*
X71430223Y-53718276D01*
X71429777Y-54229481D01*
X71624995Y-54701943D01*
X71955000Y-55032525D01*
X71955000Y-56510198D01*
X67502062Y-60963136D01*
X66972127Y-60743088D01*
X66381504Y-60742572D01*
X65835643Y-60968118D01*
X65417646Y-61385386D01*
X65191148Y-61930853D01*
X65190632Y-62521476D01*
X65416178Y-63067337D01*
X65833446Y-63485334D01*
X66378913Y-63711832D01*
X66969536Y-63712348D01*
X67051669Y-63678411D01*
X75440000Y-72066742D01*
X75440000Y-77604089D01*
X75228658Y-77215056D01*
X74806677Y-76873501D01*
X74286110Y-76719430D01*
X73787000Y-76719430D01*
X73787000Y-77978000D01*
X73807000Y-77978000D01*
X73807000Y-78232000D01*
X73787000Y-78232000D01*
X73787000Y-78252000D01*
X73533000Y-78252000D01*
X73533000Y-78232000D01*
X71940661Y-78232000D01*
X71818007Y-78446275D01*
X71832190Y-78517903D01*
X72091342Y-78994944D01*
X72513323Y-79336499D01*
X72603032Y-79363050D01*
X72593732Y-79364900D01*
X72144221Y-79665254D01*
X71843867Y-80114765D01*
X71738397Y-80645000D01*
X71843867Y-81175235D01*
X72144221Y-81624746D01*
X72578616Y-81915000D01*
X72144221Y-82205254D01*
X71843867Y-82654765D01*
X71738397Y-83185000D01*
X71782742Y-83407940D01*
X68491522Y-80116720D01*
X68491133Y-80114765D01*
X68406580Y-79988222D01*
X69752401Y-78642401D01*
X69917148Y-78395840D01*
X69939274Y-78284605D01*
X69975000Y-78105000D01*
X69975000Y-77763725D01*
X71818007Y-77763725D01*
X71940661Y-77978000D01*
X73533000Y-77978000D01*
X73533000Y-76719430D01*
X73033890Y-76719430D01*
X72513323Y-76873501D01*
X72091342Y-77215056D01*
X71832190Y-77692097D01*
X71818007Y-77763725D01*
X69975000Y-77763725D01*
X69975000Y-74295000D01*
X69917148Y-74004161D01*
X69752401Y-73757599D01*
X66800000Y-70805198D01*
X66800000Y-70491742D01*
X66925317Y-70468162D01*
X67141441Y-70329090D01*
X67286431Y-70116890D01*
X67287012Y-70114016D01*
X68820590Y-70114016D01*
X68876271Y-70344611D01*
X69359078Y-70512622D01*
X69869428Y-70483083D01*
X70203729Y-70344611D01*
X70259410Y-70114016D01*
X69540000Y-69394605D01*
X68820590Y-70114016D01*
X67287012Y-70114016D01*
X67337440Y-69865000D01*
X67337440Y-69034078D01*
X68242378Y-69034078D01*
X68271917Y-69544428D01*
X68410389Y-69878729D01*
X68640984Y-69934410D01*
X69360395Y-69215000D01*
X69719605Y-69215000D01*
X70439016Y-69934410D01*
X70669611Y-69878729D01*
X70837622Y-69395922D01*
X70808083Y-68885572D01*
X70669611Y-68551271D01*
X70439016Y-68495590D01*
X69719605Y-69215000D01*
X69360395Y-69215000D01*
X68640984Y-68495590D01*
X68410389Y-68551271D01*
X68242378Y-69034078D01*
X67337440Y-69034078D01*
X67337440Y-68565000D01*
X67293162Y-68329683D01*
X67284347Y-68315984D01*
X68820590Y-68315984D01*
X69540000Y-69035395D01*
X70259410Y-68315984D01*
X70203729Y-68085389D01*
X69720922Y-67917378D01*
X69210572Y-67946917D01*
X68876271Y-68085389D01*
X68820590Y-68315984D01*
X67284347Y-68315984D01*
X67154090Y-68113559D01*
X66941890Y-67968569D01*
X66690000Y-67917560D01*
X65390000Y-67917560D01*
X65154683Y-67961838D01*
X64938559Y-68100910D01*
X64793569Y-68313110D01*
X64742560Y-68565000D01*
X57198174Y-68565000D01*
X57557811Y-68324698D01*
X57727995Y-68070000D01*
X59055000Y-68070000D01*
X59345839Y-68012148D01*
X59592401Y-67847401D01*
X60468917Y-66970885D01*
X60633453Y-67039206D01*
X61283694Y-67039774D01*
X61884655Y-66791462D01*
X62344846Y-66332073D01*
X62594206Y-65731547D01*
X62594774Y-65081306D01*
X62346462Y-64480345D01*
X61887073Y-64020154D01*
X61286547Y-63770794D01*
X60636306Y-63770226D01*
X60035345Y-64018538D01*
X59575154Y-64477927D01*
X59325794Y-65078453D01*
X59325226Y-65728694D01*
X59394309Y-65895889D01*
X58740198Y-66550000D01*
X57727995Y-66550000D01*
X57557811Y-66295302D01*
X57092264Y-65984233D01*
X56543113Y-65875000D01*
X56486887Y-65875000D01*
X55937736Y-65984233D01*
X55472189Y-66295302D01*
X55161120Y-66760849D01*
X55051887Y-67310000D01*
X55161120Y-67859151D01*
X55472189Y-68324698D01*
X55854275Y-68580000D01*
X55472189Y-68835302D01*
X55161120Y-69300849D01*
X55051887Y-69850000D01*
X55052405Y-69852603D01*
X54512401Y-69312599D01*
X54265839Y-69147852D01*
X53975000Y-69090000D01*
X53385000Y-69090000D01*
X53385000Y-61452655D01*
X53459955Y-61377830D01*
X55018450Y-61377830D01*
X55018450Y-63077090D01*
X55062728Y-63312407D01*
X55201800Y-63528531D01*
X55414000Y-63673521D01*
X55665890Y-63724530D01*
X57365150Y-63724530D01*
X57600467Y-63680252D01*
X57816591Y-63541180D01*
X57961581Y-63328980D01*
X58012590Y-63077090D01*
X58012590Y-62987460D01*
X60327540Y-62987460D01*
X60618379Y-62929608D01*
X60864941Y-62764861D01*
X63817342Y-59812460D01*
X65383173Y-59812460D01*
X65416178Y-59892337D01*
X65833446Y-60310334D01*
X66378913Y-60536832D01*
X66969536Y-60537348D01*
X67515397Y-60311802D01*
X67933394Y-59894534D01*
X68159892Y-59349067D01*
X68160408Y-58758444D01*
X67934862Y-58212583D01*
X67517594Y-57794586D01*
X67125000Y-57631567D01*
X67125000Y-54260750D01*
X67930000Y-54260750D01*
X67930000Y-54751310D01*
X68026673Y-54984699D01*
X68205302Y-55163327D01*
X68438691Y-55260000D01*
X68929250Y-55260000D01*
X69088000Y-55101250D01*
X69088000Y-54102000D01*
X69342000Y-54102000D01*
X69342000Y-55101250D01*
X69500750Y-55260000D01*
X69991309Y-55260000D01*
X70224698Y-55163327D01*
X70403327Y-54984699D01*
X70500000Y-54751310D01*
X70500000Y-54260750D01*
X70341250Y-54102000D01*
X69342000Y-54102000D01*
X69088000Y-54102000D01*
X68088750Y-54102000D01*
X67930000Y-54260750D01*
X67125000Y-54260750D01*
X67125000Y-53198690D01*
X67930000Y-53198690D01*
X67930000Y-53689250D01*
X68088750Y-53848000D01*
X69088000Y-53848000D01*
X69088000Y-52848750D01*
X69342000Y-52848750D01*
X69342000Y-53848000D01*
X70341250Y-53848000D01*
X70500000Y-53689250D01*
X70500000Y-53198690D01*
X70403327Y-52965301D01*
X70224698Y-52786673D01*
X69991309Y-52690000D01*
X69500750Y-52690000D01*
X69342000Y-52848750D01*
X69088000Y-52848750D01*
X68929250Y-52690000D01*
X68438691Y-52690000D01*
X68205302Y-52786673D01*
X68026673Y-52965301D01*
X67930000Y-53198690D01*
X67125000Y-53198690D01*
X67125000Y-48047006D01*
X67453735Y-47718845D01*
X67649777Y-47246724D01*
X67650223Y-46735519D01*
X67455005Y-46263057D01*
X67093845Y-45901265D01*
X66621724Y-45705223D01*
X66110519Y-45704777D01*
X65638057Y-45899995D01*
X65276265Y-46261155D01*
X65080223Y-46733276D01*
X65079777Y-47244481D01*
X65274995Y-47716943D01*
X65605000Y-48047525D01*
X65605000Y-58023359D01*
X65417646Y-58210386D01*
X65383566Y-58292460D01*
X63502540Y-58292460D01*
X63211701Y-58350312D01*
X62965139Y-58515059D01*
X60012738Y-61467460D01*
X58012590Y-61467460D01*
X58012590Y-61377830D01*
X57968312Y-61142513D01*
X57829240Y-60926389D01*
X57617040Y-60781399D01*
X57365150Y-60730390D01*
X55665890Y-60730390D01*
X55430573Y-60774668D01*
X55214449Y-60913740D01*
X55069459Y-61125940D01*
X55018450Y-61377830D01*
X53459955Y-61377830D01*
X53756098Y-61082204D01*
X53959768Y-60591713D01*
X53960231Y-60060617D01*
X53757418Y-59569771D01*
X53526261Y-59338210D01*
X55030890Y-59338210D01*
X55030890Y-60028400D01*
X55127563Y-60261789D01*
X55306192Y-60440417D01*
X55539581Y-60537090D01*
X56229770Y-60537090D01*
X56388520Y-60378340D01*
X56388520Y-59179460D01*
X56642520Y-59179460D01*
X56642520Y-60378340D01*
X56801270Y-60537090D01*
X57491459Y-60537090D01*
X57724848Y-60440417D01*
X57903477Y-60261789D01*
X58000150Y-60028400D01*
X58000150Y-59338210D01*
X57841400Y-59179460D01*
X56642520Y-59179460D01*
X56388520Y-59179460D01*
X55189640Y-59179460D01*
X55030890Y-59338210D01*
X53526261Y-59338210D01*
X53382204Y-59193902D01*
X52891713Y-58990232D01*
X52360617Y-58989769D01*
X51869771Y-59192582D01*
X51560000Y-59501813D01*
X51560000Y-58734802D01*
X52218282Y-58076520D01*
X55030890Y-58076520D01*
X55030890Y-58766710D01*
X55189640Y-58925460D01*
X56388520Y-58925460D01*
X56388520Y-57726580D01*
X56642520Y-57726580D01*
X56642520Y-58925460D01*
X57841400Y-58925460D01*
X58000150Y-58766710D01*
X58000150Y-58076520D01*
X57903477Y-57843131D01*
X57724848Y-57664503D01*
X57491459Y-57567830D01*
X56801270Y-57567830D01*
X56642520Y-57726580D01*
X56388520Y-57726580D01*
X56229770Y-57567830D01*
X55539581Y-57567830D01*
X55306192Y-57664503D01*
X55127563Y-57843131D01*
X55030890Y-58076520D01*
X52218282Y-58076520D01*
X54289802Y-56005000D01*
X56330504Y-56005000D01*
X56398538Y-56169655D01*
X56857927Y-56629846D01*
X57458453Y-56879206D01*
X58108694Y-56879774D01*
X58709655Y-56631462D01*
X59169846Y-56172073D01*
X59419206Y-55571547D01*
X59419774Y-54921306D01*
X59171462Y-54320345D01*
X58712073Y-53860154D01*
X58111547Y-53610794D01*
X57461306Y-53610226D01*
X56860345Y-53858538D01*
X56400154Y-54317927D01*
X56330779Y-54485000D01*
X53975000Y-54485000D01*
X53684161Y-54542852D01*
X53437599Y-54707599D01*
X50262599Y-57882599D01*
X50097852Y-58129161D01*
X50040000Y-58420000D01*
X50040000Y-60645198D01*
X46452599Y-64232599D01*
X46287852Y-64479161D01*
X46230000Y-64770000D01*
X46230000Y-71120000D01*
X46287852Y-71410839D01*
X46452599Y-71657401D01*
X47493141Y-72697943D01*
X47541120Y-72939151D01*
X47852189Y-73404698D01*
X48234275Y-73660000D01*
X47852189Y-73915302D01*
X47541120Y-74380849D01*
X47431887Y-74930000D01*
X47541120Y-75479151D01*
X47852189Y-75944698D01*
X48317736Y-76255767D01*
X48866887Y-76365000D01*
X48923113Y-76365000D01*
X49200102Y-76309904D01*
X53437599Y-80547401D01*
X53684161Y-80712148D01*
X53975000Y-80770000D01*
X54680197Y-80770000D01*
X50387638Y-85062560D01*
X50150000Y-85062560D01*
X49914683Y-85106838D01*
X49698559Y-85245910D01*
X49553569Y-85458110D01*
X49502560Y-85710000D01*
X49502560Y-86582638D01*
X49215198Y-86870000D01*
X45156020Y-86870000D01*
X45095100Y-86563732D01*
X44794746Y-86114221D01*
X44345235Y-85813867D01*
X43815000Y-85708397D01*
X43284765Y-85813867D01*
X42835254Y-86114221D01*
X42534900Y-86563732D01*
X42533050Y-86573032D01*
X42506499Y-86483323D01*
X42164944Y-86061342D01*
X41687903Y-85802190D01*
X41616275Y-85788007D01*
X41402000Y-85910661D01*
X41148000Y-85910661D01*
X40933725Y-85788007D01*
X40862097Y-85802190D01*
X40385056Y-86061342D01*
X40043501Y-86483323D01*
X40016950Y-86573032D01*
X40015100Y-86563732D01*
X39714746Y-86114221D01*
X39265235Y-85813867D01*
X38860000Y-85733261D01*
X38860000Y-80333694D01*
X44720226Y-80333694D01*
X44968538Y-80934655D01*
X45427927Y-81394846D01*
X46028453Y-81644206D01*
X46678694Y-81644774D01*
X47279655Y-81396462D01*
X47739846Y-80937073D01*
X47989206Y-80336547D01*
X47989774Y-79686306D01*
X47741462Y-79085345D01*
X47282073Y-78625154D01*
X46681547Y-78375794D01*
X46031306Y-78375226D01*
X45430345Y-78623538D01*
X44970154Y-79082927D01*
X44720794Y-79683453D01*
X44720226Y-80333694D01*
X38860000Y-80333694D01*
X38860000Y-79381742D01*
X38985317Y-79358162D01*
X39201441Y-79219090D01*
X39346431Y-79006890D01*
X39347012Y-79004016D01*
X40880590Y-79004016D01*
X40936271Y-79234611D01*
X41419078Y-79402622D01*
X41929428Y-79373083D01*
X42263729Y-79234611D01*
X42319410Y-79004016D01*
X41600000Y-78284605D01*
X40880590Y-79004016D01*
X39347012Y-79004016D01*
X39397440Y-78755000D01*
X39397440Y-77924078D01*
X40302378Y-77924078D01*
X40331917Y-78434428D01*
X40470389Y-78768729D01*
X40700984Y-78824410D01*
X41420395Y-78105000D01*
X41779605Y-78105000D01*
X42499016Y-78824410D01*
X42729611Y-78768729D01*
X42897622Y-78285922D01*
X42868083Y-77775572D01*
X42729611Y-77441271D01*
X42499016Y-77385590D01*
X41779605Y-78105000D01*
X41420395Y-78105000D01*
X40700984Y-77385590D01*
X40470389Y-77441271D01*
X40302378Y-77924078D01*
X39397440Y-77924078D01*
X39397440Y-77882362D01*
X40073818Y-77205984D01*
X40880590Y-77205984D01*
X41600000Y-77925395D01*
X42319410Y-77205984D01*
X42263729Y-76975389D01*
X41780922Y-76807378D01*
X41270572Y-76836917D01*
X40936271Y-76975389D01*
X40880590Y-77205984D01*
X40073818Y-77205984D01*
X41812401Y-75467401D01*
X41977148Y-75220839D01*
X42035000Y-74930000D01*
X42035000Y-69921020D01*
X42341268Y-69860100D01*
X42790779Y-69559746D01*
X43091133Y-69110235D01*
X43196603Y-68580000D01*
X43091133Y-68049765D01*
X42790779Y-67600254D01*
X42341268Y-67299900D01*
X42331968Y-67298050D01*
X42421677Y-67271499D01*
X42843658Y-66929944D01*
X43102810Y-66452903D01*
X43116993Y-66381275D01*
X42994339Y-66167000D01*
X41402000Y-66167000D01*
X41402000Y-66187000D01*
X41148000Y-66187000D01*
X41148000Y-66167000D01*
X41128000Y-66167000D01*
X41128000Y-65913000D01*
X41148000Y-65913000D01*
X41148000Y-65893000D01*
X41402000Y-65893000D01*
X41402000Y-65913000D01*
X42994339Y-65913000D01*
X43116993Y-65698725D01*
X43102810Y-65627097D01*
X42843658Y-65150056D01*
X42421677Y-64808501D01*
X42331968Y-64781950D01*
X42341268Y-64780100D01*
X42790779Y-64479746D01*
X43091133Y-64030235D01*
X43196603Y-63500000D01*
X43091133Y-62969765D01*
X42790779Y-62520254D01*
X42341268Y-62219900D01*
X41811033Y-62114430D01*
X40964232Y-62114430D01*
X39907921Y-61058119D01*
X39661359Y-60893372D01*
X39370520Y-60835520D01*
X38964610Y-60835520D01*
X38964610Y-60745890D01*
X38939182Y-60610750D01*
X46290000Y-60610750D01*
X46290000Y-61151310D01*
X46386673Y-61384699D01*
X46565302Y-61563327D01*
X46798691Y-61660000D01*
X47339250Y-61660000D01*
X47498000Y-61501250D01*
X47498000Y-60452000D01*
X47752000Y-60452000D01*
X47752000Y-61501250D01*
X47910750Y-61660000D01*
X48451309Y-61660000D01*
X48684698Y-61563327D01*
X48863327Y-61384699D01*
X48960000Y-61151310D01*
X48960000Y-60610750D01*
X48801250Y-60452000D01*
X47752000Y-60452000D01*
X47498000Y-60452000D01*
X46448750Y-60452000D01*
X46290000Y-60610750D01*
X38939182Y-60610750D01*
X38920332Y-60510573D01*
X38781260Y-60294449D01*
X38569060Y-60149459D01*
X38317170Y-60098450D01*
X38227540Y-60098450D01*
X38227540Y-59498690D01*
X46290000Y-59498690D01*
X46290000Y-60039250D01*
X46448750Y-60198000D01*
X47498000Y-60198000D01*
X47498000Y-59148750D01*
X47752000Y-59148750D01*
X47752000Y-60198000D01*
X48801250Y-60198000D01*
X48960000Y-60039250D01*
X48960000Y-59498690D01*
X48863327Y-59265301D01*
X48684698Y-59086673D01*
X48451309Y-58990000D01*
X47910750Y-58990000D01*
X47752000Y-59148750D01*
X47498000Y-59148750D01*
X47339250Y-58990000D01*
X46798691Y-58990000D01*
X46565302Y-59086673D01*
X46386673Y-59265301D01*
X46290000Y-59498690D01*
X38227540Y-59498690D01*
X38227540Y-55907440D01*
X38750000Y-55907440D01*
X38985317Y-55863162D01*
X39201441Y-55724090D01*
X39346431Y-55511890D01*
X39347012Y-55509016D01*
X40880590Y-55509016D01*
X40936271Y-55739611D01*
X41419078Y-55907622D01*
X41929428Y-55878083D01*
X42263729Y-55739611D01*
X42304999Y-55568694D01*
X45990226Y-55568694D01*
X46238538Y-56169655D01*
X46697927Y-56629846D01*
X47298453Y-56879206D01*
X47948694Y-56879774D01*
X48549655Y-56631462D01*
X49009846Y-56172073D01*
X49259206Y-55571547D01*
X49259774Y-54921306D01*
X49011462Y-54320345D01*
X48552073Y-53860154D01*
X47951547Y-53610794D01*
X47301306Y-53610226D01*
X46700345Y-53858538D01*
X46240154Y-54317927D01*
X45990794Y-54918453D01*
X45990226Y-55568694D01*
X42304999Y-55568694D01*
X42319410Y-55509016D01*
X41600000Y-54789605D01*
X40880590Y-55509016D01*
X39347012Y-55509016D01*
X39397440Y-55260000D01*
X39397440Y-54429078D01*
X40302378Y-54429078D01*
X40331917Y-54939428D01*
X40470389Y-55273729D01*
X40700984Y-55329410D01*
X41420395Y-54610000D01*
X41779605Y-54610000D01*
X42499016Y-55329410D01*
X42729611Y-55273729D01*
X42897622Y-54790922D01*
X42868083Y-54280572D01*
X42729611Y-53946271D01*
X42499016Y-53890590D01*
X41779605Y-54610000D01*
X41420395Y-54610000D01*
X40700984Y-53890590D01*
X40470389Y-53946271D01*
X40302378Y-54429078D01*
X39397440Y-54429078D01*
X39397440Y-53960000D01*
X39364557Y-53785245D01*
X39438818Y-53710984D01*
X40880590Y-53710984D01*
X41600000Y-54430395D01*
X42319410Y-53710984D01*
X42263729Y-53480389D01*
X41780922Y-53312378D01*
X41270572Y-53341917D01*
X40936271Y-53480389D01*
X40880590Y-53710984D01*
X39438818Y-53710984D01*
X40954802Y-52195000D01*
X46170504Y-52195000D01*
X46238538Y-52359655D01*
X46697927Y-52819846D01*
X47298453Y-53069206D01*
X47948694Y-53069774D01*
X48549655Y-52821462D01*
X49009846Y-52362073D01*
X49259206Y-51761547D01*
X49259208Y-51758694D01*
X56150226Y-51758694D01*
X56398538Y-52359655D01*
X56857927Y-52819846D01*
X57458453Y-53069206D01*
X58108694Y-53069774D01*
X58709655Y-52821462D01*
X59169846Y-52362073D01*
X59419206Y-51761547D01*
X59419774Y-51111306D01*
X59171462Y-50510345D01*
X58712073Y-50050154D01*
X58111547Y-49800794D01*
X57461306Y-49800226D01*
X56860345Y-50048538D01*
X56400154Y-50507927D01*
X56150794Y-51108453D01*
X56150226Y-51758694D01*
X49259208Y-51758694D01*
X49259774Y-51111306D01*
X49011462Y-50510345D01*
X48552073Y-50050154D01*
X48385000Y-49980779D01*
X48385000Y-46706356D01*
X48671371Y-46420485D01*
X48859785Y-45966734D01*
X48860031Y-45684970D01*
X48930030Y-45685031D01*
X48929786Y-45964579D01*
X49117408Y-46418657D01*
X49464515Y-46766371D01*
X49918266Y-46954785D01*
X50409579Y-46955214D01*
X50799358Y-46794160D01*
X51532599Y-47527401D01*
X51779160Y-47692148D01*
X52070000Y-47750000D01*
X55880000Y-47750000D01*
X56170839Y-47692148D01*
X56417401Y-47527401D01*
X56989941Y-46954861D01*
X57310338Y-46955140D01*
X57882599Y-47527401D01*
X58129160Y-47692148D01*
X58420000Y-47750000D01*
X61588258Y-47750000D01*
X61611838Y-47875317D01*
X61750910Y-48091441D01*
X61963110Y-48236431D01*
X62215000Y-48287440D01*
X63515000Y-48287440D01*
X63750317Y-48243162D01*
X63966441Y-48104090D01*
X64111431Y-47891890D01*
X64162440Y-47640000D01*
X64162440Y-46340000D01*
X64118162Y-46104683D01*
X63979090Y-45888559D01*
X63766890Y-45743569D01*
X63515000Y-45692560D01*
X62215000Y-45692560D01*
X61979683Y-45736838D01*
X61763559Y-45875910D01*
X61618569Y-46088110D01*
X61589836Y-46230000D01*
X58734802Y-46230000D01*
X58384861Y-45880059D01*
X58385214Y-45475421D01*
X58197592Y-45021343D01*
X57850485Y-44673629D01*
X57396734Y-44485215D01*
X57114970Y-44484969D01*
X57115214Y-44205421D01*
X56927592Y-43751343D01*
X56636849Y-43460091D01*
X85979000Y-43460091D01*
X85979000Y-44164250D01*
X86137750Y-44323000D01*
X87503000Y-44323000D01*
X87503000Y-43110150D01*
X87757000Y-43110150D01*
X87757000Y-44323000D01*
X89122250Y-44323000D01*
X89281000Y-44164250D01*
X89281000Y-43460091D01*
X89184327Y-43226702D01*
X89005699Y-43048073D01*
X88772310Y-42951400D01*
X87915750Y-42951400D01*
X87757000Y-43110150D01*
X87503000Y-43110150D01*
X87344250Y-42951400D01*
X86487690Y-42951400D01*
X86254301Y-43048073D01*
X86075673Y-43226702D01*
X85979000Y-43460091D01*
X56636849Y-43460091D01*
X56580485Y-43403629D01*
X56126734Y-43215215D01*
X55635421Y-43214786D01*
X55181343Y-43402408D01*
X54893248Y-43690000D01*
X49881356Y-43690000D01*
X49595485Y-43403629D01*
X49141734Y-43215215D01*
X48650421Y-43214786D01*
X48196343Y-43402408D01*
X47908248Y-43690000D01*
X42261356Y-43690000D01*
X41975485Y-43403629D01*
X41521734Y-43215215D01*
X41030421Y-43214786D01*
X40576343Y-43402408D01*
X40228629Y-43749515D01*
X40040215Y-44203266D01*
X40039786Y-44694579D01*
X40227408Y-45148657D01*
X40574515Y-45496371D01*
X41028266Y-45684785D01*
X41310030Y-45685031D01*
X41309973Y-45750479D01*
X40953587Y-45772518D01*
X40641383Y-45901836D01*
X40591870Y-46127265D01*
X41275000Y-46810395D01*
X41289143Y-46796253D01*
X41468748Y-46975858D01*
X41454605Y-46990000D01*
X42137735Y-47673130D01*
X42363164Y-47623617D01*
X42522807Y-47158964D01*
X42510192Y-46954970D01*
X42789579Y-46955214D01*
X43243657Y-46767592D01*
X43591371Y-46420485D01*
X43779785Y-45966734D01*
X43780214Y-45475421D01*
X43670544Y-45210000D01*
X46499533Y-45210000D01*
X46390215Y-45473266D01*
X46389786Y-45964579D01*
X46577408Y-46418657D01*
X46865000Y-46706752D01*
X46865000Y-49980504D01*
X46700345Y-50048538D01*
X46240154Y-50507927D01*
X46170779Y-50675000D01*
X40640000Y-50675000D01*
X40397414Y-50723254D01*
X40349160Y-50732852D01*
X40102599Y-50897599D01*
X37687638Y-53312560D01*
X37450000Y-53312560D01*
X37214683Y-53356838D01*
X36998559Y-53495910D01*
X36853569Y-53708110D01*
X36802560Y-53960000D01*
X36802560Y-54895995D01*
X36765392Y-54951621D01*
X36707540Y-55242460D01*
X36707540Y-60098450D01*
X36617910Y-60098450D01*
X36382593Y-60142728D01*
X36320000Y-60183005D01*
X36320000Y-58420000D01*
X36297219Y-58305474D01*
X36262148Y-58129160D01*
X36097401Y-57882599D01*
X34827401Y-56612599D01*
X34580839Y-56447852D01*
X34491419Y-56430065D01*
X34264415Y-56090330D01*
X33949634Y-55880000D01*
X34264415Y-55669670D01*
X34589271Y-55183489D01*
X34703345Y-54610000D01*
X34589271Y-54036511D01*
X34264415Y-53550330D01*
X33949634Y-53340000D01*
X34264415Y-53129670D01*
X34589271Y-52643489D01*
X34703345Y-52070000D01*
X34589271Y-51496511D01*
X34264415Y-51010330D01*
X33949634Y-50800000D01*
X34264415Y-50589670D01*
X34589271Y-50103489D01*
X34703345Y-49530000D01*
X34589271Y-48956511D01*
X34264415Y-48470330D01*
X33949634Y-48260000D01*
X34264415Y-48049670D01*
X34396002Y-47852735D01*
X40591870Y-47852735D01*
X40641383Y-48078164D01*
X41106036Y-48237807D01*
X41596413Y-48207482D01*
X41908617Y-48078164D01*
X41958130Y-47852735D01*
X41275000Y-47169605D01*
X40591870Y-47852735D01*
X34396002Y-47852735D01*
X34589271Y-47563489D01*
X34703345Y-46990000D01*
X34669736Y-46821036D01*
X40027193Y-46821036D01*
X40057518Y-47311413D01*
X40186836Y-47623617D01*
X40412265Y-47673130D01*
X41095395Y-46990000D01*
X40412265Y-46306870D01*
X40186836Y-46356383D01*
X40027193Y-46821036D01*
X34669736Y-46821036D01*
X34589271Y-46416511D01*
X34264415Y-45930330D01*
X34242220Y-45915500D01*
X34395699Y-45851927D01*
X34574327Y-45673298D01*
X34671000Y-45439909D01*
X34671000Y-44735750D01*
X34512250Y-44577000D01*
X33147000Y-44577000D01*
X33147000Y-44597000D01*
X32893000Y-44597000D01*
X32893000Y-44577000D01*
X31527750Y-44577000D01*
X31369000Y-44735750D01*
X31369000Y-45439909D01*
X31465673Y-45673298D01*
X31644301Y-45851927D01*
X31797780Y-45915500D01*
X31775585Y-45930330D01*
X31450729Y-46416511D01*
X31336655Y-46990000D01*
X31190000Y-46990000D01*
X31190000Y-43460091D01*
X31369000Y-43460091D01*
X31369000Y-44164250D01*
X31527750Y-44323000D01*
X32893000Y-44323000D01*
X32893000Y-43110150D01*
X33147000Y-43110150D01*
X33147000Y-44323000D01*
X34512250Y-44323000D01*
X34671000Y-44164250D01*
X34671000Y-43460091D01*
X34574327Y-43226702D01*
X34395699Y-43048073D01*
X34162310Y-42951400D01*
X33305750Y-42951400D01*
X33147000Y-43110150D01*
X32893000Y-43110150D01*
X32734250Y-42951400D01*
X31877690Y-42951400D01*
X31644301Y-43048073D01*
X31465673Y-43226702D01*
X31369000Y-43460091D01*
X31190000Y-43460091D01*
X31190000Y-41350000D01*
X89460000Y-41350000D01*
X89460000Y-92000000D01*
X89460000Y-92000000D01*
G37*
X89460000Y-92000000D02*
X31190000Y-92000000D01*
X31190000Y-46990000D01*
X31336655Y-46990000D01*
X31450729Y-47563489D01*
X31775585Y-48049670D01*
X32090366Y-48260000D01*
X31775585Y-48470330D01*
X31450729Y-48956511D01*
X31336655Y-49530000D01*
X31450729Y-50103489D01*
X31775585Y-50589670D01*
X32090366Y-50800000D01*
X31775585Y-51010330D01*
X31450729Y-51496511D01*
X31336655Y-52070000D01*
X31450729Y-52643489D01*
X31775585Y-53129670D01*
X32090366Y-53340000D01*
X31775585Y-53550330D01*
X31450729Y-54036511D01*
X31336655Y-54610000D01*
X31450729Y-55183489D01*
X31775585Y-55669670D01*
X32090366Y-55880000D01*
X31775585Y-56090330D01*
X31450729Y-56576511D01*
X31336655Y-57150000D01*
X31450729Y-57723489D01*
X31775585Y-58209670D01*
X32090366Y-58420000D01*
X31775585Y-58630330D01*
X31450729Y-59116511D01*
X31336655Y-59690000D01*
X31450729Y-60263489D01*
X31775585Y-60749670D01*
X32090366Y-60960000D01*
X31775585Y-61170330D01*
X31450729Y-61656511D01*
X31336655Y-62230000D01*
X31450729Y-62803489D01*
X31775585Y-63289670D01*
X32090366Y-63500000D01*
X31775585Y-63710330D01*
X31450729Y-64196511D01*
X31336655Y-64770000D01*
X31450729Y-65343489D01*
X31775585Y-65829670D01*
X32090366Y-66040000D01*
X31775585Y-66250330D01*
X31450729Y-66736511D01*
X31336655Y-67310000D01*
X31450729Y-67883489D01*
X31775585Y-68369670D01*
X32090366Y-68580000D01*
X31775585Y-68790330D01*
X31450729Y-69276511D01*
X31336655Y-69850000D01*
X31450729Y-70423489D01*
X31775585Y-70909670D01*
X32090366Y-71120000D01*
X31775585Y-71330330D01*
X31450729Y-71816511D01*
X31336655Y-72390000D01*
X31450729Y-72963489D01*
X31775585Y-73449670D01*
X32090366Y-73660000D01*
X31775585Y-73870330D01*
X31450729Y-74356511D01*
X31336655Y-74930000D01*
X31450729Y-75503489D01*
X31775585Y-75989670D01*
X32090366Y-76200000D01*
X31775585Y-76410330D01*
X31450729Y-76896511D01*
X31336655Y-77470000D01*
X31450729Y-78043489D01*
X31775585Y-78529670D01*
X32090366Y-78740000D01*
X31775585Y-78950330D01*
X31450729Y-79436511D01*
X31336655Y-80010000D01*
X31450729Y-80583489D01*
X31775585Y-81069670D01*
X32090366Y-81280000D01*
X31775585Y-81490330D01*
X31450729Y-81976511D01*
X31336655Y-82550000D01*
X31450729Y-83123489D01*
X31775585Y-83609670D01*
X32090366Y-83820000D01*
X31775585Y-84030330D01*
X31450729Y-84516511D01*
X31336655Y-85090000D01*
X31450729Y-85663489D01*
X31775585Y-86149670D01*
X32090366Y-86360000D01*
X31775585Y-86570330D01*
X31450729Y-87056511D01*
X31336655Y-87630000D01*
X31450729Y-88203489D01*
X31775585Y-88689670D01*
X32090366Y-88900000D01*
X31775585Y-89110330D01*
X31450729Y-89596511D01*
X31336655Y-90170000D01*
X31450729Y-90743489D01*
X31775585Y-91229670D01*
X32261766Y-91554526D01*
X32835255Y-91668600D01*
X33204745Y-91668600D01*
X33778234Y-91554526D01*
X34264415Y-91229670D01*
X34589271Y-90743489D01*
X34703345Y-90170000D01*
X34589271Y-89596511D01*
X34264415Y-89110330D01*
X33949634Y-88900000D01*
X34264415Y-88689670D01*
X34589271Y-88203489D01*
X34703345Y-87630000D01*
X34589271Y-87056511D01*
X34264415Y-86570330D01*
X33949634Y-86360000D01*
X34264415Y-86149670D01*
X34589271Y-85663489D01*
X34703345Y-85090000D01*
X34589271Y-84516511D01*
X34264415Y-84030330D01*
X33949634Y-83820000D01*
X34264415Y-83609670D01*
X34589271Y-83123489D01*
X34703345Y-82550000D01*
X34589271Y-81976511D01*
X34264415Y-81490330D01*
X33949634Y-81280000D01*
X34264415Y-81069670D01*
X34589271Y-80583489D01*
X34703345Y-80010000D01*
X34589271Y-79436511D01*
X34264415Y-78950330D01*
X33949634Y-78740000D01*
X34264415Y-78529670D01*
X34589271Y-78043489D01*
X34703345Y-77470000D01*
X34589271Y-76896511D01*
X34264415Y-76410330D01*
X33949634Y-76200000D01*
X34264415Y-75989670D01*
X34589271Y-75503489D01*
X34703345Y-74930000D01*
X34589271Y-74356511D01*
X34264415Y-73870330D01*
X33949634Y-73660000D01*
X34264415Y-73449670D01*
X34464648Y-73150000D01*
X36833060Y-73150000D01*
X36915133Y-73133674D01*
X37170933Y-73239892D01*
X37761556Y-73240408D01*
X38307417Y-73014862D01*
X38725414Y-72597594D01*
X38951912Y-72052127D01*
X38952428Y-71461504D01*
X38726882Y-70915643D01*
X38309614Y-70497646D01*
X37764147Y-70271148D01*
X37173524Y-70270632D01*
X36627663Y-70496178D01*
X36209666Y-70913446D01*
X35983168Y-71458913D01*
X35983019Y-71630000D01*
X34464648Y-71630000D01*
X34264415Y-71330330D01*
X33949634Y-71120000D01*
X34264415Y-70909670D01*
X34589271Y-70423489D01*
X34703345Y-69850000D01*
X34589271Y-69276511D01*
X34264415Y-68790330D01*
X33949634Y-68580000D01*
X34264415Y-68369670D01*
X34589271Y-67883489D01*
X34703345Y-67310000D01*
X34589271Y-66736511D01*
X34264415Y-66250330D01*
X33949634Y-66040000D01*
X34264415Y-65829670D01*
X34589271Y-65343489D01*
X34703345Y-64770000D01*
X34589271Y-64196511D01*
X34264415Y-63710330D01*
X33949634Y-63500000D01*
X34264415Y-63289670D01*
X34589271Y-62803489D01*
X34703345Y-62230000D01*
X34589271Y-61656511D01*
X34264415Y-61170330D01*
X33949634Y-60960000D01*
X34264415Y-60749670D01*
X34589271Y-60263489D01*
X34703345Y-59690000D01*
X34589271Y-59116511D01*
X34264415Y-58630330D01*
X33949634Y-58420000D01*
X34264415Y-58209670D01*
X34268602Y-58203404D01*
X34800000Y-58734802D01*
X34800000Y-62865000D01*
X34857852Y-63155839D01*
X35022599Y-63402401D01*
X39543420Y-67923223D01*
X39458867Y-68049765D01*
X39353397Y-68580000D01*
X39458867Y-69110235D01*
X39759221Y-69559746D01*
X40208732Y-69860100D01*
X40515000Y-69921020D01*
X40515000Y-74615198D01*
X38322638Y-76807560D01*
X37450000Y-76807560D01*
X37214683Y-76851838D01*
X36998559Y-76990910D01*
X36853569Y-77203110D01*
X36802560Y-77455000D01*
X36802560Y-78755000D01*
X36846838Y-78990317D01*
X36985910Y-79206441D01*
X37198110Y-79351431D01*
X37340000Y-79380164D01*
X37340000Y-86995000D01*
X37354558Y-87068187D01*
X37349430Y-87093967D01*
X37349430Y-88166033D01*
X37454900Y-88696268D01*
X37755254Y-89145779D01*
X38204765Y-89446133D01*
X38735000Y-89551603D01*
X39265235Y-89446133D01*
X39714746Y-89145779D01*
X40015100Y-88696268D01*
X40016950Y-88686968D01*
X40043501Y-88776677D01*
X40385056Y-89198658D01*
X40862097Y-89457810D01*
X40933725Y-89471993D01*
X41148000Y-89349339D01*
X41148000Y-87757000D01*
X41128000Y-87757000D01*
X41128000Y-87503000D01*
X41148000Y-87503000D01*
X41148000Y-85910661D01*
X41402000Y-85910661D01*
X41402000Y-87503000D01*
X41422000Y-87503000D01*
X41422000Y-87757000D01*
X41402000Y-87757000D01*
X41402000Y-89349339D01*
X41616275Y-89471993D01*
X41687903Y-89457810D01*
X42164944Y-89198658D01*
X42506499Y-88776677D01*
X42533050Y-88686968D01*
X42534900Y-88696268D01*
X42835254Y-89145779D01*
X43284765Y-89446133D01*
X43815000Y-89551603D01*
X44345235Y-89446133D01*
X44794746Y-89145779D01*
X45095100Y-88696268D01*
X45156020Y-88390000D01*
X49530000Y-88390000D01*
X49820839Y-88332148D01*
X50067401Y-88167401D01*
X50577362Y-87657440D01*
X51450000Y-87657440D01*
X51685317Y-87613162D01*
X51901441Y-87474090D01*
X52046431Y-87261890D01*
X52047012Y-87259016D01*
X53580590Y-87259016D01*
X53636271Y-87489611D01*
X54119078Y-87657622D01*
X54629428Y-87628083D01*
X54963729Y-87489611D01*
X55019410Y-87259016D01*
X54300000Y-86539605D01*
X53580590Y-87259016D01*
X52047012Y-87259016D01*
X52097440Y-87010000D01*
X52097440Y-86179078D01*
X53002378Y-86179078D01*
X53031917Y-86689428D01*
X53170389Y-87023729D01*
X53400984Y-87079410D01*
X54120395Y-86360000D01*
X54479605Y-86360000D01*
X55199016Y-87079410D01*
X55429611Y-87023729D01*
X55597622Y-86540922D01*
X55568083Y-86030572D01*
X55429611Y-85696271D01*
X55199016Y-85640590D01*
X54479605Y-86360000D01*
X54120395Y-86360000D01*
X53400984Y-85640590D01*
X53170389Y-85696271D01*
X53002378Y-86179078D01*
X52097440Y-86179078D01*
X52097440Y-85710000D01*
X52064557Y-85535245D01*
X52138818Y-85460984D01*
X53580590Y-85460984D01*
X54300000Y-86180395D01*
X55019410Y-85460984D01*
X54963729Y-85230389D01*
X54480922Y-85062378D01*
X53970572Y-85091917D01*
X53636271Y-85230389D01*
X53580590Y-85460984D01*
X52138818Y-85460984D01*
X52859052Y-84740750D01*
X59625000Y-84740750D01*
X59625000Y-85281309D01*
X59721673Y-85514698D01*
X59900301Y-85693327D01*
X60133690Y-85790000D01*
X60674250Y-85790000D01*
X60833000Y-85631250D01*
X60833000Y-84582000D01*
X59783750Y-84582000D01*
X59625000Y-84740750D01*
X52859052Y-84740750D01*
X53971111Y-83628691D01*
X59625000Y-83628691D01*
X59625000Y-84169250D01*
X59783750Y-84328000D01*
X60833000Y-84328000D01*
X60833000Y-83278750D01*
X60674250Y-83120000D01*
X60133690Y-83120000D01*
X59900301Y-83216673D01*
X59721673Y-83395302D01*
X59625000Y-83628691D01*
X53971111Y-83628691D01*
X56023918Y-81575885D01*
X56188453Y-81644206D01*
X56838694Y-81644774D01*
X57439655Y-81396462D01*
X57899846Y-80937073D01*
X58149206Y-80336547D01*
X58149774Y-79686306D01*
X57901462Y-79085345D01*
X57442073Y-78625154D01*
X56841547Y-78375794D01*
X56191306Y-78375226D01*
X55590345Y-78623538D01*
X55130154Y-79082927D01*
X55060779Y-79250000D01*
X54289802Y-79250000D01*
X50293688Y-75253886D01*
X50358113Y-74930000D01*
X50248880Y-74380849D01*
X49937811Y-73915302D01*
X49555725Y-73660000D01*
X49937811Y-73404698D01*
X50248880Y-72939151D01*
X50358113Y-72390000D01*
X50248880Y-71840849D01*
X49937811Y-71375302D01*
X49555725Y-71120000D01*
X49937811Y-70864698D01*
X50107995Y-70610000D01*
X53660198Y-70610000D01*
X55116312Y-72066114D01*
X55051887Y-72390000D01*
X55161120Y-72939151D01*
X55472189Y-73404698D01*
X55854275Y-73660000D01*
X55472189Y-73915302D01*
X55161120Y-74380849D01*
X55051887Y-74930000D01*
X55161120Y-75479151D01*
X55472189Y-75944698D01*
X55937736Y-76255767D01*
X56486887Y-76365000D01*
X56543113Y-76365000D01*
X56820102Y-76309904D01*
X59646725Y-79136527D01*
X59625232Y-79188287D01*
X59624769Y-79719383D01*
X59827582Y-80210229D01*
X60202796Y-80586098D01*
X60693287Y-80789768D01*
X61224383Y-80790231D01*
X61715229Y-80587418D01*
X62091098Y-80212204D01*
X62105000Y-80178724D01*
X62105000Y-83301974D01*
X62019699Y-83216673D01*
X61786310Y-83120000D01*
X61245750Y-83120000D01*
X61087000Y-83278750D01*
X61087000Y-84328000D01*
X61107000Y-84328000D01*
X61107000Y-84582000D01*
X61087000Y-84582000D01*
X61087000Y-85631250D01*
X61245750Y-85790000D01*
X61786310Y-85790000D01*
X62019699Y-85693327D01*
X62105000Y-85608026D01*
X62105000Y-86045198D01*
X60010198Y-88140000D01*
X59874496Y-88140000D01*
X59806462Y-87975345D01*
X59347073Y-87515154D01*
X58746547Y-87265794D01*
X58096306Y-87265226D01*
X57495345Y-87513538D01*
X57035154Y-87972927D01*
X56785794Y-88573453D01*
X56785226Y-89223694D01*
X57033538Y-89824655D01*
X57492927Y-90284846D01*
X58093453Y-90534206D01*
X58743694Y-90534774D01*
X59344655Y-90286462D01*
X59804846Y-89827073D01*
X59874221Y-89660000D01*
X60325000Y-89660000D01*
X60615839Y-89602148D01*
X60862401Y-89437401D01*
X61076108Y-89223694D01*
X66945226Y-89223694D01*
X67193538Y-89824655D01*
X67652927Y-90284846D01*
X68253453Y-90534206D01*
X68903694Y-90534774D01*
X69504655Y-90286462D01*
X69964846Y-89827073D01*
X70214206Y-89226547D01*
X70214243Y-89183210D01*
X71540890Y-89183210D01*
X71540890Y-89873400D01*
X71637563Y-90106789D01*
X71816192Y-90285417D01*
X72049581Y-90382090D01*
X72739770Y-90382090D01*
X72898520Y-90223340D01*
X72898520Y-89024460D01*
X73152520Y-89024460D01*
X73152520Y-90223340D01*
X73311270Y-90382090D01*
X74001459Y-90382090D01*
X74234848Y-90285417D01*
X74413477Y-90106789D01*
X74510150Y-89873400D01*
X74510150Y-89183210D01*
X74351400Y-89024460D01*
X73152520Y-89024460D01*
X72898520Y-89024460D01*
X71699640Y-89024460D01*
X71540890Y-89183210D01*
X70214243Y-89183210D01*
X70214774Y-88576306D01*
X69966462Y-87975345D01*
X69912731Y-87921520D01*
X71540890Y-87921520D01*
X71540890Y-88611710D01*
X71699640Y-88770460D01*
X72898520Y-88770460D01*
X72898520Y-87571580D01*
X72739770Y-87412830D01*
X72049581Y-87412830D01*
X71816192Y-87509503D01*
X71637563Y-87688131D01*
X71540890Y-87921520D01*
X69912731Y-87921520D01*
X69507073Y-87515154D01*
X68906547Y-87265794D01*
X68256306Y-87265226D01*
X67655345Y-87513538D01*
X67195154Y-87972927D01*
X66945794Y-88573453D01*
X66945226Y-89223694D01*
X61076108Y-89223694D01*
X63402401Y-86897401D01*
X63567148Y-86650840D01*
X63589274Y-86539605D01*
X63625000Y-86360000D01*
X63625000Y-78105000D01*
X63567148Y-77814161D01*
X63533448Y-77763725D01*
X64833007Y-77763725D01*
X64955661Y-77978000D01*
X66548000Y-77978000D01*
X66548000Y-76719430D01*
X66048890Y-76719430D01*
X65528323Y-76873501D01*
X65106342Y-77215056D01*
X64847190Y-77692097D01*
X64833007Y-77763725D01*
X63533448Y-77763725D01*
X63402401Y-77567599D01*
X62335853Y-76501051D01*
X62344846Y-76492073D01*
X62594206Y-75891547D01*
X62594774Y-75241306D01*
X62346462Y-74640345D01*
X61887073Y-74180154D01*
X61720000Y-74110779D01*
X61720000Y-71755000D01*
X61662148Y-71464161D01*
X61497401Y-71217599D01*
X59592401Y-69312599D01*
X59345839Y-69147852D01*
X59055000Y-69090000D01*
X57727995Y-69090000D01*
X57557811Y-68835302D01*
X57175725Y-68580000D01*
X57198174Y-68565000D01*
X64742560Y-68565000D01*
X64742560Y-69865000D01*
X64786838Y-70100317D01*
X64925910Y-70316441D01*
X65138110Y-70461431D01*
X65280000Y-70490164D01*
X65280000Y-71120000D01*
X65337852Y-71410839D01*
X65502599Y-71657401D01*
X68455000Y-74609802D01*
X68455000Y-77604089D01*
X68243658Y-77215056D01*
X67821677Y-76873501D01*
X67301110Y-76719430D01*
X66802000Y-76719430D01*
X66802000Y-77978000D01*
X66822000Y-77978000D01*
X66822000Y-78232000D01*
X66802000Y-78232000D01*
X66802000Y-78252000D01*
X66548000Y-78252000D01*
X66548000Y-78232000D01*
X64955661Y-78232000D01*
X64833007Y-78446275D01*
X64847190Y-78517903D01*
X65106342Y-78994944D01*
X65528323Y-79336499D01*
X65618032Y-79363050D01*
X65608732Y-79364900D01*
X65159221Y-79665254D01*
X64858867Y-80114765D01*
X64753397Y-80645000D01*
X64858867Y-81175235D01*
X65159221Y-81624746D01*
X65593616Y-81915000D01*
X65159221Y-82205254D01*
X64858867Y-82654765D01*
X64753397Y-83185000D01*
X64858867Y-83715235D01*
X65159221Y-84164746D01*
X65608732Y-84465100D01*
X66138967Y-84570570D01*
X67211033Y-84570570D01*
X67741268Y-84465100D01*
X68190779Y-84164746D01*
X68491133Y-83715235D01*
X68596603Y-83185000D01*
X68491133Y-82654765D01*
X68190779Y-82205254D01*
X67756384Y-81915000D01*
X67986463Y-81761265D01*
X73638028Y-87412830D01*
X73311270Y-87412830D01*
X73152520Y-87571580D01*
X73152520Y-88770460D01*
X74351400Y-88770460D01*
X74510150Y-88611710D01*
X74510150Y-88284952D01*
X76932599Y-90707401D01*
X77179160Y-90872148D01*
X77470000Y-90930000D01*
X86185352Y-90930000D01*
X86385585Y-91229670D01*
X86871766Y-91554526D01*
X87445255Y-91668600D01*
X87814745Y-91668600D01*
X88388234Y-91554526D01*
X88874415Y-91229670D01*
X89199271Y-90743489D01*
X89313345Y-90170000D01*
X89199271Y-89596511D01*
X88874415Y-89110330D01*
X88559634Y-88900000D01*
X88874415Y-88689670D01*
X89199271Y-88203489D01*
X89313345Y-87630000D01*
X89199271Y-87056511D01*
X88874415Y-86570330D01*
X88559634Y-86360000D01*
X88874415Y-86149670D01*
X89199271Y-85663489D01*
X89313345Y-85090000D01*
X89199271Y-84516511D01*
X88874415Y-84030330D01*
X88559634Y-83820000D01*
X88874415Y-83609670D01*
X89199271Y-83123489D01*
X89313345Y-82550000D01*
X89199271Y-81976511D01*
X88874415Y-81490330D01*
X88559634Y-81280000D01*
X88874415Y-81069670D01*
X89199271Y-80583489D01*
X89313345Y-80010000D01*
X89199271Y-79436511D01*
X88874415Y-78950330D01*
X88559634Y-78740000D01*
X88874415Y-78529670D01*
X89199271Y-78043489D01*
X89313345Y-77470000D01*
X89199271Y-76896511D01*
X88874415Y-76410330D01*
X88559634Y-76200000D01*
X88874415Y-75989670D01*
X89199271Y-75503489D01*
X89313345Y-74930000D01*
X89199271Y-74356511D01*
X88874415Y-73870330D01*
X88559634Y-73660000D01*
X88874415Y-73449670D01*
X89199271Y-72963489D01*
X89313345Y-72390000D01*
X89199271Y-71816511D01*
X88874415Y-71330330D01*
X88559634Y-71120000D01*
X88874415Y-70909670D01*
X89199271Y-70423489D01*
X89313345Y-69850000D01*
X89199271Y-69276511D01*
X88874415Y-68790330D01*
X88559634Y-68580000D01*
X88874415Y-68369670D01*
X89199271Y-67883489D01*
X89313345Y-67310000D01*
X89199271Y-66736511D01*
X88874415Y-66250330D01*
X88559634Y-66040000D01*
X88874415Y-65829670D01*
X89199271Y-65343489D01*
X89313345Y-64770000D01*
X89199271Y-64196511D01*
X88874415Y-63710330D01*
X88559634Y-63500000D01*
X88874415Y-63289670D01*
X89199271Y-62803489D01*
X89313345Y-62230000D01*
X89199271Y-61656511D01*
X88874415Y-61170330D01*
X88559634Y-60960000D01*
X88874415Y-60749670D01*
X89199271Y-60263489D01*
X89313345Y-59690000D01*
X89199271Y-59116511D01*
X88874415Y-58630330D01*
X88559634Y-58420000D01*
X88874415Y-58209670D01*
X89199271Y-57723489D01*
X89313345Y-57150000D01*
X89199271Y-56576511D01*
X88874415Y-56090330D01*
X88559634Y-55880000D01*
X88874415Y-55669670D01*
X89199271Y-55183489D01*
X89313345Y-54610000D01*
X89199271Y-54036511D01*
X88874415Y-53550330D01*
X88559634Y-53340000D01*
X88874415Y-53129670D01*
X89199271Y-52643489D01*
X89313345Y-52070000D01*
X89199271Y-51496511D01*
X88874415Y-51010330D01*
X88559634Y-50800000D01*
X88874415Y-50589670D01*
X89199271Y-50103489D01*
X89313345Y-49530000D01*
X89199271Y-48956511D01*
X88874415Y-48470330D01*
X88559634Y-48260000D01*
X88874415Y-48049670D01*
X89199271Y-47563489D01*
X89313345Y-46990000D01*
X89199271Y-46416511D01*
X88874415Y-45930330D01*
X88852220Y-45915500D01*
X89005699Y-45851927D01*
X89184327Y-45673298D01*
X89281000Y-45439909D01*
X89281000Y-44735750D01*
X89122250Y-44577000D01*
X87757000Y-44577000D01*
X87757000Y-44597000D01*
X87503000Y-44597000D01*
X87503000Y-44577000D01*
X86137750Y-44577000D01*
X85979000Y-44735750D01*
X85979000Y-45439909D01*
X86075673Y-45673298D01*
X86254301Y-45851927D01*
X86407780Y-45915500D01*
X86385585Y-45930330D01*
X86060729Y-46416511D01*
X85946655Y-46990000D01*
X86060729Y-47563489D01*
X86385585Y-48049670D01*
X86700366Y-48260000D01*
X86385585Y-48470330D01*
X86060729Y-48956511D01*
X85946655Y-49530000D01*
X86060729Y-50103489D01*
X86385585Y-50589670D01*
X86700366Y-50800000D01*
X86385585Y-51010330D01*
X86060729Y-51496511D01*
X85946655Y-52070000D01*
X86060729Y-52643489D01*
X86385585Y-53129670D01*
X86700366Y-53340000D01*
X86385585Y-53550330D01*
X86060729Y-54036511D01*
X85946655Y-54610000D01*
X86060729Y-55183489D01*
X86385585Y-55669670D01*
X86700366Y-55880000D01*
X86385585Y-56090330D01*
X86060729Y-56576511D01*
X85946655Y-57150000D01*
X86060729Y-57723489D01*
X86385585Y-58209670D01*
X86700366Y-58420000D01*
X86385585Y-58630330D01*
X86060729Y-59116511D01*
X85946655Y-59690000D01*
X86060729Y-60263489D01*
X86385585Y-60749670D01*
X86700366Y-60960000D01*
X86385585Y-61170330D01*
X86060729Y-61656511D01*
X85971519Y-62105000D01*
X78217006Y-62105000D01*
X77888845Y-61776265D01*
X77416724Y-61580223D01*
X76905519Y-61579777D01*
X76433057Y-61774995D01*
X76071265Y-62136155D01*
X75875223Y-62608276D01*
X75874777Y-63119481D01*
X76069995Y-63591943D01*
X76431155Y-63953735D01*
X76903276Y-64149777D01*
X77414481Y-64150223D01*
X77886943Y-63955005D01*
X78217525Y-63625000D01*
X86513290Y-63625000D01*
X86385585Y-63710330D01*
X86060729Y-64196511D01*
X85946655Y-64770000D01*
X86060729Y-65343489D01*
X86385585Y-65829670D01*
X86700366Y-66040000D01*
X86385585Y-66250330D01*
X86060729Y-66736511D01*
X85946655Y-67310000D01*
X86060729Y-67883489D01*
X86385585Y-68369670D01*
X86700366Y-68580000D01*
X86385585Y-68790330D01*
X86060729Y-69276511D01*
X85946655Y-69850000D01*
X86060729Y-70423489D01*
X86385585Y-70909670D01*
X86700366Y-71120000D01*
X86385585Y-71330330D01*
X86060729Y-71816511D01*
X85946655Y-72390000D01*
X86060729Y-72963489D01*
X86385585Y-73449670D01*
X86700366Y-73660000D01*
X86385585Y-73870330D01*
X86060729Y-74356511D01*
X85946655Y-74930000D01*
X86060729Y-75503489D01*
X86385585Y-75989670D01*
X86700366Y-76200000D01*
X86385585Y-76410330D01*
X86060729Y-76896511D01*
X85946655Y-77470000D01*
X86060729Y-78043489D01*
X86385585Y-78529670D01*
X86700366Y-78740000D01*
X86385585Y-78950330D01*
X86060729Y-79436511D01*
X85946655Y-80010000D01*
X86060729Y-80583489D01*
X86385585Y-81069670D01*
X86700366Y-81280000D01*
X86385585Y-81490330D01*
X86060729Y-81976511D01*
X85946655Y-82550000D01*
X86060729Y-83123489D01*
X86385585Y-83609670D01*
X86700366Y-83820000D01*
X86385585Y-84030330D01*
X86060729Y-84516511D01*
X85982848Y-84908046D01*
X85215000Y-84140198D01*
X85215000Y-75565000D01*
X85157148Y-75274161D01*
X84992401Y-75027599D01*
X83000000Y-73035198D01*
X83000000Y-71542006D01*
X83328735Y-71213845D01*
X83524777Y-70741724D01*
X83525223Y-70230519D01*
X83330005Y-69758057D01*
X82968845Y-69396265D01*
X82496724Y-69200223D01*
X81985519Y-69199777D01*
X81513057Y-69394995D01*
X81151265Y-69756155D01*
X80955223Y-70228276D01*
X80954777Y-70739481D01*
X81149995Y-71211943D01*
X81480000Y-71542525D01*
X81480000Y-73350000D01*
X81537852Y-73640839D01*
X81702599Y-73887401D01*
X83695000Y-75879802D01*
X83695000Y-84455000D01*
X83752852Y-84745839D01*
X83917599Y-84992401D01*
X85160198Y-86235000D01*
X80959802Y-86235000D01*
X78652371Y-83927569D01*
X78740000Y-83945000D01*
X78982391Y-83945000D01*
X79129221Y-84164746D01*
X79578732Y-84465100D01*
X80108967Y-84570570D01*
X81181033Y-84570570D01*
X81711268Y-84465100D01*
X82160779Y-84164746D01*
X82461133Y-83715235D01*
X82566603Y-83185000D01*
X82461133Y-82654765D01*
X82160779Y-82205254D01*
X81726384Y-81915000D01*
X82160779Y-81624746D01*
X82461133Y-81175235D01*
X82566603Y-80645000D01*
X82461133Y-80114765D01*
X82160779Y-79665254D01*
X81711268Y-79364900D01*
X81701968Y-79363050D01*
X81791677Y-79336499D01*
X82213658Y-78994944D01*
X82472810Y-78517903D01*
X82486993Y-78446275D01*
X82364339Y-78232000D01*
X80772000Y-78232000D01*
X80772000Y-78252000D01*
X80518000Y-78252000D01*
X80518000Y-78232000D01*
X78925661Y-78232000D01*
X78803007Y-78446275D01*
X78817190Y-78517903D01*
X79076342Y-78994944D01*
X79498323Y-79336499D01*
X79588032Y-79363050D01*
X79578732Y-79364900D01*
X79129221Y-79665254D01*
X79011395Y-79841593D01*
X76960000Y-77790198D01*
X76960000Y-77763725D01*
X78803007Y-77763725D01*
X78925661Y-77978000D01*
X80518000Y-77978000D01*
X80518000Y-76719430D01*
X80772000Y-76719430D01*
X80772000Y-77978000D01*
X82364339Y-77978000D01*
X82486993Y-77763725D01*
X82472810Y-77692097D01*
X82213658Y-77215056D01*
X81791677Y-76873501D01*
X81271110Y-76719430D01*
X80772000Y-76719430D01*
X80518000Y-76719430D01*
X80018890Y-76719430D01*
X79498323Y-76873501D01*
X79076342Y-77215056D01*
X78817190Y-77692097D01*
X78803007Y-77763725D01*
X76960000Y-77763725D01*
X76960000Y-71751940D01*
X76902148Y-71461101D01*
X76737401Y-71214539D01*
X76293612Y-70770750D01*
X77455000Y-70770750D01*
X77455000Y-71261310D01*
X77551673Y-71494699D01*
X77730302Y-71673327D01*
X77963691Y-71770000D01*
X78454250Y-71770000D01*
X78613000Y-71611250D01*
X78613000Y-70612000D01*
X78867000Y-70612000D01*
X78867000Y-71611250D01*
X79025750Y-71770000D01*
X79516309Y-71770000D01*
X79749698Y-71673327D01*
X79928327Y-71494699D01*
X80025000Y-71261310D01*
X80025000Y-70770750D01*
X79866250Y-70612000D01*
X78867000Y-70612000D01*
X78613000Y-70612000D01*
X77613750Y-70612000D01*
X77455000Y-70770750D01*
X76293612Y-70770750D01*
X75231552Y-69708690D01*
X77455000Y-69708690D01*
X77455000Y-70199250D01*
X77613750Y-70358000D01*
X78613000Y-70358000D01*
X78613000Y-69358750D01*
X78867000Y-69358750D01*
X78867000Y-70358000D01*
X79866250Y-70358000D01*
X80025000Y-70199250D01*
X80025000Y-69708690D01*
X79928327Y-69475301D01*
X79749698Y-69296673D01*
X79516309Y-69200000D01*
X79025750Y-69200000D01*
X78867000Y-69358750D01*
X78613000Y-69358750D01*
X78454250Y-69200000D01*
X77963691Y-69200000D01*
X77730302Y-69296673D01*
X77551673Y-69475301D01*
X77455000Y-69708690D01*
X75231552Y-69708690D01*
X68673612Y-63150750D01*
X72375000Y-63150750D01*
X72375000Y-63641310D01*
X72471673Y-63874699D01*
X72650302Y-64053327D01*
X72883691Y-64150000D01*
X73374250Y-64150000D01*
X73533000Y-63991250D01*
X73533000Y-62992000D01*
X73787000Y-62992000D01*
X73787000Y-63991250D01*
X73945750Y-64150000D01*
X74436309Y-64150000D01*
X74669698Y-64053327D01*
X74848327Y-63874699D01*
X74945000Y-63641310D01*
X74945000Y-63150750D01*
X74786250Y-62992000D01*
X73787000Y-62992000D01*
X73533000Y-62992000D01*
X72533750Y-62992000D01*
X72375000Y-63150750D01*
X68673612Y-63150750D01*
X68126748Y-62603886D01*
X68159892Y-62524067D01*
X68159952Y-62454850D01*
X68526112Y-62088690D01*
X72375000Y-62088690D01*
X72375000Y-62579250D01*
X72533750Y-62738000D01*
X73533000Y-62738000D01*
X73533000Y-61738750D01*
X73787000Y-61738750D01*
X73787000Y-62738000D01*
X74786250Y-62738000D01*
X74945000Y-62579250D01*
X74945000Y-62088690D01*
X74848327Y-61855301D01*
X74669698Y-61676673D01*
X74436309Y-61580000D01*
X73945750Y-61580000D01*
X73787000Y-61738750D01*
X73533000Y-61738750D01*
X73374250Y-61580000D01*
X72883691Y-61580000D01*
X72650302Y-61676673D01*
X72471673Y-61855301D01*
X72375000Y-62088690D01*
X68526112Y-62088690D01*
X73252401Y-57362401D01*
X73417148Y-57115840D01*
X73475000Y-56825000D01*
X73475000Y-55032006D01*
X73803735Y-54703845D01*
X73999777Y-54231724D01*
X74000223Y-53720519D01*
X73805005Y-53248057D01*
X73443845Y-52886265D01*
X72971724Y-52690223D01*
X72460519Y-52689777D01*
X71988057Y-52884995D01*
X71626265Y-53246155D01*
X71430223Y-53718276D01*
X71429777Y-54229481D01*
X71624995Y-54701943D01*
X71955000Y-55032525D01*
X71955000Y-56510198D01*
X67502062Y-60963136D01*
X66972127Y-60743088D01*
X66381504Y-60742572D01*
X65835643Y-60968118D01*
X65417646Y-61385386D01*
X65191148Y-61930853D01*
X65190632Y-62521476D01*
X65416178Y-63067337D01*
X65833446Y-63485334D01*
X66378913Y-63711832D01*
X66969536Y-63712348D01*
X67051669Y-63678411D01*
X75440000Y-72066742D01*
X75440000Y-77604089D01*
X75228658Y-77215056D01*
X74806677Y-76873501D01*
X74286110Y-76719430D01*
X73787000Y-76719430D01*
X73787000Y-77978000D01*
X73807000Y-77978000D01*
X73807000Y-78232000D01*
X73787000Y-78232000D01*
X73787000Y-78252000D01*
X73533000Y-78252000D01*
X73533000Y-78232000D01*
X71940661Y-78232000D01*
X71818007Y-78446275D01*
X71832190Y-78517903D01*
X72091342Y-78994944D01*
X72513323Y-79336499D01*
X72603032Y-79363050D01*
X72593732Y-79364900D01*
X72144221Y-79665254D01*
X71843867Y-80114765D01*
X71738397Y-80645000D01*
X71843867Y-81175235D01*
X72144221Y-81624746D01*
X72578616Y-81915000D01*
X72144221Y-82205254D01*
X71843867Y-82654765D01*
X71738397Y-83185000D01*
X71782742Y-83407940D01*
X68491522Y-80116720D01*
X68491133Y-80114765D01*
X68406580Y-79988222D01*
X69752401Y-78642401D01*
X69917148Y-78395840D01*
X69939274Y-78284605D01*
X69975000Y-78105000D01*
X69975000Y-77763725D01*
X71818007Y-77763725D01*
X71940661Y-77978000D01*
X73533000Y-77978000D01*
X73533000Y-76719430D01*
X73033890Y-76719430D01*
X72513323Y-76873501D01*
X72091342Y-77215056D01*
X71832190Y-77692097D01*
X71818007Y-77763725D01*
X69975000Y-77763725D01*
X69975000Y-74295000D01*
X69917148Y-74004161D01*
X69752401Y-73757599D01*
X66800000Y-70805198D01*
X66800000Y-70491742D01*
X66925317Y-70468162D01*
X67141441Y-70329090D01*
X67286431Y-70116890D01*
X67287012Y-70114016D01*
X68820590Y-70114016D01*
X68876271Y-70344611D01*
X69359078Y-70512622D01*
X69869428Y-70483083D01*
X70203729Y-70344611D01*
X70259410Y-70114016D01*
X69540000Y-69394605D01*
X68820590Y-70114016D01*
X67287012Y-70114016D01*
X67337440Y-69865000D01*
X67337440Y-69034078D01*
X68242378Y-69034078D01*
X68271917Y-69544428D01*
X68410389Y-69878729D01*
X68640984Y-69934410D01*
X69360395Y-69215000D01*
X69719605Y-69215000D01*
X70439016Y-69934410D01*
X70669611Y-69878729D01*
X70837622Y-69395922D01*
X70808083Y-68885572D01*
X70669611Y-68551271D01*
X70439016Y-68495590D01*
X69719605Y-69215000D01*
X69360395Y-69215000D01*
X68640984Y-68495590D01*
X68410389Y-68551271D01*
X68242378Y-69034078D01*
X67337440Y-69034078D01*
X67337440Y-68565000D01*
X67293162Y-68329683D01*
X67284347Y-68315984D01*
X68820590Y-68315984D01*
X69540000Y-69035395D01*
X70259410Y-68315984D01*
X70203729Y-68085389D01*
X69720922Y-67917378D01*
X69210572Y-67946917D01*
X68876271Y-68085389D01*
X68820590Y-68315984D01*
X67284347Y-68315984D01*
X67154090Y-68113559D01*
X66941890Y-67968569D01*
X66690000Y-67917560D01*
X65390000Y-67917560D01*
X65154683Y-67961838D01*
X64938559Y-68100910D01*
X64793569Y-68313110D01*
X64742560Y-68565000D01*
X57198174Y-68565000D01*
X57557811Y-68324698D01*
X57727995Y-68070000D01*
X59055000Y-68070000D01*
X59345839Y-68012148D01*
X59592401Y-67847401D01*
X60468917Y-66970885D01*
X60633453Y-67039206D01*
X61283694Y-67039774D01*
X61884655Y-66791462D01*
X62344846Y-66332073D01*
X62594206Y-65731547D01*
X62594774Y-65081306D01*
X62346462Y-64480345D01*
X61887073Y-64020154D01*
X61286547Y-63770794D01*
X60636306Y-63770226D01*
X60035345Y-64018538D01*
X59575154Y-64477927D01*
X59325794Y-65078453D01*
X59325226Y-65728694D01*
X59394309Y-65895889D01*
X58740198Y-66550000D01*
X57727995Y-66550000D01*
X57557811Y-66295302D01*
X57092264Y-65984233D01*
X56543113Y-65875000D01*
X56486887Y-65875000D01*
X55937736Y-65984233D01*
X55472189Y-66295302D01*
X55161120Y-66760849D01*
X55051887Y-67310000D01*
X55161120Y-67859151D01*
X55472189Y-68324698D01*
X55854275Y-68580000D01*
X55472189Y-68835302D01*
X55161120Y-69300849D01*
X55051887Y-69850000D01*
X55052405Y-69852603D01*
X54512401Y-69312599D01*
X54265839Y-69147852D01*
X53975000Y-69090000D01*
X53385000Y-69090000D01*
X53385000Y-61452655D01*
X53459955Y-61377830D01*
X55018450Y-61377830D01*
X55018450Y-63077090D01*
X55062728Y-63312407D01*
X55201800Y-63528531D01*
X55414000Y-63673521D01*
X55665890Y-63724530D01*
X57365150Y-63724530D01*
X57600467Y-63680252D01*
X57816591Y-63541180D01*
X57961581Y-63328980D01*
X58012590Y-63077090D01*
X58012590Y-62987460D01*
X60327540Y-62987460D01*
X60618379Y-62929608D01*
X60864941Y-62764861D01*
X63817342Y-59812460D01*
X65383173Y-59812460D01*
X65416178Y-59892337D01*
X65833446Y-60310334D01*
X66378913Y-60536832D01*
X66969536Y-60537348D01*
X67515397Y-60311802D01*
X67933394Y-59894534D01*
X68159892Y-59349067D01*
X68160408Y-58758444D01*
X67934862Y-58212583D01*
X67517594Y-57794586D01*
X67125000Y-57631567D01*
X67125000Y-54260750D01*
X67930000Y-54260750D01*
X67930000Y-54751310D01*
X68026673Y-54984699D01*
X68205302Y-55163327D01*
X68438691Y-55260000D01*
X68929250Y-55260000D01*
X69088000Y-55101250D01*
X69088000Y-54102000D01*
X69342000Y-54102000D01*
X69342000Y-55101250D01*
X69500750Y-55260000D01*
X69991309Y-55260000D01*
X70224698Y-55163327D01*
X70403327Y-54984699D01*
X70500000Y-54751310D01*
X70500000Y-54260750D01*
X70341250Y-54102000D01*
X69342000Y-54102000D01*
X69088000Y-54102000D01*
X68088750Y-54102000D01*
X67930000Y-54260750D01*
X67125000Y-54260750D01*
X67125000Y-53198690D01*
X67930000Y-53198690D01*
X67930000Y-53689250D01*
X68088750Y-53848000D01*
X69088000Y-53848000D01*
X69088000Y-52848750D01*
X69342000Y-52848750D01*
X69342000Y-53848000D01*
X70341250Y-53848000D01*
X70500000Y-53689250D01*
X70500000Y-53198690D01*
X70403327Y-52965301D01*
X70224698Y-52786673D01*
X69991309Y-52690000D01*
X69500750Y-52690000D01*
X69342000Y-52848750D01*
X69088000Y-52848750D01*
X68929250Y-52690000D01*
X68438691Y-52690000D01*
X68205302Y-52786673D01*
X68026673Y-52965301D01*
X67930000Y-53198690D01*
X67125000Y-53198690D01*
X67125000Y-48047006D01*
X67453735Y-47718845D01*
X67649777Y-47246724D01*
X67650223Y-46735519D01*
X67455005Y-46263057D01*
X67093845Y-45901265D01*
X66621724Y-45705223D01*
X66110519Y-45704777D01*
X65638057Y-45899995D01*
X65276265Y-46261155D01*
X65080223Y-46733276D01*
X65079777Y-47244481D01*
X65274995Y-47716943D01*
X65605000Y-48047525D01*
X65605000Y-58023359D01*
X65417646Y-58210386D01*
X65383566Y-58292460D01*
X63502540Y-58292460D01*
X63211701Y-58350312D01*
X62965139Y-58515059D01*
X60012738Y-61467460D01*
X58012590Y-61467460D01*
X58012590Y-61377830D01*
X57968312Y-61142513D01*
X57829240Y-60926389D01*
X57617040Y-60781399D01*
X57365150Y-60730390D01*
X55665890Y-60730390D01*
X55430573Y-60774668D01*
X55214449Y-60913740D01*
X55069459Y-61125940D01*
X55018450Y-61377830D01*
X53459955Y-61377830D01*
X53756098Y-61082204D01*
X53959768Y-60591713D01*
X53960231Y-60060617D01*
X53757418Y-59569771D01*
X53526261Y-59338210D01*
X55030890Y-59338210D01*
X55030890Y-60028400D01*
X55127563Y-60261789D01*
X55306192Y-60440417D01*
X55539581Y-60537090D01*
X56229770Y-60537090D01*
X56388520Y-60378340D01*
X56388520Y-59179460D01*
X56642520Y-59179460D01*
X56642520Y-60378340D01*
X56801270Y-60537090D01*
X57491459Y-60537090D01*
X57724848Y-60440417D01*
X57903477Y-60261789D01*
X58000150Y-60028400D01*
X58000150Y-59338210D01*
X57841400Y-59179460D01*
X56642520Y-59179460D01*
X56388520Y-59179460D01*
X55189640Y-59179460D01*
X55030890Y-59338210D01*
X53526261Y-59338210D01*
X53382204Y-59193902D01*
X52891713Y-58990232D01*
X52360617Y-58989769D01*
X51869771Y-59192582D01*
X51560000Y-59501813D01*
X51560000Y-58734802D01*
X52218282Y-58076520D01*
X55030890Y-58076520D01*
X55030890Y-58766710D01*
X55189640Y-58925460D01*
X56388520Y-58925460D01*
X56388520Y-57726580D01*
X56642520Y-57726580D01*
X56642520Y-58925460D01*
X57841400Y-58925460D01*
X58000150Y-58766710D01*
X58000150Y-58076520D01*
X57903477Y-57843131D01*
X57724848Y-57664503D01*
X57491459Y-57567830D01*
X56801270Y-57567830D01*
X56642520Y-57726580D01*
X56388520Y-57726580D01*
X56229770Y-57567830D01*
X55539581Y-57567830D01*
X55306192Y-57664503D01*
X55127563Y-57843131D01*
X55030890Y-58076520D01*
X52218282Y-58076520D01*
X54289802Y-56005000D01*
X56330504Y-56005000D01*
X56398538Y-56169655D01*
X56857927Y-56629846D01*
X57458453Y-56879206D01*
X58108694Y-56879774D01*
X58709655Y-56631462D01*
X59169846Y-56172073D01*
X59419206Y-55571547D01*
X59419774Y-54921306D01*
X59171462Y-54320345D01*
X58712073Y-53860154D01*
X58111547Y-53610794D01*
X57461306Y-53610226D01*
X56860345Y-53858538D01*
X56400154Y-54317927D01*
X56330779Y-54485000D01*
X53975000Y-54485000D01*
X53684161Y-54542852D01*
X53437599Y-54707599D01*
X50262599Y-57882599D01*
X50097852Y-58129161D01*
X50040000Y-58420000D01*
X50040000Y-60645198D01*
X46452599Y-64232599D01*
X46287852Y-64479161D01*
X46230000Y-64770000D01*
X46230000Y-71120000D01*
X46287852Y-71410839D01*
X46452599Y-71657401D01*
X47493141Y-72697943D01*
X47541120Y-72939151D01*
X47852189Y-73404698D01*
X48234275Y-73660000D01*
X47852189Y-73915302D01*
X47541120Y-74380849D01*
X47431887Y-74930000D01*
X47541120Y-75479151D01*
X47852189Y-75944698D01*
X48317736Y-76255767D01*
X48866887Y-76365000D01*
X48923113Y-76365000D01*
X49200102Y-76309904D01*
X53437599Y-80547401D01*
X53684161Y-80712148D01*
X53975000Y-80770000D01*
X54680197Y-80770000D01*
X50387638Y-85062560D01*
X50150000Y-85062560D01*
X49914683Y-85106838D01*
X49698559Y-85245910D01*
X49553569Y-85458110D01*
X49502560Y-85710000D01*
X49502560Y-86582638D01*
X49215198Y-86870000D01*
X45156020Y-86870000D01*
X45095100Y-86563732D01*
X44794746Y-86114221D01*
X44345235Y-85813867D01*
X43815000Y-85708397D01*
X43284765Y-85813867D01*
X42835254Y-86114221D01*
X42534900Y-86563732D01*
X42533050Y-86573032D01*
X42506499Y-86483323D01*
X42164944Y-86061342D01*
X41687903Y-85802190D01*
X41616275Y-85788007D01*
X41402000Y-85910661D01*
X41148000Y-85910661D01*
X40933725Y-85788007D01*
X40862097Y-85802190D01*
X40385056Y-86061342D01*
X40043501Y-86483323D01*
X40016950Y-86573032D01*
X40015100Y-86563732D01*
X39714746Y-86114221D01*
X39265235Y-85813867D01*
X38860000Y-85733261D01*
X38860000Y-80333694D01*
X44720226Y-80333694D01*
X44968538Y-80934655D01*
X45427927Y-81394846D01*
X46028453Y-81644206D01*
X46678694Y-81644774D01*
X47279655Y-81396462D01*
X47739846Y-80937073D01*
X47989206Y-80336547D01*
X47989774Y-79686306D01*
X47741462Y-79085345D01*
X47282073Y-78625154D01*
X46681547Y-78375794D01*
X46031306Y-78375226D01*
X45430345Y-78623538D01*
X44970154Y-79082927D01*
X44720794Y-79683453D01*
X44720226Y-80333694D01*
X38860000Y-80333694D01*
X38860000Y-79381742D01*
X38985317Y-79358162D01*
X39201441Y-79219090D01*
X39346431Y-79006890D01*
X39347012Y-79004016D01*
X40880590Y-79004016D01*
X40936271Y-79234611D01*
X41419078Y-79402622D01*
X41929428Y-79373083D01*
X42263729Y-79234611D01*
X42319410Y-79004016D01*
X41600000Y-78284605D01*
X40880590Y-79004016D01*
X39347012Y-79004016D01*
X39397440Y-78755000D01*
X39397440Y-77924078D01*
X40302378Y-77924078D01*
X40331917Y-78434428D01*
X40470389Y-78768729D01*
X40700984Y-78824410D01*
X41420395Y-78105000D01*
X41779605Y-78105000D01*
X42499016Y-78824410D01*
X42729611Y-78768729D01*
X42897622Y-78285922D01*
X42868083Y-77775572D01*
X42729611Y-77441271D01*
X42499016Y-77385590D01*
X41779605Y-78105000D01*
X41420395Y-78105000D01*
X40700984Y-77385590D01*
X40470389Y-77441271D01*
X40302378Y-77924078D01*
X39397440Y-77924078D01*
X39397440Y-77882362D01*
X40073818Y-77205984D01*
X40880590Y-77205984D01*
X41600000Y-77925395D01*
X42319410Y-77205984D01*
X42263729Y-76975389D01*
X41780922Y-76807378D01*
X41270572Y-76836917D01*
X40936271Y-76975389D01*
X40880590Y-77205984D01*
X40073818Y-77205984D01*
X41812401Y-75467401D01*
X41977148Y-75220839D01*
X42035000Y-74930000D01*
X42035000Y-69921020D01*
X42341268Y-69860100D01*
X42790779Y-69559746D01*
X43091133Y-69110235D01*
X43196603Y-68580000D01*
X43091133Y-68049765D01*
X42790779Y-67600254D01*
X42341268Y-67299900D01*
X42331968Y-67298050D01*
X42421677Y-67271499D01*
X42843658Y-66929944D01*
X43102810Y-66452903D01*
X43116993Y-66381275D01*
X42994339Y-66167000D01*
X41402000Y-66167000D01*
X41402000Y-66187000D01*
X41148000Y-66187000D01*
X41148000Y-66167000D01*
X41128000Y-66167000D01*
X41128000Y-65913000D01*
X41148000Y-65913000D01*
X41148000Y-65893000D01*
X41402000Y-65893000D01*
X41402000Y-65913000D01*
X42994339Y-65913000D01*
X43116993Y-65698725D01*
X43102810Y-65627097D01*
X42843658Y-65150056D01*
X42421677Y-64808501D01*
X42331968Y-64781950D01*
X42341268Y-64780100D01*
X42790779Y-64479746D01*
X43091133Y-64030235D01*
X43196603Y-63500000D01*
X43091133Y-62969765D01*
X42790779Y-62520254D01*
X42341268Y-62219900D01*
X41811033Y-62114430D01*
X40964232Y-62114430D01*
X39907921Y-61058119D01*
X39661359Y-60893372D01*
X39370520Y-60835520D01*
X38964610Y-60835520D01*
X38964610Y-60745890D01*
X38939182Y-60610750D01*
X46290000Y-60610750D01*
X46290000Y-61151310D01*
X46386673Y-61384699D01*
X46565302Y-61563327D01*
X46798691Y-61660000D01*
X47339250Y-61660000D01*
X47498000Y-61501250D01*
X47498000Y-60452000D01*
X47752000Y-60452000D01*
X47752000Y-61501250D01*
X47910750Y-61660000D01*
X48451309Y-61660000D01*
X48684698Y-61563327D01*
X48863327Y-61384699D01*
X48960000Y-61151310D01*
X48960000Y-60610750D01*
X48801250Y-60452000D01*
X47752000Y-60452000D01*
X47498000Y-60452000D01*
X46448750Y-60452000D01*
X46290000Y-60610750D01*
X38939182Y-60610750D01*
X38920332Y-60510573D01*
X38781260Y-60294449D01*
X38569060Y-60149459D01*
X38317170Y-60098450D01*
X38227540Y-60098450D01*
X38227540Y-59498690D01*
X46290000Y-59498690D01*
X46290000Y-60039250D01*
X46448750Y-60198000D01*
X47498000Y-60198000D01*
X47498000Y-59148750D01*
X47752000Y-59148750D01*
X47752000Y-60198000D01*
X48801250Y-60198000D01*
X48960000Y-60039250D01*
X48960000Y-59498690D01*
X48863327Y-59265301D01*
X48684698Y-59086673D01*
X48451309Y-58990000D01*
X47910750Y-58990000D01*
X47752000Y-59148750D01*
X47498000Y-59148750D01*
X47339250Y-58990000D01*
X46798691Y-58990000D01*
X46565302Y-59086673D01*
X46386673Y-59265301D01*
X46290000Y-59498690D01*
X38227540Y-59498690D01*
X38227540Y-55907440D01*
X38750000Y-55907440D01*
X38985317Y-55863162D01*
X39201441Y-55724090D01*
X39346431Y-55511890D01*
X39347012Y-55509016D01*
X40880590Y-55509016D01*
X40936271Y-55739611D01*
X41419078Y-55907622D01*
X41929428Y-55878083D01*
X42263729Y-55739611D01*
X42304999Y-55568694D01*
X45990226Y-55568694D01*
X46238538Y-56169655D01*
X46697927Y-56629846D01*
X47298453Y-56879206D01*
X47948694Y-56879774D01*
X48549655Y-56631462D01*
X49009846Y-56172073D01*
X49259206Y-55571547D01*
X49259774Y-54921306D01*
X49011462Y-54320345D01*
X48552073Y-53860154D01*
X47951547Y-53610794D01*
X47301306Y-53610226D01*
X46700345Y-53858538D01*
X46240154Y-54317927D01*
X45990794Y-54918453D01*
X45990226Y-55568694D01*
X42304999Y-55568694D01*
X42319410Y-55509016D01*
X41600000Y-54789605D01*
X40880590Y-55509016D01*
X39347012Y-55509016D01*
X39397440Y-55260000D01*
X39397440Y-54429078D01*
X40302378Y-54429078D01*
X40331917Y-54939428D01*
X40470389Y-55273729D01*
X40700984Y-55329410D01*
X41420395Y-54610000D01*
X41779605Y-54610000D01*
X42499016Y-55329410D01*
X42729611Y-55273729D01*
X42897622Y-54790922D01*
X42868083Y-54280572D01*
X42729611Y-53946271D01*
X42499016Y-53890590D01*
X41779605Y-54610000D01*
X41420395Y-54610000D01*
X40700984Y-53890590D01*
X40470389Y-53946271D01*
X40302378Y-54429078D01*
X39397440Y-54429078D01*
X39397440Y-53960000D01*
X39364557Y-53785245D01*
X39438818Y-53710984D01*
X40880590Y-53710984D01*
X41600000Y-54430395D01*
X42319410Y-53710984D01*
X42263729Y-53480389D01*
X41780922Y-53312378D01*
X41270572Y-53341917D01*
X40936271Y-53480389D01*
X40880590Y-53710984D01*
X39438818Y-53710984D01*
X40954802Y-52195000D01*
X46170504Y-52195000D01*
X46238538Y-52359655D01*
X46697927Y-52819846D01*
X47298453Y-53069206D01*
X47948694Y-53069774D01*
X48549655Y-52821462D01*
X49009846Y-52362073D01*
X49259206Y-51761547D01*
X49259208Y-51758694D01*
X56150226Y-51758694D01*
X56398538Y-52359655D01*
X56857927Y-52819846D01*
X57458453Y-53069206D01*
X58108694Y-53069774D01*
X58709655Y-52821462D01*
X59169846Y-52362073D01*
X59419206Y-51761547D01*
X59419774Y-51111306D01*
X59171462Y-50510345D01*
X58712073Y-50050154D01*
X58111547Y-49800794D01*
X57461306Y-49800226D01*
X56860345Y-50048538D01*
X56400154Y-50507927D01*
X56150794Y-51108453D01*
X56150226Y-51758694D01*
X49259208Y-51758694D01*
X49259774Y-51111306D01*
X49011462Y-50510345D01*
X48552073Y-50050154D01*
X48385000Y-49980779D01*
X48385000Y-46706356D01*
X48671371Y-46420485D01*
X48859785Y-45966734D01*
X48860031Y-45684970D01*
X48930030Y-45685031D01*
X48929786Y-45964579D01*
X49117408Y-46418657D01*
X49464515Y-46766371D01*
X49918266Y-46954785D01*
X50409579Y-46955214D01*
X50799358Y-46794160D01*
X51532599Y-47527401D01*
X51779160Y-47692148D01*
X52070000Y-47750000D01*
X55880000Y-47750000D01*
X56170839Y-47692148D01*
X56417401Y-47527401D01*
X56989941Y-46954861D01*
X57310338Y-46955140D01*
X57882599Y-47527401D01*
X58129160Y-47692148D01*
X58420000Y-47750000D01*
X61588258Y-47750000D01*
X61611838Y-47875317D01*
X61750910Y-48091441D01*
X61963110Y-48236431D01*
X62215000Y-48287440D01*
X63515000Y-48287440D01*
X63750317Y-48243162D01*
X63966441Y-48104090D01*
X64111431Y-47891890D01*
X64162440Y-47640000D01*
X64162440Y-46340000D01*
X64118162Y-46104683D01*
X63979090Y-45888559D01*
X63766890Y-45743569D01*
X63515000Y-45692560D01*
X62215000Y-45692560D01*
X61979683Y-45736838D01*
X61763559Y-45875910D01*
X61618569Y-46088110D01*
X61589836Y-46230000D01*
X58734802Y-46230000D01*
X58384861Y-45880059D01*
X58385214Y-45475421D01*
X58197592Y-45021343D01*
X57850485Y-44673629D01*
X57396734Y-44485215D01*
X57114970Y-44484969D01*
X57115214Y-44205421D01*
X56927592Y-43751343D01*
X56636849Y-43460091D01*
X85979000Y-43460091D01*
X85979000Y-44164250D01*
X86137750Y-44323000D01*
X87503000Y-44323000D01*
X87503000Y-43110150D01*
X87757000Y-43110150D01*
X87757000Y-44323000D01*
X89122250Y-44323000D01*
X89281000Y-44164250D01*
X89281000Y-43460091D01*
X89184327Y-43226702D01*
X89005699Y-43048073D01*
X88772310Y-42951400D01*
X87915750Y-42951400D01*
X87757000Y-43110150D01*
X87503000Y-43110150D01*
X87344250Y-42951400D01*
X86487690Y-42951400D01*
X86254301Y-43048073D01*
X86075673Y-43226702D01*
X85979000Y-43460091D01*
X56636849Y-43460091D01*
X56580485Y-43403629D01*
X56126734Y-43215215D01*
X55635421Y-43214786D01*
X55181343Y-43402408D01*
X54893248Y-43690000D01*
X49881356Y-43690000D01*
X49595485Y-43403629D01*
X49141734Y-43215215D01*
X48650421Y-43214786D01*
X48196343Y-43402408D01*
X47908248Y-43690000D01*
X42261356Y-43690000D01*
X41975485Y-43403629D01*
X41521734Y-43215215D01*
X41030421Y-43214786D01*
X40576343Y-43402408D01*
X40228629Y-43749515D01*
X40040215Y-44203266D01*
X40039786Y-44694579D01*
X40227408Y-45148657D01*
X40574515Y-45496371D01*
X41028266Y-45684785D01*
X41310030Y-45685031D01*
X41309973Y-45750479D01*
X40953587Y-45772518D01*
X40641383Y-45901836D01*
X40591870Y-46127265D01*
X41275000Y-46810395D01*
X41289143Y-46796253D01*
X41468748Y-46975858D01*
X41454605Y-46990000D01*
X42137735Y-47673130D01*
X42363164Y-47623617D01*
X42522807Y-47158964D01*
X42510192Y-46954970D01*
X42789579Y-46955214D01*
X43243657Y-46767592D01*
X43591371Y-46420485D01*
X43779785Y-45966734D01*
X43780214Y-45475421D01*
X43670544Y-45210000D01*
X46499533Y-45210000D01*
X46390215Y-45473266D01*
X46389786Y-45964579D01*
X46577408Y-46418657D01*
X46865000Y-46706752D01*
X46865000Y-49980504D01*
X46700345Y-50048538D01*
X46240154Y-50507927D01*
X46170779Y-50675000D01*
X40640000Y-50675000D01*
X40397414Y-50723254D01*
X40349160Y-50732852D01*
X40102599Y-50897599D01*
X37687638Y-53312560D01*
X37450000Y-53312560D01*
X37214683Y-53356838D01*
X36998559Y-53495910D01*
X36853569Y-53708110D01*
X36802560Y-53960000D01*
X36802560Y-54895995D01*
X36765392Y-54951621D01*
X36707540Y-55242460D01*
X36707540Y-60098450D01*
X36617910Y-60098450D01*
X36382593Y-60142728D01*
X36320000Y-60183005D01*
X36320000Y-58420000D01*
X36297219Y-58305474D01*
X36262148Y-58129160D01*
X36097401Y-57882599D01*
X34827401Y-56612599D01*
X34580839Y-56447852D01*
X34491419Y-56430065D01*
X34264415Y-56090330D01*
X33949634Y-55880000D01*
X34264415Y-55669670D01*
X34589271Y-55183489D01*
X34703345Y-54610000D01*
X34589271Y-54036511D01*
X34264415Y-53550330D01*
X33949634Y-53340000D01*
X34264415Y-53129670D01*
X34589271Y-52643489D01*
X34703345Y-52070000D01*
X34589271Y-51496511D01*
X34264415Y-51010330D01*
X33949634Y-50800000D01*
X34264415Y-50589670D01*
X34589271Y-50103489D01*
X34703345Y-49530000D01*
X34589271Y-48956511D01*
X34264415Y-48470330D01*
X33949634Y-48260000D01*
X34264415Y-48049670D01*
X34396002Y-47852735D01*
X40591870Y-47852735D01*
X40641383Y-48078164D01*
X41106036Y-48237807D01*
X41596413Y-48207482D01*
X41908617Y-48078164D01*
X41958130Y-47852735D01*
X41275000Y-47169605D01*
X40591870Y-47852735D01*
X34396002Y-47852735D01*
X34589271Y-47563489D01*
X34703345Y-46990000D01*
X34669736Y-46821036D01*
X40027193Y-46821036D01*
X40057518Y-47311413D01*
X40186836Y-47623617D01*
X40412265Y-47673130D01*
X41095395Y-46990000D01*
X40412265Y-46306870D01*
X40186836Y-46356383D01*
X40027193Y-46821036D01*
X34669736Y-46821036D01*
X34589271Y-46416511D01*
X34264415Y-45930330D01*
X34242220Y-45915500D01*
X34395699Y-45851927D01*
X34574327Y-45673298D01*
X34671000Y-45439909D01*
X34671000Y-44735750D01*
X34512250Y-44577000D01*
X33147000Y-44577000D01*
X33147000Y-44597000D01*
X32893000Y-44597000D01*
X32893000Y-44577000D01*
X31527750Y-44577000D01*
X31369000Y-44735750D01*
X31369000Y-45439909D01*
X31465673Y-45673298D01*
X31644301Y-45851927D01*
X31797780Y-45915500D01*
X31775585Y-45930330D01*
X31450729Y-46416511D01*
X31336655Y-46990000D01*
X31190000Y-46990000D01*
X31190000Y-43460091D01*
X31369000Y-43460091D01*
X31369000Y-44164250D01*
X31527750Y-44323000D01*
X32893000Y-44323000D01*
X32893000Y-43110150D01*
X33147000Y-43110150D01*
X33147000Y-44323000D01*
X34512250Y-44323000D01*
X34671000Y-44164250D01*
X34671000Y-43460091D01*
X34574327Y-43226702D01*
X34395699Y-43048073D01*
X34162310Y-42951400D01*
X33305750Y-42951400D01*
X33147000Y-43110150D01*
X32893000Y-43110150D01*
X32734250Y-42951400D01*
X31877690Y-42951400D01*
X31644301Y-43048073D01*
X31465673Y-43226702D01*
X31369000Y-43460091D01*
X31190000Y-43460091D01*
X31190000Y-41350000D01*
X89460000Y-41350000D01*
X89460000Y-92000000D01*
G36*
X54803748Y-45705858D02*
X54789605Y-45720000D01*
X54803748Y-45734143D01*
X54624143Y-45913748D01*
X54610000Y-45899605D01*
X54595858Y-45913748D01*
X54416253Y-45734143D01*
X54430395Y-45720000D01*
X54416253Y-45705858D01*
X54595858Y-45526253D01*
X54610000Y-45540395D01*
X54624143Y-45526253D01*
X54803748Y-45705858D01*
X54803748Y-45705858D01*
G37*
X54803748Y-45705858D02*
X54789605Y-45720000D01*
X54803748Y-45734143D01*
X54624143Y-45913748D01*
X54610000Y-45899605D01*
X54595858Y-45913748D01*
X54416253Y-45734143D01*
X54430395Y-45720000D01*
X54416253Y-45705858D01*
X54595858Y-45526253D01*
X54610000Y-45540395D01*
X54624143Y-45526253D01*
X54803748Y-45705858D01*
G36*
X51865000Y-61453297D02*
X51865000Y-69090000D01*
X50107995Y-69090000D01*
X49937811Y-68835302D01*
X49533297Y-68565014D01*
X49750134Y-68462389D01*
X50126041Y-68047423D01*
X50286904Y-67659039D01*
X50164915Y-67437000D01*
X49022000Y-67437000D01*
X49022000Y-67457000D01*
X48768000Y-67457000D01*
X48768000Y-67437000D01*
X48748000Y-67437000D01*
X48748000Y-67183000D01*
X48768000Y-67183000D01*
X48768000Y-66039371D01*
X49022000Y-66039371D01*
X49022000Y-67183000D01*
X50164915Y-67183000D01*
X50286904Y-66960961D01*
X50126041Y-66572577D01*
X49750134Y-66157611D01*
X49244041Y-65918086D01*
X49022000Y-66039371D01*
X48768000Y-66039371D01*
X48545959Y-65918086D01*
X48039866Y-66157611D01*
X47750000Y-66477596D01*
X47750000Y-65084802D01*
X51337401Y-61497401D01*
X51502148Y-61250839D01*
X51528857Y-61116567D01*
X51865000Y-61453297D01*
X51865000Y-61453297D01*
G37*
X51865000Y-61453297D02*
X51865000Y-69090000D01*
X50107995Y-69090000D01*
X49937811Y-68835302D01*
X49533297Y-68565014D01*
X49750134Y-68462389D01*
X50126041Y-68047423D01*
X50286904Y-67659039D01*
X50164915Y-67437000D01*
X49022000Y-67437000D01*
X49022000Y-67457000D01*
X48768000Y-67457000D01*
X48768000Y-67437000D01*
X48748000Y-67437000D01*
X48748000Y-67183000D01*
X48768000Y-67183000D01*
X48768000Y-66039371D01*
X49022000Y-66039371D01*
X49022000Y-67183000D01*
X50164915Y-67183000D01*
X50286904Y-66960961D01*
X50126041Y-66572577D01*
X49750134Y-66157611D01*
X49244041Y-65918086D01*
X49022000Y-66039371D01*
X48768000Y-66039371D01*
X48545959Y-65918086D01*
X48039866Y-66157611D01*
X47750000Y-66477596D01*
X47750000Y-65084802D01*
X51337401Y-61497401D01*
X51502148Y-61250839D01*
X51528857Y-61116567D01*
X51865000Y-61453297D01*
M02*
