G04 #@! TF.FileFunction,Legend,Bot*
%FSLAX46Y46*%
G04 Gerber Fmt 4.6, Leading zero omitted, Abs format (unit mm)*
G04 Created by KiCad (PCBNEW 4.0.3+e1-6302~38~ubuntu16.04.1-stable) date Thu Aug 25 17:22:32 2016*
%MOMM*%
%LPD*%
G01*
G04 APERTURE LIST*
%ADD10C,0.100000*%
%ADD11C,0.300000*%
G04 APERTURE END LIST*
D10*
D11*
X125161427Y-93388571D02*
X125161427Y-91888571D01*
X124804284Y-91888571D01*
X124589999Y-91960000D01*
X124447141Y-92102857D01*
X124375713Y-92245714D01*
X124304284Y-92531429D01*
X124304284Y-92745714D01*
X124375713Y-93031429D01*
X124447141Y-93174286D01*
X124589999Y-93317143D01*
X124804284Y-93388571D01*
X125161427Y-93388571D01*
X123161427Y-92602857D02*
X122947141Y-92674286D01*
X122875713Y-92745714D01*
X122804284Y-92888571D01*
X122804284Y-93102857D01*
X122875713Y-93245714D01*
X122947141Y-93317143D01*
X123089999Y-93388571D01*
X123661427Y-93388571D01*
X123661427Y-91888571D01*
X123161427Y-91888571D01*
X123018570Y-91960000D01*
X122947141Y-92031429D01*
X122875713Y-92174286D01*
X122875713Y-92317143D01*
X122947141Y-92460000D01*
X123018570Y-92531429D01*
X123161427Y-92602857D01*
X123661427Y-92602857D01*
X122518570Y-93531429D02*
X121375713Y-93531429D01*
X121232856Y-91888571D02*
X120375713Y-91888571D01*
X120804284Y-93388571D02*
X120804284Y-91888571D01*
X119018570Y-93388571D02*
X119518570Y-92674286D01*
X119875713Y-93388571D02*
X119875713Y-91888571D01*
X119304285Y-91888571D01*
X119161427Y-91960000D01*
X119089999Y-92031429D01*
X119018570Y-92174286D01*
X119018570Y-92388571D01*
X119089999Y-92531429D01*
X119161427Y-92602857D01*
X119304285Y-92674286D01*
X119875713Y-92674286D01*
X118447142Y-93317143D02*
X118232856Y-93388571D01*
X117875713Y-93388571D01*
X117732856Y-93317143D01*
X117661427Y-93245714D01*
X117589999Y-93102857D01*
X117589999Y-92960000D01*
X117661427Y-92817143D01*
X117732856Y-92745714D01*
X117875713Y-92674286D01*
X118161427Y-92602857D01*
X118304285Y-92531429D01*
X118375713Y-92460000D01*
X118447142Y-92317143D01*
X118447142Y-92174286D01*
X118375713Y-92031429D01*
X118304285Y-91960000D01*
X118161427Y-91888571D01*
X117804285Y-91888571D01*
X117589999Y-91960000D01*
X117304285Y-93531429D02*
X116161428Y-93531429D01*
X116018571Y-91888571D02*
X115161428Y-91888571D01*
X115589999Y-93388571D02*
X115589999Y-91888571D01*
X113875714Y-91960000D02*
X114018571Y-91888571D01*
X114232857Y-91888571D01*
X114447142Y-91960000D01*
X114590000Y-92102857D01*
X114661428Y-92245714D01*
X114732857Y-92531429D01*
X114732857Y-92745714D01*
X114661428Y-93031429D01*
X114590000Y-93174286D01*
X114447142Y-93317143D01*
X114232857Y-93388571D01*
X114090000Y-93388571D01*
X113875714Y-93317143D01*
X113804285Y-93245714D01*
X113804285Y-92745714D01*
X114090000Y-92745714D01*
X112304285Y-93245714D02*
X112375714Y-93317143D01*
X112590000Y-93388571D01*
X112732857Y-93388571D01*
X112947142Y-93317143D01*
X113090000Y-93174286D01*
X113161428Y-93031429D01*
X113232857Y-92745714D01*
X113232857Y-92531429D01*
X113161428Y-92245714D01*
X113090000Y-92102857D01*
X112947142Y-91960000D01*
X112732857Y-91888571D01*
X112590000Y-91888571D01*
X112375714Y-91960000D01*
X112304285Y-92031429D01*
X112018571Y-93531429D02*
X110875714Y-93531429D01*
X110732857Y-91888571D02*
X110232857Y-93388571D01*
X109732857Y-91888571D01*
X108447143Y-93388571D02*
X109304286Y-93388571D01*
X108875714Y-93388571D02*
X108875714Y-91888571D01*
X109018571Y-92102857D01*
X109161429Y-92245714D01*
X109304286Y-92317143D01*
X118827141Y-99738571D02*
X118827141Y-98238571D01*
X118469998Y-98238571D01*
X118255713Y-98310000D01*
X118112855Y-98452857D01*
X118041427Y-98595714D01*
X117969998Y-98881429D01*
X117969998Y-99095714D01*
X118041427Y-99381429D01*
X118112855Y-99524286D01*
X118255713Y-99667143D01*
X118469998Y-99738571D01*
X118827141Y-99738571D01*
X116827141Y-98952857D02*
X116612855Y-99024286D01*
X116541427Y-99095714D01*
X116469998Y-99238571D01*
X116469998Y-99452857D01*
X116541427Y-99595714D01*
X116612855Y-99667143D01*
X116755713Y-99738571D01*
X117327141Y-99738571D01*
X117327141Y-98238571D01*
X116827141Y-98238571D01*
X116684284Y-98310000D01*
X116612855Y-98381429D01*
X116541427Y-98524286D01*
X116541427Y-98667143D01*
X116612855Y-98810000D01*
X116684284Y-98881429D01*
X116827141Y-98952857D01*
X117327141Y-98952857D01*
X116184284Y-99881429D02*
X115041427Y-99881429D01*
X114898570Y-98238571D02*
X114041427Y-98238571D01*
X114469998Y-99738571D02*
X114469998Y-98238571D01*
X112684284Y-99738571D02*
X113184284Y-99024286D01*
X113541427Y-99738571D02*
X113541427Y-98238571D01*
X112969999Y-98238571D01*
X112827141Y-98310000D01*
X112755713Y-98381429D01*
X112684284Y-98524286D01*
X112684284Y-98738571D01*
X112755713Y-98881429D01*
X112827141Y-98952857D01*
X112969999Y-99024286D01*
X113541427Y-99024286D01*
X112112856Y-99667143D02*
X111898570Y-99738571D01*
X111541427Y-99738571D01*
X111398570Y-99667143D01*
X111327141Y-99595714D01*
X111255713Y-99452857D01*
X111255713Y-99310000D01*
X111327141Y-99167143D01*
X111398570Y-99095714D01*
X111541427Y-99024286D01*
X111827141Y-98952857D01*
X111969999Y-98881429D01*
X112041427Y-98810000D01*
X112112856Y-98667143D01*
X112112856Y-98524286D01*
X112041427Y-98381429D01*
X111969999Y-98310000D01*
X111827141Y-98238571D01*
X111469999Y-98238571D01*
X111255713Y-98310000D01*
X110969999Y-99881429D02*
X109827142Y-99881429D01*
X109684285Y-98238571D02*
X108827142Y-98238571D01*
X109255713Y-99738571D02*
X109255713Y-98238571D01*
X107541428Y-98310000D02*
X107684285Y-98238571D01*
X107898571Y-98238571D01*
X108112856Y-98310000D01*
X108255714Y-98452857D01*
X108327142Y-98595714D01*
X108398571Y-98881429D01*
X108398571Y-99095714D01*
X108327142Y-99381429D01*
X108255714Y-99524286D01*
X108112856Y-99667143D01*
X107898571Y-99738571D01*
X107755714Y-99738571D01*
X107541428Y-99667143D01*
X107469999Y-99595714D01*
X107469999Y-99095714D01*
X107755714Y-99095714D01*
X105969999Y-99595714D02*
X106041428Y-99667143D01*
X106255714Y-99738571D01*
X106398571Y-99738571D01*
X106612856Y-99667143D01*
X106755714Y-99524286D01*
X106827142Y-99381429D01*
X106898571Y-99095714D01*
X106898571Y-98881429D01*
X106827142Y-98595714D01*
X106755714Y-98452857D01*
X106612856Y-98310000D01*
X106398571Y-98238571D01*
X106255714Y-98238571D01*
X106041428Y-98310000D01*
X105969999Y-98381429D01*
X105684285Y-99881429D02*
X104541428Y-99881429D01*
X104398571Y-98238571D02*
X103898571Y-99738571D01*
X103398571Y-98238571D01*
X102112857Y-99738571D02*
X102970000Y-99738571D01*
X102541428Y-99738571D02*
X102541428Y-98238571D01*
X102684285Y-98452857D01*
X102827143Y-98595714D01*
X102970000Y-98667143D01*
X101827143Y-99881429D02*
X100684286Y-99881429D01*
X100041429Y-98238571D02*
X99898572Y-98238571D01*
X99755715Y-98310000D01*
X99684286Y-98381429D01*
X99612857Y-98524286D01*
X99541429Y-98810000D01*
X99541429Y-99167143D01*
X99612857Y-99452857D01*
X99684286Y-99595714D01*
X99755715Y-99667143D01*
X99898572Y-99738571D01*
X100041429Y-99738571D01*
X100184286Y-99667143D01*
X100255715Y-99595714D01*
X100327143Y-99452857D01*
X100398572Y-99167143D01*
X100398572Y-98810000D01*
X100327143Y-98524286D01*
X100255715Y-98381429D01*
X100184286Y-98310000D01*
X100041429Y-98238571D01*
M02*
