G04 #@! TF.FileFunction,Soldermask,Top*
%FSLAX46Y46*%
G04 Gerber Fmt 4.6, Leading zero omitted, Abs format (unit mm)*
G04 Created by KiCad (PCBNEW 4.0.3+e1-6302~38~ubuntu16.04.1-stable) date Thu Aug 25 17:22:32 2016*
%MOMM*%
%LPD*%
G01*
G04 APERTURE LIST*
%ADD10C,0.100000*%
%ADD11R,1.960000X1.050000*%
%ADD12R,1.800000X1.800000*%
%ADD13C,1.800000*%
%ADD14C,2.099260*%
%ADD15R,2.099260X2.099260*%
%ADD16R,2.432000X2.432000*%
%ADD17O,2.432000X2.432000*%
%ADD18C,2.398980*%
%ADD19R,1.400760X2.901900*%
%ADD20R,2.398980X4.400500*%
%ADD21C,2.400000*%
%ADD22R,1.670000X5.480000*%
%ADD23R,1.416000X5.480000*%
%ADD24R,2.432000X2.127200*%
%ADD25O,2.432000X2.127200*%
G04 APERTURE END LIST*
D10*
D11*
X100250000Y-108270000D03*
X100250000Y-109220000D03*
X100250000Y-110170000D03*
X102950000Y-110170000D03*
X102950000Y-108270000D03*
X102950000Y-109220000D03*
D12*
X102870000Y-124460000D03*
D13*
X102870000Y-119460000D03*
D14*
X96522540Y-124460520D03*
D15*
X96522540Y-114300520D03*
D14*
X99057460Y-114299480D03*
D15*
X99057460Y-124459480D03*
D16*
X78740000Y-124460000D03*
D17*
X81280000Y-124460000D03*
D16*
X81280000Y-77470000D03*
D17*
X78740000Y-77470000D03*
D16*
X99060000Y-77470000D03*
D17*
X96520000Y-77470000D03*
D18*
X78740000Y-113030000D03*
X88900000Y-113030000D03*
D19*
X91208860Y-117922040D03*
X92710000Y-117922040D03*
X94211140Y-117922040D03*
D20*
X92710000Y-113969800D03*
D10*
G36*
X93910760Y-115744650D02*
X93410380Y-116893950D01*
X92009620Y-116893950D01*
X91509240Y-115744650D01*
X93910760Y-115744650D01*
X93910760Y-115744650D01*
G37*
D21*
X102870000Y-114300000D03*
X93980000Y-105410000D03*
D22*
X111125000Y-77470000D03*
X102235000Y-77470000D03*
D23*
X106680000Y-77470000D03*
D22*
X93345000Y-77470000D03*
X84455000Y-77470000D03*
D23*
X88900000Y-77470000D03*
D22*
X84455000Y-124460000D03*
X93345000Y-124460000D03*
D23*
X88900000Y-124460000D03*
D24*
X73660000Y-78740000D03*
D25*
X73660000Y-81280000D03*
X73660000Y-83820000D03*
X73660000Y-86360000D03*
X73660000Y-88900000D03*
X73660000Y-91440000D03*
X73660000Y-93980000D03*
X73660000Y-96520000D03*
X73660000Y-99060000D03*
X73660000Y-101600000D03*
X73660000Y-104140000D03*
X73660000Y-106680000D03*
X73660000Y-109220000D03*
X73660000Y-111760000D03*
X73660000Y-114300000D03*
X73660000Y-116840000D03*
X73660000Y-119380000D03*
X73660000Y-121920000D03*
X73660000Y-124460000D03*
D24*
X144780000Y-78740000D03*
D25*
X144780000Y-81280000D03*
X144780000Y-83820000D03*
X144780000Y-86360000D03*
X144780000Y-88900000D03*
X144780000Y-91440000D03*
X144780000Y-93980000D03*
X144780000Y-96520000D03*
X144780000Y-99060000D03*
X144780000Y-101600000D03*
X144780000Y-104140000D03*
X144780000Y-106680000D03*
X144780000Y-109220000D03*
X144780000Y-111760000D03*
X144780000Y-114300000D03*
X144780000Y-116840000D03*
X144780000Y-119380000D03*
X144780000Y-121920000D03*
X144780000Y-124460000D03*
M02*
