M48
;DRILL file {KiCad 4.0.3+e1-6302~38~ubuntu16.04.1-stable} date Thu Aug 25 12:40:15 2016
;FORMAT={-:-/ absolute / inch / decimal}
FMAT,2
INCH,TZ
T1C0.016
T2C0.028
T3C0.035
T4C0.039
T5C0.039
T6C0.040
%
G90
G05
M72
T1
X3.4Y-3.25
X4.05Y-4.2
T2
X3.8001Y-4.5
X3.8001Y-4.9
X3.8999Y-4.5
X3.8999Y-4.9
T3
X4.05Y-4.7031
X4.05Y-4.9
T4
X3.7Y-4.15
X4.05Y-4.5
T5
X3.1Y-4.45
X3.5Y-4.45
T6
X2.9Y-3.1
X2.9Y-3.2
X2.9Y-3.3
X2.9Y-3.4
X2.9Y-3.5
X2.9Y-3.6
X2.9Y-3.7
X2.9Y-3.8
X2.9Y-3.9
X2.9Y-4.
X2.9Y-4.1
X2.9Y-4.2
X2.9Y-4.3
X2.9Y-4.4
X2.9Y-4.5
X2.9Y-4.6
X2.9Y-4.7
X2.9Y-4.8
X2.9Y-4.9
X3.1Y-3.05
X3.1Y-4.9
X3.2Y-3.05
X3.2Y-4.9
X3.8Y-3.05
X3.9Y-3.05
X5.7Y-3.1
X5.7Y-3.2
X5.7Y-3.3
X5.7Y-3.4
X5.7Y-3.5
X5.7Y-3.6
X5.7Y-3.7
X5.7Y-3.8
X5.7Y-3.9
X5.7Y-4.
X5.7Y-4.1
X5.7Y-4.2
X5.7Y-4.3
X5.7Y-4.4
X5.7Y-4.5
X5.7Y-4.6
X5.7Y-4.7
X5.7Y-4.8
X5.7Y-4.9
T0
M30
