%FSLAX45Y45*%
G04 Gerber Fmt 4.5, Leading zero omitted, Abs format (unit mm)*
G04 Created by KiCad (PCBNEW 4.0.3+e1-6302~38~ubuntu16.04.1-stable) date Thu Aug 25 12:25:44 2016*
%MOMM*%
%LPD*%
G01*
G04 APERTURE LIST*
%ADD10C,0.127000*%
%ADD11C,0.150000*%
%ADD12C,0.200000*%
%ADD13C,0.300000*%
G04 APERTURE END LIST*
D10*
D11*
X9398000Y-7747000D02*
X3937000Y-7747000D01*
X9398000Y-12954000D02*
X9398000Y-7747000D01*
X3937000Y-12954000D02*
X9398000Y-12954000D01*
X3937000Y-7747000D02*
X3937000Y-12954000D01*
D12*
X5441000Y-9441500D02*
X5481000Y-9481500D01*
X5481000Y-9441500D02*
X5441000Y-9481500D01*
X6393500Y-9441500D02*
X6433500Y-9481500D01*
X6433500Y-9441500D02*
X6393500Y-9481500D01*
X4988306Y-8255052D02*
G75*
G03X4988306Y-8255052I-35052J0D01*
G01*
X4988306Y-9271052D02*
G75*
G03X4988306Y-9271052I-35052J0D01*
G01*
X5115306Y-11303052D02*
G75*
G03X5115306Y-11303052I-35052J0D01*
G01*
X5115306Y-12319052D02*
G75*
G03X5115306Y-12319052I-35052J0D01*
G01*
X5496306Y-9271052D02*
G75*
G03X5496306Y-9271052I-35052J0D01*
G01*
X5496306Y-10287052D02*
G75*
G03X5496306Y-10287052I-35052J0D01*
G01*
X7655306Y-9398052D02*
G75*
G03X7655306Y-9398052I-35052J0D01*
G01*
X7655306Y-10414052D02*
G75*
G03X7655306Y-10414052I-35052J0D01*
G01*
X4572000Y-9612000D02*
X4572000Y-9692000D01*
X4532000Y-9652000D02*
X4612000Y-9652000D01*
X4826000Y-10120000D02*
X4826000Y-10200000D01*
X4786000Y-10160000D02*
X4866000Y-10160000D01*
X5334000Y-8723000D02*
X5334000Y-8803000D01*
X5294000Y-8763000D02*
X5374000Y-8763000D01*
X5461000Y-8596000D02*
X5461000Y-8676000D01*
X5421000Y-8636000D02*
X5501000Y-8636000D01*
X5461000Y-8850000D02*
X5461000Y-8930000D01*
X5421000Y-8890000D02*
X5501000Y-8890000D01*
X5461000Y-10882000D02*
X5461000Y-10962000D01*
X5421000Y-10922000D02*
X5501000Y-10922000D01*
X5842000Y-11644000D02*
X5842000Y-11724000D01*
X5802000Y-11684000D02*
X5882000Y-11684000D01*
X5969000Y-8977000D02*
X5969000Y-9057000D01*
X5929000Y-9017000D02*
X6009000Y-9017000D01*
X5969000Y-9612000D02*
X5969000Y-9692000D01*
X5929000Y-9652000D02*
X6009000Y-9652000D01*
X5969000Y-9866000D02*
X5969000Y-9946000D01*
X5929000Y-9906000D02*
X6009000Y-9906000D01*
X6096000Y-8850000D02*
X6096000Y-8930000D01*
X6056000Y-8890000D02*
X6136000Y-8890000D01*
X6096000Y-9739000D02*
X6096000Y-9819000D01*
X6056000Y-9779000D02*
X6136000Y-9779000D01*
X6223000Y-8977000D02*
X6223000Y-9057000D01*
X6183000Y-9017000D02*
X6263000Y-9017000D01*
X6223000Y-10755000D02*
X6223000Y-10835000D01*
X6183000Y-10795000D02*
X6263000Y-10795000D01*
X6342000Y-11644000D02*
X6342000Y-11724000D01*
X6302000Y-11684000D02*
X6382000Y-11684000D01*
X6350000Y-10628000D02*
X6350000Y-10708000D01*
X6310000Y-10668000D02*
X6390000Y-10668000D01*
X6477000Y-10755000D02*
X6477000Y-10835000D01*
X6437000Y-10795000D02*
X6517000Y-10795000D01*
X6604000Y-9866000D02*
X6604000Y-9946000D01*
X6564000Y-9906000D02*
X6644000Y-9906000D01*
X6604000Y-10120000D02*
X6604000Y-10200000D01*
X6564000Y-10160000D02*
X6644000Y-10160000D01*
X6731000Y-9993000D02*
X6731000Y-10073000D01*
X6691000Y-10033000D02*
X6771000Y-10033000D01*
X6731000Y-11263000D02*
X6731000Y-11343000D01*
X6691000Y-11303000D02*
X6771000Y-11303000D01*
X6858000Y-11136000D02*
X6858000Y-11216000D01*
X6818000Y-11176000D02*
X6898000Y-11176000D01*
X6985000Y-10501000D02*
X6985000Y-10581000D01*
X6945000Y-10541000D02*
X7025000Y-10541000D01*
X6985000Y-11263000D02*
X6985000Y-11343000D01*
X6945000Y-11303000D02*
X7025000Y-11303000D01*
X4604288Y-10188288D02*
X4604288Y-10131712D01*
X4547712Y-10131712D01*
X4547712Y-10188288D01*
X4604288Y-10188288D01*
X4850288Y-9680288D02*
X4850288Y-9623712D01*
X4793712Y-9623712D01*
X4793712Y-9680288D01*
X4850288Y-9680288D01*
X5739288Y-10950288D02*
X5739288Y-10893712D01*
X5682712Y-10893712D01*
X5682712Y-10950288D01*
X5739288Y-10950288D01*
X7013288Y-10819288D02*
X7013288Y-10762712D01*
X6956712Y-10762712D01*
X6956712Y-10819288D01*
X7013288Y-10819288D01*
X4572000Y-8305038D02*
X4622038Y-8255000D01*
X4572000Y-8204962D01*
X4521962Y-8255000D01*
X4572000Y-8305038D01*
X4572000Y-9321038D02*
X4622038Y-9271000D01*
X4572000Y-9220962D01*
X4521962Y-9271000D01*
X4572000Y-9321038D01*
X4699000Y-11353038D02*
X4749038Y-11303000D01*
X4699000Y-11252962D01*
X4648962Y-11303000D01*
X4699000Y-11353038D01*
X4699000Y-12369038D02*
X4749038Y-12319000D01*
X4699000Y-12268962D01*
X4648962Y-12319000D01*
X4699000Y-12369038D01*
X5207000Y-9765538D02*
X5257038Y-9715500D01*
X5207000Y-9665462D01*
X5156962Y-9715500D01*
X5207000Y-9765538D01*
X5207000Y-10781538D02*
X5257038Y-10731500D01*
X5207000Y-10681462D01*
X5156962Y-10731500D01*
X5207000Y-10781538D01*
X6985000Y-8813038D02*
X7035038Y-8763000D01*
X6985000Y-8712962D01*
X6934962Y-8763000D01*
X6985000Y-8813038D01*
X6985000Y-9829038D02*
X7035038Y-9779000D01*
X6985000Y-9728962D01*
X6934962Y-9779000D01*
X6985000Y-9829038D01*
X7366000Y-9321038D02*
X7416038Y-9271000D01*
X7366000Y-9220962D01*
X7315962Y-9271000D01*
X7366000Y-9321038D01*
X7366000Y-10337038D02*
X7416038Y-10287000D01*
X7366000Y-10236962D01*
X7315962Y-10287000D01*
X7366000Y-10337038D01*
X7366000Y-12115038D02*
X7416038Y-12065000D01*
X7366000Y-12014962D01*
X7315962Y-12065000D01*
X7366000Y-12115038D01*
X7366000Y-12369038D02*
X7416038Y-12319000D01*
X7366000Y-12268962D01*
X7315962Y-12319000D01*
X7366000Y-12369038D01*
X7366000Y-12623038D02*
X7416038Y-12573000D01*
X7366000Y-12522962D01*
X7315962Y-12573000D01*
X7366000Y-12623038D01*
X7493000Y-10972038D02*
X7543038Y-10922000D01*
X7493000Y-10871962D01*
X7442962Y-10922000D01*
X7493000Y-10972038D01*
X7493000Y-11226038D02*
X7543038Y-11176000D01*
X7493000Y-11125962D01*
X7442962Y-11176000D01*
X7493000Y-11226038D01*
X7493000Y-11480038D02*
X7543038Y-11430000D01*
X7493000Y-11379962D01*
X7442962Y-11430000D01*
X7493000Y-11480038D01*
X4140200Y-8077200D02*
X4241800Y-8178800D01*
X4241800Y-8077200D02*
X4140200Y-8178800D01*
X4241800Y-8128000D02*
G75*
G03X4241800Y-8128000I-50800J0D01*
G01*
X4140200Y-8331200D02*
X4241800Y-8432800D01*
X4241800Y-8331200D02*
X4140200Y-8432800D01*
X4241800Y-8382000D02*
G75*
G03X4241800Y-8382000I-50800J0D01*
G01*
X4140200Y-8585200D02*
X4241800Y-8686800D01*
X4241800Y-8585200D02*
X4140200Y-8686800D01*
X4241800Y-8636000D02*
G75*
G03X4241800Y-8636000I-50800J0D01*
G01*
X4140200Y-8839200D02*
X4241800Y-8940800D01*
X4241800Y-8839200D02*
X4140200Y-8940800D01*
X4241800Y-8890000D02*
G75*
G03X4241800Y-8890000I-50800J0D01*
G01*
X4140200Y-9093200D02*
X4241800Y-9194800D01*
X4241800Y-9093200D02*
X4140200Y-9194800D01*
X4241800Y-9144000D02*
G75*
G03X4241800Y-9144000I-50800J0D01*
G01*
X4140200Y-9347200D02*
X4241800Y-9448800D01*
X4241800Y-9347200D02*
X4140200Y-9448800D01*
X4241800Y-9398000D02*
G75*
G03X4241800Y-9398000I-50800J0D01*
G01*
X4140200Y-9601200D02*
X4241800Y-9702800D01*
X4241800Y-9601200D02*
X4140200Y-9702800D01*
X4241800Y-9652000D02*
G75*
G03X4241800Y-9652000I-50800J0D01*
G01*
X4140200Y-9855200D02*
X4241800Y-9956800D01*
X4241800Y-9855200D02*
X4140200Y-9956800D01*
X4241800Y-9906000D02*
G75*
G03X4241800Y-9906000I-50800J0D01*
G01*
X4140200Y-10109200D02*
X4241800Y-10210800D01*
X4241800Y-10109200D02*
X4140200Y-10210800D01*
X4241800Y-10160000D02*
G75*
G03X4241800Y-10160000I-50800J0D01*
G01*
X4140200Y-10363200D02*
X4241800Y-10464800D01*
X4241800Y-10363200D02*
X4140200Y-10464800D01*
X4241800Y-10414000D02*
G75*
G03X4241800Y-10414000I-50800J0D01*
G01*
X4140200Y-10617200D02*
X4241800Y-10718800D01*
X4241800Y-10617200D02*
X4140200Y-10718800D01*
X4241800Y-10668000D02*
G75*
G03X4241800Y-10668000I-50800J0D01*
G01*
X4140200Y-10871200D02*
X4241800Y-10972800D01*
X4241800Y-10871200D02*
X4140200Y-10972800D01*
X4241800Y-10922000D02*
G75*
G03X4241800Y-10922000I-50800J0D01*
G01*
X4140200Y-11125200D02*
X4241800Y-11226800D01*
X4241800Y-11125200D02*
X4140200Y-11226800D01*
X4241800Y-11176000D02*
G75*
G03X4241800Y-11176000I-50800J0D01*
G01*
X4140200Y-11379200D02*
X4241800Y-11480800D01*
X4241800Y-11379200D02*
X4140200Y-11480800D01*
X4241800Y-11430000D02*
G75*
G03X4241800Y-11430000I-50800J0D01*
G01*
X4140200Y-11633200D02*
X4241800Y-11734800D01*
X4241800Y-11633200D02*
X4140200Y-11734800D01*
X4241800Y-11684000D02*
G75*
G03X4241800Y-11684000I-50800J0D01*
G01*
X4140200Y-11887200D02*
X4241800Y-11988800D01*
X4241800Y-11887200D02*
X4140200Y-11988800D01*
X4241800Y-11938000D02*
G75*
G03X4241800Y-11938000I-50800J0D01*
G01*
X4140200Y-12141200D02*
X4241800Y-12242800D01*
X4241800Y-12141200D02*
X4140200Y-12242800D01*
X4241800Y-12192000D02*
G75*
G03X4241800Y-12192000I-50800J0D01*
G01*
X4140200Y-12395200D02*
X4241800Y-12496800D01*
X4241800Y-12395200D02*
X4140200Y-12496800D01*
X4241800Y-12446000D02*
G75*
G03X4241800Y-12446000I-50800J0D01*
G01*
X4140200Y-12649200D02*
X4241800Y-12750800D01*
X4241800Y-12649200D02*
X4140200Y-12750800D01*
X4241800Y-12700000D02*
G75*
G03X4241800Y-12700000I-50800J0D01*
G01*
X5283200Y-7950200D02*
X5384800Y-8051800D01*
X5384800Y-7950200D02*
X5283200Y-8051800D01*
X5384800Y-8001000D02*
G75*
G03X5384800Y-8001000I-50800J0D01*
G01*
X5283200Y-12649200D02*
X5384800Y-12750800D01*
X5384800Y-12649200D02*
X5283200Y-12750800D01*
X5384800Y-12700000D02*
G75*
G03X5384800Y-12700000I-50800J0D01*
G01*
X5537200Y-7950200D02*
X5638800Y-8051800D01*
X5638800Y-7950200D02*
X5537200Y-8051800D01*
X5638800Y-8001000D02*
G75*
G03X5638800Y-8001000I-50800J0D01*
G01*
X5537200Y-12649200D02*
X5638800Y-12750800D01*
X5638800Y-12649200D02*
X5537200Y-12750800D01*
X5638800Y-12700000D02*
G75*
G03X5638800Y-12700000I-50800J0D01*
G01*
X6045200Y-7950200D02*
X6146800Y-8051800D01*
X6146800Y-7950200D02*
X6045200Y-8051800D01*
X6146800Y-8001000D02*
G75*
G03X6146800Y-8001000I-50800J0D01*
G01*
X6299200Y-7950200D02*
X6400800Y-8051800D01*
X6400800Y-7950200D02*
X6299200Y-8051800D01*
X6400800Y-8001000D02*
G75*
G03X6400800Y-8001000I-50800J0D01*
G01*
X9093200Y-8077200D02*
X9194800Y-8178800D01*
X9194800Y-8077200D02*
X9093200Y-8178800D01*
X9194800Y-8128000D02*
G75*
G03X9194800Y-8128000I-50800J0D01*
G01*
X9093200Y-8331200D02*
X9194800Y-8432800D01*
X9194800Y-8331200D02*
X9093200Y-8432800D01*
X9194800Y-8382000D02*
G75*
G03X9194800Y-8382000I-50800J0D01*
G01*
X9093200Y-8585200D02*
X9194800Y-8686800D01*
X9194800Y-8585200D02*
X9093200Y-8686800D01*
X9194800Y-8636000D02*
G75*
G03X9194800Y-8636000I-50800J0D01*
G01*
X9093200Y-8839200D02*
X9194800Y-8940800D01*
X9194800Y-8839200D02*
X9093200Y-8940800D01*
X9194800Y-8890000D02*
G75*
G03X9194800Y-8890000I-50800J0D01*
G01*
X9093200Y-9093200D02*
X9194800Y-9194800D01*
X9194800Y-9093200D02*
X9093200Y-9194800D01*
X9194800Y-9144000D02*
G75*
G03X9194800Y-9144000I-50800J0D01*
G01*
X9093200Y-9347200D02*
X9194800Y-9448800D01*
X9194800Y-9347200D02*
X9093200Y-9448800D01*
X9194800Y-9398000D02*
G75*
G03X9194800Y-9398000I-50800J0D01*
G01*
X9093200Y-9601200D02*
X9194800Y-9702800D01*
X9194800Y-9601200D02*
X9093200Y-9702800D01*
X9194800Y-9652000D02*
G75*
G03X9194800Y-9652000I-50800J0D01*
G01*
X9093200Y-9855200D02*
X9194800Y-9956800D01*
X9194800Y-9855200D02*
X9093200Y-9956800D01*
X9194800Y-9906000D02*
G75*
G03X9194800Y-9906000I-50800J0D01*
G01*
X9093200Y-10109200D02*
X9194800Y-10210800D01*
X9194800Y-10109200D02*
X9093200Y-10210800D01*
X9194800Y-10160000D02*
G75*
G03X9194800Y-10160000I-50800J0D01*
G01*
X9093200Y-10363200D02*
X9194800Y-10464800D01*
X9194800Y-10363200D02*
X9093200Y-10464800D01*
X9194800Y-10414000D02*
G75*
G03X9194800Y-10414000I-50800J0D01*
G01*
X9093200Y-10617200D02*
X9194800Y-10718800D01*
X9194800Y-10617200D02*
X9093200Y-10718800D01*
X9194800Y-10668000D02*
G75*
G03X9194800Y-10668000I-50800J0D01*
G01*
X9093200Y-10871200D02*
X9194800Y-10972800D01*
X9194800Y-10871200D02*
X9093200Y-10972800D01*
X9194800Y-10922000D02*
G75*
G03X9194800Y-10922000I-50800J0D01*
G01*
X9093200Y-11125200D02*
X9194800Y-11226800D01*
X9194800Y-11125200D02*
X9093200Y-11226800D01*
X9194800Y-11176000D02*
G75*
G03X9194800Y-11176000I-50800J0D01*
G01*
X9093200Y-11379200D02*
X9194800Y-11480800D01*
X9194800Y-11379200D02*
X9093200Y-11480800D01*
X9194800Y-11430000D02*
G75*
G03X9194800Y-11430000I-50800J0D01*
G01*
X9093200Y-11633200D02*
X9194800Y-11734800D01*
X9194800Y-11633200D02*
X9093200Y-11734800D01*
X9194800Y-11684000D02*
G75*
G03X9194800Y-11684000I-50800J0D01*
G01*
X9093200Y-11887200D02*
X9194800Y-11988800D01*
X9194800Y-11887200D02*
X9093200Y-11988800D01*
X9194800Y-11938000D02*
G75*
G03X9194800Y-11938000I-50800J0D01*
G01*
X9093200Y-12141200D02*
X9194800Y-12242800D01*
X9194800Y-12141200D02*
X9093200Y-12242800D01*
X9194800Y-12192000D02*
G75*
G03X9194800Y-12192000I-50800J0D01*
G01*
X9093200Y-12395200D02*
X9194800Y-12496800D01*
X9194800Y-12395200D02*
X9093200Y-12496800D01*
X9194800Y-12446000D02*
G75*
G03X9194800Y-12446000I-50800J0D01*
G01*
X9093200Y-12649200D02*
X9194800Y-12750800D01*
X9194800Y-12649200D02*
X9093200Y-12750800D01*
X9194800Y-12700000D02*
G75*
G03X9194800Y-12700000I-50800J0D01*
G01*
D13*
X4200929Y-13427214D02*
X4200929Y-13127214D01*
X4272357Y-13127214D01*
X4315214Y-13141500D01*
X4343786Y-13170071D01*
X4358071Y-13198643D01*
X4372357Y-13255786D01*
X4372357Y-13298643D01*
X4358071Y-13355786D01*
X4343786Y-13384357D01*
X4315214Y-13412929D01*
X4272357Y-13427214D01*
X4200929Y-13427214D01*
X4500929Y-13427214D02*
X4500929Y-13227214D01*
X4500929Y-13284357D02*
X4515214Y-13255786D01*
X4529500Y-13241500D01*
X4558071Y-13227214D01*
X4586643Y-13227214D01*
X4686643Y-13427214D02*
X4686643Y-13227214D01*
X4686643Y-13127214D02*
X4672357Y-13141500D01*
X4686643Y-13155786D01*
X4700929Y-13141500D01*
X4686643Y-13127214D01*
X4686643Y-13155786D01*
X4872357Y-13427214D02*
X4843786Y-13412929D01*
X4829500Y-13384357D01*
X4829500Y-13127214D01*
X5029500Y-13427214D02*
X5000929Y-13412929D01*
X4986643Y-13384357D01*
X4986643Y-13127214D01*
X5372357Y-13427214D02*
X5372357Y-13127214D01*
X5472357Y-13341500D01*
X5572357Y-13127214D01*
X5572357Y-13427214D01*
X5843786Y-13427214D02*
X5843786Y-13270071D01*
X5829500Y-13241500D01*
X5800928Y-13227214D01*
X5743786Y-13227214D01*
X5715214Y-13241500D01*
X5843786Y-13412929D02*
X5815214Y-13427214D01*
X5743786Y-13427214D01*
X5715214Y-13412929D01*
X5700928Y-13384357D01*
X5700928Y-13355786D01*
X5715214Y-13327214D01*
X5743786Y-13312929D01*
X5815214Y-13312929D01*
X5843786Y-13298643D01*
X5986643Y-13227214D02*
X5986643Y-13527214D01*
X5986643Y-13241500D02*
X6015214Y-13227214D01*
X6072357Y-13227214D01*
X6100928Y-13241500D01*
X6115214Y-13255786D01*
X6129500Y-13284357D01*
X6129500Y-13370071D01*
X6115214Y-13398643D01*
X6100928Y-13412929D01*
X6072357Y-13427214D01*
X6015214Y-13427214D01*
X5986643Y-13412929D01*
X6258071Y-13398643D02*
X6272357Y-13412929D01*
X6258071Y-13427214D01*
X6243786Y-13412929D01*
X6258071Y-13398643D01*
X6258071Y-13427214D01*
X6258071Y-13241500D02*
X6272357Y-13255786D01*
X6258071Y-13270071D01*
X6243786Y-13255786D01*
X6258071Y-13241500D01*
X6258071Y-13270071D01*
X3889500Y-13901500D02*
X3929500Y-13941500D01*
X3929500Y-13901500D02*
X3889500Y-13941500D01*
X4258071Y-13757214D02*
X4286643Y-13757214D01*
X4315214Y-13771500D01*
X4329500Y-13785786D01*
X4343786Y-13814357D01*
X4358071Y-13871500D01*
X4358071Y-13942929D01*
X4343786Y-14000071D01*
X4329500Y-14028643D01*
X4315214Y-14042929D01*
X4286643Y-14057214D01*
X4258071Y-14057214D01*
X4229500Y-14042929D01*
X4215214Y-14028643D01*
X4200929Y-14000071D01*
X4186643Y-13942929D01*
X4186643Y-13871500D01*
X4200929Y-13814357D01*
X4215214Y-13785786D01*
X4229500Y-13771500D01*
X4258071Y-13757214D01*
X4486643Y-14028643D02*
X4500929Y-14042929D01*
X4486643Y-14057214D01*
X4472357Y-14042929D01*
X4486643Y-14028643D01*
X4486643Y-14057214D01*
X4758071Y-13857214D02*
X4758071Y-14057214D01*
X4686643Y-13742929D02*
X4615214Y-13957214D01*
X4800928Y-13957214D01*
X4972357Y-13757214D02*
X5000929Y-13757214D01*
X5029500Y-13771500D01*
X5043786Y-13785786D01*
X5058071Y-13814357D01*
X5072357Y-13871500D01*
X5072357Y-13942929D01*
X5058071Y-14000071D01*
X5043786Y-14028643D01*
X5029500Y-14042929D01*
X5000929Y-14057214D01*
X4972357Y-14057214D01*
X4943786Y-14042929D01*
X4929500Y-14028643D01*
X4915214Y-14000071D01*
X4900929Y-13942929D01*
X4900929Y-13871500D01*
X4915214Y-13814357D01*
X4929500Y-13785786D01*
X4943786Y-13771500D01*
X4972357Y-13757214D01*
X5200929Y-14057214D02*
X5200929Y-13857214D01*
X5200929Y-13885786D02*
X5215214Y-13871500D01*
X5243786Y-13857214D01*
X5286643Y-13857214D01*
X5315214Y-13871500D01*
X5329500Y-13900071D01*
X5329500Y-14057214D01*
X5329500Y-13900071D02*
X5343786Y-13871500D01*
X5372357Y-13857214D01*
X5415214Y-13857214D01*
X5443786Y-13871500D01*
X5458071Y-13900071D01*
X5458071Y-14057214D01*
X5600928Y-14057214D02*
X5600928Y-13857214D01*
X5600928Y-13885786D02*
X5615214Y-13871500D01*
X5643786Y-13857214D01*
X5686643Y-13857214D01*
X5715214Y-13871500D01*
X5729500Y-13900071D01*
X5729500Y-14057214D01*
X5729500Y-13900071D02*
X5743786Y-13871500D01*
X5772357Y-13857214D01*
X5815214Y-13857214D01*
X5843786Y-13871500D01*
X5858071Y-13900071D01*
X5858071Y-14057214D01*
X6443786Y-13742929D02*
X6186643Y-14128643D01*
X6829500Y-13757214D02*
X6858071Y-13757214D01*
X6886643Y-13771500D01*
X6900928Y-13785786D01*
X6915214Y-13814357D01*
X6929500Y-13871500D01*
X6929500Y-13942929D01*
X6915214Y-14000071D01*
X6900928Y-14028643D01*
X6886643Y-14042929D01*
X6858071Y-14057214D01*
X6829500Y-14057214D01*
X6800928Y-14042929D01*
X6786643Y-14028643D01*
X6772357Y-14000071D01*
X6758071Y-13942929D01*
X6758071Y-13871500D01*
X6772357Y-13814357D01*
X6786643Y-13785786D01*
X6800928Y-13771500D01*
X6829500Y-13757214D01*
X7058071Y-14028643D02*
X7072357Y-14042929D01*
X7058071Y-14057214D01*
X7043786Y-14042929D01*
X7058071Y-14028643D01*
X7058071Y-14057214D01*
X7258071Y-13757214D02*
X7286643Y-13757214D01*
X7315214Y-13771500D01*
X7329500Y-13785786D01*
X7343785Y-13814357D01*
X7358071Y-13871500D01*
X7358071Y-13942929D01*
X7343785Y-14000071D01*
X7329500Y-14028643D01*
X7315214Y-14042929D01*
X7286643Y-14057214D01*
X7258071Y-14057214D01*
X7229500Y-14042929D01*
X7215214Y-14028643D01*
X7200928Y-14000071D01*
X7186643Y-13942929D01*
X7186643Y-13871500D01*
X7200928Y-13814357D01*
X7215214Y-13785786D01*
X7229500Y-13771500D01*
X7258071Y-13757214D01*
X7643785Y-14057214D02*
X7472357Y-14057214D01*
X7558071Y-14057214D02*
X7558071Y-13757214D01*
X7529500Y-13800071D01*
X7500928Y-13828643D01*
X7472357Y-13842929D01*
X7900928Y-13757214D02*
X7843785Y-13757214D01*
X7815214Y-13771500D01*
X7800928Y-13785786D01*
X7772357Y-13828643D01*
X7758071Y-13885786D01*
X7758071Y-14000071D01*
X7772357Y-14028643D01*
X7786643Y-14042929D01*
X7815214Y-14057214D01*
X7872357Y-14057214D01*
X7900928Y-14042929D01*
X7915214Y-14028643D01*
X7929500Y-14000071D01*
X7929500Y-13928643D01*
X7915214Y-13900071D01*
X7900928Y-13885786D01*
X7872357Y-13871500D01*
X7815214Y-13871500D01*
X7786643Y-13885786D01*
X7772357Y-13900071D01*
X7758071Y-13928643D01*
X8043786Y-13757214D02*
X8043786Y-13814357D01*
X8158071Y-13757214D02*
X8158071Y-13814357D01*
X8600928Y-14171500D02*
X8586643Y-14157214D01*
X8558071Y-14114357D01*
X8543786Y-14085786D01*
X8529500Y-14042929D01*
X8515214Y-13971500D01*
X8515214Y-13914357D01*
X8529500Y-13842929D01*
X8543786Y-13800071D01*
X8558071Y-13771500D01*
X8586643Y-13728643D01*
X8600928Y-13714357D01*
X8700928Y-13785786D02*
X8715214Y-13771500D01*
X8743786Y-13757214D01*
X8815214Y-13757214D01*
X8843786Y-13771500D01*
X8858071Y-13785786D01*
X8872357Y-13814357D01*
X8872357Y-13842929D01*
X8858071Y-13885786D01*
X8686643Y-14057214D01*
X8872357Y-14057214D01*
X9229500Y-14057214D02*
X9229500Y-13757214D01*
X9358071Y-14057214D02*
X9358071Y-13900071D01*
X9343786Y-13871500D01*
X9315214Y-13857214D01*
X9272357Y-13857214D01*
X9243786Y-13871500D01*
X9229500Y-13885786D01*
X9543786Y-14057214D02*
X9515214Y-14042929D01*
X9500928Y-14028643D01*
X9486643Y-14000071D01*
X9486643Y-13914357D01*
X9500928Y-13885786D01*
X9515214Y-13871500D01*
X9543786Y-13857214D01*
X9586643Y-13857214D01*
X9615214Y-13871500D01*
X9629500Y-13885786D01*
X9643786Y-13914357D01*
X9643786Y-14000071D01*
X9629500Y-14028643D01*
X9615214Y-14042929D01*
X9586643Y-14057214D01*
X9543786Y-14057214D01*
X9815214Y-14057214D02*
X9786643Y-14042929D01*
X9772357Y-14014357D01*
X9772357Y-13757214D01*
X10043786Y-14042929D02*
X10015214Y-14057214D01*
X9958071Y-14057214D01*
X9929500Y-14042929D01*
X9915214Y-14014357D01*
X9915214Y-13900071D01*
X9929500Y-13871500D01*
X9958071Y-13857214D01*
X10015214Y-13857214D01*
X10043786Y-13871500D01*
X10058071Y-13900071D01*
X10058071Y-13928643D01*
X9915214Y-13957214D01*
X10172357Y-14042929D02*
X10200929Y-14057214D01*
X10258071Y-14057214D01*
X10286643Y-14042929D01*
X10300929Y-14014357D01*
X10300929Y-14000071D01*
X10286643Y-13971500D01*
X10258071Y-13957214D01*
X10215214Y-13957214D01*
X10186643Y-13942929D01*
X10172357Y-13914357D01*
X10172357Y-13900071D01*
X10186643Y-13871500D01*
X10215214Y-13857214D01*
X10258071Y-13857214D01*
X10286643Y-13871500D01*
X10400928Y-14171500D02*
X10415214Y-14157214D01*
X10443786Y-14114357D01*
X10458071Y-14085786D01*
X10472357Y-14042929D01*
X10486643Y-13971500D01*
X10486643Y-13914357D01*
X10472357Y-13842929D01*
X10458071Y-13800071D01*
X10443786Y-13771500D01*
X10415214Y-13728643D01*
X10400928Y-13714357D01*
X3929500Y-14317500D02*
G75*
G03X3929500Y-14317500I-35052J0D01*
G01*
X4258071Y-14153214D02*
X4286643Y-14153214D01*
X4315214Y-14167500D01*
X4329500Y-14181786D01*
X4343786Y-14210357D01*
X4358071Y-14267500D01*
X4358071Y-14338929D01*
X4343786Y-14396071D01*
X4329500Y-14424643D01*
X4315214Y-14438929D01*
X4286643Y-14453214D01*
X4258071Y-14453214D01*
X4229500Y-14438929D01*
X4215214Y-14424643D01*
X4200929Y-14396071D01*
X4186643Y-14338929D01*
X4186643Y-14267500D01*
X4200929Y-14210357D01*
X4215214Y-14181786D01*
X4229500Y-14167500D01*
X4258071Y-14153214D01*
X4486643Y-14424643D02*
X4500929Y-14438929D01*
X4486643Y-14453214D01*
X4472357Y-14438929D01*
X4486643Y-14424643D01*
X4486643Y-14453214D01*
X4600928Y-14153214D02*
X4800928Y-14153214D01*
X4672357Y-14453214D01*
X4972357Y-14153214D02*
X5000929Y-14153214D01*
X5029500Y-14167500D01*
X5043786Y-14181786D01*
X5058071Y-14210357D01*
X5072357Y-14267500D01*
X5072357Y-14338929D01*
X5058071Y-14396071D01*
X5043786Y-14424643D01*
X5029500Y-14438929D01*
X5000929Y-14453214D01*
X4972357Y-14453214D01*
X4943786Y-14438929D01*
X4929500Y-14424643D01*
X4915214Y-14396071D01*
X4900929Y-14338929D01*
X4900929Y-14267500D01*
X4915214Y-14210357D01*
X4929500Y-14181786D01*
X4943786Y-14167500D01*
X4972357Y-14153214D01*
X5200929Y-14453214D02*
X5200929Y-14253214D01*
X5200929Y-14281786D02*
X5215214Y-14267500D01*
X5243786Y-14253214D01*
X5286643Y-14253214D01*
X5315214Y-14267500D01*
X5329500Y-14296071D01*
X5329500Y-14453214D01*
X5329500Y-14296071D02*
X5343786Y-14267500D01*
X5372357Y-14253214D01*
X5415214Y-14253214D01*
X5443786Y-14267500D01*
X5458071Y-14296071D01*
X5458071Y-14453214D01*
X5600928Y-14453214D02*
X5600928Y-14253214D01*
X5600928Y-14281786D02*
X5615214Y-14267500D01*
X5643786Y-14253214D01*
X5686643Y-14253214D01*
X5715214Y-14267500D01*
X5729500Y-14296071D01*
X5729500Y-14453214D01*
X5729500Y-14296071D02*
X5743786Y-14267500D01*
X5772357Y-14253214D01*
X5815214Y-14253214D01*
X5843786Y-14267500D01*
X5858071Y-14296071D01*
X5858071Y-14453214D01*
X6443786Y-14138929D02*
X6186643Y-14524643D01*
X6829500Y-14153214D02*
X6858071Y-14153214D01*
X6886643Y-14167500D01*
X6900928Y-14181786D01*
X6915214Y-14210357D01*
X6929500Y-14267500D01*
X6929500Y-14338929D01*
X6915214Y-14396071D01*
X6900928Y-14424643D01*
X6886643Y-14438929D01*
X6858071Y-14453214D01*
X6829500Y-14453214D01*
X6800928Y-14438929D01*
X6786643Y-14424643D01*
X6772357Y-14396071D01*
X6758071Y-14338929D01*
X6758071Y-14267500D01*
X6772357Y-14210357D01*
X6786643Y-14181786D01*
X6800928Y-14167500D01*
X6829500Y-14153214D01*
X7058071Y-14424643D02*
X7072357Y-14438929D01*
X7058071Y-14453214D01*
X7043786Y-14438929D01*
X7058071Y-14424643D01*
X7058071Y-14453214D01*
X7258071Y-14153214D02*
X7286643Y-14153214D01*
X7315214Y-14167500D01*
X7329500Y-14181786D01*
X7343785Y-14210357D01*
X7358071Y-14267500D01*
X7358071Y-14338929D01*
X7343785Y-14396071D01*
X7329500Y-14424643D01*
X7315214Y-14438929D01*
X7286643Y-14453214D01*
X7258071Y-14453214D01*
X7229500Y-14438929D01*
X7215214Y-14424643D01*
X7200928Y-14396071D01*
X7186643Y-14338929D01*
X7186643Y-14267500D01*
X7200928Y-14210357D01*
X7215214Y-14181786D01*
X7229500Y-14167500D01*
X7258071Y-14153214D01*
X7472357Y-14181786D02*
X7486643Y-14167500D01*
X7515214Y-14153214D01*
X7586643Y-14153214D01*
X7615214Y-14167500D01*
X7629500Y-14181786D01*
X7643785Y-14210357D01*
X7643785Y-14238929D01*
X7629500Y-14281786D01*
X7458071Y-14453214D01*
X7643785Y-14453214D01*
X7815214Y-14281786D02*
X7786643Y-14267500D01*
X7772357Y-14253214D01*
X7758071Y-14224643D01*
X7758071Y-14210357D01*
X7772357Y-14181786D01*
X7786643Y-14167500D01*
X7815214Y-14153214D01*
X7872357Y-14153214D01*
X7900928Y-14167500D01*
X7915214Y-14181786D01*
X7929500Y-14210357D01*
X7929500Y-14224643D01*
X7915214Y-14253214D01*
X7900928Y-14267500D01*
X7872357Y-14281786D01*
X7815214Y-14281786D01*
X7786643Y-14296071D01*
X7772357Y-14310357D01*
X7758071Y-14338929D01*
X7758071Y-14396071D01*
X7772357Y-14424643D01*
X7786643Y-14438929D01*
X7815214Y-14453214D01*
X7872357Y-14453214D01*
X7900928Y-14438929D01*
X7915214Y-14424643D01*
X7929500Y-14396071D01*
X7929500Y-14338929D01*
X7915214Y-14310357D01*
X7900928Y-14296071D01*
X7872357Y-14281786D01*
X8043786Y-14153214D02*
X8043786Y-14210357D01*
X8158071Y-14153214D02*
X8158071Y-14210357D01*
X8600928Y-14567500D02*
X8586643Y-14553214D01*
X8558071Y-14510357D01*
X8543786Y-14481786D01*
X8529500Y-14438929D01*
X8515214Y-14367500D01*
X8515214Y-14310357D01*
X8529500Y-14238929D01*
X8543786Y-14196071D01*
X8558071Y-14167500D01*
X8586643Y-14124643D01*
X8600928Y-14110357D01*
X8758071Y-14281786D02*
X8729500Y-14267500D01*
X8715214Y-14253214D01*
X8700928Y-14224643D01*
X8700928Y-14210357D01*
X8715214Y-14181786D01*
X8729500Y-14167500D01*
X8758071Y-14153214D01*
X8815214Y-14153214D01*
X8843786Y-14167500D01*
X8858071Y-14181786D01*
X8872357Y-14210357D01*
X8872357Y-14224643D01*
X8858071Y-14253214D01*
X8843786Y-14267500D01*
X8815214Y-14281786D01*
X8758071Y-14281786D01*
X8729500Y-14296071D01*
X8715214Y-14310357D01*
X8700928Y-14338929D01*
X8700928Y-14396071D01*
X8715214Y-14424643D01*
X8729500Y-14438929D01*
X8758071Y-14453214D01*
X8815214Y-14453214D01*
X8843786Y-14438929D01*
X8858071Y-14424643D01*
X8872357Y-14396071D01*
X8872357Y-14338929D01*
X8858071Y-14310357D01*
X8843786Y-14296071D01*
X8815214Y-14281786D01*
X9229500Y-14453214D02*
X9229500Y-14153214D01*
X9358071Y-14453214D02*
X9358071Y-14296071D01*
X9343786Y-14267500D01*
X9315214Y-14253214D01*
X9272357Y-14253214D01*
X9243786Y-14267500D01*
X9229500Y-14281786D01*
X9543786Y-14453214D02*
X9515214Y-14438929D01*
X9500928Y-14424643D01*
X9486643Y-14396071D01*
X9486643Y-14310357D01*
X9500928Y-14281786D01*
X9515214Y-14267500D01*
X9543786Y-14253214D01*
X9586643Y-14253214D01*
X9615214Y-14267500D01*
X9629500Y-14281786D01*
X9643786Y-14310357D01*
X9643786Y-14396071D01*
X9629500Y-14424643D01*
X9615214Y-14438929D01*
X9586643Y-14453214D01*
X9543786Y-14453214D01*
X9815214Y-14453214D02*
X9786643Y-14438929D01*
X9772357Y-14410357D01*
X9772357Y-14153214D01*
X10043786Y-14438929D02*
X10015214Y-14453214D01*
X9958071Y-14453214D01*
X9929500Y-14438929D01*
X9915214Y-14410357D01*
X9915214Y-14296071D01*
X9929500Y-14267500D01*
X9958071Y-14253214D01*
X10015214Y-14253214D01*
X10043786Y-14267500D01*
X10058071Y-14296071D01*
X10058071Y-14324643D01*
X9915214Y-14353214D01*
X10172357Y-14438929D02*
X10200929Y-14453214D01*
X10258071Y-14453214D01*
X10286643Y-14438929D01*
X10300929Y-14410357D01*
X10300929Y-14396071D01*
X10286643Y-14367500D01*
X10258071Y-14353214D01*
X10215214Y-14353214D01*
X10186643Y-14338929D01*
X10172357Y-14310357D01*
X10172357Y-14296071D01*
X10186643Y-14267500D01*
X10215214Y-14253214D01*
X10258071Y-14253214D01*
X10286643Y-14267500D01*
X10400928Y-14567500D02*
X10415214Y-14553214D01*
X10443786Y-14510357D01*
X10458071Y-14481786D01*
X10472357Y-14438929D01*
X10486643Y-14367500D01*
X10486643Y-14310357D01*
X10472357Y-14238929D01*
X10458071Y-14196071D01*
X10443786Y-14167500D01*
X10415214Y-14124643D01*
X10400928Y-14110357D01*
X3889500Y-14673500D02*
X3889500Y-14753500D01*
X3849500Y-14713500D02*
X3929500Y-14713500D01*
X4258071Y-14549214D02*
X4286643Y-14549214D01*
X4315214Y-14563500D01*
X4329500Y-14577786D01*
X4343786Y-14606357D01*
X4358071Y-14663500D01*
X4358071Y-14734929D01*
X4343786Y-14792071D01*
X4329500Y-14820643D01*
X4315214Y-14834929D01*
X4286643Y-14849214D01*
X4258071Y-14849214D01*
X4229500Y-14834929D01*
X4215214Y-14820643D01*
X4200929Y-14792071D01*
X4186643Y-14734929D01*
X4186643Y-14663500D01*
X4200929Y-14606357D01*
X4215214Y-14577786D01*
X4229500Y-14563500D01*
X4258071Y-14549214D01*
X4486643Y-14820643D02*
X4500929Y-14834929D01*
X4486643Y-14849214D01*
X4472357Y-14834929D01*
X4486643Y-14820643D01*
X4486643Y-14849214D01*
X4672357Y-14677786D02*
X4643786Y-14663500D01*
X4629500Y-14649214D01*
X4615214Y-14620643D01*
X4615214Y-14606357D01*
X4629500Y-14577786D01*
X4643786Y-14563500D01*
X4672357Y-14549214D01*
X4729500Y-14549214D01*
X4758071Y-14563500D01*
X4772357Y-14577786D01*
X4786643Y-14606357D01*
X4786643Y-14620643D01*
X4772357Y-14649214D01*
X4758071Y-14663500D01*
X4729500Y-14677786D01*
X4672357Y-14677786D01*
X4643786Y-14692071D01*
X4629500Y-14706357D01*
X4615214Y-14734929D01*
X4615214Y-14792071D01*
X4629500Y-14820643D01*
X4643786Y-14834929D01*
X4672357Y-14849214D01*
X4729500Y-14849214D01*
X4758071Y-14834929D01*
X4772357Y-14820643D01*
X4786643Y-14792071D01*
X4786643Y-14734929D01*
X4772357Y-14706357D01*
X4758071Y-14692071D01*
X4729500Y-14677786D01*
X4972357Y-14549214D02*
X5000929Y-14549214D01*
X5029500Y-14563500D01*
X5043786Y-14577786D01*
X5058071Y-14606357D01*
X5072357Y-14663500D01*
X5072357Y-14734929D01*
X5058071Y-14792071D01*
X5043786Y-14820643D01*
X5029500Y-14834929D01*
X5000929Y-14849214D01*
X4972357Y-14849214D01*
X4943786Y-14834929D01*
X4929500Y-14820643D01*
X4915214Y-14792071D01*
X4900929Y-14734929D01*
X4900929Y-14663500D01*
X4915214Y-14606357D01*
X4929500Y-14577786D01*
X4943786Y-14563500D01*
X4972357Y-14549214D01*
X5200929Y-14849214D02*
X5200929Y-14649214D01*
X5200929Y-14677786D02*
X5215214Y-14663500D01*
X5243786Y-14649214D01*
X5286643Y-14649214D01*
X5315214Y-14663500D01*
X5329500Y-14692071D01*
X5329500Y-14849214D01*
X5329500Y-14692071D02*
X5343786Y-14663500D01*
X5372357Y-14649214D01*
X5415214Y-14649214D01*
X5443786Y-14663500D01*
X5458071Y-14692071D01*
X5458071Y-14849214D01*
X5600928Y-14849214D02*
X5600928Y-14649214D01*
X5600928Y-14677786D02*
X5615214Y-14663500D01*
X5643786Y-14649214D01*
X5686643Y-14649214D01*
X5715214Y-14663500D01*
X5729500Y-14692071D01*
X5729500Y-14849214D01*
X5729500Y-14692071D02*
X5743786Y-14663500D01*
X5772357Y-14649214D01*
X5815214Y-14649214D01*
X5843786Y-14663500D01*
X5858071Y-14692071D01*
X5858071Y-14849214D01*
X6443786Y-14534929D02*
X6186643Y-14920643D01*
X6829500Y-14549214D02*
X6858071Y-14549214D01*
X6886643Y-14563500D01*
X6900928Y-14577786D01*
X6915214Y-14606357D01*
X6929500Y-14663500D01*
X6929500Y-14734929D01*
X6915214Y-14792071D01*
X6900928Y-14820643D01*
X6886643Y-14834929D01*
X6858071Y-14849214D01*
X6829500Y-14849214D01*
X6800928Y-14834929D01*
X6786643Y-14820643D01*
X6772357Y-14792071D01*
X6758071Y-14734929D01*
X6758071Y-14663500D01*
X6772357Y-14606357D01*
X6786643Y-14577786D01*
X6800928Y-14563500D01*
X6829500Y-14549214D01*
X7058071Y-14820643D02*
X7072357Y-14834929D01*
X7058071Y-14849214D01*
X7043786Y-14834929D01*
X7058071Y-14820643D01*
X7058071Y-14849214D01*
X7258071Y-14549214D02*
X7286643Y-14549214D01*
X7315214Y-14563500D01*
X7329500Y-14577786D01*
X7343785Y-14606357D01*
X7358071Y-14663500D01*
X7358071Y-14734929D01*
X7343785Y-14792071D01*
X7329500Y-14820643D01*
X7315214Y-14834929D01*
X7286643Y-14849214D01*
X7258071Y-14849214D01*
X7229500Y-14834929D01*
X7215214Y-14820643D01*
X7200928Y-14792071D01*
X7186643Y-14734929D01*
X7186643Y-14663500D01*
X7200928Y-14606357D01*
X7215214Y-14577786D01*
X7229500Y-14563500D01*
X7258071Y-14549214D01*
X7458071Y-14549214D02*
X7643785Y-14549214D01*
X7543785Y-14663500D01*
X7586643Y-14663500D01*
X7615214Y-14677786D01*
X7629500Y-14692071D01*
X7643785Y-14720643D01*
X7643785Y-14792071D01*
X7629500Y-14820643D01*
X7615214Y-14834929D01*
X7586643Y-14849214D01*
X7500928Y-14849214D01*
X7472357Y-14834929D01*
X7458071Y-14820643D01*
X7929500Y-14849214D02*
X7758071Y-14849214D01*
X7843785Y-14849214D02*
X7843785Y-14549214D01*
X7815214Y-14592071D01*
X7786643Y-14620643D01*
X7758071Y-14634929D01*
X8043786Y-14549214D02*
X8043786Y-14606357D01*
X8158071Y-14549214D02*
X8158071Y-14606357D01*
X8600928Y-14963500D02*
X8586643Y-14949214D01*
X8558071Y-14906357D01*
X8543786Y-14877786D01*
X8529500Y-14834929D01*
X8515214Y-14763500D01*
X8515214Y-14706357D01*
X8529500Y-14634929D01*
X8543786Y-14592071D01*
X8558071Y-14563500D01*
X8586643Y-14520643D01*
X8600928Y-14506357D01*
X8700928Y-14577786D02*
X8715214Y-14563500D01*
X8743786Y-14549214D01*
X8815214Y-14549214D01*
X8843786Y-14563500D01*
X8858071Y-14577786D01*
X8872357Y-14606357D01*
X8872357Y-14634929D01*
X8858071Y-14677786D01*
X8686643Y-14849214D01*
X8872357Y-14849214D01*
X9129500Y-14649214D02*
X9129500Y-14849214D01*
X9058071Y-14534929D02*
X8986643Y-14749214D01*
X9172357Y-14749214D01*
X9515214Y-14849214D02*
X9515214Y-14549214D01*
X9643786Y-14849214D02*
X9643786Y-14692071D01*
X9629500Y-14663500D01*
X9600928Y-14649214D01*
X9558071Y-14649214D01*
X9529500Y-14663500D01*
X9515214Y-14677786D01*
X9829500Y-14849214D02*
X9800928Y-14834929D01*
X9786643Y-14820643D01*
X9772357Y-14792071D01*
X9772357Y-14706357D01*
X9786643Y-14677786D01*
X9800928Y-14663500D01*
X9829500Y-14649214D01*
X9872357Y-14649214D01*
X9900928Y-14663500D01*
X9915214Y-14677786D01*
X9929500Y-14706357D01*
X9929500Y-14792071D01*
X9915214Y-14820643D01*
X9900928Y-14834929D01*
X9872357Y-14849214D01*
X9829500Y-14849214D01*
X10100928Y-14849214D02*
X10072357Y-14834929D01*
X10058071Y-14806357D01*
X10058071Y-14549214D01*
X10329500Y-14834929D02*
X10300929Y-14849214D01*
X10243786Y-14849214D01*
X10215214Y-14834929D01*
X10200929Y-14806357D01*
X10200929Y-14692071D01*
X10215214Y-14663500D01*
X10243786Y-14649214D01*
X10300929Y-14649214D01*
X10329500Y-14663500D01*
X10343786Y-14692071D01*
X10343786Y-14720643D01*
X10200929Y-14749214D01*
X10458071Y-14834929D02*
X10486643Y-14849214D01*
X10543786Y-14849214D01*
X10572357Y-14834929D01*
X10586643Y-14806357D01*
X10586643Y-14792071D01*
X10572357Y-14763500D01*
X10543786Y-14749214D01*
X10500929Y-14749214D01*
X10472357Y-14734929D01*
X10458071Y-14706357D01*
X10458071Y-14692071D01*
X10472357Y-14663500D01*
X10500929Y-14649214D01*
X10543786Y-14649214D01*
X10572357Y-14663500D01*
X10686643Y-14963500D02*
X10700929Y-14949214D01*
X10729500Y-14906357D01*
X10743786Y-14877786D01*
X10758071Y-14834929D01*
X10772357Y-14763500D01*
X10772357Y-14706357D01*
X10758071Y-14634929D01*
X10743786Y-14592071D01*
X10729500Y-14563500D01*
X10700929Y-14520643D01*
X10686643Y-14506357D01*
X3917783Y-15137788D02*
X3917783Y-15081212D01*
X3861207Y-15081212D01*
X3861207Y-15137788D01*
X3917783Y-15137788D01*
X4258071Y-14945214D02*
X4286643Y-14945214D01*
X4315214Y-14959500D01*
X4329500Y-14973786D01*
X4343786Y-15002357D01*
X4358071Y-15059500D01*
X4358071Y-15130929D01*
X4343786Y-15188071D01*
X4329500Y-15216643D01*
X4315214Y-15230929D01*
X4286643Y-15245214D01*
X4258071Y-15245214D01*
X4229500Y-15230929D01*
X4215214Y-15216643D01*
X4200929Y-15188071D01*
X4186643Y-15130929D01*
X4186643Y-15059500D01*
X4200929Y-15002357D01*
X4215214Y-14973786D01*
X4229500Y-14959500D01*
X4258071Y-14945214D01*
X4486643Y-15216643D02*
X4500929Y-15230929D01*
X4486643Y-15245214D01*
X4472357Y-15230929D01*
X4486643Y-15216643D01*
X4486643Y-15245214D01*
X4672357Y-15073786D02*
X4643786Y-15059500D01*
X4629500Y-15045214D01*
X4615214Y-15016643D01*
X4615214Y-15002357D01*
X4629500Y-14973786D01*
X4643786Y-14959500D01*
X4672357Y-14945214D01*
X4729500Y-14945214D01*
X4758071Y-14959500D01*
X4772357Y-14973786D01*
X4786643Y-15002357D01*
X4786643Y-15016643D01*
X4772357Y-15045214D01*
X4758071Y-15059500D01*
X4729500Y-15073786D01*
X4672357Y-15073786D01*
X4643786Y-15088071D01*
X4629500Y-15102357D01*
X4615214Y-15130929D01*
X4615214Y-15188071D01*
X4629500Y-15216643D01*
X4643786Y-15230929D01*
X4672357Y-15245214D01*
X4729500Y-15245214D01*
X4758071Y-15230929D01*
X4772357Y-15216643D01*
X4786643Y-15188071D01*
X4786643Y-15130929D01*
X4772357Y-15102357D01*
X4758071Y-15088071D01*
X4729500Y-15073786D01*
X4972357Y-14945214D02*
X5000929Y-14945214D01*
X5029500Y-14959500D01*
X5043786Y-14973786D01*
X5058071Y-15002357D01*
X5072357Y-15059500D01*
X5072357Y-15130929D01*
X5058071Y-15188071D01*
X5043786Y-15216643D01*
X5029500Y-15230929D01*
X5000929Y-15245214D01*
X4972357Y-15245214D01*
X4943786Y-15230929D01*
X4929500Y-15216643D01*
X4915214Y-15188071D01*
X4900929Y-15130929D01*
X4900929Y-15059500D01*
X4915214Y-15002357D01*
X4929500Y-14973786D01*
X4943786Y-14959500D01*
X4972357Y-14945214D01*
X5200929Y-15245214D02*
X5200929Y-15045214D01*
X5200929Y-15073786D02*
X5215214Y-15059500D01*
X5243786Y-15045214D01*
X5286643Y-15045214D01*
X5315214Y-15059500D01*
X5329500Y-15088071D01*
X5329500Y-15245214D01*
X5329500Y-15088071D02*
X5343786Y-15059500D01*
X5372357Y-15045214D01*
X5415214Y-15045214D01*
X5443786Y-15059500D01*
X5458071Y-15088071D01*
X5458071Y-15245214D01*
X5600928Y-15245214D02*
X5600928Y-15045214D01*
X5600928Y-15073786D02*
X5615214Y-15059500D01*
X5643786Y-15045214D01*
X5686643Y-15045214D01*
X5715214Y-15059500D01*
X5729500Y-15088071D01*
X5729500Y-15245214D01*
X5729500Y-15088071D02*
X5743786Y-15059500D01*
X5772357Y-15045214D01*
X5815214Y-15045214D01*
X5843786Y-15059500D01*
X5858071Y-15088071D01*
X5858071Y-15245214D01*
X6443786Y-14930929D02*
X6186643Y-15316643D01*
X6829500Y-14945214D02*
X6858071Y-14945214D01*
X6886643Y-14959500D01*
X6900928Y-14973786D01*
X6915214Y-15002357D01*
X6929500Y-15059500D01*
X6929500Y-15130929D01*
X6915214Y-15188071D01*
X6900928Y-15216643D01*
X6886643Y-15230929D01*
X6858071Y-15245214D01*
X6829500Y-15245214D01*
X6800928Y-15230929D01*
X6786643Y-15216643D01*
X6772357Y-15188071D01*
X6758071Y-15130929D01*
X6758071Y-15059500D01*
X6772357Y-15002357D01*
X6786643Y-14973786D01*
X6800928Y-14959500D01*
X6829500Y-14945214D01*
X7058071Y-15216643D02*
X7072357Y-15230929D01*
X7058071Y-15245214D01*
X7043786Y-15230929D01*
X7058071Y-15216643D01*
X7058071Y-15245214D01*
X7258071Y-14945214D02*
X7286643Y-14945214D01*
X7315214Y-14959500D01*
X7329500Y-14973786D01*
X7343785Y-15002357D01*
X7358071Y-15059500D01*
X7358071Y-15130929D01*
X7343785Y-15188071D01*
X7329500Y-15216643D01*
X7315214Y-15230929D01*
X7286643Y-15245214D01*
X7258071Y-15245214D01*
X7229500Y-15230929D01*
X7215214Y-15216643D01*
X7200928Y-15188071D01*
X7186643Y-15130929D01*
X7186643Y-15059500D01*
X7200928Y-15002357D01*
X7215214Y-14973786D01*
X7229500Y-14959500D01*
X7258071Y-14945214D01*
X7458071Y-14945214D02*
X7643785Y-14945214D01*
X7543785Y-15059500D01*
X7586643Y-15059500D01*
X7615214Y-15073786D01*
X7629500Y-15088071D01*
X7643785Y-15116643D01*
X7643785Y-15188071D01*
X7629500Y-15216643D01*
X7615214Y-15230929D01*
X7586643Y-15245214D01*
X7500928Y-15245214D01*
X7472357Y-15230929D01*
X7458071Y-15216643D01*
X7758071Y-14973786D02*
X7772357Y-14959500D01*
X7800928Y-14945214D01*
X7872357Y-14945214D01*
X7900928Y-14959500D01*
X7915214Y-14973786D01*
X7929500Y-15002357D01*
X7929500Y-15030929D01*
X7915214Y-15073786D01*
X7743785Y-15245214D01*
X7929500Y-15245214D01*
X8043786Y-14945214D02*
X8043786Y-15002357D01*
X8158071Y-14945214D02*
X8158071Y-15002357D01*
X8600928Y-15359500D02*
X8586643Y-15345214D01*
X8558071Y-15302357D01*
X8543786Y-15273786D01*
X8529500Y-15230929D01*
X8515214Y-15159500D01*
X8515214Y-15102357D01*
X8529500Y-15030929D01*
X8543786Y-14988071D01*
X8558071Y-14959500D01*
X8586643Y-14916643D01*
X8600928Y-14902357D01*
X8843786Y-15045214D02*
X8843786Y-15245214D01*
X8772357Y-14930929D02*
X8700928Y-15145214D01*
X8886643Y-15145214D01*
X9229500Y-15245214D02*
X9229500Y-14945214D01*
X9358071Y-15245214D02*
X9358071Y-15088071D01*
X9343786Y-15059500D01*
X9315214Y-15045214D01*
X9272357Y-15045214D01*
X9243786Y-15059500D01*
X9229500Y-15073786D01*
X9543786Y-15245214D02*
X9515214Y-15230929D01*
X9500928Y-15216643D01*
X9486643Y-15188071D01*
X9486643Y-15102357D01*
X9500928Y-15073786D01*
X9515214Y-15059500D01*
X9543786Y-15045214D01*
X9586643Y-15045214D01*
X9615214Y-15059500D01*
X9629500Y-15073786D01*
X9643786Y-15102357D01*
X9643786Y-15188071D01*
X9629500Y-15216643D01*
X9615214Y-15230929D01*
X9586643Y-15245214D01*
X9543786Y-15245214D01*
X9815214Y-15245214D02*
X9786643Y-15230929D01*
X9772357Y-15202357D01*
X9772357Y-14945214D01*
X10043786Y-15230929D02*
X10015214Y-15245214D01*
X9958071Y-15245214D01*
X9929500Y-15230929D01*
X9915214Y-15202357D01*
X9915214Y-15088071D01*
X9929500Y-15059500D01*
X9958071Y-15045214D01*
X10015214Y-15045214D01*
X10043786Y-15059500D01*
X10058071Y-15088071D01*
X10058071Y-15116643D01*
X9915214Y-15145214D01*
X10172357Y-15230929D02*
X10200929Y-15245214D01*
X10258071Y-15245214D01*
X10286643Y-15230929D01*
X10300929Y-15202357D01*
X10300929Y-15188071D01*
X10286643Y-15159500D01*
X10258071Y-15145214D01*
X10215214Y-15145214D01*
X10186643Y-15130929D01*
X10172357Y-15102357D01*
X10172357Y-15088071D01*
X10186643Y-15059500D01*
X10215214Y-15045214D01*
X10258071Y-15045214D01*
X10286643Y-15059500D01*
X10400928Y-15359500D02*
X10415214Y-15345214D01*
X10443786Y-15302357D01*
X10458071Y-15273786D01*
X10472357Y-15230929D01*
X10486643Y-15159500D01*
X10486643Y-15102357D01*
X10472357Y-15030929D01*
X10458071Y-14988071D01*
X10443786Y-14959500D01*
X10415214Y-14916643D01*
X10400928Y-14902357D01*
X3879462Y-15555538D02*
X3929500Y-15505500D01*
X3879462Y-15455462D01*
X3829424Y-15505500D01*
X3879462Y-15555538D01*
X4358071Y-15641214D02*
X4186643Y-15641214D01*
X4272357Y-15641214D02*
X4272357Y-15341214D01*
X4243786Y-15384071D01*
X4215214Y-15412643D01*
X4186643Y-15426929D01*
X4486643Y-15612643D02*
X4500929Y-15626929D01*
X4486643Y-15641214D01*
X4472357Y-15626929D01*
X4486643Y-15612643D01*
X4486643Y-15641214D01*
X4686643Y-15341214D02*
X4715214Y-15341214D01*
X4743786Y-15355500D01*
X4758071Y-15369786D01*
X4772357Y-15398357D01*
X4786643Y-15455500D01*
X4786643Y-15526929D01*
X4772357Y-15584071D01*
X4758071Y-15612643D01*
X4743786Y-15626929D01*
X4715214Y-15641214D01*
X4686643Y-15641214D01*
X4658071Y-15626929D01*
X4643786Y-15612643D01*
X4629500Y-15584071D01*
X4615214Y-15526929D01*
X4615214Y-15455500D01*
X4629500Y-15398357D01*
X4643786Y-15369786D01*
X4658071Y-15355500D01*
X4686643Y-15341214D01*
X4972357Y-15341214D02*
X5000929Y-15341214D01*
X5029500Y-15355500D01*
X5043786Y-15369786D01*
X5058071Y-15398357D01*
X5072357Y-15455500D01*
X5072357Y-15526929D01*
X5058071Y-15584071D01*
X5043786Y-15612643D01*
X5029500Y-15626929D01*
X5000929Y-15641214D01*
X4972357Y-15641214D01*
X4943786Y-15626929D01*
X4929500Y-15612643D01*
X4915214Y-15584071D01*
X4900929Y-15526929D01*
X4900929Y-15455500D01*
X4915214Y-15398357D01*
X4929500Y-15369786D01*
X4943786Y-15355500D01*
X4972357Y-15341214D01*
X5200929Y-15641214D02*
X5200929Y-15441214D01*
X5200929Y-15469786D02*
X5215214Y-15455500D01*
X5243786Y-15441214D01*
X5286643Y-15441214D01*
X5315214Y-15455500D01*
X5329500Y-15484071D01*
X5329500Y-15641214D01*
X5329500Y-15484071D02*
X5343786Y-15455500D01*
X5372357Y-15441214D01*
X5415214Y-15441214D01*
X5443786Y-15455500D01*
X5458071Y-15484071D01*
X5458071Y-15641214D01*
X5600928Y-15641214D02*
X5600928Y-15441214D01*
X5600928Y-15469786D02*
X5615214Y-15455500D01*
X5643786Y-15441214D01*
X5686643Y-15441214D01*
X5715214Y-15455500D01*
X5729500Y-15484071D01*
X5729500Y-15641214D01*
X5729500Y-15484071D02*
X5743786Y-15455500D01*
X5772357Y-15441214D01*
X5815214Y-15441214D01*
X5843786Y-15455500D01*
X5858071Y-15484071D01*
X5858071Y-15641214D01*
X6443786Y-15326929D02*
X6186643Y-15712643D01*
X6829500Y-15341214D02*
X6858071Y-15341214D01*
X6886643Y-15355500D01*
X6900928Y-15369786D01*
X6915214Y-15398357D01*
X6929500Y-15455500D01*
X6929500Y-15526929D01*
X6915214Y-15584071D01*
X6900928Y-15612643D01*
X6886643Y-15626929D01*
X6858071Y-15641214D01*
X6829500Y-15641214D01*
X6800928Y-15626929D01*
X6786643Y-15612643D01*
X6772357Y-15584071D01*
X6758071Y-15526929D01*
X6758071Y-15455500D01*
X6772357Y-15398357D01*
X6786643Y-15369786D01*
X6800928Y-15355500D01*
X6829500Y-15341214D01*
X7058071Y-15612643D02*
X7072357Y-15626929D01*
X7058071Y-15641214D01*
X7043786Y-15626929D01*
X7058071Y-15612643D01*
X7058071Y-15641214D01*
X7258071Y-15341214D02*
X7286643Y-15341214D01*
X7315214Y-15355500D01*
X7329500Y-15369786D01*
X7343785Y-15398357D01*
X7358071Y-15455500D01*
X7358071Y-15526929D01*
X7343785Y-15584071D01*
X7329500Y-15612643D01*
X7315214Y-15626929D01*
X7286643Y-15641214D01*
X7258071Y-15641214D01*
X7229500Y-15626929D01*
X7215214Y-15612643D01*
X7200928Y-15584071D01*
X7186643Y-15526929D01*
X7186643Y-15455500D01*
X7200928Y-15398357D01*
X7215214Y-15369786D01*
X7229500Y-15355500D01*
X7258071Y-15341214D01*
X7458071Y-15341214D02*
X7643785Y-15341214D01*
X7543785Y-15455500D01*
X7586643Y-15455500D01*
X7615214Y-15469786D01*
X7629500Y-15484071D01*
X7643785Y-15512643D01*
X7643785Y-15584071D01*
X7629500Y-15612643D01*
X7615214Y-15626929D01*
X7586643Y-15641214D01*
X7500928Y-15641214D01*
X7472357Y-15626929D01*
X7458071Y-15612643D01*
X7786643Y-15641214D02*
X7843785Y-15641214D01*
X7872357Y-15626929D01*
X7886643Y-15612643D01*
X7915214Y-15569786D01*
X7929500Y-15512643D01*
X7929500Y-15398357D01*
X7915214Y-15369786D01*
X7900928Y-15355500D01*
X7872357Y-15341214D01*
X7815214Y-15341214D01*
X7786643Y-15355500D01*
X7772357Y-15369786D01*
X7758071Y-15398357D01*
X7758071Y-15469786D01*
X7772357Y-15498357D01*
X7786643Y-15512643D01*
X7815214Y-15526929D01*
X7872357Y-15526929D01*
X7900928Y-15512643D01*
X7915214Y-15498357D01*
X7929500Y-15469786D01*
X8043786Y-15341214D02*
X8043786Y-15398357D01*
X8158071Y-15341214D02*
X8158071Y-15398357D01*
X8600928Y-15755500D02*
X8586643Y-15741214D01*
X8558071Y-15698357D01*
X8543786Y-15669786D01*
X8529500Y-15626929D01*
X8515214Y-15555500D01*
X8515214Y-15498357D01*
X8529500Y-15426929D01*
X8543786Y-15384071D01*
X8558071Y-15355500D01*
X8586643Y-15312643D01*
X8600928Y-15298357D01*
X8872357Y-15641214D02*
X8700928Y-15641214D01*
X8786643Y-15641214D02*
X8786643Y-15341214D01*
X8758071Y-15384071D01*
X8729500Y-15412643D01*
X8700928Y-15426929D01*
X9129500Y-15341214D02*
X9072357Y-15341214D01*
X9043786Y-15355500D01*
X9029500Y-15369786D01*
X9000928Y-15412643D01*
X8986643Y-15469786D01*
X8986643Y-15584071D01*
X9000928Y-15612643D01*
X9015214Y-15626929D01*
X9043786Y-15641214D01*
X9100928Y-15641214D01*
X9129500Y-15626929D01*
X9143786Y-15612643D01*
X9158071Y-15584071D01*
X9158071Y-15512643D01*
X9143786Y-15484071D01*
X9129500Y-15469786D01*
X9100928Y-15455500D01*
X9043786Y-15455500D01*
X9015214Y-15469786D01*
X9000928Y-15484071D01*
X8986643Y-15512643D01*
X9515214Y-15641214D02*
X9515214Y-15341214D01*
X9643786Y-15641214D02*
X9643786Y-15484071D01*
X9629500Y-15455500D01*
X9600928Y-15441214D01*
X9558071Y-15441214D01*
X9529500Y-15455500D01*
X9515214Y-15469786D01*
X9829500Y-15641214D02*
X9800928Y-15626929D01*
X9786643Y-15612643D01*
X9772357Y-15584071D01*
X9772357Y-15498357D01*
X9786643Y-15469786D01*
X9800928Y-15455500D01*
X9829500Y-15441214D01*
X9872357Y-15441214D01*
X9900928Y-15455500D01*
X9915214Y-15469786D01*
X9929500Y-15498357D01*
X9929500Y-15584071D01*
X9915214Y-15612643D01*
X9900928Y-15626929D01*
X9872357Y-15641214D01*
X9829500Y-15641214D01*
X10100928Y-15641214D02*
X10072357Y-15626929D01*
X10058071Y-15598357D01*
X10058071Y-15341214D01*
X10329500Y-15626929D02*
X10300929Y-15641214D01*
X10243786Y-15641214D01*
X10215214Y-15626929D01*
X10200929Y-15598357D01*
X10200929Y-15484071D01*
X10215214Y-15455500D01*
X10243786Y-15441214D01*
X10300929Y-15441214D01*
X10329500Y-15455500D01*
X10343786Y-15484071D01*
X10343786Y-15512643D01*
X10200929Y-15541214D01*
X10458071Y-15626929D02*
X10486643Y-15641214D01*
X10543786Y-15641214D01*
X10572357Y-15626929D01*
X10586643Y-15598357D01*
X10586643Y-15584071D01*
X10572357Y-15555500D01*
X10543786Y-15541214D01*
X10500929Y-15541214D01*
X10472357Y-15526929D01*
X10458071Y-15498357D01*
X10458071Y-15484071D01*
X10472357Y-15455500D01*
X10500929Y-15441214D01*
X10543786Y-15441214D01*
X10572357Y-15455500D01*
X10686643Y-15755500D02*
X10700929Y-15741214D01*
X10729500Y-15698357D01*
X10743786Y-15669786D01*
X10758071Y-15626929D01*
X10772357Y-15555500D01*
X10772357Y-15498357D01*
X10758071Y-15426929D01*
X10743786Y-15384071D01*
X10729500Y-15355500D01*
X10700929Y-15312643D01*
X10686643Y-15298357D01*
X3827900Y-15850700D02*
X3929500Y-15952300D01*
X3929500Y-15850700D02*
X3827900Y-15952300D01*
X3929500Y-15901500D02*
G75*
G03X3929500Y-15901500I-50800J0D01*
G01*
X4358071Y-16037214D02*
X4186643Y-16037214D01*
X4272357Y-16037214D02*
X4272357Y-15737214D01*
X4243786Y-15780071D01*
X4215214Y-15808643D01*
X4186643Y-15822929D01*
X4486643Y-16008643D02*
X4500929Y-16022929D01*
X4486643Y-16037214D01*
X4472357Y-16022929D01*
X4486643Y-16008643D01*
X4486643Y-16037214D01*
X4686643Y-15737214D02*
X4715214Y-15737214D01*
X4743786Y-15751500D01*
X4758071Y-15765786D01*
X4772357Y-15794357D01*
X4786643Y-15851500D01*
X4786643Y-15922929D01*
X4772357Y-15980071D01*
X4758071Y-16008643D01*
X4743786Y-16022929D01*
X4715214Y-16037214D01*
X4686643Y-16037214D01*
X4658071Y-16022929D01*
X4643786Y-16008643D01*
X4629500Y-15980071D01*
X4615214Y-15922929D01*
X4615214Y-15851500D01*
X4629500Y-15794357D01*
X4643786Y-15765786D01*
X4658071Y-15751500D01*
X4686643Y-15737214D01*
X4900929Y-15765786D02*
X4915214Y-15751500D01*
X4943786Y-15737214D01*
X5015214Y-15737214D01*
X5043786Y-15751500D01*
X5058071Y-15765786D01*
X5072357Y-15794357D01*
X5072357Y-15822929D01*
X5058071Y-15865786D01*
X4886643Y-16037214D01*
X5072357Y-16037214D01*
X5200929Y-16037214D02*
X5200929Y-15837214D01*
X5200929Y-15865786D02*
X5215214Y-15851500D01*
X5243786Y-15837214D01*
X5286643Y-15837214D01*
X5315214Y-15851500D01*
X5329500Y-15880071D01*
X5329500Y-16037214D01*
X5329500Y-15880071D02*
X5343786Y-15851500D01*
X5372357Y-15837214D01*
X5415214Y-15837214D01*
X5443786Y-15851500D01*
X5458071Y-15880071D01*
X5458071Y-16037214D01*
X5600928Y-16037214D02*
X5600928Y-15837214D01*
X5600928Y-15865786D02*
X5615214Y-15851500D01*
X5643786Y-15837214D01*
X5686643Y-15837214D01*
X5715214Y-15851500D01*
X5729500Y-15880071D01*
X5729500Y-16037214D01*
X5729500Y-15880071D02*
X5743786Y-15851500D01*
X5772357Y-15837214D01*
X5815214Y-15837214D01*
X5843786Y-15851500D01*
X5858071Y-15880071D01*
X5858071Y-16037214D01*
X6443786Y-15722929D02*
X6186643Y-16108643D01*
X6829500Y-15737214D02*
X6858071Y-15737214D01*
X6886643Y-15751500D01*
X6900928Y-15765786D01*
X6915214Y-15794357D01*
X6929500Y-15851500D01*
X6929500Y-15922929D01*
X6915214Y-15980071D01*
X6900928Y-16008643D01*
X6886643Y-16022929D01*
X6858071Y-16037214D01*
X6829500Y-16037214D01*
X6800928Y-16022929D01*
X6786643Y-16008643D01*
X6772357Y-15980071D01*
X6758071Y-15922929D01*
X6758071Y-15851500D01*
X6772357Y-15794357D01*
X6786643Y-15765786D01*
X6800928Y-15751500D01*
X6829500Y-15737214D01*
X7058071Y-16008643D02*
X7072357Y-16022929D01*
X7058071Y-16037214D01*
X7043786Y-16022929D01*
X7058071Y-16008643D01*
X7058071Y-16037214D01*
X7258071Y-15737214D02*
X7286643Y-15737214D01*
X7315214Y-15751500D01*
X7329500Y-15765786D01*
X7343785Y-15794357D01*
X7358071Y-15851500D01*
X7358071Y-15922929D01*
X7343785Y-15980071D01*
X7329500Y-16008643D01*
X7315214Y-16022929D01*
X7286643Y-16037214D01*
X7258071Y-16037214D01*
X7229500Y-16022929D01*
X7215214Y-16008643D01*
X7200928Y-15980071D01*
X7186643Y-15922929D01*
X7186643Y-15851500D01*
X7200928Y-15794357D01*
X7215214Y-15765786D01*
X7229500Y-15751500D01*
X7258071Y-15737214D01*
X7615214Y-15837214D02*
X7615214Y-16037214D01*
X7543785Y-15722929D02*
X7472357Y-15937214D01*
X7658071Y-15937214D01*
X7829500Y-15737214D02*
X7858071Y-15737214D01*
X7886643Y-15751500D01*
X7900928Y-15765786D01*
X7915214Y-15794357D01*
X7929500Y-15851500D01*
X7929500Y-15922929D01*
X7915214Y-15980071D01*
X7900928Y-16008643D01*
X7886643Y-16022929D01*
X7858071Y-16037214D01*
X7829500Y-16037214D01*
X7800928Y-16022929D01*
X7786643Y-16008643D01*
X7772357Y-15980071D01*
X7758071Y-15922929D01*
X7758071Y-15851500D01*
X7772357Y-15794357D01*
X7786643Y-15765786D01*
X7800928Y-15751500D01*
X7829500Y-15737214D01*
X8043786Y-15737214D02*
X8043786Y-15794357D01*
X8158071Y-15737214D02*
X8158071Y-15794357D01*
X8600928Y-16151500D02*
X8586643Y-16137214D01*
X8558071Y-16094357D01*
X8543786Y-16065786D01*
X8529500Y-16022929D01*
X8515214Y-15951500D01*
X8515214Y-15894357D01*
X8529500Y-15822929D01*
X8543786Y-15780071D01*
X8558071Y-15751500D01*
X8586643Y-15708643D01*
X8600928Y-15694357D01*
X8843786Y-15837214D02*
X8843786Y-16037214D01*
X8772357Y-15722929D02*
X8700928Y-15937214D01*
X8886643Y-15937214D01*
X9129500Y-15837214D02*
X9129500Y-16037214D01*
X9058071Y-15722929D02*
X8986643Y-15937214D01*
X9172357Y-15937214D01*
X9515214Y-16037214D02*
X9515214Y-15737214D01*
X9643786Y-16037214D02*
X9643786Y-15880071D01*
X9629500Y-15851500D01*
X9600928Y-15837214D01*
X9558071Y-15837214D01*
X9529500Y-15851500D01*
X9515214Y-15865786D01*
X9829500Y-16037214D02*
X9800928Y-16022929D01*
X9786643Y-16008643D01*
X9772357Y-15980071D01*
X9772357Y-15894357D01*
X9786643Y-15865786D01*
X9800928Y-15851500D01*
X9829500Y-15837214D01*
X9872357Y-15837214D01*
X9900928Y-15851500D01*
X9915214Y-15865786D01*
X9929500Y-15894357D01*
X9929500Y-15980071D01*
X9915214Y-16008643D01*
X9900928Y-16022929D01*
X9872357Y-16037214D01*
X9829500Y-16037214D01*
X10100928Y-16037214D02*
X10072357Y-16022929D01*
X10058071Y-15994357D01*
X10058071Y-15737214D01*
X10329500Y-16022929D02*
X10300929Y-16037214D01*
X10243786Y-16037214D01*
X10215214Y-16022929D01*
X10200929Y-15994357D01*
X10200929Y-15880071D01*
X10215214Y-15851500D01*
X10243786Y-15837214D01*
X10300929Y-15837214D01*
X10329500Y-15851500D01*
X10343786Y-15880071D01*
X10343786Y-15908643D01*
X10200929Y-15937214D01*
X10458071Y-16022929D02*
X10486643Y-16037214D01*
X10543786Y-16037214D01*
X10572357Y-16022929D01*
X10586643Y-15994357D01*
X10586643Y-15980071D01*
X10572357Y-15951500D01*
X10543786Y-15937214D01*
X10500929Y-15937214D01*
X10472357Y-15922929D01*
X10458071Y-15894357D01*
X10458071Y-15880071D01*
X10472357Y-15851500D01*
X10500929Y-15837214D01*
X10543786Y-15837214D01*
X10572357Y-15851500D01*
X10686643Y-16151500D02*
X10700929Y-16137214D01*
X10729500Y-16094357D01*
X10743786Y-16065786D01*
X10758071Y-16022929D01*
X10772357Y-15951500D01*
X10772357Y-15894357D01*
X10758071Y-15822929D01*
X10743786Y-15780071D01*
X10729500Y-15751500D01*
X10700929Y-15708643D01*
X10686643Y-15694357D01*
M02*
