G04 #@! TF.FileFunction,Copper,L1,Top,Signal*
%FSLAX46Y46*%
G04 Gerber Fmt 4.6, Leading zero omitted, Abs format (unit mm)*
G04 Created by KiCad (PCBNEW 4.0.3+e1-6302~38~ubuntu16.04.1-stable) date Thu Aug 25 17:18:38 2016*
%MOMM*%
%LPD*%
G01*
G04 APERTURE LIST*
%ADD10C,0.100000*%
%ADD11R,1.300000X1.300000*%
%ADD12C,1.300000*%
%ADD13C,1.699260*%
%ADD14R,1.699260X1.699260*%
%ADD15R,2.032000X2.032000*%
%ADD16O,2.032000X2.032000*%
%ADD17C,1.200000*%
%ADD18O,2.499360X1.501140*%
%ADD19C,1.998980*%
%ADD20R,1.270000X5.080000*%
%ADD21R,1.016000X5.080000*%
%ADD22R,2.032000X1.727200*%
%ADD23O,2.032000X1.727200*%
%ADD24C,0.600000*%
%ADD25C,0.250000*%
%ADD26C,0.254000*%
G04 APERTURE END LIST*
D10*
D11*
X48260000Y-101600000D03*
D12*
X45760000Y-101600000D03*
D11*
X54610000Y-109220000D03*
D12*
X57110000Y-109220000D03*
D11*
X58420000Y-116840000D03*
D12*
X63420000Y-116840000D03*
D11*
X69850000Y-105410000D03*
D12*
X69850000Y-107910000D03*
D11*
X45720000Y-96520000D03*
D12*
X48220000Y-96520000D03*
D13*
X54612540Y-102870520D03*
D14*
X54612540Y-92710520D03*
D13*
X49532540Y-92710520D03*
D14*
X49532540Y-82550520D03*
D15*
X53340000Y-127000000D03*
D16*
X55880000Y-127000000D03*
D15*
X55880000Y-80010000D03*
D16*
X53340000Y-80010000D03*
D17*
X59690000Y-99060000D03*
X60960000Y-97790000D03*
X59690000Y-96520000D03*
X54610000Y-86360000D03*
X53340000Y-87630000D03*
X54610000Y-88900000D03*
X62230000Y-90170000D03*
X60960000Y-88900000D03*
X59690000Y-90170000D03*
X69850000Y-113030000D03*
X68580000Y-111760000D03*
X67310000Y-113030000D03*
X66040000Y-101600000D03*
X67310000Y-100330000D03*
X66040000Y-99060000D03*
X64770000Y-107950000D03*
X63500000Y-106680000D03*
X62230000Y-107950000D03*
D18*
X74930000Y-111760000D03*
X74930000Y-114300000D03*
X74930000Y-109220000D03*
X73660000Y-123190000D03*
X73660000Y-120650000D03*
X73660000Y-125730000D03*
D19*
X45720000Y-82550000D03*
X45720000Y-92710000D03*
X52070000Y-107315000D03*
X52070000Y-97155000D03*
X46990000Y-113030000D03*
X46990000Y-123190000D03*
X73660000Y-92710000D03*
X73660000Y-102870000D03*
X69850000Y-87630000D03*
X69850000Y-97790000D03*
D13*
X76202540Y-104140520D03*
D14*
X76202540Y-93980520D03*
D13*
X50802540Y-123190520D03*
D14*
X50802540Y-113030520D03*
D15*
X63500000Y-80010000D03*
D16*
X60960000Y-80010000D03*
D20*
X76835000Y-80010000D03*
X67945000Y-80010000D03*
D21*
X72390000Y-80010000D03*
D20*
X60325000Y-127000000D03*
X69215000Y-127000000D03*
D21*
X64770000Y-127000000D03*
D20*
X88265000Y-80010000D03*
X79375000Y-80010000D03*
D21*
X83820000Y-80010000D03*
D22*
X41910000Y-81280000D03*
D23*
X41910000Y-83820000D03*
X41910000Y-86360000D03*
X41910000Y-88900000D03*
X41910000Y-91440000D03*
X41910000Y-93980000D03*
X41910000Y-96520000D03*
X41910000Y-99060000D03*
X41910000Y-101600000D03*
X41910000Y-104140000D03*
X41910000Y-106680000D03*
X41910000Y-109220000D03*
X41910000Y-111760000D03*
X41910000Y-114300000D03*
X41910000Y-116840000D03*
X41910000Y-119380000D03*
X41910000Y-121920000D03*
X41910000Y-124460000D03*
X41910000Y-127000000D03*
D22*
X91440000Y-81280000D03*
D23*
X91440000Y-83820000D03*
X91440000Y-86360000D03*
X91440000Y-88900000D03*
X91440000Y-91440000D03*
X91440000Y-93980000D03*
X91440000Y-96520000D03*
X91440000Y-99060000D03*
X91440000Y-101600000D03*
X91440000Y-104140000D03*
X91440000Y-106680000D03*
X91440000Y-109220000D03*
X91440000Y-111760000D03*
X91440000Y-114300000D03*
X91440000Y-116840000D03*
X91440000Y-119380000D03*
X91440000Y-121920000D03*
X91440000Y-124460000D03*
X91440000Y-127000000D03*
D24*
X64135000Y-94615000D03*
X54610000Y-94615000D03*
D25*
X52070000Y-107315000D02*
X52073060Y-107315000D01*
X52073060Y-107315000D02*
X54612540Y-102870520D01*
X48260000Y-101600000D02*
X52070000Y-107315000D01*
X53342540Y-87632540D02*
X53340000Y-87630000D01*
X41910000Y-101600000D02*
X45760000Y-101600000D01*
X45760000Y-99060000D02*
X49530000Y-99060000D01*
X52070000Y-96520000D02*
X52070000Y-97155000D01*
X49530000Y-99060000D02*
X52070000Y-96520000D01*
X45760000Y-101600000D02*
X45760000Y-99060000D01*
X45760000Y-99060000D02*
X45760000Y-96560000D01*
X45760000Y-96560000D02*
X45720000Y-96520000D01*
X50802540Y-113030520D02*
X63500520Y-113030520D01*
X71120000Y-120650000D02*
X73660000Y-120650000D01*
X63500520Y-113030520D02*
X71120000Y-120650000D01*
X50802540Y-113030520D02*
X50802540Y-113027460D01*
X50802540Y-113027460D02*
X54610000Y-109220000D01*
X46990000Y-113030000D02*
X50802020Y-113030000D01*
X50802020Y-113030000D02*
X50802540Y-113030520D01*
X69810000Y-107950000D02*
X69850000Y-107910000D01*
X57110000Y-109220000D02*
X63500000Y-109220000D01*
X63500000Y-109220000D02*
X64770000Y-107950000D01*
X73660000Y-92710000D02*
X74932020Y-92710000D01*
X74932020Y-92710000D02*
X76202540Y-93980520D01*
X73660000Y-125730000D02*
X72390000Y-125730000D01*
X66040000Y-123190000D02*
X64770000Y-124460000D01*
X69850000Y-123190000D02*
X66040000Y-123190000D01*
X72390000Y-125730000D02*
X69850000Y-123190000D01*
X64770000Y-124460000D02*
X64770000Y-127000000D01*
X64770000Y-124460000D02*
X60285000Y-119975000D01*
X53340000Y-127000000D02*
X53340000Y-126920000D01*
X53340000Y-126920000D02*
X60285000Y-119975000D01*
X60285000Y-119975000D02*
X63420000Y-116840000D01*
X50802540Y-123190520D02*
X46990520Y-123190520D01*
X46990520Y-123190520D02*
X46990000Y-123190000D01*
X53340000Y-127000000D02*
X53340000Y-125727980D01*
X53340000Y-125727980D02*
X50802540Y-123190520D01*
X76202540Y-104140520D02*
X76202540Y-104142540D01*
X76202540Y-104142540D02*
X77470000Y-105410000D01*
X77470000Y-114300000D02*
X74930000Y-114300000D01*
X77470000Y-105410000D02*
X77470000Y-114300000D01*
X73660000Y-102870000D02*
X74932020Y-102870000D01*
X74932020Y-102870000D02*
X76202540Y-104140520D01*
X69850000Y-105410000D02*
X69850000Y-104140000D01*
X69850000Y-104140000D02*
X73660000Y-102870000D01*
X69850000Y-87630000D02*
X69850000Y-88900000D01*
X69850000Y-88900000D02*
X64135000Y-94615000D01*
X48895000Y-96520000D02*
X48220000Y-96520000D01*
X50800000Y-94615000D02*
X48895000Y-96520000D01*
X54610000Y-94615000D02*
X50800000Y-94615000D01*
X48220000Y-96520000D02*
X48220000Y-94023060D01*
X48220000Y-94023060D02*
X49532540Y-92710520D01*
X54610000Y-88900000D02*
X60960000Y-88900000D01*
X45720000Y-92710000D02*
X49530000Y-88900000D01*
X49530000Y-88900000D02*
X54610000Y-88900000D01*
X54612540Y-92710520D02*
X54612540Y-88902540D01*
X54612540Y-88902540D02*
X54610000Y-88900000D01*
X54612540Y-92710520D02*
X55880520Y-92710520D01*
X55880520Y-92710520D02*
X59690000Y-96520000D01*
X41910000Y-93980000D02*
X45720000Y-90170000D01*
X45720000Y-90170000D02*
X45720000Y-82550000D01*
X45720000Y-82550000D02*
X49532020Y-82550000D01*
X49532020Y-82550000D02*
X49532540Y-82550520D01*
X76200000Y-116840000D02*
X78740000Y-114300000D01*
X78740000Y-88900000D02*
X73660000Y-83820000D01*
X78740000Y-114300000D02*
X78740000Y-88900000D01*
X74930000Y-111760000D02*
X73660000Y-111760000D01*
X77470000Y-123190000D02*
X73660000Y-123190000D01*
X78740000Y-121920000D02*
X77470000Y-123190000D01*
X78740000Y-119380000D02*
X78740000Y-121920000D01*
X76200000Y-116840000D02*
X78740000Y-119380000D01*
X73660000Y-116840000D02*
X76200000Y-116840000D01*
X72390000Y-115570000D02*
X73660000Y-116840000D01*
X72390000Y-113030000D02*
X72390000Y-115570000D01*
X73660000Y-111760000D02*
X72390000Y-113030000D01*
X73660000Y-83820000D02*
X78740000Y-83820000D01*
X82550000Y-83820000D02*
X83820000Y-82550000D01*
X78740000Y-83820000D02*
X82550000Y-83820000D01*
X83820000Y-82550000D02*
X83820000Y-80010000D01*
X66040000Y-83820000D02*
X73660000Y-83820000D01*
X63500000Y-81280000D02*
X66040000Y-83820000D01*
X72390000Y-82550000D02*
X73660000Y-83820000D01*
X63500000Y-80010000D02*
X63500000Y-81280000D01*
X55880000Y-80010000D02*
X58420000Y-82550000D01*
X62230000Y-82550000D02*
X63500000Y-81280000D01*
X58420000Y-82550000D02*
X62230000Y-82550000D01*
X72390000Y-80010000D02*
X72390000Y-82550000D01*
X83820000Y-82550000D02*
X83820000Y-80010000D01*
X72390000Y-80010000D02*
X72390000Y-81280000D01*
X55880000Y-80010000D02*
X55880000Y-80645000D01*
X62230000Y-90170000D02*
X62230000Y-95885000D01*
X67310000Y-97790000D02*
X67310000Y-100330000D01*
X64135000Y-97790000D02*
X67310000Y-97790000D01*
X62230000Y-95885000D02*
X64135000Y-97790000D01*
X69850000Y-113030000D02*
X69850000Y-110490000D01*
X67310000Y-107950000D02*
X67310000Y-104140000D01*
X69850000Y-110490000D02*
X67310000Y-107950000D01*
X63500000Y-106680000D02*
X64770000Y-106680000D01*
X67310000Y-104140000D02*
X67310000Y-100330000D01*
X64770000Y-106680000D02*
X67310000Y-104140000D01*
D26*
G36*
X66675000Y-79724250D02*
X66833750Y-79883000D01*
X67818000Y-79883000D01*
X67818000Y-79863000D01*
X68072000Y-79863000D01*
X68072000Y-79883000D01*
X69056250Y-79883000D01*
X69215000Y-79724250D01*
X69215000Y-78180000D01*
X71234560Y-78180000D01*
X71234560Y-82550000D01*
X71278838Y-82785317D01*
X71417910Y-83001441D01*
X71503614Y-83060000D01*
X68968025Y-83060000D01*
X69118327Y-82909699D01*
X69215000Y-82676310D01*
X69215000Y-80295750D01*
X69056250Y-80137000D01*
X68072000Y-80137000D01*
X68072000Y-80157000D01*
X67818000Y-80157000D01*
X67818000Y-80137000D01*
X66833750Y-80137000D01*
X66675000Y-80295750D01*
X66675000Y-82676310D01*
X66771673Y-82909699D01*
X66921975Y-83060000D01*
X66354802Y-83060000D01*
X64856366Y-81561564D01*
X64967441Y-81490090D01*
X65112431Y-81277890D01*
X65163440Y-81026000D01*
X65163440Y-78994000D01*
X65119162Y-78758683D01*
X64980090Y-78542559D01*
X64767890Y-78397569D01*
X64516000Y-78346560D01*
X62484000Y-78346560D01*
X62248683Y-78390838D01*
X62032559Y-78529910D01*
X61932144Y-78676872D01*
X61928379Y-78672812D01*
X61342946Y-78404017D01*
X61087000Y-78522633D01*
X61087000Y-79883000D01*
X61107000Y-79883000D01*
X61107000Y-80137000D01*
X61087000Y-80137000D01*
X61087000Y-81497367D01*
X61342946Y-81615983D01*
X61928379Y-81347188D01*
X61932934Y-81342276D01*
X62019910Y-81477441D01*
X62143388Y-81561810D01*
X61915198Y-81790000D01*
X58734802Y-81790000D01*
X57543440Y-80598638D01*
X57543440Y-80392944D01*
X59354025Y-80392944D01*
X59553615Y-80874818D01*
X59991621Y-81347188D01*
X60577054Y-81615983D01*
X60833000Y-81497367D01*
X60833000Y-80137000D01*
X59473164Y-80137000D01*
X59354025Y-80392944D01*
X57543440Y-80392944D01*
X57543440Y-79627056D01*
X59354025Y-79627056D01*
X59473164Y-79883000D01*
X60833000Y-79883000D01*
X60833000Y-78522633D01*
X60577054Y-78404017D01*
X59991621Y-78672812D01*
X59553615Y-79145182D01*
X59354025Y-79627056D01*
X57543440Y-79627056D01*
X57543440Y-78994000D01*
X57499162Y-78758683D01*
X57360090Y-78542559D01*
X57147890Y-78397569D01*
X56896000Y-78346560D01*
X54864000Y-78346560D01*
X54628683Y-78390838D01*
X54412559Y-78529910D01*
X54312144Y-78676872D01*
X54308379Y-78672812D01*
X53722946Y-78404017D01*
X53467000Y-78522633D01*
X53467000Y-79883000D01*
X53487000Y-79883000D01*
X53487000Y-80137000D01*
X53467000Y-80137000D01*
X53467000Y-81497367D01*
X53722946Y-81615983D01*
X54308379Y-81347188D01*
X54312934Y-81342276D01*
X54399910Y-81477441D01*
X54612110Y-81622431D01*
X54864000Y-81673440D01*
X56468638Y-81673440D01*
X57882599Y-83087401D01*
X58129160Y-83252148D01*
X58177414Y-83261746D01*
X58420000Y-83310000D01*
X62230000Y-83310000D01*
X62520839Y-83252148D01*
X62767401Y-83087401D01*
X63500000Y-82354802D01*
X65502599Y-84357401D01*
X65749160Y-84522148D01*
X65797414Y-84531746D01*
X66040000Y-84580000D01*
X73345198Y-84580000D01*
X77980000Y-89214802D01*
X77980000Y-104845198D01*
X77653175Y-104518373D01*
X77686912Y-104437127D01*
X77687428Y-103846504D01*
X77461882Y-103300643D01*
X77044614Y-102882646D01*
X76499147Y-102656148D01*
X75908524Y-102655632D01*
X75826391Y-102689569D01*
X75469421Y-102332599D01*
X75222859Y-102167852D01*
X75130837Y-102149547D01*
X75046462Y-101945345D01*
X74587073Y-101485154D01*
X73986547Y-101235794D01*
X73336306Y-101235226D01*
X72735345Y-101483538D01*
X72275154Y-101942927D01*
X72025794Y-102543453D01*
X72025733Y-102613646D01*
X69609667Y-103419001D01*
X69585943Y-103432525D01*
X69559161Y-103437852D01*
X69457878Y-103505527D01*
X69352047Y-103565855D01*
X69335304Y-103587428D01*
X69312599Y-103602599D01*
X69244921Y-103703887D01*
X69170236Y-103800118D01*
X69163024Y-103826455D01*
X69147852Y-103849161D01*
X69124085Y-103968644D01*
X69091913Y-104086125D01*
X69095328Y-104113215D01*
X69091393Y-104132996D01*
X68964683Y-104156838D01*
X68748559Y-104295910D01*
X68603569Y-104508110D01*
X68552560Y-104760000D01*
X68552560Y-106060000D01*
X68596838Y-106295317D01*
X68735910Y-106511441D01*
X68948110Y-106656431D01*
X69200000Y-106707440D01*
X69395460Y-106707440D01*
X69123057Y-106819995D01*
X68761265Y-107181155D01*
X68565223Y-107653276D01*
X68564807Y-108130005D01*
X68070000Y-107635198D01*
X68070000Y-101316356D01*
X68356371Y-101030485D01*
X68544785Y-100576734D01*
X68545214Y-100085421D01*
X68357592Y-99631343D01*
X68070000Y-99343248D01*
X68070000Y-98113694D01*
X68215226Y-98113694D01*
X68463538Y-98714655D01*
X68922927Y-99174846D01*
X69523453Y-99424206D01*
X70173694Y-99424774D01*
X70774655Y-99176462D01*
X71234846Y-98717073D01*
X71484206Y-98116547D01*
X71484774Y-97466306D01*
X71236462Y-96865345D01*
X70777073Y-96405154D01*
X70176547Y-96155794D01*
X69526306Y-96155226D01*
X68925345Y-96403538D01*
X68465154Y-96862927D01*
X68215794Y-97463453D01*
X68215226Y-98113694D01*
X68070000Y-98113694D01*
X68070000Y-97790000D01*
X68012148Y-97499161D01*
X67847401Y-97252599D01*
X67600839Y-97087852D01*
X67310000Y-97030000D01*
X64449802Y-97030000D01*
X62990000Y-95570198D01*
X62990000Y-94800167D01*
X63199838Y-94800167D01*
X63341883Y-95143943D01*
X63604673Y-95407192D01*
X63948201Y-95549838D01*
X64320167Y-95550162D01*
X64663943Y-95408117D01*
X64927192Y-95145327D01*
X65069838Y-94801799D01*
X65069879Y-94754923D01*
X65962639Y-93862163D01*
X72687443Y-93862163D01*
X72786042Y-94128965D01*
X73395582Y-94355401D01*
X74045377Y-94331341D01*
X74202472Y-94266270D01*
X74717910Y-94266270D01*
X74717910Y-94956459D01*
X74814583Y-95189848D01*
X74993211Y-95368477D01*
X75226600Y-95465150D01*
X75916790Y-95465150D01*
X76075540Y-95306400D01*
X76075540Y-94107520D01*
X76329540Y-94107520D01*
X76329540Y-95306400D01*
X76488290Y-95465150D01*
X77178480Y-95465150D01*
X77411869Y-95368477D01*
X77590497Y-95189848D01*
X77687170Y-94956459D01*
X77687170Y-94266270D01*
X77528420Y-94107520D01*
X76329540Y-94107520D01*
X76075540Y-94107520D01*
X74876660Y-94107520D01*
X74717910Y-94266270D01*
X74202472Y-94266270D01*
X74533958Y-94128965D01*
X74632557Y-93862163D01*
X73660000Y-92889605D01*
X72687443Y-93862163D01*
X65962639Y-93862163D01*
X67379220Y-92445582D01*
X72014599Y-92445582D01*
X72038659Y-93095377D01*
X72241035Y-93583958D01*
X72507837Y-93682557D01*
X73480395Y-92710000D01*
X73839605Y-92710000D01*
X74717910Y-93588304D01*
X74717910Y-93694770D01*
X74876660Y-93853520D01*
X76075540Y-93853520D01*
X76075540Y-92654640D01*
X76329540Y-92654640D01*
X76329540Y-93853520D01*
X77528420Y-93853520D01*
X77687170Y-93694770D01*
X77687170Y-93004581D01*
X77590497Y-92771192D01*
X77411869Y-92592563D01*
X77178480Y-92495890D01*
X76488290Y-92495890D01*
X76329540Y-92654640D01*
X76075540Y-92654640D01*
X75916790Y-92495890D01*
X75287683Y-92495890D01*
X75281341Y-92324623D01*
X75078965Y-91836042D01*
X74812163Y-91737443D01*
X73839605Y-92710000D01*
X73480395Y-92710000D01*
X72507837Y-91737443D01*
X72241035Y-91836042D01*
X72014599Y-92445582D01*
X67379220Y-92445582D01*
X68266965Y-91557837D01*
X72687443Y-91557837D01*
X73660000Y-92530395D01*
X74632557Y-91557837D01*
X74533958Y-91291035D01*
X73924418Y-91064599D01*
X73274623Y-91088659D01*
X72786042Y-91291035D01*
X72687443Y-91557837D01*
X68266965Y-91557837D01*
X70387402Y-89437401D01*
X70552148Y-89190839D01*
X70570015Y-89101018D01*
X70774655Y-89016462D01*
X71234846Y-88557073D01*
X71484206Y-87956547D01*
X71484774Y-87306306D01*
X71236462Y-86705345D01*
X70777073Y-86245154D01*
X70176547Y-85995794D01*
X69526306Y-85995226D01*
X68925345Y-86243538D01*
X68465154Y-86702927D01*
X68215794Y-87303453D01*
X68215226Y-87953694D01*
X68463538Y-88554655D01*
X68791754Y-88883444D01*
X63995320Y-93679878D01*
X63949833Y-93679838D01*
X63606057Y-93821883D01*
X63342808Y-94084673D01*
X63200162Y-94428201D01*
X63199838Y-94800167D01*
X62990000Y-94800167D01*
X62990000Y-91156356D01*
X63276371Y-90870485D01*
X63464785Y-90416734D01*
X63465214Y-89925421D01*
X63277592Y-89471343D01*
X62930485Y-89123629D01*
X62476734Y-88935215D01*
X62194970Y-88934969D01*
X62195214Y-88655421D01*
X62007592Y-88201343D01*
X61660485Y-87853629D01*
X61206734Y-87665215D01*
X60715421Y-87664786D01*
X60261343Y-87852408D01*
X59973248Y-88140000D01*
X55596356Y-88140000D01*
X55310485Y-87853629D01*
X54856734Y-87665215D01*
X54574970Y-87664969D01*
X54575027Y-87599521D01*
X54931413Y-87577482D01*
X55243617Y-87448164D01*
X55293130Y-87222735D01*
X54610000Y-86539605D01*
X54595858Y-86553748D01*
X54416253Y-86374143D01*
X54430395Y-86360000D01*
X54789605Y-86360000D01*
X55472735Y-87043130D01*
X55698164Y-86993617D01*
X55857807Y-86528964D01*
X55827482Y-86038587D01*
X55698164Y-85726383D01*
X55472735Y-85676870D01*
X54789605Y-86360000D01*
X54430395Y-86360000D01*
X53747265Y-85676870D01*
X53521836Y-85726383D01*
X53362193Y-86191036D01*
X53374808Y-86395030D01*
X53095421Y-86394786D01*
X52641343Y-86582408D01*
X52293629Y-86929515D01*
X52105215Y-87383266D01*
X52104786Y-87874579D01*
X52214456Y-88140000D01*
X49530000Y-88140000D01*
X49239161Y-88197852D01*
X48992599Y-88362599D01*
X46211083Y-91144115D01*
X46046547Y-91075794D01*
X45889145Y-91075657D01*
X46257401Y-90707401D01*
X46422148Y-90460839D01*
X46480000Y-90170000D01*
X46480000Y-85497265D01*
X53926870Y-85497265D01*
X54610000Y-86180395D01*
X55293130Y-85497265D01*
X55243617Y-85271836D01*
X54778964Y-85112193D01*
X54288587Y-85142518D01*
X53976383Y-85271836D01*
X53926870Y-85497265D01*
X46480000Y-85497265D01*
X46480000Y-84004496D01*
X46644655Y-83936462D01*
X47104846Y-83477073D01*
X47174221Y-83310000D01*
X48035470Y-83310000D01*
X48035470Y-83400150D01*
X48079748Y-83635467D01*
X48218820Y-83851591D01*
X48431020Y-83996581D01*
X48682910Y-84047590D01*
X50382170Y-84047590D01*
X50617487Y-84003312D01*
X50833611Y-83864240D01*
X50978601Y-83652040D01*
X51029610Y-83400150D01*
X51029610Y-81700890D01*
X50985332Y-81465573D01*
X50846260Y-81249449D01*
X50634060Y-81104459D01*
X50382170Y-81053450D01*
X48682910Y-81053450D01*
X48447593Y-81097728D01*
X48231469Y-81236800D01*
X48086479Y-81449000D01*
X48035470Y-81700890D01*
X48035470Y-81790000D01*
X47174496Y-81790000D01*
X47106462Y-81625345D01*
X46647073Y-81165154D01*
X46046547Y-80915794D01*
X45396306Y-80915226D01*
X44795345Y-81163538D01*
X44335154Y-81622927D01*
X44085794Y-82223453D01*
X44085226Y-82873694D01*
X44333538Y-83474655D01*
X44792927Y-83934846D01*
X44960000Y-84004221D01*
X44960000Y-89855198D01*
X43557152Y-91258046D01*
X43479271Y-90866511D01*
X43154415Y-90380330D01*
X42839634Y-90170000D01*
X43154415Y-89959670D01*
X43479271Y-89473489D01*
X43593345Y-88900000D01*
X43479271Y-88326511D01*
X43154415Y-87840330D01*
X42839634Y-87630000D01*
X43154415Y-87419670D01*
X43479271Y-86933489D01*
X43593345Y-86360000D01*
X43479271Y-85786511D01*
X43154415Y-85300330D01*
X42839634Y-85090000D01*
X43154415Y-84879670D01*
X43479271Y-84393489D01*
X43593345Y-83820000D01*
X43479271Y-83246511D01*
X43154415Y-82760330D01*
X43132220Y-82745500D01*
X43285699Y-82681927D01*
X43464327Y-82503298D01*
X43561000Y-82269909D01*
X43561000Y-81565750D01*
X43402250Y-81407000D01*
X42037000Y-81407000D01*
X42037000Y-81427000D01*
X41783000Y-81427000D01*
X41783000Y-81407000D01*
X40417750Y-81407000D01*
X40259000Y-81565750D01*
X40259000Y-82269909D01*
X40355673Y-82503298D01*
X40534301Y-82681927D01*
X40687780Y-82745500D01*
X40665585Y-82760330D01*
X40340729Y-83246511D01*
X40226655Y-83820000D01*
X40340729Y-84393489D01*
X40665585Y-84879670D01*
X40980366Y-85090000D01*
X40665585Y-85300330D01*
X40340729Y-85786511D01*
X40226655Y-86360000D01*
X40340729Y-86933489D01*
X40665585Y-87419670D01*
X40980366Y-87630000D01*
X40665585Y-87840330D01*
X40340729Y-88326511D01*
X40226655Y-88900000D01*
X40340729Y-89473489D01*
X40665585Y-89959670D01*
X40980366Y-90170000D01*
X40665585Y-90380330D01*
X40340729Y-90866511D01*
X40226655Y-91440000D01*
X40340729Y-92013489D01*
X40665585Y-92499670D01*
X40980366Y-92710000D01*
X40665585Y-92920330D01*
X40340729Y-93406511D01*
X40226655Y-93980000D01*
X40340729Y-94553489D01*
X40665585Y-95039670D01*
X40980366Y-95250000D01*
X40665585Y-95460330D01*
X40340729Y-95946511D01*
X40226655Y-96520000D01*
X40340729Y-97093489D01*
X40665585Y-97579670D01*
X40980366Y-97790000D01*
X40665585Y-98000330D01*
X40340729Y-98486511D01*
X40226655Y-99060000D01*
X40340729Y-99633489D01*
X40665585Y-100119670D01*
X40980366Y-100330000D01*
X40665585Y-100540330D01*
X40340729Y-101026511D01*
X40226655Y-101600000D01*
X40340729Y-102173489D01*
X40665585Y-102659670D01*
X40980366Y-102870000D01*
X40665585Y-103080330D01*
X40340729Y-103566511D01*
X40226655Y-104140000D01*
X40340729Y-104713489D01*
X40665585Y-105199670D01*
X40980366Y-105410000D01*
X40665585Y-105620330D01*
X40340729Y-106106511D01*
X40226655Y-106680000D01*
X40340729Y-107253489D01*
X40665585Y-107739670D01*
X40980366Y-107950000D01*
X40665585Y-108160330D01*
X40340729Y-108646511D01*
X40226655Y-109220000D01*
X40340729Y-109793489D01*
X40665585Y-110279670D01*
X40980366Y-110490000D01*
X40665585Y-110700330D01*
X40340729Y-111186511D01*
X40226655Y-111760000D01*
X40340729Y-112333489D01*
X40665585Y-112819670D01*
X40980366Y-113030000D01*
X40665585Y-113240330D01*
X40340729Y-113726511D01*
X40226655Y-114300000D01*
X40340729Y-114873489D01*
X40665585Y-115359670D01*
X40980366Y-115570000D01*
X40665585Y-115780330D01*
X40340729Y-116266511D01*
X40226655Y-116840000D01*
X40340729Y-117413489D01*
X40665585Y-117899670D01*
X40980366Y-118110000D01*
X40665585Y-118320330D01*
X40340729Y-118806511D01*
X40226655Y-119380000D01*
X40340729Y-119953489D01*
X40665585Y-120439670D01*
X40980366Y-120650000D01*
X40665585Y-120860330D01*
X40340729Y-121346511D01*
X40226655Y-121920000D01*
X40340729Y-122493489D01*
X40665585Y-122979670D01*
X40980366Y-123190000D01*
X40665585Y-123400330D01*
X40340729Y-123886511D01*
X40226655Y-124460000D01*
X40340729Y-125033489D01*
X40665585Y-125519670D01*
X40980366Y-125730000D01*
X40665585Y-125940330D01*
X40340729Y-126426511D01*
X40226655Y-127000000D01*
X40340729Y-127573489D01*
X40665585Y-128059670D01*
X41151766Y-128384526D01*
X41725255Y-128498600D01*
X42094745Y-128498600D01*
X42668234Y-128384526D01*
X43154415Y-128059670D01*
X43479271Y-127573489D01*
X43593345Y-127000000D01*
X43479271Y-126426511D01*
X43154415Y-125940330D01*
X42839634Y-125730000D01*
X43154415Y-125519670D01*
X43479271Y-125033489D01*
X43593345Y-124460000D01*
X43479271Y-123886511D01*
X43154415Y-123400330D01*
X42839634Y-123190000D01*
X43154415Y-122979670D01*
X43479271Y-122493489D01*
X43593345Y-121920000D01*
X43479271Y-121346511D01*
X43154415Y-120860330D01*
X42839634Y-120650000D01*
X43154415Y-120439670D01*
X43479271Y-119953489D01*
X43593345Y-119380000D01*
X43479271Y-118806511D01*
X43154415Y-118320330D01*
X42839634Y-118110000D01*
X43154415Y-117899670D01*
X43479271Y-117413489D01*
X43536505Y-117125750D01*
X57135000Y-117125750D01*
X57135000Y-117616310D01*
X57231673Y-117849699D01*
X57410302Y-118028327D01*
X57643691Y-118125000D01*
X58134250Y-118125000D01*
X58293000Y-117966250D01*
X58293000Y-116967000D01*
X58547000Y-116967000D01*
X58547000Y-117966250D01*
X58705750Y-118125000D01*
X59196309Y-118125000D01*
X59429698Y-118028327D01*
X59608327Y-117849699D01*
X59705000Y-117616310D01*
X59705000Y-117125750D01*
X59546250Y-116967000D01*
X58547000Y-116967000D01*
X58293000Y-116967000D01*
X57293750Y-116967000D01*
X57135000Y-117125750D01*
X43536505Y-117125750D01*
X43593345Y-116840000D01*
X43479271Y-116266511D01*
X43343751Y-116063690D01*
X57135000Y-116063690D01*
X57135000Y-116554250D01*
X57293750Y-116713000D01*
X58293000Y-116713000D01*
X58293000Y-115713750D01*
X58547000Y-115713750D01*
X58547000Y-116713000D01*
X59546250Y-116713000D01*
X59705000Y-116554250D01*
X59705000Y-116063690D01*
X59608327Y-115830301D01*
X59429698Y-115651673D01*
X59196309Y-115555000D01*
X58705750Y-115555000D01*
X58547000Y-115713750D01*
X58293000Y-115713750D01*
X58134250Y-115555000D01*
X57643691Y-115555000D01*
X57410302Y-115651673D01*
X57231673Y-115830301D01*
X57135000Y-116063690D01*
X43343751Y-116063690D01*
X43154415Y-115780330D01*
X42839634Y-115570000D01*
X43154415Y-115359670D01*
X43479271Y-114873489D01*
X43593345Y-114300000D01*
X43479271Y-113726511D01*
X43154415Y-113240330D01*
X42839634Y-113030000D01*
X43154415Y-112819670D01*
X43479271Y-112333489D01*
X43593345Y-111760000D01*
X43479271Y-111186511D01*
X43154415Y-110700330D01*
X42839634Y-110490000D01*
X43154415Y-110279670D01*
X43479271Y-109793489D01*
X43593345Y-109220000D01*
X43479271Y-108646511D01*
X43154415Y-108160330D01*
X42839634Y-107950000D01*
X43154415Y-107739670D01*
X43479271Y-107253489D01*
X43593345Y-106680000D01*
X43479271Y-106106511D01*
X43154415Y-105620330D01*
X42839634Y-105410000D01*
X43154415Y-105199670D01*
X43479271Y-104713489D01*
X43593345Y-104140000D01*
X43479271Y-103566511D01*
X43154415Y-103080330D01*
X42839634Y-102870000D01*
X43154415Y-102659670D01*
X43354648Y-102360000D01*
X44702994Y-102360000D01*
X45031155Y-102688735D01*
X45503276Y-102884777D01*
X46014481Y-102885223D01*
X46486943Y-102690005D01*
X46848735Y-102328845D01*
X46962560Y-102054724D01*
X46962560Y-102250000D01*
X47006838Y-102485317D01*
X47145910Y-102701441D01*
X47358110Y-102846431D01*
X47610000Y-102897440D01*
X48211554Y-102897440D01*
X50628885Y-106523437D01*
X50435794Y-106988453D01*
X50435226Y-107638694D01*
X50683538Y-108239655D01*
X51142927Y-108699846D01*
X51743453Y-108949206D01*
X52393694Y-108949774D01*
X52994655Y-108701462D01*
X53359741Y-108337012D01*
X53312560Y-108570000D01*
X53312560Y-109442638D01*
X51221748Y-111533450D01*
X49952910Y-111533450D01*
X49717593Y-111577728D01*
X49501469Y-111716800D01*
X49356479Y-111929000D01*
X49305470Y-112180890D01*
X49305470Y-112270000D01*
X48444496Y-112270000D01*
X48376462Y-112105345D01*
X47917073Y-111645154D01*
X47316547Y-111395794D01*
X46666306Y-111395226D01*
X46065345Y-111643538D01*
X45605154Y-112102927D01*
X45355794Y-112703453D01*
X45355226Y-113353694D01*
X45603538Y-113954655D01*
X46062927Y-114414846D01*
X46663453Y-114664206D01*
X47313694Y-114664774D01*
X47914655Y-114416462D01*
X48374846Y-113957073D01*
X48444221Y-113790000D01*
X49305470Y-113790000D01*
X49305470Y-113880150D01*
X49349748Y-114115467D01*
X49488820Y-114331591D01*
X49701020Y-114476581D01*
X49952910Y-114527590D01*
X51652170Y-114527590D01*
X51887487Y-114483312D01*
X52103611Y-114344240D01*
X52248601Y-114132040D01*
X52299610Y-113880150D01*
X52299610Y-113790520D01*
X63185718Y-113790520D01*
X70582599Y-121187401D01*
X70829161Y-121352148D01*
X71120000Y-121410000D01*
X71997391Y-121410000D01*
X72144221Y-121629746D01*
X72578616Y-121920000D01*
X72144221Y-122210254D01*
X71843867Y-122659765D01*
X71738397Y-123190000D01*
X71843867Y-123720235D01*
X72144221Y-124169746D01*
X72578616Y-124460000D01*
X72348537Y-124613735D01*
X70387401Y-122652599D01*
X70140839Y-122487852D01*
X69850000Y-122430000D01*
X66040000Y-122430000D01*
X65749160Y-122487852D01*
X65502599Y-122652599D01*
X64770000Y-123385198D01*
X61359802Y-119975000D01*
X63209984Y-118124818D01*
X63674481Y-118125223D01*
X64146943Y-117930005D01*
X64508735Y-117568845D01*
X64704777Y-117096724D01*
X64705223Y-116585519D01*
X64510005Y-116113057D01*
X64148845Y-115751265D01*
X63676724Y-115555223D01*
X63165519Y-115554777D01*
X62693057Y-115749995D01*
X62331265Y-116111155D01*
X62135223Y-116583276D01*
X62134815Y-117050383D01*
X53924352Y-125260846D01*
X53877401Y-125190579D01*
X52253768Y-123566946D01*
X52286912Y-123487127D01*
X52287428Y-122896504D01*
X52061882Y-122350643D01*
X51644614Y-121932646D01*
X51099147Y-121706148D01*
X50508524Y-121705632D01*
X49962663Y-121931178D01*
X49544666Y-122348446D01*
X49510586Y-122430520D01*
X48444711Y-122430520D01*
X48376462Y-122265345D01*
X47917073Y-121805154D01*
X47316547Y-121555794D01*
X46666306Y-121555226D01*
X46065345Y-121803538D01*
X45605154Y-122262927D01*
X45355794Y-122863453D01*
X45355226Y-123513694D01*
X45603538Y-124114655D01*
X46062927Y-124574846D01*
X46663453Y-124824206D01*
X47313694Y-124824774D01*
X47914655Y-124576462D01*
X48374846Y-124117073D01*
X48444005Y-123950520D01*
X49510193Y-123950520D01*
X49543198Y-124030397D01*
X49960466Y-124448394D01*
X50505933Y-124674892D01*
X51096556Y-124675408D01*
X51178689Y-124641471D01*
X51984863Y-125447645D01*
X51872559Y-125519910D01*
X51727569Y-125732110D01*
X51676560Y-125984000D01*
X51676560Y-128016000D01*
X51720838Y-128251317D01*
X51859910Y-128467441D01*
X52072110Y-128612431D01*
X52324000Y-128663440D01*
X54356000Y-128663440D01*
X54591317Y-128619162D01*
X54807441Y-128480090D01*
X54907856Y-128333128D01*
X54911621Y-128337188D01*
X55497054Y-128605983D01*
X55753000Y-128487367D01*
X55753000Y-127127000D01*
X56007000Y-127127000D01*
X56007000Y-128487367D01*
X56262946Y-128605983D01*
X56848379Y-128337188D01*
X57286385Y-127864818D01*
X57485975Y-127382944D01*
X57366836Y-127127000D01*
X56007000Y-127127000D01*
X55753000Y-127127000D01*
X55733000Y-127127000D01*
X55733000Y-126873000D01*
X55753000Y-126873000D01*
X55753000Y-126853000D01*
X56007000Y-126853000D01*
X56007000Y-126873000D01*
X57366836Y-126873000D01*
X57485975Y-126617056D01*
X57286385Y-126135182D01*
X56848379Y-125662812D01*
X56262946Y-125394017D01*
X56007002Y-125512632D01*
X56007002Y-125349000D01*
X55985802Y-125349000D01*
X57001112Y-124333690D01*
X59055000Y-124333690D01*
X59055000Y-126714250D01*
X59213750Y-126873000D01*
X60198000Y-126873000D01*
X60198000Y-123983750D01*
X60452000Y-123983750D01*
X60452000Y-126873000D01*
X61436250Y-126873000D01*
X61595000Y-126714250D01*
X61595000Y-124333690D01*
X61498327Y-124100301D01*
X61319698Y-123921673D01*
X61086309Y-123825000D01*
X60610750Y-123825000D01*
X60452000Y-123983750D01*
X60198000Y-123983750D01*
X60039250Y-123825000D01*
X59563691Y-123825000D01*
X59330302Y-123921673D01*
X59151673Y-124100301D01*
X59055000Y-124333690D01*
X57001112Y-124333690D01*
X60285000Y-121049802D01*
X63628140Y-124392942D01*
X63614560Y-124460000D01*
X63614560Y-128830000D01*
X61595000Y-128830000D01*
X61595000Y-127285750D01*
X61436250Y-127127000D01*
X60452000Y-127127000D01*
X60452000Y-127147000D01*
X60198000Y-127147000D01*
X60198000Y-127127000D01*
X59213750Y-127127000D01*
X59055000Y-127285750D01*
X59055000Y-128830000D01*
X40080000Y-128830000D01*
X40080000Y-80290091D01*
X40259000Y-80290091D01*
X40259000Y-80994250D01*
X40417750Y-81153000D01*
X41783000Y-81153000D01*
X41783000Y-79940150D01*
X42037000Y-79940150D01*
X42037000Y-81153000D01*
X43402250Y-81153000D01*
X43561000Y-80994250D01*
X43561000Y-80392944D01*
X51734025Y-80392944D01*
X51933615Y-80874818D01*
X52371621Y-81347188D01*
X52957054Y-81615983D01*
X53213000Y-81497367D01*
X53213000Y-80137000D01*
X51853164Y-80137000D01*
X51734025Y-80392944D01*
X43561000Y-80392944D01*
X43561000Y-80290091D01*
X43464327Y-80056702D01*
X43285699Y-79878073D01*
X43052310Y-79781400D01*
X42195750Y-79781400D01*
X42037000Y-79940150D01*
X41783000Y-79940150D01*
X41624250Y-79781400D01*
X40767690Y-79781400D01*
X40534301Y-79878073D01*
X40355673Y-80056702D01*
X40259000Y-80290091D01*
X40080000Y-80290091D01*
X40080000Y-79627056D01*
X51734025Y-79627056D01*
X51853164Y-79883000D01*
X53213000Y-79883000D01*
X53213000Y-78522633D01*
X52957054Y-78404017D01*
X52371621Y-78672812D01*
X51933615Y-79145182D01*
X51734025Y-79627056D01*
X40080000Y-79627056D01*
X40080000Y-78180000D01*
X66675000Y-78180000D01*
X66675000Y-79724250D01*
X66675000Y-79724250D01*
G37*
X66675000Y-79724250D02*
X66833750Y-79883000D01*
X67818000Y-79883000D01*
X67818000Y-79863000D01*
X68072000Y-79863000D01*
X68072000Y-79883000D01*
X69056250Y-79883000D01*
X69215000Y-79724250D01*
X69215000Y-78180000D01*
X71234560Y-78180000D01*
X71234560Y-82550000D01*
X71278838Y-82785317D01*
X71417910Y-83001441D01*
X71503614Y-83060000D01*
X68968025Y-83060000D01*
X69118327Y-82909699D01*
X69215000Y-82676310D01*
X69215000Y-80295750D01*
X69056250Y-80137000D01*
X68072000Y-80137000D01*
X68072000Y-80157000D01*
X67818000Y-80157000D01*
X67818000Y-80137000D01*
X66833750Y-80137000D01*
X66675000Y-80295750D01*
X66675000Y-82676310D01*
X66771673Y-82909699D01*
X66921975Y-83060000D01*
X66354802Y-83060000D01*
X64856366Y-81561564D01*
X64967441Y-81490090D01*
X65112431Y-81277890D01*
X65163440Y-81026000D01*
X65163440Y-78994000D01*
X65119162Y-78758683D01*
X64980090Y-78542559D01*
X64767890Y-78397569D01*
X64516000Y-78346560D01*
X62484000Y-78346560D01*
X62248683Y-78390838D01*
X62032559Y-78529910D01*
X61932144Y-78676872D01*
X61928379Y-78672812D01*
X61342946Y-78404017D01*
X61087000Y-78522633D01*
X61087000Y-79883000D01*
X61107000Y-79883000D01*
X61107000Y-80137000D01*
X61087000Y-80137000D01*
X61087000Y-81497367D01*
X61342946Y-81615983D01*
X61928379Y-81347188D01*
X61932934Y-81342276D01*
X62019910Y-81477441D01*
X62143388Y-81561810D01*
X61915198Y-81790000D01*
X58734802Y-81790000D01*
X57543440Y-80598638D01*
X57543440Y-80392944D01*
X59354025Y-80392944D01*
X59553615Y-80874818D01*
X59991621Y-81347188D01*
X60577054Y-81615983D01*
X60833000Y-81497367D01*
X60833000Y-80137000D01*
X59473164Y-80137000D01*
X59354025Y-80392944D01*
X57543440Y-80392944D01*
X57543440Y-79627056D01*
X59354025Y-79627056D01*
X59473164Y-79883000D01*
X60833000Y-79883000D01*
X60833000Y-78522633D01*
X60577054Y-78404017D01*
X59991621Y-78672812D01*
X59553615Y-79145182D01*
X59354025Y-79627056D01*
X57543440Y-79627056D01*
X57543440Y-78994000D01*
X57499162Y-78758683D01*
X57360090Y-78542559D01*
X57147890Y-78397569D01*
X56896000Y-78346560D01*
X54864000Y-78346560D01*
X54628683Y-78390838D01*
X54412559Y-78529910D01*
X54312144Y-78676872D01*
X54308379Y-78672812D01*
X53722946Y-78404017D01*
X53467000Y-78522633D01*
X53467000Y-79883000D01*
X53487000Y-79883000D01*
X53487000Y-80137000D01*
X53467000Y-80137000D01*
X53467000Y-81497367D01*
X53722946Y-81615983D01*
X54308379Y-81347188D01*
X54312934Y-81342276D01*
X54399910Y-81477441D01*
X54612110Y-81622431D01*
X54864000Y-81673440D01*
X56468638Y-81673440D01*
X57882599Y-83087401D01*
X58129160Y-83252148D01*
X58177414Y-83261746D01*
X58420000Y-83310000D01*
X62230000Y-83310000D01*
X62520839Y-83252148D01*
X62767401Y-83087401D01*
X63500000Y-82354802D01*
X65502599Y-84357401D01*
X65749160Y-84522148D01*
X65797414Y-84531746D01*
X66040000Y-84580000D01*
X73345198Y-84580000D01*
X77980000Y-89214802D01*
X77980000Y-104845198D01*
X77653175Y-104518373D01*
X77686912Y-104437127D01*
X77687428Y-103846504D01*
X77461882Y-103300643D01*
X77044614Y-102882646D01*
X76499147Y-102656148D01*
X75908524Y-102655632D01*
X75826391Y-102689569D01*
X75469421Y-102332599D01*
X75222859Y-102167852D01*
X75130837Y-102149547D01*
X75046462Y-101945345D01*
X74587073Y-101485154D01*
X73986547Y-101235794D01*
X73336306Y-101235226D01*
X72735345Y-101483538D01*
X72275154Y-101942927D01*
X72025794Y-102543453D01*
X72025733Y-102613646D01*
X69609667Y-103419001D01*
X69585943Y-103432525D01*
X69559161Y-103437852D01*
X69457878Y-103505527D01*
X69352047Y-103565855D01*
X69335304Y-103587428D01*
X69312599Y-103602599D01*
X69244921Y-103703887D01*
X69170236Y-103800118D01*
X69163024Y-103826455D01*
X69147852Y-103849161D01*
X69124085Y-103968644D01*
X69091913Y-104086125D01*
X69095328Y-104113215D01*
X69091393Y-104132996D01*
X68964683Y-104156838D01*
X68748559Y-104295910D01*
X68603569Y-104508110D01*
X68552560Y-104760000D01*
X68552560Y-106060000D01*
X68596838Y-106295317D01*
X68735910Y-106511441D01*
X68948110Y-106656431D01*
X69200000Y-106707440D01*
X69395460Y-106707440D01*
X69123057Y-106819995D01*
X68761265Y-107181155D01*
X68565223Y-107653276D01*
X68564807Y-108130005D01*
X68070000Y-107635198D01*
X68070000Y-101316356D01*
X68356371Y-101030485D01*
X68544785Y-100576734D01*
X68545214Y-100085421D01*
X68357592Y-99631343D01*
X68070000Y-99343248D01*
X68070000Y-98113694D01*
X68215226Y-98113694D01*
X68463538Y-98714655D01*
X68922927Y-99174846D01*
X69523453Y-99424206D01*
X70173694Y-99424774D01*
X70774655Y-99176462D01*
X71234846Y-98717073D01*
X71484206Y-98116547D01*
X71484774Y-97466306D01*
X71236462Y-96865345D01*
X70777073Y-96405154D01*
X70176547Y-96155794D01*
X69526306Y-96155226D01*
X68925345Y-96403538D01*
X68465154Y-96862927D01*
X68215794Y-97463453D01*
X68215226Y-98113694D01*
X68070000Y-98113694D01*
X68070000Y-97790000D01*
X68012148Y-97499161D01*
X67847401Y-97252599D01*
X67600839Y-97087852D01*
X67310000Y-97030000D01*
X64449802Y-97030000D01*
X62990000Y-95570198D01*
X62990000Y-94800167D01*
X63199838Y-94800167D01*
X63341883Y-95143943D01*
X63604673Y-95407192D01*
X63948201Y-95549838D01*
X64320167Y-95550162D01*
X64663943Y-95408117D01*
X64927192Y-95145327D01*
X65069838Y-94801799D01*
X65069879Y-94754923D01*
X65962639Y-93862163D01*
X72687443Y-93862163D01*
X72786042Y-94128965D01*
X73395582Y-94355401D01*
X74045377Y-94331341D01*
X74202472Y-94266270D01*
X74717910Y-94266270D01*
X74717910Y-94956459D01*
X74814583Y-95189848D01*
X74993211Y-95368477D01*
X75226600Y-95465150D01*
X75916790Y-95465150D01*
X76075540Y-95306400D01*
X76075540Y-94107520D01*
X76329540Y-94107520D01*
X76329540Y-95306400D01*
X76488290Y-95465150D01*
X77178480Y-95465150D01*
X77411869Y-95368477D01*
X77590497Y-95189848D01*
X77687170Y-94956459D01*
X77687170Y-94266270D01*
X77528420Y-94107520D01*
X76329540Y-94107520D01*
X76075540Y-94107520D01*
X74876660Y-94107520D01*
X74717910Y-94266270D01*
X74202472Y-94266270D01*
X74533958Y-94128965D01*
X74632557Y-93862163D01*
X73660000Y-92889605D01*
X72687443Y-93862163D01*
X65962639Y-93862163D01*
X67379220Y-92445582D01*
X72014599Y-92445582D01*
X72038659Y-93095377D01*
X72241035Y-93583958D01*
X72507837Y-93682557D01*
X73480395Y-92710000D01*
X73839605Y-92710000D01*
X74717910Y-93588304D01*
X74717910Y-93694770D01*
X74876660Y-93853520D01*
X76075540Y-93853520D01*
X76075540Y-92654640D01*
X76329540Y-92654640D01*
X76329540Y-93853520D01*
X77528420Y-93853520D01*
X77687170Y-93694770D01*
X77687170Y-93004581D01*
X77590497Y-92771192D01*
X77411869Y-92592563D01*
X77178480Y-92495890D01*
X76488290Y-92495890D01*
X76329540Y-92654640D01*
X76075540Y-92654640D01*
X75916790Y-92495890D01*
X75287683Y-92495890D01*
X75281341Y-92324623D01*
X75078965Y-91836042D01*
X74812163Y-91737443D01*
X73839605Y-92710000D01*
X73480395Y-92710000D01*
X72507837Y-91737443D01*
X72241035Y-91836042D01*
X72014599Y-92445582D01*
X67379220Y-92445582D01*
X68266965Y-91557837D01*
X72687443Y-91557837D01*
X73660000Y-92530395D01*
X74632557Y-91557837D01*
X74533958Y-91291035D01*
X73924418Y-91064599D01*
X73274623Y-91088659D01*
X72786042Y-91291035D01*
X72687443Y-91557837D01*
X68266965Y-91557837D01*
X70387402Y-89437401D01*
X70552148Y-89190839D01*
X70570015Y-89101018D01*
X70774655Y-89016462D01*
X71234846Y-88557073D01*
X71484206Y-87956547D01*
X71484774Y-87306306D01*
X71236462Y-86705345D01*
X70777073Y-86245154D01*
X70176547Y-85995794D01*
X69526306Y-85995226D01*
X68925345Y-86243538D01*
X68465154Y-86702927D01*
X68215794Y-87303453D01*
X68215226Y-87953694D01*
X68463538Y-88554655D01*
X68791754Y-88883444D01*
X63995320Y-93679878D01*
X63949833Y-93679838D01*
X63606057Y-93821883D01*
X63342808Y-94084673D01*
X63200162Y-94428201D01*
X63199838Y-94800167D01*
X62990000Y-94800167D01*
X62990000Y-91156356D01*
X63276371Y-90870485D01*
X63464785Y-90416734D01*
X63465214Y-89925421D01*
X63277592Y-89471343D01*
X62930485Y-89123629D01*
X62476734Y-88935215D01*
X62194970Y-88934969D01*
X62195214Y-88655421D01*
X62007592Y-88201343D01*
X61660485Y-87853629D01*
X61206734Y-87665215D01*
X60715421Y-87664786D01*
X60261343Y-87852408D01*
X59973248Y-88140000D01*
X55596356Y-88140000D01*
X55310485Y-87853629D01*
X54856734Y-87665215D01*
X54574970Y-87664969D01*
X54575027Y-87599521D01*
X54931413Y-87577482D01*
X55243617Y-87448164D01*
X55293130Y-87222735D01*
X54610000Y-86539605D01*
X54595858Y-86553748D01*
X54416253Y-86374143D01*
X54430395Y-86360000D01*
X54789605Y-86360000D01*
X55472735Y-87043130D01*
X55698164Y-86993617D01*
X55857807Y-86528964D01*
X55827482Y-86038587D01*
X55698164Y-85726383D01*
X55472735Y-85676870D01*
X54789605Y-86360000D01*
X54430395Y-86360000D01*
X53747265Y-85676870D01*
X53521836Y-85726383D01*
X53362193Y-86191036D01*
X53374808Y-86395030D01*
X53095421Y-86394786D01*
X52641343Y-86582408D01*
X52293629Y-86929515D01*
X52105215Y-87383266D01*
X52104786Y-87874579D01*
X52214456Y-88140000D01*
X49530000Y-88140000D01*
X49239161Y-88197852D01*
X48992599Y-88362599D01*
X46211083Y-91144115D01*
X46046547Y-91075794D01*
X45889145Y-91075657D01*
X46257401Y-90707401D01*
X46422148Y-90460839D01*
X46480000Y-90170000D01*
X46480000Y-85497265D01*
X53926870Y-85497265D01*
X54610000Y-86180395D01*
X55293130Y-85497265D01*
X55243617Y-85271836D01*
X54778964Y-85112193D01*
X54288587Y-85142518D01*
X53976383Y-85271836D01*
X53926870Y-85497265D01*
X46480000Y-85497265D01*
X46480000Y-84004496D01*
X46644655Y-83936462D01*
X47104846Y-83477073D01*
X47174221Y-83310000D01*
X48035470Y-83310000D01*
X48035470Y-83400150D01*
X48079748Y-83635467D01*
X48218820Y-83851591D01*
X48431020Y-83996581D01*
X48682910Y-84047590D01*
X50382170Y-84047590D01*
X50617487Y-84003312D01*
X50833611Y-83864240D01*
X50978601Y-83652040D01*
X51029610Y-83400150D01*
X51029610Y-81700890D01*
X50985332Y-81465573D01*
X50846260Y-81249449D01*
X50634060Y-81104459D01*
X50382170Y-81053450D01*
X48682910Y-81053450D01*
X48447593Y-81097728D01*
X48231469Y-81236800D01*
X48086479Y-81449000D01*
X48035470Y-81700890D01*
X48035470Y-81790000D01*
X47174496Y-81790000D01*
X47106462Y-81625345D01*
X46647073Y-81165154D01*
X46046547Y-80915794D01*
X45396306Y-80915226D01*
X44795345Y-81163538D01*
X44335154Y-81622927D01*
X44085794Y-82223453D01*
X44085226Y-82873694D01*
X44333538Y-83474655D01*
X44792927Y-83934846D01*
X44960000Y-84004221D01*
X44960000Y-89855198D01*
X43557152Y-91258046D01*
X43479271Y-90866511D01*
X43154415Y-90380330D01*
X42839634Y-90170000D01*
X43154415Y-89959670D01*
X43479271Y-89473489D01*
X43593345Y-88900000D01*
X43479271Y-88326511D01*
X43154415Y-87840330D01*
X42839634Y-87630000D01*
X43154415Y-87419670D01*
X43479271Y-86933489D01*
X43593345Y-86360000D01*
X43479271Y-85786511D01*
X43154415Y-85300330D01*
X42839634Y-85090000D01*
X43154415Y-84879670D01*
X43479271Y-84393489D01*
X43593345Y-83820000D01*
X43479271Y-83246511D01*
X43154415Y-82760330D01*
X43132220Y-82745500D01*
X43285699Y-82681927D01*
X43464327Y-82503298D01*
X43561000Y-82269909D01*
X43561000Y-81565750D01*
X43402250Y-81407000D01*
X42037000Y-81407000D01*
X42037000Y-81427000D01*
X41783000Y-81427000D01*
X41783000Y-81407000D01*
X40417750Y-81407000D01*
X40259000Y-81565750D01*
X40259000Y-82269909D01*
X40355673Y-82503298D01*
X40534301Y-82681927D01*
X40687780Y-82745500D01*
X40665585Y-82760330D01*
X40340729Y-83246511D01*
X40226655Y-83820000D01*
X40340729Y-84393489D01*
X40665585Y-84879670D01*
X40980366Y-85090000D01*
X40665585Y-85300330D01*
X40340729Y-85786511D01*
X40226655Y-86360000D01*
X40340729Y-86933489D01*
X40665585Y-87419670D01*
X40980366Y-87630000D01*
X40665585Y-87840330D01*
X40340729Y-88326511D01*
X40226655Y-88900000D01*
X40340729Y-89473489D01*
X40665585Y-89959670D01*
X40980366Y-90170000D01*
X40665585Y-90380330D01*
X40340729Y-90866511D01*
X40226655Y-91440000D01*
X40340729Y-92013489D01*
X40665585Y-92499670D01*
X40980366Y-92710000D01*
X40665585Y-92920330D01*
X40340729Y-93406511D01*
X40226655Y-93980000D01*
X40340729Y-94553489D01*
X40665585Y-95039670D01*
X40980366Y-95250000D01*
X40665585Y-95460330D01*
X40340729Y-95946511D01*
X40226655Y-96520000D01*
X40340729Y-97093489D01*
X40665585Y-97579670D01*
X40980366Y-97790000D01*
X40665585Y-98000330D01*
X40340729Y-98486511D01*
X40226655Y-99060000D01*
X40340729Y-99633489D01*
X40665585Y-100119670D01*
X40980366Y-100330000D01*
X40665585Y-100540330D01*
X40340729Y-101026511D01*
X40226655Y-101600000D01*
X40340729Y-102173489D01*
X40665585Y-102659670D01*
X40980366Y-102870000D01*
X40665585Y-103080330D01*
X40340729Y-103566511D01*
X40226655Y-104140000D01*
X40340729Y-104713489D01*
X40665585Y-105199670D01*
X40980366Y-105410000D01*
X40665585Y-105620330D01*
X40340729Y-106106511D01*
X40226655Y-106680000D01*
X40340729Y-107253489D01*
X40665585Y-107739670D01*
X40980366Y-107950000D01*
X40665585Y-108160330D01*
X40340729Y-108646511D01*
X40226655Y-109220000D01*
X40340729Y-109793489D01*
X40665585Y-110279670D01*
X40980366Y-110490000D01*
X40665585Y-110700330D01*
X40340729Y-111186511D01*
X40226655Y-111760000D01*
X40340729Y-112333489D01*
X40665585Y-112819670D01*
X40980366Y-113030000D01*
X40665585Y-113240330D01*
X40340729Y-113726511D01*
X40226655Y-114300000D01*
X40340729Y-114873489D01*
X40665585Y-115359670D01*
X40980366Y-115570000D01*
X40665585Y-115780330D01*
X40340729Y-116266511D01*
X40226655Y-116840000D01*
X40340729Y-117413489D01*
X40665585Y-117899670D01*
X40980366Y-118110000D01*
X40665585Y-118320330D01*
X40340729Y-118806511D01*
X40226655Y-119380000D01*
X40340729Y-119953489D01*
X40665585Y-120439670D01*
X40980366Y-120650000D01*
X40665585Y-120860330D01*
X40340729Y-121346511D01*
X40226655Y-121920000D01*
X40340729Y-122493489D01*
X40665585Y-122979670D01*
X40980366Y-123190000D01*
X40665585Y-123400330D01*
X40340729Y-123886511D01*
X40226655Y-124460000D01*
X40340729Y-125033489D01*
X40665585Y-125519670D01*
X40980366Y-125730000D01*
X40665585Y-125940330D01*
X40340729Y-126426511D01*
X40226655Y-127000000D01*
X40340729Y-127573489D01*
X40665585Y-128059670D01*
X41151766Y-128384526D01*
X41725255Y-128498600D01*
X42094745Y-128498600D01*
X42668234Y-128384526D01*
X43154415Y-128059670D01*
X43479271Y-127573489D01*
X43593345Y-127000000D01*
X43479271Y-126426511D01*
X43154415Y-125940330D01*
X42839634Y-125730000D01*
X43154415Y-125519670D01*
X43479271Y-125033489D01*
X43593345Y-124460000D01*
X43479271Y-123886511D01*
X43154415Y-123400330D01*
X42839634Y-123190000D01*
X43154415Y-122979670D01*
X43479271Y-122493489D01*
X43593345Y-121920000D01*
X43479271Y-121346511D01*
X43154415Y-120860330D01*
X42839634Y-120650000D01*
X43154415Y-120439670D01*
X43479271Y-119953489D01*
X43593345Y-119380000D01*
X43479271Y-118806511D01*
X43154415Y-118320330D01*
X42839634Y-118110000D01*
X43154415Y-117899670D01*
X43479271Y-117413489D01*
X43536505Y-117125750D01*
X57135000Y-117125750D01*
X57135000Y-117616310D01*
X57231673Y-117849699D01*
X57410302Y-118028327D01*
X57643691Y-118125000D01*
X58134250Y-118125000D01*
X58293000Y-117966250D01*
X58293000Y-116967000D01*
X58547000Y-116967000D01*
X58547000Y-117966250D01*
X58705750Y-118125000D01*
X59196309Y-118125000D01*
X59429698Y-118028327D01*
X59608327Y-117849699D01*
X59705000Y-117616310D01*
X59705000Y-117125750D01*
X59546250Y-116967000D01*
X58547000Y-116967000D01*
X58293000Y-116967000D01*
X57293750Y-116967000D01*
X57135000Y-117125750D01*
X43536505Y-117125750D01*
X43593345Y-116840000D01*
X43479271Y-116266511D01*
X43343751Y-116063690D01*
X57135000Y-116063690D01*
X57135000Y-116554250D01*
X57293750Y-116713000D01*
X58293000Y-116713000D01*
X58293000Y-115713750D01*
X58547000Y-115713750D01*
X58547000Y-116713000D01*
X59546250Y-116713000D01*
X59705000Y-116554250D01*
X59705000Y-116063690D01*
X59608327Y-115830301D01*
X59429698Y-115651673D01*
X59196309Y-115555000D01*
X58705750Y-115555000D01*
X58547000Y-115713750D01*
X58293000Y-115713750D01*
X58134250Y-115555000D01*
X57643691Y-115555000D01*
X57410302Y-115651673D01*
X57231673Y-115830301D01*
X57135000Y-116063690D01*
X43343751Y-116063690D01*
X43154415Y-115780330D01*
X42839634Y-115570000D01*
X43154415Y-115359670D01*
X43479271Y-114873489D01*
X43593345Y-114300000D01*
X43479271Y-113726511D01*
X43154415Y-113240330D01*
X42839634Y-113030000D01*
X43154415Y-112819670D01*
X43479271Y-112333489D01*
X43593345Y-111760000D01*
X43479271Y-111186511D01*
X43154415Y-110700330D01*
X42839634Y-110490000D01*
X43154415Y-110279670D01*
X43479271Y-109793489D01*
X43593345Y-109220000D01*
X43479271Y-108646511D01*
X43154415Y-108160330D01*
X42839634Y-107950000D01*
X43154415Y-107739670D01*
X43479271Y-107253489D01*
X43593345Y-106680000D01*
X43479271Y-106106511D01*
X43154415Y-105620330D01*
X42839634Y-105410000D01*
X43154415Y-105199670D01*
X43479271Y-104713489D01*
X43593345Y-104140000D01*
X43479271Y-103566511D01*
X43154415Y-103080330D01*
X42839634Y-102870000D01*
X43154415Y-102659670D01*
X43354648Y-102360000D01*
X44702994Y-102360000D01*
X45031155Y-102688735D01*
X45503276Y-102884777D01*
X46014481Y-102885223D01*
X46486943Y-102690005D01*
X46848735Y-102328845D01*
X46962560Y-102054724D01*
X46962560Y-102250000D01*
X47006838Y-102485317D01*
X47145910Y-102701441D01*
X47358110Y-102846431D01*
X47610000Y-102897440D01*
X48211554Y-102897440D01*
X50628885Y-106523437D01*
X50435794Y-106988453D01*
X50435226Y-107638694D01*
X50683538Y-108239655D01*
X51142927Y-108699846D01*
X51743453Y-108949206D01*
X52393694Y-108949774D01*
X52994655Y-108701462D01*
X53359741Y-108337012D01*
X53312560Y-108570000D01*
X53312560Y-109442638D01*
X51221748Y-111533450D01*
X49952910Y-111533450D01*
X49717593Y-111577728D01*
X49501469Y-111716800D01*
X49356479Y-111929000D01*
X49305470Y-112180890D01*
X49305470Y-112270000D01*
X48444496Y-112270000D01*
X48376462Y-112105345D01*
X47917073Y-111645154D01*
X47316547Y-111395794D01*
X46666306Y-111395226D01*
X46065345Y-111643538D01*
X45605154Y-112102927D01*
X45355794Y-112703453D01*
X45355226Y-113353694D01*
X45603538Y-113954655D01*
X46062927Y-114414846D01*
X46663453Y-114664206D01*
X47313694Y-114664774D01*
X47914655Y-114416462D01*
X48374846Y-113957073D01*
X48444221Y-113790000D01*
X49305470Y-113790000D01*
X49305470Y-113880150D01*
X49349748Y-114115467D01*
X49488820Y-114331591D01*
X49701020Y-114476581D01*
X49952910Y-114527590D01*
X51652170Y-114527590D01*
X51887487Y-114483312D01*
X52103611Y-114344240D01*
X52248601Y-114132040D01*
X52299610Y-113880150D01*
X52299610Y-113790520D01*
X63185718Y-113790520D01*
X70582599Y-121187401D01*
X70829161Y-121352148D01*
X71120000Y-121410000D01*
X71997391Y-121410000D01*
X72144221Y-121629746D01*
X72578616Y-121920000D01*
X72144221Y-122210254D01*
X71843867Y-122659765D01*
X71738397Y-123190000D01*
X71843867Y-123720235D01*
X72144221Y-124169746D01*
X72578616Y-124460000D01*
X72348537Y-124613735D01*
X70387401Y-122652599D01*
X70140839Y-122487852D01*
X69850000Y-122430000D01*
X66040000Y-122430000D01*
X65749160Y-122487852D01*
X65502599Y-122652599D01*
X64770000Y-123385198D01*
X61359802Y-119975000D01*
X63209984Y-118124818D01*
X63674481Y-118125223D01*
X64146943Y-117930005D01*
X64508735Y-117568845D01*
X64704777Y-117096724D01*
X64705223Y-116585519D01*
X64510005Y-116113057D01*
X64148845Y-115751265D01*
X63676724Y-115555223D01*
X63165519Y-115554777D01*
X62693057Y-115749995D01*
X62331265Y-116111155D01*
X62135223Y-116583276D01*
X62134815Y-117050383D01*
X53924352Y-125260846D01*
X53877401Y-125190579D01*
X52253768Y-123566946D01*
X52286912Y-123487127D01*
X52287428Y-122896504D01*
X52061882Y-122350643D01*
X51644614Y-121932646D01*
X51099147Y-121706148D01*
X50508524Y-121705632D01*
X49962663Y-121931178D01*
X49544666Y-122348446D01*
X49510586Y-122430520D01*
X48444711Y-122430520D01*
X48376462Y-122265345D01*
X47917073Y-121805154D01*
X47316547Y-121555794D01*
X46666306Y-121555226D01*
X46065345Y-121803538D01*
X45605154Y-122262927D01*
X45355794Y-122863453D01*
X45355226Y-123513694D01*
X45603538Y-124114655D01*
X46062927Y-124574846D01*
X46663453Y-124824206D01*
X47313694Y-124824774D01*
X47914655Y-124576462D01*
X48374846Y-124117073D01*
X48444005Y-123950520D01*
X49510193Y-123950520D01*
X49543198Y-124030397D01*
X49960466Y-124448394D01*
X50505933Y-124674892D01*
X51096556Y-124675408D01*
X51178689Y-124641471D01*
X51984863Y-125447645D01*
X51872559Y-125519910D01*
X51727569Y-125732110D01*
X51676560Y-125984000D01*
X51676560Y-128016000D01*
X51720838Y-128251317D01*
X51859910Y-128467441D01*
X52072110Y-128612431D01*
X52324000Y-128663440D01*
X54356000Y-128663440D01*
X54591317Y-128619162D01*
X54807441Y-128480090D01*
X54907856Y-128333128D01*
X54911621Y-128337188D01*
X55497054Y-128605983D01*
X55753000Y-128487367D01*
X55753000Y-127127000D01*
X56007000Y-127127000D01*
X56007000Y-128487367D01*
X56262946Y-128605983D01*
X56848379Y-128337188D01*
X57286385Y-127864818D01*
X57485975Y-127382944D01*
X57366836Y-127127000D01*
X56007000Y-127127000D01*
X55753000Y-127127000D01*
X55733000Y-127127000D01*
X55733000Y-126873000D01*
X55753000Y-126873000D01*
X55753000Y-126853000D01*
X56007000Y-126853000D01*
X56007000Y-126873000D01*
X57366836Y-126873000D01*
X57485975Y-126617056D01*
X57286385Y-126135182D01*
X56848379Y-125662812D01*
X56262946Y-125394017D01*
X56007002Y-125512632D01*
X56007002Y-125349000D01*
X55985802Y-125349000D01*
X57001112Y-124333690D01*
X59055000Y-124333690D01*
X59055000Y-126714250D01*
X59213750Y-126873000D01*
X60198000Y-126873000D01*
X60198000Y-123983750D01*
X60452000Y-123983750D01*
X60452000Y-126873000D01*
X61436250Y-126873000D01*
X61595000Y-126714250D01*
X61595000Y-124333690D01*
X61498327Y-124100301D01*
X61319698Y-123921673D01*
X61086309Y-123825000D01*
X60610750Y-123825000D01*
X60452000Y-123983750D01*
X60198000Y-123983750D01*
X60039250Y-123825000D01*
X59563691Y-123825000D01*
X59330302Y-123921673D01*
X59151673Y-124100301D01*
X59055000Y-124333690D01*
X57001112Y-124333690D01*
X60285000Y-121049802D01*
X63628140Y-124392942D01*
X63614560Y-124460000D01*
X63614560Y-128830000D01*
X61595000Y-128830000D01*
X61595000Y-127285750D01*
X61436250Y-127127000D01*
X60452000Y-127127000D01*
X60452000Y-127147000D01*
X60198000Y-127147000D01*
X60198000Y-127127000D01*
X59213750Y-127127000D01*
X59055000Y-127285750D01*
X59055000Y-128830000D01*
X40080000Y-128830000D01*
X40080000Y-80290091D01*
X40259000Y-80290091D01*
X40259000Y-80994250D01*
X40417750Y-81153000D01*
X41783000Y-81153000D01*
X41783000Y-79940150D01*
X42037000Y-79940150D01*
X42037000Y-81153000D01*
X43402250Y-81153000D01*
X43561000Y-80994250D01*
X43561000Y-80392944D01*
X51734025Y-80392944D01*
X51933615Y-80874818D01*
X52371621Y-81347188D01*
X52957054Y-81615983D01*
X53213000Y-81497367D01*
X53213000Y-80137000D01*
X51853164Y-80137000D01*
X51734025Y-80392944D01*
X43561000Y-80392944D01*
X43561000Y-80290091D01*
X43464327Y-80056702D01*
X43285699Y-79878073D01*
X43052310Y-79781400D01*
X42195750Y-79781400D01*
X42037000Y-79940150D01*
X41783000Y-79940150D01*
X41624250Y-79781400D01*
X40767690Y-79781400D01*
X40534301Y-79878073D01*
X40355673Y-80056702D01*
X40259000Y-80290091D01*
X40080000Y-80290091D01*
X40080000Y-79627056D01*
X51734025Y-79627056D01*
X51853164Y-79883000D01*
X53213000Y-79883000D01*
X53213000Y-78522633D01*
X52957054Y-78404017D01*
X52371621Y-78672812D01*
X51933615Y-79145182D01*
X51734025Y-79627056D01*
X40080000Y-79627056D01*
X40080000Y-78180000D01*
X66675000Y-78180000D01*
X66675000Y-79724250D01*
G36*
X86995000Y-79724250D02*
X87153750Y-79883000D01*
X88138000Y-79883000D01*
X88138000Y-79863000D01*
X88392000Y-79863000D01*
X88392000Y-79883000D01*
X89376250Y-79883000D01*
X89535000Y-79724250D01*
X89535000Y-78180000D01*
X93270000Y-78180000D01*
X93270000Y-128830000D01*
X70485000Y-128830000D01*
X70485000Y-127285750D01*
X70326250Y-127127000D01*
X69342000Y-127127000D01*
X69342000Y-127147000D01*
X69088000Y-127147000D01*
X69088000Y-127127000D01*
X68103750Y-127127000D01*
X67945000Y-127285750D01*
X67945000Y-128830000D01*
X65925440Y-128830000D01*
X65925440Y-124460000D01*
X65912670Y-124392132D01*
X66354802Y-123950000D01*
X68191975Y-123950000D01*
X68041673Y-124100301D01*
X67945000Y-124333690D01*
X67945000Y-126714250D01*
X68103750Y-126873000D01*
X69088000Y-126873000D01*
X69088000Y-126853000D01*
X69342000Y-126853000D01*
X69342000Y-126873000D01*
X70326250Y-126873000D01*
X70485000Y-126714250D01*
X70485000Y-124899802D01*
X71843478Y-126258280D01*
X71843867Y-126260235D01*
X72144221Y-126709746D01*
X72593732Y-127010100D01*
X73123967Y-127115570D01*
X74196033Y-127115570D01*
X74726268Y-127010100D01*
X75175779Y-126709746D01*
X75476133Y-126260235D01*
X75581603Y-125730000D01*
X75476133Y-125199765D01*
X75175779Y-124750254D01*
X74741384Y-124460000D01*
X75175779Y-124169746D01*
X75322609Y-123950000D01*
X77470000Y-123950000D01*
X77760839Y-123892148D01*
X78007401Y-123727401D01*
X79277401Y-122457401D01*
X79442148Y-122210840D01*
X79500000Y-121920000D01*
X79500000Y-119380000D01*
X79442148Y-119089161D01*
X79442148Y-119089160D01*
X79277401Y-118842599D01*
X77274802Y-116840000D01*
X79277401Y-114837401D01*
X79442148Y-114590840D01*
X79454729Y-114527590D01*
X79500000Y-114300000D01*
X79500000Y-88900000D01*
X79442148Y-88609161D01*
X79277401Y-88362599D01*
X75494802Y-84580000D01*
X82550000Y-84580000D01*
X82840839Y-84522148D01*
X83087401Y-84357401D01*
X83624802Y-83820000D01*
X89756655Y-83820000D01*
X89870729Y-84393489D01*
X90195585Y-84879670D01*
X90510366Y-85090000D01*
X90195585Y-85300330D01*
X89870729Y-85786511D01*
X89756655Y-86360000D01*
X89870729Y-86933489D01*
X90195585Y-87419670D01*
X90510366Y-87630000D01*
X90195585Y-87840330D01*
X89870729Y-88326511D01*
X89756655Y-88900000D01*
X89870729Y-89473489D01*
X90195585Y-89959670D01*
X90510366Y-90170000D01*
X90195585Y-90380330D01*
X89870729Y-90866511D01*
X89756655Y-91440000D01*
X89870729Y-92013489D01*
X90195585Y-92499670D01*
X90510366Y-92710000D01*
X90195585Y-92920330D01*
X89870729Y-93406511D01*
X89756655Y-93980000D01*
X89870729Y-94553489D01*
X90195585Y-95039670D01*
X90510366Y-95250000D01*
X90195585Y-95460330D01*
X89870729Y-95946511D01*
X89756655Y-96520000D01*
X89870729Y-97093489D01*
X90195585Y-97579670D01*
X90510366Y-97790000D01*
X90195585Y-98000330D01*
X89870729Y-98486511D01*
X89756655Y-99060000D01*
X89870729Y-99633489D01*
X90195585Y-100119670D01*
X90510366Y-100330000D01*
X90195585Y-100540330D01*
X89870729Y-101026511D01*
X89756655Y-101600000D01*
X89870729Y-102173489D01*
X90195585Y-102659670D01*
X90510366Y-102870000D01*
X90195585Y-103080330D01*
X89870729Y-103566511D01*
X89756655Y-104140000D01*
X89870729Y-104713489D01*
X90195585Y-105199670D01*
X90510366Y-105410000D01*
X90195585Y-105620330D01*
X89870729Y-106106511D01*
X89756655Y-106680000D01*
X89870729Y-107253489D01*
X90195585Y-107739670D01*
X90510366Y-107950000D01*
X90195585Y-108160330D01*
X89870729Y-108646511D01*
X89756655Y-109220000D01*
X89870729Y-109793489D01*
X90195585Y-110279670D01*
X90510366Y-110490000D01*
X90195585Y-110700330D01*
X89870729Y-111186511D01*
X89756655Y-111760000D01*
X89870729Y-112333489D01*
X90195585Y-112819670D01*
X90510366Y-113030000D01*
X90195585Y-113240330D01*
X89870729Y-113726511D01*
X89756655Y-114300000D01*
X89870729Y-114873489D01*
X90195585Y-115359670D01*
X90510366Y-115570000D01*
X90195585Y-115780330D01*
X89870729Y-116266511D01*
X89756655Y-116840000D01*
X89870729Y-117413489D01*
X90195585Y-117899670D01*
X90510366Y-118110000D01*
X90195585Y-118320330D01*
X89870729Y-118806511D01*
X89756655Y-119380000D01*
X89870729Y-119953489D01*
X90195585Y-120439670D01*
X90510366Y-120650000D01*
X90195585Y-120860330D01*
X89870729Y-121346511D01*
X89756655Y-121920000D01*
X89870729Y-122493489D01*
X90195585Y-122979670D01*
X90510366Y-123190000D01*
X90195585Y-123400330D01*
X89870729Y-123886511D01*
X89756655Y-124460000D01*
X89870729Y-125033489D01*
X90195585Y-125519670D01*
X90510366Y-125730000D01*
X90195585Y-125940330D01*
X89870729Y-126426511D01*
X89756655Y-127000000D01*
X89870729Y-127573489D01*
X90195585Y-128059670D01*
X90681766Y-128384526D01*
X91255255Y-128498600D01*
X91624745Y-128498600D01*
X92198234Y-128384526D01*
X92684415Y-128059670D01*
X93009271Y-127573489D01*
X93123345Y-127000000D01*
X93009271Y-126426511D01*
X92684415Y-125940330D01*
X92369634Y-125730000D01*
X92684415Y-125519670D01*
X93009271Y-125033489D01*
X93123345Y-124460000D01*
X93009271Y-123886511D01*
X92684415Y-123400330D01*
X92369634Y-123190000D01*
X92684415Y-122979670D01*
X93009271Y-122493489D01*
X93123345Y-121920000D01*
X93009271Y-121346511D01*
X92684415Y-120860330D01*
X92369634Y-120650000D01*
X92684415Y-120439670D01*
X93009271Y-119953489D01*
X93123345Y-119380000D01*
X93009271Y-118806511D01*
X92684415Y-118320330D01*
X92369634Y-118110000D01*
X92684415Y-117899670D01*
X93009271Y-117413489D01*
X93123345Y-116840000D01*
X93009271Y-116266511D01*
X92684415Y-115780330D01*
X92369634Y-115570000D01*
X92684415Y-115359670D01*
X93009271Y-114873489D01*
X93123345Y-114300000D01*
X93009271Y-113726511D01*
X92684415Y-113240330D01*
X92369634Y-113030000D01*
X92684415Y-112819670D01*
X93009271Y-112333489D01*
X93123345Y-111760000D01*
X93009271Y-111186511D01*
X92684415Y-110700330D01*
X92369634Y-110490000D01*
X92684415Y-110279670D01*
X93009271Y-109793489D01*
X93123345Y-109220000D01*
X93009271Y-108646511D01*
X92684415Y-108160330D01*
X92369634Y-107950000D01*
X92684415Y-107739670D01*
X93009271Y-107253489D01*
X93123345Y-106680000D01*
X93009271Y-106106511D01*
X92684415Y-105620330D01*
X92369634Y-105410000D01*
X92684415Y-105199670D01*
X93009271Y-104713489D01*
X93123345Y-104140000D01*
X93009271Y-103566511D01*
X92684415Y-103080330D01*
X92369634Y-102870000D01*
X92684415Y-102659670D01*
X93009271Y-102173489D01*
X93123345Y-101600000D01*
X93009271Y-101026511D01*
X92684415Y-100540330D01*
X92369634Y-100330000D01*
X92684415Y-100119670D01*
X93009271Y-99633489D01*
X93123345Y-99060000D01*
X93009271Y-98486511D01*
X92684415Y-98000330D01*
X92369634Y-97790000D01*
X92684415Y-97579670D01*
X93009271Y-97093489D01*
X93123345Y-96520000D01*
X93009271Y-95946511D01*
X92684415Y-95460330D01*
X92369634Y-95250000D01*
X92684415Y-95039670D01*
X93009271Y-94553489D01*
X93123345Y-93980000D01*
X93009271Y-93406511D01*
X92684415Y-92920330D01*
X92369634Y-92710000D01*
X92684415Y-92499670D01*
X93009271Y-92013489D01*
X93123345Y-91440000D01*
X93009271Y-90866511D01*
X92684415Y-90380330D01*
X92369634Y-90170000D01*
X92684415Y-89959670D01*
X93009271Y-89473489D01*
X93123345Y-88900000D01*
X93009271Y-88326511D01*
X92684415Y-87840330D01*
X92369634Y-87630000D01*
X92684415Y-87419670D01*
X93009271Y-86933489D01*
X93123345Y-86360000D01*
X93009271Y-85786511D01*
X92684415Y-85300330D01*
X92369634Y-85090000D01*
X92684415Y-84879670D01*
X93009271Y-84393489D01*
X93123345Y-83820000D01*
X93009271Y-83246511D01*
X92684415Y-82760330D01*
X92662220Y-82745500D01*
X92815699Y-82681927D01*
X92994327Y-82503298D01*
X93091000Y-82269909D01*
X93091000Y-81565750D01*
X92932250Y-81407000D01*
X91567000Y-81407000D01*
X91567000Y-81427000D01*
X91313000Y-81427000D01*
X91313000Y-81407000D01*
X89947750Y-81407000D01*
X89789000Y-81565750D01*
X89789000Y-82269909D01*
X89885673Y-82503298D01*
X90064301Y-82681927D01*
X90217780Y-82745500D01*
X90195585Y-82760330D01*
X89870729Y-83246511D01*
X89756655Y-83820000D01*
X83624802Y-83820000D01*
X84247362Y-83197440D01*
X84328000Y-83197440D01*
X84563317Y-83153162D01*
X84779441Y-83014090D01*
X84924431Y-82801890D01*
X84975440Y-82550000D01*
X84975440Y-80295750D01*
X86995000Y-80295750D01*
X86995000Y-82676310D01*
X87091673Y-82909699D01*
X87270302Y-83088327D01*
X87503691Y-83185000D01*
X87979250Y-83185000D01*
X88138000Y-83026250D01*
X88138000Y-80137000D01*
X88392000Y-80137000D01*
X88392000Y-83026250D01*
X88550750Y-83185000D01*
X89026309Y-83185000D01*
X89259698Y-83088327D01*
X89438327Y-82909699D01*
X89535000Y-82676310D01*
X89535000Y-80295750D01*
X89529341Y-80290091D01*
X89789000Y-80290091D01*
X89789000Y-80994250D01*
X89947750Y-81153000D01*
X91313000Y-81153000D01*
X91313000Y-79940150D01*
X91567000Y-79940150D01*
X91567000Y-81153000D01*
X92932250Y-81153000D01*
X93091000Y-80994250D01*
X93091000Y-80290091D01*
X92994327Y-80056702D01*
X92815699Y-79878073D01*
X92582310Y-79781400D01*
X91725750Y-79781400D01*
X91567000Y-79940150D01*
X91313000Y-79940150D01*
X91154250Y-79781400D01*
X90297690Y-79781400D01*
X90064301Y-79878073D01*
X89885673Y-80056702D01*
X89789000Y-80290091D01*
X89529341Y-80290091D01*
X89376250Y-80137000D01*
X88392000Y-80137000D01*
X88138000Y-80137000D01*
X87153750Y-80137000D01*
X86995000Y-80295750D01*
X84975440Y-80295750D01*
X84975440Y-78180000D01*
X86995000Y-78180000D01*
X86995000Y-79724250D01*
X86995000Y-79724250D01*
G37*
X86995000Y-79724250D02*
X87153750Y-79883000D01*
X88138000Y-79883000D01*
X88138000Y-79863000D01*
X88392000Y-79863000D01*
X88392000Y-79883000D01*
X89376250Y-79883000D01*
X89535000Y-79724250D01*
X89535000Y-78180000D01*
X93270000Y-78180000D01*
X93270000Y-128830000D01*
X70485000Y-128830000D01*
X70485000Y-127285750D01*
X70326250Y-127127000D01*
X69342000Y-127127000D01*
X69342000Y-127147000D01*
X69088000Y-127147000D01*
X69088000Y-127127000D01*
X68103750Y-127127000D01*
X67945000Y-127285750D01*
X67945000Y-128830000D01*
X65925440Y-128830000D01*
X65925440Y-124460000D01*
X65912670Y-124392132D01*
X66354802Y-123950000D01*
X68191975Y-123950000D01*
X68041673Y-124100301D01*
X67945000Y-124333690D01*
X67945000Y-126714250D01*
X68103750Y-126873000D01*
X69088000Y-126873000D01*
X69088000Y-126853000D01*
X69342000Y-126853000D01*
X69342000Y-126873000D01*
X70326250Y-126873000D01*
X70485000Y-126714250D01*
X70485000Y-124899802D01*
X71843478Y-126258280D01*
X71843867Y-126260235D01*
X72144221Y-126709746D01*
X72593732Y-127010100D01*
X73123967Y-127115570D01*
X74196033Y-127115570D01*
X74726268Y-127010100D01*
X75175779Y-126709746D01*
X75476133Y-126260235D01*
X75581603Y-125730000D01*
X75476133Y-125199765D01*
X75175779Y-124750254D01*
X74741384Y-124460000D01*
X75175779Y-124169746D01*
X75322609Y-123950000D01*
X77470000Y-123950000D01*
X77760839Y-123892148D01*
X78007401Y-123727401D01*
X79277401Y-122457401D01*
X79442148Y-122210840D01*
X79500000Y-121920000D01*
X79500000Y-119380000D01*
X79442148Y-119089161D01*
X79442148Y-119089160D01*
X79277401Y-118842599D01*
X77274802Y-116840000D01*
X79277401Y-114837401D01*
X79442148Y-114590840D01*
X79454729Y-114527590D01*
X79500000Y-114300000D01*
X79500000Y-88900000D01*
X79442148Y-88609161D01*
X79277401Y-88362599D01*
X75494802Y-84580000D01*
X82550000Y-84580000D01*
X82840839Y-84522148D01*
X83087401Y-84357401D01*
X83624802Y-83820000D01*
X89756655Y-83820000D01*
X89870729Y-84393489D01*
X90195585Y-84879670D01*
X90510366Y-85090000D01*
X90195585Y-85300330D01*
X89870729Y-85786511D01*
X89756655Y-86360000D01*
X89870729Y-86933489D01*
X90195585Y-87419670D01*
X90510366Y-87630000D01*
X90195585Y-87840330D01*
X89870729Y-88326511D01*
X89756655Y-88900000D01*
X89870729Y-89473489D01*
X90195585Y-89959670D01*
X90510366Y-90170000D01*
X90195585Y-90380330D01*
X89870729Y-90866511D01*
X89756655Y-91440000D01*
X89870729Y-92013489D01*
X90195585Y-92499670D01*
X90510366Y-92710000D01*
X90195585Y-92920330D01*
X89870729Y-93406511D01*
X89756655Y-93980000D01*
X89870729Y-94553489D01*
X90195585Y-95039670D01*
X90510366Y-95250000D01*
X90195585Y-95460330D01*
X89870729Y-95946511D01*
X89756655Y-96520000D01*
X89870729Y-97093489D01*
X90195585Y-97579670D01*
X90510366Y-97790000D01*
X90195585Y-98000330D01*
X89870729Y-98486511D01*
X89756655Y-99060000D01*
X89870729Y-99633489D01*
X90195585Y-100119670D01*
X90510366Y-100330000D01*
X90195585Y-100540330D01*
X89870729Y-101026511D01*
X89756655Y-101600000D01*
X89870729Y-102173489D01*
X90195585Y-102659670D01*
X90510366Y-102870000D01*
X90195585Y-103080330D01*
X89870729Y-103566511D01*
X89756655Y-104140000D01*
X89870729Y-104713489D01*
X90195585Y-105199670D01*
X90510366Y-105410000D01*
X90195585Y-105620330D01*
X89870729Y-106106511D01*
X89756655Y-106680000D01*
X89870729Y-107253489D01*
X90195585Y-107739670D01*
X90510366Y-107950000D01*
X90195585Y-108160330D01*
X89870729Y-108646511D01*
X89756655Y-109220000D01*
X89870729Y-109793489D01*
X90195585Y-110279670D01*
X90510366Y-110490000D01*
X90195585Y-110700330D01*
X89870729Y-111186511D01*
X89756655Y-111760000D01*
X89870729Y-112333489D01*
X90195585Y-112819670D01*
X90510366Y-113030000D01*
X90195585Y-113240330D01*
X89870729Y-113726511D01*
X89756655Y-114300000D01*
X89870729Y-114873489D01*
X90195585Y-115359670D01*
X90510366Y-115570000D01*
X90195585Y-115780330D01*
X89870729Y-116266511D01*
X89756655Y-116840000D01*
X89870729Y-117413489D01*
X90195585Y-117899670D01*
X90510366Y-118110000D01*
X90195585Y-118320330D01*
X89870729Y-118806511D01*
X89756655Y-119380000D01*
X89870729Y-119953489D01*
X90195585Y-120439670D01*
X90510366Y-120650000D01*
X90195585Y-120860330D01*
X89870729Y-121346511D01*
X89756655Y-121920000D01*
X89870729Y-122493489D01*
X90195585Y-122979670D01*
X90510366Y-123190000D01*
X90195585Y-123400330D01*
X89870729Y-123886511D01*
X89756655Y-124460000D01*
X89870729Y-125033489D01*
X90195585Y-125519670D01*
X90510366Y-125730000D01*
X90195585Y-125940330D01*
X89870729Y-126426511D01*
X89756655Y-127000000D01*
X89870729Y-127573489D01*
X90195585Y-128059670D01*
X90681766Y-128384526D01*
X91255255Y-128498600D01*
X91624745Y-128498600D01*
X92198234Y-128384526D01*
X92684415Y-128059670D01*
X93009271Y-127573489D01*
X93123345Y-127000000D01*
X93009271Y-126426511D01*
X92684415Y-125940330D01*
X92369634Y-125730000D01*
X92684415Y-125519670D01*
X93009271Y-125033489D01*
X93123345Y-124460000D01*
X93009271Y-123886511D01*
X92684415Y-123400330D01*
X92369634Y-123190000D01*
X92684415Y-122979670D01*
X93009271Y-122493489D01*
X93123345Y-121920000D01*
X93009271Y-121346511D01*
X92684415Y-120860330D01*
X92369634Y-120650000D01*
X92684415Y-120439670D01*
X93009271Y-119953489D01*
X93123345Y-119380000D01*
X93009271Y-118806511D01*
X92684415Y-118320330D01*
X92369634Y-118110000D01*
X92684415Y-117899670D01*
X93009271Y-117413489D01*
X93123345Y-116840000D01*
X93009271Y-116266511D01*
X92684415Y-115780330D01*
X92369634Y-115570000D01*
X92684415Y-115359670D01*
X93009271Y-114873489D01*
X93123345Y-114300000D01*
X93009271Y-113726511D01*
X92684415Y-113240330D01*
X92369634Y-113030000D01*
X92684415Y-112819670D01*
X93009271Y-112333489D01*
X93123345Y-111760000D01*
X93009271Y-111186511D01*
X92684415Y-110700330D01*
X92369634Y-110490000D01*
X92684415Y-110279670D01*
X93009271Y-109793489D01*
X93123345Y-109220000D01*
X93009271Y-108646511D01*
X92684415Y-108160330D01*
X92369634Y-107950000D01*
X92684415Y-107739670D01*
X93009271Y-107253489D01*
X93123345Y-106680000D01*
X93009271Y-106106511D01*
X92684415Y-105620330D01*
X92369634Y-105410000D01*
X92684415Y-105199670D01*
X93009271Y-104713489D01*
X93123345Y-104140000D01*
X93009271Y-103566511D01*
X92684415Y-103080330D01*
X92369634Y-102870000D01*
X92684415Y-102659670D01*
X93009271Y-102173489D01*
X93123345Y-101600000D01*
X93009271Y-101026511D01*
X92684415Y-100540330D01*
X92369634Y-100330000D01*
X92684415Y-100119670D01*
X93009271Y-99633489D01*
X93123345Y-99060000D01*
X93009271Y-98486511D01*
X92684415Y-98000330D01*
X92369634Y-97790000D01*
X92684415Y-97579670D01*
X93009271Y-97093489D01*
X93123345Y-96520000D01*
X93009271Y-95946511D01*
X92684415Y-95460330D01*
X92369634Y-95250000D01*
X92684415Y-95039670D01*
X93009271Y-94553489D01*
X93123345Y-93980000D01*
X93009271Y-93406511D01*
X92684415Y-92920330D01*
X92369634Y-92710000D01*
X92684415Y-92499670D01*
X93009271Y-92013489D01*
X93123345Y-91440000D01*
X93009271Y-90866511D01*
X92684415Y-90380330D01*
X92369634Y-90170000D01*
X92684415Y-89959670D01*
X93009271Y-89473489D01*
X93123345Y-88900000D01*
X93009271Y-88326511D01*
X92684415Y-87840330D01*
X92369634Y-87630000D01*
X92684415Y-87419670D01*
X93009271Y-86933489D01*
X93123345Y-86360000D01*
X93009271Y-85786511D01*
X92684415Y-85300330D01*
X92369634Y-85090000D01*
X92684415Y-84879670D01*
X93009271Y-84393489D01*
X93123345Y-83820000D01*
X93009271Y-83246511D01*
X92684415Y-82760330D01*
X92662220Y-82745500D01*
X92815699Y-82681927D01*
X92994327Y-82503298D01*
X93091000Y-82269909D01*
X93091000Y-81565750D01*
X92932250Y-81407000D01*
X91567000Y-81407000D01*
X91567000Y-81427000D01*
X91313000Y-81427000D01*
X91313000Y-81407000D01*
X89947750Y-81407000D01*
X89789000Y-81565750D01*
X89789000Y-82269909D01*
X89885673Y-82503298D01*
X90064301Y-82681927D01*
X90217780Y-82745500D01*
X90195585Y-82760330D01*
X89870729Y-83246511D01*
X89756655Y-83820000D01*
X83624802Y-83820000D01*
X84247362Y-83197440D01*
X84328000Y-83197440D01*
X84563317Y-83153162D01*
X84779441Y-83014090D01*
X84924431Y-82801890D01*
X84975440Y-82550000D01*
X84975440Y-80295750D01*
X86995000Y-80295750D01*
X86995000Y-82676310D01*
X87091673Y-82909699D01*
X87270302Y-83088327D01*
X87503691Y-83185000D01*
X87979250Y-83185000D01*
X88138000Y-83026250D01*
X88138000Y-80137000D01*
X88392000Y-80137000D01*
X88392000Y-83026250D01*
X88550750Y-83185000D01*
X89026309Y-83185000D01*
X89259698Y-83088327D01*
X89438327Y-82909699D01*
X89535000Y-82676310D01*
X89535000Y-80295750D01*
X89529341Y-80290091D01*
X89789000Y-80290091D01*
X89789000Y-80994250D01*
X89947750Y-81153000D01*
X91313000Y-81153000D01*
X91313000Y-79940150D01*
X91567000Y-79940150D01*
X91567000Y-81153000D01*
X92932250Y-81153000D01*
X93091000Y-80994250D01*
X93091000Y-80290091D01*
X92994327Y-80056702D01*
X92815699Y-79878073D01*
X92582310Y-79781400D01*
X91725750Y-79781400D01*
X91567000Y-79940150D01*
X91313000Y-79940150D01*
X91154250Y-79781400D01*
X90297690Y-79781400D01*
X90064301Y-79878073D01*
X89885673Y-80056702D01*
X89789000Y-80290091D01*
X89529341Y-80290091D01*
X89376250Y-80137000D01*
X88392000Y-80137000D01*
X88138000Y-80137000D01*
X87153750Y-80137000D01*
X86995000Y-80295750D01*
X84975440Y-80295750D01*
X84975440Y-78180000D01*
X86995000Y-78180000D01*
X86995000Y-79724250D01*
G36*
X72732927Y-104254846D02*
X73333453Y-104504206D01*
X73983694Y-104504774D01*
X74584655Y-104256462D01*
X74717924Y-104123425D01*
X74717652Y-104434536D01*
X74943198Y-104980397D01*
X75360466Y-105398394D01*
X75905933Y-105624892D01*
X76496556Y-105625408D01*
X76577260Y-105592062D01*
X76710000Y-105724802D01*
X76710000Y-108719089D01*
X76498658Y-108330056D01*
X76076677Y-107988501D01*
X75556110Y-107834430D01*
X75057000Y-107834430D01*
X75057000Y-109093000D01*
X75077000Y-109093000D01*
X75077000Y-109347000D01*
X75057000Y-109347000D01*
X75057000Y-109367000D01*
X74803000Y-109367000D01*
X74803000Y-109347000D01*
X73210661Y-109347000D01*
X73088007Y-109561275D01*
X73102190Y-109632903D01*
X73361342Y-110109944D01*
X73783323Y-110451499D01*
X73873032Y-110478050D01*
X73863732Y-110479900D01*
X73414221Y-110780254D01*
X73113867Y-111229765D01*
X73113478Y-111231720D01*
X71852599Y-112492599D01*
X71687852Y-112739161D01*
X71630000Y-113030000D01*
X71630000Y-115570000D01*
X71687852Y-115860839D01*
X71852599Y-116107401D01*
X73122599Y-117377401D01*
X73369160Y-117542148D01*
X73660000Y-117600000D01*
X75885198Y-117600000D01*
X77980000Y-119694802D01*
X77980000Y-121605198D01*
X77155198Y-122430000D01*
X75322609Y-122430000D01*
X75175779Y-122210254D01*
X74741384Y-121920000D01*
X75175779Y-121629746D01*
X75476133Y-121180235D01*
X75581603Y-120650000D01*
X75476133Y-120119765D01*
X75175779Y-119670254D01*
X74726268Y-119369900D01*
X74196033Y-119264430D01*
X73123967Y-119264430D01*
X72593732Y-119369900D01*
X72144221Y-119670254D01*
X71997391Y-119890000D01*
X71434802Y-119890000D01*
X65437537Y-113892735D01*
X66626870Y-113892735D01*
X66676383Y-114118164D01*
X67141036Y-114277807D01*
X67631413Y-114247482D01*
X67943617Y-114118164D01*
X67993130Y-113892735D01*
X67310000Y-113209605D01*
X66626870Y-113892735D01*
X65437537Y-113892735D01*
X64405838Y-112861036D01*
X66062193Y-112861036D01*
X66092518Y-113351413D01*
X66221836Y-113663617D01*
X66447265Y-113713130D01*
X67130395Y-113030000D01*
X66447265Y-112346870D01*
X66221836Y-112396383D01*
X66062193Y-112861036D01*
X64405838Y-112861036D01*
X64037921Y-112493119D01*
X63791359Y-112328372D01*
X63500520Y-112270520D01*
X52634282Y-112270520D01*
X54387362Y-110517440D01*
X55260000Y-110517440D01*
X55495317Y-110473162D01*
X55711441Y-110334090D01*
X55856431Y-110121890D01*
X55907440Y-109870000D01*
X55907440Y-109674540D01*
X56019995Y-109946943D01*
X56381155Y-110308735D01*
X56853276Y-110504777D01*
X57364481Y-110505223D01*
X57836943Y-110310005D01*
X58167525Y-109980000D01*
X63500000Y-109980000D01*
X63790839Y-109922148D01*
X64037401Y-109757401D01*
X64609941Y-109184861D01*
X65014579Y-109185214D01*
X65468657Y-108997592D01*
X65816371Y-108650485D01*
X66004785Y-108196734D01*
X66005214Y-107705421D01*
X65817592Y-107251343D01*
X65545763Y-106979039D01*
X66550000Y-105974802D01*
X66550000Y-107950000D01*
X66607852Y-108240839D01*
X66772599Y-108487401D01*
X68810399Y-110525201D01*
X68335421Y-110524786D01*
X67881343Y-110712408D01*
X67533629Y-111059515D01*
X67345215Y-111513266D01*
X67344973Y-111790479D01*
X66988587Y-111812518D01*
X66676383Y-111941836D01*
X66626870Y-112167265D01*
X67310000Y-112850395D01*
X67324143Y-112836253D01*
X67503748Y-113015858D01*
X67489605Y-113030000D01*
X68172735Y-113713130D01*
X68398164Y-113663617D01*
X68557807Y-113198964D01*
X68545192Y-112994970D01*
X68615030Y-112995031D01*
X68614786Y-113274579D01*
X68802408Y-113728657D01*
X69149515Y-114076371D01*
X69603266Y-114264785D01*
X70094579Y-114265214D01*
X70548657Y-114077592D01*
X70896371Y-113730485D01*
X71084785Y-113276734D01*
X71085214Y-112785421D01*
X70897592Y-112331343D01*
X70610000Y-112043248D01*
X70610000Y-110490000D01*
X70552148Y-110199161D01*
X70552148Y-110199160D01*
X70387401Y-109952599D01*
X69629611Y-109194809D01*
X70104481Y-109195223D01*
X70576943Y-109000005D01*
X70698435Y-108878725D01*
X73088007Y-108878725D01*
X73210661Y-109093000D01*
X74803000Y-109093000D01*
X74803000Y-107834430D01*
X74303890Y-107834430D01*
X73783323Y-107988501D01*
X73361342Y-108330056D01*
X73102190Y-108807097D01*
X73088007Y-108878725D01*
X70698435Y-108878725D01*
X70938735Y-108638845D01*
X71134777Y-108166724D01*
X71135223Y-107655519D01*
X70940005Y-107183057D01*
X70578845Y-106821265D01*
X70304724Y-106707440D01*
X70500000Y-106707440D01*
X70735317Y-106663162D01*
X70951441Y-106524090D01*
X71096431Y-106311890D01*
X71147440Y-106060000D01*
X71147440Y-104760000D01*
X71103162Y-104524683D01*
X71102477Y-104523618D01*
X72527163Y-104048722D01*
X72732927Y-104254846D01*
X72732927Y-104254846D01*
G37*
X72732927Y-104254846D02*
X73333453Y-104504206D01*
X73983694Y-104504774D01*
X74584655Y-104256462D01*
X74717924Y-104123425D01*
X74717652Y-104434536D01*
X74943198Y-104980397D01*
X75360466Y-105398394D01*
X75905933Y-105624892D01*
X76496556Y-105625408D01*
X76577260Y-105592062D01*
X76710000Y-105724802D01*
X76710000Y-108719089D01*
X76498658Y-108330056D01*
X76076677Y-107988501D01*
X75556110Y-107834430D01*
X75057000Y-107834430D01*
X75057000Y-109093000D01*
X75077000Y-109093000D01*
X75077000Y-109347000D01*
X75057000Y-109347000D01*
X75057000Y-109367000D01*
X74803000Y-109367000D01*
X74803000Y-109347000D01*
X73210661Y-109347000D01*
X73088007Y-109561275D01*
X73102190Y-109632903D01*
X73361342Y-110109944D01*
X73783323Y-110451499D01*
X73873032Y-110478050D01*
X73863732Y-110479900D01*
X73414221Y-110780254D01*
X73113867Y-111229765D01*
X73113478Y-111231720D01*
X71852599Y-112492599D01*
X71687852Y-112739161D01*
X71630000Y-113030000D01*
X71630000Y-115570000D01*
X71687852Y-115860839D01*
X71852599Y-116107401D01*
X73122599Y-117377401D01*
X73369160Y-117542148D01*
X73660000Y-117600000D01*
X75885198Y-117600000D01*
X77980000Y-119694802D01*
X77980000Y-121605198D01*
X77155198Y-122430000D01*
X75322609Y-122430000D01*
X75175779Y-122210254D01*
X74741384Y-121920000D01*
X75175779Y-121629746D01*
X75476133Y-121180235D01*
X75581603Y-120650000D01*
X75476133Y-120119765D01*
X75175779Y-119670254D01*
X74726268Y-119369900D01*
X74196033Y-119264430D01*
X73123967Y-119264430D01*
X72593732Y-119369900D01*
X72144221Y-119670254D01*
X71997391Y-119890000D01*
X71434802Y-119890000D01*
X65437537Y-113892735D01*
X66626870Y-113892735D01*
X66676383Y-114118164D01*
X67141036Y-114277807D01*
X67631413Y-114247482D01*
X67943617Y-114118164D01*
X67993130Y-113892735D01*
X67310000Y-113209605D01*
X66626870Y-113892735D01*
X65437537Y-113892735D01*
X64405838Y-112861036D01*
X66062193Y-112861036D01*
X66092518Y-113351413D01*
X66221836Y-113663617D01*
X66447265Y-113713130D01*
X67130395Y-113030000D01*
X66447265Y-112346870D01*
X66221836Y-112396383D01*
X66062193Y-112861036D01*
X64405838Y-112861036D01*
X64037921Y-112493119D01*
X63791359Y-112328372D01*
X63500520Y-112270520D01*
X52634282Y-112270520D01*
X54387362Y-110517440D01*
X55260000Y-110517440D01*
X55495317Y-110473162D01*
X55711441Y-110334090D01*
X55856431Y-110121890D01*
X55907440Y-109870000D01*
X55907440Y-109674540D01*
X56019995Y-109946943D01*
X56381155Y-110308735D01*
X56853276Y-110504777D01*
X57364481Y-110505223D01*
X57836943Y-110310005D01*
X58167525Y-109980000D01*
X63500000Y-109980000D01*
X63790839Y-109922148D01*
X64037401Y-109757401D01*
X64609941Y-109184861D01*
X65014579Y-109185214D01*
X65468657Y-108997592D01*
X65816371Y-108650485D01*
X66004785Y-108196734D01*
X66005214Y-107705421D01*
X65817592Y-107251343D01*
X65545763Y-106979039D01*
X66550000Y-105974802D01*
X66550000Y-107950000D01*
X66607852Y-108240839D01*
X66772599Y-108487401D01*
X68810399Y-110525201D01*
X68335421Y-110524786D01*
X67881343Y-110712408D01*
X67533629Y-111059515D01*
X67345215Y-111513266D01*
X67344973Y-111790479D01*
X66988587Y-111812518D01*
X66676383Y-111941836D01*
X66626870Y-112167265D01*
X67310000Y-112850395D01*
X67324143Y-112836253D01*
X67503748Y-113015858D01*
X67489605Y-113030000D01*
X68172735Y-113713130D01*
X68398164Y-113663617D01*
X68557807Y-113198964D01*
X68545192Y-112994970D01*
X68615030Y-112995031D01*
X68614786Y-113274579D01*
X68802408Y-113728657D01*
X69149515Y-114076371D01*
X69603266Y-114264785D01*
X70094579Y-114265214D01*
X70548657Y-114077592D01*
X70896371Y-113730485D01*
X71084785Y-113276734D01*
X71085214Y-112785421D01*
X70897592Y-112331343D01*
X70610000Y-112043248D01*
X70610000Y-110490000D01*
X70552148Y-110199161D01*
X70552148Y-110199160D01*
X70387401Y-109952599D01*
X69629611Y-109194809D01*
X70104481Y-109195223D01*
X70576943Y-109000005D01*
X70698435Y-108878725D01*
X73088007Y-108878725D01*
X73210661Y-109093000D01*
X74803000Y-109093000D01*
X74803000Y-107834430D01*
X74303890Y-107834430D01*
X73783323Y-107988501D01*
X73361342Y-108330056D01*
X73102190Y-108807097D01*
X73088007Y-108878725D01*
X70698435Y-108878725D01*
X70938735Y-108638845D01*
X71134777Y-108166724D01*
X71135223Y-107655519D01*
X70940005Y-107183057D01*
X70578845Y-106821265D01*
X70304724Y-106707440D01*
X70500000Y-106707440D01*
X70735317Y-106663162D01*
X70951441Y-106524090D01*
X71096431Y-106311890D01*
X71147440Y-106060000D01*
X71147440Y-104760000D01*
X71103162Y-104524683D01*
X71102477Y-104523618D01*
X72527163Y-104048722D01*
X72732927Y-104254846D01*
G36*
X58455215Y-89923266D02*
X58454786Y-90414579D01*
X58642408Y-90868657D01*
X58989515Y-91216371D01*
X59443266Y-91404785D01*
X59934579Y-91405214D01*
X60388657Y-91217592D01*
X60736371Y-90870485D01*
X60924785Y-90416734D01*
X60925031Y-90134970D01*
X60995030Y-90135031D01*
X60994786Y-90414579D01*
X61182408Y-90868657D01*
X61470000Y-91156752D01*
X61470000Y-95885000D01*
X61527852Y-96175839D01*
X61692599Y-96422401D01*
X63597599Y-98327401D01*
X63844161Y-98492148D01*
X64135000Y-98550000D01*
X64914533Y-98550000D01*
X64805215Y-98813266D01*
X64804786Y-99304579D01*
X64992408Y-99758657D01*
X65339515Y-100106371D01*
X65793266Y-100294785D01*
X66075030Y-100295031D01*
X66074969Y-100365030D01*
X65795421Y-100364786D01*
X65341343Y-100552408D01*
X64993629Y-100899515D01*
X64805215Y-101353266D01*
X64804786Y-101844579D01*
X64992408Y-102298657D01*
X65339515Y-102646371D01*
X65793266Y-102834785D01*
X66284579Y-102835214D01*
X66550000Y-102725544D01*
X66550000Y-103825198D01*
X64470791Y-105904407D01*
X64200485Y-105633629D01*
X63746734Y-105445215D01*
X63255421Y-105444786D01*
X62801343Y-105632408D01*
X62453629Y-105979515D01*
X62265215Y-106433266D01*
X62264973Y-106710479D01*
X61908587Y-106732518D01*
X61596383Y-106861836D01*
X61546870Y-107087265D01*
X62230000Y-107770395D01*
X62244143Y-107756253D01*
X62423748Y-107935858D01*
X62409605Y-107950000D01*
X62423748Y-107964143D01*
X62244143Y-108143748D01*
X62230000Y-108129605D01*
X62215858Y-108143748D01*
X62036253Y-107964143D01*
X62050395Y-107950000D01*
X61367265Y-107266870D01*
X61141836Y-107316383D01*
X60982193Y-107781036D01*
X61012518Y-108271413D01*
X61090633Y-108460000D01*
X58167006Y-108460000D01*
X57838845Y-108131265D01*
X57366724Y-107935223D01*
X56855519Y-107934777D01*
X56383057Y-108129995D01*
X56021265Y-108491155D01*
X55907440Y-108765276D01*
X55907440Y-108570000D01*
X55863162Y-108334683D01*
X55724090Y-108118559D01*
X55511890Y-107973569D01*
X55260000Y-107922560D01*
X53960000Y-107922560D01*
X53724683Y-107966838D01*
X53512416Y-108103428D01*
X53704206Y-107641547D01*
X53704774Y-106991306D01*
X53464955Y-106410900D01*
X54639552Y-104355175D01*
X54906556Y-104355408D01*
X55452417Y-104129862D01*
X55870414Y-103712594D01*
X56096912Y-103167127D01*
X56097428Y-102576504D01*
X55871882Y-102030643D01*
X55454614Y-101612646D01*
X54909147Y-101386148D01*
X54318524Y-101385632D01*
X53772663Y-101611178D01*
X53354666Y-102028446D01*
X53128168Y-102573913D01*
X53127652Y-103164536D01*
X53312970Y-103613038D01*
X52131630Y-105680563D01*
X51893642Y-105680355D01*
X49557440Y-102176051D01*
X49557440Y-100950000D01*
X49513162Y-100714683D01*
X49374090Y-100498559D01*
X49161890Y-100353569D01*
X48910000Y-100302560D01*
X47610000Y-100302560D01*
X47374683Y-100346838D01*
X47158559Y-100485910D01*
X47013569Y-100698110D01*
X46962560Y-100950000D01*
X46962560Y-101145460D01*
X46850005Y-100873057D01*
X46520000Y-100542475D01*
X46520000Y-99820000D01*
X49530000Y-99820000D01*
X49820839Y-99762148D01*
X50067401Y-99597401D01*
X51133949Y-98530853D01*
X51142927Y-98539846D01*
X51743453Y-98789206D01*
X52393694Y-98789774D01*
X52994655Y-98541462D01*
X53454846Y-98082073D01*
X53704206Y-97481547D01*
X53704774Y-96831306D01*
X53456462Y-96230345D01*
X52997073Y-95770154D01*
X52396547Y-95520794D01*
X51746306Y-95520226D01*
X51145345Y-95768538D01*
X50685154Y-96227927D01*
X50435794Y-96828453D01*
X50435575Y-97079623D01*
X49215198Y-98300000D01*
X46520000Y-98300000D01*
X46520000Y-97789216D01*
X46605317Y-97773162D01*
X46821441Y-97634090D01*
X46966431Y-97421890D01*
X47017440Y-97170000D01*
X47017440Y-96974540D01*
X47129995Y-97246943D01*
X47491155Y-97608735D01*
X47963276Y-97804777D01*
X48474481Y-97805223D01*
X48946943Y-97610005D01*
X49308735Y-97248845D01*
X49371268Y-97098249D01*
X49432401Y-97057401D01*
X51114802Y-95375000D01*
X54047537Y-95375000D01*
X54079673Y-95407192D01*
X54423201Y-95549838D01*
X54795167Y-95550162D01*
X55138943Y-95408117D01*
X55402192Y-95145327D01*
X55544838Y-94801799D01*
X55545162Y-94429833D01*
X55453333Y-94207590D01*
X55462170Y-94207590D01*
X55697487Y-94163312D01*
X55913611Y-94024240D01*
X55997160Y-93901962D01*
X58455139Y-96359941D01*
X58454786Y-96764579D01*
X58642408Y-97218657D01*
X58989515Y-97566371D01*
X59443266Y-97754785D01*
X59725030Y-97755031D01*
X59724969Y-97825030D01*
X59445421Y-97824786D01*
X58991343Y-98012408D01*
X58643629Y-98359515D01*
X58455215Y-98813266D01*
X58454786Y-99304579D01*
X58642408Y-99758657D01*
X58989515Y-100106371D01*
X59443266Y-100294785D01*
X59934579Y-100295214D01*
X60388657Y-100107592D01*
X60736371Y-99760485D01*
X60924785Y-99306734D01*
X60925031Y-99024970D01*
X61204579Y-99025214D01*
X61658657Y-98837592D01*
X62006371Y-98490485D01*
X62194785Y-98036734D01*
X62195214Y-97545421D01*
X62007592Y-97091343D01*
X61660485Y-96743629D01*
X61206734Y-96555215D01*
X60924970Y-96554969D01*
X60925214Y-96275421D01*
X60737592Y-95821343D01*
X60390485Y-95473629D01*
X59936734Y-95285215D01*
X59529662Y-95284860D01*
X56417921Y-92173119D01*
X56171359Y-92008372D01*
X56109610Y-91996089D01*
X56109610Y-91860890D01*
X56065332Y-91625573D01*
X55926260Y-91409449D01*
X55714060Y-91264459D01*
X55462170Y-91213450D01*
X55372540Y-91213450D01*
X55372540Y-89883821D01*
X55596752Y-89660000D01*
X58564533Y-89660000D01*
X58455215Y-89923266D01*
X58455215Y-89923266D01*
G37*
X58455215Y-89923266D02*
X58454786Y-90414579D01*
X58642408Y-90868657D01*
X58989515Y-91216371D01*
X59443266Y-91404785D01*
X59934579Y-91405214D01*
X60388657Y-91217592D01*
X60736371Y-90870485D01*
X60924785Y-90416734D01*
X60925031Y-90134970D01*
X60995030Y-90135031D01*
X60994786Y-90414579D01*
X61182408Y-90868657D01*
X61470000Y-91156752D01*
X61470000Y-95885000D01*
X61527852Y-96175839D01*
X61692599Y-96422401D01*
X63597599Y-98327401D01*
X63844161Y-98492148D01*
X64135000Y-98550000D01*
X64914533Y-98550000D01*
X64805215Y-98813266D01*
X64804786Y-99304579D01*
X64992408Y-99758657D01*
X65339515Y-100106371D01*
X65793266Y-100294785D01*
X66075030Y-100295031D01*
X66074969Y-100365030D01*
X65795421Y-100364786D01*
X65341343Y-100552408D01*
X64993629Y-100899515D01*
X64805215Y-101353266D01*
X64804786Y-101844579D01*
X64992408Y-102298657D01*
X65339515Y-102646371D01*
X65793266Y-102834785D01*
X66284579Y-102835214D01*
X66550000Y-102725544D01*
X66550000Y-103825198D01*
X64470791Y-105904407D01*
X64200485Y-105633629D01*
X63746734Y-105445215D01*
X63255421Y-105444786D01*
X62801343Y-105632408D01*
X62453629Y-105979515D01*
X62265215Y-106433266D01*
X62264973Y-106710479D01*
X61908587Y-106732518D01*
X61596383Y-106861836D01*
X61546870Y-107087265D01*
X62230000Y-107770395D01*
X62244143Y-107756253D01*
X62423748Y-107935858D01*
X62409605Y-107950000D01*
X62423748Y-107964143D01*
X62244143Y-108143748D01*
X62230000Y-108129605D01*
X62215858Y-108143748D01*
X62036253Y-107964143D01*
X62050395Y-107950000D01*
X61367265Y-107266870D01*
X61141836Y-107316383D01*
X60982193Y-107781036D01*
X61012518Y-108271413D01*
X61090633Y-108460000D01*
X58167006Y-108460000D01*
X57838845Y-108131265D01*
X57366724Y-107935223D01*
X56855519Y-107934777D01*
X56383057Y-108129995D01*
X56021265Y-108491155D01*
X55907440Y-108765276D01*
X55907440Y-108570000D01*
X55863162Y-108334683D01*
X55724090Y-108118559D01*
X55511890Y-107973569D01*
X55260000Y-107922560D01*
X53960000Y-107922560D01*
X53724683Y-107966838D01*
X53512416Y-108103428D01*
X53704206Y-107641547D01*
X53704774Y-106991306D01*
X53464955Y-106410900D01*
X54639552Y-104355175D01*
X54906556Y-104355408D01*
X55452417Y-104129862D01*
X55870414Y-103712594D01*
X56096912Y-103167127D01*
X56097428Y-102576504D01*
X55871882Y-102030643D01*
X55454614Y-101612646D01*
X54909147Y-101386148D01*
X54318524Y-101385632D01*
X53772663Y-101611178D01*
X53354666Y-102028446D01*
X53128168Y-102573913D01*
X53127652Y-103164536D01*
X53312970Y-103613038D01*
X52131630Y-105680563D01*
X51893642Y-105680355D01*
X49557440Y-102176051D01*
X49557440Y-100950000D01*
X49513162Y-100714683D01*
X49374090Y-100498559D01*
X49161890Y-100353569D01*
X48910000Y-100302560D01*
X47610000Y-100302560D01*
X47374683Y-100346838D01*
X47158559Y-100485910D01*
X47013569Y-100698110D01*
X46962560Y-100950000D01*
X46962560Y-101145460D01*
X46850005Y-100873057D01*
X46520000Y-100542475D01*
X46520000Y-99820000D01*
X49530000Y-99820000D01*
X49820839Y-99762148D01*
X50067401Y-99597401D01*
X51133949Y-98530853D01*
X51142927Y-98539846D01*
X51743453Y-98789206D01*
X52393694Y-98789774D01*
X52994655Y-98541462D01*
X53454846Y-98082073D01*
X53704206Y-97481547D01*
X53704774Y-96831306D01*
X53456462Y-96230345D01*
X52997073Y-95770154D01*
X52396547Y-95520794D01*
X51746306Y-95520226D01*
X51145345Y-95768538D01*
X50685154Y-96227927D01*
X50435794Y-96828453D01*
X50435575Y-97079623D01*
X49215198Y-98300000D01*
X46520000Y-98300000D01*
X46520000Y-97789216D01*
X46605317Y-97773162D01*
X46821441Y-97634090D01*
X46966431Y-97421890D01*
X47017440Y-97170000D01*
X47017440Y-96974540D01*
X47129995Y-97246943D01*
X47491155Y-97608735D01*
X47963276Y-97804777D01*
X48474481Y-97805223D01*
X48946943Y-97610005D01*
X49308735Y-97248845D01*
X49371268Y-97098249D01*
X49432401Y-97057401D01*
X51114802Y-95375000D01*
X54047537Y-95375000D01*
X54079673Y-95407192D01*
X54423201Y-95549838D01*
X54795167Y-95550162D01*
X55138943Y-95408117D01*
X55402192Y-95145327D01*
X55544838Y-94801799D01*
X55545162Y-94429833D01*
X55453333Y-94207590D01*
X55462170Y-94207590D01*
X55697487Y-94163312D01*
X55913611Y-94024240D01*
X55997160Y-93901962D01*
X58455139Y-96359941D01*
X58454786Y-96764579D01*
X58642408Y-97218657D01*
X58989515Y-97566371D01*
X59443266Y-97754785D01*
X59725030Y-97755031D01*
X59724969Y-97825030D01*
X59445421Y-97824786D01*
X58991343Y-98012408D01*
X58643629Y-98359515D01*
X58455215Y-98813266D01*
X58454786Y-99304579D01*
X58642408Y-99758657D01*
X58989515Y-100106371D01*
X59443266Y-100294785D01*
X59934579Y-100295214D01*
X60388657Y-100107592D01*
X60736371Y-99760485D01*
X60924785Y-99306734D01*
X60925031Y-99024970D01*
X61204579Y-99025214D01*
X61658657Y-98837592D01*
X62006371Y-98490485D01*
X62194785Y-98036734D01*
X62195214Y-97545421D01*
X62007592Y-97091343D01*
X61660485Y-96743629D01*
X61206734Y-96555215D01*
X60924970Y-96554969D01*
X60925214Y-96275421D01*
X60737592Y-95821343D01*
X60390485Y-95473629D01*
X59936734Y-95285215D01*
X59529662Y-95284860D01*
X56417921Y-92173119D01*
X56171359Y-92008372D01*
X56109610Y-91996089D01*
X56109610Y-91860890D01*
X56065332Y-91625573D01*
X55926260Y-91409449D01*
X55714060Y-91264459D01*
X55462170Y-91213450D01*
X55372540Y-91213450D01*
X55372540Y-89883821D01*
X55596752Y-89660000D01*
X58564533Y-89660000D01*
X58455215Y-89923266D01*
G36*
X75565000Y-79724250D02*
X75723750Y-79883000D01*
X76708000Y-79883000D01*
X76708000Y-79863000D01*
X76962000Y-79863000D01*
X76962000Y-79883000D01*
X77946250Y-79883000D01*
X78105000Y-79724250D01*
X78263750Y-79883000D01*
X79248000Y-79883000D01*
X79248000Y-79863000D01*
X79502000Y-79863000D01*
X79502000Y-79883000D01*
X80486250Y-79883000D01*
X80645000Y-79724250D01*
X80645000Y-78180000D01*
X82664560Y-78180000D01*
X82664560Y-82550000D01*
X82677330Y-82617868D01*
X82235198Y-83060000D01*
X80398025Y-83060000D01*
X80548327Y-82909699D01*
X80645000Y-82676310D01*
X80645000Y-80295750D01*
X80486250Y-80137000D01*
X79502000Y-80137000D01*
X79502000Y-80157000D01*
X79248000Y-80157000D01*
X79248000Y-80137000D01*
X78263750Y-80137000D01*
X78105000Y-80295750D01*
X77946250Y-80137000D01*
X76962000Y-80137000D01*
X76962000Y-80157000D01*
X76708000Y-80157000D01*
X76708000Y-80137000D01*
X75723750Y-80137000D01*
X75565000Y-80295750D01*
X75565000Y-82676310D01*
X75661673Y-82909699D01*
X75811975Y-83060000D01*
X73974802Y-83060000D01*
X73531860Y-82617058D01*
X73545440Y-82550000D01*
X73545440Y-78180000D01*
X75565000Y-78180000D01*
X75565000Y-79724250D01*
X75565000Y-79724250D01*
G37*
X75565000Y-79724250D02*
X75723750Y-79883000D01*
X76708000Y-79883000D01*
X76708000Y-79863000D01*
X76962000Y-79863000D01*
X76962000Y-79883000D01*
X77946250Y-79883000D01*
X78105000Y-79724250D01*
X78263750Y-79883000D01*
X79248000Y-79883000D01*
X79248000Y-79863000D01*
X79502000Y-79863000D01*
X79502000Y-79883000D01*
X80486250Y-79883000D01*
X80645000Y-79724250D01*
X80645000Y-78180000D01*
X82664560Y-78180000D01*
X82664560Y-82550000D01*
X82677330Y-82617868D01*
X82235198Y-83060000D01*
X80398025Y-83060000D01*
X80548327Y-82909699D01*
X80645000Y-82676310D01*
X80645000Y-80295750D01*
X80486250Y-80137000D01*
X79502000Y-80137000D01*
X79502000Y-80157000D01*
X79248000Y-80157000D01*
X79248000Y-80137000D01*
X78263750Y-80137000D01*
X78105000Y-80295750D01*
X77946250Y-80137000D01*
X76962000Y-80137000D01*
X76962000Y-80157000D01*
X76708000Y-80157000D01*
X76708000Y-80137000D01*
X75723750Y-80137000D01*
X75565000Y-80295750D01*
X75565000Y-82676310D01*
X75661673Y-82909699D01*
X75811975Y-83060000D01*
X73974802Y-83060000D01*
X73531860Y-82617058D01*
X73545440Y-82550000D01*
X73545440Y-78180000D01*
X75565000Y-78180000D01*
X75565000Y-79724250D01*
M02*
