M48
;DRILL file {KiCad 4.0.3+e1-6302~38~ubuntu16.04.1-stable} date Thu Aug 25 12:25:44 2016
;FORMAT={-:-/ absolute / inch / decimal}
FMAT,2
INCH,TZ
T1C0.016
T2C0.028
T3C0.031
T4C0.032
T5C0.039
T6C0.040
%
G90
G05
M72
T1
X2.15Y-3.725
X2.525Y-3.725
T2
X1.9501Y-3.25
X1.9501Y-3.65
X2.0001Y-4.45
X2.0001Y-4.85
X2.1501Y-3.65
X2.1501Y-4.05
X3.0001Y-3.7
X3.0001Y-4.1
T3
X1.8Y-3.8
X1.9Y-4.
X2.1Y-3.45
X2.15Y-3.4
X2.15Y-3.5
X2.15Y-4.3
X2.3Y-4.6
X2.35Y-3.55
X2.35Y-3.8
X2.35Y-3.9
X2.4Y-3.5
X2.4Y-3.85
X2.45Y-3.55
X2.45Y-4.25
X2.4969Y-4.6
X2.5Y-4.2
X2.55Y-4.25
X2.6Y-3.9
X2.6Y-4.
X2.65Y-3.95
X2.65Y-4.45
X2.7Y-4.4
X2.75Y-4.15
X2.75Y-4.45
T4
X1.8016Y-4.
X1.8984Y-3.8
X2.2484Y-4.3
X2.75Y-4.2484
T5
X1.8Y-3.25
X1.8Y-3.65
X1.85Y-4.45
X1.85Y-4.85
X2.05Y-3.825
X2.05Y-4.225
X2.75Y-3.45
X2.75Y-3.85
X2.9Y-3.65
X2.9Y-4.05
X2.9Y-4.75
X2.9Y-4.85
X2.9Y-4.95
X2.95Y-4.3
X2.95Y-4.4
X2.95Y-4.5
T6
X1.65Y-3.2
X1.65Y-3.3
X1.65Y-3.4
X1.65Y-3.5
X1.65Y-3.6
X1.65Y-3.7
X1.65Y-3.8
X1.65Y-3.9
X1.65Y-4.
X1.65Y-4.1
X1.65Y-4.2
X1.65Y-4.3
X1.65Y-4.4
X1.65Y-4.5
X1.65Y-4.6
X1.65Y-4.7
X1.65Y-4.8
X1.65Y-4.9
X1.65Y-5.
X2.1Y-3.15
X2.1Y-5.
X2.2Y-3.15
X2.2Y-5.
X2.4Y-3.15
X2.5Y-3.15
X3.6Y-3.2
X3.6Y-3.3
X3.6Y-3.4
X3.6Y-3.5
X3.6Y-3.6
X3.6Y-3.7
X3.6Y-3.8
X3.6Y-3.9
X3.6Y-4.
X3.6Y-4.1
X3.6Y-4.2
X3.6Y-4.3
X3.6Y-4.4
X3.6Y-4.5
X3.6Y-4.6
X3.6Y-4.7
X3.6Y-4.8
X3.6Y-4.9
X3.6Y-5.
T0
M30
