G04 #@! TF.FileFunction,Copper,L1,Top,Signal*
%FSLAX46Y46*%
G04 Gerber Fmt 4.6, Leading zero omitted, Abs format (unit mm)*
G04 Created by KiCad (PCBNEW 4.0.4+e1-6308~48~ubuntu16.04.1-stable) date Mon Oct 24 16:38:44 2016*
%MOMM*%
%LPD*%
G01*
G04 APERTURE LIST*
%ADD10C,0.100000*%
%ADD11R,2.032000X1.727200*%
%ADD12O,2.032000X1.727200*%
%ADD13R,1.560000X0.650000*%
%ADD14R,1.600000X2.000000*%
%ADD15R,1.200000X0.750000*%
%ADD16R,0.750000X1.200000*%
%ADD17R,1.270000X1.270000*%
%ADD18R,2.032000X2.032000*%
%ADD19O,2.032000X2.032000*%
%ADD20R,1.397000X1.397000*%
%ADD21C,1.397000*%
%ADD22R,2.501900X1.000760*%
%ADD23R,4.000500X1.998980*%
%ADD24R,1.500000X0.400000*%
%ADD25C,2.000000*%
%ADD26R,1.778000X5.080000*%
%ADD27R,1.270000X5.080000*%
%ADD28R,1.800860X0.800100*%
%ADD29R,2.000000X1.600000*%
%ADD30R,3.810000X1.270000*%
%ADD31C,0.600000*%
%ADD32C,0.250000*%
%ADD33C,0.254000*%
G04 APERTURE END LIST*
D10*
D11*
X46990000Y-87630000D03*
D12*
X46990000Y-90170000D03*
X46990000Y-92710000D03*
X46990000Y-95250000D03*
X46990000Y-97790000D03*
X46990000Y-100330000D03*
X46990000Y-102870000D03*
X46990000Y-105410000D03*
X46990000Y-107950000D03*
X46990000Y-110490000D03*
X46990000Y-113030000D03*
X46990000Y-115570000D03*
X46990000Y-118110000D03*
X46990000Y-120650000D03*
X46990000Y-123190000D03*
X46990000Y-125730000D03*
X46990000Y-128270000D03*
X46990000Y-130810000D03*
X46990000Y-133350000D03*
D13*
X56595000Y-103820000D03*
X56595000Y-102870000D03*
X56595000Y-101920000D03*
X53895000Y-101920000D03*
X53895000Y-103820000D03*
X53895000Y-102870000D03*
D14*
X50800000Y-90265000D03*
X50800000Y-86265000D03*
D15*
X53660000Y-111760000D03*
X55560000Y-111760000D03*
D16*
X58420000Y-109540000D03*
X58420000Y-111440000D03*
X59690000Y-120970000D03*
X59690000Y-122870000D03*
X56515000Y-97475000D03*
X56515000Y-99375000D03*
X61595000Y-109540000D03*
X61595000Y-111440000D03*
X62230000Y-119700000D03*
X62230000Y-121600000D03*
X64770000Y-109540000D03*
X64770000Y-111440000D03*
D15*
X61910000Y-125730000D03*
X60010000Y-125730000D03*
X77790000Y-125095000D03*
X79690000Y-125095000D03*
X77790000Y-122555000D03*
X79690000Y-122555000D03*
D16*
X77470000Y-117795000D03*
X77470000Y-119695000D03*
D15*
X84770000Y-106680000D03*
X82870000Y-106680000D03*
X84770000Y-114935000D03*
X82870000Y-114935000D03*
D17*
X61849000Y-98425000D03*
X60071000Y-98425000D03*
D16*
X53340000Y-107000000D03*
X53340000Y-108900000D03*
D15*
X60010000Y-114300000D03*
X61910000Y-114300000D03*
X77790000Y-109220000D03*
X79690000Y-109220000D03*
X77790000Y-114935000D03*
X79690000Y-114935000D03*
X80330000Y-117475000D03*
X82230000Y-117475000D03*
D18*
X68580000Y-88900000D03*
D19*
X66040000Y-88900000D03*
D15*
X60010000Y-116840000D03*
X61910000Y-116840000D03*
D16*
X53975000Y-99375000D03*
X53975000Y-97475000D03*
D15*
X79690000Y-106680000D03*
X77790000Y-106680000D03*
X79690000Y-112395000D03*
X77790000Y-112395000D03*
X82870000Y-109220000D03*
X84770000Y-109220000D03*
X82870000Y-112395000D03*
X84770000Y-112395000D03*
D20*
X67310000Y-133350000D03*
D21*
X69850000Y-133350000D03*
X72390000Y-133350000D03*
D22*
X55432960Y-91208860D03*
X55432960Y-92710000D03*
X55432960Y-94211140D03*
D23*
X59385200Y-92710000D03*
D10*
G36*
X57410350Y-93710760D02*
X56661050Y-93210380D01*
X56661050Y-92209620D01*
X57410350Y-91709240D01*
X57410350Y-93710760D01*
X57410350Y-93710760D01*
G37*
D24*
X66950000Y-116522500D03*
X66950000Y-117157500D03*
X66950000Y-117792500D03*
X66950000Y-118427500D03*
X66950000Y-119062500D03*
X66950000Y-119697500D03*
X66950000Y-120332500D03*
X66950000Y-120967500D03*
X66950000Y-121602500D03*
X66950000Y-122237500D03*
X72750000Y-122237500D03*
X72750000Y-121602500D03*
X72750000Y-120967500D03*
X72750000Y-120332500D03*
X72750000Y-119697500D03*
X72750000Y-119062500D03*
X72750000Y-118427500D03*
X72750000Y-117792500D03*
X72750000Y-117157500D03*
X72750000Y-116522500D03*
D25*
X66040000Y-99060000D03*
D26*
X62674500Y-86360000D03*
X54165500Y-86360000D03*
D27*
X58420000Y-86360000D03*
D28*
X68811140Y-96200000D03*
X68811140Y-94300000D03*
X65808860Y-95250000D03*
D29*
X55340000Y-130810000D03*
X51340000Y-130810000D03*
D14*
X54610000Y-114840000D03*
X54610000Y-118840000D03*
D30*
X82296000Y-100965000D03*
X82296000Y-98425000D03*
X82296000Y-95885000D03*
X76454000Y-100965000D03*
X76454000Y-98425000D03*
X76454000Y-95885000D03*
D31*
X59690000Y-103886000D03*
X52070000Y-101219000D03*
X51943000Y-102489000D03*
X81915000Y-128651000D03*
X70612000Y-112014000D03*
X52070000Y-105283000D03*
X58674000Y-106299000D03*
X81407000Y-111125000D03*
X58674000Y-113030000D03*
X64643000Y-115697000D03*
X72644000Y-95885000D03*
D32*
X53895000Y-101920000D02*
X52771000Y-101920000D01*
X59624000Y-103820000D02*
X56595000Y-103820000D01*
X59690000Y-103886000D02*
X59624000Y-103820000D01*
X52771000Y-101920000D02*
X52070000Y-101219000D01*
X56595000Y-103820000D02*
X56520000Y-103820000D01*
X56520000Y-103820000D02*
X53340000Y-107000000D01*
X53895000Y-102870000D02*
X52324000Y-102870000D01*
X52324000Y-102870000D02*
X51943000Y-102489000D01*
X46990000Y-130810000D02*
X51340000Y-130810000D01*
X56595000Y-102870000D02*
X53895000Y-102870000D01*
X47625000Y-130810000D02*
X46990000Y-130810000D01*
X56515000Y-99375000D02*
X56515000Y-101840000D01*
X56515000Y-101840000D02*
X56595000Y-101920000D01*
X53975000Y-99375000D02*
X56515000Y-99375000D01*
X82230000Y-117475000D02*
X82230000Y-128336000D01*
X82230000Y-128336000D02*
X81915000Y-128651000D01*
X70612000Y-112014000D02*
X70612000Y-112141000D01*
X70612000Y-116078000D02*
X70612000Y-116205000D01*
X72750000Y-117157500D02*
X72750000Y-117792500D01*
X58674000Y-106299000D02*
X64897000Y-106299000D01*
X71564500Y-117157500D02*
X72750000Y-117157500D01*
X70612000Y-116205000D02*
X71564500Y-117157500D01*
X70612000Y-112014000D02*
X70612000Y-112141000D01*
X70612000Y-112141000D02*
X70612000Y-116078000D01*
X64897000Y-106299000D02*
X70612000Y-112014000D01*
X60010000Y-114300000D02*
X60010000Y-107635000D01*
X52070000Y-105283000D02*
X53533000Y-103820000D01*
X60010000Y-107635000D02*
X58674000Y-106299000D01*
X53533000Y-103820000D02*
X53895000Y-103820000D01*
X50800000Y-90265000D02*
X50800000Y-102743000D01*
X51877000Y-103820000D02*
X53895000Y-103820000D01*
X50800000Y-102743000D02*
X51877000Y-103820000D01*
X46990000Y-90170000D02*
X50705000Y-90170000D01*
X50705000Y-90170000D02*
X50800000Y-90265000D01*
X72750000Y-118427500D02*
X73593704Y-118427500D01*
X74485500Y-116522500D02*
X72750000Y-116522500D01*
X74803000Y-116840000D02*
X74485500Y-116522500D01*
X74803000Y-117218204D02*
X74803000Y-116840000D01*
X73593704Y-118427500D02*
X74803000Y-117218204D01*
X66950000Y-121602500D02*
X66103500Y-121602500D01*
X61407000Y-124333000D02*
X60010000Y-125730000D01*
X63373000Y-124333000D02*
X61407000Y-124333000D01*
X66103500Y-121602500D02*
X63373000Y-124333000D01*
X72750000Y-118427500D02*
X71310500Y-118427500D01*
X71310500Y-118427500D02*
X69469000Y-120269000D01*
X66950000Y-121602500D02*
X68897500Y-121602500D01*
X69151500Y-119697500D02*
X66950000Y-119697500D01*
X69469000Y-120015000D02*
X69151500Y-119697500D01*
X69469000Y-121031000D02*
X69469000Y-120269000D01*
X69469000Y-120269000D02*
X69469000Y-120015000D01*
X68897500Y-121602500D02*
X69469000Y-121031000D01*
X53340000Y-108900000D02*
X53340000Y-111440000D01*
X53340000Y-111440000D02*
X53660000Y-111760000D01*
X55560000Y-111760000D02*
X55560000Y-113890000D01*
X55560000Y-113890000D02*
X54610000Y-114840000D01*
X66950000Y-117157500D02*
X66103500Y-117157500D01*
X58420000Y-112776000D02*
X58420000Y-111440000D01*
X58674000Y-113030000D02*
X58420000Y-112776000D01*
X66103500Y-117157500D02*
X64643000Y-115697000D01*
X55560000Y-111760000D02*
X58100000Y-111760000D01*
X58100000Y-111760000D02*
X58420000Y-111440000D01*
X54610000Y-118840000D02*
X58010000Y-118840000D01*
X58010000Y-118840000D02*
X60010000Y-116840000D01*
X59690000Y-120970000D02*
X59690000Y-119060000D01*
X59690000Y-119060000D02*
X61910000Y-116840000D01*
X61910000Y-116840000D02*
X62992000Y-116840000D01*
X64579500Y-118427500D02*
X66950000Y-118427500D01*
X62992000Y-116840000D02*
X64579500Y-118427500D01*
X59690000Y-122870000D02*
X63693000Y-122870000D01*
X65595500Y-120967500D02*
X66950000Y-120967500D01*
X63693000Y-122870000D02*
X65595500Y-120967500D01*
X60071000Y-98425000D02*
X58674000Y-98425000D01*
X57724000Y-97475000D02*
X56515000Y-97475000D01*
X58674000Y-98425000D02*
X57724000Y-97475000D01*
X61910000Y-114300000D02*
X61910000Y-114869000D01*
X64833500Y-117792500D02*
X66950000Y-117792500D01*
X61910000Y-114869000D02*
X64833500Y-117792500D01*
X61910000Y-114300000D02*
X61910000Y-111755000D01*
X61910000Y-111755000D02*
X61595000Y-111440000D01*
X62230000Y-119700000D02*
X63942000Y-119700000D01*
X64579500Y-119062500D02*
X66950000Y-119062500D01*
X63942000Y-119700000D02*
X64579500Y-119062500D01*
X62230000Y-121600000D02*
X64201000Y-121600000D01*
X65468500Y-120332500D02*
X66950000Y-120332500D01*
X64201000Y-121600000D02*
X65468500Y-120332500D01*
X66950000Y-116522500D02*
X66950000Y-113620000D01*
X66950000Y-113620000D02*
X64770000Y-111440000D01*
X61910000Y-125730000D02*
X63457500Y-125730000D01*
X63457500Y-125730000D02*
X66950000Y-122237500D01*
X46990000Y-102870000D02*
X47625000Y-102870000D01*
X47625000Y-102870000D02*
X50546000Y-105791000D01*
X50546000Y-105791000D02*
X50546000Y-120650000D01*
X50546000Y-120650000D02*
X57658000Y-127762000D01*
X57658000Y-127762000D02*
X59878000Y-127762000D01*
X59878000Y-127762000D02*
X61910000Y-125730000D01*
X72750000Y-122237500D02*
X74932500Y-122237500D01*
X74932500Y-122237500D02*
X77790000Y-125095000D01*
X72750000Y-121602500D02*
X76837500Y-121602500D01*
X76837500Y-121602500D02*
X77790000Y-122555000D01*
X77470000Y-117795000D02*
X80010000Y-117795000D01*
X80010000Y-117795000D02*
X80330000Y-117475000D01*
X72750000Y-120332500D02*
X73723500Y-120332500D01*
X76261000Y-117795000D02*
X77470000Y-117795000D01*
X73723500Y-120332500D02*
X76261000Y-117795000D01*
X84770000Y-106680000D02*
X84770000Y-109220000D01*
X79690000Y-106680000D02*
X82870000Y-106680000D01*
X79690000Y-106680000D02*
X79690000Y-109220000D01*
X84770000Y-114935000D02*
X84770000Y-112395000D01*
X79690000Y-114935000D02*
X82870000Y-114935000D01*
X79690000Y-112395000D02*
X79690000Y-114935000D01*
X66040000Y-99060000D02*
X62484000Y-99060000D01*
X62484000Y-99060000D02*
X61849000Y-98425000D01*
X65808860Y-95250000D02*
X65808860Y-98828860D01*
X65808860Y-98828860D02*
X66040000Y-99060000D01*
X65808860Y-95250000D02*
X65024000Y-95250000D01*
X55432960Y-94211140D02*
X56111140Y-94211140D01*
X56111140Y-94211140D02*
X57150000Y-95250000D01*
X57150000Y-95250000D02*
X65808860Y-95250000D01*
X77790000Y-109220000D02*
X77790000Y-106680000D01*
X72750000Y-119062500D02*
X73595102Y-119062500D01*
X75819000Y-111191000D02*
X77790000Y-109220000D01*
X75819000Y-116838602D02*
X75819000Y-111191000D01*
X73595102Y-119062500D02*
X75819000Y-116838602D01*
X77790000Y-114935000D02*
X77790000Y-112395000D01*
X72750000Y-119697500D02*
X73596500Y-119697500D01*
X77790000Y-115504000D02*
X77790000Y-114935000D01*
X73596500Y-119697500D02*
X77790000Y-115504000D01*
X59690000Y-90170000D02*
X58420000Y-88900000D01*
X62230000Y-90170000D02*
X59690000Y-90170000D01*
X63500000Y-91440000D02*
X62230000Y-90170000D01*
X67310000Y-91440000D02*
X63500000Y-91440000D01*
X68580000Y-88900000D02*
X68580000Y-90170000D01*
X68580000Y-90170000D02*
X67310000Y-91440000D01*
X58420000Y-88900000D02*
X58420000Y-86360000D01*
X55432960Y-91208860D02*
X56111140Y-91208860D01*
X56111140Y-91208860D02*
X58420000Y-88900000D01*
X58420000Y-88900000D02*
X58420000Y-86360000D01*
X58420000Y-86360000D02*
X58420000Y-88265000D01*
X76454000Y-95885000D02*
X72644000Y-95885000D01*
X82870000Y-109220000D02*
X82870000Y-109794000D01*
X84709000Y-100965000D02*
X82296000Y-100965000D01*
X86360000Y-102616000D02*
X84709000Y-100965000D01*
X86360000Y-110109000D02*
X86360000Y-102616000D01*
X85979000Y-110490000D02*
X86360000Y-110109000D01*
X83566000Y-110490000D02*
X85979000Y-110490000D01*
X82870000Y-109794000D02*
X83566000Y-110490000D01*
X82870000Y-112395000D02*
X82870000Y-112202000D01*
X82870000Y-112202000D02*
X83820000Y-111252000D01*
X83820000Y-111252000D02*
X86868000Y-111252000D01*
X86868000Y-111252000D02*
X88138000Y-109982000D01*
X88138000Y-109982000D02*
X88138000Y-97282000D01*
X88138000Y-97282000D02*
X86741000Y-95885000D01*
X86741000Y-95885000D02*
X82296000Y-95885000D01*
X69850000Y-133350000D02*
X69850000Y-122428000D01*
X71310500Y-120967500D02*
X72750000Y-120967500D01*
X69850000Y-122428000D02*
X71310500Y-120967500D01*
X55432960Y-92710000D02*
X59385200Y-92710000D01*
D33*
G36*
X52641500Y-86074250D02*
X52800250Y-86233000D01*
X54038500Y-86233000D01*
X54038500Y-86213000D01*
X54292500Y-86213000D01*
X54292500Y-86233000D01*
X55530750Y-86233000D01*
X55689500Y-86074250D01*
X55689500Y-84530000D01*
X57137560Y-84530000D01*
X57137560Y-88900000D01*
X57170443Y-89074755D01*
X56184158Y-90061040D01*
X54182010Y-90061040D01*
X53946693Y-90105318D01*
X53730569Y-90244390D01*
X53585579Y-90456590D01*
X53534570Y-90708480D01*
X53534570Y-91709240D01*
X53578848Y-91944557D01*
X53586478Y-91956414D01*
X53585579Y-91957730D01*
X53534570Y-92209620D01*
X53534570Y-93210380D01*
X53578848Y-93445697D01*
X53586478Y-93457554D01*
X53585579Y-93458870D01*
X53534570Y-93710760D01*
X53534570Y-94711520D01*
X53578848Y-94946837D01*
X53717920Y-95162961D01*
X53930120Y-95307951D01*
X54182010Y-95358960D01*
X56184158Y-95358960D01*
X56612599Y-95787401D01*
X56859161Y-95952148D01*
X57150000Y-96010000D01*
X64385467Y-96010000D01*
X64444340Y-96101491D01*
X64656540Y-96246481D01*
X64908430Y-96297490D01*
X65048860Y-96297490D01*
X65048860Y-97739187D01*
X64654722Y-98132637D01*
X64585227Y-98300000D01*
X63131440Y-98300000D01*
X63131440Y-97790000D01*
X63087162Y-97554683D01*
X62948090Y-97338559D01*
X62735890Y-97193569D01*
X62484000Y-97142560D01*
X61214000Y-97142560D01*
X60978683Y-97186838D01*
X60962901Y-97196993D01*
X60957890Y-97193569D01*
X60706000Y-97142560D01*
X59436000Y-97142560D01*
X59200683Y-97186838D01*
X58984559Y-97325910D01*
X58848638Y-97524836D01*
X58261401Y-96937599D01*
X58014839Y-96772852D01*
X57724000Y-96715000D01*
X57507334Y-96715000D01*
X57493162Y-96639683D01*
X57354090Y-96423559D01*
X57141890Y-96278569D01*
X56890000Y-96227560D01*
X56140000Y-96227560D01*
X55904683Y-96271838D01*
X55688559Y-96410910D01*
X55543569Y-96623110D01*
X55492560Y-96875000D01*
X55492560Y-98075000D01*
X55536838Y-98310317D01*
X55610620Y-98424978D01*
X55543569Y-98523110D01*
X55524961Y-98615000D01*
X54967334Y-98615000D01*
X54953162Y-98539683D01*
X54886671Y-98436354D01*
X54888327Y-98434698D01*
X54985000Y-98201309D01*
X54985000Y-97760750D01*
X54826250Y-97602000D01*
X54102000Y-97602000D01*
X54102000Y-97622000D01*
X53848000Y-97622000D01*
X53848000Y-97602000D01*
X53123750Y-97602000D01*
X52965000Y-97760750D01*
X52965000Y-98201309D01*
X53061673Y-98434698D01*
X53063043Y-98436068D01*
X53003569Y-98523110D01*
X52952560Y-98775000D01*
X52952560Y-99975000D01*
X52996838Y-100210317D01*
X53135910Y-100426441D01*
X53348110Y-100571431D01*
X53600000Y-100622440D01*
X54350000Y-100622440D01*
X54585317Y-100578162D01*
X54801441Y-100439090D01*
X54946431Y-100226890D01*
X54965039Y-100135000D01*
X55522666Y-100135000D01*
X55536838Y-100210317D01*
X55675910Y-100426441D01*
X55755000Y-100480481D01*
X55755000Y-100958850D01*
X55579683Y-100991838D01*
X55363559Y-101130910D01*
X55243767Y-101306232D01*
X55139090Y-101143559D01*
X54926890Y-100998569D01*
X54675000Y-100947560D01*
X53115000Y-100947560D01*
X52980010Y-100972960D01*
X52863117Y-100690057D01*
X52600327Y-100426808D01*
X52256799Y-100284162D01*
X51884833Y-100283838D01*
X51560000Y-100418056D01*
X51560000Y-96748691D01*
X52965000Y-96748691D01*
X52965000Y-97189250D01*
X53123750Y-97348000D01*
X53848000Y-97348000D01*
X53848000Y-96398750D01*
X54102000Y-96398750D01*
X54102000Y-97348000D01*
X54826250Y-97348000D01*
X54985000Y-97189250D01*
X54985000Y-96748691D01*
X54888327Y-96515302D01*
X54709699Y-96336673D01*
X54476310Y-96240000D01*
X54260750Y-96240000D01*
X54102000Y-96398750D01*
X53848000Y-96398750D01*
X53689250Y-96240000D01*
X53473690Y-96240000D01*
X53240301Y-96336673D01*
X53061673Y-96515302D01*
X52965000Y-96748691D01*
X51560000Y-96748691D01*
X51560000Y-91912440D01*
X51600000Y-91912440D01*
X51835317Y-91868162D01*
X52051441Y-91729090D01*
X52196431Y-91516890D01*
X52247440Y-91265000D01*
X52247440Y-89265000D01*
X52203162Y-89029683D01*
X52064090Y-88813559D01*
X51851890Y-88668569D01*
X51600000Y-88617560D01*
X50000000Y-88617560D01*
X49764683Y-88661838D01*
X49548559Y-88800910D01*
X49403569Y-89013110D01*
X49352560Y-89265000D01*
X49352560Y-89410000D01*
X48434648Y-89410000D01*
X48234415Y-89110330D01*
X48212220Y-89095500D01*
X48365699Y-89031927D01*
X48544327Y-88853298D01*
X48641000Y-88619909D01*
X48641000Y-87915750D01*
X48482250Y-87757000D01*
X47117000Y-87757000D01*
X47117000Y-87777000D01*
X46863000Y-87777000D01*
X46863000Y-87757000D01*
X45497750Y-87757000D01*
X45339000Y-87915750D01*
X45339000Y-88619909D01*
X45435673Y-88853298D01*
X45614301Y-89031927D01*
X45767780Y-89095500D01*
X45745585Y-89110330D01*
X45420729Y-89596511D01*
X45306655Y-90170000D01*
X45420729Y-90743489D01*
X45745585Y-91229670D01*
X46060366Y-91440000D01*
X45745585Y-91650330D01*
X45420729Y-92136511D01*
X45306655Y-92710000D01*
X45420729Y-93283489D01*
X45745585Y-93769670D01*
X46060366Y-93980000D01*
X45745585Y-94190330D01*
X45420729Y-94676511D01*
X45306655Y-95250000D01*
X45420729Y-95823489D01*
X45745585Y-96309670D01*
X46060366Y-96520000D01*
X45745585Y-96730330D01*
X45420729Y-97216511D01*
X45306655Y-97790000D01*
X45420729Y-98363489D01*
X45745585Y-98849670D01*
X46060366Y-99060000D01*
X45745585Y-99270330D01*
X45420729Y-99756511D01*
X45306655Y-100330000D01*
X45420729Y-100903489D01*
X45745585Y-101389670D01*
X46060366Y-101600000D01*
X45745585Y-101810330D01*
X45420729Y-102296511D01*
X45306655Y-102870000D01*
X45420729Y-103443489D01*
X45745585Y-103929670D01*
X46060366Y-104140000D01*
X45745585Y-104350330D01*
X45420729Y-104836511D01*
X45306655Y-105410000D01*
X45420729Y-105983489D01*
X45745585Y-106469670D01*
X46060366Y-106680000D01*
X45745585Y-106890330D01*
X45420729Y-107376511D01*
X45306655Y-107950000D01*
X45420729Y-108523489D01*
X45745585Y-109009670D01*
X46060366Y-109220000D01*
X45745585Y-109430330D01*
X45420729Y-109916511D01*
X45306655Y-110490000D01*
X45420729Y-111063489D01*
X45745585Y-111549670D01*
X46060366Y-111760000D01*
X45745585Y-111970330D01*
X45420729Y-112456511D01*
X45306655Y-113030000D01*
X45420729Y-113603489D01*
X45745585Y-114089670D01*
X46060366Y-114300000D01*
X45745585Y-114510330D01*
X45420729Y-114996511D01*
X45306655Y-115570000D01*
X45420729Y-116143489D01*
X45745585Y-116629670D01*
X46060366Y-116840000D01*
X45745585Y-117050330D01*
X45420729Y-117536511D01*
X45306655Y-118110000D01*
X45420729Y-118683489D01*
X45745585Y-119169670D01*
X46060366Y-119380000D01*
X45745585Y-119590330D01*
X45420729Y-120076511D01*
X45306655Y-120650000D01*
X45420729Y-121223489D01*
X45745585Y-121709670D01*
X46060366Y-121920000D01*
X45745585Y-122130330D01*
X45420729Y-122616511D01*
X45306655Y-123190000D01*
X45420729Y-123763489D01*
X45745585Y-124249670D01*
X46060366Y-124460000D01*
X45745585Y-124670330D01*
X45420729Y-125156511D01*
X45306655Y-125730000D01*
X45420729Y-126303489D01*
X45745585Y-126789670D01*
X46060366Y-127000000D01*
X45745585Y-127210330D01*
X45420729Y-127696511D01*
X45306655Y-128270000D01*
X45420729Y-128843489D01*
X45745585Y-129329670D01*
X46060366Y-129540000D01*
X45745585Y-129750330D01*
X45420729Y-130236511D01*
X45306655Y-130810000D01*
X45420729Y-131383489D01*
X45745585Y-131869670D01*
X46060366Y-132080000D01*
X45745585Y-132290330D01*
X45420729Y-132776511D01*
X45306655Y-133350000D01*
X45420729Y-133923489D01*
X45745585Y-134409670D01*
X46231766Y-134734526D01*
X46805255Y-134848600D01*
X47174745Y-134848600D01*
X47748234Y-134734526D01*
X48234415Y-134409670D01*
X48559271Y-133923489D01*
X48673345Y-133350000D01*
X48559271Y-132776511D01*
X48234415Y-132290330D01*
X47919634Y-132080000D01*
X48234415Y-131869670D01*
X48434648Y-131570000D01*
X49692560Y-131570000D01*
X49692560Y-131610000D01*
X49736838Y-131845317D01*
X49875910Y-132061441D01*
X50088110Y-132206431D01*
X50340000Y-132257440D01*
X52340000Y-132257440D01*
X52575317Y-132213162D01*
X52791441Y-132074090D01*
X52936431Y-131861890D01*
X52987440Y-131610000D01*
X52987440Y-131095750D01*
X53705000Y-131095750D01*
X53705000Y-131736310D01*
X53801673Y-131969699D01*
X53980302Y-132148327D01*
X54213691Y-132245000D01*
X55054250Y-132245000D01*
X55213000Y-132086250D01*
X55213000Y-130937000D01*
X55467000Y-130937000D01*
X55467000Y-132086250D01*
X55625750Y-132245000D01*
X56466309Y-132245000D01*
X56699698Y-132148327D01*
X56878327Y-131969699D01*
X56975000Y-131736310D01*
X56975000Y-131095750D01*
X56816250Y-130937000D01*
X55467000Y-130937000D01*
X55213000Y-130937000D01*
X53863750Y-130937000D01*
X53705000Y-131095750D01*
X52987440Y-131095750D01*
X52987440Y-130010000D01*
X52963674Y-129883690D01*
X53705000Y-129883690D01*
X53705000Y-130524250D01*
X53863750Y-130683000D01*
X55213000Y-130683000D01*
X55213000Y-129533750D01*
X55467000Y-129533750D01*
X55467000Y-130683000D01*
X56816250Y-130683000D01*
X56975000Y-130524250D01*
X56975000Y-129883690D01*
X56878327Y-129650301D01*
X56699698Y-129471673D01*
X56466309Y-129375000D01*
X55625750Y-129375000D01*
X55467000Y-129533750D01*
X55213000Y-129533750D01*
X55054250Y-129375000D01*
X54213691Y-129375000D01*
X53980302Y-129471673D01*
X53801673Y-129650301D01*
X53705000Y-129883690D01*
X52963674Y-129883690D01*
X52943162Y-129774683D01*
X52804090Y-129558559D01*
X52591890Y-129413569D01*
X52340000Y-129362560D01*
X50340000Y-129362560D01*
X50104683Y-129406838D01*
X49888559Y-129545910D01*
X49743569Y-129758110D01*
X49692560Y-130010000D01*
X49692560Y-130050000D01*
X48434648Y-130050000D01*
X48234415Y-129750330D01*
X47919634Y-129540000D01*
X48234415Y-129329670D01*
X48559271Y-128843489D01*
X48673345Y-128270000D01*
X48559271Y-127696511D01*
X48234415Y-127210330D01*
X47919634Y-127000000D01*
X48234415Y-126789670D01*
X48559271Y-126303489D01*
X48673345Y-125730000D01*
X48559271Y-125156511D01*
X48234415Y-124670330D01*
X47919634Y-124460000D01*
X48234415Y-124249670D01*
X48559271Y-123763489D01*
X48673345Y-123190000D01*
X48559271Y-122616511D01*
X48234415Y-122130330D01*
X47919634Y-121920000D01*
X48234415Y-121709670D01*
X48559271Y-121223489D01*
X48673345Y-120650000D01*
X48559271Y-120076511D01*
X48234415Y-119590330D01*
X47919634Y-119380000D01*
X48234415Y-119169670D01*
X48559271Y-118683489D01*
X48673345Y-118110000D01*
X48559271Y-117536511D01*
X48234415Y-117050330D01*
X47919634Y-116840000D01*
X48234415Y-116629670D01*
X48559271Y-116143489D01*
X48673345Y-115570000D01*
X48559271Y-114996511D01*
X48234415Y-114510330D01*
X47919634Y-114300000D01*
X48234415Y-114089670D01*
X48559271Y-113603489D01*
X48673345Y-113030000D01*
X48559271Y-112456511D01*
X48234415Y-111970330D01*
X47919634Y-111760000D01*
X48234415Y-111549670D01*
X48559271Y-111063489D01*
X48673345Y-110490000D01*
X48559271Y-109916511D01*
X48234415Y-109430330D01*
X47919634Y-109220000D01*
X48234415Y-109009670D01*
X48559271Y-108523489D01*
X48673345Y-107950000D01*
X48559271Y-107376511D01*
X48234415Y-106890330D01*
X47919634Y-106680000D01*
X48234415Y-106469670D01*
X48559271Y-105983489D01*
X48673345Y-105410000D01*
X48569839Y-104889641D01*
X49786000Y-106105802D01*
X49786000Y-120650000D01*
X49843852Y-120940839D01*
X50008599Y-121187401D01*
X57120599Y-128299401D01*
X57367161Y-128464148D01*
X57658000Y-128522000D01*
X59878000Y-128522000D01*
X60168839Y-128464148D01*
X60415401Y-128299401D01*
X61962362Y-126752440D01*
X62510000Y-126752440D01*
X62745317Y-126708162D01*
X62961441Y-126569090D01*
X63015481Y-126490000D01*
X63457500Y-126490000D01*
X63748339Y-126432148D01*
X63994901Y-126267401D01*
X67177362Y-123084940D01*
X67700000Y-123084940D01*
X67935317Y-123040662D01*
X68151441Y-122901590D01*
X68296431Y-122689390D01*
X68347440Y-122437500D01*
X68347440Y-122037500D01*
X68329491Y-121942110D01*
X68335000Y-121928810D01*
X68335000Y-121861250D01*
X68309473Y-121835723D01*
X68303162Y-121802183D01*
X68173044Y-121599973D01*
X68296431Y-121419390D01*
X68305844Y-121372906D01*
X68335000Y-121343750D01*
X68335000Y-121276190D01*
X68328572Y-121260672D01*
X68347440Y-121167500D01*
X68347440Y-120767500D01*
X68324519Y-120645686D01*
X68347440Y-120532500D01*
X68347440Y-120132500D01*
X68329491Y-120037110D01*
X68335000Y-120023810D01*
X68335000Y-119956250D01*
X68309473Y-119930723D01*
X68303162Y-119897183D01*
X68173044Y-119694973D01*
X68296431Y-119514390D01*
X68305844Y-119467906D01*
X68335000Y-119438750D01*
X68335000Y-119371190D01*
X68328572Y-119355672D01*
X68347440Y-119262500D01*
X68347440Y-118862500D01*
X68324519Y-118740686D01*
X68347440Y-118627500D01*
X68347440Y-118227500D01*
X68324519Y-118105686D01*
X68347440Y-117992500D01*
X68347440Y-117592500D01*
X68324519Y-117470686D01*
X68347440Y-117357500D01*
X68347440Y-116957500D01*
X68324519Y-116835686D01*
X68347440Y-116722500D01*
X68347440Y-116322500D01*
X68303162Y-116087183D01*
X68164090Y-115871059D01*
X67951890Y-115726069D01*
X67710000Y-115677085D01*
X67710000Y-113620000D01*
X67652148Y-113329161D01*
X67487401Y-113082599D01*
X65792440Y-111387638D01*
X65792440Y-110840000D01*
X65748162Y-110604683D01*
X65681671Y-110501354D01*
X65683327Y-110499698D01*
X65780000Y-110266309D01*
X65780000Y-109825750D01*
X65621250Y-109667000D01*
X64897000Y-109667000D01*
X64897000Y-109687000D01*
X64643000Y-109687000D01*
X64643000Y-109667000D01*
X63918750Y-109667000D01*
X63760000Y-109825750D01*
X63760000Y-110266309D01*
X63856673Y-110499698D01*
X63858043Y-110501068D01*
X63798569Y-110588110D01*
X63747560Y-110840000D01*
X63747560Y-112040000D01*
X63791838Y-112275317D01*
X63930910Y-112491441D01*
X64143110Y-112636431D01*
X64395000Y-112687440D01*
X64942638Y-112687440D01*
X66190000Y-113934802D01*
X66190000Y-115676942D01*
X65964683Y-115719338D01*
X65828057Y-115807255D01*
X65578122Y-115557320D01*
X65578162Y-115511833D01*
X65436117Y-115168057D01*
X65173327Y-114904808D01*
X64829799Y-114762162D01*
X64457833Y-114761838D01*
X64114057Y-114903883D01*
X63850808Y-115166673D01*
X63708162Y-115510201D01*
X63708090Y-115592288D01*
X63080558Y-114964756D01*
X63106431Y-114926890D01*
X63157440Y-114675000D01*
X63157440Y-113925000D01*
X63113162Y-113689683D01*
X62974090Y-113473559D01*
X62761890Y-113328569D01*
X62670000Y-113309961D01*
X62670000Y-111755000D01*
X62625523Y-111531400D01*
X62617440Y-111490765D01*
X62617440Y-110840000D01*
X62573162Y-110604683D01*
X62506671Y-110501354D01*
X62508327Y-110499698D01*
X62605000Y-110266309D01*
X62605000Y-109825750D01*
X62446250Y-109667000D01*
X61722000Y-109667000D01*
X61722000Y-109687000D01*
X61468000Y-109687000D01*
X61468000Y-109667000D01*
X61448000Y-109667000D01*
X61448000Y-109413000D01*
X61468000Y-109413000D01*
X61468000Y-108463750D01*
X61722000Y-108463750D01*
X61722000Y-109413000D01*
X62446250Y-109413000D01*
X62605000Y-109254250D01*
X62605000Y-108813691D01*
X63760000Y-108813691D01*
X63760000Y-109254250D01*
X63918750Y-109413000D01*
X64643000Y-109413000D01*
X64643000Y-108463750D01*
X64897000Y-108463750D01*
X64897000Y-109413000D01*
X65621250Y-109413000D01*
X65780000Y-109254250D01*
X65780000Y-108813691D01*
X65683327Y-108580302D01*
X65504699Y-108401673D01*
X65271310Y-108305000D01*
X65055750Y-108305000D01*
X64897000Y-108463750D01*
X64643000Y-108463750D01*
X64484250Y-108305000D01*
X64268690Y-108305000D01*
X64035301Y-108401673D01*
X63856673Y-108580302D01*
X63760000Y-108813691D01*
X62605000Y-108813691D01*
X62508327Y-108580302D01*
X62329699Y-108401673D01*
X62096310Y-108305000D01*
X61880750Y-108305000D01*
X61722000Y-108463750D01*
X61468000Y-108463750D01*
X61309250Y-108305000D01*
X61093690Y-108305000D01*
X60860301Y-108401673D01*
X60770000Y-108491975D01*
X60770000Y-107635000D01*
X60712148Y-107344161D01*
X60712148Y-107344160D01*
X60547401Y-107097599D01*
X60508802Y-107059000D01*
X64582198Y-107059000D01*
X69676878Y-112153681D01*
X69676838Y-112199167D01*
X69818883Y-112542943D01*
X69852000Y-112576118D01*
X69852000Y-116205000D01*
X69909852Y-116495839D01*
X70074599Y-116742401D01*
X71027099Y-117694901D01*
X71273660Y-117859648D01*
X71321914Y-117869246D01*
X71352560Y-117875342D01*
X71352560Y-117992500D01*
X71370509Y-118087890D01*
X71365000Y-118101190D01*
X71365000Y-118168750D01*
X71390527Y-118194277D01*
X71396838Y-118227817D01*
X71526956Y-118430027D01*
X71403569Y-118610610D01*
X71394156Y-118657094D01*
X71365000Y-118686250D01*
X71365000Y-118753810D01*
X71371428Y-118769328D01*
X71352560Y-118862500D01*
X71352560Y-119262500D01*
X71375481Y-119384314D01*
X71352560Y-119497500D01*
X71352560Y-119897500D01*
X71375481Y-120019314D01*
X71352560Y-120132500D01*
X71352560Y-120207500D01*
X71310500Y-120207500D01*
X71019661Y-120265352D01*
X70773099Y-120430099D01*
X69312599Y-121890599D01*
X69147852Y-122137161D01*
X69090000Y-122428000D01*
X69090000Y-132224464D01*
X68720173Y-132593647D01*
X68655940Y-132748337D01*
X68655940Y-132651500D01*
X68611662Y-132416183D01*
X68472590Y-132200059D01*
X68260390Y-132055069D01*
X68008500Y-132004060D01*
X66611500Y-132004060D01*
X66376183Y-132048338D01*
X66160059Y-132187410D01*
X66015069Y-132399610D01*
X65964060Y-132651500D01*
X65964060Y-134048500D01*
X66008338Y-134283817D01*
X66147410Y-134499941D01*
X66359610Y-134644931D01*
X66611500Y-134695940D01*
X68008500Y-134695940D01*
X68243817Y-134651662D01*
X68459941Y-134512590D01*
X68604931Y-134300390D01*
X68655940Y-134048500D01*
X68655940Y-133952116D01*
X68718854Y-134104380D01*
X69093647Y-134479827D01*
X69583587Y-134683268D01*
X70114086Y-134683731D01*
X70604380Y-134481146D01*
X70801681Y-134284188D01*
X71635417Y-134284188D01*
X71697071Y-134519800D01*
X72197480Y-134695927D01*
X72727199Y-134667148D01*
X73082929Y-134519800D01*
X73144583Y-134284188D01*
X72390000Y-133529605D01*
X71635417Y-134284188D01*
X70801681Y-134284188D01*
X70979827Y-134106353D01*
X71113314Y-133784882D01*
X71220200Y-134042929D01*
X71455812Y-134104583D01*
X72210395Y-133350000D01*
X72569605Y-133350000D01*
X73324188Y-134104583D01*
X73559800Y-134042929D01*
X73735927Y-133542520D01*
X73707148Y-133012801D01*
X73559800Y-132657071D01*
X73324188Y-132595417D01*
X72569605Y-133350000D01*
X72210395Y-133350000D01*
X71455812Y-132595417D01*
X71220200Y-132657071D01*
X71121917Y-132936312D01*
X70981146Y-132595620D01*
X70801652Y-132415812D01*
X71635417Y-132415812D01*
X72390000Y-133170395D01*
X73144583Y-132415812D01*
X73082929Y-132180200D01*
X72582520Y-132004073D01*
X72052801Y-132032852D01*
X71697071Y-132180200D01*
X71635417Y-132415812D01*
X70801652Y-132415812D01*
X70610000Y-132223826D01*
X70610000Y-122742802D01*
X71362021Y-121990781D01*
X71352560Y-122037500D01*
X71352560Y-122437500D01*
X71396838Y-122672817D01*
X71535910Y-122888941D01*
X71748110Y-123033931D01*
X72000000Y-123084940D01*
X73500000Y-123084940D01*
X73735317Y-123040662D01*
X73802393Y-122997500D01*
X74617698Y-122997500D01*
X76542560Y-124922362D01*
X76542560Y-125470000D01*
X76586838Y-125705317D01*
X76725910Y-125921441D01*
X76938110Y-126066431D01*
X77190000Y-126117440D01*
X78390000Y-126117440D01*
X78625317Y-126073162D01*
X78728646Y-126006671D01*
X78730302Y-126008327D01*
X78963691Y-126105000D01*
X79404250Y-126105000D01*
X79563000Y-125946250D01*
X79563000Y-125222000D01*
X79817000Y-125222000D01*
X79817000Y-125946250D01*
X79975750Y-126105000D01*
X80416309Y-126105000D01*
X80649698Y-126008327D01*
X80828327Y-125829699D01*
X80925000Y-125596310D01*
X80925000Y-125380750D01*
X80766250Y-125222000D01*
X79817000Y-125222000D01*
X79563000Y-125222000D01*
X79543000Y-125222000D01*
X79543000Y-124968000D01*
X79563000Y-124968000D01*
X79563000Y-124243750D01*
X79817000Y-124243750D01*
X79817000Y-124968000D01*
X80766250Y-124968000D01*
X80925000Y-124809250D01*
X80925000Y-124593690D01*
X80828327Y-124360301D01*
X80649698Y-124181673D01*
X80416309Y-124085000D01*
X79975750Y-124085000D01*
X79817000Y-124243750D01*
X79563000Y-124243750D01*
X79404250Y-124085000D01*
X78963691Y-124085000D01*
X78730302Y-124181673D01*
X78728932Y-124183043D01*
X78641890Y-124123569D01*
X78390000Y-124072560D01*
X77842362Y-124072560D01*
X77347242Y-123577440D01*
X78390000Y-123577440D01*
X78625317Y-123533162D01*
X78728646Y-123466671D01*
X78730302Y-123468327D01*
X78963691Y-123565000D01*
X79404250Y-123565000D01*
X79563000Y-123406250D01*
X79563000Y-122682000D01*
X79817000Y-122682000D01*
X79817000Y-123406250D01*
X79975750Y-123565000D01*
X80416309Y-123565000D01*
X80649698Y-123468327D01*
X80828327Y-123289699D01*
X80925000Y-123056310D01*
X80925000Y-122840750D01*
X80766250Y-122682000D01*
X79817000Y-122682000D01*
X79563000Y-122682000D01*
X79543000Y-122682000D01*
X79543000Y-122428000D01*
X79563000Y-122428000D01*
X79563000Y-121703750D01*
X79817000Y-121703750D01*
X79817000Y-122428000D01*
X80766250Y-122428000D01*
X80925000Y-122269250D01*
X80925000Y-122053690D01*
X80828327Y-121820301D01*
X80649698Y-121641673D01*
X80416309Y-121545000D01*
X79975750Y-121545000D01*
X79817000Y-121703750D01*
X79563000Y-121703750D01*
X79404250Y-121545000D01*
X78963691Y-121545000D01*
X78730302Y-121641673D01*
X78728932Y-121643043D01*
X78641890Y-121583569D01*
X78390000Y-121532560D01*
X77842362Y-121532560D01*
X77374901Y-121065099D01*
X77172710Y-120930000D01*
X77184250Y-120930000D01*
X77343000Y-120771250D01*
X77343000Y-119822000D01*
X77597000Y-119822000D01*
X77597000Y-120771250D01*
X77755750Y-120930000D01*
X77971310Y-120930000D01*
X78204699Y-120833327D01*
X78383327Y-120654698D01*
X78480000Y-120421309D01*
X78480000Y-119980750D01*
X78321250Y-119822000D01*
X77597000Y-119822000D01*
X77343000Y-119822000D01*
X76618750Y-119822000D01*
X76460000Y-119980750D01*
X76460000Y-120421309D01*
X76556673Y-120654698D01*
X76735301Y-120833327D01*
X76757447Y-120842500D01*
X74288302Y-120842500D01*
X76495224Y-118635578D01*
X76558329Y-118733646D01*
X76556673Y-118735302D01*
X76460000Y-118968691D01*
X76460000Y-119409250D01*
X76618750Y-119568000D01*
X77343000Y-119568000D01*
X77343000Y-119548000D01*
X77597000Y-119548000D01*
X77597000Y-119568000D01*
X78321250Y-119568000D01*
X78480000Y-119409250D01*
X78480000Y-118968691D01*
X78383327Y-118735302D01*
X78381957Y-118733932D01*
X78441431Y-118646890D01*
X78460039Y-118555000D01*
X80010000Y-118555000D01*
X80299371Y-118497440D01*
X80930000Y-118497440D01*
X81165317Y-118453162D01*
X81279978Y-118379380D01*
X81378110Y-118446431D01*
X81470000Y-118465039D01*
X81470000Y-127823199D01*
X81386057Y-127857883D01*
X81122808Y-128120673D01*
X80980162Y-128464201D01*
X80979838Y-128836167D01*
X81121883Y-129179943D01*
X81384673Y-129443192D01*
X81728201Y-129585838D01*
X82100167Y-129586162D01*
X82443943Y-129444117D01*
X82707192Y-129181327D01*
X82849838Y-128837799D01*
X82849915Y-128749911D01*
X82932148Y-128626840D01*
X82990000Y-128336000D01*
X82990000Y-118467334D01*
X83065317Y-118453162D01*
X83281441Y-118314090D01*
X83426431Y-118101890D01*
X83477440Y-117850000D01*
X83477440Y-117100000D01*
X83433162Y-116864683D01*
X83294090Y-116648559D01*
X83081890Y-116503569D01*
X82830000Y-116452560D01*
X81630000Y-116452560D01*
X81394683Y-116496838D01*
X81280022Y-116570620D01*
X81181890Y-116503569D01*
X80930000Y-116452560D01*
X79730000Y-116452560D01*
X79494683Y-116496838D01*
X79278559Y-116635910D01*
X79133569Y-116848110D01*
X79095723Y-117035000D01*
X78462334Y-117035000D01*
X78448162Y-116959683D01*
X78309090Y-116743559D01*
X78096890Y-116598569D01*
X77845000Y-116547560D01*
X77821242Y-116547560D01*
X78327401Y-116041401D01*
X78383502Y-115957440D01*
X78390000Y-115957440D01*
X78625317Y-115913162D01*
X78739978Y-115839380D01*
X78838110Y-115906431D01*
X79090000Y-115957440D01*
X80290000Y-115957440D01*
X80525317Y-115913162D01*
X80741441Y-115774090D01*
X80795481Y-115695000D01*
X81763156Y-115695000D01*
X81805910Y-115761441D01*
X82018110Y-115906431D01*
X82270000Y-115957440D01*
X83470000Y-115957440D01*
X83705317Y-115913162D01*
X83819978Y-115839380D01*
X83918110Y-115906431D01*
X84170000Y-115957440D01*
X85370000Y-115957440D01*
X85605317Y-115913162D01*
X85821441Y-115774090D01*
X85966431Y-115561890D01*
X86017440Y-115310000D01*
X86017440Y-114560000D01*
X85973162Y-114324683D01*
X85834090Y-114108559D01*
X85621890Y-113963569D01*
X85530000Y-113944961D01*
X85530000Y-113387334D01*
X85605317Y-113373162D01*
X85821441Y-113234090D01*
X85966431Y-113021890D01*
X86017440Y-112770000D01*
X86017440Y-112020000D01*
X86015935Y-112012000D01*
X86868000Y-112012000D01*
X87158839Y-111954148D01*
X87405401Y-111789401D01*
X88675401Y-110519401D01*
X88840148Y-110272840D01*
X88898000Y-109982000D01*
X88898000Y-97282000D01*
X88879071Y-97186838D01*
X88840148Y-96991160D01*
X88675401Y-96744599D01*
X87278401Y-95347599D01*
X87031839Y-95182852D01*
X86741000Y-95125000D01*
X84824920Y-95125000D01*
X84804162Y-95014683D01*
X84665090Y-94798559D01*
X84452890Y-94653569D01*
X84201000Y-94602560D01*
X80391000Y-94602560D01*
X80155683Y-94646838D01*
X79939559Y-94785910D01*
X79794569Y-94998110D01*
X79743560Y-95250000D01*
X79743560Y-96520000D01*
X79787838Y-96755317D01*
X79926910Y-96971441D01*
X80139110Y-97116431D01*
X80329569Y-97155000D01*
X80264691Y-97155000D01*
X80031302Y-97251673D01*
X79852673Y-97430301D01*
X79756000Y-97663690D01*
X79756000Y-98139250D01*
X79914750Y-98298000D01*
X82169000Y-98298000D01*
X82169000Y-98278000D01*
X82423000Y-98278000D01*
X82423000Y-98298000D01*
X84677250Y-98298000D01*
X84836000Y-98139250D01*
X84836000Y-97663690D01*
X84739327Y-97430301D01*
X84560698Y-97251673D01*
X84327309Y-97155000D01*
X84267113Y-97155000D01*
X84436317Y-97123162D01*
X84652441Y-96984090D01*
X84797431Y-96771890D01*
X84823127Y-96645000D01*
X86426198Y-96645000D01*
X87378000Y-97596802D01*
X87378000Y-109667198D01*
X87120000Y-109925198D01*
X87120000Y-102616000D01*
X87062148Y-102325161D01*
X86897401Y-102078599D01*
X85246401Y-100427599D01*
X84999839Y-100262852D01*
X84829427Y-100228955D01*
X84804162Y-100094683D01*
X84665090Y-99878559D01*
X84452890Y-99733569D01*
X84262431Y-99695000D01*
X84327309Y-99695000D01*
X84560698Y-99598327D01*
X84739327Y-99419699D01*
X84836000Y-99186310D01*
X84836000Y-98710750D01*
X84677250Y-98552000D01*
X82423000Y-98552000D01*
X82423000Y-98572000D01*
X82169000Y-98572000D01*
X82169000Y-98552000D01*
X79914750Y-98552000D01*
X79756000Y-98710750D01*
X79756000Y-99186310D01*
X79852673Y-99419699D01*
X80031302Y-99598327D01*
X80264691Y-99695000D01*
X80324887Y-99695000D01*
X80155683Y-99726838D01*
X79939559Y-99865910D01*
X79794569Y-100078110D01*
X79743560Y-100330000D01*
X79743560Y-101600000D01*
X79787838Y-101835317D01*
X79926910Y-102051441D01*
X80139110Y-102196431D01*
X80391000Y-102247440D01*
X84201000Y-102247440D01*
X84436317Y-102203162D01*
X84652441Y-102064090D01*
X84685258Y-102016060D01*
X85600000Y-102930802D01*
X85600000Y-105704136D01*
X85370000Y-105657560D01*
X84170000Y-105657560D01*
X83934683Y-105701838D01*
X83820022Y-105775620D01*
X83721890Y-105708569D01*
X83470000Y-105657560D01*
X82270000Y-105657560D01*
X82034683Y-105701838D01*
X81818559Y-105840910D01*
X81764519Y-105920000D01*
X80796844Y-105920000D01*
X80754090Y-105853559D01*
X80541890Y-105708569D01*
X80290000Y-105657560D01*
X79090000Y-105657560D01*
X78854683Y-105701838D01*
X78740022Y-105775620D01*
X78641890Y-105708569D01*
X78390000Y-105657560D01*
X77190000Y-105657560D01*
X76954683Y-105701838D01*
X76738559Y-105840910D01*
X76593569Y-106053110D01*
X76542560Y-106305000D01*
X76542560Y-107055000D01*
X76586838Y-107290317D01*
X76725910Y-107506441D01*
X76938110Y-107651431D01*
X77030000Y-107670039D01*
X77030000Y-108227666D01*
X76954683Y-108241838D01*
X76738559Y-108380910D01*
X76593569Y-108593110D01*
X76542560Y-108845000D01*
X76542560Y-109392638D01*
X75281599Y-110653599D01*
X75116852Y-110900161D01*
X75059000Y-111191000D01*
X75059000Y-116523800D01*
X74127669Y-117455131D01*
X74147440Y-117357500D01*
X74147440Y-116957500D01*
X74129491Y-116862110D01*
X74135000Y-116848810D01*
X74135000Y-116781250D01*
X74109473Y-116755723D01*
X74103162Y-116722183D01*
X73964090Y-116506059D01*
X73841797Y-116422500D01*
X73976250Y-116422500D01*
X74135000Y-116263750D01*
X74135000Y-116196190D01*
X74038327Y-115962801D01*
X73859698Y-115784173D01*
X73626309Y-115687500D01*
X73035750Y-115687500D01*
X72877000Y-115846250D01*
X72877000Y-116310060D01*
X72623000Y-116310060D01*
X72623000Y-115846250D01*
X72464250Y-115687500D01*
X71873691Y-115687500D01*
X71640302Y-115784173D01*
X71461673Y-115962801D01*
X71456673Y-115974871D01*
X71372000Y-115890198D01*
X71372000Y-112576463D01*
X71404192Y-112544327D01*
X71546838Y-112200799D01*
X71547162Y-111828833D01*
X71405117Y-111485057D01*
X71142327Y-111221808D01*
X70798799Y-111079162D01*
X70751924Y-111079121D01*
X65434401Y-105761599D01*
X65187839Y-105596852D01*
X64897000Y-105539000D01*
X59236463Y-105539000D01*
X59204327Y-105506808D01*
X58860799Y-105364162D01*
X58488833Y-105363838D01*
X58145057Y-105505883D01*
X57881808Y-105768673D01*
X57739162Y-106112201D01*
X57738838Y-106484167D01*
X57880883Y-106827943D01*
X58143673Y-107091192D01*
X58487201Y-107233838D01*
X58534077Y-107233879D01*
X59250000Y-107949802D01*
X59250000Y-108496975D01*
X59154699Y-108401673D01*
X58921310Y-108305000D01*
X58705750Y-108305000D01*
X58547000Y-108463750D01*
X58547000Y-109413000D01*
X58567000Y-109413000D01*
X58567000Y-109667000D01*
X58547000Y-109667000D01*
X58547000Y-109687000D01*
X58293000Y-109687000D01*
X58293000Y-109667000D01*
X57568750Y-109667000D01*
X57410000Y-109825750D01*
X57410000Y-110266309D01*
X57506673Y-110499698D01*
X57508043Y-110501068D01*
X57448569Y-110588110D01*
X57397560Y-110840000D01*
X57397560Y-111000000D01*
X56666844Y-111000000D01*
X56624090Y-110933559D01*
X56411890Y-110788569D01*
X56160000Y-110737560D01*
X54960000Y-110737560D01*
X54724683Y-110781838D01*
X54610022Y-110855620D01*
X54511890Y-110788569D01*
X54260000Y-110737560D01*
X54100000Y-110737560D01*
X54100000Y-110006844D01*
X54166441Y-109964090D01*
X54311431Y-109751890D01*
X54362440Y-109500000D01*
X54362440Y-108813691D01*
X57410000Y-108813691D01*
X57410000Y-109254250D01*
X57568750Y-109413000D01*
X58293000Y-109413000D01*
X58293000Y-108463750D01*
X58134250Y-108305000D01*
X57918690Y-108305000D01*
X57685301Y-108401673D01*
X57506673Y-108580302D01*
X57410000Y-108813691D01*
X54362440Y-108813691D01*
X54362440Y-108300000D01*
X54318162Y-108064683D01*
X54244380Y-107950022D01*
X54311431Y-107851890D01*
X54362440Y-107600000D01*
X54362440Y-107052362D01*
X56622362Y-104792440D01*
X57375000Y-104792440D01*
X57610317Y-104748162D01*
X57826441Y-104609090D01*
X57846317Y-104580000D01*
X59061652Y-104580000D01*
X59159673Y-104678192D01*
X59503201Y-104820838D01*
X59875167Y-104821162D01*
X60218943Y-104679117D01*
X60482192Y-104416327D01*
X60624838Y-104072799D01*
X60625162Y-103700833D01*
X60483117Y-103357057D01*
X60220327Y-103093808D01*
X59876799Y-102951162D01*
X59504833Y-102950838D01*
X59240640Y-103060000D01*
X58022440Y-103060000D01*
X58022440Y-102545000D01*
X57993179Y-102389493D01*
X58022440Y-102245000D01*
X58022440Y-101595000D01*
X57978162Y-101359683D01*
X57908066Y-101250750D01*
X73914000Y-101250750D01*
X73914000Y-101726310D01*
X74010673Y-101959699D01*
X74189302Y-102138327D01*
X74422691Y-102235000D01*
X76168250Y-102235000D01*
X76327000Y-102076250D01*
X76327000Y-101092000D01*
X76581000Y-101092000D01*
X76581000Y-102076250D01*
X76739750Y-102235000D01*
X78485309Y-102235000D01*
X78718698Y-102138327D01*
X78897327Y-101959699D01*
X78994000Y-101726310D01*
X78994000Y-101250750D01*
X78835250Y-101092000D01*
X76581000Y-101092000D01*
X76327000Y-101092000D01*
X74072750Y-101092000D01*
X73914000Y-101250750D01*
X57908066Y-101250750D01*
X57839090Y-101143559D01*
X57626890Y-100998569D01*
X57375000Y-100947560D01*
X57275000Y-100947560D01*
X57275000Y-100481844D01*
X57341441Y-100439090D01*
X57486431Y-100226890D01*
X57537440Y-99975000D01*
X57537440Y-98775000D01*
X57493162Y-98539683D01*
X57419380Y-98425022D01*
X57486431Y-98326890D01*
X57488899Y-98314701D01*
X58136599Y-98962401D01*
X58383161Y-99127148D01*
X58674000Y-99185000D01*
X58812080Y-99185000D01*
X58832838Y-99295317D01*
X58971910Y-99511441D01*
X59184110Y-99656431D01*
X59436000Y-99707440D01*
X60706000Y-99707440D01*
X60941317Y-99663162D01*
X60957099Y-99653007D01*
X60962110Y-99656431D01*
X61214000Y-99707440D01*
X62111284Y-99707440D01*
X62193161Y-99762148D01*
X62484000Y-99820000D01*
X64584953Y-99820000D01*
X64653106Y-99984943D01*
X65112637Y-100445278D01*
X65713352Y-100694716D01*
X66363795Y-100695284D01*
X66964943Y-100446894D01*
X67425278Y-99987363D01*
X67674716Y-99386648D01*
X67675284Y-98736205D01*
X67426894Y-98135057D01*
X66967363Y-97674722D01*
X66568860Y-97509250D01*
X66568860Y-96485750D01*
X67275710Y-96485750D01*
X67275710Y-96726359D01*
X67372383Y-96959748D01*
X67551011Y-97138377D01*
X67784400Y-97235050D01*
X68525390Y-97235050D01*
X68684140Y-97076300D01*
X68684140Y-96327000D01*
X68938140Y-96327000D01*
X68938140Y-97076300D01*
X69096890Y-97235050D01*
X69837880Y-97235050D01*
X70071269Y-97138377D01*
X70249897Y-96959748D01*
X70346570Y-96726359D01*
X70346570Y-96485750D01*
X70187820Y-96327000D01*
X68938140Y-96327000D01*
X68684140Y-96327000D01*
X67434460Y-96327000D01*
X67275710Y-96485750D01*
X66568860Y-96485750D01*
X66568860Y-96297490D01*
X66709290Y-96297490D01*
X66944607Y-96253212D01*
X67160731Y-96114140D01*
X67288542Y-95927082D01*
X67434460Y-96073000D01*
X68684140Y-96073000D01*
X68684140Y-95323700D01*
X68610440Y-95250000D01*
X68684140Y-95176300D01*
X68684140Y-94427000D01*
X68938140Y-94427000D01*
X68938140Y-95176300D01*
X69011840Y-95250000D01*
X68938140Y-95323700D01*
X68938140Y-96073000D01*
X70187820Y-96073000D01*
X70190653Y-96070167D01*
X71708838Y-96070167D01*
X71850883Y-96413943D01*
X72113673Y-96677192D01*
X72457201Y-96819838D01*
X72829167Y-96820162D01*
X73172943Y-96678117D01*
X73206118Y-96645000D01*
X73925080Y-96645000D01*
X73945838Y-96755317D01*
X74084910Y-96971441D01*
X74297110Y-97116431D01*
X74485314Y-97154543D01*
X74313683Y-97186838D01*
X74097559Y-97325910D01*
X73952569Y-97538110D01*
X73901560Y-97790000D01*
X73901560Y-99060000D01*
X73945838Y-99295317D01*
X74084910Y-99511441D01*
X74297110Y-99656431D01*
X74487569Y-99695000D01*
X74422691Y-99695000D01*
X74189302Y-99791673D01*
X74010673Y-99970301D01*
X73914000Y-100203690D01*
X73914000Y-100679250D01*
X74072750Y-100838000D01*
X76327000Y-100838000D01*
X76327000Y-100818000D01*
X76581000Y-100818000D01*
X76581000Y-100838000D01*
X78835250Y-100838000D01*
X78994000Y-100679250D01*
X78994000Y-100203690D01*
X78897327Y-99970301D01*
X78718698Y-99791673D01*
X78485309Y-99695000D01*
X78425113Y-99695000D01*
X78594317Y-99663162D01*
X78810441Y-99524090D01*
X78955431Y-99311890D01*
X79006440Y-99060000D01*
X79006440Y-97790000D01*
X78962162Y-97554683D01*
X78823090Y-97338559D01*
X78610890Y-97193569D01*
X78422686Y-97155457D01*
X78594317Y-97123162D01*
X78810441Y-96984090D01*
X78955431Y-96771890D01*
X79006440Y-96520000D01*
X79006440Y-95250000D01*
X78962162Y-95014683D01*
X78823090Y-94798559D01*
X78610890Y-94653569D01*
X78359000Y-94602560D01*
X74549000Y-94602560D01*
X74313683Y-94646838D01*
X74097559Y-94785910D01*
X73952569Y-94998110D01*
X73926873Y-95125000D01*
X73206463Y-95125000D01*
X73174327Y-95092808D01*
X72830799Y-94950162D01*
X72458833Y-94949838D01*
X72115057Y-95091883D01*
X71851808Y-95354673D01*
X71709162Y-95698201D01*
X71708838Y-96070167D01*
X70190653Y-96070167D01*
X70346570Y-95914250D01*
X70346570Y-95673641D01*
X70249897Y-95440252D01*
X70071269Y-95261623D01*
X70043209Y-95250000D01*
X70071269Y-95238377D01*
X70249897Y-95059748D01*
X70346570Y-94826359D01*
X70346570Y-94585750D01*
X70187820Y-94427000D01*
X68938140Y-94427000D01*
X68684140Y-94427000D01*
X67434460Y-94427000D01*
X67286757Y-94574703D01*
X67173380Y-94398509D01*
X66961180Y-94253519D01*
X66709290Y-94202510D01*
X64908430Y-94202510D01*
X64673113Y-94246788D01*
X64456989Y-94385860D01*
X64385833Y-94490000D01*
X57464802Y-94490000D01*
X57331350Y-94356548D01*
X57331350Y-94346076D01*
X57384950Y-94356930D01*
X57389250Y-94356930D01*
X57392463Y-94357953D01*
X57398346Y-94356930D01*
X61385450Y-94356930D01*
X61620767Y-94312652D01*
X61836891Y-94173580D01*
X61981881Y-93961380D01*
X62019899Y-93773641D01*
X67275710Y-93773641D01*
X67275710Y-94014250D01*
X67434460Y-94173000D01*
X68684140Y-94173000D01*
X68684140Y-93423700D01*
X68938140Y-93423700D01*
X68938140Y-94173000D01*
X70187820Y-94173000D01*
X70346570Y-94014250D01*
X70346570Y-93773641D01*
X70249897Y-93540252D01*
X70071269Y-93361623D01*
X69837880Y-93264950D01*
X69096890Y-93264950D01*
X68938140Y-93423700D01*
X68684140Y-93423700D01*
X68525390Y-93264950D01*
X67784400Y-93264950D01*
X67551011Y-93361623D01*
X67372383Y-93540252D01*
X67275710Y-93773641D01*
X62019899Y-93773641D01*
X62032890Y-93709490D01*
X62032890Y-91710510D01*
X61988612Y-91475193D01*
X61849540Y-91259069D01*
X61637340Y-91114079D01*
X61385450Y-91063070D01*
X57384950Y-91063070D01*
X57331350Y-91073156D01*
X57331350Y-91063452D01*
X58420000Y-89974802D01*
X59152599Y-90707401D01*
X59399160Y-90872148D01*
X59690000Y-90930000D01*
X61915198Y-90930000D01*
X62962599Y-91977401D01*
X63209160Y-92142148D01*
X63500000Y-92200000D01*
X67310000Y-92200000D01*
X67600839Y-92142148D01*
X67847401Y-91977401D01*
X69117401Y-90707401D01*
X69213593Y-90563440D01*
X69596000Y-90563440D01*
X69831317Y-90519162D01*
X70047441Y-90380090D01*
X70192431Y-90167890D01*
X70243440Y-89916000D01*
X70243440Y-87884000D01*
X70199162Y-87648683D01*
X70060090Y-87432559D01*
X69847890Y-87287569D01*
X69596000Y-87236560D01*
X67564000Y-87236560D01*
X67328683Y-87280838D01*
X67112559Y-87419910D01*
X67012144Y-87566872D01*
X67008379Y-87562812D01*
X66422946Y-87294017D01*
X66167000Y-87412633D01*
X66167000Y-88773000D01*
X66187000Y-88773000D01*
X66187000Y-89027000D01*
X66167000Y-89027000D01*
X66167000Y-90387367D01*
X66422946Y-90505983D01*
X67008379Y-90237188D01*
X67012934Y-90232276D01*
X67099910Y-90367441D01*
X67223388Y-90451810D01*
X66995198Y-90680000D01*
X63814802Y-90680000D01*
X62767401Y-89632599D01*
X62520839Y-89467852D01*
X62466672Y-89457078D01*
X62547500Y-89376250D01*
X62547500Y-86487000D01*
X62801500Y-86487000D01*
X62801500Y-89376250D01*
X62960250Y-89535000D01*
X63689809Y-89535000D01*
X63923198Y-89438327D01*
X64078581Y-89282944D01*
X64434025Y-89282944D01*
X64633615Y-89764818D01*
X65071621Y-90237188D01*
X65657054Y-90505983D01*
X65913000Y-90387367D01*
X65913000Y-89027000D01*
X64553164Y-89027000D01*
X64434025Y-89282944D01*
X64078581Y-89282944D01*
X64101827Y-89259699D01*
X64198500Y-89026310D01*
X64198500Y-88517056D01*
X64434025Y-88517056D01*
X64553164Y-88773000D01*
X65913000Y-88773000D01*
X65913000Y-87412633D01*
X65657054Y-87294017D01*
X65071621Y-87562812D01*
X64633615Y-88035182D01*
X64434025Y-88517056D01*
X64198500Y-88517056D01*
X64198500Y-86645750D01*
X64039750Y-86487000D01*
X62801500Y-86487000D01*
X62547500Y-86487000D01*
X61309250Y-86487000D01*
X61150500Y-86645750D01*
X61150500Y-89026310D01*
X61247173Y-89259699D01*
X61397475Y-89410000D01*
X60004802Y-89410000D01*
X59667473Y-89072671D01*
X59702440Y-88900000D01*
X59702440Y-84530000D01*
X61150500Y-84530000D01*
X61150500Y-86074250D01*
X61309250Y-86233000D01*
X62547500Y-86233000D01*
X62547500Y-86213000D01*
X62801500Y-86213000D01*
X62801500Y-86233000D01*
X64039750Y-86233000D01*
X64198500Y-86074250D01*
X64198500Y-84530000D01*
X89460000Y-84530000D01*
X89460000Y-135180000D01*
X45160000Y-135180000D01*
X45160000Y-86640091D01*
X45339000Y-86640091D01*
X45339000Y-87344250D01*
X45497750Y-87503000D01*
X46863000Y-87503000D01*
X46863000Y-86290150D01*
X47117000Y-86290150D01*
X47117000Y-87503000D01*
X48482250Y-87503000D01*
X48641000Y-87344250D01*
X48641000Y-86640091D01*
X48603994Y-86550750D01*
X49365000Y-86550750D01*
X49365000Y-87391309D01*
X49461673Y-87624698D01*
X49640301Y-87803327D01*
X49873690Y-87900000D01*
X50514250Y-87900000D01*
X50673000Y-87741250D01*
X50673000Y-86392000D01*
X50927000Y-86392000D01*
X50927000Y-87741250D01*
X51085750Y-87900000D01*
X51726310Y-87900000D01*
X51959699Y-87803327D01*
X52138327Y-87624698D01*
X52235000Y-87391309D01*
X52235000Y-86645750D01*
X52641500Y-86645750D01*
X52641500Y-89026310D01*
X52738173Y-89259699D01*
X52916802Y-89438327D01*
X53150191Y-89535000D01*
X53879750Y-89535000D01*
X54038500Y-89376250D01*
X54038500Y-86487000D01*
X54292500Y-86487000D01*
X54292500Y-89376250D01*
X54451250Y-89535000D01*
X55180809Y-89535000D01*
X55414198Y-89438327D01*
X55592827Y-89259699D01*
X55689500Y-89026310D01*
X55689500Y-86645750D01*
X55530750Y-86487000D01*
X54292500Y-86487000D01*
X54038500Y-86487000D01*
X52800250Y-86487000D01*
X52641500Y-86645750D01*
X52235000Y-86645750D01*
X52235000Y-86550750D01*
X52076250Y-86392000D01*
X50927000Y-86392000D01*
X50673000Y-86392000D01*
X49523750Y-86392000D01*
X49365000Y-86550750D01*
X48603994Y-86550750D01*
X48544327Y-86406702D01*
X48365699Y-86228073D01*
X48132310Y-86131400D01*
X47275750Y-86131400D01*
X47117000Y-86290150D01*
X46863000Y-86290150D01*
X46704250Y-86131400D01*
X45847690Y-86131400D01*
X45614301Y-86228073D01*
X45435673Y-86406702D01*
X45339000Y-86640091D01*
X45160000Y-86640091D01*
X45160000Y-85138691D01*
X49365000Y-85138691D01*
X49365000Y-85979250D01*
X49523750Y-86138000D01*
X50673000Y-86138000D01*
X50673000Y-84788750D01*
X50927000Y-84788750D01*
X50927000Y-86138000D01*
X52076250Y-86138000D01*
X52235000Y-85979250D01*
X52235000Y-85138691D01*
X52138327Y-84905302D01*
X51959699Y-84726673D01*
X51726310Y-84630000D01*
X51085750Y-84630000D01*
X50927000Y-84788750D01*
X50673000Y-84788750D01*
X50514250Y-84630000D01*
X49873690Y-84630000D01*
X49640301Y-84726673D01*
X49461673Y-84905302D01*
X49365000Y-85138691D01*
X45160000Y-85138691D01*
X45160000Y-84530000D01*
X52641500Y-84530000D01*
X52641500Y-86074250D01*
X52641500Y-86074250D01*
G37*
X52641500Y-86074250D02*
X52800250Y-86233000D01*
X54038500Y-86233000D01*
X54038500Y-86213000D01*
X54292500Y-86213000D01*
X54292500Y-86233000D01*
X55530750Y-86233000D01*
X55689500Y-86074250D01*
X55689500Y-84530000D01*
X57137560Y-84530000D01*
X57137560Y-88900000D01*
X57170443Y-89074755D01*
X56184158Y-90061040D01*
X54182010Y-90061040D01*
X53946693Y-90105318D01*
X53730569Y-90244390D01*
X53585579Y-90456590D01*
X53534570Y-90708480D01*
X53534570Y-91709240D01*
X53578848Y-91944557D01*
X53586478Y-91956414D01*
X53585579Y-91957730D01*
X53534570Y-92209620D01*
X53534570Y-93210380D01*
X53578848Y-93445697D01*
X53586478Y-93457554D01*
X53585579Y-93458870D01*
X53534570Y-93710760D01*
X53534570Y-94711520D01*
X53578848Y-94946837D01*
X53717920Y-95162961D01*
X53930120Y-95307951D01*
X54182010Y-95358960D01*
X56184158Y-95358960D01*
X56612599Y-95787401D01*
X56859161Y-95952148D01*
X57150000Y-96010000D01*
X64385467Y-96010000D01*
X64444340Y-96101491D01*
X64656540Y-96246481D01*
X64908430Y-96297490D01*
X65048860Y-96297490D01*
X65048860Y-97739187D01*
X64654722Y-98132637D01*
X64585227Y-98300000D01*
X63131440Y-98300000D01*
X63131440Y-97790000D01*
X63087162Y-97554683D01*
X62948090Y-97338559D01*
X62735890Y-97193569D01*
X62484000Y-97142560D01*
X61214000Y-97142560D01*
X60978683Y-97186838D01*
X60962901Y-97196993D01*
X60957890Y-97193569D01*
X60706000Y-97142560D01*
X59436000Y-97142560D01*
X59200683Y-97186838D01*
X58984559Y-97325910D01*
X58848638Y-97524836D01*
X58261401Y-96937599D01*
X58014839Y-96772852D01*
X57724000Y-96715000D01*
X57507334Y-96715000D01*
X57493162Y-96639683D01*
X57354090Y-96423559D01*
X57141890Y-96278569D01*
X56890000Y-96227560D01*
X56140000Y-96227560D01*
X55904683Y-96271838D01*
X55688559Y-96410910D01*
X55543569Y-96623110D01*
X55492560Y-96875000D01*
X55492560Y-98075000D01*
X55536838Y-98310317D01*
X55610620Y-98424978D01*
X55543569Y-98523110D01*
X55524961Y-98615000D01*
X54967334Y-98615000D01*
X54953162Y-98539683D01*
X54886671Y-98436354D01*
X54888327Y-98434698D01*
X54985000Y-98201309D01*
X54985000Y-97760750D01*
X54826250Y-97602000D01*
X54102000Y-97602000D01*
X54102000Y-97622000D01*
X53848000Y-97622000D01*
X53848000Y-97602000D01*
X53123750Y-97602000D01*
X52965000Y-97760750D01*
X52965000Y-98201309D01*
X53061673Y-98434698D01*
X53063043Y-98436068D01*
X53003569Y-98523110D01*
X52952560Y-98775000D01*
X52952560Y-99975000D01*
X52996838Y-100210317D01*
X53135910Y-100426441D01*
X53348110Y-100571431D01*
X53600000Y-100622440D01*
X54350000Y-100622440D01*
X54585317Y-100578162D01*
X54801441Y-100439090D01*
X54946431Y-100226890D01*
X54965039Y-100135000D01*
X55522666Y-100135000D01*
X55536838Y-100210317D01*
X55675910Y-100426441D01*
X55755000Y-100480481D01*
X55755000Y-100958850D01*
X55579683Y-100991838D01*
X55363559Y-101130910D01*
X55243767Y-101306232D01*
X55139090Y-101143559D01*
X54926890Y-100998569D01*
X54675000Y-100947560D01*
X53115000Y-100947560D01*
X52980010Y-100972960D01*
X52863117Y-100690057D01*
X52600327Y-100426808D01*
X52256799Y-100284162D01*
X51884833Y-100283838D01*
X51560000Y-100418056D01*
X51560000Y-96748691D01*
X52965000Y-96748691D01*
X52965000Y-97189250D01*
X53123750Y-97348000D01*
X53848000Y-97348000D01*
X53848000Y-96398750D01*
X54102000Y-96398750D01*
X54102000Y-97348000D01*
X54826250Y-97348000D01*
X54985000Y-97189250D01*
X54985000Y-96748691D01*
X54888327Y-96515302D01*
X54709699Y-96336673D01*
X54476310Y-96240000D01*
X54260750Y-96240000D01*
X54102000Y-96398750D01*
X53848000Y-96398750D01*
X53689250Y-96240000D01*
X53473690Y-96240000D01*
X53240301Y-96336673D01*
X53061673Y-96515302D01*
X52965000Y-96748691D01*
X51560000Y-96748691D01*
X51560000Y-91912440D01*
X51600000Y-91912440D01*
X51835317Y-91868162D01*
X52051441Y-91729090D01*
X52196431Y-91516890D01*
X52247440Y-91265000D01*
X52247440Y-89265000D01*
X52203162Y-89029683D01*
X52064090Y-88813559D01*
X51851890Y-88668569D01*
X51600000Y-88617560D01*
X50000000Y-88617560D01*
X49764683Y-88661838D01*
X49548559Y-88800910D01*
X49403569Y-89013110D01*
X49352560Y-89265000D01*
X49352560Y-89410000D01*
X48434648Y-89410000D01*
X48234415Y-89110330D01*
X48212220Y-89095500D01*
X48365699Y-89031927D01*
X48544327Y-88853298D01*
X48641000Y-88619909D01*
X48641000Y-87915750D01*
X48482250Y-87757000D01*
X47117000Y-87757000D01*
X47117000Y-87777000D01*
X46863000Y-87777000D01*
X46863000Y-87757000D01*
X45497750Y-87757000D01*
X45339000Y-87915750D01*
X45339000Y-88619909D01*
X45435673Y-88853298D01*
X45614301Y-89031927D01*
X45767780Y-89095500D01*
X45745585Y-89110330D01*
X45420729Y-89596511D01*
X45306655Y-90170000D01*
X45420729Y-90743489D01*
X45745585Y-91229670D01*
X46060366Y-91440000D01*
X45745585Y-91650330D01*
X45420729Y-92136511D01*
X45306655Y-92710000D01*
X45420729Y-93283489D01*
X45745585Y-93769670D01*
X46060366Y-93980000D01*
X45745585Y-94190330D01*
X45420729Y-94676511D01*
X45306655Y-95250000D01*
X45420729Y-95823489D01*
X45745585Y-96309670D01*
X46060366Y-96520000D01*
X45745585Y-96730330D01*
X45420729Y-97216511D01*
X45306655Y-97790000D01*
X45420729Y-98363489D01*
X45745585Y-98849670D01*
X46060366Y-99060000D01*
X45745585Y-99270330D01*
X45420729Y-99756511D01*
X45306655Y-100330000D01*
X45420729Y-100903489D01*
X45745585Y-101389670D01*
X46060366Y-101600000D01*
X45745585Y-101810330D01*
X45420729Y-102296511D01*
X45306655Y-102870000D01*
X45420729Y-103443489D01*
X45745585Y-103929670D01*
X46060366Y-104140000D01*
X45745585Y-104350330D01*
X45420729Y-104836511D01*
X45306655Y-105410000D01*
X45420729Y-105983489D01*
X45745585Y-106469670D01*
X46060366Y-106680000D01*
X45745585Y-106890330D01*
X45420729Y-107376511D01*
X45306655Y-107950000D01*
X45420729Y-108523489D01*
X45745585Y-109009670D01*
X46060366Y-109220000D01*
X45745585Y-109430330D01*
X45420729Y-109916511D01*
X45306655Y-110490000D01*
X45420729Y-111063489D01*
X45745585Y-111549670D01*
X46060366Y-111760000D01*
X45745585Y-111970330D01*
X45420729Y-112456511D01*
X45306655Y-113030000D01*
X45420729Y-113603489D01*
X45745585Y-114089670D01*
X46060366Y-114300000D01*
X45745585Y-114510330D01*
X45420729Y-114996511D01*
X45306655Y-115570000D01*
X45420729Y-116143489D01*
X45745585Y-116629670D01*
X46060366Y-116840000D01*
X45745585Y-117050330D01*
X45420729Y-117536511D01*
X45306655Y-118110000D01*
X45420729Y-118683489D01*
X45745585Y-119169670D01*
X46060366Y-119380000D01*
X45745585Y-119590330D01*
X45420729Y-120076511D01*
X45306655Y-120650000D01*
X45420729Y-121223489D01*
X45745585Y-121709670D01*
X46060366Y-121920000D01*
X45745585Y-122130330D01*
X45420729Y-122616511D01*
X45306655Y-123190000D01*
X45420729Y-123763489D01*
X45745585Y-124249670D01*
X46060366Y-124460000D01*
X45745585Y-124670330D01*
X45420729Y-125156511D01*
X45306655Y-125730000D01*
X45420729Y-126303489D01*
X45745585Y-126789670D01*
X46060366Y-127000000D01*
X45745585Y-127210330D01*
X45420729Y-127696511D01*
X45306655Y-128270000D01*
X45420729Y-128843489D01*
X45745585Y-129329670D01*
X46060366Y-129540000D01*
X45745585Y-129750330D01*
X45420729Y-130236511D01*
X45306655Y-130810000D01*
X45420729Y-131383489D01*
X45745585Y-131869670D01*
X46060366Y-132080000D01*
X45745585Y-132290330D01*
X45420729Y-132776511D01*
X45306655Y-133350000D01*
X45420729Y-133923489D01*
X45745585Y-134409670D01*
X46231766Y-134734526D01*
X46805255Y-134848600D01*
X47174745Y-134848600D01*
X47748234Y-134734526D01*
X48234415Y-134409670D01*
X48559271Y-133923489D01*
X48673345Y-133350000D01*
X48559271Y-132776511D01*
X48234415Y-132290330D01*
X47919634Y-132080000D01*
X48234415Y-131869670D01*
X48434648Y-131570000D01*
X49692560Y-131570000D01*
X49692560Y-131610000D01*
X49736838Y-131845317D01*
X49875910Y-132061441D01*
X50088110Y-132206431D01*
X50340000Y-132257440D01*
X52340000Y-132257440D01*
X52575317Y-132213162D01*
X52791441Y-132074090D01*
X52936431Y-131861890D01*
X52987440Y-131610000D01*
X52987440Y-131095750D01*
X53705000Y-131095750D01*
X53705000Y-131736310D01*
X53801673Y-131969699D01*
X53980302Y-132148327D01*
X54213691Y-132245000D01*
X55054250Y-132245000D01*
X55213000Y-132086250D01*
X55213000Y-130937000D01*
X55467000Y-130937000D01*
X55467000Y-132086250D01*
X55625750Y-132245000D01*
X56466309Y-132245000D01*
X56699698Y-132148327D01*
X56878327Y-131969699D01*
X56975000Y-131736310D01*
X56975000Y-131095750D01*
X56816250Y-130937000D01*
X55467000Y-130937000D01*
X55213000Y-130937000D01*
X53863750Y-130937000D01*
X53705000Y-131095750D01*
X52987440Y-131095750D01*
X52987440Y-130010000D01*
X52963674Y-129883690D01*
X53705000Y-129883690D01*
X53705000Y-130524250D01*
X53863750Y-130683000D01*
X55213000Y-130683000D01*
X55213000Y-129533750D01*
X55467000Y-129533750D01*
X55467000Y-130683000D01*
X56816250Y-130683000D01*
X56975000Y-130524250D01*
X56975000Y-129883690D01*
X56878327Y-129650301D01*
X56699698Y-129471673D01*
X56466309Y-129375000D01*
X55625750Y-129375000D01*
X55467000Y-129533750D01*
X55213000Y-129533750D01*
X55054250Y-129375000D01*
X54213691Y-129375000D01*
X53980302Y-129471673D01*
X53801673Y-129650301D01*
X53705000Y-129883690D01*
X52963674Y-129883690D01*
X52943162Y-129774683D01*
X52804090Y-129558559D01*
X52591890Y-129413569D01*
X52340000Y-129362560D01*
X50340000Y-129362560D01*
X50104683Y-129406838D01*
X49888559Y-129545910D01*
X49743569Y-129758110D01*
X49692560Y-130010000D01*
X49692560Y-130050000D01*
X48434648Y-130050000D01*
X48234415Y-129750330D01*
X47919634Y-129540000D01*
X48234415Y-129329670D01*
X48559271Y-128843489D01*
X48673345Y-128270000D01*
X48559271Y-127696511D01*
X48234415Y-127210330D01*
X47919634Y-127000000D01*
X48234415Y-126789670D01*
X48559271Y-126303489D01*
X48673345Y-125730000D01*
X48559271Y-125156511D01*
X48234415Y-124670330D01*
X47919634Y-124460000D01*
X48234415Y-124249670D01*
X48559271Y-123763489D01*
X48673345Y-123190000D01*
X48559271Y-122616511D01*
X48234415Y-122130330D01*
X47919634Y-121920000D01*
X48234415Y-121709670D01*
X48559271Y-121223489D01*
X48673345Y-120650000D01*
X48559271Y-120076511D01*
X48234415Y-119590330D01*
X47919634Y-119380000D01*
X48234415Y-119169670D01*
X48559271Y-118683489D01*
X48673345Y-118110000D01*
X48559271Y-117536511D01*
X48234415Y-117050330D01*
X47919634Y-116840000D01*
X48234415Y-116629670D01*
X48559271Y-116143489D01*
X48673345Y-115570000D01*
X48559271Y-114996511D01*
X48234415Y-114510330D01*
X47919634Y-114300000D01*
X48234415Y-114089670D01*
X48559271Y-113603489D01*
X48673345Y-113030000D01*
X48559271Y-112456511D01*
X48234415Y-111970330D01*
X47919634Y-111760000D01*
X48234415Y-111549670D01*
X48559271Y-111063489D01*
X48673345Y-110490000D01*
X48559271Y-109916511D01*
X48234415Y-109430330D01*
X47919634Y-109220000D01*
X48234415Y-109009670D01*
X48559271Y-108523489D01*
X48673345Y-107950000D01*
X48559271Y-107376511D01*
X48234415Y-106890330D01*
X47919634Y-106680000D01*
X48234415Y-106469670D01*
X48559271Y-105983489D01*
X48673345Y-105410000D01*
X48569839Y-104889641D01*
X49786000Y-106105802D01*
X49786000Y-120650000D01*
X49843852Y-120940839D01*
X50008599Y-121187401D01*
X57120599Y-128299401D01*
X57367161Y-128464148D01*
X57658000Y-128522000D01*
X59878000Y-128522000D01*
X60168839Y-128464148D01*
X60415401Y-128299401D01*
X61962362Y-126752440D01*
X62510000Y-126752440D01*
X62745317Y-126708162D01*
X62961441Y-126569090D01*
X63015481Y-126490000D01*
X63457500Y-126490000D01*
X63748339Y-126432148D01*
X63994901Y-126267401D01*
X67177362Y-123084940D01*
X67700000Y-123084940D01*
X67935317Y-123040662D01*
X68151441Y-122901590D01*
X68296431Y-122689390D01*
X68347440Y-122437500D01*
X68347440Y-122037500D01*
X68329491Y-121942110D01*
X68335000Y-121928810D01*
X68335000Y-121861250D01*
X68309473Y-121835723D01*
X68303162Y-121802183D01*
X68173044Y-121599973D01*
X68296431Y-121419390D01*
X68305844Y-121372906D01*
X68335000Y-121343750D01*
X68335000Y-121276190D01*
X68328572Y-121260672D01*
X68347440Y-121167500D01*
X68347440Y-120767500D01*
X68324519Y-120645686D01*
X68347440Y-120532500D01*
X68347440Y-120132500D01*
X68329491Y-120037110D01*
X68335000Y-120023810D01*
X68335000Y-119956250D01*
X68309473Y-119930723D01*
X68303162Y-119897183D01*
X68173044Y-119694973D01*
X68296431Y-119514390D01*
X68305844Y-119467906D01*
X68335000Y-119438750D01*
X68335000Y-119371190D01*
X68328572Y-119355672D01*
X68347440Y-119262500D01*
X68347440Y-118862500D01*
X68324519Y-118740686D01*
X68347440Y-118627500D01*
X68347440Y-118227500D01*
X68324519Y-118105686D01*
X68347440Y-117992500D01*
X68347440Y-117592500D01*
X68324519Y-117470686D01*
X68347440Y-117357500D01*
X68347440Y-116957500D01*
X68324519Y-116835686D01*
X68347440Y-116722500D01*
X68347440Y-116322500D01*
X68303162Y-116087183D01*
X68164090Y-115871059D01*
X67951890Y-115726069D01*
X67710000Y-115677085D01*
X67710000Y-113620000D01*
X67652148Y-113329161D01*
X67487401Y-113082599D01*
X65792440Y-111387638D01*
X65792440Y-110840000D01*
X65748162Y-110604683D01*
X65681671Y-110501354D01*
X65683327Y-110499698D01*
X65780000Y-110266309D01*
X65780000Y-109825750D01*
X65621250Y-109667000D01*
X64897000Y-109667000D01*
X64897000Y-109687000D01*
X64643000Y-109687000D01*
X64643000Y-109667000D01*
X63918750Y-109667000D01*
X63760000Y-109825750D01*
X63760000Y-110266309D01*
X63856673Y-110499698D01*
X63858043Y-110501068D01*
X63798569Y-110588110D01*
X63747560Y-110840000D01*
X63747560Y-112040000D01*
X63791838Y-112275317D01*
X63930910Y-112491441D01*
X64143110Y-112636431D01*
X64395000Y-112687440D01*
X64942638Y-112687440D01*
X66190000Y-113934802D01*
X66190000Y-115676942D01*
X65964683Y-115719338D01*
X65828057Y-115807255D01*
X65578122Y-115557320D01*
X65578162Y-115511833D01*
X65436117Y-115168057D01*
X65173327Y-114904808D01*
X64829799Y-114762162D01*
X64457833Y-114761838D01*
X64114057Y-114903883D01*
X63850808Y-115166673D01*
X63708162Y-115510201D01*
X63708090Y-115592288D01*
X63080558Y-114964756D01*
X63106431Y-114926890D01*
X63157440Y-114675000D01*
X63157440Y-113925000D01*
X63113162Y-113689683D01*
X62974090Y-113473559D01*
X62761890Y-113328569D01*
X62670000Y-113309961D01*
X62670000Y-111755000D01*
X62625523Y-111531400D01*
X62617440Y-111490765D01*
X62617440Y-110840000D01*
X62573162Y-110604683D01*
X62506671Y-110501354D01*
X62508327Y-110499698D01*
X62605000Y-110266309D01*
X62605000Y-109825750D01*
X62446250Y-109667000D01*
X61722000Y-109667000D01*
X61722000Y-109687000D01*
X61468000Y-109687000D01*
X61468000Y-109667000D01*
X61448000Y-109667000D01*
X61448000Y-109413000D01*
X61468000Y-109413000D01*
X61468000Y-108463750D01*
X61722000Y-108463750D01*
X61722000Y-109413000D01*
X62446250Y-109413000D01*
X62605000Y-109254250D01*
X62605000Y-108813691D01*
X63760000Y-108813691D01*
X63760000Y-109254250D01*
X63918750Y-109413000D01*
X64643000Y-109413000D01*
X64643000Y-108463750D01*
X64897000Y-108463750D01*
X64897000Y-109413000D01*
X65621250Y-109413000D01*
X65780000Y-109254250D01*
X65780000Y-108813691D01*
X65683327Y-108580302D01*
X65504699Y-108401673D01*
X65271310Y-108305000D01*
X65055750Y-108305000D01*
X64897000Y-108463750D01*
X64643000Y-108463750D01*
X64484250Y-108305000D01*
X64268690Y-108305000D01*
X64035301Y-108401673D01*
X63856673Y-108580302D01*
X63760000Y-108813691D01*
X62605000Y-108813691D01*
X62508327Y-108580302D01*
X62329699Y-108401673D01*
X62096310Y-108305000D01*
X61880750Y-108305000D01*
X61722000Y-108463750D01*
X61468000Y-108463750D01*
X61309250Y-108305000D01*
X61093690Y-108305000D01*
X60860301Y-108401673D01*
X60770000Y-108491975D01*
X60770000Y-107635000D01*
X60712148Y-107344161D01*
X60712148Y-107344160D01*
X60547401Y-107097599D01*
X60508802Y-107059000D01*
X64582198Y-107059000D01*
X69676878Y-112153681D01*
X69676838Y-112199167D01*
X69818883Y-112542943D01*
X69852000Y-112576118D01*
X69852000Y-116205000D01*
X69909852Y-116495839D01*
X70074599Y-116742401D01*
X71027099Y-117694901D01*
X71273660Y-117859648D01*
X71321914Y-117869246D01*
X71352560Y-117875342D01*
X71352560Y-117992500D01*
X71370509Y-118087890D01*
X71365000Y-118101190D01*
X71365000Y-118168750D01*
X71390527Y-118194277D01*
X71396838Y-118227817D01*
X71526956Y-118430027D01*
X71403569Y-118610610D01*
X71394156Y-118657094D01*
X71365000Y-118686250D01*
X71365000Y-118753810D01*
X71371428Y-118769328D01*
X71352560Y-118862500D01*
X71352560Y-119262500D01*
X71375481Y-119384314D01*
X71352560Y-119497500D01*
X71352560Y-119897500D01*
X71375481Y-120019314D01*
X71352560Y-120132500D01*
X71352560Y-120207500D01*
X71310500Y-120207500D01*
X71019661Y-120265352D01*
X70773099Y-120430099D01*
X69312599Y-121890599D01*
X69147852Y-122137161D01*
X69090000Y-122428000D01*
X69090000Y-132224464D01*
X68720173Y-132593647D01*
X68655940Y-132748337D01*
X68655940Y-132651500D01*
X68611662Y-132416183D01*
X68472590Y-132200059D01*
X68260390Y-132055069D01*
X68008500Y-132004060D01*
X66611500Y-132004060D01*
X66376183Y-132048338D01*
X66160059Y-132187410D01*
X66015069Y-132399610D01*
X65964060Y-132651500D01*
X65964060Y-134048500D01*
X66008338Y-134283817D01*
X66147410Y-134499941D01*
X66359610Y-134644931D01*
X66611500Y-134695940D01*
X68008500Y-134695940D01*
X68243817Y-134651662D01*
X68459941Y-134512590D01*
X68604931Y-134300390D01*
X68655940Y-134048500D01*
X68655940Y-133952116D01*
X68718854Y-134104380D01*
X69093647Y-134479827D01*
X69583587Y-134683268D01*
X70114086Y-134683731D01*
X70604380Y-134481146D01*
X70801681Y-134284188D01*
X71635417Y-134284188D01*
X71697071Y-134519800D01*
X72197480Y-134695927D01*
X72727199Y-134667148D01*
X73082929Y-134519800D01*
X73144583Y-134284188D01*
X72390000Y-133529605D01*
X71635417Y-134284188D01*
X70801681Y-134284188D01*
X70979827Y-134106353D01*
X71113314Y-133784882D01*
X71220200Y-134042929D01*
X71455812Y-134104583D01*
X72210395Y-133350000D01*
X72569605Y-133350000D01*
X73324188Y-134104583D01*
X73559800Y-134042929D01*
X73735927Y-133542520D01*
X73707148Y-133012801D01*
X73559800Y-132657071D01*
X73324188Y-132595417D01*
X72569605Y-133350000D01*
X72210395Y-133350000D01*
X71455812Y-132595417D01*
X71220200Y-132657071D01*
X71121917Y-132936312D01*
X70981146Y-132595620D01*
X70801652Y-132415812D01*
X71635417Y-132415812D01*
X72390000Y-133170395D01*
X73144583Y-132415812D01*
X73082929Y-132180200D01*
X72582520Y-132004073D01*
X72052801Y-132032852D01*
X71697071Y-132180200D01*
X71635417Y-132415812D01*
X70801652Y-132415812D01*
X70610000Y-132223826D01*
X70610000Y-122742802D01*
X71362021Y-121990781D01*
X71352560Y-122037500D01*
X71352560Y-122437500D01*
X71396838Y-122672817D01*
X71535910Y-122888941D01*
X71748110Y-123033931D01*
X72000000Y-123084940D01*
X73500000Y-123084940D01*
X73735317Y-123040662D01*
X73802393Y-122997500D01*
X74617698Y-122997500D01*
X76542560Y-124922362D01*
X76542560Y-125470000D01*
X76586838Y-125705317D01*
X76725910Y-125921441D01*
X76938110Y-126066431D01*
X77190000Y-126117440D01*
X78390000Y-126117440D01*
X78625317Y-126073162D01*
X78728646Y-126006671D01*
X78730302Y-126008327D01*
X78963691Y-126105000D01*
X79404250Y-126105000D01*
X79563000Y-125946250D01*
X79563000Y-125222000D01*
X79817000Y-125222000D01*
X79817000Y-125946250D01*
X79975750Y-126105000D01*
X80416309Y-126105000D01*
X80649698Y-126008327D01*
X80828327Y-125829699D01*
X80925000Y-125596310D01*
X80925000Y-125380750D01*
X80766250Y-125222000D01*
X79817000Y-125222000D01*
X79563000Y-125222000D01*
X79543000Y-125222000D01*
X79543000Y-124968000D01*
X79563000Y-124968000D01*
X79563000Y-124243750D01*
X79817000Y-124243750D01*
X79817000Y-124968000D01*
X80766250Y-124968000D01*
X80925000Y-124809250D01*
X80925000Y-124593690D01*
X80828327Y-124360301D01*
X80649698Y-124181673D01*
X80416309Y-124085000D01*
X79975750Y-124085000D01*
X79817000Y-124243750D01*
X79563000Y-124243750D01*
X79404250Y-124085000D01*
X78963691Y-124085000D01*
X78730302Y-124181673D01*
X78728932Y-124183043D01*
X78641890Y-124123569D01*
X78390000Y-124072560D01*
X77842362Y-124072560D01*
X77347242Y-123577440D01*
X78390000Y-123577440D01*
X78625317Y-123533162D01*
X78728646Y-123466671D01*
X78730302Y-123468327D01*
X78963691Y-123565000D01*
X79404250Y-123565000D01*
X79563000Y-123406250D01*
X79563000Y-122682000D01*
X79817000Y-122682000D01*
X79817000Y-123406250D01*
X79975750Y-123565000D01*
X80416309Y-123565000D01*
X80649698Y-123468327D01*
X80828327Y-123289699D01*
X80925000Y-123056310D01*
X80925000Y-122840750D01*
X80766250Y-122682000D01*
X79817000Y-122682000D01*
X79563000Y-122682000D01*
X79543000Y-122682000D01*
X79543000Y-122428000D01*
X79563000Y-122428000D01*
X79563000Y-121703750D01*
X79817000Y-121703750D01*
X79817000Y-122428000D01*
X80766250Y-122428000D01*
X80925000Y-122269250D01*
X80925000Y-122053690D01*
X80828327Y-121820301D01*
X80649698Y-121641673D01*
X80416309Y-121545000D01*
X79975750Y-121545000D01*
X79817000Y-121703750D01*
X79563000Y-121703750D01*
X79404250Y-121545000D01*
X78963691Y-121545000D01*
X78730302Y-121641673D01*
X78728932Y-121643043D01*
X78641890Y-121583569D01*
X78390000Y-121532560D01*
X77842362Y-121532560D01*
X77374901Y-121065099D01*
X77172710Y-120930000D01*
X77184250Y-120930000D01*
X77343000Y-120771250D01*
X77343000Y-119822000D01*
X77597000Y-119822000D01*
X77597000Y-120771250D01*
X77755750Y-120930000D01*
X77971310Y-120930000D01*
X78204699Y-120833327D01*
X78383327Y-120654698D01*
X78480000Y-120421309D01*
X78480000Y-119980750D01*
X78321250Y-119822000D01*
X77597000Y-119822000D01*
X77343000Y-119822000D01*
X76618750Y-119822000D01*
X76460000Y-119980750D01*
X76460000Y-120421309D01*
X76556673Y-120654698D01*
X76735301Y-120833327D01*
X76757447Y-120842500D01*
X74288302Y-120842500D01*
X76495224Y-118635578D01*
X76558329Y-118733646D01*
X76556673Y-118735302D01*
X76460000Y-118968691D01*
X76460000Y-119409250D01*
X76618750Y-119568000D01*
X77343000Y-119568000D01*
X77343000Y-119548000D01*
X77597000Y-119548000D01*
X77597000Y-119568000D01*
X78321250Y-119568000D01*
X78480000Y-119409250D01*
X78480000Y-118968691D01*
X78383327Y-118735302D01*
X78381957Y-118733932D01*
X78441431Y-118646890D01*
X78460039Y-118555000D01*
X80010000Y-118555000D01*
X80299371Y-118497440D01*
X80930000Y-118497440D01*
X81165317Y-118453162D01*
X81279978Y-118379380D01*
X81378110Y-118446431D01*
X81470000Y-118465039D01*
X81470000Y-127823199D01*
X81386057Y-127857883D01*
X81122808Y-128120673D01*
X80980162Y-128464201D01*
X80979838Y-128836167D01*
X81121883Y-129179943D01*
X81384673Y-129443192D01*
X81728201Y-129585838D01*
X82100167Y-129586162D01*
X82443943Y-129444117D01*
X82707192Y-129181327D01*
X82849838Y-128837799D01*
X82849915Y-128749911D01*
X82932148Y-128626840D01*
X82990000Y-128336000D01*
X82990000Y-118467334D01*
X83065317Y-118453162D01*
X83281441Y-118314090D01*
X83426431Y-118101890D01*
X83477440Y-117850000D01*
X83477440Y-117100000D01*
X83433162Y-116864683D01*
X83294090Y-116648559D01*
X83081890Y-116503569D01*
X82830000Y-116452560D01*
X81630000Y-116452560D01*
X81394683Y-116496838D01*
X81280022Y-116570620D01*
X81181890Y-116503569D01*
X80930000Y-116452560D01*
X79730000Y-116452560D01*
X79494683Y-116496838D01*
X79278559Y-116635910D01*
X79133569Y-116848110D01*
X79095723Y-117035000D01*
X78462334Y-117035000D01*
X78448162Y-116959683D01*
X78309090Y-116743559D01*
X78096890Y-116598569D01*
X77845000Y-116547560D01*
X77821242Y-116547560D01*
X78327401Y-116041401D01*
X78383502Y-115957440D01*
X78390000Y-115957440D01*
X78625317Y-115913162D01*
X78739978Y-115839380D01*
X78838110Y-115906431D01*
X79090000Y-115957440D01*
X80290000Y-115957440D01*
X80525317Y-115913162D01*
X80741441Y-115774090D01*
X80795481Y-115695000D01*
X81763156Y-115695000D01*
X81805910Y-115761441D01*
X82018110Y-115906431D01*
X82270000Y-115957440D01*
X83470000Y-115957440D01*
X83705317Y-115913162D01*
X83819978Y-115839380D01*
X83918110Y-115906431D01*
X84170000Y-115957440D01*
X85370000Y-115957440D01*
X85605317Y-115913162D01*
X85821441Y-115774090D01*
X85966431Y-115561890D01*
X86017440Y-115310000D01*
X86017440Y-114560000D01*
X85973162Y-114324683D01*
X85834090Y-114108559D01*
X85621890Y-113963569D01*
X85530000Y-113944961D01*
X85530000Y-113387334D01*
X85605317Y-113373162D01*
X85821441Y-113234090D01*
X85966431Y-113021890D01*
X86017440Y-112770000D01*
X86017440Y-112020000D01*
X86015935Y-112012000D01*
X86868000Y-112012000D01*
X87158839Y-111954148D01*
X87405401Y-111789401D01*
X88675401Y-110519401D01*
X88840148Y-110272840D01*
X88898000Y-109982000D01*
X88898000Y-97282000D01*
X88879071Y-97186838D01*
X88840148Y-96991160D01*
X88675401Y-96744599D01*
X87278401Y-95347599D01*
X87031839Y-95182852D01*
X86741000Y-95125000D01*
X84824920Y-95125000D01*
X84804162Y-95014683D01*
X84665090Y-94798559D01*
X84452890Y-94653569D01*
X84201000Y-94602560D01*
X80391000Y-94602560D01*
X80155683Y-94646838D01*
X79939559Y-94785910D01*
X79794569Y-94998110D01*
X79743560Y-95250000D01*
X79743560Y-96520000D01*
X79787838Y-96755317D01*
X79926910Y-96971441D01*
X80139110Y-97116431D01*
X80329569Y-97155000D01*
X80264691Y-97155000D01*
X80031302Y-97251673D01*
X79852673Y-97430301D01*
X79756000Y-97663690D01*
X79756000Y-98139250D01*
X79914750Y-98298000D01*
X82169000Y-98298000D01*
X82169000Y-98278000D01*
X82423000Y-98278000D01*
X82423000Y-98298000D01*
X84677250Y-98298000D01*
X84836000Y-98139250D01*
X84836000Y-97663690D01*
X84739327Y-97430301D01*
X84560698Y-97251673D01*
X84327309Y-97155000D01*
X84267113Y-97155000D01*
X84436317Y-97123162D01*
X84652441Y-96984090D01*
X84797431Y-96771890D01*
X84823127Y-96645000D01*
X86426198Y-96645000D01*
X87378000Y-97596802D01*
X87378000Y-109667198D01*
X87120000Y-109925198D01*
X87120000Y-102616000D01*
X87062148Y-102325161D01*
X86897401Y-102078599D01*
X85246401Y-100427599D01*
X84999839Y-100262852D01*
X84829427Y-100228955D01*
X84804162Y-100094683D01*
X84665090Y-99878559D01*
X84452890Y-99733569D01*
X84262431Y-99695000D01*
X84327309Y-99695000D01*
X84560698Y-99598327D01*
X84739327Y-99419699D01*
X84836000Y-99186310D01*
X84836000Y-98710750D01*
X84677250Y-98552000D01*
X82423000Y-98552000D01*
X82423000Y-98572000D01*
X82169000Y-98572000D01*
X82169000Y-98552000D01*
X79914750Y-98552000D01*
X79756000Y-98710750D01*
X79756000Y-99186310D01*
X79852673Y-99419699D01*
X80031302Y-99598327D01*
X80264691Y-99695000D01*
X80324887Y-99695000D01*
X80155683Y-99726838D01*
X79939559Y-99865910D01*
X79794569Y-100078110D01*
X79743560Y-100330000D01*
X79743560Y-101600000D01*
X79787838Y-101835317D01*
X79926910Y-102051441D01*
X80139110Y-102196431D01*
X80391000Y-102247440D01*
X84201000Y-102247440D01*
X84436317Y-102203162D01*
X84652441Y-102064090D01*
X84685258Y-102016060D01*
X85600000Y-102930802D01*
X85600000Y-105704136D01*
X85370000Y-105657560D01*
X84170000Y-105657560D01*
X83934683Y-105701838D01*
X83820022Y-105775620D01*
X83721890Y-105708569D01*
X83470000Y-105657560D01*
X82270000Y-105657560D01*
X82034683Y-105701838D01*
X81818559Y-105840910D01*
X81764519Y-105920000D01*
X80796844Y-105920000D01*
X80754090Y-105853559D01*
X80541890Y-105708569D01*
X80290000Y-105657560D01*
X79090000Y-105657560D01*
X78854683Y-105701838D01*
X78740022Y-105775620D01*
X78641890Y-105708569D01*
X78390000Y-105657560D01*
X77190000Y-105657560D01*
X76954683Y-105701838D01*
X76738559Y-105840910D01*
X76593569Y-106053110D01*
X76542560Y-106305000D01*
X76542560Y-107055000D01*
X76586838Y-107290317D01*
X76725910Y-107506441D01*
X76938110Y-107651431D01*
X77030000Y-107670039D01*
X77030000Y-108227666D01*
X76954683Y-108241838D01*
X76738559Y-108380910D01*
X76593569Y-108593110D01*
X76542560Y-108845000D01*
X76542560Y-109392638D01*
X75281599Y-110653599D01*
X75116852Y-110900161D01*
X75059000Y-111191000D01*
X75059000Y-116523800D01*
X74127669Y-117455131D01*
X74147440Y-117357500D01*
X74147440Y-116957500D01*
X74129491Y-116862110D01*
X74135000Y-116848810D01*
X74135000Y-116781250D01*
X74109473Y-116755723D01*
X74103162Y-116722183D01*
X73964090Y-116506059D01*
X73841797Y-116422500D01*
X73976250Y-116422500D01*
X74135000Y-116263750D01*
X74135000Y-116196190D01*
X74038327Y-115962801D01*
X73859698Y-115784173D01*
X73626309Y-115687500D01*
X73035750Y-115687500D01*
X72877000Y-115846250D01*
X72877000Y-116310060D01*
X72623000Y-116310060D01*
X72623000Y-115846250D01*
X72464250Y-115687500D01*
X71873691Y-115687500D01*
X71640302Y-115784173D01*
X71461673Y-115962801D01*
X71456673Y-115974871D01*
X71372000Y-115890198D01*
X71372000Y-112576463D01*
X71404192Y-112544327D01*
X71546838Y-112200799D01*
X71547162Y-111828833D01*
X71405117Y-111485057D01*
X71142327Y-111221808D01*
X70798799Y-111079162D01*
X70751924Y-111079121D01*
X65434401Y-105761599D01*
X65187839Y-105596852D01*
X64897000Y-105539000D01*
X59236463Y-105539000D01*
X59204327Y-105506808D01*
X58860799Y-105364162D01*
X58488833Y-105363838D01*
X58145057Y-105505883D01*
X57881808Y-105768673D01*
X57739162Y-106112201D01*
X57738838Y-106484167D01*
X57880883Y-106827943D01*
X58143673Y-107091192D01*
X58487201Y-107233838D01*
X58534077Y-107233879D01*
X59250000Y-107949802D01*
X59250000Y-108496975D01*
X59154699Y-108401673D01*
X58921310Y-108305000D01*
X58705750Y-108305000D01*
X58547000Y-108463750D01*
X58547000Y-109413000D01*
X58567000Y-109413000D01*
X58567000Y-109667000D01*
X58547000Y-109667000D01*
X58547000Y-109687000D01*
X58293000Y-109687000D01*
X58293000Y-109667000D01*
X57568750Y-109667000D01*
X57410000Y-109825750D01*
X57410000Y-110266309D01*
X57506673Y-110499698D01*
X57508043Y-110501068D01*
X57448569Y-110588110D01*
X57397560Y-110840000D01*
X57397560Y-111000000D01*
X56666844Y-111000000D01*
X56624090Y-110933559D01*
X56411890Y-110788569D01*
X56160000Y-110737560D01*
X54960000Y-110737560D01*
X54724683Y-110781838D01*
X54610022Y-110855620D01*
X54511890Y-110788569D01*
X54260000Y-110737560D01*
X54100000Y-110737560D01*
X54100000Y-110006844D01*
X54166441Y-109964090D01*
X54311431Y-109751890D01*
X54362440Y-109500000D01*
X54362440Y-108813691D01*
X57410000Y-108813691D01*
X57410000Y-109254250D01*
X57568750Y-109413000D01*
X58293000Y-109413000D01*
X58293000Y-108463750D01*
X58134250Y-108305000D01*
X57918690Y-108305000D01*
X57685301Y-108401673D01*
X57506673Y-108580302D01*
X57410000Y-108813691D01*
X54362440Y-108813691D01*
X54362440Y-108300000D01*
X54318162Y-108064683D01*
X54244380Y-107950022D01*
X54311431Y-107851890D01*
X54362440Y-107600000D01*
X54362440Y-107052362D01*
X56622362Y-104792440D01*
X57375000Y-104792440D01*
X57610317Y-104748162D01*
X57826441Y-104609090D01*
X57846317Y-104580000D01*
X59061652Y-104580000D01*
X59159673Y-104678192D01*
X59503201Y-104820838D01*
X59875167Y-104821162D01*
X60218943Y-104679117D01*
X60482192Y-104416327D01*
X60624838Y-104072799D01*
X60625162Y-103700833D01*
X60483117Y-103357057D01*
X60220327Y-103093808D01*
X59876799Y-102951162D01*
X59504833Y-102950838D01*
X59240640Y-103060000D01*
X58022440Y-103060000D01*
X58022440Y-102545000D01*
X57993179Y-102389493D01*
X58022440Y-102245000D01*
X58022440Y-101595000D01*
X57978162Y-101359683D01*
X57908066Y-101250750D01*
X73914000Y-101250750D01*
X73914000Y-101726310D01*
X74010673Y-101959699D01*
X74189302Y-102138327D01*
X74422691Y-102235000D01*
X76168250Y-102235000D01*
X76327000Y-102076250D01*
X76327000Y-101092000D01*
X76581000Y-101092000D01*
X76581000Y-102076250D01*
X76739750Y-102235000D01*
X78485309Y-102235000D01*
X78718698Y-102138327D01*
X78897327Y-101959699D01*
X78994000Y-101726310D01*
X78994000Y-101250750D01*
X78835250Y-101092000D01*
X76581000Y-101092000D01*
X76327000Y-101092000D01*
X74072750Y-101092000D01*
X73914000Y-101250750D01*
X57908066Y-101250750D01*
X57839090Y-101143559D01*
X57626890Y-100998569D01*
X57375000Y-100947560D01*
X57275000Y-100947560D01*
X57275000Y-100481844D01*
X57341441Y-100439090D01*
X57486431Y-100226890D01*
X57537440Y-99975000D01*
X57537440Y-98775000D01*
X57493162Y-98539683D01*
X57419380Y-98425022D01*
X57486431Y-98326890D01*
X57488899Y-98314701D01*
X58136599Y-98962401D01*
X58383161Y-99127148D01*
X58674000Y-99185000D01*
X58812080Y-99185000D01*
X58832838Y-99295317D01*
X58971910Y-99511441D01*
X59184110Y-99656431D01*
X59436000Y-99707440D01*
X60706000Y-99707440D01*
X60941317Y-99663162D01*
X60957099Y-99653007D01*
X60962110Y-99656431D01*
X61214000Y-99707440D01*
X62111284Y-99707440D01*
X62193161Y-99762148D01*
X62484000Y-99820000D01*
X64584953Y-99820000D01*
X64653106Y-99984943D01*
X65112637Y-100445278D01*
X65713352Y-100694716D01*
X66363795Y-100695284D01*
X66964943Y-100446894D01*
X67425278Y-99987363D01*
X67674716Y-99386648D01*
X67675284Y-98736205D01*
X67426894Y-98135057D01*
X66967363Y-97674722D01*
X66568860Y-97509250D01*
X66568860Y-96485750D01*
X67275710Y-96485750D01*
X67275710Y-96726359D01*
X67372383Y-96959748D01*
X67551011Y-97138377D01*
X67784400Y-97235050D01*
X68525390Y-97235050D01*
X68684140Y-97076300D01*
X68684140Y-96327000D01*
X68938140Y-96327000D01*
X68938140Y-97076300D01*
X69096890Y-97235050D01*
X69837880Y-97235050D01*
X70071269Y-97138377D01*
X70249897Y-96959748D01*
X70346570Y-96726359D01*
X70346570Y-96485750D01*
X70187820Y-96327000D01*
X68938140Y-96327000D01*
X68684140Y-96327000D01*
X67434460Y-96327000D01*
X67275710Y-96485750D01*
X66568860Y-96485750D01*
X66568860Y-96297490D01*
X66709290Y-96297490D01*
X66944607Y-96253212D01*
X67160731Y-96114140D01*
X67288542Y-95927082D01*
X67434460Y-96073000D01*
X68684140Y-96073000D01*
X68684140Y-95323700D01*
X68610440Y-95250000D01*
X68684140Y-95176300D01*
X68684140Y-94427000D01*
X68938140Y-94427000D01*
X68938140Y-95176300D01*
X69011840Y-95250000D01*
X68938140Y-95323700D01*
X68938140Y-96073000D01*
X70187820Y-96073000D01*
X70190653Y-96070167D01*
X71708838Y-96070167D01*
X71850883Y-96413943D01*
X72113673Y-96677192D01*
X72457201Y-96819838D01*
X72829167Y-96820162D01*
X73172943Y-96678117D01*
X73206118Y-96645000D01*
X73925080Y-96645000D01*
X73945838Y-96755317D01*
X74084910Y-96971441D01*
X74297110Y-97116431D01*
X74485314Y-97154543D01*
X74313683Y-97186838D01*
X74097559Y-97325910D01*
X73952569Y-97538110D01*
X73901560Y-97790000D01*
X73901560Y-99060000D01*
X73945838Y-99295317D01*
X74084910Y-99511441D01*
X74297110Y-99656431D01*
X74487569Y-99695000D01*
X74422691Y-99695000D01*
X74189302Y-99791673D01*
X74010673Y-99970301D01*
X73914000Y-100203690D01*
X73914000Y-100679250D01*
X74072750Y-100838000D01*
X76327000Y-100838000D01*
X76327000Y-100818000D01*
X76581000Y-100818000D01*
X76581000Y-100838000D01*
X78835250Y-100838000D01*
X78994000Y-100679250D01*
X78994000Y-100203690D01*
X78897327Y-99970301D01*
X78718698Y-99791673D01*
X78485309Y-99695000D01*
X78425113Y-99695000D01*
X78594317Y-99663162D01*
X78810441Y-99524090D01*
X78955431Y-99311890D01*
X79006440Y-99060000D01*
X79006440Y-97790000D01*
X78962162Y-97554683D01*
X78823090Y-97338559D01*
X78610890Y-97193569D01*
X78422686Y-97155457D01*
X78594317Y-97123162D01*
X78810441Y-96984090D01*
X78955431Y-96771890D01*
X79006440Y-96520000D01*
X79006440Y-95250000D01*
X78962162Y-95014683D01*
X78823090Y-94798559D01*
X78610890Y-94653569D01*
X78359000Y-94602560D01*
X74549000Y-94602560D01*
X74313683Y-94646838D01*
X74097559Y-94785910D01*
X73952569Y-94998110D01*
X73926873Y-95125000D01*
X73206463Y-95125000D01*
X73174327Y-95092808D01*
X72830799Y-94950162D01*
X72458833Y-94949838D01*
X72115057Y-95091883D01*
X71851808Y-95354673D01*
X71709162Y-95698201D01*
X71708838Y-96070167D01*
X70190653Y-96070167D01*
X70346570Y-95914250D01*
X70346570Y-95673641D01*
X70249897Y-95440252D01*
X70071269Y-95261623D01*
X70043209Y-95250000D01*
X70071269Y-95238377D01*
X70249897Y-95059748D01*
X70346570Y-94826359D01*
X70346570Y-94585750D01*
X70187820Y-94427000D01*
X68938140Y-94427000D01*
X68684140Y-94427000D01*
X67434460Y-94427000D01*
X67286757Y-94574703D01*
X67173380Y-94398509D01*
X66961180Y-94253519D01*
X66709290Y-94202510D01*
X64908430Y-94202510D01*
X64673113Y-94246788D01*
X64456989Y-94385860D01*
X64385833Y-94490000D01*
X57464802Y-94490000D01*
X57331350Y-94356548D01*
X57331350Y-94346076D01*
X57384950Y-94356930D01*
X57389250Y-94356930D01*
X57392463Y-94357953D01*
X57398346Y-94356930D01*
X61385450Y-94356930D01*
X61620767Y-94312652D01*
X61836891Y-94173580D01*
X61981881Y-93961380D01*
X62019899Y-93773641D01*
X67275710Y-93773641D01*
X67275710Y-94014250D01*
X67434460Y-94173000D01*
X68684140Y-94173000D01*
X68684140Y-93423700D01*
X68938140Y-93423700D01*
X68938140Y-94173000D01*
X70187820Y-94173000D01*
X70346570Y-94014250D01*
X70346570Y-93773641D01*
X70249897Y-93540252D01*
X70071269Y-93361623D01*
X69837880Y-93264950D01*
X69096890Y-93264950D01*
X68938140Y-93423700D01*
X68684140Y-93423700D01*
X68525390Y-93264950D01*
X67784400Y-93264950D01*
X67551011Y-93361623D01*
X67372383Y-93540252D01*
X67275710Y-93773641D01*
X62019899Y-93773641D01*
X62032890Y-93709490D01*
X62032890Y-91710510D01*
X61988612Y-91475193D01*
X61849540Y-91259069D01*
X61637340Y-91114079D01*
X61385450Y-91063070D01*
X57384950Y-91063070D01*
X57331350Y-91073156D01*
X57331350Y-91063452D01*
X58420000Y-89974802D01*
X59152599Y-90707401D01*
X59399160Y-90872148D01*
X59690000Y-90930000D01*
X61915198Y-90930000D01*
X62962599Y-91977401D01*
X63209160Y-92142148D01*
X63500000Y-92200000D01*
X67310000Y-92200000D01*
X67600839Y-92142148D01*
X67847401Y-91977401D01*
X69117401Y-90707401D01*
X69213593Y-90563440D01*
X69596000Y-90563440D01*
X69831317Y-90519162D01*
X70047441Y-90380090D01*
X70192431Y-90167890D01*
X70243440Y-89916000D01*
X70243440Y-87884000D01*
X70199162Y-87648683D01*
X70060090Y-87432559D01*
X69847890Y-87287569D01*
X69596000Y-87236560D01*
X67564000Y-87236560D01*
X67328683Y-87280838D01*
X67112559Y-87419910D01*
X67012144Y-87566872D01*
X67008379Y-87562812D01*
X66422946Y-87294017D01*
X66167000Y-87412633D01*
X66167000Y-88773000D01*
X66187000Y-88773000D01*
X66187000Y-89027000D01*
X66167000Y-89027000D01*
X66167000Y-90387367D01*
X66422946Y-90505983D01*
X67008379Y-90237188D01*
X67012934Y-90232276D01*
X67099910Y-90367441D01*
X67223388Y-90451810D01*
X66995198Y-90680000D01*
X63814802Y-90680000D01*
X62767401Y-89632599D01*
X62520839Y-89467852D01*
X62466672Y-89457078D01*
X62547500Y-89376250D01*
X62547500Y-86487000D01*
X62801500Y-86487000D01*
X62801500Y-89376250D01*
X62960250Y-89535000D01*
X63689809Y-89535000D01*
X63923198Y-89438327D01*
X64078581Y-89282944D01*
X64434025Y-89282944D01*
X64633615Y-89764818D01*
X65071621Y-90237188D01*
X65657054Y-90505983D01*
X65913000Y-90387367D01*
X65913000Y-89027000D01*
X64553164Y-89027000D01*
X64434025Y-89282944D01*
X64078581Y-89282944D01*
X64101827Y-89259699D01*
X64198500Y-89026310D01*
X64198500Y-88517056D01*
X64434025Y-88517056D01*
X64553164Y-88773000D01*
X65913000Y-88773000D01*
X65913000Y-87412633D01*
X65657054Y-87294017D01*
X65071621Y-87562812D01*
X64633615Y-88035182D01*
X64434025Y-88517056D01*
X64198500Y-88517056D01*
X64198500Y-86645750D01*
X64039750Y-86487000D01*
X62801500Y-86487000D01*
X62547500Y-86487000D01*
X61309250Y-86487000D01*
X61150500Y-86645750D01*
X61150500Y-89026310D01*
X61247173Y-89259699D01*
X61397475Y-89410000D01*
X60004802Y-89410000D01*
X59667473Y-89072671D01*
X59702440Y-88900000D01*
X59702440Y-84530000D01*
X61150500Y-84530000D01*
X61150500Y-86074250D01*
X61309250Y-86233000D01*
X62547500Y-86233000D01*
X62547500Y-86213000D01*
X62801500Y-86213000D01*
X62801500Y-86233000D01*
X64039750Y-86233000D01*
X64198500Y-86074250D01*
X64198500Y-84530000D01*
X89460000Y-84530000D01*
X89460000Y-135180000D01*
X45160000Y-135180000D01*
X45160000Y-86640091D01*
X45339000Y-86640091D01*
X45339000Y-87344250D01*
X45497750Y-87503000D01*
X46863000Y-87503000D01*
X46863000Y-86290150D01*
X47117000Y-86290150D01*
X47117000Y-87503000D01*
X48482250Y-87503000D01*
X48641000Y-87344250D01*
X48641000Y-86640091D01*
X48603994Y-86550750D01*
X49365000Y-86550750D01*
X49365000Y-87391309D01*
X49461673Y-87624698D01*
X49640301Y-87803327D01*
X49873690Y-87900000D01*
X50514250Y-87900000D01*
X50673000Y-87741250D01*
X50673000Y-86392000D01*
X50927000Y-86392000D01*
X50927000Y-87741250D01*
X51085750Y-87900000D01*
X51726310Y-87900000D01*
X51959699Y-87803327D01*
X52138327Y-87624698D01*
X52235000Y-87391309D01*
X52235000Y-86645750D01*
X52641500Y-86645750D01*
X52641500Y-89026310D01*
X52738173Y-89259699D01*
X52916802Y-89438327D01*
X53150191Y-89535000D01*
X53879750Y-89535000D01*
X54038500Y-89376250D01*
X54038500Y-86487000D01*
X54292500Y-86487000D01*
X54292500Y-89376250D01*
X54451250Y-89535000D01*
X55180809Y-89535000D01*
X55414198Y-89438327D01*
X55592827Y-89259699D01*
X55689500Y-89026310D01*
X55689500Y-86645750D01*
X55530750Y-86487000D01*
X54292500Y-86487000D01*
X54038500Y-86487000D01*
X52800250Y-86487000D01*
X52641500Y-86645750D01*
X52235000Y-86645750D01*
X52235000Y-86550750D01*
X52076250Y-86392000D01*
X50927000Y-86392000D01*
X50673000Y-86392000D01*
X49523750Y-86392000D01*
X49365000Y-86550750D01*
X48603994Y-86550750D01*
X48544327Y-86406702D01*
X48365699Y-86228073D01*
X48132310Y-86131400D01*
X47275750Y-86131400D01*
X47117000Y-86290150D01*
X46863000Y-86290150D01*
X46704250Y-86131400D01*
X45847690Y-86131400D01*
X45614301Y-86228073D01*
X45435673Y-86406702D01*
X45339000Y-86640091D01*
X45160000Y-86640091D01*
X45160000Y-85138691D01*
X49365000Y-85138691D01*
X49365000Y-85979250D01*
X49523750Y-86138000D01*
X50673000Y-86138000D01*
X50673000Y-84788750D01*
X50927000Y-84788750D01*
X50927000Y-86138000D01*
X52076250Y-86138000D01*
X52235000Y-85979250D01*
X52235000Y-85138691D01*
X52138327Y-84905302D01*
X51959699Y-84726673D01*
X51726310Y-84630000D01*
X51085750Y-84630000D01*
X50927000Y-84788750D01*
X50673000Y-84788750D01*
X50514250Y-84630000D01*
X49873690Y-84630000D01*
X49640301Y-84726673D01*
X49461673Y-84905302D01*
X49365000Y-85138691D01*
X45160000Y-85138691D01*
X45160000Y-84530000D01*
X52641500Y-84530000D01*
X52641500Y-86074250D01*
G36*
X51539673Y-106075192D02*
X51883201Y-106217838D01*
X52255167Y-106218162D01*
X52363443Y-106173423D01*
X52317560Y-106400000D01*
X52317560Y-107600000D01*
X52361838Y-107835317D01*
X52435620Y-107949978D01*
X52368569Y-108048110D01*
X52317560Y-108300000D01*
X52317560Y-109500000D01*
X52361838Y-109735317D01*
X52500910Y-109951441D01*
X52580000Y-110005481D01*
X52580000Y-110962708D01*
X52463569Y-111133110D01*
X52412560Y-111385000D01*
X52412560Y-112135000D01*
X52456838Y-112370317D01*
X52595910Y-112586441D01*
X52808110Y-112731431D01*
X53060000Y-112782440D01*
X54260000Y-112782440D01*
X54495317Y-112738162D01*
X54609978Y-112664380D01*
X54708110Y-112731431D01*
X54800000Y-112750039D01*
X54800000Y-113192560D01*
X53810000Y-113192560D01*
X53574683Y-113236838D01*
X53358559Y-113375910D01*
X53213569Y-113588110D01*
X53162560Y-113840000D01*
X53162560Y-115840000D01*
X53206838Y-116075317D01*
X53345910Y-116291441D01*
X53558110Y-116436431D01*
X53810000Y-116487440D01*
X55410000Y-116487440D01*
X55645317Y-116443162D01*
X55861441Y-116304090D01*
X56006431Y-116091890D01*
X56057440Y-115840000D01*
X56057440Y-114467362D01*
X56097401Y-114427401D01*
X56262148Y-114180839D01*
X56320000Y-113890000D01*
X56320000Y-112752334D01*
X56395317Y-112738162D01*
X56611441Y-112599090D01*
X56665481Y-112520000D01*
X57622708Y-112520000D01*
X57660000Y-112545481D01*
X57660000Y-112776000D01*
X57717852Y-113066839D01*
X57738940Y-113098399D01*
X57738838Y-113215167D01*
X57880883Y-113558943D01*
X58143673Y-113822192D01*
X58487201Y-113964838D01*
X58762560Y-113965078D01*
X58762560Y-114675000D01*
X58806838Y-114910317D01*
X58945910Y-115126441D01*
X59158110Y-115271431D01*
X59410000Y-115322440D01*
X60610000Y-115322440D01*
X60845317Y-115278162D01*
X60959978Y-115204380D01*
X61058110Y-115271431D01*
X61310000Y-115322440D01*
X61316498Y-115322440D01*
X61372599Y-115406401D01*
X61783758Y-115817560D01*
X61310000Y-115817560D01*
X61074683Y-115861838D01*
X60960022Y-115935620D01*
X60861890Y-115868569D01*
X60610000Y-115817560D01*
X59410000Y-115817560D01*
X59174683Y-115861838D01*
X58958559Y-116000910D01*
X58813569Y-116213110D01*
X58762560Y-116465000D01*
X58762560Y-117012638D01*
X57695198Y-118080000D01*
X56057440Y-118080000D01*
X56057440Y-117840000D01*
X56013162Y-117604683D01*
X55874090Y-117388559D01*
X55661890Y-117243569D01*
X55410000Y-117192560D01*
X53810000Y-117192560D01*
X53574683Y-117236838D01*
X53358559Y-117375910D01*
X53213569Y-117588110D01*
X53162560Y-117840000D01*
X53162560Y-119840000D01*
X53206838Y-120075317D01*
X53345910Y-120291441D01*
X53558110Y-120436431D01*
X53810000Y-120487440D01*
X55410000Y-120487440D01*
X55645317Y-120443162D01*
X55861441Y-120304090D01*
X56006431Y-120091890D01*
X56057440Y-119840000D01*
X56057440Y-119600000D01*
X58010000Y-119600000D01*
X58300839Y-119542148D01*
X58547401Y-119377401D01*
X58946189Y-118978613D01*
X58930000Y-119060000D01*
X58930000Y-119863156D01*
X58863559Y-119905910D01*
X58718569Y-120118110D01*
X58667560Y-120370000D01*
X58667560Y-121570000D01*
X58711838Y-121805317D01*
X58785620Y-121919978D01*
X58718569Y-122018110D01*
X58667560Y-122270000D01*
X58667560Y-123470000D01*
X58711838Y-123705317D01*
X58850910Y-123921441D01*
X59063110Y-124066431D01*
X59315000Y-124117440D01*
X60065000Y-124117440D01*
X60300317Y-124073162D01*
X60516441Y-123934090D01*
X60661431Y-123721890D01*
X60680039Y-123630000D01*
X63693000Y-123630000D01*
X63983839Y-123572148D01*
X64230401Y-123407401D01*
X65552560Y-122085242D01*
X65552560Y-122437500D01*
X65571982Y-122540716D01*
X63142698Y-124970000D01*
X63016844Y-124970000D01*
X62974090Y-124903559D01*
X62761890Y-124758569D01*
X62510000Y-124707560D01*
X61310000Y-124707560D01*
X61074683Y-124751838D01*
X60971354Y-124818329D01*
X60969698Y-124816673D01*
X60736309Y-124720000D01*
X60295750Y-124720000D01*
X60137000Y-124878750D01*
X60137000Y-125603000D01*
X60157000Y-125603000D01*
X60157000Y-125857000D01*
X60137000Y-125857000D01*
X60137000Y-125877000D01*
X59883000Y-125877000D01*
X59883000Y-125857000D01*
X58933750Y-125857000D01*
X58775000Y-126015750D01*
X58775000Y-126231310D01*
X58871673Y-126464699D01*
X59050302Y-126643327D01*
X59283691Y-126740000D01*
X59724250Y-126740000D01*
X59882998Y-126581252D01*
X59882998Y-126682200D01*
X59563198Y-127002000D01*
X57972802Y-127002000D01*
X56199492Y-125228690D01*
X58775000Y-125228690D01*
X58775000Y-125444250D01*
X58933750Y-125603000D01*
X59883000Y-125603000D01*
X59883000Y-124878750D01*
X59724250Y-124720000D01*
X59283691Y-124720000D01*
X59050302Y-124816673D01*
X58871673Y-124995301D01*
X58775000Y-125228690D01*
X56199492Y-125228690D01*
X51306000Y-120335198D01*
X51306000Y-105841111D01*
X51539673Y-106075192D01*
X51539673Y-106075192D01*
G37*
X51539673Y-106075192D02*
X51883201Y-106217838D01*
X52255167Y-106218162D01*
X52363443Y-106173423D01*
X52317560Y-106400000D01*
X52317560Y-107600000D01*
X52361838Y-107835317D01*
X52435620Y-107949978D01*
X52368569Y-108048110D01*
X52317560Y-108300000D01*
X52317560Y-109500000D01*
X52361838Y-109735317D01*
X52500910Y-109951441D01*
X52580000Y-110005481D01*
X52580000Y-110962708D01*
X52463569Y-111133110D01*
X52412560Y-111385000D01*
X52412560Y-112135000D01*
X52456838Y-112370317D01*
X52595910Y-112586441D01*
X52808110Y-112731431D01*
X53060000Y-112782440D01*
X54260000Y-112782440D01*
X54495317Y-112738162D01*
X54609978Y-112664380D01*
X54708110Y-112731431D01*
X54800000Y-112750039D01*
X54800000Y-113192560D01*
X53810000Y-113192560D01*
X53574683Y-113236838D01*
X53358559Y-113375910D01*
X53213569Y-113588110D01*
X53162560Y-113840000D01*
X53162560Y-115840000D01*
X53206838Y-116075317D01*
X53345910Y-116291441D01*
X53558110Y-116436431D01*
X53810000Y-116487440D01*
X55410000Y-116487440D01*
X55645317Y-116443162D01*
X55861441Y-116304090D01*
X56006431Y-116091890D01*
X56057440Y-115840000D01*
X56057440Y-114467362D01*
X56097401Y-114427401D01*
X56262148Y-114180839D01*
X56320000Y-113890000D01*
X56320000Y-112752334D01*
X56395317Y-112738162D01*
X56611441Y-112599090D01*
X56665481Y-112520000D01*
X57622708Y-112520000D01*
X57660000Y-112545481D01*
X57660000Y-112776000D01*
X57717852Y-113066839D01*
X57738940Y-113098399D01*
X57738838Y-113215167D01*
X57880883Y-113558943D01*
X58143673Y-113822192D01*
X58487201Y-113964838D01*
X58762560Y-113965078D01*
X58762560Y-114675000D01*
X58806838Y-114910317D01*
X58945910Y-115126441D01*
X59158110Y-115271431D01*
X59410000Y-115322440D01*
X60610000Y-115322440D01*
X60845317Y-115278162D01*
X60959978Y-115204380D01*
X61058110Y-115271431D01*
X61310000Y-115322440D01*
X61316498Y-115322440D01*
X61372599Y-115406401D01*
X61783758Y-115817560D01*
X61310000Y-115817560D01*
X61074683Y-115861838D01*
X60960022Y-115935620D01*
X60861890Y-115868569D01*
X60610000Y-115817560D01*
X59410000Y-115817560D01*
X59174683Y-115861838D01*
X58958559Y-116000910D01*
X58813569Y-116213110D01*
X58762560Y-116465000D01*
X58762560Y-117012638D01*
X57695198Y-118080000D01*
X56057440Y-118080000D01*
X56057440Y-117840000D01*
X56013162Y-117604683D01*
X55874090Y-117388559D01*
X55661890Y-117243569D01*
X55410000Y-117192560D01*
X53810000Y-117192560D01*
X53574683Y-117236838D01*
X53358559Y-117375910D01*
X53213569Y-117588110D01*
X53162560Y-117840000D01*
X53162560Y-119840000D01*
X53206838Y-120075317D01*
X53345910Y-120291441D01*
X53558110Y-120436431D01*
X53810000Y-120487440D01*
X55410000Y-120487440D01*
X55645317Y-120443162D01*
X55861441Y-120304090D01*
X56006431Y-120091890D01*
X56057440Y-119840000D01*
X56057440Y-119600000D01*
X58010000Y-119600000D01*
X58300839Y-119542148D01*
X58547401Y-119377401D01*
X58946189Y-118978613D01*
X58930000Y-119060000D01*
X58930000Y-119863156D01*
X58863559Y-119905910D01*
X58718569Y-120118110D01*
X58667560Y-120370000D01*
X58667560Y-121570000D01*
X58711838Y-121805317D01*
X58785620Y-121919978D01*
X58718569Y-122018110D01*
X58667560Y-122270000D01*
X58667560Y-123470000D01*
X58711838Y-123705317D01*
X58850910Y-123921441D01*
X59063110Y-124066431D01*
X59315000Y-124117440D01*
X60065000Y-124117440D01*
X60300317Y-124073162D01*
X60516441Y-123934090D01*
X60661431Y-123721890D01*
X60680039Y-123630000D01*
X63693000Y-123630000D01*
X63983839Y-123572148D01*
X64230401Y-123407401D01*
X65552560Y-122085242D01*
X65552560Y-122437500D01*
X65571982Y-122540716D01*
X63142698Y-124970000D01*
X63016844Y-124970000D01*
X62974090Y-124903559D01*
X62761890Y-124758569D01*
X62510000Y-124707560D01*
X61310000Y-124707560D01*
X61074683Y-124751838D01*
X60971354Y-124818329D01*
X60969698Y-124816673D01*
X60736309Y-124720000D01*
X60295750Y-124720000D01*
X60137000Y-124878750D01*
X60137000Y-125603000D01*
X60157000Y-125603000D01*
X60157000Y-125857000D01*
X60137000Y-125857000D01*
X60137000Y-125877000D01*
X59883000Y-125877000D01*
X59883000Y-125857000D01*
X58933750Y-125857000D01*
X58775000Y-126015750D01*
X58775000Y-126231310D01*
X58871673Y-126464699D01*
X59050302Y-126643327D01*
X59283691Y-126740000D01*
X59724250Y-126740000D01*
X59882998Y-126581252D01*
X59882998Y-126682200D01*
X59563198Y-127002000D01*
X57972802Y-127002000D01*
X56199492Y-125228690D01*
X58775000Y-125228690D01*
X58775000Y-125444250D01*
X58933750Y-125603000D01*
X59883000Y-125603000D01*
X59883000Y-124878750D01*
X59724250Y-124720000D01*
X59283691Y-124720000D01*
X59050302Y-124816673D01*
X58871673Y-124995301D01*
X58775000Y-125228690D01*
X56199492Y-125228690D01*
X51306000Y-120335198D01*
X51306000Y-105841111D01*
X51539673Y-106075192D01*
G36*
X81805910Y-107506441D02*
X82018110Y-107651431D01*
X82270000Y-107702440D01*
X83470000Y-107702440D01*
X83705317Y-107658162D01*
X83819978Y-107584380D01*
X83918110Y-107651431D01*
X84010000Y-107670039D01*
X84010000Y-108227666D01*
X83934683Y-108241838D01*
X83820022Y-108315620D01*
X83721890Y-108248569D01*
X83470000Y-108197560D01*
X82270000Y-108197560D01*
X82034683Y-108241838D01*
X81818559Y-108380910D01*
X81673569Y-108593110D01*
X81622560Y-108845000D01*
X81622560Y-109595000D01*
X81666838Y-109830317D01*
X81805910Y-110046441D01*
X82018110Y-110191431D01*
X82270000Y-110242440D01*
X82273157Y-110242440D01*
X82332599Y-110331401D01*
X82999198Y-110998000D01*
X82624638Y-111372560D01*
X82270000Y-111372560D01*
X82034683Y-111416838D01*
X81818559Y-111555910D01*
X81673569Y-111768110D01*
X81622560Y-112020000D01*
X81622560Y-112770000D01*
X81666838Y-113005317D01*
X81805910Y-113221441D01*
X82018110Y-113366431D01*
X82270000Y-113417440D01*
X83470000Y-113417440D01*
X83705317Y-113373162D01*
X83819978Y-113299380D01*
X83918110Y-113366431D01*
X84010000Y-113385039D01*
X84010000Y-113942666D01*
X83934683Y-113956838D01*
X83820022Y-114030620D01*
X83721890Y-113963569D01*
X83470000Y-113912560D01*
X82270000Y-113912560D01*
X82034683Y-113956838D01*
X81818559Y-114095910D01*
X81764519Y-114175000D01*
X80796844Y-114175000D01*
X80754090Y-114108559D01*
X80541890Y-113963569D01*
X80450000Y-113944961D01*
X80450000Y-113387334D01*
X80525317Y-113373162D01*
X80741441Y-113234090D01*
X80886431Y-113021890D01*
X80937440Y-112770000D01*
X80937440Y-112020000D01*
X80893162Y-111784683D01*
X80754090Y-111568559D01*
X80541890Y-111423569D01*
X80290000Y-111372560D01*
X79090000Y-111372560D01*
X78854683Y-111416838D01*
X78740022Y-111490620D01*
X78641890Y-111423569D01*
X78390000Y-111372560D01*
X77190000Y-111372560D01*
X76954683Y-111416838D01*
X76738559Y-111555910D01*
X76593569Y-111768110D01*
X76579000Y-111840054D01*
X76579000Y-111505802D01*
X77842362Y-110242440D01*
X78390000Y-110242440D01*
X78625317Y-110198162D01*
X78739978Y-110124380D01*
X78838110Y-110191431D01*
X79090000Y-110242440D01*
X80290000Y-110242440D01*
X80525317Y-110198162D01*
X80741441Y-110059090D01*
X80886431Y-109846890D01*
X80937440Y-109595000D01*
X80937440Y-108845000D01*
X80893162Y-108609683D01*
X80754090Y-108393559D01*
X80541890Y-108248569D01*
X80450000Y-108229961D01*
X80450000Y-107672334D01*
X80525317Y-107658162D01*
X80741441Y-107519090D01*
X80795481Y-107440000D01*
X81763156Y-107440000D01*
X81805910Y-107506441D01*
X81805910Y-107506441D01*
G37*
X81805910Y-107506441D02*
X82018110Y-107651431D01*
X82270000Y-107702440D01*
X83470000Y-107702440D01*
X83705317Y-107658162D01*
X83819978Y-107584380D01*
X83918110Y-107651431D01*
X84010000Y-107670039D01*
X84010000Y-108227666D01*
X83934683Y-108241838D01*
X83820022Y-108315620D01*
X83721890Y-108248569D01*
X83470000Y-108197560D01*
X82270000Y-108197560D01*
X82034683Y-108241838D01*
X81818559Y-108380910D01*
X81673569Y-108593110D01*
X81622560Y-108845000D01*
X81622560Y-109595000D01*
X81666838Y-109830317D01*
X81805910Y-110046441D01*
X82018110Y-110191431D01*
X82270000Y-110242440D01*
X82273157Y-110242440D01*
X82332599Y-110331401D01*
X82999198Y-110998000D01*
X82624638Y-111372560D01*
X82270000Y-111372560D01*
X82034683Y-111416838D01*
X81818559Y-111555910D01*
X81673569Y-111768110D01*
X81622560Y-112020000D01*
X81622560Y-112770000D01*
X81666838Y-113005317D01*
X81805910Y-113221441D01*
X82018110Y-113366431D01*
X82270000Y-113417440D01*
X83470000Y-113417440D01*
X83705317Y-113373162D01*
X83819978Y-113299380D01*
X83918110Y-113366431D01*
X84010000Y-113385039D01*
X84010000Y-113942666D01*
X83934683Y-113956838D01*
X83820022Y-114030620D01*
X83721890Y-113963569D01*
X83470000Y-113912560D01*
X82270000Y-113912560D01*
X82034683Y-113956838D01*
X81818559Y-114095910D01*
X81764519Y-114175000D01*
X80796844Y-114175000D01*
X80754090Y-114108559D01*
X80541890Y-113963569D01*
X80450000Y-113944961D01*
X80450000Y-113387334D01*
X80525317Y-113373162D01*
X80741441Y-113234090D01*
X80886431Y-113021890D01*
X80937440Y-112770000D01*
X80937440Y-112020000D01*
X80893162Y-111784683D01*
X80754090Y-111568559D01*
X80541890Y-111423569D01*
X80290000Y-111372560D01*
X79090000Y-111372560D01*
X78854683Y-111416838D01*
X78740022Y-111490620D01*
X78641890Y-111423569D01*
X78390000Y-111372560D01*
X77190000Y-111372560D01*
X76954683Y-111416838D01*
X76738559Y-111555910D01*
X76593569Y-111768110D01*
X76579000Y-111840054D01*
X76579000Y-111505802D01*
X77842362Y-110242440D01*
X78390000Y-110242440D01*
X78625317Y-110198162D01*
X78739978Y-110124380D01*
X78838110Y-110191431D01*
X79090000Y-110242440D01*
X80290000Y-110242440D01*
X80525317Y-110198162D01*
X80741441Y-110059090D01*
X80886431Y-109846890D01*
X80937440Y-109595000D01*
X80937440Y-108845000D01*
X80893162Y-108609683D01*
X80754090Y-108393559D01*
X80541890Y-108248569D01*
X80450000Y-108229961D01*
X80450000Y-107672334D01*
X80525317Y-107658162D01*
X80741441Y-107519090D01*
X80795481Y-107440000D01*
X81763156Y-107440000D01*
X81805910Y-107506441D01*
M02*
