G04 #@! TF.FileFunction,Legend,Bot*
%FSLAX46Y46*%
G04 Gerber Fmt 4.6, Leading zero omitted, Abs format (unit mm)*
G04 Created by KiCad (PCBNEW 4.0.4+e1-6308~48~ubuntu16.04.1-stable) date Mon Oct 24 16:38:44 2016*
%MOMM*%
%LPD*%
G01*
G04 APERTURE LIST*
%ADD10C,0.100000*%
%ADD11C,0.300000*%
G04 APERTURE END LIST*
D10*
D11*
X74251429Y-118827141D02*
X75751429Y-118827141D01*
X75751429Y-118469998D01*
X75680000Y-118255713D01*
X75537143Y-118112855D01*
X75394286Y-118041427D01*
X75108571Y-117969998D01*
X74894286Y-117969998D01*
X74608571Y-118041427D01*
X74465714Y-118112855D01*
X74322857Y-118255713D01*
X74251429Y-118469998D01*
X74251429Y-118827141D01*
X75037143Y-116827141D02*
X74965714Y-116612855D01*
X74894286Y-116541427D01*
X74751429Y-116469998D01*
X74537143Y-116469998D01*
X74394286Y-116541427D01*
X74322857Y-116612855D01*
X74251429Y-116755713D01*
X74251429Y-117327141D01*
X75751429Y-117327141D01*
X75751429Y-116827141D01*
X75680000Y-116684284D01*
X75608571Y-116612855D01*
X75465714Y-116541427D01*
X75322857Y-116541427D01*
X75180000Y-116612855D01*
X75108571Y-116684284D01*
X75037143Y-116827141D01*
X75037143Y-117327141D01*
X74108571Y-116184284D02*
X74108571Y-115041427D01*
X75751429Y-114898570D02*
X75751429Y-114041427D01*
X74251429Y-114469998D02*
X75751429Y-114469998D01*
X74251429Y-112684284D02*
X74965714Y-113184284D01*
X74251429Y-113541427D02*
X75751429Y-113541427D01*
X75751429Y-112969999D01*
X75680000Y-112827141D01*
X75608571Y-112755713D01*
X75465714Y-112684284D01*
X75251429Y-112684284D01*
X75108571Y-112755713D01*
X75037143Y-112827141D01*
X74965714Y-112969999D01*
X74965714Y-113541427D01*
X74322857Y-112112856D02*
X74251429Y-111898570D01*
X74251429Y-111541427D01*
X74322857Y-111398570D01*
X74394286Y-111327141D01*
X74537143Y-111255713D01*
X74680000Y-111255713D01*
X74822857Y-111327141D01*
X74894286Y-111398570D01*
X74965714Y-111541427D01*
X75037143Y-111827141D01*
X75108571Y-111969999D01*
X75180000Y-112041427D01*
X75322857Y-112112856D01*
X75465714Y-112112856D01*
X75608571Y-112041427D01*
X75680000Y-111969999D01*
X75751429Y-111827141D01*
X75751429Y-111469999D01*
X75680000Y-111255713D01*
X74108571Y-110969999D02*
X74108571Y-109827142D01*
X75751429Y-109684285D02*
X75751429Y-108827142D01*
X74251429Y-109255713D02*
X75751429Y-109255713D01*
X75680000Y-107541428D02*
X75751429Y-107684285D01*
X75751429Y-107898571D01*
X75680000Y-108112856D01*
X75537143Y-108255714D01*
X75394286Y-108327142D01*
X75108571Y-108398571D01*
X74894286Y-108398571D01*
X74608571Y-108327142D01*
X74465714Y-108255714D01*
X74322857Y-108112856D01*
X74251429Y-107898571D01*
X74251429Y-107755714D01*
X74322857Y-107541428D01*
X74394286Y-107469999D01*
X74894286Y-107469999D01*
X74894286Y-107755714D01*
X74394286Y-105969999D02*
X74322857Y-106041428D01*
X74251429Y-106255714D01*
X74251429Y-106398571D01*
X74322857Y-106612856D01*
X74465714Y-106755714D01*
X74608571Y-106827142D01*
X74894286Y-106898571D01*
X75108571Y-106898571D01*
X75394286Y-106827142D01*
X75537143Y-106755714D01*
X75680000Y-106612856D01*
X75751429Y-106398571D01*
X75751429Y-106255714D01*
X75680000Y-106041428D01*
X75608571Y-105969999D01*
X74108571Y-105684285D02*
X74108571Y-104541428D01*
X75751429Y-104398571D02*
X74251429Y-103898571D01*
X75751429Y-103398571D01*
X74251429Y-102112857D02*
X74251429Y-102970000D01*
X74251429Y-102541428D02*
X75751429Y-102541428D01*
X75537143Y-102684285D01*
X75394286Y-102827143D01*
X75322857Y-102970000D01*
X74108571Y-101827143D02*
X74108571Y-100684286D01*
X75608571Y-100398572D02*
X75680000Y-100327143D01*
X75751429Y-100184286D01*
X75751429Y-99827143D01*
X75680000Y-99684286D01*
X75608571Y-99612857D01*
X75465714Y-99541429D01*
X75322857Y-99541429D01*
X75108571Y-99612857D01*
X74251429Y-100470000D01*
X74251429Y-99541429D01*
M02*
