G04 #@! TF.FileFunction,Legend,Top*
%FSLAX46Y46*%
G04 Gerber Fmt 4.6, Leading zero omitted, Abs format (unit mm)*
G04 Created by KiCad (PCBNEW 4.0.4+e1-6308~48~ubuntu16.04.1-stable) date Mon Oct 24 16:38:44 2016*
%MOMM*%
%LPD*%
G01*
G04 APERTURE LIST*
%ADD10C,0.100000*%
%ADD11C,0.300000*%
%ADD12C,0.150000*%
G04 APERTURE END LIST*
D10*
D11*
X75021429Y-134028571D02*
X74307143Y-134028571D01*
X74307143Y-132528571D01*
X75807143Y-132528571D02*
X76092857Y-132528571D01*
X76235715Y-132600000D01*
X76378572Y-132742857D01*
X76450000Y-133028571D01*
X76450000Y-133528571D01*
X76378572Y-133814286D01*
X76235715Y-133957143D01*
X76092857Y-134028571D01*
X75807143Y-134028571D01*
X75664286Y-133957143D01*
X75521429Y-133814286D01*
X75450000Y-133528571D01*
X75450000Y-133028571D01*
X75521429Y-132742857D01*
X75664286Y-132600000D01*
X75807143Y-132528571D01*
X76950001Y-132528571D02*
X77307144Y-134028571D01*
X77592858Y-132957143D01*
X77878572Y-134028571D01*
X78235715Y-132528571D01*
X63984286Y-134028571D02*
X63984286Y-132528571D01*
X63984286Y-133242857D02*
X64841429Y-133242857D01*
X64841429Y-134028571D02*
X64841429Y-132528571D01*
X65555715Y-134028571D02*
X65555715Y-132528571D01*
D12*
X45720000Y-88900000D02*
X45720000Y-134620000D01*
X45720000Y-134620000D02*
X48260000Y-134620000D01*
X48260000Y-134620000D02*
X48260000Y-88900000D01*
X45440000Y-86080000D02*
X45440000Y-87630000D01*
X45720000Y-88900000D02*
X48260000Y-88900000D01*
X48540000Y-87630000D02*
X48540000Y-86080000D01*
X48540000Y-86080000D02*
X45440000Y-86080000D01*
X55745000Y-104820000D02*
G75*
G03X55745000Y-104820000I-100000J0D01*
G01*
X54995000Y-104320000D02*
X55495000Y-104320000D01*
X54995000Y-101420000D02*
X54995000Y-104320000D01*
X55495000Y-101420000D02*
X54995000Y-101420000D01*
X55495000Y-104320000D02*
X55495000Y-101420000D01*
X49775000Y-87265000D02*
X49775000Y-89265000D01*
X51825000Y-89265000D02*
X51825000Y-87265000D01*
X54260000Y-111160000D02*
X54960000Y-111160000D01*
X54960000Y-112360000D02*
X54260000Y-112360000D01*
X59020000Y-110140000D02*
X59020000Y-110840000D01*
X57820000Y-110840000D02*
X57820000Y-110140000D01*
X60290000Y-121570000D02*
X60290000Y-122270000D01*
X59090000Y-122270000D02*
X59090000Y-121570000D01*
X57115000Y-98075000D02*
X57115000Y-98775000D01*
X55915000Y-98775000D02*
X55915000Y-98075000D01*
X62195000Y-110140000D02*
X62195000Y-110840000D01*
X60995000Y-110840000D02*
X60995000Y-110140000D01*
X62830000Y-120300000D02*
X62830000Y-121000000D01*
X61630000Y-121000000D02*
X61630000Y-120300000D01*
X65370000Y-110140000D02*
X65370000Y-110840000D01*
X64170000Y-110840000D02*
X64170000Y-110140000D01*
X61310000Y-126330000D02*
X60610000Y-126330000D01*
X60610000Y-125130000D02*
X61310000Y-125130000D01*
X78390000Y-124495000D02*
X79090000Y-124495000D01*
X79090000Y-125695000D02*
X78390000Y-125695000D01*
X78390000Y-121955000D02*
X79090000Y-121955000D01*
X79090000Y-123155000D02*
X78390000Y-123155000D01*
X78070000Y-118395000D02*
X78070000Y-119095000D01*
X76870000Y-119095000D02*
X76870000Y-118395000D01*
X84170000Y-107280000D02*
X83470000Y-107280000D01*
X83470000Y-106080000D02*
X84170000Y-106080000D01*
X84170000Y-115535000D02*
X83470000Y-115535000D01*
X83470000Y-114335000D02*
X84170000Y-114335000D01*
X53940000Y-107600000D02*
X53940000Y-108300000D01*
X52740000Y-108300000D02*
X52740000Y-107600000D01*
X60610000Y-113700000D02*
X61310000Y-113700000D01*
X61310000Y-114900000D02*
X60610000Y-114900000D01*
X78390000Y-108620000D02*
X79090000Y-108620000D01*
X79090000Y-109820000D02*
X78390000Y-109820000D01*
X78390000Y-114335000D02*
X79090000Y-114335000D01*
X79090000Y-115535000D02*
X78390000Y-115535000D01*
X80930000Y-116875000D02*
X81630000Y-116875000D01*
X81630000Y-118075000D02*
X80930000Y-118075000D01*
X64770000Y-78800000D02*
X64770000Y-87630000D01*
X67310000Y-78800000D02*
X64770000Y-78800000D01*
X67310000Y-87630000D02*
X67310000Y-78800000D01*
X67310000Y-87630000D02*
X64770000Y-87630000D01*
X69850000Y-87630000D02*
X67310000Y-87630000D01*
X68580000Y-90300000D02*
X70130000Y-90300000D01*
X70130000Y-90300000D02*
X70130000Y-88900000D01*
X69850000Y-87630000D02*
X69850000Y-78800000D01*
X69850000Y-78800000D02*
X67310000Y-78800000D01*
X67310000Y-78800000D02*
X67310000Y-87630000D01*
X60610000Y-116240000D02*
X61310000Y-116240000D01*
X61310000Y-117440000D02*
X60610000Y-117440000D01*
X53375000Y-98775000D02*
X53375000Y-98075000D01*
X54575000Y-98075000D02*
X54575000Y-98775000D01*
X79090000Y-107280000D02*
X78390000Y-107280000D01*
X78390000Y-106080000D02*
X79090000Y-106080000D01*
X79090000Y-112995000D02*
X78390000Y-112995000D01*
X78390000Y-111795000D02*
X79090000Y-111795000D01*
X83470000Y-108620000D02*
X84170000Y-108620000D01*
X84170000Y-109820000D02*
X83470000Y-109820000D01*
X83470000Y-111795000D02*
X84170000Y-111795000D01*
X84170000Y-112995000D02*
X83470000Y-112995000D01*
X66040000Y-134620000D02*
X66040000Y-132080000D01*
X66040000Y-132080000D02*
X73660000Y-132080000D01*
X73660000Y-132080000D02*
X73660000Y-134620000D01*
X73660000Y-134620000D02*
X66040000Y-134620000D01*
X68580000Y-132080000D02*
X68580000Y-134620000D01*
X57584340Y-90810080D02*
X57884060Y-91059000D01*
X57884060Y-91059000D02*
X58033920Y-91160600D01*
X58033920Y-91160600D02*
X57185560Y-91160600D01*
X59085480Y-90459560D02*
X57284620Y-90459560D01*
X59085480Y-90459560D02*
X59085480Y-91109800D01*
X59085480Y-94960440D02*
X57284620Y-94960440D01*
X59085480Y-94960440D02*
X59085480Y-94310200D01*
X72175000Y-115930000D02*
X72175000Y-116030000D01*
X72175000Y-122755000D02*
X72175000Y-122730000D01*
X67525000Y-122755000D02*
X67525000Y-122730000D01*
X66450000Y-115930000D02*
X72175000Y-115930000D01*
X67525000Y-122755000D02*
X72175000Y-122755000D01*
X67440000Y-99060000D02*
G75*
G03X67440000Y-99060000I-1400000J0D01*
G01*
X63500000Y-88900000D02*
X53340000Y-88900000D01*
X53340000Y-88900000D02*
X53340000Y-83820000D01*
X53340000Y-83820000D02*
X63500000Y-83820000D01*
X63500000Y-83820000D02*
X63500000Y-88900000D01*
X67360800Y-96749820D02*
X66659760Y-96749820D01*
X66659760Y-96749820D02*
X66659760Y-96500900D01*
X66659760Y-93950840D02*
X66659760Y-93750180D01*
X66659760Y-93750180D02*
X67360800Y-93750180D01*
X52340000Y-131835000D02*
X54340000Y-131835000D01*
X54340000Y-129785000D02*
X52340000Y-129785000D01*
X55635000Y-117840000D02*
X55635000Y-115840000D01*
X53585000Y-115840000D02*
X53585000Y-117840000D01*
X75692000Y-95250000D02*
G75*
G03X75692000Y-95250000I-127000J0D01*
G01*
X74930000Y-102235000D02*
X74930000Y-94615000D01*
X74930000Y-94615000D02*
X83820000Y-94615000D01*
X83820000Y-102235000D02*
X74930000Y-102235000D01*
X83185000Y-102235000D02*
X83185000Y-102235000D01*
X83820000Y-94615000D02*
X83820000Y-102235000D01*
X48537905Y-95829381D02*
X48537905Y-94829381D01*
X48918858Y-94829381D01*
X49014096Y-94877000D01*
X49061715Y-94924619D01*
X49109334Y-95019857D01*
X49109334Y-95162714D01*
X49061715Y-95257952D01*
X49014096Y-95305571D01*
X48918858Y-95353190D01*
X48537905Y-95353190D01*
X49490286Y-94924619D02*
X49537905Y-94877000D01*
X49633143Y-94829381D01*
X49871239Y-94829381D01*
X49966477Y-94877000D01*
X50014096Y-94924619D01*
X50061715Y-95019857D01*
X50061715Y-95115095D01*
X50014096Y-95257952D01*
X49442667Y-95829381D01*
X50061715Y-95829381D01*
X46228096Y-84590000D02*
X46132858Y-84542381D01*
X45990001Y-84542381D01*
X45847143Y-84590000D01*
X45751905Y-84685238D01*
X45704286Y-84780476D01*
X45656667Y-84970952D01*
X45656667Y-85113810D01*
X45704286Y-85304286D01*
X45751905Y-85399524D01*
X45847143Y-85494762D01*
X45990001Y-85542381D01*
X46085239Y-85542381D01*
X46228096Y-85494762D01*
X46275715Y-85447143D01*
X46275715Y-85113810D01*
X46085239Y-85113810D01*
X46704286Y-85542381D02*
X46704286Y-84542381D01*
X47275715Y-85542381D01*
X47275715Y-84542381D01*
X47751905Y-85542381D02*
X47751905Y-84542381D01*
X47990000Y-84542381D01*
X48132858Y-84590000D01*
X48228096Y-84685238D01*
X48275715Y-84780476D01*
X48323334Y-84970952D01*
X48323334Y-85113810D01*
X48275715Y-85304286D01*
X48228096Y-85399524D01*
X48132858Y-85494762D01*
X47990000Y-85542381D01*
X47751905Y-85542381D01*
X58078905Y-103417667D02*
X58555096Y-103417667D01*
X57983667Y-103703381D02*
X58317000Y-102703381D01*
X58650334Y-103703381D01*
X59174143Y-102703381D02*
X59364620Y-102703381D01*
X59459858Y-102751000D01*
X59555096Y-102846238D01*
X59602715Y-103036714D01*
X59602715Y-103370048D01*
X59555096Y-103560524D01*
X59459858Y-103655762D01*
X59364620Y-103703381D01*
X59174143Y-103703381D01*
X59078905Y-103655762D01*
X58983667Y-103560524D01*
X58936048Y-103370048D01*
X58936048Y-103036714D01*
X58983667Y-102846238D01*
X59078905Y-102751000D01*
X59174143Y-102703381D01*
X60031286Y-103703381D02*
X60031286Y-102703381D01*
X60412239Y-102703381D01*
X60507477Y-102751000D01*
X60555096Y-102798619D01*
X60602715Y-102893857D01*
X60602715Y-103036714D01*
X60555096Y-103131952D01*
X60507477Y-103179571D01*
X60412239Y-103227190D01*
X60031286Y-103227190D01*
X61555096Y-103703381D02*
X60983667Y-103703381D01*
X61269381Y-103703381D02*
X61269381Y-102703381D01*
X61174143Y-102846238D01*
X61078905Y-102941476D01*
X60983667Y-102989095D01*
X50633334Y-92813143D02*
X50585715Y-92860762D01*
X50442858Y-92908381D01*
X50347620Y-92908381D01*
X50204762Y-92860762D01*
X50109524Y-92765524D01*
X50061905Y-92670286D01*
X50014286Y-92479810D01*
X50014286Y-92336952D01*
X50061905Y-92146476D01*
X50109524Y-92051238D01*
X50204762Y-91956000D01*
X50347620Y-91908381D01*
X50442858Y-91908381D01*
X50585715Y-91956000D01*
X50633334Y-92003619D01*
X51585715Y-92908381D02*
X51014286Y-92908381D01*
X51300000Y-92908381D02*
X51300000Y-91908381D01*
X51204762Y-92051238D01*
X51109524Y-92146476D01*
X51014286Y-92194095D01*
X51268334Y-112244143D02*
X51220715Y-112291762D01*
X51077858Y-112339381D01*
X50982620Y-112339381D01*
X50839762Y-112291762D01*
X50744524Y-112196524D01*
X50696905Y-112101286D01*
X50649286Y-111910810D01*
X50649286Y-111767952D01*
X50696905Y-111577476D01*
X50744524Y-111482238D01*
X50839762Y-111387000D01*
X50982620Y-111339381D01*
X51077858Y-111339381D01*
X51220715Y-111387000D01*
X51268334Y-111434619D01*
X51649286Y-111434619D02*
X51696905Y-111387000D01*
X51792143Y-111339381D01*
X52030239Y-111339381D01*
X52125477Y-111387000D01*
X52173096Y-111434619D01*
X52220715Y-111529857D01*
X52220715Y-111625095D01*
X52173096Y-111767952D01*
X51601667Y-112339381D01*
X52220715Y-112339381D01*
X58126334Y-107926143D02*
X58078715Y-107973762D01*
X57935858Y-108021381D01*
X57840620Y-108021381D01*
X57697762Y-107973762D01*
X57602524Y-107878524D01*
X57554905Y-107783286D01*
X57507286Y-107592810D01*
X57507286Y-107449952D01*
X57554905Y-107259476D01*
X57602524Y-107164238D01*
X57697762Y-107069000D01*
X57840620Y-107021381D01*
X57935858Y-107021381D01*
X58078715Y-107069000D01*
X58126334Y-107116619D01*
X58459667Y-107021381D02*
X59078715Y-107021381D01*
X58745381Y-107402333D01*
X58888239Y-107402333D01*
X58983477Y-107449952D01*
X59031096Y-107497571D01*
X59078715Y-107592810D01*
X59078715Y-107830905D01*
X59031096Y-107926143D01*
X58983477Y-107973762D01*
X58888239Y-108021381D01*
X58602524Y-108021381D01*
X58507286Y-107973762D01*
X58459667Y-107926143D01*
X59015334Y-119483143D02*
X58967715Y-119530762D01*
X58824858Y-119578381D01*
X58729620Y-119578381D01*
X58586762Y-119530762D01*
X58491524Y-119435524D01*
X58443905Y-119340286D01*
X58396286Y-119149810D01*
X58396286Y-119006952D01*
X58443905Y-118816476D01*
X58491524Y-118721238D01*
X58586762Y-118626000D01*
X58729620Y-118578381D01*
X58824858Y-118578381D01*
X58967715Y-118626000D01*
X59015334Y-118673619D01*
X59920096Y-118578381D02*
X59443905Y-118578381D01*
X59396286Y-119054571D01*
X59443905Y-119006952D01*
X59539143Y-118959333D01*
X59777239Y-118959333D01*
X59872477Y-119006952D01*
X59920096Y-119054571D01*
X59967715Y-119149810D01*
X59967715Y-119387905D01*
X59920096Y-119483143D01*
X59872477Y-119530762D01*
X59777239Y-119578381D01*
X59539143Y-119578381D01*
X59443905Y-119530762D01*
X59396286Y-119483143D01*
X58772143Y-98591666D02*
X58819762Y-98639285D01*
X58867381Y-98782142D01*
X58867381Y-98877380D01*
X58819762Y-99020238D01*
X58724524Y-99115476D01*
X58629286Y-99163095D01*
X58438810Y-99210714D01*
X58295952Y-99210714D01*
X58105476Y-99163095D01*
X58010238Y-99115476D01*
X57915000Y-99020238D01*
X57867381Y-98877380D01*
X57867381Y-98782142D01*
X57915000Y-98639285D01*
X57962619Y-98591666D01*
X57867381Y-97734523D02*
X57867381Y-97925000D01*
X57915000Y-98020238D01*
X57962619Y-98067857D01*
X58105476Y-98163095D01*
X58295952Y-98210714D01*
X58676905Y-98210714D01*
X58772143Y-98163095D01*
X58819762Y-98115476D01*
X58867381Y-98020238D01*
X58867381Y-97829761D01*
X58819762Y-97734523D01*
X58772143Y-97686904D01*
X58676905Y-97639285D01*
X58438810Y-97639285D01*
X58343571Y-97686904D01*
X58295952Y-97734523D01*
X58248333Y-97829761D01*
X58248333Y-98020238D01*
X58295952Y-98115476D01*
X58343571Y-98163095D01*
X58438810Y-98210714D01*
X61428334Y-107926143D02*
X61380715Y-107973762D01*
X61237858Y-108021381D01*
X61142620Y-108021381D01*
X60999762Y-107973762D01*
X60904524Y-107878524D01*
X60856905Y-107783286D01*
X60809286Y-107592810D01*
X60809286Y-107449952D01*
X60856905Y-107259476D01*
X60904524Y-107164238D01*
X60999762Y-107069000D01*
X61142620Y-107021381D01*
X61237858Y-107021381D01*
X61380715Y-107069000D01*
X61428334Y-107116619D01*
X61761667Y-107021381D02*
X62428334Y-107021381D01*
X61999762Y-108021381D01*
X62063334Y-123801143D02*
X62015715Y-123848762D01*
X61872858Y-123896381D01*
X61777620Y-123896381D01*
X61634762Y-123848762D01*
X61539524Y-123753524D01*
X61491905Y-123658286D01*
X61444286Y-123467810D01*
X61444286Y-123324952D01*
X61491905Y-123134476D01*
X61539524Y-123039238D01*
X61634762Y-122944000D01*
X61777620Y-122896381D01*
X61872858Y-122896381D01*
X62015715Y-122944000D01*
X62063334Y-122991619D01*
X62634762Y-123324952D02*
X62539524Y-123277333D01*
X62491905Y-123229714D01*
X62444286Y-123134476D01*
X62444286Y-123086857D01*
X62491905Y-122991619D01*
X62539524Y-122944000D01*
X62634762Y-122896381D01*
X62825239Y-122896381D01*
X62920477Y-122944000D01*
X62968096Y-122991619D01*
X63015715Y-123086857D01*
X63015715Y-123134476D01*
X62968096Y-123229714D01*
X62920477Y-123277333D01*
X62825239Y-123324952D01*
X62634762Y-123324952D01*
X62539524Y-123372571D01*
X62491905Y-123420190D01*
X62444286Y-123515429D01*
X62444286Y-123705905D01*
X62491905Y-123801143D01*
X62539524Y-123848762D01*
X62634762Y-123896381D01*
X62825239Y-123896381D01*
X62920477Y-123848762D01*
X62968096Y-123801143D01*
X63015715Y-123705905D01*
X63015715Y-123515429D01*
X62968096Y-123420190D01*
X62920477Y-123372571D01*
X62825239Y-123324952D01*
X64730334Y-107926143D02*
X64682715Y-107973762D01*
X64539858Y-108021381D01*
X64444620Y-108021381D01*
X64301762Y-107973762D01*
X64206524Y-107878524D01*
X64158905Y-107783286D01*
X64111286Y-107592810D01*
X64111286Y-107449952D01*
X64158905Y-107259476D01*
X64206524Y-107164238D01*
X64301762Y-107069000D01*
X64444620Y-107021381D01*
X64539858Y-107021381D01*
X64682715Y-107069000D01*
X64730334Y-107116619D01*
X65206524Y-108021381D02*
X65397000Y-108021381D01*
X65492239Y-107973762D01*
X65539858Y-107926143D01*
X65635096Y-107783286D01*
X65682715Y-107592810D01*
X65682715Y-107211857D01*
X65635096Y-107116619D01*
X65587477Y-107069000D01*
X65492239Y-107021381D01*
X65301762Y-107021381D01*
X65206524Y-107069000D01*
X65158905Y-107116619D01*
X65111286Y-107211857D01*
X65111286Y-107449952D01*
X65158905Y-107545190D01*
X65206524Y-107592810D01*
X65301762Y-107640429D01*
X65492239Y-107640429D01*
X65587477Y-107592810D01*
X65635096Y-107545190D01*
X65682715Y-107449952D01*
X60317143Y-127987143D02*
X60269524Y-128034762D01*
X60126667Y-128082381D01*
X60031429Y-128082381D01*
X59888571Y-128034762D01*
X59793333Y-127939524D01*
X59745714Y-127844286D01*
X59698095Y-127653810D01*
X59698095Y-127510952D01*
X59745714Y-127320476D01*
X59793333Y-127225238D01*
X59888571Y-127130000D01*
X60031429Y-127082381D01*
X60126667Y-127082381D01*
X60269524Y-127130000D01*
X60317143Y-127177619D01*
X61269524Y-128082381D02*
X60698095Y-128082381D01*
X60983809Y-128082381D02*
X60983809Y-127082381D01*
X60888571Y-127225238D01*
X60793333Y-127320476D01*
X60698095Y-127368095D01*
X61888571Y-127082381D02*
X61983810Y-127082381D01*
X62079048Y-127130000D01*
X62126667Y-127177619D01*
X62174286Y-127272857D01*
X62221905Y-127463333D01*
X62221905Y-127701429D01*
X62174286Y-127891905D01*
X62126667Y-127987143D01*
X62079048Y-128034762D01*
X61983810Y-128082381D01*
X61888571Y-128082381D01*
X61793333Y-128034762D01*
X61745714Y-127987143D01*
X61698095Y-127891905D01*
X61650476Y-127701429D01*
X61650476Y-127463333D01*
X61698095Y-127272857D01*
X61745714Y-127177619D01*
X61793333Y-127130000D01*
X61888571Y-127082381D01*
X81907143Y-125452143D02*
X81859524Y-125499762D01*
X81716667Y-125547381D01*
X81621429Y-125547381D01*
X81478571Y-125499762D01*
X81383333Y-125404524D01*
X81335714Y-125309286D01*
X81288095Y-125118810D01*
X81288095Y-124975952D01*
X81335714Y-124785476D01*
X81383333Y-124690238D01*
X81478571Y-124595000D01*
X81621429Y-124547381D01*
X81716667Y-124547381D01*
X81859524Y-124595000D01*
X81907143Y-124642619D01*
X82859524Y-125547381D02*
X82288095Y-125547381D01*
X82573809Y-125547381D02*
X82573809Y-124547381D01*
X82478571Y-124690238D01*
X82383333Y-124785476D01*
X82288095Y-124833095D01*
X83811905Y-125547381D02*
X83240476Y-125547381D01*
X83526190Y-125547381D02*
X83526190Y-124547381D01*
X83430952Y-124690238D01*
X83335714Y-124785476D01*
X83240476Y-124833095D01*
X81780143Y-122912143D02*
X81732524Y-122959762D01*
X81589667Y-123007381D01*
X81494429Y-123007381D01*
X81351571Y-122959762D01*
X81256333Y-122864524D01*
X81208714Y-122769286D01*
X81161095Y-122578810D01*
X81161095Y-122435952D01*
X81208714Y-122245476D01*
X81256333Y-122150238D01*
X81351571Y-122055000D01*
X81494429Y-122007381D01*
X81589667Y-122007381D01*
X81732524Y-122055000D01*
X81780143Y-122102619D01*
X82732524Y-123007381D02*
X82161095Y-123007381D01*
X82446809Y-123007381D02*
X82446809Y-122007381D01*
X82351571Y-122150238D01*
X82256333Y-122245476D01*
X82161095Y-122293095D01*
X83113476Y-122102619D02*
X83161095Y-122055000D01*
X83256333Y-122007381D01*
X83494429Y-122007381D01*
X83589667Y-122055000D01*
X83637286Y-122102619D01*
X83684905Y-122197857D01*
X83684905Y-122293095D01*
X83637286Y-122435952D01*
X83065857Y-123007381D01*
X83684905Y-123007381D01*
X79494143Y-120499143D02*
X79446524Y-120546762D01*
X79303667Y-120594381D01*
X79208429Y-120594381D01*
X79065571Y-120546762D01*
X78970333Y-120451524D01*
X78922714Y-120356286D01*
X78875095Y-120165810D01*
X78875095Y-120022952D01*
X78922714Y-119832476D01*
X78970333Y-119737238D01*
X79065571Y-119642000D01*
X79208429Y-119594381D01*
X79303667Y-119594381D01*
X79446524Y-119642000D01*
X79494143Y-119689619D01*
X80446524Y-120594381D02*
X79875095Y-120594381D01*
X80160809Y-120594381D02*
X80160809Y-119594381D01*
X80065571Y-119737238D01*
X79970333Y-119832476D01*
X79875095Y-119880095D01*
X80779857Y-119594381D02*
X81398905Y-119594381D01*
X81065571Y-119975333D01*
X81208429Y-119975333D01*
X81303667Y-120022952D01*
X81351286Y-120070571D01*
X81398905Y-120165810D01*
X81398905Y-120403905D01*
X81351286Y-120499143D01*
X81303667Y-120546762D01*
X81208429Y-120594381D01*
X80922714Y-120594381D01*
X80827476Y-120546762D01*
X80779857Y-120499143D01*
X86733143Y-109577143D02*
X86685524Y-109624762D01*
X86542667Y-109672381D01*
X86447429Y-109672381D01*
X86304571Y-109624762D01*
X86209333Y-109529524D01*
X86161714Y-109434286D01*
X86114095Y-109243810D01*
X86114095Y-109100952D01*
X86161714Y-108910476D01*
X86209333Y-108815238D01*
X86304571Y-108720000D01*
X86447429Y-108672381D01*
X86542667Y-108672381D01*
X86685524Y-108720000D01*
X86733143Y-108767619D01*
X87685524Y-109672381D02*
X87114095Y-109672381D01*
X87399809Y-109672381D02*
X87399809Y-108672381D01*
X87304571Y-108815238D01*
X87209333Y-108910476D01*
X87114095Y-108958095D01*
X88542667Y-109005714D02*
X88542667Y-109672381D01*
X88304571Y-108624762D02*
X88066476Y-109339048D01*
X88685524Y-109339048D01*
X86733143Y-115419143D02*
X86685524Y-115466762D01*
X86542667Y-115514381D01*
X86447429Y-115514381D01*
X86304571Y-115466762D01*
X86209333Y-115371524D01*
X86161714Y-115276286D01*
X86114095Y-115085810D01*
X86114095Y-114942952D01*
X86161714Y-114752476D01*
X86209333Y-114657238D01*
X86304571Y-114562000D01*
X86447429Y-114514381D01*
X86542667Y-114514381D01*
X86685524Y-114562000D01*
X86733143Y-114609619D01*
X87685524Y-115514381D02*
X87114095Y-115514381D01*
X87399809Y-115514381D02*
X87399809Y-114514381D01*
X87304571Y-114657238D01*
X87209333Y-114752476D01*
X87114095Y-114800095D01*
X88590286Y-114514381D02*
X88114095Y-114514381D01*
X88066476Y-114990571D01*
X88114095Y-114942952D01*
X88209333Y-114895333D01*
X88447429Y-114895333D01*
X88542667Y-114942952D01*
X88590286Y-114990571D01*
X88637905Y-115085810D01*
X88637905Y-115323905D01*
X88590286Y-115419143D01*
X88542667Y-115466762D01*
X88447429Y-115514381D01*
X88209333Y-115514381D01*
X88114095Y-115466762D01*
X88066476Y-115419143D01*
X60126667Y-99528381D02*
X60126667Y-100242667D01*
X60079047Y-100385524D01*
X59983809Y-100480762D01*
X59840952Y-100528381D01*
X59745714Y-100528381D01*
X60602857Y-100528381D02*
X60602857Y-99528381D01*
X60983810Y-99528381D01*
X61079048Y-99576000D01*
X61126667Y-99623619D01*
X61174286Y-99718857D01*
X61174286Y-99861714D01*
X61126667Y-99956952D01*
X61079048Y-100004571D01*
X60983810Y-100052190D01*
X60602857Y-100052190D01*
X62126667Y-100528381D02*
X61555238Y-100528381D01*
X61840952Y-100528381D02*
X61840952Y-99528381D01*
X61745714Y-99671238D01*
X61650476Y-99766476D01*
X61555238Y-99814095D01*
X55692381Y-108116666D02*
X55692381Y-108592857D01*
X54692381Y-108592857D01*
X55692381Y-107259523D02*
X55692381Y-107830952D01*
X55692381Y-107545238D02*
X54692381Y-107545238D01*
X54835238Y-107640476D01*
X54930476Y-107735714D01*
X54978095Y-107830952D01*
X63968334Y-114879381D02*
X63492143Y-114879381D01*
X63492143Y-113879381D01*
X64254048Y-113974619D02*
X64301667Y-113927000D01*
X64396905Y-113879381D01*
X64635001Y-113879381D01*
X64730239Y-113927000D01*
X64777858Y-113974619D01*
X64825477Y-114069857D01*
X64825477Y-114165095D01*
X64777858Y-114307952D01*
X64206429Y-114879381D01*
X64825477Y-114879381D01*
X75525334Y-109672381D02*
X75049143Y-109672381D01*
X75049143Y-108672381D01*
X75763429Y-108672381D02*
X76382477Y-108672381D01*
X76049143Y-109053333D01*
X76192001Y-109053333D01*
X76287239Y-109100952D01*
X76334858Y-109148571D01*
X76382477Y-109243810D01*
X76382477Y-109481905D01*
X76334858Y-109577143D01*
X76287239Y-109624762D01*
X76192001Y-109672381D01*
X75906286Y-109672381D01*
X75811048Y-109624762D01*
X75763429Y-109577143D01*
X75398334Y-115514381D02*
X74922143Y-115514381D01*
X74922143Y-114514381D01*
X76160239Y-114847714D02*
X76160239Y-115514381D01*
X75922143Y-114466762D02*
X75684048Y-115181048D01*
X76303096Y-115181048D01*
X84161334Y-117927381D02*
X83685143Y-117927381D01*
X83685143Y-116927381D01*
X84970858Y-116927381D02*
X84494667Y-116927381D01*
X84447048Y-117403571D01*
X84494667Y-117355952D01*
X84589905Y-117308333D01*
X84828001Y-117308333D01*
X84923239Y-117355952D01*
X84970858Y-117403571D01*
X85018477Y-117498810D01*
X85018477Y-117736905D01*
X84970858Y-117832143D01*
X84923239Y-117879762D01*
X84828001Y-117927381D01*
X84589905Y-117927381D01*
X84494667Y-117879762D01*
X84447048Y-117832143D01*
X71016905Y-88209381D02*
X71016905Y-87209381D01*
X71397858Y-87209381D01*
X71493096Y-87257000D01*
X71540715Y-87304619D01*
X71588334Y-87399857D01*
X71588334Y-87542714D01*
X71540715Y-87637952D01*
X71493096Y-87685571D01*
X71397858Y-87733190D01*
X71016905Y-87733190D01*
X71921667Y-87209381D02*
X72540715Y-87209381D01*
X72207381Y-87590333D01*
X72350239Y-87590333D01*
X72445477Y-87637952D01*
X72493096Y-87685571D01*
X72540715Y-87780810D01*
X72540715Y-88018905D01*
X72493096Y-88114143D01*
X72445477Y-88161762D01*
X72350239Y-88209381D01*
X72064524Y-88209381D01*
X71969286Y-88161762D01*
X71921667Y-88114143D01*
X64095334Y-117165381D02*
X63762000Y-116689190D01*
X63523905Y-117165381D02*
X63523905Y-116165381D01*
X63904858Y-116165381D01*
X64000096Y-116213000D01*
X64047715Y-116260619D01*
X64095334Y-116355857D01*
X64095334Y-116498714D01*
X64047715Y-116593952D01*
X64000096Y-116641571D01*
X63904858Y-116689190D01*
X63523905Y-116689190D01*
X65047715Y-117165381D02*
X64476286Y-117165381D01*
X64762000Y-117165381D02*
X64762000Y-116165381D01*
X64666762Y-116308238D01*
X64571524Y-116403476D01*
X64476286Y-116451095D01*
X52527381Y-98591666D02*
X52051190Y-98925000D01*
X52527381Y-99163095D02*
X51527381Y-99163095D01*
X51527381Y-98782142D01*
X51575000Y-98686904D01*
X51622619Y-98639285D01*
X51717857Y-98591666D01*
X51860714Y-98591666D01*
X51955952Y-98639285D01*
X52003571Y-98686904D01*
X52051190Y-98782142D01*
X52051190Y-99163095D01*
X51622619Y-98210714D02*
X51575000Y-98163095D01*
X51527381Y-98067857D01*
X51527381Y-97829761D01*
X51575000Y-97734523D01*
X51622619Y-97686904D01*
X51717857Y-97639285D01*
X51813095Y-97639285D01*
X51955952Y-97686904D01*
X52527381Y-98258333D01*
X52527381Y-97639285D01*
X75398334Y-107259381D02*
X75065000Y-106783190D01*
X74826905Y-107259381D02*
X74826905Y-106259381D01*
X75207858Y-106259381D01*
X75303096Y-106307000D01*
X75350715Y-106354619D01*
X75398334Y-106449857D01*
X75398334Y-106592714D01*
X75350715Y-106687952D01*
X75303096Y-106735571D01*
X75207858Y-106783190D01*
X74826905Y-106783190D01*
X75731667Y-106259381D02*
X76350715Y-106259381D01*
X76017381Y-106640333D01*
X76160239Y-106640333D01*
X76255477Y-106687952D01*
X76303096Y-106735571D01*
X76350715Y-106830810D01*
X76350715Y-107068905D01*
X76303096Y-107164143D01*
X76255477Y-107211762D01*
X76160239Y-107259381D01*
X75874524Y-107259381D01*
X75779286Y-107211762D01*
X75731667Y-107164143D01*
X75525334Y-112847381D02*
X75192000Y-112371190D01*
X74953905Y-112847381D02*
X74953905Y-111847381D01*
X75334858Y-111847381D01*
X75430096Y-111895000D01*
X75477715Y-111942619D01*
X75525334Y-112037857D01*
X75525334Y-112180714D01*
X75477715Y-112275952D01*
X75430096Y-112323571D01*
X75334858Y-112371190D01*
X74953905Y-112371190D01*
X76382477Y-112180714D02*
X76382477Y-112847381D01*
X76144381Y-111799762D02*
X75906286Y-112514048D01*
X76525334Y-112514048D01*
X86828334Y-107132381D02*
X86495000Y-106656190D01*
X86256905Y-107132381D02*
X86256905Y-106132381D01*
X86637858Y-106132381D01*
X86733096Y-106180000D01*
X86780715Y-106227619D01*
X86828334Y-106322857D01*
X86828334Y-106465714D01*
X86780715Y-106560952D01*
X86733096Y-106608571D01*
X86637858Y-106656190D01*
X86256905Y-106656190D01*
X87733096Y-106132381D02*
X87256905Y-106132381D01*
X87209286Y-106608571D01*
X87256905Y-106560952D01*
X87352143Y-106513333D01*
X87590239Y-106513333D01*
X87685477Y-106560952D01*
X87733096Y-106608571D01*
X87780715Y-106703810D01*
X87780715Y-106941905D01*
X87733096Y-107037143D01*
X87685477Y-107084762D01*
X87590239Y-107132381D01*
X87352143Y-107132381D01*
X87256905Y-107084762D01*
X87209286Y-107037143D01*
X86828334Y-112847381D02*
X86495000Y-112371190D01*
X86256905Y-112847381D02*
X86256905Y-111847381D01*
X86637858Y-111847381D01*
X86733096Y-111895000D01*
X86780715Y-111942619D01*
X86828334Y-112037857D01*
X86828334Y-112180714D01*
X86780715Y-112275952D01*
X86733096Y-112323571D01*
X86637858Y-112371190D01*
X86256905Y-112371190D01*
X87685477Y-111847381D02*
X87495000Y-111847381D01*
X87399762Y-111895000D01*
X87352143Y-111942619D01*
X87256905Y-112085476D01*
X87209286Y-112275952D01*
X87209286Y-112656905D01*
X87256905Y-112752143D01*
X87304524Y-112799762D01*
X87399762Y-112847381D01*
X87590239Y-112847381D01*
X87685477Y-112799762D01*
X87733096Y-112752143D01*
X87780715Y-112656905D01*
X87780715Y-112418810D01*
X87733096Y-112323571D01*
X87685477Y-112275952D01*
X87590239Y-112228333D01*
X87399762Y-112228333D01*
X87304524Y-112275952D01*
X87256905Y-112323571D01*
X87209286Y-112418810D01*
X68516667Y-131214762D02*
X68659524Y-131262381D01*
X68897620Y-131262381D01*
X68992858Y-131214762D01*
X69040477Y-131167143D01*
X69088096Y-131071905D01*
X69088096Y-130976667D01*
X69040477Y-130881429D01*
X68992858Y-130833810D01*
X68897620Y-130786190D01*
X68707143Y-130738571D01*
X68611905Y-130690952D01*
X68564286Y-130643333D01*
X68516667Y-130548095D01*
X68516667Y-130452857D01*
X68564286Y-130357619D01*
X68611905Y-130310000D01*
X68707143Y-130262381D01*
X68945239Y-130262381D01*
X69088096Y-130310000D01*
X69421429Y-130262381D02*
X69659524Y-131262381D01*
X69850001Y-130548095D01*
X70040477Y-131262381D01*
X70278572Y-130262381D01*
X71183334Y-131262381D02*
X70611905Y-131262381D01*
X70897619Y-131262381D02*
X70897619Y-130262381D01*
X70802381Y-130405238D01*
X70707143Y-130500476D01*
X70611905Y-130548095D01*
X62238641Y-93421105D02*
X63048165Y-93421105D01*
X63143403Y-93373486D01*
X63191022Y-93325867D01*
X63238641Y-93230629D01*
X63238641Y-93040152D01*
X63191022Y-92944914D01*
X63143403Y-92897295D01*
X63048165Y-92849676D01*
X62238641Y-92849676D01*
X63238641Y-91849676D02*
X63238641Y-92421105D01*
X63238641Y-92135391D02*
X62238641Y-92135391D01*
X62381498Y-92230629D01*
X62476736Y-92325867D01*
X62524355Y-92421105D01*
X69088095Y-114532381D02*
X69088095Y-115341905D01*
X69135714Y-115437143D01*
X69183333Y-115484762D01*
X69278571Y-115532381D01*
X69469048Y-115532381D01*
X69564286Y-115484762D01*
X69611905Y-115437143D01*
X69659524Y-115341905D01*
X69659524Y-114532381D01*
X70088095Y-114627619D02*
X70135714Y-114580000D01*
X70230952Y-114532381D01*
X70469048Y-114532381D01*
X70564286Y-114580000D01*
X70611905Y-114627619D01*
X70659524Y-114722857D01*
X70659524Y-114818095D01*
X70611905Y-114960952D01*
X70040476Y-115532381D01*
X70659524Y-115532381D01*
X68056238Y-99020381D02*
X68294333Y-100020381D01*
X68484810Y-99306095D01*
X68675286Y-100020381D01*
X68913381Y-99020381D01*
X69818143Y-100020381D02*
X69246714Y-100020381D01*
X69532428Y-100020381D02*
X69532428Y-99020381D01*
X69437190Y-99163238D01*
X69341952Y-99258476D01*
X69246714Y-99306095D01*
X55522905Y-85669381D02*
X55522905Y-84669381D01*
X55903858Y-84669381D01*
X55999096Y-84717000D01*
X56046715Y-84764619D01*
X56094334Y-84859857D01*
X56094334Y-85002714D01*
X56046715Y-85097952D01*
X55999096Y-85145571D01*
X55903858Y-85193190D01*
X55522905Y-85193190D01*
X57046715Y-85669381D02*
X56475286Y-85669381D01*
X56761000Y-85669381D02*
X56761000Y-84669381D01*
X56665762Y-84812238D01*
X56570524Y-84907476D01*
X56475286Y-84955095D01*
X71318381Y-95861095D02*
X70318381Y-95861095D01*
X70318381Y-95623000D01*
X70366000Y-95480142D01*
X70461238Y-95384904D01*
X70556476Y-95337285D01*
X70746952Y-95289666D01*
X70889810Y-95289666D01*
X71080286Y-95337285D01*
X71175524Y-95384904D01*
X71270762Y-95480142D01*
X71318381Y-95623000D01*
X71318381Y-95861095D01*
X71318381Y-94337285D02*
X71318381Y-94908714D01*
X71318381Y-94623000D02*
X70318381Y-94623000D01*
X70461238Y-94718238D01*
X70556476Y-94813476D01*
X70604095Y-94908714D01*
X52697143Y-133467143D02*
X52649524Y-133514762D01*
X52506667Y-133562381D01*
X52411429Y-133562381D01*
X52268571Y-133514762D01*
X52173333Y-133419524D01*
X52125714Y-133324286D01*
X52078095Y-133133810D01*
X52078095Y-132990952D01*
X52125714Y-132800476D01*
X52173333Y-132705238D01*
X52268571Y-132610000D01*
X52411429Y-132562381D01*
X52506667Y-132562381D01*
X52649524Y-132610000D01*
X52697143Y-132657619D01*
X53649524Y-133562381D02*
X53078095Y-133562381D01*
X53363809Y-133562381D02*
X53363809Y-132562381D01*
X53268571Y-132705238D01*
X53173333Y-132800476D01*
X53078095Y-132848095D01*
X54506667Y-132562381D02*
X54316190Y-132562381D01*
X54220952Y-132610000D01*
X54173333Y-132657619D01*
X54078095Y-132800476D01*
X54030476Y-132990952D01*
X54030476Y-133371905D01*
X54078095Y-133467143D01*
X54125714Y-133514762D01*
X54220952Y-133562381D01*
X54411429Y-133562381D01*
X54506667Y-133514762D01*
X54554286Y-133467143D01*
X54601905Y-133371905D01*
X54601905Y-133133810D01*
X54554286Y-133038571D01*
X54506667Y-132990952D01*
X54411429Y-132943333D01*
X54220952Y-132943333D01*
X54125714Y-132990952D01*
X54078095Y-133038571D01*
X54030476Y-133133810D01*
X57267143Y-117006666D02*
X57314762Y-117054285D01*
X57362381Y-117197142D01*
X57362381Y-117292380D01*
X57314762Y-117435238D01*
X57219524Y-117530476D01*
X57124286Y-117578095D01*
X56933810Y-117625714D01*
X56790952Y-117625714D01*
X56600476Y-117578095D01*
X56505238Y-117530476D01*
X56410000Y-117435238D01*
X56362381Y-117292380D01*
X56362381Y-117197142D01*
X56410000Y-117054285D01*
X56457619Y-117006666D01*
X56695714Y-116149523D02*
X57362381Y-116149523D01*
X56314762Y-116387619D02*
X57029048Y-116625714D01*
X57029048Y-116006666D01*
X78613095Y-102322381D02*
X79184524Y-102322381D01*
X78898809Y-103322381D02*
X78898809Y-102322381D01*
X80041667Y-103322381D02*
X79470238Y-103322381D01*
X79755952Y-103322381D02*
X79755952Y-102322381D01*
X79660714Y-102465238D01*
X79565476Y-102560476D01*
X79470238Y-102608095D01*
M02*
