G04 #@! TF.FileFunction,Legend,Bot*
%FSLAX46Y46*%
G04 Gerber Fmt 4.6, Leading zero omitted, Abs format (unit mm)*
G04 Created by KiCad (PCBNEW 4.0.4+e1-6308~48~ubuntu16.04.1-stable) date Fri Nov  4 19:16:35 2016*
%MOMM*%
%LPD*%
G01*
G04 APERTURE LIST*
%ADD10C,0.100000*%
%ADD11C,0.300000*%
G04 APERTURE END LIST*
D10*
D11*
X70441429Y-106567141D02*
X71941429Y-106567141D01*
X71941429Y-106209998D01*
X71870000Y-105995713D01*
X71727143Y-105852855D01*
X71584286Y-105781427D01*
X71298571Y-105709998D01*
X71084286Y-105709998D01*
X70798571Y-105781427D01*
X70655714Y-105852855D01*
X70512857Y-105995713D01*
X70441429Y-106209998D01*
X70441429Y-106567141D01*
X71227143Y-104567141D02*
X71155714Y-104352855D01*
X71084286Y-104281427D01*
X70941429Y-104209998D01*
X70727143Y-104209998D01*
X70584286Y-104281427D01*
X70512857Y-104352855D01*
X70441429Y-104495713D01*
X70441429Y-105067141D01*
X71941429Y-105067141D01*
X71941429Y-104567141D01*
X71870000Y-104424284D01*
X71798571Y-104352855D01*
X71655714Y-104281427D01*
X71512857Y-104281427D01*
X71370000Y-104352855D01*
X71298571Y-104424284D01*
X71227143Y-104567141D01*
X71227143Y-105067141D01*
X70298571Y-103924284D02*
X70298571Y-102781427D01*
X71227143Y-102424284D02*
X71227143Y-101924284D01*
X70441429Y-101709998D02*
X70441429Y-102424284D01*
X71941429Y-102424284D01*
X71941429Y-101709998D01*
X71441429Y-101067141D02*
X70441429Y-101067141D01*
X71298571Y-101067141D02*
X71370000Y-100995713D01*
X71441429Y-100852855D01*
X71441429Y-100638570D01*
X71370000Y-100495713D01*
X71227143Y-100424284D01*
X70441429Y-100424284D01*
X71441429Y-99852855D02*
X70441429Y-99495712D01*
X71441429Y-99138570D01*
X70512857Y-97995713D02*
X70441429Y-98138570D01*
X70441429Y-98424284D01*
X70512857Y-98567141D01*
X70655714Y-98638570D01*
X71227143Y-98638570D01*
X71370000Y-98567141D01*
X71441429Y-98424284D01*
X71441429Y-98138570D01*
X71370000Y-97995713D01*
X71227143Y-97924284D01*
X71084286Y-97924284D01*
X70941429Y-98638570D01*
X70441429Y-97067141D02*
X70512857Y-97209999D01*
X70655714Y-97281427D01*
X71941429Y-97281427D01*
X70441429Y-96281427D02*
X70512857Y-96424285D01*
X70584286Y-96495713D01*
X70727143Y-96567142D01*
X71155714Y-96567142D01*
X71298571Y-96495713D01*
X71370000Y-96424285D01*
X71441429Y-96281427D01*
X71441429Y-96067142D01*
X71370000Y-95924285D01*
X71298571Y-95852856D01*
X71155714Y-95781427D01*
X70727143Y-95781427D01*
X70584286Y-95852856D01*
X70512857Y-95924285D01*
X70441429Y-96067142D01*
X70441429Y-96281427D01*
X71441429Y-95138570D02*
X69941429Y-95138570D01*
X71370000Y-95138570D02*
X71441429Y-94995713D01*
X71441429Y-94709999D01*
X71370000Y-94567142D01*
X71298571Y-94495713D01*
X71155714Y-94424284D01*
X70727143Y-94424284D01*
X70584286Y-94495713D01*
X70512857Y-94567142D01*
X70441429Y-94709999D01*
X70441429Y-94995713D01*
X70512857Y-95138570D01*
X70512857Y-93209999D02*
X70441429Y-93352856D01*
X70441429Y-93638570D01*
X70512857Y-93781427D01*
X70655714Y-93852856D01*
X71227143Y-93852856D01*
X71370000Y-93781427D01*
X71441429Y-93638570D01*
X71441429Y-93352856D01*
X71370000Y-93209999D01*
X71227143Y-93138570D01*
X71084286Y-93138570D01*
X70941429Y-93852856D01*
X70298571Y-92852856D02*
X70298571Y-91709999D01*
X70441429Y-91352856D02*
X71941429Y-91352856D01*
X71941429Y-90995713D01*
X71870000Y-90781428D01*
X71727143Y-90638570D01*
X71584286Y-90567142D01*
X71298571Y-90495713D01*
X71084286Y-90495713D01*
X70798571Y-90567142D01*
X70655714Y-90638570D01*
X70512857Y-90781428D01*
X70441429Y-90995713D01*
X70441429Y-91352856D01*
X70512857Y-89281428D02*
X70441429Y-89424285D01*
X70441429Y-89709999D01*
X70512857Y-89852856D01*
X70655714Y-89924285D01*
X71227143Y-89924285D01*
X71370000Y-89852856D01*
X71441429Y-89709999D01*
X71441429Y-89424285D01*
X71370000Y-89281428D01*
X71227143Y-89209999D01*
X71084286Y-89209999D01*
X70941429Y-89924285D01*
X71441429Y-88781428D02*
X71441429Y-88209999D01*
X71941429Y-88567142D02*
X70655714Y-88567142D01*
X70512857Y-88495714D01*
X70441429Y-88352856D01*
X70441429Y-88209999D01*
X70512857Y-87138571D02*
X70441429Y-87281428D01*
X70441429Y-87567142D01*
X70512857Y-87709999D01*
X70655714Y-87781428D01*
X71227143Y-87781428D01*
X71370000Y-87709999D01*
X71441429Y-87567142D01*
X71441429Y-87281428D01*
X71370000Y-87138571D01*
X71227143Y-87067142D01*
X71084286Y-87067142D01*
X70941429Y-87781428D01*
X70512857Y-85781428D02*
X70441429Y-85924285D01*
X70441429Y-86209999D01*
X70512857Y-86352857D01*
X70584286Y-86424285D01*
X70727143Y-86495714D01*
X71155714Y-86495714D01*
X71298571Y-86424285D01*
X71370000Y-86352857D01*
X71441429Y-86209999D01*
X71441429Y-85924285D01*
X71370000Y-85781428D01*
X71441429Y-85352857D02*
X71441429Y-84781428D01*
X71941429Y-85138571D02*
X70655714Y-85138571D01*
X70512857Y-85067143D01*
X70441429Y-84924285D01*
X70441429Y-84781428D01*
X70441429Y-84067142D02*
X70512857Y-84210000D01*
X70584286Y-84281428D01*
X70727143Y-84352857D01*
X71155714Y-84352857D01*
X71298571Y-84281428D01*
X71370000Y-84210000D01*
X71441429Y-84067142D01*
X71441429Y-83852857D01*
X71370000Y-83710000D01*
X71298571Y-83638571D01*
X71155714Y-83567142D01*
X70727143Y-83567142D01*
X70584286Y-83638571D01*
X70512857Y-83710000D01*
X70441429Y-83852857D01*
X70441429Y-84067142D01*
X70441429Y-82924285D02*
X71441429Y-82924285D01*
X71155714Y-82924285D02*
X71298571Y-82852857D01*
X71370000Y-82781428D01*
X71441429Y-82638571D01*
X71441429Y-82495714D01*
X70298571Y-82352857D02*
X70298571Y-81210000D01*
X71941429Y-81067143D02*
X70441429Y-80567143D01*
X71941429Y-80067143D01*
X71798571Y-79638572D02*
X71870000Y-79567143D01*
X71941429Y-79424286D01*
X71941429Y-79067143D01*
X71870000Y-78924286D01*
X71798571Y-78852857D01*
X71655714Y-78781429D01*
X71512857Y-78781429D01*
X71298571Y-78852857D01*
X70441429Y-79710000D01*
X70441429Y-78781429D01*
M02*
