M48
INCH,TZ
T1C0.016
T2C0.028
T3C0.031
T4C0.035
T5C0.040
%
G90
G05
T1
X27050Y-38150
X29400Y-34450
X36000Y-34200
T2
X35499Y-41000
X35499Y-45000
X37001Y-41000
X37001Y-45000
T3
X25500Y-49500
X26878Y-49500
T4
X25500Y-34750
X25500Y-36719
X28731Y-39350
X30700Y-39350
X32500Y-35000
X32500Y-38000
X34469Y-35000
X34469Y-38000
T5
X23500Y-32500
X23500Y-33500
X23500Y-34500
X23500Y-35500
X23500Y-36500
X23500Y-37500
X23500Y-38500
X23500Y-39500
X23500Y-40500
X23500Y-41500
X23500Y-42500
X23500Y-43500
X23500Y-44500
X23500Y-45500
X23500Y-46500
X23500Y-47500
X23500Y-48500
X23500Y-49500
X23500Y-50500
X25500Y-32500
X26500Y-32500
X29000Y-50000
X30000Y-50000
X33000Y-32500
X34000Y-32500
T0
M30
