G04 #@! TF.FileFunction,Legend,Bot*
%FSLAX46Y46*%
G04 Gerber Fmt 4.6, Leading zero omitted, Abs format (unit mm)*
G04 Created by KiCad (PCBNEW 4.0.3+e1-6302~38~ubuntu16.04.1-stable) date Thu Aug 25 17:19:13 2016*
%MOMM*%
%LPD*%
G01*
G04 APERTURE LIST*
%ADD10C,0.100000*%
%ADD11C,0.300000*%
G04 APERTURE END LIST*
D10*
D11*
X102428570Y-102278571D02*
X102428570Y-100778571D01*
X102071427Y-100778571D01*
X101857142Y-100850000D01*
X101714284Y-100992857D01*
X101642856Y-101135714D01*
X101571427Y-101421429D01*
X101571427Y-101635714D01*
X101642856Y-101921429D01*
X101714284Y-102064286D01*
X101857142Y-102207143D01*
X102071427Y-102278571D01*
X102428570Y-102278571D01*
X100428570Y-101492857D02*
X100214284Y-101564286D01*
X100142856Y-101635714D01*
X100071427Y-101778571D01*
X100071427Y-101992857D01*
X100142856Y-102135714D01*
X100214284Y-102207143D01*
X100357142Y-102278571D01*
X100928570Y-102278571D01*
X100928570Y-100778571D01*
X100428570Y-100778571D01*
X100285713Y-100850000D01*
X100214284Y-100921429D01*
X100142856Y-101064286D01*
X100142856Y-101207143D01*
X100214284Y-101350000D01*
X100285713Y-101421429D01*
X100428570Y-101492857D01*
X100928570Y-101492857D01*
X99785713Y-102421429D02*
X98642856Y-102421429D01*
X98285713Y-102278571D02*
X98285713Y-100778571D01*
X97714285Y-100778571D01*
X97571427Y-100850000D01*
X97499999Y-100921429D01*
X97428570Y-101064286D01*
X97428570Y-101278571D01*
X97499999Y-101421429D01*
X97571427Y-101492857D01*
X97714285Y-101564286D01*
X98285713Y-101564286D01*
X96142856Y-101278571D02*
X96142856Y-102278571D01*
X96785713Y-101278571D02*
X96785713Y-102064286D01*
X96714285Y-102207143D01*
X96571427Y-102278571D01*
X96357142Y-102278571D01*
X96214285Y-102207143D01*
X96142856Y-102135714D01*
X95214284Y-102278571D02*
X95357142Y-102207143D01*
X95428570Y-102064286D01*
X95428570Y-100778571D01*
X94714285Y-102207143D02*
X94571428Y-102278571D01*
X94285713Y-102278571D01*
X94142856Y-102207143D01*
X94071428Y-102064286D01*
X94071428Y-101992857D01*
X94142856Y-101850000D01*
X94285713Y-101778571D01*
X94499999Y-101778571D01*
X94642856Y-101707143D01*
X94714285Y-101564286D01*
X94714285Y-101492857D01*
X94642856Y-101350000D01*
X94499999Y-101278571D01*
X94285713Y-101278571D01*
X94142856Y-101350000D01*
X92857142Y-102207143D02*
X92999999Y-102278571D01*
X93285713Y-102278571D01*
X93428570Y-102207143D01*
X93499999Y-102064286D01*
X93499999Y-101492857D01*
X93428570Y-101350000D01*
X93285713Y-101278571D01*
X92999999Y-101278571D01*
X92857142Y-101350000D01*
X92785713Y-101492857D01*
X92785713Y-101635714D01*
X93499999Y-101778571D01*
X92142856Y-102278571D02*
X92142856Y-101278571D01*
X92142856Y-101564286D02*
X92071428Y-101421429D01*
X91999999Y-101350000D01*
X91857142Y-101278571D01*
X91714285Y-101278571D01*
X91571428Y-102421429D02*
X90428571Y-102421429D01*
X90285714Y-100778571D02*
X89785714Y-102278571D01*
X89285714Y-100778571D01*
X88000000Y-102278571D02*
X88857143Y-102278571D01*
X88428571Y-102278571D02*
X88428571Y-100778571D01*
X88571428Y-100992857D01*
X88714286Y-101135714D01*
X88857143Y-101207143D01*
M02*
