M48
INCH,TZ
T1C0.016
T2C0.031
T3C0.032
T4C0.039
T5C0.040
%
G90
G05
T1
X37500Y-45000
X42000Y-50000
X45500Y-44500
T2
X35000Y-35000
X35984Y-35000
X36000Y-37500
X41000Y-35000
X41984Y-35000
X42000Y-37500
X44000Y-40000
X44000Y-41000
X44500Y-40500
T3
X35016Y-37500
X41016Y-37500
T4
X37500Y-39500
X37500Y-41000
X41500Y-39500
X41500Y-41000
T5
X32500Y-34500
X32500Y-35500
X32500Y-36500
X32500Y-37500
X32500Y-38500
X32500Y-39500
X32500Y-40500
X32500Y-41500
X32500Y-42500
X32500Y-43500
X32500Y-44500
X32500Y-45500
X32500Y-46500
X32500Y-47500
X32500Y-48500
X32500Y-49500
X32500Y-50500
X32500Y-51500
X32500Y-52500
X36000Y-45000
X36000Y-46000
X36000Y-47000
X36000Y-48000
X36000Y-49000
X36000Y-50000
X36000Y-51000
X36000Y-52000
X39000Y-45000
X39000Y-46000
X39000Y-47000
X39000Y-48000
X39000Y-49000
X39000Y-50000
X39000Y-51000
X39000Y-52000
X44000Y-45000
X44000Y-46000
X44000Y-47000
X44000Y-48000
X44000Y-49000
X44000Y-50000
X44000Y-51000
X44000Y-52000
X46500Y-47000
X46500Y-48000
X46500Y-49000
X46500Y-50000
X50000Y-36500
X50000Y-37500
X50000Y-38500
X50000Y-39500
X50000Y-40500
X50000Y-41500
X50000Y-42500
X50000Y-43500
X50000Y-44500
X50000Y-45500
X50000Y-46500
X50000Y-47500
X50000Y-48500
X50000Y-49500
X50000Y-50500
X56000Y-36500
X56000Y-37500
X56000Y-38500
X56000Y-39500
X56000Y-40500
X56000Y-41500
X56000Y-42500
X56000Y-43500
X56000Y-44500
X56000Y-45500
X56000Y-46500
X56000Y-47500
X56000Y-48500
X56000Y-49500
X56000Y-50500
T0
M30
