G04 #@! TF.FileFunction,Copper,L2,Bot,Signal*
%FSLAX46Y46*%
G04 Gerber Fmt 4.6, Leading zero omitted, Abs format (unit mm)*
G04 Created by KiCad (PCBNEW 4.0.4+e1-6308~48~ubuntu16.04.1-stable) date Fri Dec  2 12:05:53 2016*
%MOMM*%
%LPD*%
G01*
G04 APERTURE LIST*
%ADD10C,0.100000*%
%ADD11C,2.000000*%
%ADD12R,2.032000X2.032000*%
%ADD13O,2.032000X2.032000*%
%ADD14R,2.032000X1.727200*%
%ADD15O,2.032000X1.727200*%
%ADD16R,1.400000X1.400000*%
%ADD17C,1.400000*%
%ADD18C,1.998980*%
%ADD19C,1.699260*%
%ADD20R,1.699260X1.699260*%
%ADD21C,0.600000*%
%ADD22C,0.250000*%
%ADD23C,0.254000*%
G04 APERTURE END LIST*
D10*
D11*
X93980000Y-105410000D03*
X102870000Y-114300000D03*
D12*
X99060000Y-77470000D03*
D13*
X96520000Y-77470000D03*
D12*
X81280000Y-77470000D03*
D13*
X78740000Y-77470000D03*
D12*
X78740000Y-124460000D03*
D13*
X81280000Y-124460000D03*
D14*
X73660000Y-78740000D03*
D15*
X73660000Y-81280000D03*
X73660000Y-83820000D03*
X73660000Y-86360000D03*
X73660000Y-88900000D03*
X73660000Y-91440000D03*
X73660000Y-93980000D03*
X73660000Y-96520000D03*
X73660000Y-99060000D03*
X73660000Y-101600000D03*
X73660000Y-104140000D03*
X73660000Y-106680000D03*
X73660000Y-109220000D03*
X73660000Y-111760000D03*
X73660000Y-114300000D03*
X73660000Y-116840000D03*
X73660000Y-119380000D03*
X73660000Y-121920000D03*
X73660000Y-124460000D03*
D16*
X102870000Y-124460000D03*
D17*
X102870000Y-119460000D03*
D18*
X78740000Y-113030000D03*
X88900000Y-113030000D03*
D19*
X99057460Y-114299480D03*
D20*
X99057460Y-124459480D03*
D19*
X96522540Y-124460520D03*
D20*
X96522540Y-114300520D03*
D21*
X86360000Y-82550000D03*
X102235000Y-106680000D03*
D22*
X93980000Y-105410000D02*
X93980000Y-90170000D01*
X93980000Y-90170000D02*
X86360000Y-82550000D01*
X78740000Y-86360000D02*
X73660000Y-81280000D01*
X78740000Y-97155000D02*
X78740000Y-86360000D01*
X90805000Y-109220000D02*
X78740000Y-97155000D01*
X95250000Y-109220000D02*
X90805000Y-109220000D01*
X97790000Y-106680000D02*
X95250000Y-109220000D01*
X102235000Y-106680000D02*
X97790000Y-106680000D01*
D23*
G36*
X112320000Y-126290000D02*
X71830000Y-126290000D01*
X71830000Y-81280000D01*
X71976655Y-81280000D01*
X72090729Y-81853489D01*
X72415585Y-82339670D01*
X72730366Y-82550000D01*
X72415585Y-82760330D01*
X72090729Y-83246511D01*
X71976655Y-83820000D01*
X72090729Y-84393489D01*
X72415585Y-84879670D01*
X72730366Y-85090000D01*
X72415585Y-85300330D01*
X72090729Y-85786511D01*
X71976655Y-86360000D01*
X72090729Y-86933489D01*
X72415585Y-87419670D01*
X72730366Y-87630000D01*
X72415585Y-87840330D01*
X72090729Y-88326511D01*
X71976655Y-88900000D01*
X72090729Y-89473489D01*
X72415585Y-89959670D01*
X72730366Y-90170000D01*
X72415585Y-90380330D01*
X72090729Y-90866511D01*
X71976655Y-91440000D01*
X72090729Y-92013489D01*
X72415585Y-92499670D01*
X72730366Y-92710000D01*
X72415585Y-92920330D01*
X72090729Y-93406511D01*
X71976655Y-93980000D01*
X72090729Y-94553489D01*
X72415585Y-95039670D01*
X72730366Y-95250000D01*
X72415585Y-95460330D01*
X72090729Y-95946511D01*
X71976655Y-96520000D01*
X72090729Y-97093489D01*
X72415585Y-97579670D01*
X72730366Y-97790000D01*
X72415585Y-98000330D01*
X72090729Y-98486511D01*
X71976655Y-99060000D01*
X72090729Y-99633489D01*
X72415585Y-100119670D01*
X72730366Y-100330000D01*
X72415585Y-100540330D01*
X72090729Y-101026511D01*
X71976655Y-101600000D01*
X72090729Y-102173489D01*
X72415585Y-102659670D01*
X72730366Y-102870000D01*
X72415585Y-103080330D01*
X72090729Y-103566511D01*
X71976655Y-104140000D01*
X72090729Y-104713489D01*
X72415585Y-105199670D01*
X72730366Y-105410000D01*
X72415585Y-105620330D01*
X72090729Y-106106511D01*
X71976655Y-106680000D01*
X72090729Y-107253489D01*
X72415585Y-107739670D01*
X72730366Y-107950000D01*
X72415585Y-108160330D01*
X72090729Y-108646511D01*
X71976655Y-109220000D01*
X72090729Y-109793489D01*
X72415585Y-110279670D01*
X72730366Y-110490000D01*
X72415585Y-110700330D01*
X72090729Y-111186511D01*
X71976655Y-111760000D01*
X72090729Y-112333489D01*
X72415585Y-112819670D01*
X72730366Y-113030000D01*
X72415585Y-113240330D01*
X72090729Y-113726511D01*
X71976655Y-114300000D01*
X72090729Y-114873489D01*
X72415585Y-115359670D01*
X72730366Y-115570000D01*
X72415585Y-115780330D01*
X72090729Y-116266511D01*
X71976655Y-116840000D01*
X72090729Y-117413489D01*
X72415585Y-117899670D01*
X72730366Y-118110000D01*
X72415585Y-118320330D01*
X72090729Y-118806511D01*
X71976655Y-119380000D01*
X72090729Y-119953489D01*
X72415585Y-120439670D01*
X72730366Y-120650000D01*
X72415585Y-120860330D01*
X72090729Y-121346511D01*
X71976655Y-121920000D01*
X72090729Y-122493489D01*
X72415585Y-122979670D01*
X72730366Y-123190000D01*
X72415585Y-123400330D01*
X72090729Y-123886511D01*
X71976655Y-124460000D01*
X72090729Y-125033489D01*
X72415585Y-125519670D01*
X72901766Y-125844526D01*
X73475255Y-125958600D01*
X73844745Y-125958600D01*
X74418234Y-125844526D01*
X74904415Y-125519670D01*
X75229271Y-125033489D01*
X75343345Y-124460000D01*
X75229271Y-123886511D01*
X74933595Y-123444000D01*
X77076560Y-123444000D01*
X77076560Y-125476000D01*
X77120838Y-125711317D01*
X77259910Y-125927441D01*
X77472110Y-126072431D01*
X77724000Y-126123440D01*
X79756000Y-126123440D01*
X79991317Y-126079162D01*
X80207441Y-125940090D01*
X80307856Y-125793128D01*
X80311621Y-125797188D01*
X80897054Y-126065983D01*
X81153000Y-125947367D01*
X81153000Y-124587000D01*
X81407000Y-124587000D01*
X81407000Y-125947367D01*
X81662946Y-126065983D01*
X82248379Y-125797188D01*
X82520043Y-125504210D01*
X95658455Y-125504210D01*
X95738682Y-125755473D01*
X96293907Y-125956870D01*
X96883939Y-125930461D01*
X97306398Y-125755473D01*
X97386625Y-125504210D01*
X96522540Y-124640125D01*
X95658455Y-125504210D01*
X82520043Y-125504210D01*
X82686385Y-125324818D01*
X82885975Y-124842944D01*
X82766836Y-124587000D01*
X81407000Y-124587000D01*
X81153000Y-124587000D01*
X81133000Y-124587000D01*
X81133000Y-124333000D01*
X81153000Y-124333000D01*
X81153000Y-122972633D01*
X81407000Y-122972633D01*
X81407000Y-124333000D01*
X82766836Y-124333000D01*
X82813902Y-124231887D01*
X95026190Y-124231887D01*
X95052599Y-124821919D01*
X95227587Y-125244378D01*
X95478850Y-125324605D01*
X96342935Y-124460520D01*
X96702145Y-124460520D01*
X97566230Y-125324605D01*
X97572830Y-125322498D01*
X97572830Y-125435419D01*
X97669503Y-125668808D01*
X97848131Y-125847437D01*
X98081520Y-125944110D01*
X98771710Y-125944110D01*
X98930460Y-125785360D01*
X98930460Y-124586480D01*
X99184460Y-124586480D01*
X99184460Y-125785360D01*
X99343210Y-125944110D01*
X100033400Y-125944110D01*
X100266789Y-125847437D01*
X100445417Y-125668808D01*
X100542090Y-125435419D01*
X100542090Y-124745230D01*
X100383340Y-124586480D01*
X99184460Y-124586480D01*
X98930460Y-124586480D01*
X98910460Y-124586480D01*
X98910460Y-124332480D01*
X98930460Y-124332480D01*
X98930460Y-123133600D01*
X99184460Y-123133600D01*
X99184460Y-124332480D01*
X100383340Y-124332480D01*
X100542090Y-124173730D01*
X100542090Y-123760000D01*
X101522560Y-123760000D01*
X101522560Y-125160000D01*
X101566838Y-125395317D01*
X101705910Y-125611441D01*
X101918110Y-125756431D01*
X102170000Y-125807440D01*
X103570000Y-125807440D01*
X103805317Y-125763162D01*
X104021441Y-125624090D01*
X104166431Y-125411890D01*
X104217440Y-125160000D01*
X104217440Y-123760000D01*
X104173162Y-123524683D01*
X104034090Y-123308559D01*
X103821890Y-123163569D01*
X103570000Y-123112560D01*
X102170000Y-123112560D01*
X101934683Y-123156838D01*
X101718559Y-123295910D01*
X101573569Y-123508110D01*
X101522560Y-123760000D01*
X100542090Y-123760000D01*
X100542090Y-123483541D01*
X100445417Y-123250152D01*
X100266789Y-123071523D01*
X100033400Y-122974850D01*
X99343210Y-122974850D01*
X99184460Y-123133600D01*
X98930460Y-123133600D01*
X98771710Y-122974850D01*
X98081520Y-122974850D01*
X97848131Y-123071523D01*
X97669503Y-123250152D01*
X97572830Y-123483541D01*
X97572830Y-123598542D01*
X97566230Y-123596435D01*
X96702145Y-124460520D01*
X96342935Y-124460520D01*
X95478850Y-123596435D01*
X95227587Y-123676662D01*
X95026190Y-124231887D01*
X82813902Y-124231887D01*
X82885975Y-124077056D01*
X82686385Y-123595182D01*
X82521008Y-123416830D01*
X95658455Y-123416830D01*
X96522540Y-124280915D01*
X97386625Y-123416830D01*
X97306398Y-123165567D01*
X96751173Y-122964170D01*
X96161141Y-122990579D01*
X95738682Y-123165567D01*
X95658455Y-123416830D01*
X82521008Y-123416830D01*
X82248379Y-123122812D01*
X81662946Y-122854017D01*
X81407000Y-122972633D01*
X81153000Y-122972633D01*
X80897054Y-122854017D01*
X80311621Y-123122812D01*
X80307066Y-123127724D01*
X80220090Y-122992559D01*
X80007890Y-122847569D01*
X79756000Y-122796560D01*
X77724000Y-122796560D01*
X77488683Y-122840838D01*
X77272559Y-122979910D01*
X77127569Y-123192110D01*
X77076560Y-123444000D01*
X74933595Y-123444000D01*
X74904415Y-123400330D01*
X74589634Y-123190000D01*
X74904415Y-122979670D01*
X75229271Y-122493489D01*
X75343345Y-121920000D01*
X75229271Y-121346511D01*
X74904415Y-120860330D01*
X74589634Y-120650000D01*
X74904415Y-120439670D01*
X75229271Y-119953489D01*
X75274842Y-119724383D01*
X101534769Y-119724383D01*
X101737582Y-120215229D01*
X102112796Y-120591098D01*
X102603287Y-120794768D01*
X103134383Y-120795231D01*
X103625229Y-120592418D01*
X104001098Y-120217204D01*
X104204768Y-119726713D01*
X104205231Y-119195617D01*
X104002418Y-118704771D01*
X103627204Y-118328902D01*
X103136713Y-118125232D01*
X102605617Y-118124769D01*
X102114771Y-118327582D01*
X101738902Y-118702796D01*
X101535232Y-119193287D01*
X101534769Y-119724383D01*
X75274842Y-119724383D01*
X75343345Y-119380000D01*
X75229271Y-118806511D01*
X74904415Y-118320330D01*
X74589634Y-118110000D01*
X74904415Y-117899670D01*
X75229271Y-117413489D01*
X75343345Y-116840000D01*
X75229271Y-116266511D01*
X74904415Y-115780330D01*
X74589634Y-115570000D01*
X74904415Y-115359670D01*
X75229271Y-114873489D01*
X75343345Y-114300000D01*
X75229271Y-113726511D01*
X74980163Y-113353694D01*
X77105226Y-113353694D01*
X77353538Y-113954655D01*
X77812927Y-114414846D01*
X78413453Y-114664206D01*
X79063694Y-114664774D01*
X79664655Y-114416462D01*
X79899363Y-114182163D01*
X87927443Y-114182163D01*
X88026042Y-114448965D01*
X88635582Y-114675401D01*
X89285377Y-114651341D01*
X89773958Y-114448965D01*
X89872557Y-114182163D01*
X88900000Y-113209605D01*
X87927443Y-114182163D01*
X79899363Y-114182163D01*
X80124846Y-113957073D01*
X80374206Y-113356547D01*
X80374722Y-112765582D01*
X87254599Y-112765582D01*
X87278659Y-113415377D01*
X87481035Y-113903958D01*
X87747837Y-114002557D01*
X88720395Y-113030000D01*
X89079605Y-113030000D01*
X90052163Y-114002557D01*
X90318965Y-113903958D01*
X90487273Y-113450890D01*
X95025470Y-113450890D01*
X95025470Y-115150150D01*
X95069748Y-115385467D01*
X95208820Y-115601591D01*
X95421020Y-115746581D01*
X95672910Y-115797590D01*
X97372170Y-115797590D01*
X97607487Y-115753312D01*
X97823611Y-115614240D01*
X97968601Y-115402040D01*
X97984073Y-115325637D01*
X98215386Y-115557354D01*
X98760853Y-115783852D01*
X99351476Y-115784368D01*
X99897337Y-115558822D01*
X100315334Y-115141554D01*
X100530326Y-114623795D01*
X101234716Y-114623795D01*
X101483106Y-115224943D01*
X101942637Y-115685278D01*
X102543352Y-115934716D01*
X103193795Y-115935284D01*
X103794943Y-115686894D01*
X104255278Y-115227363D01*
X104504716Y-114626648D01*
X104505284Y-113976205D01*
X104256894Y-113375057D01*
X103797363Y-112914722D01*
X103196648Y-112665284D01*
X102546205Y-112664716D01*
X101945057Y-112913106D01*
X101484722Y-113372637D01*
X101235284Y-113973352D01*
X101234716Y-114623795D01*
X100530326Y-114623795D01*
X100541832Y-114596087D01*
X100542348Y-114005464D01*
X100316802Y-113459603D01*
X99899534Y-113041606D01*
X99354067Y-112815108D01*
X98763444Y-112814592D01*
X98217583Y-113040138D01*
X97985849Y-113271468D01*
X97975332Y-113215573D01*
X97836260Y-112999449D01*
X97624060Y-112854459D01*
X97372170Y-112803450D01*
X95672910Y-112803450D01*
X95437593Y-112847728D01*
X95221469Y-112986800D01*
X95076479Y-113199000D01*
X95025470Y-113450890D01*
X90487273Y-113450890D01*
X90545401Y-113294418D01*
X90521341Y-112644623D01*
X90318965Y-112156042D01*
X90052163Y-112057443D01*
X89079605Y-113030000D01*
X88720395Y-113030000D01*
X87747837Y-112057443D01*
X87481035Y-112156042D01*
X87254599Y-112765582D01*
X80374722Y-112765582D01*
X80374774Y-112706306D01*
X80126462Y-112105345D01*
X79899351Y-111877837D01*
X87927443Y-111877837D01*
X88900000Y-112850395D01*
X89872557Y-111877837D01*
X89773958Y-111611035D01*
X89164418Y-111384599D01*
X88514623Y-111408659D01*
X88026042Y-111611035D01*
X87927443Y-111877837D01*
X79899351Y-111877837D01*
X79667073Y-111645154D01*
X79066547Y-111395794D01*
X78416306Y-111395226D01*
X77815345Y-111643538D01*
X77355154Y-112102927D01*
X77105794Y-112703453D01*
X77105226Y-113353694D01*
X74980163Y-113353694D01*
X74904415Y-113240330D01*
X74589634Y-113030000D01*
X74904415Y-112819670D01*
X75229271Y-112333489D01*
X75343345Y-111760000D01*
X75229271Y-111186511D01*
X74904415Y-110700330D01*
X74589634Y-110490000D01*
X74904415Y-110279670D01*
X75229271Y-109793489D01*
X75343345Y-109220000D01*
X75229271Y-108646511D01*
X74904415Y-108160330D01*
X74589634Y-107950000D01*
X74904415Y-107739670D01*
X75229271Y-107253489D01*
X75343345Y-106680000D01*
X75229271Y-106106511D01*
X74904415Y-105620330D01*
X74589634Y-105410000D01*
X74904415Y-105199670D01*
X75229271Y-104713489D01*
X75343345Y-104140000D01*
X75229271Y-103566511D01*
X74904415Y-103080330D01*
X74589634Y-102870000D01*
X74904415Y-102659670D01*
X75229271Y-102173489D01*
X75343345Y-101600000D01*
X75229271Y-101026511D01*
X74904415Y-100540330D01*
X74589634Y-100330000D01*
X74904415Y-100119670D01*
X75229271Y-99633489D01*
X75343345Y-99060000D01*
X75229271Y-98486511D01*
X74904415Y-98000330D01*
X74589634Y-97790000D01*
X74904415Y-97579670D01*
X75229271Y-97093489D01*
X75343345Y-96520000D01*
X75229271Y-95946511D01*
X74904415Y-95460330D01*
X74589634Y-95250000D01*
X74904415Y-95039670D01*
X75229271Y-94553489D01*
X75343345Y-93980000D01*
X75229271Y-93406511D01*
X74904415Y-92920330D01*
X74589634Y-92710000D01*
X74904415Y-92499670D01*
X75229271Y-92013489D01*
X75343345Y-91440000D01*
X75229271Y-90866511D01*
X74904415Y-90380330D01*
X74589634Y-90170000D01*
X74904415Y-89959670D01*
X75229271Y-89473489D01*
X75343345Y-88900000D01*
X75229271Y-88326511D01*
X74904415Y-87840330D01*
X74589634Y-87630000D01*
X74904415Y-87419670D01*
X75229271Y-86933489D01*
X75343345Y-86360000D01*
X75229271Y-85786511D01*
X74904415Y-85300330D01*
X74589634Y-85090000D01*
X74904415Y-84879670D01*
X75229271Y-84393489D01*
X75307152Y-84001954D01*
X77980000Y-86674802D01*
X77980000Y-97155000D01*
X78037852Y-97445839D01*
X78202599Y-97692401D01*
X90267599Y-109757401D01*
X90514161Y-109922148D01*
X90805000Y-109980000D01*
X95250000Y-109980000D01*
X95540839Y-109922148D01*
X95787401Y-109757401D01*
X98104802Y-107440000D01*
X101672537Y-107440000D01*
X101704673Y-107472192D01*
X102048201Y-107614838D01*
X102420167Y-107615162D01*
X102763943Y-107473117D01*
X103027192Y-107210327D01*
X103169838Y-106866799D01*
X103170162Y-106494833D01*
X103028117Y-106151057D01*
X102765327Y-105887808D01*
X102421799Y-105745162D01*
X102049833Y-105744838D01*
X101706057Y-105886883D01*
X101672882Y-105920000D01*
X97790000Y-105920000D01*
X97547414Y-105968254D01*
X97499160Y-105977852D01*
X97252599Y-106142599D01*
X94935198Y-108460000D01*
X91119802Y-108460000D01*
X79500000Y-96840198D01*
X79500000Y-86360000D01*
X79442148Y-86069161D01*
X79277401Y-85822599D01*
X76189969Y-82735167D01*
X85424838Y-82735167D01*
X85566883Y-83078943D01*
X85829673Y-83342192D01*
X86173201Y-83484838D01*
X86220077Y-83484879D01*
X93220000Y-90484802D01*
X93220000Y-103954953D01*
X93055057Y-104023106D01*
X92594722Y-104482637D01*
X92345284Y-105083352D01*
X92344716Y-105733795D01*
X92593106Y-106334943D01*
X93052637Y-106795278D01*
X93653352Y-107044716D01*
X94303795Y-107045284D01*
X94904943Y-106796894D01*
X95365278Y-106337363D01*
X95614716Y-105736648D01*
X95615284Y-105086205D01*
X95366894Y-104485057D01*
X94907363Y-104024722D01*
X94740000Y-103955227D01*
X94740000Y-90170000D01*
X94717219Y-90055474D01*
X94682148Y-89879160D01*
X94517401Y-89632599D01*
X87295122Y-82410320D01*
X87295162Y-82364833D01*
X87153117Y-82021057D01*
X86890327Y-81757808D01*
X86546799Y-81615162D01*
X86174833Y-81614838D01*
X85831057Y-81756883D01*
X85567808Y-82019673D01*
X85425162Y-82363201D01*
X85424838Y-82735167D01*
X76189969Y-82735167D01*
X75242381Y-81787579D01*
X75343345Y-81280000D01*
X75229271Y-80706511D01*
X74904415Y-80220330D01*
X74882220Y-80205500D01*
X75035699Y-80141927D01*
X75214327Y-79963298D01*
X75311000Y-79729909D01*
X75311000Y-79025750D01*
X75152250Y-78867000D01*
X73787000Y-78867000D01*
X73787000Y-78887000D01*
X73533000Y-78887000D01*
X73533000Y-78867000D01*
X72167750Y-78867000D01*
X72009000Y-79025750D01*
X72009000Y-79729909D01*
X72105673Y-79963298D01*
X72284301Y-80141927D01*
X72437780Y-80205500D01*
X72415585Y-80220330D01*
X72090729Y-80706511D01*
X71976655Y-81280000D01*
X71830000Y-81280000D01*
X71830000Y-77750091D01*
X72009000Y-77750091D01*
X72009000Y-78454250D01*
X72167750Y-78613000D01*
X73533000Y-78613000D01*
X73533000Y-77400150D01*
X73787000Y-77400150D01*
X73787000Y-78613000D01*
X75152250Y-78613000D01*
X75311000Y-78454250D01*
X75311000Y-77852944D01*
X77134025Y-77852944D01*
X77333615Y-78334818D01*
X77771621Y-78807188D01*
X78357054Y-79075983D01*
X78613000Y-78957367D01*
X78613000Y-77597000D01*
X77253164Y-77597000D01*
X77134025Y-77852944D01*
X75311000Y-77852944D01*
X75311000Y-77750091D01*
X75214327Y-77516702D01*
X75035699Y-77338073D01*
X74802310Y-77241400D01*
X73945750Y-77241400D01*
X73787000Y-77400150D01*
X73533000Y-77400150D01*
X73374250Y-77241400D01*
X72517690Y-77241400D01*
X72284301Y-77338073D01*
X72105673Y-77516702D01*
X72009000Y-77750091D01*
X71830000Y-77750091D01*
X71830000Y-77087056D01*
X77134025Y-77087056D01*
X77253164Y-77343000D01*
X78613000Y-77343000D01*
X78613000Y-75982633D01*
X78867000Y-75982633D01*
X78867000Y-77343000D01*
X78887000Y-77343000D01*
X78887000Y-77597000D01*
X78867000Y-77597000D01*
X78867000Y-78957367D01*
X79122946Y-79075983D01*
X79708379Y-78807188D01*
X79712934Y-78802276D01*
X79799910Y-78937441D01*
X80012110Y-79082431D01*
X80264000Y-79133440D01*
X82296000Y-79133440D01*
X82531317Y-79089162D01*
X82747441Y-78950090D01*
X82892431Y-78737890D01*
X82943440Y-78486000D01*
X82943440Y-77852944D01*
X94914025Y-77852944D01*
X95113615Y-78334818D01*
X95551621Y-78807188D01*
X96137054Y-79075983D01*
X96393000Y-78957367D01*
X96393000Y-77597000D01*
X95033164Y-77597000D01*
X94914025Y-77852944D01*
X82943440Y-77852944D01*
X82943440Y-77087056D01*
X94914025Y-77087056D01*
X95033164Y-77343000D01*
X96393000Y-77343000D01*
X96393000Y-75982633D01*
X96647000Y-75982633D01*
X96647000Y-77343000D01*
X96667000Y-77343000D01*
X96667000Y-77597000D01*
X96647000Y-77597000D01*
X96647000Y-78957367D01*
X96902946Y-79075983D01*
X97488379Y-78807188D01*
X97492934Y-78802276D01*
X97579910Y-78937441D01*
X97792110Y-79082431D01*
X98044000Y-79133440D01*
X100076000Y-79133440D01*
X100311317Y-79089162D01*
X100527441Y-78950090D01*
X100672431Y-78737890D01*
X100723440Y-78486000D01*
X100723440Y-76454000D01*
X100679162Y-76218683D01*
X100540090Y-76002559D01*
X100327890Y-75857569D01*
X100076000Y-75806560D01*
X98044000Y-75806560D01*
X97808683Y-75850838D01*
X97592559Y-75989910D01*
X97492144Y-76136872D01*
X97488379Y-76132812D01*
X96902946Y-75864017D01*
X96647000Y-75982633D01*
X96393000Y-75982633D01*
X96137054Y-75864017D01*
X95551621Y-76132812D01*
X95113615Y-76605182D01*
X94914025Y-77087056D01*
X82943440Y-77087056D01*
X82943440Y-76454000D01*
X82899162Y-76218683D01*
X82760090Y-76002559D01*
X82547890Y-75857569D01*
X82296000Y-75806560D01*
X80264000Y-75806560D01*
X80028683Y-75850838D01*
X79812559Y-75989910D01*
X79712144Y-76136872D01*
X79708379Y-76132812D01*
X79122946Y-75864017D01*
X78867000Y-75982633D01*
X78613000Y-75982633D01*
X78357054Y-75864017D01*
X77771621Y-76132812D01*
X77333615Y-76605182D01*
X77134025Y-77087056D01*
X71830000Y-77087056D01*
X71830000Y-75640000D01*
X112320000Y-75640000D01*
X112320000Y-126290000D01*
X112320000Y-126290000D01*
G37*
X112320000Y-126290000D02*
X71830000Y-126290000D01*
X71830000Y-81280000D01*
X71976655Y-81280000D01*
X72090729Y-81853489D01*
X72415585Y-82339670D01*
X72730366Y-82550000D01*
X72415585Y-82760330D01*
X72090729Y-83246511D01*
X71976655Y-83820000D01*
X72090729Y-84393489D01*
X72415585Y-84879670D01*
X72730366Y-85090000D01*
X72415585Y-85300330D01*
X72090729Y-85786511D01*
X71976655Y-86360000D01*
X72090729Y-86933489D01*
X72415585Y-87419670D01*
X72730366Y-87630000D01*
X72415585Y-87840330D01*
X72090729Y-88326511D01*
X71976655Y-88900000D01*
X72090729Y-89473489D01*
X72415585Y-89959670D01*
X72730366Y-90170000D01*
X72415585Y-90380330D01*
X72090729Y-90866511D01*
X71976655Y-91440000D01*
X72090729Y-92013489D01*
X72415585Y-92499670D01*
X72730366Y-92710000D01*
X72415585Y-92920330D01*
X72090729Y-93406511D01*
X71976655Y-93980000D01*
X72090729Y-94553489D01*
X72415585Y-95039670D01*
X72730366Y-95250000D01*
X72415585Y-95460330D01*
X72090729Y-95946511D01*
X71976655Y-96520000D01*
X72090729Y-97093489D01*
X72415585Y-97579670D01*
X72730366Y-97790000D01*
X72415585Y-98000330D01*
X72090729Y-98486511D01*
X71976655Y-99060000D01*
X72090729Y-99633489D01*
X72415585Y-100119670D01*
X72730366Y-100330000D01*
X72415585Y-100540330D01*
X72090729Y-101026511D01*
X71976655Y-101600000D01*
X72090729Y-102173489D01*
X72415585Y-102659670D01*
X72730366Y-102870000D01*
X72415585Y-103080330D01*
X72090729Y-103566511D01*
X71976655Y-104140000D01*
X72090729Y-104713489D01*
X72415585Y-105199670D01*
X72730366Y-105410000D01*
X72415585Y-105620330D01*
X72090729Y-106106511D01*
X71976655Y-106680000D01*
X72090729Y-107253489D01*
X72415585Y-107739670D01*
X72730366Y-107950000D01*
X72415585Y-108160330D01*
X72090729Y-108646511D01*
X71976655Y-109220000D01*
X72090729Y-109793489D01*
X72415585Y-110279670D01*
X72730366Y-110490000D01*
X72415585Y-110700330D01*
X72090729Y-111186511D01*
X71976655Y-111760000D01*
X72090729Y-112333489D01*
X72415585Y-112819670D01*
X72730366Y-113030000D01*
X72415585Y-113240330D01*
X72090729Y-113726511D01*
X71976655Y-114300000D01*
X72090729Y-114873489D01*
X72415585Y-115359670D01*
X72730366Y-115570000D01*
X72415585Y-115780330D01*
X72090729Y-116266511D01*
X71976655Y-116840000D01*
X72090729Y-117413489D01*
X72415585Y-117899670D01*
X72730366Y-118110000D01*
X72415585Y-118320330D01*
X72090729Y-118806511D01*
X71976655Y-119380000D01*
X72090729Y-119953489D01*
X72415585Y-120439670D01*
X72730366Y-120650000D01*
X72415585Y-120860330D01*
X72090729Y-121346511D01*
X71976655Y-121920000D01*
X72090729Y-122493489D01*
X72415585Y-122979670D01*
X72730366Y-123190000D01*
X72415585Y-123400330D01*
X72090729Y-123886511D01*
X71976655Y-124460000D01*
X72090729Y-125033489D01*
X72415585Y-125519670D01*
X72901766Y-125844526D01*
X73475255Y-125958600D01*
X73844745Y-125958600D01*
X74418234Y-125844526D01*
X74904415Y-125519670D01*
X75229271Y-125033489D01*
X75343345Y-124460000D01*
X75229271Y-123886511D01*
X74933595Y-123444000D01*
X77076560Y-123444000D01*
X77076560Y-125476000D01*
X77120838Y-125711317D01*
X77259910Y-125927441D01*
X77472110Y-126072431D01*
X77724000Y-126123440D01*
X79756000Y-126123440D01*
X79991317Y-126079162D01*
X80207441Y-125940090D01*
X80307856Y-125793128D01*
X80311621Y-125797188D01*
X80897054Y-126065983D01*
X81153000Y-125947367D01*
X81153000Y-124587000D01*
X81407000Y-124587000D01*
X81407000Y-125947367D01*
X81662946Y-126065983D01*
X82248379Y-125797188D01*
X82520043Y-125504210D01*
X95658455Y-125504210D01*
X95738682Y-125755473D01*
X96293907Y-125956870D01*
X96883939Y-125930461D01*
X97306398Y-125755473D01*
X97386625Y-125504210D01*
X96522540Y-124640125D01*
X95658455Y-125504210D01*
X82520043Y-125504210D01*
X82686385Y-125324818D01*
X82885975Y-124842944D01*
X82766836Y-124587000D01*
X81407000Y-124587000D01*
X81153000Y-124587000D01*
X81133000Y-124587000D01*
X81133000Y-124333000D01*
X81153000Y-124333000D01*
X81153000Y-122972633D01*
X81407000Y-122972633D01*
X81407000Y-124333000D01*
X82766836Y-124333000D01*
X82813902Y-124231887D01*
X95026190Y-124231887D01*
X95052599Y-124821919D01*
X95227587Y-125244378D01*
X95478850Y-125324605D01*
X96342935Y-124460520D01*
X96702145Y-124460520D01*
X97566230Y-125324605D01*
X97572830Y-125322498D01*
X97572830Y-125435419D01*
X97669503Y-125668808D01*
X97848131Y-125847437D01*
X98081520Y-125944110D01*
X98771710Y-125944110D01*
X98930460Y-125785360D01*
X98930460Y-124586480D01*
X99184460Y-124586480D01*
X99184460Y-125785360D01*
X99343210Y-125944110D01*
X100033400Y-125944110D01*
X100266789Y-125847437D01*
X100445417Y-125668808D01*
X100542090Y-125435419D01*
X100542090Y-124745230D01*
X100383340Y-124586480D01*
X99184460Y-124586480D01*
X98930460Y-124586480D01*
X98910460Y-124586480D01*
X98910460Y-124332480D01*
X98930460Y-124332480D01*
X98930460Y-123133600D01*
X99184460Y-123133600D01*
X99184460Y-124332480D01*
X100383340Y-124332480D01*
X100542090Y-124173730D01*
X100542090Y-123760000D01*
X101522560Y-123760000D01*
X101522560Y-125160000D01*
X101566838Y-125395317D01*
X101705910Y-125611441D01*
X101918110Y-125756431D01*
X102170000Y-125807440D01*
X103570000Y-125807440D01*
X103805317Y-125763162D01*
X104021441Y-125624090D01*
X104166431Y-125411890D01*
X104217440Y-125160000D01*
X104217440Y-123760000D01*
X104173162Y-123524683D01*
X104034090Y-123308559D01*
X103821890Y-123163569D01*
X103570000Y-123112560D01*
X102170000Y-123112560D01*
X101934683Y-123156838D01*
X101718559Y-123295910D01*
X101573569Y-123508110D01*
X101522560Y-123760000D01*
X100542090Y-123760000D01*
X100542090Y-123483541D01*
X100445417Y-123250152D01*
X100266789Y-123071523D01*
X100033400Y-122974850D01*
X99343210Y-122974850D01*
X99184460Y-123133600D01*
X98930460Y-123133600D01*
X98771710Y-122974850D01*
X98081520Y-122974850D01*
X97848131Y-123071523D01*
X97669503Y-123250152D01*
X97572830Y-123483541D01*
X97572830Y-123598542D01*
X97566230Y-123596435D01*
X96702145Y-124460520D01*
X96342935Y-124460520D01*
X95478850Y-123596435D01*
X95227587Y-123676662D01*
X95026190Y-124231887D01*
X82813902Y-124231887D01*
X82885975Y-124077056D01*
X82686385Y-123595182D01*
X82521008Y-123416830D01*
X95658455Y-123416830D01*
X96522540Y-124280915D01*
X97386625Y-123416830D01*
X97306398Y-123165567D01*
X96751173Y-122964170D01*
X96161141Y-122990579D01*
X95738682Y-123165567D01*
X95658455Y-123416830D01*
X82521008Y-123416830D01*
X82248379Y-123122812D01*
X81662946Y-122854017D01*
X81407000Y-122972633D01*
X81153000Y-122972633D01*
X80897054Y-122854017D01*
X80311621Y-123122812D01*
X80307066Y-123127724D01*
X80220090Y-122992559D01*
X80007890Y-122847569D01*
X79756000Y-122796560D01*
X77724000Y-122796560D01*
X77488683Y-122840838D01*
X77272559Y-122979910D01*
X77127569Y-123192110D01*
X77076560Y-123444000D01*
X74933595Y-123444000D01*
X74904415Y-123400330D01*
X74589634Y-123190000D01*
X74904415Y-122979670D01*
X75229271Y-122493489D01*
X75343345Y-121920000D01*
X75229271Y-121346511D01*
X74904415Y-120860330D01*
X74589634Y-120650000D01*
X74904415Y-120439670D01*
X75229271Y-119953489D01*
X75274842Y-119724383D01*
X101534769Y-119724383D01*
X101737582Y-120215229D01*
X102112796Y-120591098D01*
X102603287Y-120794768D01*
X103134383Y-120795231D01*
X103625229Y-120592418D01*
X104001098Y-120217204D01*
X104204768Y-119726713D01*
X104205231Y-119195617D01*
X104002418Y-118704771D01*
X103627204Y-118328902D01*
X103136713Y-118125232D01*
X102605617Y-118124769D01*
X102114771Y-118327582D01*
X101738902Y-118702796D01*
X101535232Y-119193287D01*
X101534769Y-119724383D01*
X75274842Y-119724383D01*
X75343345Y-119380000D01*
X75229271Y-118806511D01*
X74904415Y-118320330D01*
X74589634Y-118110000D01*
X74904415Y-117899670D01*
X75229271Y-117413489D01*
X75343345Y-116840000D01*
X75229271Y-116266511D01*
X74904415Y-115780330D01*
X74589634Y-115570000D01*
X74904415Y-115359670D01*
X75229271Y-114873489D01*
X75343345Y-114300000D01*
X75229271Y-113726511D01*
X74980163Y-113353694D01*
X77105226Y-113353694D01*
X77353538Y-113954655D01*
X77812927Y-114414846D01*
X78413453Y-114664206D01*
X79063694Y-114664774D01*
X79664655Y-114416462D01*
X79899363Y-114182163D01*
X87927443Y-114182163D01*
X88026042Y-114448965D01*
X88635582Y-114675401D01*
X89285377Y-114651341D01*
X89773958Y-114448965D01*
X89872557Y-114182163D01*
X88900000Y-113209605D01*
X87927443Y-114182163D01*
X79899363Y-114182163D01*
X80124846Y-113957073D01*
X80374206Y-113356547D01*
X80374722Y-112765582D01*
X87254599Y-112765582D01*
X87278659Y-113415377D01*
X87481035Y-113903958D01*
X87747837Y-114002557D01*
X88720395Y-113030000D01*
X89079605Y-113030000D01*
X90052163Y-114002557D01*
X90318965Y-113903958D01*
X90487273Y-113450890D01*
X95025470Y-113450890D01*
X95025470Y-115150150D01*
X95069748Y-115385467D01*
X95208820Y-115601591D01*
X95421020Y-115746581D01*
X95672910Y-115797590D01*
X97372170Y-115797590D01*
X97607487Y-115753312D01*
X97823611Y-115614240D01*
X97968601Y-115402040D01*
X97984073Y-115325637D01*
X98215386Y-115557354D01*
X98760853Y-115783852D01*
X99351476Y-115784368D01*
X99897337Y-115558822D01*
X100315334Y-115141554D01*
X100530326Y-114623795D01*
X101234716Y-114623795D01*
X101483106Y-115224943D01*
X101942637Y-115685278D01*
X102543352Y-115934716D01*
X103193795Y-115935284D01*
X103794943Y-115686894D01*
X104255278Y-115227363D01*
X104504716Y-114626648D01*
X104505284Y-113976205D01*
X104256894Y-113375057D01*
X103797363Y-112914722D01*
X103196648Y-112665284D01*
X102546205Y-112664716D01*
X101945057Y-112913106D01*
X101484722Y-113372637D01*
X101235284Y-113973352D01*
X101234716Y-114623795D01*
X100530326Y-114623795D01*
X100541832Y-114596087D01*
X100542348Y-114005464D01*
X100316802Y-113459603D01*
X99899534Y-113041606D01*
X99354067Y-112815108D01*
X98763444Y-112814592D01*
X98217583Y-113040138D01*
X97985849Y-113271468D01*
X97975332Y-113215573D01*
X97836260Y-112999449D01*
X97624060Y-112854459D01*
X97372170Y-112803450D01*
X95672910Y-112803450D01*
X95437593Y-112847728D01*
X95221469Y-112986800D01*
X95076479Y-113199000D01*
X95025470Y-113450890D01*
X90487273Y-113450890D01*
X90545401Y-113294418D01*
X90521341Y-112644623D01*
X90318965Y-112156042D01*
X90052163Y-112057443D01*
X89079605Y-113030000D01*
X88720395Y-113030000D01*
X87747837Y-112057443D01*
X87481035Y-112156042D01*
X87254599Y-112765582D01*
X80374722Y-112765582D01*
X80374774Y-112706306D01*
X80126462Y-112105345D01*
X79899351Y-111877837D01*
X87927443Y-111877837D01*
X88900000Y-112850395D01*
X89872557Y-111877837D01*
X89773958Y-111611035D01*
X89164418Y-111384599D01*
X88514623Y-111408659D01*
X88026042Y-111611035D01*
X87927443Y-111877837D01*
X79899351Y-111877837D01*
X79667073Y-111645154D01*
X79066547Y-111395794D01*
X78416306Y-111395226D01*
X77815345Y-111643538D01*
X77355154Y-112102927D01*
X77105794Y-112703453D01*
X77105226Y-113353694D01*
X74980163Y-113353694D01*
X74904415Y-113240330D01*
X74589634Y-113030000D01*
X74904415Y-112819670D01*
X75229271Y-112333489D01*
X75343345Y-111760000D01*
X75229271Y-111186511D01*
X74904415Y-110700330D01*
X74589634Y-110490000D01*
X74904415Y-110279670D01*
X75229271Y-109793489D01*
X75343345Y-109220000D01*
X75229271Y-108646511D01*
X74904415Y-108160330D01*
X74589634Y-107950000D01*
X74904415Y-107739670D01*
X75229271Y-107253489D01*
X75343345Y-106680000D01*
X75229271Y-106106511D01*
X74904415Y-105620330D01*
X74589634Y-105410000D01*
X74904415Y-105199670D01*
X75229271Y-104713489D01*
X75343345Y-104140000D01*
X75229271Y-103566511D01*
X74904415Y-103080330D01*
X74589634Y-102870000D01*
X74904415Y-102659670D01*
X75229271Y-102173489D01*
X75343345Y-101600000D01*
X75229271Y-101026511D01*
X74904415Y-100540330D01*
X74589634Y-100330000D01*
X74904415Y-100119670D01*
X75229271Y-99633489D01*
X75343345Y-99060000D01*
X75229271Y-98486511D01*
X74904415Y-98000330D01*
X74589634Y-97790000D01*
X74904415Y-97579670D01*
X75229271Y-97093489D01*
X75343345Y-96520000D01*
X75229271Y-95946511D01*
X74904415Y-95460330D01*
X74589634Y-95250000D01*
X74904415Y-95039670D01*
X75229271Y-94553489D01*
X75343345Y-93980000D01*
X75229271Y-93406511D01*
X74904415Y-92920330D01*
X74589634Y-92710000D01*
X74904415Y-92499670D01*
X75229271Y-92013489D01*
X75343345Y-91440000D01*
X75229271Y-90866511D01*
X74904415Y-90380330D01*
X74589634Y-90170000D01*
X74904415Y-89959670D01*
X75229271Y-89473489D01*
X75343345Y-88900000D01*
X75229271Y-88326511D01*
X74904415Y-87840330D01*
X74589634Y-87630000D01*
X74904415Y-87419670D01*
X75229271Y-86933489D01*
X75343345Y-86360000D01*
X75229271Y-85786511D01*
X74904415Y-85300330D01*
X74589634Y-85090000D01*
X74904415Y-84879670D01*
X75229271Y-84393489D01*
X75307152Y-84001954D01*
X77980000Y-86674802D01*
X77980000Y-97155000D01*
X78037852Y-97445839D01*
X78202599Y-97692401D01*
X90267599Y-109757401D01*
X90514161Y-109922148D01*
X90805000Y-109980000D01*
X95250000Y-109980000D01*
X95540839Y-109922148D01*
X95787401Y-109757401D01*
X98104802Y-107440000D01*
X101672537Y-107440000D01*
X101704673Y-107472192D01*
X102048201Y-107614838D01*
X102420167Y-107615162D01*
X102763943Y-107473117D01*
X103027192Y-107210327D01*
X103169838Y-106866799D01*
X103170162Y-106494833D01*
X103028117Y-106151057D01*
X102765327Y-105887808D01*
X102421799Y-105745162D01*
X102049833Y-105744838D01*
X101706057Y-105886883D01*
X101672882Y-105920000D01*
X97790000Y-105920000D01*
X97547414Y-105968254D01*
X97499160Y-105977852D01*
X97252599Y-106142599D01*
X94935198Y-108460000D01*
X91119802Y-108460000D01*
X79500000Y-96840198D01*
X79500000Y-86360000D01*
X79442148Y-86069161D01*
X79277401Y-85822599D01*
X76189969Y-82735167D01*
X85424838Y-82735167D01*
X85566883Y-83078943D01*
X85829673Y-83342192D01*
X86173201Y-83484838D01*
X86220077Y-83484879D01*
X93220000Y-90484802D01*
X93220000Y-103954953D01*
X93055057Y-104023106D01*
X92594722Y-104482637D01*
X92345284Y-105083352D01*
X92344716Y-105733795D01*
X92593106Y-106334943D01*
X93052637Y-106795278D01*
X93653352Y-107044716D01*
X94303795Y-107045284D01*
X94904943Y-106796894D01*
X95365278Y-106337363D01*
X95614716Y-105736648D01*
X95615284Y-105086205D01*
X95366894Y-104485057D01*
X94907363Y-104024722D01*
X94740000Y-103955227D01*
X94740000Y-90170000D01*
X94717219Y-90055474D01*
X94682148Y-89879160D01*
X94517401Y-89632599D01*
X87295122Y-82410320D01*
X87295162Y-82364833D01*
X87153117Y-82021057D01*
X86890327Y-81757808D01*
X86546799Y-81615162D01*
X86174833Y-81614838D01*
X85831057Y-81756883D01*
X85567808Y-82019673D01*
X85425162Y-82363201D01*
X85424838Y-82735167D01*
X76189969Y-82735167D01*
X75242381Y-81787579D01*
X75343345Y-81280000D01*
X75229271Y-80706511D01*
X74904415Y-80220330D01*
X74882220Y-80205500D01*
X75035699Y-80141927D01*
X75214327Y-79963298D01*
X75311000Y-79729909D01*
X75311000Y-79025750D01*
X75152250Y-78867000D01*
X73787000Y-78867000D01*
X73787000Y-78887000D01*
X73533000Y-78887000D01*
X73533000Y-78867000D01*
X72167750Y-78867000D01*
X72009000Y-79025750D01*
X72009000Y-79729909D01*
X72105673Y-79963298D01*
X72284301Y-80141927D01*
X72437780Y-80205500D01*
X72415585Y-80220330D01*
X72090729Y-80706511D01*
X71976655Y-81280000D01*
X71830000Y-81280000D01*
X71830000Y-77750091D01*
X72009000Y-77750091D01*
X72009000Y-78454250D01*
X72167750Y-78613000D01*
X73533000Y-78613000D01*
X73533000Y-77400150D01*
X73787000Y-77400150D01*
X73787000Y-78613000D01*
X75152250Y-78613000D01*
X75311000Y-78454250D01*
X75311000Y-77852944D01*
X77134025Y-77852944D01*
X77333615Y-78334818D01*
X77771621Y-78807188D01*
X78357054Y-79075983D01*
X78613000Y-78957367D01*
X78613000Y-77597000D01*
X77253164Y-77597000D01*
X77134025Y-77852944D01*
X75311000Y-77852944D01*
X75311000Y-77750091D01*
X75214327Y-77516702D01*
X75035699Y-77338073D01*
X74802310Y-77241400D01*
X73945750Y-77241400D01*
X73787000Y-77400150D01*
X73533000Y-77400150D01*
X73374250Y-77241400D01*
X72517690Y-77241400D01*
X72284301Y-77338073D01*
X72105673Y-77516702D01*
X72009000Y-77750091D01*
X71830000Y-77750091D01*
X71830000Y-77087056D01*
X77134025Y-77087056D01*
X77253164Y-77343000D01*
X78613000Y-77343000D01*
X78613000Y-75982633D01*
X78867000Y-75982633D01*
X78867000Y-77343000D01*
X78887000Y-77343000D01*
X78887000Y-77597000D01*
X78867000Y-77597000D01*
X78867000Y-78957367D01*
X79122946Y-79075983D01*
X79708379Y-78807188D01*
X79712934Y-78802276D01*
X79799910Y-78937441D01*
X80012110Y-79082431D01*
X80264000Y-79133440D01*
X82296000Y-79133440D01*
X82531317Y-79089162D01*
X82747441Y-78950090D01*
X82892431Y-78737890D01*
X82943440Y-78486000D01*
X82943440Y-77852944D01*
X94914025Y-77852944D01*
X95113615Y-78334818D01*
X95551621Y-78807188D01*
X96137054Y-79075983D01*
X96393000Y-78957367D01*
X96393000Y-77597000D01*
X95033164Y-77597000D01*
X94914025Y-77852944D01*
X82943440Y-77852944D01*
X82943440Y-77087056D01*
X94914025Y-77087056D01*
X95033164Y-77343000D01*
X96393000Y-77343000D01*
X96393000Y-75982633D01*
X96647000Y-75982633D01*
X96647000Y-77343000D01*
X96667000Y-77343000D01*
X96667000Y-77597000D01*
X96647000Y-77597000D01*
X96647000Y-78957367D01*
X96902946Y-79075983D01*
X97488379Y-78807188D01*
X97492934Y-78802276D01*
X97579910Y-78937441D01*
X97792110Y-79082431D01*
X98044000Y-79133440D01*
X100076000Y-79133440D01*
X100311317Y-79089162D01*
X100527441Y-78950090D01*
X100672431Y-78737890D01*
X100723440Y-78486000D01*
X100723440Y-76454000D01*
X100679162Y-76218683D01*
X100540090Y-76002559D01*
X100327890Y-75857569D01*
X100076000Y-75806560D01*
X98044000Y-75806560D01*
X97808683Y-75850838D01*
X97592559Y-75989910D01*
X97492144Y-76136872D01*
X97488379Y-76132812D01*
X96902946Y-75864017D01*
X96647000Y-75982633D01*
X96393000Y-75982633D01*
X96137054Y-75864017D01*
X95551621Y-76132812D01*
X95113615Y-76605182D01*
X94914025Y-77087056D01*
X82943440Y-77087056D01*
X82943440Y-76454000D01*
X82899162Y-76218683D01*
X82760090Y-76002559D01*
X82547890Y-75857569D01*
X82296000Y-75806560D01*
X80264000Y-75806560D01*
X80028683Y-75850838D01*
X79812559Y-75989910D01*
X79712144Y-76136872D01*
X79708379Y-76132812D01*
X79122946Y-75864017D01*
X78867000Y-75982633D01*
X78613000Y-75982633D01*
X78357054Y-75864017D01*
X77771621Y-76132812D01*
X77333615Y-76605182D01*
X77134025Y-77087056D01*
X71830000Y-77087056D01*
X71830000Y-75640000D01*
X112320000Y-75640000D01*
X112320000Y-126290000D01*
M02*
