G04 #@! TF.FileFunction,Legend,Bot*
%FSLAX46Y46*%
G04 Gerber Fmt 4.6, Leading zero omitted, Abs format (unit mm)*
G04 Created by KiCad (PCBNEW 4.0.4+e1-6308~48~ubuntu16.04.1-stable) date Fri Dec  2 12:05:53 2016*
%MOMM*%
%LPD*%
G01*
G04 APERTURE LIST*
%ADD10C,0.100000*%
%ADD11C,0.300000*%
G04 APERTURE END LIST*
D10*
D11*
X81998429Y-111798285D02*
X83498429Y-111798285D01*
X83498429Y-111441142D01*
X83427000Y-111226857D01*
X83284143Y-111083999D01*
X83141286Y-111012571D01*
X82855571Y-110941142D01*
X82641286Y-110941142D01*
X82355571Y-111012571D01*
X82212714Y-111083999D01*
X82069857Y-111226857D01*
X81998429Y-111441142D01*
X81998429Y-111798285D01*
X82784143Y-109798285D02*
X82712714Y-109583999D01*
X82641286Y-109512571D01*
X82498429Y-109441142D01*
X82284143Y-109441142D01*
X82141286Y-109512571D01*
X82069857Y-109583999D01*
X81998429Y-109726857D01*
X81998429Y-110298285D01*
X83498429Y-110298285D01*
X83498429Y-109798285D01*
X83427000Y-109655428D01*
X83355571Y-109583999D01*
X83212714Y-109512571D01*
X83069857Y-109512571D01*
X82927000Y-109583999D01*
X82855571Y-109655428D01*
X82784143Y-109798285D01*
X82784143Y-110298285D01*
X82569857Y-108798285D02*
X82569857Y-107655428D01*
X82998429Y-107155428D02*
X82998429Y-106583999D01*
X83498429Y-106941142D02*
X82212714Y-106941142D01*
X82069857Y-106869714D01*
X81998429Y-106726856D01*
X81998429Y-106583999D01*
X81998429Y-106083999D02*
X82998429Y-106083999D01*
X82712714Y-106083999D02*
X82855571Y-106012571D01*
X82927000Y-105941142D01*
X82998429Y-105798285D01*
X82998429Y-105655428D01*
X81855571Y-105512571D02*
X81855571Y-104369714D01*
X82069857Y-104084000D02*
X81998429Y-103941143D01*
X81998429Y-103655428D01*
X82069857Y-103512571D01*
X82212714Y-103441143D01*
X82284143Y-103441143D01*
X82427000Y-103512571D01*
X82498429Y-103655428D01*
X82498429Y-103869714D01*
X82569857Y-104012571D01*
X82712714Y-104084000D01*
X82784143Y-104084000D01*
X82927000Y-104012571D01*
X82998429Y-103869714D01*
X82998429Y-103655428D01*
X82927000Y-103512571D01*
X82998429Y-102941142D02*
X81998429Y-102655428D01*
X82712714Y-102369714D01*
X81998429Y-102083999D01*
X82998429Y-101798285D01*
X81998429Y-101226856D02*
X82998429Y-101226856D01*
X83498429Y-101226856D02*
X83427000Y-101298285D01*
X83355571Y-101226856D01*
X83427000Y-101155428D01*
X83498429Y-101226856D01*
X83355571Y-101226856D01*
X82998429Y-100726856D02*
X82998429Y-100155427D01*
X83498429Y-100512570D02*
X82212714Y-100512570D01*
X82069857Y-100441142D01*
X81998429Y-100298284D01*
X81998429Y-100155427D01*
X82069857Y-99012570D02*
X81998429Y-99155427D01*
X81998429Y-99441141D01*
X82069857Y-99583999D01*
X82141286Y-99655427D01*
X82284143Y-99726856D01*
X82712714Y-99726856D01*
X82855571Y-99655427D01*
X82927000Y-99583999D01*
X82998429Y-99441141D01*
X82998429Y-99155427D01*
X82927000Y-99012570D01*
X81998429Y-98369713D02*
X83498429Y-98369713D01*
X81998429Y-97726856D02*
X82784143Y-97726856D01*
X82927000Y-97798285D01*
X82998429Y-97941142D01*
X82998429Y-98155427D01*
X82927000Y-98298285D01*
X82855571Y-98369713D01*
X81855571Y-97369713D02*
X81855571Y-96226856D01*
X82998429Y-96083999D02*
X82998429Y-95512570D01*
X83498429Y-95869713D02*
X82212714Y-95869713D01*
X82069857Y-95798285D01*
X81998429Y-95655427D01*
X81998429Y-95512570D01*
X82998429Y-94369713D02*
X81784143Y-94369713D01*
X81641286Y-94441142D01*
X81569857Y-94512570D01*
X81498429Y-94655427D01*
X81498429Y-94869713D01*
X81569857Y-95012570D01*
X82069857Y-94369713D02*
X81998429Y-94512570D01*
X81998429Y-94798284D01*
X82069857Y-94941142D01*
X82141286Y-95012570D01*
X82284143Y-95083999D01*
X82712714Y-95083999D01*
X82855571Y-95012570D01*
X82927000Y-94941142D01*
X82998429Y-94798284D01*
X82998429Y-94512570D01*
X82927000Y-94369713D01*
X82069857Y-93012570D02*
X81998429Y-93155427D01*
X81998429Y-93441141D01*
X82069857Y-93583999D01*
X82141286Y-93655427D01*
X82284143Y-93726856D01*
X82712714Y-93726856D01*
X82855571Y-93655427D01*
X82927000Y-93583999D01*
X82998429Y-93441141D01*
X82998429Y-93155427D01*
X82927000Y-93012570D01*
X81855571Y-92726856D02*
X81855571Y-91583999D01*
X82998429Y-91369713D02*
X81998429Y-91012570D01*
X82998429Y-90655428D01*
X81998429Y-89298285D02*
X81998429Y-90155428D01*
X81998429Y-89726856D02*
X83498429Y-89726856D01*
X83284143Y-89869713D01*
X83141286Y-90012571D01*
X83069857Y-90155428D01*
M02*
