G04 #@! TF.FileFunction,Soldermask,Bot*
%FSLAX46Y46*%
G04 Gerber Fmt 4.6, Leading zero omitted, Abs format (unit mm)*
G04 Created by KiCad (PCBNEW 4.0.4+e1-6308~48~ubuntu16.04.1-stable) date Fri Nov  4 19:53:40 2016*
%MOMM*%
%LPD*%
G01*
G04 APERTURE LIST*
%ADD10C,0.100000*%
%ADD11R,1.800000X1.800000*%
%ADD12C,1.800000*%
%ADD13R,2.432000X2.432000*%
%ADD14O,2.432000X2.432000*%
%ADD15C,2.400000*%
%ADD16R,1.670000X5.480000*%
%ADD17R,2.432000X2.127200*%
%ADD18O,2.432000X2.127200*%
%ADD19C,2.398980*%
%ADD20C,2.099260*%
%ADD21R,2.099260X2.099260*%
G04 APERTURE END LIST*
D10*
D11*
X102870000Y-124460000D03*
D12*
X102870000Y-119460000D03*
D13*
X78740000Y-124460000D03*
D14*
X81280000Y-124460000D03*
D13*
X81280000Y-77470000D03*
D14*
X78740000Y-77470000D03*
D13*
X99060000Y-77470000D03*
D14*
X96520000Y-77470000D03*
D15*
X102870000Y-114300000D03*
X93980000Y-105410000D03*
D16*
X111125000Y-77470000D03*
X102235000Y-77470000D03*
X93345000Y-77470000D03*
X84455000Y-77470000D03*
X84455000Y-124460000D03*
X93345000Y-124460000D03*
D17*
X73660000Y-78740000D03*
D18*
X73660000Y-81280000D03*
X73660000Y-83820000D03*
X73660000Y-86360000D03*
X73660000Y-88900000D03*
X73660000Y-91440000D03*
X73660000Y-93980000D03*
X73660000Y-96520000D03*
X73660000Y-99060000D03*
X73660000Y-101600000D03*
X73660000Y-104140000D03*
X73660000Y-106680000D03*
X73660000Y-109220000D03*
X73660000Y-111760000D03*
X73660000Y-114300000D03*
X73660000Y-116840000D03*
X73660000Y-119380000D03*
X73660000Y-121920000D03*
X73660000Y-124460000D03*
D19*
X78740000Y-113030000D03*
X88900000Y-113030000D03*
D20*
X99057460Y-114299480D03*
D21*
X99057460Y-124459480D03*
D20*
X96522540Y-124460520D03*
D21*
X96522540Y-114300520D03*
M02*
