G04 #@! TF.FileFunction,Copper,L2,Bot,Signal*
%FSLAX46Y46*%
G04 Gerber Fmt 4.6, Leading zero omitted, Abs format (unit mm)*
G04 Created by KiCad (PCBNEW 4.0.3+e1-6302~38~ubuntu16.04.1-stable) date Thu Aug 25 17:17:48 2016*
%MOMM*%
%LPD*%
G01*
G04 APERTURE LIST*
%ADD10C,0.100000*%
%ADD11R,2.032000X1.727200*%
%ADD12O,2.032000X1.727200*%
%ADD13C,1.300000*%
%ADD14R,1.300000X1.300000*%
%ADD15C,1.200000*%
%ADD16C,1.998980*%
%ADD17C,0.250000*%
%ADD18C,0.254000*%
G04 APERTURE END LIST*
D10*
D11*
X58420000Y-60960000D03*
D12*
X58420000Y-63500000D03*
X58420000Y-66040000D03*
X58420000Y-68580000D03*
X58420000Y-71120000D03*
X58420000Y-73660000D03*
X58420000Y-76200000D03*
X58420000Y-78740000D03*
X58420000Y-81280000D03*
X58420000Y-83820000D03*
X58420000Y-86360000D03*
X58420000Y-88900000D03*
X58420000Y-91440000D03*
X58420000Y-93980000D03*
X58420000Y-96520000D03*
D11*
X73660000Y-60960000D03*
D12*
X73660000Y-63500000D03*
X73660000Y-66040000D03*
X73660000Y-68580000D03*
X73660000Y-71120000D03*
X73660000Y-73660000D03*
X73660000Y-76200000D03*
X73660000Y-78740000D03*
X73660000Y-81280000D03*
X73660000Y-83820000D03*
X73660000Y-86360000D03*
X73660000Y-88900000D03*
X73660000Y-91440000D03*
X73660000Y-93980000D03*
X73660000Y-96520000D03*
D11*
X80010000Y-66040000D03*
D12*
X80010000Y-68580000D03*
X80010000Y-71120000D03*
X80010000Y-73660000D03*
X80010000Y-76200000D03*
X80010000Y-78740000D03*
X80010000Y-81280000D03*
X80010000Y-83820000D03*
D11*
X92710000Y-66040000D03*
D12*
X92710000Y-68580000D03*
X92710000Y-71120000D03*
X92710000Y-73660000D03*
X92710000Y-76200000D03*
X92710000Y-78740000D03*
X92710000Y-81280000D03*
X92710000Y-83820000D03*
D11*
X101600000Y-71120000D03*
D12*
X101600000Y-73660000D03*
X101600000Y-76200000D03*
X101600000Y-78740000D03*
D13*
X86050000Y-57150000D03*
D14*
X82550000Y-57150000D03*
D15*
X96520000Y-91440000D03*
X95250000Y-92710000D03*
X96520000Y-93980000D03*
D16*
X80010000Y-93980000D03*
X90170000Y-93980000D03*
X80010000Y-90170000D03*
X90170000Y-90170000D03*
D11*
X106680000Y-55880000D03*
D12*
X106680000Y-58420000D03*
X106680000Y-60960000D03*
X106680000Y-63500000D03*
X106680000Y-66040000D03*
X106680000Y-68580000D03*
X106680000Y-71120000D03*
X106680000Y-73660000D03*
X106680000Y-76200000D03*
X106680000Y-78740000D03*
X106680000Y-81280000D03*
X106680000Y-83820000D03*
X106680000Y-86360000D03*
X106680000Y-88900000D03*
X106680000Y-91440000D03*
X106680000Y-93980000D03*
X106680000Y-96520000D03*
X106680000Y-99060000D03*
X106680000Y-101600000D03*
D13*
X99060000Y-62540000D03*
D14*
X99060000Y-66040000D03*
D11*
X50800000Y-55880000D03*
D12*
X50800000Y-58420000D03*
X50800000Y-60960000D03*
X50800000Y-63500000D03*
X50800000Y-66040000D03*
X50800000Y-68580000D03*
X50800000Y-71120000D03*
X50800000Y-73660000D03*
X50800000Y-76200000D03*
X50800000Y-78740000D03*
X50800000Y-81280000D03*
X50800000Y-83820000D03*
X50800000Y-86360000D03*
X50800000Y-88900000D03*
X50800000Y-91440000D03*
X50800000Y-93980000D03*
X50800000Y-96520000D03*
X50800000Y-99060000D03*
X50800000Y-101600000D03*
D17*
X50800000Y-101600000D02*
X72390000Y-101600000D01*
X72390000Y-101600000D02*
X80010000Y-93980000D01*
X53340000Y-58420000D02*
X54610000Y-57150000D01*
X54610000Y-57150000D02*
X82550000Y-57150000D01*
X50800000Y-58420000D02*
X53340000Y-58420000D01*
X55880000Y-86360000D02*
X58420000Y-88900000D01*
X55880000Y-60960000D02*
X55880000Y-86360000D01*
X53340000Y-58420000D02*
X55880000Y-60960000D01*
D18*
G36*
X108510000Y-103430000D02*
X48970000Y-103430000D01*
X48970000Y-58420000D01*
X49116655Y-58420000D01*
X49230729Y-58993489D01*
X49555585Y-59479670D01*
X49870366Y-59690000D01*
X49555585Y-59900330D01*
X49230729Y-60386511D01*
X49116655Y-60960000D01*
X49230729Y-61533489D01*
X49555585Y-62019670D01*
X49870366Y-62230000D01*
X49555585Y-62440330D01*
X49230729Y-62926511D01*
X49116655Y-63500000D01*
X49230729Y-64073489D01*
X49555585Y-64559670D01*
X49870366Y-64770000D01*
X49555585Y-64980330D01*
X49230729Y-65466511D01*
X49116655Y-66040000D01*
X49230729Y-66613489D01*
X49555585Y-67099670D01*
X49870366Y-67310000D01*
X49555585Y-67520330D01*
X49230729Y-68006511D01*
X49116655Y-68580000D01*
X49230729Y-69153489D01*
X49555585Y-69639670D01*
X49870366Y-69850000D01*
X49555585Y-70060330D01*
X49230729Y-70546511D01*
X49116655Y-71120000D01*
X49230729Y-71693489D01*
X49555585Y-72179670D01*
X49870366Y-72390000D01*
X49555585Y-72600330D01*
X49230729Y-73086511D01*
X49116655Y-73660000D01*
X49230729Y-74233489D01*
X49555585Y-74719670D01*
X49870366Y-74930000D01*
X49555585Y-75140330D01*
X49230729Y-75626511D01*
X49116655Y-76200000D01*
X49230729Y-76773489D01*
X49555585Y-77259670D01*
X49870366Y-77470000D01*
X49555585Y-77680330D01*
X49230729Y-78166511D01*
X49116655Y-78740000D01*
X49230729Y-79313489D01*
X49555585Y-79799670D01*
X49870366Y-80010000D01*
X49555585Y-80220330D01*
X49230729Y-80706511D01*
X49116655Y-81280000D01*
X49230729Y-81853489D01*
X49555585Y-82339670D01*
X49870366Y-82550000D01*
X49555585Y-82760330D01*
X49230729Y-83246511D01*
X49116655Y-83820000D01*
X49230729Y-84393489D01*
X49555585Y-84879670D01*
X49870366Y-85090000D01*
X49555585Y-85300330D01*
X49230729Y-85786511D01*
X49116655Y-86360000D01*
X49230729Y-86933489D01*
X49555585Y-87419670D01*
X49870366Y-87630000D01*
X49555585Y-87840330D01*
X49230729Y-88326511D01*
X49116655Y-88900000D01*
X49230729Y-89473489D01*
X49555585Y-89959670D01*
X49870366Y-90170000D01*
X49555585Y-90380330D01*
X49230729Y-90866511D01*
X49116655Y-91440000D01*
X49230729Y-92013489D01*
X49555585Y-92499670D01*
X49870366Y-92710000D01*
X49555585Y-92920330D01*
X49230729Y-93406511D01*
X49116655Y-93980000D01*
X49230729Y-94553489D01*
X49555585Y-95039670D01*
X49870366Y-95250000D01*
X49555585Y-95460330D01*
X49230729Y-95946511D01*
X49116655Y-96520000D01*
X49230729Y-97093489D01*
X49555585Y-97579670D01*
X49870366Y-97790000D01*
X49555585Y-98000330D01*
X49230729Y-98486511D01*
X49116655Y-99060000D01*
X49230729Y-99633489D01*
X49555585Y-100119670D01*
X49870366Y-100330000D01*
X49555585Y-100540330D01*
X49230729Y-101026511D01*
X49116655Y-101600000D01*
X49230729Y-102173489D01*
X49555585Y-102659670D01*
X50041766Y-102984526D01*
X50615255Y-103098600D01*
X50984745Y-103098600D01*
X51558234Y-102984526D01*
X52044415Y-102659670D01*
X52244648Y-102360000D01*
X72390000Y-102360000D01*
X72680839Y-102302148D01*
X72927401Y-102137401D01*
X79518917Y-95545885D01*
X79683453Y-95614206D01*
X80333694Y-95614774D01*
X80934655Y-95366462D01*
X81394846Y-94907073D01*
X81644206Y-94306547D01*
X81644208Y-94303694D01*
X88535226Y-94303694D01*
X88783538Y-94904655D01*
X89242927Y-95364846D01*
X89843453Y-95614206D01*
X90493694Y-95614774D01*
X91094655Y-95366462D01*
X91554846Y-94907073D01*
X91804206Y-94306547D01*
X91804774Y-93656306D01*
X91556462Y-93055345D01*
X91455872Y-92954579D01*
X94014786Y-92954579D01*
X94202408Y-93408657D01*
X94549515Y-93756371D01*
X95003266Y-93944785D01*
X95285030Y-93945031D01*
X95284786Y-94224579D01*
X95472408Y-94678657D01*
X95819515Y-95026371D01*
X96273266Y-95214785D01*
X96764579Y-95215214D01*
X97218657Y-95027592D01*
X97566371Y-94680485D01*
X97754785Y-94226734D01*
X97755214Y-93735421D01*
X97567592Y-93281343D01*
X97220485Y-92933629D01*
X96766734Y-92745215D01*
X96484970Y-92744969D01*
X96485027Y-92679521D01*
X96841413Y-92657482D01*
X97153617Y-92528164D01*
X97203130Y-92302735D01*
X96520000Y-91619605D01*
X96505858Y-91633748D01*
X96326253Y-91454143D01*
X96340395Y-91440000D01*
X96699605Y-91440000D01*
X97382735Y-92123130D01*
X97608164Y-92073617D01*
X97767807Y-91608964D01*
X97737482Y-91118587D01*
X97608164Y-90806383D01*
X97382735Y-90756870D01*
X96699605Y-91440000D01*
X96340395Y-91440000D01*
X95657265Y-90756870D01*
X95431836Y-90806383D01*
X95272193Y-91271036D01*
X95284808Y-91475030D01*
X95005421Y-91474786D01*
X94551343Y-91662408D01*
X94203629Y-92009515D01*
X94015215Y-92463266D01*
X94014786Y-92954579D01*
X91455872Y-92954579D01*
X91097073Y-92595154D01*
X90496547Y-92345794D01*
X89846306Y-92345226D01*
X89245345Y-92593538D01*
X88785154Y-93052927D01*
X88535794Y-93653453D01*
X88535226Y-94303694D01*
X81644208Y-94303694D01*
X81644774Y-93656306D01*
X81396462Y-93055345D01*
X80937073Y-92595154D01*
X80336547Y-92345794D01*
X79686306Y-92345226D01*
X79085345Y-92593538D01*
X78625154Y-93052927D01*
X78375794Y-93653453D01*
X78375226Y-94303694D01*
X78444309Y-94470889D01*
X72075198Y-100840000D01*
X52244648Y-100840000D01*
X52044415Y-100540330D01*
X51729634Y-100330000D01*
X52044415Y-100119670D01*
X52369271Y-99633489D01*
X52483345Y-99060000D01*
X52369271Y-98486511D01*
X52044415Y-98000330D01*
X51729634Y-97790000D01*
X52044415Y-97579670D01*
X52369271Y-97093489D01*
X52483345Y-96520000D01*
X56736655Y-96520000D01*
X56850729Y-97093489D01*
X57175585Y-97579670D01*
X57661766Y-97904526D01*
X58235255Y-98018600D01*
X58604745Y-98018600D01*
X59178234Y-97904526D01*
X59664415Y-97579670D01*
X59989271Y-97093489D01*
X60103345Y-96520000D01*
X59989271Y-95946511D01*
X59664415Y-95460330D01*
X59354931Y-95253539D01*
X59770732Y-94882036D01*
X60024709Y-94354791D01*
X60027358Y-94339026D01*
X59906217Y-94107000D01*
X58547000Y-94107000D01*
X58547000Y-94127000D01*
X58293000Y-94127000D01*
X58293000Y-94107000D01*
X56933783Y-94107000D01*
X56812642Y-94339026D01*
X56815291Y-94354791D01*
X57069268Y-94882036D01*
X57485069Y-95253539D01*
X57175585Y-95460330D01*
X56850729Y-95946511D01*
X56736655Y-96520000D01*
X52483345Y-96520000D01*
X52369271Y-95946511D01*
X52044415Y-95460330D01*
X51729634Y-95250000D01*
X52044415Y-95039670D01*
X52369271Y-94553489D01*
X52483345Y-93980000D01*
X52369271Y-93406511D01*
X52044415Y-92920330D01*
X51729634Y-92710000D01*
X52044415Y-92499670D01*
X52369271Y-92013489D01*
X52483345Y-91440000D01*
X52369271Y-90866511D01*
X52044415Y-90380330D01*
X51729634Y-90170000D01*
X52044415Y-89959670D01*
X52369271Y-89473489D01*
X52483345Y-88900000D01*
X52369271Y-88326511D01*
X52044415Y-87840330D01*
X51729634Y-87630000D01*
X52044415Y-87419670D01*
X52369271Y-86933489D01*
X52483345Y-86360000D01*
X52369271Y-85786511D01*
X52044415Y-85300330D01*
X51729634Y-85090000D01*
X52044415Y-84879670D01*
X52369271Y-84393489D01*
X52483345Y-83820000D01*
X52369271Y-83246511D01*
X52044415Y-82760330D01*
X51729634Y-82550000D01*
X52044415Y-82339670D01*
X52369271Y-81853489D01*
X52483345Y-81280000D01*
X52369271Y-80706511D01*
X52044415Y-80220330D01*
X51729634Y-80010000D01*
X52044415Y-79799670D01*
X52369271Y-79313489D01*
X52483345Y-78740000D01*
X52369271Y-78166511D01*
X52044415Y-77680330D01*
X51729634Y-77470000D01*
X52044415Y-77259670D01*
X52369271Y-76773489D01*
X52483345Y-76200000D01*
X52369271Y-75626511D01*
X52044415Y-75140330D01*
X51729634Y-74930000D01*
X52044415Y-74719670D01*
X52369271Y-74233489D01*
X52483345Y-73660000D01*
X52369271Y-73086511D01*
X52044415Y-72600330D01*
X51729634Y-72390000D01*
X52044415Y-72179670D01*
X52369271Y-71693489D01*
X52483345Y-71120000D01*
X52369271Y-70546511D01*
X52044415Y-70060330D01*
X51729634Y-69850000D01*
X52044415Y-69639670D01*
X52369271Y-69153489D01*
X52483345Y-68580000D01*
X52369271Y-68006511D01*
X52044415Y-67520330D01*
X51729634Y-67310000D01*
X52044415Y-67099670D01*
X52369271Y-66613489D01*
X52483345Y-66040000D01*
X52369271Y-65466511D01*
X52044415Y-64980330D01*
X51729634Y-64770000D01*
X52044415Y-64559670D01*
X52369271Y-64073489D01*
X52483345Y-63500000D01*
X52369271Y-62926511D01*
X52044415Y-62440330D01*
X51729634Y-62230000D01*
X52044415Y-62019670D01*
X52369271Y-61533489D01*
X52483345Y-60960000D01*
X52369271Y-60386511D01*
X52044415Y-59900330D01*
X51729634Y-59690000D01*
X52044415Y-59479670D01*
X52244648Y-59180000D01*
X53025198Y-59180000D01*
X55120000Y-61274802D01*
X55120000Y-86360000D01*
X55177852Y-86650839D01*
X55342599Y-86897401D01*
X56837619Y-88392421D01*
X56736655Y-88900000D01*
X56850729Y-89473489D01*
X57175585Y-89959670D01*
X57490366Y-90170000D01*
X57175585Y-90380330D01*
X56850729Y-90866511D01*
X56736655Y-91440000D01*
X56850729Y-92013489D01*
X57175585Y-92499670D01*
X57485069Y-92706461D01*
X57069268Y-93077964D01*
X56815291Y-93605209D01*
X56812642Y-93620974D01*
X56933783Y-93853000D01*
X58293000Y-93853000D01*
X58293000Y-93833000D01*
X58547000Y-93833000D01*
X58547000Y-93853000D01*
X59906217Y-93853000D01*
X60027358Y-93620974D01*
X60024709Y-93605209D01*
X59770732Y-93077964D01*
X59354931Y-92706461D01*
X59664415Y-92499670D01*
X59989271Y-92013489D01*
X60103345Y-91440000D01*
X59989271Y-90866511D01*
X59664415Y-90380330D01*
X59349634Y-90170000D01*
X59664415Y-89959670D01*
X59989271Y-89473489D01*
X60103345Y-88900000D01*
X59989271Y-88326511D01*
X59664415Y-87840330D01*
X59349634Y-87630000D01*
X59664415Y-87419670D01*
X59989271Y-86933489D01*
X60103345Y-86360000D01*
X59989271Y-85786511D01*
X59664415Y-85300330D01*
X59349634Y-85090000D01*
X59664415Y-84879670D01*
X59989271Y-84393489D01*
X60103345Y-83820000D01*
X59989271Y-83246511D01*
X59664415Y-82760330D01*
X59349634Y-82550000D01*
X59664415Y-82339670D01*
X59989271Y-81853489D01*
X60103345Y-81280000D01*
X59989271Y-80706511D01*
X59664415Y-80220330D01*
X59349634Y-80010000D01*
X59664415Y-79799670D01*
X59989271Y-79313489D01*
X60103345Y-78740000D01*
X59989271Y-78166511D01*
X59664415Y-77680330D01*
X59349634Y-77470000D01*
X59664415Y-77259670D01*
X59989271Y-76773489D01*
X60103345Y-76200000D01*
X59989271Y-75626511D01*
X59664415Y-75140330D01*
X59349634Y-74930000D01*
X59664415Y-74719670D01*
X59989271Y-74233489D01*
X60103345Y-73660000D01*
X59989271Y-73086511D01*
X59664415Y-72600330D01*
X59349634Y-72390000D01*
X59664415Y-72179670D01*
X59989271Y-71693489D01*
X60103345Y-71120000D01*
X59989271Y-70546511D01*
X59664415Y-70060330D01*
X59349634Y-69850000D01*
X59664415Y-69639670D01*
X59989271Y-69153489D01*
X60103345Y-68580000D01*
X59989271Y-68006511D01*
X59664415Y-67520330D01*
X59349634Y-67310000D01*
X59664415Y-67099670D01*
X59989271Y-66613489D01*
X60103345Y-66040000D01*
X59989271Y-65466511D01*
X59664415Y-64980330D01*
X59349634Y-64770000D01*
X59664415Y-64559670D01*
X59989271Y-64073489D01*
X60103345Y-63500000D01*
X71976655Y-63500000D01*
X72090729Y-64073489D01*
X72415585Y-64559670D01*
X72730366Y-64770000D01*
X72415585Y-64980330D01*
X72090729Y-65466511D01*
X71976655Y-66040000D01*
X72090729Y-66613489D01*
X72415585Y-67099670D01*
X72730366Y-67310000D01*
X72415585Y-67520330D01*
X72090729Y-68006511D01*
X71976655Y-68580000D01*
X72090729Y-69153489D01*
X72415585Y-69639670D01*
X72730366Y-69850000D01*
X72415585Y-70060330D01*
X72090729Y-70546511D01*
X71976655Y-71120000D01*
X72090729Y-71693489D01*
X72415585Y-72179670D01*
X72730366Y-72390000D01*
X72415585Y-72600330D01*
X72090729Y-73086511D01*
X71976655Y-73660000D01*
X72090729Y-74233489D01*
X72415585Y-74719670D01*
X72730366Y-74930000D01*
X72415585Y-75140330D01*
X72090729Y-75626511D01*
X71976655Y-76200000D01*
X72090729Y-76773489D01*
X72415585Y-77259670D01*
X72730366Y-77470000D01*
X72415585Y-77680330D01*
X72090729Y-78166511D01*
X71976655Y-78740000D01*
X72090729Y-79313489D01*
X72415585Y-79799670D01*
X72730366Y-80010000D01*
X72415585Y-80220330D01*
X72090729Y-80706511D01*
X71976655Y-81280000D01*
X72090729Y-81853489D01*
X72415585Y-82339670D01*
X72730366Y-82550000D01*
X72415585Y-82760330D01*
X72090729Y-83246511D01*
X71976655Y-83820000D01*
X72090729Y-84393489D01*
X72415585Y-84879670D01*
X72730366Y-85090000D01*
X72415585Y-85300330D01*
X72090729Y-85786511D01*
X71976655Y-86360000D01*
X72090729Y-86933489D01*
X72415585Y-87419670D01*
X72730366Y-87630000D01*
X72415585Y-87840330D01*
X72090729Y-88326511D01*
X71976655Y-88900000D01*
X72090729Y-89473489D01*
X72415585Y-89959670D01*
X72730366Y-90170000D01*
X72415585Y-90380330D01*
X72090729Y-90866511D01*
X71976655Y-91440000D01*
X72090729Y-92013489D01*
X72415585Y-92499670D01*
X72730366Y-92710000D01*
X72415585Y-92920330D01*
X72090729Y-93406511D01*
X71976655Y-93980000D01*
X72090729Y-94553489D01*
X72415585Y-95039670D01*
X72730366Y-95250000D01*
X72415585Y-95460330D01*
X72090729Y-95946511D01*
X71976655Y-96520000D01*
X72090729Y-97093489D01*
X72415585Y-97579670D01*
X72901766Y-97904526D01*
X73475255Y-98018600D01*
X73844745Y-98018600D01*
X74418234Y-97904526D01*
X74904415Y-97579670D01*
X75229271Y-97093489D01*
X75343345Y-96520000D01*
X75229271Y-95946511D01*
X74904415Y-95460330D01*
X74589634Y-95250000D01*
X74904415Y-95039670D01*
X75229271Y-94553489D01*
X75343345Y-93980000D01*
X75229271Y-93406511D01*
X74904415Y-92920330D01*
X74589634Y-92710000D01*
X74904415Y-92499670D01*
X75229271Y-92013489D01*
X75343345Y-91440000D01*
X75229271Y-90866511D01*
X74980163Y-90493694D01*
X78375226Y-90493694D01*
X78623538Y-91094655D01*
X79082927Y-91554846D01*
X79683453Y-91804206D01*
X80333694Y-91804774D01*
X80934655Y-91556462D01*
X81394846Y-91097073D01*
X81644206Y-90496547D01*
X81644208Y-90493694D01*
X88535226Y-90493694D01*
X88783538Y-91094655D01*
X89242927Y-91554846D01*
X89843453Y-91804206D01*
X90493694Y-91804774D01*
X91094655Y-91556462D01*
X91554846Y-91097073D01*
X91770688Y-90577265D01*
X95836870Y-90577265D01*
X96520000Y-91260395D01*
X97203130Y-90577265D01*
X97153617Y-90351836D01*
X96688964Y-90192193D01*
X96198587Y-90222518D01*
X95886383Y-90351836D01*
X95836870Y-90577265D01*
X91770688Y-90577265D01*
X91804206Y-90496547D01*
X91804774Y-89846306D01*
X91556462Y-89245345D01*
X91097073Y-88785154D01*
X90496547Y-88535794D01*
X89846306Y-88535226D01*
X89245345Y-88783538D01*
X88785154Y-89242927D01*
X88535794Y-89843453D01*
X88535226Y-90493694D01*
X81644208Y-90493694D01*
X81644774Y-89846306D01*
X81396462Y-89245345D01*
X80937073Y-88785154D01*
X80336547Y-88535794D01*
X79686306Y-88535226D01*
X79085345Y-88783538D01*
X78625154Y-89242927D01*
X78375794Y-89843453D01*
X78375226Y-90493694D01*
X74980163Y-90493694D01*
X74904415Y-90380330D01*
X74589634Y-90170000D01*
X74904415Y-89959670D01*
X75229271Y-89473489D01*
X75343345Y-88900000D01*
X75229271Y-88326511D01*
X74904415Y-87840330D01*
X74589634Y-87630000D01*
X74904415Y-87419670D01*
X75229271Y-86933489D01*
X75343345Y-86360000D01*
X75229271Y-85786511D01*
X74904415Y-85300330D01*
X74589634Y-85090000D01*
X74904415Y-84879670D01*
X75229271Y-84393489D01*
X75343345Y-83820000D01*
X75229271Y-83246511D01*
X74904415Y-82760330D01*
X74589634Y-82550000D01*
X74904415Y-82339670D01*
X75229271Y-81853489D01*
X75343345Y-81280000D01*
X75229271Y-80706511D01*
X74904415Y-80220330D01*
X74589634Y-80010000D01*
X74904415Y-79799670D01*
X75229271Y-79313489D01*
X75343345Y-78740000D01*
X75229271Y-78166511D01*
X74904415Y-77680330D01*
X74589634Y-77470000D01*
X74904415Y-77259670D01*
X75229271Y-76773489D01*
X75343345Y-76200000D01*
X75229271Y-75626511D01*
X74904415Y-75140330D01*
X74589634Y-74930000D01*
X74904415Y-74719670D01*
X75229271Y-74233489D01*
X75343345Y-73660000D01*
X75229271Y-73086511D01*
X74904415Y-72600330D01*
X74589634Y-72390000D01*
X74904415Y-72179670D01*
X75229271Y-71693489D01*
X75343345Y-71120000D01*
X75229271Y-70546511D01*
X74904415Y-70060330D01*
X74589634Y-69850000D01*
X74904415Y-69639670D01*
X75229271Y-69153489D01*
X75343345Y-68580000D01*
X78326655Y-68580000D01*
X78440729Y-69153489D01*
X78765585Y-69639670D01*
X79080366Y-69850000D01*
X78765585Y-70060330D01*
X78440729Y-70546511D01*
X78326655Y-71120000D01*
X78440729Y-71693489D01*
X78765585Y-72179670D01*
X79080366Y-72390000D01*
X78765585Y-72600330D01*
X78440729Y-73086511D01*
X78326655Y-73660000D01*
X78440729Y-74233489D01*
X78765585Y-74719670D01*
X79080366Y-74930000D01*
X78765585Y-75140330D01*
X78440729Y-75626511D01*
X78326655Y-76200000D01*
X78440729Y-76773489D01*
X78765585Y-77259670D01*
X79080366Y-77470000D01*
X78765585Y-77680330D01*
X78440729Y-78166511D01*
X78326655Y-78740000D01*
X78440729Y-79313489D01*
X78765585Y-79799670D01*
X79080366Y-80010000D01*
X78765585Y-80220330D01*
X78440729Y-80706511D01*
X78326655Y-81280000D01*
X78440729Y-81853489D01*
X78765585Y-82339670D01*
X79080366Y-82550000D01*
X78765585Y-82760330D01*
X78440729Y-83246511D01*
X78326655Y-83820000D01*
X78440729Y-84393489D01*
X78765585Y-84879670D01*
X79251766Y-85204526D01*
X79825255Y-85318600D01*
X80194745Y-85318600D01*
X80768234Y-85204526D01*
X81254415Y-84879670D01*
X81579271Y-84393489D01*
X81621930Y-84179026D01*
X91102642Y-84179026D01*
X91105291Y-84194791D01*
X91359268Y-84722036D01*
X91795680Y-85111954D01*
X92348087Y-85305184D01*
X92583000Y-85160924D01*
X92583000Y-83947000D01*
X92837000Y-83947000D01*
X92837000Y-85160924D01*
X93071913Y-85305184D01*
X93624320Y-85111954D01*
X94060732Y-84722036D01*
X94314709Y-84194791D01*
X94317358Y-84179026D01*
X94196217Y-83947000D01*
X92837000Y-83947000D01*
X92583000Y-83947000D01*
X91223783Y-83947000D01*
X91102642Y-84179026D01*
X81621930Y-84179026D01*
X81693345Y-83820000D01*
X81579271Y-83246511D01*
X81254415Y-82760330D01*
X80939634Y-82550000D01*
X81254415Y-82339670D01*
X81579271Y-81853489D01*
X81693345Y-81280000D01*
X81579271Y-80706511D01*
X81254415Y-80220330D01*
X80939634Y-80010000D01*
X81254415Y-79799670D01*
X81579271Y-79313489D01*
X81693345Y-78740000D01*
X81579271Y-78166511D01*
X81254415Y-77680330D01*
X80939634Y-77470000D01*
X81254415Y-77259670D01*
X81579271Y-76773489D01*
X81693345Y-76200000D01*
X81579271Y-75626511D01*
X81254415Y-75140330D01*
X80939634Y-74930000D01*
X81254415Y-74719670D01*
X81579271Y-74233489D01*
X81693345Y-73660000D01*
X81579271Y-73086511D01*
X81254415Y-72600330D01*
X80939634Y-72390000D01*
X81254415Y-72179670D01*
X81579271Y-71693489D01*
X81693345Y-71120000D01*
X91026655Y-71120000D01*
X91140729Y-71693489D01*
X91465585Y-72179670D01*
X91780366Y-72390000D01*
X91465585Y-72600330D01*
X91140729Y-73086511D01*
X91026655Y-73660000D01*
X91140729Y-74233489D01*
X91465585Y-74719670D01*
X91780366Y-74930000D01*
X91465585Y-75140330D01*
X91140729Y-75626511D01*
X91026655Y-76200000D01*
X91140729Y-76773489D01*
X91465585Y-77259670D01*
X91780366Y-77470000D01*
X91465585Y-77680330D01*
X91140729Y-78166511D01*
X91026655Y-78740000D01*
X91140729Y-79313489D01*
X91465585Y-79799670D01*
X91780366Y-80010000D01*
X91465585Y-80220330D01*
X91140729Y-80706511D01*
X91026655Y-81280000D01*
X91140729Y-81853489D01*
X91465585Y-82339670D01*
X91775069Y-82546461D01*
X91359268Y-82917964D01*
X91105291Y-83445209D01*
X91102642Y-83460974D01*
X91223783Y-83693000D01*
X92583000Y-83693000D01*
X92583000Y-83673000D01*
X92837000Y-83673000D01*
X92837000Y-83693000D01*
X94196217Y-83693000D01*
X94317358Y-83460974D01*
X94314709Y-83445209D01*
X94060732Y-82917964D01*
X93644931Y-82546461D01*
X93954415Y-82339670D01*
X94279271Y-81853489D01*
X94393345Y-81280000D01*
X94279271Y-80706511D01*
X93954415Y-80220330D01*
X93639634Y-80010000D01*
X93954415Y-79799670D01*
X94279271Y-79313489D01*
X94393345Y-78740000D01*
X94279271Y-78166511D01*
X93954415Y-77680330D01*
X93639634Y-77470000D01*
X93954415Y-77259670D01*
X94279271Y-76773489D01*
X94393345Y-76200000D01*
X94279271Y-75626511D01*
X93954415Y-75140330D01*
X93639634Y-74930000D01*
X93954415Y-74719670D01*
X94279271Y-74233489D01*
X94393345Y-73660000D01*
X99916655Y-73660000D01*
X100030729Y-74233489D01*
X100355585Y-74719670D01*
X100670366Y-74930000D01*
X100355585Y-75140330D01*
X100030729Y-75626511D01*
X99916655Y-76200000D01*
X100030729Y-76773489D01*
X100355585Y-77259670D01*
X100670366Y-77470000D01*
X100355585Y-77680330D01*
X100030729Y-78166511D01*
X99916655Y-78740000D01*
X100030729Y-79313489D01*
X100355585Y-79799670D01*
X100841766Y-80124526D01*
X101415255Y-80238600D01*
X101784745Y-80238600D01*
X102358234Y-80124526D01*
X102844415Y-79799670D01*
X103169271Y-79313489D01*
X103283345Y-78740000D01*
X103169271Y-78166511D01*
X102844415Y-77680330D01*
X102529634Y-77470000D01*
X102844415Y-77259670D01*
X103169271Y-76773489D01*
X103283345Y-76200000D01*
X103169271Y-75626511D01*
X102844415Y-75140330D01*
X102529634Y-74930000D01*
X102844415Y-74719670D01*
X103169271Y-74233489D01*
X103283345Y-73660000D01*
X103169271Y-73086511D01*
X102844415Y-72600330D01*
X102830087Y-72590757D01*
X102851317Y-72586762D01*
X103067441Y-72447690D01*
X103212431Y-72235490D01*
X103263440Y-71983600D01*
X103263440Y-70256400D01*
X103219162Y-70021083D01*
X103080090Y-69804959D01*
X102867890Y-69659969D01*
X102616000Y-69608960D01*
X100584000Y-69608960D01*
X100348683Y-69653238D01*
X100132559Y-69792310D01*
X99987569Y-70004510D01*
X99936560Y-70256400D01*
X99936560Y-71983600D01*
X99980838Y-72218917D01*
X100119910Y-72435041D01*
X100332110Y-72580031D01*
X100373439Y-72588400D01*
X100355585Y-72600330D01*
X100030729Y-73086511D01*
X99916655Y-73660000D01*
X94393345Y-73660000D01*
X94279271Y-73086511D01*
X93954415Y-72600330D01*
X93639634Y-72390000D01*
X93954415Y-72179670D01*
X94279271Y-71693489D01*
X94393345Y-71120000D01*
X94279271Y-70546511D01*
X93954415Y-70060330D01*
X93644931Y-69853539D01*
X94060732Y-69482036D01*
X94314709Y-68954791D01*
X94317358Y-68939026D01*
X94196217Y-68707000D01*
X92837000Y-68707000D01*
X92837000Y-68727000D01*
X92583000Y-68727000D01*
X92583000Y-68707000D01*
X91223783Y-68707000D01*
X91102642Y-68939026D01*
X91105291Y-68954791D01*
X91359268Y-69482036D01*
X91775069Y-69853539D01*
X91465585Y-70060330D01*
X91140729Y-70546511D01*
X91026655Y-71120000D01*
X81693345Y-71120000D01*
X81579271Y-70546511D01*
X81254415Y-70060330D01*
X80939634Y-69850000D01*
X81254415Y-69639670D01*
X81579271Y-69153489D01*
X81693345Y-68580000D01*
X81579271Y-68006511D01*
X81254415Y-67520330D01*
X81240087Y-67510757D01*
X81261317Y-67506762D01*
X81477441Y-67367690D01*
X81622431Y-67155490D01*
X81673440Y-66903600D01*
X81673440Y-65176400D01*
X91046560Y-65176400D01*
X91046560Y-66903600D01*
X91090838Y-67138917D01*
X91229910Y-67355041D01*
X91442110Y-67500031D01*
X91536927Y-67519232D01*
X91359268Y-67677964D01*
X91105291Y-68205209D01*
X91102642Y-68220974D01*
X91223783Y-68453000D01*
X92583000Y-68453000D01*
X92583000Y-68433000D01*
X92837000Y-68433000D01*
X92837000Y-68453000D01*
X94196217Y-68453000D01*
X94317358Y-68220974D01*
X94314709Y-68205209D01*
X94060732Y-67677964D01*
X93885155Y-67521093D01*
X93961317Y-67506762D01*
X94177441Y-67367690D01*
X94322431Y-67155490D01*
X94373440Y-66903600D01*
X94373440Y-65390000D01*
X97762560Y-65390000D01*
X97762560Y-66690000D01*
X97806838Y-66925317D01*
X97945910Y-67141441D01*
X98158110Y-67286431D01*
X98410000Y-67337440D01*
X99710000Y-67337440D01*
X99945317Y-67293162D01*
X100161441Y-67154090D01*
X100306431Y-66941890D01*
X100357440Y-66690000D01*
X100357440Y-65390000D01*
X100313162Y-65154683D01*
X100174090Y-64938559D01*
X99961890Y-64793569D01*
X99710000Y-64742560D01*
X98410000Y-64742560D01*
X98174683Y-64786838D01*
X97958559Y-64925910D01*
X97813569Y-65138110D01*
X97762560Y-65390000D01*
X94373440Y-65390000D01*
X94373440Y-65176400D01*
X94329162Y-64941083D01*
X94190090Y-64724959D01*
X93977890Y-64579969D01*
X93726000Y-64528960D01*
X91694000Y-64528960D01*
X91458683Y-64573238D01*
X91242559Y-64712310D01*
X91097569Y-64924510D01*
X91046560Y-65176400D01*
X81673440Y-65176400D01*
X81629162Y-64941083D01*
X81490090Y-64724959D01*
X81277890Y-64579969D01*
X81026000Y-64528960D01*
X78994000Y-64528960D01*
X78758683Y-64573238D01*
X78542559Y-64712310D01*
X78397569Y-64924510D01*
X78346560Y-65176400D01*
X78346560Y-66903600D01*
X78390838Y-67138917D01*
X78529910Y-67355041D01*
X78742110Y-67500031D01*
X78783439Y-67508400D01*
X78765585Y-67520330D01*
X78440729Y-68006511D01*
X78326655Y-68580000D01*
X75343345Y-68580000D01*
X75229271Y-68006511D01*
X74904415Y-67520330D01*
X74589634Y-67310000D01*
X74904415Y-67099670D01*
X75229271Y-66613489D01*
X75343345Y-66040000D01*
X75229271Y-65466511D01*
X74904415Y-64980330D01*
X74589634Y-64770000D01*
X74904415Y-64559670D01*
X75229271Y-64073489D01*
X75343345Y-63500000D01*
X75331215Y-63439016D01*
X98340590Y-63439016D01*
X98396271Y-63669611D01*
X98879078Y-63837622D01*
X99389428Y-63808083D01*
X99723729Y-63669611D01*
X99779410Y-63439016D01*
X99060000Y-62719605D01*
X98340590Y-63439016D01*
X75331215Y-63439016D01*
X75229271Y-62926511D01*
X74904415Y-62440330D01*
X74890087Y-62430757D01*
X74911317Y-62426762D01*
X75016500Y-62359078D01*
X97762378Y-62359078D01*
X97791917Y-62869428D01*
X97930389Y-63203729D01*
X98160984Y-63259410D01*
X98880395Y-62540000D01*
X99239605Y-62540000D01*
X99959016Y-63259410D01*
X100189611Y-63203729D01*
X100357622Y-62720922D01*
X100328083Y-62210572D01*
X100189611Y-61876271D01*
X99959016Y-61820590D01*
X99239605Y-62540000D01*
X98880395Y-62540000D01*
X98160984Y-61820590D01*
X97930389Y-61876271D01*
X97762378Y-62359078D01*
X75016500Y-62359078D01*
X75127441Y-62287690D01*
X75272431Y-62075490D01*
X75323440Y-61823600D01*
X75323440Y-61640984D01*
X98340590Y-61640984D01*
X99060000Y-62360395D01*
X99779410Y-61640984D01*
X99723729Y-61410389D01*
X99240922Y-61242378D01*
X98730572Y-61271917D01*
X98396271Y-61410389D01*
X98340590Y-61640984D01*
X75323440Y-61640984D01*
X75323440Y-60096400D01*
X75279162Y-59861083D01*
X75140090Y-59644959D01*
X74927890Y-59499969D01*
X74676000Y-59448960D01*
X72644000Y-59448960D01*
X72408683Y-59493238D01*
X72192559Y-59632310D01*
X72047569Y-59844510D01*
X71996560Y-60096400D01*
X71996560Y-61823600D01*
X72040838Y-62058917D01*
X72179910Y-62275041D01*
X72392110Y-62420031D01*
X72433439Y-62428400D01*
X72415585Y-62440330D01*
X72090729Y-62926511D01*
X71976655Y-63500000D01*
X60103345Y-63500000D01*
X59989271Y-62926511D01*
X59664415Y-62440330D01*
X59650087Y-62430757D01*
X59671317Y-62426762D01*
X59887441Y-62287690D01*
X60032431Y-62075490D01*
X60083440Y-61823600D01*
X60083440Y-60096400D01*
X60039162Y-59861083D01*
X59900090Y-59644959D01*
X59687890Y-59499969D01*
X59436000Y-59448960D01*
X57404000Y-59448960D01*
X57168683Y-59493238D01*
X56952559Y-59632310D01*
X56807569Y-59844510D01*
X56756560Y-60096400D01*
X56756560Y-61823600D01*
X56800838Y-62058917D01*
X56939910Y-62275041D01*
X57152110Y-62420031D01*
X57193439Y-62428400D01*
X57175585Y-62440330D01*
X56850729Y-62926511D01*
X56736655Y-63500000D01*
X56850729Y-64073489D01*
X57175585Y-64559670D01*
X57490366Y-64770000D01*
X57175585Y-64980330D01*
X56850729Y-65466511D01*
X56736655Y-66040000D01*
X56850729Y-66613489D01*
X57175585Y-67099670D01*
X57490366Y-67310000D01*
X57175585Y-67520330D01*
X56850729Y-68006511D01*
X56736655Y-68580000D01*
X56850729Y-69153489D01*
X57175585Y-69639670D01*
X57490366Y-69850000D01*
X57175585Y-70060330D01*
X56850729Y-70546511D01*
X56736655Y-71120000D01*
X56850729Y-71693489D01*
X57175585Y-72179670D01*
X57490366Y-72390000D01*
X57175585Y-72600330D01*
X56850729Y-73086511D01*
X56736655Y-73660000D01*
X56850729Y-74233489D01*
X57175585Y-74719670D01*
X57490366Y-74930000D01*
X57175585Y-75140330D01*
X56850729Y-75626511D01*
X56736655Y-76200000D01*
X56850729Y-76773489D01*
X57175585Y-77259670D01*
X57490366Y-77470000D01*
X57175585Y-77680330D01*
X56850729Y-78166511D01*
X56736655Y-78740000D01*
X56850729Y-79313489D01*
X57175585Y-79799670D01*
X57490366Y-80010000D01*
X57175585Y-80220330D01*
X56850729Y-80706511D01*
X56736655Y-81280000D01*
X56850729Y-81853489D01*
X57175585Y-82339670D01*
X57490366Y-82550000D01*
X57175585Y-82760330D01*
X56850729Y-83246511D01*
X56736655Y-83820000D01*
X56850729Y-84393489D01*
X57175585Y-84879670D01*
X57490366Y-85090000D01*
X57175585Y-85300330D01*
X56850729Y-85786511D01*
X56772848Y-86178046D01*
X56640000Y-86045198D01*
X56640000Y-60960000D01*
X56582148Y-60669161D01*
X56582148Y-60669160D01*
X56417401Y-60422599D01*
X54414802Y-58420000D01*
X54924802Y-57910000D01*
X81273258Y-57910000D01*
X81296838Y-58035317D01*
X81435910Y-58251441D01*
X81648110Y-58396431D01*
X81900000Y-58447440D01*
X83200000Y-58447440D01*
X83435317Y-58403162D01*
X83651441Y-58264090D01*
X83796431Y-58051890D01*
X83797012Y-58049016D01*
X85330590Y-58049016D01*
X85386271Y-58279611D01*
X85869078Y-58447622D01*
X86346307Y-58420000D01*
X104996655Y-58420000D01*
X105110729Y-58993489D01*
X105435585Y-59479670D01*
X105750366Y-59690000D01*
X105435585Y-59900330D01*
X105110729Y-60386511D01*
X104996655Y-60960000D01*
X105110729Y-61533489D01*
X105435585Y-62019670D01*
X105750366Y-62230000D01*
X105435585Y-62440330D01*
X105110729Y-62926511D01*
X104996655Y-63500000D01*
X105110729Y-64073489D01*
X105435585Y-64559670D01*
X105750366Y-64770000D01*
X105435585Y-64980330D01*
X105110729Y-65466511D01*
X104996655Y-66040000D01*
X105110729Y-66613489D01*
X105435585Y-67099670D01*
X105750366Y-67310000D01*
X105435585Y-67520330D01*
X105110729Y-68006511D01*
X104996655Y-68580000D01*
X105110729Y-69153489D01*
X105435585Y-69639670D01*
X105750366Y-69850000D01*
X105435585Y-70060330D01*
X105110729Y-70546511D01*
X104996655Y-71120000D01*
X105110729Y-71693489D01*
X105435585Y-72179670D01*
X105750366Y-72390000D01*
X105435585Y-72600330D01*
X105110729Y-73086511D01*
X104996655Y-73660000D01*
X105110729Y-74233489D01*
X105435585Y-74719670D01*
X105750366Y-74930000D01*
X105435585Y-75140330D01*
X105110729Y-75626511D01*
X104996655Y-76200000D01*
X105110729Y-76773489D01*
X105435585Y-77259670D01*
X105750366Y-77470000D01*
X105435585Y-77680330D01*
X105110729Y-78166511D01*
X104996655Y-78740000D01*
X105110729Y-79313489D01*
X105435585Y-79799670D01*
X105750366Y-80010000D01*
X105435585Y-80220330D01*
X105110729Y-80706511D01*
X104996655Y-81280000D01*
X105110729Y-81853489D01*
X105435585Y-82339670D01*
X105750366Y-82550000D01*
X105435585Y-82760330D01*
X105110729Y-83246511D01*
X104996655Y-83820000D01*
X105110729Y-84393489D01*
X105435585Y-84879670D01*
X105750366Y-85090000D01*
X105435585Y-85300330D01*
X105110729Y-85786511D01*
X104996655Y-86360000D01*
X105110729Y-86933489D01*
X105435585Y-87419670D01*
X105750366Y-87630000D01*
X105435585Y-87840330D01*
X105110729Y-88326511D01*
X104996655Y-88900000D01*
X105110729Y-89473489D01*
X105435585Y-89959670D01*
X105750366Y-90170000D01*
X105435585Y-90380330D01*
X105110729Y-90866511D01*
X104996655Y-91440000D01*
X105110729Y-92013489D01*
X105435585Y-92499670D01*
X105750366Y-92710000D01*
X105435585Y-92920330D01*
X105110729Y-93406511D01*
X104996655Y-93980000D01*
X105110729Y-94553489D01*
X105435585Y-95039670D01*
X105750366Y-95250000D01*
X105435585Y-95460330D01*
X105110729Y-95946511D01*
X104996655Y-96520000D01*
X105110729Y-97093489D01*
X105435585Y-97579670D01*
X105750366Y-97790000D01*
X105435585Y-98000330D01*
X105110729Y-98486511D01*
X104996655Y-99060000D01*
X105110729Y-99633489D01*
X105435585Y-100119670D01*
X105750366Y-100330000D01*
X105435585Y-100540330D01*
X105110729Y-101026511D01*
X104996655Y-101600000D01*
X105110729Y-102173489D01*
X105435585Y-102659670D01*
X105921766Y-102984526D01*
X106495255Y-103098600D01*
X106864745Y-103098600D01*
X107438234Y-102984526D01*
X107924415Y-102659670D01*
X108249271Y-102173489D01*
X108363345Y-101600000D01*
X108249271Y-101026511D01*
X107924415Y-100540330D01*
X107609634Y-100330000D01*
X107924415Y-100119670D01*
X108249271Y-99633489D01*
X108363345Y-99060000D01*
X108249271Y-98486511D01*
X107924415Y-98000330D01*
X107609634Y-97790000D01*
X107924415Y-97579670D01*
X108249271Y-97093489D01*
X108363345Y-96520000D01*
X108249271Y-95946511D01*
X107924415Y-95460330D01*
X107609634Y-95250000D01*
X107924415Y-95039670D01*
X108249271Y-94553489D01*
X108363345Y-93980000D01*
X108249271Y-93406511D01*
X107924415Y-92920330D01*
X107609634Y-92710000D01*
X107924415Y-92499670D01*
X108249271Y-92013489D01*
X108363345Y-91440000D01*
X108249271Y-90866511D01*
X107924415Y-90380330D01*
X107609634Y-90170000D01*
X107924415Y-89959670D01*
X108249271Y-89473489D01*
X108363345Y-88900000D01*
X108249271Y-88326511D01*
X107924415Y-87840330D01*
X107609634Y-87630000D01*
X107924415Y-87419670D01*
X108249271Y-86933489D01*
X108363345Y-86360000D01*
X108249271Y-85786511D01*
X107924415Y-85300330D01*
X107609634Y-85090000D01*
X107924415Y-84879670D01*
X108249271Y-84393489D01*
X108363345Y-83820000D01*
X108249271Y-83246511D01*
X107924415Y-82760330D01*
X107609634Y-82550000D01*
X107924415Y-82339670D01*
X108249271Y-81853489D01*
X108363345Y-81280000D01*
X108249271Y-80706511D01*
X107924415Y-80220330D01*
X107609634Y-80010000D01*
X107924415Y-79799670D01*
X108249271Y-79313489D01*
X108363345Y-78740000D01*
X108249271Y-78166511D01*
X107924415Y-77680330D01*
X107609634Y-77470000D01*
X107924415Y-77259670D01*
X108249271Y-76773489D01*
X108363345Y-76200000D01*
X108249271Y-75626511D01*
X107924415Y-75140330D01*
X107609634Y-74930000D01*
X107924415Y-74719670D01*
X108249271Y-74233489D01*
X108363345Y-73660000D01*
X108249271Y-73086511D01*
X107924415Y-72600330D01*
X107609634Y-72390000D01*
X107924415Y-72179670D01*
X108249271Y-71693489D01*
X108363345Y-71120000D01*
X108249271Y-70546511D01*
X107924415Y-70060330D01*
X107609634Y-69850000D01*
X107924415Y-69639670D01*
X108249271Y-69153489D01*
X108363345Y-68580000D01*
X108249271Y-68006511D01*
X107924415Y-67520330D01*
X107609634Y-67310000D01*
X107924415Y-67099670D01*
X108249271Y-66613489D01*
X108363345Y-66040000D01*
X108249271Y-65466511D01*
X107924415Y-64980330D01*
X107609634Y-64770000D01*
X107924415Y-64559670D01*
X108249271Y-64073489D01*
X108363345Y-63500000D01*
X108249271Y-62926511D01*
X107924415Y-62440330D01*
X107609634Y-62230000D01*
X107924415Y-62019670D01*
X108249271Y-61533489D01*
X108363345Y-60960000D01*
X108249271Y-60386511D01*
X107924415Y-59900330D01*
X107609634Y-59690000D01*
X107924415Y-59479670D01*
X108249271Y-58993489D01*
X108363345Y-58420000D01*
X108249271Y-57846511D01*
X107924415Y-57360330D01*
X107902220Y-57345500D01*
X108055699Y-57281927D01*
X108234327Y-57103298D01*
X108331000Y-56869909D01*
X108331000Y-56165750D01*
X108172250Y-56007000D01*
X106807000Y-56007000D01*
X106807000Y-56027000D01*
X106553000Y-56027000D01*
X106553000Y-56007000D01*
X105187750Y-56007000D01*
X105029000Y-56165750D01*
X105029000Y-56869909D01*
X105125673Y-57103298D01*
X105304301Y-57281927D01*
X105457780Y-57345500D01*
X105435585Y-57360330D01*
X105110729Y-57846511D01*
X104996655Y-58420000D01*
X86346307Y-58420000D01*
X86379428Y-58418083D01*
X86713729Y-58279611D01*
X86769410Y-58049016D01*
X86050000Y-57329605D01*
X85330590Y-58049016D01*
X83797012Y-58049016D01*
X83847440Y-57800000D01*
X83847440Y-56969078D01*
X84752378Y-56969078D01*
X84781917Y-57479428D01*
X84920389Y-57813729D01*
X85150984Y-57869410D01*
X85870395Y-57150000D01*
X86229605Y-57150000D01*
X86949016Y-57869410D01*
X87179611Y-57813729D01*
X87347622Y-57330922D01*
X87318083Y-56820572D01*
X87179611Y-56486271D01*
X86949016Y-56430590D01*
X86229605Y-57150000D01*
X85870395Y-57150000D01*
X85150984Y-56430590D01*
X84920389Y-56486271D01*
X84752378Y-56969078D01*
X83847440Y-56969078D01*
X83847440Y-56500000D01*
X83803162Y-56264683D01*
X83794347Y-56250984D01*
X85330590Y-56250984D01*
X86050000Y-56970395D01*
X86769410Y-56250984D01*
X86713729Y-56020389D01*
X86230922Y-55852378D01*
X85720572Y-55881917D01*
X85386271Y-56020389D01*
X85330590Y-56250984D01*
X83794347Y-56250984D01*
X83664090Y-56048559D01*
X83451890Y-55903569D01*
X83200000Y-55852560D01*
X81900000Y-55852560D01*
X81664683Y-55896838D01*
X81448559Y-56035910D01*
X81303569Y-56248110D01*
X81274836Y-56390000D01*
X54610000Y-56390000D01*
X54319160Y-56447852D01*
X54072599Y-56612599D01*
X53025198Y-57660000D01*
X52244648Y-57660000D01*
X52044415Y-57360330D01*
X52022220Y-57345500D01*
X52175699Y-57281927D01*
X52354327Y-57103298D01*
X52451000Y-56869909D01*
X52451000Y-56165750D01*
X52292250Y-56007000D01*
X50927000Y-56007000D01*
X50927000Y-56027000D01*
X50673000Y-56027000D01*
X50673000Y-56007000D01*
X49307750Y-56007000D01*
X49149000Y-56165750D01*
X49149000Y-56869909D01*
X49245673Y-57103298D01*
X49424301Y-57281927D01*
X49577780Y-57345500D01*
X49555585Y-57360330D01*
X49230729Y-57846511D01*
X49116655Y-58420000D01*
X48970000Y-58420000D01*
X48970000Y-54890091D01*
X49149000Y-54890091D01*
X49149000Y-55594250D01*
X49307750Y-55753000D01*
X50673000Y-55753000D01*
X50673000Y-54540150D01*
X50927000Y-54540150D01*
X50927000Y-55753000D01*
X52292250Y-55753000D01*
X52451000Y-55594250D01*
X52451000Y-54890091D01*
X105029000Y-54890091D01*
X105029000Y-55594250D01*
X105187750Y-55753000D01*
X106553000Y-55753000D01*
X106553000Y-54540150D01*
X106807000Y-54540150D01*
X106807000Y-55753000D01*
X108172250Y-55753000D01*
X108331000Y-55594250D01*
X108331000Y-54890091D01*
X108234327Y-54656702D01*
X108055699Y-54478073D01*
X107822310Y-54381400D01*
X106965750Y-54381400D01*
X106807000Y-54540150D01*
X106553000Y-54540150D01*
X106394250Y-54381400D01*
X105537690Y-54381400D01*
X105304301Y-54478073D01*
X105125673Y-54656702D01*
X105029000Y-54890091D01*
X52451000Y-54890091D01*
X52354327Y-54656702D01*
X52175699Y-54478073D01*
X51942310Y-54381400D01*
X51085750Y-54381400D01*
X50927000Y-54540150D01*
X50673000Y-54540150D01*
X50514250Y-54381400D01*
X49657690Y-54381400D01*
X49424301Y-54478073D01*
X49245673Y-54656702D01*
X49149000Y-54890091D01*
X48970000Y-54890091D01*
X48970000Y-52780000D01*
X108510000Y-52780000D01*
X108510000Y-103430000D01*
X108510000Y-103430000D01*
G37*
X108510000Y-103430000D02*
X48970000Y-103430000D01*
X48970000Y-58420000D01*
X49116655Y-58420000D01*
X49230729Y-58993489D01*
X49555585Y-59479670D01*
X49870366Y-59690000D01*
X49555585Y-59900330D01*
X49230729Y-60386511D01*
X49116655Y-60960000D01*
X49230729Y-61533489D01*
X49555585Y-62019670D01*
X49870366Y-62230000D01*
X49555585Y-62440330D01*
X49230729Y-62926511D01*
X49116655Y-63500000D01*
X49230729Y-64073489D01*
X49555585Y-64559670D01*
X49870366Y-64770000D01*
X49555585Y-64980330D01*
X49230729Y-65466511D01*
X49116655Y-66040000D01*
X49230729Y-66613489D01*
X49555585Y-67099670D01*
X49870366Y-67310000D01*
X49555585Y-67520330D01*
X49230729Y-68006511D01*
X49116655Y-68580000D01*
X49230729Y-69153489D01*
X49555585Y-69639670D01*
X49870366Y-69850000D01*
X49555585Y-70060330D01*
X49230729Y-70546511D01*
X49116655Y-71120000D01*
X49230729Y-71693489D01*
X49555585Y-72179670D01*
X49870366Y-72390000D01*
X49555585Y-72600330D01*
X49230729Y-73086511D01*
X49116655Y-73660000D01*
X49230729Y-74233489D01*
X49555585Y-74719670D01*
X49870366Y-74930000D01*
X49555585Y-75140330D01*
X49230729Y-75626511D01*
X49116655Y-76200000D01*
X49230729Y-76773489D01*
X49555585Y-77259670D01*
X49870366Y-77470000D01*
X49555585Y-77680330D01*
X49230729Y-78166511D01*
X49116655Y-78740000D01*
X49230729Y-79313489D01*
X49555585Y-79799670D01*
X49870366Y-80010000D01*
X49555585Y-80220330D01*
X49230729Y-80706511D01*
X49116655Y-81280000D01*
X49230729Y-81853489D01*
X49555585Y-82339670D01*
X49870366Y-82550000D01*
X49555585Y-82760330D01*
X49230729Y-83246511D01*
X49116655Y-83820000D01*
X49230729Y-84393489D01*
X49555585Y-84879670D01*
X49870366Y-85090000D01*
X49555585Y-85300330D01*
X49230729Y-85786511D01*
X49116655Y-86360000D01*
X49230729Y-86933489D01*
X49555585Y-87419670D01*
X49870366Y-87630000D01*
X49555585Y-87840330D01*
X49230729Y-88326511D01*
X49116655Y-88900000D01*
X49230729Y-89473489D01*
X49555585Y-89959670D01*
X49870366Y-90170000D01*
X49555585Y-90380330D01*
X49230729Y-90866511D01*
X49116655Y-91440000D01*
X49230729Y-92013489D01*
X49555585Y-92499670D01*
X49870366Y-92710000D01*
X49555585Y-92920330D01*
X49230729Y-93406511D01*
X49116655Y-93980000D01*
X49230729Y-94553489D01*
X49555585Y-95039670D01*
X49870366Y-95250000D01*
X49555585Y-95460330D01*
X49230729Y-95946511D01*
X49116655Y-96520000D01*
X49230729Y-97093489D01*
X49555585Y-97579670D01*
X49870366Y-97790000D01*
X49555585Y-98000330D01*
X49230729Y-98486511D01*
X49116655Y-99060000D01*
X49230729Y-99633489D01*
X49555585Y-100119670D01*
X49870366Y-100330000D01*
X49555585Y-100540330D01*
X49230729Y-101026511D01*
X49116655Y-101600000D01*
X49230729Y-102173489D01*
X49555585Y-102659670D01*
X50041766Y-102984526D01*
X50615255Y-103098600D01*
X50984745Y-103098600D01*
X51558234Y-102984526D01*
X52044415Y-102659670D01*
X52244648Y-102360000D01*
X72390000Y-102360000D01*
X72680839Y-102302148D01*
X72927401Y-102137401D01*
X79518917Y-95545885D01*
X79683453Y-95614206D01*
X80333694Y-95614774D01*
X80934655Y-95366462D01*
X81394846Y-94907073D01*
X81644206Y-94306547D01*
X81644208Y-94303694D01*
X88535226Y-94303694D01*
X88783538Y-94904655D01*
X89242927Y-95364846D01*
X89843453Y-95614206D01*
X90493694Y-95614774D01*
X91094655Y-95366462D01*
X91554846Y-94907073D01*
X91804206Y-94306547D01*
X91804774Y-93656306D01*
X91556462Y-93055345D01*
X91455872Y-92954579D01*
X94014786Y-92954579D01*
X94202408Y-93408657D01*
X94549515Y-93756371D01*
X95003266Y-93944785D01*
X95285030Y-93945031D01*
X95284786Y-94224579D01*
X95472408Y-94678657D01*
X95819515Y-95026371D01*
X96273266Y-95214785D01*
X96764579Y-95215214D01*
X97218657Y-95027592D01*
X97566371Y-94680485D01*
X97754785Y-94226734D01*
X97755214Y-93735421D01*
X97567592Y-93281343D01*
X97220485Y-92933629D01*
X96766734Y-92745215D01*
X96484970Y-92744969D01*
X96485027Y-92679521D01*
X96841413Y-92657482D01*
X97153617Y-92528164D01*
X97203130Y-92302735D01*
X96520000Y-91619605D01*
X96505858Y-91633748D01*
X96326253Y-91454143D01*
X96340395Y-91440000D01*
X96699605Y-91440000D01*
X97382735Y-92123130D01*
X97608164Y-92073617D01*
X97767807Y-91608964D01*
X97737482Y-91118587D01*
X97608164Y-90806383D01*
X97382735Y-90756870D01*
X96699605Y-91440000D01*
X96340395Y-91440000D01*
X95657265Y-90756870D01*
X95431836Y-90806383D01*
X95272193Y-91271036D01*
X95284808Y-91475030D01*
X95005421Y-91474786D01*
X94551343Y-91662408D01*
X94203629Y-92009515D01*
X94015215Y-92463266D01*
X94014786Y-92954579D01*
X91455872Y-92954579D01*
X91097073Y-92595154D01*
X90496547Y-92345794D01*
X89846306Y-92345226D01*
X89245345Y-92593538D01*
X88785154Y-93052927D01*
X88535794Y-93653453D01*
X88535226Y-94303694D01*
X81644208Y-94303694D01*
X81644774Y-93656306D01*
X81396462Y-93055345D01*
X80937073Y-92595154D01*
X80336547Y-92345794D01*
X79686306Y-92345226D01*
X79085345Y-92593538D01*
X78625154Y-93052927D01*
X78375794Y-93653453D01*
X78375226Y-94303694D01*
X78444309Y-94470889D01*
X72075198Y-100840000D01*
X52244648Y-100840000D01*
X52044415Y-100540330D01*
X51729634Y-100330000D01*
X52044415Y-100119670D01*
X52369271Y-99633489D01*
X52483345Y-99060000D01*
X52369271Y-98486511D01*
X52044415Y-98000330D01*
X51729634Y-97790000D01*
X52044415Y-97579670D01*
X52369271Y-97093489D01*
X52483345Y-96520000D01*
X56736655Y-96520000D01*
X56850729Y-97093489D01*
X57175585Y-97579670D01*
X57661766Y-97904526D01*
X58235255Y-98018600D01*
X58604745Y-98018600D01*
X59178234Y-97904526D01*
X59664415Y-97579670D01*
X59989271Y-97093489D01*
X60103345Y-96520000D01*
X59989271Y-95946511D01*
X59664415Y-95460330D01*
X59354931Y-95253539D01*
X59770732Y-94882036D01*
X60024709Y-94354791D01*
X60027358Y-94339026D01*
X59906217Y-94107000D01*
X58547000Y-94107000D01*
X58547000Y-94127000D01*
X58293000Y-94127000D01*
X58293000Y-94107000D01*
X56933783Y-94107000D01*
X56812642Y-94339026D01*
X56815291Y-94354791D01*
X57069268Y-94882036D01*
X57485069Y-95253539D01*
X57175585Y-95460330D01*
X56850729Y-95946511D01*
X56736655Y-96520000D01*
X52483345Y-96520000D01*
X52369271Y-95946511D01*
X52044415Y-95460330D01*
X51729634Y-95250000D01*
X52044415Y-95039670D01*
X52369271Y-94553489D01*
X52483345Y-93980000D01*
X52369271Y-93406511D01*
X52044415Y-92920330D01*
X51729634Y-92710000D01*
X52044415Y-92499670D01*
X52369271Y-92013489D01*
X52483345Y-91440000D01*
X52369271Y-90866511D01*
X52044415Y-90380330D01*
X51729634Y-90170000D01*
X52044415Y-89959670D01*
X52369271Y-89473489D01*
X52483345Y-88900000D01*
X52369271Y-88326511D01*
X52044415Y-87840330D01*
X51729634Y-87630000D01*
X52044415Y-87419670D01*
X52369271Y-86933489D01*
X52483345Y-86360000D01*
X52369271Y-85786511D01*
X52044415Y-85300330D01*
X51729634Y-85090000D01*
X52044415Y-84879670D01*
X52369271Y-84393489D01*
X52483345Y-83820000D01*
X52369271Y-83246511D01*
X52044415Y-82760330D01*
X51729634Y-82550000D01*
X52044415Y-82339670D01*
X52369271Y-81853489D01*
X52483345Y-81280000D01*
X52369271Y-80706511D01*
X52044415Y-80220330D01*
X51729634Y-80010000D01*
X52044415Y-79799670D01*
X52369271Y-79313489D01*
X52483345Y-78740000D01*
X52369271Y-78166511D01*
X52044415Y-77680330D01*
X51729634Y-77470000D01*
X52044415Y-77259670D01*
X52369271Y-76773489D01*
X52483345Y-76200000D01*
X52369271Y-75626511D01*
X52044415Y-75140330D01*
X51729634Y-74930000D01*
X52044415Y-74719670D01*
X52369271Y-74233489D01*
X52483345Y-73660000D01*
X52369271Y-73086511D01*
X52044415Y-72600330D01*
X51729634Y-72390000D01*
X52044415Y-72179670D01*
X52369271Y-71693489D01*
X52483345Y-71120000D01*
X52369271Y-70546511D01*
X52044415Y-70060330D01*
X51729634Y-69850000D01*
X52044415Y-69639670D01*
X52369271Y-69153489D01*
X52483345Y-68580000D01*
X52369271Y-68006511D01*
X52044415Y-67520330D01*
X51729634Y-67310000D01*
X52044415Y-67099670D01*
X52369271Y-66613489D01*
X52483345Y-66040000D01*
X52369271Y-65466511D01*
X52044415Y-64980330D01*
X51729634Y-64770000D01*
X52044415Y-64559670D01*
X52369271Y-64073489D01*
X52483345Y-63500000D01*
X52369271Y-62926511D01*
X52044415Y-62440330D01*
X51729634Y-62230000D01*
X52044415Y-62019670D01*
X52369271Y-61533489D01*
X52483345Y-60960000D01*
X52369271Y-60386511D01*
X52044415Y-59900330D01*
X51729634Y-59690000D01*
X52044415Y-59479670D01*
X52244648Y-59180000D01*
X53025198Y-59180000D01*
X55120000Y-61274802D01*
X55120000Y-86360000D01*
X55177852Y-86650839D01*
X55342599Y-86897401D01*
X56837619Y-88392421D01*
X56736655Y-88900000D01*
X56850729Y-89473489D01*
X57175585Y-89959670D01*
X57490366Y-90170000D01*
X57175585Y-90380330D01*
X56850729Y-90866511D01*
X56736655Y-91440000D01*
X56850729Y-92013489D01*
X57175585Y-92499670D01*
X57485069Y-92706461D01*
X57069268Y-93077964D01*
X56815291Y-93605209D01*
X56812642Y-93620974D01*
X56933783Y-93853000D01*
X58293000Y-93853000D01*
X58293000Y-93833000D01*
X58547000Y-93833000D01*
X58547000Y-93853000D01*
X59906217Y-93853000D01*
X60027358Y-93620974D01*
X60024709Y-93605209D01*
X59770732Y-93077964D01*
X59354931Y-92706461D01*
X59664415Y-92499670D01*
X59989271Y-92013489D01*
X60103345Y-91440000D01*
X59989271Y-90866511D01*
X59664415Y-90380330D01*
X59349634Y-90170000D01*
X59664415Y-89959670D01*
X59989271Y-89473489D01*
X60103345Y-88900000D01*
X59989271Y-88326511D01*
X59664415Y-87840330D01*
X59349634Y-87630000D01*
X59664415Y-87419670D01*
X59989271Y-86933489D01*
X60103345Y-86360000D01*
X59989271Y-85786511D01*
X59664415Y-85300330D01*
X59349634Y-85090000D01*
X59664415Y-84879670D01*
X59989271Y-84393489D01*
X60103345Y-83820000D01*
X59989271Y-83246511D01*
X59664415Y-82760330D01*
X59349634Y-82550000D01*
X59664415Y-82339670D01*
X59989271Y-81853489D01*
X60103345Y-81280000D01*
X59989271Y-80706511D01*
X59664415Y-80220330D01*
X59349634Y-80010000D01*
X59664415Y-79799670D01*
X59989271Y-79313489D01*
X60103345Y-78740000D01*
X59989271Y-78166511D01*
X59664415Y-77680330D01*
X59349634Y-77470000D01*
X59664415Y-77259670D01*
X59989271Y-76773489D01*
X60103345Y-76200000D01*
X59989271Y-75626511D01*
X59664415Y-75140330D01*
X59349634Y-74930000D01*
X59664415Y-74719670D01*
X59989271Y-74233489D01*
X60103345Y-73660000D01*
X59989271Y-73086511D01*
X59664415Y-72600330D01*
X59349634Y-72390000D01*
X59664415Y-72179670D01*
X59989271Y-71693489D01*
X60103345Y-71120000D01*
X59989271Y-70546511D01*
X59664415Y-70060330D01*
X59349634Y-69850000D01*
X59664415Y-69639670D01*
X59989271Y-69153489D01*
X60103345Y-68580000D01*
X59989271Y-68006511D01*
X59664415Y-67520330D01*
X59349634Y-67310000D01*
X59664415Y-67099670D01*
X59989271Y-66613489D01*
X60103345Y-66040000D01*
X59989271Y-65466511D01*
X59664415Y-64980330D01*
X59349634Y-64770000D01*
X59664415Y-64559670D01*
X59989271Y-64073489D01*
X60103345Y-63500000D01*
X71976655Y-63500000D01*
X72090729Y-64073489D01*
X72415585Y-64559670D01*
X72730366Y-64770000D01*
X72415585Y-64980330D01*
X72090729Y-65466511D01*
X71976655Y-66040000D01*
X72090729Y-66613489D01*
X72415585Y-67099670D01*
X72730366Y-67310000D01*
X72415585Y-67520330D01*
X72090729Y-68006511D01*
X71976655Y-68580000D01*
X72090729Y-69153489D01*
X72415585Y-69639670D01*
X72730366Y-69850000D01*
X72415585Y-70060330D01*
X72090729Y-70546511D01*
X71976655Y-71120000D01*
X72090729Y-71693489D01*
X72415585Y-72179670D01*
X72730366Y-72390000D01*
X72415585Y-72600330D01*
X72090729Y-73086511D01*
X71976655Y-73660000D01*
X72090729Y-74233489D01*
X72415585Y-74719670D01*
X72730366Y-74930000D01*
X72415585Y-75140330D01*
X72090729Y-75626511D01*
X71976655Y-76200000D01*
X72090729Y-76773489D01*
X72415585Y-77259670D01*
X72730366Y-77470000D01*
X72415585Y-77680330D01*
X72090729Y-78166511D01*
X71976655Y-78740000D01*
X72090729Y-79313489D01*
X72415585Y-79799670D01*
X72730366Y-80010000D01*
X72415585Y-80220330D01*
X72090729Y-80706511D01*
X71976655Y-81280000D01*
X72090729Y-81853489D01*
X72415585Y-82339670D01*
X72730366Y-82550000D01*
X72415585Y-82760330D01*
X72090729Y-83246511D01*
X71976655Y-83820000D01*
X72090729Y-84393489D01*
X72415585Y-84879670D01*
X72730366Y-85090000D01*
X72415585Y-85300330D01*
X72090729Y-85786511D01*
X71976655Y-86360000D01*
X72090729Y-86933489D01*
X72415585Y-87419670D01*
X72730366Y-87630000D01*
X72415585Y-87840330D01*
X72090729Y-88326511D01*
X71976655Y-88900000D01*
X72090729Y-89473489D01*
X72415585Y-89959670D01*
X72730366Y-90170000D01*
X72415585Y-90380330D01*
X72090729Y-90866511D01*
X71976655Y-91440000D01*
X72090729Y-92013489D01*
X72415585Y-92499670D01*
X72730366Y-92710000D01*
X72415585Y-92920330D01*
X72090729Y-93406511D01*
X71976655Y-93980000D01*
X72090729Y-94553489D01*
X72415585Y-95039670D01*
X72730366Y-95250000D01*
X72415585Y-95460330D01*
X72090729Y-95946511D01*
X71976655Y-96520000D01*
X72090729Y-97093489D01*
X72415585Y-97579670D01*
X72901766Y-97904526D01*
X73475255Y-98018600D01*
X73844745Y-98018600D01*
X74418234Y-97904526D01*
X74904415Y-97579670D01*
X75229271Y-97093489D01*
X75343345Y-96520000D01*
X75229271Y-95946511D01*
X74904415Y-95460330D01*
X74589634Y-95250000D01*
X74904415Y-95039670D01*
X75229271Y-94553489D01*
X75343345Y-93980000D01*
X75229271Y-93406511D01*
X74904415Y-92920330D01*
X74589634Y-92710000D01*
X74904415Y-92499670D01*
X75229271Y-92013489D01*
X75343345Y-91440000D01*
X75229271Y-90866511D01*
X74980163Y-90493694D01*
X78375226Y-90493694D01*
X78623538Y-91094655D01*
X79082927Y-91554846D01*
X79683453Y-91804206D01*
X80333694Y-91804774D01*
X80934655Y-91556462D01*
X81394846Y-91097073D01*
X81644206Y-90496547D01*
X81644208Y-90493694D01*
X88535226Y-90493694D01*
X88783538Y-91094655D01*
X89242927Y-91554846D01*
X89843453Y-91804206D01*
X90493694Y-91804774D01*
X91094655Y-91556462D01*
X91554846Y-91097073D01*
X91770688Y-90577265D01*
X95836870Y-90577265D01*
X96520000Y-91260395D01*
X97203130Y-90577265D01*
X97153617Y-90351836D01*
X96688964Y-90192193D01*
X96198587Y-90222518D01*
X95886383Y-90351836D01*
X95836870Y-90577265D01*
X91770688Y-90577265D01*
X91804206Y-90496547D01*
X91804774Y-89846306D01*
X91556462Y-89245345D01*
X91097073Y-88785154D01*
X90496547Y-88535794D01*
X89846306Y-88535226D01*
X89245345Y-88783538D01*
X88785154Y-89242927D01*
X88535794Y-89843453D01*
X88535226Y-90493694D01*
X81644208Y-90493694D01*
X81644774Y-89846306D01*
X81396462Y-89245345D01*
X80937073Y-88785154D01*
X80336547Y-88535794D01*
X79686306Y-88535226D01*
X79085345Y-88783538D01*
X78625154Y-89242927D01*
X78375794Y-89843453D01*
X78375226Y-90493694D01*
X74980163Y-90493694D01*
X74904415Y-90380330D01*
X74589634Y-90170000D01*
X74904415Y-89959670D01*
X75229271Y-89473489D01*
X75343345Y-88900000D01*
X75229271Y-88326511D01*
X74904415Y-87840330D01*
X74589634Y-87630000D01*
X74904415Y-87419670D01*
X75229271Y-86933489D01*
X75343345Y-86360000D01*
X75229271Y-85786511D01*
X74904415Y-85300330D01*
X74589634Y-85090000D01*
X74904415Y-84879670D01*
X75229271Y-84393489D01*
X75343345Y-83820000D01*
X75229271Y-83246511D01*
X74904415Y-82760330D01*
X74589634Y-82550000D01*
X74904415Y-82339670D01*
X75229271Y-81853489D01*
X75343345Y-81280000D01*
X75229271Y-80706511D01*
X74904415Y-80220330D01*
X74589634Y-80010000D01*
X74904415Y-79799670D01*
X75229271Y-79313489D01*
X75343345Y-78740000D01*
X75229271Y-78166511D01*
X74904415Y-77680330D01*
X74589634Y-77470000D01*
X74904415Y-77259670D01*
X75229271Y-76773489D01*
X75343345Y-76200000D01*
X75229271Y-75626511D01*
X74904415Y-75140330D01*
X74589634Y-74930000D01*
X74904415Y-74719670D01*
X75229271Y-74233489D01*
X75343345Y-73660000D01*
X75229271Y-73086511D01*
X74904415Y-72600330D01*
X74589634Y-72390000D01*
X74904415Y-72179670D01*
X75229271Y-71693489D01*
X75343345Y-71120000D01*
X75229271Y-70546511D01*
X74904415Y-70060330D01*
X74589634Y-69850000D01*
X74904415Y-69639670D01*
X75229271Y-69153489D01*
X75343345Y-68580000D01*
X78326655Y-68580000D01*
X78440729Y-69153489D01*
X78765585Y-69639670D01*
X79080366Y-69850000D01*
X78765585Y-70060330D01*
X78440729Y-70546511D01*
X78326655Y-71120000D01*
X78440729Y-71693489D01*
X78765585Y-72179670D01*
X79080366Y-72390000D01*
X78765585Y-72600330D01*
X78440729Y-73086511D01*
X78326655Y-73660000D01*
X78440729Y-74233489D01*
X78765585Y-74719670D01*
X79080366Y-74930000D01*
X78765585Y-75140330D01*
X78440729Y-75626511D01*
X78326655Y-76200000D01*
X78440729Y-76773489D01*
X78765585Y-77259670D01*
X79080366Y-77470000D01*
X78765585Y-77680330D01*
X78440729Y-78166511D01*
X78326655Y-78740000D01*
X78440729Y-79313489D01*
X78765585Y-79799670D01*
X79080366Y-80010000D01*
X78765585Y-80220330D01*
X78440729Y-80706511D01*
X78326655Y-81280000D01*
X78440729Y-81853489D01*
X78765585Y-82339670D01*
X79080366Y-82550000D01*
X78765585Y-82760330D01*
X78440729Y-83246511D01*
X78326655Y-83820000D01*
X78440729Y-84393489D01*
X78765585Y-84879670D01*
X79251766Y-85204526D01*
X79825255Y-85318600D01*
X80194745Y-85318600D01*
X80768234Y-85204526D01*
X81254415Y-84879670D01*
X81579271Y-84393489D01*
X81621930Y-84179026D01*
X91102642Y-84179026D01*
X91105291Y-84194791D01*
X91359268Y-84722036D01*
X91795680Y-85111954D01*
X92348087Y-85305184D01*
X92583000Y-85160924D01*
X92583000Y-83947000D01*
X92837000Y-83947000D01*
X92837000Y-85160924D01*
X93071913Y-85305184D01*
X93624320Y-85111954D01*
X94060732Y-84722036D01*
X94314709Y-84194791D01*
X94317358Y-84179026D01*
X94196217Y-83947000D01*
X92837000Y-83947000D01*
X92583000Y-83947000D01*
X91223783Y-83947000D01*
X91102642Y-84179026D01*
X81621930Y-84179026D01*
X81693345Y-83820000D01*
X81579271Y-83246511D01*
X81254415Y-82760330D01*
X80939634Y-82550000D01*
X81254415Y-82339670D01*
X81579271Y-81853489D01*
X81693345Y-81280000D01*
X81579271Y-80706511D01*
X81254415Y-80220330D01*
X80939634Y-80010000D01*
X81254415Y-79799670D01*
X81579271Y-79313489D01*
X81693345Y-78740000D01*
X81579271Y-78166511D01*
X81254415Y-77680330D01*
X80939634Y-77470000D01*
X81254415Y-77259670D01*
X81579271Y-76773489D01*
X81693345Y-76200000D01*
X81579271Y-75626511D01*
X81254415Y-75140330D01*
X80939634Y-74930000D01*
X81254415Y-74719670D01*
X81579271Y-74233489D01*
X81693345Y-73660000D01*
X81579271Y-73086511D01*
X81254415Y-72600330D01*
X80939634Y-72390000D01*
X81254415Y-72179670D01*
X81579271Y-71693489D01*
X81693345Y-71120000D01*
X91026655Y-71120000D01*
X91140729Y-71693489D01*
X91465585Y-72179670D01*
X91780366Y-72390000D01*
X91465585Y-72600330D01*
X91140729Y-73086511D01*
X91026655Y-73660000D01*
X91140729Y-74233489D01*
X91465585Y-74719670D01*
X91780366Y-74930000D01*
X91465585Y-75140330D01*
X91140729Y-75626511D01*
X91026655Y-76200000D01*
X91140729Y-76773489D01*
X91465585Y-77259670D01*
X91780366Y-77470000D01*
X91465585Y-77680330D01*
X91140729Y-78166511D01*
X91026655Y-78740000D01*
X91140729Y-79313489D01*
X91465585Y-79799670D01*
X91780366Y-80010000D01*
X91465585Y-80220330D01*
X91140729Y-80706511D01*
X91026655Y-81280000D01*
X91140729Y-81853489D01*
X91465585Y-82339670D01*
X91775069Y-82546461D01*
X91359268Y-82917964D01*
X91105291Y-83445209D01*
X91102642Y-83460974D01*
X91223783Y-83693000D01*
X92583000Y-83693000D01*
X92583000Y-83673000D01*
X92837000Y-83673000D01*
X92837000Y-83693000D01*
X94196217Y-83693000D01*
X94317358Y-83460974D01*
X94314709Y-83445209D01*
X94060732Y-82917964D01*
X93644931Y-82546461D01*
X93954415Y-82339670D01*
X94279271Y-81853489D01*
X94393345Y-81280000D01*
X94279271Y-80706511D01*
X93954415Y-80220330D01*
X93639634Y-80010000D01*
X93954415Y-79799670D01*
X94279271Y-79313489D01*
X94393345Y-78740000D01*
X94279271Y-78166511D01*
X93954415Y-77680330D01*
X93639634Y-77470000D01*
X93954415Y-77259670D01*
X94279271Y-76773489D01*
X94393345Y-76200000D01*
X94279271Y-75626511D01*
X93954415Y-75140330D01*
X93639634Y-74930000D01*
X93954415Y-74719670D01*
X94279271Y-74233489D01*
X94393345Y-73660000D01*
X99916655Y-73660000D01*
X100030729Y-74233489D01*
X100355585Y-74719670D01*
X100670366Y-74930000D01*
X100355585Y-75140330D01*
X100030729Y-75626511D01*
X99916655Y-76200000D01*
X100030729Y-76773489D01*
X100355585Y-77259670D01*
X100670366Y-77470000D01*
X100355585Y-77680330D01*
X100030729Y-78166511D01*
X99916655Y-78740000D01*
X100030729Y-79313489D01*
X100355585Y-79799670D01*
X100841766Y-80124526D01*
X101415255Y-80238600D01*
X101784745Y-80238600D01*
X102358234Y-80124526D01*
X102844415Y-79799670D01*
X103169271Y-79313489D01*
X103283345Y-78740000D01*
X103169271Y-78166511D01*
X102844415Y-77680330D01*
X102529634Y-77470000D01*
X102844415Y-77259670D01*
X103169271Y-76773489D01*
X103283345Y-76200000D01*
X103169271Y-75626511D01*
X102844415Y-75140330D01*
X102529634Y-74930000D01*
X102844415Y-74719670D01*
X103169271Y-74233489D01*
X103283345Y-73660000D01*
X103169271Y-73086511D01*
X102844415Y-72600330D01*
X102830087Y-72590757D01*
X102851317Y-72586762D01*
X103067441Y-72447690D01*
X103212431Y-72235490D01*
X103263440Y-71983600D01*
X103263440Y-70256400D01*
X103219162Y-70021083D01*
X103080090Y-69804959D01*
X102867890Y-69659969D01*
X102616000Y-69608960D01*
X100584000Y-69608960D01*
X100348683Y-69653238D01*
X100132559Y-69792310D01*
X99987569Y-70004510D01*
X99936560Y-70256400D01*
X99936560Y-71983600D01*
X99980838Y-72218917D01*
X100119910Y-72435041D01*
X100332110Y-72580031D01*
X100373439Y-72588400D01*
X100355585Y-72600330D01*
X100030729Y-73086511D01*
X99916655Y-73660000D01*
X94393345Y-73660000D01*
X94279271Y-73086511D01*
X93954415Y-72600330D01*
X93639634Y-72390000D01*
X93954415Y-72179670D01*
X94279271Y-71693489D01*
X94393345Y-71120000D01*
X94279271Y-70546511D01*
X93954415Y-70060330D01*
X93644931Y-69853539D01*
X94060732Y-69482036D01*
X94314709Y-68954791D01*
X94317358Y-68939026D01*
X94196217Y-68707000D01*
X92837000Y-68707000D01*
X92837000Y-68727000D01*
X92583000Y-68727000D01*
X92583000Y-68707000D01*
X91223783Y-68707000D01*
X91102642Y-68939026D01*
X91105291Y-68954791D01*
X91359268Y-69482036D01*
X91775069Y-69853539D01*
X91465585Y-70060330D01*
X91140729Y-70546511D01*
X91026655Y-71120000D01*
X81693345Y-71120000D01*
X81579271Y-70546511D01*
X81254415Y-70060330D01*
X80939634Y-69850000D01*
X81254415Y-69639670D01*
X81579271Y-69153489D01*
X81693345Y-68580000D01*
X81579271Y-68006511D01*
X81254415Y-67520330D01*
X81240087Y-67510757D01*
X81261317Y-67506762D01*
X81477441Y-67367690D01*
X81622431Y-67155490D01*
X81673440Y-66903600D01*
X81673440Y-65176400D01*
X91046560Y-65176400D01*
X91046560Y-66903600D01*
X91090838Y-67138917D01*
X91229910Y-67355041D01*
X91442110Y-67500031D01*
X91536927Y-67519232D01*
X91359268Y-67677964D01*
X91105291Y-68205209D01*
X91102642Y-68220974D01*
X91223783Y-68453000D01*
X92583000Y-68453000D01*
X92583000Y-68433000D01*
X92837000Y-68433000D01*
X92837000Y-68453000D01*
X94196217Y-68453000D01*
X94317358Y-68220974D01*
X94314709Y-68205209D01*
X94060732Y-67677964D01*
X93885155Y-67521093D01*
X93961317Y-67506762D01*
X94177441Y-67367690D01*
X94322431Y-67155490D01*
X94373440Y-66903600D01*
X94373440Y-65390000D01*
X97762560Y-65390000D01*
X97762560Y-66690000D01*
X97806838Y-66925317D01*
X97945910Y-67141441D01*
X98158110Y-67286431D01*
X98410000Y-67337440D01*
X99710000Y-67337440D01*
X99945317Y-67293162D01*
X100161441Y-67154090D01*
X100306431Y-66941890D01*
X100357440Y-66690000D01*
X100357440Y-65390000D01*
X100313162Y-65154683D01*
X100174090Y-64938559D01*
X99961890Y-64793569D01*
X99710000Y-64742560D01*
X98410000Y-64742560D01*
X98174683Y-64786838D01*
X97958559Y-64925910D01*
X97813569Y-65138110D01*
X97762560Y-65390000D01*
X94373440Y-65390000D01*
X94373440Y-65176400D01*
X94329162Y-64941083D01*
X94190090Y-64724959D01*
X93977890Y-64579969D01*
X93726000Y-64528960D01*
X91694000Y-64528960D01*
X91458683Y-64573238D01*
X91242559Y-64712310D01*
X91097569Y-64924510D01*
X91046560Y-65176400D01*
X81673440Y-65176400D01*
X81629162Y-64941083D01*
X81490090Y-64724959D01*
X81277890Y-64579969D01*
X81026000Y-64528960D01*
X78994000Y-64528960D01*
X78758683Y-64573238D01*
X78542559Y-64712310D01*
X78397569Y-64924510D01*
X78346560Y-65176400D01*
X78346560Y-66903600D01*
X78390838Y-67138917D01*
X78529910Y-67355041D01*
X78742110Y-67500031D01*
X78783439Y-67508400D01*
X78765585Y-67520330D01*
X78440729Y-68006511D01*
X78326655Y-68580000D01*
X75343345Y-68580000D01*
X75229271Y-68006511D01*
X74904415Y-67520330D01*
X74589634Y-67310000D01*
X74904415Y-67099670D01*
X75229271Y-66613489D01*
X75343345Y-66040000D01*
X75229271Y-65466511D01*
X74904415Y-64980330D01*
X74589634Y-64770000D01*
X74904415Y-64559670D01*
X75229271Y-64073489D01*
X75343345Y-63500000D01*
X75331215Y-63439016D01*
X98340590Y-63439016D01*
X98396271Y-63669611D01*
X98879078Y-63837622D01*
X99389428Y-63808083D01*
X99723729Y-63669611D01*
X99779410Y-63439016D01*
X99060000Y-62719605D01*
X98340590Y-63439016D01*
X75331215Y-63439016D01*
X75229271Y-62926511D01*
X74904415Y-62440330D01*
X74890087Y-62430757D01*
X74911317Y-62426762D01*
X75016500Y-62359078D01*
X97762378Y-62359078D01*
X97791917Y-62869428D01*
X97930389Y-63203729D01*
X98160984Y-63259410D01*
X98880395Y-62540000D01*
X99239605Y-62540000D01*
X99959016Y-63259410D01*
X100189611Y-63203729D01*
X100357622Y-62720922D01*
X100328083Y-62210572D01*
X100189611Y-61876271D01*
X99959016Y-61820590D01*
X99239605Y-62540000D01*
X98880395Y-62540000D01*
X98160984Y-61820590D01*
X97930389Y-61876271D01*
X97762378Y-62359078D01*
X75016500Y-62359078D01*
X75127441Y-62287690D01*
X75272431Y-62075490D01*
X75323440Y-61823600D01*
X75323440Y-61640984D01*
X98340590Y-61640984D01*
X99060000Y-62360395D01*
X99779410Y-61640984D01*
X99723729Y-61410389D01*
X99240922Y-61242378D01*
X98730572Y-61271917D01*
X98396271Y-61410389D01*
X98340590Y-61640984D01*
X75323440Y-61640984D01*
X75323440Y-60096400D01*
X75279162Y-59861083D01*
X75140090Y-59644959D01*
X74927890Y-59499969D01*
X74676000Y-59448960D01*
X72644000Y-59448960D01*
X72408683Y-59493238D01*
X72192559Y-59632310D01*
X72047569Y-59844510D01*
X71996560Y-60096400D01*
X71996560Y-61823600D01*
X72040838Y-62058917D01*
X72179910Y-62275041D01*
X72392110Y-62420031D01*
X72433439Y-62428400D01*
X72415585Y-62440330D01*
X72090729Y-62926511D01*
X71976655Y-63500000D01*
X60103345Y-63500000D01*
X59989271Y-62926511D01*
X59664415Y-62440330D01*
X59650087Y-62430757D01*
X59671317Y-62426762D01*
X59887441Y-62287690D01*
X60032431Y-62075490D01*
X60083440Y-61823600D01*
X60083440Y-60096400D01*
X60039162Y-59861083D01*
X59900090Y-59644959D01*
X59687890Y-59499969D01*
X59436000Y-59448960D01*
X57404000Y-59448960D01*
X57168683Y-59493238D01*
X56952559Y-59632310D01*
X56807569Y-59844510D01*
X56756560Y-60096400D01*
X56756560Y-61823600D01*
X56800838Y-62058917D01*
X56939910Y-62275041D01*
X57152110Y-62420031D01*
X57193439Y-62428400D01*
X57175585Y-62440330D01*
X56850729Y-62926511D01*
X56736655Y-63500000D01*
X56850729Y-64073489D01*
X57175585Y-64559670D01*
X57490366Y-64770000D01*
X57175585Y-64980330D01*
X56850729Y-65466511D01*
X56736655Y-66040000D01*
X56850729Y-66613489D01*
X57175585Y-67099670D01*
X57490366Y-67310000D01*
X57175585Y-67520330D01*
X56850729Y-68006511D01*
X56736655Y-68580000D01*
X56850729Y-69153489D01*
X57175585Y-69639670D01*
X57490366Y-69850000D01*
X57175585Y-70060330D01*
X56850729Y-70546511D01*
X56736655Y-71120000D01*
X56850729Y-71693489D01*
X57175585Y-72179670D01*
X57490366Y-72390000D01*
X57175585Y-72600330D01*
X56850729Y-73086511D01*
X56736655Y-73660000D01*
X56850729Y-74233489D01*
X57175585Y-74719670D01*
X57490366Y-74930000D01*
X57175585Y-75140330D01*
X56850729Y-75626511D01*
X56736655Y-76200000D01*
X56850729Y-76773489D01*
X57175585Y-77259670D01*
X57490366Y-77470000D01*
X57175585Y-77680330D01*
X56850729Y-78166511D01*
X56736655Y-78740000D01*
X56850729Y-79313489D01*
X57175585Y-79799670D01*
X57490366Y-80010000D01*
X57175585Y-80220330D01*
X56850729Y-80706511D01*
X56736655Y-81280000D01*
X56850729Y-81853489D01*
X57175585Y-82339670D01*
X57490366Y-82550000D01*
X57175585Y-82760330D01*
X56850729Y-83246511D01*
X56736655Y-83820000D01*
X56850729Y-84393489D01*
X57175585Y-84879670D01*
X57490366Y-85090000D01*
X57175585Y-85300330D01*
X56850729Y-85786511D01*
X56772848Y-86178046D01*
X56640000Y-86045198D01*
X56640000Y-60960000D01*
X56582148Y-60669161D01*
X56582148Y-60669160D01*
X56417401Y-60422599D01*
X54414802Y-58420000D01*
X54924802Y-57910000D01*
X81273258Y-57910000D01*
X81296838Y-58035317D01*
X81435910Y-58251441D01*
X81648110Y-58396431D01*
X81900000Y-58447440D01*
X83200000Y-58447440D01*
X83435317Y-58403162D01*
X83651441Y-58264090D01*
X83796431Y-58051890D01*
X83797012Y-58049016D01*
X85330590Y-58049016D01*
X85386271Y-58279611D01*
X85869078Y-58447622D01*
X86346307Y-58420000D01*
X104996655Y-58420000D01*
X105110729Y-58993489D01*
X105435585Y-59479670D01*
X105750366Y-59690000D01*
X105435585Y-59900330D01*
X105110729Y-60386511D01*
X104996655Y-60960000D01*
X105110729Y-61533489D01*
X105435585Y-62019670D01*
X105750366Y-62230000D01*
X105435585Y-62440330D01*
X105110729Y-62926511D01*
X104996655Y-63500000D01*
X105110729Y-64073489D01*
X105435585Y-64559670D01*
X105750366Y-64770000D01*
X105435585Y-64980330D01*
X105110729Y-65466511D01*
X104996655Y-66040000D01*
X105110729Y-66613489D01*
X105435585Y-67099670D01*
X105750366Y-67310000D01*
X105435585Y-67520330D01*
X105110729Y-68006511D01*
X104996655Y-68580000D01*
X105110729Y-69153489D01*
X105435585Y-69639670D01*
X105750366Y-69850000D01*
X105435585Y-70060330D01*
X105110729Y-70546511D01*
X104996655Y-71120000D01*
X105110729Y-71693489D01*
X105435585Y-72179670D01*
X105750366Y-72390000D01*
X105435585Y-72600330D01*
X105110729Y-73086511D01*
X104996655Y-73660000D01*
X105110729Y-74233489D01*
X105435585Y-74719670D01*
X105750366Y-74930000D01*
X105435585Y-75140330D01*
X105110729Y-75626511D01*
X104996655Y-76200000D01*
X105110729Y-76773489D01*
X105435585Y-77259670D01*
X105750366Y-77470000D01*
X105435585Y-77680330D01*
X105110729Y-78166511D01*
X104996655Y-78740000D01*
X105110729Y-79313489D01*
X105435585Y-79799670D01*
X105750366Y-80010000D01*
X105435585Y-80220330D01*
X105110729Y-80706511D01*
X104996655Y-81280000D01*
X105110729Y-81853489D01*
X105435585Y-82339670D01*
X105750366Y-82550000D01*
X105435585Y-82760330D01*
X105110729Y-83246511D01*
X104996655Y-83820000D01*
X105110729Y-84393489D01*
X105435585Y-84879670D01*
X105750366Y-85090000D01*
X105435585Y-85300330D01*
X105110729Y-85786511D01*
X104996655Y-86360000D01*
X105110729Y-86933489D01*
X105435585Y-87419670D01*
X105750366Y-87630000D01*
X105435585Y-87840330D01*
X105110729Y-88326511D01*
X104996655Y-88900000D01*
X105110729Y-89473489D01*
X105435585Y-89959670D01*
X105750366Y-90170000D01*
X105435585Y-90380330D01*
X105110729Y-90866511D01*
X104996655Y-91440000D01*
X105110729Y-92013489D01*
X105435585Y-92499670D01*
X105750366Y-92710000D01*
X105435585Y-92920330D01*
X105110729Y-93406511D01*
X104996655Y-93980000D01*
X105110729Y-94553489D01*
X105435585Y-95039670D01*
X105750366Y-95250000D01*
X105435585Y-95460330D01*
X105110729Y-95946511D01*
X104996655Y-96520000D01*
X105110729Y-97093489D01*
X105435585Y-97579670D01*
X105750366Y-97790000D01*
X105435585Y-98000330D01*
X105110729Y-98486511D01*
X104996655Y-99060000D01*
X105110729Y-99633489D01*
X105435585Y-100119670D01*
X105750366Y-100330000D01*
X105435585Y-100540330D01*
X105110729Y-101026511D01*
X104996655Y-101600000D01*
X105110729Y-102173489D01*
X105435585Y-102659670D01*
X105921766Y-102984526D01*
X106495255Y-103098600D01*
X106864745Y-103098600D01*
X107438234Y-102984526D01*
X107924415Y-102659670D01*
X108249271Y-102173489D01*
X108363345Y-101600000D01*
X108249271Y-101026511D01*
X107924415Y-100540330D01*
X107609634Y-100330000D01*
X107924415Y-100119670D01*
X108249271Y-99633489D01*
X108363345Y-99060000D01*
X108249271Y-98486511D01*
X107924415Y-98000330D01*
X107609634Y-97790000D01*
X107924415Y-97579670D01*
X108249271Y-97093489D01*
X108363345Y-96520000D01*
X108249271Y-95946511D01*
X107924415Y-95460330D01*
X107609634Y-95250000D01*
X107924415Y-95039670D01*
X108249271Y-94553489D01*
X108363345Y-93980000D01*
X108249271Y-93406511D01*
X107924415Y-92920330D01*
X107609634Y-92710000D01*
X107924415Y-92499670D01*
X108249271Y-92013489D01*
X108363345Y-91440000D01*
X108249271Y-90866511D01*
X107924415Y-90380330D01*
X107609634Y-90170000D01*
X107924415Y-89959670D01*
X108249271Y-89473489D01*
X108363345Y-88900000D01*
X108249271Y-88326511D01*
X107924415Y-87840330D01*
X107609634Y-87630000D01*
X107924415Y-87419670D01*
X108249271Y-86933489D01*
X108363345Y-86360000D01*
X108249271Y-85786511D01*
X107924415Y-85300330D01*
X107609634Y-85090000D01*
X107924415Y-84879670D01*
X108249271Y-84393489D01*
X108363345Y-83820000D01*
X108249271Y-83246511D01*
X107924415Y-82760330D01*
X107609634Y-82550000D01*
X107924415Y-82339670D01*
X108249271Y-81853489D01*
X108363345Y-81280000D01*
X108249271Y-80706511D01*
X107924415Y-80220330D01*
X107609634Y-80010000D01*
X107924415Y-79799670D01*
X108249271Y-79313489D01*
X108363345Y-78740000D01*
X108249271Y-78166511D01*
X107924415Y-77680330D01*
X107609634Y-77470000D01*
X107924415Y-77259670D01*
X108249271Y-76773489D01*
X108363345Y-76200000D01*
X108249271Y-75626511D01*
X107924415Y-75140330D01*
X107609634Y-74930000D01*
X107924415Y-74719670D01*
X108249271Y-74233489D01*
X108363345Y-73660000D01*
X108249271Y-73086511D01*
X107924415Y-72600330D01*
X107609634Y-72390000D01*
X107924415Y-72179670D01*
X108249271Y-71693489D01*
X108363345Y-71120000D01*
X108249271Y-70546511D01*
X107924415Y-70060330D01*
X107609634Y-69850000D01*
X107924415Y-69639670D01*
X108249271Y-69153489D01*
X108363345Y-68580000D01*
X108249271Y-68006511D01*
X107924415Y-67520330D01*
X107609634Y-67310000D01*
X107924415Y-67099670D01*
X108249271Y-66613489D01*
X108363345Y-66040000D01*
X108249271Y-65466511D01*
X107924415Y-64980330D01*
X107609634Y-64770000D01*
X107924415Y-64559670D01*
X108249271Y-64073489D01*
X108363345Y-63500000D01*
X108249271Y-62926511D01*
X107924415Y-62440330D01*
X107609634Y-62230000D01*
X107924415Y-62019670D01*
X108249271Y-61533489D01*
X108363345Y-60960000D01*
X108249271Y-60386511D01*
X107924415Y-59900330D01*
X107609634Y-59690000D01*
X107924415Y-59479670D01*
X108249271Y-58993489D01*
X108363345Y-58420000D01*
X108249271Y-57846511D01*
X107924415Y-57360330D01*
X107902220Y-57345500D01*
X108055699Y-57281927D01*
X108234327Y-57103298D01*
X108331000Y-56869909D01*
X108331000Y-56165750D01*
X108172250Y-56007000D01*
X106807000Y-56007000D01*
X106807000Y-56027000D01*
X106553000Y-56027000D01*
X106553000Y-56007000D01*
X105187750Y-56007000D01*
X105029000Y-56165750D01*
X105029000Y-56869909D01*
X105125673Y-57103298D01*
X105304301Y-57281927D01*
X105457780Y-57345500D01*
X105435585Y-57360330D01*
X105110729Y-57846511D01*
X104996655Y-58420000D01*
X86346307Y-58420000D01*
X86379428Y-58418083D01*
X86713729Y-58279611D01*
X86769410Y-58049016D01*
X86050000Y-57329605D01*
X85330590Y-58049016D01*
X83797012Y-58049016D01*
X83847440Y-57800000D01*
X83847440Y-56969078D01*
X84752378Y-56969078D01*
X84781917Y-57479428D01*
X84920389Y-57813729D01*
X85150984Y-57869410D01*
X85870395Y-57150000D01*
X86229605Y-57150000D01*
X86949016Y-57869410D01*
X87179611Y-57813729D01*
X87347622Y-57330922D01*
X87318083Y-56820572D01*
X87179611Y-56486271D01*
X86949016Y-56430590D01*
X86229605Y-57150000D01*
X85870395Y-57150000D01*
X85150984Y-56430590D01*
X84920389Y-56486271D01*
X84752378Y-56969078D01*
X83847440Y-56969078D01*
X83847440Y-56500000D01*
X83803162Y-56264683D01*
X83794347Y-56250984D01*
X85330590Y-56250984D01*
X86050000Y-56970395D01*
X86769410Y-56250984D01*
X86713729Y-56020389D01*
X86230922Y-55852378D01*
X85720572Y-55881917D01*
X85386271Y-56020389D01*
X85330590Y-56250984D01*
X83794347Y-56250984D01*
X83664090Y-56048559D01*
X83451890Y-55903569D01*
X83200000Y-55852560D01*
X81900000Y-55852560D01*
X81664683Y-55896838D01*
X81448559Y-56035910D01*
X81303569Y-56248110D01*
X81274836Y-56390000D01*
X54610000Y-56390000D01*
X54319160Y-56447852D01*
X54072599Y-56612599D01*
X53025198Y-57660000D01*
X52244648Y-57660000D01*
X52044415Y-57360330D01*
X52022220Y-57345500D01*
X52175699Y-57281927D01*
X52354327Y-57103298D01*
X52451000Y-56869909D01*
X52451000Y-56165750D01*
X52292250Y-56007000D01*
X50927000Y-56007000D01*
X50927000Y-56027000D01*
X50673000Y-56027000D01*
X50673000Y-56007000D01*
X49307750Y-56007000D01*
X49149000Y-56165750D01*
X49149000Y-56869909D01*
X49245673Y-57103298D01*
X49424301Y-57281927D01*
X49577780Y-57345500D01*
X49555585Y-57360330D01*
X49230729Y-57846511D01*
X49116655Y-58420000D01*
X48970000Y-58420000D01*
X48970000Y-54890091D01*
X49149000Y-54890091D01*
X49149000Y-55594250D01*
X49307750Y-55753000D01*
X50673000Y-55753000D01*
X50673000Y-54540150D01*
X50927000Y-54540150D01*
X50927000Y-55753000D01*
X52292250Y-55753000D01*
X52451000Y-55594250D01*
X52451000Y-54890091D01*
X105029000Y-54890091D01*
X105029000Y-55594250D01*
X105187750Y-55753000D01*
X106553000Y-55753000D01*
X106553000Y-54540150D01*
X106807000Y-54540150D01*
X106807000Y-55753000D01*
X108172250Y-55753000D01*
X108331000Y-55594250D01*
X108331000Y-54890091D01*
X108234327Y-54656702D01*
X108055699Y-54478073D01*
X107822310Y-54381400D01*
X106965750Y-54381400D01*
X106807000Y-54540150D01*
X106553000Y-54540150D01*
X106394250Y-54381400D01*
X105537690Y-54381400D01*
X105304301Y-54478073D01*
X105125673Y-54656702D01*
X105029000Y-54890091D01*
X52451000Y-54890091D01*
X52354327Y-54656702D01*
X52175699Y-54478073D01*
X51942310Y-54381400D01*
X51085750Y-54381400D01*
X50927000Y-54540150D01*
X50673000Y-54540150D01*
X50514250Y-54381400D01*
X49657690Y-54381400D01*
X49424301Y-54478073D01*
X49245673Y-54656702D01*
X49149000Y-54890091D01*
X48970000Y-54890091D01*
X48970000Y-52780000D01*
X108510000Y-52780000D01*
X108510000Y-103430000D01*
M02*
