%FSLAX45Y45*%
G04 Gerber Fmt 4.5, Leading zero omitted, Abs format (unit mm)*
G04 Created by KiCad (PCBNEW 4.0.3+e1-6302~38~ubuntu16.04.1-stable) date Thu Aug 25 11:42:16 2016*
%MOMM*%
%LPD*%
G01*
G04 APERTURE LIST*
%ADD10C,0.127000*%
%ADD11C,0.150000*%
%ADD12C,0.200000*%
%ADD13C,0.300000*%
G04 APERTURE END LIST*
D10*
D11*
X12827000Y-3175000D02*
X7112000Y-3175000D01*
X12827000Y-8382000D02*
X12827000Y-3175000D01*
X7112000Y-8382000D02*
X12827000Y-8382000D01*
X7112000Y-3175000D02*
X7112000Y-8382000D01*
D12*
X11156000Y-7727000D02*
X11196000Y-7767000D01*
X11196000Y-7727000D02*
X11156000Y-7767000D01*
X7782104Y-4190746D02*
G75*
G03X7782104Y-4190746I-35052J0D01*
G01*
X8416798Y-5841948D02*
G75*
G03X8416798Y-5841948I-35052J0D01*
G01*
X8416798Y-6857948D02*
G75*
G03X8416798Y-6857948I-35052J0D01*
G01*
X8671306Y-5842052D02*
G75*
G03X8671306Y-5842052I-35052J0D01*
G01*
X8671306Y-6858052D02*
G75*
G03X8671306Y-6858052I-35052J0D01*
G01*
X8798104Y-4190746D02*
G75*
G03X8798104Y-4190746I-35052J0D01*
G01*
X9051798Y-4444948D02*
G75*
G03X9051798Y-4444948I-35052J0D01*
G01*
X9051798Y-5460948D02*
G75*
G03X9051798Y-5460948I-35052J0D01*
G01*
X9052306Y-7112052D02*
G75*
G03X9052306Y-7112052I-35052J0D01*
G01*
X9052306Y-8128052D02*
G75*
G03X9052306Y-8128052I-35052J0D01*
G01*
X9305798Y-7111948D02*
G75*
G03X9305798Y-7111948I-35052J0D01*
G01*
X9305798Y-8127948D02*
G75*
G03X9305798Y-8127948I-35052J0D01*
G01*
X9306306Y-4445052D02*
G75*
G03X9306306Y-4445052I-35052J0D01*
G01*
X9306306Y-5461052D02*
G75*
G03X9306306Y-5461052I-35052J0D01*
G01*
X9686798Y-4444948D02*
G75*
G03X9686798Y-4444948I-35052J0D01*
G01*
X9686798Y-5460948D02*
G75*
G03X9686798Y-5460948I-35052J0D01*
G01*
X9686798Y-7111948D02*
G75*
G03X9686798Y-7111948I-35052J0D01*
G01*
X9686798Y-8127948D02*
G75*
G03X9686798Y-8127948I-35052J0D01*
G01*
X9941306Y-4445052D02*
G75*
G03X9941306Y-4445052I-35052J0D01*
G01*
X9941306Y-5461052D02*
G75*
G03X9941306Y-5461052I-35052J0D01*
G01*
X9941306Y-7112052D02*
G75*
G03X9941306Y-7112052I-35052J0D01*
G01*
X9941306Y-8128052D02*
G75*
G03X9941306Y-8128052I-35052J0D01*
G01*
X11211000Y-7493254D02*
G75*
G03X11211000Y-7493254I-35052J0D01*
G01*
X12227000Y-7493254D02*
G75*
G03X12227000Y-7493254I-35052J0D01*
G01*
X8386000Y-4659000D02*
X8386000Y-4739000D01*
X8346000Y-4699000D02*
X8426000Y-4699000D01*
X8386000Y-5294000D02*
X8386000Y-5374000D01*
X8346000Y-5334000D02*
X8426000Y-5334000D01*
X8386000Y-7326000D02*
X8386000Y-7406000D01*
X8346000Y-7366000D02*
X8426000Y-7366000D01*
X8509000Y-7834000D02*
X8509000Y-7914000D01*
X8469000Y-7874000D02*
X8549000Y-7874000D01*
X8509000Y-8084000D02*
X8509000Y-8164000D01*
X8469000Y-8124000D02*
X8549000Y-8124000D01*
X8636000Y-4659000D02*
X8636000Y-4739000D01*
X8596000Y-4699000D02*
X8676000Y-4699000D01*
X8636000Y-5294000D02*
X8636000Y-5374000D01*
X8596000Y-5334000D02*
X8676000Y-5334000D01*
X8636000Y-7326000D02*
X8636000Y-7406000D01*
X8596000Y-7366000D02*
X8676000Y-7366000D01*
X9017000Y-5929000D02*
X9017000Y-6009000D01*
X8977000Y-5969000D02*
X9057000Y-5969000D01*
X9017000Y-6564000D02*
X9017000Y-6644000D01*
X8977000Y-6604000D02*
X9057000Y-6604000D01*
X9021000Y-3897000D02*
X9021000Y-3977000D01*
X8981000Y-3937000D02*
X9061000Y-3937000D01*
X9267000Y-5929000D02*
X9267000Y-6009000D01*
X9227000Y-5969000D02*
X9307000Y-5969000D01*
X9267000Y-6564000D02*
X9267000Y-6644000D01*
X9227000Y-6604000D02*
X9307000Y-6604000D01*
X9271000Y-3897000D02*
X9271000Y-3977000D01*
X9231000Y-3937000D02*
X9311000Y-3937000D01*
X9652000Y-5929000D02*
X9652000Y-6009000D01*
X9612000Y-5969000D02*
X9692000Y-5969000D01*
X9656000Y-3897000D02*
X9656000Y-3977000D01*
X9616000Y-3937000D02*
X9696000Y-3937000D01*
X9656000Y-6564000D02*
X9656000Y-6644000D01*
X9616000Y-6604000D02*
X9696000Y-6604000D01*
X9902000Y-5929000D02*
X9902000Y-6009000D01*
X9862000Y-5969000D02*
X9942000Y-5969000D01*
X9906000Y-3897000D02*
X9906000Y-3977000D01*
X9866000Y-3937000D02*
X9946000Y-3937000D01*
X9906000Y-6564000D02*
X9906000Y-6644000D01*
X9866000Y-6604000D02*
X9946000Y-6604000D01*
X10164000Y-7707000D02*
X10164000Y-7787000D01*
X10124000Y-7747000D02*
X10204000Y-7747000D01*
X10414000Y-7707000D02*
X10414000Y-7787000D01*
X10374000Y-7747000D02*
X10454000Y-7747000D01*
X10541000Y-6056000D02*
X10541000Y-6136000D01*
X10501000Y-6096000D02*
X10581000Y-6096000D01*
X10668000Y-5929000D02*
X10668000Y-6009000D01*
X10628000Y-5969000D02*
X10708000Y-5969000D01*
X10668000Y-6183000D02*
X10668000Y-6263000D01*
X10628000Y-6223000D02*
X10708000Y-6223000D01*
X11176000Y-6437000D02*
X11176000Y-6517000D01*
X11136000Y-6477000D02*
X11216000Y-6477000D01*
X11303000Y-3897000D02*
X11303000Y-3977000D01*
X11263000Y-3937000D02*
X11343000Y-3937000D01*
X11303000Y-4151000D02*
X11303000Y-4231000D01*
X11263000Y-4191000D02*
X11343000Y-4191000D01*
X11303000Y-4405000D02*
X11303000Y-4485000D01*
X11263000Y-4445000D02*
X11343000Y-4445000D01*
X11303000Y-4659000D02*
X11303000Y-4739000D01*
X11263000Y-4699000D02*
X11343000Y-4699000D01*
X11303000Y-6310000D02*
X11303000Y-6390000D01*
X11263000Y-6350000D02*
X11343000Y-6350000D01*
X11303000Y-6564000D02*
X11303000Y-6644000D01*
X11263000Y-6604000D02*
X11343000Y-6604000D01*
X11688000Y-7072000D02*
X11688000Y-7152000D01*
X11648000Y-7112000D02*
X11728000Y-7112000D01*
X11938000Y-6437000D02*
X11938000Y-6517000D01*
X11898000Y-6477000D02*
X11978000Y-6477000D01*
X11938000Y-7072000D02*
X11938000Y-7152000D01*
X11898000Y-7112000D02*
X11978000Y-7112000D01*
X12065000Y-3897000D02*
X12065000Y-3977000D01*
X12025000Y-3937000D02*
X12105000Y-3937000D01*
X12065000Y-4151000D02*
X12065000Y-4231000D01*
X12025000Y-4191000D02*
X12105000Y-4191000D01*
X12065000Y-4405000D02*
X12065000Y-4485000D01*
X12025000Y-4445000D02*
X12105000Y-4445000D01*
X12065000Y-4659000D02*
X12065000Y-4739000D01*
X12025000Y-4699000D02*
X12105000Y-4699000D01*
X12065000Y-6310000D02*
X12065000Y-6390000D01*
X12025000Y-6350000D02*
X12105000Y-6350000D01*
X12065000Y-6564000D02*
X12065000Y-6644000D01*
X12025000Y-6604000D02*
X12105000Y-6604000D01*
X10699820Y-5365820D02*
X10699820Y-5302180D01*
X10636180Y-5302180D01*
X10636180Y-5365820D01*
X10699820Y-5365820D01*
X11199820Y-5365820D02*
X11199820Y-5302180D01*
X11136180Y-5302180D01*
X11136180Y-5365820D01*
X11199820Y-5365820D01*
X11588820Y-5365820D02*
X11588820Y-5302180D01*
X11525180Y-5302180D01*
X11525180Y-5365820D01*
X11588820Y-5365820D01*
X12088820Y-5365820D02*
X12088820Y-5302180D01*
X12025180Y-5302180D01*
X12025180Y-5365820D01*
X12088820Y-5365820D01*
X10287000Y-7162038D02*
X10337038Y-7112000D01*
X10287000Y-7061962D01*
X10236962Y-7112000D01*
X10287000Y-7162038D01*
X10541000Y-3606038D02*
X10591038Y-3556000D01*
X10541000Y-3505962D01*
X10490962Y-3556000D01*
X10541000Y-3606038D01*
X10541000Y-4622038D02*
X10591038Y-4572000D01*
X10541000Y-4521962D01*
X10490962Y-4572000D01*
X10541000Y-4622038D01*
X10922000Y-3606038D02*
X10972038Y-3556000D01*
X10922000Y-3505962D01*
X10871962Y-3556000D01*
X10922000Y-3606038D01*
X10922000Y-4622038D02*
X10972038Y-4572000D01*
X10922000Y-4521962D01*
X10871962Y-4572000D01*
X10922000Y-4622038D01*
X11176000Y-5892038D02*
X11226038Y-5842000D01*
X11176000Y-5791962D01*
X11125962Y-5842000D01*
X11176000Y-5892038D01*
X11303000Y-7162038D02*
X11353038Y-7112000D01*
X11303000Y-7061962D01*
X11252962Y-7112000D01*
X11303000Y-7162038D01*
X12192000Y-5892038D02*
X12242038Y-5842000D01*
X12192000Y-5791962D01*
X12141962Y-5842000D01*
X12192000Y-5892038D01*
X7315200Y-3505200D02*
X7416800Y-3606800D01*
X7416800Y-3505200D02*
X7315200Y-3606800D01*
X7416800Y-3556000D02*
G75*
G03X7416800Y-3556000I-50800J0D01*
G01*
X7315200Y-3759200D02*
X7416800Y-3860800D01*
X7416800Y-3759200D02*
X7315200Y-3860800D01*
X7416800Y-3810000D02*
G75*
G03X7416800Y-3810000I-50800J0D01*
G01*
X7315200Y-4013200D02*
X7416800Y-4114800D01*
X7416800Y-4013200D02*
X7315200Y-4114800D01*
X7416800Y-4064000D02*
G75*
G03X7416800Y-4064000I-50800J0D01*
G01*
X7315200Y-4267200D02*
X7416800Y-4368800D01*
X7416800Y-4267200D02*
X7315200Y-4368800D01*
X7416800Y-4318000D02*
G75*
G03X7416800Y-4318000I-50800J0D01*
G01*
X7315200Y-4521200D02*
X7416800Y-4622800D01*
X7416800Y-4521200D02*
X7315200Y-4622800D01*
X7416800Y-4572000D02*
G75*
G03X7416800Y-4572000I-50800J0D01*
G01*
X7315200Y-4775200D02*
X7416800Y-4876800D01*
X7416800Y-4775200D02*
X7315200Y-4876800D01*
X7416800Y-4826000D02*
G75*
G03X7416800Y-4826000I-50800J0D01*
G01*
X7315200Y-5029200D02*
X7416800Y-5130800D01*
X7416800Y-5029200D02*
X7315200Y-5130800D01*
X7416800Y-5080000D02*
G75*
G03X7416800Y-5080000I-50800J0D01*
G01*
X7315200Y-5283200D02*
X7416800Y-5384800D01*
X7416800Y-5283200D02*
X7315200Y-5384800D01*
X7416800Y-5334000D02*
G75*
G03X7416800Y-5334000I-50800J0D01*
G01*
X7315200Y-5537200D02*
X7416800Y-5638800D01*
X7416800Y-5537200D02*
X7315200Y-5638800D01*
X7416800Y-5588000D02*
G75*
G03X7416800Y-5588000I-50800J0D01*
G01*
X7315200Y-5791200D02*
X7416800Y-5892800D01*
X7416800Y-5791200D02*
X7315200Y-5892800D01*
X7416800Y-5842000D02*
G75*
G03X7416800Y-5842000I-50800J0D01*
G01*
X7315200Y-6045200D02*
X7416800Y-6146800D01*
X7416800Y-6045200D02*
X7315200Y-6146800D01*
X7416800Y-6096000D02*
G75*
G03X7416800Y-6096000I-50800J0D01*
G01*
X7315200Y-6299200D02*
X7416800Y-6400800D01*
X7416800Y-6299200D02*
X7315200Y-6400800D01*
X7416800Y-6350000D02*
G75*
G03X7416800Y-6350000I-50800J0D01*
G01*
X7315200Y-6553200D02*
X7416800Y-6654800D01*
X7416800Y-6553200D02*
X7315200Y-6654800D01*
X7416800Y-6604000D02*
G75*
G03X7416800Y-6604000I-50800J0D01*
G01*
X7315200Y-6807200D02*
X7416800Y-6908800D01*
X7416800Y-6807200D02*
X7315200Y-6908800D01*
X7416800Y-6858000D02*
G75*
G03X7416800Y-6858000I-50800J0D01*
G01*
X7315200Y-7061200D02*
X7416800Y-7162800D01*
X7416800Y-7061200D02*
X7315200Y-7162800D01*
X7416800Y-7112000D02*
G75*
G03X7416800Y-7112000I-50800J0D01*
G01*
X7315200Y-7315200D02*
X7416800Y-7416800D01*
X7416800Y-7315200D02*
X7315200Y-7416800D01*
X7416800Y-7366000D02*
G75*
G03X7416800Y-7366000I-50800J0D01*
G01*
X7315200Y-7569200D02*
X7416800Y-7670800D01*
X7416800Y-7569200D02*
X7315200Y-7670800D01*
X7416800Y-7620000D02*
G75*
G03X7416800Y-7620000I-50800J0D01*
G01*
X7315200Y-7823200D02*
X7416800Y-7924800D01*
X7416800Y-7823200D02*
X7315200Y-7924800D01*
X7416800Y-7874000D02*
G75*
G03X7416800Y-7874000I-50800J0D01*
G01*
X7315200Y-8077200D02*
X7416800Y-8178800D01*
X7416800Y-8077200D02*
X7315200Y-8178800D01*
X7416800Y-8128000D02*
G75*
G03X7416800Y-8128000I-50800J0D01*
G01*
X11887200Y-7950200D02*
X11988800Y-8051800D01*
X11988800Y-7950200D02*
X11887200Y-8051800D01*
X11988800Y-8001000D02*
G75*
G03X11988800Y-8001000I-50800J0D01*
G01*
X12141200Y-7950200D02*
X12242800Y-8051800D01*
X12242800Y-7950200D02*
X12141200Y-8051800D01*
X12242800Y-8001000D02*
G75*
G03X12242800Y-8001000I-50800J0D01*
G01*
X12522200Y-3505200D02*
X12623800Y-3606800D01*
X12623800Y-3505200D02*
X12522200Y-3606800D01*
X12623800Y-3556000D02*
G75*
G03X12623800Y-3556000I-50800J0D01*
G01*
X12522200Y-3759200D02*
X12623800Y-3860800D01*
X12623800Y-3759200D02*
X12522200Y-3860800D01*
X12623800Y-3810000D02*
G75*
G03X12623800Y-3810000I-50800J0D01*
G01*
X12522200Y-4013200D02*
X12623800Y-4114800D01*
X12623800Y-4013200D02*
X12522200Y-4114800D01*
X12623800Y-4064000D02*
G75*
G03X12623800Y-4064000I-50800J0D01*
G01*
X12522200Y-4267200D02*
X12623800Y-4368800D01*
X12623800Y-4267200D02*
X12522200Y-4368800D01*
X12623800Y-4318000D02*
G75*
G03X12623800Y-4318000I-50800J0D01*
G01*
X12522200Y-4521200D02*
X12623800Y-4622800D01*
X12623800Y-4521200D02*
X12522200Y-4622800D01*
X12623800Y-4572000D02*
G75*
G03X12623800Y-4572000I-50800J0D01*
G01*
X12522200Y-4775200D02*
X12623800Y-4876800D01*
X12623800Y-4775200D02*
X12522200Y-4876800D01*
X12623800Y-4826000D02*
G75*
G03X12623800Y-4826000I-50800J0D01*
G01*
X12522200Y-5029200D02*
X12623800Y-5130800D01*
X12623800Y-5029200D02*
X12522200Y-5130800D01*
X12623800Y-5080000D02*
G75*
G03X12623800Y-5080000I-50800J0D01*
G01*
X12522200Y-5283200D02*
X12623800Y-5384800D01*
X12623800Y-5283200D02*
X12522200Y-5384800D01*
X12623800Y-5334000D02*
G75*
G03X12623800Y-5334000I-50800J0D01*
G01*
X12522200Y-5537200D02*
X12623800Y-5638800D01*
X12623800Y-5537200D02*
X12522200Y-5638800D01*
X12623800Y-5588000D02*
G75*
G03X12623800Y-5588000I-50800J0D01*
G01*
X12522200Y-5791200D02*
X12623800Y-5892800D01*
X12623800Y-5791200D02*
X12522200Y-5892800D01*
X12623800Y-5842000D02*
G75*
G03X12623800Y-5842000I-50800J0D01*
G01*
X12522200Y-6045200D02*
X12623800Y-6146800D01*
X12623800Y-6045200D02*
X12522200Y-6146800D01*
X12623800Y-6096000D02*
G75*
G03X12623800Y-6096000I-50800J0D01*
G01*
X12522200Y-6299200D02*
X12623800Y-6400800D01*
X12623800Y-6299200D02*
X12522200Y-6400800D01*
X12623800Y-6350000D02*
G75*
G03X12623800Y-6350000I-50800J0D01*
G01*
X12522200Y-6553200D02*
X12623800Y-6654800D01*
X12623800Y-6553200D02*
X12522200Y-6654800D01*
X12623800Y-6604000D02*
G75*
G03X12623800Y-6604000I-50800J0D01*
G01*
X12522200Y-6807200D02*
X12623800Y-6908800D01*
X12623800Y-6807200D02*
X12522200Y-6908800D01*
X12623800Y-6858000D02*
G75*
G03X12623800Y-6858000I-50800J0D01*
G01*
X12522200Y-7061200D02*
X12623800Y-7162800D01*
X12623800Y-7061200D02*
X12522200Y-7162800D01*
X12623800Y-7112000D02*
G75*
G03X12623800Y-7112000I-50800J0D01*
G01*
X12522200Y-7315200D02*
X12623800Y-7416800D01*
X12623800Y-7315200D02*
X12522200Y-7416800D01*
X12623800Y-7366000D02*
G75*
G03X12623800Y-7366000I-50800J0D01*
G01*
X12522200Y-7569200D02*
X12623800Y-7670800D01*
X12623800Y-7569200D02*
X12522200Y-7670800D01*
X12623800Y-7620000D02*
G75*
G03X12623800Y-7620000I-50800J0D01*
G01*
X12522200Y-7823200D02*
X12623800Y-7924800D01*
X12623800Y-7823200D02*
X12522200Y-7924800D01*
X12623800Y-7874000D02*
G75*
G03X12623800Y-7874000I-50800J0D01*
G01*
X12522200Y-8077200D02*
X12623800Y-8178800D01*
X12623800Y-8077200D02*
X12522200Y-8178800D01*
X12623800Y-8128000D02*
G75*
G03X12623800Y-8128000I-50800J0D01*
G01*
D13*
X7375928Y-8855214D02*
X7375928Y-8555214D01*
X7447357Y-8555214D01*
X7490214Y-8569500D01*
X7518786Y-8598072D01*
X7533071Y-8626643D01*
X7547357Y-8683786D01*
X7547357Y-8726643D01*
X7533071Y-8783786D01*
X7518786Y-8812357D01*
X7490214Y-8840929D01*
X7447357Y-8855214D01*
X7375928Y-8855214D01*
X7675928Y-8855214D02*
X7675928Y-8655214D01*
X7675928Y-8712357D02*
X7690214Y-8683786D01*
X7704500Y-8669500D01*
X7733071Y-8655214D01*
X7761643Y-8655214D01*
X7861643Y-8855214D02*
X7861643Y-8655214D01*
X7861643Y-8555214D02*
X7847357Y-8569500D01*
X7861643Y-8583786D01*
X7875928Y-8569500D01*
X7861643Y-8555214D01*
X7861643Y-8583786D01*
X8047357Y-8855214D02*
X8018786Y-8840929D01*
X8004500Y-8812357D01*
X8004500Y-8555214D01*
X8204500Y-8855214D02*
X8175928Y-8840929D01*
X8161643Y-8812357D01*
X8161643Y-8555214D01*
X8547357Y-8855214D02*
X8547357Y-8555214D01*
X8647357Y-8769500D01*
X8747357Y-8555214D01*
X8747357Y-8855214D01*
X9018786Y-8855214D02*
X9018786Y-8698072D01*
X9004500Y-8669500D01*
X8975929Y-8655214D01*
X8918786Y-8655214D01*
X8890214Y-8669500D01*
X9018786Y-8840929D02*
X8990214Y-8855214D01*
X8918786Y-8855214D01*
X8890214Y-8840929D01*
X8875929Y-8812357D01*
X8875929Y-8783786D01*
X8890214Y-8755214D01*
X8918786Y-8740929D01*
X8990214Y-8740929D01*
X9018786Y-8726643D01*
X9161643Y-8655214D02*
X9161643Y-8955214D01*
X9161643Y-8669500D02*
X9190214Y-8655214D01*
X9247357Y-8655214D01*
X9275929Y-8669500D01*
X9290214Y-8683786D01*
X9304500Y-8712357D01*
X9304500Y-8798072D01*
X9290214Y-8826643D01*
X9275929Y-8840929D01*
X9247357Y-8855214D01*
X9190214Y-8855214D01*
X9161643Y-8840929D01*
X9433071Y-8826643D02*
X9447357Y-8840929D01*
X9433071Y-8855214D01*
X9418786Y-8840929D01*
X9433071Y-8826643D01*
X9433071Y-8855214D01*
X9433071Y-8669500D02*
X9447357Y-8683786D01*
X9433071Y-8698072D01*
X9418786Y-8683786D01*
X9433071Y-8669500D01*
X9433071Y-8698072D01*
X7064500Y-9329500D02*
X7104500Y-9369500D01*
X7104500Y-9329500D02*
X7064500Y-9369500D01*
X7433071Y-9185214D02*
X7461643Y-9185214D01*
X7490214Y-9199500D01*
X7504500Y-9213786D01*
X7518786Y-9242357D01*
X7533071Y-9299500D01*
X7533071Y-9370929D01*
X7518786Y-9428072D01*
X7504500Y-9456643D01*
X7490214Y-9470929D01*
X7461643Y-9485214D01*
X7433071Y-9485214D01*
X7404500Y-9470929D01*
X7390214Y-9456643D01*
X7375928Y-9428072D01*
X7361643Y-9370929D01*
X7361643Y-9299500D01*
X7375928Y-9242357D01*
X7390214Y-9213786D01*
X7404500Y-9199500D01*
X7433071Y-9185214D01*
X7661643Y-9456643D02*
X7675928Y-9470929D01*
X7661643Y-9485214D01*
X7647357Y-9470929D01*
X7661643Y-9456643D01*
X7661643Y-9485214D01*
X7933071Y-9285214D02*
X7933071Y-9485214D01*
X7861643Y-9170929D02*
X7790214Y-9385214D01*
X7975928Y-9385214D01*
X8147357Y-9185214D02*
X8175928Y-9185214D01*
X8204500Y-9199500D01*
X8218786Y-9213786D01*
X8233071Y-9242357D01*
X8247357Y-9299500D01*
X8247357Y-9370929D01*
X8233071Y-9428072D01*
X8218786Y-9456643D01*
X8204500Y-9470929D01*
X8175928Y-9485214D01*
X8147357Y-9485214D01*
X8118786Y-9470929D01*
X8104500Y-9456643D01*
X8090214Y-9428072D01*
X8075928Y-9370929D01*
X8075928Y-9299500D01*
X8090214Y-9242357D01*
X8104500Y-9213786D01*
X8118786Y-9199500D01*
X8147357Y-9185214D01*
X8375928Y-9485214D02*
X8375928Y-9285214D01*
X8375928Y-9313786D02*
X8390214Y-9299500D01*
X8418786Y-9285214D01*
X8461643Y-9285214D01*
X8490214Y-9299500D01*
X8504500Y-9328072D01*
X8504500Y-9485214D01*
X8504500Y-9328072D02*
X8518786Y-9299500D01*
X8547357Y-9285214D01*
X8590214Y-9285214D01*
X8618786Y-9299500D01*
X8633071Y-9328072D01*
X8633071Y-9485214D01*
X8775929Y-9485214D02*
X8775929Y-9285214D01*
X8775929Y-9313786D02*
X8790214Y-9299500D01*
X8818786Y-9285214D01*
X8861643Y-9285214D01*
X8890214Y-9299500D01*
X8904500Y-9328072D01*
X8904500Y-9485214D01*
X8904500Y-9328072D02*
X8918786Y-9299500D01*
X8947357Y-9285214D01*
X8990214Y-9285214D01*
X9018786Y-9299500D01*
X9033071Y-9328072D01*
X9033071Y-9485214D01*
X9618786Y-9170929D02*
X9361643Y-9556643D01*
X10004500Y-9185214D02*
X10033071Y-9185214D01*
X10061643Y-9199500D01*
X10075928Y-9213786D01*
X10090214Y-9242357D01*
X10104500Y-9299500D01*
X10104500Y-9370929D01*
X10090214Y-9428072D01*
X10075928Y-9456643D01*
X10061643Y-9470929D01*
X10033071Y-9485214D01*
X10004500Y-9485214D01*
X9975928Y-9470929D01*
X9961643Y-9456643D01*
X9947357Y-9428072D01*
X9933071Y-9370929D01*
X9933071Y-9299500D01*
X9947357Y-9242357D01*
X9961643Y-9213786D01*
X9975928Y-9199500D01*
X10004500Y-9185214D01*
X10233071Y-9456643D02*
X10247357Y-9470929D01*
X10233071Y-9485214D01*
X10218786Y-9470929D01*
X10233071Y-9456643D01*
X10233071Y-9485214D01*
X10433071Y-9185214D02*
X10461643Y-9185214D01*
X10490214Y-9199500D01*
X10504500Y-9213786D01*
X10518786Y-9242357D01*
X10533071Y-9299500D01*
X10533071Y-9370929D01*
X10518786Y-9428072D01*
X10504500Y-9456643D01*
X10490214Y-9470929D01*
X10461643Y-9485214D01*
X10433071Y-9485214D01*
X10404500Y-9470929D01*
X10390214Y-9456643D01*
X10375928Y-9428072D01*
X10361643Y-9370929D01*
X10361643Y-9299500D01*
X10375928Y-9242357D01*
X10390214Y-9213786D01*
X10404500Y-9199500D01*
X10433071Y-9185214D01*
X10818786Y-9485214D02*
X10647357Y-9485214D01*
X10733071Y-9485214D02*
X10733071Y-9185214D01*
X10704500Y-9228072D01*
X10675928Y-9256643D01*
X10647357Y-9270929D01*
X11075928Y-9185214D02*
X11018786Y-9185214D01*
X10990214Y-9199500D01*
X10975928Y-9213786D01*
X10947357Y-9256643D01*
X10933071Y-9313786D01*
X10933071Y-9428072D01*
X10947357Y-9456643D01*
X10961643Y-9470929D01*
X10990214Y-9485214D01*
X11047357Y-9485214D01*
X11075928Y-9470929D01*
X11090214Y-9456643D01*
X11104500Y-9428072D01*
X11104500Y-9356643D01*
X11090214Y-9328072D01*
X11075928Y-9313786D01*
X11047357Y-9299500D01*
X10990214Y-9299500D01*
X10961643Y-9313786D01*
X10947357Y-9328072D01*
X10933071Y-9356643D01*
X11218786Y-9185214D02*
X11218786Y-9242357D01*
X11333071Y-9185214D02*
X11333071Y-9242357D01*
X11775928Y-9599500D02*
X11761643Y-9585214D01*
X11733071Y-9542357D01*
X11718785Y-9513786D01*
X11704500Y-9470929D01*
X11690214Y-9399500D01*
X11690214Y-9342357D01*
X11704500Y-9270929D01*
X11718785Y-9228072D01*
X11733071Y-9199500D01*
X11761643Y-9156643D01*
X11775928Y-9142357D01*
X12047357Y-9485214D02*
X11875928Y-9485214D01*
X11961643Y-9485214D02*
X11961643Y-9185214D01*
X11933071Y-9228072D01*
X11904500Y-9256643D01*
X11875928Y-9270929D01*
X12404500Y-9485214D02*
X12404500Y-9185214D01*
X12533071Y-9485214D02*
X12533071Y-9328072D01*
X12518785Y-9299500D01*
X12490214Y-9285214D01*
X12447357Y-9285214D01*
X12418785Y-9299500D01*
X12404500Y-9313786D01*
X12718785Y-9485214D02*
X12690214Y-9470929D01*
X12675928Y-9456643D01*
X12661643Y-9428072D01*
X12661643Y-9342357D01*
X12675928Y-9313786D01*
X12690214Y-9299500D01*
X12718785Y-9285214D01*
X12761643Y-9285214D01*
X12790214Y-9299500D01*
X12804500Y-9313786D01*
X12818785Y-9342357D01*
X12818785Y-9428072D01*
X12804500Y-9456643D01*
X12790214Y-9470929D01*
X12761643Y-9485214D01*
X12718785Y-9485214D01*
X12990214Y-9485214D02*
X12961643Y-9470929D01*
X12947357Y-9442357D01*
X12947357Y-9185214D01*
X13218786Y-9470929D02*
X13190214Y-9485214D01*
X13133071Y-9485214D01*
X13104500Y-9470929D01*
X13090214Y-9442357D01*
X13090214Y-9328072D01*
X13104500Y-9299500D01*
X13133071Y-9285214D01*
X13190214Y-9285214D01*
X13218786Y-9299500D01*
X13233071Y-9328072D01*
X13233071Y-9356643D01*
X13090214Y-9385214D01*
X13333071Y-9599500D02*
X13347357Y-9585214D01*
X13375928Y-9542357D01*
X13390214Y-9513786D01*
X13404500Y-9470929D01*
X13418786Y-9399500D01*
X13418786Y-9342357D01*
X13404500Y-9270929D01*
X13390214Y-9228072D01*
X13375928Y-9199500D01*
X13347357Y-9156643D01*
X13333071Y-9142357D01*
X7104500Y-9745500D02*
G75*
G03X7104500Y-9745500I-35052J0D01*
G01*
X7433071Y-9581214D02*
X7461643Y-9581214D01*
X7490214Y-9595500D01*
X7504500Y-9609786D01*
X7518786Y-9638357D01*
X7533071Y-9695500D01*
X7533071Y-9766929D01*
X7518786Y-9824072D01*
X7504500Y-9852643D01*
X7490214Y-9866929D01*
X7461643Y-9881214D01*
X7433071Y-9881214D01*
X7404500Y-9866929D01*
X7390214Y-9852643D01*
X7375928Y-9824072D01*
X7361643Y-9766929D01*
X7361643Y-9695500D01*
X7375928Y-9638357D01*
X7390214Y-9609786D01*
X7404500Y-9595500D01*
X7433071Y-9581214D01*
X7661643Y-9852643D02*
X7675928Y-9866929D01*
X7661643Y-9881214D01*
X7647357Y-9866929D01*
X7661643Y-9852643D01*
X7661643Y-9881214D01*
X7775928Y-9581214D02*
X7975928Y-9581214D01*
X7847357Y-9881214D01*
X8147357Y-9581214D02*
X8175928Y-9581214D01*
X8204500Y-9595500D01*
X8218786Y-9609786D01*
X8233071Y-9638357D01*
X8247357Y-9695500D01*
X8247357Y-9766929D01*
X8233071Y-9824072D01*
X8218786Y-9852643D01*
X8204500Y-9866929D01*
X8175928Y-9881214D01*
X8147357Y-9881214D01*
X8118786Y-9866929D01*
X8104500Y-9852643D01*
X8090214Y-9824072D01*
X8075928Y-9766929D01*
X8075928Y-9695500D01*
X8090214Y-9638357D01*
X8104500Y-9609786D01*
X8118786Y-9595500D01*
X8147357Y-9581214D01*
X8375928Y-9881214D02*
X8375928Y-9681214D01*
X8375928Y-9709786D02*
X8390214Y-9695500D01*
X8418786Y-9681214D01*
X8461643Y-9681214D01*
X8490214Y-9695500D01*
X8504500Y-9724072D01*
X8504500Y-9881214D01*
X8504500Y-9724072D02*
X8518786Y-9695500D01*
X8547357Y-9681214D01*
X8590214Y-9681214D01*
X8618786Y-9695500D01*
X8633071Y-9724072D01*
X8633071Y-9881214D01*
X8775929Y-9881214D02*
X8775929Y-9681214D01*
X8775929Y-9709786D02*
X8790214Y-9695500D01*
X8818786Y-9681214D01*
X8861643Y-9681214D01*
X8890214Y-9695500D01*
X8904500Y-9724072D01*
X8904500Y-9881214D01*
X8904500Y-9724072D02*
X8918786Y-9695500D01*
X8947357Y-9681214D01*
X8990214Y-9681214D01*
X9018786Y-9695500D01*
X9033071Y-9724072D01*
X9033071Y-9881214D01*
X9618786Y-9566929D02*
X9361643Y-9952643D01*
X10004500Y-9581214D02*
X10033071Y-9581214D01*
X10061643Y-9595500D01*
X10075928Y-9609786D01*
X10090214Y-9638357D01*
X10104500Y-9695500D01*
X10104500Y-9766929D01*
X10090214Y-9824072D01*
X10075928Y-9852643D01*
X10061643Y-9866929D01*
X10033071Y-9881214D01*
X10004500Y-9881214D01*
X9975928Y-9866929D01*
X9961643Y-9852643D01*
X9947357Y-9824072D01*
X9933071Y-9766929D01*
X9933071Y-9695500D01*
X9947357Y-9638357D01*
X9961643Y-9609786D01*
X9975928Y-9595500D01*
X10004500Y-9581214D01*
X10233071Y-9852643D02*
X10247357Y-9866929D01*
X10233071Y-9881214D01*
X10218786Y-9866929D01*
X10233071Y-9852643D01*
X10233071Y-9881214D01*
X10433071Y-9581214D02*
X10461643Y-9581214D01*
X10490214Y-9595500D01*
X10504500Y-9609786D01*
X10518786Y-9638357D01*
X10533071Y-9695500D01*
X10533071Y-9766929D01*
X10518786Y-9824072D01*
X10504500Y-9852643D01*
X10490214Y-9866929D01*
X10461643Y-9881214D01*
X10433071Y-9881214D01*
X10404500Y-9866929D01*
X10390214Y-9852643D01*
X10375928Y-9824072D01*
X10361643Y-9766929D01*
X10361643Y-9695500D01*
X10375928Y-9638357D01*
X10390214Y-9609786D01*
X10404500Y-9595500D01*
X10433071Y-9581214D01*
X10647357Y-9609786D02*
X10661643Y-9595500D01*
X10690214Y-9581214D01*
X10761643Y-9581214D01*
X10790214Y-9595500D01*
X10804500Y-9609786D01*
X10818786Y-9638357D01*
X10818786Y-9666929D01*
X10804500Y-9709786D01*
X10633071Y-9881214D01*
X10818786Y-9881214D01*
X10990214Y-9709786D02*
X10961643Y-9695500D01*
X10947357Y-9681214D01*
X10933071Y-9652643D01*
X10933071Y-9638357D01*
X10947357Y-9609786D01*
X10961643Y-9595500D01*
X10990214Y-9581214D01*
X11047357Y-9581214D01*
X11075928Y-9595500D01*
X11090214Y-9609786D01*
X11104500Y-9638357D01*
X11104500Y-9652643D01*
X11090214Y-9681214D01*
X11075928Y-9695500D01*
X11047357Y-9709786D01*
X10990214Y-9709786D01*
X10961643Y-9724072D01*
X10947357Y-9738357D01*
X10933071Y-9766929D01*
X10933071Y-9824072D01*
X10947357Y-9852643D01*
X10961643Y-9866929D01*
X10990214Y-9881214D01*
X11047357Y-9881214D01*
X11075928Y-9866929D01*
X11090214Y-9852643D01*
X11104500Y-9824072D01*
X11104500Y-9766929D01*
X11090214Y-9738357D01*
X11075928Y-9724072D01*
X11047357Y-9709786D01*
X11218786Y-9581214D02*
X11218786Y-9638357D01*
X11333071Y-9581214D02*
X11333071Y-9638357D01*
X11775928Y-9995500D02*
X11761643Y-9981214D01*
X11733071Y-9938357D01*
X11718785Y-9909786D01*
X11704500Y-9866929D01*
X11690214Y-9795500D01*
X11690214Y-9738357D01*
X11704500Y-9666929D01*
X11718785Y-9624072D01*
X11733071Y-9595500D01*
X11761643Y-9552643D01*
X11775928Y-9538357D01*
X11875928Y-9609786D02*
X11890214Y-9595500D01*
X11918785Y-9581214D01*
X11990214Y-9581214D01*
X12018785Y-9595500D01*
X12033071Y-9609786D01*
X12047357Y-9638357D01*
X12047357Y-9666929D01*
X12033071Y-9709786D01*
X11861643Y-9881214D01*
X12047357Y-9881214D01*
X12304500Y-9681214D02*
X12304500Y-9881214D01*
X12233071Y-9566929D02*
X12161643Y-9781214D01*
X12347357Y-9781214D01*
X12690214Y-9881214D02*
X12690214Y-9581214D01*
X12818785Y-9881214D02*
X12818785Y-9724072D01*
X12804500Y-9695500D01*
X12775928Y-9681214D01*
X12733071Y-9681214D01*
X12704500Y-9695500D01*
X12690214Y-9709786D01*
X13004500Y-9881214D02*
X12975928Y-9866929D01*
X12961643Y-9852643D01*
X12947357Y-9824072D01*
X12947357Y-9738357D01*
X12961643Y-9709786D01*
X12975928Y-9695500D01*
X13004500Y-9681214D01*
X13047357Y-9681214D01*
X13075928Y-9695500D01*
X13090214Y-9709786D01*
X13104500Y-9738357D01*
X13104500Y-9824072D01*
X13090214Y-9852643D01*
X13075928Y-9866929D01*
X13047357Y-9881214D01*
X13004500Y-9881214D01*
X13275928Y-9881214D02*
X13247357Y-9866929D01*
X13233071Y-9838357D01*
X13233071Y-9581214D01*
X13504500Y-9866929D02*
X13475928Y-9881214D01*
X13418786Y-9881214D01*
X13390214Y-9866929D01*
X13375928Y-9838357D01*
X13375928Y-9724072D01*
X13390214Y-9695500D01*
X13418786Y-9681214D01*
X13475928Y-9681214D01*
X13504500Y-9695500D01*
X13518786Y-9724072D01*
X13518786Y-9752643D01*
X13375928Y-9781214D01*
X13633071Y-9866929D02*
X13661643Y-9881214D01*
X13718786Y-9881214D01*
X13747357Y-9866929D01*
X13761643Y-9838357D01*
X13761643Y-9824072D01*
X13747357Y-9795500D01*
X13718786Y-9781214D01*
X13675928Y-9781214D01*
X13647357Y-9766929D01*
X13633071Y-9738357D01*
X13633071Y-9724072D01*
X13647357Y-9695500D01*
X13675928Y-9681214D01*
X13718786Y-9681214D01*
X13747357Y-9695500D01*
X13861643Y-9995500D02*
X13875928Y-9981214D01*
X13904500Y-9938357D01*
X13918786Y-9909786D01*
X13933071Y-9866929D01*
X13947357Y-9795500D01*
X13947357Y-9738357D01*
X13933071Y-9666929D01*
X13918786Y-9624072D01*
X13904500Y-9595500D01*
X13875928Y-9552643D01*
X13861643Y-9538357D01*
X7064500Y-10101500D02*
X7064500Y-10181500D01*
X7024500Y-10141500D02*
X7104500Y-10141500D01*
X7433071Y-9977214D02*
X7461643Y-9977214D01*
X7490214Y-9991500D01*
X7504500Y-10005786D01*
X7518786Y-10034357D01*
X7533071Y-10091500D01*
X7533071Y-10162929D01*
X7518786Y-10220072D01*
X7504500Y-10248643D01*
X7490214Y-10262929D01*
X7461643Y-10277214D01*
X7433071Y-10277214D01*
X7404500Y-10262929D01*
X7390214Y-10248643D01*
X7375928Y-10220072D01*
X7361643Y-10162929D01*
X7361643Y-10091500D01*
X7375928Y-10034357D01*
X7390214Y-10005786D01*
X7404500Y-9991500D01*
X7433071Y-9977214D01*
X7661643Y-10248643D02*
X7675928Y-10262929D01*
X7661643Y-10277214D01*
X7647357Y-10262929D01*
X7661643Y-10248643D01*
X7661643Y-10277214D01*
X7847357Y-10105786D02*
X7818786Y-10091500D01*
X7804500Y-10077214D01*
X7790214Y-10048643D01*
X7790214Y-10034357D01*
X7804500Y-10005786D01*
X7818786Y-9991500D01*
X7847357Y-9977214D01*
X7904500Y-9977214D01*
X7933071Y-9991500D01*
X7947357Y-10005786D01*
X7961643Y-10034357D01*
X7961643Y-10048643D01*
X7947357Y-10077214D01*
X7933071Y-10091500D01*
X7904500Y-10105786D01*
X7847357Y-10105786D01*
X7818786Y-10120072D01*
X7804500Y-10134357D01*
X7790214Y-10162929D01*
X7790214Y-10220072D01*
X7804500Y-10248643D01*
X7818786Y-10262929D01*
X7847357Y-10277214D01*
X7904500Y-10277214D01*
X7933071Y-10262929D01*
X7947357Y-10248643D01*
X7961643Y-10220072D01*
X7961643Y-10162929D01*
X7947357Y-10134357D01*
X7933071Y-10120072D01*
X7904500Y-10105786D01*
X8147357Y-9977214D02*
X8175928Y-9977214D01*
X8204500Y-9991500D01*
X8218786Y-10005786D01*
X8233071Y-10034357D01*
X8247357Y-10091500D01*
X8247357Y-10162929D01*
X8233071Y-10220072D01*
X8218786Y-10248643D01*
X8204500Y-10262929D01*
X8175928Y-10277214D01*
X8147357Y-10277214D01*
X8118786Y-10262929D01*
X8104500Y-10248643D01*
X8090214Y-10220072D01*
X8075928Y-10162929D01*
X8075928Y-10091500D01*
X8090214Y-10034357D01*
X8104500Y-10005786D01*
X8118786Y-9991500D01*
X8147357Y-9977214D01*
X8375928Y-10277214D02*
X8375928Y-10077214D01*
X8375928Y-10105786D02*
X8390214Y-10091500D01*
X8418786Y-10077214D01*
X8461643Y-10077214D01*
X8490214Y-10091500D01*
X8504500Y-10120072D01*
X8504500Y-10277214D01*
X8504500Y-10120072D02*
X8518786Y-10091500D01*
X8547357Y-10077214D01*
X8590214Y-10077214D01*
X8618786Y-10091500D01*
X8633071Y-10120072D01*
X8633071Y-10277214D01*
X8775929Y-10277214D02*
X8775929Y-10077214D01*
X8775929Y-10105786D02*
X8790214Y-10091500D01*
X8818786Y-10077214D01*
X8861643Y-10077214D01*
X8890214Y-10091500D01*
X8904500Y-10120072D01*
X8904500Y-10277214D01*
X8904500Y-10120072D02*
X8918786Y-10091500D01*
X8947357Y-10077214D01*
X8990214Y-10077214D01*
X9018786Y-10091500D01*
X9033071Y-10120072D01*
X9033071Y-10277214D01*
X9618786Y-9962929D02*
X9361643Y-10348643D01*
X10004500Y-9977214D02*
X10033071Y-9977214D01*
X10061643Y-9991500D01*
X10075928Y-10005786D01*
X10090214Y-10034357D01*
X10104500Y-10091500D01*
X10104500Y-10162929D01*
X10090214Y-10220072D01*
X10075928Y-10248643D01*
X10061643Y-10262929D01*
X10033071Y-10277214D01*
X10004500Y-10277214D01*
X9975928Y-10262929D01*
X9961643Y-10248643D01*
X9947357Y-10220072D01*
X9933071Y-10162929D01*
X9933071Y-10091500D01*
X9947357Y-10034357D01*
X9961643Y-10005786D01*
X9975928Y-9991500D01*
X10004500Y-9977214D01*
X10233071Y-10248643D02*
X10247357Y-10262929D01*
X10233071Y-10277214D01*
X10218786Y-10262929D01*
X10233071Y-10248643D01*
X10233071Y-10277214D01*
X10433071Y-9977214D02*
X10461643Y-9977214D01*
X10490214Y-9991500D01*
X10504500Y-10005786D01*
X10518786Y-10034357D01*
X10533071Y-10091500D01*
X10533071Y-10162929D01*
X10518786Y-10220072D01*
X10504500Y-10248643D01*
X10490214Y-10262929D01*
X10461643Y-10277214D01*
X10433071Y-10277214D01*
X10404500Y-10262929D01*
X10390214Y-10248643D01*
X10375928Y-10220072D01*
X10361643Y-10162929D01*
X10361643Y-10091500D01*
X10375928Y-10034357D01*
X10390214Y-10005786D01*
X10404500Y-9991500D01*
X10433071Y-9977214D01*
X10633071Y-9977214D02*
X10818786Y-9977214D01*
X10718786Y-10091500D01*
X10761643Y-10091500D01*
X10790214Y-10105786D01*
X10804500Y-10120072D01*
X10818786Y-10148643D01*
X10818786Y-10220072D01*
X10804500Y-10248643D01*
X10790214Y-10262929D01*
X10761643Y-10277214D01*
X10675928Y-10277214D01*
X10647357Y-10262929D01*
X10633071Y-10248643D01*
X11104500Y-10277214D02*
X10933071Y-10277214D01*
X11018786Y-10277214D02*
X11018786Y-9977214D01*
X10990214Y-10020072D01*
X10961643Y-10048643D01*
X10933071Y-10062929D01*
X11218786Y-9977214D02*
X11218786Y-10034357D01*
X11333071Y-9977214D02*
X11333071Y-10034357D01*
X11775928Y-10391500D02*
X11761643Y-10377214D01*
X11733071Y-10334357D01*
X11718785Y-10305786D01*
X11704500Y-10262929D01*
X11690214Y-10191500D01*
X11690214Y-10134357D01*
X11704500Y-10062929D01*
X11718785Y-10020072D01*
X11733071Y-9991500D01*
X11761643Y-9948643D01*
X11775928Y-9934357D01*
X12018785Y-10077214D02*
X12018785Y-10277214D01*
X11947357Y-9962929D02*
X11875928Y-10177214D01*
X12061643Y-10177214D01*
X12333071Y-10277214D02*
X12161643Y-10277214D01*
X12247357Y-10277214D02*
X12247357Y-9977214D01*
X12218785Y-10020072D01*
X12190214Y-10048643D01*
X12161643Y-10062929D01*
X12690214Y-10277214D02*
X12690214Y-9977214D01*
X12818785Y-10277214D02*
X12818785Y-10120072D01*
X12804500Y-10091500D01*
X12775928Y-10077214D01*
X12733071Y-10077214D01*
X12704500Y-10091500D01*
X12690214Y-10105786D01*
X13004500Y-10277214D02*
X12975928Y-10262929D01*
X12961643Y-10248643D01*
X12947357Y-10220072D01*
X12947357Y-10134357D01*
X12961643Y-10105786D01*
X12975928Y-10091500D01*
X13004500Y-10077214D01*
X13047357Y-10077214D01*
X13075928Y-10091500D01*
X13090214Y-10105786D01*
X13104500Y-10134357D01*
X13104500Y-10220072D01*
X13090214Y-10248643D01*
X13075928Y-10262929D01*
X13047357Y-10277214D01*
X13004500Y-10277214D01*
X13275928Y-10277214D02*
X13247357Y-10262929D01*
X13233071Y-10234357D01*
X13233071Y-9977214D01*
X13504500Y-10262929D02*
X13475928Y-10277214D01*
X13418786Y-10277214D01*
X13390214Y-10262929D01*
X13375928Y-10234357D01*
X13375928Y-10120072D01*
X13390214Y-10091500D01*
X13418786Y-10077214D01*
X13475928Y-10077214D01*
X13504500Y-10091500D01*
X13518786Y-10120072D01*
X13518786Y-10148643D01*
X13375928Y-10177214D01*
X13633071Y-10262929D02*
X13661643Y-10277214D01*
X13718786Y-10277214D01*
X13747357Y-10262929D01*
X13761643Y-10234357D01*
X13761643Y-10220072D01*
X13747357Y-10191500D01*
X13718786Y-10177214D01*
X13675928Y-10177214D01*
X13647357Y-10162929D01*
X13633071Y-10134357D01*
X13633071Y-10120072D01*
X13647357Y-10091500D01*
X13675928Y-10077214D01*
X13718786Y-10077214D01*
X13747357Y-10091500D01*
X13861643Y-10391500D02*
X13875928Y-10377214D01*
X13904500Y-10334357D01*
X13918786Y-10305786D01*
X13933071Y-10262929D01*
X13947357Y-10191500D01*
X13947357Y-10134357D01*
X13933071Y-10062929D01*
X13918786Y-10020072D01*
X13904500Y-9991500D01*
X13875928Y-9948643D01*
X13861643Y-9934357D01*
X7091320Y-10569320D02*
X7091320Y-10505680D01*
X7027680Y-10505680D01*
X7027680Y-10569320D01*
X7091320Y-10569320D01*
X7433071Y-10373214D02*
X7461643Y-10373214D01*
X7490214Y-10387500D01*
X7504500Y-10401786D01*
X7518786Y-10430357D01*
X7533071Y-10487500D01*
X7533071Y-10558929D01*
X7518786Y-10616072D01*
X7504500Y-10644643D01*
X7490214Y-10658929D01*
X7461643Y-10673214D01*
X7433071Y-10673214D01*
X7404500Y-10658929D01*
X7390214Y-10644643D01*
X7375928Y-10616072D01*
X7361643Y-10558929D01*
X7361643Y-10487500D01*
X7375928Y-10430357D01*
X7390214Y-10401786D01*
X7404500Y-10387500D01*
X7433071Y-10373214D01*
X7661643Y-10644643D02*
X7675928Y-10658929D01*
X7661643Y-10673214D01*
X7647357Y-10658929D01*
X7661643Y-10644643D01*
X7661643Y-10673214D01*
X7818786Y-10673214D02*
X7875928Y-10673214D01*
X7904500Y-10658929D01*
X7918786Y-10644643D01*
X7947357Y-10601786D01*
X7961643Y-10544643D01*
X7961643Y-10430357D01*
X7947357Y-10401786D01*
X7933071Y-10387500D01*
X7904500Y-10373214D01*
X7847357Y-10373214D01*
X7818786Y-10387500D01*
X7804500Y-10401786D01*
X7790214Y-10430357D01*
X7790214Y-10501786D01*
X7804500Y-10530357D01*
X7818786Y-10544643D01*
X7847357Y-10558929D01*
X7904500Y-10558929D01*
X7933071Y-10544643D01*
X7947357Y-10530357D01*
X7961643Y-10501786D01*
X8147357Y-10373214D02*
X8175928Y-10373214D01*
X8204500Y-10387500D01*
X8218786Y-10401786D01*
X8233071Y-10430357D01*
X8247357Y-10487500D01*
X8247357Y-10558929D01*
X8233071Y-10616072D01*
X8218786Y-10644643D01*
X8204500Y-10658929D01*
X8175928Y-10673214D01*
X8147357Y-10673214D01*
X8118786Y-10658929D01*
X8104500Y-10644643D01*
X8090214Y-10616072D01*
X8075928Y-10558929D01*
X8075928Y-10487500D01*
X8090214Y-10430357D01*
X8104500Y-10401786D01*
X8118786Y-10387500D01*
X8147357Y-10373214D01*
X8375928Y-10673214D02*
X8375928Y-10473214D01*
X8375928Y-10501786D02*
X8390214Y-10487500D01*
X8418786Y-10473214D01*
X8461643Y-10473214D01*
X8490214Y-10487500D01*
X8504500Y-10516072D01*
X8504500Y-10673214D01*
X8504500Y-10516072D02*
X8518786Y-10487500D01*
X8547357Y-10473214D01*
X8590214Y-10473214D01*
X8618786Y-10487500D01*
X8633071Y-10516072D01*
X8633071Y-10673214D01*
X8775929Y-10673214D02*
X8775929Y-10473214D01*
X8775929Y-10501786D02*
X8790214Y-10487500D01*
X8818786Y-10473214D01*
X8861643Y-10473214D01*
X8890214Y-10487500D01*
X8904500Y-10516072D01*
X8904500Y-10673214D01*
X8904500Y-10516072D02*
X8918786Y-10487500D01*
X8947357Y-10473214D01*
X8990214Y-10473214D01*
X9018786Y-10487500D01*
X9033071Y-10516072D01*
X9033071Y-10673214D01*
X9618786Y-10358929D02*
X9361643Y-10744643D01*
X10004500Y-10373214D02*
X10033071Y-10373214D01*
X10061643Y-10387500D01*
X10075928Y-10401786D01*
X10090214Y-10430357D01*
X10104500Y-10487500D01*
X10104500Y-10558929D01*
X10090214Y-10616072D01*
X10075928Y-10644643D01*
X10061643Y-10658929D01*
X10033071Y-10673214D01*
X10004500Y-10673214D01*
X9975928Y-10658929D01*
X9961643Y-10644643D01*
X9947357Y-10616072D01*
X9933071Y-10558929D01*
X9933071Y-10487500D01*
X9947357Y-10430357D01*
X9961643Y-10401786D01*
X9975928Y-10387500D01*
X10004500Y-10373214D01*
X10233071Y-10644643D02*
X10247357Y-10658929D01*
X10233071Y-10673214D01*
X10218786Y-10658929D01*
X10233071Y-10644643D01*
X10233071Y-10673214D01*
X10433071Y-10373214D02*
X10461643Y-10373214D01*
X10490214Y-10387500D01*
X10504500Y-10401786D01*
X10518786Y-10430357D01*
X10533071Y-10487500D01*
X10533071Y-10558929D01*
X10518786Y-10616072D01*
X10504500Y-10644643D01*
X10490214Y-10658929D01*
X10461643Y-10673214D01*
X10433071Y-10673214D01*
X10404500Y-10658929D01*
X10390214Y-10644643D01*
X10375928Y-10616072D01*
X10361643Y-10558929D01*
X10361643Y-10487500D01*
X10375928Y-10430357D01*
X10390214Y-10401786D01*
X10404500Y-10387500D01*
X10433071Y-10373214D01*
X10633071Y-10373214D02*
X10818786Y-10373214D01*
X10718786Y-10487500D01*
X10761643Y-10487500D01*
X10790214Y-10501786D01*
X10804500Y-10516072D01*
X10818786Y-10544643D01*
X10818786Y-10616072D01*
X10804500Y-10644643D01*
X10790214Y-10658929D01*
X10761643Y-10673214D01*
X10675928Y-10673214D01*
X10647357Y-10658929D01*
X10633071Y-10644643D01*
X11090214Y-10373214D02*
X10947357Y-10373214D01*
X10933071Y-10516072D01*
X10947357Y-10501786D01*
X10975928Y-10487500D01*
X11047357Y-10487500D01*
X11075928Y-10501786D01*
X11090214Y-10516072D01*
X11104500Y-10544643D01*
X11104500Y-10616072D01*
X11090214Y-10644643D01*
X11075928Y-10658929D01*
X11047357Y-10673214D01*
X10975928Y-10673214D01*
X10947357Y-10658929D01*
X10933071Y-10644643D01*
X11218786Y-10373214D02*
X11218786Y-10430357D01*
X11333071Y-10373214D02*
X11333071Y-10430357D01*
X11775928Y-10787500D02*
X11761643Y-10773214D01*
X11733071Y-10730357D01*
X11718785Y-10701786D01*
X11704500Y-10658929D01*
X11690214Y-10587500D01*
X11690214Y-10530357D01*
X11704500Y-10458929D01*
X11718785Y-10416072D01*
X11733071Y-10387500D01*
X11761643Y-10344643D01*
X11775928Y-10330357D01*
X12018785Y-10473214D02*
X12018785Y-10673214D01*
X11947357Y-10358929D02*
X11875928Y-10573214D01*
X12061643Y-10573214D01*
X12404500Y-10673214D02*
X12404500Y-10373214D01*
X12533071Y-10673214D02*
X12533071Y-10516072D01*
X12518785Y-10487500D01*
X12490214Y-10473214D01*
X12447357Y-10473214D01*
X12418785Y-10487500D01*
X12404500Y-10501786D01*
X12718785Y-10673214D02*
X12690214Y-10658929D01*
X12675928Y-10644643D01*
X12661643Y-10616072D01*
X12661643Y-10530357D01*
X12675928Y-10501786D01*
X12690214Y-10487500D01*
X12718785Y-10473214D01*
X12761643Y-10473214D01*
X12790214Y-10487500D01*
X12804500Y-10501786D01*
X12818785Y-10530357D01*
X12818785Y-10616072D01*
X12804500Y-10644643D01*
X12790214Y-10658929D01*
X12761643Y-10673214D01*
X12718785Y-10673214D01*
X12990214Y-10673214D02*
X12961643Y-10658929D01*
X12947357Y-10630357D01*
X12947357Y-10373214D01*
X13218786Y-10658929D02*
X13190214Y-10673214D01*
X13133071Y-10673214D01*
X13104500Y-10658929D01*
X13090214Y-10630357D01*
X13090214Y-10516072D01*
X13104500Y-10487500D01*
X13133071Y-10473214D01*
X13190214Y-10473214D01*
X13218786Y-10487500D01*
X13233071Y-10516072D01*
X13233071Y-10544643D01*
X13090214Y-10573214D01*
X13347357Y-10658929D02*
X13375928Y-10673214D01*
X13433071Y-10673214D01*
X13461643Y-10658929D01*
X13475928Y-10630357D01*
X13475928Y-10616072D01*
X13461643Y-10587500D01*
X13433071Y-10573214D01*
X13390214Y-10573214D01*
X13361643Y-10558929D01*
X13347357Y-10530357D01*
X13347357Y-10516072D01*
X13361643Y-10487500D01*
X13390214Y-10473214D01*
X13433071Y-10473214D01*
X13461643Y-10487500D01*
X13575928Y-10787500D02*
X13590214Y-10773214D01*
X13618786Y-10730357D01*
X13633071Y-10701786D01*
X13647357Y-10658929D01*
X13661643Y-10587500D01*
X13661643Y-10530357D01*
X13647357Y-10458929D01*
X13633071Y-10416072D01*
X13618786Y-10387500D01*
X13590214Y-10344643D01*
X13575928Y-10330357D01*
X7054462Y-10983538D02*
X7104500Y-10933500D01*
X7054462Y-10883462D01*
X7004424Y-10933500D01*
X7054462Y-10983538D01*
X7533071Y-11069214D02*
X7361643Y-11069214D01*
X7447357Y-11069214D02*
X7447357Y-10769214D01*
X7418786Y-10812072D01*
X7390214Y-10840643D01*
X7361643Y-10854929D01*
X7661643Y-11040643D02*
X7675928Y-11054929D01*
X7661643Y-11069214D01*
X7647357Y-11054929D01*
X7661643Y-11040643D01*
X7661643Y-11069214D01*
X7861643Y-10769214D02*
X7890214Y-10769214D01*
X7918786Y-10783500D01*
X7933071Y-10797786D01*
X7947357Y-10826357D01*
X7961643Y-10883500D01*
X7961643Y-10954929D01*
X7947357Y-11012072D01*
X7933071Y-11040643D01*
X7918786Y-11054929D01*
X7890214Y-11069214D01*
X7861643Y-11069214D01*
X7833071Y-11054929D01*
X7818786Y-11040643D01*
X7804500Y-11012072D01*
X7790214Y-10954929D01*
X7790214Y-10883500D01*
X7804500Y-10826357D01*
X7818786Y-10797786D01*
X7833071Y-10783500D01*
X7861643Y-10769214D01*
X8147357Y-10769214D02*
X8175928Y-10769214D01*
X8204500Y-10783500D01*
X8218786Y-10797786D01*
X8233071Y-10826357D01*
X8247357Y-10883500D01*
X8247357Y-10954929D01*
X8233071Y-11012072D01*
X8218786Y-11040643D01*
X8204500Y-11054929D01*
X8175928Y-11069214D01*
X8147357Y-11069214D01*
X8118786Y-11054929D01*
X8104500Y-11040643D01*
X8090214Y-11012072D01*
X8075928Y-10954929D01*
X8075928Y-10883500D01*
X8090214Y-10826357D01*
X8104500Y-10797786D01*
X8118786Y-10783500D01*
X8147357Y-10769214D01*
X8375928Y-11069214D02*
X8375928Y-10869214D01*
X8375928Y-10897786D02*
X8390214Y-10883500D01*
X8418786Y-10869214D01*
X8461643Y-10869214D01*
X8490214Y-10883500D01*
X8504500Y-10912072D01*
X8504500Y-11069214D01*
X8504500Y-10912072D02*
X8518786Y-10883500D01*
X8547357Y-10869214D01*
X8590214Y-10869214D01*
X8618786Y-10883500D01*
X8633071Y-10912072D01*
X8633071Y-11069214D01*
X8775929Y-11069214D02*
X8775929Y-10869214D01*
X8775929Y-10897786D02*
X8790214Y-10883500D01*
X8818786Y-10869214D01*
X8861643Y-10869214D01*
X8890214Y-10883500D01*
X8904500Y-10912072D01*
X8904500Y-11069214D01*
X8904500Y-10912072D02*
X8918786Y-10883500D01*
X8947357Y-10869214D01*
X8990214Y-10869214D01*
X9018786Y-10883500D01*
X9033071Y-10912072D01*
X9033071Y-11069214D01*
X9618786Y-10754929D02*
X9361643Y-11140643D01*
X10004500Y-10769214D02*
X10033071Y-10769214D01*
X10061643Y-10783500D01*
X10075928Y-10797786D01*
X10090214Y-10826357D01*
X10104500Y-10883500D01*
X10104500Y-10954929D01*
X10090214Y-11012072D01*
X10075928Y-11040643D01*
X10061643Y-11054929D01*
X10033071Y-11069214D01*
X10004500Y-11069214D01*
X9975928Y-11054929D01*
X9961643Y-11040643D01*
X9947357Y-11012072D01*
X9933071Y-10954929D01*
X9933071Y-10883500D01*
X9947357Y-10826357D01*
X9961643Y-10797786D01*
X9975928Y-10783500D01*
X10004500Y-10769214D01*
X10233071Y-11040643D02*
X10247357Y-11054929D01*
X10233071Y-11069214D01*
X10218786Y-11054929D01*
X10233071Y-11040643D01*
X10233071Y-11069214D01*
X10433071Y-10769214D02*
X10461643Y-10769214D01*
X10490214Y-10783500D01*
X10504500Y-10797786D01*
X10518786Y-10826357D01*
X10533071Y-10883500D01*
X10533071Y-10954929D01*
X10518786Y-11012072D01*
X10504500Y-11040643D01*
X10490214Y-11054929D01*
X10461643Y-11069214D01*
X10433071Y-11069214D01*
X10404500Y-11054929D01*
X10390214Y-11040643D01*
X10375928Y-11012072D01*
X10361643Y-10954929D01*
X10361643Y-10883500D01*
X10375928Y-10826357D01*
X10390214Y-10797786D01*
X10404500Y-10783500D01*
X10433071Y-10769214D01*
X10633071Y-10769214D02*
X10818786Y-10769214D01*
X10718786Y-10883500D01*
X10761643Y-10883500D01*
X10790214Y-10897786D01*
X10804500Y-10912072D01*
X10818786Y-10940643D01*
X10818786Y-11012072D01*
X10804500Y-11040643D01*
X10790214Y-11054929D01*
X10761643Y-11069214D01*
X10675928Y-11069214D01*
X10647357Y-11054929D01*
X10633071Y-11040643D01*
X10961643Y-11069214D02*
X11018786Y-11069214D01*
X11047357Y-11054929D01*
X11061643Y-11040643D01*
X11090214Y-10997786D01*
X11104500Y-10940643D01*
X11104500Y-10826357D01*
X11090214Y-10797786D01*
X11075928Y-10783500D01*
X11047357Y-10769214D01*
X10990214Y-10769214D01*
X10961643Y-10783500D01*
X10947357Y-10797786D01*
X10933071Y-10826357D01*
X10933071Y-10897786D01*
X10947357Y-10926357D01*
X10961643Y-10940643D01*
X10990214Y-10954929D01*
X11047357Y-10954929D01*
X11075928Y-10940643D01*
X11090214Y-10926357D01*
X11104500Y-10897786D01*
X11218786Y-10769214D02*
X11218786Y-10826357D01*
X11333071Y-10769214D02*
X11333071Y-10826357D01*
X11775928Y-11183500D02*
X11761643Y-11169214D01*
X11733071Y-11126357D01*
X11718785Y-11097786D01*
X11704500Y-11054929D01*
X11690214Y-10983500D01*
X11690214Y-10926357D01*
X11704500Y-10854929D01*
X11718785Y-10812072D01*
X11733071Y-10783500D01*
X11761643Y-10740643D01*
X11775928Y-10726357D01*
X11933071Y-10897786D02*
X11904500Y-10883500D01*
X11890214Y-10869214D01*
X11875928Y-10840643D01*
X11875928Y-10826357D01*
X11890214Y-10797786D01*
X11904500Y-10783500D01*
X11933071Y-10769214D01*
X11990214Y-10769214D01*
X12018785Y-10783500D01*
X12033071Y-10797786D01*
X12047357Y-10826357D01*
X12047357Y-10840643D01*
X12033071Y-10869214D01*
X12018785Y-10883500D01*
X11990214Y-10897786D01*
X11933071Y-10897786D01*
X11904500Y-10912072D01*
X11890214Y-10926357D01*
X11875928Y-10954929D01*
X11875928Y-11012072D01*
X11890214Y-11040643D01*
X11904500Y-11054929D01*
X11933071Y-11069214D01*
X11990214Y-11069214D01*
X12018785Y-11054929D01*
X12033071Y-11040643D01*
X12047357Y-11012072D01*
X12047357Y-10954929D01*
X12033071Y-10926357D01*
X12018785Y-10912072D01*
X11990214Y-10897786D01*
X12404500Y-11069214D02*
X12404500Y-10769214D01*
X12533071Y-11069214D02*
X12533071Y-10912072D01*
X12518785Y-10883500D01*
X12490214Y-10869214D01*
X12447357Y-10869214D01*
X12418785Y-10883500D01*
X12404500Y-10897786D01*
X12718785Y-11069214D02*
X12690214Y-11054929D01*
X12675928Y-11040643D01*
X12661643Y-11012072D01*
X12661643Y-10926357D01*
X12675928Y-10897786D01*
X12690214Y-10883500D01*
X12718785Y-10869214D01*
X12761643Y-10869214D01*
X12790214Y-10883500D01*
X12804500Y-10897786D01*
X12818785Y-10926357D01*
X12818785Y-11012072D01*
X12804500Y-11040643D01*
X12790214Y-11054929D01*
X12761643Y-11069214D01*
X12718785Y-11069214D01*
X12990214Y-11069214D02*
X12961643Y-11054929D01*
X12947357Y-11026357D01*
X12947357Y-10769214D01*
X13218786Y-11054929D02*
X13190214Y-11069214D01*
X13133071Y-11069214D01*
X13104500Y-11054929D01*
X13090214Y-11026357D01*
X13090214Y-10912072D01*
X13104500Y-10883500D01*
X13133071Y-10869214D01*
X13190214Y-10869214D01*
X13218786Y-10883500D01*
X13233071Y-10912072D01*
X13233071Y-10940643D01*
X13090214Y-10969214D01*
X13347357Y-11054929D02*
X13375928Y-11069214D01*
X13433071Y-11069214D01*
X13461643Y-11054929D01*
X13475928Y-11026357D01*
X13475928Y-11012072D01*
X13461643Y-10983500D01*
X13433071Y-10969214D01*
X13390214Y-10969214D01*
X13361643Y-10954929D01*
X13347357Y-10926357D01*
X13347357Y-10912072D01*
X13361643Y-10883500D01*
X13390214Y-10869214D01*
X13433071Y-10869214D01*
X13461643Y-10883500D01*
X13575928Y-11183500D02*
X13590214Y-11169214D01*
X13618786Y-11126357D01*
X13633071Y-11097786D01*
X13647357Y-11054929D01*
X13661643Y-10983500D01*
X13661643Y-10926357D01*
X13647357Y-10854929D01*
X13633071Y-10812072D01*
X13618786Y-10783500D01*
X13590214Y-10740643D01*
X13575928Y-10726357D01*
X7002900Y-11278700D02*
X7104500Y-11380300D01*
X7104500Y-11278700D02*
X7002900Y-11380300D01*
X7104500Y-11329500D02*
G75*
G03X7104500Y-11329500I-50800J0D01*
G01*
X7533071Y-11465214D02*
X7361643Y-11465214D01*
X7447357Y-11465214D02*
X7447357Y-11165214D01*
X7418786Y-11208071D01*
X7390214Y-11236643D01*
X7361643Y-11250929D01*
X7661643Y-11436643D02*
X7675928Y-11450929D01*
X7661643Y-11465214D01*
X7647357Y-11450929D01*
X7661643Y-11436643D01*
X7661643Y-11465214D01*
X7861643Y-11165214D02*
X7890214Y-11165214D01*
X7918786Y-11179500D01*
X7933071Y-11193786D01*
X7947357Y-11222357D01*
X7961643Y-11279500D01*
X7961643Y-11350929D01*
X7947357Y-11408071D01*
X7933071Y-11436643D01*
X7918786Y-11450929D01*
X7890214Y-11465214D01*
X7861643Y-11465214D01*
X7833071Y-11450929D01*
X7818786Y-11436643D01*
X7804500Y-11408071D01*
X7790214Y-11350929D01*
X7790214Y-11279500D01*
X7804500Y-11222357D01*
X7818786Y-11193786D01*
X7833071Y-11179500D01*
X7861643Y-11165214D01*
X8075928Y-11193786D02*
X8090214Y-11179500D01*
X8118786Y-11165214D01*
X8190214Y-11165214D01*
X8218786Y-11179500D01*
X8233071Y-11193786D01*
X8247357Y-11222357D01*
X8247357Y-11250929D01*
X8233071Y-11293786D01*
X8061643Y-11465214D01*
X8247357Y-11465214D01*
X8375928Y-11465214D02*
X8375928Y-11265214D01*
X8375928Y-11293786D02*
X8390214Y-11279500D01*
X8418786Y-11265214D01*
X8461643Y-11265214D01*
X8490214Y-11279500D01*
X8504500Y-11308071D01*
X8504500Y-11465214D01*
X8504500Y-11308071D02*
X8518786Y-11279500D01*
X8547357Y-11265214D01*
X8590214Y-11265214D01*
X8618786Y-11279500D01*
X8633071Y-11308071D01*
X8633071Y-11465214D01*
X8775929Y-11465214D02*
X8775929Y-11265214D01*
X8775929Y-11293786D02*
X8790214Y-11279500D01*
X8818786Y-11265214D01*
X8861643Y-11265214D01*
X8890214Y-11279500D01*
X8904500Y-11308071D01*
X8904500Y-11465214D01*
X8904500Y-11308071D02*
X8918786Y-11279500D01*
X8947357Y-11265214D01*
X8990214Y-11265214D01*
X9018786Y-11279500D01*
X9033071Y-11308071D01*
X9033071Y-11465214D01*
X9618786Y-11150929D02*
X9361643Y-11536643D01*
X10004500Y-11165214D02*
X10033071Y-11165214D01*
X10061643Y-11179500D01*
X10075928Y-11193786D01*
X10090214Y-11222357D01*
X10104500Y-11279500D01*
X10104500Y-11350929D01*
X10090214Y-11408071D01*
X10075928Y-11436643D01*
X10061643Y-11450929D01*
X10033071Y-11465214D01*
X10004500Y-11465214D01*
X9975928Y-11450929D01*
X9961643Y-11436643D01*
X9947357Y-11408071D01*
X9933071Y-11350929D01*
X9933071Y-11279500D01*
X9947357Y-11222357D01*
X9961643Y-11193786D01*
X9975928Y-11179500D01*
X10004500Y-11165214D01*
X10233071Y-11436643D02*
X10247357Y-11450929D01*
X10233071Y-11465214D01*
X10218786Y-11450929D01*
X10233071Y-11436643D01*
X10233071Y-11465214D01*
X10433071Y-11165214D02*
X10461643Y-11165214D01*
X10490214Y-11179500D01*
X10504500Y-11193786D01*
X10518786Y-11222357D01*
X10533071Y-11279500D01*
X10533071Y-11350929D01*
X10518786Y-11408071D01*
X10504500Y-11436643D01*
X10490214Y-11450929D01*
X10461643Y-11465214D01*
X10433071Y-11465214D01*
X10404500Y-11450929D01*
X10390214Y-11436643D01*
X10375928Y-11408071D01*
X10361643Y-11350929D01*
X10361643Y-11279500D01*
X10375928Y-11222357D01*
X10390214Y-11193786D01*
X10404500Y-11179500D01*
X10433071Y-11165214D01*
X10790214Y-11265214D02*
X10790214Y-11465214D01*
X10718786Y-11150929D02*
X10647357Y-11365214D01*
X10833071Y-11365214D01*
X11004500Y-11165214D02*
X11033071Y-11165214D01*
X11061643Y-11179500D01*
X11075928Y-11193786D01*
X11090214Y-11222357D01*
X11104500Y-11279500D01*
X11104500Y-11350929D01*
X11090214Y-11408071D01*
X11075928Y-11436643D01*
X11061643Y-11450929D01*
X11033071Y-11465214D01*
X11004500Y-11465214D01*
X10975928Y-11450929D01*
X10961643Y-11436643D01*
X10947357Y-11408071D01*
X10933071Y-11350929D01*
X10933071Y-11279500D01*
X10947357Y-11222357D01*
X10961643Y-11193786D01*
X10975928Y-11179500D01*
X11004500Y-11165214D01*
X11218786Y-11165214D02*
X11218786Y-11222357D01*
X11333071Y-11165214D02*
X11333071Y-11222357D01*
X11775928Y-11579500D02*
X11761643Y-11565214D01*
X11733071Y-11522357D01*
X11718785Y-11493786D01*
X11704500Y-11450929D01*
X11690214Y-11379500D01*
X11690214Y-11322357D01*
X11704500Y-11250929D01*
X11718785Y-11208071D01*
X11733071Y-11179500D01*
X11761643Y-11136643D01*
X11775928Y-11122357D01*
X12018785Y-11265214D02*
X12018785Y-11465214D01*
X11947357Y-11150929D02*
X11875928Y-11365214D01*
X12061643Y-11365214D01*
X12233071Y-11165214D02*
X12261643Y-11165214D01*
X12290214Y-11179500D01*
X12304500Y-11193786D01*
X12318785Y-11222357D01*
X12333071Y-11279500D01*
X12333071Y-11350929D01*
X12318785Y-11408071D01*
X12304500Y-11436643D01*
X12290214Y-11450929D01*
X12261643Y-11465214D01*
X12233071Y-11465214D01*
X12204500Y-11450929D01*
X12190214Y-11436643D01*
X12175928Y-11408071D01*
X12161643Y-11350929D01*
X12161643Y-11279500D01*
X12175928Y-11222357D01*
X12190214Y-11193786D01*
X12204500Y-11179500D01*
X12233071Y-11165214D01*
X12690214Y-11465214D02*
X12690214Y-11165214D01*
X12818785Y-11465214D02*
X12818785Y-11308071D01*
X12804500Y-11279500D01*
X12775928Y-11265214D01*
X12733071Y-11265214D01*
X12704500Y-11279500D01*
X12690214Y-11293786D01*
X13004500Y-11465214D02*
X12975928Y-11450929D01*
X12961643Y-11436643D01*
X12947357Y-11408071D01*
X12947357Y-11322357D01*
X12961643Y-11293786D01*
X12975928Y-11279500D01*
X13004500Y-11265214D01*
X13047357Y-11265214D01*
X13075928Y-11279500D01*
X13090214Y-11293786D01*
X13104500Y-11322357D01*
X13104500Y-11408071D01*
X13090214Y-11436643D01*
X13075928Y-11450929D01*
X13047357Y-11465214D01*
X13004500Y-11465214D01*
X13275928Y-11465214D02*
X13247357Y-11450929D01*
X13233071Y-11422357D01*
X13233071Y-11165214D01*
X13504500Y-11450929D02*
X13475928Y-11465214D01*
X13418786Y-11465214D01*
X13390214Y-11450929D01*
X13375928Y-11422357D01*
X13375928Y-11308071D01*
X13390214Y-11279500D01*
X13418786Y-11265214D01*
X13475928Y-11265214D01*
X13504500Y-11279500D01*
X13518786Y-11308071D01*
X13518786Y-11336643D01*
X13375928Y-11365214D01*
X13633071Y-11450929D02*
X13661643Y-11465214D01*
X13718786Y-11465214D01*
X13747357Y-11450929D01*
X13761643Y-11422357D01*
X13761643Y-11408071D01*
X13747357Y-11379500D01*
X13718786Y-11365214D01*
X13675928Y-11365214D01*
X13647357Y-11350929D01*
X13633071Y-11322357D01*
X13633071Y-11308071D01*
X13647357Y-11279500D01*
X13675928Y-11265214D01*
X13718786Y-11265214D01*
X13747357Y-11279500D01*
X13861643Y-11579500D02*
X13875928Y-11565214D01*
X13904500Y-11522357D01*
X13918786Y-11493786D01*
X13933071Y-11450929D01*
X13947357Y-11379500D01*
X13947357Y-11322357D01*
X13933071Y-11250929D01*
X13918786Y-11208071D01*
X13904500Y-11179500D01*
X13875928Y-11136643D01*
X13861643Y-11122357D01*
M02*
