G04 #@! TF.FileFunction,Legend,Bot*
%FSLAX46Y46*%
G04 Gerber Fmt 4.6, Leading zero omitted, Abs format (unit mm)*
G04 Created by KiCad (PCBNEW 4.0.3+e1-6302~38~ubuntu16.04.1-stable) date Thu Aug 25 17:13:56 2016*
%MOMM*%
%LPD*%
G01*
G04 APERTURE LIST*
%ADD10C,0.100000*%
%ADD11C,0.300000*%
G04 APERTURE END LIST*
D10*
D11*
X104131428Y-51478571D02*
X104131428Y-49978571D01*
X103774285Y-49978571D01*
X103560000Y-50050000D01*
X103417142Y-50192857D01*
X103345714Y-50335714D01*
X103274285Y-50621429D01*
X103274285Y-50835714D01*
X103345714Y-51121429D01*
X103417142Y-51264286D01*
X103560000Y-51407143D01*
X103774285Y-51478571D01*
X104131428Y-51478571D01*
X102131428Y-50692857D02*
X101917142Y-50764286D01*
X101845714Y-50835714D01*
X101774285Y-50978571D01*
X101774285Y-51192857D01*
X101845714Y-51335714D01*
X101917142Y-51407143D01*
X102060000Y-51478571D01*
X102631428Y-51478571D01*
X102631428Y-49978571D01*
X102131428Y-49978571D01*
X101988571Y-50050000D01*
X101917142Y-50121429D01*
X101845714Y-50264286D01*
X101845714Y-50407143D01*
X101917142Y-50550000D01*
X101988571Y-50621429D01*
X102131428Y-50692857D01*
X102631428Y-50692857D01*
X101488571Y-51621429D02*
X100345714Y-51621429D01*
X99988571Y-51478571D02*
X99988571Y-49978571D01*
X99988571Y-50692857D02*
X99131428Y-50692857D01*
X99131428Y-51478571D02*
X99131428Y-49978571D01*
X98631428Y-49978571D02*
X98131428Y-51478571D01*
X97631428Y-49978571D01*
X97488571Y-51621429D02*
X96345714Y-51621429D01*
X96202857Y-49978571D02*
X95702857Y-51478571D01*
X95202857Y-49978571D01*
X93917143Y-51478571D02*
X94774286Y-51478571D01*
X94345714Y-51478571D02*
X94345714Y-49978571D01*
X94488571Y-50192857D01*
X94631429Y-50335714D01*
X94774286Y-50407143D01*
M02*
