M48
;DRILL file {KiCad 4.0.3+e1-6302~38~ubuntu16.04.1-stable} date Fri Aug 26 17:26:26 2016
;FORMAT={-:-/ absolute / inch / decimal}
FMAT,2
INCH,TZ
T1C0.031
T2C0.040
%
G90
G05
M72
T1
X3.35Y-4.9
X3.4878Y-4.9
T2
X2.4Y-3.5
X2.4Y-3.6
X2.4Y-3.7
X2.4Y-3.8
X2.4Y-3.9
X2.4Y-4.
X2.4Y-4.1
X2.4Y-4.2
X2.4Y-4.3
X2.4Y-4.4
X2.4Y-4.5
X2.4Y-4.6
X2.4Y-4.7
X2.4Y-4.8
X2.4Y-4.9
X2.4Y-5.
X2.4Y-5.1
X2.4Y-5.2
X2.4Y-5.3
X2.55Y-5.3
X2.6Y-3.45
X2.65Y-5.3
X2.7Y-3.45
X2.75Y-5.3
X2.85Y-5.3
X2.95Y-5.3
X3.05Y-5.3
X3.15Y-5.3
X3.25Y-5.3
X3.45Y-3.45
X3.45Y-5.3
X3.55Y-3.45
X3.55Y-5.3
X5.2Y-3.5
X5.2Y-3.6
X5.2Y-3.7
X5.2Y-3.8
X5.2Y-3.9
X5.2Y-4.
X5.2Y-4.1
X5.2Y-4.2
X5.2Y-4.3
X5.2Y-4.4
X5.2Y-4.5
X5.2Y-4.6
X5.2Y-4.7
X5.2Y-4.8
X5.2Y-4.9
X5.2Y-5.
X5.2Y-5.1
X5.2Y-5.2
X5.2Y-5.3
T0
M30
