G04 #@! TF.FileFunction,Legend,Top*
%FSLAX46Y46*%
G04 Gerber Fmt 4.6, Leading zero omitted, Abs format (unit mm)*
G04 Created by KiCad (PCBNEW 4.0.4+e1-6308~48~ubuntu16.04.1-stable) date Fri Nov  4 19:29:41 2016*
%MOMM*%
%LPD*%
G01*
G04 APERTURE LIST*
%ADD10C,0.100000*%
%ADD11C,0.150000*%
G04 APERTURE END LIST*
D10*
D11*
X106680000Y-78740000D02*
X116840000Y-78740000D01*
X116840000Y-78740000D02*
X116840000Y-83820000D01*
X116840000Y-83820000D02*
X106680000Y-83820000D01*
X106680000Y-83820000D02*
X106680000Y-78740000D01*
X117830000Y-81560000D02*
X119380000Y-81560000D01*
X123190000Y-81280000D02*
X120650000Y-81280000D01*
X120650000Y-81280000D02*
X120650000Y-78740000D01*
X119380000Y-78460000D02*
X117830000Y-78460000D01*
X117830000Y-78460000D02*
X117830000Y-81560000D01*
X120650000Y-78740000D02*
X123190000Y-78740000D01*
X123190000Y-78740000D02*
X123190000Y-81280000D01*
X72390000Y-36830000D02*
X72390000Y-82550000D01*
X72390000Y-82550000D02*
X74930000Y-82550000D01*
X74930000Y-82550000D02*
X74930000Y-36830000D01*
X72110000Y-34010000D02*
X72110000Y-35560000D01*
X72390000Y-36830000D02*
X74930000Y-36830000D01*
X75210000Y-35560000D02*
X75210000Y-34010000D01*
X75210000Y-34010000D02*
X72110000Y-34010000D01*
X108005000Y-50841000D02*
X108005000Y-55839000D01*
X108145000Y-50849000D02*
X108145000Y-55831000D01*
X108285000Y-50865000D02*
X108285000Y-53245000D01*
X108285000Y-53435000D02*
X108285000Y-55815000D01*
X108425000Y-50889000D02*
X108425000Y-52850000D01*
X108425000Y-53830000D02*
X108425000Y-55791000D01*
X108565000Y-50922000D02*
X108565000Y-52683000D01*
X108565000Y-53997000D02*
X108565000Y-55758000D01*
X108705000Y-50963000D02*
X108705000Y-52576000D01*
X108705000Y-54104000D02*
X108705000Y-55717000D01*
X108845000Y-51013000D02*
X108845000Y-52505000D01*
X108845000Y-54175000D02*
X108845000Y-55667000D01*
X108985000Y-51074000D02*
X108985000Y-52461000D01*
X108985000Y-54219000D02*
X108985000Y-55606000D01*
X109125000Y-51144000D02*
X109125000Y-52442000D01*
X109125000Y-54238000D02*
X109125000Y-55536000D01*
X109265000Y-51226000D02*
X109265000Y-52444000D01*
X109265000Y-54236000D02*
X109265000Y-55454000D01*
X109405000Y-51321000D02*
X109405000Y-52469000D01*
X109405000Y-54211000D02*
X109405000Y-55359000D01*
X109545000Y-51432000D02*
X109545000Y-52517000D01*
X109545000Y-54163000D02*
X109545000Y-55248000D01*
X109685000Y-51560000D02*
X109685000Y-52595000D01*
X109685000Y-54085000D02*
X109685000Y-55120000D01*
X109825000Y-51709000D02*
X109825000Y-52712000D01*
X109825000Y-53968000D02*
X109825000Y-54971000D01*
X109965000Y-51888000D02*
X109965000Y-52900000D01*
X109965000Y-53780000D02*
X109965000Y-54792000D01*
X110105000Y-52107000D02*
X110105000Y-54573000D01*
X110245000Y-52396000D02*
X110245000Y-54284000D01*
X110385000Y-52868000D02*
X110385000Y-53812000D01*
X110080000Y-53340000D02*
G75*
G03X110080000Y-53340000I-900000J0D01*
G01*
X110467500Y-53340000D02*
G75*
G03X110467500Y-53340000I-2537500J0D01*
G01*
X116895000Y-50841000D02*
X116895000Y-55839000D01*
X117035000Y-50849000D02*
X117035000Y-55831000D01*
X117175000Y-50865000D02*
X117175000Y-53245000D01*
X117175000Y-53435000D02*
X117175000Y-55815000D01*
X117315000Y-50889000D02*
X117315000Y-52850000D01*
X117315000Y-53830000D02*
X117315000Y-55791000D01*
X117455000Y-50922000D02*
X117455000Y-52683000D01*
X117455000Y-53997000D02*
X117455000Y-55758000D01*
X117595000Y-50963000D02*
X117595000Y-52576000D01*
X117595000Y-54104000D02*
X117595000Y-55717000D01*
X117735000Y-51013000D02*
X117735000Y-52505000D01*
X117735000Y-54175000D02*
X117735000Y-55667000D01*
X117875000Y-51074000D02*
X117875000Y-52461000D01*
X117875000Y-54219000D02*
X117875000Y-55606000D01*
X118015000Y-51144000D02*
X118015000Y-52442000D01*
X118015000Y-54238000D02*
X118015000Y-55536000D01*
X118155000Y-51226000D02*
X118155000Y-52444000D01*
X118155000Y-54236000D02*
X118155000Y-55454000D01*
X118295000Y-51321000D02*
X118295000Y-52469000D01*
X118295000Y-54211000D02*
X118295000Y-55359000D01*
X118435000Y-51432000D02*
X118435000Y-52517000D01*
X118435000Y-54163000D02*
X118435000Y-55248000D01*
X118575000Y-51560000D02*
X118575000Y-52595000D01*
X118575000Y-54085000D02*
X118575000Y-55120000D01*
X118715000Y-51709000D02*
X118715000Y-52712000D01*
X118715000Y-53968000D02*
X118715000Y-54971000D01*
X118855000Y-51888000D02*
X118855000Y-52900000D01*
X118855000Y-53780000D02*
X118855000Y-54792000D01*
X118995000Y-52107000D02*
X118995000Y-54573000D01*
X119135000Y-52396000D02*
X119135000Y-54284000D01*
X119275000Y-52868000D02*
X119275000Y-53812000D01*
X118970000Y-53340000D02*
G75*
G03X118970000Y-53340000I-900000J0D01*
G01*
X119357500Y-53340000D02*
G75*
G03X119357500Y-53340000I-2537500J0D01*
G01*
X118055000Y-73619000D02*
X118055000Y-68621000D01*
X117915000Y-73611000D02*
X117915000Y-68629000D01*
X117775000Y-73595000D02*
X117775000Y-71215000D01*
X117775000Y-71025000D02*
X117775000Y-68645000D01*
X117635000Y-73571000D02*
X117635000Y-71610000D01*
X117635000Y-70630000D02*
X117635000Y-68669000D01*
X117495000Y-73538000D02*
X117495000Y-71777000D01*
X117495000Y-70463000D02*
X117495000Y-68702000D01*
X117355000Y-73497000D02*
X117355000Y-71884000D01*
X117355000Y-70356000D02*
X117355000Y-68743000D01*
X117215000Y-73447000D02*
X117215000Y-71955000D01*
X117215000Y-70285000D02*
X117215000Y-68793000D01*
X117075000Y-73386000D02*
X117075000Y-71999000D01*
X117075000Y-70241000D02*
X117075000Y-68854000D01*
X116935000Y-73316000D02*
X116935000Y-72018000D01*
X116935000Y-70222000D02*
X116935000Y-68924000D01*
X116795000Y-73234000D02*
X116795000Y-72016000D01*
X116795000Y-70224000D02*
X116795000Y-69006000D01*
X116655000Y-73139000D02*
X116655000Y-71991000D01*
X116655000Y-70249000D02*
X116655000Y-69101000D01*
X116515000Y-73028000D02*
X116515000Y-71943000D01*
X116515000Y-70297000D02*
X116515000Y-69212000D01*
X116375000Y-72900000D02*
X116375000Y-71865000D01*
X116375000Y-70375000D02*
X116375000Y-69340000D01*
X116235000Y-72751000D02*
X116235000Y-71748000D01*
X116235000Y-70492000D02*
X116235000Y-69489000D01*
X116095000Y-72572000D02*
X116095000Y-71560000D01*
X116095000Y-70680000D02*
X116095000Y-69668000D01*
X115955000Y-72353000D02*
X115955000Y-69887000D01*
X115815000Y-72064000D02*
X115815000Y-70176000D01*
X115675000Y-71592000D02*
X115675000Y-70648000D01*
X117780000Y-71120000D02*
G75*
G03X117780000Y-71120000I-900000J0D01*
G01*
X120667500Y-71120000D02*
G75*
G03X120667500Y-71120000I-2537500J0D01*
G01*
X102815000Y-79969000D02*
X102815000Y-74971000D01*
X102675000Y-79961000D02*
X102675000Y-74979000D01*
X102535000Y-79945000D02*
X102535000Y-77565000D01*
X102535000Y-77375000D02*
X102535000Y-74995000D01*
X102395000Y-79921000D02*
X102395000Y-77960000D01*
X102395000Y-76980000D02*
X102395000Y-75019000D01*
X102255000Y-79888000D02*
X102255000Y-78127000D01*
X102255000Y-76813000D02*
X102255000Y-75052000D01*
X102115000Y-79847000D02*
X102115000Y-78234000D01*
X102115000Y-76706000D02*
X102115000Y-75093000D01*
X101975000Y-79797000D02*
X101975000Y-78305000D01*
X101975000Y-76635000D02*
X101975000Y-75143000D01*
X101835000Y-79736000D02*
X101835000Y-78349000D01*
X101835000Y-76591000D02*
X101835000Y-75204000D01*
X101695000Y-79666000D02*
X101695000Y-78368000D01*
X101695000Y-76572000D02*
X101695000Y-75274000D01*
X101555000Y-79584000D02*
X101555000Y-78366000D01*
X101555000Y-76574000D02*
X101555000Y-75356000D01*
X101415000Y-79489000D02*
X101415000Y-78341000D01*
X101415000Y-76599000D02*
X101415000Y-75451000D01*
X101275000Y-79378000D02*
X101275000Y-78293000D01*
X101275000Y-76647000D02*
X101275000Y-75562000D01*
X101135000Y-79250000D02*
X101135000Y-78215000D01*
X101135000Y-76725000D02*
X101135000Y-75690000D01*
X100995000Y-79101000D02*
X100995000Y-78098000D01*
X100995000Y-76842000D02*
X100995000Y-75839000D01*
X100855000Y-78922000D02*
X100855000Y-77910000D01*
X100855000Y-77030000D02*
X100855000Y-76018000D01*
X100715000Y-78703000D02*
X100715000Y-76237000D01*
X100575000Y-78414000D02*
X100575000Y-76526000D01*
X100435000Y-77942000D02*
X100435000Y-76998000D01*
X102540000Y-77470000D02*
G75*
G03X102540000Y-77470000I-900000J0D01*
G01*
X105427500Y-77470000D02*
G75*
G03X105427500Y-77470000I-2537500J0D01*
G01*
X97735000Y-68539000D02*
X97735000Y-63541000D01*
X97595000Y-68531000D02*
X97595000Y-63549000D01*
X97455000Y-68515000D02*
X97455000Y-66135000D01*
X97455000Y-65945000D02*
X97455000Y-63565000D01*
X97315000Y-68491000D02*
X97315000Y-66530000D01*
X97315000Y-65550000D02*
X97315000Y-63589000D01*
X97175000Y-68458000D02*
X97175000Y-66697000D01*
X97175000Y-65383000D02*
X97175000Y-63622000D01*
X97035000Y-68417000D02*
X97035000Y-66804000D01*
X97035000Y-65276000D02*
X97035000Y-63663000D01*
X96895000Y-68367000D02*
X96895000Y-66875000D01*
X96895000Y-65205000D02*
X96895000Y-63713000D01*
X96755000Y-68306000D02*
X96755000Y-66919000D01*
X96755000Y-65161000D02*
X96755000Y-63774000D01*
X96615000Y-68236000D02*
X96615000Y-66938000D01*
X96615000Y-65142000D02*
X96615000Y-63844000D01*
X96475000Y-68154000D02*
X96475000Y-66936000D01*
X96475000Y-65144000D02*
X96475000Y-63926000D01*
X96335000Y-68059000D02*
X96335000Y-66911000D01*
X96335000Y-65169000D02*
X96335000Y-64021000D01*
X96195000Y-67948000D02*
X96195000Y-66863000D01*
X96195000Y-65217000D02*
X96195000Y-64132000D01*
X96055000Y-67820000D02*
X96055000Y-66785000D01*
X96055000Y-65295000D02*
X96055000Y-64260000D01*
X95915000Y-67671000D02*
X95915000Y-66668000D01*
X95915000Y-65412000D02*
X95915000Y-64409000D01*
X95775000Y-67492000D02*
X95775000Y-66480000D01*
X95775000Y-65600000D02*
X95775000Y-64588000D01*
X95635000Y-67273000D02*
X95635000Y-64807000D01*
X95495000Y-66984000D02*
X95495000Y-65096000D01*
X95355000Y-66512000D02*
X95355000Y-65568000D01*
X97460000Y-66040000D02*
G75*
G03X97460000Y-66040000I-900000J0D01*
G01*
X100347500Y-66040000D02*
G75*
G03X100347500Y-66040000I-2537500J0D01*
G01*
X97845000Y-57191000D02*
X97845000Y-62189000D01*
X97985000Y-57199000D02*
X97985000Y-62181000D01*
X98125000Y-57215000D02*
X98125000Y-59595000D01*
X98125000Y-59785000D02*
X98125000Y-62165000D01*
X98265000Y-57239000D02*
X98265000Y-59200000D01*
X98265000Y-60180000D02*
X98265000Y-62141000D01*
X98405000Y-57272000D02*
X98405000Y-59033000D01*
X98405000Y-60347000D02*
X98405000Y-62108000D01*
X98545000Y-57313000D02*
X98545000Y-58926000D01*
X98545000Y-60454000D02*
X98545000Y-62067000D01*
X98685000Y-57363000D02*
X98685000Y-58855000D01*
X98685000Y-60525000D02*
X98685000Y-62017000D01*
X98825000Y-57424000D02*
X98825000Y-58811000D01*
X98825000Y-60569000D02*
X98825000Y-61956000D01*
X98965000Y-57494000D02*
X98965000Y-58792000D01*
X98965000Y-60588000D02*
X98965000Y-61886000D01*
X99105000Y-57576000D02*
X99105000Y-58794000D01*
X99105000Y-60586000D02*
X99105000Y-61804000D01*
X99245000Y-57671000D02*
X99245000Y-58819000D01*
X99245000Y-60561000D02*
X99245000Y-61709000D01*
X99385000Y-57782000D02*
X99385000Y-58867000D01*
X99385000Y-60513000D02*
X99385000Y-61598000D01*
X99525000Y-57910000D02*
X99525000Y-58945000D01*
X99525000Y-60435000D02*
X99525000Y-61470000D01*
X99665000Y-58059000D02*
X99665000Y-59062000D01*
X99665000Y-60318000D02*
X99665000Y-61321000D01*
X99805000Y-58238000D02*
X99805000Y-59250000D01*
X99805000Y-60130000D02*
X99805000Y-61142000D01*
X99945000Y-58457000D02*
X99945000Y-60923000D01*
X100085000Y-58746000D02*
X100085000Y-60634000D01*
X100225000Y-59218000D02*
X100225000Y-60162000D01*
X99920000Y-59690000D02*
G75*
G03X99920000Y-59690000I-900000J0D01*
G01*
X100307500Y-59690000D02*
G75*
G03X100307500Y-59690000I-2537500J0D01*
G01*
X97735000Y-41869000D02*
X97735000Y-36871000D01*
X97595000Y-41861000D02*
X97595000Y-36879000D01*
X97455000Y-41845000D02*
X97455000Y-39465000D01*
X97455000Y-39275000D02*
X97455000Y-36895000D01*
X97315000Y-41821000D02*
X97315000Y-39860000D01*
X97315000Y-38880000D02*
X97315000Y-36919000D01*
X97175000Y-41788000D02*
X97175000Y-40027000D01*
X97175000Y-38713000D02*
X97175000Y-36952000D01*
X97035000Y-41747000D02*
X97035000Y-40134000D01*
X97035000Y-38606000D02*
X97035000Y-36993000D01*
X96895000Y-41697000D02*
X96895000Y-40205000D01*
X96895000Y-38535000D02*
X96895000Y-37043000D01*
X96755000Y-41636000D02*
X96755000Y-40249000D01*
X96755000Y-38491000D02*
X96755000Y-37104000D01*
X96615000Y-41566000D02*
X96615000Y-40268000D01*
X96615000Y-38472000D02*
X96615000Y-37174000D01*
X96475000Y-41484000D02*
X96475000Y-40266000D01*
X96475000Y-38474000D02*
X96475000Y-37256000D01*
X96335000Y-41389000D02*
X96335000Y-40241000D01*
X96335000Y-38499000D02*
X96335000Y-37351000D01*
X96195000Y-41278000D02*
X96195000Y-40193000D01*
X96195000Y-38547000D02*
X96195000Y-37462000D01*
X96055000Y-41150000D02*
X96055000Y-40115000D01*
X96055000Y-38625000D02*
X96055000Y-37590000D01*
X95915000Y-41001000D02*
X95915000Y-39998000D01*
X95915000Y-38742000D02*
X95915000Y-37739000D01*
X95775000Y-40822000D02*
X95775000Y-39810000D01*
X95775000Y-38930000D02*
X95775000Y-37918000D01*
X95635000Y-40603000D02*
X95635000Y-38137000D01*
X95495000Y-40314000D02*
X95495000Y-38426000D01*
X95355000Y-39842000D02*
X95355000Y-38898000D01*
X97460000Y-39370000D02*
G75*
G03X97460000Y-39370000I-900000J0D01*
G01*
X100347500Y-39370000D02*
G75*
G03X100347500Y-39370000I-2537500J0D01*
G01*
X91385000Y-41869000D02*
X91385000Y-36871000D01*
X91245000Y-41861000D02*
X91245000Y-36879000D01*
X91105000Y-41845000D02*
X91105000Y-39465000D01*
X91105000Y-39275000D02*
X91105000Y-36895000D01*
X90965000Y-41821000D02*
X90965000Y-39860000D01*
X90965000Y-38880000D02*
X90965000Y-36919000D01*
X90825000Y-41788000D02*
X90825000Y-40027000D01*
X90825000Y-38713000D02*
X90825000Y-36952000D01*
X90685000Y-41747000D02*
X90685000Y-40134000D01*
X90685000Y-38606000D02*
X90685000Y-36993000D01*
X90545000Y-41697000D02*
X90545000Y-40205000D01*
X90545000Y-38535000D02*
X90545000Y-37043000D01*
X90405000Y-41636000D02*
X90405000Y-40249000D01*
X90405000Y-38491000D02*
X90405000Y-37104000D01*
X90265000Y-41566000D02*
X90265000Y-40268000D01*
X90265000Y-38472000D02*
X90265000Y-37174000D01*
X90125000Y-41484000D02*
X90125000Y-40266000D01*
X90125000Y-38474000D02*
X90125000Y-37256000D01*
X89985000Y-41389000D02*
X89985000Y-40241000D01*
X89985000Y-38499000D02*
X89985000Y-37351000D01*
X89845000Y-41278000D02*
X89845000Y-40193000D01*
X89845000Y-38547000D02*
X89845000Y-37462000D01*
X89705000Y-41150000D02*
X89705000Y-40115000D01*
X89705000Y-38625000D02*
X89705000Y-37590000D01*
X89565000Y-41001000D02*
X89565000Y-39998000D01*
X89565000Y-38742000D02*
X89565000Y-37739000D01*
X89425000Y-40822000D02*
X89425000Y-39810000D01*
X89425000Y-38930000D02*
X89425000Y-37918000D01*
X89285000Y-40603000D02*
X89285000Y-38137000D01*
X89145000Y-40314000D02*
X89145000Y-38426000D01*
X89005000Y-39842000D02*
X89005000Y-38898000D01*
X91110000Y-39370000D02*
G75*
G03X91110000Y-39370000I-900000J0D01*
G01*
X93997500Y-39370000D02*
G75*
G03X93997500Y-39370000I-2537500J0D01*
G01*
X91495000Y-57191000D02*
X91495000Y-62189000D01*
X91635000Y-57199000D02*
X91635000Y-62181000D01*
X91775000Y-57215000D02*
X91775000Y-59595000D01*
X91775000Y-59785000D02*
X91775000Y-62165000D01*
X91915000Y-57239000D02*
X91915000Y-59200000D01*
X91915000Y-60180000D02*
X91915000Y-62141000D01*
X92055000Y-57272000D02*
X92055000Y-59033000D01*
X92055000Y-60347000D02*
X92055000Y-62108000D01*
X92195000Y-57313000D02*
X92195000Y-58926000D01*
X92195000Y-60454000D02*
X92195000Y-62067000D01*
X92335000Y-57363000D02*
X92335000Y-58855000D01*
X92335000Y-60525000D02*
X92335000Y-62017000D01*
X92475000Y-57424000D02*
X92475000Y-58811000D01*
X92475000Y-60569000D02*
X92475000Y-61956000D01*
X92615000Y-57494000D02*
X92615000Y-58792000D01*
X92615000Y-60588000D02*
X92615000Y-61886000D01*
X92755000Y-57576000D02*
X92755000Y-58794000D01*
X92755000Y-60586000D02*
X92755000Y-61804000D01*
X92895000Y-57671000D02*
X92895000Y-58819000D01*
X92895000Y-60561000D02*
X92895000Y-61709000D01*
X93035000Y-57782000D02*
X93035000Y-58867000D01*
X93035000Y-60513000D02*
X93035000Y-61598000D01*
X93175000Y-57910000D02*
X93175000Y-58945000D01*
X93175000Y-60435000D02*
X93175000Y-61470000D01*
X93315000Y-58059000D02*
X93315000Y-59062000D01*
X93315000Y-60318000D02*
X93315000Y-61321000D01*
X93455000Y-58238000D02*
X93455000Y-59250000D01*
X93455000Y-60130000D02*
X93455000Y-61142000D01*
X93595000Y-58457000D02*
X93595000Y-60923000D01*
X93735000Y-58746000D02*
X93735000Y-60634000D01*
X93875000Y-59218000D02*
X93875000Y-60162000D01*
X93570000Y-59690000D02*
G75*
G03X93570000Y-59690000I-900000J0D01*
G01*
X93957500Y-59690000D02*
G75*
G03X93957500Y-59690000I-2537500J0D01*
G01*
X91495000Y-63541000D02*
X91495000Y-68539000D01*
X91635000Y-63549000D02*
X91635000Y-68531000D01*
X91775000Y-63565000D02*
X91775000Y-65945000D01*
X91775000Y-66135000D02*
X91775000Y-68515000D01*
X91915000Y-63589000D02*
X91915000Y-65550000D01*
X91915000Y-66530000D02*
X91915000Y-68491000D01*
X92055000Y-63622000D02*
X92055000Y-65383000D01*
X92055000Y-66697000D02*
X92055000Y-68458000D01*
X92195000Y-63663000D02*
X92195000Y-65276000D01*
X92195000Y-66804000D02*
X92195000Y-68417000D01*
X92335000Y-63713000D02*
X92335000Y-65205000D01*
X92335000Y-66875000D02*
X92335000Y-68367000D01*
X92475000Y-63774000D02*
X92475000Y-65161000D01*
X92475000Y-66919000D02*
X92475000Y-68306000D01*
X92615000Y-63844000D02*
X92615000Y-65142000D01*
X92615000Y-66938000D02*
X92615000Y-68236000D01*
X92755000Y-63926000D02*
X92755000Y-65144000D01*
X92755000Y-66936000D02*
X92755000Y-68154000D01*
X92895000Y-64021000D02*
X92895000Y-65169000D01*
X92895000Y-66911000D02*
X92895000Y-68059000D01*
X93035000Y-64132000D02*
X93035000Y-65217000D01*
X93035000Y-66863000D02*
X93035000Y-67948000D01*
X93175000Y-64260000D02*
X93175000Y-65295000D01*
X93175000Y-66785000D02*
X93175000Y-67820000D01*
X93315000Y-64409000D02*
X93315000Y-65412000D01*
X93315000Y-66668000D02*
X93315000Y-67671000D01*
X93455000Y-64588000D02*
X93455000Y-65600000D01*
X93455000Y-66480000D02*
X93455000Y-67492000D01*
X93595000Y-64807000D02*
X93595000Y-67273000D01*
X93735000Y-65096000D02*
X93735000Y-66984000D01*
X93875000Y-65568000D02*
X93875000Y-66512000D01*
X93570000Y-66040000D02*
G75*
G03X93570000Y-66040000I-900000J0D01*
G01*
X93957500Y-66040000D02*
G75*
G03X93957500Y-66040000I-2537500J0D01*
G01*
X87589000Y-80065000D02*
X82591000Y-80065000D01*
X87581000Y-80205000D02*
X82599000Y-80205000D01*
X87565000Y-80345000D02*
X85185000Y-80345000D01*
X84995000Y-80345000D02*
X82615000Y-80345000D01*
X87541000Y-80485000D02*
X85580000Y-80485000D01*
X84600000Y-80485000D02*
X82639000Y-80485000D01*
X87508000Y-80625000D02*
X85747000Y-80625000D01*
X84433000Y-80625000D02*
X82672000Y-80625000D01*
X87467000Y-80765000D02*
X85854000Y-80765000D01*
X84326000Y-80765000D02*
X82713000Y-80765000D01*
X87417000Y-80905000D02*
X85925000Y-80905000D01*
X84255000Y-80905000D02*
X82763000Y-80905000D01*
X87356000Y-81045000D02*
X85969000Y-81045000D01*
X84211000Y-81045000D02*
X82824000Y-81045000D01*
X87286000Y-81185000D02*
X85988000Y-81185000D01*
X84192000Y-81185000D02*
X82894000Y-81185000D01*
X87204000Y-81325000D02*
X85986000Y-81325000D01*
X84194000Y-81325000D02*
X82976000Y-81325000D01*
X87109000Y-81465000D02*
X85961000Y-81465000D01*
X84219000Y-81465000D02*
X83071000Y-81465000D01*
X86998000Y-81605000D02*
X85913000Y-81605000D01*
X84267000Y-81605000D02*
X83182000Y-81605000D01*
X86870000Y-81745000D02*
X85835000Y-81745000D01*
X84345000Y-81745000D02*
X83310000Y-81745000D01*
X86721000Y-81885000D02*
X85718000Y-81885000D01*
X84462000Y-81885000D02*
X83459000Y-81885000D01*
X86542000Y-82025000D02*
X85530000Y-82025000D01*
X84650000Y-82025000D02*
X83638000Y-82025000D01*
X86323000Y-82165000D02*
X83857000Y-82165000D01*
X86034000Y-82305000D02*
X84146000Y-82305000D01*
X85562000Y-82445000D02*
X84618000Y-82445000D01*
X85990000Y-81240000D02*
G75*
G03X85990000Y-81240000I-900000J0D01*
G01*
X87627500Y-79990000D02*
G75*
G03X87627500Y-79990000I-2537500J0D01*
G01*
X85035000Y-76159000D02*
X85035000Y-71161000D01*
X84895000Y-76151000D02*
X84895000Y-71169000D01*
X84755000Y-76135000D02*
X84755000Y-73755000D01*
X84755000Y-73565000D02*
X84755000Y-71185000D01*
X84615000Y-76111000D02*
X84615000Y-74150000D01*
X84615000Y-73170000D02*
X84615000Y-71209000D01*
X84475000Y-76078000D02*
X84475000Y-74317000D01*
X84475000Y-73003000D02*
X84475000Y-71242000D01*
X84335000Y-76037000D02*
X84335000Y-74424000D01*
X84335000Y-72896000D02*
X84335000Y-71283000D01*
X84195000Y-75987000D02*
X84195000Y-74495000D01*
X84195000Y-72825000D02*
X84195000Y-71333000D01*
X84055000Y-75926000D02*
X84055000Y-74539000D01*
X84055000Y-72781000D02*
X84055000Y-71394000D01*
X83915000Y-75856000D02*
X83915000Y-74558000D01*
X83915000Y-72762000D02*
X83915000Y-71464000D01*
X83775000Y-75774000D02*
X83775000Y-74556000D01*
X83775000Y-72764000D02*
X83775000Y-71546000D01*
X83635000Y-75679000D02*
X83635000Y-74531000D01*
X83635000Y-72789000D02*
X83635000Y-71641000D01*
X83495000Y-75568000D02*
X83495000Y-74483000D01*
X83495000Y-72837000D02*
X83495000Y-71752000D01*
X83355000Y-75440000D02*
X83355000Y-74405000D01*
X83355000Y-72915000D02*
X83355000Y-71880000D01*
X83215000Y-75291000D02*
X83215000Y-74288000D01*
X83215000Y-73032000D02*
X83215000Y-72029000D01*
X83075000Y-75112000D02*
X83075000Y-74100000D01*
X83075000Y-73220000D02*
X83075000Y-72208000D01*
X82935000Y-74893000D02*
X82935000Y-72427000D01*
X82795000Y-74604000D02*
X82795000Y-72716000D01*
X82655000Y-74132000D02*
X82655000Y-73188000D01*
X84760000Y-73660000D02*
G75*
G03X84760000Y-73660000I-900000J0D01*
G01*
X87647500Y-73660000D02*
G75*
G03X87647500Y-73660000I-2537500J0D01*
G01*
X85035000Y-55839000D02*
X85035000Y-50841000D01*
X84895000Y-55831000D02*
X84895000Y-50849000D01*
X84755000Y-55815000D02*
X84755000Y-53435000D01*
X84755000Y-53245000D02*
X84755000Y-50865000D01*
X84615000Y-55791000D02*
X84615000Y-53830000D01*
X84615000Y-52850000D02*
X84615000Y-50889000D01*
X84475000Y-55758000D02*
X84475000Y-53997000D01*
X84475000Y-52683000D02*
X84475000Y-50922000D01*
X84335000Y-55717000D02*
X84335000Y-54104000D01*
X84335000Y-52576000D02*
X84335000Y-50963000D01*
X84195000Y-55667000D02*
X84195000Y-54175000D01*
X84195000Y-52505000D02*
X84195000Y-51013000D01*
X84055000Y-55606000D02*
X84055000Y-54219000D01*
X84055000Y-52461000D02*
X84055000Y-51074000D01*
X83915000Y-55536000D02*
X83915000Y-54238000D01*
X83915000Y-52442000D02*
X83915000Y-51144000D01*
X83775000Y-55454000D02*
X83775000Y-54236000D01*
X83775000Y-52444000D02*
X83775000Y-51226000D01*
X83635000Y-55359000D02*
X83635000Y-54211000D01*
X83635000Y-52469000D02*
X83635000Y-51321000D01*
X83495000Y-55248000D02*
X83495000Y-54163000D01*
X83495000Y-52517000D02*
X83495000Y-51432000D01*
X83355000Y-55120000D02*
X83355000Y-54085000D01*
X83355000Y-52595000D02*
X83355000Y-51560000D01*
X83215000Y-54971000D02*
X83215000Y-53968000D01*
X83215000Y-52712000D02*
X83215000Y-51709000D01*
X83075000Y-54792000D02*
X83075000Y-53780000D01*
X83075000Y-52900000D02*
X83075000Y-51888000D01*
X82935000Y-54573000D02*
X82935000Y-52107000D01*
X82795000Y-54284000D02*
X82795000Y-52396000D01*
X82655000Y-53812000D02*
X82655000Y-52868000D01*
X84760000Y-53340000D02*
G75*
G03X84760000Y-53340000I-900000J0D01*
G01*
X87647500Y-53340000D02*
G75*
G03X87647500Y-53340000I-2537500J0D01*
G01*
X85035000Y-49489000D02*
X85035000Y-44491000D01*
X84895000Y-49481000D02*
X84895000Y-44499000D01*
X84755000Y-49465000D02*
X84755000Y-47085000D01*
X84755000Y-46895000D02*
X84755000Y-44515000D01*
X84615000Y-49441000D02*
X84615000Y-47480000D01*
X84615000Y-46500000D02*
X84615000Y-44539000D01*
X84475000Y-49408000D02*
X84475000Y-47647000D01*
X84475000Y-46333000D02*
X84475000Y-44572000D01*
X84335000Y-49367000D02*
X84335000Y-47754000D01*
X84335000Y-46226000D02*
X84335000Y-44613000D01*
X84195000Y-49317000D02*
X84195000Y-47825000D01*
X84195000Y-46155000D02*
X84195000Y-44663000D01*
X84055000Y-49256000D02*
X84055000Y-47869000D01*
X84055000Y-46111000D02*
X84055000Y-44724000D01*
X83915000Y-49186000D02*
X83915000Y-47888000D01*
X83915000Y-46092000D02*
X83915000Y-44794000D01*
X83775000Y-49104000D02*
X83775000Y-47886000D01*
X83775000Y-46094000D02*
X83775000Y-44876000D01*
X83635000Y-49009000D02*
X83635000Y-47861000D01*
X83635000Y-46119000D02*
X83635000Y-44971000D01*
X83495000Y-48898000D02*
X83495000Y-47813000D01*
X83495000Y-46167000D02*
X83495000Y-45082000D01*
X83355000Y-48770000D02*
X83355000Y-47735000D01*
X83355000Y-46245000D02*
X83355000Y-45210000D01*
X83215000Y-48621000D02*
X83215000Y-47618000D01*
X83215000Y-46362000D02*
X83215000Y-45359000D01*
X83075000Y-48442000D02*
X83075000Y-47430000D01*
X83075000Y-46550000D02*
X83075000Y-45538000D01*
X82935000Y-48223000D02*
X82935000Y-45757000D01*
X82795000Y-47934000D02*
X82795000Y-46046000D01*
X82655000Y-47462000D02*
X82655000Y-46518000D01*
X84760000Y-46990000D02*
G75*
G03X84760000Y-46990000I-900000J0D01*
G01*
X87647500Y-46990000D02*
G75*
G03X87647500Y-46990000I-2537500J0D01*
G01*
X113165000Y-37075000D02*
X113165000Y-38345000D01*
X120515000Y-37075000D02*
X120515000Y-38345000D01*
X120515000Y-49285000D02*
X120515000Y-48015000D01*
X113165000Y-49285000D02*
X113165000Y-48015000D01*
X113165000Y-37075000D02*
X120515000Y-37075000D01*
X113165000Y-49285000D02*
X120515000Y-49285000D01*
X113165000Y-38345000D02*
X112230000Y-38345000D01*
X114553480Y-74932540D02*
X113156480Y-74932540D01*
X118998480Y-74932540D02*
X120522480Y-74932540D01*
X118617480Y-75694540D02*
X118617480Y-74170540D01*
X118871480Y-75694540D02*
X118871480Y-74170540D01*
X119125480Y-74932540D02*
X119125480Y-74170540D01*
X119125480Y-74170540D02*
X114553480Y-74170540D01*
X114553480Y-74170540D02*
X114553480Y-75694540D01*
X114553480Y-75694540D02*
X119125480Y-75694540D01*
X119125480Y-75694540D02*
X119125480Y-74932540D01*
X99062540Y-78486520D02*
X99062540Y-79883520D01*
X99062540Y-74041520D02*
X99062540Y-72517520D01*
X99824540Y-74422520D02*
X98300540Y-74422520D01*
X99824540Y-74168520D02*
X98300540Y-74168520D01*
X99062540Y-73914520D02*
X98300540Y-73914520D01*
X98300540Y-73914520D02*
X98300540Y-78486520D01*
X98300540Y-78486520D02*
X99824540Y-78486520D01*
X99824540Y-78486520D02*
X99824540Y-73914520D01*
X99824540Y-73914520D02*
X99062540Y-73914520D01*
X96517460Y-73913480D02*
X96517460Y-72516480D01*
X96517460Y-78358480D02*
X96517460Y-79882480D01*
X95755460Y-77977480D02*
X97279460Y-77977480D01*
X95755460Y-78231480D02*
X97279460Y-78231480D01*
X96517460Y-78485480D02*
X97279460Y-78485480D01*
X97279460Y-78485480D02*
X97279460Y-73913480D01*
X97279460Y-73913480D02*
X95755460Y-73913480D01*
X95755460Y-73913480D02*
X95755460Y-78485480D01*
X95755460Y-78485480D02*
X96517460Y-78485480D01*
X99062540Y-51816520D02*
X99062540Y-53213520D01*
X99062540Y-47371520D02*
X99062540Y-45847520D01*
X99824540Y-47752520D02*
X98300540Y-47752520D01*
X99824540Y-47498520D02*
X98300540Y-47498520D01*
X99062540Y-47244520D02*
X98300540Y-47244520D01*
X98300540Y-47244520D02*
X98300540Y-51816520D01*
X98300540Y-51816520D02*
X99824540Y-51816520D01*
X99824540Y-51816520D02*
X99824540Y-47244520D01*
X99824540Y-47244520D02*
X99062540Y-47244520D01*
X96517460Y-47243480D02*
X96517460Y-45846480D01*
X96517460Y-51688480D02*
X96517460Y-53212480D01*
X95755460Y-51307480D02*
X97279460Y-51307480D01*
X95755460Y-51561480D02*
X97279460Y-51561480D01*
X96517460Y-51815480D02*
X97279460Y-51815480D01*
X97279460Y-51815480D02*
X97279460Y-47243480D01*
X97279460Y-47243480D02*
X95755460Y-47243480D01*
X95755460Y-47243480D02*
X95755460Y-51815480D01*
X95755460Y-51815480D02*
X96517460Y-51815480D01*
X90167460Y-47243480D02*
X90167460Y-45846480D01*
X90167460Y-51688480D02*
X90167460Y-53212480D01*
X89405460Y-51307480D02*
X90929460Y-51307480D01*
X89405460Y-51561480D02*
X90929460Y-51561480D01*
X90167460Y-51815480D02*
X90929460Y-51815480D01*
X90929460Y-51815480D02*
X90929460Y-47243480D01*
X90929460Y-47243480D02*
X89405460Y-47243480D01*
X89405460Y-47243480D02*
X89405460Y-51815480D01*
X89405460Y-51815480D02*
X90167460Y-51815480D01*
X92712540Y-51816520D02*
X92712540Y-53213520D01*
X92712540Y-47371520D02*
X92712540Y-45847520D01*
X93474540Y-47752520D02*
X91950540Y-47752520D01*
X93474540Y-47498520D02*
X91950540Y-47498520D01*
X92712540Y-47244520D02*
X91950540Y-47244520D01*
X91950540Y-47244520D02*
X91950540Y-51816520D01*
X91950540Y-51816520D02*
X93474540Y-51816520D01*
X93474540Y-51816520D02*
X93474540Y-47244520D01*
X93474540Y-47244520D02*
X92712540Y-47244520D01*
X92707460Y-73913480D02*
X92707460Y-72516480D01*
X92707460Y-78358480D02*
X92707460Y-79882480D01*
X91945460Y-77977480D02*
X93469460Y-77977480D01*
X91945460Y-78231480D02*
X93469460Y-78231480D01*
X92707460Y-78485480D02*
X93469460Y-78485480D01*
X93469460Y-78485480D02*
X93469460Y-73913480D01*
X93469460Y-73913480D02*
X91945460Y-73913480D01*
X91945460Y-73913480D02*
X91945460Y-78485480D01*
X91945460Y-78485480D02*
X92707460Y-78485480D01*
X90172540Y-78486520D02*
X90172540Y-79883520D01*
X90172540Y-74041520D02*
X90172540Y-72517520D01*
X90934540Y-74422520D02*
X89410540Y-74422520D01*
X90934540Y-74168520D02*
X89410540Y-74168520D01*
X90172540Y-73914520D02*
X89410540Y-73914520D01*
X89410540Y-73914520D02*
X89410540Y-78486520D01*
X89410540Y-78486520D02*
X90934540Y-78486520D01*
X90934540Y-78486520D02*
X90934540Y-73914520D01*
X90934540Y-73914520D02*
X90172540Y-73914520D01*
X86362540Y-65786520D02*
X86362540Y-67183520D01*
X86362540Y-61341520D02*
X86362540Y-59817520D01*
X87124540Y-61722520D02*
X85600540Y-61722520D01*
X87124540Y-61468520D02*
X85600540Y-61468520D01*
X86362540Y-61214520D02*
X85600540Y-61214520D01*
X85600540Y-61214520D02*
X85600540Y-65786520D01*
X85600540Y-65786520D02*
X87124540Y-65786520D01*
X87124540Y-65786520D02*
X87124540Y-61214520D01*
X87124540Y-61214520D02*
X86362540Y-61214520D01*
X83817460Y-61213480D02*
X83817460Y-59816480D01*
X83817460Y-65658480D02*
X83817460Y-67182480D01*
X83055460Y-65277480D02*
X84579460Y-65277480D01*
X83055460Y-65531480D02*
X84579460Y-65531480D01*
X83817460Y-65785480D02*
X84579460Y-65785480D01*
X84579460Y-65785480D02*
X84579460Y-61213480D01*
X84579460Y-61213480D02*
X83055460Y-61213480D01*
X83055460Y-61213480D02*
X83055460Y-65785480D01*
X83055460Y-65785480D02*
X83817460Y-65785480D01*
X84836520Y-41907460D02*
X86233520Y-41907460D01*
X80391520Y-41907460D02*
X78867520Y-41907460D01*
X80772520Y-41145460D02*
X80772520Y-42669460D01*
X80518520Y-41145460D02*
X80518520Y-42669460D01*
X80264520Y-41907460D02*
X80264520Y-42669460D01*
X80264520Y-42669460D02*
X84836520Y-42669460D01*
X84836520Y-42669460D02*
X84836520Y-41145460D01*
X84836520Y-41145460D02*
X80264520Y-41145460D01*
X80264520Y-41145460D02*
X80264520Y-41907460D01*
X106680000Y-38100000D02*
X106680000Y-43180000D01*
X106680000Y-43180000D02*
X104140000Y-43180000D01*
X104140000Y-43180000D02*
X104140000Y-38100000D01*
X104140000Y-38100000D02*
X106680000Y-38100000D01*
X105410000Y-38100000D02*
X105410000Y-36830000D01*
X105410000Y-43180000D02*
X105410000Y-44450000D01*
X110490000Y-38100000D02*
X110490000Y-43180000D01*
X110490000Y-43180000D02*
X107950000Y-43180000D01*
X107950000Y-43180000D02*
X107950000Y-38100000D01*
X107950000Y-38100000D02*
X110490000Y-38100000D01*
X109220000Y-38100000D02*
X109220000Y-36830000D01*
X109220000Y-43180000D02*
X109220000Y-44450000D01*
X114300000Y-57150000D02*
X119380000Y-57150000D01*
X119380000Y-57150000D02*
X119380000Y-59690000D01*
X119380000Y-59690000D02*
X114300000Y-59690000D01*
X114300000Y-59690000D02*
X114300000Y-57150000D01*
X114300000Y-58420000D02*
X113030000Y-58420000D01*
X119380000Y-58420000D02*
X120650000Y-58420000D01*
X110490000Y-72390000D02*
X105410000Y-72390000D01*
X105410000Y-72390000D02*
X105410000Y-69850000D01*
X105410000Y-69850000D02*
X110490000Y-69850000D01*
X110490000Y-69850000D02*
X110490000Y-72390000D01*
X110490000Y-71120000D02*
X111760000Y-71120000D01*
X105410000Y-71120000D02*
X104140000Y-71120000D01*
X108966000Y-58166000D02*
X108458000Y-58674000D01*
X108966000Y-59182000D02*
X109474000Y-58674000D01*
X109474000Y-58674000D02*
X108966000Y-58166000D01*
X108966000Y-60960000D02*
G75*
G03X108966000Y-60960000I-2286000J0D01*
G01*
X109430000Y-60960000D02*
G75*
G03X109430000Y-60960000I-2750000J0D01*
G01*
X122936000Y-61976000D02*
X122428000Y-62484000D01*
X122936000Y-62992000D02*
X123444000Y-62484000D01*
X123444000Y-62484000D02*
X122936000Y-61976000D01*
X122936000Y-64770000D02*
G75*
G03X122936000Y-64770000I-2286000J0D01*
G01*
X123400000Y-64770000D02*
G75*
G03X123400000Y-64770000I-2750000J0D01*
G01*
X115316000Y-61976000D02*
X114808000Y-62484000D01*
X115316000Y-62992000D02*
X115824000Y-62484000D01*
X115824000Y-62484000D02*
X115316000Y-61976000D01*
X115316000Y-64770000D02*
G75*
G03X115316000Y-64770000I-2286000J0D01*
G01*
X115780000Y-64770000D02*
G75*
G03X115780000Y-64770000I-2750000J0D01*
G01*
X112926905Y-81732381D02*
X112926905Y-80732381D01*
X113307858Y-80732381D01*
X113403096Y-80780000D01*
X113450715Y-80827619D01*
X113498334Y-80922857D01*
X113498334Y-81065714D01*
X113450715Y-81160952D01*
X113403096Y-81208571D01*
X113307858Y-81256190D01*
X112926905Y-81256190D01*
X113831667Y-80732381D02*
X114450715Y-80732381D01*
X114117381Y-81113333D01*
X114260239Y-81113333D01*
X114355477Y-81160952D01*
X114403096Y-81208571D01*
X114450715Y-81303810D01*
X114450715Y-81541905D01*
X114403096Y-81637143D01*
X114355477Y-81684762D01*
X114260239Y-81732381D01*
X113974524Y-81732381D01*
X113879286Y-81684762D01*
X113831667Y-81637143D01*
X119911905Y-83002381D02*
X119911905Y-82002381D01*
X120292858Y-82002381D01*
X120388096Y-82050000D01*
X120435715Y-82097619D01*
X120483334Y-82192857D01*
X120483334Y-82335714D01*
X120435715Y-82430952D01*
X120388096Y-82478571D01*
X120292858Y-82526190D01*
X119911905Y-82526190D01*
X120864286Y-82097619D02*
X120911905Y-82050000D01*
X121007143Y-82002381D01*
X121245239Y-82002381D01*
X121340477Y-82050000D01*
X121388096Y-82097619D01*
X121435715Y-82192857D01*
X121435715Y-82288095D01*
X121388096Y-82430952D01*
X120816667Y-83002381D01*
X121435715Y-83002381D01*
X76731905Y-35377381D02*
X76731905Y-34377381D01*
X77112858Y-34377381D01*
X77208096Y-34425000D01*
X77255715Y-34472619D01*
X77303334Y-34567857D01*
X77303334Y-34710714D01*
X77255715Y-34805952D01*
X77208096Y-34853571D01*
X77112858Y-34901190D01*
X76731905Y-34901190D01*
X78255715Y-35377381D02*
X77684286Y-35377381D01*
X77970000Y-35377381D02*
X77970000Y-34377381D01*
X77874762Y-34520238D01*
X77779524Y-34615476D01*
X77684286Y-34663095D01*
X72898096Y-32520000D02*
X72802858Y-32472381D01*
X72660001Y-32472381D01*
X72517143Y-32520000D01*
X72421905Y-32615238D01*
X72374286Y-32710476D01*
X72326667Y-32900952D01*
X72326667Y-33043810D01*
X72374286Y-33234286D01*
X72421905Y-33329524D01*
X72517143Y-33424762D01*
X72660001Y-33472381D01*
X72755239Y-33472381D01*
X72898096Y-33424762D01*
X72945715Y-33377143D01*
X72945715Y-33043810D01*
X72755239Y-33043810D01*
X73374286Y-33472381D02*
X73374286Y-32472381D01*
X73945715Y-33472381D01*
X73945715Y-32472381D01*
X74421905Y-33472381D02*
X74421905Y-32472381D01*
X74660000Y-32472381D01*
X74802858Y-32520000D01*
X74898096Y-32615238D01*
X74945715Y-32710476D01*
X74993334Y-32900952D01*
X74993334Y-33043810D01*
X74945715Y-33234286D01*
X74898096Y-33329524D01*
X74802858Y-33424762D01*
X74660000Y-33472381D01*
X74421905Y-33472381D01*
X107656334Y-50268143D02*
X107608715Y-50315762D01*
X107465858Y-50363381D01*
X107370620Y-50363381D01*
X107227762Y-50315762D01*
X107132524Y-50220524D01*
X107084905Y-50125286D01*
X107037286Y-49934810D01*
X107037286Y-49791952D01*
X107084905Y-49601476D01*
X107132524Y-49506238D01*
X107227762Y-49411000D01*
X107370620Y-49363381D01*
X107465858Y-49363381D01*
X107608715Y-49411000D01*
X107656334Y-49458619D01*
X108037286Y-49458619D02*
X108084905Y-49411000D01*
X108180143Y-49363381D01*
X108418239Y-49363381D01*
X108513477Y-49411000D01*
X108561096Y-49458619D01*
X108608715Y-49553857D01*
X108608715Y-49649095D01*
X108561096Y-49791952D01*
X107989667Y-50363381D01*
X108608715Y-50363381D01*
X116673334Y-50395143D02*
X116625715Y-50442762D01*
X116482858Y-50490381D01*
X116387620Y-50490381D01*
X116244762Y-50442762D01*
X116149524Y-50347524D01*
X116101905Y-50252286D01*
X116054286Y-50061810D01*
X116054286Y-49918952D01*
X116101905Y-49728476D01*
X116149524Y-49633238D01*
X116244762Y-49538000D01*
X116387620Y-49490381D01*
X116482858Y-49490381D01*
X116625715Y-49538000D01*
X116673334Y-49585619D01*
X117625715Y-50490381D02*
X117054286Y-50490381D01*
X117340000Y-50490381D02*
X117340000Y-49490381D01*
X117244762Y-49633238D01*
X117149524Y-49728476D01*
X117054286Y-49776095D01*
X121753334Y-71477143D02*
X121705715Y-71524762D01*
X121562858Y-71572381D01*
X121467620Y-71572381D01*
X121324762Y-71524762D01*
X121229524Y-71429524D01*
X121181905Y-71334286D01*
X121134286Y-71143810D01*
X121134286Y-71000952D01*
X121181905Y-70810476D01*
X121229524Y-70715238D01*
X121324762Y-70620000D01*
X121467620Y-70572381D01*
X121562858Y-70572381D01*
X121705715Y-70620000D01*
X121753334Y-70667619D01*
X122086667Y-70572381D02*
X122705715Y-70572381D01*
X122372381Y-70953333D01*
X122515239Y-70953333D01*
X122610477Y-71000952D01*
X122658096Y-71048571D01*
X122705715Y-71143810D01*
X122705715Y-71381905D01*
X122658096Y-71477143D01*
X122610477Y-71524762D01*
X122515239Y-71572381D01*
X122229524Y-71572381D01*
X122134286Y-71524762D01*
X122086667Y-71477143D01*
X102723334Y-81627143D02*
X102675715Y-81674762D01*
X102532858Y-81722381D01*
X102437620Y-81722381D01*
X102294762Y-81674762D01*
X102199524Y-81579524D01*
X102151905Y-81484286D01*
X102104286Y-81293810D01*
X102104286Y-81150952D01*
X102151905Y-80960476D01*
X102199524Y-80865238D01*
X102294762Y-80770000D01*
X102437620Y-80722381D01*
X102532858Y-80722381D01*
X102675715Y-80770000D01*
X102723334Y-80817619D01*
X103580477Y-81055714D02*
X103580477Y-81722381D01*
X103342381Y-80674762D02*
X103104286Y-81389048D01*
X103723334Y-81389048D01*
X100163334Y-68937143D02*
X100115715Y-68984762D01*
X99972858Y-69032381D01*
X99877620Y-69032381D01*
X99734762Y-68984762D01*
X99639524Y-68889524D01*
X99591905Y-68794286D01*
X99544286Y-68603810D01*
X99544286Y-68460952D01*
X99591905Y-68270476D01*
X99639524Y-68175238D01*
X99734762Y-68080000D01*
X99877620Y-68032381D01*
X99972858Y-68032381D01*
X100115715Y-68080000D01*
X100163334Y-68127619D01*
X101068096Y-68032381D02*
X100591905Y-68032381D01*
X100544286Y-68508571D01*
X100591905Y-68460952D01*
X100687143Y-68413333D01*
X100925239Y-68413333D01*
X101020477Y-68460952D01*
X101068096Y-68508571D01*
X101115715Y-68603810D01*
X101115715Y-68841905D01*
X101068096Y-68937143D01*
X101020477Y-68984762D01*
X100925239Y-69032381D01*
X100687143Y-69032381D01*
X100591905Y-68984762D01*
X100544286Y-68937143D01*
X100163334Y-57507143D02*
X100115715Y-57554762D01*
X99972858Y-57602381D01*
X99877620Y-57602381D01*
X99734762Y-57554762D01*
X99639524Y-57459524D01*
X99591905Y-57364286D01*
X99544286Y-57173810D01*
X99544286Y-57030952D01*
X99591905Y-56840476D01*
X99639524Y-56745238D01*
X99734762Y-56650000D01*
X99877620Y-56602381D01*
X99972858Y-56602381D01*
X100115715Y-56650000D01*
X100163334Y-56697619D01*
X101020477Y-56602381D02*
X100830000Y-56602381D01*
X100734762Y-56650000D01*
X100687143Y-56697619D01*
X100591905Y-56840476D01*
X100544286Y-57030952D01*
X100544286Y-57411905D01*
X100591905Y-57507143D01*
X100639524Y-57554762D01*
X100734762Y-57602381D01*
X100925239Y-57602381D01*
X101020477Y-57554762D01*
X101068096Y-57507143D01*
X101115715Y-57411905D01*
X101115715Y-57173810D01*
X101068096Y-57078571D01*
X101020477Y-57030952D01*
X100925239Y-56983333D01*
X100734762Y-56983333D01*
X100639524Y-57030952D01*
X100591905Y-57078571D01*
X100544286Y-57173810D01*
X97623334Y-35917143D02*
X97575715Y-35964762D01*
X97432858Y-36012381D01*
X97337620Y-36012381D01*
X97194762Y-35964762D01*
X97099524Y-35869524D01*
X97051905Y-35774286D01*
X97004286Y-35583810D01*
X97004286Y-35440952D01*
X97051905Y-35250476D01*
X97099524Y-35155238D01*
X97194762Y-35060000D01*
X97337620Y-35012381D01*
X97432858Y-35012381D01*
X97575715Y-35060000D01*
X97623334Y-35107619D01*
X97956667Y-35012381D02*
X98623334Y-35012381D01*
X98194762Y-36012381D01*
X91273334Y-35917143D02*
X91225715Y-35964762D01*
X91082858Y-36012381D01*
X90987620Y-36012381D01*
X90844762Y-35964762D01*
X90749524Y-35869524D01*
X90701905Y-35774286D01*
X90654286Y-35583810D01*
X90654286Y-35440952D01*
X90701905Y-35250476D01*
X90749524Y-35155238D01*
X90844762Y-35060000D01*
X90987620Y-35012381D01*
X91082858Y-35012381D01*
X91225715Y-35060000D01*
X91273334Y-35107619D01*
X91844762Y-35440952D02*
X91749524Y-35393333D01*
X91701905Y-35345714D01*
X91654286Y-35250476D01*
X91654286Y-35202857D01*
X91701905Y-35107619D01*
X91749524Y-35060000D01*
X91844762Y-35012381D01*
X92035239Y-35012381D01*
X92130477Y-35060000D01*
X92178096Y-35107619D01*
X92225715Y-35202857D01*
X92225715Y-35250476D01*
X92178096Y-35345714D01*
X92130477Y-35393333D01*
X92035239Y-35440952D01*
X91844762Y-35440952D01*
X91749524Y-35488571D01*
X91701905Y-35536190D01*
X91654286Y-35631429D01*
X91654286Y-35821905D01*
X91701905Y-35917143D01*
X91749524Y-35964762D01*
X91844762Y-36012381D01*
X92035239Y-36012381D01*
X92130477Y-35964762D01*
X92178096Y-35917143D01*
X92225715Y-35821905D01*
X92225715Y-35631429D01*
X92178096Y-35536190D01*
X92130477Y-35488571D01*
X92035239Y-35440952D01*
X88733334Y-57507143D02*
X88685715Y-57554762D01*
X88542858Y-57602381D01*
X88447620Y-57602381D01*
X88304762Y-57554762D01*
X88209524Y-57459524D01*
X88161905Y-57364286D01*
X88114286Y-57173810D01*
X88114286Y-57030952D01*
X88161905Y-56840476D01*
X88209524Y-56745238D01*
X88304762Y-56650000D01*
X88447620Y-56602381D01*
X88542858Y-56602381D01*
X88685715Y-56650000D01*
X88733334Y-56697619D01*
X89209524Y-57602381D02*
X89400000Y-57602381D01*
X89495239Y-57554762D01*
X89542858Y-57507143D01*
X89638096Y-57364286D01*
X89685715Y-57173810D01*
X89685715Y-56792857D01*
X89638096Y-56697619D01*
X89590477Y-56650000D01*
X89495239Y-56602381D01*
X89304762Y-56602381D01*
X89209524Y-56650000D01*
X89161905Y-56697619D01*
X89114286Y-56792857D01*
X89114286Y-57030952D01*
X89161905Y-57126190D01*
X89209524Y-57173810D01*
X89304762Y-57221429D01*
X89495239Y-57221429D01*
X89590477Y-57173810D01*
X89638096Y-57126190D01*
X89685715Y-57030952D01*
X88257143Y-68937143D02*
X88209524Y-68984762D01*
X88066667Y-69032381D01*
X87971429Y-69032381D01*
X87828571Y-68984762D01*
X87733333Y-68889524D01*
X87685714Y-68794286D01*
X87638095Y-68603810D01*
X87638095Y-68460952D01*
X87685714Y-68270476D01*
X87733333Y-68175238D01*
X87828571Y-68080000D01*
X87971429Y-68032381D01*
X88066667Y-68032381D01*
X88209524Y-68080000D01*
X88257143Y-68127619D01*
X89209524Y-69032381D02*
X88638095Y-69032381D01*
X88923809Y-69032381D02*
X88923809Y-68032381D01*
X88828571Y-68175238D01*
X88733333Y-68270476D01*
X88638095Y-68318095D01*
X89828571Y-68032381D02*
X89923810Y-68032381D01*
X90019048Y-68080000D01*
X90066667Y-68127619D01*
X90114286Y-68222857D01*
X90161905Y-68413333D01*
X90161905Y-68651429D01*
X90114286Y-68841905D01*
X90066667Y-68937143D01*
X90019048Y-68984762D01*
X89923810Y-69032381D01*
X89828571Y-69032381D01*
X89733333Y-68984762D01*
X89685714Y-68937143D01*
X89638095Y-68841905D01*
X89590476Y-68651429D01*
X89590476Y-68413333D01*
X89638095Y-68222857D01*
X89685714Y-68127619D01*
X89733333Y-68080000D01*
X89828571Y-68032381D01*
X81145143Y-77827143D02*
X81097524Y-77874762D01*
X80954667Y-77922381D01*
X80859429Y-77922381D01*
X80716571Y-77874762D01*
X80621333Y-77779524D01*
X80573714Y-77684286D01*
X80526095Y-77493810D01*
X80526095Y-77350952D01*
X80573714Y-77160476D01*
X80621333Y-77065238D01*
X80716571Y-76970000D01*
X80859429Y-76922381D01*
X80954667Y-76922381D01*
X81097524Y-76970000D01*
X81145143Y-77017619D01*
X82097524Y-77922381D02*
X81526095Y-77922381D01*
X81811809Y-77922381D02*
X81811809Y-76922381D01*
X81716571Y-77065238D01*
X81621333Y-77160476D01*
X81526095Y-77208095D01*
X83049905Y-77922381D02*
X82478476Y-77922381D01*
X82764190Y-77922381D02*
X82764190Y-76922381D01*
X82668952Y-77065238D01*
X82573714Y-77160476D01*
X82478476Y-77208095D01*
X80891143Y-71477143D02*
X80843524Y-71524762D01*
X80700667Y-71572381D01*
X80605429Y-71572381D01*
X80462571Y-71524762D01*
X80367333Y-71429524D01*
X80319714Y-71334286D01*
X80272095Y-71143810D01*
X80272095Y-71000952D01*
X80319714Y-70810476D01*
X80367333Y-70715238D01*
X80462571Y-70620000D01*
X80605429Y-70572381D01*
X80700667Y-70572381D01*
X80843524Y-70620000D01*
X80891143Y-70667619D01*
X81843524Y-71572381D02*
X81272095Y-71572381D01*
X81557809Y-71572381D02*
X81557809Y-70572381D01*
X81462571Y-70715238D01*
X81367333Y-70810476D01*
X81272095Y-70858095D01*
X82224476Y-70667619D02*
X82272095Y-70620000D01*
X82367333Y-70572381D01*
X82605429Y-70572381D01*
X82700667Y-70620000D01*
X82748286Y-70667619D01*
X82795905Y-70762857D01*
X82795905Y-70858095D01*
X82748286Y-71000952D01*
X82176857Y-71572381D01*
X82795905Y-71572381D01*
X80129143Y-53824143D02*
X80081524Y-53871762D01*
X79938667Y-53919381D01*
X79843429Y-53919381D01*
X79700571Y-53871762D01*
X79605333Y-53776524D01*
X79557714Y-53681286D01*
X79510095Y-53490810D01*
X79510095Y-53347952D01*
X79557714Y-53157476D01*
X79605333Y-53062238D01*
X79700571Y-52967000D01*
X79843429Y-52919381D01*
X79938667Y-52919381D01*
X80081524Y-52967000D01*
X80129143Y-53014619D01*
X81081524Y-53919381D02*
X80510095Y-53919381D01*
X80795809Y-53919381D02*
X80795809Y-52919381D01*
X80700571Y-53062238D01*
X80605333Y-53157476D01*
X80510095Y-53205095D01*
X81414857Y-52919381D02*
X82033905Y-52919381D01*
X81700571Y-53300333D01*
X81843429Y-53300333D01*
X81938667Y-53347952D01*
X81986286Y-53395571D01*
X82033905Y-53490810D01*
X82033905Y-53728905D01*
X81986286Y-53824143D01*
X81938667Y-53871762D01*
X81843429Y-53919381D01*
X81557714Y-53919381D01*
X81462476Y-53871762D01*
X81414857Y-53824143D01*
X80383143Y-47347143D02*
X80335524Y-47394762D01*
X80192667Y-47442381D01*
X80097429Y-47442381D01*
X79954571Y-47394762D01*
X79859333Y-47299524D01*
X79811714Y-47204286D01*
X79764095Y-47013810D01*
X79764095Y-46870952D01*
X79811714Y-46680476D01*
X79859333Y-46585238D01*
X79954571Y-46490000D01*
X80097429Y-46442381D01*
X80192667Y-46442381D01*
X80335524Y-46490000D01*
X80383143Y-46537619D01*
X81335524Y-47442381D02*
X80764095Y-47442381D01*
X81049809Y-47442381D02*
X81049809Y-46442381D01*
X80954571Y-46585238D01*
X80859333Y-46680476D01*
X80764095Y-46728095D01*
X82192667Y-46775714D02*
X82192667Y-47442381D01*
X81954571Y-46394762D02*
X81716476Y-47109048D01*
X82335524Y-47109048D01*
X116078095Y-40092381D02*
X116078095Y-40901905D01*
X116125714Y-40997143D01*
X116173333Y-41044762D01*
X116268571Y-41092381D01*
X116459048Y-41092381D01*
X116554286Y-41044762D01*
X116601905Y-40997143D01*
X116649524Y-40901905D01*
X116649524Y-40092381D01*
X117649524Y-41092381D02*
X117078095Y-41092381D01*
X117363809Y-41092381D02*
X117363809Y-40092381D01*
X117268571Y-40235238D01*
X117173333Y-40330476D01*
X117078095Y-40378095D01*
X116101905Y-75382381D02*
X116101905Y-74382381D01*
X116340000Y-74382381D01*
X116482858Y-74430000D01*
X116578096Y-74525238D01*
X116625715Y-74620476D01*
X116673334Y-74810952D01*
X116673334Y-74953810D01*
X116625715Y-75144286D01*
X116578096Y-75239524D01*
X116482858Y-75334762D01*
X116340000Y-75382381D01*
X116101905Y-75382381D01*
X117625715Y-75382381D02*
X117054286Y-75382381D01*
X117340000Y-75382381D02*
X117340000Y-74382381D01*
X117244762Y-74525238D01*
X117149524Y-74620476D01*
X117054286Y-74668095D01*
X99512381Y-76938095D02*
X98512381Y-76938095D01*
X98512381Y-76700000D01*
X98560000Y-76557142D01*
X98655238Y-76461904D01*
X98750476Y-76414285D01*
X98940952Y-76366666D01*
X99083810Y-76366666D01*
X99274286Y-76414285D01*
X99369524Y-76461904D01*
X99464762Y-76557142D01*
X99512381Y-76700000D01*
X99512381Y-76938095D01*
X98607619Y-75985714D02*
X98560000Y-75938095D01*
X98512381Y-75842857D01*
X98512381Y-75604761D01*
X98560000Y-75509523D01*
X98607619Y-75461904D01*
X98702857Y-75414285D01*
X98798095Y-75414285D01*
X98940952Y-75461904D01*
X99512381Y-76033333D01*
X99512381Y-75414285D01*
X96972381Y-76938095D02*
X95972381Y-76938095D01*
X95972381Y-76700000D01*
X96020000Y-76557142D01*
X96115238Y-76461904D01*
X96210476Y-76414285D01*
X96400952Y-76366666D01*
X96543810Y-76366666D01*
X96734286Y-76414285D01*
X96829524Y-76461904D01*
X96924762Y-76557142D01*
X96972381Y-76700000D01*
X96972381Y-76938095D01*
X95972381Y-76033333D02*
X95972381Y-75414285D01*
X96353333Y-75747619D01*
X96353333Y-75604761D01*
X96400952Y-75509523D01*
X96448571Y-75461904D01*
X96543810Y-75414285D01*
X96781905Y-75414285D01*
X96877143Y-75461904D01*
X96924762Y-75509523D01*
X96972381Y-75604761D01*
X96972381Y-75890476D01*
X96924762Y-75985714D01*
X96877143Y-76033333D01*
X99512381Y-50268095D02*
X98512381Y-50268095D01*
X98512381Y-50030000D01*
X98560000Y-49887142D01*
X98655238Y-49791904D01*
X98750476Y-49744285D01*
X98940952Y-49696666D01*
X99083810Y-49696666D01*
X99274286Y-49744285D01*
X99369524Y-49791904D01*
X99464762Y-49887142D01*
X99512381Y-50030000D01*
X99512381Y-50268095D01*
X98845714Y-48839523D02*
X99512381Y-48839523D01*
X98464762Y-49077619D02*
X99179048Y-49315714D01*
X99179048Y-48696666D01*
X96972381Y-50268095D02*
X95972381Y-50268095D01*
X95972381Y-50030000D01*
X96020000Y-49887142D01*
X96115238Y-49791904D01*
X96210476Y-49744285D01*
X96400952Y-49696666D01*
X96543810Y-49696666D01*
X96734286Y-49744285D01*
X96829524Y-49791904D01*
X96924762Y-49887142D01*
X96972381Y-50030000D01*
X96972381Y-50268095D01*
X95972381Y-48791904D02*
X95972381Y-49268095D01*
X96448571Y-49315714D01*
X96400952Y-49268095D01*
X96353333Y-49172857D01*
X96353333Y-48934761D01*
X96400952Y-48839523D01*
X96448571Y-48791904D01*
X96543810Y-48744285D01*
X96781905Y-48744285D01*
X96877143Y-48791904D01*
X96924762Y-48839523D01*
X96972381Y-48934761D01*
X96972381Y-49172857D01*
X96924762Y-49268095D01*
X96877143Y-49315714D01*
X90622381Y-50268095D02*
X89622381Y-50268095D01*
X89622381Y-50030000D01*
X89670000Y-49887142D01*
X89765238Y-49791904D01*
X89860476Y-49744285D01*
X90050952Y-49696666D01*
X90193810Y-49696666D01*
X90384286Y-49744285D01*
X90479524Y-49791904D01*
X90574762Y-49887142D01*
X90622381Y-50030000D01*
X90622381Y-50268095D01*
X89622381Y-48839523D02*
X89622381Y-49030000D01*
X89670000Y-49125238D01*
X89717619Y-49172857D01*
X89860476Y-49268095D01*
X90050952Y-49315714D01*
X90431905Y-49315714D01*
X90527143Y-49268095D01*
X90574762Y-49220476D01*
X90622381Y-49125238D01*
X90622381Y-48934761D01*
X90574762Y-48839523D01*
X90527143Y-48791904D01*
X90431905Y-48744285D01*
X90193810Y-48744285D01*
X90098571Y-48791904D01*
X90050952Y-48839523D01*
X90003333Y-48934761D01*
X90003333Y-49125238D01*
X90050952Y-49220476D01*
X90098571Y-49268095D01*
X90193810Y-49315714D01*
X93162381Y-50268095D02*
X92162381Y-50268095D01*
X92162381Y-50030000D01*
X92210000Y-49887142D01*
X92305238Y-49791904D01*
X92400476Y-49744285D01*
X92590952Y-49696666D01*
X92733810Y-49696666D01*
X92924286Y-49744285D01*
X93019524Y-49791904D01*
X93114762Y-49887142D01*
X93162381Y-50030000D01*
X93162381Y-50268095D01*
X92162381Y-49363333D02*
X92162381Y-48696666D01*
X93162381Y-49125238D01*
X93162381Y-76938095D02*
X92162381Y-76938095D01*
X92162381Y-76700000D01*
X92210000Y-76557142D01*
X92305238Y-76461904D01*
X92400476Y-76414285D01*
X92590952Y-76366666D01*
X92733810Y-76366666D01*
X92924286Y-76414285D01*
X93019524Y-76461904D01*
X93114762Y-76557142D01*
X93162381Y-76700000D01*
X93162381Y-76938095D01*
X92590952Y-75795238D02*
X92543333Y-75890476D01*
X92495714Y-75938095D01*
X92400476Y-75985714D01*
X92352857Y-75985714D01*
X92257619Y-75938095D01*
X92210000Y-75890476D01*
X92162381Y-75795238D01*
X92162381Y-75604761D01*
X92210000Y-75509523D01*
X92257619Y-75461904D01*
X92352857Y-75414285D01*
X92400476Y-75414285D01*
X92495714Y-75461904D01*
X92543333Y-75509523D01*
X92590952Y-75604761D01*
X92590952Y-75795238D01*
X92638571Y-75890476D01*
X92686190Y-75938095D01*
X92781429Y-75985714D01*
X92971905Y-75985714D01*
X93067143Y-75938095D01*
X93114762Y-75890476D01*
X93162381Y-75795238D01*
X93162381Y-75604761D01*
X93114762Y-75509523D01*
X93067143Y-75461904D01*
X92971905Y-75414285D01*
X92781429Y-75414285D01*
X92686190Y-75461904D01*
X92638571Y-75509523D01*
X92590952Y-75604761D01*
X90622381Y-76938095D02*
X89622381Y-76938095D01*
X89622381Y-76700000D01*
X89670000Y-76557142D01*
X89765238Y-76461904D01*
X89860476Y-76414285D01*
X90050952Y-76366666D01*
X90193810Y-76366666D01*
X90384286Y-76414285D01*
X90479524Y-76461904D01*
X90574762Y-76557142D01*
X90622381Y-76700000D01*
X90622381Y-76938095D01*
X90622381Y-75890476D02*
X90622381Y-75700000D01*
X90574762Y-75604761D01*
X90527143Y-75557142D01*
X90384286Y-75461904D01*
X90193810Y-75414285D01*
X89812857Y-75414285D01*
X89717619Y-75461904D01*
X89670000Y-75509523D01*
X89622381Y-75604761D01*
X89622381Y-75795238D01*
X89670000Y-75890476D01*
X89717619Y-75938095D01*
X89812857Y-75985714D01*
X90050952Y-75985714D01*
X90146190Y-75938095D01*
X90193810Y-75890476D01*
X90241429Y-75795238D01*
X90241429Y-75604761D01*
X90193810Y-75509523D01*
X90146190Y-75461904D01*
X90050952Y-75414285D01*
X86812381Y-64714286D02*
X85812381Y-64714286D01*
X85812381Y-64476191D01*
X85860000Y-64333333D01*
X85955238Y-64238095D01*
X86050476Y-64190476D01*
X86240952Y-64142857D01*
X86383810Y-64142857D01*
X86574286Y-64190476D01*
X86669524Y-64238095D01*
X86764762Y-64333333D01*
X86812381Y-64476191D01*
X86812381Y-64714286D01*
X86812381Y-63190476D02*
X86812381Y-63761905D01*
X86812381Y-63476191D02*
X85812381Y-63476191D01*
X85955238Y-63571429D01*
X86050476Y-63666667D01*
X86098095Y-63761905D01*
X85812381Y-62571429D02*
X85812381Y-62476190D01*
X85860000Y-62380952D01*
X85907619Y-62333333D01*
X86002857Y-62285714D01*
X86193333Y-62238095D01*
X86431429Y-62238095D01*
X86621905Y-62285714D01*
X86717143Y-62333333D01*
X86764762Y-62380952D01*
X86812381Y-62476190D01*
X86812381Y-62571429D01*
X86764762Y-62666667D01*
X86717143Y-62714286D01*
X86621905Y-62761905D01*
X86431429Y-62809524D01*
X86193333Y-62809524D01*
X86002857Y-62761905D01*
X85907619Y-62714286D01*
X85860000Y-62666667D01*
X85812381Y-62571429D01*
X84272381Y-64714286D02*
X83272381Y-64714286D01*
X83272381Y-64476191D01*
X83320000Y-64333333D01*
X83415238Y-64238095D01*
X83510476Y-64190476D01*
X83700952Y-64142857D01*
X83843810Y-64142857D01*
X84034286Y-64190476D01*
X84129524Y-64238095D01*
X84224762Y-64333333D01*
X84272381Y-64476191D01*
X84272381Y-64714286D01*
X84272381Y-63190476D02*
X84272381Y-63761905D01*
X84272381Y-63476191D02*
X83272381Y-63476191D01*
X83415238Y-63571429D01*
X83510476Y-63666667D01*
X83558095Y-63761905D01*
X84272381Y-62238095D02*
X84272381Y-62809524D01*
X84272381Y-62523810D02*
X83272381Y-62523810D01*
X83415238Y-62619048D01*
X83510476Y-62714286D01*
X83558095Y-62809524D01*
X81335714Y-42362381D02*
X81335714Y-41362381D01*
X81573809Y-41362381D01*
X81716667Y-41410000D01*
X81811905Y-41505238D01*
X81859524Y-41600476D01*
X81907143Y-41790952D01*
X81907143Y-41933810D01*
X81859524Y-42124286D01*
X81811905Y-42219524D01*
X81716667Y-42314762D01*
X81573809Y-42362381D01*
X81335714Y-42362381D01*
X82859524Y-42362381D02*
X82288095Y-42362381D01*
X82573809Y-42362381D02*
X82573809Y-41362381D01*
X82478571Y-41505238D01*
X82383333Y-41600476D01*
X82288095Y-41648095D01*
X83240476Y-41457619D02*
X83288095Y-41410000D01*
X83383333Y-41362381D01*
X83621429Y-41362381D01*
X83716667Y-41410000D01*
X83764286Y-41457619D01*
X83811905Y-41552857D01*
X83811905Y-41648095D01*
X83764286Y-41790952D01*
X83192857Y-42362381D01*
X83811905Y-42362381D01*
X105862381Y-40806666D02*
X105386190Y-41140000D01*
X105862381Y-41378095D02*
X104862381Y-41378095D01*
X104862381Y-40997142D01*
X104910000Y-40901904D01*
X104957619Y-40854285D01*
X105052857Y-40806666D01*
X105195714Y-40806666D01*
X105290952Y-40854285D01*
X105338571Y-40901904D01*
X105386190Y-40997142D01*
X105386190Y-41378095D01*
X105862381Y-39854285D02*
X105862381Y-40425714D01*
X105862381Y-40140000D02*
X104862381Y-40140000D01*
X105005238Y-40235238D01*
X105100476Y-40330476D01*
X105148095Y-40425714D01*
X109672381Y-40806666D02*
X109196190Y-41140000D01*
X109672381Y-41378095D02*
X108672381Y-41378095D01*
X108672381Y-40997142D01*
X108720000Y-40901904D01*
X108767619Y-40854285D01*
X108862857Y-40806666D01*
X109005714Y-40806666D01*
X109100952Y-40854285D01*
X109148571Y-40901904D01*
X109196190Y-40997142D01*
X109196190Y-41378095D01*
X108767619Y-40425714D02*
X108720000Y-40378095D01*
X108672381Y-40282857D01*
X108672381Y-40044761D01*
X108720000Y-39949523D01*
X108767619Y-39901904D01*
X108862857Y-39854285D01*
X108958095Y-39854285D01*
X109100952Y-39901904D01*
X109672381Y-40473333D01*
X109672381Y-39854285D01*
X116673334Y-58872381D02*
X116340000Y-58396190D01*
X116101905Y-58872381D02*
X116101905Y-57872381D01*
X116482858Y-57872381D01*
X116578096Y-57920000D01*
X116625715Y-57967619D01*
X116673334Y-58062857D01*
X116673334Y-58205714D01*
X116625715Y-58300952D01*
X116578096Y-58348571D01*
X116482858Y-58396190D01*
X116101905Y-58396190D01*
X117006667Y-57872381D02*
X117625715Y-57872381D01*
X117292381Y-58253333D01*
X117435239Y-58253333D01*
X117530477Y-58300952D01*
X117578096Y-58348571D01*
X117625715Y-58443810D01*
X117625715Y-58681905D01*
X117578096Y-58777143D01*
X117530477Y-58824762D01*
X117435239Y-58872381D01*
X117149524Y-58872381D01*
X117054286Y-58824762D01*
X117006667Y-58777143D01*
X107783334Y-71572381D02*
X107450000Y-71096190D01*
X107211905Y-71572381D02*
X107211905Y-70572381D01*
X107592858Y-70572381D01*
X107688096Y-70620000D01*
X107735715Y-70667619D01*
X107783334Y-70762857D01*
X107783334Y-70905714D01*
X107735715Y-71000952D01*
X107688096Y-71048571D01*
X107592858Y-71096190D01*
X107211905Y-71096190D01*
X108640477Y-70905714D02*
X108640477Y-71572381D01*
X108402381Y-70524762D02*
X108164286Y-71239048D01*
X108783334Y-71239048D01*
X108497619Y-61055238D02*
X108450000Y-61150476D01*
X108354762Y-61245714D01*
X108211905Y-61388571D01*
X108164286Y-61483810D01*
X108164286Y-61579048D01*
X108402381Y-61531429D02*
X108354762Y-61626667D01*
X108259524Y-61721905D01*
X108069048Y-61769524D01*
X107735714Y-61769524D01*
X107545238Y-61721905D01*
X107450000Y-61626667D01*
X107402381Y-61531429D01*
X107402381Y-61340952D01*
X107450000Y-61245714D01*
X107545238Y-61150476D01*
X107735714Y-61102857D01*
X108069048Y-61102857D01*
X108259524Y-61150476D01*
X108354762Y-61245714D01*
X108402381Y-61340952D01*
X108402381Y-61531429D01*
X108402381Y-60150476D02*
X108402381Y-60721905D01*
X108402381Y-60436191D02*
X107402381Y-60436191D01*
X107545238Y-60531429D01*
X107640476Y-60626667D01*
X107688095Y-60721905D01*
X122467619Y-64865238D02*
X122420000Y-64960476D01*
X122324762Y-65055714D01*
X122181905Y-65198571D01*
X122134286Y-65293810D01*
X122134286Y-65389048D01*
X122372381Y-65341429D02*
X122324762Y-65436667D01*
X122229524Y-65531905D01*
X122039048Y-65579524D01*
X121705714Y-65579524D01*
X121515238Y-65531905D01*
X121420000Y-65436667D01*
X121372381Y-65341429D01*
X121372381Y-65150952D01*
X121420000Y-65055714D01*
X121515238Y-64960476D01*
X121705714Y-64912857D01*
X122039048Y-64912857D01*
X122229524Y-64960476D01*
X122324762Y-65055714D01*
X122372381Y-65150952D01*
X122372381Y-65341429D01*
X121372381Y-64579524D02*
X121372381Y-63960476D01*
X121753333Y-64293810D01*
X121753333Y-64150952D01*
X121800952Y-64055714D01*
X121848571Y-64008095D01*
X121943810Y-63960476D01*
X122181905Y-63960476D01*
X122277143Y-64008095D01*
X122324762Y-64055714D01*
X122372381Y-64150952D01*
X122372381Y-64436667D01*
X122324762Y-64531905D01*
X122277143Y-64579524D01*
X114847619Y-64865238D02*
X114800000Y-64960476D01*
X114704762Y-65055714D01*
X114561905Y-65198571D01*
X114514286Y-65293810D01*
X114514286Y-65389048D01*
X114752381Y-65341429D02*
X114704762Y-65436667D01*
X114609524Y-65531905D01*
X114419048Y-65579524D01*
X114085714Y-65579524D01*
X113895238Y-65531905D01*
X113800000Y-65436667D01*
X113752381Y-65341429D01*
X113752381Y-65150952D01*
X113800000Y-65055714D01*
X113895238Y-64960476D01*
X114085714Y-64912857D01*
X114419048Y-64912857D01*
X114609524Y-64960476D01*
X114704762Y-65055714D01*
X114752381Y-65150952D01*
X114752381Y-65341429D01*
X113847619Y-64531905D02*
X113800000Y-64484286D01*
X113752381Y-64389048D01*
X113752381Y-64150952D01*
X113800000Y-64055714D01*
X113847619Y-64008095D01*
X113942857Y-63960476D01*
X114038095Y-63960476D01*
X114180952Y-64008095D01*
X114752381Y-64579524D01*
X114752381Y-63960476D01*
M02*
