G04 #@! TF.FileFunction,Soldermask,Bot*
%FSLAX46Y46*%
G04 Gerber Fmt 4.6, Leading zero omitted, Abs format (unit mm)*
G04 Created by KiCad (PCBNEW 4.0.4+e1-6308~48~ubuntu16.04.1-stable) date Fri Nov  4 19:29:41 2016*
%MOMM*%
%LPD*%
G01*
G04 APERTURE LIST*
%ADD10C,0.100000*%
%ADD11R,2.178000X5.480000*%
%ADD12R,2.432000X2.432000*%
%ADD13O,2.432000X2.432000*%
%ADD14R,2.432000X2.127200*%
%ADD15O,2.432000X2.127200*%
%ADD16R,1.700000X1.700000*%
%ADD17C,1.700000*%
%ADD18O,2.000000X2.000000*%
%ADD19C,2.099260*%
%ADD20R,2.099260X2.099260*%
%ADD21C,2.398980*%
%ADD22C,1.600000*%
G04 APERTURE END LIST*
D10*
D11*
X107505500Y-81280000D03*
X116014500Y-81280000D03*
D12*
X119380000Y-80010000D03*
D13*
X121920000Y-80010000D03*
D14*
X73660000Y-35560000D03*
D15*
X73660000Y-38100000D03*
X73660000Y-40640000D03*
X73660000Y-43180000D03*
X73660000Y-45720000D03*
X73660000Y-48260000D03*
X73660000Y-50800000D03*
X73660000Y-53340000D03*
X73660000Y-55880000D03*
X73660000Y-58420000D03*
X73660000Y-60960000D03*
X73660000Y-63500000D03*
X73660000Y-66040000D03*
X73660000Y-68580000D03*
X73660000Y-71120000D03*
X73660000Y-73660000D03*
X73660000Y-76200000D03*
X73660000Y-78740000D03*
X73660000Y-81280000D03*
D16*
X106680000Y-53340000D03*
D17*
X109180000Y-53340000D03*
D16*
X115570000Y-53340000D03*
D17*
X118070000Y-53340000D03*
D16*
X119380000Y-71120000D03*
D17*
X116880000Y-71120000D03*
D16*
X104140000Y-77470000D03*
D17*
X101640000Y-77470000D03*
D16*
X99060000Y-66040000D03*
D17*
X96560000Y-66040000D03*
D16*
X96520000Y-59690000D03*
D17*
X99020000Y-59690000D03*
D16*
X99060000Y-39370000D03*
D17*
X96560000Y-39370000D03*
D16*
X92710000Y-39370000D03*
D17*
X90210000Y-39370000D03*
D16*
X90170000Y-59690000D03*
D17*
X92670000Y-59690000D03*
D16*
X90170000Y-66040000D03*
D17*
X92670000Y-66040000D03*
D16*
X85090000Y-78740000D03*
D17*
X85090000Y-81240000D03*
D16*
X86360000Y-73660000D03*
D17*
X83860000Y-73660000D03*
D16*
X86360000Y-53340000D03*
D17*
X83860000Y-53340000D03*
D16*
X86360000Y-46990000D03*
D17*
X83860000Y-46990000D03*
D18*
X113030000Y-39370000D03*
X113030000Y-41910000D03*
X113030000Y-44450000D03*
X113030000Y-46990000D03*
X120650000Y-46990000D03*
X120650000Y-44450000D03*
X120650000Y-41910000D03*
X120650000Y-39370000D03*
D19*
X111759480Y-74932540D03*
D20*
X121919480Y-74932540D03*
D19*
X99062540Y-81280520D03*
D20*
X99062540Y-71120520D03*
D19*
X96517460Y-71119480D03*
D20*
X96517460Y-81279480D03*
D19*
X99062540Y-54610520D03*
D20*
X99062540Y-44450520D03*
D19*
X96517460Y-44449480D03*
D20*
X96517460Y-54609480D03*
D19*
X90167460Y-44449480D03*
D20*
X90167460Y-54609480D03*
D19*
X92712540Y-54610520D03*
D20*
X92712540Y-44450520D03*
D19*
X92707460Y-71119480D03*
D20*
X92707460Y-81279480D03*
D19*
X90172540Y-81280520D03*
D20*
X90172540Y-71120520D03*
D19*
X86362540Y-68580520D03*
D20*
X86362540Y-58420520D03*
D19*
X83817460Y-58419480D03*
D20*
X83817460Y-68579480D03*
D19*
X87630520Y-41907460D03*
D20*
X77470520Y-41907460D03*
D21*
X105410000Y-35560000D03*
X105410000Y-45720000D03*
X109220000Y-35560000D03*
X109220000Y-45720000D03*
X111760000Y-58420000D03*
X121920000Y-58420000D03*
X113030000Y-71120000D03*
X102870000Y-71120000D03*
D22*
X106680000Y-59690000D03*
X105410000Y-60960000D03*
X106680000Y-62230000D03*
X120650000Y-63500000D03*
X119380000Y-64770000D03*
X120650000Y-66040000D03*
X113030000Y-63500000D03*
X111760000Y-64770000D03*
X113030000Y-66040000D03*
M02*
