M48
INCH,TZ
T1C0.016
T2C0.028
T3C0.031
T4C0.039
T5C0.040
%
G90
G05
T1
X41500Y-28500
X44000Y-30500
T2
X30500Y-16499
X32999Y-23000
X32999Y-27000
X34001Y-23000
X34001Y-27000
X34500Y-16499
X35499Y-17500
X35499Y-21500
X35501Y-28000
X35501Y-32000
X36499Y-28000
X36499Y-32000
X36501Y-17500
X36501Y-21500
X37999Y-17500
X37999Y-21500
X37999Y-28000
X37999Y-32000
X39001Y-17500
X39001Y-21500
X39001Y-28000
X39001Y-32000
X44000Y-29501
X48000Y-29501
T3
X33016Y-18500
X33016Y-21000
X33016Y-29000
X33500Y-31000
X33500Y-31984
X34000Y-18500
X34000Y-21000
X34000Y-29000
X35500Y-23500
X35500Y-26000
X35516Y-15500
X36484Y-23500
X36484Y-26000
X36500Y-15500
X38000Y-23500
X38016Y-15500
X38016Y-26000
X38984Y-23500
X39000Y-15500
X39000Y-26000
X40016Y-30500
X41000Y-30500
X41500Y-24000
X42000Y-21000
X42000Y-23500
X42000Y-24500
X42984Y-21000
X44000Y-25500
X44500Y-15500
X44500Y-16500
X44500Y-17500
X44500Y-18500
X44500Y-25000
X44500Y-26000
X45500Y-21000
X46016Y-28000
X46484Y-21000
X47000Y-25500
X47000Y-28000
X47500Y-15500
X47500Y-16500
X47500Y-17500
X47500Y-18500
X47500Y-25000
X47500Y-26000
T4
X40500Y-28000
X41500Y-14000
X41500Y-18000
X43000Y-14000
X43000Y-18000
X44000Y-23000
X44500Y-28000
X48000Y-23000
T5
X29000Y-14000
X29000Y-15000
X29000Y-16000
X29000Y-17000
X29000Y-18000
X29000Y-19000
X29000Y-20000
X29000Y-21000
X29000Y-22000
X29000Y-23000
X29000Y-24000
X29000Y-25000
X29000Y-26000
X29000Y-27000
X29000Y-28000
X29000Y-29000
X29000Y-30000
X29000Y-31000
X29000Y-32000
X47000Y-31500
X48000Y-31500
T0
M30
