G04 #@! TF.FileFunction,Legend,Bot*
%FSLAX46Y46*%
G04 Gerber Fmt 4.6, Leading zero omitted, Abs format (unit mm)*
G04 Created by KiCad (PCBNEW 4.0.4+e1-6308~48~ubuntu16.04.1-stable) date Thu Dec  1 18:14:11 2016*
%MOMM*%
%LPD*%
G01*
G04 APERTURE LIST*
%ADD10C,0.100000*%
%ADD11C,0.300000*%
G04 APERTURE END LIST*
D10*
D11*
X108754285Y-50208571D02*
X108754285Y-48708571D01*
X108397142Y-48708571D01*
X108182857Y-48780000D01*
X108039999Y-48922857D01*
X107968571Y-49065714D01*
X107897142Y-49351429D01*
X107897142Y-49565714D01*
X107968571Y-49851429D01*
X108039999Y-49994286D01*
X108182857Y-50137143D01*
X108397142Y-50208571D01*
X108754285Y-50208571D01*
X106754285Y-49422857D02*
X106539999Y-49494286D01*
X106468571Y-49565714D01*
X106397142Y-49708571D01*
X106397142Y-49922857D01*
X106468571Y-50065714D01*
X106539999Y-50137143D01*
X106682857Y-50208571D01*
X107254285Y-50208571D01*
X107254285Y-48708571D01*
X106754285Y-48708571D01*
X106611428Y-48780000D01*
X106539999Y-48851429D01*
X106468571Y-48994286D01*
X106468571Y-49137143D01*
X106539999Y-49280000D01*
X106611428Y-49351429D01*
X106754285Y-49422857D01*
X107254285Y-49422857D01*
X105754285Y-49637143D02*
X104611428Y-49637143D01*
X103897142Y-50208571D02*
X103897142Y-48708571D01*
X103254285Y-50208571D02*
X103254285Y-49422857D01*
X103325714Y-49280000D01*
X103468571Y-49208571D01*
X103682856Y-49208571D01*
X103825714Y-49280000D01*
X103897142Y-49351429D01*
X102539999Y-50208571D02*
X102539999Y-49208571D01*
X102539999Y-48708571D02*
X102611428Y-48780000D01*
X102539999Y-48851429D01*
X102468571Y-48780000D01*
X102539999Y-48708571D01*
X102539999Y-48851429D01*
X101182856Y-49208571D02*
X101182856Y-50422857D01*
X101254285Y-50565714D01*
X101325713Y-50637143D01*
X101468570Y-50708571D01*
X101682856Y-50708571D01*
X101825713Y-50637143D01*
X101182856Y-50137143D02*
X101325713Y-50208571D01*
X101611427Y-50208571D01*
X101754285Y-50137143D01*
X101825713Y-50065714D01*
X101897142Y-49922857D01*
X101897142Y-49494286D01*
X101825713Y-49351429D01*
X101754285Y-49280000D01*
X101611427Y-49208571D01*
X101325713Y-49208571D01*
X101182856Y-49280000D01*
X100468570Y-50208571D02*
X100468570Y-48708571D01*
X99825713Y-50208571D02*
X99825713Y-49422857D01*
X99897142Y-49280000D01*
X100039999Y-49208571D01*
X100254284Y-49208571D01*
X100397142Y-49280000D01*
X100468570Y-49351429D01*
X99468570Y-50351429D02*
X98325713Y-50351429D01*
X98111427Y-49208571D02*
X97754284Y-50208571D01*
X97397142Y-49208571D01*
X96611427Y-50208571D02*
X96754285Y-50137143D01*
X96825713Y-50065714D01*
X96897142Y-49922857D01*
X96897142Y-49494286D01*
X96825713Y-49351429D01*
X96754285Y-49280000D01*
X96611427Y-49208571D01*
X96397142Y-49208571D01*
X96254285Y-49280000D01*
X96182856Y-49351429D01*
X96111427Y-49494286D01*
X96111427Y-49922857D01*
X96182856Y-50065714D01*
X96254285Y-50137143D01*
X96397142Y-50208571D01*
X96611427Y-50208571D01*
X95254284Y-50208571D02*
X95397142Y-50137143D01*
X95468570Y-49994286D01*
X95468570Y-48708571D01*
X94897142Y-49208571D02*
X94325713Y-49208571D01*
X94682856Y-48708571D02*
X94682856Y-49994286D01*
X94611428Y-50137143D01*
X94468570Y-50208571D01*
X94325713Y-50208571D01*
X93182856Y-50208571D02*
X93182856Y-49422857D01*
X93254285Y-49280000D01*
X93397142Y-49208571D01*
X93682856Y-49208571D01*
X93825713Y-49280000D01*
X93182856Y-50137143D02*
X93325713Y-50208571D01*
X93682856Y-50208571D01*
X93825713Y-50137143D01*
X93897142Y-49994286D01*
X93897142Y-49851429D01*
X93825713Y-49708571D01*
X93682856Y-49637143D01*
X93325713Y-49637143D01*
X93182856Y-49565714D01*
X91825713Y-49208571D02*
X91825713Y-50422857D01*
X91897142Y-50565714D01*
X91968570Y-50637143D01*
X92111427Y-50708571D01*
X92325713Y-50708571D01*
X92468570Y-50637143D01*
X91825713Y-50137143D02*
X91968570Y-50208571D01*
X92254284Y-50208571D01*
X92397142Y-50137143D01*
X92468570Y-50065714D01*
X92539999Y-49922857D01*
X92539999Y-49494286D01*
X92468570Y-49351429D01*
X92397142Y-49280000D01*
X92254284Y-49208571D01*
X91968570Y-49208571D01*
X91825713Y-49280000D01*
X90539999Y-50137143D02*
X90682856Y-50208571D01*
X90968570Y-50208571D01*
X91111427Y-50137143D01*
X91182856Y-49994286D01*
X91182856Y-49422857D01*
X91111427Y-49280000D01*
X90968570Y-49208571D01*
X90682856Y-49208571D01*
X90539999Y-49280000D01*
X90468570Y-49422857D01*
X90468570Y-49565714D01*
X91182856Y-49708571D01*
X90182856Y-50351429D02*
X89039999Y-50351429D01*
X88825713Y-49208571D02*
X88468570Y-50208571D01*
X88111428Y-49208571D01*
X86754285Y-50208571D02*
X87611428Y-50208571D01*
X87182856Y-50208571D02*
X87182856Y-48708571D01*
X87325713Y-48922857D01*
X87468571Y-49065714D01*
X87611428Y-49137143D01*
M02*
