G04 #@! TF.FileFunction,Legend,Top*
%FSLAX46Y46*%
G04 Gerber Fmt 4.6, Leading zero omitted, Abs format (unit mm)*
G04 Created by KiCad (PCBNEW 4.0.4+e1-6308~48~ubuntu16.04.1-stable) date Thu Dec  1 19:27:38 2016*
%MOMM*%
%LPD*%
G01*
G04 APERTURE LIST*
%ADD10C,0.100000*%
%ADD11C,0.150000*%
G04 APERTURE END LIST*
D10*
D11*
X96520000Y-86360000D02*
G75*
G03X96520000Y-86360000I-3810000J0D01*
G01*
X89670000Y-76490000D02*
X95670000Y-76490000D01*
X95670000Y-80990000D02*
X89670000Y-80990000D01*
X85090000Y-64770000D02*
X85090000Y-110490000D01*
X85090000Y-110490000D02*
X87630000Y-110490000D01*
X87630000Y-110490000D02*
X87630000Y-64770000D01*
X84810000Y-61950000D02*
X84810000Y-63500000D01*
X85090000Y-64770000D02*
X87630000Y-64770000D01*
X87910000Y-63500000D02*
X87910000Y-61950000D01*
X87910000Y-61950000D02*
X84810000Y-61950000D01*
X91440000Y-71120000D02*
X91440000Y-66040000D01*
X91440000Y-66040000D02*
X93980000Y-66040000D01*
X93980000Y-66040000D02*
X93980000Y-71120000D01*
X93980000Y-71120000D02*
X91440000Y-71120000D01*
X92710000Y-71120000D02*
X92710000Y-72390000D01*
X92710000Y-66040000D02*
X92710000Y-64770000D01*
X92543334Y-84907381D02*
X92067143Y-84907381D01*
X92067143Y-83907381D01*
X93400477Y-84907381D02*
X92829048Y-84907381D01*
X93114762Y-84907381D02*
X93114762Y-83907381D01*
X93019524Y-84050238D01*
X92924286Y-84145476D01*
X92829048Y-84193095D01*
X92543334Y-77827143D02*
X92495715Y-77874762D01*
X92352858Y-77922381D01*
X92257620Y-77922381D01*
X92114762Y-77874762D01*
X92019524Y-77779524D01*
X91971905Y-77684286D01*
X91924286Y-77493810D01*
X91924286Y-77350952D01*
X91971905Y-77160476D01*
X92019524Y-77065238D01*
X92114762Y-76970000D01*
X92257620Y-76922381D01*
X92352858Y-76922381D01*
X92495715Y-76970000D01*
X92543334Y-77017619D01*
X93495715Y-77922381D02*
X92924286Y-77922381D01*
X93210000Y-77922381D02*
X93210000Y-76922381D01*
X93114762Y-77065238D01*
X93019524Y-77160476D01*
X92924286Y-77208095D01*
X89431905Y-63317381D02*
X89431905Y-62317381D01*
X89812858Y-62317381D01*
X89908096Y-62365000D01*
X89955715Y-62412619D01*
X90003334Y-62507857D01*
X90003334Y-62650714D01*
X89955715Y-62745952D01*
X89908096Y-62793571D01*
X89812858Y-62841190D01*
X89431905Y-62841190D01*
X90955715Y-63317381D02*
X90384286Y-63317381D01*
X90670000Y-63317381D02*
X90670000Y-62317381D01*
X90574762Y-62460238D01*
X90479524Y-62555476D01*
X90384286Y-62603095D01*
X85598096Y-60460000D02*
X85502858Y-60412381D01*
X85360001Y-60412381D01*
X85217143Y-60460000D01*
X85121905Y-60555238D01*
X85074286Y-60650476D01*
X85026667Y-60840952D01*
X85026667Y-60983810D01*
X85074286Y-61174286D01*
X85121905Y-61269524D01*
X85217143Y-61364762D01*
X85360001Y-61412381D01*
X85455239Y-61412381D01*
X85598096Y-61364762D01*
X85645715Y-61317143D01*
X85645715Y-60983810D01*
X85455239Y-60983810D01*
X86074286Y-61412381D02*
X86074286Y-60412381D01*
X86645715Y-61412381D01*
X86645715Y-60412381D01*
X87121905Y-61412381D02*
X87121905Y-60412381D01*
X87360000Y-60412381D01*
X87502858Y-60460000D01*
X87598096Y-60555238D01*
X87645715Y-60650476D01*
X87693334Y-60840952D01*
X87693334Y-60983810D01*
X87645715Y-61174286D01*
X87598096Y-61269524D01*
X87502858Y-61364762D01*
X87360000Y-61412381D01*
X87121905Y-61412381D01*
X93162381Y-68746666D02*
X92686190Y-69080000D01*
X93162381Y-69318095D02*
X92162381Y-69318095D01*
X92162381Y-68937142D01*
X92210000Y-68841904D01*
X92257619Y-68794285D01*
X92352857Y-68746666D01*
X92495714Y-68746666D01*
X92590952Y-68794285D01*
X92638571Y-68841904D01*
X92686190Y-68937142D01*
X92686190Y-69318095D01*
X93162381Y-67794285D02*
X93162381Y-68365714D01*
X93162381Y-68080000D02*
X92162381Y-68080000D01*
X92305238Y-68175238D01*
X92400476Y-68270476D01*
X92448095Y-68365714D01*
M02*
