M48
;DRILL file {KiCad 4.0.4+e1-6308~48~ubuntu16.04.1-stable} date Tue Nov 29 17:47:36 2016
;FORMAT={-:-/ absolute / inch / decimal}
FMAT,2
INCH,TZ
T1C0.028
T2C0.035
T3C0.039
T4C0.040
%
G90
G05
M72
T1
X5.3Y-4.7001
X5.7Y-4.7001
T2
X5.7Y-4.1531
X5.7Y-4.35
T3
X5.4Y-4.15
X5.4Y-4.55
T4
X5.15Y-4.15
X5.15Y-4.25
X5.15Y-4.35
X5.15Y-4.45
X5.15Y-4.55
X5.15Y-4.65
X5.15Y-4.75
X5.15Y-4.85
X5.15Y-4.95
X5.15Y-5.05
X5.15Y-5.15
X5.15Y-5.25
X5.15Y-5.35
X5.15Y-5.45
X5.15Y-5.55
X5.15Y-5.65
X5.15Y-5.75
X5.15Y-5.85
X5.15Y-5.95
T0
M30
