G04 #@! TF.FileFunction,Copper,L1,Top,Signal*
%FSLAX46Y46*%
G04 Gerber Fmt 4.6, Leading zero omitted, Abs format (unit mm)*
G04 Created by KiCad (PCBNEW 4.0.4+e1-6308~48~ubuntu16.04.1-stable) date Thu Dec  1 13:36:35 2016*
%MOMM*%
%LPD*%
G01*
G04 APERTURE LIST*
%ADD10C,0.100000*%
%ADD11R,2.032000X1.727200*%
%ADD12O,2.032000X1.727200*%
%ADD13R,1.400000X1.400000*%
%ADD14C,1.400000*%
%ADD15C,1.699260*%
%ADD16R,1.699260X1.699260*%
%ADD17C,1.998980*%
%ADD18C,0.250000*%
%ADD19C,0.254000*%
G04 APERTURE END LIST*
D10*
D11*
X130810000Y-105410000D03*
D12*
X130810000Y-107950000D03*
X130810000Y-110490000D03*
X130810000Y-113030000D03*
X130810000Y-115570000D03*
X130810000Y-118110000D03*
X130810000Y-120650000D03*
X130810000Y-123190000D03*
X130810000Y-125730000D03*
X130810000Y-128270000D03*
X130810000Y-130810000D03*
X130810000Y-133350000D03*
X130810000Y-135890000D03*
X130810000Y-138430000D03*
X130810000Y-140970000D03*
X130810000Y-143510000D03*
X130810000Y-146050000D03*
X130810000Y-148590000D03*
X130810000Y-151130000D03*
D13*
X144780000Y-110490000D03*
D14*
X144780000Y-105490000D03*
D15*
X134619480Y-119382540D03*
D16*
X144779480Y-119382540D03*
D17*
X137160000Y-115570000D03*
X137160000Y-105410000D03*
D18*
X144779480Y-119382540D02*
X144779480Y-110490520D01*
X144779480Y-110490520D02*
X144780000Y-110490000D01*
X144779480Y-119382540D02*
X140972540Y-119382540D01*
X140972540Y-119382540D02*
X137160000Y-115570000D01*
X144779480Y-110490520D02*
X144780000Y-110490000D01*
X134619480Y-119382540D02*
X134619480Y-116839480D01*
X134619480Y-116839480D02*
X130810000Y-113030000D01*
D19*
G36*
X146610000Y-152960000D02*
X128980000Y-152960000D01*
X128980000Y-107950000D01*
X129126655Y-107950000D01*
X129240729Y-108523489D01*
X129565585Y-109009670D01*
X129880366Y-109220000D01*
X129565585Y-109430330D01*
X129240729Y-109916511D01*
X129126655Y-110490000D01*
X129240729Y-111063489D01*
X129565585Y-111549670D01*
X129880366Y-111760000D01*
X129565585Y-111970330D01*
X129240729Y-112456511D01*
X129126655Y-113030000D01*
X129240729Y-113603489D01*
X129565585Y-114089670D01*
X129880366Y-114300000D01*
X129565585Y-114510330D01*
X129240729Y-114996511D01*
X129126655Y-115570000D01*
X129240729Y-116143489D01*
X129565585Y-116629670D01*
X129880366Y-116840000D01*
X129565585Y-117050330D01*
X129240729Y-117536511D01*
X129126655Y-118110000D01*
X129240729Y-118683489D01*
X129565585Y-119169670D01*
X129880366Y-119380000D01*
X129565585Y-119590330D01*
X129240729Y-120076511D01*
X129126655Y-120650000D01*
X129240729Y-121223489D01*
X129565585Y-121709670D01*
X129880366Y-121920000D01*
X129565585Y-122130330D01*
X129240729Y-122616511D01*
X129126655Y-123190000D01*
X129240729Y-123763489D01*
X129565585Y-124249670D01*
X129880366Y-124460000D01*
X129565585Y-124670330D01*
X129240729Y-125156511D01*
X129126655Y-125730000D01*
X129240729Y-126303489D01*
X129565585Y-126789670D01*
X129880366Y-127000000D01*
X129565585Y-127210330D01*
X129240729Y-127696511D01*
X129126655Y-128270000D01*
X129240729Y-128843489D01*
X129565585Y-129329670D01*
X129880366Y-129540000D01*
X129565585Y-129750330D01*
X129240729Y-130236511D01*
X129126655Y-130810000D01*
X129240729Y-131383489D01*
X129565585Y-131869670D01*
X129880366Y-132080000D01*
X129565585Y-132290330D01*
X129240729Y-132776511D01*
X129126655Y-133350000D01*
X129240729Y-133923489D01*
X129565585Y-134409670D01*
X129880366Y-134620000D01*
X129565585Y-134830330D01*
X129240729Y-135316511D01*
X129126655Y-135890000D01*
X129240729Y-136463489D01*
X129565585Y-136949670D01*
X129880366Y-137160000D01*
X129565585Y-137370330D01*
X129240729Y-137856511D01*
X129126655Y-138430000D01*
X129240729Y-139003489D01*
X129565585Y-139489670D01*
X129880366Y-139700000D01*
X129565585Y-139910330D01*
X129240729Y-140396511D01*
X129126655Y-140970000D01*
X129240729Y-141543489D01*
X129565585Y-142029670D01*
X129880366Y-142240000D01*
X129565585Y-142450330D01*
X129240729Y-142936511D01*
X129126655Y-143510000D01*
X129240729Y-144083489D01*
X129565585Y-144569670D01*
X129880366Y-144780000D01*
X129565585Y-144990330D01*
X129240729Y-145476511D01*
X129126655Y-146050000D01*
X129240729Y-146623489D01*
X129565585Y-147109670D01*
X129880366Y-147320000D01*
X129565585Y-147530330D01*
X129240729Y-148016511D01*
X129126655Y-148590000D01*
X129240729Y-149163489D01*
X129565585Y-149649670D01*
X129880366Y-149860000D01*
X129565585Y-150070330D01*
X129240729Y-150556511D01*
X129126655Y-151130000D01*
X129240729Y-151703489D01*
X129565585Y-152189670D01*
X130051766Y-152514526D01*
X130625255Y-152628600D01*
X130994745Y-152628600D01*
X131568234Y-152514526D01*
X132054415Y-152189670D01*
X132379271Y-151703489D01*
X132493345Y-151130000D01*
X132379271Y-150556511D01*
X132054415Y-150070330D01*
X131739634Y-149860000D01*
X132054415Y-149649670D01*
X132379271Y-149163489D01*
X132493345Y-148590000D01*
X132379271Y-148016511D01*
X132054415Y-147530330D01*
X131739634Y-147320000D01*
X132054415Y-147109670D01*
X132379271Y-146623489D01*
X132493345Y-146050000D01*
X132379271Y-145476511D01*
X132054415Y-144990330D01*
X131739634Y-144780000D01*
X132054415Y-144569670D01*
X132379271Y-144083489D01*
X132493345Y-143510000D01*
X132379271Y-142936511D01*
X132054415Y-142450330D01*
X131739634Y-142240000D01*
X132054415Y-142029670D01*
X132379271Y-141543489D01*
X132493345Y-140970000D01*
X132379271Y-140396511D01*
X132054415Y-139910330D01*
X131739634Y-139700000D01*
X132054415Y-139489670D01*
X132379271Y-139003489D01*
X132493345Y-138430000D01*
X132379271Y-137856511D01*
X132054415Y-137370330D01*
X131739634Y-137160000D01*
X132054415Y-136949670D01*
X132379271Y-136463489D01*
X132493345Y-135890000D01*
X132379271Y-135316511D01*
X132054415Y-134830330D01*
X131739634Y-134620000D01*
X132054415Y-134409670D01*
X132379271Y-133923489D01*
X132493345Y-133350000D01*
X132379271Y-132776511D01*
X132054415Y-132290330D01*
X131739634Y-132080000D01*
X132054415Y-131869670D01*
X132379271Y-131383489D01*
X132493345Y-130810000D01*
X132379271Y-130236511D01*
X132054415Y-129750330D01*
X131739634Y-129540000D01*
X132054415Y-129329670D01*
X132379271Y-128843489D01*
X132493345Y-128270000D01*
X132379271Y-127696511D01*
X132054415Y-127210330D01*
X131739634Y-127000000D01*
X132054415Y-126789670D01*
X132379271Y-126303489D01*
X132493345Y-125730000D01*
X132379271Y-125156511D01*
X132054415Y-124670330D01*
X131739634Y-124460000D01*
X132054415Y-124249670D01*
X132379271Y-123763489D01*
X132493345Y-123190000D01*
X132379271Y-122616511D01*
X132054415Y-122130330D01*
X131739634Y-121920000D01*
X132054415Y-121709670D01*
X132379271Y-121223489D01*
X132493345Y-120650000D01*
X132379271Y-120076511D01*
X132054415Y-119590330D01*
X131739634Y-119380000D01*
X132054415Y-119169670D01*
X132379271Y-118683489D01*
X132493345Y-118110000D01*
X132379271Y-117536511D01*
X132054415Y-117050330D01*
X131739634Y-116840000D01*
X132054415Y-116629670D01*
X132379271Y-116143489D01*
X132457152Y-115751954D01*
X133859480Y-117154282D01*
X133859480Y-118090193D01*
X133779603Y-118123198D01*
X133361606Y-118540466D01*
X133135108Y-119085933D01*
X133134592Y-119676556D01*
X133360138Y-120222417D01*
X133777406Y-120640414D01*
X134322873Y-120866912D01*
X134913496Y-120867428D01*
X135459357Y-120641882D01*
X135877354Y-120224614D01*
X136103852Y-119679147D01*
X136104368Y-119088524D01*
X135878822Y-118542663D01*
X135461554Y-118124666D01*
X135379480Y-118090586D01*
X135379480Y-116839480D01*
X135321628Y-116548641D01*
X135321628Y-116548640D01*
X135156881Y-116302079D01*
X134748496Y-115893694D01*
X135525226Y-115893694D01*
X135773538Y-116494655D01*
X136232927Y-116954846D01*
X136833453Y-117204206D01*
X137483694Y-117204774D01*
X137650889Y-117135691D01*
X140435139Y-119919941D01*
X140681701Y-120084688D01*
X140972540Y-120142540D01*
X143282410Y-120142540D01*
X143282410Y-120232170D01*
X143326688Y-120467487D01*
X143465760Y-120683611D01*
X143677960Y-120828601D01*
X143929850Y-120879610D01*
X145629110Y-120879610D01*
X145864427Y-120835332D01*
X146080551Y-120696260D01*
X146225541Y-120484060D01*
X146276550Y-120232170D01*
X146276550Y-118532910D01*
X146232272Y-118297593D01*
X146093200Y-118081469D01*
X145881000Y-117936479D01*
X145629110Y-117885470D01*
X145539480Y-117885470D01*
X145539480Y-111826248D01*
X145715317Y-111793162D01*
X145931441Y-111654090D01*
X146076431Y-111441890D01*
X146127440Y-111190000D01*
X146127440Y-109790000D01*
X146083162Y-109554683D01*
X145944090Y-109338559D01*
X145731890Y-109193569D01*
X145480000Y-109142560D01*
X144080000Y-109142560D01*
X143844683Y-109186838D01*
X143628559Y-109325910D01*
X143483569Y-109538110D01*
X143432560Y-109790000D01*
X143432560Y-111190000D01*
X143476838Y-111425317D01*
X143615910Y-111641441D01*
X143828110Y-111786431D01*
X144019480Y-111825184D01*
X144019480Y-117885470D01*
X143929850Y-117885470D01*
X143694533Y-117929748D01*
X143478409Y-118068820D01*
X143333419Y-118281020D01*
X143282410Y-118532910D01*
X143282410Y-118622540D01*
X141287342Y-118622540D01*
X138725885Y-116061083D01*
X138794206Y-115896547D01*
X138794774Y-115246306D01*
X138546462Y-114645345D01*
X138087073Y-114185154D01*
X137486547Y-113935794D01*
X136836306Y-113935226D01*
X136235345Y-114183538D01*
X135775154Y-114642927D01*
X135525794Y-115243453D01*
X135525226Y-115893694D01*
X134748496Y-115893694D01*
X132392381Y-113537579D01*
X132493345Y-113030000D01*
X132379271Y-112456511D01*
X132054415Y-111970330D01*
X131739634Y-111760000D01*
X132054415Y-111549670D01*
X132379271Y-111063489D01*
X132493345Y-110490000D01*
X132379271Y-109916511D01*
X132054415Y-109430330D01*
X131739634Y-109220000D01*
X132054415Y-109009670D01*
X132379271Y-108523489D01*
X132493345Y-107950000D01*
X132379271Y-107376511D01*
X132054415Y-106890330D01*
X132032220Y-106875500D01*
X132185699Y-106811927D01*
X132364327Y-106633298D01*
X132393792Y-106562163D01*
X136187443Y-106562163D01*
X136286042Y-106828965D01*
X136895582Y-107055401D01*
X137545377Y-107031341D01*
X138033958Y-106828965D01*
X138132557Y-106562163D01*
X137995670Y-106425275D01*
X144024331Y-106425275D01*
X144086169Y-106661042D01*
X144587122Y-106837419D01*
X145117440Y-106808664D01*
X145473831Y-106661042D01*
X145535669Y-106425275D01*
X144780000Y-105669605D01*
X144024331Y-106425275D01*
X137995670Y-106425275D01*
X137160000Y-105589605D01*
X136187443Y-106562163D01*
X132393792Y-106562163D01*
X132461000Y-106399909D01*
X132461000Y-105695750D01*
X132302250Y-105537000D01*
X130937000Y-105537000D01*
X130937000Y-105557000D01*
X130683000Y-105557000D01*
X130683000Y-105537000D01*
X129317750Y-105537000D01*
X129159000Y-105695750D01*
X129159000Y-106399909D01*
X129255673Y-106633298D01*
X129434301Y-106811927D01*
X129587780Y-106875500D01*
X129565585Y-106890330D01*
X129240729Y-107376511D01*
X129126655Y-107950000D01*
X128980000Y-107950000D01*
X128980000Y-104420091D01*
X129159000Y-104420091D01*
X129159000Y-105124250D01*
X129317750Y-105283000D01*
X130683000Y-105283000D01*
X130683000Y-104070150D01*
X130937000Y-104070150D01*
X130937000Y-105283000D01*
X132302250Y-105283000D01*
X132439668Y-105145582D01*
X135514599Y-105145582D01*
X135538659Y-105795377D01*
X135741035Y-106283958D01*
X136007837Y-106382557D01*
X136980395Y-105410000D01*
X137339605Y-105410000D01*
X138312163Y-106382557D01*
X138578965Y-106283958D01*
X138805401Y-105674418D01*
X138791431Y-105297122D01*
X143432581Y-105297122D01*
X143461336Y-105827440D01*
X143608958Y-106183831D01*
X143844725Y-106245669D01*
X144600395Y-105490000D01*
X144959605Y-105490000D01*
X145715275Y-106245669D01*
X145951042Y-106183831D01*
X146127419Y-105682878D01*
X146098664Y-105152560D01*
X145951042Y-104796169D01*
X145715275Y-104734331D01*
X144959605Y-105490000D01*
X144600395Y-105490000D01*
X143844725Y-104734331D01*
X143608958Y-104796169D01*
X143432581Y-105297122D01*
X138791431Y-105297122D01*
X138781341Y-105024623D01*
X138586704Y-104554725D01*
X144024331Y-104554725D01*
X144780000Y-105310395D01*
X145535669Y-104554725D01*
X145473831Y-104318958D01*
X144972878Y-104142581D01*
X144442560Y-104171336D01*
X144086169Y-104318958D01*
X144024331Y-104554725D01*
X138586704Y-104554725D01*
X138578965Y-104536042D01*
X138312163Y-104437443D01*
X137339605Y-105410000D01*
X136980395Y-105410000D01*
X136007837Y-104437443D01*
X135741035Y-104536042D01*
X135514599Y-105145582D01*
X132439668Y-105145582D01*
X132461000Y-105124250D01*
X132461000Y-104420091D01*
X132393793Y-104257837D01*
X136187443Y-104257837D01*
X137160000Y-105230395D01*
X138132557Y-104257837D01*
X138033958Y-103991035D01*
X137424418Y-103764599D01*
X136774623Y-103788659D01*
X136286042Y-103991035D01*
X136187443Y-104257837D01*
X132393793Y-104257837D01*
X132364327Y-104186702D01*
X132185699Y-104008073D01*
X131952310Y-103911400D01*
X131095750Y-103911400D01*
X130937000Y-104070150D01*
X130683000Y-104070150D01*
X130524250Y-103911400D01*
X129667690Y-103911400D01*
X129434301Y-104008073D01*
X129255673Y-104186702D01*
X129159000Y-104420091D01*
X128980000Y-104420091D01*
X128980000Y-102310000D01*
X146610000Y-102310000D01*
X146610000Y-152960000D01*
X146610000Y-152960000D01*
G37*
X146610000Y-152960000D02*
X128980000Y-152960000D01*
X128980000Y-107950000D01*
X129126655Y-107950000D01*
X129240729Y-108523489D01*
X129565585Y-109009670D01*
X129880366Y-109220000D01*
X129565585Y-109430330D01*
X129240729Y-109916511D01*
X129126655Y-110490000D01*
X129240729Y-111063489D01*
X129565585Y-111549670D01*
X129880366Y-111760000D01*
X129565585Y-111970330D01*
X129240729Y-112456511D01*
X129126655Y-113030000D01*
X129240729Y-113603489D01*
X129565585Y-114089670D01*
X129880366Y-114300000D01*
X129565585Y-114510330D01*
X129240729Y-114996511D01*
X129126655Y-115570000D01*
X129240729Y-116143489D01*
X129565585Y-116629670D01*
X129880366Y-116840000D01*
X129565585Y-117050330D01*
X129240729Y-117536511D01*
X129126655Y-118110000D01*
X129240729Y-118683489D01*
X129565585Y-119169670D01*
X129880366Y-119380000D01*
X129565585Y-119590330D01*
X129240729Y-120076511D01*
X129126655Y-120650000D01*
X129240729Y-121223489D01*
X129565585Y-121709670D01*
X129880366Y-121920000D01*
X129565585Y-122130330D01*
X129240729Y-122616511D01*
X129126655Y-123190000D01*
X129240729Y-123763489D01*
X129565585Y-124249670D01*
X129880366Y-124460000D01*
X129565585Y-124670330D01*
X129240729Y-125156511D01*
X129126655Y-125730000D01*
X129240729Y-126303489D01*
X129565585Y-126789670D01*
X129880366Y-127000000D01*
X129565585Y-127210330D01*
X129240729Y-127696511D01*
X129126655Y-128270000D01*
X129240729Y-128843489D01*
X129565585Y-129329670D01*
X129880366Y-129540000D01*
X129565585Y-129750330D01*
X129240729Y-130236511D01*
X129126655Y-130810000D01*
X129240729Y-131383489D01*
X129565585Y-131869670D01*
X129880366Y-132080000D01*
X129565585Y-132290330D01*
X129240729Y-132776511D01*
X129126655Y-133350000D01*
X129240729Y-133923489D01*
X129565585Y-134409670D01*
X129880366Y-134620000D01*
X129565585Y-134830330D01*
X129240729Y-135316511D01*
X129126655Y-135890000D01*
X129240729Y-136463489D01*
X129565585Y-136949670D01*
X129880366Y-137160000D01*
X129565585Y-137370330D01*
X129240729Y-137856511D01*
X129126655Y-138430000D01*
X129240729Y-139003489D01*
X129565585Y-139489670D01*
X129880366Y-139700000D01*
X129565585Y-139910330D01*
X129240729Y-140396511D01*
X129126655Y-140970000D01*
X129240729Y-141543489D01*
X129565585Y-142029670D01*
X129880366Y-142240000D01*
X129565585Y-142450330D01*
X129240729Y-142936511D01*
X129126655Y-143510000D01*
X129240729Y-144083489D01*
X129565585Y-144569670D01*
X129880366Y-144780000D01*
X129565585Y-144990330D01*
X129240729Y-145476511D01*
X129126655Y-146050000D01*
X129240729Y-146623489D01*
X129565585Y-147109670D01*
X129880366Y-147320000D01*
X129565585Y-147530330D01*
X129240729Y-148016511D01*
X129126655Y-148590000D01*
X129240729Y-149163489D01*
X129565585Y-149649670D01*
X129880366Y-149860000D01*
X129565585Y-150070330D01*
X129240729Y-150556511D01*
X129126655Y-151130000D01*
X129240729Y-151703489D01*
X129565585Y-152189670D01*
X130051766Y-152514526D01*
X130625255Y-152628600D01*
X130994745Y-152628600D01*
X131568234Y-152514526D01*
X132054415Y-152189670D01*
X132379271Y-151703489D01*
X132493345Y-151130000D01*
X132379271Y-150556511D01*
X132054415Y-150070330D01*
X131739634Y-149860000D01*
X132054415Y-149649670D01*
X132379271Y-149163489D01*
X132493345Y-148590000D01*
X132379271Y-148016511D01*
X132054415Y-147530330D01*
X131739634Y-147320000D01*
X132054415Y-147109670D01*
X132379271Y-146623489D01*
X132493345Y-146050000D01*
X132379271Y-145476511D01*
X132054415Y-144990330D01*
X131739634Y-144780000D01*
X132054415Y-144569670D01*
X132379271Y-144083489D01*
X132493345Y-143510000D01*
X132379271Y-142936511D01*
X132054415Y-142450330D01*
X131739634Y-142240000D01*
X132054415Y-142029670D01*
X132379271Y-141543489D01*
X132493345Y-140970000D01*
X132379271Y-140396511D01*
X132054415Y-139910330D01*
X131739634Y-139700000D01*
X132054415Y-139489670D01*
X132379271Y-139003489D01*
X132493345Y-138430000D01*
X132379271Y-137856511D01*
X132054415Y-137370330D01*
X131739634Y-137160000D01*
X132054415Y-136949670D01*
X132379271Y-136463489D01*
X132493345Y-135890000D01*
X132379271Y-135316511D01*
X132054415Y-134830330D01*
X131739634Y-134620000D01*
X132054415Y-134409670D01*
X132379271Y-133923489D01*
X132493345Y-133350000D01*
X132379271Y-132776511D01*
X132054415Y-132290330D01*
X131739634Y-132080000D01*
X132054415Y-131869670D01*
X132379271Y-131383489D01*
X132493345Y-130810000D01*
X132379271Y-130236511D01*
X132054415Y-129750330D01*
X131739634Y-129540000D01*
X132054415Y-129329670D01*
X132379271Y-128843489D01*
X132493345Y-128270000D01*
X132379271Y-127696511D01*
X132054415Y-127210330D01*
X131739634Y-127000000D01*
X132054415Y-126789670D01*
X132379271Y-126303489D01*
X132493345Y-125730000D01*
X132379271Y-125156511D01*
X132054415Y-124670330D01*
X131739634Y-124460000D01*
X132054415Y-124249670D01*
X132379271Y-123763489D01*
X132493345Y-123190000D01*
X132379271Y-122616511D01*
X132054415Y-122130330D01*
X131739634Y-121920000D01*
X132054415Y-121709670D01*
X132379271Y-121223489D01*
X132493345Y-120650000D01*
X132379271Y-120076511D01*
X132054415Y-119590330D01*
X131739634Y-119380000D01*
X132054415Y-119169670D01*
X132379271Y-118683489D01*
X132493345Y-118110000D01*
X132379271Y-117536511D01*
X132054415Y-117050330D01*
X131739634Y-116840000D01*
X132054415Y-116629670D01*
X132379271Y-116143489D01*
X132457152Y-115751954D01*
X133859480Y-117154282D01*
X133859480Y-118090193D01*
X133779603Y-118123198D01*
X133361606Y-118540466D01*
X133135108Y-119085933D01*
X133134592Y-119676556D01*
X133360138Y-120222417D01*
X133777406Y-120640414D01*
X134322873Y-120866912D01*
X134913496Y-120867428D01*
X135459357Y-120641882D01*
X135877354Y-120224614D01*
X136103852Y-119679147D01*
X136104368Y-119088524D01*
X135878822Y-118542663D01*
X135461554Y-118124666D01*
X135379480Y-118090586D01*
X135379480Y-116839480D01*
X135321628Y-116548641D01*
X135321628Y-116548640D01*
X135156881Y-116302079D01*
X134748496Y-115893694D01*
X135525226Y-115893694D01*
X135773538Y-116494655D01*
X136232927Y-116954846D01*
X136833453Y-117204206D01*
X137483694Y-117204774D01*
X137650889Y-117135691D01*
X140435139Y-119919941D01*
X140681701Y-120084688D01*
X140972540Y-120142540D01*
X143282410Y-120142540D01*
X143282410Y-120232170D01*
X143326688Y-120467487D01*
X143465760Y-120683611D01*
X143677960Y-120828601D01*
X143929850Y-120879610D01*
X145629110Y-120879610D01*
X145864427Y-120835332D01*
X146080551Y-120696260D01*
X146225541Y-120484060D01*
X146276550Y-120232170D01*
X146276550Y-118532910D01*
X146232272Y-118297593D01*
X146093200Y-118081469D01*
X145881000Y-117936479D01*
X145629110Y-117885470D01*
X145539480Y-117885470D01*
X145539480Y-111826248D01*
X145715317Y-111793162D01*
X145931441Y-111654090D01*
X146076431Y-111441890D01*
X146127440Y-111190000D01*
X146127440Y-109790000D01*
X146083162Y-109554683D01*
X145944090Y-109338559D01*
X145731890Y-109193569D01*
X145480000Y-109142560D01*
X144080000Y-109142560D01*
X143844683Y-109186838D01*
X143628559Y-109325910D01*
X143483569Y-109538110D01*
X143432560Y-109790000D01*
X143432560Y-111190000D01*
X143476838Y-111425317D01*
X143615910Y-111641441D01*
X143828110Y-111786431D01*
X144019480Y-111825184D01*
X144019480Y-117885470D01*
X143929850Y-117885470D01*
X143694533Y-117929748D01*
X143478409Y-118068820D01*
X143333419Y-118281020D01*
X143282410Y-118532910D01*
X143282410Y-118622540D01*
X141287342Y-118622540D01*
X138725885Y-116061083D01*
X138794206Y-115896547D01*
X138794774Y-115246306D01*
X138546462Y-114645345D01*
X138087073Y-114185154D01*
X137486547Y-113935794D01*
X136836306Y-113935226D01*
X136235345Y-114183538D01*
X135775154Y-114642927D01*
X135525794Y-115243453D01*
X135525226Y-115893694D01*
X134748496Y-115893694D01*
X132392381Y-113537579D01*
X132493345Y-113030000D01*
X132379271Y-112456511D01*
X132054415Y-111970330D01*
X131739634Y-111760000D01*
X132054415Y-111549670D01*
X132379271Y-111063489D01*
X132493345Y-110490000D01*
X132379271Y-109916511D01*
X132054415Y-109430330D01*
X131739634Y-109220000D01*
X132054415Y-109009670D01*
X132379271Y-108523489D01*
X132493345Y-107950000D01*
X132379271Y-107376511D01*
X132054415Y-106890330D01*
X132032220Y-106875500D01*
X132185699Y-106811927D01*
X132364327Y-106633298D01*
X132393792Y-106562163D01*
X136187443Y-106562163D01*
X136286042Y-106828965D01*
X136895582Y-107055401D01*
X137545377Y-107031341D01*
X138033958Y-106828965D01*
X138132557Y-106562163D01*
X137995670Y-106425275D01*
X144024331Y-106425275D01*
X144086169Y-106661042D01*
X144587122Y-106837419D01*
X145117440Y-106808664D01*
X145473831Y-106661042D01*
X145535669Y-106425275D01*
X144780000Y-105669605D01*
X144024331Y-106425275D01*
X137995670Y-106425275D01*
X137160000Y-105589605D01*
X136187443Y-106562163D01*
X132393792Y-106562163D01*
X132461000Y-106399909D01*
X132461000Y-105695750D01*
X132302250Y-105537000D01*
X130937000Y-105537000D01*
X130937000Y-105557000D01*
X130683000Y-105557000D01*
X130683000Y-105537000D01*
X129317750Y-105537000D01*
X129159000Y-105695750D01*
X129159000Y-106399909D01*
X129255673Y-106633298D01*
X129434301Y-106811927D01*
X129587780Y-106875500D01*
X129565585Y-106890330D01*
X129240729Y-107376511D01*
X129126655Y-107950000D01*
X128980000Y-107950000D01*
X128980000Y-104420091D01*
X129159000Y-104420091D01*
X129159000Y-105124250D01*
X129317750Y-105283000D01*
X130683000Y-105283000D01*
X130683000Y-104070150D01*
X130937000Y-104070150D01*
X130937000Y-105283000D01*
X132302250Y-105283000D01*
X132439668Y-105145582D01*
X135514599Y-105145582D01*
X135538659Y-105795377D01*
X135741035Y-106283958D01*
X136007837Y-106382557D01*
X136980395Y-105410000D01*
X137339605Y-105410000D01*
X138312163Y-106382557D01*
X138578965Y-106283958D01*
X138805401Y-105674418D01*
X138791431Y-105297122D01*
X143432581Y-105297122D01*
X143461336Y-105827440D01*
X143608958Y-106183831D01*
X143844725Y-106245669D01*
X144600395Y-105490000D01*
X144959605Y-105490000D01*
X145715275Y-106245669D01*
X145951042Y-106183831D01*
X146127419Y-105682878D01*
X146098664Y-105152560D01*
X145951042Y-104796169D01*
X145715275Y-104734331D01*
X144959605Y-105490000D01*
X144600395Y-105490000D01*
X143844725Y-104734331D01*
X143608958Y-104796169D01*
X143432581Y-105297122D01*
X138791431Y-105297122D01*
X138781341Y-105024623D01*
X138586704Y-104554725D01*
X144024331Y-104554725D01*
X144780000Y-105310395D01*
X145535669Y-104554725D01*
X145473831Y-104318958D01*
X144972878Y-104142581D01*
X144442560Y-104171336D01*
X144086169Y-104318958D01*
X144024331Y-104554725D01*
X138586704Y-104554725D01*
X138578965Y-104536042D01*
X138312163Y-104437443D01*
X137339605Y-105410000D01*
X136980395Y-105410000D01*
X136007837Y-104437443D01*
X135741035Y-104536042D01*
X135514599Y-105145582D01*
X132439668Y-105145582D01*
X132461000Y-105124250D01*
X132461000Y-104420091D01*
X132393793Y-104257837D01*
X136187443Y-104257837D01*
X137160000Y-105230395D01*
X138132557Y-104257837D01*
X138033958Y-103991035D01*
X137424418Y-103764599D01*
X136774623Y-103788659D01*
X136286042Y-103991035D01*
X136187443Y-104257837D01*
X132393793Y-104257837D01*
X132364327Y-104186702D01*
X132185699Y-104008073D01*
X131952310Y-103911400D01*
X131095750Y-103911400D01*
X130937000Y-104070150D01*
X130683000Y-104070150D01*
X130524250Y-103911400D01*
X129667690Y-103911400D01*
X129434301Y-104008073D01*
X129255673Y-104186702D01*
X129159000Y-104420091D01*
X128980000Y-104420091D01*
X128980000Y-102310000D01*
X146610000Y-102310000D01*
X146610000Y-152960000D01*
M02*
