G04 #@! TF.FileFunction,Soldermask,Top*
%FSLAX46Y46*%
G04 Gerber Fmt 4.6, Leading zero omitted, Abs format (unit mm)*
G04 Created by KiCad (PCBNEW 4.0.4+e1-6308~48~ubuntu16.04.1-stable) date Fri Dec  2 12:58:12 2016*
%MOMM*%
%LPD*%
G01*
G04 APERTURE LIST*
%ADD10C,0.100000*%
%ADD11O,2.000000X2.000000*%
%ADD12C,2.099260*%
%ADD13R,2.099260X2.099260*%
%ADD14C,1.700000*%
%ADD15R,1.700000X1.700000*%
%ADD16C,2.398980*%
%ADD17C,1.600000*%
%ADD18R,2.432000X2.127200*%
%ADD19O,2.432000X2.127200*%
%ADD20O,2.899360X1.901140*%
%ADD21O,1.901140X2.899360*%
%ADD22R,1.800000X1.800000*%
%ADD23C,1.800000*%
G04 APERTURE END LIST*
D10*
D11*
X48895000Y-67310000D03*
X48895000Y-69850000D03*
X48895000Y-72390000D03*
X48895000Y-74930000D03*
X56515000Y-74930000D03*
X56515000Y-72390000D03*
X56515000Y-69850000D03*
X56515000Y-67310000D03*
D12*
X37467540Y-71755520D03*
D13*
X37467540Y-61595520D03*
D12*
X83185520Y-88897460D03*
D13*
X73025520Y-88897460D03*
D12*
X66675520Y-59052460D03*
D13*
X56515520Y-59052460D03*
D12*
X66675520Y-62227460D03*
D13*
X56515520Y-62227460D03*
D14*
X41600000Y-54610000D03*
D15*
X38100000Y-54610000D03*
D14*
X41600000Y-78105000D03*
D15*
X38100000Y-78105000D03*
D14*
X54300000Y-86360000D03*
D15*
X50800000Y-86360000D03*
D14*
X69540000Y-69215000D03*
D15*
X66040000Y-69215000D03*
D14*
X66365000Y-46990000D03*
D15*
X62865000Y-46990000D03*
D14*
X72715000Y-53975000D03*
D15*
X69215000Y-53975000D03*
D14*
X77160000Y-62865000D03*
D15*
X73660000Y-62865000D03*
D14*
X82240000Y-70485000D03*
D15*
X78740000Y-70485000D03*
D16*
X60960000Y-75565000D03*
X60960000Y-65405000D03*
X58420000Y-88900000D03*
X68580000Y-88900000D03*
X47625000Y-55245000D03*
X57785000Y-55245000D03*
X47625000Y-51435000D03*
X57785000Y-51435000D03*
X46355000Y-80010000D03*
X56515000Y-80010000D03*
D17*
X41275000Y-46990000D03*
X42545000Y-45720000D03*
X41275000Y-44450000D03*
X50165000Y-45720000D03*
X48895000Y-44450000D03*
X47625000Y-45720000D03*
X57150000Y-45720000D03*
X55880000Y-44450000D03*
X54610000Y-45720000D03*
D18*
X33020000Y-44450000D03*
D19*
X33020000Y-46990000D03*
X33020000Y-49530000D03*
X33020000Y-52070000D03*
X33020000Y-54610000D03*
X33020000Y-57150000D03*
X33020000Y-59690000D03*
X33020000Y-62230000D03*
X33020000Y-64770000D03*
X33020000Y-67310000D03*
X33020000Y-69850000D03*
X33020000Y-72390000D03*
X33020000Y-74930000D03*
X33020000Y-77470000D03*
X33020000Y-80010000D03*
X33020000Y-82550000D03*
X33020000Y-85090000D03*
X33020000Y-87630000D03*
X33020000Y-90170000D03*
D20*
X73660000Y-80645000D03*
X73660000Y-78105000D03*
X73660000Y-83185000D03*
X80645000Y-80645000D03*
X80645000Y-78105000D03*
X80645000Y-83185000D03*
X66675000Y-80645000D03*
X66675000Y-78105000D03*
X66675000Y-83185000D03*
D21*
X41275000Y-87630000D03*
X38735000Y-87630000D03*
X43815000Y-87630000D03*
D20*
X41275000Y-66040000D03*
X41275000Y-63500000D03*
X41275000Y-68580000D03*
D22*
X47625000Y-60325000D03*
D23*
X52625000Y-60325000D03*
D22*
X60960000Y-84455000D03*
D23*
X60960000Y-79455000D03*
M02*
