M48
INCH,TZ
T1C0.016
T2C0.028
T3C0.031
T4C0.035
T5C0.039
T6C0.040
%
G90
G05
T1
X16000Y-23500
X19000Y-22750
T2
X14751Y-24250
X14751Y-28250
X22250Y-23249
X22250Y-24499
X26250Y-23249
X26250Y-24499
X28750Y-34999
X32750Y-34999
T3
X15000Y-21500
X15000Y-30750
X16250Y-17500
X16250Y-18500
X16378Y-21500
X16378Y-30750
X16750Y-18000
X18750Y-18000
X19250Y-17500
X19250Y-26500
X19250Y-27500
X19250Y-28500
X19250Y-29500
X19750Y-18000
X20000Y-34000
X21378Y-34000
X21500Y-18000
X22000Y-17500
X22250Y-26500
X22250Y-27500
X22250Y-28500
X22250Y-29500
X22500Y-18000
X24750Y-18500
X26000Y-27250
X26128Y-18500
X27250Y-21250
X27378Y-27250
X28628Y-21250
X29000Y-24750
X30378Y-24750
X31000Y-27750
X32378Y-27750
T4
X18750Y-23750
X20719Y-23750
X24000Y-31281
X24000Y-33250
T5
X15250Y-34500
X16250Y-25000
X16250Y-26000
X16250Y-27000
X16250Y-34500
X17250Y-34500
X18250Y-31500
X18750Y-20250
X18750Y-21750
X22250Y-31500
X22750Y-20250
X22750Y-21750
X23000Y-35000
X24000Y-25750
X24000Y-29750
X26250Y-30750
X26250Y-31750
X26250Y-32750
X27000Y-35000
X29000Y-30750
X29000Y-31750
X29000Y-32750
X31750Y-30750
X31750Y-31750
X31750Y-32750
T6
X13000Y-17500
X13000Y-18500
X13000Y-19500
X13000Y-20500
X13000Y-21500
X13000Y-22500
X13000Y-23500
X13000Y-24500
X13000Y-25500
X13000Y-26500
X13000Y-27500
X13000Y-28500
X13000Y-29500
X13000Y-30500
X13000Y-31500
X13000Y-32500
X13000Y-33500
X13000Y-34500
X13000Y-35500
T0
M30
