G04 #@! TF.FileFunction,Legend,Top*
%FSLAX46Y46*%
G04 Gerber Fmt 4.6, Leading zero omitted, Abs format (unit mm)*
G04 Created by KiCad (PCBNEW 4.0.4+e1-6308~48~ubuntu16.04.1-stable) date Mon Oct 24 16:47:08 2016*
%MOMM*%
%LPD*%
G01*
G04 APERTURE LIST*
%ADD10C,0.100000*%
%ADD11C,0.150000*%
G04 APERTURE END LIST*
D10*
D11*
X73660000Y-110430000D02*
X73660000Y-101600000D01*
X71120000Y-110430000D02*
X73660000Y-110430000D01*
X71120000Y-101600000D02*
X71120000Y-110430000D01*
X71120000Y-101600000D02*
X73660000Y-101600000D01*
X68580000Y-101600000D02*
X71120000Y-101600000D01*
X69850000Y-98930000D02*
X68300000Y-98930000D01*
X68300000Y-98930000D02*
X68300000Y-100330000D01*
X68580000Y-101600000D02*
X68580000Y-110430000D01*
X68580000Y-110430000D02*
X71120000Y-110430000D01*
X71120000Y-110430000D02*
X71120000Y-101600000D01*
X89535000Y-77470000D02*
X89535000Y-78486000D01*
X89535000Y-72390000D02*
X89535000Y-74930000D01*
X89535000Y-68834000D02*
X89535000Y-69850000D01*
X85598000Y-77216000D02*
X86868000Y-77216000D01*
X86347300Y-76428600D02*
X86093300Y-76466700D01*
X86093300Y-76466700D02*
X85813900Y-76644500D01*
X85813900Y-76644500D02*
X85598000Y-76962000D01*
X85598000Y-76962000D02*
X85585300Y-77406500D01*
X85585300Y-77406500D02*
X85788500Y-77762100D01*
X85788500Y-77762100D02*
X86080600Y-77939900D01*
X86080600Y-77939900D02*
X86398100Y-77990700D01*
X86398100Y-77990700D02*
X86804500Y-77889100D01*
X86804500Y-77889100D02*
X87058500Y-77546200D01*
X87058500Y-77546200D02*
X87147400Y-77368400D01*
X86360000Y-78486000D02*
X85090000Y-78486000D01*
X85090000Y-78486000D02*
X85090000Y-68834000D01*
X85090000Y-68834000D02*
X90170000Y-68834000D01*
X90170000Y-78486000D02*
X87630000Y-78486000D01*
X87630000Y-78486000D02*
X86360000Y-78486000D01*
X58420000Y-55880000D02*
X58420000Y-101600000D01*
X58420000Y-101600000D02*
X60960000Y-101600000D01*
X60960000Y-101600000D02*
X60960000Y-55880000D01*
X58140000Y-53060000D02*
X58140000Y-54610000D01*
X58420000Y-55880000D02*
X60960000Y-55880000D01*
X61240000Y-54610000D02*
X61240000Y-53060000D01*
X61240000Y-53060000D02*
X58140000Y-53060000D01*
X77470000Y-97790000D02*
X87630000Y-97790000D01*
X87630000Y-97790000D02*
X87630000Y-102870000D01*
X87630000Y-102870000D02*
X77470000Y-102870000D01*
X77470000Y-102870000D02*
X77470000Y-97790000D01*
X62230000Y-53340000D02*
X82550000Y-53340000D01*
X82550000Y-53340000D02*
X82550000Y-86360000D01*
X82550000Y-86360000D02*
X62230000Y-86360000D01*
X62230000Y-86360000D02*
X62230000Y-53340000D01*
X90359000Y-90725000D02*
X82361000Y-90725000D01*
X90354000Y-90865000D02*
X82366000Y-90865000D01*
X90344000Y-91005000D02*
X82376000Y-91005000D01*
X90329000Y-91145000D02*
X82391000Y-91145000D01*
X90309000Y-91285000D02*
X82411000Y-91285000D01*
X90284000Y-91425000D02*
X86582000Y-91425000D01*
X86138000Y-91425000D02*
X82436000Y-91425000D01*
X90254000Y-91565000D02*
X86910000Y-91565000D01*
X85810000Y-91565000D02*
X82466000Y-91565000D01*
X90218000Y-91705000D02*
X87079000Y-91705000D01*
X85641000Y-91705000D02*
X82502000Y-91705000D01*
X90177000Y-91845000D02*
X87192000Y-91845000D01*
X85528000Y-91845000D02*
X82543000Y-91845000D01*
X90131000Y-91985000D02*
X87270000Y-91985000D01*
X85450000Y-91985000D02*
X82589000Y-91985000D01*
X90078000Y-92125000D02*
X87321000Y-92125000D01*
X85399000Y-92125000D02*
X82642000Y-92125000D01*
X90019000Y-92265000D02*
X87351000Y-92265000D01*
X85369000Y-92265000D02*
X82701000Y-92265000D01*
X89954000Y-92405000D02*
X87360000Y-92405000D01*
X85360000Y-92405000D02*
X82766000Y-92405000D01*
X89883000Y-92545000D02*
X87349000Y-92545000D01*
X85371000Y-92545000D02*
X82837000Y-92545000D01*
X89804000Y-92685000D02*
X87319000Y-92685000D01*
X85401000Y-92685000D02*
X82916000Y-92685000D01*
X89717000Y-92825000D02*
X87265000Y-92825000D01*
X85455000Y-92825000D02*
X83003000Y-92825000D01*
X89622000Y-92965000D02*
X87185000Y-92965000D01*
X85535000Y-92965000D02*
X83098000Y-92965000D01*
X89518000Y-93105000D02*
X87069000Y-93105000D01*
X85651000Y-93105000D02*
X83202000Y-93105000D01*
X89404000Y-93245000D02*
X86895000Y-93245000D01*
X85825000Y-93245000D02*
X83316000Y-93245000D01*
X89279000Y-93385000D02*
X86533000Y-93385000D01*
X86187000Y-93385000D02*
X83441000Y-93385000D01*
X89141000Y-93525000D02*
X83579000Y-93525000D01*
X88989000Y-93665000D02*
X83731000Y-93665000D01*
X88819000Y-93805000D02*
X83901000Y-93805000D01*
X88628000Y-93945000D02*
X84092000Y-93945000D01*
X88410000Y-94085000D02*
X84310000Y-94085000D01*
X88154000Y-94225000D02*
X84566000Y-94225000D01*
X87843000Y-94365000D02*
X84877000Y-94365000D01*
X87427000Y-94505000D02*
X85293000Y-94505000D01*
X86560000Y-94645000D02*
X86160000Y-94645000D01*
X87360000Y-92400000D02*
G75*
G03X87360000Y-92400000I-1000000J0D01*
G01*
X90397500Y-90650000D02*
G75*
G03X90397500Y-90650000I-4037500J0D01*
G01*
X65936905Y-102052381D02*
X65936905Y-101052381D01*
X66317858Y-101052381D01*
X66413096Y-101100000D01*
X66460715Y-101147619D01*
X66508334Y-101242857D01*
X66508334Y-101385714D01*
X66460715Y-101480952D01*
X66413096Y-101528571D01*
X66317858Y-101576190D01*
X65936905Y-101576190D01*
X66889286Y-101147619D02*
X66936905Y-101100000D01*
X67032143Y-101052381D01*
X67270239Y-101052381D01*
X67365477Y-101100000D01*
X67413096Y-101147619D01*
X67460715Y-101242857D01*
X67460715Y-101338095D01*
X67413096Y-101480952D01*
X66841667Y-102052381D01*
X67460715Y-102052381D01*
X88939762Y-67762381D02*
X88606428Y-67286190D01*
X88368333Y-67762381D02*
X88368333Y-66762381D01*
X88749286Y-66762381D01*
X88844524Y-66810000D01*
X88892143Y-66857619D01*
X88939762Y-66952857D01*
X88939762Y-67095714D01*
X88892143Y-67190952D01*
X88844524Y-67238571D01*
X88749286Y-67286190D01*
X88368333Y-67286190D01*
X89225476Y-66762381D02*
X89558809Y-67762381D01*
X89892143Y-66762381D01*
X90749286Y-67762381D02*
X90177857Y-67762381D01*
X90463571Y-67762381D02*
X90463571Y-66762381D01*
X90368333Y-66905238D01*
X90273095Y-67000476D01*
X90177857Y-67048095D01*
X61491905Y-55062381D02*
X61491905Y-54062381D01*
X61872858Y-54062381D01*
X61968096Y-54110000D01*
X62015715Y-54157619D01*
X62063334Y-54252857D01*
X62063334Y-54395714D01*
X62015715Y-54490952D01*
X61968096Y-54538571D01*
X61872858Y-54586190D01*
X61491905Y-54586190D01*
X63015715Y-55062381D02*
X62444286Y-55062381D01*
X62730000Y-55062381D02*
X62730000Y-54062381D01*
X62634762Y-54205238D01*
X62539524Y-54300476D01*
X62444286Y-54348095D01*
X58928096Y-51570000D02*
X58832858Y-51522381D01*
X58690001Y-51522381D01*
X58547143Y-51570000D01*
X58451905Y-51665238D01*
X58404286Y-51760476D01*
X58356667Y-51950952D01*
X58356667Y-52093810D01*
X58404286Y-52284286D01*
X58451905Y-52379524D01*
X58547143Y-52474762D01*
X58690001Y-52522381D01*
X58785239Y-52522381D01*
X58928096Y-52474762D01*
X58975715Y-52427143D01*
X58975715Y-52093810D01*
X58785239Y-52093810D01*
X59404286Y-52522381D02*
X59404286Y-51522381D01*
X59975715Y-52522381D01*
X59975715Y-51522381D01*
X60451905Y-52522381D02*
X60451905Y-51522381D01*
X60690000Y-51522381D01*
X60832858Y-51570000D01*
X60928096Y-51665238D01*
X60975715Y-51760476D01*
X61023334Y-51950952D01*
X61023334Y-52093810D01*
X60975715Y-52284286D01*
X60928096Y-52379524D01*
X60832858Y-52474762D01*
X60690000Y-52522381D01*
X60451905Y-52522381D01*
X84351905Y-100782381D02*
X84351905Y-99782381D01*
X84732858Y-99782381D01*
X84828096Y-99830000D01*
X84875715Y-99877619D01*
X84923334Y-99972857D01*
X84923334Y-100115714D01*
X84875715Y-100210952D01*
X84828096Y-100258571D01*
X84732858Y-100306190D01*
X84351905Y-100306190D01*
X85256667Y-99782381D02*
X85875715Y-99782381D01*
X85542381Y-100163333D01*
X85685239Y-100163333D01*
X85780477Y-100210952D01*
X85828096Y-100258571D01*
X85875715Y-100353810D01*
X85875715Y-100591905D01*
X85828096Y-100687143D01*
X85780477Y-100734762D01*
X85685239Y-100782381D01*
X85399524Y-100782381D01*
X85304286Y-100734762D01*
X85256667Y-100687143D01*
X71628095Y-68532381D02*
X71628095Y-69341905D01*
X71675714Y-69437143D01*
X71723333Y-69484762D01*
X71818571Y-69532381D01*
X72009048Y-69532381D01*
X72104286Y-69484762D01*
X72151905Y-69437143D01*
X72199524Y-69341905D01*
X72199524Y-68532381D01*
X73199524Y-69532381D02*
X72628095Y-69532381D01*
X72913809Y-69532381D02*
X72913809Y-68532381D01*
X72818571Y-68675238D01*
X72723333Y-68770476D01*
X72628095Y-68818095D01*
X90527143Y-95416666D02*
X90574762Y-95464285D01*
X90622381Y-95607142D01*
X90622381Y-95702380D01*
X90574762Y-95845238D01*
X90479524Y-95940476D01*
X90384286Y-95988095D01*
X90193810Y-96035714D01*
X90050952Y-96035714D01*
X89860476Y-95988095D01*
X89765238Y-95940476D01*
X89670000Y-95845238D01*
X89622381Y-95702380D01*
X89622381Y-95607142D01*
X89670000Y-95464285D01*
X89717619Y-95416666D01*
X90622381Y-94464285D02*
X90622381Y-95035714D01*
X90622381Y-94750000D02*
X89622381Y-94750000D01*
X89765238Y-94845238D01*
X89860476Y-94940476D01*
X89908095Y-95035714D01*
M02*
