G04 #@! TF.FileFunction,Copper,L2,Bot,Signal*
%FSLAX46Y46*%
G04 Gerber Fmt 4.6, Leading zero omitted, Abs format (unit mm)*
G04 Created by KiCad (PCBNEW 4.0.4+e1-6308~48~ubuntu16.04.1-stable) date Mon Oct 24 16:47:08 2016*
%MOMM*%
%LPD*%
G01*
G04 APERTURE LIST*
%ADD10C,0.100000*%
%ADD11R,2.032000X2.032000*%
%ADD12O,2.032000X2.032000*%
%ADD13C,1.524000*%
%ADD14R,2.032000X1.727200*%
%ADD15O,2.032000X1.727200*%
%ADD16C,1.300000*%
%ADD17R,1.300000X1.300000*%
%ADD18C,0.254000*%
G04 APERTURE END LIST*
D10*
D11*
X69850000Y-100330000D03*
D12*
X72390000Y-100330000D03*
D13*
X86360000Y-73660000D03*
X88900000Y-71120000D03*
X88900000Y-76200000D03*
D14*
X59690000Y-54610000D03*
D15*
X59690000Y-57150000D03*
X59690000Y-59690000D03*
X59690000Y-62230000D03*
X59690000Y-64770000D03*
X59690000Y-67310000D03*
X59690000Y-69850000D03*
X59690000Y-72390000D03*
X59690000Y-74930000D03*
X59690000Y-77470000D03*
X59690000Y-80010000D03*
X59690000Y-82550000D03*
X59690000Y-85090000D03*
X59690000Y-87630000D03*
X59690000Y-90170000D03*
X59690000Y-92710000D03*
X59690000Y-95250000D03*
X59690000Y-97790000D03*
X59690000Y-100330000D03*
D13*
X64770000Y-58420000D03*
X64770000Y-60960000D03*
X64770000Y-73660000D03*
X64770000Y-76200000D03*
X64770000Y-78740000D03*
X64770000Y-83820000D03*
X80010000Y-83820000D03*
X80010000Y-78740000D03*
X80010000Y-76200000D03*
X80010000Y-73660000D03*
X80010000Y-60960000D03*
X80010000Y-58420000D03*
D16*
X86360000Y-92400000D03*
D17*
X86360000Y-88900000D03*
D18*
G36*
X92000000Y-102160000D02*
X57860000Y-102160000D01*
X57860000Y-57150000D01*
X58006655Y-57150000D01*
X58120729Y-57723489D01*
X58445585Y-58209670D01*
X58760366Y-58420000D01*
X58445585Y-58630330D01*
X58120729Y-59116511D01*
X58006655Y-59690000D01*
X58120729Y-60263489D01*
X58445585Y-60749670D01*
X58760366Y-60960000D01*
X58445585Y-61170330D01*
X58120729Y-61656511D01*
X58006655Y-62230000D01*
X58120729Y-62803489D01*
X58445585Y-63289670D01*
X58760366Y-63500000D01*
X58445585Y-63710330D01*
X58120729Y-64196511D01*
X58006655Y-64770000D01*
X58120729Y-65343489D01*
X58445585Y-65829670D01*
X58760366Y-66040000D01*
X58445585Y-66250330D01*
X58120729Y-66736511D01*
X58006655Y-67310000D01*
X58120729Y-67883489D01*
X58445585Y-68369670D01*
X58760366Y-68580000D01*
X58445585Y-68790330D01*
X58120729Y-69276511D01*
X58006655Y-69850000D01*
X58120729Y-70423489D01*
X58445585Y-70909670D01*
X58760366Y-71120000D01*
X58445585Y-71330330D01*
X58120729Y-71816511D01*
X58006655Y-72390000D01*
X58120729Y-72963489D01*
X58445585Y-73449670D01*
X58760366Y-73660000D01*
X58445585Y-73870330D01*
X58120729Y-74356511D01*
X58006655Y-74930000D01*
X58120729Y-75503489D01*
X58445585Y-75989670D01*
X58760366Y-76200000D01*
X58445585Y-76410330D01*
X58120729Y-76896511D01*
X58006655Y-77470000D01*
X58120729Y-78043489D01*
X58445585Y-78529670D01*
X58760366Y-78740000D01*
X58445585Y-78950330D01*
X58120729Y-79436511D01*
X58006655Y-80010000D01*
X58120729Y-80583489D01*
X58445585Y-81069670D01*
X58760366Y-81280000D01*
X58445585Y-81490330D01*
X58120729Y-81976511D01*
X58006655Y-82550000D01*
X58120729Y-83123489D01*
X58445585Y-83609670D01*
X58760366Y-83820000D01*
X58445585Y-84030330D01*
X58120729Y-84516511D01*
X58006655Y-85090000D01*
X58120729Y-85663489D01*
X58445585Y-86149670D01*
X58760366Y-86360000D01*
X58445585Y-86570330D01*
X58120729Y-87056511D01*
X58006655Y-87630000D01*
X58120729Y-88203489D01*
X58445585Y-88689670D01*
X58760366Y-88900000D01*
X58445585Y-89110330D01*
X58120729Y-89596511D01*
X58006655Y-90170000D01*
X58120729Y-90743489D01*
X58445585Y-91229670D01*
X58760366Y-91440000D01*
X58445585Y-91650330D01*
X58120729Y-92136511D01*
X58006655Y-92710000D01*
X58120729Y-93283489D01*
X58445585Y-93769670D01*
X58760366Y-93980000D01*
X58445585Y-94190330D01*
X58120729Y-94676511D01*
X58006655Y-95250000D01*
X58120729Y-95823489D01*
X58445585Y-96309670D01*
X58760366Y-96520000D01*
X58445585Y-96730330D01*
X58120729Y-97216511D01*
X58006655Y-97790000D01*
X58120729Y-98363489D01*
X58445585Y-98849670D01*
X58760366Y-99060000D01*
X58445585Y-99270330D01*
X58120729Y-99756511D01*
X58006655Y-100330000D01*
X58120729Y-100903489D01*
X58445585Y-101389670D01*
X58931766Y-101714526D01*
X59505255Y-101828600D01*
X59874745Y-101828600D01*
X60448234Y-101714526D01*
X60934415Y-101389670D01*
X61259271Y-100903489D01*
X61373345Y-100330000D01*
X61259271Y-99756511D01*
X60963595Y-99314000D01*
X68186560Y-99314000D01*
X68186560Y-101346000D01*
X68230838Y-101581317D01*
X68369910Y-101797441D01*
X68582110Y-101942431D01*
X68834000Y-101993440D01*
X70866000Y-101993440D01*
X71101317Y-101949162D01*
X71317441Y-101810090D01*
X71417856Y-101663128D01*
X71421621Y-101667188D01*
X72007054Y-101935983D01*
X72263000Y-101817367D01*
X72263000Y-100457000D01*
X72517000Y-100457000D01*
X72517000Y-101817367D01*
X72772946Y-101935983D01*
X73358379Y-101667188D01*
X73796385Y-101194818D01*
X73995975Y-100712944D01*
X73876836Y-100457000D01*
X72517000Y-100457000D01*
X72263000Y-100457000D01*
X72243000Y-100457000D01*
X72243000Y-100203000D01*
X72263000Y-100203000D01*
X72263000Y-98842633D01*
X72517000Y-98842633D01*
X72517000Y-100203000D01*
X73876836Y-100203000D01*
X73995975Y-99947056D01*
X73796385Y-99465182D01*
X73358379Y-98992812D01*
X72772946Y-98724017D01*
X72517000Y-98842633D01*
X72263000Y-98842633D01*
X72007054Y-98724017D01*
X71421621Y-98992812D01*
X71417066Y-98997724D01*
X71330090Y-98862559D01*
X71117890Y-98717569D01*
X70866000Y-98666560D01*
X68834000Y-98666560D01*
X68598683Y-98710838D01*
X68382559Y-98849910D01*
X68237569Y-99062110D01*
X68186560Y-99314000D01*
X60963595Y-99314000D01*
X60934415Y-99270330D01*
X60619634Y-99060000D01*
X60934415Y-98849670D01*
X61259271Y-98363489D01*
X61373345Y-97790000D01*
X61259271Y-97216511D01*
X60934415Y-96730330D01*
X60619634Y-96520000D01*
X60934415Y-96309670D01*
X61259271Y-95823489D01*
X61373345Y-95250000D01*
X61259271Y-94676511D01*
X60934415Y-94190330D01*
X60619634Y-93980000D01*
X60934415Y-93769670D01*
X61259271Y-93283489D01*
X61373345Y-92710000D01*
X61362302Y-92654481D01*
X85074777Y-92654481D01*
X85269995Y-93126943D01*
X85631155Y-93488735D01*
X86103276Y-93684777D01*
X86614481Y-93685223D01*
X87086943Y-93490005D01*
X87448735Y-93128845D01*
X87644777Y-92656724D01*
X87645223Y-92145519D01*
X87450005Y-91673057D01*
X87088845Y-91311265D01*
X86616724Y-91115223D01*
X86105519Y-91114777D01*
X85633057Y-91309995D01*
X85271265Y-91671155D01*
X85075223Y-92143276D01*
X85074777Y-92654481D01*
X61362302Y-92654481D01*
X61259271Y-92136511D01*
X60934415Y-91650330D01*
X60619634Y-91440000D01*
X60934415Y-91229670D01*
X61259271Y-90743489D01*
X61373345Y-90170000D01*
X61259271Y-89596511D01*
X60984810Y-89185750D01*
X85075000Y-89185750D01*
X85075000Y-89676309D01*
X85171673Y-89909698D01*
X85350301Y-90088327D01*
X85583690Y-90185000D01*
X86074250Y-90185000D01*
X86233000Y-90026250D01*
X86233000Y-89027000D01*
X86487000Y-89027000D01*
X86487000Y-90026250D01*
X86645750Y-90185000D01*
X87136310Y-90185000D01*
X87369699Y-90088327D01*
X87548327Y-89909698D01*
X87645000Y-89676309D01*
X87645000Y-89185750D01*
X87486250Y-89027000D01*
X86487000Y-89027000D01*
X86233000Y-89027000D01*
X85233750Y-89027000D01*
X85075000Y-89185750D01*
X60984810Y-89185750D01*
X60934415Y-89110330D01*
X60619634Y-88900000D01*
X60934415Y-88689670D01*
X61259271Y-88203489D01*
X61275143Y-88123691D01*
X85075000Y-88123691D01*
X85075000Y-88614250D01*
X85233750Y-88773000D01*
X86233000Y-88773000D01*
X86233000Y-87773750D01*
X86487000Y-87773750D01*
X86487000Y-88773000D01*
X87486250Y-88773000D01*
X87645000Y-88614250D01*
X87645000Y-88123691D01*
X87548327Y-87890302D01*
X87369699Y-87711673D01*
X87136310Y-87615000D01*
X86645750Y-87615000D01*
X86487000Y-87773750D01*
X86233000Y-87773750D01*
X86074250Y-87615000D01*
X85583690Y-87615000D01*
X85350301Y-87711673D01*
X85171673Y-87890302D01*
X85075000Y-88123691D01*
X61275143Y-88123691D01*
X61373345Y-87630000D01*
X61259271Y-87056511D01*
X60934415Y-86570330D01*
X60619634Y-86360000D01*
X60934415Y-86149670D01*
X61259271Y-85663489D01*
X61373345Y-85090000D01*
X61315703Y-84800213D01*
X63969392Y-84800213D01*
X64038857Y-85042397D01*
X64562302Y-85229144D01*
X65117368Y-85201362D01*
X65501143Y-85042397D01*
X65570608Y-84800213D01*
X79209392Y-84800213D01*
X79278857Y-85042397D01*
X79802302Y-85229144D01*
X80357368Y-85201362D01*
X80741143Y-85042397D01*
X80810608Y-84800213D01*
X80010000Y-83999605D01*
X79209392Y-84800213D01*
X65570608Y-84800213D01*
X64770000Y-83999605D01*
X63969392Y-84800213D01*
X61315703Y-84800213D01*
X61259271Y-84516511D01*
X60934415Y-84030330D01*
X60619634Y-83820000D01*
X60930475Y-83612302D01*
X63360856Y-83612302D01*
X63388638Y-84167368D01*
X63547603Y-84551143D01*
X63789787Y-84620608D01*
X64590395Y-83820000D01*
X64949605Y-83820000D01*
X65750213Y-84620608D01*
X65992397Y-84551143D01*
X66179144Y-84027698D01*
X66158353Y-83612302D01*
X78600856Y-83612302D01*
X78628638Y-84167368D01*
X78787603Y-84551143D01*
X79029787Y-84620608D01*
X79830395Y-83820000D01*
X80189605Y-83820000D01*
X80990213Y-84620608D01*
X81232397Y-84551143D01*
X81419144Y-84027698D01*
X81391362Y-83472632D01*
X81232397Y-83088857D01*
X80990213Y-83019392D01*
X80189605Y-83820000D01*
X79830395Y-83820000D01*
X79029787Y-83019392D01*
X78787603Y-83088857D01*
X78600856Y-83612302D01*
X66158353Y-83612302D01*
X66151362Y-83472632D01*
X65992397Y-83088857D01*
X65750213Y-83019392D01*
X64949605Y-83820000D01*
X64590395Y-83820000D01*
X63789787Y-83019392D01*
X63547603Y-83088857D01*
X63360856Y-83612302D01*
X60930475Y-83612302D01*
X60934415Y-83609670D01*
X61259271Y-83123489D01*
X61315702Y-82839787D01*
X63969392Y-82839787D01*
X64770000Y-83640395D01*
X65570608Y-82839787D01*
X79209392Y-82839787D01*
X80010000Y-83640395D01*
X80810608Y-82839787D01*
X80741143Y-82597603D01*
X80217698Y-82410856D01*
X79662632Y-82438638D01*
X79278857Y-82597603D01*
X79209392Y-82839787D01*
X65570608Y-82839787D01*
X65501143Y-82597603D01*
X64977698Y-82410856D01*
X64422632Y-82438638D01*
X64038857Y-82597603D01*
X63969392Y-82839787D01*
X61315702Y-82839787D01*
X61373345Y-82550000D01*
X61259271Y-81976511D01*
X60934415Y-81490330D01*
X60619634Y-81280000D01*
X60934415Y-81069670D01*
X61259271Y-80583489D01*
X61373345Y-80010000D01*
X61259271Y-79436511D01*
X60934415Y-78950330D01*
X60619634Y-78740000D01*
X60934415Y-78529670D01*
X61259271Y-78043489D01*
X61373345Y-77470000D01*
X61259271Y-76896511D01*
X60934415Y-76410330D01*
X60619634Y-76200000D01*
X60934415Y-75989670D01*
X61259271Y-75503489D01*
X61373345Y-74930000D01*
X61259271Y-74356511D01*
X60978736Y-73936661D01*
X63372758Y-73936661D01*
X63584990Y-74450303D01*
X63977630Y-74843629D01*
X64185512Y-74929949D01*
X63979697Y-75014990D01*
X63586371Y-75407630D01*
X63373243Y-75920900D01*
X63372758Y-76476661D01*
X63584990Y-76990303D01*
X63977630Y-77383629D01*
X64185512Y-77469949D01*
X63979697Y-77554990D01*
X63586371Y-77947630D01*
X63373243Y-78460900D01*
X63372758Y-79016661D01*
X63584990Y-79530303D01*
X63977630Y-79923629D01*
X64490900Y-80136757D01*
X65046661Y-80137242D01*
X65560303Y-79925010D01*
X65953629Y-79532370D01*
X66166757Y-79019100D01*
X66167242Y-78463339D01*
X65955010Y-77949697D01*
X65562370Y-77556371D01*
X65354488Y-77470051D01*
X65560303Y-77385010D01*
X65953629Y-76992370D01*
X66166757Y-76479100D01*
X66167242Y-75923339D01*
X65955010Y-75409697D01*
X65562370Y-75016371D01*
X65354488Y-74930051D01*
X65560303Y-74845010D01*
X65953629Y-74452370D01*
X66166757Y-73939100D01*
X66166759Y-73936661D01*
X78612758Y-73936661D01*
X78824990Y-74450303D01*
X79217630Y-74843629D01*
X79425512Y-74929949D01*
X79219697Y-75014990D01*
X78826371Y-75407630D01*
X78613243Y-75920900D01*
X78612758Y-76476661D01*
X78824990Y-76990303D01*
X79217630Y-77383629D01*
X79425512Y-77469949D01*
X79219697Y-77554990D01*
X78826371Y-77947630D01*
X78613243Y-78460900D01*
X78612758Y-79016661D01*
X78824990Y-79530303D01*
X79217630Y-79923629D01*
X79730900Y-80136757D01*
X80286661Y-80137242D01*
X80800303Y-79925010D01*
X81193629Y-79532370D01*
X81406757Y-79019100D01*
X81407242Y-78463339D01*
X81195010Y-77949697D01*
X80802370Y-77556371D01*
X80594488Y-77470051D01*
X80800303Y-77385010D01*
X81193629Y-76992370D01*
X81406757Y-76479100D01*
X81406759Y-76476661D01*
X87502758Y-76476661D01*
X87714990Y-76990303D01*
X88107630Y-77383629D01*
X88620900Y-77596757D01*
X89176661Y-77597242D01*
X89690303Y-77385010D01*
X90083629Y-76992370D01*
X90296757Y-76479100D01*
X90297242Y-75923339D01*
X90085010Y-75409697D01*
X89692370Y-75016371D01*
X89179100Y-74803243D01*
X88623339Y-74802758D01*
X88109697Y-75014990D01*
X87716371Y-75407630D01*
X87503243Y-75920900D01*
X87502758Y-76476661D01*
X81406759Y-76476661D01*
X81407242Y-75923339D01*
X81195010Y-75409697D01*
X80802370Y-75016371D01*
X80594488Y-74930051D01*
X80800303Y-74845010D01*
X81193629Y-74452370D01*
X81406757Y-73939100D01*
X81406759Y-73936661D01*
X84962758Y-73936661D01*
X85174990Y-74450303D01*
X85567630Y-74843629D01*
X86080900Y-75056757D01*
X86636661Y-75057242D01*
X87150303Y-74845010D01*
X87543629Y-74452370D01*
X87756757Y-73939100D01*
X87757242Y-73383339D01*
X87545010Y-72869697D01*
X87152370Y-72476371D01*
X86639100Y-72263243D01*
X86083339Y-72262758D01*
X85569697Y-72474990D01*
X85176371Y-72867630D01*
X84963243Y-73380900D01*
X84962758Y-73936661D01*
X81406759Y-73936661D01*
X81407242Y-73383339D01*
X81195010Y-72869697D01*
X80802370Y-72476371D01*
X80289100Y-72263243D01*
X79733339Y-72262758D01*
X79219697Y-72474990D01*
X78826371Y-72867630D01*
X78613243Y-73380900D01*
X78612758Y-73936661D01*
X66166759Y-73936661D01*
X66167242Y-73383339D01*
X65955010Y-72869697D01*
X65562370Y-72476371D01*
X65049100Y-72263243D01*
X64493339Y-72262758D01*
X63979697Y-72474990D01*
X63586371Y-72867630D01*
X63373243Y-73380900D01*
X63372758Y-73936661D01*
X60978736Y-73936661D01*
X60934415Y-73870330D01*
X60619634Y-73660000D01*
X60934415Y-73449670D01*
X61259271Y-72963489D01*
X61373345Y-72390000D01*
X61259271Y-71816511D01*
X60978736Y-71396661D01*
X87502758Y-71396661D01*
X87714990Y-71910303D01*
X88107630Y-72303629D01*
X88620900Y-72516757D01*
X89176661Y-72517242D01*
X89690303Y-72305010D01*
X90083629Y-71912370D01*
X90296757Y-71399100D01*
X90297242Y-70843339D01*
X90085010Y-70329697D01*
X89692370Y-69936371D01*
X89179100Y-69723243D01*
X88623339Y-69722758D01*
X88109697Y-69934990D01*
X87716371Y-70327630D01*
X87503243Y-70840900D01*
X87502758Y-71396661D01*
X60978736Y-71396661D01*
X60934415Y-71330330D01*
X60619634Y-71120000D01*
X60934415Y-70909670D01*
X61259271Y-70423489D01*
X61373345Y-69850000D01*
X61259271Y-69276511D01*
X60934415Y-68790330D01*
X60619634Y-68580000D01*
X60934415Y-68369670D01*
X61259271Y-67883489D01*
X61373345Y-67310000D01*
X61259271Y-66736511D01*
X60934415Y-66250330D01*
X60619634Y-66040000D01*
X60934415Y-65829670D01*
X61259271Y-65343489D01*
X61373345Y-64770000D01*
X61259271Y-64196511D01*
X60934415Y-63710330D01*
X60619634Y-63500000D01*
X60934415Y-63289670D01*
X61259271Y-62803489D01*
X61373345Y-62230000D01*
X61315703Y-61940213D01*
X63969392Y-61940213D01*
X64038857Y-62182397D01*
X64562302Y-62369144D01*
X65117368Y-62341362D01*
X65501143Y-62182397D01*
X65570608Y-61940213D01*
X64770000Y-61139605D01*
X63969392Y-61940213D01*
X61315703Y-61940213D01*
X61259271Y-61656511D01*
X60934415Y-61170330D01*
X60619634Y-60960000D01*
X60930475Y-60752302D01*
X63360856Y-60752302D01*
X63388638Y-61307368D01*
X63547603Y-61691143D01*
X63789787Y-61760608D01*
X64590395Y-60960000D01*
X64949605Y-60960000D01*
X65750213Y-61760608D01*
X65992397Y-61691143D01*
X66179144Y-61167698D01*
X66151362Y-60612632D01*
X65992397Y-60228857D01*
X65750213Y-60159392D01*
X64949605Y-60960000D01*
X64590395Y-60960000D01*
X63789787Y-60159392D01*
X63547603Y-60228857D01*
X63360856Y-60752302D01*
X60930475Y-60752302D01*
X60934415Y-60749670D01*
X61259271Y-60263489D01*
X61373345Y-59690000D01*
X61315703Y-59400213D01*
X63969392Y-59400213D01*
X64038857Y-59642397D01*
X64162344Y-59686453D01*
X64038857Y-59737603D01*
X63969392Y-59979787D01*
X64770000Y-60780395D01*
X65570608Y-59979787D01*
X65501143Y-59737603D01*
X65377656Y-59693547D01*
X65501143Y-59642397D01*
X65570608Y-59400213D01*
X64770000Y-58599605D01*
X63969392Y-59400213D01*
X61315703Y-59400213D01*
X61259271Y-59116511D01*
X60934415Y-58630330D01*
X60619634Y-58420000D01*
X60930475Y-58212302D01*
X63360856Y-58212302D01*
X63388638Y-58767368D01*
X63547603Y-59151143D01*
X63789787Y-59220608D01*
X64590395Y-58420000D01*
X64949605Y-58420000D01*
X65750213Y-59220608D01*
X65992397Y-59151143D01*
X66154540Y-58696661D01*
X78612758Y-58696661D01*
X78824990Y-59210303D01*
X79217630Y-59603629D01*
X79425512Y-59689949D01*
X79219697Y-59774990D01*
X78826371Y-60167630D01*
X78613243Y-60680900D01*
X78612758Y-61236661D01*
X78824990Y-61750303D01*
X79217630Y-62143629D01*
X79730900Y-62356757D01*
X80286661Y-62357242D01*
X80800303Y-62145010D01*
X81193629Y-61752370D01*
X81406757Y-61239100D01*
X81407242Y-60683339D01*
X81195010Y-60169697D01*
X80802370Y-59776371D01*
X80594488Y-59690051D01*
X80800303Y-59605010D01*
X81193629Y-59212370D01*
X81406757Y-58699100D01*
X81407242Y-58143339D01*
X81195010Y-57629697D01*
X80802370Y-57236371D01*
X80289100Y-57023243D01*
X79733339Y-57022758D01*
X79219697Y-57234990D01*
X78826371Y-57627630D01*
X78613243Y-58140900D01*
X78612758Y-58696661D01*
X66154540Y-58696661D01*
X66179144Y-58627698D01*
X66151362Y-58072632D01*
X65992397Y-57688857D01*
X65750213Y-57619392D01*
X64949605Y-58420000D01*
X64590395Y-58420000D01*
X63789787Y-57619392D01*
X63547603Y-57688857D01*
X63360856Y-58212302D01*
X60930475Y-58212302D01*
X60934415Y-58209670D01*
X61259271Y-57723489D01*
X61315702Y-57439787D01*
X63969392Y-57439787D01*
X64770000Y-58240395D01*
X65570608Y-57439787D01*
X65501143Y-57197603D01*
X64977698Y-57010856D01*
X64422632Y-57038638D01*
X64038857Y-57197603D01*
X63969392Y-57439787D01*
X61315702Y-57439787D01*
X61373345Y-57150000D01*
X61259271Y-56576511D01*
X60934415Y-56090330D01*
X60912220Y-56075500D01*
X61065699Y-56011927D01*
X61244327Y-55833298D01*
X61341000Y-55599909D01*
X61341000Y-54895750D01*
X61182250Y-54737000D01*
X59817000Y-54737000D01*
X59817000Y-54757000D01*
X59563000Y-54757000D01*
X59563000Y-54737000D01*
X58197750Y-54737000D01*
X58039000Y-54895750D01*
X58039000Y-55599909D01*
X58135673Y-55833298D01*
X58314301Y-56011927D01*
X58467780Y-56075500D01*
X58445585Y-56090330D01*
X58120729Y-56576511D01*
X58006655Y-57150000D01*
X57860000Y-57150000D01*
X57860000Y-53620091D01*
X58039000Y-53620091D01*
X58039000Y-54324250D01*
X58197750Y-54483000D01*
X59563000Y-54483000D01*
X59563000Y-53270150D01*
X59817000Y-53270150D01*
X59817000Y-54483000D01*
X61182250Y-54483000D01*
X61341000Y-54324250D01*
X61341000Y-53620091D01*
X61244327Y-53386702D01*
X61065699Y-53208073D01*
X60832310Y-53111400D01*
X59975750Y-53111400D01*
X59817000Y-53270150D01*
X59563000Y-53270150D01*
X59404250Y-53111400D01*
X58547690Y-53111400D01*
X58314301Y-53208073D01*
X58135673Y-53386702D01*
X58039000Y-53620091D01*
X57860000Y-53620091D01*
X57860000Y-51510000D01*
X92000000Y-51510000D01*
X92000000Y-102160000D01*
X92000000Y-102160000D01*
G37*
X92000000Y-102160000D02*
X57860000Y-102160000D01*
X57860000Y-57150000D01*
X58006655Y-57150000D01*
X58120729Y-57723489D01*
X58445585Y-58209670D01*
X58760366Y-58420000D01*
X58445585Y-58630330D01*
X58120729Y-59116511D01*
X58006655Y-59690000D01*
X58120729Y-60263489D01*
X58445585Y-60749670D01*
X58760366Y-60960000D01*
X58445585Y-61170330D01*
X58120729Y-61656511D01*
X58006655Y-62230000D01*
X58120729Y-62803489D01*
X58445585Y-63289670D01*
X58760366Y-63500000D01*
X58445585Y-63710330D01*
X58120729Y-64196511D01*
X58006655Y-64770000D01*
X58120729Y-65343489D01*
X58445585Y-65829670D01*
X58760366Y-66040000D01*
X58445585Y-66250330D01*
X58120729Y-66736511D01*
X58006655Y-67310000D01*
X58120729Y-67883489D01*
X58445585Y-68369670D01*
X58760366Y-68580000D01*
X58445585Y-68790330D01*
X58120729Y-69276511D01*
X58006655Y-69850000D01*
X58120729Y-70423489D01*
X58445585Y-70909670D01*
X58760366Y-71120000D01*
X58445585Y-71330330D01*
X58120729Y-71816511D01*
X58006655Y-72390000D01*
X58120729Y-72963489D01*
X58445585Y-73449670D01*
X58760366Y-73660000D01*
X58445585Y-73870330D01*
X58120729Y-74356511D01*
X58006655Y-74930000D01*
X58120729Y-75503489D01*
X58445585Y-75989670D01*
X58760366Y-76200000D01*
X58445585Y-76410330D01*
X58120729Y-76896511D01*
X58006655Y-77470000D01*
X58120729Y-78043489D01*
X58445585Y-78529670D01*
X58760366Y-78740000D01*
X58445585Y-78950330D01*
X58120729Y-79436511D01*
X58006655Y-80010000D01*
X58120729Y-80583489D01*
X58445585Y-81069670D01*
X58760366Y-81280000D01*
X58445585Y-81490330D01*
X58120729Y-81976511D01*
X58006655Y-82550000D01*
X58120729Y-83123489D01*
X58445585Y-83609670D01*
X58760366Y-83820000D01*
X58445585Y-84030330D01*
X58120729Y-84516511D01*
X58006655Y-85090000D01*
X58120729Y-85663489D01*
X58445585Y-86149670D01*
X58760366Y-86360000D01*
X58445585Y-86570330D01*
X58120729Y-87056511D01*
X58006655Y-87630000D01*
X58120729Y-88203489D01*
X58445585Y-88689670D01*
X58760366Y-88900000D01*
X58445585Y-89110330D01*
X58120729Y-89596511D01*
X58006655Y-90170000D01*
X58120729Y-90743489D01*
X58445585Y-91229670D01*
X58760366Y-91440000D01*
X58445585Y-91650330D01*
X58120729Y-92136511D01*
X58006655Y-92710000D01*
X58120729Y-93283489D01*
X58445585Y-93769670D01*
X58760366Y-93980000D01*
X58445585Y-94190330D01*
X58120729Y-94676511D01*
X58006655Y-95250000D01*
X58120729Y-95823489D01*
X58445585Y-96309670D01*
X58760366Y-96520000D01*
X58445585Y-96730330D01*
X58120729Y-97216511D01*
X58006655Y-97790000D01*
X58120729Y-98363489D01*
X58445585Y-98849670D01*
X58760366Y-99060000D01*
X58445585Y-99270330D01*
X58120729Y-99756511D01*
X58006655Y-100330000D01*
X58120729Y-100903489D01*
X58445585Y-101389670D01*
X58931766Y-101714526D01*
X59505255Y-101828600D01*
X59874745Y-101828600D01*
X60448234Y-101714526D01*
X60934415Y-101389670D01*
X61259271Y-100903489D01*
X61373345Y-100330000D01*
X61259271Y-99756511D01*
X60963595Y-99314000D01*
X68186560Y-99314000D01*
X68186560Y-101346000D01*
X68230838Y-101581317D01*
X68369910Y-101797441D01*
X68582110Y-101942431D01*
X68834000Y-101993440D01*
X70866000Y-101993440D01*
X71101317Y-101949162D01*
X71317441Y-101810090D01*
X71417856Y-101663128D01*
X71421621Y-101667188D01*
X72007054Y-101935983D01*
X72263000Y-101817367D01*
X72263000Y-100457000D01*
X72517000Y-100457000D01*
X72517000Y-101817367D01*
X72772946Y-101935983D01*
X73358379Y-101667188D01*
X73796385Y-101194818D01*
X73995975Y-100712944D01*
X73876836Y-100457000D01*
X72517000Y-100457000D01*
X72263000Y-100457000D01*
X72243000Y-100457000D01*
X72243000Y-100203000D01*
X72263000Y-100203000D01*
X72263000Y-98842633D01*
X72517000Y-98842633D01*
X72517000Y-100203000D01*
X73876836Y-100203000D01*
X73995975Y-99947056D01*
X73796385Y-99465182D01*
X73358379Y-98992812D01*
X72772946Y-98724017D01*
X72517000Y-98842633D01*
X72263000Y-98842633D01*
X72007054Y-98724017D01*
X71421621Y-98992812D01*
X71417066Y-98997724D01*
X71330090Y-98862559D01*
X71117890Y-98717569D01*
X70866000Y-98666560D01*
X68834000Y-98666560D01*
X68598683Y-98710838D01*
X68382559Y-98849910D01*
X68237569Y-99062110D01*
X68186560Y-99314000D01*
X60963595Y-99314000D01*
X60934415Y-99270330D01*
X60619634Y-99060000D01*
X60934415Y-98849670D01*
X61259271Y-98363489D01*
X61373345Y-97790000D01*
X61259271Y-97216511D01*
X60934415Y-96730330D01*
X60619634Y-96520000D01*
X60934415Y-96309670D01*
X61259271Y-95823489D01*
X61373345Y-95250000D01*
X61259271Y-94676511D01*
X60934415Y-94190330D01*
X60619634Y-93980000D01*
X60934415Y-93769670D01*
X61259271Y-93283489D01*
X61373345Y-92710000D01*
X61362302Y-92654481D01*
X85074777Y-92654481D01*
X85269995Y-93126943D01*
X85631155Y-93488735D01*
X86103276Y-93684777D01*
X86614481Y-93685223D01*
X87086943Y-93490005D01*
X87448735Y-93128845D01*
X87644777Y-92656724D01*
X87645223Y-92145519D01*
X87450005Y-91673057D01*
X87088845Y-91311265D01*
X86616724Y-91115223D01*
X86105519Y-91114777D01*
X85633057Y-91309995D01*
X85271265Y-91671155D01*
X85075223Y-92143276D01*
X85074777Y-92654481D01*
X61362302Y-92654481D01*
X61259271Y-92136511D01*
X60934415Y-91650330D01*
X60619634Y-91440000D01*
X60934415Y-91229670D01*
X61259271Y-90743489D01*
X61373345Y-90170000D01*
X61259271Y-89596511D01*
X60984810Y-89185750D01*
X85075000Y-89185750D01*
X85075000Y-89676309D01*
X85171673Y-89909698D01*
X85350301Y-90088327D01*
X85583690Y-90185000D01*
X86074250Y-90185000D01*
X86233000Y-90026250D01*
X86233000Y-89027000D01*
X86487000Y-89027000D01*
X86487000Y-90026250D01*
X86645750Y-90185000D01*
X87136310Y-90185000D01*
X87369699Y-90088327D01*
X87548327Y-89909698D01*
X87645000Y-89676309D01*
X87645000Y-89185750D01*
X87486250Y-89027000D01*
X86487000Y-89027000D01*
X86233000Y-89027000D01*
X85233750Y-89027000D01*
X85075000Y-89185750D01*
X60984810Y-89185750D01*
X60934415Y-89110330D01*
X60619634Y-88900000D01*
X60934415Y-88689670D01*
X61259271Y-88203489D01*
X61275143Y-88123691D01*
X85075000Y-88123691D01*
X85075000Y-88614250D01*
X85233750Y-88773000D01*
X86233000Y-88773000D01*
X86233000Y-87773750D01*
X86487000Y-87773750D01*
X86487000Y-88773000D01*
X87486250Y-88773000D01*
X87645000Y-88614250D01*
X87645000Y-88123691D01*
X87548327Y-87890302D01*
X87369699Y-87711673D01*
X87136310Y-87615000D01*
X86645750Y-87615000D01*
X86487000Y-87773750D01*
X86233000Y-87773750D01*
X86074250Y-87615000D01*
X85583690Y-87615000D01*
X85350301Y-87711673D01*
X85171673Y-87890302D01*
X85075000Y-88123691D01*
X61275143Y-88123691D01*
X61373345Y-87630000D01*
X61259271Y-87056511D01*
X60934415Y-86570330D01*
X60619634Y-86360000D01*
X60934415Y-86149670D01*
X61259271Y-85663489D01*
X61373345Y-85090000D01*
X61315703Y-84800213D01*
X63969392Y-84800213D01*
X64038857Y-85042397D01*
X64562302Y-85229144D01*
X65117368Y-85201362D01*
X65501143Y-85042397D01*
X65570608Y-84800213D01*
X79209392Y-84800213D01*
X79278857Y-85042397D01*
X79802302Y-85229144D01*
X80357368Y-85201362D01*
X80741143Y-85042397D01*
X80810608Y-84800213D01*
X80010000Y-83999605D01*
X79209392Y-84800213D01*
X65570608Y-84800213D01*
X64770000Y-83999605D01*
X63969392Y-84800213D01*
X61315703Y-84800213D01*
X61259271Y-84516511D01*
X60934415Y-84030330D01*
X60619634Y-83820000D01*
X60930475Y-83612302D01*
X63360856Y-83612302D01*
X63388638Y-84167368D01*
X63547603Y-84551143D01*
X63789787Y-84620608D01*
X64590395Y-83820000D01*
X64949605Y-83820000D01*
X65750213Y-84620608D01*
X65992397Y-84551143D01*
X66179144Y-84027698D01*
X66158353Y-83612302D01*
X78600856Y-83612302D01*
X78628638Y-84167368D01*
X78787603Y-84551143D01*
X79029787Y-84620608D01*
X79830395Y-83820000D01*
X80189605Y-83820000D01*
X80990213Y-84620608D01*
X81232397Y-84551143D01*
X81419144Y-84027698D01*
X81391362Y-83472632D01*
X81232397Y-83088857D01*
X80990213Y-83019392D01*
X80189605Y-83820000D01*
X79830395Y-83820000D01*
X79029787Y-83019392D01*
X78787603Y-83088857D01*
X78600856Y-83612302D01*
X66158353Y-83612302D01*
X66151362Y-83472632D01*
X65992397Y-83088857D01*
X65750213Y-83019392D01*
X64949605Y-83820000D01*
X64590395Y-83820000D01*
X63789787Y-83019392D01*
X63547603Y-83088857D01*
X63360856Y-83612302D01*
X60930475Y-83612302D01*
X60934415Y-83609670D01*
X61259271Y-83123489D01*
X61315702Y-82839787D01*
X63969392Y-82839787D01*
X64770000Y-83640395D01*
X65570608Y-82839787D01*
X79209392Y-82839787D01*
X80010000Y-83640395D01*
X80810608Y-82839787D01*
X80741143Y-82597603D01*
X80217698Y-82410856D01*
X79662632Y-82438638D01*
X79278857Y-82597603D01*
X79209392Y-82839787D01*
X65570608Y-82839787D01*
X65501143Y-82597603D01*
X64977698Y-82410856D01*
X64422632Y-82438638D01*
X64038857Y-82597603D01*
X63969392Y-82839787D01*
X61315702Y-82839787D01*
X61373345Y-82550000D01*
X61259271Y-81976511D01*
X60934415Y-81490330D01*
X60619634Y-81280000D01*
X60934415Y-81069670D01*
X61259271Y-80583489D01*
X61373345Y-80010000D01*
X61259271Y-79436511D01*
X60934415Y-78950330D01*
X60619634Y-78740000D01*
X60934415Y-78529670D01*
X61259271Y-78043489D01*
X61373345Y-77470000D01*
X61259271Y-76896511D01*
X60934415Y-76410330D01*
X60619634Y-76200000D01*
X60934415Y-75989670D01*
X61259271Y-75503489D01*
X61373345Y-74930000D01*
X61259271Y-74356511D01*
X60978736Y-73936661D01*
X63372758Y-73936661D01*
X63584990Y-74450303D01*
X63977630Y-74843629D01*
X64185512Y-74929949D01*
X63979697Y-75014990D01*
X63586371Y-75407630D01*
X63373243Y-75920900D01*
X63372758Y-76476661D01*
X63584990Y-76990303D01*
X63977630Y-77383629D01*
X64185512Y-77469949D01*
X63979697Y-77554990D01*
X63586371Y-77947630D01*
X63373243Y-78460900D01*
X63372758Y-79016661D01*
X63584990Y-79530303D01*
X63977630Y-79923629D01*
X64490900Y-80136757D01*
X65046661Y-80137242D01*
X65560303Y-79925010D01*
X65953629Y-79532370D01*
X66166757Y-79019100D01*
X66167242Y-78463339D01*
X65955010Y-77949697D01*
X65562370Y-77556371D01*
X65354488Y-77470051D01*
X65560303Y-77385010D01*
X65953629Y-76992370D01*
X66166757Y-76479100D01*
X66167242Y-75923339D01*
X65955010Y-75409697D01*
X65562370Y-75016371D01*
X65354488Y-74930051D01*
X65560303Y-74845010D01*
X65953629Y-74452370D01*
X66166757Y-73939100D01*
X66166759Y-73936661D01*
X78612758Y-73936661D01*
X78824990Y-74450303D01*
X79217630Y-74843629D01*
X79425512Y-74929949D01*
X79219697Y-75014990D01*
X78826371Y-75407630D01*
X78613243Y-75920900D01*
X78612758Y-76476661D01*
X78824990Y-76990303D01*
X79217630Y-77383629D01*
X79425512Y-77469949D01*
X79219697Y-77554990D01*
X78826371Y-77947630D01*
X78613243Y-78460900D01*
X78612758Y-79016661D01*
X78824990Y-79530303D01*
X79217630Y-79923629D01*
X79730900Y-80136757D01*
X80286661Y-80137242D01*
X80800303Y-79925010D01*
X81193629Y-79532370D01*
X81406757Y-79019100D01*
X81407242Y-78463339D01*
X81195010Y-77949697D01*
X80802370Y-77556371D01*
X80594488Y-77470051D01*
X80800303Y-77385010D01*
X81193629Y-76992370D01*
X81406757Y-76479100D01*
X81406759Y-76476661D01*
X87502758Y-76476661D01*
X87714990Y-76990303D01*
X88107630Y-77383629D01*
X88620900Y-77596757D01*
X89176661Y-77597242D01*
X89690303Y-77385010D01*
X90083629Y-76992370D01*
X90296757Y-76479100D01*
X90297242Y-75923339D01*
X90085010Y-75409697D01*
X89692370Y-75016371D01*
X89179100Y-74803243D01*
X88623339Y-74802758D01*
X88109697Y-75014990D01*
X87716371Y-75407630D01*
X87503243Y-75920900D01*
X87502758Y-76476661D01*
X81406759Y-76476661D01*
X81407242Y-75923339D01*
X81195010Y-75409697D01*
X80802370Y-75016371D01*
X80594488Y-74930051D01*
X80800303Y-74845010D01*
X81193629Y-74452370D01*
X81406757Y-73939100D01*
X81406759Y-73936661D01*
X84962758Y-73936661D01*
X85174990Y-74450303D01*
X85567630Y-74843629D01*
X86080900Y-75056757D01*
X86636661Y-75057242D01*
X87150303Y-74845010D01*
X87543629Y-74452370D01*
X87756757Y-73939100D01*
X87757242Y-73383339D01*
X87545010Y-72869697D01*
X87152370Y-72476371D01*
X86639100Y-72263243D01*
X86083339Y-72262758D01*
X85569697Y-72474990D01*
X85176371Y-72867630D01*
X84963243Y-73380900D01*
X84962758Y-73936661D01*
X81406759Y-73936661D01*
X81407242Y-73383339D01*
X81195010Y-72869697D01*
X80802370Y-72476371D01*
X80289100Y-72263243D01*
X79733339Y-72262758D01*
X79219697Y-72474990D01*
X78826371Y-72867630D01*
X78613243Y-73380900D01*
X78612758Y-73936661D01*
X66166759Y-73936661D01*
X66167242Y-73383339D01*
X65955010Y-72869697D01*
X65562370Y-72476371D01*
X65049100Y-72263243D01*
X64493339Y-72262758D01*
X63979697Y-72474990D01*
X63586371Y-72867630D01*
X63373243Y-73380900D01*
X63372758Y-73936661D01*
X60978736Y-73936661D01*
X60934415Y-73870330D01*
X60619634Y-73660000D01*
X60934415Y-73449670D01*
X61259271Y-72963489D01*
X61373345Y-72390000D01*
X61259271Y-71816511D01*
X60978736Y-71396661D01*
X87502758Y-71396661D01*
X87714990Y-71910303D01*
X88107630Y-72303629D01*
X88620900Y-72516757D01*
X89176661Y-72517242D01*
X89690303Y-72305010D01*
X90083629Y-71912370D01*
X90296757Y-71399100D01*
X90297242Y-70843339D01*
X90085010Y-70329697D01*
X89692370Y-69936371D01*
X89179100Y-69723243D01*
X88623339Y-69722758D01*
X88109697Y-69934990D01*
X87716371Y-70327630D01*
X87503243Y-70840900D01*
X87502758Y-71396661D01*
X60978736Y-71396661D01*
X60934415Y-71330330D01*
X60619634Y-71120000D01*
X60934415Y-70909670D01*
X61259271Y-70423489D01*
X61373345Y-69850000D01*
X61259271Y-69276511D01*
X60934415Y-68790330D01*
X60619634Y-68580000D01*
X60934415Y-68369670D01*
X61259271Y-67883489D01*
X61373345Y-67310000D01*
X61259271Y-66736511D01*
X60934415Y-66250330D01*
X60619634Y-66040000D01*
X60934415Y-65829670D01*
X61259271Y-65343489D01*
X61373345Y-64770000D01*
X61259271Y-64196511D01*
X60934415Y-63710330D01*
X60619634Y-63500000D01*
X60934415Y-63289670D01*
X61259271Y-62803489D01*
X61373345Y-62230000D01*
X61315703Y-61940213D01*
X63969392Y-61940213D01*
X64038857Y-62182397D01*
X64562302Y-62369144D01*
X65117368Y-62341362D01*
X65501143Y-62182397D01*
X65570608Y-61940213D01*
X64770000Y-61139605D01*
X63969392Y-61940213D01*
X61315703Y-61940213D01*
X61259271Y-61656511D01*
X60934415Y-61170330D01*
X60619634Y-60960000D01*
X60930475Y-60752302D01*
X63360856Y-60752302D01*
X63388638Y-61307368D01*
X63547603Y-61691143D01*
X63789787Y-61760608D01*
X64590395Y-60960000D01*
X64949605Y-60960000D01*
X65750213Y-61760608D01*
X65992397Y-61691143D01*
X66179144Y-61167698D01*
X66151362Y-60612632D01*
X65992397Y-60228857D01*
X65750213Y-60159392D01*
X64949605Y-60960000D01*
X64590395Y-60960000D01*
X63789787Y-60159392D01*
X63547603Y-60228857D01*
X63360856Y-60752302D01*
X60930475Y-60752302D01*
X60934415Y-60749670D01*
X61259271Y-60263489D01*
X61373345Y-59690000D01*
X61315703Y-59400213D01*
X63969392Y-59400213D01*
X64038857Y-59642397D01*
X64162344Y-59686453D01*
X64038857Y-59737603D01*
X63969392Y-59979787D01*
X64770000Y-60780395D01*
X65570608Y-59979787D01*
X65501143Y-59737603D01*
X65377656Y-59693547D01*
X65501143Y-59642397D01*
X65570608Y-59400213D01*
X64770000Y-58599605D01*
X63969392Y-59400213D01*
X61315703Y-59400213D01*
X61259271Y-59116511D01*
X60934415Y-58630330D01*
X60619634Y-58420000D01*
X60930475Y-58212302D01*
X63360856Y-58212302D01*
X63388638Y-58767368D01*
X63547603Y-59151143D01*
X63789787Y-59220608D01*
X64590395Y-58420000D01*
X64949605Y-58420000D01*
X65750213Y-59220608D01*
X65992397Y-59151143D01*
X66154540Y-58696661D01*
X78612758Y-58696661D01*
X78824990Y-59210303D01*
X79217630Y-59603629D01*
X79425512Y-59689949D01*
X79219697Y-59774990D01*
X78826371Y-60167630D01*
X78613243Y-60680900D01*
X78612758Y-61236661D01*
X78824990Y-61750303D01*
X79217630Y-62143629D01*
X79730900Y-62356757D01*
X80286661Y-62357242D01*
X80800303Y-62145010D01*
X81193629Y-61752370D01*
X81406757Y-61239100D01*
X81407242Y-60683339D01*
X81195010Y-60169697D01*
X80802370Y-59776371D01*
X80594488Y-59690051D01*
X80800303Y-59605010D01*
X81193629Y-59212370D01*
X81406757Y-58699100D01*
X81407242Y-58143339D01*
X81195010Y-57629697D01*
X80802370Y-57236371D01*
X80289100Y-57023243D01*
X79733339Y-57022758D01*
X79219697Y-57234990D01*
X78826371Y-57627630D01*
X78613243Y-58140900D01*
X78612758Y-58696661D01*
X66154540Y-58696661D01*
X66179144Y-58627698D01*
X66151362Y-58072632D01*
X65992397Y-57688857D01*
X65750213Y-57619392D01*
X64949605Y-58420000D01*
X64590395Y-58420000D01*
X63789787Y-57619392D01*
X63547603Y-57688857D01*
X63360856Y-58212302D01*
X60930475Y-58212302D01*
X60934415Y-58209670D01*
X61259271Y-57723489D01*
X61315702Y-57439787D01*
X63969392Y-57439787D01*
X64770000Y-58240395D01*
X65570608Y-57439787D01*
X65501143Y-57197603D01*
X64977698Y-57010856D01*
X64422632Y-57038638D01*
X64038857Y-57197603D01*
X63969392Y-57439787D01*
X61315702Y-57439787D01*
X61373345Y-57150000D01*
X61259271Y-56576511D01*
X60934415Y-56090330D01*
X60912220Y-56075500D01*
X61065699Y-56011927D01*
X61244327Y-55833298D01*
X61341000Y-55599909D01*
X61341000Y-54895750D01*
X61182250Y-54737000D01*
X59817000Y-54737000D01*
X59817000Y-54757000D01*
X59563000Y-54757000D01*
X59563000Y-54737000D01*
X58197750Y-54737000D01*
X58039000Y-54895750D01*
X58039000Y-55599909D01*
X58135673Y-55833298D01*
X58314301Y-56011927D01*
X58467780Y-56075500D01*
X58445585Y-56090330D01*
X58120729Y-56576511D01*
X58006655Y-57150000D01*
X57860000Y-57150000D01*
X57860000Y-53620091D01*
X58039000Y-53620091D01*
X58039000Y-54324250D01*
X58197750Y-54483000D01*
X59563000Y-54483000D01*
X59563000Y-53270150D01*
X59817000Y-53270150D01*
X59817000Y-54483000D01*
X61182250Y-54483000D01*
X61341000Y-54324250D01*
X61341000Y-53620091D01*
X61244327Y-53386702D01*
X61065699Y-53208073D01*
X60832310Y-53111400D01*
X59975750Y-53111400D01*
X59817000Y-53270150D01*
X59563000Y-53270150D01*
X59404250Y-53111400D01*
X58547690Y-53111400D01*
X58314301Y-53208073D01*
X58135673Y-53386702D01*
X58039000Y-53620091D01*
X57860000Y-53620091D01*
X57860000Y-51510000D01*
X92000000Y-51510000D01*
X92000000Y-102160000D01*
M02*
