G04 #@! TF.FileFunction,Legend,Top*
%FSLAX46Y46*%
G04 Gerber Fmt 4.6, Leading zero omitted, Abs format (unit mm)*
G04 Created by KiCad (PCBNEW 4.0.3+e1-6302~38~ubuntu16.04.1-stable) date Thu Aug 25 17:12:23 2016*
%MOMM*%
%LPD*%
G01*
G04 APERTURE LIST*
%ADD10C,0.100000*%
%ADD11C,0.150000*%
G04 APERTURE END LIST*
D10*
D11*
X63790000Y-113530000D02*
X63790000Y-107530000D01*
X68290000Y-107530000D02*
X68290000Y-113530000D01*
X73660000Y-104140000D02*
X73660000Y-109220000D01*
X73660000Y-109220000D02*
X71120000Y-109220000D01*
X71120000Y-109220000D02*
X71120000Y-104140000D01*
X71120000Y-104140000D02*
X73660000Y-104140000D01*
X72390000Y-104140000D02*
X72390000Y-102870000D01*
X72390000Y-109220000D02*
X72390000Y-110490000D01*
X81026000Y-96266000D02*
X80518000Y-96774000D01*
X81026000Y-97282000D02*
X81534000Y-96774000D01*
X81534000Y-96774000D02*
X81026000Y-96266000D01*
X81026000Y-99060000D02*
G75*
G03X81026000Y-99060000I-2286000J0D01*
G01*
X81490000Y-99060000D02*
G75*
G03X81490000Y-99060000I-2750000J0D01*
G01*
X68326000Y-87884000D02*
X68834000Y-88392000D01*
X69342000Y-87884000D02*
X68834000Y-87376000D01*
X68834000Y-87376000D02*
X68326000Y-87884000D01*
X73406000Y-90170000D02*
G75*
G03X73406000Y-90170000I-2286000J0D01*
G01*
X73870000Y-90170000D02*
G75*
G03X73870000Y-90170000I-2750000J0D01*
G01*
X81780000Y-93690000D02*
X75780000Y-93690000D01*
X75780000Y-89190000D02*
X81780000Y-89190000D01*
X80264000Y-83566000D02*
X79756000Y-83058000D01*
X79248000Y-83566000D02*
X79756000Y-84074000D01*
X79756000Y-84074000D02*
X80264000Y-83566000D01*
X79756000Y-81280000D02*
G75*
G03X79756000Y-81280000I-2286000J0D01*
G01*
X80220000Y-81280000D02*
G75*
G03X80220000Y-81280000I-2750000J0D01*
G01*
X67310000Y-88900000D02*
X67310000Y-93980000D01*
X67310000Y-93980000D02*
X64770000Y-93980000D01*
X64770000Y-93980000D02*
X64770000Y-88900000D01*
X64770000Y-88900000D02*
X67310000Y-88900000D01*
X66040000Y-88900000D02*
X66040000Y-87630000D01*
X66040000Y-93980000D02*
X66040000Y-95250000D01*
X75700000Y-71410000D02*
X81700000Y-71410000D01*
X81700000Y-75910000D02*
X75700000Y-75910000D01*
X67310000Y-74930000D02*
X67310000Y-80010000D01*
X67310000Y-80010000D02*
X64770000Y-80010000D01*
X64770000Y-80010000D02*
X64770000Y-74930000D01*
X64770000Y-74930000D02*
X67310000Y-74930000D01*
X66040000Y-74930000D02*
X66040000Y-73660000D01*
X66040000Y-80010000D02*
X66040000Y-81280000D01*
X72390000Y-74930000D02*
X72390000Y-80010000D01*
X72390000Y-80010000D02*
X69850000Y-80010000D01*
X69850000Y-80010000D02*
X69850000Y-74930000D01*
X69850000Y-74930000D02*
X72390000Y-74930000D01*
X71120000Y-74930000D02*
X71120000Y-73660000D01*
X71120000Y-80010000D02*
X71120000Y-81280000D01*
X59690000Y-71120000D02*
X59690000Y-116840000D01*
X59690000Y-116840000D02*
X62230000Y-116840000D01*
X62230000Y-116840000D02*
X62230000Y-71120000D01*
X59410000Y-68300000D02*
X59410000Y-69850000D01*
X59690000Y-71120000D02*
X62230000Y-71120000D01*
X62510000Y-69850000D02*
X62510000Y-68300000D01*
X62510000Y-68300000D02*
X59410000Y-68300000D01*
X130810000Y-71120000D02*
X130810000Y-116840000D01*
X130810000Y-116840000D02*
X133350000Y-116840000D01*
X133350000Y-116840000D02*
X133350000Y-71120000D01*
X130530000Y-68300000D02*
X130530000Y-69850000D01*
X130810000Y-71120000D02*
X133350000Y-71120000D01*
X133630000Y-69850000D02*
X133630000Y-68300000D01*
X133630000Y-68300000D02*
X130530000Y-68300000D01*
X65127143Y-110656666D02*
X65174762Y-110704285D01*
X65222381Y-110847142D01*
X65222381Y-110942380D01*
X65174762Y-111085238D01*
X65079524Y-111180476D01*
X64984286Y-111228095D01*
X64793810Y-111275714D01*
X64650952Y-111275714D01*
X64460476Y-111228095D01*
X64365238Y-111180476D01*
X64270000Y-111085238D01*
X64222381Y-110942380D01*
X64222381Y-110847142D01*
X64270000Y-110704285D01*
X64317619Y-110656666D01*
X64222381Y-110323333D02*
X64222381Y-109704285D01*
X64603333Y-110037619D01*
X64603333Y-109894761D01*
X64650952Y-109799523D01*
X64698571Y-109751904D01*
X64793810Y-109704285D01*
X65031905Y-109704285D01*
X65127143Y-109751904D01*
X65174762Y-109799523D01*
X65222381Y-109894761D01*
X65222381Y-110180476D01*
X65174762Y-110275714D01*
X65127143Y-110323333D01*
X74747381Y-106846666D02*
X74271190Y-107180000D01*
X74747381Y-107418095D02*
X73747381Y-107418095D01*
X73747381Y-107037142D01*
X73795000Y-106941904D01*
X73842619Y-106894285D01*
X73937857Y-106846666D01*
X74080714Y-106846666D01*
X74175952Y-106894285D01*
X74223571Y-106941904D01*
X74271190Y-107037142D01*
X74271190Y-107418095D01*
X74080714Y-105989523D02*
X74747381Y-105989523D01*
X73699762Y-106227619D02*
X74414048Y-106465714D01*
X74414048Y-105846666D01*
X76112619Y-97250238D02*
X76065000Y-97345476D01*
X75969762Y-97440714D01*
X75826905Y-97583571D01*
X75779286Y-97678810D01*
X75779286Y-97774048D01*
X76017381Y-97726429D02*
X75969762Y-97821667D01*
X75874524Y-97916905D01*
X75684048Y-97964524D01*
X75350714Y-97964524D01*
X75160238Y-97916905D01*
X75065000Y-97821667D01*
X75017381Y-97726429D01*
X75017381Y-97535952D01*
X75065000Y-97440714D01*
X75160238Y-97345476D01*
X75350714Y-97297857D01*
X75684048Y-97297857D01*
X75874524Y-97345476D01*
X75969762Y-97440714D01*
X76017381Y-97535952D01*
X76017381Y-97726429D01*
X75112619Y-96916905D02*
X75065000Y-96869286D01*
X75017381Y-96774048D01*
X75017381Y-96535952D01*
X75065000Y-96440714D01*
X75112619Y-96393095D01*
X75207857Y-96345476D01*
X75303095Y-96345476D01*
X75445952Y-96393095D01*
X76017381Y-96964524D01*
X76017381Y-96345476D01*
X69119762Y-93892619D02*
X69024524Y-93845000D01*
X68929286Y-93749762D01*
X68786429Y-93606905D01*
X68691190Y-93559286D01*
X68595952Y-93559286D01*
X68643571Y-93797381D02*
X68548333Y-93749762D01*
X68453095Y-93654524D01*
X68405476Y-93464048D01*
X68405476Y-93130714D01*
X68453095Y-92940238D01*
X68548333Y-92845000D01*
X68643571Y-92797381D01*
X68834048Y-92797381D01*
X68929286Y-92845000D01*
X69024524Y-92940238D01*
X69072143Y-93130714D01*
X69072143Y-93464048D01*
X69024524Y-93654524D01*
X68929286Y-93749762D01*
X68834048Y-93797381D01*
X68643571Y-93797381D01*
X69405476Y-92797381D02*
X70024524Y-92797381D01*
X69691190Y-93178333D01*
X69834048Y-93178333D01*
X69929286Y-93225952D01*
X69976905Y-93273571D01*
X70024524Y-93368810D01*
X70024524Y-93606905D01*
X69976905Y-93702143D01*
X69929286Y-93749762D01*
X69834048Y-93797381D01*
X69548333Y-93797381D01*
X69453095Y-93749762D01*
X69405476Y-93702143D01*
X78573334Y-93067143D02*
X78525715Y-93114762D01*
X78382858Y-93162381D01*
X78287620Y-93162381D01*
X78144762Y-93114762D01*
X78049524Y-93019524D01*
X78001905Y-92924286D01*
X77954286Y-92733810D01*
X77954286Y-92590952D01*
X78001905Y-92400476D01*
X78049524Y-92305238D01*
X78144762Y-92210000D01*
X78287620Y-92162381D01*
X78382858Y-92162381D01*
X78525715Y-92210000D01*
X78573334Y-92257619D01*
X78954286Y-92257619D02*
X79001905Y-92210000D01*
X79097143Y-92162381D01*
X79335239Y-92162381D01*
X79430477Y-92210000D01*
X79478096Y-92257619D01*
X79525715Y-92352857D01*
X79525715Y-92448095D01*
X79478096Y-92590952D01*
X78906667Y-93162381D01*
X79525715Y-93162381D01*
X79279762Y-78652619D02*
X79184524Y-78605000D01*
X79089286Y-78509762D01*
X78946429Y-78366905D01*
X78851190Y-78319286D01*
X78755952Y-78319286D01*
X78803571Y-78557381D02*
X78708333Y-78509762D01*
X78613095Y-78414524D01*
X78565476Y-78224048D01*
X78565476Y-77890714D01*
X78613095Y-77700238D01*
X78708333Y-77605000D01*
X78803571Y-77557381D01*
X78994048Y-77557381D01*
X79089286Y-77605000D01*
X79184524Y-77700238D01*
X79232143Y-77890714D01*
X79232143Y-78224048D01*
X79184524Y-78414524D01*
X79089286Y-78509762D01*
X78994048Y-78557381D01*
X78803571Y-78557381D01*
X80184524Y-78557381D02*
X79613095Y-78557381D01*
X79898809Y-78557381D02*
X79898809Y-77557381D01*
X79803571Y-77700238D01*
X79708333Y-77795476D01*
X79613095Y-77843095D01*
X68397381Y-91606666D02*
X67921190Y-91940000D01*
X68397381Y-92178095D02*
X67397381Y-92178095D01*
X67397381Y-91797142D01*
X67445000Y-91701904D01*
X67492619Y-91654285D01*
X67587857Y-91606666D01*
X67730714Y-91606666D01*
X67825952Y-91654285D01*
X67873571Y-91701904D01*
X67921190Y-91797142D01*
X67921190Y-92178095D01*
X67492619Y-91225714D02*
X67445000Y-91178095D01*
X67397381Y-91082857D01*
X67397381Y-90844761D01*
X67445000Y-90749523D01*
X67492619Y-90701904D01*
X67587857Y-90654285D01*
X67683095Y-90654285D01*
X67825952Y-90701904D01*
X68397381Y-91273333D01*
X68397381Y-90654285D01*
X78573334Y-72747143D02*
X78525715Y-72794762D01*
X78382858Y-72842381D01*
X78287620Y-72842381D01*
X78144762Y-72794762D01*
X78049524Y-72699524D01*
X78001905Y-72604286D01*
X77954286Y-72413810D01*
X77954286Y-72270952D01*
X78001905Y-72080476D01*
X78049524Y-71985238D01*
X78144762Y-71890000D01*
X78287620Y-71842381D01*
X78382858Y-71842381D01*
X78525715Y-71890000D01*
X78573334Y-71937619D01*
X79525715Y-72842381D02*
X78954286Y-72842381D01*
X79240000Y-72842381D02*
X79240000Y-71842381D01*
X79144762Y-71985238D01*
X79049524Y-72080476D01*
X78954286Y-72128095D01*
X68397381Y-77636666D02*
X67921190Y-77970000D01*
X68397381Y-78208095D02*
X67397381Y-78208095D01*
X67397381Y-77827142D01*
X67445000Y-77731904D01*
X67492619Y-77684285D01*
X67587857Y-77636666D01*
X67730714Y-77636666D01*
X67825952Y-77684285D01*
X67873571Y-77731904D01*
X67921190Y-77827142D01*
X67921190Y-78208095D01*
X68397381Y-76684285D02*
X68397381Y-77255714D01*
X68397381Y-76970000D02*
X67397381Y-76970000D01*
X67540238Y-77065238D01*
X67635476Y-77160476D01*
X67683095Y-77255714D01*
X73477381Y-77636666D02*
X73001190Y-77970000D01*
X73477381Y-78208095D02*
X72477381Y-78208095D01*
X72477381Y-77827142D01*
X72525000Y-77731904D01*
X72572619Y-77684285D01*
X72667857Y-77636666D01*
X72810714Y-77636666D01*
X72905952Y-77684285D01*
X72953571Y-77731904D01*
X73001190Y-77827142D01*
X73001190Y-78208095D01*
X72477381Y-77303333D02*
X72477381Y-76684285D01*
X72858333Y-77017619D01*
X72858333Y-76874761D01*
X72905952Y-76779523D01*
X72953571Y-76731904D01*
X73048810Y-76684285D01*
X73286905Y-76684285D01*
X73382143Y-76731904D01*
X73429762Y-76779523D01*
X73477381Y-76874761D01*
X73477381Y-77160476D01*
X73429762Y-77255714D01*
X73382143Y-77303333D01*
X62761905Y-69032381D02*
X62761905Y-68032381D01*
X63142858Y-68032381D01*
X63238096Y-68080000D01*
X63285715Y-68127619D01*
X63333334Y-68222857D01*
X63333334Y-68365714D01*
X63285715Y-68460952D01*
X63238096Y-68508571D01*
X63142858Y-68556190D01*
X62761905Y-68556190D01*
X63714286Y-68127619D02*
X63761905Y-68080000D01*
X63857143Y-68032381D01*
X64095239Y-68032381D01*
X64190477Y-68080000D01*
X64238096Y-68127619D01*
X64285715Y-68222857D01*
X64285715Y-68318095D01*
X64238096Y-68460952D01*
X63666667Y-69032381D01*
X64285715Y-69032381D01*
X60198096Y-66810000D02*
X60102858Y-66762381D01*
X59960001Y-66762381D01*
X59817143Y-66810000D01*
X59721905Y-66905238D01*
X59674286Y-67000476D01*
X59626667Y-67190952D01*
X59626667Y-67333810D01*
X59674286Y-67524286D01*
X59721905Y-67619524D01*
X59817143Y-67714762D01*
X59960001Y-67762381D01*
X60055239Y-67762381D01*
X60198096Y-67714762D01*
X60245715Y-67667143D01*
X60245715Y-67333810D01*
X60055239Y-67333810D01*
X60674286Y-67762381D02*
X60674286Y-66762381D01*
X61245715Y-67762381D01*
X61245715Y-66762381D01*
X61721905Y-67762381D02*
X61721905Y-66762381D01*
X61960000Y-66762381D01*
X62102858Y-66810000D01*
X62198096Y-66905238D01*
X62245715Y-67000476D01*
X62293334Y-67190952D01*
X62293334Y-67333810D01*
X62245715Y-67524286D01*
X62198096Y-67619524D01*
X62102858Y-67714762D01*
X61960000Y-67762381D01*
X61721905Y-67762381D01*
X128801905Y-69032381D02*
X128801905Y-68032381D01*
X129182858Y-68032381D01*
X129278096Y-68080000D01*
X129325715Y-68127619D01*
X129373334Y-68222857D01*
X129373334Y-68365714D01*
X129325715Y-68460952D01*
X129278096Y-68508571D01*
X129182858Y-68556190D01*
X128801905Y-68556190D01*
X130325715Y-69032381D02*
X129754286Y-69032381D01*
X130040000Y-69032381D02*
X130040000Y-68032381D01*
X129944762Y-68175238D01*
X129849524Y-68270476D01*
X129754286Y-68318095D01*
X131318096Y-66810000D02*
X131222858Y-66762381D01*
X131080001Y-66762381D01*
X130937143Y-66810000D01*
X130841905Y-66905238D01*
X130794286Y-67000476D01*
X130746667Y-67190952D01*
X130746667Y-67333810D01*
X130794286Y-67524286D01*
X130841905Y-67619524D01*
X130937143Y-67714762D01*
X131080001Y-67762381D01*
X131175239Y-67762381D01*
X131318096Y-67714762D01*
X131365715Y-67667143D01*
X131365715Y-67333810D01*
X131175239Y-67333810D01*
X131794286Y-67762381D02*
X131794286Y-66762381D01*
X132365715Y-67762381D01*
X132365715Y-66762381D01*
X132841905Y-67762381D02*
X132841905Y-66762381D01*
X133080000Y-66762381D01*
X133222858Y-66810000D01*
X133318096Y-66905238D01*
X133365715Y-67000476D01*
X133413334Y-67190952D01*
X133413334Y-67333810D01*
X133365715Y-67524286D01*
X133318096Y-67619524D01*
X133222858Y-67714762D01*
X133080000Y-67762381D01*
X132841905Y-67762381D01*
M02*
