G04 #@! TF.FileFunction,Soldermask,Bot*
%FSLAX46Y46*%
G04 Gerber Fmt 4.6, Leading zero omitted, Abs format (unit mm)*
G04 Created by KiCad (PCBNEW 4.0.3+e1-6302~38~ubuntu16.04.1-stable) date Thu Aug 25 17:12:23 2016*
%MOMM*%
%LPD*%
G01*
G04 APERTURE LIST*
%ADD10C,0.100000*%
%ADD11R,1.800000X1.800000*%
%ADD12C,1.800000*%
%ADD13C,2.398980*%
%ADD14C,1.600000*%
%ADD15R,2.432000X2.127200*%
%ADD16O,2.432000X2.127200*%
G04 APERTURE END LIST*
D10*
D11*
X66040000Y-113030000D03*
D12*
X66040000Y-108030000D03*
D13*
X72390000Y-101600000D03*
X72390000Y-111760000D03*
D14*
X78740000Y-97790000D03*
X77470000Y-99060000D03*
X78740000Y-100330000D03*
X69850000Y-90170000D03*
X71120000Y-91440000D03*
X72390000Y-90170000D03*
D11*
X81280000Y-91440000D03*
D12*
X76280000Y-91440000D03*
D14*
X78740000Y-81280000D03*
X77470000Y-80010000D03*
X76200000Y-81280000D03*
D13*
X66040000Y-86360000D03*
X66040000Y-96520000D03*
D11*
X76200000Y-73660000D03*
D12*
X81200000Y-73660000D03*
D13*
X66040000Y-72390000D03*
X66040000Y-82550000D03*
X71120000Y-72390000D03*
X71120000Y-82550000D03*
D15*
X60960000Y-69850000D03*
D16*
X60960000Y-72390000D03*
X60960000Y-74930000D03*
X60960000Y-77470000D03*
X60960000Y-80010000D03*
X60960000Y-82550000D03*
X60960000Y-85090000D03*
X60960000Y-87630000D03*
X60960000Y-90170000D03*
X60960000Y-92710000D03*
X60960000Y-95250000D03*
X60960000Y-97790000D03*
X60960000Y-100330000D03*
X60960000Y-102870000D03*
X60960000Y-105410000D03*
X60960000Y-107950000D03*
X60960000Y-110490000D03*
X60960000Y-113030000D03*
X60960000Y-115570000D03*
D15*
X132080000Y-69850000D03*
D16*
X132080000Y-72390000D03*
X132080000Y-74930000D03*
X132080000Y-77470000D03*
X132080000Y-80010000D03*
X132080000Y-82550000D03*
X132080000Y-85090000D03*
X132080000Y-87630000D03*
X132080000Y-90170000D03*
X132080000Y-92710000D03*
X132080000Y-95250000D03*
X132080000Y-97790000D03*
X132080000Y-100330000D03*
X132080000Y-102870000D03*
X132080000Y-105410000D03*
X132080000Y-107950000D03*
X132080000Y-110490000D03*
X132080000Y-113030000D03*
X132080000Y-115570000D03*
M02*
