G04 #@! TF.FileFunction,Copper,L1,Top,Signal*
%FSLAX46Y46*%
G04 Gerber Fmt 4.6, Leading zero omitted, Abs format (unit mm)*
G04 Created by KiCad (PCBNEW 4.0.3+e1-6302~38~ubuntu16.04.1-stable) date Thu Aug 25 17:12:23 2016*
%MOMM*%
%LPD*%
G01*
G04 APERTURE LIST*
%ADD10C,0.100000*%
%ADD11R,1.400000X1.400000*%
%ADD12C,1.400000*%
%ADD13C,1.998980*%
%ADD14C,1.200000*%
%ADD15R,2.032000X1.727200*%
%ADD16O,2.032000X1.727200*%
%ADD17C,0.250000*%
%ADD18C,0.254000*%
G04 APERTURE END LIST*
D10*
D11*
X66040000Y-113030000D03*
D12*
X66040000Y-108030000D03*
D13*
X72390000Y-101600000D03*
X72390000Y-111760000D03*
D14*
X78740000Y-97790000D03*
X77470000Y-99060000D03*
X78740000Y-100330000D03*
X69850000Y-90170000D03*
X71120000Y-91440000D03*
X72390000Y-90170000D03*
D11*
X81280000Y-91440000D03*
D12*
X76280000Y-91440000D03*
D14*
X78740000Y-81280000D03*
X77470000Y-80010000D03*
X76200000Y-81280000D03*
D13*
X66040000Y-86360000D03*
X66040000Y-96520000D03*
D11*
X76200000Y-73660000D03*
D12*
X81200000Y-73660000D03*
D13*
X66040000Y-72390000D03*
X66040000Y-82550000D03*
X71120000Y-72390000D03*
X71120000Y-82550000D03*
D15*
X60960000Y-69850000D03*
D16*
X60960000Y-72390000D03*
X60960000Y-74930000D03*
X60960000Y-77470000D03*
X60960000Y-80010000D03*
X60960000Y-82550000D03*
X60960000Y-85090000D03*
X60960000Y-87630000D03*
X60960000Y-90170000D03*
X60960000Y-92710000D03*
X60960000Y-95250000D03*
X60960000Y-97790000D03*
X60960000Y-100330000D03*
X60960000Y-102870000D03*
X60960000Y-105410000D03*
X60960000Y-107950000D03*
X60960000Y-110490000D03*
X60960000Y-113030000D03*
X60960000Y-115570000D03*
D15*
X132080000Y-69850000D03*
D16*
X132080000Y-72390000D03*
X132080000Y-74930000D03*
X132080000Y-77470000D03*
X132080000Y-80010000D03*
X132080000Y-82550000D03*
X132080000Y-85090000D03*
X132080000Y-87630000D03*
X132080000Y-90170000D03*
X132080000Y-92710000D03*
X132080000Y-95250000D03*
X132080000Y-97790000D03*
X132080000Y-100330000D03*
X132080000Y-102870000D03*
X132080000Y-105410000D03*
X132080000Y-107950000D03*
X132080000Y-110490000D03*
X132080000Y-113030000D03*
X132080000Y-115570000D03*
D17*
X66040000Y-86360000D02*
X66040000Y-82550000D01*
X66040000Y-82550000D02*
X67310000Y-82550000D01*
X71120000Y-78740000D02*
X76200000Y-78740000D01*
X67310000Y-82550000D02*
X71120000Y-78740000D01*
X76200000Y-73660000D02*
X76200000Y-78740000D01*
X76200000Y-78740000D02*
X77470000Y-80010000D01*
X132080000Y-77470000D02*
X119380000Y-77470000D01*
X115570000Y-73660000D02*
X119380000Y-77470000D01*
X115570000Y-73660000D02*
X81200000Y-73660000D01*
X66040000Y-108030000D02*
X66040000Y-107950000D01*
X66040000Y-107950000D02*
X72390000Y-101600000D01*
X72390000Y-101600000D02*
X74930000Y-101600000D01*
X74930000Y-101600000D02*
X77470000Y-99060000D01*
X77470000Y-99060000D02*
X77470000Y-95250000D01*
X77470000Y-95250000D02*
X81280000Y-91440000D01*
X71120000Y-91440000D02*
X71120000Y-82550000D01*
X71120000Y-91440000D02*
X76280000Y-91440000D01*
X71120000Y-82550000D02*
X74930000Y-82550000D01*
X74930000Y-82550000D02*
X76200000Y-81280000D01*
X60960000Y-113030000D02*
X66040000Y-113030000D01*
X66040000Y-113030000D02*
X71120000Y-113030000D01*
X71120000Y-113030000D02*
X72390000Y-111760000D01*
X72390000Y-111760000D02*
X72390000Y-106680000D01*
X72390000Y-106680000D02*
X78740000Y-100330000D01*
X60960000Y-72390000D02*
X66040000Y-72390000D01*
X66040000Y-72390000D02*
X71120000Y-72390000D01*
X78740000Y-81280000D02*
X78740000Y-83820000D01*
X83820000Y-92710000D02*
X78740000Y-97790000D01*
X83820000Y-88900000D02*
X83820000Y-92710000D01*
X78740000Y-83820000D02*
X83820000Y-88900000D01*
D18*
G36*
X133910000Y-117400000D02*
X59130000Y-117400000D01*
X59130000Y-72390000D01*
X59276655Y-72390000D01*
X59390729Y-72963489D01*
X59715585Y-73449670D01*
X60030366Y-73660000D01*
X59715585Y-73870330D01*
X59390729Y-74356511D01*
X59276655Y-74930000D01*
X59390729Y-75503489D01*
X59715585Y-75989670D01*
X60030366Y-76200000D01*
X59715585Y-76410330D01*
X59390729Y-76896511D01*
X59276655Y-77470000D01*
X59390729Y-78043489D01*
X59715585Y-78529670D01*
X60030366Y-78740000D01*
X59715585Y-78950330D01*
X59390729Y-79436511D01*
X59276655Y-80010000D01*
X59390729Y-80583489D01*
X59715585Y-81069670D01*
X60030366Y-81280000D01*
X59715585Y-81490330D01*
X59390729Y-81976511D01*
X59276655Y-82550000D01*
X59390729Y-83123489D01*
X59715585Y-83609670D01*
X60030366Y-83820000D01*
X59715585Y-84030330D01*
X59390729Y-84516511D01*
X59276655Y-85090000D01*
X59390729Y-85663489D01*
X59715585Y-86149670D01*
X60030366Y-86360000D01*
X59715585Y-86570330D01*
X59390729Y-87056511D01*
X59276655Y-87630000D01*
X59390729Y-88203489D01*
X59715585Y-88689670D01*
X60030366Y-88900000D01*
X59715585Y-89110330D01*
X59390729Y-89596511D01*
X59276655Y-90170000D01*
X59390729Y-90743489D01*
X59715585Y-91229670D01*
X60030366Y-91440000D01*
X59715585Y-91650330D01*
X59390729Y-92136511D01*
X59276655Y-92710000D01*
X59390729Y-93283489D01*
X59715585Y-93769670D01*
X60030366Y-93980000D01*
X59715585Y-94190330D01*
X59390729Y-94676511D01*
X59276655Y-95250000D01*
X59390729Y-95823489D01*
X59715585Y-96309670D01*
X60030366Y-96520000D01*
X59715585Y-96730330D01*
X59390729Y-97216511D01*
X59276655Y-97790000D01*
X59390729Y-98363489D01*
X59715585Y-98849670D01*
X60030366Y-99060000D01*
X59715585Y-99270330D01*
X59390729Y-99756511D01*
X59276655Y-100330000D01*
X59390729Y-100903489D01*
X59715585Y-101389670D01*
X60030366Y-101600000D01*
X59715585Y-101810330D01*
X59390729Y-102296511D01*
X59276655Y-102870000D01*
X59390729Y-103443489D01*
X59715585Y-103929670D01*
X60030366Y-104140000D01*
X59715585Y-104350330D01*
X59390729Y-104836511D01*
X59276655Y-105410000D01*
X59390729Y-105983489D01*
X59715585Y-106469670D01*
X60030366Y-106680000D01*
X59715585Y-106890330D01*
X59390729Y-107376511D01*
X59276655Y-107950000D01*
X59390729Y-108523489D01*
X59715585Y-109009670D01*
X60030366Y-109220000D01*
X59715585Y-109430330D01*
X59390729Y-109916511D01*
X59276655Y-110490000D01*
X59390729Y-111063489D01*
X59715585Y-111549670D01*
X60030366Y-111760000D01*
X59715585Y-111970330D01*
X59390729Y-112456511D01*
X59276655Y-113030000D01*
X59390729Y-113603489D01*
X59715585Y-114089670D01*
X60030366Y-114300000D01*
X59715585Y-114510330D01*
X59390729Y-114996511D01*
X59276655Y-115570000D01*
X59390729Y-116143489D01*
X59715585Y-116629670D01*
X60201766Y-116954526D01*
X60775255Y-117068600D01*
X61144745Y-117068600D01*
X61718234Y-116954526D01*
X62204415Y-116629670D01*
X62529271Y-116143489D01*
X62643345Y-115570000D01*
X62529271Y-114996511D01*
X62204415Y-114510330D01*
X61889634Y-114300000D01*
X62204415Y-114089670D01*
X62404648Y-113790000D01*
X64703850Y-113790000D01*
X64736838Y-113965317D01*
X64875910Y-114181441D01*
X65088110Y-114326431D01*
X65340000Y-114377440D01*
X66740000Y-114377440D01*
X66975317Y-114333162D01*
X67191441Y-114194090D01*
X67336431Y-113981890D01*
X67375290Y-113790000D01*
X71120000Y-113790000D01*
X71410839Y-113732148D01*
X71657401Y-113567401D01*
X71898917Y-113325885D01*
X72063453Y-113394206D01*
X72713694Y-113394774D01*
X73314655Y-113146462D01*
X73774846Y-112687073D01*
X74024206Y-112086547D01*
X74024774Y-111436306D01*
X73776462Y-110835345D01*
X73317073Y-110375154D01*
X73150000Y-110305779D01*
X73150000Y-106994802D01*
X78579941Y-101564861D01*
X78984579Y-101565214D01*
X79438657Y-101377592D01*
X79786371Y-101030485D01*
X79974785Y-100576734D01*
X79975214Y-100085421D01*
X79787592Y-99631343D01*
X79440485Y-99283629D01*
X78986734Y-99095215D01*
X78704970Y-99094969D01*
X78705031Y-99024970D01*
X78984579Y-99025214D01*
X79438657Y-98837592D01*
X79786371Y-98490485D01*
X79974785Y-98036734D01*
X79975140Y-97629662D01*
X84357401Y-93247401D01*
X84522148Y-93000839D01*
X84580000Y-92710000D01*
X84580000Y-88900000D01*
X84522148Y-88609161D01*
X84357401Y-88362599D01*
X79500000Y-83505198D01*
X79500000Y-82266356D01*
X79786371Y-81980485D01*
X79974785Y-81526734D01*
X79975214Y-81035421D01*
X79787592Y-80581343D01*
X79440485Y-80233629D01*
X78986734Y-80045215D01*
X78704970Y-80044969D01*
X78705214Y-79765421D01*
X78517592Y-79311343D01*
X78170485Y-78963629D01*
X77716734Y-78775215D01*
X77309662Y-78774860D01*
X76960000Y-78425198D01*
X76960000Y-74996150D01*
X77135317Y-74963162D01*
X77351441Y-74824090D01*
X77496431Y-74611890D01*
X77547440Y-74360000D01*
X77547440Y-73924383D01*
X79864769Y-73924383D01*
X80067582Y-74415229D01*
X80442796Y-74791098D01*
X80933287Y-74994768D01*
X81464383Y-74995231D01*
X81955229Y-74792418D01*
X82328297Y-74420000D01*
X115255198Y-74420000D01*
X118842599Y-78007401D01*
X119089161Y-78172148D01*
X119380000Y-78230000D01*
X130635352Y-78230000D01*
X130835585Y-78529670D01*
X131150366Y-78740000D01*
X130835585Y-78950330D01*
X130510729Y-79436511D01*
X130396655Y-80010000D01*
X130510729Y-80583489D01*
X130835585Y-81069670D01*
X131150366Y-81280000D01*
X130835585Y-81490330D01*
X130510729Y-81976511D01*
X130396655Y-82550000D01*
X130510729Y-83123489D01*
X130835585Y-83609670D01*
X131150366Y-83820000D01*
X130835585Y-84030330D01*
X130510729Y-84516511D01*
X130396655Y-85090000D01*
X130510729Y-85663489D01*
X130835585Y-86149670D01*
X131150366Y-86360000D01*
X130835585Y-86570330D01*
X130510729Y-87056511D01*
X130396655Y-87630000D01*
X130510729Y-88203489D01*
X130835585Y-88689670D01*
X131150366Y-88900000D01*
X130835585Y-89110330D01*
X130510729Y-89596511D01*
X130396655Y-90170000D01*
X130510729Y-90743489D01*
X130835585Y-91229670D01*
X131150366Y-91440000D01*
X130835585Y-91650330D01*
X130510729Y-92136511D01*
X130396655Y-92710000D01*
X130510729Y-93283489D01*
X130835585Y-93769670D01*
X131150366Y-93980000D01*
X130835585Y-94190330D01*
X130510729Y-94676511D01*
X130396655Y-95250000D01*
X130510729Y-95823489D01*
X130835585Y-96309670D01*
X131150366Y-96520000D01*
X130835585Y-96730330D01*
X130510729Y-97216511D01*
X130396655Y-97790000D01*
X130510729Y-98363489D01*
X130835585Y-98849670D01*
X131150366Y-99060000D01*
X130835585Y-99270330D01*
X130510729Y-99756511D01*
X130396655Y-100330000D01*
X130510729Y-100903489D01*
X130835585Y-101389670D01*
X131150366Y-101600000D01*
X130835585Y-101810330D01*
X130510729Y-102296511D01*
X130396655Y-102870000D01*
X130510729Y-103443489D01*
X130835585Y-103929670D01*
X131150366Y-104140000D01*
X130835585Y-104350330D01*
X130510729Y-104836511D01*
X130396655Y-105410000D01*
X130510729Y-105983489D01*
X130835585Y-106469670D01*
X131150366Y-106680000D01*
X130835585Y-106890330D01*
X130510729Y-107376511D01*
X130396655Y-107950000D01*
X130510729Y-108523489D01*
X130835585Y-109009670D01*
X131150366Y-109220000D01*
X130835585Y-109430330D01*
X130510729Y-109916511D01*
X130396655Y-110490000D01*
X130510729Y-111063489D01*
X130835585Y-111549670D01*
X131150366Y-111760000D01*
X130835585Y-111970330D01*
X130510729Y-112456511D01*
X130396655Y-113030000D01*
X130510729Y-113603489D01*
X130835585Y-114089670D01*
X131150366Y-114300000D01*
X130835585Y-114510330D01*
X130510729Y-114996511D01*
X130396655Y-115570000D01*
X130510729Y-116143489D01*
X130835585Y-116629670D01*
X131321766Y-116954526D01*
X131895255Y-117068600D01*
X132264745Y-117068600D01*
X132838234Y-116954526D01*
X133324415Y-116629670D01*
X133649271Y-116143489D01*
X133763345Y-115570000D01*
X133649271Y-114996511D01*
X133324415Y-114510330D01*
X133009634Y-114300000D01*
X133324415Y-114089670D01*
X133649271Y-113603489D01*
X133763345Y-113030000D01*
X133649271Y-112456511D01*
X133324415Y-111970330D01*
X133009634Y-111760000D01*
X133324415Y-111549670D01*
X133649271Y-111063489D01*
X133763345Y-110490000D01*
X133649271Y-109916511D01*
X133324415Y-109430330D01*
X133009634Y-109220000D01*
X133324415Y-109009670D01*
X133649271Y-108523489D01*
X133763345Y-107950000D01*
X133649271Y-107376511D01*
X133324415Y-106890330D01*
X133009634Y-106680000D01*
X133324415Y-106469670D01*
X133649271Y-105983489D01*
X133763345Y-105410000D01*
X133649271Y-104836511D01*
X133324415Y-104350330D01*
X133009634Y-104140000D01*
X133324415Y-103929670D01*
X133649271Y-103443489D01*
X133763345Y-102870000D01*
X133649271Y-102296511D01*
X133324415Y-101810330D01*
X133009634Y-101600000D01*
X133324415Y-101389670D01*
X133649271Y-100903489D01*
X133763345Y-100330000D01*
X133649271Y-99756511D01*
X133324415Y-99270330D01*
X133009634Y-99060000D01*
X133324415Y-98849670D01*
X133649271Y-98363489D01*
X133763345Y-97790000D01*
X133649271Y-97216511D01*
X133324415Y-96730330D01*
X133009634Y-96520000D01*
X133324415Y-96309670D01*
X133649271Y-95823489D01*
X133763345Y-95250000D01*
X133649271Y-94676511D01*
X133324415Y-94190330D01*
X133009634Y-93980000D01*
X133324415Y-93769670D01*
X133649271Y-93283489D01*
X133763345Y-92710000D01*
X133649271Y-92136511D01*
X133324415Y-91650330D01*
X133009634Y-91440000D01*
X133324415Y-91229670D01*
X133649271Y-90743489D01*
X133763345Y-90170000D01*
X133649271Y-89596511D01*
X133324415Y-89110330D01*
X133009634Y-88900000D01*
X133324415Y-88689670D01*
X133649271Y-88203489D01*
X133763345Y-87630000D01*
X133649271Y-87056511D01*
X133324415Y-86570330D01*
X133009634Y-86360000D01*
X133324415Y-86149670D01*
X133649271Y-85663489D01*
X133763345Y-85090000D01*
X133649271Y-84516511D01*
X133324415Y-84030330D01*
X133009634Y-83820000D01*
X133324415Y-83609670D01*
X133649271Y-83123489D01*
X133763345Y-82550000D01*
X133649271Y-81976511D01*
X133324415Y-81490330D01*
X133009634Y-81280000D01*
X133324415Y-81069670D01*
X133649271Y-80583489D01*
X133763345Y-80010000D01*
X133649271Y-79436511D01*
X133324415Y-78950330D01*
X133009634Y-78740000D01*
X133324415Y-78529670D01*
X133649271Y-78043489D01*
X133763345Y-77470000D01*
X133649271Y-76896511D01*
X133324415Y-76410330D01*
X133009634Y-76200000D01*
X133324415Y-75989670D01*
X133649271Y-75503489D01*
X133763345Y-74930000D01*
X133649271Y-74356511D01*
X133324415Y-73870330D01*
X133009634Y-73660000D01*
X133324415Y-73449670D01*
X133649271Y-72963489D01*
X133763345Y-72390000D01*
X133649271Y-71816511D01*
X133324415Y-71330330D01*
X133302220Y-71315500D01*
X133455699Y-71251927D01*
X133634327Y-71073298D01*
X133731000Y-70839909D01*
X133731000Y-70135750D01*
X133572250Y-69977000D01*
X132207000Y-69977000D01*
X132207000Y-69997000D01*
X131953000Y-69997000D01*
X131953000Y-69977000D01*
X130587750Y-69977000D01*
X130429000Y-70135750D01*
X130429000Y-70839909D01*
X130525673Y-71073298D01*
X130704301Y-71251927D01*
X130857780Y-71315500D01*
X130835585Y-71330330D01*
X130510729Y-71816511D01*
X130396655Y-72390000D01*
X130510729Y-72963489D01*
X130835585Y-73449670D01*
X131150366Y-73660000D01*
X130835585Y-73870330D01*
X130510729Y-74356511D01*
X130396655Y-74930000D01*
X130510729Y-75503489D01*
X130835585Y-75989670D01*
X131150366Y-76200000D01*
X130835585Y-76410330D01*
X130635352Y-76710000D01*
X119694802Y-76710000D01*
X116107401Y-73122599D01*
X115860839Y-72957852D01*
X115570000Y-72900000D01*
X82327655Y-72900000D01*
X81957204Y-72528902D01*
X81466713Y-72325232D01*
X80935617Y-72324769D01*
X80444771Y-72527582D01*
X80068902Y-72902796D01*
X79865232Y-73393287D01*
X79864769Y-73924383D01*
X77547440Y-73924383D01*
X77547440Y-72960000D01*
X77503162Y-72724683D01*
X77364090Y-72508559D01*
X77151890Y-72363569D01*
X76900000Y-72312560D01*
X75500000Y-72312560D01*
X75264683Y-72356838D01*
X75048559Y-72495910D01*
X74903569Y-72708110D01*
X74852560Y-72960000D01*
X74852560Y-74360000D01*
X74896838Y-74595317D01*
X75035910Y-74811441D01*
X75248110Y-74956431D01*
X75440000Y-74995290D01*
X75440000Y-77980000D01*
X71120000Y-77980000D01*
X70829161Y-78037852D01*
X70582599Y-78202599D01*
X67293274Y-81491924D01*
X66967073Y-81165154D01*
X66366547Y-80915794D01*
X65716306Y-80915226D01*
X65115345Y-81163538D01*
X64655154Y-81622927D01*
X64405794Y-82223453D01*
X64405226Y-82873694D01*
X64653538Y-83474655D01*
X65112927Y-83934846D01*
X65280000Y-84004221D01*
X65280000Y-84905504D01*
X65115345Y-84973538D01*
X64655154Y-85432927D01*
X64405794Y-86033453D01*
X64405226Y-86683694D01*
X64653538Y-87284655D01*
X65112927Y-87744846D01*
X65713453Y-87994206D01*
X66363694Y-87994774D01*
X66964655Y-87746462D01*
X67424846Y-87287073D01*
X67674206Y-86686547D01*
X67674774Y-86036306D01*
X67426462Y-85435345D01*
X66967073Y-84975154D01*
X66800000Y-84905779D01*
X66800000Y-84004496D01*
X66964655Y-83936462D01*
X67424846Y-83477073D01*
X67510807Y-83270057D01*
X67600839Y-83252148D01*
X67847401Y-83087401D01*
X71434802Y-79500000D01*
X75885198Y-79500000D01*
X76235139Y-79849941D01*
X76234969Y-80045030D01*
X75955421Y-80044786D01*
X75501343Y-80232408D01*
X75153629Y-80579515D01*
X74965215Y-81033266D01*
X74964860Y-81440338D01*
X74615198Y-81790000D01*
X72574496Y-81790000D01*
X72506462Y-81625345D01*
X72047073Y-81165154D01*
X71446547Y-80915794D01*
X70796306Y-80915226D01*
X70195345Y-81163538D01*
X69735154Y-81622927D01*
X69485794Y-82223453D01*
X69485226Y-82873694D01*
X69733538Y-83474655D01*
X70192927Y-83934846D01*
X70360000Y-84004221D01*
X70360000Y-89044533D01*
X70096734Y-88935215D01*
X69605421Y-88934786D01*
X69151343Y-89122408D01*
X68803629Y-89469515D01*
X68615215Y-89923266D01*
X68614786Y-90414579D01*
X68802408Y-90868657D01*
X69149515Y-91216371D01*
X69603266Y-91404785D01*
X69885030Y-91405031D01*
X69884786Y-91684579D01*
X70072408Y-92138657D01*
X70419515Y-92486371D01*
X70873266Y-92674785D01*
X71364579Y-92675214D01*
X71818657Y-92487592D01*
X72106752Y-92200000D01*
X75152345Y-92200000D01*
X75522796Y-92571098D01*
X76013287Y-92774768D01*
X76544383Y-92775231D01*
X77035229Y-92572418D01*
X77411098Y-92197204D01*
X77614768Y-91706713D01*
X77615231Y-91175617D01*
X77412418Y-90684771D01*
X77037204Y-90308902D01*
X76546713Y-90105232D01*
X76015617Y-90104769D01*
X75524771Y-90307582D01*
X75151703Y-90680000D01*
X73515467Y-90680000D01*
X73624785Y-90416734D01*
X73625214Y-89925421D01*
X73437592Y-89471343D01*
X73090485Y-89123629D01*
X72636734Y-88935215D01*
X72145421Y-88934786D01*
X71880000Y-89044456D01*
X71880000Y-84004496D01*
X72044655Y-83936462D01*
X72504846Y-83477073D01*
X72574221Y-83310000D01*
X74930000Y-83310000D01*
X75220839Y-83252148D01*
X75467401Y-83087401D01*
X76039941Y-82514861D01*
X76444579Y-82515214D01*
X76898657Y-82327592D01*
X77246371Y-81980485D01*
X77434785Y-81526734D01*
X77435031Y-81244970D01*
X77505030Y-81245031D01*
X77504786Y-81524579D01*
X77692408Y-81978657D01*
X77980000Y-82266752D01*
X77980000Y-83820000D01*
X78037852Y-84110839D01*
X78202599Y-84357401D01*
X83060000Y-89214802D01*
X83060000Y-92395198D01*
X78900059Y-96555139D01*
X78495421Y-96554786D01*
X78230000Y-96664456D01*
X78230000Y-95564802D01*
X81007362Y-92787440D01*
X81980000Y-92787440D01*
X82215317Y-92743162D01*
X82431441Y-92604090D01*
X82576431Y-92391890D01*
X82627440Y-92140000D01*
X82627440Y-90740000D01*
X82583162Y-90504683D01*
X82444090Y-90288559D01*
X82231890Y-90143569D01*
X81980000Y-90092560D01*
X80580000Y-90092560D01*
X80344683Y-90136838D01*
X80128559Y-90275910D01*
X79983569Y-90488110D01*
X79932560Y-90740000D01*
X79932560Y-91712638D01*
X76932599Y-94712599D01*
X76767852Y-94959161D01*
X76710000Y-95250000D01*
X76710000Y-98073644D01*
X76423629Y-98359515D01*
X76235215Y-98813266D01*
X76234860Y-99220338D01*
X74615198Y-100840000D01*
X73844496Y-100840000D01*
X73776462Y-100675345D01*
X73317073Y-100215154D01*
X72716547Y-99965794D01*
X72066306Y-99965226D01*
X71465345Y-100213538D01*
X71005154Y-100672927D01*
X70755794Y-101273453D01*
X70755226Y-101923694D01*
X70824309Y-102090889D01*
X66220042Y-106695156D01*
X65775617Y-106694769D01*
X65284771Y-106897582D01*
X64908902Y-107272796D01*
X64705232Y-107763287D01*
X64704769Y-108294383D01*
X64907582Y-108785229D01*
X65282796Y-109161098D01*
X65773287Y-109364768D01*
X66304383Y-109365231D01*
X66795229Y-109162418D01*
X67171098Y-108787204D01*
X67374768Y-108296713D01*
X67375231Y-107765617D01*
X67352997Y-107711805D01*
X71898917Y-103165885D01*
X72063453Y-103234206D01*
X72713694Y-103234774D01*
X73314655Y-102986462D01*
X73774846Y-102527073D01*
X73844221Y-102360000D01*
X74930000Y-102360000D01*
X75220839Y-102302148D01*
X75467401Y-102137401D01*
X77309941Y-100294861D01*
X77505030Y-100295031D01*
X77504860Y-100490338D01*
X71852599Y-106142599D01*
X71687852Y-106389161D01*
X71630000Y-106680000D01*
X71630000Y-110305504D01*
X71465345Y-110373538D01*
X71005154Y-110832927D01*
X70755794Y-111433453D01*
X70755226Y-112083694D01*
X70824309Y-112250889D01*
X70805198Y-112270000D01*
X67376150Y-112270000D01*
X67343162Y-112094683D01*
X67204090Y-111878559D01*
X66991890Y-111733569D01*
X66740000Y-111682560D01*
X65340000Y-111682560D01*
X65104683Y-111726838D01*
X64888559Y-111865910D01*
X64743569Y-112078110D01*
X64704710Y-112270000D01*
X62404648Y-112270000D01*
X62204415Y-111970330D01*
X61889634Y-111760000D01*
X62204415Y-111549670D01*
X62529271Y-111063489D01*
X62643345Y-110490000D01*
X62529271Y-109916511D01*
X62204415Y-109430330D01*
X61889634Y-109220000D01*
X62204415Y-109009670D01*
X62529271Y-108523489D01*
X62643345Y-107950000D01*
X62529271Y-107376511D01*
X62204415Y-106890330D01*
X61889634Y-106680000D01*
X62204415Y-106469670D01*
X62529271Y-105983489D01*
X62643345Y-105410000D01*
X62529271Y-104836511D01*
X62204415Y-104350330D01*
X61889634Y-104140000D01*
X62204415Y-103929670D01*
X62529271Y-103443489D01*
X62643345Y-102870000D01*
X62529271Y-102296511D01*
X62204415Y-101810330D01*
X61889634Y-101600000D01*
X62204415Y-101389670D01*
X62529271Y-100903489D01*
X62643345Y-100330000D01*
X62529271Y-99756511D01*
X62204415Y-99270330D01*
X61889634Y-99060000D01*
X62204415Y-98849670D01*
X62529271Y-98363489D01*
X62643345Y-97790000D01*
X62619906Y-97672163D01*
X65067443Y-97672163D01*
X65166042Y-97938965D01*
X65775582Y-98165401D01*
X66425377Y-98141341D01*
X66913958Y-97938965D01*
X67012557Y-97672163D01*
X66040000Y-96699605D01*
X65067443Y-97672163D01*
X62619906Y-97672163D01*
X62529271Y-97216511D01*
X62204415Y-96730330D01*
X61889634Y-96520000D01*
X62204415Y-96309670D01*
X62240555Y-96255582D01*
X64394599Y-96255582D01*
X64418659Y-96905377D01*
X64621035Y-97393958D01*
X64887837Y-97492557D01*
X65860395Y-96520000D01*
X66219605Y-96520000D01*
X67192163Y-97492557D01*
X67458965Y-97393958D01*
X67685401Y-96784418D01*
X67661341Y-96134623D01*
X67458965Y-95646042D01*
X67192163Y-95547443D01*
X66219605Y-96520000D01*
X65860395Y-96520000D01*
X64887837Y-95547443D01*
X64621035Y-95646042D01*
X64394599Y-96255582D01*
X62240555Y-96255582D01*
X62529271Y-95823489D01*
X62619905Y-95367837D01*
X65067443Y-95367837D01*
X66040000Y-96340395D01*
X67012557Y-95367837D01*
X66913958Y-95101035D01*
X66304418Y-94874599D01*
X65654623Y-94898659D01*
X65166042Y-95101035D01*
X65067443Y-95367837D01*
X62619905Y-95367837D01*
X62643345Y-95250000D01*
X62529271Y-94676511D01*
X62204415Y-94190330D01*
X61889634Y-93980000D01*
X62204415Y-93769670D01*
X62529271Y-93283489D01*
X62643345Y-92710000D01*
X62529271Y-92136511D01*
X62204415Y-91650330D01*
X61889634Y-91440000D01*
X62204415Y-91229670D01*
X62529271Y-90743489D01*
X62643345Y-90170000D01*
X62529271Y-89596511D01*
X62204415Y-89110330D01*
X61889634Y-88900000D01*
X62204415Y-88689670D01*
X62529271Y-88203489D01*
X62643345Y-87630000D01*
X62529271Y-87056511D01*
X62204415Y-86570330D01*
X61889634Y-86360000D01*
X62204415Y-86149670D01*
X62529271Y-85663489D01*
X62643345Y-85090000D01*
X62529271Y-84516511D01*
X62204415Y-84030330D01*
X61889634Y-83820000D01*
X62204415Y-83609670D01*
X62529271Y-83123489D01*
X62643345Y-82550000D01*
X62529271Y-81976511D01*
X62204415Y-81490330D01*
X61889634Y-81280000D01*
X62204415Y-81069670D01*
X62529271Y-80583489D01*
X62643345Y-80010000D01*
X62529271Y-79436511D01*
X62204415Y-78950330D01*
X61889634Y-78740000D01*
X62204415Y-78529670D01*
X62529271Y-78043489D01*
X62643345Y-77470000D01*
X62529271Y-76896511D01*
X62204415Y-76410330D01*
X61889634Y-76200000D01*
X62204415Y-75989670D01*
X62529271Y-75503489D01*
X62643345Y-74930000D01*
X62529271Y-74356511D01*
X62204415Y-73870330D01*
X61889634Y-73660000D01*
X62204415Y-73449670D01*
X62404648Y-73150000D01*
X64585504Y-73150000D01*
X64653538Y-73314655D01*
X65112927Y-73774846D01*
X65713453Y-74024206D01*
X66363694Y-74024774D01*
X66964655Y-73776462D01*
X67424846Y-73317073D01*
X67494221Y-73150000D01*
X69665504Y-73150000D01*
X69733538Y-73314655D01*
X70192927Y-73774846D01*
X70793453Y-74024206D01*
X71443694Y-74024774D01*
X72044655Y-73776462D01*
X72504846Y-73317073D01*
X72754206Y-72716547D01*
X72754774Y-72066306D01*
X72506462Y-71465345D01*
X72047073Y-71005154D01*
X71446547Y-70755794D01*
X70796306Y-70755226D01*
X70195345Y-71003538D01*
X69735154Y-71462927D01*
X69665779Y-71630000D01*
X67494496Y-71630000D01*
X67426462Y-71465345D01*
X66967073Y-71005154D01*
X66366547Y-70755794D01*
X65716306Y-70755226D01*
X65115345Y-71003538D01*
X64655154Y-71462927D01*
X64585779Y-71630000D01*
X62404648Y-71630000D01*
X62204415Y-71330330D01*
X62182220Y-71315500D01*
X62335699Y-71251927D01*
X62514327Y-71073298D01*
X62611000Y-70839909D01*
X62611000Y-70135750D01*
X62452250Y-69977000D01*
X61087000Y-69977000D01*
X61087000Y-69997000D01*
X60833000Y-69997000D01*
X60833000Y-69977000D01*
X59467750Y-69977000D01*
X59309000Y-70135750D01*
X59309000Y-70839909D01*
X59405673Y-71073298D01*
X59584301Y-71251927D01*
X59737780Y-71315500D01*
X59715585Y-71330330D01*
X59390729Y-71816511D01*
X59276655Y-72390000D01*
X59130000Y-72390000D01*
X59130000Y-68860091D01*
X59309000Y-68860091D01*
X59309000Y-69564250D01*
X59467750Y-69723000D01*
X60833000Y-69723000D01*
X60833000Y-68510150D01*
X61087000Y-68510150D01*
X61087000Y-69723000D01*
X62452250Y-69723000D01*
X62611000Y-69564250D01*
X62611000Y-68860091D01*
X130429000Y-68860091D01*
X130429000Y-69564250D01*
X130587750Y-69723000D01*
X131953000Y-69723000D01*
X131953000Y-68510150D01*
X132207000Y-68510150D01*
X132207000Y-69723000D01*
X133572250Y-69723000D01*
X133731000Y-69564250D01*
X133731000Y-68860091D01*
X133634327Y-68626702D01*
X133455699Y-68448073D01*
X133222310Y-68351400D01*
X132365750Y-68351400D01*
X132207000Y-68510150D01*
X131953000Y-68510150D01*
X131794250Y-68351400D01*
X130937690Y-68351400D01*
X130704301Y-68448073D01*
X130525673Y-68626702D01*
X130429000Y-68860091D01*
X62611000Y-68860091D01*
X62514327Y-68626702D01*
X62335699Y-68448073D01*
X62102310Y-68351400D01*
X61245750Y-68351400D01*
X61087000Y-68510150D01*
X60833000Y-68510150D01*
X60674250Y-68351400D01*
X59817690Y-68351400D01*
X59584301Y-68448073D01*
X59405673Y-68626702D01*
X59309000Y-68860091D01*
X59130000Y-68860091D01*
X59130000Y-66750000D01*
X133910000Y-66750000D01*
X133910000Y-117400000D01*
X133910000Y-117400000D01*
G37*
X133910000Y-117400000D02*
X59130000Y-117400000D01*
X59130000Y-72390000D01*
X59276655Y-72390000D01*
X59390729Y-72963489D01*
X59715585Y-73449670D01*
X60030366Y-73660000D01*
X59715585Y-73870330D01*
X59390729Y-74356511D01*
X59276655Y-74930000D01*
X59390729Y-75503489D01*
X59715585Y-75989670D01*
X60030366Y-76200000D01*
X59715585Y-76410330D01*
X59390729Y-76896511D01*
X59276655Y-77470000D01*
X59390729Y-78043489D01*
X59715585Y-78529670D01*
X60030366Y-78740000D01*
X59715585Y-78950330D01*
X59390729Y-79436511D01*
X59276655Y-80010000D01*
X59390729Y-80583489D01*
X59715585Y-81069670D01*
X60030366Y-81280000D01*
X59715585Y-81490330D01*
X59390729Y-81976511D01*
X59276655Y-82550000D01*
X59390729Y-83123489D01*
X59715585Y-83609670D01*
X60030366Y-83820000D01*
X59715585Y-84030330D01*
X59390729Y-84516511D01*
X59276655Y-85090000D01*
X59390729Y-85663489D01*
X59715585Y-86149670D01*
X60030366Y-86360000D01*
X59715585Y-86570330D01*
X59390729Y-87056511D01*
X59276655Y-87630000D01*
X59390729Y-88203489D01*
X59715585Y-88689670D01*
X60030366Y-88900000D01*
X59715585Y-89110330D01*
X59390729Y-89596511D01*
X59276655Y-90170000D01*
X59390729Y-90743489D01*
X59715585Y-91229670D01*
X60030366Y-91440000D01*
X59715585Y-91650330D01*
X59390729Y-92136511D01*
X59276655Y-92710000D01*
X59390729Y-93283489D01*
X59715585Y-93769670D01*
X60030366Y-93980000D01*
X59715585Y-94190330D01*
X59390729Y-94676511D01*
X59276655Y-95250000D01*
X59390729Y-95823489D01*
X59715585Y-96309670D01*
X60030366Y-96520000D01*
X59715585Y-96730330D01*
X59390729Y-97216511D01*
X59276655Y-97790000D01*
X59390729Y-98363489D01*
X59715585Y-98849670D01*
X60030366Y-99060000D01*
X59715585Y-99270330D01*
X59390729Y-99756511D01*
X59276655Y-100330000D01*
X59390729Y-100903489D01*
X59715585Y-101389670D01*
X60030366Y-101600000D01*
X59715585Y-101810330D01*
X59390729Y-102296511D01*
X59276655Y-102870000D01*
X59390729Y-103443489D01*
X59715585Y-103929670D01*
X60030366Y-104140000D01*
X59715585Y-104350330D01*
X59390729Y-104836511D01*
X59276655Y-105410000D01*
X59390729Y-105983489D01*
X59715585Y-106469670D01*
X60030366Y-106680000D01*
X59715585Y-106890330D01*
X59390729Y-107376511D01*
X59276655Y-107950000D01*
X59390729Y-108523489D01*
X59715585Y-109009670D01*
X60030366Y-109220000D01*
X59715585Y-109430330D01*
X59390729Y-109916511D01*
X59276655Y-110490000D01*
X59390729Y-111063489D01*
X59715585Y-111549670D01*
X60030366Y-111760000D01*
X59715585Y-111970330D01*
X59390729Y-112456511D01*
X59276655Y-113030000D01*
X59390729Y-113603489D01*
X59715585Y-114089670D01*
X60030366Y-114300000D01*
X59715585Y-114510330D01*
X59390729Y-114996511D01*
X59276655Y-115570000D01*
X59390729Y-116143489D01*
X59715585Y-116629670D01*
X60201766Y-116954526D01*
X60775255Y-117068600D01*
X61144745Y-117068600D01*
X61718234Y-116954526D01*
X62204415Y-116629670D01*
X62529271Y-116143489D01*
X62643345Y-115570000D01*
X62529271Y-114996511D01*
X62204415Y-114510330D01*
X61889634Y-114300000D01*
X62204415Y-114089670D01*
X62404648Y-113790000D01*
X64703850Y-113790000D01*
X64736838Y-113965317D01*
X64875910Y-114181441D01*
X65088110Y-114326431D01*
X65340000Y-114377440D01*
X66740000Y-114377440D01*
X66975317Y-114333162D01*
X67191441Y-114194090D01*
X67336431Y-113981890D01*
X67375290Y-113790000D01*
X71120000Y-113790000D01*
X71410839Y-113732148D01*
X71657401Y-113567401D01*
X71898917Y-113325885D01*
X72063453Y-113394206D01*
X72713694Y-113394774D01*
X73314655Y-113146462D01*
X73774846Y-112687073D01*
X74024206Y-112086547D01*
X74024774Y-111436306D01*
X73776462Y-110835345D01*
X73317073Y-110375154D01*
X73150000Y-110305779D01*
X73150000Y-106994802D01*
X78579941Y-101564861D01*
X78984579Y-101565214D01*
X79438657Y-101377592D01*
X79786371Y-101030485D01*
X79974785Y-100576734D01*
X79975214Y-100085421D01*
X79787592Y-99631343D01*
X79440485Y-99283629D01*
X78986734Y-99095215D01*
X78704970Y-99094969D01*
X78705031Y-99024970D01*
X78984579Y-99025214D01*
X79438657Y-98837592D01*
X79786371Y-98490485D01*
X79974785Y-98036734D01*
X79975140Y-97629662D01*
X84357401Y-93247401D01*
X84522148Y-93000839D01*
X84580000Y-92710000D01*
X84580000Y-88900000D01*
X84522148Y-88609161D01*
X84357401Y-88362599D01*
X79500000Y-83505198D01*
X79500000Y-82266356D01*
X79786371Y-81980485D01*
X79974785Y-81526734D01*
X79975214Y-81035421D01*
X79787592Y-80581343D01*
X79440485Y-80233629D01*
X78986734Y-80045215D01*
X78704970Y-80044969D01*
X78705214Y-79765421D01*
X78517592Y-79311343D01*
X78170485Y-78963629D01*
X77716734Y-78775215D01*
X77309662Y-78774860D01*
X76960000Y-78425198D01*
X76960000Y-74996150D01*
X77135317Y-74963162D01*
X77351441Y-74824090D01*
X77496431Y-74611890D01*
X77547440Y-74360000D01*
X77547440Y-73924383D01*
X79864769Y-73924383D01*
X80067582Y-74415229D01*
X80442796Y-74791098D01*
X80933287Y-74994768D01*
X81464383Y-74995231D01*
X81955229Y-74792418D01*
X82328297Y-74420000D01*
X115255198Y-74420000D01*
X118842599Y-78007401D01*
X119089161Y-78172148D01*
X119380000Y-78230000D01*
X130635352Y-78230000D01*
X130835585Y-78529670D01*
X131150366Y-78740000D01*
X130835585Y-78950330D01*
X130510729Y-79436511D01*
X130396655Y-80010000D01*
X130510729Y-80583489D01*
X130835585Y-81069670D01*
X131150366Y-81280000D01*
X130835585Y-81490330D01*
X130510729Y-81976511D01*
X130396655Y-82550000D01*
X130510729Y-83123489D01*
X130835585Y-83609670D01*
X131150366Y-83820000D01*
X130835585Y-84030330D01*
X130510729Y-84516511D01*
X130396655Y-85090000D01*
X130510729Y-85663489D01*
X130835585Y-86149670D01*
X131150366Y-86360000D01*
X130835585Y-86570330D01*
X130510729Y-87056511D01*
X130396655Y-87630000D01*
X130510729Y-88203489D01*
X130835585Y-88689670D01*
X131150366Y-88900000D01*
X130835585Y-89110330D01*
X130510729Y-89596511D01*
X130396655Y-90170000D01*
X130510729Y-90743489D01*
X130835585Y-91229670D01*
X131150366Y-91440000D01*
X130835585Y-91650330D01*
X130510729Y-92136511D01*
X130396655Y-92710000D01*
X130510729Y-93283489D01*
X130835585Y-93769670D01*
X131150366Y-93980000D01*
X130835585Y-94190330D01*
X130510729Y-94676511D01*
X130396655Y-95250000D01*
X130510729Y-95823489D01*
X130835585Y-96309670D01*
X131150366Y-96520000D01*
X130835585Y-96730330D01*
X130510729Y-97216511D01*
X130396655Y-97790000D01*
X130510729Y-98363489D01*
X130835585Y-98849670D01*
X131150366Y-99060000D01*
X130835585Y-99270330D01*
X130510729Y-99756511D01*
X130396655Y-100330000D01*
X130510729Y-100903489D01*
X130835585Y-101389670D01*
X131150366Y-101600000D01*
X130835585Y-101810330D01*
X130510729Y-102296511D01*
X130396655Y-102870000D01*
X130510729Y-103443489D01*
X130835585Y-103929670D01*
X131150366Y-104140000D01*
X130835585Y-104350330D01*
X130510729Y-104836511D01*
X130396655Y-105410000D01*
X130510729Y-105983489D01*
X130835585Y-106469670D01*
X131150366Y-106680000D01*
X130835585Y-106890330D01*
X130510729Y-107376511D01*
X130396655Y-107950000D01*
X130510729Y-108523489D01*
X130835585Y-109009670D01*
X131150366Y-109220000D01*
X130835585Y-109430330D01*
X130510729Y-109916511D01*
X130396655Y-110490000D01*
X130510729Y-111063489D01*
X130835585Y-111549670D01*
X131150366Y-111760000D01*
X130835585Y-111970330D01*
X130510729Y-112456511D01*
X130396655Y-113030000D01*
X130510729Y-113603489D01*
X130835585Y-114089670D01*
X131150366Y-114300000D01*
X130835585Y-114510330D01*
X130510729Y-114996511D01*
X130396655Y-115570000D01*
X130510729Y-116143489D01*
X130835585Y-116629670D01*
X131321766Y-116954526D01*
X131895255Y-117068600D01*
X132264745Y-117068600D01*
X132838234Y-116954526D01*
X133324415Y-116629670D01*
X133649271Y-116143489D01*
X133763345Y-115570000D01*
X133649271Y-114996511D01*
X133324415Y-114510330D01*
X133009634Y-114300000D01*
X133324415Y-114089670D01*
X133649271Y-113603489D01*
X133763345Y-113030000D01*
X133649271Y-112456511D01*
X133324415Y-111970330D01*
X133009634Y-111760000D01*
X133324415Y-111549670D01*
X133649271Y-111063489D01*
X133763345Y-110490000D01*
X133649271Y-109916511D01*
X133324415Y-109430330D01*
X133009634Y-109220000D01*
X133324415Y-109009670D01*
X133649271Y-108523489D01*
X133763345Y-107950000D01*
X133649271Y-107376511D01*
X133324415Y-106890330D01*
X133009634Y-106680000D01*
X133324415Y-106469670D01*
X133649271Y-105983489D01*
X133763345Y-105410000D01*
X133649271Y-104836511D01*
X133324415Y-104350330D01*
X133009634Y-104140000D01*
X133324415Y-103929670D01*
X133649271Y-103443489D01*
X133763345Y-102870000D01*
X133649271Y-102296511D01*
X133324415Y-101810330D01*
X133009634Y-101600000D01*
X133324415Y-101389670D01*
X133649271Y-100903489D01*
X133763345Y-100330000D01*
X133649271Y-99756511D01*
X133324415Y-99270330D01*
X133009634Y-99060000D01*
X133324415Y-98849670D01*
X133649271Y-98363489D01*
X133763345Y-97790000D01*
X133649271Y-97216511D01*
X133324415Y-96730330D01*
X133009634Y-96520000D01*
X133324415Y-96309670D01*
X133649271Y-95823489D01*
X133763345Y-95250000D01*
X133649271Y-94676511D01*
X133324415Y-94190330D01*
X133009634Y-93980000D01*
X133324415Y-93769670D01*
X133649271Y-93283489D01*
X133763345Y-92710000D01*
X133649271Y-92136511D01*
X133324415Y-91650330D01*
X133009634Y-91440000D01*
X133324415Y-91229670D01*
X133649271Y-90743489D01*
X133763345Y-90170000D01*
X133649271Y-89596511D01*
X133324415Y-89110330D01*
X133009634Y-88900000D01*
X133324415Y-88689670D01*
X133649271Y-88203489D01*
X133763345Y-87630000D01*
X133649271Y-87056511D01*
X133324415Y-86570330D01*
X133009634Y-86360000D01*
X133324415Y-86149670D01*
X133649271Y-85663489D01*
X133763345Y-85090000D01*
X133649271Y-84516511D01*
X133324415Y-84030330D01*
X133009634Y-83820000D01*
X133324415Y-83609670D01*
X133649271Y-83123489D01*
X133763345Y-82550000D01*
X133649271Y-81976511D01*
X133324415Y-81490330D01*
X133009634Y-81280000D01*
X133324415Y-81069670D01*
X133649271Y-80583489D01*
X133763345Y-80010000D01*
X133649271Y-79436511D01*
X133324415Y-78950330D01*
X133009634Y-78740000D01*
X133324415Y-78529670D01*
X133649271Y-78043489D01*
X133763345Y-77470000D01*
X133649271Y-76896511D01*
X133324415Y-76410330D01*
X133009634Y-76200000D01*
X133324415Y-75989670D01*
X133649271Y-75503489D01*
X133763345Y-74930000D01*
X133649271Y-74356511D01*
X133324415Y-73870330D01*
X133009634Y-73660000D01*
X133324415Y-73449670D01*
X133649271Y-72963489D01*
X133763345Y-72390000D01*
X133649271Y-71816511D01*
X133324415Y-71330330D01*
X133302220Y-71315500D01*
X133455699Y-71251927D01*
X133634327Y-71073298D01*
X133731000Y-70839909D01*
X133731000Y-70135750D01*
X133572250Y-69977000D01*
X132207000Y-69977000D01*
X132207000Y-69997000D01*
X131953000Y-69997000D01*
X131953000Y-69977000D01*
X130587750Y-69977000D01*
X130429000Y-70135750D01*
X130429000Y-70839909D01*
X130525673Y-71073298D01*
X130704301Y-71251927D01*
X130857780Y-71315500D01*
X130835585Y-71330330D01*
X130510729Y-71816511D01*
X130396655Y-72390000D01*
X130510729Y-72963489D01*
X130835585Y-73449670D01*
X131150366Y-73660000D01*
X130835585Y-73870330D01*
X130510729Y-74356511D01*
X130396655Y-74930000D01*
X130510729Y-75503489D01*
X130835585Y-75989670D01*
X131150366Y-76200000D01*
X130835585Y-76410330D01*
X130635352Y-76710000D01*
X119694802Y-76710000D01*
X116107401Y-73122599D01*
X115860839Y-72957852D01*
X115570000Y-72900000D01*
X82327655Y-72900000D01*
X81957204Y-72528902D01*
X81466713Y-72325232D01*
X80935617Y-72324769D01*
X80444771Y-72527582D01*
X80068902Y-72902796D01*
X79865232Y-73393287D01*
X79864769Y-73924383D01*
X77547440Y-73924383D01*
X77547440Y-72960000D01*
X77503162Y-72724683D01*
X77364090Y-72508559D01*
X77151890Y-72363569D01*
X76900000Y-72312560D01*
X75500000Y-72312560D01*
X75264683Y-72356838D01*
X75048559Y-72495910D01*
X74903569Y-72708110D01*
X74852560Y-72960000D01*
X74852560Y-74360000D01*
X74896838Y-74595317D01*
X75035910Y-74811441D01*
X75248110Y-74956431D01*
X75440000Y-74995290D01*
X75440000Y-77980000D01*
X71120000Y-77980000D01*
X70829161Y-78037852D01*
X70582599Y-78202599D01*
X67293274Y-81491924D01*
X66967073Y-81165154D01*
X66366547Y-80915794D01*
X65716306Y-80915226D01*
X65115345Y-81163538D01*
X64655154Y-81622927D01*
X64405794Y-82223453D01*
X64405226Y-82873694D01*
X64653538Y-83474655D01*
X65112927Y-83934846D01*
X65280000Y-84004221D01*
X65280000Y-84905504D01*
X65115345Y-84973538D01*
X64655154Y-85432927D01*
X64405794Y-86033453D01*
X64405226Y-86683694D01*
X64653538Y-87284655D01*
X65112927Y-87744846D01*
X65713453Y-87994206D01*
X66363694Y-87994774D01*
X66964655Y-87746462D01*
X67424846Y-87287073D01*
X67674206Y-86686547D01*
X67674774Y-86036306D01*
X67426462Y-85435345D01*
X66967073Y-84975154D01*
X66800000Y-84905779D01*
X66800000Y-84004496D01*
X66964655Y-83936462D01*
X67424846Y-83477073D01*
X67510807Y-83270057D01*
X67600839Y-83252148D01*
X67847401Y-83087401D01*
X71434802Y-79500000D01*
X75885198Y-79500000D01*
X76235139Y-79849941D01*
X76234969Y-80045030D01*
X75955421Y-80044786D01*
X75501343Y-80232408D01*
X75153629Y-80579515D01*
X74965215Y-81033266D01*
X74964860Y-81440338D01*
X74615198Y-81790000D01*
X72574496Y-81790000D01*
X72506462Y-81625345D01*
X72047073Y-81165154D01*
X71446547Y-80915794D01*
X70796306Y-80915226D01*
X70195345Y-81163538D01*
X69735154Y-81622927D01*
X69485794Y-82223453D01*
X69485226Y-82873694D01*
X69733538Y-83474655D01*
X70192927Y-83934846D01*
X70360000Y-84004221D01*
X70360000Y-89044533D01*
X70096734Y-88935215D01*
X69605421Y-88934786D01*
X69151343Y-89122408D01*
X68803629Y-89469515D01*
X68615215Y-89923266D01*
X68614786Y-90414579D01*
X68802408Y-90868657D01*
X69149515Y-91216371D01*
X69603266Y-91404785D01*
X69885030Y-91405031D01*
X69884786Y-91684579D01*
X70072408Y-92138657D01*
X70419515Y-92486371D01*
X70873266Y-92674785D01*
X71364579Y-92675214D01*
X71818657Y-92487592D01*
X72106752Y-92200000D01*
X75152345Y-92200000D01*
X75522796Y-92571098D01*
X76013287Y-92774768D01*
X76544383Y-92775231D01*
X77035229Y-92572418D01*
X77411098Y-92197204D01*
X77614768Y-91706713D01*
X77615231Y-91175617D01*
X77412418Y-90684771D01*
X77037204Y-90308902D01*
X76546713Y-90105232D01*
X76015617Y-90104769D01*
X75524771Y-90307582D01*
X75151703Y-90680000D01*
X73515467Y-90680000D01*
X73624785Y-90416734D01*
X73625214Y-89925421D01*
X73437592Y-89471343D01*
X73090485Y-89123629D01*
X72636734Y-88935215D01*
X72145421Y-88934786D01*
X71880000Y-89044456D01*
X71880000Y-84004496D01*
X72044655Y-83936462D01*
X72504846Y-83477073D01*
X72574221Y-83310000D01*
X74930000Y-83310000D01*
X75220839Y-83252148D01*
X75467401Y-83087401D01*
X76039941Y-82514861D01*
X76444579Y-82515214D01*
X76898657Y-82327592D01*
X77246371Y-81980485D01*
X77434785Y-81526734D01*
X77435031Y-81244970D01*
X77505030Y-81245031D01*
X77504786Y-81524579D01*
X77692408Y-81978657D01*
X77980000Y-82266752D01*
X77980000Y-83820000D01*
X78037852Y-84110839D01*
X78202599Y-84357401D01*
X83060000Y-89214802D01*
X83060000Y-92395198D01*
X78900059Y-96555139D01*
X78495421Y-96554786D01*
X78230000Y-96664456D01*
X78230000Y-95564802D01*
X81007362Y-92787440D01*
X81980000Y-92787440D01*
X82215317Y-92743162D01*
X82431441Y-92604090D01*
X82576431Y-92391890D01*
X82627440Y-92140000D01*
X82627440Y-90740000D01*
X82583162Y-90504683D01*
X82444090Y-90288559D01*
X82231890Y-90143569D01*
X81980000Y-90092560D01*
X80580000Y-90092560D01*
X80344683Y-90136838D01*
X80128559Y-90275910D01*
X79983569Y-90488110D01*
X79932560Y-90740000D01*
X79932560Y-91712638D01*
X76932599Y-94712599D01*
X76767852Y-94959161D01*
X76710000Y-95250000D01*
X76710000Y-98073644D01*
X76423629Y-98359515D01*
X76235215Y-98813266D01*
X76234860Y-99220338D01*
X74615198Y-100840000D01*
X73844496Y-100840000D01*
X73776462Y-100675345D01*
X73317073Y-100215154D01*
X72716547Y-99965794D01*
X72066306Y-99965226D01*
X71465345Y-100213538D01*
X71005154Y-100672927D01*
X70755794Y-101273453D01*
X70755226Y-101923694D01*
X70824309Y-102090889D01*
X66220042Y-106695156D01*
X65775617Y-106694769D01*
X65284771Y-106897582D01*
X64908902Y-107272796D01*
X64705232Y-107763287D01*
X64704769Y-108294383D01*
X64907582Y-108785229D01*
X65282796Y-109161098D01*
X65773287Y-109364768D01*
X66304383Y-109365231D01*
X66795229Y-109162418D01*
X67171098Y-108787204D01*
X67374768Y-108296713D01*
X67375231Y-107765617D01*
X67352997Y-107711805D01*
X71898917Y-103165885D01*
X72063453Y-103234206D01*
X72713694Y-103234774D01*
X73314655Y-102986462D01*
X73774846Y-102527073D01*
X73844221Y-102360000D01*
X74930000Y-102360000D01*
X75220839Y-102302148D01*
X75467401Y-102137401D01*
X77309941Y-100294861D01*
X77505030Y-100295031D01*
X77504860Y-100490338D01*
X71852599Y-106142599D01*
X71687852Y-106389161D01*
X71630000Y-106680000D01*
X71630000Y-110305504D01*
X71465345Y-110373538D01*
X71005154Y-110832927D01*
X70755794Y-111433453D01*
X70755226Y-112083694D01*
X70824309Y-112250889D01*
X70805198Y-112270000D01*
X67376150Y-112270000D01*
X67343162Y-112094683D01*
X67204090Y-111878559D01*
X66991890Y-111733569D01*
X66740000Y-111682560D01*
X65340000Y-111682560D01*
X65104683Y-111726838D01*
X64888559Y-111865910D01*
X64743569Y-112078110D01*
X64704710Y-112270000D01*
X62404648Y-112270000D01*
X62204415Y-111970330D01*
X61889634Y-111760000D01*
X62204415Y-111549670D01*
X62529271Y-111063489D01*
X62643345Y-110490000D01*
X62529271Y-109916511D01*
X62204415Y-109430330D01*
X61889634Y-109220000D01*
X62204415Y-109009670D01*
X62529271Y-108523489D01*
X62643345Y-107950000D01*
X62529271Y-107376511D01*
X62204415Y-106890330D01*
X61889634Y-106680000D01*
X62204415Y-106469670D01*
X62529271Y-105983489D01*
X62643345Y-105410000D01*
X62529271Y-104836511D01*
X62204415Y-104350330D01*
X61889634Y-104140000D01*
X62204415Y-103929670D01*
X62529271Y-103443489D01*
X62643345Y-102870000D01*
X62529271Y-102296511D01*
X62204415Y-101810330D01*
X61889634Y-101600000D01*
X62204415Y-101389670D01*
X62529271Y-100903489D01*
X62643345Y-100330000D01*
X62529271Y-99756511D01*
X62204415Y-99270330D01*
X61889634Y-99060000D01*
X62204415Y-98849670D01*
X62529271Y-98363489D01*
X62643345Y-97790000D01*
X62619906Y-97672163D01*
X65067443Y-97672163D01*
X65166042Y-97938965D01*
X65775582Y-98165401D01*
X66425377Y-98141341D01*
X66913958Y-97938965D01*
X67012557Y-97672163D01*
X66040000Y-96699605D01*
X65067443Y-97672163D01*
X62619906Y-97672163D01*
X62529271Y-97216511D01*
X62204415Y-96730330D01*
X61889634Y-96520000D01*
X62204415Y-96309670D01*
X62240555Y-96255582D01*
X64394599Y-96255582D01*
X64418659Y-96905377D01*
X64621035Y-97393958D01*
X64887837Y-97492557D01*
X65860395Y-96520000D01*
X66219605Y-96520000D01*
X67192163Y-97492557D01*
X67458965Y-97393958D01*
X67685401Y-96784418D01*
X67661341Y-96134623D01*
X67458965Y-95646042D01*
X67192163Y-95547443D01*
X66219605Y-96520000D01*
X65860395Y-96520000D01*
X64887837Y-95547443D01*
X64621035Y-95646042D01*
X64394599Y-96255582D01*
X62240555Y-96255582D01*
X62529271Y-95823489D01*
X62619905Y-95367837D01*
X65067443Y-95367837D01*
X66040000Y-96340395D01*
X67012557Y-95367837D01*
X66913958Y-95101035D01*
X66304418Y-94874599D01*
X65654623Y-94898659D01*
X65166042Y-95101035D01*
X65067443Y-95367837D01*
X62619905Y-95367837D01*
X62643345Y-95250000D01*
X62529271Y-94676511D01*
X62204415Y-94190330D01*
X61889634Y-93980000D01*
X62204415Y-93769670D01*
X62529271Y-93283489D01*
X62643345Y-92710000D01*
X62529271Y-92136511D01*
X62204415Y-91650330D01*
X61889634Y-91440000D01*
X62204415Y-91229670D01*
X62529271Y-90743489D01*
X62643345Y-90170000D01*
X62529271Y-89596511D01*
X62204415Y-89110330D01*
X61889634Y-88900000D01*
X62204415Y-88689670D01*
X62529271Y-88203489D01*
X62643345Y-87630000D01*
X62529271Y-87056511D01*
X62204415Y-86570330D01*
X61889634Y-86360000D01*
X62204415Y-86149670D01*
X62529271Y-85663489D01*
X62643345Y-85090000D01*
X62529271Y-84516511D01*
X62204415Y-84030330D01*
X61889634Y-83820000D01*
X62204415Y-83609670D01*
X62529271Y-83123489D01*
X62643345Y-82550000D01*
X62529271Y-81976511D01*
X62204415Y-81490330D01*
X61889634Y-81280000D01*
X62204415Y-81069670D01*
X62529271Y-80583489D01*
X62643345Y-80010000D01*
X62529271Y-79436511D01*
X62204415Y-78950330D01*
X61889634Y-78740000D01*
X62204415Y-78529670D01*
X62529271Y-78043489D01*
X62643345Y-77470000D01*
X62529271Y-76896511D01*
X62204415Y-76410330D01*
X61889634Y-76200000D01*
X62204415Y-75989670D01*
X62529271Y-75503489D01*
X62643345Y-74930000D01*
X62529271Y-74356511D01*
X62204415Y-73870330D01*
X61889634Y-73660000D01*
X62204415Y-73449670D01*
X62404648Y-73150000D01*
X64585504Y-73150000D01*
X64653538Y-73314655D01*
X65112927Y-73774846D01*
X65713453Y-74024206D01*
X66363694Y-74024774D01*
X66964655Y-73776462D01*
X67424846Y-73317073D01*
X67494221Y-73150000D01*
X69665504Y-73150000D01*
X69733538Y-73314655D01*
X70192927Y-73774846D01*
X70793453Y-74024206D01*
X71443694Y-74024774D01*
X72044655Y-73776462D01*
X72504846Y-73317073D01*
X72754206Y-72716547D01*
X72754774Y-72066306D01*
X72506462Y-71465345D01*
X72047073Y-71005154D01*
X71446547Y-70755794D01*
X70796306Y-70755226D01*
X70195345Y-71003538D01*
X69735154Y-71462927D01*
X69665779Y-71630000D01*
X67494496Y-71630000D01*
X67426462Y-71465345D01*
X66967073Y-71005154D01*
X66366547Y-70755794D01*
X65716306Y-70755226D01*
X65115345Y-71003538D01*
X64655154Y-71462927D01*
X64585779Y-71630000D01*
X62404648Y-71630000D01*
X62204415Y-71330330D01*
X62182220Y-71315500D01*
X62335699Y-71251927D01*
X62514327Y-71073298D01*
X62611000Y-70839909D01*
X62611000Y-70135750D01*
X62452250Y-69977000D01*
X61087000Y-69977000D01*
X61087000Y-69997000D01*
X60833000Y-69997000D01*
X60833000Y-69977000D01*
X59467750Y-69977000D01*
X59309000Y-70135750D01*
X59309000Y-70839909D01*
X59405673Y-71073298D01*
X59584301Y-71251927D01*
X59737780Y-71315500D01*
X59715585Y-71330330D01*
X59390729Y-71816511D01*
X59276655Y-72390000D01*
X59130000Y-72390000D01*
X59130000Y-68860091D01*
X59309000Y-68860091D01*
X59309000Y-69564250D01*
X59467750Y-69723000D01*
X60833000Y-69723000D01*
X60833000Y-68510150D01*
X61087000Y-68510150D01*
X61087000Y-69723000D01*
X62452250Y-69723000D01*
X62611000Y-69564250D01*
X62611000Y-68860091D01*
X130429000Y-68860091D01*
X130429000Y-69564250D01*
X130587750Y-69723000D01*
X131953000Y-69723000D01*
X131953000Y-68510150D01*
X132207000Y-68510150D01*
X132207000Y-69723000D01*
X133572250Y-69723000D01*
X133731000Y-69564250D01*
X133731000Y-68860091D01*
X133634327Y-68626702D01*
X133455699Y-68448073D01*
X133222310Y-68351400D01*
X132365750Y-68351400D01*
X132207000Y-68510150D01*
X131953000Y-68510150D01*
X131794250Y-68351400D01*
X130937690Y-68351400D01*
X130704301Y-68448073D01*
X130525673Y-68626702D01*
X130429000Y-68860091D01*
X62611000Y-68860091D01*
X62514327Y-68626702D01*
X62335699Y-68448073D01*
X62102310Y-68351400D01*
X61245750Y-68351400D01*
X61087000Y-68510150D01*
X60833000Y-68510150D01*
X60674250Y-68351400D01*
X59817690Y-68351400D01*
X59584301Y-68448073D01*
X59405673Y-68626702D01*
X59309000Y-68860091D01*
X59130000Y-68860091D01*
X59130000Y-66750000D01*
X133910000Y-66750000D01*
X133910000Y-117400000D01*
M02*
