M48
;DRILL file {KiCad 4.0.3+e1-6302~38~ubuntu16.04.1-stable} date Thu Aug 25 11:35:08 2016
;FORMAT={-:-/ absolute / inch / decimal}
FMAT,2
INCH,TZ
T1C0.031
T2C0.035
T3C0.039
T4C0.040
%
G90
G05
M72
T1
X2.75Y-3.55
X2.8Y-3.6
X2.85Y-3.55
X3.Y-3.2
X3.05Y-3.15
X3.05Y-3.9
X3.1Y-3.2
X3.1Y-3.85
X3.1Y-3.95
T2
X2.6Y-4.2531
X2.6Y-4.45
X3.Y-2.9
X3.0031Y-3.6
X3.1969Y-2.9
X3.2Y-3.6
T3
X2.6Y-2.85
X2.6Y-3.25
X2.6Y-3.4
X2.6Y-3.8
X2.8Y-2.85
X2.8Y-3.25
X2.85Y-4.
X2.85Y-4.4
T4
X2.4Y-2.75
X2.4Y-2.85
X2.4Y-2.95
X2.4Y-3.05
X2.4Y-3.15
X2.4Y-3.25
X2.4Y-3.35
X2.4Y-3.45
X2.4Y-3.55
X2.4Y-3.65
X2.4Y-3.75
X2.4Y-3.85
X2.4Y-3.95
X2.4Y-4.05
X2.4Y-4.15
X2.4Y-4.25
X2.4Y-4.35
X2.4Y-4.45
X2.4Y-4.55
X5.2Y-2.75
X5.2Y-2.85
X5.2Y-2.95
X5.2Y-3.05
X5.2Y-3.15
X5.2Y-3.25
X5.2Y-3.35
X5.2Y-3.45
X5.2Y-3.55
X5.2Y-3.65
X5.2Y-3.75
X5.2Y-3.85
X5.2Y-3.95
X5.2Y-4.05
X5.2Y-4.15
X5.2Y-4.25
X5.2Y-4.35
X5.2Y-4.45
X5.2Y-4.55
T0
M30
