M48
;DRILL file {KiCad 4.0.6-e0-6349~53~ubuntu16.04.1} date Fri Apr  7 11:57:56 2017
;FORMAT={-:-/ absolute / inch / decimal}
FMAT,2
INCH,TZ
T1C0.016
T2C0.031
T3C0.032
T4C0.039
T5C0.040
%
G90
G05
M72
T1
X3.75Y-4.5
X4.2Y-5.
X4.55Y-4.45
T2
X3.5Y-3.5
X3.5984Y-3.5
X3.6Y-3.75
X4.1Y-3.5
X4.1984Y-3.5
X4.2Y-3.75
X4.4Y-4.
X4.4Y-4.1
X4.45Y-4.05
X4.75Y-5.2
X4.8Y-5.15
X4.85Y-5.2
T3
X3.5016Y-3.75
X4.1016Y-3.75
T4
X3.4Y-4.7
X3.4Y-5.1
X3.75Y-3.95
X3.75Y-4.1
X4.15Y-3.95
X4.15Y-4.1
X4.85Y-4.55
X4.85Y-4.95
T5
X3.25Y-3.45
X3.25Y-3.55
X3.25Y-3.65
X3.25Y-3.75
X3.25Y-3.85
X3.25Y-3.95
X3.25Y-4.05
X3.25Y-4.15
X3.25Y-4.25
X3.25Y-4.35
X3.25Y-4.45
X3.25Y-4.55
X3.25Y-4.65
X3.25Y-4.75
X3.25Y-4.85
X3.25Y-4.95
X3.25Y-5.05
X3.25Y-5.15
X3.25Y-5.25
X3.6Y-4.4
X3.6Y-4.5
X3.6Y-4.6
X3.6Y-4.7
X3.6Y-4.8
X3.6Y-4.9
X3.6Y-5.
X3.6Y-5.1
X3.6Y-5.2
X3.9Y-4.5
X3.9Y-4.6
X3.9Y-4.7
X3.9Y-4.8
X3.9Y-4.9
X3.9Y-5.
X3.9Y-5.1
X3.9Y-5.2
X4.4Y-4.5
X4.4Y-4.6
X4.4Y-4.7
X4.4Y-4.8
X4.4Y-4.9
X4.4Y-5.
X4.4Y-5.1
X4.4Y-5.2
X4.65Y-4.7
X4.65Y-4.8
X4.65Y-4.9
X4.65Y-5.
X5.Y-3.65
X5.Y-3.75
X5.Y-3.85
X5.Y-3.95
X5.Y-4.05
X5.Y-4.15
X5.Y-4.25
X5.Y-4.35
X5.Y-4.45
X5.Y-4.55
X5.Y-4.65
X5.Y-4.75
X5.Y-4.85
X5.Y-4.95
X5.Y-5.05
X5.6Y-3.65
X5.6Y-3.75
X5.6Y-3.85
X5.6Y-3.95
X5.6Y-4.05
X5.6Y-4.15
X5.6Y-4.25
X5.6Y-4.35
X5.6Y-4.45
X5.6Y-4.55
X5.6Y-4.65
X5.6Y-4.75
X5.6Y-4.85
X5.6Y-4.95
X5.6Y-5.05
T0
M30
