M48
;DRILL file {KiCad 4.0.4+e1-6308~48~ubuntu16.04.1-stable} date Tue Nov 29 13:14:29 2016
;FORMAT={-:-/ absolute / inch / decimal}
FMAT,2
INCH,TZ
T1C0.031
T2C0.039
T3C0.040
%
G90
G05
M72
T1
X3.25Y-2.25
X3.3878Y-2.25
X3.75Y-3.65
X3.8Y-3.6
X3.8Y-3.7
X3.9Y-2.4622
X3.9Y-2.6
T2
X3.15Y-3.55
X3.15Y-3.7
X3.55Y-3.55
X3.55Y-3.7
T3
X2.Y-2.2
X2.Y-2.3
X2.Y-2.4
X2.Y-2.5
X2.Y-2.6
X2.Y-2.7
X2.Y-2.8
X2.Y-2.9
X2.Y-3.
X2.Y-3.1
X2.Y-3.2
X2.Y-3.3
X2.Y-3.4
X2.Y-3.5
X2.Y-3.6
X2.Y-3.7
X2.Y-3.8
X2.Y-3.9
X2.Y-4.
X2.3Y-2.4
X2.3Y-2.5
X2.3Y-2.6
X2.3Y-2.7
X2.3Y-2.8
X2.3Y-2.9
X2.3Y-3.
X2.3Y-3.1
X2.3Y-3.2
X2.3Y-3.3
X2.3Y-3.4
X2.3Y-3.5
X2.3Y-3.6
X2.3Y-3.7
X2.3Y-3.8
X2.9Y-2.4
X2.9Y-2.5
X2.9Y-2.6
X2.9Y-2.7
X2.9Y-2.8
X2.9Y-2.9
X2.9Y-3.
X2.9Y-3.1
X2.9Y-3.2
X2.9Y-3.3
X2.9Y-3.4
X2.9Y-3.5
X2.9Y-3.6
X2.9Y-3.7
X2.9Y-3.8
X3.15Y-2.6
X3.15Y-2.7
X3.15Y-2.8
X3.15Y-2.9
X3.15Y-3.
X3.15Y-3.1
X3.15Y-3.2
X3.15Y-3.3
X3.65Y-2.6
X3.65Y-2.7
X3.65Y-2.8
X3.65Y-2.9
X3.65Y-3.
X3.65Y-3.1
X3.65Y-3.2
X3.65Y-3.3
X4.Y-2.8
X4.Y-2.9
X4.Y-3.
X4.Y-3.1
T0
M30
