G04 #@! TF.FileFunction,Copper,L2,Bot,Signal*
%FSLAX46Y46*%
G04 Gerber Fmt 4.6, Leading zero omitted, Abs format (unit mm)*
G04 Created by KiCad (PCBNEW 4.0.6-e0-6349~53~ubuntu16.04.1) date Fri Apr  7 11:58:01 2017*
%MOMM*%
%LPD*%
G01*
G04 APERTURE LIST*
%ADD10C,0.100000*%
%ADD11R,1.300000X1.300000*%
%ADD12C,1.300000*%
%ADD13C,1.998980*%
%ADD14C,1.200000*%
%ADD15R,2.032000X1.727200*%
%ADD16O,2.032000X1.727200*%
%ADD17C,2.200000*%
%ADD18C,0.600000*%
%ADD19C,0.250000*%
%ADD20C,0.254000*%
G04 APERTURE END LIST*
D10*
D11*
X106680000Y-95250000D03*
D12*
X104180000Y-95250000D03*
D13*
X105410000Y-100330000D03*
X95250000Y-100330000D03*
X105410000Y-104140000D03*
X95250000Y-104140000D03*
D14*
X111760000Y-104140000D03*
X113030000Y-102870000D03*
X111760000Y-101600000D03*
D15*
X142240000Y-92710000D03*
D16*
X142240000Y-95250000D03*
X142240000Y-97790000D03*
X142240000Y-100330000D03*
X142240000Y-102870000D03*
X142240000Y-105410000D03*
X142240000Y-107950000D03*
X142240000Y-110490000D03*
X142240000Y-113030000D03*
X142240000Y-115570000D03*
X142240000Y-118110000D03*
X142240000Y-120650000D03*
X142240000Y-123190000D03*
X142240000Y-125730000D03*
X142240000Y-128270000D03*
D15*
X127000000Y-92710000D03*
D16*
X127000000Y-95250000D03*
X127000000Y-97790000D03*
X127000000Y-100330000D03*
X127000000Y-102870000D03*
X127000000Y-105410000D03*
X127000000Y-107950000D03*
X127000000Y-110490000D03*
X127000000Y-113030000D03*
X127000000Y-115570000D03*
X127000000Y-118110000D03*
X127000000Y-120650000D03*
X127000000Y-123190000D03*
X127000000Y-125730000D03*
X127000000Y-128270000D03*
D15*
X118110000Y-119380000D03*
D16*
X118110000Y-121920000D03*
X118110000Y-124460000D03*
X118110000Y-127000000D03*
D15*
X111760000Y-114300000D03*
D16*
X111760000Y-116840000D03*
X111760000Y-119380000D03*
X111760000Y-121920000D03*
X111760000Y-124460000D03*
X111760000Y-127000000D03*
X111760000Y-129540000D03*
X111760000Y-132080000D03*
D15*
X99060000Y-114300000D03*
D16*
X99060000Y-116840000D03*
X99060000Y-119380000D03*
X99060000Y-121920000D03*
X99060000Y-124460000D03*
X99060000Y-127000000D03*
X99060000Y-129540000D03*
X99060000Y-132080000D03*
D15*
X82550000Y-87630000D03*
D16*
X82550000Y-90170000D03*
X82550000Y-92710000D03*
X82550000Y-95250000D03*
X82550000Y-97790000D03*
X82550000Y-100330000D03*
X82550000Y-102870000D03*
X82550000Y-105410000D03*
X82550000Y-107950000D03*
X82550000Y-110490000D03*
X82550000Y-113030000D03*
X82550000Y-115570000D03*
X82550000Y-118110000D03*
X82550000Y-120650000D03*
X82550000Y-123190000D03*
X82550000Y-125730000D03*
X82550000Y-128270000D03*
X82550000Y-130810000D03*
X82550000Y-133350000D03*
D11*
X104140000Y-88900000D03*
D12*
X106640000Y-88900000D03*
D11*
X91440000Y-95250000D03*
D12*
X88940000Y-95250000D03*
D11*
X88900000Y-88900000D03*
D12*
X91400000Y-88900000D03*
D14*
X123190000Y-132080000D03*
X121920000Y-130810000D03*
X120650000Y-132080000D03*
D13*
X86360000Y-119380000D03*
X86360000Y-129540000D03*
X123190000Y-115570000D03*
X123190000Y-125730000D03*
D17*
X91440000Y-111760000D03*
X91440000Y-114300000D03*
X91440000Y-116840000D03*
X91440000Y-119380000D03*
X91440000Y-121920000D03*
X91440000Y-124460000D03*
X91440000Y-127000000D03*
X91440000Y-129540000D03*
X91440000Y-132080000D03*
D18*
X106680000Y-127000000D03*
X115570000Y-113030000D03*
X95250000Y-114300000D03*
D19*
X111760000Y-129540000D02*
X109220000Y-129540000D01*
X109220000Y-129540000D02*
X106680000Y-127000000D01*
X88900000Y-88900000D02*
X91440000Y-86360000D01*
X128270000Y-86360000D02*
X142240000Y-100330000D01*
X91440000Y-86360000D02*
X128270000Y-86360000D01*
X82550000Y-90170000D02*
X87630000Y-90170000D01*
X87630000Y-90170000D02*
X88900000Y-88900000D01*
X114300000Y-114300000D02*
X111760000Y-114300000D01*
X115570000Y-113030000D02*
X114300000Y-114300000D01*
X82550000Y-100330000D02*
X91440000Y-100330000D01*
X96520000Y-95250000D02*
X104180000Y-95250000D01*
X91440000Y-100330000D02*
X96520000Y-95250000D01*
X82550000Y-107950000D02*
X127000000Y-107950000D01*
X82550000Y-110490000D02*
X85090000Y-110490000D01*
X123190000Y-110490000D02*
X127000000Y-110490000D01*
X121920000Y-109220000D02*
X123190000Y-110490000D01*
X86360000Y-109220000D02*
X121920000Y-109220000D01*
X85090000Y-110490000D02*
X86360000Y-109220000D01*
X82550000Y-133350000D02*
X83820000Y-133350000D01*
X86360000Y-130810000D02*
X86360000Y-129540000D01*
X83820000Y-133350000D02*
X86360000Y-130810000D01*
X91440000Y-116840000D02*
X92710000Y-116840000D01*
X92710000Y-116840000D02*
X95250000Y-114300000D01*
X91440000Y-119380000D02*
X93980000Y-119380000D01*
X93980000Y-119380000D02*
X99060000Y-114300000D01*
X91440000Y-121920000D02*
X93980000Y-121920000D01*
X93980000Y-121920000D02*
X99060000Y-116840000D01*
X91440000Y-124460000D02*
X93980000Y-124460000D01*
X93980000Y-124460000D02*
X99060000Y-119380000D01*
X91440000Y-127000000D02*
X93980000Y-127000000D01*
X93980000Y-127000000D02*
X99060000Y-121920000D01*
X91440000Y-129540000D02*
X99060000Y-129540000D01*
X99060000Y-127000000D02*
X99060000Y-124460000D01*
X111760000Y-119380000D02*
X118110000Y-119380000D01*
X111760000Y-121920000D02*
X118110000Y-121920000D01*
X111760000Y-124460000D02*
X118110000Y-124460000D01*
X111760000Y-127000000D02*
X118110000Y-127000000D01*
X123190000Y-115570000D02*
X123190000Y-114300000D01*
X124460000Y-113030000D02*
X127000000Y-113030000D01*
X123190000Y-114300000D02*
X124460000Y-113030000D01*
X105410000Y-104140000D02*
X107950000Y-104140000D01*
X109220000Y-102870000D02*
X113030000Y-102870000D01*
X107950000Y-104140000D02*
X109220000Y-102870000D01*
X86360000Y-119380000D02*
X86360000Y-114300000D01*
X88900000Y-111760000D02*
X91440000Y-111760000D01*
X86360000Y-114300000D02*
X88900000Y-111760000D01*
X120650000Y-132080000D02*
X118110000Y-132080000D01*
X88900000Y-121920000D02*
X86360000Y-119380000D01*
X88900000Y-133350000D02*
X88900000Y-121920000D01*
X90170000Y-134620000D02*
X88900000Y-133350000D01*
X115570000Y-134620000D02*
X90170000Y-134620000D01*
X118110000Y-132080000D02*
X115570000Y-134620000D01*
X91440000Y-132080000D02*
X99060000Y-132080000D01*
X111760000Y-101600000D02*
X113030000Y-100330000D01*
X123190000Y-102870000D02*
X127000000Y-102870000D01*
X120650000Y-100330000D02*
X123190000Y-102870000D01*
X113030000Y-100330000D02*
X120650000Y-100330000D01*
X105410000Y-100330000D02*
X110490000Y-100330000D01*
X110490000Y-100330000D02*
X111760000Y-101600000D01*
X121920000Y-130810000D02*
X121920000Y-127000000D01*
X121920000Y-127000000D02*
X123190000Y-125730000D01*
D20*
G36*
X144070000Y-135180000D02*
X116073579Y-135180000D01*
X116107401Y-135157401D01*
X118424802Y-132840000D01*
X119663644Y-132840000D01*
X119949515Y-133126371D01*
X120403266Y-133314785D01*
X120894579Y-133315214D01*
X121348657Y-133127592D01*
X121533837Y-132942735D01*
X122506870Y-132942735D01*
X122556383Y-133168164D01*
X123021036Y-133327807D01*
X123511413Y-133297482D01*
X123823617Y-133168164D01*
X123873130Y-132942735D01*
X123190000Y-132259605D01*
X122506870Y-132942735D01*
X121533837Y-132942735D01*
X121696371Y-132780485D01*
X121884785Y-132326734D01*
X121885031Y-132044970D01*
X121950479Y-132045027D01*
X121972518Y-132401413D01*
X122101836Y-132713617D01*
X122327265Y-132763130D01*
X123010395Y-132080000D01*
X123369605Y-132080000D01*
X124052735Y-132763130D01*
X124278164Y-132713617D01*
X124437807Y-132248964D01*
X124407482Y-131758587D01*
X124278164Y-131446383D01*
X124052735Y-131396870D01*
X123369605Y-132080000D01*
X123010395Y-132080000D01*
X122996253Y-132065858D01*
X123175858Y-131886253D01*
X123190000Y-131900395D01*
X123873130Y-131217265D01*
X123823617Y-130991836D01*
X123358964Y-130832193D01*
X123154970Y-130844808D01*
X123155214Y-130565421D01*
X122967592Y-130111343D01*
X122680000Y-129823248D01*
X122680000Y-127314802D01*
X122698917Y-127295885D01*
X122863453Y-127364206D01*
X123513694Y-127364774D01*
X124114655Y-127116462D01*
X124574846Y-126657073D01*
X124824206Y-126056547D01*
X124824774Y-125406306D01*
X124576462Y-124805345D01*
X124117073Y-124345154D01*
X123516547Y-124095794D01*
X122866306Y-124095226D01*
X122265345Y-124343538D01*
X121805154Y-124802927D01*
X121555794Y-125403453D01*
X121555226Y-126053694D01*
X121624309Y-126220889D01*
X121382599Y-126462599D01*
X121217852Y-126709161D01*
X121160000Y-127000000D01*
X121160000Y-129823644D01*
X120873629Y-130109515D01*
X120685215Y-130563266D01*
X120684969Y-130845030D01*
X120405421Y-130844786D01*
X119951343Y-131032408D01*
X119663248Y-131320000D01*
X118110000Y-131320000D01*
X117867414Y-131368254D01*
X117819160Y-131377852D01*
X117572599Y-131542599D01*
X115255198Y-133860000D01*
X90484802Y-133860000D01*
X89660000Y-133035198D01*
X89660000Y-121920000D01*
X89602148Y-121629161D01*
X89602148Y-121629160D01*
X89437401Y-121382599D01*
X87925885Y-119871083D01*
X87994206Y-119706547D01*
X87994774Y-119056306D01*
X87746462Y-118455345D01*
X87287073Y-117995154D01*
X87120000Y-117925779D01*
X87120000Y-117183599D01*
X89704699Y-117183599D01*
X89968281Y-117821515D01*
X90256338Y-118110075D01*
X89969996Y-118395918D01*
X89705301Y-119033373D01*
X89704699Y-119723599D01*
X89968281Y-120361515D01*
X90256338Y-120650075D01*
X89969996Y-120935918D01*
X89705301Y-121573373D01*
X89704699Y-122263599D01*
X89968281Y-122901515D01*
X90256338Y-123190075D01*
X89969996Y-123475918D01*
X89705301Y-124113373D01*
X89704699Y-124803599D01*
X89968281Y-125441515D01*
X90256338Y-125730075D01*
X89969996Y-126015918D01*
X89705301Y-126653373D01*
X89704699Y-127343599D01*
X89968281Y-127981515D01*
X90256338Y-128270075D01*
X89969996Y-128555918D01*
X89705301Y-129193373D01*
X89704699Y-129883599D01*
X89968281Y-130521515D01*
X90256338Y-130810075D01*
X89969996Y-131095918D01*
X89705301Y-131733373D01*
X89704699Y-132423599D01*
X89968281Y-133061515D01*
X90455918Y-133550004D01*
X91093373Y-133814699D01*
X91783599Y-133815301D01*
X92421515Y-133551719D01*
X92910004Y-133064082D01*
X93003051Y-132840000D01*
X97615352Y-132840000D01*
X97815585Y-133139670D01*
X98301766Y-133464526D01*
X98875255Y-133578600D01*
X99244745Y-133578600D01*
X99818234Y-133464526D01*
X100304415Y-133139670D01*
X100629271Y-132653489D01*
X100671930Y-132439026D01*
X110152642Y-132439026D01*
X110155291Y-132454791D01*
X110409268Y-132982036D01*
X110845680Y-133371954D01*
X111398087Y-133565184D01*
X111633000Y-133420924D01*
X111633000Y-132207000D01*
X111887000Y-132207000D01*
X111887000Y-133420924D01*
X112121913Y-133565184D01*
X112674320Y-133371954D01*
X113110732Y-132982036D01*
X113364709Y-132454791D01*
X113367358Y-132439026D01*
X113246217Y-132207000D01*
X111887000Y-132207000D01*
X111633000Y-132207000D01*
X110273783Y-132207000D01*
X110152642Y-132439026D01*
X100671930Y-132439026D01*
X100743345Y-132080000D01*
X100629271Y-131506511D01*
X100304415Y-131020330D01*
X99989634Y-130810000D01*
X100304415Y-130599670D01*
X100629271Y-130113489D01*
X100743345Y-129540000D01*
X100629271Y-128966511D01*
X100304415Y-128480330D01*
X99989634Y-128270000D01*
X100304415Y-128059670D01*
X100629271Y-127573489D01*
X100706513Y-127185167D01*
X105744838Y-127185167D01*
X105886883Y-127528943D01*
X106149673Y-127792192D01*
X106493201Y-127934838D01*
X106540077Y-127934879D01*
X108682599Y-130077401D01*
X108929160Y-130242148D01*
X108977414Y-130251746D01*
X109220000Y-130300000D01*
X110315352Y-130300000D01*
X110515585Y-130599670D01*
X110825069Y-130806461D01*
X110409268Y-131177964D01*
X110155291Y-131705209D01*
X110152642Y-131720974D01*
X110273783Y-131953000D01*
X111633000Y-131953000D01*
X111633000Y-131933000D01*
X111887000Y-131933000D01*
X111887000Y-131953000D01*
X113246217Y-131953000D01*
X113367358Y-131720974D01*
X113364709Y-131705209D01*
X113110732Y-131177964D01*
X112694931Y-130806461D01*
X113004415Y-130599670D01*
X113329271Y-130113489D01*
X113443345Y-129540000D01*
X113329271Y-128966511D01*
X113004415Y-128480330D01*
X112689634Y-128270000D01*
X113004415Y-128059670D01*
X113204648Y-127760000D01*
X116665352Y-127760000D01*
X116865585Y-128059670D01*
X117351766Y-128384526D01*
X117925255Y-128498600D01*
X118294745Y-128498600D01*
X118868234Y-128384526D01*
X119354415Y-128059670D01*
X119679271Y-127573489D01*
X119793345Y-127000000D01*
X119679271Y-126426511D01*
X119354415Y-125940330D01*
X119039634Y-125730000D01*
X119354415Y-125519670D01*
X119679271Y-125033489D01*
X119793345Y-124460000D01*
X119679271Y-123886511D01*
X119354415Y-123400330D01*
X119039634Y-123190000D01*
X119354415Y-122979670D01*
X119679271Y-122493489D01*
X119793345Y-121920000D01*
X119679271Y-121346511D01*
X119354415Y-120860330D01*
X119340087Y-120850757D01*
X119361317Y-120846762D01*
X119577441Y-120707690D01*
X119722431Y-120495490D01*
X119773440Y-120243600D01*
X119773440Y-118516400D01*
X119729162Y-118281083D01*
X119590090Y-118064959D01*
X119377890Y-117919969D01*
X119126000Y-117868960D01*
X117094000Y-117868960D01*
X116858683Y-117913238D01*
X116642559Y-118052310D01*
X116497569Y-118264510D01*
X116446560Y-118516400D01*
X116446560Y-118620000D01*
X113204648Y-118620000D01*
X113004415Y-118320330D01*
X112694931Y-118113539D01*
X113110732Y-117742036D01*
X113364709Y-117214791D01*
X113367358Y-117199026D01*
X113246217Y-116967000D01*
X111887000Y-116967000D01*
X111887000Y-116987000D01*
X111633000Y-116987000D01*
X111633000Y-116967000D01*
X110273783Y-116967000D01*
X110152642Y-117199026D01*
X110155291Y-117214791D01*
X110409268Y-117742036D01*
X110825069Y-118113539D01*
X110515585Y-118320330D01*
X110190729Y-118806511D01*
X110076655Y-119380000D01*
X110190729Y-119953489D01*
X110515585Y-120439670D01*
X110830366Y-120650000D01*
X110515585Y-120860330D01*
X110190729Y-121346511D01*
X110076655Y-121920000D01*
X110190729Y-122493489D01*
X110515585Y-122979670D01*
X110830366Y-123190000D01*
X110515585Y-123400330D01*
X110190729Y-123886511D01*
X110076655Y-124460000D01*
X110190729Y-125033489D01*
X110515585Y-125519670D01*
X110830366Y-125730000D01*
X110515585Y-125940330D01*
X110190729Y-126426511D01*
X110076655Y-127000000D01*
X110190729Y-127573489D01*
X110515585Y-128059670D01*
X110830366Y-128270000D01*
X110515585Y-128480330D01*
X110315352Y-128780000D01*
X109534802Y-128780000D01*
X107615122Y-126860320D01*
X107615162Y-126814833D01*
X107473117Y-126471057D01*
X107210327Y-126207808D01*
X106866799Y-126065162D01*
X106494833Y-126064838D01*
X106151057Y-126206883D01*
X105887808Y-126469673D01*
X105745162Y-126813201D01*
X105744838Y-127185167D01*
X100706513Y-127185167D01*
X100743345Y-127000000D01*
X100629271Y-126426511D01*
X100304415Y-125940330D01*
X99989634Y-125730000D01*
X100304415Y-125519670D01*
X100629271Y-125033489D01*
X100743345Y-124460000D01*
X100629271Y-123886511D01*
X100304415Y-123400330D01*
X99989634Y-123190000D01*
X100304415Y-122979670D01*
X100629271Y-122493489D01*
X100743345Y-121920000D01*
X100629271Y-121346511D01*
X100304415Y-120860330D01*
X99989634Y-120650000D01*
X100304415Y-120439670D01*
X100629271Y-119953489D01*
X100743345Y-119380000D01*
X100629271Y-118806511D01*
X100304415Y-118320330D01*
X99989634Y-118110000D01*
X100304415Y-117899670D01*
X100629271Y-117413489D01*
X100743345Y-116840000D01*
X100629271Y-116266511D01*
X100304415Y-115780330D01*
X100290087Y-115770757D01*
X100311317Y-115766762D01*
X100527441Y-115627690D01*
X100672431Y-115415490D01*
X100723440Y-115163600D01*
X100723440Y-113436400D01*
X110096560Y-113436400D01*
X110096560Y-115163600D01*
X110140838Y-115398917D01*
X110279910Y-115615041D01*
X110492110Y-115760031D01*
X110586927Y-115779232D01*
X110409268Y-115937964D01*
X110155291Y-116465209D01*
X110152642Y-116480974D01*
X110273783Y-116713000D01*
X111633000Y-116713000D01*
X111633000Y-116693000D01*
X111887000Y-116693000D01*
X111887000Y-116713000D01*
X113246217Y-116713000D01*
X113367358Y-116480974D01*
X113364709Y-116465209D01*
X113110732Y-115937964D01*
X112935155Y-115781093D01*
X113011317Y-115766762D01*
X113227441Y-115627690D01*
X113372431Y-115415490D01*
X113423440Y-115163600D01*
X113423440Y-115060000D01*
X114300000Y-115060000D01*
X114590839Y-115002148D01*
X114837401Y-114837401D01*
X115709680Y-113965122D01*
X115755167Y-113965162D01*
X116098943Y-113823117D01*
X116362192Y-113560327D01*
X116504838Y-113216799D01*
X116505162Y-112844833D01*
X116363117Y-112501057D01*
X116100327Y-112237808D01*
X115756799Y-112095162D01*
X115384833Y-112094838D01*
X115041057Y-112236883D01*
X114777808Y-112499673D01*
X114635162Y-112843201D01*
X114635121Y-112890077D01*
X113985198Y-113540000D01*
X113423440Y-113540000D01*
X113423440Y-113436400D01*
X113379162Y-113201083D01*
X113240090Y-112984959D01*
X113027890Y-112839969D01*
X112776000Y-112788960D01*
X110744000Y-112788960D01*
X110508683Y-112833238D01*
X110292559Y-112972310D01*
X110147569Y-113184510D01*
X110096560Y-113436400D01*
X100723440Y-113436400D01*
X100679162Y-113201083D01*
X100540090Y-112984959D01*
X100327890Y-112839969D01*
X100076000Y-112788960D01*
X98044000Y-112788960D01*
X97808683Y-112833238D01*
X97592559Y-112972310D01*
X97447569Y-113184510D01*
X97396560Y-113436400D01*
X97396560Y-114888638D01*
X93665198Y-118620000D01*
X93003247Y-118620000D01*
X92911719Y-118398485D01*
X92623662Y-118109925D01*
X92910004Y-117824082D01*
X93037147Y-117517888D01*
X93247401Y-117377401D01*
X95389680Y-115235122D01*
X95435167Y-115235162D01*
X95778943Y-115093117D01*
X96042192Y-114830327D01*
X96184838Y-114486799D01*
X96185162Y-114114833D01*
X96043117Y-113771057D01*
X95780327Y-113507808D01*
X95436799Y-113365162D01*
X95064833Y-113364838D01*
X94721057Y-113506883D01*
X94457808Y-113769673D01*
X94315162Y-114113201D01*
X94315121Y-114160077D01*
X92764345Y-115710853D01*
X92424082Y-115369996D01*
X92263861Y-115303466D01*
X91440000Y-114479605D01*
X90616695Y-115302910D01*
X90458485Y-115368281D01*
X89969996Y-115855918D01*
X89705301Y-116493373D01*
X89704699Y-117183599D01*
X87120000Y-117183599D01*
X87120000Y-114614802D01*
X87723209Y-114011593D01*
X89694677Y-114011593D01*
X89717164Y-114701453D01*
X89937901Y-115234359D01*
X90215132Y-115345263D01*
X91260395Y-114300000D01*
X91619605Y-114300000D01*
X92664868Y-115345263D01*
X92942099Y-115234359D01*
X93185323Y-114588407D01*
X93162836Y-113898547D01*
X92942099Y-113365641D01*
X92664868Y-113254737D01*
X91619605Y-114300000D01*
X91260395Y-114300000D01*
X90215132Y-113254737D01*
X89937901Y-113365641D01*
X89694677Y-114011593D01*
X87723209Y-114011593D01*
X89214802Y-112520000D01*
X89876753Y-112520000D01*
X89968281Y-112741515D01*
X90455918Y-113230004D01*
X90616139Y-113296534D01*
X91440000Y-114120395D01*
X92263305Y-113297090D01*
X92421515Y-113231719D01*
X92910004Y-112744082D01*
X93174699Y-112106627D01*
X93175301Y-111416401D01*
X92911719Y-110778485D01*
X92424082Y-110289996D01*
X91786627Y-110025301D01*
X91096401Y-110024699D01*
X90458485Y-110288281D01*
X89969996Y-110775918D01*
X89876949Y-111000000D01*
X88900000Y-111000000D01*
X88657414Y-111048254D01*
X88609160Y-111057852D01*
X88362599Y-111222599D01*
X85822599Y-113762599D01*
X85657852Y-114009161D01*
X85600000Y-114300000D01*
X85600000Y-117925504D01*
X85435345Y-117993538D01*
X84975154Y-118452927D01*
X84725794Y-119053453D01*
X84725226Y-119703694D01*
X84973538Y-120304655D01*
X85432927Y-120764846D01*
X86033453Y-121014206D01*
X86683694Y-121014774D01*
X86850889Y-120945691D01*
X88140000Y-122234802D01*
X88140000Y-133350000D01*
X88197852Y-133640839D01*
X88362599Y-133887401D01*
X89632599Y-135157401D01*
X89666421Y-135180000D01*
X80720000Y-135180000D01*
X80720000Y-90170000D01*
X80866655Y-90170000D01*
X80980729Y-90743489D01*
X81305585Y-91229670D01*
X81620366Y-91440000D01*
X81305585Y-91650330D01*
X80980729Y-92136511D01*
X80866655Y-92710000D01*
X80980729Y-93283489D01*
X81305585Y-93769670D01*
X81620366Y-93980000D01*
X81305585Y-94190330D01*
X80980729Y-94676511D01*
X80866655Y-95250000D01*
X80980729Y-95823489D01*
X81305585Y-96309670D01*
X81620366Y-96520000D01*
X81305585Y-96730330D01*
X80980729Y-97216511D01*
X80866655Y-97790000D01*
X80980729Y-98363489D01*
X81305585Y-98849670D01*
X81620366Y-99060000D01*
X81305585Y-99270330D01*
X80980729Y-99756511D01*
X80866655Y-100330000D01*
X80980729Y-100903489D01*
X81305585Y-101389670D01*
X81620366Y-101600000D01*
X81305585Y-101810330D01*
X80980729Y-102296511D01*
X80866655Y-102870000D01*
X80980729Y-103443489D01*
X81305585Y-103929670D01*
X81620366Y-104140000D01*
X81305585Y-104350330D01*
X80980729Y-104836511D01*
X80866655Y-105410000D01*
X80980729Y-105983489D01*
X81305585Y-106469670D01*
X81620366Y-106680000D01*
X81305585Y-106890330D01*
X80980729Y-107376511D01*
X80866655Y-107950000D01*
X80980729Y-108523489D01*
X81305585Y-109009670D01*
X81620366Y-109220000D01*
X81305585Y-109430330D01*
X80980729Y-109916511D01*
X80866655Y-110490000D01*
X80980729Y-111063489D01*
X81305585Y-111549670D01*
X81620366Y-111760000D01*
X81305585Y-111970330D01*
X80980729Y-112456511D01*
X80866655Y-113030000D01*
X80980729Y-113603489D01*
X81305585Y-114089670D01*
X81620366Y-114300000D01*
X81305585Y-114510330D01*
X80980729Y-114996511D01*
X80866655Y-115570000D01*
X80980729Y-116143489D01*
X81305585Y-116629670D01*
X81620366Y-116840000D01*
X81305585Y-117050330D01*
X80980729Y-117536511D01*
X80866655Y-118110000D01*
X80980729Y-118683489D01*
X81305585Y-119169670D01*
X81620366Y-119380000D01*
X81305585Y-119590330D01*
X80980729Y-120076511D01*
X80866655Y-120650000D01*
X80980729Y-121223489D01*
X81305585Y-121709670D01*
X81620366Y-121920000D01*
X81305585Y-122130330D01*
X80980729Y-122616511D01*
X80866655Y-123190000D01*
X80980729Y-123763489D01*
X81305585Y-124249670D01*
X81620366Y-124460000D01*
X81305585Y-124670330D01*
X80980729Y-125156511D01*
X80866655Y-125730000D01*
X80980729Y-126303489D01*
X81305585Y-126789670D01*
X81620366Y-127000000D01*
X81305585Y-127210330D01*
X80980729Y-127696511D01*
X80866655Y-128270000D01*
X80980729Y-128843489D01*
X81305585Y-129329670D01*
X81620366Y-129540000D01*
X81305585Y-129750330D01*
X80980729Y-130236511D01*
X80866655Y-130810000D01*
X80980729Y-131383489D01*
X81305585Y-131869670D01*
X81620366Y-132080000D01*
X81305585Y-132290330D01*
X80980729Y-132776511D01*
X80866655Y-133350000D01*
X80980729Y-133923489D01*
X81305585Y-134409670D01*
X81791766Y-134734526D01*
X82365255Y-134848600D01*
X82734745Y-134848600D01*
X83308234Y-134734526D01*
X83794415Y-134409670D01*
X84021419Y-134069935D01*
X84110839Y-134052148D01*
X84357401Y-133887401D01*
X86897401Y-131347401D01*
X87062148Y-131100840D01*
X87080015Y-131011018D01*
X87284655Y-130926462D01*
X87744846Y-130467073D01*
X87994206Y-129866547D01*
X87994774Y-129216306D01*
X87746462Y-128615345D01*
X87287073Y-128155154D01*
X86686547Y-127905794D01*
X86036306Y-127905226D01*
X85435345Y-128153538D01*
X84975154Y-128612927D01*
X84725794Y-129213453D01*
X84725226Y-129863694D01*
X84973538Y-130464655D01*
X85301754Y-130793444D01*
X83798602Y-132296596D01*
X83794415Y-132290330D01*
X83479634Y-132080000D01*
X83794415Y-131869670D01*
X84119271Y-131383489D01*
X84233345Y-130810000D01*
X84119271Y-130236511D01*
X83794415Y-129750330D01*
X83479634Y-129540000D01*
X83794415Y-129329670D01*
X84119271Y-128843489D01*
X84233345Y-128270000D01*
X84119271Y-127696511D01*
X83794415Y-127210330D01*
X83479634Y-127000000D01*
X83794415Y-126789670D01*
X84119271Y-126303489D01*
X84233345Y-125730000D01*
X84119271Y-125156511D01*
X83794415Y-124670330D01*
X83479634Y-124460000D01*
X83794415Y-124249670D01*
X84119271Y-123763489D01*
X84233345Y-123190000D01*
X84119271Y-122616511D01*
X83794415Y-122130330D01*
X83479634Y-121920000D01*
X83794415Y-121709670D01*
X84119271Y-121223489D01*
X84233345Y-120650000D01*
X84119271Y-120076511D01*
X83794415Y-119590330D01*
X83479634Y-119380000D01*
X83794415Y-119169670D01*
X84119271Y-118683489D01*
X84233345Y-118110000D01*
X84119271Y-117536511D01*
X83794415Y-117050330D01*
X83479634Y-116840000D01*
X83794415Y-116629670D01*
X84119271Y-116143489D01*
X84233345Y-115570000D01*
X84119271Y-114996511D01*
X83794415Y-114510330D01*
X83479634Y-114300000D01*
X83794415Y-114089670D01*
X84119271Y-113603489D01*
X84233345Y-113030000D01*
X84119271Y-112456511D01*
X83794415Y-111970330D01*
X83479634Y-111760000D01*
X83794415Y-111549670D01*
X83994648Y-111250000D01*
X85090000Y-111250000D01*
X85380839Y-111192148D01*
X85627401Y-111027401D01*
X86674802Y-109980000D01*
X121605198Y-109980000D01*
X122652599Y-111027401D01*
X122899160Y-111192148D01*
X123190000Y-111250000D01*
X125555352Y-111250000D01*
X125755585Y-111549670D01*
X126070366Y-111760000D01*
X125755585Y-111970330D01*
X125555352Y-112270000D01*
X124460000Y-112270000D01*
X124169160Y-112327852D01*
X123922599Y-112492599D01*
X122652599Y-113762599D01*
X122487852Y-114009161D01*
X122469985Y-114098982D01*
X122265345Y-114183538D01*
X121805154Y-114642927D01*
X121555794Y-115243453D01*
X121555226Y-115893694D01*
X121803538Y-116494655D01*
X122262927Y-116954846D01*
X122863453Y-117204206D01*
X123513694Y-117204774D01*
X124114655Y-116956462D01*
X124574846Y-116497073D01*
X124824206Y-115896547D01*
X124824774Y-115246306D01*
X124576462Y-114645345D01*
X124248246Y-114316556D01*
X124774802Y-113790000D01*
X125555352Y-113790000D01*
X125755585Y-114089670D01*
X126070366Y-114300000D01*
X125755585Y-114510330D01*
X125430729Y-114996511D01*
X125316655Y-115570000D01*
X125430729Y-116143489D01*
X125755585Y-116629670D01*
X126070366Y-116840000D01*
X125755585Y-117050330D01*
X125430729Y-117536511D01*
X125316655Y-118110000D01*
X125430729Y-118683489D01*
X125755585Y-119169670D01*
X126070366Y-119380000D01*
X125755585Y-119590330D01*
X125430729Y-120076511D01*
X125316655Y-120650000D01*
X125430729Y-121223489D01*
X125755585Y-121709670D01*
X126070366Y-121920000D01*
X125755585Y-122130330D01*
X125430729Y-122616511D01*
X125316655Y-123190000D01*
X125430729Y-123763489D01*
X125755585Y-124249670D01*
X126070366Y-124460000D01*
X125755585Y-124670330D01*
X125430729Y-125156511D01*
X125316655Y-125730000D01*
X125430729Y-126303489D01*
X125755585Y-126789670D01*
X126070366Y-127000000D01*
X125755585Y-127210330D01*
X125430729Y-127696511D01*
X125316655Y-128270000D01*
X125430729Y-128843489D01*
X125755585Y-129329670D01*
X126241766Y-129654526D01*
X126815255Y-129768600D01*
X127184745Y-129768600D01*
X127758234Y-129654526D01*
X128244415Y-129329670D01*
X128569271Y-128843489D01*
X128683345Y-128270000D01*
X128569271Y-127696511D01*
X128244415Y-127210330D01*
X127929634Y-127000000D01*
X128244415Y-126789670D01*
X128569271Y-126303489D01*
X128683345Y-125730000D01*
X128569271Y-125156511D01*
X128244415Y-124670330D01*
X127929634Y-124460000D01*
X128244415Y-124249670D01*
X128569271Y-123763489D01*
X128683345Y-123190000D01*
X128569271Y-122616511D01*
X128244415Y-122130330D01*
X127929634Y-121920000D01*
X128244415Y-121709670D01*
X128569271Y-121223489D01*
X128683345Y-120650000D01*
X128569271Y-120076511D01*
X128244415Y-119590330D01*
X127929634Y-119380000D01*
X128244415Y-119169670D01*
X128569271Y-118683489D01*
X128683345Y-118110000D01*
X128569271Y-117536511D01*
X128244415Y-117050330D01*
X127929634Y-116840000D01*
X128244415Y-116629670D01*
X128569271Y-116143489D01*
X128683345Y-115570000D01*
X128569271Y-114996511D01*
X128244415Y-114510330D01*
X127929634Y-114300000D01*
X128244415Y-114089670D01*
X128569271Y-113603489D01*
X128683345Y-113030000D01*
X128569271Y-112456511D01*
X128244415Y-111970330D01*
X127929634Y-111760000D01*
X128244415Y-111549670D01*
X128569271Y-111063489D01*
X128683345Y-110490000D01*
X128569271Y-109916511D01*
X128244415Y-109430330D01*
X127929634Y-109220000D01*
X128244415Y-109009670D01*
X128569271Y-108523489D01*
X128683345Y-107950000D01*
X128569271Y-107376511D01*
X128244415Y-106890330D01*
X127929634Y-106680000D01*
X128244415Y-106469670D01*
X128569271Y-105983489D01*
X128683345Y-105410000D01*
X128569271Y-104836511D01*
X128244415Y-104350330D01*
X127929634Y-104140000D01*
X128244415Y-103929670D01*
X128569271Y-103443489D01*
X128683345Y-102870000D01*
X128569271Y-102296511D01*
X128244415Y-101810330D01*
X127929634Y-101600000D01*
X128244415Y-101389670D01*
X128569271Y-100903489D01*
X128683345Y-100330000D01*
X128569271Y-99756511D01*
X128244415Y-99270330D01*
X127929634Y-99060000D01*
X128244415Y-98849670D01*
X128569271Y-98363489D01*
X128683345Y-97790000D01*
X128569271Y-97216511D01*
X128244415Y-96730330D01*
X127929634Y-96520000D01*
X128244415Y-96309670D01*
X128569271Y-95823489D01*
X128683345Y-95250000D01*
X128569271Y-94676511D01*
X128244415Y-94190330D01*
X128230087Y-94180757D01*
X128251317Y-94176762D01*
X128467441Y-94037690D01*
X128612431Y-93825490D01*
X128663440Y-93573600D01*
X128663440Y-91846400D01*
X128619162Y-91611083D01*
X128480090Y-91394959D01*
X128267890Y-91249969D01*
X128016000Y-91198960D01*
X125984000Y-91198960D01*
X125748683Y-91243238D01*
X125532559Y-91382310D01*
X125387569Y-91594510D01*
X125336560Y-91846400D01*
X125336560Y-93573600D01*
X125380838Y-93808917D01*
X125519910Y-94025041D01*
X125732110Y-94170031D01*
X125773439Y-94178400D01*
X125755585Y-94190330D01*
X125430729Y-94676511D01*
X125316655Y-95250000D01*
X125430729Y-95823489D01*
X125755585Y-96309670D01*
X126070366Y-96520000D01*
X125755585Y-96730330D01*
X125430729Y-97216511D01*
X125316655Y-97790000D01*
X125430729Y-98363489D01*
X125755585Y-98849670D01*
X126070366Y-99060000D01*
X125755585Y-99270330D01*
X125430729Y-99756511D01*
X125316655Y-100330000D01*
X125430729Y-100903489D01*
X125755585Y-101389670D01*
X126070366Y-101600000D01*
X125755585Y-101810330D01*
X125555352Y-102110000D01*
X123504802Y-102110000D01*
X121187401Y-99792599D01*
X120940839Y-99627852D01*
X120650000Y-99570000D01*
X113030000Y-99570000D01*
X112739160Y-99627852D01*
X112492599Y-99792599D01*
X111920059Y-100365139D01*
X111599662Y-100364860D01*
X111027401Y-99792599D01*
X110780839Y-99627852D01*
X110490000Y-99570000D01*
X106864496Y-99570000D01*
X106796462Y-99405345D01*
X106337073Y-98945154D01*
X105736547Y-98695794D01*
X105086306Y-98695226D01*
X104485345Y-98943538D01*
X104025154Y-99402927D01*
X103775794Y-100003453D01*
X103775226Y-100653694D01*
X104023538Y-101254655D01*
X104482927Y-101714846D01*
X105083453Y-101964206D01*
X105733694Y-101964774D01*
X106334655Y-101716462D01*
X106794846Y-101257073D01*
X106864221Y-101090000D01*
X110175198Y-101090000D01*
X110525139Y-101439941D01*
X110524786Y-101844579D01*
X110634456Y-102110000D01*
X109220000Y-102110000D01*
X108929160Y-102167852D01*
X108682599Y-102332599D01*
X107635198Y-103380000D01*
X106864496Y-103380000D01*
X106796462Y-103215345D01*
X106337073Y-102755154D01*
X105736547Y-102505794D01*
X105086306Y-102505226D01*
X104485345Y-102753538D01*
X104025154Y-103212927D01*
X103775794Y-103813453D01*
X103775226Y-104463694D01*
X104023538Y-105064655D01*
X104482927Y-105524846D01*
X105083453Y-105774206D01*
X105733694Y-105774774D01*
X106334655Y-105526462D01*
X106794846Y-105067073D01*
X106821561Y-105002735D01*
X111076870Y-105002735D01*
X111126383Y-105228164D01*
X111591036Y-105387807D01*
X112081413Y-105357482D01*
X112393617Y-105228164D01*
X112443130Y-105002735D01*
X111760000Y-104319605D01*
X111076870Y-105002735D01*
X106821561Y-105002735D01*
X106864221Y-104900000D01*
X107950000Y-104900000D01*
X108240839Y-104842148D01*
X108487401Y-104677401D01*
X109534802Y-103630000D01*
X110629364Y-103630000D01*
X110512193Y-103971036D01*
X110542518Y-104461413D01*
X110671836Y-104773617D01*
X110897265Y-104823130D01*
X111580395Y-104140000D01*
X111566253Y-104125858D01*
X111745858Y-103946253D01*
X111760000Y-103960395D01*
X111774143Y-103946253D01*
X111953748Y-104125858D01*
X111939605Y-104140000D01*
X112622735Y-104823130D01*
X112848164Y-104773617D01*
X113007807Y-104308964D01*
X112995192Y-104104970D01*
X113274579Y-104105214D01*
X113728657Y-103917592D01*
X114076371Y-103570485D01*
X114264785Y-103116734D01*
X114265214Y-102625421D01*
X114077592Y-102171343D01*
X113730485Y-101823629D01*
X113276734Y-101635215D01*
X112994970Y-101634969D01*
X112995140Y-101439662D01*
X113344802Y-101090000D01*
X120335198Y-101090000D01*
X122652599Y-103407401D01*
X122899160Y-103572148D01*
X122947414Y-103581746D01*
X123190000Y-103630000D01*
X125555352Y-103630000D01*
X125755585Y-103929670D01*
X126070366Y-104140000D01*
X125755585Y-104350330D01*
X125430729Y-104836511D01*
X125316655Y-105410000D01*
X125430729Y-105983489D01*
X125755585Y-106469670D01*
X126070366Y-106680000D01*
X125755585Y-106890330D01*
X125555352Y-107190000D01*
X83994648Y-107190000D01*
X83794415Y-106890330D01*
X83479634Y-106680000D01*
X83794415Y-106469670D01*
X84119271Y-105983489D01*
X84233345Y-105410000D01*
X84119271Y-104836511D01*
X83870163Y-104463694D01*
X93615226Y-104463694D01*
X93863538Y-105064655D01*
X94322927Y-105524846D01*
X94923453Y-105774206D01*
X95573694Y-105774774D01*
X96174655Y-105526462D01*
X96634846Y-105067073D01*
X96884206Y-104466547D01*
X96884774Y-103816306D01*
X96636462Y-103215345D01*
X96177073Y-102755154D01*
X95576547Y-102505794D01*
X94926306Y-102505226D01*
X94325345Y-102753538D01*
X93865154Y-103212927D01*
X93615794Y-103813453D01*
X93615226Y-104463694D01*
X83870163Y-104463694D01*
X83794415Y-104350330D01*
X83479634Y-104140000D01*
X83794415Y-103929670D01*
X84119271Y-103443489D01*
X84233345Y-102870000D01*
X84119271Y-102296511D01*
X83794415Y-101810330D01*
X83479634Y-101600000D01*
X83794415Y-101389670D01*
X83994648Y-101090000D01*
X91440000Y-101090000D01*
X91730839Y-101032148D01*
X91977401Y-100867401D01*
X92191108Y-100653694D01*
X93615226Y-100653694D01*
X93863538Y-101254655D01*
X94322927Y-101714846D01*
X94923453Y-101964206D01*
X95573694Y-101964774D01*
X96174655Y-101716462D01*
X96634846Y-101257073D01*
X96884206Y-100656547D01*
X96884774Y-100006306D01*
X96636462Y-99405345D01*
X96177073Y-98945154D01*
X95576547Y-98695794D01*
X94926306Y-98695226D01*
X94325345Y-98943538D01*
X93865154Y-99402927D01*
X93615794Y-100003453D01*
X93615226Y-100653694D01*
X92191108Y-100653694D01*
X96834802Y-96010000D01*
X103122994Y-96010000D01*
X103451155Y-96338735D01*
X103923276Y-96534777D01*
X104434481Y-96535223D01*
X104906943Y-96340005D01*
X105268735Y-95978845D01*
X105395000Y-95674765D01*
X105395000Y-96026310D01*
X105491673Y-96259699D01*
X105670302Y-96438327D01*
X105903691Y-96535000D01*
X106394250Y-96535000D01*
X106553000Y-96376250D01*
X106553000Y-95377000D01*
X106807000Y-95377000D01*
X106807000Y-96376250D01*
X106965750Y-96535000D01*
X107456309Y-96535000D01*
X107689698Y-96438327D01*
X107868327Y-96259699D01*
X107965000Y-96026310D01*
X107965000Y-95535750D01*
X107806250Y-95377000D01*
X106807000Y-95377000D01*
X106553000Y-95377000D01*
X106533000Y-95377000D01*
X106533000Y-95123000D01*
X106553000Y-95123000D01*
X106553000Y-94123750D01*
X106807000Y-94123750D01*
X106807000Y-95123000D01*
X107806250Y-95123000D01*
X107965000Y-94964250D01*
X107965000Y-94473690D01*
X107868327Y-94240301D01*
X107689698Y-94061673D01*
X107456309Y-93965000D01*
X106965750Y-93965000D01*
X106807000Y-94123750D01*
X106553000Y-94123750D01*
X106394250Y-93965000D01*
X105903691Y-93965000D01*
X105670302Y-94061673D01*
X105491673Y-94240301D01*
X105395000Y-94473690D01*
X105395000Y-94825567D01*
X105270005Y-94523057D01*
X104908845Y-94161265D01*
X104436724Y-93965223D01*
X103925519Y-93964777D01*
X103453057Y-94159995D01*
X103122475Y-94490000D01*
X96520000Y-94490000D01*
X96229161Y-94547852D01*
X95982599Y-94712599D01*
X91125198Y-99570000D01*
X83994648Y-99570000D01*
X83794415Y-99270330D01*
X83479634Y-99060000D01*
X83794415Y-98849670D01*
X84119271Y-98363489D01*
X84233345Y-97790000D01*
X84119271Y-97216511D01*
X83794415Y-96730330D01*
X83479634Y-96520000D01*
X83794415Y-96309670D01*
X84119271Y-95823489D01*
X84182725Y-95504481D01*
X87654777Y-95504481D01*
X87849995Y-95976943D01*
X88211155Y-96338735D01*
X88683276Y-96534777D01*
X89194481Y-96535223D01*
X89666943Y-96340005D01*
X90028735Y-95978845D01*
X90155000Y-95674765D01*
X90155000Y-96026310D01*
X90251673Y-96259699D01*
X90430302Y-96438327D01*
X90663691Y-96535000D01*
X91154250Y-96535000D01*
X91313000Y-96376250D01*
X91313000Y-95377000D01*
X91567000Y-95377000D01*
X91567000Y-96376250D01*
X91725750Y-96535000D01*
X92216309Y-96535000D01*
X92449698Y-96438327D01*
X92628327Y-96259699D01*
X92725000Y-96026310D01*
X92725000Y-95535750D01*
X92566250Y-95377000D01*
X91567000Y-95377000D01*
X91313000Y-95377000D01*
X91293000Y-95377000D01*
X91293000Y-95123000D01*
X91313000Y-95123000D01*
X91313000Y-94123750D01*
X91567000Y-94123750D01*
X91567000Y-95123000D01*
X92566250Y-95123000D01*
X92725000Y-94964250D01*
X92725000Y-94473690D01*
X92628327Y-94240301D01*
X92449698Y-94061673D01*
X92216309Y-93965000D01*
X91725750Y-93965000D01*
X91567000Y-94123750D01*
X91313000Y-94123750D01*
X91154250Y-93965000D01*
X90663691Y-93965000D01*
X90430302Y-94061673D01*
X90251673Y-94240301D01*
X90155000Y-94473690D01*
X90155000Y-94825567D01*
X90030005Y-94523057D01*
X89668845Y-94161265D01*
X89196724Y-93965223D01*
X88685519Y-93964777D01*
X88213057Y-94159995D01*
X87851265Y-94521155D01*
X87655223Y-94993276D01*
X87654777Y-95504481D01*
X84182725Y-95504481D01*
X84233345Y-95250000D01*
X84119271Y-94676511D01*
X83794415Y-94190330D01*
X83479634Y-93980000D01*
X83794415Y-93769670D01*
X84119271Y-93283489D01*
X84233345Y-92710000D01*
X84119271Y-92136511D01*
X83794415Y-91650330D01*
X83479634Y-91440000D01*
X83794415Y-91229670D01*
X83994648Y-90930000D01*
X87630000Y-90930000D01*
X87920839Y-90872148D01*
X88167401Y-90707401D01*
X88677362Y-90197440D01*
X89550000Y-90197440D01*
X89785317Y-90153162D01*
X90001441Y-90014090D01*
X90146431Y-89801890D01*
X90147012Y-89799016D01*
X90680590Y-89799016D01*
X90736271Y-90029611D01*
X91219078Y-90197622D01*
X91729428Y-90168083D01*
X92063729Y-90029611D01*
X92119410Y-89799016D01*
X91400000Y-89079605D01*
X90680590Y-89799016D01*
X90147012Y-89799016D01*
X90197440Y-89550000D01*
X90197440Y-89387615D01*
X90270389Y-89563729D01*
X90500984Y-89619410D01*
X91220395Y-88900000D01*
X91579605Y-88900000D01*
X92299016Y-89619410D01*
X92529611Y-89563729D01*
X92697622Y-89080922D01*
X92668083Y-88570572D01*
X92535298Y-88250000D01*
X102842560Y-88250000D01*
X102842560Y-89550000D01*
X102886838Y-89785317D01*
X103025910Y-90001441D01*
X103238110Y-90146431D01*
X103490000Y-90197440D01*
X104790000Y-90197440D01*
X105025317Y-90153162D01*
X105241441Y-90014090D01*
X105386431Y-89801890D01*
X105387012Y-89799016D01*
X105920590Y-89799016D01*
X105976271Y-90029611D01*
X106459078Y-90197622D01*
X106969428Y-90168083D01*
X107303729Y-90029611D01*
X107359410Y-89799016D01*
X106640000Y-89079605D01*
X105920590Y-89799016D01*
X105387012Y-89799016D01*
X105437440Y-89550000D01*
X105437440Y-89387615D01*
X105510389Y-89563729D01*
X105740984Y-89619410D01*
X106460395Y-88900000D01*
X106819605Y-88900000D01*
X107539016Y-89619410D01*
X107769611Y-89563729D01*
X107937622Y-89080922D01*
X107908083Y-88570572D01*
X107769611Y-88236271D01*
X107539016Y-88180590D01*
X106819605Y-88900000D01*
X106460395Y-88900000D01*
X105740984Y-88180590D01*
X105510389Y-88236271D01*
X105437440Y-88445902D01*
X105437440Y-88250000D01*
X105393162Y-88014683D01*
X105384347Y-88000984D01*
X105920590Y-88000984D01*
X106640000Y-88720395D01*
X107359410Y-88000984D01*
X107303729Y-87770389D01*
X106820922Y-87602378D01*
X106310572Y-87631917D01*
X105976271Y-87770389D01*
X105920590Y-88000984D01*
X105384347Y-88000984D01*
X105254090Y-87798559D01*
X105041890Y-87653569D01*
X104790000Y-87602560D01*
X103490000Y-87602560D01*
X103254683Y-87646838D01*
X103038559Y-87785910D01*
X102893569Y-87998110D01*
X102842560Y-88250000D01*
X92535298Y-88250000D01*
X92529611Y-88236271D01*
X92299016Y-88180590D01*
X91579605Y-88900000D01*
X91220395Y-88900000D01*
X91206252Y-88885858D01*
X91385858Y-88706252D01*
X91400000Y-88720395D01*
X92119410Y-88000984D01*
X92063729Y-87770389D01*
X91580922Y-87602378D01*
X91253471Y-87621331D01*
X91754802Y-87120000D01*
X127955198Y-87120000D01*
X140657619Y-99822421D01*
X140556655Y-100330000D01*
X140670729Y-100903489D01*
X140995585Y-101389670D01*
X141310366Y-101600000D01*
X140995585Y-101810330D01*
X140670729Y-102296511D01*
X140556655Y-102870000D01*
X140670729Y-103443489D01*
X140995585Y-103929670D01*
X141310366Y-104140000D01*
X140995585Y-104350330D01*
X140670729Y-104836511D01*
X140556655Y-105410000D01*
X140670729Y-105983489D01*
X140995585Y-106469670D01*
X141310366Y-106680000D01*
X140995585Y-106890330D01*
X140670729Y-107376511D01*
X140556655Y-107950000D01*
X140670729Y-108523489D01*
X140995585Y-109009670D01*
X141310366Y-109220000D01*
X140995585Y-109430330D01*
X140670729Y-109916511D01*
X140556655Y-110490000D01*
X140670729Y-111063489D01*
X140995585Y-111549670D01*
X141310366Y-111760000D01*
X140995585Y-111970330D01*
X140670729Y-112456511D01*
X140556655Y-113030000D01*
X140670729Y-113603489D01*
X140995585Y-114089670D01*
X141310366Y-114300000D01*
X140995585Y-114510330D01*
X140670729Y-114996511D01*
X140556655Y-115570000D01*
X140670729Y-116143489D01*
X140995585Y-116629670D01*
X141310366Y-116840000D01*
X140995585Y-117050330D01*
X140670729Y-117536511D01*
X140556655Y-118110000D01*
X140670729Y-118683489D01*
X140995585Y-119169670D01*
X141310366Y-119380000D01*
X140995585Y-119590330D01*
X140670729Y-120076511D01*
X140556655Y-120650000D01*
X140670729Y-121223489D01*
X140995585Y-121709670D01*
X141310366Y-121920000D01*
X140995585Y-122130330D01*
X140670729Y-122616511D01*
X140556655Y-123190000D01*
X140670729Y-123763489D01*
X140995585Y-124249670D01*
X141310366Y-124460000D01*
X140995585Y-124670330D01*
X140670729Y-125156511D01*
X140556655Y-125730000D01*
X140670729Y-126303489D01*
X140995585Y-126789670D01*
X141310366Y-127000000D01*
X140995585Y-127210330D01*
X140670729Y-127696511D01*
X140556655Y-128270000D01*
X140670729Y-128843489D01*
X140995585Y-129329670D01*
X141481766Y-129654526D01*
X142055255Y-129768600D01*
X142424745Y-129768600D01*
X142998234Y-129654526D01*
X143484415Y-129329670D01*
X143809271Y-128843489D01*
X143923345Y-128270000D01*
X143809271Y-127696511D01*
X143484415Y-127210330D01*
X143169634Y-127000000D01*
X143484415Y-126789670D01*
X143809271Y-126303489D01*
X143923345Y-125730000D01*
X143809271Y-125156511D01*
X143484415Y-124670330D01*
X143169634Y-124460000D01*
X143484415Y-124249670D01*
X143809271Y-123763489D01*
X143923345Y-123190000D01*
X143809271Y-122616511D01*
X143484415Y-122130330D01*
X143169634Y-121920000D01*
X143484415Y-121709670D01*
X143809271Y-121223489D01*
X143923345Y-120650000D01*
X143809271Y-120076511D01*
X143484415Y-119590330D01*
X143169634Y-119380000D01*
X143484415Y-119169670D01*
X143809271Y-118683489D01*
X143923345Y-118110000D01*
X143809271Y-117536511D01*
X143484415Y-117050330D01*
X143169634Y-116840000D01*
X143484415Y-116629670D01*
X143809271Y-116143489D01*
X143923345Y-115570000D01*
X143809271Y-114996511D01*
X143484415Y-114510330D01*
X143169634Y-114300000D01*
X143484415Y-114089670D01*
X143809271Y-113603489D01*
X143923345Y-113030000D01*
X143809271Y-112456511D01*
X143484415Y-111970330D01*
X143169634Y-111760000D01*
X143484415Y-111549670D01*
X143809271Y-111063489D01*
X143923345Y-110490000D01*
X143809271Y-109916511D01*
X143484415Y-109430330D01*
X143169634Y-109220000D01*
X143484415Y-109009670D01*
X143809271Y-108523489D01*
X143923345Y-107950000D01*
X143809271Y-107376511D01*
X143484415Y-106890330D01*
X143169634Y-106680000D01*
X143484415Y-106469670D01*
X143809271Y-105983489D01*
X143923345Y-105410000D01*
X143809271Y-104836511D01*
X143484415Y-104350330D01*
X143169634Y-104140000D01*
X143484415Y-103929670D01*
X143809271Y-103443489D01*
X143923345Y-102870000D01*
X143809271Y-102296511D01*
X143484415Y-101810330D01*
X143169634Y-101600000D01*
X143484415Y-101389670D01*
X143809271Y-100903489D01*
X143923345Y-100330000D01*
X143809271Y-99756511D01*
X143484415Y-99270330D01*
X143169634Y-99060000D01*
X143484415Y-98849670D01*
X143809271Y-98363489D01*
X143923345Y-97790000D01*
X143809271Y-97216511D01*
X143484415Y-96730330D01*
X143174931Y-96523539D01*
X143590732Y-96152036D01*
X143844709Y-95624791D01*
X143847358Y-95609026D01*
X143726217Y-95377000D01*
X142367000Y-95377000D01*
X142367000Y-95397000D01*
X142113000Y-95397000D01*
X142113000Y-95377000D01*
X140753783Y-95377000D01*
X140632642Y-95609026D01*
X140635291Y-95624791D01*
X140889268Y-96152036D01*
X141305069Y-96523539D01*
X140995585Y-96730330D01*
X140670729Y-97216511D01*
X140592848Y-97608046D01*
X134831202Y-91846400D01*
X140576560Y-91846400D01*
X140576560Y-93573600D01*
X140620838Y-93808917D01*
X140759910Y-94025041D01*
X140972110Y-94170031D01*
X141066927Y-94189232D01*
X140889268Y-94347964D01*
X140635291Y-94875209D01*
X140632642Y-94890974D01*
X140753783Y-95123000D01*
X142113000Y-95123000D01*
X142113000Y-95103000D01*
X142367000Y-95103000D01*
X142367000Y-95123000D01*
X143726217Y-95123000D01*
X143847358Y-94890974D01*
X143844709Y-94875209D01*
X143590732Y-94347964D01*
X143415155Y-94191093D01*
X143491317Y-94176762D01*
X143707441Y-94037690D01*
X143852431Y-93825490D01*
X143903440Y-93573600D01*
X143903440Y-91846400D01*
X143859162Y-91611083D01*
X143720090Y-91394959D01*
X143507890Y-91249969D01*
X143256000Y-91198960D01*
X141224000Y-91198960D01*
X140988683Y-91243238D01*
X140772559Y-91382310D01*
X140627569Y-91594510D01*
X140576560Y-91846400D01*
X134831202Y-91846400D01*
X128807401Y-85822599D01*
X128560839Y-85657852D01*
X128270000Y-85600000D01*
X91440000Y-85600000D01*
X91197414Y-85648254D01*
X91149160Y-85657852D01*
X90902599Y-85822599D01*
X89122638Y-87602560D01*
X88250000Y-87602560D01*
X88014683Y-87646838D01*
X87798559Y-87785910D01*
X87653569Y-87998110D01*
X87602560Y-88250000D01*
X87602560Y-89122638D01*
X87315198Y-89410000D01*
X83994648Y-89410000D01*
X83794415Y-89110330D01*
X83772220Y-89095500D01*
X83925699Y-89031927D01*
X84104327Y-88853298D01*
X84201000Y-88619909D01*
X84201000Y-87915750D01*
X84042250Y-87757000D01*
X82677000Y-87757000D01*
X82677000Y-87777000D01*
X82423000Y-87777000D01*
X82423000Y-87757000D01*
X81057750Y-87757000D01*
X80899000Y-87915750D01*
X80899000Y-88619909D01*
X80995673Y-88853298D01*
X81174301Y-89031927D01*
X81327780Y-89095500D01*
X81305585Y-89110330D01*
X80980729Y-89596511D01*
X80866655Y-90170000D01*
X80720000Y-90170000D01*
X80720000Y-86640091D01*
X80899000Y-86640091D01*
X80899000Y-87344250D01*
X81057750Y-87503000D01*
X82423000Y-87503000D01*
X82423000Y-86290150D01*
X82677000Y-86290150D01*
X82677000Y-87503000D01*
X84042250Y-87503000D01*
X84201000Y-87344250D01*
X84201000Y-86640091D01*
X84104327Y-86406702D01*
X83925699Y-86228073D01*
X83692310Y-86131400D01*
X82835750Y-86131400D01*
X82677000Y-86290150D01*
X82423000Y-86290150D01*
X82264250Y-86131400D01*
X81407690Y-86131400D01*
X81174301Y-86228073D01*
X80995673Y-86406702D01*
X80899000Y-86640091D01*
X80720000Y-86640091D01*
X80720000Y-84530000D01*
X144070000Y-84530000D01*
X144070000Y-135180000D01*
X144070000Y-135180000D01*
G37*
X144070000Y-135180000D02*
X116073579Y-135180000D01*
X116107401Y-135157401D01*
X118424802Y-132840000D01*
X119663644Y-132840000D01*
X119949515Y-133126371D01*
X120403266Y-133314785D01*
X120894579Y-133315214D01*
X121348657Y-133127592D01*
X121533837Y-132942735D01*
X122506870Y-132942735D01*
X122556383Y-133168164D01*
X123021036Y-133327807D01*
X123511413Y-133297482D01*
X123823617Y-133168164D01*
X123873130Y-132942735D01*
X123190000Y-132259605D01*
X122506870Y-132942735D01*
X121533837Y-132942735D01*
X121696371Y-132780485D01*
X121884785Y-132326734D01*
X121885031Y-132044970D01*
X121950479Y-132045027D01*
X121972518Y-132401413D01*
X122101836Y-132713617D01*
X122327265Y-132763130D01*
X123010395Y-132080000D01*
X123369605Y-132080000D01*
X124052735Y-132763130D01*
X124278164Y-132713617D01*
X124437807Y-132248964D01*
X124407482Y-131758587D01*
X124278164Y-131446383D01*
X124052735Y-131396870D01*
X123369605Y-132080000D01*
X123010395Y-132080000D01*
X122996253Y-132065858D01*
X123175858Y-131886253D01*
X123190000Y-131900395D01*
X123873130Y-131217265D01*
X123823617Y-130991836D01*
X123358964Y-130832193D01*
X123154970Y-130844808D01*
X123155214Y-130565421D01*
X122967592Y-130111343D01*
X122680000Y-129823248D01*
X122680000Y-127314802D01*
X122698917Y-127295885D01*
X122863453Y-127364206D01*
X123513694Y-127364774D01*
X124114655Y-127116462D01*
X124574846Y-126657073D01*
X124824206Y-126056547D01*
X124824774Y-125406306D01*
X124576462Y-124805345D01*
X124117073Y-124345154D01*
X123516547Y-124095794D01*
X122866306Y-124095226D01*
X122265345Y-124343538D01*
X121805154Y-124802927D01*
X121555794Y-125403453D01*
X121555226Y-126053694D01*
X121624309Y-126220889D01*
X121382599Y-126462599D01*
X121217852Y-126709161D01*
X121160000Y-127000000D01*
X121160000Y-129823644D01*
X120873629Y-130109515D01*
X120685215Y-130563266D01*
X120684969Y-130845030D01*
X120405421Y-130844786D01*
X119951343Y-131032408D01*
X119663248Y-131320000D01*
X118110000Y-131320000D01*
X117867414Y-131368254D01*
X117819160Y-131377852D01*
X117572599Y-131542599D01*
X115255198Y-133860000D01*
X90484802Y-133860000D01*
X89660000Y-133035198D01*
X89660000Y-121920000D01*
X89602148Y-121629161D01*
X89602148Y-121629160D01*
X89437401Y-121382599D01*
X87925885Y-119871083D01*
X87994206Y-119706547D01*
X87994774Y-119056306D01*
X87746462Y-118455345D01*
X87287073Y-117995154D01*
X87120000Y-117925779D01*
X87120000Y-117183599D01*
X89704699Y-117183599D01*
X89968281Y-117821515D01*
X90256338Y-118110075D01*
X89969996Y-118395918D01*
X89705301Y-119033373D01*
X89704699Y-119723599D01*
X89968281Y-120361515D01*
X90256338Y-120650075D01*
X89969996Y-120935918D01*
X89705301Y-121573373D01*
X89704699Y-122263599D01*
X89968281Y-122901515D01*
X90256338Y-123190075D01*
X89969996Y-123475918D01*
X89705301Y-124113373D01*
X89704699Y-124803599D01*
X89968281Y-125441515D01*
X90256338Y-125730075D01*
X89969996Y-126015918D01*
X89705301Y-126653373D01*
X89704699Y-127343599D01*
X89968281Y-127981515D01*
X90256338Y-128270075D01*
X89969996Y-128555918D01*
X89705301Y-129193373D01*
X89704699Y-129883599D01*
X89968281Y-130521515D01*
X90256338Y-130810075D01*
X89969996Y-131095918D01*
X89705301Y-131733373D01*
X89704699Y-132423599D01*
X89968281Y-133061515D01*
X90455918Y-133550004D01*
X91093373Y-133814699D01*
X91783599Y-133815301D01*
X92421515Y-133551719D01*
X92910004Y-133064082D01*
X93003051Y-132840000D01*
X97615352Y-132840000D01*
X97815585Y-133139670D01*
X98301766Y-133464526D01*
X98875255Y-133578600D01*
X99244745Y-133578600D01*
X99818234Y-133464526D01*
X100304415Y-133139670D01*
X100629271Y-132653489D01*
X100671930Y-132439026D01*
X110152642Y-132439026D01*
X110155291Y-132454791D01*
X110409268Y-132982036D01*
X110845680Y-133371954D01*
X111398087Y-133565184D01*
X111633000Y-133420924D01*
X111633000Y-132207000D01*
X111887000Y-132207000D01*
X111887000Y-133420924D01*
X112121913Y-133565184D01*
X112674320Y-133371954D01*
X113110732Y-132982036D01*
X113364709Y-132454791D01*
X113367358Y-132439026D01*
X113246217Y-132207000D01*
X111887000Y-132207000D01*
X111633000Y-132207000D01*
X110273783Y-132207000D01*
X110152642Y-132439026D01*
X100671930Y-132439026D01*
X100743345Y-132080000D01*
X100629271Y-131506511D01*
X100304415Y-131020330D01*
X99989634Y-130810000D01*
X100304415Y-130599670D01*
X100629271Y-130113489D01*
X100743345Y-129540000D01*
X100629271Y-128966511D01*
X100304415Y-128480330D01*
X99989634Y-128270000D01*
X100304415Y-128059670D01*
X100629271Y-127573489D01*
X100706513Y-127185167D01*
X105744838Y-127185167D01*
X105886883Y-127528943D01*
X106149673Y-127792192D01*
X106493201Y-127934838D01*
X106540077Y-127934879D01*
X108682599Y-130077401D01*
X108929160Y-130242148D01*
X108977414Y-130251746D01*
X109220000Y-130300000D01*
X110315352Y-130300000D01*
X110515585Y-130599670D01*
X110825069Y-130806461D01*
X110409268Y-131177964D01*
X110155291Y-131705209D01*
X110152642Y-131720974D01*
X110273783Y-131953000D01*
X111633000Y-131953000D01*
X111633000Y-131933000D01*
X111887000Y-131933000D01*
X111887000Y-131953000D01*
X113246217Y-131953000D01*
X113367358Y-131720974D01*
X113364709Y-131705209D01*
X113110732Y-131177964D01*
X112694931Y-130806461D01*
X113004415Y-130599670D01*
X113329271Y-130113489D01*
X113443345Y-129540000D01*
X113329271Y-128966511D01*
X113004415Y-128480330D01*
X112689634Y-128270000D01*
X113004415Y-128059670D01*
X113204648Y-127760000D01*
X116665352Y-127760000D01*
X116865585Y-128059670D01*
X117351766Y-128384526D01*
X117925255Y-128498600D01*
X118294745Y-128498600D01*
X118868234Y-128384526D01*
X119354415Y-128059670D01*
X119679271Y-127573489D01*
X119793345Y-127000000D01*
X119679271Y-126426511D01*
X119354415Y-125940330D01*
X119039634Y-125730000D01*
X119354415Y-125519670D01*
X119679271Y-125033489D01*
X119793345Y-124460000D01*
X119679271Y-123886511D01*
X119354415Y-123400330D01*
X119039634Y-123190000D01*
X119354415Y-122979670D01*
X119679271Y-122493489D01*
X119793345Y-121920000D01*
X119679271Y-121346511D01*
X119354415Y-120860330D01*
X119340087Y-120850757D01*
X119361317Y-120846762D01*
X119577441Y-120707690D01*
X119722431Y-120495490D01*
X119773440Y-120243600D01*
X119773440Y-118516400D01*
X119729162Y-118281083D01*
X119590090Y-118064959D01*
X119377890Y-117919969D01*
X119126000Y-117868960D01*
X117094000Y-117868960D01*
X116858683Y-117913238D01*
X116642559Y-118052310D01*
X116497569Y-118264510D01*
X116446560Y-118516400D01*
X116446560Y-118620000D01*
X113204648Y-118620000D01*
X113004415Y-118320330D01*
X112694931Y-118113539D01*
X113110732Y-117742036D01*
X113364709Y-117214791D01*
X113367358Y-117199026D01*
X113246217Y-116967000D01*
X111887000Y-116967000D01*
X111887000Y-116987000D01*
X111633000Y-116987000D01*
X111633000Y-116967000D01*
X110273783Y-116967000D01*
X110152642Y-117199026D01*
X110155291Y-117214791D01*
X110409268Y-117742036D01*
X110825069Y-118113539D01*
X110515585Y-118320330D01*
X110190729Y-118806511D01*
X110076655Y-119380000D01*
X110190729Y-119953489D01*
X110515585Y-120439670D01*
X110830366Y-120650000D01*
X110515585Y-120860330D01*
X110190729Y-121346511D01*
X110076655Y-121920000D01*
X110190729Y-122493489D01*
X110515585Y-122979670D01*
X110830366Y-123190000D01*
X110515585Y-123400330D01*
X110190729Y-123886511D01*
X110076655Y-124460000D01*
X110190729Y-125033489D01*
X110515585Y-125519670D01*
X110830366Y-125730000D01*
X110515585Y-125940330D01*
X110190729Y-126426511D01*
X110076655Y-127000000D01*
X110190729Y-127573489D01*
X110515585Y-128059670D01*
X110830366Y-128270000D01*
X110515585Y-128480330D01*
X110315352Y-128780000D01*
X109534802Y-128780000D01*
X107615122Y-126860320D01*
X107615162Y-126814833D01*
X107473117Y-126471057D01*
X107210327Y-126207808D01*
X106866799Y-126065162D01*
X106494833Y-126064838D01*
X106151057Y-126206883D01*
X105887808Y-126469673D01*
X105745162Y-126813201D01*
X105744838Y-127185167D01*
X100706513Y-127185167D01*
X100743345Y-127000000D01*
X100629271Y-126426511D01*
X100304415Y-125940330D01*
X99989634Y-125730000D01*
X100304415Y-125519670D01*
X100629271Y-125033489D01*
X100743345Y-124460000D01*
X100629271Y-123886511D01*
X100304415Y-123400330D01*
X99989634Y-123190000D01*
X100304415Y-122979670D01*
X100629271Y-122493489D01*
X100743345Y-121920000D01*
X100629271Y-121346511D01*
X100304415Y-120860330D01*
X99989634Y-120650000D01*
X100304415Y-120439670D01*
X100629271Y-119953489D01*
X100743345Y-119380000D01*
X100629271Y-118806511D01*
X100304415Y-118320330D01*
X99989634Y-118110000D01*
X100304415Y-117899670D01*
X100629271Y-117413489D01*
X100743345Y-116840000D01*
X100629271Y-116266511D01*
X100304415Y-115780330D01*
X100290087Y-115770757D01*
X100311317Y-115766762D01*
X100527441Y-115627690D01*
X100672431Y-115415490D01*
X100723440Y-115163600D01*
X100723440Y-113436400D01*
X110096560Y-113436400D01*
X110096560Y-115163600D01*
X110140838Y-115398917D01*
X110279910Y-115615041D01*
X110492110Y-115760031D01*
X110586927Y-115779232D01*
X110409268Y-115937964D01*
X110155291Y-116465209D01*
X110152642Y-116480974D01*
X110273783Y-116713000D01*
X111633000Y-116713000D01*
X111633000Y-116693000D01*
X111887000Y-116693000D01*
X111887000Y-116713000D01*
X113246217Y-116713000D01*
X113367358Y-116480974D01*
X113364709Y-116465209D01*
X113110732Y-115937964D01*
X112935155Y-115781093D01*
X113011317Y-115766762D01*
X113227441Y-115627690D01*
X113372431Y-115415490D01*
X113423440Y-115163600D01*
X113423440Y-115060000D01*
X114300000Y-115060000D01*
X114590839Y-115002148D01*
X114837401Y-114837401D01*
X115709680Y-113965122D01*
X115755167Y-113965162D01*
X116098943Y-113823117D01*
X116362192Y-113560327D01*
X116504838Y-113216799D01*
X116505162Y-112844833D01*
X116363117Y-112501057D01*
X116100327Y-112237808D01*
X115756799Y-112095162D01*
X115384833Y-112094838D01*
X115041057Y-112236883D01*
X114777808Y-112499673D01*
X114635162Y-112843201D01*
X114635121Y-112890077D01*
X113985198Y-113540000D01*
X113423440Y-113540000D01*
X113423440Y-113436400D01*
X113379162Y-113201083D01*
X113240090Y-112984959D01*
X113027890Y-112839969D01*
X112776000Y-112788960D01*
X110744000Y-112788960D01*
X110508683Y-112833238D01*
X110292559Y-112972310D01*
X110147569Y-113184510D01*
X110096560Y-113436400D01*
X100723440Y-113436400D01*
X100679162Y-113201083D01*
X100540090Y-112984959D01*
X100327890Y-112839969D01*
X100076000Y-112788960D01*
X98044000Y-112788960D01*
X97808683Y-112833238D01*
X97592559Y-112972310D01*
X97447569Y-113184510D01*
X97396560Y-113436400D01*
X97396560Y-114888638D01*
X93665198Y-118620000D01*
X93003247Y-118620000D01*
X92911719Y-118398485D01*
X92623662Y-118109925D01*
X92910004Y-117824082D01*
X93037147Y-117517888D01*
X93247401Y-117377401D01*
X95389680Y-115235122D01*
X95435167Y-115235162D01*
X95778943Y-115093117D01*
X96042192Y-114830327D01*
X96184838Y-114486799D01*
X96185162Y-114114833D01*
X96043117Y-113771057D01*
X95780327Y-113507808D01*
X95436799Y-113365162D01*
X95064833Y-113364838D01*
X94721057Y-113506883D01*
X94457808Y-113769673D01*
X94315162Y-114113201D01*
X94315121Y-114160077D01*
X92764345Y-115710853D01*
X92424082Y-115369996D01*
X92263861Y-115303466D01*
X91440000Y-114479605D01*
X90616695Y-115302910D01*
X90458485Y-115368281D01*
X89969996Y-115855918D01*
X89705301Y-116493373D01*
X89704699Y-117183599D01*
X87120000Y-117183599D01*
X87120000Y-114614802D01*
X87723209Y-114011593D01*
X89694677Y-114011593D01*
X89717164Y-114701453D01*
X89937901Y-115234359D01*
X90215132Y-115345263D01*
X91260395Y-114300000D01*
X91619605Y-114300000D01*
X92664868Y-115345263D01*
X92942099Y-115234359D01*
X93185323Y-114588407D01*
X93162836Y-113898547D01*
X92942099Y-113365641D01*
X92664868Y-113254737D01*
X91619605Y-114300000D01*
X91260395Y-114300000D01*
X90215132Y-113254737D01*
X89937901Y-113365641D01*
X89694677Y-114011593D01*
X87723209Y-114011593D01*
X89214802Y-112520000D01*
X89876753Y-112520000D01*
X89968281Y-112741515D01*
X90455918Y-113230004D01*
X90616139Y-113296534D01*
X91440000Y-114120395D01*
X92263305Y-113297090D01*
X92421515Y-113231719D01*
X92910004Y-112744082D01*
X93174699Y-112106627D01*
X93175301Y-111416401D01*
X92911719Y-110778485D01*
X92424082Y-110289996D01*
X91786627Y-110025301D01*
X91096401Y-110024699D01*
X90458485Y-110288281D01*
X89969996Y-110775918D01*
X89876949Y-111000000D01*
X88900000Y-111000000D01*
X88657414Y-111048254D01*
X88609160Y-111057852D01*
X88362599Y-111222599D01*
X85822599Y-113762599D01*
X85657852Y-114009161D01*
X85600000Y-114300000D01*
X85600000Y-117925504D01*
X85435345Y-117993538D01*
X84975154Y-118452927D01*
X84725794Y-119053453D01*
X84725226Y-119703694D01*
X84973538Y-120304655D01*
X85432927Y-120764846D01*
X86033453Y-121014206D01*
X86683694Y-121014774D01*
X86850889Y-120945691D01*
X88140000Y-122234802D01*
X88140000Y-133350000D01*
X88197852Y-133640839D01*
X88362599Y-133887401D01*
X89632599Y-135157401D01*
X89666421Y-135180000D01*
X80720000Y-135180000D01*
X80720000Y-90170000D01*
X80866655Y-90170000D01*
X80980729Y-90743489D01*
X81305585Y-91229670D01*
X81620366Y-91440000D01*
X81305585Y-91650330D01*
X80980729Y-92136511D01*
X80866655Y-92710000D01*
X80980729Y-93283489D01*
X81305585Y-93769670D01*
X81620366Y-93980000D01*
X81305585Y-94190330D01*
X80980729Y-94676511D01*
X80866655Y-95250000D01*
X80980729Y-95823489D01*
X81305585Y-96309670D01*
X81620366Y-96520000D01*
X81305585Y-96730330D01*
X80980729Y-97216511D01*
X80866655Y-97790000D01*
X80980729Y-98363489D01*
X81305585Y-98849670D01*
X81620366Y-99060000D01*
X81305585Y-99270330D01*
X80980729Y-99756511D01*
X80866655Y-100330000D01*
X80980729Y-100903489D01*
X81305585Y-101389670D01*
X81620366Y-101600000D01*
X81305585Y-101810330D01*
X80980729Y-102296511D01*
X80866655Y-102870000D01*
X80980729Y-103443489D01*
X81305585Y-103929670D01*
X81620366Y-104140000D01*
X81305585Y-104350330D01*
X80980729Y-104836511D01*
X80866655Y-105410000D01*
X80980729Y-105983489D01*
X81305585Y-106469670D01*
X81620366Y-106680000D01*
X81305585Y-106890330D01*
X80980729Y-107376511D01*
X80866655Y-107950000D01*
X80980729Y-108523489D01*
X81305585Y-109009670D01*
X81620366Y-109220000D01*
X81305585Y-109430330D01*
X80980729Y-109916511D01*
X80866655Y-110490000D01*
X80980729Y-111063489D01*
X81305585Y-111549670D01*
X81620366Y-111760000D01*
X81305585Y-111970330D01*
X80980729Y-112456511D01*
X80866655Y-113030000D01*
X80980729Y-113603489D01*
X81305585Y-114089670D01*
X81620366Y-114300000D01*
X81305585Y-114510330D01*
X80980729Y-114996511D01*
X80866655Y-115570000D01*
X80980729Y-116143489D01*
X81305585Y-116629670D01*
X81620366Y-116840000D01*
X81305585Y-117050330D01*
X80980729Y-117536511D01*
X80866655Y-118110000D01*
X80980729Y-118683489D01*
X81305585Y-119169670D01*
X81620366Y-119380000D01*
X81305585Y-119590330D01*
X80980729Y-120076511D01*
X80866655Y-120650000D01*
X80980729Y-121223489D01*
X81305585Y-121709670D01*
X81620366Y-121920000D01*
X81305585Y-122130330D01*
X80980729Y-122616511D01*
X80866655Y-123190000D01*
X80980729Y-123763489D01*
X81305585Y-124249670D01*
X81620366Y-124460000D01*
X81305585Y-124670330D01*
X80980729Y-125156511D01*
X80866655Y-125730000D01*
X80980729Y-126303489D01*
X81305585Y-126789670D01*
X81620366Y-127000000D01*
X81305585Y-127210330D01*
X80980729Y-127696511D01*
X80866655Y-128270000D01*
X80980729Y-128843489D01*
X81305585Y-129329670D01*
X81620366Y-129540000D01*
X81305585Y-129750330D01*
X80980729Y-130236511D01*
X80866655Y-130810000D01*
X80980729Y-131383489D01*
X81305585Y-131869670D01*
X81620366Y-132080000D01*
X81305585Y-132290330D01*
X80980729Y-132776511D01*
X80866655Y-133350000D01*
X80980729Y-133923489D01*
X81305585Y-134409670D01*
X81791766Y-134734526D01*
X82365255Y-134848600D01*
X82734745Y-134848600D01*
X83308234Y-134734526D01*
X83794415Y-134409670D01*
X84021419Y-134069935D01*
X84110839Y-134052148D01*
X84357401Y-133887401D01*
X86897401Y-131347401D01*
X87062148Y-131100840D01*
X87080015Y-131011018D01*
X87284655Y-130926462D01*
X87744846Y-130467073D01*
X87994206Y-129866547D01*
X87994774Y-129216306D01*
X87746462Y-128615345D01*
X87287073Y-128155154D01*
X86686547Y-127905794D01*
X86036306Y-127905226D01*
X85435345Y-128153538D01*
X84975154Y-128612927D01*
X84725794Y-129213453D01*
X84725226Y-129863694D01*
X84973538Y-130464655D01*
X85301754Y-130793444D01*
X83798602Y-132296596D01*
X83794415Y-132290330D01*
X83479634Y-132080000D01*
X83794415Y-131869670D01*
X84119271Y-131383489D01*
X84233345Y-130810000D01*
X84119271Y-130236511D01*
X83794415Y-129750330D01*
X83479634Y-129540000D01*
X83794415Y-129329670D01*
X84119271Y-128843489D01*
X84233345Y-128270000D01*
X84119271Y-127696511D01*
X83794415Y-127210330D01*
X83479634Y-127000000D01*
X83794415Y-126789670D01*
X84119271Y-126303489D01*
X84233345Y-125730000D01*
X84119271Y-125156511D01*
X83794415Y-124670330D01*
X83479634Y-124460000D01*
X83794415Y-124249670D01*
X84119271Y-123763489D01*
X84233345Y-123190000D01*
X84119271Y-122616511D01*
X83794415Y-122130330D01*
X83479634Y-121920000D01*
X83794415Y-121709670D01*
X84119271Y-121223489D01*
X84233345Y-120650000D01*
X84119271Y-120076511D01*
X83794415Y-119590330D01*
X83479634Y-119380000D01*
X83794415Y-119169670D01*
X84119271Y-118683489D01*
X84233345Y-118110000D01*
X84119271Y-117536511D01*
X83794415Y-117050330D01*
X83479634Y-116840000D01*
X83794415Y-116629670D01*
X84119271Y-116143489D01*
X84233345Y-115570000D01*
X84119271Y-114996511D01*
X83794415Y-114510330D01*
X83479634Y-114300000D01*
X83794415Y-114089670D01*
X84119271Y-113603489D01*
X84233345Y-113030000D01*
X84119271Y-112456511D01*
X83794415Y-111970330D01*
X83479634Y-111760000D01*
X83794415Y-111549670D01*
X83994648Y-111250000D01*
X85090000Y-111250000D01*
X85380839Y-111192148D01*
X85627401Y-111027401D01*
X86674802Y-109980000D01*
X121605198Y-109980000D01*
X122652599Y-111027401D01*
X122899160Y-111192148D01*
X123190000Y-111250000D01*
X125555352Y-111250000D01*
X125755585Y-111549670D01*
X126070366Y-111760000D01*
X125755585Y-111970330D01*
X125555352Y-112270000D01*
X124460000Y-112270000D01*
X124169160Y-112327852D01*
X123922599Y-112492599D01*
X122652599Y-113762599D01*
X122487852Y-114009161D01*
X122469985Y-114098982D01*
X122265345Y-114183538D01*
X121805154Y-114642927D01*
X121555794Y-115243453D01*
X121555226Y-115893694D01*
X121803538Y-116494655D01*
X122262927Y-116954846D01*
X122863453Y-117204206D01*
X123513694Y-117204774D01*
X124114655Y-116956462D01*
X124574846Y-116497073D01*
X124824206Y-115896547D01*
X124824774Y-115246306D01*
X124576462Y-114645345D01*
X124248246Y-114316556D01*
X124774802Y-113790000D01*
X125555352Y-113790000D01*
X125755585Y-114089670D01*
X126070366Y-114300000D01*
X125755585Y-114510330D01*
X125430729Y-114996511D01*
X125316655Y-115570000D01*
X125430729Y-116143489D01*
X125755585Y-116629670D01*
X126070366Y-116840000D01*
X125755585Y-117050330D01*
X125430729Y-117536511D01*
X125316655Y-118110000D01*
X125430729Y-118683489D01*
X125755585Y-119169670D01*
X126070366Y-119380000D01*
X125755585Y-119590330D01*
X125430729Y-120076511D01*
X125316655Y-120650000D01*
X125430729Y-121223489D01*
X125755585Y-121709670D01*
X126070366Y-121920000D01*
X125755585Y-122130330D01*
X125430729Y-122616511D01*
X125316655Y-123190000D01*
X125430729Y-123763489D01*
X125755585Y-124249670D01*
X126070366Y-124460000D01*
X125755585Y-124670330D01*
X125430729Y-125156511D01*
X125316655Y-125730000D01*
X125430729Y-126303489D01*
X125755585Y-126789670D01*
X126070366Y-127000000D01*
X125755585Y-127210330D01*
X125430729Y-127696511D01*
X125316655Y-128270000D01*
X125430729Y-128843489D01*
X125755585Y-129329670D01*
X126241766Y-129654526D01*
X126815255Y-129768600D01*
X127184745Y-129768600D01*
X127758234Y-129654526D01*
X128244415Y-129329670D01*
X128569271Y-128843489D01*
X128683345Y-128270000D01*
X128569271Y-127696511D01*
X128244415Y-127210330D01*
X127929634Y-127000000D01*
X128244415Y-126789670D01*
X128569271Y-126303489D01*
X128683345Y-125730000D01*
X128569271Y-125156511D01*
X128244415Y-124670330D01*
X127929634Y-124460000D01*
X128244415Y-124249670D01*
X128569271Y-123763489D01*
X128683345Y-123190000D01*
X128569271Y-122616511D01*
X128244415Y-122130330D01*
X127929634Y-121920000D01*
X128244415Y-121709670D01*
X128569271Y-121223489D01*
X128683345Y-120650000D01*
X128569271Y-120076511D01*
X128244415Y-119590330D01*
X127929634Y-119380000D01*
X128244415Y-119169670D01*
X128569271Y-118683489D01*
X128683345Y-118110000D01*
X128569271Y-117536511D01*
X128244415Y-117050330D01*
X127929634Y-116840000D01*
X128244415Y-116629670D01*
X128569271Y-116143489D01*
X128683345Y-115570000D01*
X128569271Y-114996511D01*
X128244415Y-114510330D01*
X127929634Y-114300000D01*
X128244415Y-114089670D01*
X128569271Y-113603489D01*
X128683345Y-113030000D01*
X128569271Y-112456511D01*
X128244415Y-111970330D01*
X127929634Y-111760000D01*
X128244415Y-111549670D01*
X128569271Y-111063489D01*
X128683345Y-110490000D01*
X128569271Y-109916511D01*
X128244415Y-109430330D01*
X127929634Y-109220000D01*
X128244415Y-109009670D01*
X128569271Y-108523489D01*
X128683345Y-107950000D01*
X128569271Y-107376511D01*
X128244415Y-106890330D01*
X127929634Y-106680000D01*
X128244415Y-106469670D01*
X128569271Y-105983489D01*
X128683345Y-105410000D01*
X128569271Y-104836511D01*
X128244415Y-104350330D01*
X127929634Y-104140000D01*
X128244415Y-103929670D01*
X128569271Y-103443489D01*
X128683345Y-102870000D01*
X128569271Y-102296511D01*
X128244415Y-101810330D01*
X127929634Y-101600000D01*
X128244415Y-101389670D01*
X128569271Y-100903489D01*
X128683345Y-100330000D01*
X128569271Y-99756511D01*
X128244415Y-99270330D01*
X127929634Y-99060000D01*
X128244415Y-98849670D01*
X128569271Y-98363489D01*
X128683345Y-97790000D01*
X128569271Y-97216511D01*
X128244415Y-96730330D01*
X127929634Y-96520000D01*
X128244415Y-96309670D01*
X128569271Y-95823489D01*
X128683345Y-95250000D01*
X128569271Y-94676511D01*
X128244415Y-94190330D01*
X128230087Y-94180757D01*
X128251317Y-94176762D01*
X128467441Y-94037690D01*
X128612431Y-93825490D01*
X128663440Y-93573600D01*
X128663440Y-91846400D01*
X128619162Y-91611083D01*
X128480090Y-91394959D01*
X128267890Y-91249969D01*
X128016000Y-91198960D01*
X125984000Y-91198960D01*
X125748683Y-91243238D01*
X125532559Y-91382310D01*
X125387569Y-91594510D01*
X125336560Y-91846400D01*
X125336560Y-93573600D01*
X125380838Y-93808917D01*
X125519910Y-94025041D01*
X125732110Y-94170031D01*
X125773439Y-94178400D01*
X125755585Y-94190330D01*
X125430729Y-94676511D01*
X125316655Y-95250000D01*
X125430729Y-95823489D01*
X125755585Y-96309670D01*
X126070366Y-96520000D01*
X125755585Y-96730330D01*
X125430729Y-97216511D01*
X125316655Y-97790000D01*
X125430729Y-98363489D01*
X125755585Y-98849670D01*
X126070366Y-99060000D01*
X125755585Y-99270330D01*
X125430729Y-99756511D01*
X125316655Y-100330000D01*
X125430729Y-100903489D01*
X125755585Y-101389670D01*
X126070366Y-101600000D01*
X125755585Y-101810330D01*
X125555352Y-102110000D01*
X123504802Y-102110000D01*
X121187401Y-99792599D01*
X120940839Y-99627852D01*
X120650000Y-99570000D01*
X113030000Y-99570000D01*
X112739160Y-99627852D01*
X112492599Y-99792599D01*
X111920059Y-100365139D01*
X111599662Y-100364860D01*
X111027401Y-99792599D01*
X110780839Y-99627852D01*
X110490000Y-99570000D01*
X106864496Y-99570000D01*
X106796462Y-99405345D01*
X106337073Y-98945154D01*
X105736547Y-98695794D01*
X105086306Y-98695226D01*
X104485345Y-98943538D01*
X104025154Y-99402927D01*
X103775794Y-100003453D01*
X103775226Y-100653694D01*
X104023538Y-101254655D01*
X104482927Y-101714846D01*
X105083453Y-101964206D01*
X105733694Y-101964774D01*
X106334655Y-101716462D01*
X106794846Y-101257073D01*
X106864221Y-101090000D01*
X110175198Y-101090000D01*
X110525139Y-101439941D01*
X110524786Y-101844579D01*
X110634456Y-102110000D01*
X109220000Y-102110000D01*
X108929160Y-102167852D01*
X108682599Y-102332599D01*
X107635198Y-103380000D01*
X106864496Y-103380000D01*
X106796462Y-103215345D01*
X106337073Y-102755154D01*
X105736547Y-102505794D01*
X105086306Y-102505226D01*
X104485345Y-102753538D01*
X104025154Y-103212927D01*
X103775794Y-103813453D01*
X103775226Y-104463694D01*
X104023538Y-105064655D01*
X104482927Y-105524846D01*
X105083453Y-105774206D01*
X105733694Y-105774774D01*
X106334655Y-105526462D01*
X106794846Y-105067073D01*
X106821561Y-105002735D01*
X111076870Y-105002735D01*
X111126383Y-105228164D01*
X111591036Y-105387807D01*
X112081413Y-105357482D01*
X112393617Y-105228164D01*
X112443130Y-105002735D01*
X111760000Y-104319605D01*
X111076870Y-105002735D01*
X106821561Y-105002735D01*
X106864221Y-104900000D01*
X107950000Y-104900000D01*
X108240839Y-104842148D01*
X108487401Y-104677401D01*
X109534802Y-103630000D01*
X110629364Y-103630000D01*
X110512193Y-103971036D01*
X110542518Y-104461413D01*
X110671836Y-104773617D01*
X110897265Y-104823130D01*
X111580395Y-104140000D01*
X111566253Y-104125858D01*
X111745858Y-103946253D01*
X111760000Y-103960395D01*
X111774143Y-103946253D01*
X111953748Y-104125858D01*
X111939605Y-104140000D01*
X112622735Y-104823130D01*
X112848164Y-104773617D01*
X113007807Y-104308964D01*
X112995192Y-104104970D01*
X113274579Y-104105214D01*
X113728657Y-103917592D01*
X114076371Y-103570485D01*
X114264785Y-103116734D01*
X114265214Y-102625421D01*
X114077592Y-102171343D01*
X113730485Y-101823629D01*
X113276734Y-101635215D01*
X112994970Y-101634969D01*
X112995140Y-101439662D01*
X113344802Y-101090000D01*
X120335198Y-101090000D01*
X122652599Y-103407401D01*
X122899160Y-103572148D01*
X122947414Y-103581746D01*
X123190000Y-103630000D01*
X125555352Y-103630000D01*
X125755585Y-103929670D01*
X126070366Y-104140000D01*
X125755585Y-104350330D01*
X125430729Y-104836511D01*
X125316655Y-105410000D01*
X125430729Y-105983489D01*
X125755585Y-106469670D01*
X126070366Y-106680000D01*
X125755585Y-106890330D01*
X125555352Y-107190000D01*
X83994648Y-107190000D01*
X83794415Y-106890330D01*
X83479634Y-106680000D01*
X83794415Y-106469670D01*
X84119271Y-105983489D01*
X84233345Y-105410000D01*
X84119271Y-104836511D01*
X83870163Y-104463694D01*
X93615226Y-104463694D01*
X93863538Y-105064655D01*
X94322927Y-105524846D01*
X94923453Y-105774206D01*
X95573694Y-105774774D01*
X96174655Y-105526462D01*
X96634846Y-105067073D01*
X96884206Y-104466547D01*
X96884774Y-103816306D01*
X96636462Y-103215345D01*
X96177073Y-102755154D01*
X95576547Y-102505794D01*
X94926306Y-102505226D01*
X94325345Y-102753538D01*
X93865154Y-103212927D01*
X93615794Y-103813453D01*
X93615226Y-104463694D01*
X83870163Y-104463694D01*
X83794415Y-104350330D01*
X83479634Y-104140000D01*
X83794415Y-103929670D01*
X84119271Y-103443489D01*
X84233345Y-102870000D01*
X84119271Y-102296511D01*
X83794415Y-101810330D01*
X83479634Y-101600000D01*
X83794415Y-101389670D01*
X83994648Y-101090000D01*
X91440000Y-101090000D01*
X91730839Y-101032148D01*
X91977401Y-100867401D01*
X92191108Y-100653694D01*
X93615226Y-100653694D01*
X93863538Y-101254655D01*
X94322927Y-101714846D01*
X94923453Y-101964206D01*
X95573694Y-101964774D01*
X96174655Y-101716462D01*
X96634846Y-101257073D01*
X96884206Y-100656547D01*
X96884774Y-100006306D01*
X96636462Y-99405345D01*
X96177073Y-98945154D01*
X95576547Y-98695794D01*
X94926306Y-98695226D01*
X94325345Y-98943538D01*
X93865154Y-99402927D01*
X93615794Y-100003453D01*
X93615226Y-100653694D01*
X92191108Y-100653694D01*
X96834802Y-96010000D01*
X103122994Y-96010000D01*
X103451155Y-96338735D01*
X103923276Y-96534777D01*
X104434481Y-96535223D01*
X104906943Y-96340005D01*
X105268735Y-95978845D01*
X105395000Y-95674765D01*
X105395000Y-96026310D01*
X105491673Y-96259699D01*
X105670302Y-96438327D01*
X105903691Y-96535000D01*
X106394250Y-96535000D01*
X106553000Y-96376250D01*
X106553000Y-95377000D01*
X106807000Y-95377000D01*
X106807000Y-96376250D01*
X106965750Y-96535000D01*
X107456309Y-96535000D01*
X107689698Y-96438327D01*
X107868327Y-96259699D01*
X107965000Y-96026310D01*
X107965000Y-95535750D01*
X107806250Y-95377000D01*
X106807000Y-95377000D01*
X106553000Y-95377000D01*
X106533000Y-95377000D01*
X106533000Y-95123000D01*
X106553000Y-95123000D01*
X106553000Y-94123750D01*
X106807000Y-94123750D01*
X106807000Y-95123000D01*
X107806250Y-95123000D01*
X107965000Y-94964250D01*
X107965000Y-94473690D01*
X107868327Y-94240301D01*
X107689698Y-94061673D01*
X107456309Y-93965000D01*
X106965750Y-93965000D01*
X106807000Y-94123750D01*
X106553000Y-94123750D01*
X106394250Y-93965000D01*
X105903691Y-93965000D01*
X105670302Y-94061673D01*
X105491673Y-94240301D01*
X105395000Y-94473690D01*
X105395000Y-94825567D01*
X105270005Y-94523057D01*
X104908845Y-94161265D01*
X104436724Y-93965223D01*
X103925519Y-93964777D01*
X103453057Y-94159995D01*
X103122475Y-94490000D01*
X96520000Y-94490000D01*
X96229161Y-94547852D01*
X95982599Y-94712599D01*
X91125198Y-99570000D01*
X83994648Y-99570000D01*
X83794415Y-99270330D01*
X83479634Y-99060000D01*
X83794415Y-98849670D01*
X84119271Y-98363489D01*
X84233345Y-97790000D01*
X84119271Y-97216511D01*
X83794415Y-96730330D01*
X83479634Y-96520000D01*
X83794415Y-96309670D01*
X84119271Y-95823489D01*
X84182725Y-95504481D01*
X87654777Y-95504481D01*
X87849995Y-95976943D01*
X88211155Y-96338735D01*
X88683276Y-96534777D01*
X89194481Y-96535223D01*
X89666943Y-96340005D01*
X90028735Y-95978845D01*
X90155000Y-95674765D01*
X90155000Y-96026310D01*
X90251673Y-96259699D01*
X90430302Y-96438327D01*
X90663691Y-96535000D01*
X91154250Y-96535000D01*
X91313000Y-96376250D01*
X91313000Y-95377000D01*
X91567000Y-95377000D01*
X91567000Y-96376250D01*
X91725750Y-96535000D01*
X92216309Y-96535000D01*
X92449698Y-96438327D01*
X92628327Y-96259699D01*
X92725000Y-96026310D01*
X92725000Y-95535750D01*
X92566250Y-95377000D01*
X91567000Y-95377000D01*
X91313000Y-95377000D01*
X91293000Y-95377000D01*
X91293000Y-95123000D01*
X91313000Y-95123000D01*
X91313000Y-94123750D01*
X91567000Y-94123750D01*
X91567000Y-95123000D01*
X92566250Y-95123000D01*
X92725000Y-94964250D01*
X92725000Y-94473690D01*
X92628327Y-94240301D01*
X92449698Y-94061673D01*
X92216309Y-93965000D01*
X91725750Y-93965000D01*
X91567000Y-94123750D01*
X91313000Y-94123750D01*
X91154250Y-93965000D01*
X90663691Y-93965000D01*
X90430302Y-94061673D01*
X90251673Y-94240301D01*
X90155000Y-94473690D01*
X90155000Y-94825567D01*
X90030005Y-94523057D01*
X89668845Y-94161265D01*
X89196724Y-93965223D01*
X88685519Y-93964777D01*
X88213057Y-94159995D01*
X87851265Y-94521155D01*
X87655223Y-94993276D01*
X87654777Y-95504481D01*
X84182725Y-95504481D01*
X84233345Y-95250000D01*
X84119271Y-94676511D01*
X83794415Y-94190330D01*
X83479634Y-93980000D01*
X83794415Y-93769670D01*
X84119271Y-93283489D01*
X84233345Y-92710000D01*
X84119271Y-92136511D01*
X83794415Y-91650330D01*
X83479634Y-91440000D01*
X83794415Y-91229670D01*
X83994648Y-90930000D01*
X87630000Y-90930000D01*
X87920839Y-90872148D01*
X88167401Y-90707401D01*
X88677362Y-90197440D01*
X89550000Y-90197440D01*
X89785317Y-90153162D01*
X90001441Y-90014090D01*
X90146431Y-89801890D01*
X90147012Y-89799016D01*
X90680590Y-89799016D01*
X90736271Y-90029611D01*
X91219078Y-90197622D01*
X91729428Y-90168083D01*
X92063729Y-90029611D01*
X92119410Y-89799016D01*
X91400000Y-89079605D01*
X90680590Y-89799016D01*
X90147012Y-89799016D01*
X90197440Y-89550000D01*
X90197440Y-89387615D01*
X90270389Y-89563729D01*
X90500984Y-89619410D01*
X91220395Y-88900000D01*
X91579605Y-88900000D01*
X92299016Y-89619410D01*
X92529611Y-89563729D01*
X92697622Y-89080922D01*
X92668083Y-88570572D01*
X92535298Y-88250000D01*
X102842560Y-88250000D01*
X102842560Y-89550000D01*
X102886838Y-89785317D01*
X103025910Y-90001441D01*
X103238110Y-90146431D01*
X103490000Y-90197440D01*
X104790000Y-90197440D01*
X105025317Y-90153162D01*
X105241441Y-90014090D01*
X105386431Y-89801890D01*
X105387012Y-89799016D01*
X105920590Y-89799016D01*
X105976271Y-90029611D01*
X106459078Y-90197622D01*
X106969428Y-90168083D01*
X107303729Y-90029611D01*
X107359410Y-89799016D01*
X106640000Y-89079605D01*
X105920590Y-89799016D01*
X105387012Y-89799016D01*
X105437440Y-89550000D01*
X105437440Y-89387615D01*
X105510389Y-89563729D01*
X105740984Y-89619410D01*
X106460395Y-88900000D01*
X106819605Y-88900000D01*
X107539016Y-89619410D01*
X107769611Y-89563729D01*
X107937622Y-89080922D01*
X107908083Y-88570572D01*
X107769611Y-88236271D01*
X107539016Y-88180590D01*
X106819605Y-88900000D01*
X106460395Y-88900000D01*
X105740984Y-88180590D01*
X105510389Y-88236271D01*
X105437440Y-88445902D01*
X105437440Y-88250000D01*
X105393162Y-88014683D01*
X105384347Y-88000984D01*
X105920590Y-88000984D01*
X106640000Y-88720395D01*
X107359410Y-88000984D01*
X107303729Y-87770389D01*
X106820922Y-87602378D01*
X106310572Y-87631917D01*
X105976271Y-87770389D01*
X105920590Y-88000984D01*
X105384347Y-88000984D01*
X105254090Y-87798559D01*
X105041890Y-87653569D01*
X104790000Y-87602560D01*
X103490000Y-87602560D01*
X103254683Y-87646838D01*
X103038559Y-87785910D01*
X102893569Y-87998110D01*
X102842560Y-88250000D01*
X92535298Y-88250000D01*
X92529611Y-88236271D01*
X92299016Y-88180590D01*
X91579605Y-88900000D01*
X91220395Y-88900000D01*
X91206252Y-88885858D01*
X91385858Y-88706252D01*
X91400000Y-88720395D01*
X92119410Y-88000984D01*
X92063729Y-87770389D01*
X91580922Y-87602378D01*
X91253471Y-87621331D01*
X91754802Y-87120000D01*
X127955198Y-87120000D01*
X140657619Y-99822421D01*
X140556655Y-100330000D01*
X140670729Y-100903489D01*
X140995585Y-101389670D01*
X141310366Y-101600000D01*
X140995585Y-101810330D01*
X140670729Y-102296511D01*
X140556655Y-102870000D01*
X140670729Y-103443489D01*
X140995585Y-103929670D01*
X141310366Y-104140000D01*
X140995585Y-104350330D01*
X140670729Y-104836511D01*
X140556655Y-105410000D01*
X140670729Y-105983489D01*
X140995585Y-106469670D01*
X141310366Y-106680000D01*
X140995585Y-106890330D01*
X140670729Y-107376511D01*
X140556655Y-107950000D01*
X140670729Y-108523489D01*
X140995585Y-109009670D01*
X141310366Y-109220000D01*
X140995585Y-109430330D01*
X140670729Y-109916511D01*
X140556655Y-110490000D01*
X140670729Y-111063489D01*
X140995585Y-111549670D01*
X141310366Y-111760000D01*
X140995585Y-111970330D01*
X140670729Y-112456511D01*
X140556655Y-113030000D01*
X140670729Y-113603489D01*
X140995585Y-114089670D01*
X141310366Y-114300000D01*
X140995585Y-114510330D01*
X140670729Y-114996511D01*
X140556655Y-115570000D01*
X140670729Y-116143489D01*
X140995585Y-116629670D01*
X141310366Y-116840000D01*
X140995585Y-117050330D01*
X140670729Y-117536511D01*
X140556655Y-118110000D01*
X140670729Y-118683489D01*
X140995585Y-119169670D01*
X141310366Y-119380000D01*
X140995585Y-119590330D01*
X140670729Y-120076511D01*
X140556655Y-120650000D01*
X140670729Y-121223489D01*
X140995585Y-121709670D01*
X141310366Y-121920000D01*
X140995585Y-122130330D01*
X140670729Y-122616511D01*
X140556655Y-123190000D01*
X140670729Y-123763489D01*
X140995585Y-124249670D01*
X141310366Y-124460000D01*
X140995585Y-124670330D01*
X140670729Y-125156511D01*
X140556655Y-125730000D01*
X140670729Y-126303489D01*
X140995585Y-126789670D01*
X141310366Y-127000000D01*
X140995585Y-127210330D01*
X140670729Y-127696511D01*
X140556655Y-128270000D01*
X140670729Y-128843489D01*
X140995585Y-129329670D01*
X141481766Y-129654526D01*
X142055255Y-129768600D01*
X142424745Y-129768600D01*
X142998234Y-129654526D01*
X143484415Y-129329670D01*
X143809271Y-128843489D01*
X143923345Y-128270000D01*
X143809271Y-127696511D01*
X143484415Y-127210330D01*
X143169634Y-127000000D01*
X143484415Y-126789670D01*
X143809271Y-126303489D01*
X143923345Y-125730000D01*
X143809271Y-125156511D01*
X143484415Y-124670330D01*
X143169634Y-124460000D01*
X143484415Y-124249670D01*
X143809271Y-123763489D01*
X143923345Y-123190000D01*
X143809271Y-122616511D01*
X143484415Y-122130330D01*
X143169634Y-121920000D01*
X143484415Y-121709670D01*
X143809271Y-121223489D01*
X143923345Y-120650000D01*
X143809271Y-120076511D01*
X143484415Y-119590330D01*
X143169634Y-119380000D01*
X143484415Y-119169670D01*
X143809271Y-118683489D01*
X143923345Y-118110000D01*
X143809271Y-117536511D01*
X143484415Y-117050330D01*
X143169634Y-116840000D01*
X143484415Y-116629670D01*
X143809271Y-116143489D01*
X143923345Y-115570000D01*
X143809271Y-114996511D01*
X143484415Y-114510330D01*
X143169634Y-114300000D01*
X143484415Y-114089670D01*
X143809271Y-113603489D01*
X143923345Y-113030000D01*
X143809271Y-112456511D01*
X143484415Y-111970330D01*
X143169634Y-111760000D01*
X143484415Y-111549670D01*
X143809271Y-111063489D01*
X143923345Y-110490000D01*
X143809271Y-109916511D01*
X143484415Y-109430330D01*
X143169634Y-109220000D01*
X143484415Y-109009670D01*
X143809271Y-108523489D01*
X143923345Y-107950000D01*
X143809271Y-107376511D01*
X143484415Y-106890330D01*
X143169634Y-106680000D01*
X143484415Y-106469670D01*
X143809271Y-105983489D01*
X143923345Y-105410000D01*
X143809271Y-104836511D01*
X143484415Y-104350330D01*
X143169634Y-104140000D01*
X143484415Y-103929670D01*
X143809271Y-103443489D01*
X143923345Y-102870000D01*
X143809271Y-102296511D01*
X143484415Y-101810330D01*
X143169634Y-101600000D01*
X143484415Y-101389670D01*
X143809271Y-100903489D01*
X143923345Y-100330000D01*
X143809271Y-99756511D01*
X143484415Y-99270330D01*
X143169634Y-99060000D01*
X143484415Y-98849670D01*
X143809271Y-98363489D01*
X143923345Y-97790000D01*
X143809271Y-97216511D01*
X143484415Y-96730330D01*
X143174931Y-96523539D01*
X143590732Y-96152036D01*
X143844709Y-95624791D01*
X143847358Y-95609026D01*
X143726217Y-95377000D01*
X142367000Y-95377000D01*
X142367000Y-95397000D01*
X142113000Y-95397000D01*
X142113000Y-95377000D01*
X140753783Y-95377000D01*
X140632642Y-95609026D01*
X140635291Y-95624791D01*
X140889268Y-96152036D01*
X141305069Y-96523539D01*
X140995585Y-96730330D01*
X140670729Y-97216511D01*
X140592848Y-97608046D01*
X134831202Y-91846400D01*
X140576560Y-91846400D01*
X140576560Y-93573600D01*
X140620838Y-93808917D01*
X140759910Y-94025041D01*
X140972110Y-94170031D01*
X141066927Y-94189232D01*
X140889268Y-94347964D01*
X140635291Y-94875209D01*
X140632642Y-94890974D01*
X140753783Y-95123000D01*
X142113000Y-95123000D01*
X142113000Y-95103000D01*
X142367000Y-95103000D01*
X142367000Y-95123000D01*
X143726217Y-95123000D01*
X143847358Y-94890974D01*
X143844709Y-94875209D01*
X143590732Y-94347964D01*
X143415155Y-94191093D01*
X143491317Y-94176762D01*
X143707441Y-94037690D01*
X143852431Y-93825490D01*
X143903440Y-93573600D01*
X143903440Y-91846400D01*
X143859162Y-91611083D01*
X143720090Y-91394959D01*
X143507890Y-91249969D01*
X143256000Y-91198960D01*
X141224000Y-91198960D01*
X140988683Y-91243238D01*
X140772559Y-91382310D01*
X140627569Y-91594510D01*
X140576560Y-91846400D01*
X134831202Y-91846400D01*
X128807401Y-85822599D01*
X128560839Y-85657852D01*
X128270000Y-85600000D01*
X91440000Y-85600000D01*
X91197414Y-85648254D01*
X91149160Y-85657852D01*
X90902599Y-85822599D01*
X89122638Y-87602560D01*
X88250000Y-87602560D01*
X88014683Y-87646838D01*
X87798559Y-87785910D01*
X87653569Y-87998110D01*
X87602560Y-88250000D01*
X87602560Y-89122638D01*
X87315198Y-89410000D01*
X83994648Y-89410000D01*
X83794415Y-89110330D01*
X83772220Y-89095500D01*
X83925699Y-89031927D01*
X84104327Y-88853298D01*
X84201000Y-88619909D01*
X84201000Y-87915750D01*
X84042250Y-87757000D01*
X82677000Y-87757000D01*
X82677000Y-87777000D01*
X82423000Y-87777000D01*
X82423000Y-87757000D01*
X81057750Y-87757000D01*
X80899000Y-87915750D01*
X80899000Y-88619909D01*
X80995673Y-88853298D01*
X81174301Y-89031927D01*
X81327780Y-89095500D01*
X81305585Y-89110330D01*
X80980729Y-89596511D01*
X80866655Y-90170000D01*
X80720000Y-90170000D01*
X80720000Y-86640091D01*
X80899000Y-86640091D01*
X80899000Y-87344250D01*
X81057750Y-87503000D01*
X82423000Y-87503000D01*
X82423000Y-86290150D01*
X82677000Y-86290150D01*
X82677000Y-87503000D01*
X84042250Y-87503000D01*
X84201000Y-87344250D01*
X84201000Y-86640091D01*
X84104327Y-86406702D01*
X83925699Y-86228073D01*
X83692310Y-86131400D01*
X82835750Y-86131400D01*
X82677000Y-86290150D01*
X82423000Y-86290150D01*
X82264250Y-86131400D01*
X81407690Y-86131400D01*
X81174301Y-86228073D01*
X80995673Y-86406702D01*
X80899000Y-86640091D01*
X80720000Y-86640091D01*
X80720000Y-84530000D01*
X144070000Y-84530000D01*
X144070000Y-135180000D01*
M02*
