G04 #@! TF.FileFunction,Legend,Bot*
%FSLAX46Y46*%
G04 Gerber Fmt 4.6, Leading zero omitted, Abs format (unit mm)*
G04 Created by KiCad (PCBNEW 4.0.3+e1-6302~38~ubuntu16.04.1-stable) date Fri Aug 26 17:17:46 2016*
%MOMM*%
%LPD*%
G01*
G04 APERTURE LIST*
%ADD10C,0.100000*%
%ADD11C,0.300000*%
G04 APERTURE END LIST*
D10*
D11*
X90998570Y-111168571D02*
X90998570Y-109668571D01*
X90641427Y-109668571D01*
X90427142Y-109740000D01*
X90284284Y-109882857D01*
X90212856Y-110025714D01*
X90141427Y-110311429D01*
X90141427Y-110525714D01*
X90212856Y-110811429D01*
X90284284Y-110954286D01*
X90427142Y-111097143D01*
X90641427Y-111168571D01*
X90998570Y-111168571D01*
X88998570Y-110382857D02*
X88784284Y-110454286D01*
X88712856Y-110525714D01*
X88641427Y-110668571D01*
X88641427Y-110882857D01*
X88712856Y-111025714D01*
X88784284Y-111097143D01*
X88927142Y-111168571D01*
X89498570Y-111168571D01*
X89498570Y-109668571D01*
X88998570Y-109668571D01*
X88855713Y-109740000D01*
X88784284Y-109811429D01*
X88712856Y-109954286D01*
X88712856Y-110097143D01*
X88784284Y-110240000D01*
X88855713Y-110311429D01*
X88998570Y-110382857D01*
X89498570Y-110382857D01*
X88355713Y-111311429D02*
X87212856Y-111311429D01*
X86855713Y-111168571D02*
X86855713Y-109668571D01*
X86284285Y-109668571D01*
X86141427Y-109740000D01*
X86069999Y-109811429D01*
X85998570Y-109954286D01*
X85998570Y-110168571D01*
X86069999Y-110311429D01*
X86141427Y-110382857D01*
X86284285Y-110454286D01*
X86855713Y-110454286D01*
X84712856Y-110168571D02*
X84712856Y-111168571D01*
X85355713Y-110168571D02*
X85355713Y-110954286D01*
X85284285Y-111097143D01*
X85141427Y-111168571D01*
X84927142Y-111168571D01*
X84784285Y-111097143D01*
X84712856Y-111025714D01*
X83784284Y-111168571D02*
X83927142Y-111097143D01*
X83998570Y-110954286D01*
X83998570Y-109668571D01*
X83284285Y-111097143D02*
X83141428Y-111168571D01*
X82855713Y-111168571D01*
X82712856Y-111097143D01*
X82641428Y-110954286D01*
X82641428Y-110882857D01*
X82712856Y-110740000D01*
X82855713Y-110668571D01*
X83069999Y-110668571D01*
X83212856Y-110597143D01*
X83284285Y-110454286D01*
X83284285Y-110382857D01*
X83212856Y-110240000D01*
X83069999Y-110168571D01*
X82855713Y-110168571D01*
X82712856Y-110240000D01*
X81427142Y-111097143D02*
X81569999Y-111168571D01*
X81855713Y-111168571D01*
X81998570Y-111097143D01*
X82069999Y-110954286D01*
X82069999Y-110382857D01*
X81998570Y-110240000D01*
X81855713Y-110168571D01*
X81569999Y-110168571D01*
X81427142Y-110240000D01*
X81355713Y-110382857D01*
X81355713Y-110525714D01*
X82069999Y-110668571D01*
X80712856Y-111168571D02*
X80712856Y-110168571D01*
X80712856Y-110454286D02*
X80641428Y-110311429D01*
X80569999Y-110240000D01*
X80427142Y-110168571D01*
X80284285Y-110168571D01*
X80141428Y-111311429D02*
X78998571Y-111311429D01*
X78855714Y-109668571D02*
X78355714Y-111168571D01*
X77855714Y-109668571D01*
X77427143Y-109811429D02*
X77355714Y-109740000D01*
X77212857Y-109668571D01*
X76855714Y-109668571D01*
X76712857Y-109740000D01*
X76641428Y-109811429D01*
X76570000Y-109954286D01*
X76570000Y-110097143D01*
X76641428Y-110311429D01*
X77498571Y-111168571D01*
X76570000Y-111168571D01*
M02*
