M48
;DRILL file {KiCad 4.0.3+e1-6302~38~ubuntu16.04.1-stable} date Fri Aug 26 17:17:48 2016
;FORMAT={-:-/ absolute / inch / decimal}
FMAT,2
INCH,TZ
T1C0.031
T2C0.040
%
G90
G05
M72
T1
X3.25Y-4.9
X3.3878Y-4.9
T2
X2.4Y-3.5
X2.4Y-3.6
X2.4Y-3.7
X2.4Y-3.8
X2.4Y-3.9
X2.4Y-4.
X2.4Y-4.1
X2.4Y-4.2
X2.4Y-4.3
X2.4Y-4.4
X2.4Y-4.5
X2.4Y-4.6
X2.4Y-4.7
X2.4Y-4.8
X2.4Y-4.9
X2.4Y-5.
X2.4Y-5.1
X2.4Y-5.2
X2.4Y-5.3
X2.55Y-5.3
X2.6Y-3.45
X2.65Y-5.3
X2.7Y-3.45
X2.75Y-5.3
X2.85Y-5.3
X2.95Y-5.3
X3.05Y-5.3
X3.15Y-5.3
X3.25Y-5.3
X3.45Y-3.45
X3.45Y-5.3
X3.55Y-3.45
X3.55Y-5.3
X4.15Y-3.5
X4.15Y-3.6
X4.15Y-3.7
X4.15Y-3.8
X4.15Y-3.9
X4.15Y-4.
X4.15Y-4.1
X4.15Y-4.2
X4.15Y-4.3
X4.15Y-4.4
X4.15Y-4.5
X4.15Y-4.6
X4.15Y-4.7
X4.15Y-4.8
X4.15Y-4.9
X4.15Y-5.
X4.15Y-5.1
X4.15Y-5.2
X4.15Y-5.3
T0
M30
