G04 #@! TF.FileFunction,Copper,L1,Top,Signal*
%FSLAX46Y46*%
G04 Gerber Fmt 4.6, Leading zero omitted, Abs format (unit mm)*
G04 Created by KiCad (PCBNEW 4.0.3+e1-6302~38~ubuntu16.04.1-stable) date Fri Aug 26 17:17:46 2016*
%MOMM*%
%LPD*%
G01*
G04 APERTURE LIST*
%ADD10C,0.100000*%
%ADD11R,2.032000X1.727200*%
%ADD12O,2.032000X1.727200*%
%ADD13R,2.032000X2.032000*%
%ADD14O,2.032000X2.032000*%
%ADD15R,1.727200X2.032000*%
%ADD16O,1.727200X2.032000*%
%ADD17R,1.270000X5.080000*%
%ADD18R,1.016000X5.080000*%
%ADD19C,1.300000*%
%ADD20R,1.300000X1.300000*%
%ADD21C,0.250000*%
%ADD22C,0.254000*%
G04 APERTURE END LIST*
D10*
D11*
X60960000Y-88900000D03*
D12*
X60960000Y-91440000D03*
X60960000Y-93980000D03*
X60960000Y-96520000D03*
X60960000Y-99060000D03*
X60960000Y-101600000D03*
X60960000Y-104140000D03*
X60960000Y-106680000D03*
X60960000Y-109220000D03*
X60960000Y-111760000D03*
X60960000Y-114300000D03*
X60960000Y-116840000D03*
X60960000Y-119380000D03*
X60960000Y-121920000D03*
X60960000Y-124460000D03*
X60960000Y-127000000D03*
X60960000Y-129540000D03*
X60960000Y-132080000D03*
X60960000Y-134620000D03*
D13*
X87630000Y-134620000D03*
D14*
X90170000Y-134620000D03*
D15*
X64770000Y-134620000D03*
D16*
X67310000Y-134620000D03*
X69850000Y-134620000D03*
X72390000Y-134620000D03*
X74930000Y-134620000D03*
X77470000Y-134620000D03*
X80010000Y-134620000D03*
X82550000Y-134620000D03*
D17*
X93345000Y-134620000D03*
X102235000Y-134620000D03*
D18*
X97790000Y-134620000D03*
D13*
X68580000Y-87630000D03*
D14*
X66040000Y-87630000D03*
D13*
X90170000Y-87630000D03*
D14*
X87630000Y-87630000D03*
D17*
X102235000Y-87630000D03*
X93345000Y-87630000D03*
D18*
X97790000Y-87630000D03*
D17*
X80645000Y-87630000D03*
X71755000Y-87630000D03*
D18*
X76200000Y-87630000D03*
D11*
X105410000Y-88900000D03*
D12*
X105410000Y-91440000D03*
X105410000Y-93980000D03*
X105410000Y-96520000D03*
X105410000Y-99060000D03*
X105410000Y-101600000D03*
X105410000Y-104140000D03*
X105410000Y-106680000D03*
X105410000Y-109220000D03*
X105410000Y-111760000D03*
X105410000Y-114300000D03*
X105410000Y-116840000D03*
X105410000Y-119380000D03*
X105410000Y-121920000D03*
X105410000Y-124460000D03*
X105410000Y-127000000D03*
X105410000Y-129540000D03*
X105410000Y-132080000D03*
X105410000Y-134620000D03*
D19*
X86050000Y-124460000D03*
D20*
X82550000Y-124460000D03*
D21*
X60960000Y-91440000D02*
X71120000Y-101600000D01*
X71120000Y-101600000D02*
X71120000Y-123190000D01*
X71120000Y-123190000D02*
X80010000Y-132080000D01*
X60960000Y-101600000D02*
X68580000Y-109220000D01*
X68580000Y-109220000D02*
X68580000Y-123190000D01*
X68580000Y-123190000D02*
X77470000Y-132080000D01*
X60960000Y-106680000D02*
X64770000Y-110490000D01*
X64770000Y-110490000D02*
X66040000Y-111760000D01*
X72390000Y-132080000D02*
X72390000Y-134620000D01*
X63500000Y-123190000D02*
X72390000Y-132080000D01*
X66040000Y-111760000D02*
X66040000Y-123190000D01*
X63500000Y-111760000D02*
X63500000Y-123190000D01*
X74930000Y-132080000D02*
X74930000Y-134620000D01*
X66040000Y-123190000D02*
X74930000Y-132080000D01*
X60960000Y-109220000D02*
X63500000Y-111760000D01*
X88900000Y-130810000D02*
X88900000Y-127310000D01*
X88900000Y-127310000D02*
X86050000Y-124460000D01*
X77470000Y-132080000D02*
X77470000Y-134620000D01*
X87630000Y-134620000D02*
X87630000Y-132080000D01*
X96520000Y-130810000D02*
X97790000Y-132080000D01*
X88900000Y-130810000D02*
X96520000Y-130810000D01*
X87630000Y-132080000D02*
X88900000Y-130810000D01*
X97790000Y-132080000D02*
X97790000Y-134620000D01*
X80010000Y-132080000D02*
X80010000Y-134620000D01*
X96520000Y-91440000D02*
X97790000Y-90170000D01*
X92710000Y-91440000D02*
X96520000Y-91440000D01*
X76200000Y-90170000D02*
X77470000Y-91440000D01*
X77470000Y-91440000D02*
X87630000Y-91440000D01*
X71120000Y-91440000D02*
X74930000Y-91440000D01*
X74930000Y-91440000D02*
X76200000Y-90170000D01*
X90170000Y-87630000D02*
X90170000Y-88900000D01*
X90170000Y-88900000D02*
X92710000Y-91440000D01*
X97790000Y-90170000D02*
X97790000Y-87630000D01*
X76200000Y-87630000D02*
X76200000Y-90170000D01*
X87630000Y-91440000D02*
X90170000Y-88900000D01*
X68580000Y-87630000D02*
X68580000Y-88900000D01*
X68580000Y-88900000D02*
X71120000Y-91440000D01*
D22*
G36*
X70485000Y-87344250D02*
X70643750Y-87503000D01*
X71628000Y-87503000D01*
X71628000Y-87483000D01*
X71882000Y-87483000D01*
X71882000Y-87503000D01*
X72866250Y-87503000D01*
X73025000Y-87344250D01*
X73025000Y-85800000D01*
X75044560Y-85800000D01*
X75044560Y-90170000D01*
X75057330Y-90237868D01*
X74615198Y-90680000D01*
X72778025Y-90680000D01*
X72928327Y-90529699D01*
X73025000Y-90296310D01*
X73025000Y-87915750D01*
X72866250Y-87757000D01*
X71882000Y-87757000D01*
X71882000Y-87777000D01*
X71628000Y-87777000D01*
X71628000Y-87757000D01*
X70643750Y-87757000D01*
X70485000Y-87915750D01*
X70485000Y-89730198D01*
X69936366Y-89181564D01*
X70047441Y-89110090D01*
X70192431Y-88897890D01*
X70243440Y-88646000D01*
X70243440Y-86614000D01*
X70199162Y-86378683D01*
X70060090Y-86162559D01*
X69847890Y-86017569D01*
X69596000Y-85966560D01*
X67564000Y-85966560D01*
X67328683Y-86010838D01*
X67112559Y-86149910D01*
X67012144Y-86296872D01*
X67008379Y-86292812D01*
X66422946Y-86024017D01*
X66167000Y-86142633D01*
X66167000Y-87503000D01*
X66187000Y-87503000D01*
X66187000Y-87757000D01*
X66167000Y-87757000D01*
X66167000Y-89117367D01*
X66422946Y-89235983D01*
X67008379Y-88967188D01*
X67012934Y-88962276D01*
X67099910Y-89097441D01*
X67312110Y-89242431D01*
X67564000Y-89293440D01*
X67946408Y-89293440D01*
X68042599Y-89437401D01*
X70582599Y-91977401D01*
X70829160Y-92142148D01*
X70877414Y-92151746D01*
X71120000Y-92200000D01*
X74930000Y-92200000D01*
X75220839Y-92142148D01*
X75467401Y-91977401D01*
X76200000Y-91244802D01*
X76932599Y-91977401D01*
X77179160Y-92142148D01*
X77470000Y-92200000D01*
X87630000Y-92200000D01*
X87920839Y-92142148D01*
X88167401Y-91977401D01*
X90170000Y-89974802D01*
X92172599Y-91977401D01*
X92419160Y-92142148D01*
X92467414Y-92151746D01*
X92710000Y-92200000D01*
X96520000Y-92200000D01*
X96810839Y-92142148D01*
X97057401Y-91977401D01*
X97594802Y-91440000D01*
X103726655Y-91440000D01*
X103840729Y-92013489D01*
X104165585Y-92499670D01*
X104480366Y-92710000D01*
X104165585Y-92920330D01*
X103840729Y-93406511D01*
X103726655Y-93980000D01*
X103840729Y-94553489D01*
X104165585Y-95039670D01*
X104480366Y-95250000D01*
X104165585Y-95460330D01*
X103840729Y-95946511D01*
X103726655Y-96520000D01*
X103840729Y-97093489D01*
X104165585Y-97579670D01*
X104480366Y-97790000D01*
X104165585Y-98000330D01*
X103840729Y-98486511D01*
X103726655Y-99060000D01*
X103840729Y-99633489D01*
X104165585Y-100119670D01*
X104480366Y-100330000D01*
X104165585Y-100540330D01*
X103840729Y-101026511D01*
X103726655Y-101600000D01*
X103840729Y-102173489D01*
X104165585Y-102659670D01*
X104480366Y-102870000D01*
X104165585Y-103080330D01*
X103840729Y-103566511D01*
X103726655Y-104140000D01*
X103840729Y-104713489D01*
X104165585Y-105199670D01*
X104480366Y-105410000D01*
X104165585Y-105620330D01*
X103840729Y-106106511D01*
X103726655Y-106680000D01*
X103840729Y-107253489D01*
X104165585Y-107739670D01*
X104480366Y-107950000D01*
X104165585Y-108160330D01*
X103840729Y-108646511D01*
X103726655Y-109220000D01*
X103840729Y-109793489D01*
X104165585Y-110279670D01*
X104480366Y-110490000D01*
X104165585Y-110700330D01*
X103840729Y-111186511D01*
X103726655Y-111760000D01*
X103840729Y-112333489D01*
X104165585Y-112819670D01*
X104480366Y-113030000D01*
X104165585Y-113240330D01*
X103840729Y-113726511D01*
X103726655Y-114300000D01*
X103840729Y-114873489D01*
X104165585Y-115359670D01*
X104480366Y-115570000D01*
X104165585Y-115780330D01*
X103840729Y-116266511D01*
X103726655Y-116840000D01*
X103840729Y-117413489D01*
X104165585Y-117899670D01*
X104480366Y-118110000D01*
X104165585Y-118320330D01*
X103840729Y-118806511D01*
X103726655Y-119380000D01*
X103840729Y-119953489D01*
X104165585Y-120439670D01*
X104480366Y-120650000D01*
X104165585Y-120860330D01*
X103840729Y-121346511D01*
X103726655Y-121920000D01*
X103840729Y-122493489D01*
X104165585Y-122979670D01*
X104480366Y-123190000D01*
X104165585Y-123400330D01*
X103840729Y-123886511D01*
X103726655Y-124460000D01*
X103840729Y-125033489D01*
X104165585Y-125519670D01*
X104480366Y-125730000D01*
X104165585Y-125940330D01*
X103840729Y-126426511D01*
X103726655Y-127000000D01*
X103840729Y-127573489D01*
X104165585Y-128059670D01*
X104480366Y-128270000D01*
X104165585Y-128480330D01*
X103840729Y-128966511D01*
X103726655Y-129540000D01*
X103840729Y-130113489D01*
X104165585Y-130599670D01*
X104480366Y-130810000D01*
X104165585Y-131020330D01*
X103840729Y-131506511D01*
X103726655Y-132080000D01*
X103840729Y-132653489D01*
X104165585Y-133139670D01*
X104480366Y-133350000D01*
X104165585Y-133560330D01*
X103840729Y-134046511D01*
X103726655Y-134620000D01*
X103840729Y-135193489D01*
X104165585Y-135679670D01*
X104651766Y-136004526D01*
X105225255Y-136118600D01*
X105594745Y-136118600D01*
X106168234Y-136004526D01*
X106654415Y-135679670D01*
X106979271Y-135193489D01*
X107093345Y-134620000D01*
X106979271Y-134046511D01*
X106654415Y-133560330D01*
X106339634Y-133350000D01*
X106654415Y-133139670D01*
X106979271Y-132653489D01*
X107093345Y-132080000D01*
X106979271Y-131506511D01*
X106654415Y-131020330D01*
X106339634Y-130810000D01*
X106654415Y-130599670D01*
X106979271Y-130113489D01*
X107093345Y-129540000D01*
X106979271Y-128966511D01*
X106654415Y-128480330D01*
X106339634Y-128270000D01*
X106654415Y-128059670D01*
X106979271Y-127573489D01*
X107093345Y-127000000D01*
X106979271Y-126426511D01*
X106654415Y-125940330D01*
X106339634Y-125730000D01*
X106654415Y-125519670D01*
X106979271Y-125033489D01*
X107093345Y-124460000D01*
X106979271Y-123886511D01*
X106654415Y-123400330D01*
X106339634Y-123190000D01*
X106654415Y-122979670D01*
X106979271Y-122493489D01*
X107093345Y-121920000D01*
X106979271Y-121346511D01*
X106654415Y-120860330D01*
X106339634Y-120650000D01*
X106654415Y-120439670D01*
X106979271Y-119953489D01*
X107093345Y-119380000D01*
X106979271Y-118806511D01*
X106654415Y-118320330D01*
X106339634Y-118110000D01*
X106654415Y-117899670D01*
X106979271Y-117413489D01*
X107093345Y-116840000D01*
X106979271Y-116266511D01*
X106654415Y-115780330D01*
X106339634Y-115570000D01*
X106654415Y-115359670D01*
X106979271Y-114873489D01*
X107093345Y-114300000D01*
X106979271Y-113726511D01*
X106654415Y-113240330D01*
X106339634Y-113030000D01*
X106654415Y-112819670D01*
X106979271Y-112333489D01*
X107093345Y-111760000D01*
X106979271Y-111186511D01*
X106654415Y-110700330D01*
X106339634Y-110490000D01*
X106654415Y-110279670D01*
X106979271Y-109793489D01*
X107093345Y-109220000D01*
X106979271Y-108646511D01*
X106654415Y-108160330D01*
X106339634Y-107950000D01*
X106654415Y-107739670D01*
X106979271Y-107253489D01*
X107093345Y-106680000D01*
X106979271Y-106106511D01*
X106654415Y-105620330D01*
X106339634Y-105410000D01*
X106654415Y-105199670D01*
X106979271Y-104713489D01*
X107093345Y-104140000D01*
X106979271Y-103566511D01*
X106654415Y-103080330D01*
X106339634Y-102870000D01*
X106654415Y-102659670D01*
X106979271Y-102173489D01*
X107093345Y-101600000D01*
X106979271Y-101026511D01*
X106654415Y-100540330D01*
X106339634Y-100330000D01*
X106654415Y-100119670D01*
X106979271Y-99633489D01*
X107093345Y-99060000D01*
X106979271Y-98486511D01*
X106654415Y-98000330D01*
X106339634Y-97790000D01*
X106654415Y-97579670D01*
X106979271Y-97093489D01*
X107093345Y-96520000D01*
X106979271Y-95946511D01*
X106654415Y-95460330D01*
X106339634Y-95250000D01*
X106654415Y-95039670D01*
X106979271Y-94553489D01*
X107093345Y-93980000D01*
X106979271Y-93406511D01*
X106654415Y-92920330D01*
X106339634Y-92710000D01*
X106654415Y-92499670D01*
X106979271Y-92013489D01*
X107093345Y-91440000D01*
X106979271Y-90866511D01*
X106654415Y-90380330D01*
X106632220Y-90365500D01*
X106785699Y-90301927D01*
X106964327Y-90123298D01*
X107061000Y-89889909D01*
X107061000Y-89185750D01*
X106902250Y-89027000D01*
X105537000Y-89027000D01*
X105537000Y-89047000D01*
X105283000Y-89047000D01*
X105283000Y-89027000D01*
X103917750Y-89027000D01*
X103759000Y-89185750D01*
X103759000Y-89889909D01*
X103855673Y-90123298D01*
X104034301Y-90301927D01*
X104187780Y-90365500D01*
X104165585Y-90380330D01*
X103840729Y-90866511D01*
X103726655Y-91440000D01*
X97594802Y-91440000D01*
X98217362Y-90817440D01*
X98298000Y-90817440D01*
X98533317Y-90773162D01*
X98749441Y-90634090D01*
X98894431Y-90421890D01*
X98945440Y-90170000D01*
X98945440Y-87915750D01*
X100965000Y-87915750D01*
X100965000Y-90296310D01*
X101061673Y-90529699D01*
X101240302Y-90708327D01*
X101473691Y-90805000D01*
X101949250Y-90805000D01*
X102108000Y-90646250D01*
X102108000Y-87757000D01*
X102362000Y-87757000D01*
X102362000Y-90646250D01*
X102520750Y-90805000D01*
X102996309Y-90805000D01*
X103229698Y-90708327D01*
X103408327Y-90529699D01*
X103505000Y-90296310D01*
X103505000Y-87915750D01*
X103499341Y-87910091D01*
X103759000Y-87910091D01*
X103759000Y-88614250D01*
X103917750Y-88773000D01*
X105283000Y-88773000D01*
X105283000Y-87560150D01*
X105537000Y-87560150D01*
X105537000Y-88773000D01*
X106902250Y-88773000D01*
X107061000Y-88614250D01*
X107061000Y-87910091D01*
X106964327Y-87676702D01*
X106785699Y-87498073D01*
X106552310Y-87401400D01*
X105695750Y-87401400D01*
X105537000Y-87560150D01*
X105283000Y-87560150D01*
X105124250Y-87401400D01*
X104267690Y-87401400D01*
X104034301Y-87498073D01*
X103855673Y-87676702D01*
X103759000Y-87910091D01*
X103499341Y-87910091D01*
X103346250Y-87757000D01*
X102362000Y-87757000D01*
X102108000Y-87757000D01*
X101123750Y-87757000D01*
X100965000Y-87915750D01*
X98945440Y-87915750D01*
X98945440Y-85800000D01*
X100965000Y-85800000D01*
X100965000Y-87344250D01*
X101123750Y-87503000D01*
X102108000Y-87503000D01*
X102108000Y-87483000D01*
X102362000Y-87483000D01*
X102362000Y-87503000D01*
X103346250Y-87503000D01*
X103505000Y-87344250D01*
X103505000Y-85800000D01*
X107240000Y-85800000D01*
X107240000Y-136450000D01*
X103505000Y-136450000D01*
X103505000Y-134905750D01*
X103346250Y-134747000D01*
X102362000Y-134747000D01*
X102362000Y-134767000D01*
X102108000Y-134767000D01*
X102108000Y-134747000D01*
X101123750Y-134747000D01*
X100965000Y-134905750D01*
X100965000Y-136450000D01*
X98945440Y-136450000D01*
X98945440Y-132080000D01*
X98921674Y-131953690D01*
X100965000Y-131953690D01*
X100965000Y-134334250D01*
X101123750Y-134493000D01*
X102108000Y-134493000D01*
X102108000Y-131603750D01*
X102362000Y-131603750D01*
X102362000Y-134493000D01*
X103346250Y-134493000D01*
X103505000Y-134334250D01*
X103505000Y-131953690D01*
X103408327Y-131720301D01*
X103229698Y-131541673D01*
X102996309Y-131445000D01*
X102520750Y-131445000D01*
X102362000Y-131603750D01*
X102108000Y-131603750D01*
X101949250Y-131445000D01*
X101473691Y-131445000D01*
X101240302Y-131541673D01*
X101061673Y-131720301D01*
X100965000Y-131953690D01*
X98921674Y-131953690D01*
X98901162Y-131844683D01*
X98762090Y-131628559D01*
X98549890Y-131483569D01*
X98298000Y-131432560D01*
X98217362Y-131432560D01*
X97057401Y-130272599D01*
X96810839Y-130107852D01*
X96520000Y-130050000D01*
X89660000Y-130050000D01*
X89660000Y-127310000D01*
X89602148Y-127019161D01*
X89437401Y-126772599D01*
X87334818Y-124670016D01*
X87335223Y-124205519D01*
X87140005Y-123733057D01*
X86778845Y-123371265D01*
X86306724Y-123175223D01*
X85795519Y-123174777D01*
X85323057Y-123369995D01*
X84961265Y-123731155D01*
X84765223Y-124203276D01*
X84764777Y-124714481D01*
X84959995Y-125186943D01*
X85321155Y-125548735D01*
X85793276Y-125744777D01*
X86260383Y-125745185D01*
X88140000Y-127624802D01*
X88140000Y-130495198D01*
X87092599Y-131542599D01*
X86927852Y-131789161D01*
X86870000Y-132080000D01*
X86870000Y-132956560D01*
X86614000Y-132956560D01*
X86378683Y-133000838D01*
X86162559Y-133139910D01*
X86017569Y-133352110D01*
X85966560Y-133604000D01*
X85966560Y-135636000D01*
X86010838Y-135871317D01*
X86149910Y-136087441D01*
X86362110Y-136232431D01*
X86614000Y-136283440D01*
X88646000Y-136283440D01*
X88881317Y-136239162D01*
X89097441Y-136100090D01*
X89197856Y-135953128D01*
X89201621Y-135957188D01*
X89787054Y-136225983D01*
X90043000Y-136107367D01*
X90043000Y-134747000D01*
X90297000Y-134747000D01*
X90297000Y-136107367D01*
X90552946Y-136225983D01*
X91138379Y-135957188D01*
X91576385Y-135484818D01*
X91775975Y-135002944D01*
X91656836Y-134747000D01*
X90297000Y-134747000D01*
X90043000Y-134747000D01*
X90023000Y-134747000D01*
X90023000Y-134493000D01*
X90043000Y-134493000D01*
X90043000Y-133132633D01*
X90297000Y-133132633D01*
X90297000Y-134493000D01*
X91656836Y-134493000D01*
X91775975Y-134237056D01*
X91576385Y-133755182D01*
X91138379Y-133282812D01*
X90552946Y-133014017D01*
X90297000Y-133132633D01*
X90043000Y-133132633D01*
X89787054Y-133014017D01*
X89201621Y-133282812D01*
X89197066Y-133287724D01*
X89110090Y-133152559D01*
X88897890Y-133007569D01*
X88646000Y-132956560D01*
X88390000Y-132956560D01*
X88390000Y-132394802D01*
X89214802Y-131570000D01*
X92321975Y-131570000D01*
X92171673Y-131720301D01*
X92075000Y-131953690D01*
X92075000Y-134334250D01*
X92233750Y-134493000D01*
X93218000Y-134493000D01*
X93218000Y-134473000D01*
X93472000Y-134473000D01*
X93472000Y-134493000D01*
X94456250Y-134493000D01*
X94615000Y-134334250D01*
X94615000Y-131953690D01*
X94518327Y-131720301D01*
X94368025Y-131570000D01*
X96205198Y-131570000D01*
X96648140Y-132012942D01*
X96634560Y-132080000D01*
X96634560Y-136450000D01*
X94615000Y-136450000D01*
X94615000Y-134905750D01*
X94456250Y-134747000D01*
X93472000Y-134747000D01*
X93472000Y-134767000D01*
X93218000Y-134767000D01*
X93218000Y-134747000D01*
X92233750Y-134747000D01*
X92075000Y-134905750D01*
X92075000Y-136450000D01*
X59130000Y-136450000D01*
X59130000Y-91440000D01*
X59276655Y-91440000D01*
X59390729Y-92013489D01*
X59715585Y-92499670D01*
X60030366Y-92710000D01*
X59715585Y-92920330D01*
X59390729Y-93406511D01*
X59276655Y-93980000D01*
X59390729Y-94553489D01*
X59715585Y-95039670D01*
X60030366Y-95250000D01*
X59715585Y-95460330D01*
X59390729Y-95946511D01*
X59276655Y-96520000D01*
X59390729Y-97093489D01*
X59715585Y-97579670D01*
X60030366Y-97790000D01*
X59715585Y-98000330D01*
X59390729Y-98486511D01*
X59276655Y-99060000D01*
X59390729Y-99633489D01*
X59715585Y-100119670D01*
X60030366Y-100330000D01*
X59715585Y-100540330D01*
X59390729Y-101026511D01*
X59276655Y-101600000D01*
X59390729Y-102173489D01*
X59715585Y-102659670D01*
X60030366Y-102870000D01*
X59715585Y-103080330D01*
X59390729Y-103566511D01*
X59276655Y-104140000D01*
X59390729Y-104713489D01*
X59715585Y-105199670D01*
X60030366Y-105410000D01*
X59715585Y-105620330D01*
X59390729Y-106106511D01*
X59276655Y-106680000D01*
X59390729Y-107253489D01*
X59715585Y-107739670D01*
X60030366Y-107950000D01*
X59715585Y-108160330D01*
X59390729Y-108646511D01*
X59276655Y-109220000D01*
X59390729Y-109793489D01*
X59715585Y-110279670D01*
X60030366Y-110490000D01*
X59715585Y-110700330D01*
X59390729Y-111186511D01*
X59276655Y-111760000D01*
X59390729Y-112333489D01*
X59715585Y-112819670D01*
X60030366Y-113030000D01*
X59715585Y-113240330D01*
X59390729Y-113726511D01*
X59276655Y-114300000D01*
X59390729Y-114873489D01*
X59715585Y-115359670D01*
X60030366Y-115570000D01*
X59715585Y-115780330D01*
X59390729Y-116266511D01*
X59276655Y-116840000D01*
X59390729Y-117413489D01*
X59715585Y-117899670D01*
X60030366Y-118110000D01*
X59715585Y-118320330D01*
X59390729Y-118806511D01*
X59276655Y-119380000D01*
X59390729Y-119953489D01*
X59715585Y-120439670D01*
X60030366Y-120650000D01*
X59715585Y-120860330D01*
X59390729Y-121346511D01*
X59276655Y-121920000D01*
X59390729Y-122493489D01*
X59715585Y-122979670D01*
X60030366Y-123190000D01*
X59715585Y-123400330D01*
X59390729Y-123886511D01*
X59276655Y-124460000D01*
X59390729Y-125033489D01*
X59715585Y-125519670D01*
X60030366Y-125730000D01*
X59715585Y-125940330D01*
X59390729Y-126426511D01*
X59276655Y-127000000D01*
X59390729Y-127573489D01*
X59715585Y-128059670D01*
X60030366Y-128270000D01*
X59715585Y-128480330D01*
X59390729Y-128966511D01*
X59276655Y-129540000D01*
X59390729Y-130113489D01*
X59715585Y-130599670D01*
X60030366Y-130810000D01*
X59715585Y-131020330D01*
X59390729Y-131506511D01*
X59276655Y-132080000D01*
X59390729Y-132653489D01*
X59715585Y-133139670D01*
X60030366Y-133350000D01*
X59715585Y-133560330D01*
X59390729Y-134046511D01*
X59276655Y-134620000D01*
X59390729Y-135193489D01*
X59715585Y-135679670D01*
X60201766Y-136004526D01*
X60775255Y-136118600D01*
X61144745Y-136118600D01*
X61718234Y-136004526D01*
X62204415Y-135679670D01*
X62529271Y-135193489D01*
X62586505Y-134905750D01*
X63271400Y-134905750D01*
X63271400Y-135762310D01*
X63368073Y-135995699D01*
X63546702Y-136174327D01*
X63780091Y-136271000D01*
X64484250Y-136271000D01*
X64643000Y-136112250D01*
X64643000Y-134747000D01*
X63430150Y-134747000D01*
X63271400Y-134905750D01*
X62586505Y-134905750D01*
X62643345Y-134620000D01*
X62529271Y-134046511D01*
X62204415Y-133560330D01*
X62080736Y-133477690D01*
X63271400Y-133477690D01*
X63271400Y-134334250D01*
X63430150Y-134493000D01*
X64643000Y-134493000D01*
X64643000Y-133127750D01*
X64484250Y-132969000D01*
X63780091Y-132969000D01*
X63546702Y-133065673D01*
X63368073Y-133244301D01*
X63271400Y-133477690D01*
X62080736Y-133477690D01*
X61889634Y-133350000D01*
X62204415Y-133139670D01*
X62529271Y-132653489D01*
X62643345Y-132080000D01*
X62529271Y-131506511D01*
X62204415Y-131020330D01*
X61889634Y-130810000D01*
X62204415Y-130599670D01*
X62529271Y-130113489D01*
X62643345Y-129540000D01*
X62529271Y-128966511D01*
X62204415Y-128480330D01*
X61889634Y-128270000D01*
X62204415Y-128059670D01*
X62529271Y-127573489D01*
X62643345Y-127000000D01*
X62529271Y-126426511D01*
X62204415Y-125940330D01*
X61889634Y-125730000D01*
X62204415Y-125519670D01*
X62529271Y-125033489D01*
X62643345Y-124460000D01*
X62529271Y-123886511D01*
X62204415Y-123400330D01*
X61889634Y-123190000D01*
X62204415Y-122979670D01*
X62529271Y-122493489D01*
X62643345Y-121920000D01*
X62529271Y-121346511D01*
X62204415Y-120860330D01*
X61889634Y-120650000D01*
X62204415Y-120439670D01*
X62529271Y-119953489D01*
X62643345Y-119380000D01*
X62529271Y-118806511D01*
X62204415Y-118320330D01*
X61889634Y-118110000D01*
X62204415Y-117899670D01*
X62529271Y-117413489D01*
X62643345Y-116840000D01*
X62529271Y-116266511D01*
X62204415Y-115780330D01*
X61889634Y-115570000D01*
X62204415Y-115359670D01*
X62529271Y-114873489D01*
X62643345Y-114300000D01*
X62529271Y-113726511D01*
X62204415Y-113240330D01*
X61889634Y-113030000D01*
X62204415Y-112819670D01*
X62529271Y-112333489D01*
X62607152Y-111941954D01*
X62740000Y-112074802D01*
X62740000Y-123190000D01*
X62797852Y-123480839D01*
X62962599Y-123727401D01*
X71630000Y-132394802D01*
X71630000Y-133175352D01*
X71330330Y-133375585D01*
X71120000Y-133690366D01*
X70909670Y-133375585D01*
X70423489Y-133050729D01*
X69850000Y-132936655D01*
X69276511Y-133050729D01*
X68790330Y-133375585D01*
X68580000Y-133690366D01*
X68369670Y-133375585D01*
X67883489Y-133050729D01*
X67310000Y-132936655D01*
X66736511Y-133050729D01*
X66250330Y-133375585D01*
X66235500Y-133397780D01*
X66171927Y-133244301D01*
X65993298Y-133065673D01*
X65759909Y-132969000D01*
X65055750Y-132969000D01*
X64897000Y-133127750D01*
X64897000Y-134493000D01*
X64917000Y-134493000D01*
X64917000Y-134747000D01*
X64897000Y-134747000D01*
X64897000Y-136112250D01*
X65055750Y-136271000D01*
X65759909Y-136271000D01*
X65993298Y-136174327D01*
X66171927Y-135995699D01*
X66235500Y-135842220D01*
X66250330Y-135864415D01*
X66736511Y-136189271D01*
X67310000Y-136303345D01*
X67883489Y-136189271D01*
X68369670Y-135864415D01*
X68580000Y-135549634D01*
X68790330Y-135864415D01*
X69276511Y-136189271D01*
X69850000Y-136303345D01*
X70423489Y-136189271D01*
X70909670Y-135864415D01*
X71120000Y-135549634D01*
X71330330Y-135864415D01*
X71816511Y-136189271D01*
X72390000Y-136303345D01*
X72963489Y-136189271D01*
X73449670Y-135864415D01*
X73660000Y-135549634D01*
X73870330Y-135864415D01*
X74356511Y-136189271D01*
X74930000Y-136303345D01*
X75503489Y-136189271D01*
X75989670Y-135864415D01*
X76200000Y-135549634D01*
X76410330Y-135864415D01*
X76896511Y-136189271D01*
X77470000Y-136303345D01*
X78043489Y-136189271D01*
X78529670Y-135864415D01*
X78740000Y-135549634D01*
X78950330Y-135864415D01*
X79436511Y-136189271D01*
X80010000Y-136303345D01*
X80583489Y-136189271D01*
X81069670Y-135864415D01*
X81276461Y-135554931D01*
X81647964Y-135970732D01*
X82175209Y-136224709D01*
X82190974Y-136227358D01*
X82423000Y-136106217D01*
X82423000Y-134747000D01*
X82677000Y-134747000D01*
X82677000Y-136106217D01*
X82909026Y-136227358D01*
X82924791Y-136224709D01*
X83452036Y-135970732D01*
X83841954Y-135534320D01*
X84035184Y-134981913D01*
X83890924Y-134747000D01*
X82677000Y-134747000D01*
X82423000Y-134747000D01*
X82403000Y-134747000D01*
X82403000Y-134493000D01*
X82423000Y-134493000D01*
X82423000Y-133133783D01*
X82677000Y-133133783D01*
X82677000Y-134493000D01*
X83890924Y-134493000D01*
X84035184Y-134258087D01*
X83841954Y-133705680D01*
X83452036Y-133269268D01*
X82924791Y-133015291D01*
X82909026Y-133012642D01*
X82677000Y-133133783D01*
X82423000Y-133133783D01*
X82190974Y-133012642D01*
X82175209Y-133015291D01*
X81647964Y-133269268D01*
X81276461Y-133685069D01*
X81069670Y-133375585D01*
X80770000Y-133175352D01*
X80770000Y-132080000D01*
X80712148Y-131789161D01*
X80547401Y-131542599D01*
X73750552Y-124745750D01*
X81265000Y-124745750D01*
X81265000Y-125236310D01*
X81361673Y-125469699D01*
X81540302Y-125648327D01*
X81773691Y-125745000D01*
X82264250Y-125745000D01*
X82423000Y-125586250D01*
X82423000Y-124587000D01*
X82677000Y-124587000D01*
X82677000Y-125586250D01*
X82835750Y-125745000D01*
X83326309Y-125745000D01*
X83559698Y-125648327D01*
X83738327Y-125469699D01*
X83835000Y-125236310D01*
X83835000Y-124745750D01*
X83676250Y-124587000D01*
X82677000Y-124587000D01*
X82423000Y-124587000D01*
X81423750Y-124587000D01*
X81265000Y-124745750D01*
X73750552Y-124745750D01*
X72688492Y-123683690D01*
X81265000Y-123683690D01*
X81265000Y-124174250D01*
X81423750Y-124333000D01*
X82423000Y-124333000D01*
X82423000Y-123333750D01*
X82677000Y-123333750D01*
X82677000Y-124333000D01*
X83676250Y-124333000D01*
X83835000Y-124174250D01*
X83835000Y-123683690D01*
X83738327Y-123450301D01*
X83559698Y-123271673D01*
X83326309Y-123175000D01*
X82835750Y-123175000D01*
X82677000Y-123333750D01*
X82423000Y-123333750D01*
X82264250Y-123175000D01*
X81773691Y-123175000D01*
X81540302Y-123271673D01*
X81361673Y-123450301D01*
X81265000Y-123683690D01*
X72688492Y-123683690D01*
X71880000Y-122875198D01*
X71880000Y-101600000D01*
X71822148Y-101309161D01*
X71657401Y-101062599D01*
X62542381Y-91947579D01*
X62643345Y-91440000D01*
X62529271Y-90866511D01*
X62204415Y-90380330D01*
X62182220Y-90365500D01*
X62335699Y-90301927D01*
X62514327Y-90123298D01*
X62611000Y-89889909D01*
X62611000Y-89185750D01*
X62452250Y-89027000D01*
X61087000Y-89027000D01*
X61087000Y-89047000D01*
X60833000Y-89047000D01*
X60833000Y-89027000D01*
X59467750Y-89027000D01*
X59309000Y-89185750D01*
X59309000Y-89889909D01*
X59405673Y-90123298D01*
X59584301Y-90301927D01*
X59737780Y-90365500D01*
X59715585Y-90380330D01*
X59390729Y-90866511D01*
X59276655Y-91440000D01*
X59130000Y-91440000D01*
X59130000Y-87910091D01*
X59309000Y-87910091D01*
X59309000Y-88614250D01*
X59467750Y-88773000D01*
X60833000Y-88773000D01*
X60833000Y-87560150D01*
X61087000Y-87560150D01*
X61087000Y-88773000D01*
X62452250Y-88773000D01*
X62611000Y-88614250D01*
X62611000Y-88012944D01*
X64434025Y-88012944D01*
X64633615Y-88494818D01*
X65071621Y-88967188D01*
X65657054Y-89235983D01*
X65913000Y-89117367D01*
X65913000Y-87757000D01*
X64553164Y-87757000D01*
X64434025Y-88012944D01*
X62611000Y-88012944D01*
X62611000Y-87910091D01*
X62514327Y-87676702D01*
X62335699Y-87498073D01*
X62102310Y-87401400D01*
X61245750Y-87401400D01*
X61087000Y-87560150D01*
X60833000Y-87560150D01*
X60674250Y-87401400D01*
X59817690Y-87401400D01*
X59584301Y-87498073D01*
X59405673Y-87676702D01*
X59309000Y-87910091D01*
X59130000Y-87910091D01*
X59130000Y-87247056D01*
X64434025Y-87247056D01*
X64553164Y-87503000D01*
X65913000Y-87503000D01*
X65913000Y-86142633D01*
X65657054Y-86024017D01*
X65071621Y-86292812D01*
X64633615Y-86765182D01*
X64434025Y-87247056D01*
X59130000Y-87247056D01*
X59130000Y-85800000D01*
X70485000Y-85800000D01*
X70485000Y-87344250D01*
X70485000Y-87344250D01*
G37*
X70485000Y-87344250D02*
X70643750Y-87503000D01*
X71628000Y-87503000D01*
X71628000Y-87483000D01*
X71882000Y-87483000D01*
X71882000Y-87503000D01*
X72866250Y-87503000D01*
X73025000Y-87344250D01*
X73025000Y-85800000D01*
X75044560Y-85800000D01*
X75044560Y-90170000D01*
X75057330Y-90237868D01*
X74615198Y-90680000D01*
X72778025Y-90680000D01*
X72928327Y-90529699D01*
X73025000Y-90296310D01*
X73025000Y-87915750D01*
X72866250Y-87757000D01*
X71882000Y-87757000D01*
X71882000Y-87777000D01*
X71628000Y-87777000D01*
X71628000Y-87757000D01*
X70643750Y-87757000D01*
X70485000Y-87915750D01*
X70485000Y-89730198D01*
X69936366Y-89181564D01*
X70047441Y-89110090D01*
X70192431Y-88897890D01*
X70243440Y-88646000D01*
X70243440Y-86614000D01*
X70199162Y-86378683D01*
X70060090Y-86162559D01*
X69847890Y-86017569D01*
X69596000Y-85966560D01*
X67564000Y-85966560D01*
X67328683Y-86010838D01*
X67112559Y-86149910D01*
X67012144Y-86296872D01*
X67008379Y-86292812D01*
X66422946Y-86024017D01*
X66167000Y-86142633D01*
X66167000Y-87503000D01*
X66187000Y-87503000D01*
X66187000Y-87757000D01*
X66167000Y-87757000D01*
X66167000Y-89117367D01*
X66422946Y-89235983D01*
X67008379Y-88967188D01*
X67012934Y-88962276D01*
X67099910Y-89097441D01*
X67312110Y-89242431D01*
X67564000Y-89293440D01*
X67946408Y-89293440D01*
X68042599Y-89437401D01*
X70582599Y-91977401D01*
X70829160Y-92142148D01*
X70877414Y-92151746D01*
X71120000Y-92200000D01*
X74930000Y-92200000D01*
X75220839Y-92142148D01*
X75467401Y-91977401D01*
X76200000Y-91244802D01*
X76932599Y-91977401D01*
X77179160Y-92142148D01*
X77470000Y-92200000D01*
X87630000Y-92200000D01*
X87920839Y-92142148D01*
X88167401Y-91977401D01*
X90170000Y-89974802D01*
X92172599Y-91977401D01*
X92419160Y-92142148D01*
X92467414Y-92151746D01*
X92710000Y-92200000D01*
X96520000Y-92200000D01*
X96810839Y-92142148D01*
X97057401Y-91977401D01*
X97594802Y-91440000D01*
X103726655Y-91440000D01*
X103840729Y-92013489D01*
X104165585Y-92499670D01*
X104480366Y-92710000D01*
X104165585Y-92920330D01*
X103840729Y-93406511D01*
X103726655Y-93980000D01*
X103840729Y-94553489D01*
X104165585Y-95039670D01*
X104480366Y-95250000D01*
X104165585Y-95460330D01*
X103840729Y-95946511D01*
X103726655Y-96520000D01*
X103840729Y-97093489D01*
X104165585Y-97579670D01*
X104480366Y-97790000D01*
X104165585Y-98000330D01*
X103840729Y-98486511D01*
X103726655Y-99060000D01*
X103840729Y-99633489D01*
X104165585Y-100119670D01*
X104480366Y-100330000D01*
X104165585Y-100540330D01*
X103840729Y-101026511D01*
X103726655Y-101600000D01*
X103840729Y-102173489D01*
X104165585Y-102659670D01*
X104480366Y-102870000D01*
X104165585Y-103080330D01*
X103840729Y-103566511D01*
X103726655Y-104140000D01*
X103840729Y-104713489D01*
X104165585Y-105199670D01*
X104480366Y-105410000D01*
X104165585Y-105620330D01*
X103840729Y-106106511D01*
X103726655Y-106680000D01*
X103840729Y-107253489D01*
X104165585Y-107739670D01*
X104480366Y-107950000D01*
X104165585Y-108160330D01*
X103840729Y-108646511D01*
X103726655Y-109220000D01*
X103840729Y-109793489D01*
X104165585Y-110279670D01*
X104480366Y-110490000D01*
X104165585Y-110700330D01*
X103840729Y-111186511D01*
X103726655Y-111760000D01*
X103840729Y-112333489D01*
X104165585Y-112819670D01*
X104480366Y-113030000D01*
X104165585Y-113240330D01*
X103840729Y-113726511D01*
X103726655Y-114300000D01*
X103840729Y-114873489D01*
X104165585Y-115359670D01*
X104480366Y-115570000D01*
X104165585Y-115780330D01*
X103840729Y-116266511D01*
X103726655Y-116840000D01*
X103840729Y-117413489D01*
X104165585Y-117899670D01*
X104480366Y-118110000D01*
X104165585Y-118320330D01*
X103840729Y-118806511D01*
X103726655Y-119380000D01*
X103840729Y-119953489D01*
X104165585Y-120439670D01*
X104480366Y-120650000D01*
X104165585Y-120860330D01*
X103840729Y-121346511D01*
X103726655Y-121920000D01*
X103840729Y-122493489D01*
X104165585Y-122979670D01*
X104480366Y-123190000D01*
X104165585Y-123400330D01*
X103840729Y-123886511D01*
X103726655Y-124460000D01*
X103840729Y-125033489D01*
X104165585Y-125519670D01*
X104480366Y-125730000D01*
X104165585Y-125940330D01*
X103840729Y-126426511D01*
X103726655Y-127000000D01*
X103840729Y-127573489D01*
X104165585Y-128059670D01*
X104480366Y-128270000D01*
X104165585Y-128480330D01*
X103840729Y-128966511D01*
X103726655Y-129540000D01*
X103840729Y-130113489D01*
X104165585Y-130599670D01*
X104480366Y-130810000D01*
X104165585Y-131020330D01*
X103840729Y-131506511D01*
X103726655Y-132080000D01*
X103840729Y-132653489D01*
X104165585Y-133139670D01*
X104480366Y-133350000D01*
X104165585Y-133560330D01*
X103840729Y-134046511D01*
X103726655Y-134620000D01*
X103840729Y-135193489D01*
X104165585Y-135679670D01*
X104651766Y-136004526D01*
X105225255Y-136118600D01*
X105594745Y-136118600D01*
X106168234Y-136004526D01*
X106654415Y-135679670D01*
X106979271Y-135193489D01*
X107093345Y-134620000D01*
X106979271Y-134046511D01*
X106654415Y-133560330D01*
X106339634Y-133350000D01*
X106654415Y-133139670D01*
X106979271Y-132653489D01*
X107093345Y-132080000D01*
X106979271Y-131506511D01*
X106654415Y-131020330D01*
X106339634Y-130810000D01*
X106654415Y-130599670D01*
X106979271Y-130113489D01*
X107093345Y-129540000D01*
X106979271Y-128966511D01*
X106654415Y-128480330D01*
X106339634Y-128270000D01*
X106654415Y-128059670D01*
X106979271Y-127573489D01*
X107093345Y-127000000D01*
X106979271Y-126426511D01*
X106654415Y-125940330D01*
X106339634Y-125730000D01*
X106654415Y-125519670D01*
X106979271Y-125033489D01*
X107093345Y-124460000D01*
X106979271Y-123886511D01*
X106654415Y-123400330D01*
X106339634Y-123190000D01*
X106654415Y-122979670D01*
X106979271Y-122493489D01*
X107093345Y-121920000D01*
X106979271Y-121346511D01*
X106654415Y-120860330D01*
X106339634Y-120650000D01*
X106654415Y-120439670D01*
X106979271Y-119953489D01*
X107093345Y-119380000D01*
X106979271Y-118806511D01*
X106654415Y-118320330D01*
X106339634Y-118110000D01*
X106654415Y-117899670D01*
X106979271Y-117413489D01*
X107093345Y-116840000D01*
X106979271Y-116266511D01*
X106654415Y-115780330D01*
X106339634Y-115570000D01*
X106654415Y-115359670D01*
X106979271Y-114873489D01*
X107093345Y-114300000D01*
X106979271Y-113726511D01*
X106654415Y-113240330D01*
X106339634Y-113030000D01*
X106654415Y-112819670D01*
X106979271Y-112333489D01*
X107093345Y-111760000D01*
X106979271Y-111186511D01*
X106654415Y-110700330D01*
X106339634Y-110490000D01*
X106654415Y-110279670D01*
X106979271Y-109793489D01*
X107093345Y-109220000D01*
X106979271Y-108646511D01*
X106654415Y-108160330D01*
X106339634Y-107950000D01*
X106654415Y-107739670D01*
X106979271Y-107253489D01*
X107093345Y-106680000D01*
X106979271Y-106106511D01*
X106654415Y-105620330D01*
X106339634Y-105410000D01*
X106654415Y-105199670D01*
X106979271Y-104713489D01*
X107093345Y-104140000D01*
X106979271Y-103566511D01*
X106654415Y-103080330D01*
X106339634Y-102870000D01*
X106654415Y-102659670D01*
X106979271Y-102173489D01*
X107093345Y-101600000D01*
X106979271Y-101026511D01*
X106654415Y-100540330D01*
X106339634Y-100330000D01*
X106654415Y-100119670D01*
X106979271Y-99633489D01*
X107093345Y-99060000D01*
X106979271Y-98486511D01*
X106654415Y-98000330D01*
X106339634Y-97790000D01*
X106654415Y-97579670D01*
X106979271Y-97093489D01*
X107093345Y-96520000D01*
X106979271Y-95946511D01*
X106654415Y-95460330D01*
X106339634Y-95250000D01*
X106654415Y-95039670D01*
X106979271Y-94553489D01*
X107093345Y-93980000D01*
X106979271Y-93406511D01*
X106654415Y-92920330D01*
X106339634Y-92710000D01*
X106654415Y-92499670D01*
X106979271Y-92013489D01*
X107093345Y-91440000D01*
X106979271Y-90866511D01*
X106654415Y-90380330D01*
X106632220Y-90365500D01*
X106785699Y-90301927D01*
X106964327Y-90123298D01*
X107061000Y-89889909D01*
X107061000Y-89185750D01*
X106902250Y-89027000D01*
X105537000Y-89027000D01*
X105537000Y-89047000D01*
X105283000Y-89047000D01*
X105283000Y-89027000D01*
X103917750Y-89027000D01*
X103759000Y-89185750D01*
X103759000Y-89889909D01*
X103855673Y-90123298D01*
X104034301Y-90301927D01*
X104187780Y-90365500D01*
X104165585Y-90380330D01*
X103840729Y-90866511D01*
X103726655Y-91440000D01*
X97594802Y-91440000D01*
X98217362Y-90817440D01*
X98298000Y-90817440D01*
X98533317Y-90773162D01*
X98749441Y-90634090D01*
X98894431Y-90421890D01*
X98945440Y-90170000D01*
X98945440Y-87915750D01*
X100965000Y-87915750D01*
X100965000Y-90296310D01*
X101061673Y-90529699D01*
X101240302Y-90708327D01*
X101473691Y-90805000D01*
X101949250Y-90805000D01*
X102108000Y-90646250D01*
X102108000Y-87757000D01*
X102362000Y-87757000D01*
X102362000Y-90646250D01*
X102520750Y-90805000D01*
X102996309Y-90805000D01*
X103229698Y-90708327D01*
X103408327Y-90529699D01*
X103505000Y-90296310D01*
X103505000Y-87915750D01*
X103499341Y-87910091D01*
X103759000Y-87910091D01*
X103759000Y-88614250D01*
X103917750Y-88773000D01*
X105283000Y-88773000D01*
X105283000Y-87560150D01*
X105537000Y-87560150D01*
X105537000Y-88773000D01*
X106902250Y-88773000D01*
X107061000Y-88614250D01*
X107061000Y-87910091D01*
X106964327Y-87676702D01*
X106785699Y-87498073D01*
X106552310Y-87401400D01*
X105695750Y-87401400D01*
X105537000Y-87560150D01*
X105283000Y-87560150D01*
X105124250Y-87401400D01*
X104267690Y-87401400D01*
X104034301Y-87498073D01*
X103855673Y-87676702D01*
X103759000Y-87910091D01*
X103499341Y-87910091D01*
X103346250Y-87757000D01*
X102362000Y-87757000D01*
X102108000Y-87757000D01*
X101123750Y-87757000D01*
X100965000Y-87915750D01*
X98945440Y-87915750D01*
X98945440Y-85800000D01*
X100965000Y-85800000D01*
X100965000Y-87344250D01*
X101123750Y-87503000D01*
X102108000Y-87503000D01*
X102108000Y-87483000D01*
X102362000Y-87483000D01*
X102362000Y-87503000D01*
X103346250Y-87503000D01*
X103505000Y-87344250D01*
X103505000Y-85800000D01*
X107240000Y-85800000D01*
X107240000Y-136450000D01*
X103505000Y-136450000D01*
X103505000Y-134905750D01*
X103346250Y-134747000D01*
X102362000Y-134747000D01*
X102362000Y-134767000D01*
X102108000Y-134767000D01*
X102108000Y-134747000D01*
X101123750Y-134747000D01*
X100965000Y-134905750D01*
X100965000Y-136450000D01*
X98945440Y-136450000D01*
X98945440Y-132080000D01*
X98921674Y-131953690D01*
X100965000Y-131953690D01*
X100965000Y-134334250D01*
X101123750Y-134493000D01*
X102108000Y-134493000D01*
X102108000Y-131603750D01*
X102362000Y-131603750D01*
X102362000Y-134493000D01*
X103346250Y-134493000D01*
X103505000Y-134334250D01*
X103505000Y-131953690D01*
X103408327Y-131720301D01*
X103229698Y-131541673D01*
X102996309Y-131445000D01*
X102520750Y-131445000D01*
X102362000Y-131603750D01*
X102108000Y-131603750D01*
X101949250Y-131445000D01*
X101473691Y-131445000D01*
X101240302Y-131541673D01*
X101061673Y-131720301D01*
X100965000Y-131953690D01*
X98921674Y-131953690D01*
X98901162Y-131844683D01*
X98762090Y-131628559D01*
X98549890Y-131483569D01*
X98298000Y-131432560D01*
X98217362Y-131432560D01*
X97057401Y-130272599D01*
X96810839Y-130107852D01*
X96520000Y-130050000D01*
X89660000Y-130050000D01*
X89660000Y-127310000D01*
X89602148Y-127019161D01*
X89437401Y-126772599D01*
X87334818Y-124670016D01*
X87335223Y-124205519D01*
X87140005Y-123733057D01*
X86778845Y-123371265D01*
X86306724Y-123175223D01*
X85795519Y-123174777D01*
X85323057Y-123369995D01*
X84961265Y-123731155D01*
X84765223Y-124203276D01*
X84764777Y-124714481D01*
X84959995Y-125186943D01*
X85321155Y-125548735D01*
X85793276Y-125744777D01*
X86260383Y-125745185D01*
X88140000Y-127624802D01*
X88140000Y-130495198D01*
X87092599Y-131542599D01*
X86927852Y-131789161D01*
X86870000Y-132080000D01*
X86870000Y-132956560D01*
X86614000Y-132956560D01*
X86378683Y-133000838D01*
X86162559Y-133139910D01*
X86017569Y-133352110D01*
X85966560Y-133604000D01*
X85966560Y-135636000D01*
X86010838Y-135871317D01*
X86149910Y-136087441D01*
X86362110Y-136232431D01*
X86614000Y-136283440D01*
X88646000Y-136283440D01*
X88881317Y-136239162D01*
X89097441Y-136100090D01*
X89197856Y-135953128D01*
X89201621Y-135957188D01*
X89787054Y-136225983D01*
X90043000Y-136107367D01*
X90043000Y-134747000D01*
X90297000Y-134747000D01*
X90297000Y-136107367D01*
X90552946Y-136225983D01*
X91138379Y-135957188D01*
X91576385Y-135484818D01*
X91775975Y-135002944D01*
X91656836Y-134747000D01*
X90297000Y-134747000D01*
X90043000Y-134747000D01*
X90023000Y-134747000D01*
X90023000Y-134493000D01*
X90043000Y-134493000D01*
X90043000Y-133132633D01*
X90297000Y-133132633D01*
X90297000Y-134493000D01*
X91656836Y-134493000D01*
X91775975Y-134237056D01*
X91576385Y-133755182D01*
X91138379Y-133282812D01*
X90552946Y-133014017D01*
X90297000Y-133132633D01*
X90043000Y-133132633D01*
X89787054Y-133014017D01*
X89201621Y-133282812D01*
X89197066Y-133287724D01*
X89110090Y-133152559D01*
X88897890Y-133007569D01*
X88646000Y-132956560D01*
X88390000Y-132956560D01*
X88390000Y-132394802D01*
X89214802Y-131570000D01*
X92321975Y-131570000D01*
X92171673Y-131720301D01*
X92075000Y-131953690D01*
X92075000Y-134334250D01*
X92233750Y-134493000D01*
X93218000Y-134493000D01*
X93218000Y-134473000D01*
X93472000Y-134473000D01*
X93472000Y-134493000D01*
X94456250Y-134493000D01*
X94615000Y-134334250D01*
X94615000Y-131953690D01*
X94518327Y-131720301D01*
X94368025Y-131570000D01*
X96205198Y-131570000D01*
X96648140Y-132012942D01*
X96634560Y-132080000D01*
X96634560Y-136450000D01*
X94615000Y-136450000D01*
X94615000Y-134905750D01*
X94456250Y-134747000D01*
X93472000Y-134747000D01*
X93472000Y-134767000D01*
X93218000Y-134767000D01*
X93218000Y-134747000D01*
X92233750Y-134747000D01*
X92075000Y-134905750D01*
X92075000Y-136450000D01*
X59130000Y-136450000D01*
X59130000Y-91440000D01*
X59276655Y-91440000D01*
X59390729Y-92013489D01*
X59715585Y-92499670D01*
X60030366Y-92710000D01*
X59715585Y-92920330D01*
X59390729Y-93406511D01*
X59276655Y-93980000D01*
X59390729Y-94553489D01*
X59715585Y-95039670D01*
X60030366Y-95250000D01*
X59715585Y-95460330D01*
X59390729Y-95946511D01*
X59276655Y-96520000D01*
X59390729Y-97093489D01*
X59715585Y-97579670D01*
X60030366Y-97790000D01*
X59715585Y-98000330D01*
X59390729Y-98486511D01*
X59276655Y-99060000D01*
X59390729Y-99633489D01*
X59715585Y-100119670D01*
X60030366Y-100330000D01*
X59715585Y-100540330D01*
X59390729Y-101026511D01*
X59276655Y-101600000D01*
X59390729Y-102173489D01*
X59715585Y-102659670D01*
X60030366Y-102870000D01*
X59715585Y-103080330D01*
X59390729Y-103566511D01*
X59276655Y-104140000D01*
X59390729Y-104713489D01*
X59715585Y-105199670D01*
X60030366Y-105410000D01*
X59715585Y-105620330D01*
X59390729Y-106106511D01*
X59276655Y-106680000D01*
X59390729Y-107253489D01*
X59715585Y-107739670D01*
X60030366Y-107950000D01*
X59715585Y-108160330D01*
X59390729Y-108646511D01*
X59276655Y-109220000D01*
X59390729Y-109793489D01*
X59715585Y-110279670D01*
X60030366Y-110490000D01*
X59715585Y-110700330D01*
X59390729Y-111186511D01*
X59276655Y-111760000D01*
X59390729Y-112333489D01*
X59715585Y-112819670D01*
X60030366Y-113030000D01*
X59715585Y-113240330D01*
X59390729Y-113726511D01*
X59276655Y-114300000D01*
X59390729Y-114873489D01*
X59715585Y-115359670D01*
X60030366Y-115570000D01*
X59715585Y-115780330D01*
X59390729Y-116266511D01*
X59276655Y-116840000D01*
X59390729Y-117413489D01*
X59715585Y-117899670D01*
X60030366Y-118110000D01*
X59715585Y-118320330D01*
X59390729Y-118806511D01*
X59276655Y-119380000D01*
X59390729Y-119953489D01*
X59715585Y-120439670D01*
X60030366Y-120650000D01*
X59715585Y-120860330D01*
X59390729Y-121346511D01*
X59276655Y-121920000D01*
X59390729Y-122493489D01*
X59715585Y-122979670D01*
X60030366Y-123190000D01*
X59715585Y-123400330D01*
X59390729Y-123886511D01*
X59276655Y-124460000D01*
X59390729Y-125033489D01*
X59715585Y-125519670D01*
X60030366Y-125730000D01*
X59715585Y-125940330D01*
X59390729Y-126426511D01*
X59276655Y-127000000D01*
X59390729Y-127573489D01*
X59715585Y-128059670D01*
X60030366Y-128270000D01*
X59715585Y-128480330D01*
X59390729Y-128966511D01*
X59276655Y-129540000D01*
X59390729Y-130113489D01*
X59715585Y-130599670D01*
X60030366Y-130810000D01*
X59715585Y-131020330D01*
X59390729Y-131506511D01*
X59276655Y-132080000D01*
X59390729Y-132653489D01*
X59715585Y-133139670D01*
X60030366Y-133350000D01*
X59715585Y-133560330D01*
X59390729Y-134046511D01*
X59276655Y-134620000D01*
X59390729Y-135193489D01*
X59715585Y-135679670D01*
X60201766Y-136004526D01*
X60775255Y-136118600D01*
X61144745Y-136118600D01*
X61718234Y-136004526D01*
X62204415Y-135679670D01*
X62529271Y-135193489D01*
X62586505Y-134905750D01*
X63271400Y-134905750D01*
X63271400Y-135762310D01*
X63368073Y-135995699D01*
X63546702Y-136174327D01*
X63780091Y-136271000D01*
X64484250Y-136271000D01*
X64643000Y-136112250D01*
X64643000Y-134747000D01*
X63430150Y-134747000D01*
X63271400Y-134905750D01*
X62586505Y-134905750D01*
X62643345Y-134620000D01*
X62529271Y-134046511D01*
X62204415Y-133560330D01*
X62080736Y-133477690D01*
X63271400Y-133477690D01*
X63271400Y-134334250D01*
X63430150Y-134493000D01*
X64643000Y-134493000D01*
X64643000Y-133127750D01*
X64484250Y-132969000D01*
X63780091Y-132969000D01*
X63546702Y-133065673D01*
X63368073Y-133244301D01*
X63271400Y-133477690D01*
X62080736Y-133477690D01*
X61889634Y-133350000D01*
X62204415Y-133139670D01*
X62529271Y-132653489D01*
X62643345Y-132080000D01*
X62529271Y-131506511D01*
X62204415Y-131020330D01*
X61889634Y-130810000D01*
X62204415Y-130599670D01*
X62529271Y-130113489D01*
X62643345Y-129540000D01*
X62529271Y-128966511D01*
X62204415Y-128480330D01*
X61889634Y-128270000D01*
X62204415Y-128059670D01*
X62529271Y-127573489D01*
X62643345Y-127000000D01*
X62529271Y-126426511D01*
X62204415Y-125940330D01*
X61889634Y-125730000D01*
X62204415Y-125519670D01*
X62529271Y-125033489D01*
X62643345Y-124460000D01*
X62529271Y-123886511D01*
X62204415Y-123400330D01*
X61889634Y-123190000D01*
X62204415Y-122979670D01*
X62529271Y-122493489D01*
X62643345Y-121920000D01*
X62529271Y-121346511D01*
X62204415Y-120860330D01*
X61889634Y-120650000D01*
X62204415Y-120439670D01*
X62529271Y-119953489D01*
X62643345Y-119380000D01*
X62529271Y-118806511D01*
X62204415Y-118320330D01*
X61889634Y-118110000D01*
X62204415Y-117899670D01*
X62529271Y-117413489D01*
X62643345Y-116840000D01*
X62529271Y-116266511D01*
X62204415Y-115780330D01*
X61889634Y-115570000D01*
X62204415Y-115359670D01*
X62529271Y-114873489D01*
X62643345Y-114300000D01*
X62529271Y-113726511D01*
X62204415Y-113240330D01*
X61889634Y-113030000D01*
X62204415Y-112819670D01*
X62529271Y-112333489D01*
X62607152Y-111941954D01*
X62740000Y-112074802D01*
X62740000Y-123190000D01*
X62797852Y-123480839D01*
X62962599Y-123727401D01*
X71630000Y-132394802D01*
X71630000Y-133175352D01*
X71330330Y-133375585D01*
X71120000Y-133690366D01*
X70909670Y-133375585D01*
X70423489Y-133050729D01*
X69850000Y-132936655D01*
X69276511Y-133050729D01*
X68790330Y-133375585D01*
X68580000Y-133690366D01*
X68369670Y-133375585D01*
X67883489Y-133050729D01*
X67310000Y-132936655D01*
X66736511Y-133050729D01*
X66250330Y-133375585D01*
X66235500Y-133397780D01*
X66171927Y-133244301D01*
X65993298Y-133065673D01*
X65759909Y-132969000D01*
X65055750Y-132969000D01*
X64897000Y-133127750D01*
X64897000Y-134493000D01*
X64917000Y-134493000D01*
X64917000Y-134747000D01*
X64897000Y-134747000D01*
X64897000Y-136112250D01*
X65055750Y-136271000D01*
X65759909Y-136271000D01*
X65993298Y-136174327D01*
X66171927Y-135995699D01*
X66235500Y-135842220D01*
X66250330Y-135864415D01*
X66736511Y-136189271D01*
X67310000Y-136303345D01*
X67883489Y-136189271D01*
X68369670Y-135864415D01*
X68580000Y-135549634D01*
X68790330Y-135864415D01*
X69276511Y-136189271D01*
X69850000Y-136303345D01*
X70423489Y-136189271D01*
X70909670Y-135864415D01*
X71120000Y-135549634D01*
X71330330Y-135864415D01*
X71816511Y-136189271D01*
X72390000Y-136303345D01*
X72963489Y-136189271D01*
X73449670Y-135864415D01*
X73660000Y-135549634D01*
X73870330Y-135864415D01*
X74356511Y-136189271D01*
X74930000Y-136303345D01*
X75503489Y-136189271D01*
X75989670Y-135864415D01*
X76200000Y-135549634D01*
X76410330Y-135864415D01*
X76896511Y-136189271D01*
X77470000Y-136303345D01*
X78043489Y-136189271D01*
X78529670Y-135864415D01*
X78740000Y-135549634D01*
X78950330Y-135864415D01*
X79436511Y-136189271D01*
X80010000Y-136303345D01*
X80583489Y-136189271D01*
X81069670Y-135864415D01*
X81276461Y-135554931D01*
X81647964Y-135970732D01*
X82175209Y-136224709D01*
X82190974Y-136227358D01*
X82423000Y-136106217D01*
X82423000Y-134747000D01*
X82677000Y-134747000D01*
X82677000Y-136106217D01*
X82909026Y-136227358D01*
X82924791Y-136224709D01*
X83452036Y-135970732D01*
X83841954Y-135534320D01*
X84035184Y-134981913D01*
X83890924Y-134747000D01*
X82677000Y-134747000D01*
X82423000Y-134747000D01*
X82403000Y-134747000D01*
X82403000Y-134493000D01*
X82423000Y-134493000D01*
X82423000Y-133133783D01*
X82677000Y-133133783D01*
X82677000Y-134493000D01*
X83890924Y-134493000D01*
X84035184Y-134258087D01*
X83841954Y-133705680D01*
X83452036Y-133269268D01*
X82924791Y-133015291D01*
X82909026Y-133012642D01*
X82677000Y-133133783D01*
X82423000Y-133133783D01*
X82190974Y-133012642D01*
X82175209Y-133015291D01*
X81647964Y-133269268D01*
X81276461Y-133685069D01*
X81069670Y-133375585D01*
X80770000Y-133175352D01*
X80770000Y-132080000D01*
X80712148Y-131789161D01*
X80547401Y-131542599D01*
X73750552Y-124745750D01*
X81265000Y-124745750D01*
X81265000Y-125236310D01*
X81361673Y-125469699D01*
X81540302Y-125648327D01*
X81773691Y-125745000D01*
X82264250Y-125745000D01*
X82423000Y-125586250D01*
X82423000Y-124587000D01*
X82677000Y-124587000D01*
X82677000Y-125586250D01*
X82835750Y-125745000D01*
X83326309Y-125745000D01*
X83559698Y-125648327D01*
X83738327Y-125469699D01*
X83835000Y-125236310D01*
X83835000Y-124745750D01*
X83676250Y-124587000D01*
X82677000Y-124587000D01*
X82423000Y-124587000D01*
X81423750Y-124587000D01*
X81265000Y-124745750D01*
X73750552Y-124745750D01*
X72688492Y-123683690D01*
X81265000Y-123683690D01*
X81265000Y-124174250D01*
X81423750Y-124333000D01*
X82423000Y-124333000D01*
X82423000Y-123333750D01*
X82677000Y-123333750D01*
X82677000Y-124333000D01*
X83676250Y-124333000D01*
X83835000Y-124174250D01*
X83835000Y-123683690D01*
X83738327Y-123450301D01*
X83559698Y-123271673D01*
X83326309Y-123175000D01*
X82835750Y-123175000D01*
X82677000Y-123333750D01*
X82423000Y-123333750D01*
X82264250Y-123175000D01*
X81773691Y-123175000D01*
X81540302Y-123271673D01*
X81361673Y-123450301D01*
X81265000Y-123683690D01*
X72688492Y-123683690D01*
X71880000Y-122875198D01*
X71880000Y-101600000D01*
X71822148Y-101309161D01*
X71657401Y-101062599D01*
X62542381Y-91947579D01*
X62643345Y-91440000D01*
X62529271Y-90866511D01*
X62204415Y-90380330D01*
X62182220Y-90365500D01*
X62335699Y-90301927D01*
X62514327Y-90123298D01*
X62611000Y-89889909D01*
X62611000Y-89185750D01*
X62452250Y-89027000D01*
X61087000Y-89027000D01*
X61087000Y-89047000D01*
X60833000Y-89047000D01*
X60833000Y-89027000D01*
X59467750Y-89027000D01*
X59309000Y-89185750D01*
X59309000Y-89889909D01*
X59405673Y-90123298D01*
X59584301Y-90301927D01*
X59737780Y-90365500D01*
X59715585Y-90380330D01*
X59390729Y-90866511D01*
X59276655Y-91440000D01*
X59130000Y-91440000D01*
X59130000Y-87910091D01*
X59309000Y-87910091D01*
X59309000Y-88614250D01*
X59467750Y-88773000D01*
X60833000Y-88773000D01*
X60833000Y-87560150D01*
X61087000Y-87560150D01*
X61087000Y-88773000D01*
X62452250Y-88773000D01*
X62611000Y-88614250D01*
X62611000Y-88012944D01*
X64434025Y-88012944D01*
X64633615Y-88494818D01*
X65071621Y-88967188D01*
X65657054Y-89235983D01*
X65913000Y-89117367D01*
X65913000Y-87757000D01*
X64553164Y-87757000D01*
X64434025Y-88012944D01*
X62611000Y-88012944D01*
X62611000Y-87910091D01*
X62514327Y-87676702D01*
X62335699Y-87498073D01*
X62102310Y-87401400D01*
X61245750Y-87401400D01*
X61087000Y-87560150D01*
X60833000Y-87560150D01*
X60674250Y-87401400D01*
X59817690Y-87401400D01*
X59584301Y-87498073D01*
X59405673Y-87676702D01*
X59309000Y-87910091D01*
X59130000Y-87910091D01*
X59130000Y-87247056D01*
X64434025Y-87247056D01*
X64553164Y-87503000D01*
X65913000Y-87503000D01*
X65913000Y-86142633D01*
X65657054Y-86024017D01*
X65071621Y-86292812D01*
X64633615Y-86765182D01*
X64434025Y-87247056D01*
X59130000Y-87247056D01*
X59130000Y-85800000D01*
X70485000Y-85800000D01*
X70485000Y-87344250D01*
G36*
X79375000Y-87344250D02*
X79533750Y-87503000D01*
X80518000Y-87503000D01*
X80518000Y-87483000D01*
X80772000Y-87483000D01*
X80772000Y-87503000D01*
X81756250Y-87503000D01*
X81915000Y-87344250D01*
X81915000Y-87247056D01*
X86024025Y-87247056D01*
X86143164Y-87503000D01*
X87503000Y-87503000D01*
X87503000Y-86142633D01*
X87247054Y-86024017D01*
X86661621Y-86292812D01*
X86223615Y-86765182D01*
X86024025Y-87247056D01*
X81915000Y-87247056D01*
X81915000Y-85800000D01*
X92075000Y-85800000D01*
X92075000Y-87344250D01*
X92233750Y-87503000D01*
X93218000Y-87503000D01*
X93218000Y-87483000D01*
X93472000Y-87483000D01*
X93472000Y-87503000D01*
X94456250Y-87503000D01*
X94615000Y-87344250D01*
X94615000Y-85800000D01*
X96634560Y-85800000D01*
X96634560Y-90170000D01*
X96647330Y-90237868D01*
X96205198Y-90680000D01*
X94368025Y-90680000D01*
X94518327Y-90529699D01*
X94615000Y-90296310D01*
X94615000Y-87915750D01*
X94456250Y-87757000D01*
X93472000Y-87757000D01*
X93472000Y-87777000D01*
X93218000Y-87777000D01*
X93218000Y-87757000D01*
X92233750Y-87757000D01*
X92075000Y-87915750D01*
X92075000Y-89730198D01*
X91526366Y-89181564D01*
X91637441Y-89110090D01*
X91782431Y-88897890D01*
X91833440Y-88646000D01*
X91833440Y-86614000D01*
X91789162Y-86378683D01*
X91650090Y-86162559D01*
X91437890Y-86017569D01*
X91186000Y-85966560D01*
X89154000Y-85966560D01*
X88918683Y-86010838D01*
X88702559Y-86149910D01*
X88602144Y-86296872D01*
X88598379Y-86292812D01*
X88012946Y-86024017D01*
X87757000Y-86142633D01*
X87757000Y-87503000D01*
X87777000Y-87503000D01*
X87777000Y-87757000D01*
X87757000Y-87757000D01*
X87757000Y-89117367D01*
X88012946Y-89235983D01*
X88598379Y-88967188D01*
X88602934Y-88962276D01*
X88689910Y-89097441D01*
X88813388Y-89181810D01*
X87315198Y-90680000D01*
X81668025Y-90680000D01*
X81818327Y-90529699D01*
X81915000Y-90296310D01*
X81915000Y-88012944D01*
X86024025Y-88012944D01*
X86223615Y-88494818D01*
X86661621Y-88967188D01*
X87247054Y-89235983D01*
X87503000Y-89117367D01*
X87503000Y-87757000D01*
X86143164Y-87757000D01*
X86024025Y-88012944D01*
X81915000Y-88012944D01*
X81915000Y-87915750D01*
X81756250Y-87757000D01*
X80772000Y-87757000D01*
X80772000Y-87777000D01*
X80518000Y-87777000D01*
X80518000Y-87757000D01*
X79533750Y-87757000D01*
X79375000Y-87915750D01*
X79375000Y-90296310D01*
X79471673Y-90529699D01*
X79621975Y-90680000D01*
X77784802Y-90680000D01*
X77341860Y-90237058D01*
X77355440Y-90170000D01*
X77355440Y-85800000D01*
X79375000Y-85800000D01*
X79375000Y-87344250D01*
X79375000Y-87344250D01*
G37*
X79375000Y-87344250D02*
X79533750Y-87503000D01*
X80518000Y-87503000D01*
X80518000Y-87483000D01*
X80772000Y-87483000D01*
X80772000Y-87503000D01*
X81756250Y-87503000D01*
X81915000Y-87344250D01*
X81915000Y-87247056D01*
X86024025Y-87247056D01*
X86143164Y-87503000D01*
X87503000Y-87503000D01*
X87503000Y-86142633D01*
X87247054Y-86024017D01*
X86661621Y-86292812D01*
X86223615Y-86765182D01*
X86024025Y-87247056D01*
X81915000Y-87247056D01*
X81915000Y-85800000D01*
X92075000Y-85800000D01*
X92075000Y-87344250D01*
X92233750Y-87503000D01*
X93218000Y-87503000D01*
X93218000Y-87483000D01*
X93472000Y-87483000D01*
X93472000Y-87503000D01*
X94456250Y-87503000D01*
X94615000Y-87344250D01*
X94615000Y-85800000D01*
X96634560Y-85800000D01*
X96634560Y-90170000D01*
X96647330Y-90237868D01*
X96205198Y-90680000D01*
X94368025Y-90680000D01*
X94518327Y-90529699D01*
X94615000Y-90296310D01*
X94615000Y-87915750D01*
X94456250Y-87757000D01*
X93472000Y-87757000D01*
X93472000Y-87777000D01*
X93218000Y-87777000D01*
X93218000Y-87757000D01*
X92233750Y-87757000D01*
X92075000Y-87915750D01*
X92075000Y-89730198D01*
X91526366Y-89181564D01*
X91637441Y-89110090D01*
X91782431Y-88897890D01*
X91833440Y-88646000D01*
X91833440Y-86614000D01*
X91789162Y-86378683D01*
X91650090Y-86162559D01*
X91437890Y-86017569D01*
X91186000Y-85966560D01*
X89154000Y-85966560D01*
X88918683Y-86010838D01*
X88702559Y-86149910D01*
X88602144Y-86296872D01*
X88598379Y-86292812D01*
X88012946Y-86024017D01*
X87757000Y-86142633D01*
X87757000Y-87503000D01*
X87777000Y-87503000D01*
X87777000Y-87757000D01*
X87757000Y-87757000D01*
X87757000Y-89117367D01*
X88012946Y-89235983D01*
X88598379Y-88967188D01*
X88602934Y-88962276D01*
X88689910Y-89097441D01*
X88813388Y-89181810D01*
X87315198Y-90680000D01*
X81668025Y-90680000D01*
X81818327Y-90529699D01*
X81915000Y-90296310D01*
X81915000Y-88012944D01*
X86024025Y-88012944D01*
X86223615Y-88494818D01*
X86661621Y-88967188D01*
X87247054Y-89235983D01*
X87503000Y-89117367D01*
X87503000Y-87757000D01*
X86143164Y-87757000D01*
X86024025Y-88012944D01*
X81915000Y-88012944D01*
X81915000Y-87915750D01*
X81756250Y-87757000D01*
X80772000Y-87757000D01*
X80772000Y-87777000D01*
X80518000Y-87777000D01*
X80518000Y-87757000D01*
X79533750Y-87757000D01*
X79375000Y-87915750D01*
X79375000Y-90296310D01*
X79471673Y-90529699D01*
X79621975Y-90680000D01*
X77784802Y-90680000D01*
X77341860Y-90237058D01*
X77355440Y-90170000D01*
X77355440Y-85800000D01*
X79375000Y-85800000D01*
X79375000Y-87344250D01*
M02*
