G04 #@! TF.FileFunction,Copper,L1,Top,Signal*
%FSLAX46Y46*%
G04 Gerber Fmt 4.6, Leading zero omitted, Abs format (unit mm)*
G04 Created by KiCad (PCBNEW 4.0.4+e1-6308~48~ubuntu16.04.1-stable) date Tue Sep  6 14:03:07 2016*
%MOMM*%
%LPD*%
G01*
G04 APERTURE LIST*
%ADD10C,0.100000*%
%ADD11R,1.560000X0.650000*%
%ADD12C,1.300000*%
%ADD13R,1.300000X1.300000*%
%ADD14R,1.400000X1.400000*%
%ADD15C,1.400000*%
%ADD16C,1.699260*%
%ADD17R,1.699260X1.699260*%
%ADD18R,1.270000X1.270000*%
%ADD19R,1.905000X1.905000*%
%ADD20C,1.905000*%
%ADD21R,2.032000X2.032000*%
%ADD22O,2.032000X2.032000*%
%ADD23C,1.998980*%
%ADD24R,1.397000X1.397000*%
%ADD25C,1.397000*%
%ADD26R,1.000760X2.501900*%
%ADD27R,1.998980X4.000500*%
%ADD28C,2.000000*%
%ADD29R,1.270000X5.080000*%
%ADD30R,1.016000X5.080000*%
%ADD31R,2.032000X1.727200*%
%ADD32O,2.032000X1.727200*%
%ADD33R,0.450000X1.750000*%
%ADD34R,1.270000X3.810000*%
%ADD35C,0.600000*%
%ADD36C,0.250000*%
%ADD37C,0.254000*%
G04 APERTURE END LIST*
D10*
D11*
X54530000Y-117160000D03*
X54530000Y-118110000D03*
X54530000Y-119060000D03*
X57230000Y-119060000D03*
X57230000Y-117160000D03*
X57230000Y-118110000D03*
D12*
X55570000Y-96520000D03*
D13*
X52070000Y-96520000D03*
D14*
X60960000Y-121920000D03*
D15*
X65960000Y-121920000D03*
D14*
X68580000Y-125730000D03*
D15*
X73580000Y-125730000D03*
D14*
X80010000Y-130810000D03*
D15*
X80010000Y-125810000D03*
D14*
X82550000Y-123190000D03*
D15*
X82550000Y-118190000D03*
D14*
X59690000Y-111760000D03*
D15*
X54690000Y-111760000D03*
D14*
X68580000Y-130810000D03*
D15*
X73580000Y-130810000D03*
D14*
X82550000Y-115570000D03*
D15*
X82550000Y-110570000D03*
D14*
X68580000Y-120650000D03*
D15*
X73580000Y-120650000D03*
D14*
X87630000Y-115570000D03*
D15*
X87630000Y-110570000D03*
D14*
X83820000Y-101600000D03*
D15*
X88820000Y-101600000D03*
D14*
X83820000Y-96520000D03*
D15*
X88820000Y-96520000D03*
D14*
X83820000Y-91440000D03*
D15*
X88820000Y-91440000D03*
D14*
X97790000Y-91440000D03*
D15*
X97790000Y-86440000D03*
D14*
X101600000Y-110490000D03*
D15*
X96600000Y-110490000D03*
D16*
X50799480Y-104142540D03*
D17*
X60959480Y-104142540D03*
D16*
X60960520Y-106677460D03*
D17*
X50800520Y-106677460D03*
D18*
X62611000Y-110490000D03*
X64389000Y-110490000D03*
D19*
X50800000Y-127000000D03*
D20*
X55880000Y-127000000D03*
D19*
X59690000Y-129540000D03*
D20*
X64770000Y-129540000D03*
D19*
X67310000Y-93980000D03*
D20*
X72390000Y-93980000D03*
D19*
X69850000Y-110490000D03*
D20*
X69850000Y-115570000D03*
D19*
X78740000Y-95250000D03*
D20*
X78740000Y-90170000D03*
D21*
X55880000Y-87630000D03*
D22*
X53340000Y-87630000D03*
D23*
X77470000Y-121920000D03*
X77470000Y-111760000D03*
X50800000Y-120650000D03*
X50800000Y-110490000D03*
X92710000Y-87630000D03*
X92710000Y-97790000D03*
X92710000Y-111760000D03*
X92710000Y-101600000D03*
X96520000Y-105410000D03*
X96520000Y-95250000D03*
X100330000Y-105410000D03*
X100330000Y-95250000D03*
D24*
X80010000Y-86360000D03*
D25*
X82550000Y-86360000D03*
X85090000Y-86360000D03*
D26*
X60728860Y-98872040D03*
X62230000Y-98872040D03*
X63731140Y-98872040D03*
D27*
X62230000Y-94919800D03*
D10*
G36*
X63230760Y-96894650D02*
X62730380Y-97643950D01*
X61729620Y-97643950D01*
X61229240Y-96894650D01*
X63230760Y-96894650D01*
X63230760Y-96894650D01*
G37*
D28*
X64770000Y-105410000D03*
D29*
X59055000Y-86360000D03*
X67945000Y-86360000D03*
D30*
X63500000Y-86360000D03*
D31*
X118110000Y-87630000D03*
D32*
X118110000Y-90170000D03*
X118110000Y-92710000D03*
X118110000Y-95250000D03*
X118110000Y-97790000D03*
X118110000Y-100330000D03*
X118110000Y-102870000D03*
X118110000Y-105410000D03*
X118110000Y-107950000D03*
X118110000Y-110490000D03*
X118110000Y-113030000D03*
X118110000Y-115570000D03*
X118110000Y-118110000D03*
X118110000Y-120650000D03*
X118110000Y-123190000D03*
X118110000Y-125730000D03*
X118110000Y-128270000D03*
X118110000Y-130810000D03*
X118110000Y-133350000D03*
D31*
X46990000Y-87630000D03*
D32*
X46990000Y-90170000D03*
X46990000Y-92710000D03*
X46990000Y-95250000D03*
X46990000Y-97790000D03*
X46990000Y-100330000D03*
X46990000Y-102870000D03*
X46990000Y-105410000D03*
X46990000Y-107950000D03*
X46990000Y-110490000D03*
X46990000Y-113030000D03*
X46990000Y-115570000D03*
X46990000Y-118110000D03*
X46990000Y-120650000D03*
X46990000Y-123190000D03*
X46990000Y-125730000D03*
X46990000Y-128270000D03*
X46990000Y-130810000D03*
X46990000Y-133350000D03*
D33*
X74545000Y-107740000D03*
X75195000Y-107740000D03*
X75845000Y-107740000D03*
X76495000Y-107740000D03*
X77145000Y-107740000D03*
X77795000Y-107740000D03*
X78445000Y-107740000D03*
X79095000Y-107740000D03*
X79745000Y-107740000D03*
X80395000Y-107740000D03*
X80395000Y-100540000D03*
X79745000Y-100540000D03*
X79095000Y-100540000D03*
X78445000Y-100540000D03*
X77795000Y-100540000D03*
X77145000Y-100540000D03*
X76495000Y-100540000D03*
X75845000Y-100540000D03*
X75195000Y-100540000D03*
X74545000Y-100540000D03*
D34*
X97790000Y-120269000D03*
X95250000Y-120269000D03*
X92710000Y-120269000D03*
X97790000Y-126111000D03*
X95250000Y-126111000D03*
X92710000Y-126111000D03*
D35*
X55245000Y-115570000D03*
X59055000Y-116205000D03*
X75565000Y-98425000D03*
X60960000Y-101600000D03*
X52324000Y-100838000D03*
X76073000Y-119507000D03*
X75692000Y-128397000D03*
X80010000Y-104775000D03*
X77152500Y-98742500D03*
X77978000Y-98806000D03*
X77851000Y-102997000D03*
X73152000Y-103251000D03*
X96647000Y-113284000D03*
D36*
X57230000Y-120650000D02*
X58420000Y-120650000D01*
X54530000Y-116285000D02*
X54530000Y-117160000D01*
X55245000Y-115570000D02*
X54530000Y-116285000D01*
X59055000Y-120015000D02*
X59055000Y-116205000D01*
X58420000Y-120650000D02*
X59055000Y-120015000D01*
X50800000Y-127000000D02*
X51435000Y-127000000D01*
X51435000Y-127000000D02*
X57230000Y-121205000D01*
X57230000Y-121205000D02*
X57230000Y-120650000D01*
X57230000Y-120650000D02*
X57230000Y-119060000D01*
X54530000Y-118110000D02*
X48895000Y-118110000D01*
X48895000Y-129540000D02*
X47625000Y-130810000D01*
X48895000Y-118110000D02*
X48895000Y-129540000D01*
X47625000Y-130810000D02*
X46990000Y-130810000D01*
X57230000Y-118110000D02*
X54530000Y-118110000D01*
X50800000Y-120650000D02*
X52940000Y-120650000D01*
X52940000Y-120650000D02*
X54530000Y-119060000D01*
X80010000Y-86360000D02*
X80010000Y-88900000D01*
X80010000Y-88900000D02*
X78740000Y-90170000D01*
X75882500Y-101240000D02*
X75247500Y-101240000D01*
X57230000Y-101600000D02*
X60960000Y-101600000D01*
X75882500Y-98742500D02*
X75882500Y-101240000D01*
X75565000Y-98425000D02*
X75882500Y-98742500D01*
X57230000Y-114935000D02*
X60325000Y-114935000D01*
X62865000Y-126365000D02*
X59690000Y-129540000D01*
X62865000Y-117475000D02*
X62865000Y-126365000D01*
X60325000Y-114935000D02*
X62865000Y-117475000D01*
X57230000Y-117160000D02*
X57230000Y-114935000D01*
X57230000Y-114935000D02*
X57230000Y-101600000D01*
X57230000Y-101600000D02*
X57230000Y-101680000D01*
X57230000Y-101680000D02*
X52070000Y-96520000D01*
X46990000Y-90170000D02*
X48260000Y-90170000D01*
X52070000Y-93980000D02*
X52070000Y-96520000D01*
X48260000Y-90170000D02*
X52070000Y-93980000D01*
X50799480Y-104142540D02*
X50799480Y-102362520D01*
X50799480Y-102362520D02*
X52324000Y-100838000D01*
X76517500Y-101240000D02*
X76517500Y-103886000D01*
X76517500Y-103886000D02*
X76581000Y-103886000D01*
X77787500Y-107040000D02*
X77787500Y-103886000D01*
X77787500Y-103886000D02*
X77724000Y-103886000D01*
X74612500Y-101240000D02*
X74612500Y-103949500D01*
X79692500Y-105727500D02*
X79692500Y-107040000D01*
X77851000Y-103886000D02*
X79692500Y-105727500D01*
X74676000Y-103886000D02*
X76581000Y-103886000D01*
X76581000Y-103886000D02*
X77724000Y-103886000D01*
X77724000Y-103886000D02*
X77851000Y-103886000D01*
X74612500Y-103949500D02*
X74676000Y-103886000D01*
X55880000Y-127000000D02*
X60960000Y-121920000D01*
X73580000Y-125730000D02*
X73580000Y-123143000D01*
X75247500Y-121475500D02*
X75247500Y-107040000D01*
X73580000Y-123143000D02*
X75247500Y-121475500D01*
X73580000Y-125730000D02*
X74930000Y-125730000D01*
X74930000Y-125730000D02*
X80010000Y-130810000D01*
X65960000Y-121920000D02*
X66675000Y-121920000D01*
X71675000Y-123825000D02*
X73580000Y-125730000D01*
X68580000Y-123825000D02*
X71675000Y-123825000D01*
X66675000Y-121920000D02*
X68580000Y-123825000D01*
X80010000Y-125810000D02*
X80010000Y-124460000D01*
X80010000Y-124460000D02*
X77470000Y-121920000D01*
X77470000Y-111760000D02*
X77470000Y-116713000D01*
X82550000Y-121793000D02*
X82550000Y-123190000D01*
X77470000Y-116713000D02*
X82550000Y-121793000D01*
X76517500Y-107040000D02*
X76517500Y-110807500D01*
X76517500Y-110807500D02*
X77470000Y-111760000D01*
X79095000Y-107740000D02*
X79095000Y-108813000D01*
X83820000Y-116920000D02*
X82550000Y-118190000D01*
X83820000Y-109220000D02*
X83820000Y-116920000D01*
X83566000Y-108966000D02*
X83820000Y-109220000D01*
X79248000Y-108966000D02*
X83566000Y-108966000D01*
X79095000Y-108813000D02*
X79248000Y-108966000D01*
X79057500Y-107040000D02*
X79057500Y-108394500D01*
X59690000Y-111760000D02*
X64135000Y-111760000D01*
X64389000Y-111506000D02*
X64389000Y-110490000D01*
X64135000Y-111760000D02*
X64389000Y-111506000D01*
X73580000Y-130810000D02*
X73580000Y-130509000D01*
X73580000Y-130509000D02*
X75692000Y-128397000D01*
X75882500Y-119316500D02*
X75882500Y-107040000D01*
X76073000Y-119507000D02*
X75882500Y-119316500D01*
X64770000Y-129540000D02*
X72390000Y-129540000D01*
X72390000Y-129540000D02*
X73580000Y-130730000D01*
X73580000Y-130730000D02*
X73580000Y-130810000D01*
X82550000Y-115570000D02*
X82550000Y-113284000D01*
X77152500Y-109918500D02*
X77152500Y-107040000D01*
X77216000Y-109982000D02*
X77152500Y-109918500D01*
X79248000Y-109982000D02*
X77216000Y-109982000D01*
X82550000Y-113284000D02*
X79248000Y-109982000D01*
X78445000Y-107740000D02*
X78445000Y-109306000D01*
X80598000Y-110570000D02*
X82550000Y-110570000D01*
X79502000Y-109474000D02*
X80598000Y-110570000D01*
X78613000Y-109474000D02*
X79502000Y-109474000D01*
X78445000Y-109306000D02*
X78613000Y-109474000D01*
X73580000Y-120650000D02*
X73580000Y-120349000D01*
X73580000Y-120349000D02*
X74612500Y-119316500D01*
X74612500Y-119316500D02*
X74612500Y-107040000D01*
X80327500Y-107040000D02*
X82910000Y-107040000D01*
X84836000Y-112776000D02*
X87630000Y-115570000D01*
X84836000Y-108966000D02*
X84836000Y-112776000D01*
X82910000Y-107040000D02*
X84836000Y-108966000D01*
X80327500Y-105092500D02*
X80327500Y-107040000D01*
X80010000Y-104775000D02*
X80327500Y-105092500D01*
X80327500Y-101240000D02*
X83460000Y-101240000D01*
X83460000Y-101240000D02*
X83820000Y-101600000D01*
X79745000Y-100540000D02*
X79745000Y-99579000D01*
X82804000Y-96520000D02*
X83820000Y-96520000D01*
X79745000Y-99579000D02*
X82804000Y-96520000D01*
X79692500Y-101240000D02*
X79692500Y-99885500D01*
X78740000Y-95250000D02*
X78740000Y-99060000D01*
X78422500Y-99377500D02*
X78422500Y-101240000D01*
X78740000Y-99060000D02*
X78422500Y-99377500D01*
X96520000Y-95250000D02*
X96520000Y-92710000D01*
X96520000Y-92710000D02*
X97790000Y-91440000D01*
X92710000Y-87630000D02*
X92710000Y-84963000D01*
X92456000Y-84709000D02*
X92583000Y-84709000D01*
X92710000Y-84963000D02*
X92456000Y-84709000D01*
X97790000Y-86440000D02*
X96092000Y-86440000D01*
X72390000Y-90043000D02*
X72390000Y-93980000D01*
X77724000Y-84709000D02*
X72390000Y-90043000D01*
X94361000Y-84709000D02*
X92583000Y-84709000D01*
X92583000Y-84709000D02*
X77724000Y-84709000D01*
X96092000Y-86440000D02*
X94361000Y-84709000D01*
X100330000Y-95250000D02*
X100330000Y-97917000D01*
X98552000Y-107442000D02*
X101600000Y-110490000D01*
X98552000Y-99695000D02*
X98552000Y-107442000D01*
X100330000Y-97917000D02*
X98552000Y-99695000D01*
X92710000Y-111760000D02*
X95330000Y-111760000D01*
X95330000Y-111760000D02*
X96600000Y-110490000D01*
X60960520Y-106677460D02*
X60960520Y-108839520D01*
X60960520Y-108839520D02*
X62611000Y-110490000D01*
X60959480Y-104142540D02*
X60959480Y-106676420D01*
X60959480Y-106676420D02*
X60960520Y-106677460D01*
X63731140Y-104140000D02*
X60962020Y-104140000D01*
X60962020Y-104140000D02*
X60959480Y-104142540D01*
X63731140Y-98872040D02*
X63731140Y-104140000D01*
X63731140Y-104140000D02*
X63731140Y-104371140D01*
X63731140Y-104371140D02*
X64770000Y-105410000D01*
X77152500Y-101240000D02*
X77152500Y-98742500D01*
X67310000Y-93980000D02*
X68580000Y-93980000D01*
X76200000Y-97790000D02*
X77152500Y-98742500D01*
X72390000Y-97790000D02*
X76200000Y-97790000D01*
X68580000Y-93980000D02*
X72390000Y-97790000D01*
X77787500Y-101240000D02*
X77787500Y-98996500D01*
X77787500Y-98996500D02*
X77978000Y-98806000D01*
X69850000Y-110490000D02*
X69850000Y-106553000D01*
X77787500Y-102933500D02*
X77787500Y-101240000D01*
X77851000Y-102997000D02*
X77787500Y-102933500D01*
X69850000Y-106553000D02*
X73152000Y-103251000D01*
X60728860Y-98872040D02*
X60728860Y-98828860D01*
X60728860Y-98828860D02*
X59690000Y-97790000D01*
X59690000Y-97790000D02*
X59690000Y-90170000D01*
X55880000Y-87630000D02*
X55880000Y-88900000D01*
X62230000Y-90170000D02*
X63500000Y-88900000D01*
X57150000Y-90170000D02*
X59690000Y-90170000D01*
X59690000Y-90170000D02*
X62230000Y-90170000D01*
X55880000Y-88900000D02*
X57150000Y-90170000D01*
X63500000Y-88900000D02*
X63500000Y-86360000D01*
X92710000Y-126111000D02*
X92710000Y-129667000D01*
X108331000Y-102489000D02*
X118110000Y-92710000D01*
X108331000Y-110871000D02*
X108331000Y-102489000D01*
X102108000Y-117094000D02*
X108331000Y-110871000D01*
X102108000Y-128270000D02*
X102108000Y-117094000D01*
X99695000Y-130683000D02*
X102108000Y-128270000D01*
X93726000Y-130683000D02*
X99695000Y-130683000D01*
X92710000Y-129667000D02*
X93726000Y-130683000D01*
X118110000Y-92710000D02*
X118110000Y-92837000D01*
X96520000Y-105410000D02*
X96520000Y-107569000D01*
X97790000Y-116840000D02*
X97790000Y-120269000D01*
X98298000Y-116332000D02*
X97790000Y-116840000D01*
X98298000Y-109347000D02*
X98298000Y-116332000D01*
X96520000Y-107569000D02*
X98298000Y-109347000D01*
X92710000Y-120269000D02*
X92710000Y-116205000D01*
X95631000Y-113284000D02*
X96647000Y-113284000D01*
X92710000Y-116205000D02*
X95631000Y-113284000D01*
X79057500Y-101240000D02*
X79057500Y-99504500D01*
X82550000Y-96012000D02*
X82550000Y-86360000D01*
X79057500Y-99504500D02*
X82550000Y-96012000D01*
X62230000Y-98872040D02*
X62230000Y-94919800D01*
D37*
G36*
X57785000Y-86074250D02*
X57943750Y-86233000D01*
X58928000Y-86233000D01*
X58928000Y-86213000D01*
X59182000Y-86213000D01*
X59182000Y-86233000D01*
X60166250Y-86233000D01*
X60325000Y-86074250D01*
X60325000Y-84530000D01*
X62344560Y-84530000D01*
X62344560Y-88900000D01*
X62357330Y-88967868D01*
X61915198Y-89410000D01*
X60078025Y-89410000D01*
X60228327Y-89259699D01*
X60325000Y-89026310D01*
X60325000Y-86645750D01*
X60166250Y-86487000D01*
X59182000Y-86487000D01*
X59182000Y-86507000D01*
X58928000Y-86507000D01*
X58928000Y-86487000D01*
X57943750Y-86487000D01*
X57785000Y-86645750D01*
X57785000Y-89026310D01*
X57881673Y-89259699D01*
X58031975Y-89410000D01*
X57464802Y-89410000D01*
X57236366Y-89181564D01*
X57347441Y-89110090D01*
X57492431Y-88897890D01*
X57543440Y-88646000D01*
X57543440Y-86614000D01*
X57499162Y-86378683D01*
X57360090Y-86162559D01*
X57147890Y-86017569D01*
X56896000Y-85966560D01*
X54864000Y-85966560D01*
X54628683Y-86010838D01*
X54412559Y-86149910D01*
X54312144Y-86296872D01*
X54308379Y-86292812D01*
X53722946Y-86024017D01*
X53467000Y-86142633D01*
X53467000Y-87503000D01*
X53487000Y-87503000D01*
X53487000Y-87757000D01*
X53467000Y-87757000D01*
X53467000Y-89117367D01*
X53722946Y-89235983D01*
X54308379Y-88967188D01*
X54312934Y-88962276D01*
X54399910Y-89097441D01*
X54612110Y-89242431D01*
X54864000Y-89293440D01*
X55246408Y-89293440D01*
X55342599Y-89437401D01*
X56612599Y-90707401D01*
X56859160Y-90872148D01*
X57150000Y-90930000D01*
X58930000Y-90930000D01*
X58930000Y-97790000D01*
X58987852Y-98080839D01*
X59152599Y-98327401D01*
X59581040Y-98755842D01*
X59581040Y-100122990D01*
X59625318Y-100358307D01*
X59764390Y-100574431D01*
X59976590Y-100719421D01*
X60228480Y-100770430D01*
X60519280Y-100770430D01*
X60431057Y-100806883D01*
X60397882Y-100840000D01*
X57464802Y-100840000D01*
X54043818Y-97419016D01*
X54850590Y-97419016D01*
X54906271Y-97649611D01*
X55389078Y-97817622D01*
X55899428Y-97788083D01*
X56233729Y-97649611D01*
X56289410Y-97419016D01*
X55570000Y-96699605D01*
X54850590Y-97419016D01*
X54043818Y-97419016D01*
X53367440Y-96742638D01*
X53367440Y-96339078D01*
X54272378Y-96339078D01*
X54301917Y-96849428D01*
X54440389Y-97183729D01*
X54670984Y-97239410D01*
X55390395Y-96520000D01*
X55749605Y-96520000D01*
X56469016Y-97239410D01*
X56699611Y-97183729D01*
X56867622Y-96700922D01*
X56838083Y-96190572D01*
X56699611Y-95856271D01*
X56469016Y-95800590D01*
X55749605Y-96520000D01*
X55390395Y-96520000D01*
X54670984Y-95800590D01*
X54440389Y-95856271D01*
X54272378Y-96339078D01*
X53367440Y-96339078D01*
X53367440Y-95870000D01*
X53323162Y-95634683D01*
X53314347Y-95620984D01*
X54850590Y-95620984D01*
X55570000Y-96340395D01*
X56289410Y-95620984D01*
X56233729Y-95390389D01*
X55750922Y-95222378D01*
X55240572Y-95251917D01*
X54906271Y-95390389D01*
X54850590Y-95620984D01*
X53314347Y-95620984D01*
X53184090Y-95418559D01*
X52971890Y-95273569D01*
X52830000Y-95244836D01*
X52830000Y-93980000D01*
X52772148Y-93689161D01*
X52607401Y-93442599D01*
X48797401Y-89632599D01*
X48550839Y-89467852D01*
X48461419Y-89450065D01*
X48234415Y-89110330D01*
X48212220Y-89095500D01*
X48365699Y-89031927D01*
X48544327Y-88853298D01*
X48641000Y-88619909D01*
X48641000Y-88012944D01*
X51734025Y-88012944D01*
X51933615Y-88494818D01*
X52371621Y-88967188D01*
X52957054Y-89235983D01*
X53213000Y-89117367D01*
X53213000Y-87757000D01*
X51853164Y-87757000D01*
X51734025Y-88012944D01*
X48641000Y-88012944D01*
X48641000Y-87915750D01*
X48482250Y-87757000D01*
X47117000Y-87757000D01*
X47117000Y-87777000D01*
X46863000Y-87777000D01*
X46863000Y-87757000D01*
X45497750Y-87757000D01*
X45339000Y-87915750D01*
X45339000Y-88619909D01*
X45435673Y-88853298D01*
X45614301Y-89031927D01*
X45767780Y-89095500D01*
X45745585Y-89110330D01*
X45420729Y-89596511D01*
X45306655Y-90170000D01*
X45420729Y-90743489D01*
X45745585Y-91229670D01*
X46060366Y-91440000D01*
X45745585Y-91650330D01*
X45420729Y-92136511D01*
X45306655Y-92710000D01*
X45420729Y-93283489D01*
X45745585Y-93769670D01*
X46060366Y-93980000D01*
X45745585Y-94190330D01*
X45420729Y-94676511D01*
X45306655Y-95250000D01*
X45420729Y-95823489D01*
X45745585Y-96309670D01*
X46060366Y-96520000D01*
X45745585Y-96730330D01*
X45420729Y-97216511D01*
X45306655Y-97790000D01*
X45420729Y-98363489D01*
X45745585Y-98849670D01*
X46060366Y-99060000D01*
X45745585Y-99270330D01*
X45420729Y-99756511D01*
X45306655Y-100330000D01*
X45420729Y-100903489D01*
X45745585Y-101389670D01*
X46060366Y-101600000D01*
X45745585Y-101810330D01*
X45420729Y-102296511D01*
X45306655Y-102870000D01*
X45420729Y-103443489D01*
X45745585Y-103929670D01*
X46060366Y-104140000D01*
X45745585Y-104350330D01*
X45420729Y-104836511D01*
X45306655Y-105410000D01*
X45420729Y-105983489D01*
X45745585Y-106469670D01*
X46060366Y-106680000D01*
X45745585Y-106890330D01*
X45420729Y-107376511D01*
X45306655Y-107950000D01*
X45420729Y-108523489D01*
X45745585Y-109009670D01*
X46060366Y-109220000D01*
X45745585Y-109430330D01*
X45420729Y-109916511D01*
X45306655Y-110490000D01*
X45420729Y-111063489D01*
X45745585Y-111549670D01*
X46060366Y-111760000D01*
X45745585Y-111970330D01*
X45420729Y-112456511D01*
X45306655Y-113030000D01*
X45420729Y-113603489D01*
X45745585Y-114089670D01*
X46060366Y-114300000D01*
X45745585Y-114510330D01*
X45420729Y-114996511D01*
X45306655Y-115570000D01*
X45420729Y-116143489D01*
X45745585Y-116629670D01*
X46060366Y-116840000D01*
X45745585Y-117050330D01*
X45420729Y-117536511D01*
X45306655Y-118110000D01*
X45420729Y-118683489D01*
X45745585Y-119169670D01*
X46060366Y-119380000D01*
X45745585Y-119590330D01*
X45420729Y-120076511D01*
X45306655Y-120650000D01*
X45420729Y-121223489D01*
X45745585Y-121709670D01*
X46060366Y-121920000D01*
X45745585Y-122130330D01*
X45420729Y-122616511D01*
X45306655Y-123190000D01*
X45420729Y-123763489D01*
X45745585Y-124249670D01*
X46060366Y-124460000D01*
X45745585Y-124670330D01*
X45420729Y-125156511D01*
X45306655Y-125730000D01*
X45420729Y-126303489D01*
X45745585Y-126789670D01*
X46060366Y-127000000D01*
X45745585Y-127210330D01*
X45420729Y-127696511D01*
X45306655Y-128270000D01*
X45420729Y-128843489D01*
X45745585Y-129329670D01*
X46060366Y-129540000D01*
X45745585Y-129750330D01*
X45420729Y-130236511D01*
X45306655Y-130810000D01*
X45420729Y-131383489D01*
X45745585Y-131869670D01*
X46060366Y-132080000D01*
X45745585Y-132290330D01*
X45420729Y-132776511D01*
X45306655Y-133350000D01*
X45420729Y-133923489D01*
X45745585Y-134409670D01*
X46231766Y-134734526D01*
X46805255Y-134848600D01*
X47174745Y-134848600D01*
X47748234Y-134734526D01*
X48234415Y-134409670D01*
X48559271Y-133923489D01*
X48673345Y-133350000D01*
X48559271Y-132776511D01*
X48234415Y-132290330D01*
X47919634Y-132080000D01*
X48234415Y-131869670D01*
X48559271Y-131383489D01*
X48666776Y-130843026D01*
X49432401Y-130077401D01*
X49597148Y-129830840D01*
X49655000Y-129540000D01*
X49655000Y-128560958D01*
X49847500Y-128599940D01*
X51752500Y-128599940D01*
X51987817Y-128555662D01*
X52203941Y-128416590D01*
X52348931Y-128204390D01*
X52399940Y-127952500D01*
X52399940Y-127109862D01*
X57767401Y-121742401D01*
X57932148Y-121495839D01*
X57949223Y-121410000D01*
X58420000Y-121410000D01*
X58710839Y-121352148D01*
X58957401Y-121187401D01*
X59592401Y-120552401D01*
X59757148Y-120305839D01*
X59815000Y-120015000D01*
X59815000Y-116767463D01*
X59847192Y-116735327D01*
X59989838Y-116391799D01*
X59990162Y-116019833D01*
X59855944Y-115695000D01*
X60010198Y-115695000D01*
X62105000Y-117789802D01*
X62105000Y-120755515D01*
X61911890Y-120623569D01*
X61660000Y-120572560D01*
X60260000Y-120572560D01*
X60024683Y-120616838D01*
X59808559Y-120755910D01*
X59663569Y-120968110D01*
X59612560Y-121220000D01*
X59612560Y-122192638D01*
X56335131Y-125470067D01*
X56197159Y-125412776D01*
X55565612Y-125412225D01*
X54981928Y-125653398D01*
X54534968Y-126099579D01*
X54292776Y-126682841D01*
X54292225Y-127314388D01*
X54533398Y-127898072D01*
X54979579Y-128345032D01*
X55562841Y-128587224D01*
X56194388Y-128587775D01*
X56778072Y-128346602D01*
X57225032Y-127900421D01*
X57467224Y-127317159D01*
X57467775Y-126685612D01*
X57409712Y-126545090D01*
X60687362Y-123267440D01*
X61660000Y-123267440D01*
X61895317Y-123223162D01*
X62105000Y-123088235D01*
X62105000Y-126050198D01*
X60215138Y-127940060D01*
X58737500Y-127940060D01*
X58502183Y-127984338D01*
X58286059Y-128123410D01*
X58141069Y-128335610D01*
X58090060Y-128587500D01*
X58090060Y-130492500D01*
X58134338Y-130727817D01*
X58273410Y-130943941D01*
X58485610Y-131088931D01*
X58737500Y-131139940D01*
X60642500Y-131139940D01*
X60877817Y-131095662D01*
X61093941Y-130956590D01*
X61238931Y-130744390D01*
X61289940Y-130492500D01*
X61289940Y-129854388D01*
X63182225Y-129854388D01*
X63423398Y-130438072D01*
X63869579Y-130885032D01*
X64452841Y-131127224D01*
X65084388Y-131127775D01*
X65161894Y-131095750D01*
X67245000Y-131095750D01*
X67245000Y-131636310D01*
X67341673Y-131869699D01*
X67520302Y-132048327D01*
X67753691Y-132145000D01*
X68294250Y-132145000D01*
X68453000Y-131986250D01*
X68453000Y-130937000D01*
X68707000Y-130937000D01*
X68707000Y-131986250D01*
X68865750Y-132145000D01*
X69406309Y-132145000D01*
X69639698Y-132048327D01*
X69818327Y-131869699D01*
X69915000Y-131636310D01*
X69915000Y-131095750D01*
X69756250Y-130937000D01*
X68707000Y-130937000D01*
X68453000Y-130937000D01*
X67403750Y-130937000D01*
X67245000Y-131095750D01*
X65161894Y-131095750D01*
X65668072Y-130886602D01*
X66115032Y-130440421D01*
X66173340Y-130300000D01*
X67245000Y-130300000D01*
X67245000Y-130524250D01*
X67403750Y-130683000D01*
X68453000Y-130683000D01*
X68453000Y-130663000D01*
X68707000Y-130663000D01*
X68707000Y-130683000D01*
X69756250Y-130683000D01*
X69915000Y-130524250D01*
X69915000Y-130300000D01*
X72075198Y-130300000D01*
X72266725Y-130491527D01*
X72245232Y-130543287D01*
X72244769Y-131074383D01*
X72447582Y-131565229D01*
X72822796Y-131941098D01*
X73313287Y-132144768D01*
X73844383Y-132145231D01*
X74335229Y-131942418D01*
X74711098Y-131567204D01*
X74914768Y-131076713D01*
X74915231Y-130545617D01*
X74828380Y-130335422D01*
X75831680Y-129332122D01*
X75877167Y-129332162D01*
X76220943Y-129190117D01*
X76484192Y-128927327D01*
X76626838Y-128583799D01*
X76626910Y-128501712D01*
X78662560Y-130537362D01*
X78662560Y-131510000D01*
X78706838Y-131745317D01*
X78845910Y-131961441D01*
X79058110Y-132106431D01*
X79310000Y-132157440D01*
X80710000Y-132157440D01*
X80945317Y-132113162D01*
X81161441Y-131974090D01*
X81306431Y-131761890D01*
X81357440Y-131510000D01*
X81357440Y-130110000D01*
X81313162Y-129874683D01*
X81174090Y-129658559D01*
X80961890Y-129513569D01*
X80710000Y-129462560D01*
X79737362Y-129462560D01*
X75467401Y-125192599D01*
X75220839Y-125027852D01*
X74930000Y-124970000D01*
X74707655Y-124970000D01*
X74340000Y-124601703D01*
X74340000Y-123457802D01*
X75784901Y-122012901D01*
X75835494Y-121937183D01*
X75835226Y-122243694D01*
X76083538Y-122844655D01*
X76542927Y-123304846D01*
X77143453Y-123554206D01*
X77793694Y-123554774D01*
X77960889Y-123485691D01*
X79203731Y-124728533D01*
X78878902Y-125052796D01*
X78675232Y-125543287D01*
X78674769Y-126074383D01*
X78877582Y-126565229D01*
X79252796Y-126941098D01*
X79743287Y-127144768D01*
X80274383Y-127145231D01*
X80765229Y-126942418D01*
X81141098Y-126567204D01*
X81344768Y-126076713D01*
X81345231Y-125545617D01*
X81142418Y-125054771D01*
X80770000Y-124681703D01*
X80770000Y-124460000D01*
X80712148Y-124169161D01*
X80712148Y-124169160D01*
X80547401Y-123922599D01*
X79035885Y-122411083D01*
X79104206Y-122246547D01*
X79104774Y-121596306D01*
X78856462Y-120995345D01*
X78397073Y-120535154D01*
X77796547Y-120285794D01*
X77146306Y-120285226D01*
X76545345Y-120533538D01*
X76085154Y-120992927D01*
X76007500Y-121179939D01*
X76007500Y-120441944D01*
X76258167Y-120442162D01*
X76601943Y-120300117D01*
X76865192Y-120037327D01*
X77007838Y-119693799D01*
X77008162Y-119321833D01*
X76866117Y-118978057D01*
X76642500Y-118754049D01*
X76642500Y-113186192D01*
X76710000Y-113214221D01*
X76710000Y-116713000D01*
X76767852Y-117003839D01*
X76932599Y-117250401D01*
X81586908Y-121904710D01*
X81398559Y-122025910D01*
X81253569Y-122238110D01*
X81202560Y-122490000D01*
X81202560Y-123890000D01*
X81246838Y-124125317D01*
X81385910Y-124341441D01*
X81598110Y-124486431D01*
X81850000Y-124537440D01*
X83250000Y-124537440D01*
X83485317Y-124493162D01*
X83701441Y-124354090D01*
X83802626Y-124206000D01*
X91427560Y-124206000D01*
X91427560Y-128016000D01*
X91471838Y-128251317D01*
X91610910Y-128467441D01*
X91823110Y-128612431D01*
X91950000Y-128638127D01*
X91950000Y-129667000D01*
X92007852Y-129957839D01*
X92172599Y-130204401D01*
X93188599Y-131220401D01*
X93435161Y-131385148D01*
X93726000Y-131443000D01*
X99695000Y-131443000D01*
X99985839Y-131385148D01*
X100232401Y-131220401D01*
X102645401Y-128807401D01*
X102810148Y-128560840D01*
X102868000Y-128270000D01*
X102868000Y-117408802D01*
X108868401Y-111408401D01*
X109033148Y-111161839D01*
X109091000Y-110871000D01*
X109091000Y-102803802D01*
X116462848Y-95431954D01*
X116540729Y-95823489D01*
X116865585Y-96309670D01*
X117180366Y-96520000D01*
X116865585Y-96730330D01*
X116540729Y-97216511D01*
X116426655Y-97790000D01*
X116540729Y-98363489D01*
X116865585Y-98849670D01*
X117180366Y-99060000D01*
X116865585Y-99270330D01*
X116540729Y-99756511D01*
X116426655Y-100330000D01*
X116540729Y-100903489D01*
X116865585Y-101389670D01*
X117180366Y-101600000D01*
X116865585Y-101810330D01*
X116540729Y-102296511D01*
X116426655Y-102870000D01*
X116540729Y-103443489D01*
X116865585Y-103929670D01*
X117180366Y-104140000D01*
X116865585Y-104350330D01*
X116540729Y-104836511D01*
X116426655Y-105410000D01*
X116540729Y-105983489D01*
X116865585Y-106469670D01*
X117180366Y-106680000D01*
X116865585Y-106890330D01*
X116540729Y-107376511D01*
X116426655Y-107950000D01*
X116540729Y-108523489D01*
X116865585Y-109009670D01*
X117180366Y-109220000D01*
X116865585Y-109430330D01*
X116540729Y-109916511D01*
X116426655Y-110490000D01*
X116540729Y-111063489D01*
X116865585Y-111549670D01*
X117180366Y-111760000D01*
X116865585Y-111970330D01*
X116540729Y-112456511D01*
X116426655Y-113030000D01*
X116540729Y-113603489D01*
X116865585Y-114089670D01*
X117180366Y-114300000D01*
X116865585Y-114510330D01*
X116540729Y-114996511D01*
X116426655Y-115570000D01*
X116540729Y-116143489D01*
X116865585Y-116629670D01*
X117180366Y-116840000D01*
X116865585Y-117050330D01*
X116540729Y-117536511D01*
X116426655Y-118110000D01*
X116540729Y-118683489D01*
X116865585Y-119169670D01*
X117180366Y-119380000D01*
X116865585Y-119590330D01*
X116540729Y-120076511D01*
X116426655Y-120650000D01*
X116540729Y-121223489D01*
X116865585Y-121709670D01*
X117180366Y-121920000D01*
X116865585Y-122130330D01*
X116540729Y-122616511D01*
X116426655Y-123190000D01*
X116540729Y-123763489D01*
X116865585Y-124249670D01*
X117180366Y-124460000D01*
X116865585Y-124670330D01*
X116540729Y-125156511D01*
X116426655Y-125730000D01*
X116540729Y-126303489D01*
X116865585Y-126789670D01*
X117180366Y-127000000D01*
X116865585Y-127210330D01*
X116540729Y-127696511D01*
X116426655Y-128270000D01*
X116540729Y-128843489D01*
X116865585Y-129329670D01*
X117180366Y-129540000D01*
X116865585Y-129750330D01*
X116540729Y-130236511D01*
X116426655Y-130810000D01*
X116540729Y-131383489D01*
X116865585Y-131869670D01*
X117180366Y-132080000D01*
X116865585Y-132290330D01*
X116540729Y-132776511D01*
X116426655Y-133350000D01*
X116540729Y-133923489D01*
X116865585Y-134409670D01*
X117351766Y-134734526D01*
X117925255Y-134848600D01*
X118294745Y-134848600D01*
X118868234Y-134734526D01*
X119354415Y-134409670D01*
X119679271Y-133923489D01*
X119793345Y-133350000D01*
X119679271Y-132776511D01*
X119354415Y-132290330D01*
X119039634Y-132080000D01*
X119354415Y-131869670D01*
X119679271Y-131383489D01*
X119793345Y-130810000D01*
X119679271Y-130236511D01*
X119354415Y-129750330D01*
X119039634Y-129540000D01*
X119354415Y-129329670D01*
X119679271Y-128843489D01*
X119793345Y-128270000D01*
X119679271Y-127696511D01*
X119354415Y-127210330D01*
X119039634Y-127000000D01*
X119354415Y-126789670D01*
X119679271Y-126303489D01*
X119793345Y-125730000D01*
X119679271Y-125156511D01*
X119354415Y-124670330D01*
X119039634Y-124460000D01*
X119354415Y-124249670D01*
X119679271Y-123763489D01*
X119793345Y-123190000D01*
X119679271Y-122616511D01*
X119354415Y-122130330D01*
X119039634Y-121920000D01*
X119354415Y-121709670D01*
X119679271Y-121223489D01*
X119793345Y-120650000D01*
X119679271Y-120076511D01*
X119354415Y-119590330D01*
X119039634Y-119380000D01*
X119354415Y-119169670D01*
X119679271Y-118683489D01*
X119793345Y-118110000D01*
X119679271Y-117536511D01*
X119354415Y-117050330D01*
X119039634Y-116840000D01*
X119354415Y-116629670D01*
X119679271Y-116143489D01*
X119793345Y-115570000D01*
X119679271Y-114996511D01*
X119354415Y-114510330D01*
X119039634Y-114300000D01*
X119354415Y-114089670D01*
X119679271Y-113603489D01*
X119793345Y-113030000D01*
X119679271Y-112456511D01*
X119354415Y-111970330D01*
X119039634Y-111760000D01*
X119354415Y-111549670D01*
X119679271Y-111063489D01*
X119793345Y-110490000D01*
X119679271Y-109916511D01*
X119354415Y-109430330D01*
X119039634Y-109220000D01*
X119354415Y-109009670D01*
X119679271Y-108523489D01*
X119793345Y-107950000D01*
X119679271Y-107376511D01*
X119354415Y-106890330D01*
X119039634Y-106680000D01*
X119354415Y-106469670D01*
X119679271Y-105983489D01*
X119793345Y-105410000D01*
X119679271Y-104836511D01*
X119354415Y-104350330D01*
X119039634Y-104140000D01*
X119354415Y-103929670D01*
X119679271Y-103443489D01*
X119793345Y-102870000D01*
X119679271Y-102296511D01*
X119354415Y-101810330D01*
X119039634Y-101600000D01*
X119354415Y-101389670D01*
X119679271Y-100903489D01*
X119793345Y-100330000D01*
X119679271Y-99756511D01*
X119354415Y-99270330D01*
X119039634Y-99060000D01*
X119354415Y-98849670D01*
X119679271Y-98363489D01*
X119793345Y-97790000D01*
X119679271Y-97216511D01*
X119354415Y-96730330D01*
X119039634Y-96520000D01*
X119354415Y-96309670D01*
X119679271Y-95823489D01*
X119793345Y-95250000D01*
X119679271Y-94676511D01*
X119354415Y-94190330D01*
X119039634Y-93980000D01*
X119354415Y-93769670D01*
X119679271Y-93283489D01*
X119793345Y-92710000D01*
X119679271Y-92136511D01*
X119354415Y-91650330D01*
X119039634Y-91440000D01*
X119354415Y-91229670D01*
X119679271Y-90743489D01*
X119793345Y-90170000D01*
X119679271Y-89596511D01*
X119354415Y-89110330D01*
X119332220Y-89095500D01*
X119485699Y-89031927D01*
X119664327Y-88853298D01*
X119761000Y-88619909D01*
X119761000Y-87915750D01*
X119602250Y-87757000D01*
X118237000Y-87757000D01*
X118237000Y-87777000D01*
X117983000Y-87777000D01*
X117983000Y-87757000D01*
X116617750Y-87757000D01*
X116459000Y-87915750D01*
X116459000Y-88619909D01*
X116555673Y-88853298D01*
X116734301Y-89031927D01*
X116887780Y-89095500D01*
X116865585Y-89110330D01*
X116540729Y-89596511D01*
X116426655Y-90170000D01*
X116540729Y-90743489D01*
X116865585Y-91229670D01*
X117180366Y-91440000D01*
X116865585Y-91650330D01*
X116540729Y-92136511D01*
X116426655Y-92710000D01*
X116527619Y-93217579D01*
X107793599Y-101951599D01*
X107628852Y-102198161D01*
X107571000Y-102489000D01*
X107571000Y-110556198D01*
X101570599Y-116556599D01*
X101405852Y-116803161D01*
X101348000Y-117094000D01*
X101348000Y-127955198D01*
X99380198Y-129923000D01*
X94040802Y-129923000D01*
X93470000Y-129352198D01*
X93470000Y-128639920D01*
X93580317Y-128619162D01*
X93796441Y-128480090D01*
X93941431Y-128267890D01*
X93979543Y-128079686D01*
X94011838Y-128251317D01*
X94150910Y-128467441D01*
X94363110Y-128612431D01*
X94615000Y-128663440D01*
X95885000Y-128663440D01*
X96120317Y-128619162D01*
X96336441Y-128480090D01*
X96481431Y-128267890D01*
X96520000Y-128077431D01*
X96520000Y-128142309D01*
X96616673Y-128375698D01*
X96795301Y-128554327D01*
X97028690Y-128651000D01*
X97504250Y-128651000D01*
X97663000Y-128492250D01*
X97663000Y-126238000D01*
X97917000Y-126238000D01*
X97917000Y-128492250D01*
X98075750Y-128651000D01*
X98551310Y-128651000D01*
X98784699Y-128554327D01*
X98963327Y-128375698D01*
X99060000Y-128142309D01*
X99060000Y-126396750D01*
X98901250Y-126238000D01*
X97917000Y-126238000D01*
X97663000Y-126238000D01*
X97643000Y-126238000D01*
X97643000Y-125984000D01*
X97663000Y-125984000D01*
X97663000Y-123729750D01*
X97917000Y-123729750D01*
X97917000Y-125984000D01*
X98901250Y-125984000D01*
X99060000Y-125825250D01*
X99060000Y-124079691D01*
X98963327Y-123846302D01*
X98784699Y-123667673D01*
X98551310Y-123571000D01*
X98075750Y-123571000D01*
X97917000Y-123729750D01*
X97663000Y-123729750D01*
X97504250Y-123571000D01*
X97028690Y-123571000D01*
X96795301Y-123667673D01*
X96616673Y-123846302D01*
X96520000Y-124079691D01*
X96520000Y-124139887D01*
X96488162Y-123970683D01*
X96349090Y-123754559D01*
X96136890Y-123609569D01*
X95885000Y-123558560D01*
X94615000Y-123558560D01*
X94379683Y-123602838D01*
X94163559Y-123741910D01*
X94018569Y-123954110D01*
X93980457Y-124142314D01*
X93948162Y-123970683D01*
X93809090Y-123754559D01*
X93596890Y-123609569D01*
X93345000Y-123558560D01*
X92075000Y-123558560D01*
X91839683Y-123602838D01*
X91623559Y-123741910D01*
X91478569Y-123954110D01*
X91427560Y-124206000D01*
X83802626Y-124206000D01*
X83846431Y-124141890D01*
X83897440Y-123890000D01*
X83897440Y-122490000D01*
X83853162Y-122254683D01*
X83714090Y-122038559D01*
X83501890Y-121893569D01*
X83310000Y-121854710D01*
X83310000Y-121793000D01*
X83252148Y-121502161D01*
X83087401Y-121255599D01*
X78230000Y-116398198D01*
X78230000Y-113214496D01*
X78394655Y-113146462D01*
X78854846Y-112687073D01*
X79104206Y-112086547D01*
X79104774Y-111436306D01*
X78856462Y-110835345D01*
X78763280Y-110742000D01*
X78933198Y-110742000D01*
X81790000Y-113598802D01*
X81790000Y-114233850D01*
X81614683Y-114266838D01*
X81398559Y-114405910D01*
X81253569Y-114618110D01*
X81202560Y-114870000D01*
X81202560Y-116270000D01*
X81246838Y-116505317D01*
X81385910Y-116721441D01*
X81598110Y-116866431D01*
X81850000Y-116917440D01*
X82133941Y-116917440D01*
X81794771Y-117057582D01*
X81418902Y-117432796D01*
X81215232Y-117923287D01*
X81214769Y-118454383D01*
X81417582Y-118945229D01*
X81792796Y-119321098D01*
X82283287Y-119524768D01*
X82814383Y-119525231D01*
X83305229Y-119322418D01*
X83681098Y-118947204D01*
X83884768Y-118456713D01*
X83885228Y-117929574D01*
X84357401Y-117457401D01*
X84522148Y-117210840D01*
X84580000Y-116920000D01*
X84580000Y-113594802D01*
X86282560Y-115297362D01*
X86282560Y-116270000D01*
X86326838Y-116505317D01*
X86465910Y-116721441D01*
X86678110Y-116866431D01*
X86930000Y-116917440D01*
X88330000Y-116917440D01*
X88565317Y-116873162D01*
X88781441Y-116734090D01*
X88926431Y-116521890D01*
X88977440Y-116270000D01*
X88977440Y-114870000D01*
X88933162Y-114634683D01*
X88794090Y-114418559D01*
X88581890Y-114273569D01*
X88330000Y-114222560D01*
X87357362Y-114222560D01*
X85596000Y-112461198D01*
X85596000Y-112083694D01*
X91075226Y-112083694D01*
X91323538Y-112684655D01*
X91782927Y-113144846D01*
X92383453Y-113394206D01*
X93033694Y-113394774D01*
X93634655Y-113146462D01*
X94094846Y-112687073D01*
X94164221Y-112520000D01*
X95330000Y-112520000D01*
X95620839Y-112462148D01*
X95867401Y-112297401D01*
X96340028Y-111824774D01*
X96864383Y-111825231D01*
X97355229Y-111622418D01*
X97538000Y-111439966D01*
X97538000Y-112991953D01*
X97440117Y-112755057D01*
X97177327Y-112491808D01*
X96833799Y-112349162D01*
X96461833Y-112348838D01*
X96118057Y-112490883D01*
X96084882Y-112524000D01*
X95631000Y-112524000D01*
X95340161Y-112581852D01*
X95093599Y-112746599D01*
X92172599Y-115667599D01*
X92007852Y-115914161D01*
X91950000Y-116205000D01*
X91950000Y-117740080D01*
X91839683Y-117760838D01*
X91623559Y-117899910D01*
X91478569Y-118112110D01*
X91427560Y-118364000D01*
X91427560Y-122174000D01*
X91471838Y-122409317D01*
X91610910Y-122625441D01*
X91823110Y-122770431D01*
X92075000Y-122821440D01*
X93345000Y-122821440D01*
X93580317Y-122777162D01*
X93796441Y-122638090D01*
X93941431Y-122425890D01*
X93980000Y-122235431D01*
X93980000Y-122300309D01*
X94076673Y-122533698D01*
X94255301Y-122712327D01*
X94488690Y-122809000D01*
X94964250Y-122809000D01*
X95123000Y-122650250D01*
X95123000Y-120396000D01*
X95103000Y-120396000D01*
X95103000Y-120142000D01*
X95123000Y-120142000D01*
X95123000Y-117887750D01*
X94964250Y-117729000D01*
X94488690Y-117729000D01*
X94255301Y-117825673D01*
X94076673Y-118004302D01*
X93980000Y-118237691D01*
X93980000Y-118297887D01*
X93948162Y-118128683D01*
X93809090Y-117912559D01*
X93596890Y-117767569D01*
X93470000Y-117741873D01*
X93470000Y-116519802D01*
X95945802Y-114044000D01*
X96084537Y-114044000D01*
X96116673Y-114076192D01*
X96460201Y-114218838D01*
X96832167Y-114219162D01*
X97175943Y-114077117D01*
X97439192Y-113814327D01*
X97538000Y-113576372D01*
X97538000Y-116017198D01*
X97252599Y-116302599D01*
X97087852Y-116549161D01*
X97030000Y-116840000D01*
X97030000Y-117740080D01*
X96919683Y-117760838D01*
X96703559Y-117899910D01*
X96558569Y-118112110D01*
X96520000Y-118302569D01*
X96520000Y-118237691D01*
X96423327Y-118004302D01*
X96244699Y-117825673D01*
X96011310Y-117729000D01*
X95535750Y-117729000D01*
X95377000Y-117887750D01*
X95377000Y-120142000D01*
X95397000Y-120142000D01*
X95397000Y-120396000D01*
X95377000Y-120396000D01*
X95377000Y-122650250D01*
X95535750Y-122809000D01*
X96011310Y-122809000D01*
X96244699Y-122712327D01*
X96423327Y-122533698D01*
X96520000Y-122300309D01*
X96520000Y-122240113D01*
X96551838Y-122409317D01*
X96690910Y-122625441D01*
X96903110Y-122770431D01*
X97155000Y-122821440D01*
X98425000Y-122821440D01*
X98660317Y-122777162D01*
X98876441Y-122638090D01*
X99021431Y-122425890D01*
X99072440Y-122174000D01*
X99072440Y-118364000D01*
X99028162Y-118128683D01*
X98889090Y-117912559D01*
X98676890Y-117767569D01*
X98550000Y-117741873D01*
X98550000Y-117154802D01*
X98835401Y-116869401D01*
X98924986Y-116735327D01*
X99000148Y-116622839D01*
X99058000Y-116332000D01*
X99058000Y-109347000D01*
X99000148Y-109056161D01*
X98835401Y-108809599D01*
X97280000Y-107254198D01*
X97280000Y-106864496D01*
X97444655Y-106796462D01*
X97792000Y-106449722D01*
X97792000Y-107442000D01*
X97849852Y-107732839D01*
X98014599Y-107979401D01*
X100252560Y-110217362D01*
X100252560Y-111190000D01*
X100296838Y-111425317D01*
X100435910Y-111641441D01*
X100648110Y-111786431D01*
X100900000Y-111837440D01*
X102300000Y-111837440D01*
X102535317Y-111793162D01*
X102751441Y-111654090D01*
X102896431Y-111441890D01*
X102947440Y-111190000D01*
X102947440Y-109790000D01*
X102903162Y-109554683D01*
X102764090Y-109338559D01*
X102551890Y-109193569D01*
X102300000Y-109142560D01*
X101327362Y-109142560D01*
X99312000Y-107127198D01*
X99312000Y-106703760D01*
X99402927Y-106794846D01*
X100003453Y-107044206D01*
X100653694Y-107044774D01*
X101254655Y-106796462D01*
X101714846Y-106337073D01*
X101964206Y-105736547D01*
X101964774Y-105086306D01*
X101716462Y-104485345D01*
X101257073Y-104025154D01*
X100656547Y-103775794D01*
X100006306Y-103775226D01*
X99405345Y-104023538D01*
X99312000Y-104116720D01*
X99312000Y-100009802D01*
X100867401Y-98454401D01*
X101032148Y-98207839D01*
X101090000Y-97917000D01*
X101090000Y-96704496D01*
X101254655Y-96636462D01*
X101714846Y-96177073D01*
X101964206Y-95576547D01*
X101964774Y-94926306D01*
X101716462Y-94325345D01*
X101257073Y-93865154D01*
X100656547Y-93615794D01*
X100006306Y-93615226D01*
X99405345Y-93863538D01*
X98945154Y-94322927D01*
X98695794Y-94923453D01*
X98695226Y-95573694D01*
X98943538Y-96174655D01*
X99402927Y-96634846D01*
X99570000Y-96704221D01*
X99570000Y-97602198D01*
X98014599Y-99157599D01*
X97849852Y-99404161D01*
X97792000Y-99695000D01*
X97792000Y-104370683D01*
X97447073Y-104025154D01*
X96846547Y-103775794D01*
X96196306Y-103775226D01*
X95595345Y-104023538D01*
X95135154Y-104482927D01*
X94885794Y-105083453D01*
X94885226Y-105733694D01*
X95133538Y-106334655D01*
X95592927Y-106794846D01*
X95760000Y-106864221D01*
X95760000Y-107569000D01*
X95817852Y-107859839D01*
X95982599Y-108106401D01*
X97148395Y-109272197D01*
X96866713Y-109155232D01*
X96335617Y-109154769D01*
X95844771Y-109357582D01*
X95468902Y-109732796D01*
X95265232Y-110223287D01*
X95264772Y-110750426D01*
X95015198Y-111000000D01*
X94164496Y-111000000D01*
X94096462Y-110835345D01*
X93637073Y-110375154D01*
X93036547Y-110125794D01*
X92386306Y-110125226D01*
X91785345Y-110373538D01*
X91325154Y-110832927D01*
X91075794Y-111433453D01*
X91075226Y-112083694D01*
X85596000Y-112083694D01*
X85596000Y-111505275D01*
X86874331Y-111505275D01*
X86936169Y-111741042D01*
X87437122Y-111917419D01*
X87967440Y-111888664D01*
X88323831Y-111741042D01*
X88385669Y-111505275D01*
X87630000Y-110749605D01*
X86874331Y-111505275D01*
X85596000Y-111505275D01*
X85596000Y-110377122D01*
X86282581Y-110377122D01*
X86311336Y-110907440D01*
X86458958Y-111263831D01*
X86694725Y-111325669D01*
X87450395Y-110570000D01*
X87809605Y-110570000D01*
X88565275Y-111325669D01*
X88801042Y-111263831D01*
X88977419Y-110762878D01*
X88948664Y-110232560D01*
X88801042Y-109876169D01*
X88565275Y-109814331D01*
X87809605Y-110570000D01*
X87450395Y-110570000D01*
X86694725Y-109814331D01*
X86458958Y-109876169D01*
X86282581Y-110377122D01*
X85596000Y-110377122D01*
X85596000Y-109634725D01*
X86874331Y-109634725D01*
X87630000Y-110390395D01*
X88385669Y-109634725D01*
X88323831Y-109398958D01*
X87822878Y-109222581D01*
X87292560Y-109251336D01*
X86936169Y-109398958D01*
X86874331Y-109634725D01*
X85596000Y-109634725D01*
X85596000Y-108966000D01*
X85588672Y-108929160D01*
X85538148Y-108675160D01*
X85373401Y-108428599D01*
X83447401Y-106502599D01*
X83200839Y-106337852D01*
X82910000Y-106280000D01*
X81087500Y-106280000D01*
X81087500Y-105092500D01*
X81029648Y-104801661D01*
X80945088Y-104675107D01*
X80945162Y-104589833D01*
X80803117Y-104246057D01*
X80540327Y-103982808D01*
X80196799Y-103840162D01*
X79824833Y-103839838D01*
X79481057Y-103981883D01*
X79217808Y-104244673D01*
X79075162Y-104588201D01*
X79074838Y-104960167D01*
X79216883Y-105303943D01*
X79479673Y-105567192D01*
X79567500Y-105603661D01*
X79567500Y-106267680D01*
X79497192Y-106253442D01*
X79473750Y-106230000D01*
X79393690Y-106230000D01*
X79389665Y-106231667D01*
X79320000Y-106217560D01*
X78870000Y-106217560D01*
X78766329Y-106237067D01*
X78670000Y-106217560D01*
X78220000Y-106217560D01*
X78148677Y-106230980D01*
X78146310Y-106230000D01*
X78066250Y-106230000D01*
X78045938Y-106250312D01*
X77984683Y-106261838D01*
X77792773Y-106385329D01*
X77621890Y-106268569D01*
X77547192Y-106253442D01*
X77523750Y-106230000D01*
X77443690Y-106230000D01*
X77439665Y-106231667D01*
X77370000Y-106217560D01*
X76920000Y-106217560D01*
X76816329Y-106237067D01*
X76720000Y-106217560D01*
X76270000Y-106217560D01*
X76166329Y-106237067D01*
X76070000Y-106217560D01*
X75620000Y-106217560D01*
X75516329Y-106237067D01*
X75420000Y-106217560D01*
X74970000Y-106217560D01*
X74866329Y-106237067D01*
X74770000Y-106217560D01*
X74320000Y-106217560D01*
X74084683Y-106261838D01*
X73868559Y-106400910D01*
X73723569Y-106613110D01*
X73672560Y-106865000D01*
X73672560Y-108615000D01*
X73716838Y-108850317D01*
X73852500Y-109061142D01*
X73852500Y-119001697D01*
X73539234Y-119314964D01*
X73315617Y-119314769D01*
X72824771Y-119517582D01*
X72448902Y-119892796D01*
X72245232Y-120383287D01*
X72244769Y-120914383D01*
X72447582Y-121405229D01*
X72822796Y-121781098D01*
X73313287Y-121984768D01*
X73663125Y-121985073D01*
X73042599Y-122605599D01*
X72877852Y-122852161D01*
X72820000Y-123143000D01*
X72820000Y-123895198D01*
X72212401Y-123287599D01*
X71965839Y-123122852D01*
X71675000Y-123065000D01*
X68894802Y-123065000D01*
X67814802Y-121985000D01*
X68294250Y-121985000D01*
X68453000Y-121826250D01*
X68453000Y-120777000D01*
X68707000Y-120777000D01*
X68707000Y-121826250D01*
X68865750Y-121985000D01*
X69406309Y-121985000D01*
X69639698Y-121888327D01*
X69818327Y-121709699D01*
X69915000Y-121476310D01*
X69915000Y-120935750D01*
X69756250Y-120777000D01*
X68707000Y-120777000D01*
X68453000Y-120777000D01*
X67403750Y-120777000D01*
X67245000Y-120935750D01*
X67245000Y-121415198D01*
X67212401Y-121382599D01*
X67170989Y-121354929D01*
X67092418Y-121164771D01*
X66717204Y-120788902D01*
X66226713Y-120585232D01*
X65695617Y-120584769D01*
X65204771Y-120787582D01*
X64828902Y-121162796D01*
X64625232Y-121653287D01*
X64624769Y-122184383D01*
X64827582Y-122675229D01*
X65202796Y-123051098D01*
X65693287Y-123254768D01*
X66224383Y-123255231D01*
X66715229Y-123052418D01*
X66723930Y-123043732D01*
X68042599Y-124362401D01*
X68091387Y-124395000D01*
X67753691Y-124395000D01*
X67520302Y-124491673D01*
X67341673Y-124670301D01*
X67245000Y-124903690D01*
X67245000Y-125444250D01*
X67403750Y-125603000D01*
X68453000Y-125603000D01*
X68453000Y-125583000D01*
X68707000Y-125583000D01*
X68707000Y-125603000D01*
X69756250Y-125603000D01*
X69915000Y-125444250D01*
X69915000Y-124903690D01*
X69818327Y-124670301D01*
X69733026Y-124585000D01*
X71360198Y-124585000D01*
X72245226Y-125470028D01*
X72244769Y-125994383D01*
X72447582Y-126485229D01*
X72822796Y-126861098D01*
X73313287Y-127064768D01*
X73844383Y-127065231D01*
X74335229Y-126862418D01*
X74661707Y-126536509D01*
X75587106Y-127461908D01*
X75506833Y-127461838D01*
X75163057Y-127603883D01*
X74899808Y-127866673D01*
X74757162Y-128210201D01*
X74757121Y-128257077D01*
X73539234Y-129474964D01*
X73399644Y-129474842D01*
X72927401Y-129002599D01*
X72680839Y-128837852D01*
X72390000Y-128780000D01*
X66173652Y-128780000D01*
X66116602Y-128641928D01*
X65670421Y-128194968D01*
X65087159Y-127952776D01*
X64455612Y-127952225D01*
X63871928Y-128193398D01*
X63424968Y-128639579D01*
X63182776Y-129222841D01*
X63182225Y-129854388D01*
X61289940Y-129854388D01*
X61289940Y-129014862D01*
X63402401Y-126902401D01*
X63567148Y-126655839D01*
X63625000Y-126365000D01*
X63625000Y-126015750D01*
X67245000Y-126015750D01*
X67245000Y-126556310D01*
X67341673Y-126789699D01*
X67520302Y-126968327D01*
X67753691Y-127065000D01*
X68294250Y-127065000D01*
X68453000Y-126906250D01*
X68453000Y-125857000D01*
X68707000Y-125857000D01*
X68707000Y-126906250D01*
X68865750Y-127065000D01*
X69406309Y-127065000D01*
X69639698Y-126968327D01*
X69818327Y-126789699D01*
X69915000Y-126556310D01*
X69915000Y-126015750D01*
X69756250Y-125857000D01*
X68707000Y-125857000D01*
X68453000Y-125857000D01*
X67403750Y-125857000D01*
X67245000Y-126015750D01*
X63625000Y-126015750D01*
X63625000Y-119823690D01*
X67245000Y-119823690D01*
X67245000Y-120364250D01*
X67403750Y-120523000D01*
X68453000Y-120523000D01*
X68453000Y-119473750D01*
X68707000Y-119473750D01*
X68707000Y-120523000D01*
X69756250Y-120523000D01*
X69915000Y-120364250D01*
X69915000Y-119823690D01*
X69818327Y-119590301D01*
X69639698Y-119411673D01*
X69406309Y-119315000D01*
X68865750Y-119315000D01*
X68707000Y-119473750D01*
X68453000Y-119473750D01*
X68294250Y-119315000D01*
X67753691Y-119315000D01*
X67520302Y-119411673D01*
X67341673Y-119590301D01*
X67245000Y-119823690D01*
X63625000Y-119823690D01*
X63625000Y-117475000D01*
X63567148Y-117184161D01*
X63567148Y-117184160D01*
X63402401Y-116937599D01*
X62349190Y-115884388D01*
X68262225Y-115884388D01*
X68503398Y-116468072D01*
X68949579Y-116915032D01*
X69532841Y-117157224D01*
X70164388Y-117157775D01*
X70748072Y-116916602D01*
X71195032Y-116470421D01*
X71437224Y-115887159D01*
X71437775Y-115255612D01*
X71196602Y-114671928D01*
X70750421Y-114224968D01*
X70167159Y-113982776D01*
X69535612Y-113982225D01*
X68951928Y-114223398D01*
X68504968Y-114669579D01*
X68262776Y-115252841D01*
X68262225Y-115884388D01*
X62349190Y-115884388D01*
X60862401Y-114397599D01*
X60615839Y-114232852D01*
X60325000Y-114175000D01*
X57990000Y-114175000D01*
X57990000Y-102360000D01*
X60397537Y-102360000D01*
X60429673Y-102392192D01*
X60773201Y-102534838D01*
X61145167Y-102535162D01*
X61488943Y-102393117D01*
X61752192Y-102130327D01*
X61894838Y-101786799D01*
X61895162Y-101414833D01*
X61753117Y-101071057D01*
X61490327Y-100807808D01*
X61346965Y-100748279D01*
X61464557Y-100726152D01*
X61476414Y-100718522D01*
X61477730Y-100719421D01*
X61729620Y-100770430D01*
X62730380Y-100770430D01*
X62965697Y-100726152D01*
X62971140Y-100722650D01*
X62971140Y-103380000D01*
X62456550Y-103380000D01*
X62456550Y-103292910D01*
X62412272Y-103057593D01*
X62273200Y-102841469D01*
X62061000Y-102696479D01*
X61809110Y-102645470D01*
X60109850Y-102645470D01*
X59874533Y-102689748D01*
X59658409Y-102828820D01*
X59513419Y-103041020D01*
X59462410Y-103292910D01*
X59462410Y-104992170D01*
X59506688Y-105227487D01*
X59645760Y-105443611D01*
X59857960Y-105588601D01*
X59934363Y-105604073D01*
X59702646Y-105835386D01*
X59476148Y-106380853D01*
X59475632Y-106971476D01*
X59701178Y-107517337D01*
X60118446Y-107935334D01*
X60200520Y-107969414D01*
X60200520Y-108839520D01*
X60258372Y-109130359D01*
X60423119Y-109376921D01*
X61328560Y-110282362D01*
X61328560Y-111000000D01*
X61026150Y-111000000D01*
X60993162Y-110824683D01*
X60854090Y-110608559D01*
X60641890Y-110463569D01*
X60390000Y-110412560D01*
X58990000Y-110412560D01*
X58754683Y-110456838D01*
X58538559Y-110595910D01*
X58393569Y-110808110D01*
X58342560Y-111060000D01*
X58342560Y-112460000D01*
X58386838Y-112695317D01*
X58525910Y-112911441D01*
X58738110Y-113056431D01*
X58990000Y-113107440D01*
X60390000Y-113107440D01*
X60625317Y-113063162D01*
X60841441Y-112924090D01*
X60986431Y-112711890D01*
X61025290Y-112520000D01*
X64135000Y-112520000D01*
X64425839Y-112462148D01*
X64672401Y-112297401D01*
X64926401Y-112043401D01*
X65091148Y-111796840D01*
X65098801Y-111758365D01*
X65259317Y-111728162D01*
X65475441Y-111589090D01*
X65620431Y-111376890D01*
X65671440Y-111125000D01*
X65671440Y-109855000D01*
X65627162Y-109619683D01*
X65574279Y-109537500D01*
X68250060Y-109537500D01*
X68250060Y-111442500D01*
X68294338Y-111677817D01*
X68433410Y-111893941D01*
X68645610Y-112038931D01*
X68897500Y-112089940D01*
X70802500Y-112089940D01*
X71037817Y-112045662D01*
X71253941Y-111906590D01*
X71398931Y-111694390D01*
X71449940Y-111442500D01*
X71449940Y-109537500D01*
X71405662Y-109302183D01*
X71266590Y-109086059D01*
X71054390Y-108941069D01*
X70802500Y-108890060D01*
X70610000Y-108890060D01*
X70610000Y-106867802D01*
X73291680Y-104186122D01*
X73337167Y-104186162D01*
X73680943Y-104044117D01*
X73944192Y-103781327D01*
X74086838Y-103437799D01*
X74087162Y-103065833D01*
X73945117Y-102722057D01*
X73682327Y-102458808D01*
X73338799Y-102316162D01*
X72966833Y-102315838D01*
X72623057Y-102457883D01*
X72359808Y-102720673D01*
X72217162Y-103064201D01*
X72217121Y-103111077D01*
X69312599Y-106015599D01*
X69147852Y-106262161D01*
X69090000Y-106553000D01*
X69090000Y-108890060D01*
X68897500Y-108890060D01*
X68662183Y-108934338D01*
X68446059Y-109073410D01*
X68301069Y-109285610D01*
X68250060Y-109537500D01*
X65574279Y-109537500D01*
X65488090Y-109403559D01*
X65275890Y-109258569D01*
X65024000Y-109207560D01*
X63754000Y-109207560D01*
X63518683Y-109251838D01*
X63502901Y-109261993D01*
X63497890Y-109258569D01*
X63246000Y-109207560D01*
X62403362Y-109207560D01*
X61720520Y-108524718D01*
X61720520Y-107969807D01*
X61800397Y-107936802D01*
X62218394Y-107519534D01*
X62444892Y-106974067D01*
X62445408Y-106383444D01*
X62219862Y-105837583D01*
X61988532Y-105605849D01*
X62044427Y-105595332D01*
X62260551Y-105456260D01*
X62405541Y-105244060D01*
X62456550Y-104992170D01*
X62456550Y-104900000D01*
X63188032Y-104900000D01*
X63193739Y-104908541D01*
X63203725Y-104918527D01*
X63135284Y-105083352D01*
X63134716Y-105733795D01*
X63383106Y-106334943D01*
X63842637Y-106795278D01*
X64443352Y-107044716D01*
X65093795Y-107045284D01*
X65694943Y-106796894D01*
X66155278Y-106337363D01*
X66404716Y-105736648D01*
X66405284Y-105086205D01*
X66156894Y-104485057D01*
X65697363Y-104024722D01*
X65096648Y-103775284D01*
X64491140Y-103774755D01*
X64491140Y-100710513D01*
X64682961Y-100587080D01*
X64827951Y-100374880D01*
X64878960Y-100122990D01*
X64878960Y-97621090D01*
X64834682Y-97385773D01*
X64695610Y-97169649D01*
X64483410Y-97024659D01*
X64231520Y-96973650D01*
X63866076Y-96973650D01*
X63876930Y-96920050D01*
X63876930Y-96915750D01*
X63877953Y-96912537D01*
X63876930Y-96906654D01*
X63876930Y-92919550D01*
X63832652Y-92684233D01*
X63693580Y-92468109D01*
X63481380Y-92323119D01*
X63229490Y-92272110D01*
X61230510Y-92272110D01*
X60995193Y-92316388D01*
X60779069Y-92455460D01*
X60634079Y-92667660D01*
X60583070Y-92919550D01*
X60583070Y-96920050D01*
X60593156Y-96973650D01*
X60450000Y-96973650D01*
X60450000Y-90930000D01*
X62230000Y-90930000D01*
X62520839Y-90872148D01*
X62767401Y-90707401D01*
X63927362Y-89547440D01*
X64008000Y-89547440D01*
X64243317Y-89503162D01*
X64459441Y-89364090D01*
X64604431Y-89151890D01*
X64655440Y-88900000D01*
X64655440Y-86645750D01*
X66675000Y-86645750D01*
X66675000Y-89026310D01*
X66771673Y-89259699D01*
X66950302Y-89438327D01*
X67183691Y-89535000D01*
X67659250Y-89535000D01*
X67818000Y-89376250D01*
X67818000Y-86487000D01*
X68072000Y-86487000D01*
X68072000Y-89376250D01*
X68230750Y-89535000D01*
X68706309Y-89535000D01*
X68939698Y-89438327D01*
X69118327Y-89259699D01*
X69215000Y-89026310D01*
X69215000Y-86645750D01*
X69056250Y-86487000D01*
X68072000Y-86487000D01*
X67818000Y-86487000D01*
X66833750Y-86487000D01*
X66675000Y-86645750D01*
X64655440Y-86645750D01*
X64655440Y-84530000D01*
X66675000Y-84530000D01*
X66675000Y-86074250D01*
X66833750Y-86233000D01*
X67818000Y-86233000D01*
X67818000Y-86213000D01*
X68072000Y-86213000D01*
X68072000Y-86233000D01*
X69056250Y-86233000D01*
X69215000Y-86074250D01*
X69215000Y-84530000D01*
X76828198Y-84530000D01*
X71852599Y-89505599D01*
X71687852Y-89752161D01*
X71630000Y-90043000D01*
X71630000Y-92576348D01*
X71491928Y-92633398D01*
X71044968Y-93079579D01*
X70802776Y-93662841D01*
X70802225Y-94294388D01*
X71043398Y-94878072D01*
X71489579Y-95325032D01*
X72072841Y-95567224D01*
X72704388Y-95567775D01*
X73288072Y-95326602D01*
X73735032Y-94880421D01*
X73977224Y-94297159D01*
X73977775Y-93665612D01*
X73736602Y-93081928D01*
X73290421Y-92634968D01*
X73150000Y-92576660D01*
X73150000Y-90357802D01*
X78038802Y-85469000D01*
X78703042Y-85469000D01*
X78664060Y-85661500D01*
X78664060Y-87058500D01*
X78708338Y-87293817D01*
X78847410Y-87509941D01*
X79059610Y-87654931D01*
X79250000Y-87693486D01*
X79250000Y-88585198D01*
X79195131Y-88640067D01*
X79057159Y-88582776D01*
X78425612Y-88582225D01*
X77841928Y-88823398D01*
X77394968Y-89269579D01*
X77152776Y-89852841D01*
X77152225Y-90484388D01*
X77393398Y-91068072D01*
X77839579Y-91515032D01*
X78422841Y-91757224D01*
X79054388Y-91757775D01*
X79638072Y-91516602D01*
X80085032Y-91070421D01*
X80327224Y-90487159D01*
X80327775Y-89855612D01*
X80269712Y-89715090D01*
X80547401Y-89437401D01*
X80712148Y-89190840D01*
X80770000Y-88900000D01*
X80770000Y-87694368D01*
X80943817Y-87661662D01*
X81159941Y-87522590D01*
X81304931Y-87310390D01*
X81355940Y-87058500D01*
X81355940Y-86962116D01*
X81418854Y-87114380D01*
X81790000Y-87486174D01*
X81790000Y-95697198D01*
X79500000Y-97987198D01*
X79500000Y-96849940D01*
X79692500Y-96849940D01*
X79927817Y-96805662D01*
X80143941Y-96666590D01*
X80288931Y-96454390D01*
X80339940Y-96202500D01*
X80339940Y-94297500D01*
X80295662Y-94062183D01*
X80156590Y-93846059D01*
X79944390Y-93701069D01*
X79692500Y-93650060D01*
X77787500Y-93650060D01*
X77552183Y-93694338D01*
X77336059Y-93833410D01*
X77191069Y-94045610D01*
X77140060Y-94297500D01*
X77140060Y-96202500D01*
X77184338Y-96437817D01*
X77323410Y-96653941D01*
X77535610Y-96798931D01*
X77787500Y-96849940D01*
X77980000Y-96849940D01*
X77980000Y-97871001D01*
X77792833Y-97870838D01*
X77641765Y-97933258D01*
X77339299Y-97807662D01*
X77292423Y-97807621D01*
X76737401Y-97252599D01*
X76490839Y-97087852D01*
X76200000Y-97030000D01*
X72704802Y-97030000D01*
X69117401Y-93442599D01*
X68909940Y-93303978D01*
X68909940Y-93027500D01*
X68865662Y-92792183D01*
X68726590Y-92576059D01*
X68514390Y-92431069D01*
X68262500Y-92380060D01*
X66357500Y-92380060D01*
X66122183Y-92424338D01*
X65906059Y-92563410D01*
X65761069Y-92775610D01*
X65710060Y-93027500D01*
X65710060Y-94932500D01*
X65754338Y-95167817D01*
X65893410Y-95383941D01*
X66105610Y-95528931D01*
X66357500Y-95579940D01*
X68262500Y-95579940D01*
X68497817Y-95535662D01*
X68713941Y-95396590D01*
X68798310Y-95273112D01*
X71852599Y-98327401D01*
X72099161Y-98492148D01*
X72390000Y-98550000D01*
X74629890Y-98550000D01*
X74629838Y-98610167D01*
X74771883Y-98953943D01*
X74847807Y-99030000D01*
X74816250Y-99030000D01*
X74795938Y-99050312D01*
X74734683Y-99061838D01*
X74518559Y-99200910D01*
X74432500Y-99326862D01*
X74432500Y-99188750D01*
X74273750Y-99030000D01*
X74193690Y-99030000D01*
X73960301Y-99126673D01*
X73781673Y-99305302D01*
X73685000Y-99538691D01*
X73685000Y-100254250D01*
X73843750Y-100413000D01*
X74322560Y-100413000D01*
X74322560Y-100667000D01*
X73843750Y-100667000D01*
X73685000Y-100825750D01*
X73685000Y-101541309D01*
X73781673Y-101774698D01*
X73960301Y-101953327D01*
X74193690Y-102050000D01*
X74273750Y-102050000D01*
X74432500Y-101891250D01*
X74432500Y-101752359D01*
X74505910Y-101866441D01*
X74718110Y-102011431D01*
X74792808Y-102026558D01*
X74816250Y-102050000D01*
X74896310Y-102050000D01*
X74900335Y-102048333D01*
X74970000Y-102062440D01*
X75420000Y-102062440D01*
X75523671Y-102042933D01*
X75620000Y-102062440D01*
X76070000Y-102062440D01*
X76141323Y-102049020D01*
X76143690Y-102050000D01*
X76223750Y-102050000D01*
X76244062Y-102029688D01*
X76305317Y-102018162D01*
X76497227Y-101894671D01*
X76668110Y-102011431D01*
X76742808Y-102026558D01*
X76766250Y-102050000D01*
X76846310Y-102050000D01*
X76850335Y-102048333D01*
X76920000Y-102062440D01*
X77027500Y-102062440D01*
X77027500Y-102542071D01*
X76916162Y-102810201D01*
X76915838Y-103182167D01*
X77057883Y-103525943D01*
X77320673Y-103789192D01*
X77664201Y-103931838D01*
X78036167Y-103932162D01*
X78379943Y-103790117D01*
X78643192Y-103527327D01*
X78785838Y-103183799D01*
X78786162Y-102811833D01*
X78644117Y-102468057D01*
X78547500Y-102371271D01*
X78547500Y-102062440D01*
X78670000Y-102062440D01*
X78773671Y-102042933D01*
X78870000Y-102062440D01*
X79320000Y-102062440D01*
X79423671Y-102042933D01*
X79520000Y-102062440D01*
X79970000Y-102062440D01*
X80073671Y-102042933D01*
X80170000Y-102062440D01*
X80620000Y-102062440D01*
X80855317Y-102018162D01*
X80883542Y-102000000D01*
X82472560Y-102000000D01*
X82472560Y-102300000D01*
X82516838Y-102535317D01*
X82655910Y-102751441D01*
X82868110Y-102896431D01*
X83120000Y-102947440D01*
X84520000Y-102947440D01*
X84755317Y-102903162D01*
X84971441Y-102764090D01*
X85116431Y-102551890D01*
X85119795Y-102535275D01*
X88064331Y-102535275D01*
X88126169Y-102771042D01*
X88627122Y-102947419D01*
X89157440Y-102918664D01*
X89513831Y-102771042D01*
X89575669Y-102535275D01*
X88820000Y-101779605D01*
X88064331Y-102535275D01*
X85119795Y-102535275D01*
X85167440Y-102300000D01*
X85167440Y-101407122D01*
X87472581Y-101407122D01*
X87501336Y-101937440D01*
X87648958Y-102293831D01*
X87884725Y-102355669D01*
X88640395Y-101600000D01*
X88999605Y-101600000D01*
X89755275Y-102355669D01*
X89991042Y-102293831D01*
X90121360Y-101923694D01*
X91075226Y-101923694D01*
X91323538Y-102524655D01*
X91782927Y-102984846D01*
X92383453Y-103234206D01*
X93033694Y-103234774D01*
X93634655Y-102986462D01*
X94094846Y-102527073D01*
X94344206Y-101926547D01*
X94344774Y-101276306D01*
X94096462Y-100675345D01*
X93637073Y-100215154D01*
X93036547Y-99965794D01*
X92386306Y-99965226D01*
X91785345Y-100213538D01*
X91325154Y-100672927D01*
X91075794Y-101273453D01*
X91075226Y-101923694D01*
X90121360Y-101923694D01*
X90167419Y-101792878D01*
X90138664Y-101262560D01*
X89991042Y-100906169D01*
X89755275Y-100844331D01*
X88999605Y-101600000D01*
X88640395Y-101600000D01*
X87884725Y-100844331D01*
X87648958Y-100906169D01*
X87472581Y-101407122D01*
X85167440Y-101407122D01*
X85167440Y-100900000D01*
X85123170Y-100664725D01*
X88064331Y-100664725D01*
X88820000Y-101420395D01*
X89575669Y-100664725D01*
X89513831Y-100428958D01*
X89012878Y-100252581D01*
X88482560Y-100281336D01*
X88126169Y-100428958D01*
X88064331Y-100664725D01*
X85123170Y-100664725D01*
X85123162Y-100664683D01*
X84984090Y-100448559D01*
X84771890Y-100303569D01*
X84520000Y-100252560D01*
X83120000Y-100252560D01*
X82884683Y-100296838D01*
X82668559Y-100435910D01*
X82638434Y-100480000D01*
X81267440Y-100480000D01*
X81267440Y-99665000D01*
X81223162Y-99429683D01*
X81123695Y-99275107D01*
X82285108Y-98113694D01*
X91075226Y-98113694D01*
X91323538Y-98714655D01*
X91782927Y-99174846D01*
X92383453Y-99424206D01*
X93033694Y-99424774D01*
X93634655Y-99176462D01*
X94094846Y-98717073D01*
X94344206Y-98116547D01*
X94344774Y-97466306D01*
X94096462Y-96865345D01*
X93637073Y-96405154D01*
X93036547Y-96155794D01*
X92386306Y-96155226D01*
X91785345Y-96403538D01*
X91325154Y-96862927D01*
X91075794Y-97463453D01*
X91075226Y-98113694D01*
X82285108Y-98113694D01*
X82698358Y-97700444D01*
X82868110Y-97816431D01*
X83120000Y-97867440D01*
X84520000Y-97867440D01*
X84755317Y-97823162D01*
X84971441Y-97684090D01*
X85116431Y-97471890D01*
X85119795Y-97455275D01*
X88064331Y-97455275D01*
X88126169Y-97691042D01*
X88627122Y-97867419D01*
X89157440Y-97838664D01*
X89513831Y-97691042D01*
X89575669Y-97455275D01*
X88820000Y-96699605D01*
X88064331Y-97455275D01*
X85119795Y-97455275D01*
X85167440Y-97220000D01*
X85167440Y-96327122D01*
X87472581Y-96327122D01*
X87501336Y-96857440D01*
X87648958Y-97213831D01*
X87884725Y-97275669D01*
X88640395Y-96520000D01*
X88999605Y-96520000D01*
X89755275Y-97275669D01*
X89991042Y-97213831D01*
X90167419Y-96712878D01*
X90138664Y-96182560D01*
X89991042Y-95826169D01*
X89755275Y-95764331D01*
X88999605Y-96520000D01*
X88640395Y-96520000D01*
X87884725Y-95764331D01*
X87648958Y-95826169D01*
X87472581Y-96327122D01*
X85167440Y-96327122D01*
X85167440Y-95820000D01*
X85123170Y-95584725D01*
X88064331Y-95584725D01*
X88820000Y-96340395D01*
X89575669Y-95584725D01*
X89572776Y-95573694D01*
X94885226Y-95573694D01*
X95133538Y-96174655D01*
X95592927Y-96634846D01*
X96193453Y-96884206D01*
X96843694Y-96884774D01*
X97444655Y-96636462D01*
X97904846Y-96177073D01*
X98154206Y-95576547D01*
X98154774Y-94926306D01*
X97906462Y-94325345D01*
X97447073Y-93865154D01*
X97280000Y-93795779D01*
X97280000Y-93024802D01*
X97517362Y-92787440D01*
X98490000Y-92787440D01*
X98725317Y-92743162D01*
X98941441Y-92604090D01*
X99086431Y-92391890D01*
X99137440Y-92140000D01*
X99137440Y-90740000D01*
X99093162Y-90504683D01*
X98954090Y-90288559D01*
X98741890Y-90143569D01*
X98490000Y-90092560D01*
X97090000Y-90092560D01*
X96854683Y-90136838D01*
X96638559Y-90275910D01*
X96493569Y-90488110D01*
X96442560Y-90740000D01*
X96442560Y-91712638D01*
X95982599Y-92172599D01*
X95817852Y-92419161D01*
X95760000Y-92710000D01*
X95760000Y-93795504D01*
X95595345Y-93863538D01*
X95135154Y-94322927D01*
X94885794Y-94923453D01*
X94885226Y-95573694D01*
X89572776Y-95573694D01*
X89513831Y-95348958D01*
X89012878Y-95172581D01*
X88482560Y-95201336D01*
X88126169Y-95348958D01*
X88064331Y-95584725D01*
X85123170Y-95584725D01*
X85123162Y-95584683D01*
X84984090Y-95368559D01*
X84771890Y-95223569D01*
X84520000Y-95172560D01*
X83310000Y-95172560D01*
X83310000Y-92787440D01*
X84520000Y-92787440D01*
X84755317Y-92743162D01*
X84971441Y-92604090D01*
X85116431Y-92391890D01*
X85119795Y-92375275D01*
X88064331Y-92375275D01*
X88126169Y-92611042D01*
X88627122Y-92787419D01*
X89157440Y-92758664D01*
X89513831Y-92611042D01*
X89575669Y-92375275D01*
X88820000Y-91619605D01*
X88064331Y-92375275D01*
X85119795Y-92375275D01*
X85167440Y-92140000D01*
X85167440Y-91247122D01*
X87472581Y-91247122D01*
X87501336Y-91777440D01*
X87648958Y-92133831D01*
X87884725Y-92195669D01*
X88640395Y-91440000D01*
X88999605Y-91440000D01*
X89755275Y-92195669D01*
X89991042Y-92133831D01*
X90167419Y-91632878D01*
X90138664Y-91102560D01*
X89991042Y-90746169D01*
X89755275Y-90684331D01*
X88999605Y-91440000D01*
X88640395Y-91440000D01*
X87884725Y-90684331D01*
X87648958Y-90746169D01*
X87472581Y-91247122D01*
X85167440Y-91247122D01*
X85167440Y-90740000D01*
X85123170Y-90504725D01*
X88064331Y-90504725D01*
X88820000Y-91260395D01*
X89575669Y-90504725D01*
X89513831Y-90268958D01*
X89012878Y-90092581D01*
X88482560Y-90121336D01*
X88126169Y-90268958D01*
X88064331Y-90504725D01*
X85123170Y-90504725D01*
X85123162Y-90504683D01*
X84984090Y-90288559D01*
X84771890Y-90143569D01*
X84520000Y-90092560D01*
X83310000Y-90092560D01*
X83310000Y-87485536D01*
X83501681Y-87294188D01*
X84335417Y-87294188D01*
X84397071Y-87529800D01*
X84897480Y-87705927D01*
X85427199Y-87677148D01*
X85782929Y-87529800D01*
X85844583Y-87294188D01*
X85090000Y-86539605D01*
X84335417Y-87294188D01*
X83501681Y-87294188D01*
X83679827Y-87116353D01*
X83813314Y-86794882D01*
X83920200Y-87052929D01*
X84155812Y-87114583D01*
X84910395Y-86360000D01*
X84896253Y-86345858D01*
X85075858Y-86166253D01*
X85090000Y-86180395D01*
X85104143Y-86166253D01*
X85283748Y-86345858D01*
X85269605Y-86360000D01*
X86024188Y-87114583D01*
X86259800Y-87052929D01*
X86435927Y-86552520D01*
X86407148Y-86022801D01*
X86259800Y-85667071D01*
X86024190Y-85605418D01*
X86139445Y-85490163D01*
X86118282Y-85469000D01*
X91950000Y-85469000D01*
X91950000Y-86175504D01*
X91785345Y-86243538D01*
X91325154Y-86702927D01*
X91075794Y-87303453D01*
X91075226Y-87953694D01*
X91323538Y-88554655D01*
X91782927Y-89014846D01*
X92383453Y-89264206D01*
X93033694Y-89264774D01*
X93634655Y-89016462D01*
X94094846Y-88557073D01*
X94344206Y-87956547D01*
X94344774Y-87306306D01*
X94096462Y-86705345D01*
X93637073Y-86245154D01*
X93470000Y-86175779D01*
X93470000Y-85469000D01*
X94046198Y-85469000D01*
X95554599Y-86977401D01*
X95801161Y-87142148D01*
X96092000Y-87200000D01*
X96662345Y-87200000D01*
X97032796Y-87571098D01*
X97523287Y-87774768D01*
X98054383Y-87775231D01*
X98545229Y-87572418D01*
X98921098Y-87197204D01*
X99124768Y-86706713D01*
X99124826Y-86640091D01*
X116459000Y-86640091D01*
X116459000Y-87344250D01*
X116617750Y-87503000D01*
X117983000Y-87503000D01*
X117983000Y-86290150D01*
X118237000Y-86290150D01*
X118237000Y-87503000D01*
X119602250Y-87503000D01*
X119761000Y-87344250D01*
X119761000Y-86640091D01*
X119664327Y-86406702D01*
X119485699Y-86228073D01*
X119252310Y-86131400D01*
X118395750Y-86131400D01*
X118237000Y-86290150D01*
X117983000Y-86290150D01*
X117824250Y-86131400D01*
X116967690Y-86131400D01*
X116734301Y-86228073D01*
X116555673Y-86406702D01*
X116459000Y-86640091D01*
X99124826Y-86640091D01*
X99125231Y-86175617D01*
X98922418Y-85684771D01*
X98547204Y-85308902D01*
X98056713Y-85105232D01*
X97525617Y-85104769D01*
X97034771Y-85307582D01*
X96661703Y-85680000D01*
X96406802Y-85680000D01*
X95256802Y-84530000D01*
X119940000Y-84530000D01*
X119940000Y-135180000D01*
X45160000Y-135180000D01*
X45160000Y-86640091D01*
X45339000Y-86640091D01*
X45339000Y-87344250D01*
X45497750Y-87503000D01*
X46863000Y-87503000D01*
X46863000Y-86290150D01*
X47117000Y-86290150D01*
X47117000Y-87503000D01*
X48482250Y-87503000D01*
X48641000Y-87344250D01*
X48641000Y-87247056D01*
X51734025Y-87247056D01*
X51853164Y-87503000D01*
X53213000Y-87503000D01*
X53213000Y-86142633D01*
X52957054Y-86024017D01*
X52371621Y-86292812D01*
X51933615Y-86765182D01*
X51734025Y-87247056D01*
X48641000Y-87247056D01*
X48641000Y-86640091D01*
X48544327Y-86406702D01*
X48365699Y-86228073D01*
X48132310Y-86131400D01*
X47275750Y-86131400D01*
X47117000Y-86290150D01*
X46863000Y-86290150D01*
X46704250Y-86131400D01*
X45847690Y-86131400D01*
X45614301Y-86228073D01*
X45435673Y-86406702D01*
X45339000Y-86640091D01*
X45160000Y-86640091D01*
X45160000Y-84530000D01*
X57785000Y-84530000D01*
X57785000Y-86074250D01*
X57785000Y-86074250D01*
G37*
X57785000Y-86074250D02*
X57943750Y-86233000D01*
X58928000Y-86233000D01*
X58928000Y-86213000D01*
X59182000Y-86213000D01*
X59182000Y-86233000D01*
X60166250Y-86233000D01*
X60325000Y-86074250D01*
X60325000Y-84530000D01*
X62344560Y-84530000D01*
X62344560Y-88900000D01*
X62357330Y-88967868D01*
X61915198Y-89410000D01*
X60078025Y-89410000D01*
X60228327Y-89259699D01*
X60325000Y-89026310D01*
X60325000Y-86645750D01*
X60166250Y-86487000D01*
X59182000Y-86487000D01*
X59182000Y-86507000D01*
X58928000Y-86507000D01*
X58928000Y-86487000D01*
X57943750Y-86487000D01*
X57785000Y-86645750D01*
X57785000Y-89026310D01*
X57881673Y-89259699D01*
X58031975Y-89410000D01*
X57464802Y-89410000D01*
X57236366Y-89181564D01*
X57347441Y-89110090D01*
X57492431Y-88897890D01*
X57543440Y-88646000D01*
X57543440Y-86614000D01*
X57499162Y-86378683D01*
X57360090Y-86162559D01*
X57147890Y-86017569D01*
X56896000Y-85966560D01*
X54864000Y-85966560D01*
X54628683Y-86010838D01*
X54412559Y-86149910D01*
X54312144Y-86296872D01*
X54308379Y-86292812D01*
X53722946Y-86024017D01*
X53467000Y-86142633D01*
X53467000Y-87503000D01*
X53487000Y-87503000D01*
X53487000Y-87757000D01*
X53467000Y-87757000D01*
X53467000Y-89117367D01*
X53722946Y-89235983D01*
X54308379Y-88967188D01*
X54312934Y-88962276D01*
X54399910Y-89097441D01*
X54612110Y-89242431D01*
X54864000Y-89293440D01*
X55246408Y-89293440D01*
X55342599Y-89437401D01*
X56612599Y-90707401D01*
X56859160Y-90872148D01*
X57150000Y-90930000D01*
X58930000Y-90930000D01*
X58930000Y-97790000D01*
X58987852Y-98080839D01*
X59152599Y-98327401D01*
X59581040Y-98755842D01*
X59581040Y-100122990D01*
X59625318Y-100358307D01*
X59764390Y-100574431D01*
X59976590Y-100719421D01*
X60228480Y-100770430D01*
X60519280Y-100770430D01*
X60431057Y-100806883D01*
X60397882Y-100840000D01*
X57464802Y-100840000D01*
X54043818Y-97419016D01*
X54850590Y-97419016D01*
X54906271Y-97649611D01*
X55389078Y-97817622D01*
X55899428Y-97788083D01*
X56233729Y-97649611D01*
X56289410Y-97419016D01*
X55570000Y-96699605D01*
X54850590Y-97419016D01*
X54043818Y-97419016D01*
X53367440Y-96742638D01*
X53367440Y-96339078D01*
X54272378Y-96339078D01*
X54301917Y-96849428D01*
X54440389Y-97183729D01*
X54670984Y-97239410D01*
X55390395Y-96520000D01*
X55749605Y-96520000D01*
X56469016Y-97239410D01*
X56699611Y-97183729D01*
X56867622Y-96700922D01*
X56838083Y-96190572D01*
X56699611Y-95856271D01*
X56469016Y-95800590D01*
X55749605Y-96520000D01*
X55390395Y-96520000D01*
X54670984Y-95800590D01*
X54440389Y-95856271D01*
X54272378Y-96339078D01*
X53367440Y-96339078D01*
X53367440Y-95870000D01*
X53323162Y-95634683D01*
X53314347Y-95620984D01*
X54850590Y-95620984D01*
X55570000Y-96340395D01*
X56289410Y-95620984D01*
X56233729Y-95390389D01*
X55750922Y-95222378D01*
X55240572Y-95251917D01*
X54906271Y-95390389D01*
X54850590Y-95620984D01*
X53314347Y-95620984D01*
X53184090Y-95418559D01*
X52971890Y-95273569D01*
X52830000Y-95244836D01*
X52830000Y-93980000D01*
X52772148Y-93689161D01*
X52607401Y-93442599D01*
X48797401Y-89632599D01*
X48550839Y-89467852D01*
X48461419Y-89450065D01*
X48234415Y-89110330D01*
X48212220Y-89095500D01*
X48365699Y-89031927D01*
X48544327Y-88853298D01*
X48641000Y-88619909D01*
X48641000Y-88012944D01*
X51734025Y-88012944D01*
X51933615Y-88494818D01*
X52371621Y-88967188D01*
X52957054Y-89235983D01*
X53213000Y-89117367D01*
X53213000Y-87757000D01*
X51853164Y-87757000D01*
X51734025Y-88012944D01*
X48641000Y-88012944D01*
X48641000Y-87915750D01*
X48482250Y-87757000D01*
X47117000Y-87757000D01*
X47117000Y-87777000D01*
X46863000Y-87777000D01*
X46863000Y-87757000D01*
X45497750Y-87757000D01*
X45339000Y-87915750D01*
X45339000Y-88619909D01*
X45435673Y-88853298D01*
X45614301Y-89031927D01*
X45767780Y-89095500D01*
X45745585Y-89110330D01*
X45420729Y-89596511D01*
X45306655Y-90170000D01*
X45420729Y-90743489D01*
X45745585Y-91229670D01*
X46060366Y-91440000D01*
X45745585Y-91650330D01*
X45420729Y-92136511D01*
X45306655Y-92710000D01*
X45420729Y-93283489D01*
X45745585Y-93769670D01*
X46060366Y-93980000D01*
X45745585Y-94190330D01*
X45420729Y-94676511D01*
X45306655Y-95250000D01*
X45420729Y-95823489D01*
X45745585Y-96309670D01*
X46060366Y-96520000D01*
X45745585Y-96730330D01*
X45420729Y-97216511D01*
X45306655Y-97790000D01*
X45420729Y-98363489D01*
X45745585Y-98849670D01*
X46060366Y-99060000D01*
X45745585Y-99270330D01*
X45420729Y-99756511D01*
X45306655Y-100330000D01*
X45420729Y-100903489D01*
X45745585Y-101389670D01*
X46060366Y-101600000D01*
X45745585Y-101810330D01*
X45420729Y-102296511D01*
X45306655Y-102870000D01*
X45420729Y-103443489D01*
X45745585Y-103929670D01*
X46060366Y-104140000D01*
X45745585Y-104350330D01*
X45420729Y-104836511D01*
X45306655Y-105410000D01*
X45420729Y-105983489D01*
X45745585Y-106469670D01*
X46060366Y-106680000D01*
X45745585Y-106890330D01*
X45420729Y-107376511D01*
X45306655Y-107950000D01*
X45420729Y-108523489D01*
X45745585Y-109009670D01*
X46060366Y-109220000D01*
X45745585Y-109430330D01*
X45420729Y-109916511D01*
X45306655Y-110490000D01*
X45420729Y-111063489D01*
X45745585Y-111549670D01*
X46060366Y-111760000D01*
X45745585Y-111970330D01*
X45420729Y-112456511D01*
X45306655Y-113030000D01*
X45420729Y-113603489D01*
X45745585Y-114089670D01*
X46060366Y-114300000D01*
X45745585Y-114510330D01*
X45420729Y-114996511D01*
X45306655Y-115570000D01*
X45420729Y-116143489D01*
X45745585Y-116629670D01*
X46060366Y-116840000D01*
X45745585Y-117050330D01*
X45420729Y-117536511D01*
X45306655Y-118110000D01*
X45420729Y-118683489D01*
X45745585Y-119169670D01*
X46060366Y-119380000D01*
X45745585Y-119590330D01*
X45420729Y-120076511D01*
X45306655Y-120650000D01*
X45420729Y-121223489D01*
X45745585Y-121709670D01*
X46060366Y-121920000D01*
X45745585Y-122130330D01*
X45420729Y-122616511D01*
X45306655Y-123190000D01*
X45420729Y-123763489D01*
X45745585Y-124249670D01*
X46060366Y-124460000D01*
X45745585Y-124670330D01*
X45420729Y-125156511D01*
X45306655Y-125730000D01*
X45420729Y-126303489D01*
X45745585Y-126789670D01*
X46060366Y-127000000D01*
X45745585Y-127210330D01*
X45420729Y-127696511D01*
X45306655Y-128270000D01*
X45420729Y-128843489D01*
X45745585Y-129329670D01*
X46060366Y-129540000D01*
X45745585Y-129750330D01*
X45420729Y-130236511D01*
X45306655Y-130810000D01*
X45420729Y-131383489D01*
X45745585Y-131869670D01*
X46060366Y-132080000D01*
X45745585Y-132290330D01*
X45420729Y-132776511D01*
X45306655Y-133350000D01*
X45420729Y-133923489D01*
X45745585Y-134409670D01*
X46231766Y-134734526D01*
X46805255Y-134848600D01*
X47174745Y-134848600D01*
X47748234Y-134734526D01*
X48234415Y-134409670D01*
X48559271Y-133923489D01*
X48673345Y-133350000D01*
X48559271Y-132776511D01*
X48234415Y-132290330D01*
X47919634Y-132080000D01*
X48234415Y-131869670D01*
X48559271Y-131383489D01*
X48666776Y-130843026D01*
X49432401Y-130077401D01*
X49597148Y-129830840D01*
X49655000Y-129540000D01*
X49655000Y-128560958D01*
X49847500Y-128599940D01*
X51752500Y-128599940D01*
X51987817Y-128555662D01*
X52203941Y-128416590D01*
X52348931Y-128204390D01*
X52399940Y-127952500D01*
X52399940Y-127109862D01*
X57767401Y-121742401D01*
X57932148Y-121495839D01*
X57949223Y-121410000D01*
X58420000Y-121410000D01*
X58710839Y-121352148D01*
X58957401Y-121187401D01*
X59592401Y-120552401D01*
X59757148Y-120305839D01*
X59815000Y-120015000D01*
X59815000Y-116767463D01*
X59847192Y-116735327D01*
X59989838Y-116391799D01*
X59990162Y-116019833D01*
X59855944Y-115695000D01*
X60010198Y-115695000D01*
X62105000Y-117789802D01*
X62105000Y-120755515D01*
X61911890Y-120623569D01*
X61660000Y-120572560D01*
X60260000Y-120572560D01*
X60024683Y-120616838D01*
X59808559Y-120755910D01*
X59663569Y-120968110D01*
X59612560Y-121220000D01*
X59612560Y-122192638D01*
X56335131Y-125470067D01*
X56197159Y-125412776D01*
X55565612Y-125412225D01*
X54981928Y-125653398D01*
X54534968Y-126099579D01*
X54292776Y-126682841D01*
X54292225Y-127314388D01*
X54533398Y-127898072D01*
X54979579Y-128345032D01*
X55562841Y-128587224D01*
X56194388Y-128587775D01*
X56778072Y-128346602D01*
X57225032Y-127900421D01*
X57467224Y-127317159D01*
X57467775Y-126685612D01*
X57409712Y-126545090D01*
X60687362Y-123267440D01*
X61660000Y-123267440D01*
X61895317Y-123223162D01*
X62105000Y-123088235D01*
X62105000Y-126050198D01*
X60215138Y-127940060D01*
X58737500Y-127940060D01*
X58502183Y-127984338D01*
X58286059Y-128123410D01*
X58141069Y-128335610D01*
X58090060Y-128587500D01*
X58090060Y-130492500D01*
X58134338Y-130727817D01*
X58273410Y-130943941D01*
X58485610Y-131088931D01*
X58737500Y-131139940D01*
X60642500Y-131139940D01*
X60877817Y-131095662D01*
X61093941Y-130956590D01*
X61238931Y-130744390D01*
X61289940Y-130492500D01*
X61289940Y-129854388D01*
X63182225Y-129854388D01*
X63423398Y-130438072D01*
X63869579Y-130885032D01*
X64452841Y-131127224D01*
X65084388Y-131127775D01*
X65161894Y-131095750D01*
X67245000Y-131095750D01*
X67245000Y-131636310D01*
X67341673Y-131869699D01*
X67520302Y-132048327D01*
X67753691Y-132145000D01*
X68294250Y-132145000D01*
X68453000Y-131986250D01*
X68453000Y-130937000D01*
X68707000Y-130937000D01*
X68707000Y-131986250D01*
X68865750Y-132145000D01*
X69406309Y-132145000D01*
X69639698Y-132048327D01*
X69818327Y-131869699D01*
X69915000Y-131636310D01*
X69915000Y-131095750D01*
X69756250Y-130937000D01*
X68707000Y-130937000D01*
X68453000Y-130937000D01*
X67403750Y-130937000D01*
X67245000Y-131095750D01*
X65161894Y-131095750D01*
X65668072Y-130886602D01*
X66115032Y-130440421D01*
X66173340Y-130300000D01*
X67245000Y-130300000D01*
X67245000Y-130524250D01*
X67403750Y-130683000D01*
X68453000Y-130683000D01*
X68453000Y-130663000D01*
X68707000Y-130663000D01*
X68707000Y-130683000D01*
X69756250Y-130683000D01*
X69915000Y-130524250D01*
X69915000Y-130300000D01*
X72075198Y-130300000D01*
X72266725Y-130491527D01*
X72245232Y-130543287D01*
X72244769Y-131074383D01*
X72447582Y-131565229D01*
X72822796Y-131941098D01*
X73313287Y-132144768D01*
X73844383Y-132145231D01*
X74335229Y-131942418D01*
X74711098Y-131567204D01*
X74914768Y-131076713D01*
X74915231Y-130545617D01*
X74828380Y-130335422D01*
X75831680Y-129332122D01*
X75877167Y-129332162D01*
X76220943Y-129190117D01*
X76484192Y-128927327D01*
X76626838Y-128583799D01*
X76626910Y-128501712D01*
X78662560Y-130537362D01*
X78662560Y-131510000D01*
X78706838Y-131745317D01*
X78845910Y-131961441D01*
X79058110Y-132106431D01*
X79310000Y-132157440D01*
X80710000Y-132157440D01*
X80945317Y-132113162D01*
X81161441Y-131974090D01*
X81306431Y-131761890D01*
X81357440Y-131510000D01*
X81357440Y-130110000D01*
X81313162Y-129874683D01*
X81174090Y-129658559D01*
X80961890Y-129513569D01*
X80710000Y-129462560D01*
X79737362Y-129462560D01*
X75467401Y-125192599D01*
X75220839Y-125027852D01*
X74930000Y-124970000D01*
X74707655Y-124970000D01*
X74340000Y-124601703D01*
X74340000Y-123457802D01*
X75784901Y-122012901D01*
X75835494Y-121937183D01*
X75835226Y-122243694D01*
X76083538Y-122844655D01*
X76542927Y-123304846D01*
X77143453Y-123554206D01*
X77793694Y-123554774D01*
X77960889Y-123485691D01*
X79203731Y-124728533D01*
X78878902Y-125052796D01*
X78675232Y-125543287D01*
X78674769Y-126074383D01*
X78877582Y-126565229D01*
X79252796Y-126941098D01*
X79743287Y-127144768D01*
X80274383Y-127145231D01*
X80765229Y-126942418D01*
X81141098Y-126567204D01*
X81344768Y-126076713D01*
X81345231Y-125545617D01*
X81142418Y-125054771D01*
X80770000Y-124681703D01*
X80770000Y-124460000D01*
X80712148Y-124169161D01*
X80712148Y-124169160D01*
X80547401Y-123922599D01*
X79035885Y-122411083D01*
X79104206Y-122246547D01*
X79104774Y-121596306D01*
X78856462Y-120995345D01*
X78397073Y-120535154D01*
X77796547Y-120285794D01*
X77146306Y-120285226D01*
X76545345Y-120533538D01*
X76085154Y-120992927D01*
X76007500Y-121179939D01*
X76007500Y-120441944D01*
X76258167Y-120442162D01*
X76601943Y-120300117D01*
X76865192Y-120037327D01*
X77007838Y-119693799D01*
X77008162Y-119321833D01*
X76866117Y-118978057D01*
X76642500Y-118754049D01*
X76642500Y-113186192D01*
X76710000Y-113214221D01*
X76710000Y-116713000D01*
X76767852Y-117003839D01*
X76932599Y-117250401D01*
X81586908Y-121904710D01*
X81398559Y-122025910D01*
X81253569Y-122238110D01*
X81202560Y-122490000D01*
X81202560Y-123890000D01*
X81246838Y-124125317D01*
X81385910Y-124341441D01*
X81598110Y-124486431D01*
X81850000Y-124537440D01*
X83250000Y-124537440D01*
X83485317Y-124493162D01*
X83701441Y-124354090D01*
X83802626Y-124206000D01*
X91427560Y-124206000D01*
X91427560Y-128016000D01*
X91471838Y-128251317D01*
X91610910Y-128467441D01*
X91823110Y-128612431D01*
X91950000Y-128638127D01*
X91950000Y-129667000D01*
X92007852Y-129957839D01*
X92172599Y-130204401D01*
X93188599Y-131220401D01*
X93435161Y-131385148D01*
X93726000Y-131443000D01*
X99695000Y-131443000D01*
X99985839Y-131385148D01*
X100232401Y-131220401D01*
X102645401Y-128807401D01*
X102810148Y-128560840D01*
X102868000Y-128270000D01*
X102868000Y-117408802D01*
X108868401Y-111408401D01*
X109033148Y-111161839D01*
X109091000Y-110871000D01*
X109091000Y-102803802D01*
X116462848Y-95431954D01*
X116540729Y-95823489D01*
X116865585Y-96309670D01*
X117180366Y-96520000D01*
X116865585Y-96730330D01*
X116540729Y-97216511D01*
X116426655Y-97790000D01*
X116540729Y-98363489D01*
X116865585Y-98849670D01*
X117180366Y-99060000D01*
X116865585Y-99270330D01*
X116540729Y-99756511D01*
X116426655Y-100330000D01*
X116540729Y-100903489D01*
X116865585Y-101389670D01*
X117180366Y-101600000D01*
X116865585Y-101810330D01*
X116540729Y-102296511D01*
X116426655Y-102870000D01*
X116540729Y-103443489D01*
X116865585Y-103929670D01*
X117180366Y-104140000D01*
X116865585Y-104350330D01*
X116540729Y-104836511D01*
X116426655Y-105410000D01*
X116540729Y-105983489D01*
X116865585Y-106469670D01*
X117180366Y-106680000D01*
X116865585Y-106890330D01*
X116540729Y-107376511D01*
X116426655Y-107950000D01*
X116540729Y-108523489D01*
X116865585Y-109009670D01*
X117180366Y-109220000D01*
X116865585Y-109430330D01*
X116540729Y-109916511D01*
X116426655Y-110490000D01*
X116540729Y-111063489D01*
X116865585Y-111549670D01*
X117180366Y-111760000D01*
X116865585Y-111970330D01*
X116540729Y-112456511D01*
X116426655Y-113030000D01*
X116540729Y-113603489D01*
X116865585Y-114089670D01*
X117180366Y-114300000D01*
X116865585Y-114510330D01*
X116540729Y-114996511D01*
X116426655Y-115570000D01*
X116540729Y-116143489D01*
X116865585Y-116629670D01*
X117180366Y-116840000D01*
X116865585Y-117050330D01*
X116540729Y-117536511D01*
X116426655Y-118110000D01*
X116540729Y-118683489D01*
X116865585Y-119169670D01*
X117180366Y-119380000D01*
X116865585Y-119590330D01*
X116540729Y-120076511D01*
X116426655Y-120650000D01*
X116540729Y-121223489D01*
X116865585Y-121709670D01*
X117180366Y-121920000D01*
X116865585Y-122130330D01*
X116540729Y-122616511D01*
X116426655Y-123190000D01*
X116540729Y-123763489D01*
X116865585Y-124249670D01*
X117180366Y-124460000D01*
X116865585Y-124670330D01*
X116540729Y-125156511D01*
X116426655Y-125730000D01*
X116540729Y-126303489D01*
X116865585Y-126789670D01*
X117180366Y-127000000D01*
X116865585Y-127210330D01*
X116540729Y-127696511D01*
X116426655Y-128270000D01*
X116540729Y-128843489D01*
X116865585Y-129329670D01*
X117180366Y-129540000D01*
X116865585Y-129750330D01*
X116540729Y-130236511D01*
X116426655Y-130810000D01*
X116540729Y-131383489D01*
X116865585Y-131869670D01*
X117180366Y-132080000D01*
X116865585Y-132290330D01*
X116540729Y-132776511D01*
X116426655Y-133350000D01*
X116540729Y-133923489D01*
X116865585Y-134409670D01*
X117351766Y-134734526D01*
X117925255Y-134848600D01*
X118294745Y-134848600D01*
X118868234Y-134734526D01*
X119354415Y-134409670D01*
X119679271Y-133923489D01*
X119793345Y-133350000D01*
X119679271Y-132776511D01*
X119354415Y-132290330D01*
X119039634Y-132080000D01*
X119354415Y-131869670D01*
X119679271Y-131383489D01*
X119793345Y-130810000D01*
X119679271Y-130236511D01*
X119354415Y-129750330D01*
X119039634Y-129540000D01*
X119354415Y-129329670D01*
X119679271Y-128843489D01*
X119793345Y-128270000D01*
X119679271Y-127696511D01*
X119354415Y-127210330D01*
X119039634Y-127000000D01*
X119354415Y-126789670D01*
X119679271Y-126303489D01*
X119793345Y-125730000D01*
X119679271Y-125156511D01*
X119354415Y-124670330D01*
X119039634Y-124460000D01*
X119354415Y-124249670D01*
X119679271Y-123763489D01*
X119793345Y-123190000D01*
X119679271Y-122616511D01*
X119354415Y-122130330D01*
X119039634Y-121920000D01*
X119354415Y-121709670D01*
X119679271Y-121223489D01*
X119793345Y-120650000D01*
X119679271Y-120076511D01*
X119354415Y-119590330D01*
X119039634Y-119380000D01*
X119354415Y-119169670D01*
X119679271Y-118683489D01*
X119793345Y-118110000D01*
X119679271Y-117536511D01*
X119354415Y-117050330D01*
X119039634Y-116840000D01*
X119354415Y-116629670D01*
X119679271Y-116143489D01*
X119793345Y-115570000D01*
X119679271Y-114996511D01*
X119354415Y-114510330D01*
X119039634Y-114300000D01*
X119354415Y-114089670D01*
X119679271Y-113603489D01*
X119793345Y-113030000D01*
X119679271Y-112456511D01*
X119354415Y-111970330D01*
X119039634Y-111760000D01*
X119354415Y-111549670D01*
X119679271Y-111063489D01*
X119793345Y-110490000D01*
X119679271Y-109916511D01*
X119354415Y-109430330D01*
X119039634Y-109220000D01*
X119354415Y-109009670D01*
X119679271Y-108523489D01*
X119793345Y-107950000D01*
X119679271Y-107376511D01*
X119354415Y-106890330D01*
X119039634Y-106680000D01*
X119354415Y-106469670D01*
X119679271Y-105983489D01*
X119793345Y-105410000D01*
X119679271Y-104836511D01*
X119354415Y-104350330D01*
X119039634Y-104140000D01*
X119354415Y-103929670D01*
X119679271Y-103443489D01*
X119793345Y-102870000D01*
X119679271Y-102296511D01*
X119354415Y-101810330D01*
X119039634Y-101600000D01*
X119354415Y-101389670D01*
X119679271Y-100903489D01*
X119793345Y-100330000D01*
X119679271Y-99756511D01*
X119354415Y-99270330D01*
X119039634Y-99060000D01*
X119354415Y-98849670D01*
X119679271Y-98363489D01*
X119793345Y-97790000D01*
X119679271Y-97216511D01*
X119354415Y-96730330D01*
X119039634Y-96520000D01*
X119354415Y-96309670D01*
X119679271Y-95823489D01*
X119793345Y-95250000D01*
X119679271Y-94676511D01*
X119354415Y-94190330D01*
X119039634Y-93980000D01*
X119354415Y-93769670D01*
X119679271Y-93283489D01*
X119793345Y-92710000D01*
X119679271Y-92136511D01*
X119354415Y-91650330D01*
X119039634Y-91440000D01*
X119354415Y-91229670D01*
X119679271Y-90743489D01*
X119793345Y-90170000D01*
X119679271Y-89596511D01*
X119354415Y-89110330D01*
X119332220Y-89095500D01*
X119485699Y-89031927D01*
X119664327Y-88853298D01*
X119761000Y-88619909D01*
X119761000Y-87915750D01*
X119602250Y-87757000D01*
X118237000Y-87757000D01*
X118237000Y-87777000D01*
X117983000Y-87777000D01*
X117983000Y-87757000D01*
X116617750Y-87757000D01*
X116459000Y-87915750D01*
X116459000Y-88619909D01*
X116555673Y-88853298D01*
X116734301Y-89031927D01*
X116887780Y-89095500D01*
X116865585Y-89110330D01*
X116540729Y-89596511D01*
X116426655Y-90170000D01*
X116540729Y-90743489D01*
X116865585Y-91229670D01*
X117180366Y-91440000D01*
X116865585Y-91650330D01*
X116540729Y-92136511D01*
X116426655Y-92710000D01*
X116527619Y-93217579D01*
X107793599Y-101951599D01*
X107628852Y-102198161D01*
X107571000Y-102489000D01*
X107571000Y-110556198D01*
X101570599Y-116556599D01*
X101405852Y-116803161D01*
X101348000Y-117094000D01*
X101348000Y-127955198D01*
X99380198Y-129923000D01*
X94040802Y-129923000D01*
X93470000Y-129352198D01*
X93470000Y-128639920D01*
X93580317Y-128619162D01*
X93796441Y-128480090D01*
X93941431Y-128267890D01*
X93979543Y-128079686D01*
X94011838Y-128251317D01*
X94150910Y-128467441D01*
X94363110Y-128612431D01*
X94615000Y-128663440D01*
X95885000Y-128663440D01*
X96120317Y-128619162D01*
X96336441Y-128480090D01*
X96481431Y-128267890D01*
X96520000Y-128077431D01*
X96520000Y-128142309D01*
X96616673Y-128375698D01*
X96795301Y-128554327D01*
X97028690Y-128651000D01*
X97504250Y-128651000D01*
X97663000Y-128492250D01*
X97663000Y-126238000D01*
X97917000Y-126238000D01*
X97917000Y-128492250D01*
X98075750Y-128651000D01*
X98551310Y-128651000D01*
X98784699Y-128554327D01*
X98963327Y-128375698D01*
X99060000Y-128142309D01*
X99060000Y-126396750D01*
X98901250Y-126238000D01*
X97917000Y-126238000D01*
X97663000Y-126238000D01*
X97643000Y-126238000D01*
X97643000Y-125984000D01*
X97663000Y-125984000D01*
X97663000Y-123729750D01*
X97917000Y-123729750D01*
X97917000Y-125984000D01*
X98901250Y-125984000D01*
X99060000Y-125825250D01*
X99060000Y-124079691D01*
X98963327Y-123846302D01*
X98784699Y-123667673D01*
X98551310Y-123571000D01*
X98075750Y-123571000D01*
X97917000Y-123729750D01*
X97663000Y-123729750D01*
X97504250Y-123571000D01*
X97028690Y-123571000D01*
X96795301Y-123667673D01*
X96616673Y-123846302D01*
X96520000Y-124079691D01*
X96520000Y-124139887D01*
X96488162Y-123970683D01*
X96349090Y-123754559D01*
X96136890Y-123609569D01*
X95885000Y-123558560D01*
X94615000Y-123558560D01*
X94379683Y-123602838D01*
X94163559Y-123741910D01*
X94018569Y-123954110D01*
X93980457Y-124142314D01*
X93948162Y-123970683D01*
X93809090Y-123754559D01*
X93596890Y-123609569D01*
X93345000Y-123558560D01*
X92075000Y-123558560D01*
X91839683Y-123602838D01*
X91623559Y-123741910D01*
X91478569Y-123954110D01*
X91427560Y-124206000D01*
X83802626Y-124206000D01*
X83846431Y-124141890D01*
X83897440Y-123890000D01*
X83897440Y-122490000D01*
X83853162Y-122254683D01*
X83714090Y-122038559D01*
X83501890Y-121893569D01*
X83310000Y-121854710D01*
X83310000Y-121793000D01*
X83252148Y-121502161D01*
X83087401Y-121255599D01*
X78230000Y-116398198D01*
X78230000Y-113214496D01*
X78394655Y-113146462D01*
X78854846Y-112687073D01*
X79104206Y-112086547D01*
X79104774Y-111436306D01*
X78856462Y-110835345D01*
X78763280Y-110742000D01*
X78933198Y-110742000D01*
X81790000Y-113598802D01*
X81790000Y-114233850D01*
X81614683Y-114266838D01*
X81398559Y-114405910D01*
X81253569Y-114618110D01*
X81202560Y-114870000D01*
X81202560Y-116270000D01*
X81246838Y-116505317D01*
X81385910Y-116721441D01*
X81598110Y-116866431D01*
X81850000Y-116917440D01*
X82133941Y-116917440D01*
X81794771Y-117057582D01*
X81418902Y-117432796D01*
X81215232Y-117923287D01*
X81214769Y-118454383D01*
X81417582Y-118945229D01*
X81792796Y-119321098D01*
X82283287Y-119524768D01*
X82814383Y-119525231D01*
X83305229Y-119322418D01*
X83681098Y-118947204D01*
X83884768Y-118456713D01*
X83885228Y-117929574D01*
X84357401Y-117457401D01*
X84522148Y-117210840D01*
X84580000Y-116920000D01*
X84580000Y-113594802D01*
X86282560Y-115297362D01*
X86282560Y-116270000D01*
X86326838Y-116505317D01*
X86465910Y-116721441D01*
X86678110Y-116866431D01*
X86930000Y-116917440D01*
X88330000Y-116917440D01*
X88565317Y-116873162D01*
X88781441Y-116734090D01*
X88926431Y-116521890D01*
X88977440Y-116270000D01*
X88977440Y-114870000D01*
X88933162Y-114634683D01*
X88794090Y-114418559D01*
X88581890Y-114273569D01*
X88330000Y-114222560D01*
X87357362Y-114222560D01*
X85596000Y-112461198D01*
X85596000Y-112083694D01*
X91075226Y-112083694D01*
X91323538Y-112684655D01*
X91782927Y-113144846D01*
X92383453Y-113394206D01*
X93033694Y-113394774D01*
X93634655Y-113146462D01*
X94094846Y-112687073D01*
X94164221Y-112520000D01*
X95330000Y-112520000D01*
X95620839Y-112462148D01*
X95867401Y-112297401D01*
X96340028Y-111824774D01*
X96864383Y-111825231D01*
X97355229Y-111622418D01*
X97538000Y-111439966D01*
X97538000Y-112991953D01*
X97440117Y-112755057D01*
X97177327Y-112491808D01*
X96833799Y-112349162D01*
X96461833Y-112348838D01*
X96118057Y-112490883D01*
X96084882Y-112524000D01*
X95631000Y-112524000D01*
X95340161Y-112581852D01*
X95093599Y-112746599D01*
X92172599Y-115667599D01*
X92007852Y-115914161D01*
X91950000Y-116205000D01*
X91950000Y-117740080D01*
X91839683Y-117760838D01*
X91623559Y-117899910D01*
X91478569Y-118112110D01*
X91427560Y-118364000D01*
X91427560Y-122174000D01*
X91471838Y-122409317D01*
X91610910Y-122625441D01*
X91823110Y-122770431D01*
X92075000Y-122821440D01*
X93345000Y-122821440D01*
X93580317Y-122777162D01*
X93796441Y-122638090D01*
X93941431Y-122425890D01*
X93980000Y-122235431D01*
X93980000Y-122300309D01*
X94076673Y-122533698D01*
X94255301Y-122712327D01*
X94488690Y-122809000D01*
X94964250Y-122809000D01*
X95123000Y-122650250D01*
X95123000Y-120396000D01*
X95103000Y-120396000D01*
X95103000Y-120142000D01*
X95123000Y-120142000D01*
X95123000Y-117887750D01*
X94964250Y-117729000D01*
X94488690Y-117729000D01*
X94255301Y-117825673D01*
X94076673Y-118004302D01*
X93980000Y-118237691D01*
X93980000Y-118297887D01*
X93948162Y-118128683D01*
X93809090Y-117912559D01*
X93596890Y-117767569D01*
X93470000Y-117741873D01*
X93470000Y-116519802D01*
X95945802Y-114044000D01*
X96084537Y-114044000D01*
X96116673Y-114076192D01*
X96460201Y-114218838D01*
X96832167Y-114219162D01*
X97175943Y-114077117D01*
X97439192Y-113814327D01*
X97538000Y-113576372D01*
X97538000Y-116017198D01*
X97252599Y-116302599D01*
X97087852Y-116549161D01*
X97030000Y-116840000D01*
X97030000Y-117740080D01*
X96919683Y-117760838D01*
X96703559Y-117899910D01*
X96558569Y-118112110D01*
X96520000Y-118302569D01*
X96520000Y-118237691D01*
X96423327Y-118004302D01*
X96244699Y-117825673D01*
X96011310Y-117729000D01*
X95535750Y-117729000D01*
X95377000Y-117887750D01*
X95377000Y-120142000D01*
X95397000Y-120142000D01*
X95397000Y-120396000D01*
X95377000Y-120396000D01*
X95377000Y-122650250D01*
X95535750Y-122809000D01*
X96011310Y-122809000D01*
X96244699Y-122712327D01*
X96423327Y-122533698D01*
X96520000Y-122300309D01*
X96520000Y-122240113D01*
X96551838Y-122409317D01*
X96690910Y-122625441D01*
X96903110Y-122770431D01*
X97155000Y-122821440D01*
X98425000Y-122821440D01*
X98660317Y-122777162D01*
X98876441Y-122638090D01*
X99021431Y-122425890D01*
X99072440Y-122174000D01*
X99072440Y-118364000D01*
X99028162Y-118128683D01*
X98889090Y-117912559D01*
X98676890Y-117767569D01*
X98550000Y-117741873D01*
X98550000Y-117154802D01*
X98835401Y-116869401D01*
X98924986Y-116735327D01*
X99000148Y-116622839D01*
X99058000Y-116332000D01*
X99058000Y-109347000D01*
X99000148Y-109056161D01*
X98835401Y-108809599D01*
X97280000Y-107254198D01*
X97280000Y-106864496D01*
X97444655Y-106796462D01*
X97792000Y-106449722D01*
X97792000Y-107442000D01*
X97849852Y-107732839D01*
X98014599Y-107979401D01*
X100252560Y-110217362D01*
X100252560Y-111190000D01*
X100296838Y-111425317D01*
X100435910Y-111641441D01*
X100648110Y-111786431D01*
X100900000Y-111837440D01*
X102300000Y-111837440D01*
X102535317Y-111793162D01*
X102751441Y-111654090D01*
X102896431Y-111441890D01*
X102947440Y-111190000D01*
X102947440Y-109790000D01*
X102903162Y-109554683D01*
X102764090Y-109338559D01*
X102551890Y-109193569D01*
X102300000Y-109142560D01*
X101327362Y-109142560D01*
X99312000Y-107127198D01*
X99312000Y-106703760D01*
X99402927Y-106794846D01*
X100003453Y-107044206D01*
X100653694Y-107044774D01*
X101254655Y-106796462D01*
X101714846Y-106337073D01*
X101964206Y-105736547D01*
X101964774Y-105086306D01*
X101716462Y-104485345D01*
X101257073Y-104025154D01*
X100656547Y-103775794D01*
X100006306Y-103775226D01*
X99405345Y-104023538D01*
X99312000Y-104116720D01*
X99312000Y-100009802D01*
X100867401Y-98454401D01*
X101032148Y-98207839D01*
X101090000Y-97917000D01*
X101090000Y-96704496D01*
X101254655Y-96636462D01*
X101714846Y-96177073D01*
X101964206Y-95576547D01*
X101964774Y-94926306D01*
X101716462Y-94325345D01*
X101257073Y-93865154D01*
X100656547Y-93615794D01*
X100006306Y-93615226D01*
X99405345Y-93863538D01*
X98945154Y-94322927D01*
X98695794Y-94923453D01*
X98695226Y-95573694D01*
X98943538Y-96174655D01*
X99402927Y-96634846D01*
X99570000Y-96704221D01*
X99570000Y-97602198D01*
X98014599Y-99157599D01*
X97849852Y-99404161D01*
X97792000Y-99695000D01*
X97792000Y-104370683D01*
X97447073Y-104025154D01*
X96846547Y-103775794D01*
X96196306Y-103775226D01*
X95595345Y-104023538D01*
X95135154Y-104482927D01*
X94885794Y-105083453D01*
X94885226Y-105733694D01*
X95133538Y-106334655D01*
X95592927Y-106794846D01*
X95760000Y-106864221D01*
X95760000Y-107569000D01*
X95817852Y-107859839D01*
X95982599Y-108106401D01*
X97148395Y-109272197D01*
X96866713Y-109155232D01*
X96335617Y-109154769D01*
X95844771Y-109357582D01*
X95468902Y-109732796D01*
X95265232Y-110223287D01*
X95264772Y-110750426D01*
X95015198Y-111000000D01*
X94164496Y-111000000D01*
X94096462Y-110835345D01*
X93637073Y-110375154D01*
X93036547Y-110125794D01*
X92386306Y-110125226D01*
X91785345Y-110373538D01*
X91325154Y-110832927D01*
X91075794Y-111433453D01*
X91075226Y-112083694D01*
X85596000Y-112083694D01*
X85596000Y-111505275D01*
X86874331Y-111505275D01*
X86936169Y-111741042D01*
X87437122Y-111917419D01*
X87967440Y-111888664D01*
X88323831Y-111741042D01*
X88385669Y-111505275D01*
X87630000Y-110749605D01*
X86874331Y-111505275D01*
X85596000Y-111505275D01*
X85596000Y-110377122D01*
X86282581Y-110377122D01*
X86311336Y-110907440D01*
X86458958Y-111263831D01*
X86694725Y-111325669D01*
X87450395Y-110570000D01*
X87809605Y-110570000D01*
X88565275Y-111325669D01*
X88801042Y-111263831D01*
X88977419Y-110762878D01*
X88948664Y-110232560D01*
X88801042Y-109876169D01*
X88565275Y-109814331D01*
X87809605Y-110570000D01*
X87450395Y-110570000D01*
X86694725Y-109814331D01*
X86458958Y-109876169D01*
X86282581Y-110377122D01*
X85596000Y-110377122D01*
X85596000Y-109634725D01*
X86874331Y-109634725D01*
X87630000Y-110390395D01*
X88385669Y-109634725D01*
X88323831Y-109398958D01*
X87822878Y-109222581D01*
X87292560Y-109251336D01*
X86936169Y-109398958D01*
X86874331Y-109634725D01*
X85596000Y-109634725D01*
X85596000Y-108966000D01*
X85588672Y-108929160D01*
X85538148Y-108675160D01*
X85373401Y-108428599D01*
X83447401Y-106502599D01*
X83200839Y-106337852D01*
X82910000Y-106280000D01*
X81087500Y-106280000D01*
X81087500Y-105092500D01*
X81029648Y-104801661D01*
X80945088Y-104675107D01*
X80945162Y-104589833D01*
X80803117Y-104246057D01*
X80540327Y-103982808D01*
X80196799Y-103840162D01*
X79824833Y-103839838D01*
X79481057Y-103981883D01*
X79217808Y-104244673D01*
X79075162Y-104588201D01*
X79074838Y-104960167D01*
X79216883Y-105303943D01*
X79479673Y-105567192D01*
X79567500Y-105603661D01*
X79567500Y-106267680D01*
X79497192Y-106253442D01*
X79473750Y-106230000D01*
X79393690Y-106230000D01*
X79389665Y-106231667D01*
X79320000Y-106217560D01*
X78870000Y-106217560D01*
X78766329Y-106237067D01*
X78670000Y-106217560D01*
X78220000Y-106217560D01*
X78148677Y-106230980D01*
X78146310Y-106230000D01*
X78066250Y-106230000D01*
X78045938Y-106250312D01*
X77984683Y-106261838D01*
X77792773Y-106385329D01*
X77621890Y-106268569D01*
X77547192Y-106253442D01*
X77523750Y-106230000D01*
X77443690Y-106230000D01*
X77439665Y-106231667D01*
X77370000Y-106217560D01*
X76920000Y-106217560D01*
X76816329Y-106237067D01*
X76720000Y-106217560D01*
X76270000Y-106217560D01*
X76166329Y-106237067D01*
X76070000Y-106217560D01*
X75620000Y-106217560D01*
X75516329Y-106237067D01*
X75420000Y-106217560D01*
X74970000Y-106217560D01*
X74866329Y-106237067D01*
X74770000Y-106217560D01*
X74320000Y-106217560D01*
X74084683Y-106261838D01*
X73868559Y-106400910D01*
X73723569Y-106613110D01*
X73672560Y-106865000D01*
X73672560Y-108615000D01*
X73716838Y-108850317D01*
X73852500Y-109061142D01*
X73852500Y-119001697D01*
X73539234Y-119314964D01*
X73315617Y-119314769D01*
X72824771Y-119517582D01*
X72448902Y-119892796D01*
X72245232Y-120383287D01*
X72244769Y-120914383D01*
X72447582Y-121405229D01*
X72822796Y-121781098D01*
X73313287Y-121984768D01*
X73663125Y-121985073D01*
X73042599Y-122605599D01*
X72877852Y-122852161D01*
X72820000Y-123143000D01*
X72820000Y-123895198D01*
X72212401Y-123287599D01*
X71965839Y-123122852D01*
X71675000Y-123065000D01*
X68894802Y-123065000D01*
X67814802Y-121985000D01*
X68294250Y-121985000D01*
X68453000Y-121826250D01*
X68453000Y-120777000D01*
X68707000Y-120777000D01*
X68707000Y-121826250D01*
X68865750Y-121985000D01*
X69406309Y-121985000D01*
X69639698Y-121888327D01*
X69818327Y-121709699D01*
X69915000Y-121476310D01*
X69915000Y-120935750D01*
X69756250Y-120777000D01*
X68707000Y-120777000D01*
X68453000Y-120777000D01*
X67403750Y-120777000D01*
X67245000Y-120935750D01*
X67245000Y-121415198D01*
X67212401Y-121382599D01*
X67170989Y-121354929D01*
X67092418Y-121164771D01*
X66717204Y-120788902D01*
X66226713Y-120585232D01*
X65695617Y-120584769D01*
X65204771Y-120787582D01*
X64828902Y-121162796D01*
X64625232Y-121653287D01*
X64624769Y-122184383D01*
X64827582Y-122675229D01*
X65202796Y-123051098D01*
X65693287Y-123254768D01*
X66224383Y-123255231D01*
X66715229Y-123052418D01*
X66723930Y-123043732D01*
X68042599Y-124362401D01*
X68091387Y-124395000D01*
X67753691Y-124395000D01*
X67520302Y-124491673D01*
X67341673Y-124670301D01*
X67245000Y-124903690D01*
X67245000Y-125444250D01*
X67403750Y-125603000D01*
X68453000Y-125603000D01*
X68453000Y-125583000D01*
X68707000Y-125583000D01*
X68707000Y-125603000D01*
X69756250Y-125603000D01*
X69915000Y-125444250D01*
X69915000Y-124903690D01*
X69818327Y-124670301D01*
X69733026Y-124585000D01*
X71360198Y-124585000D01*
X72245226Y-125470028D01*
X72244769Y-125994383D01*
X72447582Y-126485229D01*
X72822796Y-126861098D01*
X73313287Y-127064768D01*
X73844383Y-127065231D01*
X74335229Y-126862418D01*
X74661707Y-126536509D01*
X75587106Y-127461908D01*
X75506833Y-127461838D01*
X75163057Y-127603883D01*
X74899808Y-127866673D01*
X74757162Y-128210201D01*
X74757121Y-128257077D01*
X73539234Y-129474964D01*
X73399644Y-129474842D01*
X72927401Y-129002599D01*
X72680839Y-128837852D01*
X72390000Y-128780000D01*
X66173652Y-128780000D01*
X66116602Y-128641928D01*
X65670421Y-128194968D01*
X65087159Y-127952776D01*
X64455612Y-127952225D01*
X63871928Y-128193398D01*
X63424968Y-128639579D01*
X63182776Y-129222841D01*
X63182225Y-129854388D01*
X61289940Y-129854388D01*
X61289940Y-129014862D01*
X63402401Y-126902401D01*
X63567148Y-126655839D01*
X63625000Y-126365000D01*
X63625000Y-126015750D01*
X67245000Y-126015750D01*
X67245000Y-126556310D01*
X67341673Y-126789699D01*
X67520302Y-126968327D01*
X67753691Y-127065000D01*
X68294250Y-127065000D01*
X68453000Y-126906250D01*
X68453000Y-125857000D01*
X68707000Y-125857000D01*
X68707000Y-126906250D01*
X68865750Y-127065000D01*
X69406309Y-127065000D01*
X69639698Y-126968327D01*
X69818327Y-126789699D01*
X69915000Y-126556310D01*
X69915000Y-126015750D01*
X69756250Y-125857000D01*
X68707000Y-125857000D01*
X68453000Y-125857000D01*
X67403750Y-125857000D01*
X67245000Y-126015750D01*
X63625000Y-126015750D01*
X63625000Y-119823690D01*
X67245000Y-119823690D01*
X67245000Y-120364250D01*
X67403750Y-120523000D01*
X68453000Y-120523000D01*
X68453000Y-119473750D01*
X68707000Y-119473750D01*
X68707000Y-120523000D01*
X69756250Y-120523000D01*
X69915000Y-120364250D01*
X69915000Y-119823690D01*
X69818327Y-119590301D01*
X69639698Y-119411673D01*
X69406309Y-119315000D01*
X68865750Y-119315000D01*
X68707000Y-119473750D01*
X68453000Y-119473750D01*
X68294250Y-119315000D01*
X67753691Y-119315000D01*
X67520302Y-119411673D01*
X67341673Y-119590301D01*
X67245000Y-119823690D01*
X63625000Y-119823690D01*
X63625000Y-117475000D01*
X63567148Y-117184161D01*
X63567148Y-117184160D01*
X63402401Y-116937599D01*
X62349190Y-115884388D01*
X68262225Y-115884388D01*
X68503398Y-116468072D01*
X68949579Y-116915032D01*
X69532841Y-117157224D01*
X70164388Y-117157775D01*
X70748072Y-116916602D01*
X71195032Y-116470421D01*
X71437224Y-115887159D01*
X71437775Y-115255612D01*
X71196602Y-114671928D01*
X70750421Y-114224968D01*
X70167159Y-113982776D01*
X69535612Y-113982225D01*
X68951928Y-114223398D01*
X68504968Y-114669579D01*
X68262776Y-115252841D01*
X68262225Y-115884388D01*
X62349190Y-115884388D01*
X60862401Y-114397599D01*
X60615839Y-114232852D01*
X60325000Y-114175000D01*
X57990000Y-114175000D01*
X57990000Y-102360000D01*
X60397537Y-102360000D01*
X60429673Y-102392192D01*
X60773201Y-102534838D01*
X61145167Y-102535162D01*
X61488943Y-102393117D01*
X61752192Y-102130327D01*
X61894838Y-101786799D01*
X61895162Y-101414833D01*
X61753117Y-101071057D01*
X61490327Y-100807808D01*
X61346965Y-100748279D01*
X61464557Y-100726152D01*
X61476414Y-100718522D01*
X61477730Y-100719421D01*
X61729620Y-100770430D01*
X62730380Y-100770430D01*
X62965697Y-100726152D01*
X62971140Y-100722650D01*
X62971140Y-103380000D01*
X62456550Y-103380000D01*
X62456550Y-103292910D01*
X62412272Y-103057593D01*
X62273200Y-102841469D01*
X62061000Y-102696479D01*
X61809110Y-102645470D01*
X60109850Y-102645470D01*
X59874533Y-102689748D01*
X59658409Y-102828820D01*
X59513419Y-103041020D01*
X59462410Y-103292910D01*
X59462410Y-104992170D01*
X59506688Y-105227487D01*
X59645760Y-105443611D01*
X59857960Y-105588601D01*
X59934363Y-105604073D01*
X59702646Y-105835386D01*
X59476148Y-106380853D01*
X59475632Y-106971476D01*
X59701178Y-107517337D01*
X60118446Y-107935334D01*
X60200520Y-107969414D01*
X60200520Y-108839520D01*
X60258372Y-109130359D01*
X60423119Y-109376921D01*
X61328560Y-110282362D01*
X61328560Y-111000000D01*
X61026150Y-111000000D01*
X60993162Y-110824683D01*
X60854090Y-110608559D01*
X60641890Y-110463569D01*
X60390000Y-110412560D01*
X58990000Y-110412560D01*
X58754683Y-110456838D01*
X58538559Y-110595910D01*
X58393569Y-110808110D01*
X58342560Y-111060000D01*
X58342560Y-112460000D01*
X58386838Y-112695317D01*
X58525910Y-112911441D01*
X58738110Y-113056431D01*
X58990000Y-113107440D01*
X60390000Y-113107440D01*
X60625317Y-113063162D01*
X60841441Y-112924090D01*
X60986431Y-112711890D01*
X61025290Y-112520000D01*
X64135000Y-112520000D01*
X64425839Y-112462148D01*
X64672401Y-112297401D01*
X64926401Y-112043401D01*
X65091148Y-111796840D01*
X65098801Y-111758365D01*
X65259317Y-111728162D01*
X65475441Y-111589090D01*
X65620431Y-111376890D01*
X65671440Y-111125000D01*
X65671440Y-109855000D01*
X65627162Y-109619683D01*
X65574279Y-109537500D01*
X68250060Y-109537500D01*
X68250060Y-111442500D01*
X68294338Y-111677817D01*
X68433410Y-111893941D01*
X68645610Y-112038931D01*
X68897500Y-112089940D01*
X70802500Y-112089940D01*
X71037817Y-112045662D01*
X71253941Y-111906590D01*
X71398931Y-111694390D01*
X71449940Y-111442500D01*
X71449940Y-109537500D01*
X71405662Y-109302183D01*
X71266590Y-109086059D01*
X71054390Y-108941069D01*
X70802500Y-108890060D01*
X70610000Y-108890060D01*
X70610000Y-106867802D01*
X73291680Y-104186122D01*
X73337167Y-104186162D01*
X73680943Y-104044117D01*
X73944192Y-103781327D01*
X74086838Y-103437799D01*
X74087162Y-103065833D01*
X73945117Y-102722057D01*
X73682327Y-102458808D01*
X73338799Y-102316162D01*
X72966833Y-102315838D01*
X72623057Y-102457883D01*
X72359808Y-102720673D01*
X72217162Y-103064201D01*
X72217121Y-103111077D01*
X69312599Y-106015599D01*
X69147852Y-106262161D01*
X69090000Y-106553000D01*
X69090000Y-108890060D01*
X68897500Y-108890060D01*
X68662183Y-108934338D01*
X68446059Y-109073410D01*
X68301069Y-109285610D01*
X68250060Y-109537500D01*
X65574279Y-109537500D01*
X65488090Y-109403559D01*
X65275890Y-109258569D01*
X65024000Y-109207560D01*
X63754000Y-109207560D01*
X63518683Y-109251838D01*
X63502901Y-109261993D01*
X63497890Y-109258569D01*
X63246000Y-109207560D01*
X62403362Y-109207560D01*
X61720520Y-108524718D01*
X61720520Y-107969807D01*
X61800397Y-107936802D01*
X62218394Y-107519534D01*
X62444892Y-106974067D01*
X62445408Y-106383444D01*
X62219862Y-105837583D01*
X61988532Y-105605849D01*
X62044427Y-105595332D01*
X62260551Y-105456260D01*
X62405541Y-105244060D01*
X62456550Y-104992170D01*
X62456550Y-104900000D01*
X63188032Y-104900000D01*
X63193739Y-104908541D01*
X63203725Y-104918527D01*
X63135284Y-105083352D01*
X63134716Y-105733795D01*
X63383106Y-106334943D01*
X63842637Y-106795278D01*
X64443352Y-107044716D01*
X65093795Y-107045284D01*
X65694943Y-106796894D01*
X66155278Y-106337363D01*
X66404716Y-105736648D01*
X66405284Y-105086205D01*
X66156894Y-104485057D01*
X65697363Y-104024722D01*
X65096648Y-103775284D01*
X64491140Y-103774755D01*
X64491140Y-100710513D01*
X64682961Y-100587080D01*
X64827951Y-100374880D01*
X64878960Y-100122990D01*
X64878960Y-97621090D01*
X64834682Y-97385773D01*
X64695610Y-97169649D01*
X64483410Y-97024659D01*
X64231520Y-96973650D01*
X63866076Y-96973650D01*
X63876930Y-96920050D01*
X63876930Y-96915750D01*
X63877953Y-96912537D01*
X63876930Y-96906654D01*
X63876930Y-92919550D01*
X63832652Y-92684233D01*
X63693580Y-92468109D01*
X63481380Y-92323119D01*
X63229490Y-92272110D01*
X61230510Y-92272110D01*
X60995193Y-92316388D01*
X60779069Y-92455460D01*
X60634079Y-92667660D01*
X60583070Y-92919550D01*
X60583070Y-96920050D01*
X60593156Y-96973650D01*
X60450000Y-96973650D01*
X60450000Y-90930000D01*
X62230000Y-90930000D01*
X62520839Y-90872148D01*
X62767401Y-90707401D01*
X63927362Y-89547440D01*
X64008000Y-89547440D01*
X64243317Y-89503162D01*
X64459441Y-89364090D01*
X64604431Y-89151890D01*
X64655440Y-88900000D01*
X64655440Y-86645750D01*
X66675000Y-86645750D01*
X66675000Y-89026310D01*
X66771673Y-89259699D01*
X66950302Y-89438327D01*
X67183691Y-89535000D01*
X67659250Y-89535000D01*
X67818000Y-89376250D01*
X67818000Y-86487000D01*
X68072000Y-86487000D01*
X68072000Y-89376250D01*
X68230750Y-89535000D01*
X68706309Y-89535000D01*
X68939698Y-89438327D01*
X69118327Y-89259699D01*
X69215000Y-89026310D01*
X69215000Y-86645750D01*
X69056250Y-86487000D01*
X68072000Y-86487000D01*
X67818000Y-86487000D01*
X66833750Y-86487000D01*
X66675000Y-86645750D01*
X64655440Y-86645750D01*
X64655440Y-84530000D01*
X66675000Y-84530000D01*
X66675000Y-86074250D01*
X66833750Y-86233000D01*
X67818000Y-86233000D01*
X67818000Y-86213000D01*
X68072000Y-86213000D01*
X68072000Y-86233000D01*
X69056250Y-86233000D01*
X69215000Y-86074250D01*
X69215000Y-84530000D01*
X76828198Y-84530000D01*
X71852599Y-89505599D01*
X71687852Y-89752161D01*
X71630000Y-90043000D01*
X71630000Y-92576348D01*
X71491928Y-92633398D01*
X71044968Y-93079579D01*
X70802776Y-93662841D01*
X70802225Y-94294388D01*
X71043398Y-94878072D01*
X71489579Y-95325032D01*
X72072841Y-95567224D01*
X72704388Y-95567775D01*
X73288072Y-95326602D01*
X73735032Y-94880421D01*
X73977224Y-94297159D01*
X73977775Y-93665612D01*
X73736602Y-93081928D01*
X73290421Y-92634968D01*
X73150000Y-92576660D01*
X73150000Y-90357802D01*
X78038802Y-85469000D01*
X78703042Y-85469000D01*
X78664060Y-85661500D01*
X78664060Y-87058500D01*
X78708338Y-87293817D01*
X78847410Y-87509941D01*
X79059610Y-87654931D01*
X79250000Y-87693486D01*
X79250000Y-88585198D01*
X79195131Y-88640067D01*
X79057159Y-88582776D01*
X78425612Y-88582225D01*
X77841928Y-88823398D01*
X77394968Y-89269579D01*
X77152776Y-89852841D01*
X77152225Y-90484388D01*
X77393398Y-91068072D01*
X77839579Y-91515032D01*
X78422841Y-91757224D01*
X79054388Y-91757775D01*
X79638072Y-91516602D01*
X80085032Y-91070421D01*
X80327224Y-90487159D01*
X80327775Y-89855612D01*
X80269712Y-89715090D01*
X80547401Y-89437401D01*
X80712148Y-89190840D01*
X80770000Y-88900000D01*
X80770000Y-87694368D01*
X80943817Y-87661662D01*
X81159941Y-87522590D01*
X81304931Y-87310390D01*
X81355940Y-87058500D01*
X81355940Y-86962116D01*
X81418854Y-87114380D01*
X81790000Y-87486174D01*
X81790000Y-95697198D01*
X79500000Y-97987198D01*
X79500000Y-96849940D01*
X79692500Y-96849940D01*
X79927817Y-96805662D01*
X80143941Y-96666590D01*
X80288931Y-96454390D01*
X80339940Y-96202500D01*
X80339940Y-94297500D01*
X80295662Y-94062183D01*
X80156590Y-93846059D01*
X79944390Y-93701069D01*
X79692500Y-93650060D01*
X77787500Y-93650060D01*
X77552183Y-93694338D01*
X77336059Y-93833410D01*
X77191069Y-94045610D01*
X77140060Y-94297500D01*
X77140060Y-96202500D01*
X77184338Y-96437817D01*
X77323410Y-96653941D01*
X77535610Y-96798931D01*
X77787500Y-96849940D01*
X77980000Y-96849940D01*
X77980000Y-97871001D01*
X77792833Y-97870838D01*
X77641765Y-97933258D01*
X77339299Y-97807662D01*
X77292423Y-97807621D01*
X76737401Y-97252599D01*
X76490839Y-97087852D01*
X76200000Y-97030000D01*
X72704802Y-97030000D01*
X69117401Y-93442599D01*
X68909940Y-93303978D01*
X68909940Y-93027500D01*
X68865662Y-92792183D01*
X68726590Y-92576059D01*
X68514390Y-92431069D01*
X68262500Y-92380060D01*
X66357500Y-92380060D01*
X66122183Y-92424338D01*
X65906059Y-92563410D01*
X65761069Y-92775610D01*
X65710060Y-93027500D01*
X65710060Y-94932500D01*
X65754338Y-95167817D01*
X65893410Y-95383941D01*
X66105610Y-95528931D01*
X66357500Y-95579940D01*
X68262500Y-95579940D01*
X68497817Y-95535662D01*
X68713941Y-95396590D01*
X68798310Y-95273112D01*
X71852599Y-98327401D01*
X72099161Y-98492148D01*
X72390000Y-98550000D01*
X74629890Y-98550000D01*
X74629838Y-98610167D01*
X74771883Y-98953943D01*
X74847807Y-99030000D01*
X74816250Y-99030000D01*
X74795938Y-99050312D01*
X74734683Y-99061838D01*
X74518559Y-99200910D01*
X74432500Y-99326862D01*
X74432500Y-99188750D01*
X74273750Y-99030000D01*
X74193690Y-99030000D01*
X73960301Y-99126673D01*
X73781673Y-99305302D01*
X73685000Y-99538691D01*
X73685000Y-100254250D01*
X73843750Y-100413000D01*
X74322560Y-100413000D01*
X74322560Y-100667000D01*
X73843750Y-100667000D01*
X73685000Y-100825750D01*
X73685000Y-101541309D01*
X73781673Y-101774698D01*
X73960301Y-101953327D01*
X74193690Y-102050000D01*
X74273750Y-102050000D01*
X74432500Y-101891250D01*
X74432500Y-101752359D01*
X74505910Y-101866441D01*
X74718110Y-102011431D01*
X74792808Y-102026558D01*
X74816250Y-102050000D01*
X74896310Y-102050000D01*
X74900335Y-102048333D01*
X74970000Y-102062440D01*
X75420000Y-102062440D01*
X75523671Y-102042933D01*
X75620000Y-102062440D01*
X76070000Y-102062440D01*
X76141323Y-102049020D01*
X76143690Y-102050000D01*
X76223750Y-102050000D01*
X76244062Y-102029688D01*
X76305317Y-102018162D01*
X76497227Y-101894671D01*
X76668110Y-102011431D01*
X76742808Y-102026558D01*
X76766250Y-102050000D01*
X76846310Y-102050000D01*
X76850335Y-102048333D01*
X76920000Y-102062440D01*
X77027500Y-102062440D01*
X77027500Y-102542071D01*
X76916162Y-102810201D01*
X76915838Y-103182167D01*
X77057883Y-103525943D01*
X77320673Y-103789192D01*
X77664201Y-103931838D01*
X78036167Y-103932162D01*
X78379943Y-103790117D01*
X78643192Y-103527327D01*
X78785838Y-103183799D01*
X78786162Y-102811833D01*
X78644117Y-102468057D01*
X78547500Y-102371271D01*
X78547500Y-102062440D01*
X78670000Y-102062440D01*
X78773671Y-102042933D01*
X78870000Y-102062440D01*
X79320000Y-102062440D01*
X79423671Y-102042933D01*
X79520000Y-102062440D01*
X79970000Y-102062440D01*
X80073671Y-102042933D01*
X80170000Y-102062440D01*
X80620000Y-102062440D01*
X80855317Y-102018162D01*
X80883542Y-102000000D01*
X82472560Y-102000000D01*
X82472560Y-102300000D01*
X82516838Y-102535317D01*
X82655910Y-102751441D01*
X82868110Y-102896431D01*
X83120000Y-102947440D01*
X84520000Y-102947440D01*
X84755317Y-102903162D01*
X84971441Y-102764090D01*
X85116431Y-102551890D01*
X85119795Y-102535275D01*
X88064331Y-102535275D01*
X88126169Y-102771042D01*
X88627122Y-102947419D01*
X89157440Y-102918664D01*
X89513831Y-102771042D01*
X89575669Y-102535275D01*
X88820000Y-101779605D01*
X88064331Y-102535275D01*
X85119795Y-102535275D01*
X85167440Y-102300000D01*
X85167440Y-101407122D01*
X87472581Y-101407122D01*
X87501336Y-101937440D01*
X87648958Y-102293831D01*
X87884725Y-102355669D01*
X88640395Y-101600000D01*
X88999605Y-101600000D01*
X89755275Y-102355669D01*
X89991042Y-102293831D01*
X90121360Y-101923694D01*
X91075226Y-101923694D01*
X91323538Y-102524655D01*
X91782927Y-102984846D01*
X92383453Y-103234206D01*
X93033694Y-103234774D01*
X93634655Y-102986462D01*
X94094846Y-102527073D01*
X94344206Y-101926547D01*
X94344774Y-101276306D01*
X94096462Y-100675345D01*
X93637073Y-100215154D01*
X93036547Y-99965794D01*
X92386306Y-99965226D01*
X91785345Y-100213538D01*
X91325154Y-100672927D01*
X91075794Y-101273453D01*
X91075226Y-101923694D01*
X90121360Y-101923694D01*
X90167419Y-101792878D01*
X90138664Y-101262560D01*
X89991042Y-100906169D01*
X89755275Y-100844331D01*
X88999605Y-101600000D01*
X88640395Y-101600000D01*
X87884725Y-100844331D01*
X87648958Y-100906169D01*
X87472581Y-101407122D01*
X85167440Y-101407122D01*
X85167440Y-100900000D01*
X85123170Y-100664725D01*
X88064331Y-100664725D01*
X88820000Y-101420395D01*
X89575669Y-100664725D01*
X89513831Y-100428958D01*
X89012878Y-100252581D01*
X88482560Y-100281336D01*
X88126169Y-100428958D01*
X88064331Y-100664725D01*
X85123170Y-100664725D01*
X85123162Y-100664683D01*
X84984090Y-100448559D01*
X84771890Y-100303569D01*
X84520000Y-100252560D01*
X83120000Y-100252560D01*
X82884683Y-100296838D01*
X82668559Y-100435910D01*
X82638434Y-100480000D01*
X81267440Y-100480000D01*
X81267440Y-99665000D01*
X81223162Y-99429683D01*
X81123695Y-99275107D01*
X82285108Y-98113694D01*
X91075226Y-98113694D01*
X91323538Y-98714655D01*
X91782927Y-99174846D01*
X92383453Y-99424206D01*
X93033694Y-99424774D01*
X93634655Y-99176462D01*
X94094846Y-98717073D01*
X94344206Y-98116547D01*
X94344774Y-97466306D01*
X94096462Y-96865345D01*
X93637073Y-96405154D01*
X93036547Y-96155794D01*
X92386306Y-96155226D01*
X91785345Y-96403538D01*
X91325154Y-96862927D01*
X91075794Y-97463453D01*
X91075226Y-98113694D01*
X82285108Y-98113694D01*
X82698358Y-97700444D01*
X82868110Y-97816431D01*
X83120000Y-97867440D01*
X84520000Y-97867440D01*
X84755317Y-97823162D01*
X84971441Y-97684090D01*
X85116431Y-97471890D01*
X85119795Y-97455275D01*
X88064331Y-97455275D01*
X88126169Y-97691042D01*
X88627122Y-97867419D01*
X89157440Y-97838664D01*
X89513831Y-97691042D01*
X89575669Y-97455275D01*
X88820000Y-96699605D01*
X88064331Y-97455275D01*
X85119795Y-97455275D01*
X85167440Y-97220000D01*
X85167440Y-96327122D01*
X87472581Y-96327122D01*
X87501336Y-96857440D01*
X87648958Y-97213831D01*
X87884725Y-97275669D01*
X88640395Y-96520000D01*
X88999605Y-96520000D01*
X89755275Y-97275669D01*
X89991042Y-97213831D01*
X90167419Y-96712878D01*
X90138664Y-96182560D01*
X89991042Y-95826169D01*
X89755275Y-95764331D01*
X88999605Y-96520000D01*
X88640395Y-96520000D01*
X87884725Y-95764331D01*
X87648958Y-95826169D01*
X87472581Y-96327122D01*
X85167440Y-96327122D01*
X85167440Y-95820000D01*
X85123170Y-95584725D01*
X88064331Y-95584725D01*
X88820000Y-96340395D01*
X89575669Y-95584725D01*
X89572776Y-95573694D01*
X94885226Y-95573694D01*
X95133538Y-96174655D01*
X95592927Y-96634846D01*
X96193453Y-96884206D01*
X96843694Y-96884774D01*
X97444655Y-96636462D01*
X97904846Y-96177073D01*
X98154206Y-95576547D01*
X98154774Y-94926306D01*
X97906462Y-94325345D01*
X97447073Y-93865154D01*
X97280000Y-93795779D01*
X97280000Y-93024802D01*
X97517362Y-92787440D01*
X98490000Y-92787440D01*
X98725317Y-92743162D01*
X98941441Y-92604090D01*
X99086431Y-92391890D01*
X99137440Y-92140000D01*
X99137440Y-90740000D01*
X99093162Y-90504683D01*
X98954090Y-90288559D01*
X98741890Y-90143569D01*
X98490000Y-90092560D01*
X97090000Y-90092560D01*
X96854683Y-90136838D01*
X96638559Y-90275910D01*
X96493569Y-90488110D01*
X96442560Y-90740000D01*
X96442560Y-91712638D01*
X95982599Y-92172599D01*
X95817852Y-92419161D01*
X95760000Y-92710000D01*
X95760000Y-93795504D01*
X95595345Y-93863538D01*
X95135154Y-94322927D01*
X94885794Y-94923453D01*
X94885226Y-95573694D01*
X89572776Y-95573694D01*
X89513831Y-95348958D01*
X89012878Y-95172581D01*
X88482560Y-95201336D01*
X88126169Y-95348958D01*
X88064331Y-95584725D01*
X85123170Y-95584725D01*
X85123162Y-95584683D01*
X84984090Y-95368559D01*
X84771890Y-95223569D01*
X84520000Y-95172560D01*
X83310000Y-95172560D01*
X83310000Y-92787440D01*
X84520000Y-92787440D01*
X84755317Y-92743162D01*
X84971441Y-92604090D01*
X85116431Y-92391890D01*
X85119795Y-92375275D01*
X88064331Y-92375275D01*
X88126169Y-92611042D01*
X88627122Y-92787419D01*
X89157440Y-92758664D01*
X89513831Y-92611042D01*
X89575669Y-92375275D01*
X88820000Y-91619605D01*
X88064331Y-92375275D01*
X85119795Y-92375275D01*
X85167440Y-92140000D01*
X85167440Y-91247122D01*
X87472581Y-91247122D01*
X87501336Y-91777440D01*
X87648958Y-92133831D01*
X87884725Y-92195669D01*
X88640395Y-91440000D01*
X88999605Y-91440000D01*
X89755275Y-92195669D01*
X89991042Y-92133831D01*
X90167419Y-91632878D01*
X90138664Y-91102560D01*
X89991042Y-90746169D01*
X89755275Y-90684331D01*
X88999605Y-91440000D01*
X88640395Y-91440000D01*
X87884725Y-90684331D01*
X87648958Y-90746169D01*
X87472581Y-91247122D01*
X85167440Y-91247122D01*
X85167440Y-90740000D01*
X85123170Y-90504725D01*
X88064331Y-90504725D01*
X88820000Y-91260395D01*
X89575669Y-90504725D01*
X89513831Y-90268958D01*
X89012878Y-90092581D01*
X88482560Y-90121336D01*
X88126169Y-90268958D01*
X88064331Y-90504725D01*
X85123170Y-90504725D01*
X85123162Y-90504683D01*
X84984090Y-90288559D01*
X84771890Y-90143569D01*
X84520000Y-90092560D01*
X83310000Y-90092560D01*
X83310000Y-87485536D01*
X83501681Y-87294188D01*
X84335417Y-87294188D01*
X84397071Y-87529800D01*
X84897480Y-87705927D01*
X85427199Y-87677148D01*
X85782929Y-87529800D01*
X85844583Y-87294188D01*
X85090000Y-86539605D01*
X84335417Y-87294188D01*
X83501681Y-87294188D01*
X83679827Y-87116353D01*
X83813314Y-86794882D01*
X83920200Y-87052929D01*
X84155812Y-87114583D01*
X84910395Y-86360000D01*
X84896253Y-86345858D01*
X85075858Y-86166253D01*
X85090000Y-86180395D01*
X85104143Y-86166253D01*
X85283748Y-86345858D01*
X85269605Y-86360000D01*
X86024188Y-87114583D01*
X86259800Y-87052929D01*
X86435927Y-86552520D01*
X86407148Y-86022801D01*
X86259800Y-85667071D01*
X86024190Y-85605418D01*
X86139445Y-85490163D01*
X86118282Y-85469000D01*
X91950000Y-85469000D01*
X91950000Y-86175504D01*
X91785345Y-86243538D01*
X91325154Y-86702927D01*
X91075794Y-87303453D01*
X91075226Y-87953694D01*
X91323538Y-88554655D01*
X91782927Y-89014846D01*
X92383453Y-89264206D01*
X93033694Y-89264774D01*
X93634655Y-89016462D01*
X94094846Y-88557073D01*
X94344206Y-87956547D01*
X94344774Y-87306306D01*
X94096462Y-86705345D01*
X93637073Y-86245154D01*
X93470000Y-86175779D01*
X93470000Y-85469000D01*
X94046198Y-85469000D01*
X95554599Y-86977401D01*
X95801161Y-87142148D01*
X96092000Y-87200000D01*
X96662345Y-87200000D01*
X97032796Y-87571098D01*
X97523287Y-87774768D01*
X98054383Y-87775231D01*
X98545229Y-87572418D01*
X98921098Y-87197204D01*
X99124768Y-86706713D01*
X99124826Y-86640091D01*
X116459000Y-86640091D01*
X116459000Y-87344250D01*
X116617750Y-87503000D01*
X117983000Y-87503000D01*
X117983000Y-86290150D01*
X118237000Y-86290150D01*
X118237000Y-87503000D01*
X119602250Y-87503000D01*
X119761000Y-87344250D01*
X119761000Y-86640091D01*
X119664327Y-86406702D01*
X119485699Y-86228073D01*
X119252310Y-86131400D01*
X118395750Y-86131400D01*
X118237000Y-86290150D01*
X117983000Y-86290150D01*
X117824250Y-86131400D01*
X116967690Y-86131400D01*
X116734301Y-86228073D01*
X116555673Y-86406702D01*
X116459000Y-86640091D01*
X99124826Y-86640091D01*
X99125231Y-86175617D01*
X98922418Y-85684771D01*
X98547204Y-85308902D01*
X98056713Y-85105232D01*
X97525617Y-85104769D01*
X97034771Y-85307582D01*
X96661703Y-85680000D01*
X96406802Y-85680000D01*
X95256802Y-84530000D01*
X119940000Y-84530000D01*
X119940000Y-135180000D01*
X45160000Y-135180000D01*
X45160000Y-86640091D01*
X45339000Y-86640091D01*
X45339000Y-87344250D01*
X45497750Y-87503000D01*
X46863000Y-87503000D01*
X46863000Y-86290150D01*
X47117000Y-86290150D01*
X47117000Y-87503000D01*
X48482250Y-87503000D01*
X48641000Y-87344250D01*
X48641000Y-87247056D01*
X51734025Y-87247056D01*
X51853164Y-87503000D01*
X53213000Y-87503000D01*
X53213000Y-86142633D01*
X52957054Y-86024017D01*
X52371621Y-86292812D01*
X51933615Y-86765182D01*
X51734025Y-87247056D01*
X48641000Y-87247056D01*
X48641000Y-86640091D01*
X48544327Y-86406702D01*
X48365699Y-86228073D01*
X48132310Y-86131400D01*
X47275750Y-86131400D01*
X47117000Y-86290150D01*
X46863000Y-86290150D01*
X46704250Y-86131400D01*
X45847690Y-86131400D01*
X45614301Y-86228073D01*
X45435673Y-86406702D01*
X45339000Y-86640091D01*
X45160000Y-86640091D01*
X45160000Y-84530000D01*
X57785000Y-84530000D01*
X57785000Y-86074250D01*
G36*
X51310000Y-94294802D02*
X51310000Y-95243258D01*
X51184683Y-95266838D01*
X50968559Y-95405910D01*
X50823569Y-95618110D01*
X50772560Y-95870000D01*
X50772560Y-97170000D01*
X50816838Y-97405317D01*
X50955910Y-97621441D01*
X51168110Y-97766431D01*
X51420000Y-97817440D01*
X52292638Y-97817440D01*
X56470000Y-101994802D01*
X56470000Y-116187560D01*
X56450000Y-116187560D01*
X56214683Y-116231838D01*
X55998559Y-116370910D01*
X55878767Y-116546232D01*
X55774090Y-116383559D01*
X55755391Y-116370783D01*
X55773943Y-116363117D01*
X56037192Y-116100327D01*
X56179838Y-115756799D01*
X56180162Y-115384833D01*
X56038117Y-115041057D01*
X55775327Y-114777808D01*
X55431799Y-114635162D01*
X55059833Y-114634838D01*
X54716057Y-114776883D01*
X54452808Y-115039673D01*
X54310162Y-115383201D01*
X54310121Y-115430077D01*
X53992599Y-115747599D01*
X53827852Y-115994161D01*
X53789382Y-116187560D01*
X53750000Y-116187560D01*
X53514683Y-116231838D01*
X53298559Y-116370910D01*
X53153569Y-116583110D01*
X53102560Y-116835000D01*
X53102560Y-117350000D01*
X48895000Y-117350000D01*
X48604161Y-117407852D01*
X48513694Y-117468300D01*
X48234415Y-117050330D01*
X47919634Y-116840000D01*
X48234415Y-116629670D01*
X48559271Y-116143489D01*
X48673345Y-115570000D01*
X48559271Y-114996511D01*
X48234415Y-114510330D01*
X47919634Y-114300000D01*
X48234415Y-114089670D01*
X48559271Y-113603489D01*
X48673345Y-113030000D01*
X48559271Y-112456511D01*
X48234415Y-111970330D01*
X47919634Y-111760000D01*
X48095989Y-111642163D01*
X49827443Y-111642163D01*
X49926042Y-111908965D01*
X50535582Y-112135401D01*
X51185377Y-112111341D01*
X51395313Y-112024383D01*
X53354769Y-112024383D01*
X53557582Y-112515229D01*
X53932796Y-112891098D01*
X54423287Y-113094768D01*
X54954383Y-113095231D01*
X55445229Y-112892418D01*
X55821098Y-112517204D01*
X56024768Y-112026713D01*
X56025231Y-111495617D01*
X55822418Y-111004771D01*
X55447204Y-110628902D01*
X54956713Y-110425232D01*
X54425617Y-110424769D01*
X53934771Y-110627582D01*
X53558902Y-111002796D01*
X53355232Y-111493287D01*
X53354769Y-112024383D01*
X51395313Y-112024383D01*
X51673958Y-111908965D01*
X51772557Y-111642163D01*
X50800000Y-110669605D01*
X49827443Y-111642163D01*
X48095989Y-111642163D01*
X48234415Y-111549670D01*
X48559271Y-111063489D01*
X48673345Y-110490000D01*
X48620750Y-110225582D01*
X49154599Y-110225582D01*
X49178659Y-110875377D01*
X49381035Y-111363958D01*
X49647837Y-111462557D01*
X50620395Y-110490000D01*
X50979605Y-110490000D01*
X51952163Y-111462557D01*
X52218965Y-111363958D01*
X52445401Y-110754418D01*
X52421341Y-110104623D01*
X52218965Y-109616042D01*
X51952163Y-109517443D01*
X50979605Y-110490000D01*
X50620395Y-110490000D01*
X49647837Y-109517443D01*
X49381035Y-109616042D01*
X49154599Y-110225582D01*
X48620750Y-110225582D01*
X48559271Y-109916511D01*
X48234415Y-109430330D01*
X48095990Y-109337837D01*
X49827443Y-109337837D01*
X50800000Y-110310395D01*
X51772557Y-109337837D01*
X51673958Y-109071035D01*
X51064418Y-108844599D01*
X50414623Y-108868659D01*
X49926042Y-109071035D01*
X49827443Y-109337837D01*
X48095990Y-109337837D01*
X47919634Y-109220000D01*
X48234415Y-109009670D01*
X48559271Y-108523489D01*
X48673345Y-107950000D01*
X48559271Y-107376511D01*
X48283112Y-106963210D01*
X49315890Y-106963210D01*
X49315890Y-107653400D01*
X49412563Y-107886789D01*
X49591192Y-108065417D01*
X49824581Y-108162090D01*
X50514770Y-108162090D01*
X50673520Y-108003340D01*
X50673520Y-106804460D01*
X50927520Y-106804460D01*
X50927520Y-108003340D01*
X51086270Y-108162090D01*
X51776459Y-108162090D01*
X52009848Y-108065417D01*
X52188477Y-107886789D01*
X52285150Y-107653400D01*
X52285150Y-106963210D01*
X52126400Y-106804460D01*
X50927520Y-106804460D01*
X50673520Y-106804460D01*
X49474640Y-106804460D01*
X49315890Y-106963210D01*
X48283112Y-106963210D01*
X48234415Y-106890330D01*
X47919634Y-106680000D01*
X48234415Y-106469670D01*
X48559271Y-105983489D01*
X48615358Y-105701520D01*
X49315890Y-105701520D01*
X49315890Y-106391710D01*
X49474640Y-106550460D01*
X50673520Y-106550460D01*
X50673520Y-106530460D01*
X50927520Y-106530460D01*
X50927520Y-106550460D01*
X52126400Y-106550460D01*
X52285150Y-106391710D01*
X52285150Y-105701520D01*
X52188477Y-105468131D01*
X52009848Y-105289503D01*
X51776459Y-105192830D01*
X51661458Y-105192830D01*
X51663565Y-105186230D01*
X50799480Y-104322145D01*
X49935395Y-105186230D01*
X49937502Y-105192830D01*
X49824581Y-105192830D01*
X49591192Y-105289503D01*
X49412563Y-105468131D01*
X49315890Y-105701520D01*
X48615358Y-105701520D01*
X48673345Y-105410000D01*
X48559271Y-104836511D01*
X48234415Y-104350330D01*
X47919634Y-104140000D01*
X48234415Y-103929670D01*
X48244947Y-103913907D01*
X49303130Y-103913907D01*
X49329539Y-104503939D01*
X49504527Y-104926398D01*
X49755790Y-105006625D01*
X50619875Y-104142540D01*
X50979085Y-104142540D01*
X51843170Y-105006625D01*
X52094433Y-104926398D01*
X52295830Y-104371173D01*
X52269421Y-103781141D01*
X52094433Y-103358682D01*
X51843170Y-103278455D01*
X50979085Y-104142540D01*
X50619875Y-104142540D01*
X49755790Y-103278455D01*
X49504527Y-103358682D01*
X49303130Y-103913907D01*
X48244947Y-103913907D01*
X48559271Y-103443489D01*
X48627823Y-103098850D01*
X49935395Y-103098850D01*
X50799480Y-103962935D01*
X51663565Y-103098850D01*
X51583338Y-102847587D01*
X51028113Y-102646190D01*
X50438081Y-102672599D01*
X50015622Y-102847587D01*
X49935395Y-103098850D01*
X48627823Y-103098850D01*
X48673345Y-102870000D01*
X48559271Y-102296511D01*
X48234415Y-101810330D01*
X47919634Y-101600000D01*
X48234415Y-101389670D01*
X48559271Y-100903489D01*
X48673345Y-100330000D01*
X48559271Y-99756511D01*
X48234415Y-99270330D01*
X47919634Y-99060000D01*
X48234415Y-98849670D01*
X48559271Y-98363489D01*
X48673345Y-97790000D01*
X48559271Y-97216511D01*
X48234415Y-96730330D01*
X47919634Y-96520000D01*
X48234415Y-96309670D01*
X48559271Y-95823489D01*
X48673345Y-95250000D01*
X48559271Y-94676511D01*
X48234415Y-94190330D01*
X47919634Y-93980000D01*
X48234415Y-93769670D01*
X48559271Y-93283489D01*
X48673345Y-92710000D01*
X48559271Y-92136511D01*
X48234415Y-91650330D01*
X47919634Y-91440000D01*
X48234415Y-91229670D01*
X48238602Y-91223404D01*
X51310000Y-94294802D01*
X51310000Y-94294802D01*
G37*
X51310000Y-94294802D02*
X51310000Y-95243258D01*
X51184683Y-95266838D01*
X50968559Y-95405910D01*
X50823569Y-95618110D01*
X50772560Y-95870000D01*
X50772560Y-97170000D01*
X50816838Y-97405317D01*
X50955910Y-97621441D01*
X51168110Y-97766431D01*
X51420000Y-97817440D01*
X52292638Y-97817440D01*
X56470000Y-101994802D01*
X56470000Y-116187560D01*
X56450000Y-116187560D01*
X56214683Y-116231838D01*
X55998559Y-116370910D01*
X55878767Y-116546232D01*
X55774090Y-116383559D01*
X55755391Y-116370783D01*
X55773943Y-116363117D01*
X56037192Y-116100327D01*
X56179838Y-115756799D01*
X56180162Y-115384833D01*
X56038117Y-115041057D01*
X55775327Y-114777808D01*
X55431799Y-114635162D01*
X55059833Y-114634838D01*
X54716057Y-114776883D01*
X54452808Y-115039673D01*
X54310162Y-115383201D01*
X54310121Y-115430077D01*
X53992599Y-115747599D01*
X53827852Y-115994161D01*
X53789382Y-116187560D01*
X53750000Y-116187560D01*
X53514683Y-116231838D01*
X53298559Y-116370910D01*
X53153569Y-116583110D01*
X53102560Y-116835000D01*
X53102560Y-117350000D01*
X48895000Y-117350000D01*
X48604161Y-117407852D01*
X48513694Y-117468300D01*
X48234415Y-117050330D01*
X47919634Y-116840000D01*
X48234415Y-116629670D01*
X48559271Y-116143489D01*
X48673345Y-115570000D01*
X48559271Y-114996511D01*
X48234415Y-114510330D01*
X47919634Y-114300000D01*
X48234415Y-114089670D01*
X48559271Y-113603489D01*
X48673345Y-113030000D01*
X48559271Y-112456511D01*
X48234415Y-111970330D01*
X47919634Y-111760000D01*
X48095989Y-111642163D01*
X49827443Y-111642163D01*
X49926042Y-111908965D01*
X50535582Y-112135401D01*
X51185377Y-112111341D01*
X51395313Y-112024383D01*
X53354769Y-112024383D01*
X53557582Y-112515229D01*
X53932796Y-112891098D01*
X54423287Y-113094768D01*
X54954383Y-113095231D01*
X55445229Y-112892418D01*
X55821098Y-112517204D01*
X56024768Y-112026713D01*
X56025231Y-111495617D01*
X55822418Y-111004771D01*
X55447204Y-110628902D01*
X54956713Y-110425232D01*
X54425617Y-110424769D01*
X53934771Y-110627582D01*
X53558902Y-111002796D01*
X53355232Y-111493287D01*
X53354769Y-112024383D01*
X51395313Y-112024383D01*
X51673958Y-111908965D01*
X51772557Y-111642163D01*
X50800000Y-110669605D01*
X49827443Y-111642163D01*
X48095989Y-111642163D01*
X48234415Y-111549670D01*
X48559271Y-111063489D01*
X48673345Y-110490000D01*
X48620750Y-110225582D01*
X49154599Y-110225582D01*
X49178659Y-110875377D01*
X49381035Y-111363958D01*
X49647837Y-111462557D01*
X50620395Y-110490000D01*
X50979605Y-110490000D01*
X51952163Y-111462557D01*
X52218965Y-111363958D01*
X52445401Y-110754418D01*
X52421341Y-110104623D01*
X52218965Y-109616042D01*
X51952163Y-109517443D01*
X50979605Y-110490000D01*
X50620395Y-110490000D01*
X49647837Y-109517443D01*
X49381035Y-109616042D01*
X49154599Y-110225582D01*
X48620750Y-110225582D01*
X48559271Y-109916511D01*
X48234415Y-109430330D01*
X48095990Y-109337837D01*
X49827443Y-109337837D01*
X50800000Y-110310395D01*
X51772557Y-109337837D01*
X51673958Y-109071035D01*
X51064418Y-108844599D01*
X50414623Y-108868659D01*
X49926042Y-109071035D01*
X49827443Y-109337837D01*
X48095990Y-109337837D01*
X47919634Y-109220000D01*
X48234415Y-109009670D01*
X48559271Y-108523489D01*
X48673345Y-107950000D01*
X48559271Y-107376511D01*
X48283112Y-106963210D01*
X49315890Y-106963210D01*
X49315890Y-107653400D01*
X49412563Y-107886789D01*
X49591192Y-108065417D01*
X49824581Y-108162090D01*
X50514770Y-108162090D01*
X50673520Y-108003340D01*
X50673520Y-106804460D01*
X50927520Y-106804460D01*
X50927520Y-108003340D01*
X51086270Y-108162090D01*
X51776459Y-108162090D01*
X52009848Y-108065417D01*
X52188477Y-107886789D01*
X52285150Y-107653400D01*
X52285150Y-106963210D01*
X52126400Y-106804460D01*
X50927520Y-106804460D01*
X50673520Y-106804460D01*
X49474640Y-106804460D01*
X49315890Y-106963210D01*
X48283112Y-106963210D01*
X48234415Y-106890330D01*
X47919634Y-106680000D01*
X48234415Y-106469670D01*
X48559271Y-105983489D01*
X48615358Y-105701520D01*
X49315890Y-105701520D01*
X49315890Y-106391710D01*
X49474640Y-106550460D01*
X50673520Y-106550460D01*
X50673520Y-106530460D01*
X50927520Y-106530460D01*
X50927520Y-106550460D01*
X52126400Y-106550460D01*
X52285150Y-106391710D01*
X52285150Y-105701520D01*
X52188477Y-105468131D01*
X52009848Y-105289503D01*
X51776459Y-105192830D01*
X51661458Y-105192830D01*
X51663565Y-105186230D01*
X50799480Y-104322145D01*
X49935395Y-105186230D01*
X49937502Y-105192830D01*
X49824581Y-105192830D01*
X49591192Y-105289503D01*
X49412563Y-105468131D01*
X49315890Y-105701520D01*
X48615358Y-105701520D01*
X48673345Y-105410000D01*
X48559271Y-104836511D01*
X48234415Y-104350330D01*
X47919634Y-104140000D01*
X48234415Y-103929670D01*
X48244947Y-103913907D01*
X49303130Y-103913907D01*
X49329539Y-104503939D01*
X49504527Y-104926398D01*
X49755790Y-105006625D01*
X50619875Y-104142540D01*
X50979085Y-104142540D01*
X51843170Y-105006625D01*
X52094433Y-104926398D01*
X52295830Y-104371173D01*
X52269421Y-103781141D01*
X52094433Y-103358682D01*
X51843170Y-103278455D01*
X50979085Y-104142540D01*
X50619875Y-104142540D01*
X49755790Y-103278455D01*
X49504527Y-103358682D01*
X49303130Y-103913907D01*
X48244947Y-103913907D01*
X48559271Y-103443489D01*
X48627823Y-103098850D01*
X49935395Y-103098850D01*
X50799480Y-103962935D01*
X51663565Y-103098850D01*
X51583338Y-102847587D01*
X51028113Y-102646190D01*
X50438081Y-102672599D01*
X50015622Y-102847587D01*
X49935395Y-103098850D01*
X48627823Y-103098850D01*
X48673345Y-102870000D01*
X48559271Y-102296511D01*
X48234415Y-101810330D01*
X47919634Y-101600000D01*
X48234415Y-101389670D01*
X48559271Y-100903489D01*
X48673345Y-100330000D01*
X48559271Y-99756511D01*
X48234415Y-99270330D01*
X47919634Y-99060000D01*
X48234415Y-98849670D01*
X48559271Y-98363489D01*
X48673345Y-97790000D01*
X48559271Y-97216511D01*
X48234415Y-96730330D01*
X47919634Y-96520000D01*
X48234415Y-96309670D01*
X48559271Y-95823489D01*
X48673345Y-95250000D01*
X48559271Y-94676511D01*
X48234415Y-94190330D01*
X47919634Y-93980000D01*
X48234415Y-93769670D01*
X48559271Y-93283489D01*
X48673345Y-92710000D01*
X48559271Y-92136511D01*
X48234415Y-91650330D01*
X47919634Y-91440000D01*
X48234415Y-91229670D01*
X48238602Y-91223404D01*
X51310000Y-94294802D01*
M02*
