M48
;DRILL file {KiCad 4.0.4+e1-6308~48~ubuntu16.04.1-stable} date Tue Sep  6 14:03:10 2016
;FORMAT={-:-/ absolute / inch / decimal}
FMAT,2
INCH,TZ
T1C0.016
T2C0.028
T3C0.031
T4C0.032
T5C0.035
T6C0.039
T7C0.039
T8C0.040
%
G90
G05
M72
T1
X2.06Y-3.97
X2.175Y-4.55
X2.325Y-4.575
X2.4Y-4.
X2.88Y-4.065
X2.975Y-3.875
X2.98Y-5.055
X2.995Y-4.705
X3.0375Y-3.8875
X3.065Y-4.055
X3.07Y-3.89
X3.15Y-4.125
X3.805Y-4.46
T2
X2.Y-4.1001
X2.Y-4.1999
X2.4Y-4.1001
X2.4Y-4.1999
T3
X2.05Y-3.8
X2.1878Y-3.8
T4
X2.Y-5.
X2.2Y-5.
X2.35Y-5.1
X2.55Y-5.1
X2.65Y-3.7
X2.75Y-4.35
X2.75Y-4.55
X2.85Y-3.7
X3.1Y-3.55
X3.1Y-3.75
X3.15Y-3.4
X3.25Y-3.4
X3.35Y-3.4
T5
X2.1531Y-4.4
X2.35Y-4.4
X2.4Y-4.8
X2.5969Y-4.8
X2.7Y-4.75
X2.7Y-4.95
X2.7Y-5.15
X2.8969Y-4.75
X2.8969Y-4.95
X2.8969Y-5.15
X3.15Y-4.9531
X3.15Y-5.15
X3.25Y-4.3531
X3.25Y-4.55
X3.25Y-4.6531
X3.25Y-4.85
X3.3Y-3.6
X3.3Y-3.8
X3.3Y-4.
X3.45Y-4.3531
X3.45Y-4.55
X3.4969Y-3.6
X3.4969Y-3.8
X3.4969Y-4.
X3.8031Y-4.35
X3.85Y-3.4031
X3.85Y-3.6
X4.Y-4.35
T6
X2.55Y-4.15
T7
X2.Y-4.35
X2.Y-4.75
X3.05Y-4.4
X3.05Y-4.8
X3.65Y-3.45
X3.65Y-3.85
X3.65Y-4.
X3.65Y-4.4
X3.8Y-3.75
X3.8Y-4.15
X3.95Y-3.75
X3.95Y-4.15
T8
X1.85Y-3.45
X1.85Y-3.55
X1.85Y-3.65
X1.85Y-3.75
X1.85Y-3.85
X1.85Y-3.95
X1.85Y-4.05
X1.85Y-4.15
X1.85Y-4.25
X1.85Y-4.35
X1.85Y-4.45
X1.85Y-4.55
X1.85Y-4.65
X1.85Y-4.75
X1.85Y-4.85
X1.85Y-4.95
X1.85Y-5.05
X1.85Y-5.15
X1.85Y-5.25
X2.1Y-3.45
X2.2Y-3.45
X4.65Y-3.45
X4.65Y-3.55
X4.65Y-3.65
X4.65Y-3.75
X4.65Y-3.85
X4.65Y-3.95
X4.65Y-4.05
X4.65Y-4.15
X4.65Y-4.25
X4.65Y-4.35
X4.65Y-4.45
X4.65Y-4.55
X4.65Y-4.65
X4.65Y-4.75
X4.65Y-4.85
X4.65Y-4.95
X4.65Y-5.05
X4.65Y-5.15
X4.65Y-5.25
T0
M30
