G04 #@! TF.FileFunction,Soldermask,Bot*
%FSLAX46Y46*%
G04 Gerber Fmt 4.6, Leading zero omitted, Abs format (unit mm)*
G04 Created by KiCad (PCBNEW 4.0.4+e1-6308~48~ubuntu16.04.1-stable) date Fri Nov  4 19:41:06 2016*
%MOMM*%
%LPD*%
G01*
G04 APERTURE LIST*
%ADD10C,0.100000*%
%ADD11R,1.700000X1.700000*%
%ADD12C,1.700000*%
%ADD13R,2.432000X2.432000*%
%ADD14O,2.432000X2.432000*%
%ADD15O,2.899360X1.901140*%
%ADD16R,1.670000X5.480000*%
%ADD17R,2.432000X2.127200*%
%ADD18O,2.432000X2.127200*%
%ADD19C,2.398980*%
%ADD20C,2.099260*%
%ADD21R,2.099260X2.099260*%
%ADD22C,1.600000*%
G04 APERTURE END LIST*
D10*
D11*
X48260000Y-101600000D03*
D12*
X45760000Y-101600000D03*
D11*
X54610000Y-109220000D03*
D12*
X57110000Y-109220000D03*
D11*
X58420000Y-116840000D03*
D12*
X63420000Y-116840000D03*
D11*
X69850000Y-105410000D03*
D12*
X69850000Y-107910000D03*
D11*
X45720000Y-96520000D03*
D12*
X48220000Y-96520000D03*
D13*
X53340000Y-127000000D03*
D14*
X55880000Y-127000000D03*
D13*
X55880000Y-80010000D03*
D14*
X53340000Y-80010000D03*
D15*
X74930000Y-111760000D03*
X74930000Y-114300000D03*
X74930000Y-109220000D03*
X73660000Y-123190000D03*
X73660000Y-120650000D03*
X73660000Y-125730000D03*
D13*
X63500000Y-80010000D03*
D14*
X60960000Y-80010000D03*
D16*
X76835000Y-80010000D03*
X67945000Y-80010000D03*
X60325000Y-127000000D03*
X69215000Y-127000000D03*
X88265000Y-80010000D03*
X79375000Y-80010000D03*
D17*
X41910000Y-81280000D03*
D18*
X41910000Y-83820000D03*
X41910000Y-86360000D03*
X41910000Y-88900000D03*
X41910000Y-91440000D03*
X41910000Y-93980000D03*
X41910000Y-96520000D03*
X41910000Y-99060000D03*
X41910000Y-101600000D03*
X41910000Y-104140000D03*
X41910000Y-106680000D03*
X41910000Y-109220000D03*
X41910000Y-111760000D03*
X41910000Y-114300000D03*
X41910000Y-116840000D03*
X41910000Y-119380000D03*
X41910000Y-121920000D03*
X41910000Y-124460000D03*
X41910000Y-127000000D03*
D19*
X69850000Y-87630000D03*
X69850000Y-97790000D03*
X73660000Y-92710000D03*
X73660000Y-102870000D03*
X46990000Y-113030000D03*
X46990000Y-123190000D03*
X52070000Y-107315000D03*
X52070000Y-97155000D03*
X45720000Y-82550000D03*
X45720000Y-92710000D03*
D20*
X50802540Y-123190520D03*
D21*
X50802540Y-113030520D03*
D20*
X76202540Y-104140520D03*
D21*
X76202540Y-93980520D03*
D20*
X49532540Y-92710520D03*
D21*
X49532540Y-82550520D03*
D20*
X54612540Y-102870520D03*
D21*
X54612540Y-92710520D03*
D22*
X64770000Y-107950000D03*
X63500000Y-106680000D03*
X62230000Y-107950000D03*
X66040000Y-101600000D03*
X67310000Y-100330000D03*
X66040000Y-99060000D03*
X69850000Y-113030000D03*
X68580000Y-111760000D03*
X67310000Y-113030000D03*
X62230000Y-90170000D03*
X60960000Y-88900000D03*
X59690000Y-90170000D03*
X54610000Y-86360000D03*
X53340000Y-87630000D03*
X54610000Y-88900000D03*
X59690000Y-99060000D03*
X60960000Y-97790000D03*
X59690000Y-96520000D03*
M02*
