M48
INCH,TZ
T1C0.031
T2C0.035
T3C0.039
T4C0.040
%
G90
G05
T1
X27500Y-35500
X28000Y-36000
X28500Y-35500
X30000Y-32000
X30500Y-31500
X30500Y-39000
X31000Y-32000
X31000Y-38500
X31000Y-39500
T2
X26000Y-42531
X26000Y-44500
X30000Y-29000
X30031Y-36000
X31969Y-29000
X32000Y-36000
T3
X26000Y-28500
X26000Y-32500
X26000Y-34000
X26000Y-38000
X28000Y-28500
X28000Y-32500
X28500Y-40000
X28500Y-44000
T4
X24000Y-27500
X24000Y-28500
X24000Y-29500
X24000Y-30500
X24000Y-31500
X24000Y-32500
X24000Y-33500
X24000Y-34500
X24000Y-35500
X24000Y-36500
X24000Y-37500
X24000Y-38500
X24000Y-39500
X24000Y-40500
X24000Y-41500
X24000Y-42500
X24000Y-43500
X24000Y-44500
X24000Y-45500
T0
M30
