G04 #@! TF.FileFunction,Legend,Bot*
%FSLAX46Y46*%
G04 Gerber Fmt 4.6, Leading zero omitted, Abs format (unit mm)*
G04 Created by KiCad (PCBNEW 4.0.4+e1-6308~48~ubuntu16.04.1-stable) date Fri Nov  4 19:49:53 2016*
%MOMM*%
%LPD*%
G01*
G04 APERTURE LIST*
%ADD10C,0.100000*%
%ADD11C,0.300000*%
G04 APERTURE END LIST*
D10*
D11*
X80855429Y-61713142D02*
X82355429Y-61713142D01*
X82355429Y-61355999D01*
X82284000Y-61141714D01*
X82141143Y-60998856D01*
X81998286Y-60927428D01*
X81712571Y-60855999D01*
X81498286Y-60855999D01*
X81212571Y-60927428D01*
X81069714Y-60998856D01*
X80926857Y-61141714D01*
X80855429Y-61355999D01*
X80855429Y-61713142D01*
X81641143Y-59713142D02*
X81569714Y-59498856D01*
X81498286Y-59427428D01*
X81355429Y-59355999D01*
X81141143Y-59355999D01*
X80998286Y-59427428D01*
X80926857Y-59498856D01*
X80855429Y-59641714D01*
X80855429Y-60213142D01*
X82355429Y-60213142D01*
X82355429Y-59713142D01*
X82284000Y-59570285D01*
X82212571Y-59498856D01*
X82069714Y-59427428D01*
X81926857Y-59427428D01*
X81784000Y-59498856D01*
X81712571Y-59570285D01*
X81641143Y-59713142D01*
X81641143Y-60213142D01*
X80712571Y-59070285D02*
X80712571Y-57927428D01*
X80926857Y-57641714D02*
X80855429Y-57427428D01*
X80855429Y-57070285D01*
X80926857Y-56927428D01*
X80998286Y-56855999D01*
X81141143Y-56784571D01*
X81284000Y-56784571D01*
X81426857Y-56855999D01*
X81498286Y-56927428D01*
X81569714Y-57070285D01*
X81641143Y-57355999D01*
X81712571Y-57498857D01*
X81784000Y-57570285D01*
X81926857Y-57641714D01*
X82069714Y-57641714D01*
X82212571Y-57570285D01*
X82284000Y-57498857D01*
X82355429Y-57355999D01*
X82355429Y-56998857D01*
X82284000Y-56784571D01*
X81855429Y-55498857D02*
X80855429Y-55498857D01*
X81855429Y-56141714D02*
X81069714Y-56141714D01*
X80926857Y-56070286D01*
X80855429Y-55927428D01*
X80855429Y-55713143D01*
X80926857Y-55570286D01*
X80998286Y-55498857D01*
X81855429Y-54784571D02*
X80355429Y-54784571D01*
X81784000Y-54784571D02*
X81855429Y-54641714D01*
X81855429Y-54356000D01*
X81784000Y-54213143D01*
X81712571Y-54141714D01*
X81569714Y-54070285D01*
X81141143Y-54070285D01*
X80998286Y-54141714D01*
X80926857Y-54213143D01*
X80855429Y-54356000D01*
X80855429Y-54641714D01*
X80926857Y-54784571D01*
X81855429Y-53427428D02*
X80355429Y-53427428D01*
X81784000Y-53427428D02*
X81855429Y-53284571D01*
X81855429Y-52998857D01*
X81784000Y-52856000D01*
X81712571Y-52784571D01*
X81569714Y-52713142D01*
X81141143Y-52713142D01*
X80998286Y-52784571D01*
X80926857Y-52856000D01*
X80855429Y-52998857D01*
X80855429Y-53284571D01*
X80926857Y-53427428D01*
X80855429Y-51855999D02*
X80926857Y-51998857D01*
X81069714Y-52070285D01*
X82355429Y-52070285D01*
X81855429Y-51427428D02*
X80855429Y-51070285D01*
X81855429Y-50713143D02*
X80855429Y-51070285D01*
X80498286Y-51213143D01*
X80426857Y-51284571D01*
X80355429Y-51427428D01*
X80712571Y-50498857D02*
X80712571Y-49356000D01*
X82355429Y-49213143D02*
X80855429Y-48713143D01*
X82355429Y-48213143D01*
X80855429Y-46927429D02*
X80855429Y-47784572D01*
X80855429Y-47356000D02*
X82355429Y-47356000D01*
X82141143Y-47498857D01*
X81998286Y-47641715D01*
X81926857Y-47784572D01*
M02*
