G04 #@! TF.FileFunction,Legend,Bot*
%FSLAX46Y46*%
G04 Gerber Fmt 4.6, Leading zero omitted, Abs format (unit mm)*
G04 Created by KiCad (PCBNEW 4.0.4+e1-6308~48~ubuntu16.04.1-stable) date Wed Oct 12 15:54:31 2016*
%MOMM*%
%LPD*%
G01*
G04 APERTURE LIST*
%ADD10C,0.100000*%
%ADD11C,0.300000*%
G04 APERTURE END LIST*
D10*
D11*
X85918570Y-113708571D02*
X85918570Y-112208571D01*
X85561427Y-112208571D01*
X85347142Y-112280000D01*
X85204284Y-112422857D01*
X85132856Y-112565714D01*
X85061427Y-112851429D01*
X85061427Y-113065714D01*
X85132856Y-113351429D01*
X85204284Y-113494286D01*
X85347142Y-113637143D01*
X85561427Y-113708571D01*
X85918570Y-113708571D01*
X83918570Y-112922857D02*
X83704284Y-112994286D01*
X83632856Y-113065714D01*
X83561427Y-113208571D01*
X83561427Y-113422857D01*
X83632856Y-113565714D01*
X83704284Y-113637143D01*
X83847142Y-113708571D01*
X84418570Y-113708571D01*
X84418570Y-112208571D01*
X83918570Y-112208571D01*
X83775713Y-112280000D01*
X83704284Y-112351429D01*
X83632856Y-112494286D01*
X83632856Y-112637143D01*
X83704284Y-112780000D01*
X83775713Y-112851429D01*
X83918570Y-112922857D01*
X84418570Y-112922857D01*
X83275713Y-113851429D02*
X82132856Y-113851429D01*
X81775713Y-113708571D02*
X81775713Y-112208571D01*
X81204285Y-112208571D01*
X81061427Y-112280000D01*
X80989999Y-112351429D01*
X80918570Y-112494286D01*
X80918570Y-112708571D01*
X80989999Y-112851429D01*
X81061427Y-112922857D01*
X81204285Y-112994286D01*
X81775713Y-112994286D01*
X79632856Y-112708571D02*
X79632856Y-113708571D01*
X80275713Y-112708571D02*
X80275713Y-113494286D01*
X80204285Y-113637143D01*
X80061427Y-113708571D01*
X79847142Y-113708571D01*
X79704285Y-113637143D01*
X79632856Y-113565714D01*
X78704284Y-113708571D02*
X78847142Y-113637143D01*
X78918570Y-113494286D01*
X78918570Y-112208571D01*
X78204285Y-113637143D02*
X78061428Y-113708571D01*
X77775713Y-113708571D01*
X77632856Y-113637143D01*
X77561428Y-113494286D01*
X77561428Y-113422857D01*
X77632856Y-113280000D01*
X77775713Y-113208571D01*
X77989999Y-113208571D01*
X78132856Y-113137143D01*
X78204285Y-112994286D01*
X78204285Y-112922857D01*
X78132856Y-112780000D01*
X77989999Y-112708571D01*
X77775713Y-112708571D01*
X77632856Y-112780000D01*
X76347142Y-113637143D02*
X76489999Y-113708571D01*
X76775713Y-113708571D01*
X76918570Y-113637143D01*
X76989999Y-113494286D01*
X76989999Y-112922857D01*
X76918570Y-112780000D01*
X76775713Y-112708571D01*
X76489999Y-112708571D01*
X76347142Y-112780000D01*
X76275713Y-112922857D01*
X76275713Y-113065714D01*
X76989999Y-113208571D01*
X75632856Y-113708571D02*
X75632856Y-112708571D01*
X75632856Y-112994286D02*
X75561428Y-112851429D01*
X75489999Y-112780000D01*
X75347142Y-112708571D01*
X75204285Y-112708571D01*
X75061428Y-113851429D02*
X73918571Y-113851429D01*
X73775714Y-112208571D02*
X73275714Y-113708571D01*
X72775714Y-112208571D01*
X72418571Y-112208571D02*
X71490000Y-112208571D01*
X71990000Y-112780000D01*
X71775714Y-112780000D01*
X71632857Y-112851429D01*
X71561428Y-112922857D01*
X71490000Y-113065714D01*
X71490000Y-113422857D01*
X71561428Y-113565714D01*
X71632857Y-113637143D01*
X71775714Y-113708571D01*
X72204286Y-113708571D01*
X72347143Y-113637143D01*
X72418571Y-113565714D01*
M02*
