M48
;DRILL file {KiCad 4.0.4+e1-6308~48~ubuntu16.04.1-stable} date Wed Oct 12 16:00:18 2016
;FORMAT={-:-/ absolute / inch / decimal}
FMAT,2
INCH,TZ
T1C0.016
T2C0.028
T3C0.031
T4C0.035
T5C0.040
%
G90
G05
M72
T1
X2.705Y-3.815
X2.94Y-3.445
X3.6Y-3.42
T2
X3.5499Y-4.1
X3.5499Y-4.5
X3.7001Y-4.1
X3.7001Y-4.5
T3
X2.55Y-4.95
X2.6878Y-4.95
T4
X2.55Y-3.475
X2.55Y-3.6719
X2.8731Y-3.935
X3.07Y-3.935
X3.25Y-3.5
X3.25Y-3.8
X3.4469Y-3.5
X3.4469Y-3.8
T5
X2.35Y-3.25
X2.35Y-3.35
X2.35Y-3.45
X2.35Y-3.55
X2.35Y-3.65
X2.35Y-3.75
X2.35Y-3.85
X2.35Y-3.95
X2.35Y-4.05
X2.35Y-4.15
X2.35Y-4.25
X2.35Y-4.35
X2.35Y-4.45
X2.35Y-4.55
X2.35Y-4.65
X2.35Y-4.75
X2.35Y-4.85
X2.35Y-4.95
X2.35Y-5.05
X2.55Y-3.25
X2.65Y-3.25
X2.9Y-5.
X3.Y-5.
X3.3Y-3.25
X3.4Y-3.25
X4.15Y-3.25
X4.15Y-3.35
X4.15Y-3.45
X4.15Y-3.55
X4.15Y-3.65
X4.15Y-3.75
X4.15Y-3.85
X4.15Y-3.95
X4.15Y-4.05
X4.15Y-4.15
X4.15Y-4.25
X4.15Y-4.35
X4.15Y-4.45
X4.15Y-4.55
X4.15Y-4.65
X4.15Y-4.75
X4.15Y-4.85
X4.15Y-4.95
X4.15Y-5.05
T0
M30
