G04 #@! TF.FileFunction,Soldermask,Top*
%FSLAX46Y46*%
G04 Gerber Fmt 4.6, Leading zero omitted, Abs format (unit mm)*
G04 Created by KiCad (PCBNEW 4.0.4+e1-6308~48~ubuntu16.04.1-stable) date Tue Sep  6 14:07:25 2016*
%MOMM*%
%LPD*%
G01*
G04 APERTURE LIST*
%ADD10C,0.100000*%
%ADD11R,1.960000X1.050000*%
%ADD12C,1.700000*%
%ADD13R,1.700000X1.700000*%
%ADD14R,1.800000X1.800000*%
%ADD15C,1.800000*%
%ADD16C,2.099260*%
%ADD17R,2.099260X2.099260*%
%ADD18R,1.670000X1.670000*%
%ADD19R,2.305000X2.305000*%
%ADD20C,2.305000*%
%ADD21R,2.432000X2.432000*%
%ADD22O,2.432000X2.432000*%
%ADD23C,2.398980*%
%ADD24R,1.797000X1.797000*%
%ADD25C,1.797000*%
%ADD26R,1.400760X2.901900*%
%ADD27R,2.398980X4.400500*%
%ADD28C,2.400000*%
%ADD29R,0.800000X1.900000*%
%ADD30R,1.670000X5.480000*%
%ADD31R,1.416000X5.480000*%
%ADD32R,2.432000X2.127200*%
%ADD33O,2.432000X2.127200*%
%ADD34R,1.670000X4.210000*%
G04 APERTURE END LIST*
D10*
D11*
X54530000Y-117160000D03*
X54530000Y-118110000D03*
X54530000Y-119060000D03*
X57230000Y-119060000D03*
X57230000Y-117160000D03*
X57230000Y-118110000D03*
D12*
X55570000Y-96520000D03*
D13*
X52070000Y-96520000D03*
D14*
X60960000Y-121920000D03*
D15*
X65960000Y-121920000D03*
D14*
X68580000Y-125730000D03*
D15*
X73580000Y-125730000D03*
D14*
X80010000Y-130810000D03*
D15*
X80010000Y-125810000D03*
D14*
X82550000Y-123190000D03*
D15*
X82550000Y-118190000D03*
D14*
X59690000Y-111760000D03*
D15*
X54690000Y-111760000D03*
D14*
X68580000Y-130810000D03*
D15*
X73580000Y-130810000D03*
D14*
X82550000Y-115570000D03*
D15*
X82550000Y-110570000D03*
D14*
X68580000Y-120650000D03*
D15*
X73580000Y-120650000D03*
D14*
X87630000Y-115570000D03*
D15*
X87630000Y-110570000D03*
D14*
X83820000Y-101600000D03*
D15*
X88820000Y-101600000D03*
D14*
X83820000Y-96520000D03*
D15*
X88820000Y-96520000D03*
D14*
X83820000Y-91440000D03*
D15*
X88820000Y-91440000D03*
D14*
X97790000Y-91440000D03*
D15*
X97790000Y-86440000D03*
D14*
X101600000Y-110490000D03*
D15*
X96600000Y-110490000D03*
D16*
X50799480Y-104142540D03*
D17*
X60959480Y-104142540D03*
D16*
X60960520Y-106677460D03*
D17*
X50800520Y-106677460D03*
D18*
X62611000Y-110490000D03*
X64389000Y-110490000D03*
D19*
X50800000Y-127000000D03*
D20*
X55880000Y-127000000D03*
D19*
X59690000Y-129540000D03*
D20*
X64770000Y-129540000D03*
D19*
X67310000Y-93980000D03*
D20*
X72390000Y-93980000D03*
D19*
X69850000Y-110490000D03*
D20*
X69850000Y-115570000D03*
D19*
X78740000Y-95250000D03*
D20*
X78740000Y-90170000D03*
D21*
X55880000Y-87630000D03*
D22*
X53340000Y-87630000D03*
D23*
X77470000Y-121920000D03*
X77470000Y-111760000D03*
X50800000Y-120650000D03*
X50800000Y-110490000D03*
X92710000Y-87630000D03*
X92710000Y-97790000D03*
X92710000Y-111760000D03*
X92710000Y-101600000D03*
X96520000Y-105410000D03*
X96520000Y-95250000D03*
X100330000Y-105410000D03*
X100330000Y-95250000D03*
D24*
X80010000Y-86360000D03*
D25*
X82550000Y-86360000D03*
X85090000Y-86360000D03*
D26*
X60728860Y-98872040D03*
X62230000Y-98872040D03*
X63731140Y-98872040D03*
D27*
X62230000Y-94919800D03*
D10*
G36*
X63430760Y-96694650D02*
X62930380Y-97843950D01*
X61529620Y-97843950D01*
X61029240Y-96694650D01*
X63430760Y-96694650D01*
X63430760Y-96694650D01*
G37*
D28*
X64770000Y-105410000D03*
D29*
X74612500Y-107040000D03*
X75247500Y-107040000D03*
X75882500Y-107040000D03*
X76517500Y-107040000D03*
X77152500Y-107040000D03*
X77787500Y-107040000D03*
X78422500Y-107040000D03*
X79057500Y-107040000D03*
X79692500Y-107040000D03*
X80327500Y-107040000D03*
X80327500Y-101240000D03*
X79692500Y-101240000D03*
X79057500Y-101240000D03*
X78422500Y-101240000D03*
X77787500Y-101240000D03*
X77152500Y-101240000D03*
X76517500Y-101240000D03*
X75882500Y-101240000D03*
X75247500Y-101240000D03*
X74612500Y-101240000D03*
D30*
X59055000Y-86360000D03*
X67945000Y-86360000D03*
D31*
X63500000Y-86360000D03*
D32*
X46990000Y-87630000D03*
D33*
X46990000Y-90170000D03*
X46990000Y-92710000D03*
X46990000Y-95250000D03*
X46990000Y-97790000D03*
X46990000Y-100330000D03*
X46990000Y-102870000D03*
X46990000Y-105410000D03*
X46990000Y-107950000D03*
X46990000Y-110490000D03*
X46990000Y-113030000D03*
X46990000Y-115570000D03*
X46990000Y-118110000D03*
X46990000Y-120650000D03*
X46990000Y-123190000D03*
X46990000Y-125730000D03*
X46990000Y-128270000D03*
X46990000Y-130810000D03*
X46990000Y-133350000D03*
D32*
X105410000Y-87630000D03*
D33*
X105410000Y-90170000D03*
X105410000Y-92710000D03*
X105410000Y-95250000D03*
X105410000Y-97790000D03*
X105410000Y-100330000D03*
X105410000Y-102870000D03*
X105410000Y-105410000D03*
X105410000Y-107950000D03*
X105410000Y-110490000D03*
X105410000Y-113030000D03*
X105410000Y-115570000D03*
X105410000Y-118110000D03*
X105410000Y-120650000D03*
X105410000Y-123190000D03*
X105410000Y-125730000D03*
X105410000Y-128270000D03*
X105410000Y-130810000D03*
X105410000Y-133350000D03*
D34*
X97790000Y-120269000D03*
X95250000Y-120269000D03*
X92710000Y-120269000D03*
X97790000Y-126111000D03*
X95250000Y-126111000D03*
X92710000Y-126111000D03*
M02*
